<?xml version="1.0" encoding="UTF-8"?>
<svg width="140mm" height="120mm" version="1.1" viewBox="0 0 140 120" xmlns="http://www.w3.org/2000/svg" xmlns:cc="http://creativecommons.org/ns#" xmlns:dc="http://purl.org/dc/elements/1.1/" xmlns:osb="http://www.openswatchbook.org/uri/2009/osb" xmlns:rdf="http://www.w3.org/1999/02/22-rdf-syntax-ns#">
 <metadata>
  <rdf:RDF>
   <cc:Work rdf:about="">
    <dc:format>image/svg+xml</dc:format>
    <dc:type rdf:resource="http://purl.org/dc/dcmitype/StillImage"/>
    <dc:title/>
   </cc:Work>
  </rdf:RDF>
 </metadata>
 <path d="m11.428 117.97c-4.1076-0.97016-7.0028-3.778-7.9212-7.5946-0.28512-1.4427-0.48195-8.1065-0.49864-32.393l-0.020904-30.425 2.9976 2.7939c1.6487 1.5367 8.7768 6.7441 15.84 11.572 7.0636 4.828 17.332 11.984 22.819 15.902 15.966 11.401 21.814 13.65 29.968 11.526 4.6742-1.2175 9.7497-4.1268 20.111-11.528 5.4867-3.9191 15.753-11.068 22.814-15.887 7.0612-4.819 14.195-10.031 15.854-11.582l3.0153-2.8207-0.13234 31.152c-0.13111 30.838-0.35745 29.074-1.3284 32.446-1.2227 3.8654-3.7982 5.7457-7.9223 7.0116-4.4037 1.2787-56.625 0.37227-56.625 0.37227-47.145 0.0843-57.484-0.011-58.97-0.5447zm54.206-38.299c-3.1929-1.1937-5.9109-2.9062-17.151-10.806-5.2404-3.6833-15.094-10.549-21.896-15.257-6.8026-4.7083-12.388-9.0063-14.988-11.543-2.6005-2.5369-6.441-7.0514-7.7909-11.697-0.51182-1.7614-0.75969-2.9478-0.78889-5.0529-0.029201-2.1051 0.55156-4.963 1.6576-6.9047 1.5182-2.6653 4.2124-3.8755 6.9304-4.3377 2.718-0.46224 37.66-0.71779 57.688-0.54822 20.028 0.16957 54.316 0.27336 58.209 1.2043 3.2813 0.78474 4.7263 1.4589 6.826 3.4621 1.9289 1.8402 2.6819 4.0547 2.6819 6.4367 0 2.382-0.66928 3.5482-1.939 6.1308-1.2696 2.5827-6.4245 8.136-9.1896 10.819-2.7652 2.6832-7.2232 6.708-14.243 11.889-7.1148 5.2516-16.119 12.334-29.194 21.249-8.0795 5.5085-12.136 6.7041-16.812 4.9558z"/>
</svg>
