<?xml version="1.0" encoding="UTF-8" standalone="no"?>
<svg
   xmlns:osb="http://www.openswatchbook.org/uri/2009/osb"
   xmlns:dc="http://purl.org/dc/elements/1.1/"
   xmlns:cc="http://creativecommons.org/ns#"
   xmlns:rdf="http://www.w3.org/1999/02/22-rdf-syntax-ns#"
   xmlns:svg="http://www.w3.org/2000/svg"
   xmlns="http://www.w3.org/2000/svg"
   width="140mm"
   height="120mm"
   viewBox="0 0 140 120"
   version="1.1"
   id="svg78">
  <defs
     id="defs72">
    <linearGradient
       id="linearGradient846"
       osb:paint="solid">
      <stop
         style="stop-color:#000000;stop-opacity:1;"
         offset="0"
         id="stop844" />
    </linearGradient>
  </defs>
  <metadata
     id="metadata75">
    <rdf:RDF>
      <cc:Work
         rdf:about="">
        <dc:format>image/svg+xml</dc:format>
        <dc:type
           rdf:resource="http://purl.org/dc/dcmitype/StillImage" />
        <dc:title></dc:title>
      </cc:Work>
    </rdf:RDF>
  </metadata>
  <path
     style="fill-opacity:1;stroke:none;stroke-width:1.80058"
     d="m 11.428348,117.96723 c -4.1076432,-0.97016 -7.0028387,-3.77798 -7.9211629,-7.5946 -0.2851247,-1.44268 -0.4819487,-8.1065 -0.4986398,-32.39262 l -0.020904,-30.425314 2.9975761,2.79394 c 1.6486656,1.536665 8.7768476,6.744116 15.8403936,11.572095 7.063552,4.827997 17.33191,11.983762 22.818577,15.901692 15.96562,11.40081 21.81366,13.64998 29.968475,11.525931 4.674228,-1.217478 9.749696,-4.126834 20.11123,-11.528092 5.486657,-3.919117 15.753047,-11.068492 22.814187,-15.887448 7.06115,-4.818979 14.19534,-10.031071 15.85374,-11.582432 l 3.01529,-2.820659 -0.13234,31.152405 c -0.13111,30.837892 -0.35745,29.073912 -1.32842,32.445832 -1.22268,3.86544 -3.79818,5.74566 -7.92232,7.01164 -4.40371,1.27869 -56.625276,0.37227 -56.625276,0.37227 -47.145398,0.0843 -57.484266,-0.011 -58.970293,-0.5447 z M 65.634606,79.667872 C 62.441713,78.474163 59.723724,76.761651 48.484103,68.861816 43.243675,65.178552 33.390265,58.312698 26.587636,53.604349 19.785009,48.896019 14.20002,44.598029 11.599557,42.061157 8.9990953,39.52429 5.1585619,35.009773 3.8087029,30.36433 3.2968791,28.602931 3.04901,27.416531 3.0198103,25.311405 2.9906093,23.206283 3.571373,20.348427 4.6774277,18.406676 c 1.5181936,-2.665293 4.2123656,-3.87548 6.9304053,-4.337721 2.718042,-0.462241 37.659507,-0.71779 57.687979,-0.548215 20.028469,0.169571 54.316168,0.27336 58.208618,1.204257 3.28128,0.784737 4.72629,1.458888 6.82602,3.462098 1.92889,1.840201 2.68191,4.054685 2.68191,6.436699 0,2.382015 -0.66928,3.54818 -1.93902,6.130832 -1.26963,2.582654 -6.42449,8.136037 -9.18965,10.819265 -2.76516,2.683226 -7.22325,6.707966 -14.24282,11.889316 -7.11476,5.251611 -16.119351,12.334434 -29.194424,21.24884 -8.079515,5.508507 -12.135552,6.704147 -16.811884,4.95584 z"
     id="path538" />
</svg>
