<svg width="312.83536" height="23" viewBox="0 0 82.771021 6.0854164" xmlns="http://www.w3.org/2000/svg"><defs><path id="a" d="M-57.243935-5.2039943h333.05563v81.529243h-333.05563z"/></defs><g aria-label="juergen_ehret2000@yahoo.com" style="font-weight:700;font-size:5.82083px;line-height:1.25;font-family:'PT Mono';-inkscape-font-specification:'PT Mono Bold';text-align:center;letter-spacing:0;text-anchor:middle;opacity:1;vector-effect:none;fill:#0070c9;stroke-width:.265;stop-color:#000;stop-opacity:1"><path d="M56.734762 38.83617v3.166531q0 .177535-.04657.328877-.04657.154252-.148431.267758-.09895.113506-.259027.177536-.157163.06694-.378354.06694-.09604 0-.174625-.01455-.07858-.01455-.157162-.04366l.02328-.2794q.0058-.03784.02619-.04948.02037-.0087.06403-.0087h.04948q.02619.0029.06403.0029.227012 0 .323056-.107685.09604-.104775.09604-.340519V38.83617Zm.116416-.925512q0 .07567-.03201.14261-.02911.06403-.08149.116417-.04948.04948-.116417.07858-.06694.0291-.14261.0291-.07567 0-.14261-.0291-.06403-.0291-.116417-.07858-.04948-.05239-.07858-.116417-.0291-.06694-.0291-.14261 0-.07567.0291-.142611.0291-.06985.07858-.119327.05239-.05239.116417-.08149.06694-.0291.14261-.0291.07567 0 .14261.0291.06694.0291.116417.08149.05239.04948.08149.119327.03201.06694.03201.142611zM58.084648 38.83617v1.880128q0 .334697.154252.518054.154252.183356.465667.183356.227012 0 .427831-.107686.200818-.107685.369622-.299772v-2.17408h.518054v2.94825h-.308504q-.110595 0-.1397-.107685l-.04074-.317236q-.192088.212461-.430742.343429-.238654.128059-.547158.128059-.241564 0-.427831-.07858-.183356-.08149-.308504-.227012-.125148-.145521-.189177-.35216-.06112-.20664-.06112-.456935v-1.88013zM62.043632 38.789603q.264847 0 .488949.09022.224102.08731.387085.256116.162984.165894.253207.413279.09313.244475.09313.5588 0 .122237-.02619.162983-.02619.04075-.09895.04075h-1.96162q.0058.2794.07567.486039.06985.20664.192087.34634.122238.136789.291042.206639.168804.06694.378354.06694.194998 0 .334698-.04366.14261-.04657.244474-.09895.101865-.05239.168805-.09604.06985-.04657.119327-.04657.06403 0 .09895.04948l.14552.189177q-.09604.116417-.229922.203729-.133879.0844-.288131.1397-.151342.0553-.314325.08149-.162984.0291-.323056.0291-.305594 0-.564621-.101865-.256116-.104775-.445293-.302683-.186267-.200818-.291042-.49477-.104775-.293952-.104775-.675217 0-.308504.09313-.576262.09604-.267758.273579-.462756.177535-.197908.433651-.308504.256117-.113506.576263-.113506zm.01164.381264q-.375443 0-.590814.218282-.215371.21537-.267758.599545h1.603638q0-.180446-.04948-.328877-.04948-.151341-.14552-.259027-.09604-.110596-.235744-.168804-.13679-.06112-.314325-.06112zM63.923396 41.78442v-2.94825h.296862q.0844 0 .116417.03201.03201.03202.04366.110596l.03493.459846q.151341-.308504.372533-.480219.224102-.174625.523875-.174625.122237 0 .221191.0291.09895.02619.183356.07567l-.06694.387085q-.02037.07276-.09022.07276-.04075 0-.125148-.02619-.0844-.0291-.235743-.0291-.270669 0-.454025.157162-.180446.157163-.302683.456935v1.877218zM67.257822 38.786693q.192087 0 .357981.04366.168804.04075.305593.122237h.800364v.192088q0 .09604-.122237.122237l-.334698.04657q.09895.189177.09895.42201 0 .215371-.0844.392906-.08149.174625-.229923.299773-.14552.125147-.349249.192087-.200819.06694-.442383.06694-.20664 0-.389996-.04948-.09313.05821-.14261.125147-.04657.06694-.04657.130969 0 .104775.0844.160073.0844.05239.224102.07567.1397.02328.317235.0291.177535.0058.360892.02037.186266.01164.363802.04366.177535.03201.317235.104775.1397.07276.224102.200818.0844.128059.0844.331788 0 .189177-.09604.366712-.09313.177535-.270669.314325-.177535.1397-.433651.221191-.256117.0844-.579173.0844-.323056 0-.567531-.06403-.241564-.06403-.401637-.171714-.160073-.107685-.241565-.250296-.07858-.1397-.07858-.293952 0-.218281.13679-.369622.1397-.154252.381264-.244475-.125148-.05821-.200819-.154252-.07276-.09895-.07276-.261938 0-.06403.02328-.130968.02328-.06985.06985-.13679.04948-.06694.119327-.128058.06985-.06112.162984-.107685-.218282-.122238-.343429-.323056-.122238-.20373-.122238-.474398 0-.215371.08149-.389996.0844-.177535.232833-.299772.148431-.125148.35216-.192088.20664-.06694.451115-.06694zm.919691 3.1578q0-.110596-.06112-.177535-.06112-.06694-.165894-.101865-.104775-.03784-.241564-.0553-.13679-.01746-.288131-.02328-.151342-.0087-.308504-.01746-.157163-.0087-.299773-.03201-.165894.07858-.270669.192087-.101864.113506-.101864.270669 0 .09895.04948.183356.05239.08731.157162.148431.104775.06403.261938.09895.160073.03784.375443.03784.20955 0 .375444-.03784.165893-.03784.2794-.107685.116416-.06985.177535-.165894.06112-.09604.06112-.21246zm-.919691-1.600728q.157162 0 .276489-.04366.122237-.04366.203729-.122237.08149-.07858.122237-.186267.04075-.110595.04075-.241564 0-.270669-.165893-.430741-.162984-.160073-.477308-.160073-.311415 0-.477309.160073-.162983.160072-.162983.430741 0 .130969.04075.241564.04366.107686.125148.186267.08149.07858.200819.122237.119327.04366.273579.04366zM70.411075 38.789603q.264847 0 .488949.09022.224102.08731.387085.256116.162984.165894.253207.413279.09313.244475.09313.5588 0 .122237-.02619.162983-.02619.04075-.09895.04075h-1.96162q.0058.2794.07567.486039.06985.20664.192088.34634.122237.136789.291041.206639.168804.06694.378354.06694.194998 0 .334698-.04366.14261-.04657.244475-.09895.101864-.05239.168804-.09604.06985-.04657.119327-.04657.06403 0 .09895.04948l.14552.189177q-.09604.116417-.229922.203729-.133879.0844-.288131.1397-.151342.0553-.314325.08149-.162983.0291-.323056.0291-.305594 0-.564621-.101865-.256116-.104775-.445293-.302683-.186267-.200818-.291042-.49477-.104775-.293952-.104775-.675217 0-.308504.09313-.576262.09604-.267758.273579-.462756.177535-.197908.433651-.308504.256117-.113506.576263-.113506zm.01164.381264q-.375443 0-.590814.218282-.215371.21537-.267758.599545h1.603638q0-.180446-.04948-.328877-.04948-.151341-.14552-.259027-.09604-.110596-.235744-.168804-.136789-.06112-.314325-.06112zM72.290839 41.78442v-2.94825h.308504q.110596 0 .1397.107685l.04075.320146q.192087-.212461.427831-.343429.238654-.130969.550068-.130969.241564 0 .424921.08149.186266.07858.308504.227012.125147.145521.189177.35216.06403.20664.06403.456935v1.877218h-.518054V39.9072q0-.334697-.154252-.518053-.151342-.186267-.465667-.186267-.229922 0-.430741.110596-.197908.110596-.366712.299772v2.17117zM77.399436 42.264638v.34925h-2.293407v-.34925zM78.994525 38.789603q.264848 0 .48895.09022.224102.08731.387085.256116.162983.165894.253206.413279.09313.244475.09313.5588 0 .122237-.02619.162983-.02619.04075-.09895.04075h-1.961619q.0058.2794.07567.486039.06985.20664.192088.34634.122237.136789.291041.206639.168804.06694.378354.06694.194998 0 .334698-.04366.14261-.04657.244475-.09895.101864-.05239.168804-.09604.06985-.04657.119327-.04657.06403 0 .09895.04948l.145521.189177q-.09604.116417-.229923.203729-.133879.0844-.288131.1397-.151342.0553-.314325.08149-.162983.0291-.323056.0291-.305593 0-.56462-.101865-.256117-.104775-.445294-.302683-.186266-.200818-.291041-.49477-.104775-.293952-.104775-.675217 0-.308504.09313-.576262.09604-.267758.273579-.462756.177535-.197908.433652-.308504.256116-.113506.576262-.113506zm.01164.381264q-.375444 0-.590815.218282-.21537.21537-.267758.599545h1.603639q0-.180446-.04948-.328877-.04948-.151341-.145521-.259027-.09604-.110596-.235744-.168804-.136789-.06112-.314324-.06112zM80.874289 41.78442v-4.287041h.518054v1.734607q.189177-.200819.4191-.320146.229923-.122237.529695-.122237.241565 0 .424921.08149.186266.07858.308504.227012.125148.145521.189177.35216.06403.20664.06403.456935v1.877218h-.518054V39.9072q0-.334697-.154252-.518053-.151341-.186267-.465666-.186267-.229923 0-.430742.110596-.197908.110596-.366712.299772v2.17117zM84.1144 41.78442v-2.94825h.296862q.0844 0 .116417.03201.03201.03202.04366.110596l.03493.459846q.151341-.308504.372533-.480219.224102-.174625.523875-.174625.122237 0 .221191.0291.09895.02619.183356.07567l-.06694.387085q-.02037.07276-.09022.07276-.04075 0-.125148-.02619-.0844-.0291-.235744-.0291-.270668 0-.454024.157162-.180446.157163-.302684.456935v1.877218zM87.62345 38.789603q.264848 0 .48895.09022.224102.08731.387085.256116.162983.165894.253206.413279.09313.244475.09313.5588 0 .122237-.02619.162983-.02619.04075-.09895.04075h-1.96162q.0058.2794.07567.486039.06985.20664.192087.34634.122238.136789.291042.206639.168804.06694.378354.06694.194997 0 .334697-.04366.142611-.04657.244475-.09895.101865-.05239.168804-.09604.06985-.04657.119327-.04657.06403 0 .09895.04948l.145521.189177q-.09604.116417-.229923.203729-.133879.0844-.288131.1397-.151341.0553-.314325.08149-.162983.0291-.323056.0291-.305593 0-.56462-.101865-.256117-.104775-.445294-.302683-.186266-.200818-.291041-.49477-.104775-.293952-.104775-.675217 0-.308504.09313-.576262.09604-.267758.273579-.462756.177536-.197908.433652-.308504.256117-.113506.576262-.113506zm.01164.381264q-.375444 0-.590814.218282-.215371.21537-.267759.599545h1.603639q0-.180446-.04948-.328877-.04948-.151341-.145521-.259027-.09604-.110596-.235743-.168804-.13679-.06112-.314325-.06112zM90.396712 41.830987q-.34925 0-.538427-.194998-.186266-.194998-.186266-.56171v-1.804457h-.355071q-.04657 0-.07858-.02619-.03202-.0291-.03202-.08731v-.206639l.483129-.06112.119327-.91096q.0058-.04366.03784-.06985.03202-.0291.08149-.0291h.261937v1.015735h.844021v.375444h-.844021v1.769532q0 .186266.09022.276489.09022.09022.232834.09022.08149 0 .139699-.02037.06112-.02328.104775-.04948.04366-.02619.07276-.04657.03201-.02328.0553-.02328.04075 0 .07276.04948l.151342.247385q-.13388.125148-.323056.197909-.189177.06985-.389996.06985zM92.998897 37.567229q.264848 0 .494771.07858.229923.07858.395816.229923.168804.148431.264848.363802.09604.21537.09604.488949 0 .232834-.06985.430742t-.189177.381264q-.119327.180446-.27649.35216-.154252.168804-.328877.34634l-1.097226 1.12342q.116417-.03201.235744-.04948.119327-.02037.229922-.02037h1.397q.0844 0 .133879.04948.04948.04948.04948.128058v.314325H91.55242v-.177535q0-.0553.02037-.113506.02328-.05821.07276-.107686l1.335881-1.341701q.165893-.168804.302683-.323056.136789-.157163.232833-.314325.09895-.157162.151342-.317235.05239-.162983.05239-.34634 0-.183356-.05821-.320145-.05821-.1397-.160073-.229923-.101864-.09022-.238654-.133879-.136789-.04657-.293952-.04657-.157162 0-.291041.04657t-.238654.130969q-.101865.08149-.174625.194997-.06985.113507-.09895.250296-.02328.0844-.06985.122237-.04657.03784-.122238.03784h-.03201q-.01455-.0029-.03493-.0058l-.270669-.04657q.04075-.28522.157162-.503501.116417-.221192.293952-.369623.180446-.148431.410369-.224102.232833-.07858.500591-.07858zM97.827728 39.700563q0 .547158-.119327.948795-.116417.398727-.320146.660664-.203729.261938-.483129.389996-.276489.128058-.593724.128058-.320146 0-.596635-.128058-.273579-.128058-.477308-.389996-.20373-.261937-.320146-.660664-.116417-.401637-.116417-.948795t.116417-.948795q.116416-.401638.320146-.663575.203729-.264848.477308-.392906.276489-.128058.596635-.128058.317235 0 .593724.128058.2794.128058.483129.392906.203729.261937.320146.663575.119327.401637.119327.948795zm-.538427 0q0-.477308-.08149-.800364-.07858-.325967-.21537-.523875-.133879-.197908-.311415-.28231-.177535-.08731-.369622-.08731-.192088 0-.369623.08731-.177535.0844-.311414.28231-.13388.197908-.215371.523875-.07858.323056-.07858.800364 0 .477308.07858.800364.08149.323056.215371.520964.133879.197909.311414.285221.177535.0844.369623.0844.192087 0 .369622-.0844.177536-.08731.311415-.285221.136789-.197908.21537-.520964.08149-.323056.08149-.800364zM101.20427 39.700563q0 .547158-.11933.948795-.11642.398727-.32015.660664-.20373.261938-.48313.389996-.27649.128058-.593721.128058-.320146 0-.596635-.128058-.273579-.128058-.477308-.389996-.203729-.261937-.320146-.660664-.116416-.401637-.116416-.948795t.116416-.948795q.116417-.401638.320146-.663575.203729-.264848.477308-.392906.276489-.128058.596635-.128058.317231 0 .593721.128058.2794.128058.48313.392906.20373.261937.32015.663575.11933.401637.11933.948795zm-.53843 0q0-.477308-.0815-.800364-.0786-.325967-.21537-.523875-.13388-.197908-.31142-.28231-.177534-.08731-.369621-.08731-.192087 0-.369623.08731-.177535.0844-.311414.28231-.133879.197908-.215371.523875-.07858.323056-.07858.800364 0 .477308.07858.800364.08149.323056.215371.520964.133879.197909.311414.285221.177536.0844.369623.0844.192087 0 .369621-.0844.17754-.08731.31142-.285221.13679-.197908.21537-.520964.0815-.323056.0815-.800364zM104.5808 39.700563q0 .547158-.11932.948795-.11642.398727-.32015.660664-.20373.261938-.48313.389996-.27649.128058-.59372.128058-.32015 0-.59664-.128058-.27358-.128058-.47731-.389996-.20373-.261937-.32014-.660664-.11642-.401637-.11642-.948795t.11642-.948795q.11641-.401638.32014-.663575.20373-.264848.47731-.392906.27649-.128058.59664-.128058.31723 0 .59372.128058.2794.128058.48313.392906.20373.261937.32015.663575.11932.401637.11932.948795zm-.53842 0q0-.477308-.0815-.800364-.0786-.325967-.21537-.523875-.13388-.197908-.31141-.28231-.17754-.08731-.36962-.08731-.19209 0-.36963.08731-.17753.0844-.31141.28231-.13388.197908-.21537.523875-.0786.323056-.0786.800364 0 .477308.0786.800364.0815.323056.21537.520964.13388.197909.31141.285221.17754.0844.36963.0844.19208 0 .36962-.0844.17753-.08731.31141-.285221.13679-.197908.21537-.520964.0815-.323056.0815-.800364zM108.15233 41.243083q-.22701 0-.36962-.107686-.14261-.110595-.18044-.337608-.16881.235744-.36672.337608-.19791.101865-.42492.101865-.17462 0-.30268-.05821-.12806-.06112-.21537-.165894-.0844-.107685-.12806-.253206-.0408-.145521-.0408-.314325 0-.247385.0931-.497681.096-.253206.28231-.454025.18626-.203729.46275-.331787.2794-.128058.64321-.128058.19499 0 .34051.03201.14844.02911.2794.08731l-.27066 1.05066q-.0553.218281-.0553.360891 0 .104775.0262.174625.0262.06694.0699.107685.0466.03784.10478.05239.0611.01455.12805.01455.14261 0 .27067-.08149.12806-.08149.22411-.229922.099-.148432.15425-.355071.0582-.20955.0582-.462756 0-.401637-.13097-.70432-.12806-.302684-.35507-.503502-.22411-.203729-.53261-.302683-.30559-.101865-.66066-.101865-.39 0-.73052.148431-.34052.148431-.59372.410369-.25321.261937-.39873.619918-.14552.357981-.14552.779991 0 .494771.15425.870214.15716.372534.42492.62574.27067.253206.63156.381264.3638.128058.77999.128058.44239 0 .77999-.09604.34052-.09604.58791-.244475.0436-.02619.0786-.02619.0611 0 .0902.06985l.0728.192087q-.31141.20955-.71014.328877-.39581.119327-.89932.119327-.5035 0-.93715-.160073-.43365-.160072-.7538-.462756-.31723-.299772-.50059-.736335-.18044-.436562-.18044-.989541 0-.317235.0786-.611187.0815-.293952.22701-.547158.14552-.256116.34925-.465666.20373-.21246.45402-.360892.2503-.151341.53843-.232833.28813-.0844.60246-.0844.26775 0 .52387.05821.25612.05821.48313.171715.22992.113506.42201.28231.19209.165894.32888.384175.1397.215371.21537.483129.0786.264848.0786.576262 0 .314325-.0902.582083-.0873.264848-.24448.459846-.15425.194997-.36671.305593-.20955.110596-.45403.110596zm-1.23983-.34925q.0902 0 .18044-.0291.0931-.0291.17754-.101865.0873-.07276.15716-.197908.0728-.125148.12224-.314325l.22119-.858572q-.11351-.02619-.24739-.02619-.21828 0-.40163.09313-.18045.09022-.31142.238655-.13097.148431-.20664.340518-.0728.192087-.0728.392906 0 .20955.0961.337608.096.125148.28522.125148zM110.83146 42.654634q-.0262.05821-.0669.09313-.0378.03492-.11932.03492h-.38418l.53843-1.169986-1.21655-2.776536h.4482q.0669 0 .10477.03492.0378.03201.0553.07276l.78872 1.856845q.0262.06403.0437.128058.0204.06403.0349.130969.0204-.06694.0407-.130969.0204-.06403.0466-.130969l.76544-1.853934q.0175-.04657.0582-.07567.0436-.03201.0931-.03201h.41328zM115.11105 41.78442h-.22993q-.0757 0-.12223-.02328-.0466-.02328-.0611-.09895l-.0582-.273579q-.11642.104775-.22701.189177-.1106.08149-.23284.139699-.12223.0553-.26193.0844-.13679.0291-.3056.0291-.17171 0-.32305-.04657-.14844-.04948-.25903-.145521-.1106-.09604-.17754-.241564-.064-.148431-.064-.34925 0-.174625.0961-.334698.096-.162983.3085-.288131.21537-.125148.56171-.203729.34634-.08149.84693-.09313v-.229923q0-.343429-.14843-.518054-.14552-.177535-.43365-.177535-.18918 0-.32015.04948-.12805.04657-.2241.107685-.0931.05821-.16298.107686-.0669.04657-.13388.04657-.0524 0-.0931-.02619-.0378-.02911-.0611-.06985l-.0931-.165894q.24448-.235744.52679-.35216.28231-.116417.62574-.116417.24738 0 .43947.08149.19209.08149.32306.227012.13097.145521.19791.35216.0669.20664.0669.454025zm-1.34462-.317235q.13679 0 .2503-.02619.11351-.0291.21246-.07858.10186-.05239.19209-.125148.0931-.07276.18044-.165894v-.614097q-.35798.01164-.60827.05821-.2503.04366-.40746.116417-.15716.07276-.22992.171714-.0699.09895-.0699.221192 0 .116416.0378.200818.0378.0844.10186.1397.064.05239.15135.07858.0873.02328.18917.02328zM115.90159 41.78442v-4.287041h.51805v1.734607q.18918-.200819.4191-.320146.22992-.122237.5297-.122237.24156 0 .42492.08149.18626.07858.3085.227012.12515.145521.18918.35216.064.20664.064.456935v1.877218h-.51806V39.9072q0-.334697-.15425-.518053-.15134-.186267-.46567-.186267-.22992 0-.43074.110596-.1979.110596-.36671.299772v2.17117zM120.33497 38.789603q.32306 0 .58208.107685.26194.107686.44239.305594.18335.197908.2794.480218.099.2794.099.62574 0 .349249-.099.628649-.0961.2794-.2794.477308-.18045.197909-.44239.305594-.25902.104775-.58208.104775-.32306 0-.58499-.104775-.25903-.107685-.44239-.305594-.18335-.197908-.28231-.477308-.099-.2794-.099-.628649 0-.34634.099-.62574.099-.28231.28231-.480218.18336-.197908.44239-.305594.26193-.107685.58499-.107685zm0 2.631015q.43656 0 .65193-.291041.21537-.293952.21537-.817827 0-.526785-.21537-.820737-.21537-.293952-.65193-.293952-.22119 0-.38418.07567-.16298.07567-.27357.218281-.10769.14261-.16299.35216-.0524.20664-.0524.468577 0 .261937.0524.468577.0553.206639.16299.34925.11059.1397.27357.21537.16299.07567.38418.07567zM123.57508 38.789603q.32306 0 .58208.107685.26194.107686.44239.305594.18335.197908.2794.480218.099.2794.099.62574 0 .349249-.099.628649-.0961.2794-.2794.477308-.18045.197909-.44239.305594-.25902.104775-.58208.104775-.32305 0-.58499-.104775-.25903-.107685-.44238-.305594-.18336-.197908-.28231-.477308-.099-.2794-.099-.628649 0-.34634.099-.62574.099-.28231.28231-.480218.18335-.197908.44238-.305594.26194-.107685.58499-.107685zm0 2.631015q.43656 0 .65193-.291041.21538-.293952.21538-.817827 0-.526785-.21538-.820737-.21537-.293952-.65193-.293952-.22119 0-.38417.07567-.16299.07567-.27358.218281-.10769.14261-.16299.35216-.0524.20664-.0524.468577 0 .261937.0524.468577.0553.206639.16299.34925.11059.1397.27358.21537.16298.07567.38417.07567zM125.45311 41.464274q0-.07567.0262-.14261.0291-.06694.0757-.116417.0495-.04948.11641-.07858.0669-.0291.14261-.0291.0757 0 .14261.0291.0669.0291.11642.07858.0495.04948.0757.116417.0291.06694.0291.14261 0 .07858-.0291.145521-.0262.06403-.0757.113506-.0495.04948-.11642.07567-.0669.0291-.14261.0291-.0757 0-.14261-.0291-.0669-.02619-.11641-.07567-.0466-.04948-.0757-.113506-.0262-.06694-.0262-.145521zM128.87222 39.360044q-.0233.03202-.0466.04948-.0233.01746-.0669.01746-.0437 0-.096-.03492-.0495-.03784-.12806-.08149-.0786-.04366-.19209-.07858-.11059-.03784-.27358-.03784-.21537 0-.38126.07858-.16589.07567-.2794.221191-.1106.145521-.16881.352161-.0553.206639-.0553.462756 0 .267758.0611.477308.0611.206639.17171.349249.1106.1397.26776.215371.16007.07276.35798.07276.18918 0 .31141-.04366.12224-.04657.20373-.101864.0815-.0553.13388-.09895.0524-.04657.10478-.04657.0669 0 .099.04948l.14552.189177q-.19209.235744-.48022.346339-.28813.107686-.60827.107686-.27649 0-.51515-.101865-.23574-.101864-.41037-.293952-.17462-.194997-.27648-.477308-.099-.28231-.099-.643201 0-.328877.0902-.608277.0931-.2794.26776-.480219.17754-.203729.43656-.317235.25903-.113506.59373-.113506.3085 0 .54716.101865.23865.09895.42201.28231zM130.77153 38.789603q.32306 0 .58208.107685.26194.107686.44239.305594.18335.197908.2794.480218.099.2794.099.62574 0 .349249-.099.628649-.096.2794-.2794.477308-.18045.197909-.44239.305594-.25902.104775-.58208.104775-.32305 0-.58499-.104775-.25903-.107685-.44239-.305594-.18335-.197908-.28231-.477308-.099-.2794-.099-.628649 0-.34634.099-.62574.099-.28231.28231-.480218.18336-.197908.44239-.305594.26194-.107685.58499-.107685zm0 2.631015q.43656 0 .65193-.291041.21537-.293952.21537-.817827 0-.526785-.21537-.820737-.21537-.293952-.65193-.293952-.22119 0-.38417.07567-.16299.07567-.27358.218281-.10769.14261-.16299.35216-.0524.20664-.0524.468577 0 .261937.0524.468577.0553.206639.16299.34925.11059.1397.27358.21537.16298.07567.38417.07567zM132.81837 41.78442v-2.94825h.30851q.11059 0 .1397.107685l.0378.302683q.16299-.200818.3638-.328877.20373-.128058.47149-.128058.29977 0 .48313.165894.18627.165893.26776.448204.0611-.160073.16007-.27649.10187-.116416.22701-.192087.12515-.07567.26485-.110596.14261-.03493.28813-.03493.23284 0 .41328.07567.18336.07276.30851.215371.12805.14261.19499.35216.0669.206639.0669.474397v1.877218h-.51805v-1.877218q0-.346339-.15134-.523874-.15134-.180446-.43948-.180446-.12805 0-.24447.04657-.11351.04366-.20082.130968-.0873.08731-.1397.221192-.0495.130968-.0495.305593v1.877218h-.51805v-1.877218q0-.35507-.14261-.529695-.14261-.174625-.41619-.174625-.19209 0-.35798.104775-.16298.101864-.29977.2794v2.197363z" style="font-weight:400;font-family:Lato;-inkscape-font-specification:Lato;vector-effect:none;stop-color:#000;stop-opacity:1" transform="translate(-54.820118 -37.20592846)"/></g></svg>