<?xml version="1.0" encoding="UTF-8" standalone="no"?>
<svg
   aria-hidden="true"
   focusable="false"
   data-prefix="fab"
   data-icon="linkedin"
   class="svg-inline--fa fa-linkedin"
   role="img"
   viewBox="0 0 385.5118 105.82678"
   version="1.1"
   id="svg826"
   sodipodi:docname="linkedin-brands.svg"
   width="102mm"
   height="28mm"
   inkscape:version="1.1.1 (c3084ef, 2021-09-22)"
   xmlns:inkscape="http://www.inkscape.org/namespaces/inkscape"
   xmlns:sodipodi="http://sodipodi.sourceforge.net/DTD/sodipodi-0.dtd"
   xmlns="http://www.w3.org/2000/svg"
   xmlns:svg="http://www.w3.org/2000/svg">
  <defs
     id="defs830" />
  <sodipodi:namedview
     id="namedview828"
     pagecolor="#ffffff"
     bordercolor="#666666"
     borderopacity="1.0"
     inkscape:pageshadow="2"
     inkscape:pageopacity="0.0"
     inkscape:pagecheckerboard="0"
     showgrid="false"
     showguides="true"
     inkscape:guide-bbox="true"
     fit-margin-top="0"
     fit-margin-left="0"
     fit-margin-right="0"
     fit-margin-bottom="0"
     inkscape:zoom="1.9215298"
     inkscape:cx="135.56907"
     inkscape:cy="14.571723"
     inkscape:current-layer="svg826"
     units="mm"
     borderlayer="false"
     height="26.883mm"
     inkscape:document-units="mm">
    <sodipodi:guide
       position="-40.211093,13.690769"
       orientation="0,-1"
       id="guide25680" />
    <sodipodi:guide
       position="207.38221,62.824789"
       orientation="0,-1"
       id="guide30312" />
  </sodipodi:namedview>
  <g
     id="g919"
     transform="translate(1.7795277,1.8897654)">
    <path
       fill="currentColor"
       d="m 374.45271,0.22042205 h -87.11388 c -3.99168,0 -7.23492,3.28860005 -7.23492,7.32563995 v 86.95512 c 0,4.03704 3.24324,7.325638 7.23492,7.325638 h 87.11388 c 3.99168,0 7.2576,-3.288598 7.2576,-7.325638 V 7.546062 c 0,-4.0370399 -3.26592,-7.32563995 -7.2576,-7.32563995 z M 310.81263,87.311622 h -15.05952 v -48.48984 h 15.0822 v 48.48984 z m -7.52976,-55.1124 c -4.83084,0 -8.7318,-3.92364 -8.7318,-8.7318 0,-4.80816 3.90096,-8.7318 8.7318,-8.7318 4.80816,0 8.7318,3.92364 8.7318,8.7318 0,4.83084 -3.90096,8.7318 -8.7318,8.7318 z m 63.98028,55.1124 h -15.05952 v -23.5872 c 0,-5.62464 -0.1134,-12.85956 -7.8246,-12.85956 -7.84728,0 -9.04932,6.1236 -9.04932,12.45132 v 23.99544 h -15.05952 v -48.48984 h 14.44716 v 6.62256 h 0.20412 c 2.01852,-3.81024 6.94008,-7.8246 14.26572,-7.8246 15.24096,0 18.07596,10.04724 18.07596,23.11092 z"
       id="path824"
       style="fill:#333333;fill-opacity:1;stroke-width:0.2268" />
    <text
       xml:space="preserve"
       style="font-size:96px;line-height:1.25;font-family:Lato;-inkscape-font-specification:'Lato, Normal';text-align:center;letter-spacing:0px;text-anchor:middle;fill:#333333;fill-opacity:1"
       x="131.20296"
       y="86.039619"
       id="text1926"><tspan
         sodipodi:role="line"
         id="tspan1924"
         x="131.20296"
         y="86.039619">Linked</tspan></text>
  </g>
</svg>
