<svg width="832" height="520" viewBox="0 0 220.13328 137.5833" xmlns="http://www.w3.org/2000/svg"><defs><filter style="color-interpolation-filters:sRGB" id="a" x="-.05642297" y="-.03515585" width="1.1128459" height="1.0703117"><feGaussianBlur stdDeviation="1.1384116"/></filter></defs><path style="display:inline;fill:#fff;fill-opacity:1;stroke:snow;stroke-width:1.07228;stroke-linecap:butt;stroke-linejoin:miter;stroke-miterlimit:4;stroke-dasharray:none;stroke-opacity:1" d="M7.2447701 81.387537 204.4219 81.340271" transform="translate(4.2333316 2.9104229)"/><path d="M24.044421 64.80508q-.533229 1.199774-1.42195 2.088494-.844286.888719-1.866316 1.46639-1.022028.622107-2.13293.933157-1.066466.311044-2.044059.311044h-5.687813L41.19674 4.816403q1.02203-2.221804 2.977213-3.37714Q46.12914.283928 48.484252.283928h5.59894z" style="font-style:italic;font-weight:900;font-size:22.5778px;line-height:1.25;font-family:Lato;-inkscape-font-specification:'Lato Heavy Italic';font-variation-settings:normal;letter-spacing:0;mix-blend-mode:normal;vector-effect:none;fill:#fff;fill-opacity:1;stroke:none;stroke-width:.4956;stroke-linecap:butt;stroke-linejoin:miter;stroke-miterlimit:4;stroke-dasharray:none;stroke-dashoffset:0;stroke-opacity:.201422;-inkscape-stroke:none;stop-color:#000" transform="translate(16.2306656 7.8980888)"/><path d="M49.532111 64.80508q-.533232 1.199774-1.421954 2.088494-.844284.888719-1.866317 1.46639-1.022028.622107-2.132927.933157-1.066466.311044-2.044061.311044h-5.687814L66.684423 4.816403q1.022029-2.221804 2.977214-3.37714Q71.616826.283928 73.971928.283928h5.598939z" style="font-style:italic;font-weight:900;font-size:22.5778px;line-height:1.25;font-family:Lato;-inkscape-font-specification:'Lato Heavy Italic';font-variation-settings:normal;letter-spacing:0;vector-effect:none;fill:#fff;fill-opacity:1;stroke:none;stroke-width:.4956;stroke-linecap:butt;stroke-linejoin:miter;stroke-miterlimit:4;stroke-dasharray:none;stroke-dashoffset:0;stroke-opacity:.201422;-inkscape-stroke:none;stop-color:#000" transform="translate(16.2306656 7.8980888)"/><g style="fill:#fff;fill-opacity:1"><path d="M38.070402-3.2235325q-.711687 5.7883806-2.609525 10.4855244-1.897842 4.6971441-5.029272 8.0658401-3.131431 3.368654-7.496458 5.219057-4.317582 1.802912-9.916201 1.802912-2.514635 0-4.9343778-.284535-2.3722969-.284536-4.9343793-.948928l1.1387042-8.872373q.1423517-1.186138.8540261-1.945305.6642449-.8065756 2.1825159-.8065756 1.1386998 0 2.5620772.2845353 1.4233777.2370423 3.1314337.2370423 3.843121 0 6.310306-2.9890911 2.46719-3.036542 3.273774-9.8687511l5.408835-44.6941038h15.46738zM92.628942-35.629117H67.055579l-2.087623 16.70096h19.595176L83.044861-7.4462546H63.544578L61.456959 9.6817606h25.763144L85.701836 21.590676H44.423862l8.540269-69.12875h41.183082z" style="font-style:italic;font-weight:900;font-size:22.5778px;line-height:1.25;font-family:Lato;-inkscape-font-specification:'Lato Heavy Italic';font-variation-settings:normal;letter-spacing:0;opacity:1;vector-effect:none;fill:#fff;fill-opacity:1;stroke:none;stroke-width:.4956;stroke-linecap:butt;stroke-linejoin:miter;stroke-miterlimit:4;stroke-dasharray:none;stroke-dashoffset:0;stroke-opacity:.201422;-inkscape-stroke:none;stop-color:#000;stop-opacity:1" transform="translate(98.8640926 55.4363728)"/></g><g aria-label="SOFTWARE SYSTEMS" style="font-size:19.6057px;line-height:1.25;font-family:Lato;-inkscape-font-specification:'Lato, Normal';letter-spacing:0;display:inline;fill:#fff;fill-opacity:1;stroke-width:.919018"><path d="M32.847914-64.048939q-.09435.188705-.223015.265902-.120085.0772-.291635.0772-.17155 0-.385988-.128663-.214437-.13724-.506072-.300212-.291635-.162973-.6862-.291635-.385988-.13724-.917793-.13724-.48034 0-.840595.120085-.351677.111507-.600425.317367-.24017.20586-.360255.497495-.120085.283058-.120085.626158 0 .437452.24017.729087.248748.291635.65189.497495.403143.20586.917793.368833.51465.162972 1.046455.351677.540382.180128 1.055032.428875.51465.24017.917793.61758.403143.368833.643313.909216.248747.540382.248747 1.312357 0 .840595-.291635 1.57826-.283057.729088-.840595 1.278048-.54896.540382-1.346668.85775-.797707.30879-1.827007.30879-.591848 0-1.16654-.120085-.574693-.111508-1.106498-.325945-.523227-.214438-.986412-.51465-.454608-.300213-.814863-.669045l.669045-1.106498q.09435-.120085.223015-.197282.13724-.08578.300213-.08578.214437 0 .463185.180127.248747.17155.58327.385988.3431.214437.797707.394565.463185.17155 1.106498.17155.986412 0 1.526795-.463185.540382-.471763.540382-1.346668 0-.488917-.248747-.797707-.24017-.30879-.643313-.51465-.403142-.214438-.917792-.360255-.51465-.145818-1.046455-.317368-.531805-.17155-1.046455-.41172-.51465-.24017-.917793-.626158-.403142-.385987-.65189-.96068-.24017-.58327-.24017-1.432442 0-.677623.265903-1.320935.27448-.643313.78913-1.140808.523227-.497495 1.278047-.797707.75482-.300213 1.724078-.300213 1.09792 0 2.02429.3431.92637.3431 1.57826.96068zM47.311456-60.103289q0 1.363823-.454608 2.530363-.454607 1.157962-1.278048 2.007135-.82344.849172-1.981402 1.329512-1.157963.471763-2.564673.471763t-2.57325-.471763q-1.157962-.48034-1.98998-1.329512-.82344-.849173-1.278047-2.007135-.454608-1.16654-.454608-2.530363t.454608-2.521785q.454607-1.16654 1.278047-2.015713.832018-.849172 1.98998-1.320935 1.16654-.48034 2.57325-.48034t2.564673.48034q1.157962.48034 1.981402 1.329513.823441.840595 1.278048 2.007135.454608 1.157962.454608 2.521785zm-2.367391 0q0-1.020723-.27448-1.827008-.265902-.814862-.771975-1.380977-.506072-.566115-1.23516-.866328-.72051-.300212-1.629725-.300212-.909215 0-1.638302.300212-.729088.300213-1.243738.866328-.506072.566115-.780552 1.380977-.27448.806285-.27448 1.827008 0 1.020723.27448 1.835585.27448.806285.780552 1.3724.51465.557538 1.243738.85775.729087.300213 1.638302.300213.909215 0 1.629725-.300213.729088-.300212 1.23516-.85775.506073-.566115.771975-1.3724.27448-.814862.27448-1.835585zM56.94104-66.304822v1.835585h-5.498177v3.67117h4.640427v1.844163h-4.640427v5.052148H49.11836v-12.403066zM67.475015-66.304822v1.895628h-3.731212v10.507438h-2.307348v-10.507438h-3.748368v-1.895628zM67.804445-66.304822h1.938515q.300213 0 .497495.145818.20586.13724.27448.37741L72.625-58.362056q.0772.27448.13724.600425.06862.317367.128663.677622.06862-.360255.145817-.677622.08577-.325945.180128-.600425l2.43601-7.419538q.06862-.197283.265903-.360255.20586-.162973.497495-.162973h.677622q.300213 0 .497495.145818.197283.13724.27448.37741l2.418855 7.419538q.188705.54896.325945 1.218005.06004-.334523.120085-.643313.06862-.30879.13724-.574692l2.110065-7.419538q.06004-.214438.265903-.368833.20586-.154395.497495-.154395h1.809852l-3.851297 12.403066h-2.084333l-2.71049-8.474571q-.05147-.162972-.111507-.351677-.05147-.188705-.10293-.403143-.05147.214438-.111508.403143-.05147.188705-.10293.351677l-2.736223 8.474571h-2.084332zM96.809797-53.901756h-1.78412q-.300212 0-.497495-.145818-.188705-.154395-.27448-.37741l-.92637-2.530362H88.18941l-.92637 2.530362q-.06862.197283-.27448.360255-.197283.162973-.488918.162973h-1.792698l4.872021-12.403066h2.358812zm-8.02854-4.683315h3.954228l-1.50964-4.125778q-.10293-.27448-.231593-.643313-.120085-.37741-.24017-.814862-.120085.437452-.24017.814862-.111507.37741-.223015.660468zM100.48848-58.748044v4.846288h-2.307352v-12.403066h3.782682q1.26947 0 2.1701.265903.90922.257325 1.48391.729087.58327.471763.84917 1.13223.27448.65189.27448 1.44102 0 .626158-.1887 1.183695-.18013.557538-.53181 1.012145-.3431.454608-.85775.797708-.50607.3431-1.15796.54896.43745.248748.75482.711933l3.10506 4.580385h-2.07576q-.30021 0-.51465-.120085-.20586-.120085-.35168-.3431l-2.60756-3.971383q-.14581-.223015-.32594-.317367-.17155-.09435-.51465-.09435zm0-1.655458h1.44102q.65189 0 1.13223-.162972.48891-.162973.7977-.44603.31737-.291635.47177-.6862.15439-.394565.15439-.866328 0-.943525-.62616-1.449597-.61758-.506073-1.89562-.506073h-1.47533zM117.15108-66.304822v1.835585h-5.49818v3.439578h4.33164v1.775542h-4.33164v3.508198h5.49818v1.844163h-7.82268v-12.403066zM129.11025-64.048939q-.0944.188705-.22301.265902-.12009.0772-.29164.0772t-.38599-.128663q-.21443-.13724-.50607-.300212-.29163-.162973-.6862-.291635-.38599-.13724-.91779-.13724-.48034 0-.8406.120085-.35167.111507-.60042.317367-.24017.20586-.36026.497495-.12008.283058-.12008.626158 0 .437452.24017.729087.24875.291635.65189.497495.40314.20586.91779.368833.51465.162972 1.04646.351677.54038.180128 1.05503.428875.51465.24017.91779.61758.40314.368833.64331.909216.24875.540382.24875 1.312357 0 .840595-.29163 1.57826-.28306.729088-.8406 1.278048-.54896.540382-1.34667.85775-.7977.30879-1.827.30879-.59185 0-1.16654-.120085-.5747-.111508-1.1065-.325945-.52323-.214438-.98641-.51465-.45461-.300213-.81487-.669045l.66905-1.106498q.0944-.120085.22301-.197282.13724-.08578.30022-.08578.21443 0 .46318.180127.24875.17155.58327.385988.3431.214437.79771.394565.46318.17155 1.1065.17155.98641 0 1.52679-.463185.54038-.471763.54038-1.346668 0-.488917-.24874-.797707-.24017-.30879-.64332-.51465-.40314-.214438-.91779-.360255-.51465-.145818-1.04645-.317368-.53181-.17155-1.04646-.41172-.51465-.24017-.91779-.626158-.40314-.385987-.65189-.96068-.24017-.58327-.24017-1.432442 0-.677623.2659-1.320935.27448-.643313.78913-1.140808.52323-.497495 1.27805-.797707.75482-.300213 1.72408-.300213 1.09792 0 2.02429.3431.92637.3431 1.57826.96068zM137.19213-58.722311v4.820555h-2.30735v-4.820555l-4.52034-7.582511h2.03287q.30021 0 .47176.145818.18013.145817.30021.368832l2.27304 4.142933q.19728.368832.3431.703355.14582.325945.2659.643312.11151-.325945.24875-.65189.14582-.334522.3431-.694777l2.25588-4.142933q.0944-.188705.28306-.351677.18871-.162973.48034-.162973h2.04145zM149.54883-64.048939q-.0944.188705-.22302.265902-.12008.0772-.29163.0772-.17155 0-.38599-.128663-.21444-.13724-.50607-.300212-.29164-.162973-.6862-.291635-.38599-.13724-.9178-.13724-.48034 0-.84059.120085-.35168.111507-.60043.317367-.24017.20586-.36025.497495-.12009.283058-.12009.626158 0 .437452.24017.729087.24875.291635.65189.497495.40315.20586.9178.368833.51465.162972 1.04645.351677.54038.180128 1.05503.428875.51465.24017.9178.61758.40314.368833.64331.909216.24875.540382.24875 1.312357 0 .840595-.29164 1.57826-.28306.729088-.84059 1.278048-.54896.540382-1.34667.85775-.79771.30879-1.82701.30879-.59185 0-1.16654-.120085-.57469-.111508-1.1065-.325945-.52322-.214438-.98641-.51465-.45461-.300213-.81486-.669045l.66904-1.106498q.0944-.120085.22302-.197282.13724-.08578.30021-.08578.21444 0 .46319.180127.24874.17155.58327.385988.3431.214437.7977.394565.46319.17155 1.1065.17155.98641 0 1.5268-.463185.54038-.471763.54038-1.346668 0-.488917-.24875-.797707-.24017-.30879-.64331-.51465-.40314-.214438-.91779-.360255-.51465-.145818-1.04646-.317368-.5318-.17155-1.04645-.41172-.51465-.24017-.9178-.626158-.40314-.385987-.65189-.96068-.24017-.58327-.24017-1.432442 0-.677623.26591-1.320935.27448-.643313.78913-1.140808.52322-.497495 1.27804-.797707.75482-.300213 1.72408-.300213 1.09792 0 2.02429.3431.92637.3431 1.57826.96068zM160.85585-66.304822v1.895628h-3.73121v10.507438h-2.30735v-10.507438h-3.74837v-1.895628zM170.15734-66.304822v1.835585h-5.49818v3.439578h4.33164v1.775542h-4.33164v3.508198h5.49818v1.844163h-7.82268v-12.403066zM178.37914-59.048256q.14582.27448.2659.574692.12866.291635.24875.591848.12008-.30879.24875-.609003.12866-.300212.27448-.574692l3.67117-6.870578q.0686-.128663.13724-.20586.0772-.0772.16297-.111508.0944-.03431.20586-.04289.11151-.0086.2659-.0086h1.74123v12.403066h-2.03286v-8.011386q0-.223015.009-.488917.0172-.265903.0429-.540383l-3.74837 7.033551q-.12866.24017-.33452.37741-.20586.128662-.48034.128662h-.31737q-.27448 0-.48034-.128662-.20586-.13724-.33452-.37741l-3.79983-7.059283q.0343.283057.0429.557537.0172.265903.0172.497495v8.011386h-2.03287v-12.403066h1.74124q.15439 0 .2659.0086.11151.0086.19728.04289.0943.03431.17155.111508.0772.0772.14582.20586l3.70548 6.887733zM194.74823-64.048939q-.0944.188705-.22302.265902-.12008.0772-.29163.0772-.17155 0-.38599-.128663-.21444-.13724-.50607-.300212-.29164-.162973-.6862-.291635-.38599-.13724-.91779-.13724-.48034 0-.8406.120085-.35168.111507-.60042.317367-.24017.20586-.36026.497495-.12008.283058-.12008.626158 0 .437452.24017.729087.24874.291635.65189.497495.40314.20586.91779.368833.51465.162972 1.04645.351677.54039.180128 1.05504.428875.51465.24017.91779.61758.40314.368833.64331.909216.24875.540382.24875 1.312357 0 .840595-.29164 1.57826-.28305.729088-.84059 1.278048-.54896.540382-1.34667.85775-.79771.30879-1.82701.30879-.59184 0-1.16654-.120085-.57469-.111508-1.10649-.325945-.52323-.214438-.98642-.51465-.4546-.300213-.81486-.669045l.66905-1.106498q.0943-.120085.22301-.197282.13724-.08578.30021-.08578.21444 0 .46319.180127.24875.17155.58327.385988.3431.214437.79771.394565.46318.17155 1.10649.17155.98642 0 1.5268-.463185.54038-.471763.54038-1.346668 0-.488917-.24875-.797707-.24017-.30879-.64331-.51465-.40314-.214438-.91779-.360255-.51465-.145818-1.04646-.317368-.5318-.17155-1.04645-.41172-.51465-.24017-.91779-.626158-.40315-.385987-.65189-.96068-.24017-.58327-.24017-1.432442 0-.677623.2659-1.320935.27448-.643313.78913-1.140808.52323-.497495 1.27805-.797707.75482-.300213 1.72407-.300213 1.09792 0 2.02429.3431.92637.3431 1.57826.96068z" style="font-size:17.155px;text-align:start;text-anchor:start;fill:#fff;fill-opacity:1" transform="matrix(1.1 0 0 1.1 -11.3701414 188.8262529)"/></g><g aria-label="ENGINEERING OFFICE" style="font-size:14.7043px;line-height:1.25;font-family:Lato;-inkscape-font-specification:'Lato, Normal';letter-spacing:0;display:inline;fill:#fff;fill-opacity:1;stroke-width:.919018"><path d="M12.054419-88.899584v1.16164H6.9961398v3.499624h4.0951472v1.117526H6.9961398v3.595202h5.0582792v1.161639H5.5624705v-10.535631zM14.827329-88.899584q.191155 0 .279381.05147.09558.04411.213213.191155l6.102284 7.940322q-.02206-.191156-.02941-.367607-.0074-.183804-.0074-.352903v-7.462433h1.249866v10.535631h-.720511q-.169099 0-.286734-.05882-.110282-.05882-.220564-.198508l-6.094933-7.93297q.01471.183804.02206.360256.0074.176451.0074.323494v7.506545h-1.249865v-10.535631h.735215zM29.90452-79.400606q.426425 0 .779328-.03676.360255-.04411.676398-.124986.316142-.08087.595524-.191156.279382-.117634.558763-.264677v-2.32328h-1.632177q-.139691 0-.227917-.08087-.08087-.08087-.08087-.198508v-.808737h3.234946v4.043683q-.397016.286733-.830793.499946-.426425.213212-.919019.360255-.485242.139691-1.044005.20586-.558764.07352-1.213105.07352-1.146935 0-2.102715-.389664-.955779-.397016-1.646881-1.102823-.691103-.713158-1.080766-1.705698-.382312-.992541-.382312-2.183589 0-1.205753.374959-2.198293.382312-.99254 1.080766-1.698346.705807-.713159 1.698347-1.102823.999892-.389664 2.235054-.389664.624932 0 1.161639.09558.536707.08823.992541.264677.463185.1691.852849.419073.389664.242621.727863.551411l-.404368.646989q-.124987.198508-.323495.198508-.117634 0-.257325-.08087-.183804-.10293-.411721-.249973-.227916-.147043-.558763-.279382-.323495-.139691-.771976-.235269-.441129-.09558-1.051357-.09558-.88961 0-1.610121.294086-.720511.286734-1.227809.830793-.507298.536707-.779328 1.308683-.27203.764623-.27203 1.720403 0 .999892.279382 1.786572.286734.779328.801384 1.323387.514651.54406 1.220457.830793.705807.286734 1.558656.286734zM37.695962-78.363953h-1.426317v-10.535631h1.426317zM41.249117-88.899584q.191156 0 .279382.05147.09558.04411.213212.191155l6.102284 7.940322q-.02206-.191156-.02941-.367607-.0074-.183804-.0074-.352903v-7.462433H49.0571v10.535631h-.720511q-.169099 0-.286733-.05882-.110283-.05882-.220565-.198508l-6.094932-7.93297q.0147.183804.02206.360256.0074.176451.0074.323494v7.506545h-1.249865v-10.535631h.735215zM58.120234-88.899584v1.16164h-5.058279v3.499624h4.095147v1.117526h-4.095147v3.595202h5.058279v1.161639h-6.491948v-10.535631zM66.649878-88.899584v1.16164h-5.058279v3.499624h4.095147v1.117526h-4.095147v3.595202h5.058279v1.161639H60.15793v-10.535631zM70.253578-82.760538v4.396585h-1.418965v-10.535631h2.97762q.999893 0 1.727756.205861.727863.198508 1.1984.58082.47789.382311.705807.92637.227916.536707.227916 1.205753 0 .558763-.176451 1.044005-.176452.485242-.514651.874906-.330847.382312-.816089.654341-.477889.27203-1.088118.411721.264678.154395.470538.448481l3.073199 4.183373h-1.26457q-.389664 0-.573468-.301438l-2.735-3.764301q-.124986-.176451-.272029-.249973-.147043-.08087-.441129-.08087zm0-1.036653h1.492486q.624933 0 1.09547-.147043.47789-.154396.794033-.426425.323494-.279382.485242-.661694.161747-.382311.161747-.845497 0-.941075-.624933-1.418965-.61758-.47789-1.84539-.47789h-1.558655zM79.855943-78.363953h-1.426317v-10.535631h1.426317zM83.409105-88.899584q.191156 0 .279382.05147.09558.04411.213212.191155l6.102285 7.940322q-.02206-.191156-.02941-.367607-.0074-.183804-.0074-.352903v-7.462433h1.249865v10.535631h-.72051q-.1691 0-.286734-.05882-.110282-.05882-.220565-.198508l-6.094932-7.93297q.0147.183804.02206.360256.0074.176451.0074.323494v7.506545H82.67389v-10.535631zM98.486294-79.400606q.426425 0 .779328-.03676.360255-.04411.676398-.124986.31614-.08087.59552-.191156.27939-.117634.55877-.264677v-2.32328h-1.63218q-.139691 0-.227917-.08087-.08087-.08087-.08087-.198508v-.808737h3.234947v4.043683q-.39702.286733-.8308.499946-.42642.213212-.91902.360255-.48524.139691-1.043998.20586-.558764.07352-1.213105.07352-1.146936 0-2.102715-.389664-.95578-.397016-1.646882-1.102823-.691102-.713158-1.080766-1.705698-.382311-.992541-.382311-2.183589 0-1.205753.374959-2.198293.382312-.99254 1.080766-1.698346.705807-.713159 1.698347-1.102823.999892-.389664 2.235053-.389664.624933 0 1.16164.09558.536702.08823.992542.264677.46318.1691.85284.419073.38967.242621.72787.551411l-.40437.646989q-.12499.198508-.3235.198508-.11763 0-.25732-.08087-.1838-.10293-.41172-.249973-.22792-.147043-.55876-.279382-.3235-.139691-.771977-.235269-.441129-.09558-1.051357-.09558-.889611 0-1.610121.294086-.720511.286734-1.227809.830793-.507299.536707-.779328 1.308683-.27203.764623-.27203 1.720403 0 .999892.279382 1.786572.286734.779328.801384 1.323387.514651.54406 1.220457.830793.705807.286734 1.558656.286734zM117.21567-83.628092q0 1.183696-.37496 2.176236-.37496.985188-1.05871 1.698347-.68375.713159-1.64688 1.110175-.95578.389664-2.11742.389664-1.16164 0-2.11742-.389664-.95578-.397016-1.63953-1.110175-.68375-.713159-1.05871-1.698347-.37496-.99254-.37496-2.176236 0-1.183696.37496-2.168884.37496-.99254 1.05871-1.705699.68375-.720511 1.63953-1.117527.95578-.397016 2.11742-.397016 1.16164 0 2.11742.397016.96313.397016 1.64688 1.117527.68375.713159 1.05871 1.705699.37496.985188.37496 2.168884zm-1.46308 0q0-.970484-.26468-1.74246-.26468-.771975-.74992-1.30133-.48524-.536707-1.17634-.823441-.6911-.286734-1.54395-.286734-.8455 0-1.5366.286734-.6911.286734-1.1837.823441-.48524.529355-.74992 1.30133-.26468.771976-.26468 1.74246 0 .970484.26468 1.74246.26468.764623.74992 1.30133.4926.529355 1.1837.816089.6911.279381 1.5366.279381.85285 0 1.54395-.279381.6911-.286734 1.17634-.816089.48524-.536707.74992-1.30133.26468-.771976.26468-1.74246zM125.66811-88.899584v1.16164h-5.05828v3.683427h4.32307v1.16164h-4.32307v4.528924h-1.43367v-10.535631zM133.99672-88.899584v1.16164h-5.05828v3.683427h4.32306v1.16164h-4.32306v4.528924h-1.43367v-10.535631zM137.52437-78.363953h-1.42632v-10.535631h1.42632zM147.76799-80.540189q.11763 0 .21321.09558l.55876.610228q-.64699.74992-1.57336 1.168992-.91901.419073-2.22035.419073-1.13958 0-2.06595-.389664-.92637-.397016-1.58071-1.102823-.65434-.713158-1.0146-1.705698-.36025-.992541-.36025-2.183589 0-1.191048.38231-2.183589.38966-.99254 1.08812-1.705698.69845-.713159 1.66893-1.102823.97784-.397016 2.15418-.397016 1.16164 0 1.99979.360255.8455.360256 1.49984.977836l-.46319.654342q-.0515.07352-.11763.124986-.0662.04411-.19116.04411-.0956 0-.20586-.06617-.10293-.07352-.24997-.176452-.14704-.10293-.34555-.220564-.19851-.117635-.47054-.220565-.27203-.10293-.63229-.169099-.36025-.07352-.83079-.07352-.8455 0-1.5513.294086-.69846.286734-1.20575.823441-.5073.536707-.79404 1.308683-.27938.771975-.27938 1.727755 0 .985188.27938 1.757164.28674.771976.77198 1.308683.49259.529354 1.16164.808736.66904.279382 1.44102.279382.47054 0 .8455-.05147.37496-.05882.6911-.176452.32349-.117634.59552-.294086.27939-.183804.55877-.433777.12498-.110282.24262-.110282zM156.91476-88.899584v1.16164h-5.05828v3.499624h4.09514v1.117526h-4.09514v3.595202h5.05828v1.161639h-6.49195v-10.535631z" style="-inkscape-font-specification:Lato;fill:#fff;fill-opacity:1" transform="matrix(1.1 0 0 1.1 20.7041846 194.1093929)"/></g></svg>