<svg width="810.21918" height="232.26251" viewBox="0 0 214.37043 61.45277" xmlns="http://www.w3.org/2000/svg"><defs><path id="c" d="M1600.6648 5530.2114h158.57976v94.550331H1600.6648z"/><path id="b" d="M157-13h55v40h-55z"/><filter style="color-interpolation-filters:sRGB" id="a" x="-.05642297" y="-.03515585" width="1.1128459" height="1.0703117"><feGaussianBlur stdDeviation="1.1384116"/></filter></defs><text xml:space="preserve" transform="matrix(.26458 0 0 .26458 -44.275214 -2112.3777)" style="font-size:36px;line-height:1.25;font-family:Lato;-inkscape-font-specification:Lato;text-align:center;letter-spacing:0;white-space:pre;shape-inside:url(#b)"><tspan x="157" y="60.48"><tspan dx="0 20.882812 20.039062 14.484375 18.84375">Ehret</tspan></tspan></text><g style="display:inline"><path style="display:inline;vector-effect:none;fill:#000;fill-opacity:.35;stroke-width:.359493;stroke-opacity:.968165;stop-color:#000" d="M314.56 120.05449h214.37049v61.45279H314.56Z" transform="translate(-314.56 -120.05449)"/></g><g style="display:inline"><g style="display:inline"><path style="display:inline;fill:#fff;fill-opacity:1;stroke:none;stroke-width:.731013;stroke-miterlimit:4;stroke-dasharray:none;stroke-opacity:1;stop-color:#000" d="M-271.07296 186.16718c-53.68966 0-97.21334 25.95045-97.21335 57.96207 0 32.01177 43.52369 57.9628 97.21335 57.9628 53.68965 0 97.21404-25.95103 97.21404-57.9628 0-32.01162-43.52439-57.96207-97.21404-57.96207zm36.42001 22.14171c33.18021 0 60.07803 16.03714 60.07803 35.82036 0 19.78323-26.89782 35.82108-60.07803 35.82108-33.18018 0-60.07801-16.03785-60.07801-35.82108.00001-19.78322 26.89783-35.82036 60.07801-35.82036z" transform="matrix(.40811 0 0 .42304 154.649766 -72.54981)"/><path style="display:inline;fill:#fff;fill-opacity:1;stroke:none;stroke-width:.731013;stroke-miterlimit:4;stroke-dasharray:none;stroke-opacity:1;stop-color:#000" d="M-212.41915 221.99255c-20.50536 0-37.12817 9.91066-37.12818 22.1367 0 12.22605 16.62282 22.13743 37.12818 22.13743 20.50537 0 37.1282-9.91138 37.1282-22.13743 0-12.22604-16.62283-22.1367-37.1282-22.1367zm13.08686 8.45591c12.67229 0 22.94483 6.12514 22.94483 13.68079 0 7.55581-10.27254 13.68081-22.94483 13.68081-12.67233 0-22.94556-6.125-22.94556-13.68081.00004-7.55565 10.27323-13.68079 22.94556-13.68079z" transform="matrix(.40811 0 0 .42304 154.649766 -72.54981)"/><path style="display:inline;fill:#fff;fill-opacity:1;stroke:none;stroke-width:.730783;stroke-miterlimit:4;stroke-dasharray:none;stroke-opacity:1;stop-color:#000" d="M-177.48361 244.12935c0-4.66942-6.34867-8.45456-14.18015-8.45456-7.8315 0-14.18018 3.78514-14.18021 8.45456 0 4.66955 6.3487 8.45485 14.18021 8.45485 7.83148 0 14.18015-3.7853 14.18015-8.45485z" transform="matrix(.40811 0 0 .42304 154.649766 -72.54981)"/></g><path d="M-137.0503 339.63728q0 .67786-.16669 1.22238-.16669.54451-.50006.92789-.32782.38338-.82233.58896-.49451.20558-1.15014.20558-.30004 0-.58897-.0389-.28892-.0333-.60563-.11112l.0778-.889q.0111-.12224.0889-.19447.0833-.0778.23892-.0778.0945 0 .24447.0389.15558.0389.38894.0389.31671 0 .56118-.0889.24448-.0945.40561-.29448.16669-.20003.25003-.51674.0833-.32226.0833-.77787v-5.21176h1.49464zM-134.2444 336.79248v3.62268q0 .52228.23892.81121.24448.28337.72787.28337.3556 0 .66675-.15558.31115-.16113.58896-.43894v-4.12274h1.3724v5.70071h-.839q-.2667 0-.35004-.25003l-.0945-.45561q-.1778.1778-.36671.32782-.18891.14446-.40561.25003-.21113.10001-.46117.15558-.24447.0611-.52784.0611-.46672 0-.82788-.15557-.3556-.16113-.60008-.45006-.24447-.28892-.37226-.68342-.12224-.40005-.12224-.87788v-3.62268zm.88345-1.47796q0 .15557-.0611.29448-.0611.13335-.17225.23336-.10557.10002-.25003.16113-.1389.0556-.29448.0556-.15002 0-.28892-.0556-.13335-.0611-.23892-.16113-.10557-.10001-.16669-.23336-.0611-.13891-.0611-.29448 0-.16113.0611-.30004.0611-.14446.16669-.25003.10557-.10557.23892-.16669.1389-.0611.28892-.0611.15558 0 .29448.0611.14446.0611.25003.16669.11113.10557.17225.25003.0611.13891.0611.30004zm2.07803 0q0 .15557-.0611.29448-.0611.13335-.16668.23336-.10557.10002-.25003.16113-.13891.0556-.29449.0556-.15557 0-.29448-.0556-.1389-.0611-.24447-.16113-.10001-.10001-.16113-.23336-.0611-.13891-.0611-.29448 0-.16113.0611-.30004.0611-.14446.16113-.25003.10557-.10557.24447-.16669.13891-.0611.29448-.0611.15558 0 .29449.0611.14446.0611.25003.16669.10557.10557.16668.25003.0611.13891.0611.30004zM-129.18422 342.49319v-5.70071h.80566q.21114 0 .29448.0778.0833.0778.11113.2667l.0833.68897q.30559-.52784.71676-.83343.41116-.3056.92233-.3056.42228 0 .70009.19447l-.1778 1.02791q-.0167.10001-.0722.14446-.0556.0389-.15002.0389-.0833 0-.22781-.0389-.14446-.0389-.38338-.0389-.42783 0-.73342.23892-.3056.23336-.51673.68897v3.55044zM-122.67559 336.69247q.36671 0 .68897.0778.32227.0722.58897.21669h1.63909v.51118q0 .12779-.0667.20002-.0667.0722-.22781.10001l-.51118.0945q.0556.14446.0833.30559.0333.16113.0333.33893 0 .42228-.17225.76677-.16669.33893-.46672.57785-.29448.23892-.70565.37227-.4056.12779-.88344.12779-.32226 0-.62786-.0611-.2667.16113-.2667.36116 0 .17224.15558.25558.16113.0778.41672.11113.26114.0333.58896.0445.32782.006.67231.0333.34448.0278.6723.10001.32782.0667.58341.21669.26114.15002.41672.41117.16113.25558.16113.66119 0 .37782-.18891.73342-.18336.3556-.53896.63342-.35004.27781-.86122.4445-.51117.17224-1.16681.17224-.65008 0-1.12792-.12779-.47784-.12224-.79454-.33338-.31115-.20558-.46673-.47784-.15557-.27225-.15557-.56673 0-.40005.24447-.67231.24448-.27226.67786-.43339-.21113-.11668-.33893-.31115-.12779-.19447-.12779-.50562 0-.12779.0445-.26114.0444-.13891.13335-.27226.0944-.13335.23336-.25003.13891-.12223.32782-.21669-.43339-.23336-.68342-.6223-.24447-.38894-.24447-.91123 0-.42227.16668-.7612.17225-.34449.47228-.58341.3056-.24447.71676-.37227.41672-.12779.90567-.12779zm1.50574 6.05631q0-.16669-.10001-.27225-.10001-.10557-.27226-.16114-.17224-.0611-.4056-.0889-.22781-.0278-.48895-.0389-.25559-.0167-.5334-.0278-.27226-.0167-.52785-.05-.23336.1278-.37782.3056-.13891.17224-.13891.40005 0 .15002.0722.27781.0778.13335.23892.22781.16669.0944.42783.14446.26115.0556.63897.0556.38338 0 .6612-.0611.27781-.0556.45561-.16113.18336-.10001.2667-.24447.0833-.13891.0833-.3056zm-1.50574-3.24485q.25559 0 .4445-.0667.18891-.0722.31115-.19447.12779-.12224.18891-.29448.0667-.17225.0667-.37783 0-.42227-.25559-.66675-.25003-.25003-.75565-.25003-.50562 0-.76121.25003-.25003.24448-.25003.66675 0 .20003.0611.37227.0667.17224.18891.30004.1278.12224.31671.19447.19447.0667.4445.0667zM-116.54062 336.70358q.53895 0 .98901.17225.45561.17224.78343.50561.32782.32782.51118.81122.18335.47783.18335 1.09458 0 .15557-.0167.26114-.0111.10001-.05.16113-.0333.0556-.0945.0833-.0611.0222-.15557.0222h-3.52267q.0611.87789.47228 1.28905.41117.41116 1.08903.41116.33337 0 .57229-.0778.24448-.0778.42228-.17225.18335-.0944.3167-.17224.13891-.0778.2667-.0778.0833 0 .14447.0333.0611.0333.10557.0945l.40005.50006q-.22781.2667-.51118.45005-.28337.1778-.59452.28893-.30559.10557-.62785.15002-.31671.0445-.61675.0445-.59452 0-1.10569-.19447-.51118-.20003-.889-.58341-.37783-.38893-.59452-.95567-.21669-.5723-.21669-1.32239 0-.58341.18891-1.09458.18891-.51673.53895-.89456.3556-.38338.86122-.60563.51118-.22225 1.15015-.22225zm.0278.98346q-.60008 0-.93901.33893-.33893.33893-.43339.96123h2.5781q0-.2667-.0722-.50006-.0722-.23892-.22225-.41672-.15002-.1778-.37782-.27781-.22781-.10557-.5334-.10557zM-112.94955 342.49319v-5.70071h.839q.2667 0 .35004.25003l.0945.45006q.17224-.1778.36115-.32226.19447-.14447.40561-.25003.21669-.10557.46117-.16114.24447-.0556.5334-.0556.46672 0 .82788.16113.36115.15558.60007.4445.24448.28337.36672.68342.12779.3945.12779.87233v3.62823h-1.37239v-3.62823q0-.52228-.24448-.80565-.23892-.28893-.72231-.28893-.3556 0-.66675.16113-.31115.16113-.58896.43895v4.12273zM-99.339856 334.45886v1.18903h-3.561564v2.22806h2.80591v1.15014h-2.80591v2.27251h3.561564v1.19459h-5.067304v-8.03433zM-98.125641 342.49319v-8.25658h1.372393v3.17262q.333375-.31671.733426-.51118.40005-.19447.939006-.19447.466725 0 .827881.16113.361156.15558.600075.4445.244475.28337.366713.68342.127793.3945.127793.87233v3.62823h-1.372393v-3.62823q0-.52228-.244475-.80565-.238919-.28893-.722313-.28893-.3556 0-.66675.16113-.31115.16113-.588963.43895v4.12273zM-91.80975 342.49319v-5.70071h.805656q.211138 0 .294482.0778.08334.0778.111125.2667l.08334.68897q.305594-.52784.716757-.83343.411162-.3056.922337-.3056.422275 0 .700088.19447l-.1778 1.02791q-.01667.10001-.07223.14446-.05556.0389-.150018.0389-.08334 0-.227807-.0389-.144462-.0389-.383381-.0389-.427831 0-.733425.23892-.305594.23336-.516731.68897v3.55044zM-84.91774 336.70358q.538956 0 .989012.17225.455613.17224.783431.50561.327819.32782.511175.81122.183357.47783.183357 1.09458 0 .15557-.01667.26114-.01111.10001-.05001.16113-.03334.0556-.09446.0833-.06112.0222-.155575.0222h-3.522662q.06112.87789.472281 1.28905.411163.41116 1.089025.41116.333375 0 .572294-.0778.244475-.0778.422275-.17225.183356-.0944.316706-.17224.138906-.0778.2667-.0778.08334 0 .144463.0333.06112.0333.105568.0945l.40005.50006q-.227806.2667-.511175.45005-.283368.1778-.594518.28893-.305594.10557-.627857.15002-.316706.0445-.616743.0445-.594519 0-1.105694-.19447-.511175-.20003-.889-.58341-.377825-.38893-.594519-.95567-.216694-.5723-.216694-1.32239 0-.58341.188913-1.09458.188912-.51673.538956-.89456.3556-.38338.861219-.60563.511175-.22225 1.150144-.22225zm.02778.98346q-.600075 0-.939006.33893-.338932.33893-.433388.96123h2.5781q0-.2667-.07223-.50006-.07223-.23892-.22225-.41672-.150019-.1778-.377825-.27781-.227806-.10557-.533401-.10557zM-79.454212 342.58209q-.738981 0-1.139031-.41671-.40005-.42228-.40005-1.16126v-3.18373h-.57785q-.111125 0-.194469-.0722-.07779-.0722-.07779-.2167v-.54451l.916781-.15002.288925-1.55575q.02222-.11112.100012-.17224.08334-.0611.205582-.0611h.7112v1.79467h1.500187v.9779h-1.500187v3.08927q0 .2667.13335.41672t.3556.15002q.127793 0 .211137-.0278.0889-.0333.150019-.0667.06668-.0333.116681-.0611.05001-.0333.100013-.0333.06112 0 .100012.0333.03889.0278.08334.0889l.411162.66675q-.300037.25003-.688975.37782-.388937.12779-.805656.12779z" style="font-weight:700;font-size:11.1125px;line-height:1.25;font-family:Lato;-inkscape-font-specification:'Lato Bold';text-align:center;letter-spacing:0;text-anchor:middle;fill:#fff;stroke-width:.264583" transform="translate(237.52517 -327.60157)"/><g><path d="M-106.29705 358.17053v5.82469h-1.40224v-5.82469zm.21005-1.69745q0 .18166-.0738.34062t-.19869.27818q-.11922.11921-.28386.19301-.16464.0681-.35198.0681-.18167 0-.3463-.0681-.15896-.0738-.27818-.19301-.11922-.11922-.19302-.27818-.0681-.15896-.0681-.34062 0-.18735.0681-.35199.0738-.16463.19302-.28385.11922-.11922.27818-.18734.16463-.0738.3463-.0738.18734 0 .35198.0738.16464.0681.28386.18734.12489.11922.19869.28385.0738.16464.0738.35199zM-87.526263 363.99522v-8.43616h1.402243v3.32678q.346303-.36902.783439-.58475.437136-.2214 1.021877-.2214.476876 0 .868596.1987.397396.19303.681252.56772.289531.37467.442813.92536.158958.55067.158958 1.26599 0 .65287-.175989 1.20922-.175991.55636-.505262.96511-.323594.40874-.789117.64151-.459844.22708-1.03323.22708-.266824 0-.48823-.0568-.221408-.0511-.403074-.1476-.181667-.0965-.340626-.23277-.153282-.14192-.295209-.31224l-.06245.39172q-.03406.14761-.119219.21006-.07948.0624-.221407.0624zm2.725006-4.82553q-.437136 0-.749377.18735-.306562.18166-.573386.51661v2.61146q.238438.29522.516616.41444.283855.11354.613126.11354.317918 0 .573386-.11922.255471-.11922.43146-.36334.181667-.24411.278178-.61312.09651-.37469.09651-.87995 0-.51094-.08516-.86292-.07948-.35766-.232761-.57907-.153282-.2214-.374688-.32358-.21573-.1022-.493908-.1022zM-134.42031 363.99522h-1.53282v-8.20908h1.53282zM-132.6496 363.99522v-5.82469h.85725q.2725 0 .35765.25546l.0965.45985q.17599-.18167.36901-.32927.1987-.1476.41443-.25548.2214-.10785.4712-.16463.24978-.0568.545-.0568.47687 0 .84588.16463.36901.15896.61313.45418.24979.28953.37469.69827.13057.40308.13057.89131v3.70713h-1.40224v-3.70714q0-.53365-.24979-.82319-.24412-.2952-.73803-.2952-.36333 0-.68125.16464-.31791.16463-.60176.44849v4.2124zM-124.18097 358.06834q.37469 0 .70397.0795.32926.0738.60177.22141h1.67474v.52229q0 .13058-.0681.20438t-.23277.10219l-.52229.0965q.0568.14761.0851.31225.0341.16464.0341.34631 0 .43145-.17599.78343-.17031.3463-.47687.59042-.30089.24412-.72099.38036-.41444.13057-.90267.13057-.32926 0-.6415-.0624-.2725.16463-.2725.36901 0 .176.15896.26114.16462.0795.42578.11355.26682.0341.60176.0455.33496.005.68694.0341.35198.0284.68693.10218.33494.0681.59609.22142.26682.15328.42579.4201.16463.26115.16463.67558 0 .38604-.19302.74938-.18734.36333-.55068.64719-.35766.28385-.87996.45416-.52228.17599-1.19218.17599-.66422 0-1.15245-.13057-.48823-.1249-.81183-.34063-.31791-.21006-.47687-.48824-.15896-.27817-.15896-.57905 0-.40875.24979-.68693.24979-.27817.69261-.44282-.21573-.11921-.3463-.31792-.13058-.19869-.13058-.51661 0-.13058.0455-.26682.0454-.14193.13625-.27818.0965-.13625.23843-.25547.14193-.1249.33496-.22141-.44282-.23843-.69829-.63583-.24979-.3974-.24979-.93104 0-.43146.17031-.77777.17599-.35198.48256-.59609.31223-.2498.73235-.38036.42577-.13057.92536-.13057zm1.5385 6.18803q0-.17031-.10219-.27818-.10218-.10786-.27818-.16463-.17598-.0625-.41442-.0908-.23276-.0284-.49959-.0397-.26114-.017-.545-.0284-.27818-.017-.53932-.0511-.23845.13056-.38605.31224-.14192.17598-.14192.40874 0 .15329.0738.28386.0795.13624.24412.23276.17031.0965.43714.1476.26682.0568.65287.0568.39171 0 .67557-.0625.28385-.0568.46552-.16464.18734-.10219.2725-.24979.0851-.14193.0851-.31224zm-1.5385-3.31543q.26116 0 .45418-.0681.19301-.0738.31792-.1987.13057-.12489.19301-.30088.0681-.17599.0681-.38604 0-.43146-.26114-.68126-.25548-.25547-.7721-.25547-.51661 0-.77776.25547-.25546.2498-.25546.68126 0 .20437.0624.38037.0681.17598.19302.30655.13057.12491.32359.19871.1987.0681.45417.0681zM-117.91257 358.07969q.55069 0 1.01053.176.46552.17597.80047.51661.33496.33494.5223.82885.18734.48823.18734 1.11839 0 .15895-.017.26683-.0114.10218-.0511.16463-.034.0568-.0965.0851-.0625.0227-.15896.0227h-3.59928q.0625.89697.48255 1.31707.42011.42012 1.11271.42012.34063 0 .58475-.0795.24978-.0795.43146-.17597.18734-.0965.32359-.176.14192-.0795.27249-.0795.0851 0 .14761.0341.0625.0341.10788.0965l.40874.51095q-.23277.27249-.5223.45983-.28952.18167-.60744.29521-.31225.10787-.64151.15329-.3236.0455-.63017.0455-.60744 0-1.12973-.1987-.5223-.20437-.90834-.59609-.38604-.3974-.60745-.97646-.2214-.58475-.2214-1.35115 0-.5961.19302-1.11839.19302-.52798.55068-.91401.36333-.39173.87995-.61881.52228-.22708 1.17515-.22708zm.0284 1.00485q-.61312 0-.95942.3463-.3463.34631-.44282.98214h2.63417q0-.2725-.0738-.51094-.0738-.24412-.22708-.42578-.15328-.18168-.38604-.28386-.23277-.10786-.54501-.10786zM-114.24338 363.99522v-5.82469h.85723q.2725 0 .35767.25546l.0965.45985q.17599-.18167.369-.32927.1987-.1476.41443-.25548.22141-.10785.4712-.16463.2498-.0568.54501-.0568.47686 0 .84588.16463.36901.15896.61312.45418.2498.28953.37469.69827.13057.40308.13057.89131v3.70713h-1.40223v-3.70714q0-.53365-.2498-.82319-.24411-.2952-.73802-.2952-.36333 0-.68125.16464-.31792.16463-.60177.44849v4.2124zM-102.30054 358.07969q.55067 0 1.01052.176.46552.17597.80046.51661.33496.33494.522301.82885.187344.48823.187344 1.11839 0 .15895-.01701.26683-.01134.10218-.05112.16463-.03402.0568-.09652.0851-.06248.0227-.158955.0227h-3.59928q.0625.89697.48255 1.31707.42012.42012 1.11272.42012.34062 0 .58474-.0795.24979-.0795.43146-.17597.18734-.0965.32359-.176.14193-.0795.27251-.0795.0851 0 .1476.0341.0625.0341.10786.0965l.408749.51095q-.232749.27249-.522289.45983-.28953.18167-.60745.29521-.31224.10787-.64151.15329-.3236.0455-.63015.0455-.60746 0-1.12975-.1987-.52229-.20437-.90833-.59609-.38605-.3974-.60746-.97646-.2214-.58475-.2214-1.35115 0-.5961.19301-1.11839.19303-.52798.55069-.91401.36333-.39173.87995-.61881.52229-.22708 1.17516-.22708zm.0284 1.00485q-.61313 0-.95943.3463-.3463.34631-.44282.98214h2.63417q0-.2725-.0738-.51094-.0738-.24412-.22708-.42578-.15328-.18168-.38605-.28386-.23276-.10786-.54499-.10786zM-97.348345 358.17053v3.70146q0 .53365.244115.82885.249792.28954.7437.28954.363333 0 .681251-.15896.317918-.16464.601772-.4485v-4.21239h1.402243v5.82469h-.857242q-.2725 0-.357657-.25546l-.09651-.46553q-.181668.18168-.374688.33495-.193022.1476-.414429.25547-.21573.10218-.471198.15896-.249792.0625-.539324.0625-.476876 0-.845888-.15897-.363333-.16464-.613127-.45984-.249791-.29521-.380365-.69828-.124895-.40875-.124895-.89699v-3.70146zM-92.178109 363.99522v-5.82469h.823179q.215729 0 .300885.0795.08516.0795.113542.27249l.08516.70396q.312241-.53931.732347-.85156.420103-.31224.942397-.31224.431459 0 .715313.1987l-.181666 1.05026q-.01703.10219-.0738.14761-.05677.0397-.153282.0397-.08516 0-.232761-.0397-.147605-.0397-.39172-.0397-.437136 0-.749376.24412-.31224.23843-.52797.70396v3.62766zM-79.784831 358.17053v3.70146q0 .53365.244115.82885.249792.28954.7437.28954.363334 0 .681252-.15896.317916-.16464.601771-.4485v-4.21239h1.402242v5.82469h-.857241q-.272501 0-.357656-.25546l-.09651-.46553q-.181666.18168-.374688.33495-.193021.1476-.414427.25547-.21573.10218-.4712.15896-.249792.0625-.539324.0625-.476875 0-.845887-.15897-.363334-.16464-.613126-.45984-.249792-.29521-.380365-.69828-.124897-.40875-.124897-.89699v-3.70146zm.902658-1.51011q0 .15896-.06245.30089-.06245.13624-.17599.23843-.107865.10219-.25547.16464-.141927.0568-.300885.0568-.153282 0-.295209-.0568-.13625-.0625-.244115-.16464-.107865-.10219-.170313-.23843-.06245-.14193-.06245-.30089 0-.16464.06245-.30657.06245-.1476.170313-.25546.107865-.10787.244115-.17031.141927-.0625.295209-.0625.158958 0 .300885.0625.147605.0624.25547.17031.113542.10786.17599.25546.06245.14193.06245.30657zm2.123234 0q0 .15896-.06245.30089-.06245.13624-.170312.23843-.107865.10219-.25547.16464-.141927.0568-.300885.0568-.15896 0-.300887-.0568-.141927-.0625-.249792-.16464-.102187-.10219-.164636-.23843-.06245-.14193-.06245-.30089 0-.16464.06245-.30657.06245-.1476.164636-.25546.107865-.10787.249792-.17031.141927-.0625.300887-.0625.158958 0 .300885.0625.147605.0624.25547.17031.107864.10786.170312.25546.06245.14193.06245.30657zM-74.614595 363.99522v-5.82469h.823178q.21573 0 .300887.0795.08516.0795.113541.27249l.08516.70396q.312241-.53931.732344-.85156.420106-.31224.942399-.31224.431459 0 .715314.1987l-.181668 1.05026q-.01703.10219-.0738.14761-.05677.0397-.153281.0397-.08516 0-.232761-.0397-.147605-.0397-.39172-.0397-.437136 0-.749377.24412-.312239.23843-.527968.70396v3.62766zM-67.493209 358.07969q.652866 0 1.180836.21005.533647.21006.908335.5961.374688.38605.579064.9424t.204376 1.24329q0 .6926-.204376 1.24895-.204376.55636-.579064.94808-.374688.39172-.908335.60177-.52797.21005-1.180836.21005-.652867 0-1.186513-.21005-.533647-.21005-.914012-.60177-.374689-.39172-.584742-.94808-.204374-.55635-.204374-1.24895 0-.68694.204374-1.24329.210053-.55635.584742-.9424.380365-.38604.914012-.5961.533646-.21005 1.186513-.21005zm0 4.92204q.726669 0 1.072972-.48823.351979-.48823.351979-1.43063 0-.94239-.351979-1.4363-.346303-.49391-1.072972-.49391-.738022 0-1.090002.49958-.351981.49392-.351981 1.43063 0 .93672.351981 1.43063.35198.48823 1.090002.48823zM-61.081289 363.99522v-4.76876l-.505262-.0795q-.164635-.0283-.266823-.11353-.09651-.0851-.09651-.23845v-.57338h.868595v-.43146q0-.49958.147605-.89698.15328-.3974.431459-.67558.283854-.27817.686928-.42578.403074-.14761.908335-.14761.403075 0 .749377.10787l-.02839.70397q-.01135.16462-.153281.20437-.141927.0397-.329272.0397-.249791 0-.44849.0568-.193022.0511-.329272.18734-.13625.13057-.210053.35198-.06812.21573-.06812.53933v.38604h1.515785v.99917h-1.470368v4.77443zM-56.078523 358.17053v3.70146q0 .53365.244115.82885.249792.28954.7437.28954.363334 0 .681251-.15896.317917-.16464.601773-.4485v-4.21239h1.402242v5.82469h-.857241q-.272501 0-.357657-.25546l-.09651-.46553q-.181668.18168-.374689.33495-.19302.1476-.414427.25547-.21573.10218-.471199.15896-.249793.0625-.539324.0625-.476876 0-.845887-.15897-.363335-.16464-.613126-.45984-.249793-.29521-.380366-.69828-.124897-.40875-.124897-.89699v-3.70146zm.902659-1.51011q0 .15896-.06245.30089-.06245.13624-.17599.23843-.107865.10219-.255469.16464-.141928.0568-.300887.0568-.153281 0-.295209-.0568-.13625-.0625-.244115-.16464-.107865-.10219-.170312-.23843-.06245-.14193-.06245-.30089 0-.16464.06245-.30657.06245-.1476.170312-.25546.107865-.10787.244115-.17031.141928-.0625.295209-.0625.158959 0 .300887.0625.147604.0624.255469.17031.113542.10786.17599.25546.06245.14193.06245.30657zm2.123233 0q0 .15896-.06245.30089-.06245.13624-.170313.23843-.107865.10219-.25547.16464-.141927.0568-.300885.0568-.158959 0-.300886-.0568-.141928-.0625-.249793-.16464-.102188-.10219-.164636-.23843-.06245-.14193-.06245-.30089 0-.16464.06245-.30657.06245-.1476.164636-.25546.107865-.10787.249793-.17031.141927-.0625.300886-.0625.158958 0 .300885.0625.147605.0624.25547.17031.107865.10786.170313.25546.06245.14193.06245.30657zM-50.908288 363.99522v-5.82469h.823179q.21573 0 .300886.0795.08516.0795.113543.27249l.08516.70396q.31224-.53931.732345-.85156.420105-.31224.942398-.31224.431459 0 .715314.1987l-.181667 1.05026q-.01704.10219-.0738.14761-.05677.0397-.153283.0397-.08516 0-.23276-.0397-.147604-.0397-.391719-.0397-.437136 0-.749377.24412-.312241.23843-.52797.70396v3.62766z" style="font-weight:700;font-size:14.5521px;line-height:1.25;font-family:Lato;-inkscape-font-specification:'Lato, Bold';letter-spacing:0;fill:#fff;stroke-width:.206439" transform="translate(232.59418 -328.13073667)"/></g><g><path d="M-134.44481 374.47718q-.08.16007-.18917.22556-.10187.0655-.24739.0655-.14552 0-.32742-.10914-.1819-.11641-.42929-.25466-.24738-.13824-.58208-.24739-.32743-.11641-.77854-.11641-.40746 0-.71305.10186-.29832.0946-.50933.26922-.20373.17462-.30559.42201-.10187.24011-.10187.53115 0 .37108.20373.61846.21101.24739.55298.42201.34198.17463.77854.31287.43656.13825.88768.29832.45839.1528.89495.3638.43657.20373.77854.52388.34197.31287.5457.77126.21101.45839.21101 1.11324 0 .71305-.24739 1.33879-.24011.61846-.71305 1.08413-.46567.45839-1.14234.72761-.67667.26193-1.5498.26193-.50204 0-.98954-.10186-.4875-.0946-.93861-.27649-.44384-.1819-.83675-.43656-.38563-.25466-.69122-.56753l.56753-.93862q.08-.10186.18918-.16734.11641-.0728.25466-.0728.1819 0 .39291.15279.211.14552.49477.32742.29104.18191.67667.3347.39291.14552.93861.14552.83675 0 1.29514-.3929.45839-.40019.45839-1.14234 0-.41474-.21101-.67668-.20373-.26193-.5457-.43656-.34197-.1819-.77854-.30559-.43656-.1237-.88768-.26922-.45111-.14552-.88767-.34925-.43657-.20373-.77854-.53115-.34198-.32742-.55298-.81492-.20373-.49477-.20373-1.2151 0-.5748.22556-1.12051.23283-.5457.66939-.96771.44384-.42201 1.08414-.67668.64029-.25466 1.46248-.25466.93134 0 1.71715.29104.78581.29105 1.33879.81492zM-129.18263 375.5031q.83675 0 1.51342.26922.68395.26921 1.16417.76398.48021.49477.74215 1.20783.26194.71305.26194 1.59345 0 .88768-.26194 1.60073-.26194.71306-.74215 1.2151-.48022.50205-1.16417.77126-.67667.26922-1.51342.26922t-1.5207-.26922q-.68394-.26921-1.17144-.77126-.48022-.50204-.74943-1.2151-.26194-.71305-.26194-1.60073 0-.8804.26194-1.59345.26921-.71306.74943-1.20783.4875-.49477 1.17144-.76398.68395-.26922 1.5207-.26922zm0 6.30834q.93133 0 1.37517-.62574.45112-.62574.45112-1.83357 0-1.20782-.45112-1.84084-.44384-.63301-1.37517-.63301-.94589 0-1.397.64029-.45112.63302-.45112 1.83356 0 1.20055.45112 1.83357.45111.62574 1.397.62574zM-123.77857 383.08475v-6.11188l-.64757-.10187q-.21101-.0364-.34198-.14552-.12369-.10914-.12369-.30559v-.73488h1.11324v-.55298q0-.6403.18917-1.14962.19646-.50932.55298-.86585.36381-.35653.88041-.5457.5166-.18918 1.16416-.18918.5166 0 .96044.13824l-.0364.90223q-.0145.21101-.19645.26194-.1819.0509-.42201.0509-.32015 0-.57481.0728-.24739.0655-.42201.24011-.17463.16735-.26921.45112-.0873.27649-.0873.69122v.49478h1.94271v1.28058h-1.8845v6.11916zM-116.55914 383.20116q-.96771 0-1.49159-.5457-.52387-.55298-.52387-1.52069v-4.16918h-.75671q-.14553 0-.25467-.0946-.10186-.0946-.10186-.28376v-.71306l1.20055-.19645.37835-2.03729q.0291-.14553.13097-.22556.10914-.08.26921-.08h.93134v2.35017h1.96453v1.28058h-1.96453v4.04548q0 .34925.17462.54571.17463.19645.46567.19645.16735 0 .27649-.0364.11642-.0437.19646-.0873.0873-.0437.15279-.08.0655-.0437.13097-.0437.08 0 .13097.0437.0509.0364.10914.11642l.53843.87312q-.39291.32743-.90223.49478-.50933.16734-1.05503.16734zM-114.2931 375.61952h1.4261q.20373 0 .34198.0946.13824.0946.17462.24011l1.06958 3.98727q.0873.32743.13825.6403.0582.31287.10914.62574.08-.31287.16735-.62574.0946-.31287.19645-.6403l1.23693-4.00182q.0436-.14552.17462-.24011.13097-.0946.3056-.0946h.79309q.19645 0 .32742.0946.13097.0946.17462.24011l1.22238 4.07458q.0946.31288.16735.61119.08.29105.1528.58936.0509-.31287.10914-.62574.0655-.31287.16007-.64757l1.10596-3.98727q.0364-.14552.17463-.24011.13824-.0946.32014-.0946h1.36062l-2.36471 7.46523h-1.44794q-.23283 0-.3347-.32015l-1.34606-4.3147q-.0655-.211-.1237-.42201-.0509-.21828-.0873-.42928-.0437.21828-.0946.43656-.0509.211-.11642.42929l-1.36062 4.30014q-.10186.32015-.3929.32015h-1.37518zM-96.022711 383.08475h-.807641q-.254662 0-.400183-.0728-.145521-.08-.218282-.31287l-.160073-.53115q-.283766.25466-.560256.45111-.269214.18918-.560256.32015-.291042.13097-.618464.19645-.327422.0655-.727614.0655-.47294 0-.87312-.12369-.40018-.13097-.69123-.38563-.28376-.25466-.44384-.63302-.16007-.37835-.16007-.8804 0-.42201.21828-.82947.22556-.41473.74216-.74215.5166-.3347 1.375178-.55298.858574-.21829 2.131883-.24739v-.43656q0-.74944-.320146-1.10596-.31287-.3638-.916782-.3638-.436563 0-.727605.10186-.291048.10186-.509328.23283-.21101.1237-.39291.22556-.1819.10187-.40018.10187-.1819 0-.31287-.0946-.13097-.0946-.21101-.23284l-.32742-.5748q1.28786-1.17872 3.10688-1.17872.654845 0 1.164168.21828.5166.211.873126.59663.356527.37836.538428.90951.189177.53115.189177 1.16417zm-3.492504-1.12051q.27649 0 .509324-.0509.232833-.0509.436563-.15279.211005-.10187.400182-.24739.196454-.1528.392907-.35653v-1.25875q-.785813.0364-1.316965.13824-.523876.0946-.844021.24739-.320155.1528-.458395.35653-.13097.20372-.13097.44383 0 .47295.27649.67668.283765.20373.734885.20373zM-94.25554 383.08475v-7.46523h1.055027q.27649 0 .385631.10187.109141.10186.145521.34925l.109141.90223q.400182-.69123.93861-1.09141.538428-.40018 1.207824-.40018.55298 0 .916783.25466l-.232834 1.34607q-.02183.13097-.09459.18917-.07276.0509-.196453.0509-.109141 0-.298318-.0509-.189177-.0509-.502047-.0509-.560256 0-.960439.31287-.400183.3056-.676673.90223v4.6494zM-85.230283 375.5031q.705777 0 1.295137.22556.596636.22556 1.025923.66212.429287.42929.669397 1.06231.24011.62574.24011 1.43338 0 .20373-.02183.34197-.01455.13097-.06548.21101-.04366.0728-.123693.10914-.08004.0291-.203729.0291h-4.613016q.08004 1.14962.618464 1.68805.538428.53842 1.426106.53842.436563 0 .749433-.10186.320146-.10187.55298-.22556.24011-.12369.414735-.22556.181901-.10186.34925-.10186.109141 0 .189178.0437.08004.0437.138245.12369l.523875.65484q-.298318.34925-.669396.58936-.371079.23284-.778538.37836-.400183.13824-.822193.19645-.414735.0582-.807642.0582-.778537 0-1.447934-.25466-.669397-.26194-1.164168-.76399-.494771-.50932-.778537-1.25148-.283766-.74943-.283766-1.7317 0-.76398.247385-1.43338.247386-.67667.705777-1.17144.465667-.50205 1.127788-.79309.669397-.29105 1.506142-.29105zm.03638 1.28786q-.785814 0-1.229653.44384-.443839.44384-.567532 1.25876h3.376087q0-.34925-.09459-.65484-.09459-.31287-.291042-.54571-.196454-.23283-.494772-.3638-.298318-.13825-.6985-.13825zM-76.096562 377.07473q-.07276.11642-.152797.16735-.08004.0437-.20373.0437-.130969 0-.283766-.0728-.145521-.0728-.341974-.16008-.196453-.0946-.451115-.16735-.247386-.0728-.58936-.0728-.531152 0-.836746.22556-.305594.22556-.305594.58936 0 .24011.152797.40746.160073.16007.414735.28377.261938.12369.58936.22555.327422.0946.669396.21101.341975.11642.669397.26921.327422.14552.582084.37836.261938.22555.414735.5457.160073.32015.160073.77126 0 .53843-.196453.99682-.196454.45112-.574808.78581-.378355.32743-.938611.5166-.55298.1819-1.273308.1819-.385631 0-.75671-.0728-.363802-.0655-.705777-.18917-.334698-.1237-.62574-.29104-.283766-.16735-.502047-.36381l.414735-.68395q.08004-.12369.189177-.18917.109141-.0655.27649-.0655.167349 0 .31287.0946.152797.0946.34925.20373.196454.10914.458391.20373.269214.0946.676673.0946.320146 0 .545704-.0728.232833-.08.378354-.20373.152798-.12369.218282-.28377.07276-.16735.07276-.34197 0-.26194-.160073-.42929-.152797-.16735-.414734-.29104-.254662-.12369-.589361-.21828-.327422-.10187-.676672-.21828-.341975-.11642-.676673-.26922-.327422-.16007-.58936-.40018-.254662-.24011-.414735-.58936-.152797-.34925-.152797-.84402 0-.45839.181901-.87313.181902-.41473.531152-.72033.356527-.31287.880402-.49477.531152-.18918 1.222377-.18918.771261 0 1.404277.25467.633017.25466 1.055027.66939zM-71.512656 385.13659q-.08004.18918-.211005.28377-.123693.10186-.385631.10186h-1.338793l1.397002-2.99045-3.019561-6.91225h1.571627q.218281 0 .334698.10187.116417.10186.174625.23283l1.593455 3.87086q.08004.18917.138245.3929.05821.20373.101865.40746.05821-.211.123693-.40746.07276-.19645.152797-.40018l1.498866-3.86358q.05821-.14552.189177-.24011.138245-.0946.305594-.0946h1.440658zM-61.970792 377.07473q-.07276.11642-.152797.16735-.08004.0437-.203729.0437-.130969 0-.283766-.0728-.145521-.0728-.341975-.16008-.196453-.0946-.451115-.16735-.247385-.0728-.58936-.0728-.531151 0-.836745.22556-.305595.22556-.305595.58936 0 .24011.152798.40746.160073.16007.414734.28377.261938.12369.58936.22555.327423.0946.669397.21101.341974.11642.669397.26921.327422.14552.582084.37836.261937.22555.414735.5457.160073.32015.160073.77126 0 .53843-.196454.99682-.196453.45112-.574808.78581-.378354.32743-.93861.5166-.55298.1819-1.273309.1819-.385631 0-.756709-.0728-.363803-.0655-.705777-.18917-.334698-.1237-.62574-.29104-.283766-.16735-.502048-.36381l.414735-.68395q.08004-.12369.189177-.18917.109141-.0655.27649-.0655.167349 0 .31287.0946.152798.0946.349251.20373.196453.10914.458391.20373.269214.0946.676673.0946.320146 0 .545703-.0728.232834-.08.378355-.20373.152797-.12369.218282-.28377.07276-.16735.07276-.34197 0-.26194-.160073-.42929-.152797-.16735-.414735-.29104-.254662-.12369-.58936-.21828-.327422-.10187-.676673-.21828-.341974-.11642-.676672-.26922-.327423-.16007-.58936-.40018-.254662-.24011-.414735-.58936-.152797-.34925-.152797-.84402 0-.45839.181901-.87313.181901-.41473.531152-.72033.356526-.31287.880402-.49477.531151-.18918 1.222376-.18918.771261 0 1.404278.25467.633016.25466 1.055027.66939zM-57.583338 383.20116q-.967715 0-1.491591-.5457-.523875-.55298-.523875-1.52069v-4.16918h-.756709q-.145521 0-.254662-.0946-.101865-.0946-.101865-.28376v-.71306l1.200548-.19645.378355-2.03729q.0291-.14553.130969-.22556.109141-.08.269214-.08h.931334v2.35017h1.964534v1.28058h-1.964534v4.04548q0 .34925.174625.54571.174626.19645.465668.19645.167349 0 .276489-.0364.116417-.0437.196454-.0873.08731-.0437.152797-.08.06548-.0437.130969-.0437.08004 0 .130969.0437.05093.0364.10914.11642l.538428.87312q-.392907.32743-.90223.49478-.509324.16734-1.055027.16734zM-51.322751 375.5031q.705777 0 1.295137.22556.596636.22556 1.025923.66212.429287.42929.669397 1.06231.240109.62574.240109 1.43338 0 .20373-.02183.34197-.01455.13097-.06548.21101-.04366.0728-.123693.10914-.08004.0291-.20373.0291h-4.613015q.08004 1.14962.618464 1.68805.538428.53842 1.426106.53842.436563 0 .749433-.10186.320146-.10187.55298-.22556.240109-.12369.414735-.22556.181901-.10186.34925-.10186.109141 0 .189177.0437.08004.0437.138245.12369l.523876.65484q-.298318.34925-.669397.58936-.371078.23284-.778537.37836-.400183.13824-.822194.19645-.414735.0582-.807641.0582-.778538 0-1.447934-.25466-.669397-.26194-1.164168-.76399-.494772-.50932-.778538-1.25148-.283766-.74943-.283766-1.7317 0-.76398.247386-1.43338.247386-.67667.705777-1.17144.465667-.50205 1.127788-.79309.669396-.29105 1.506142-.29105zm.03638 1.28786q-.785813 0-1.229652.44384t-.567532 1.25876h3.376087q0-.34925-.09459-.65484-.09459-.31287-.291042-.54571-.196454-.23283-.494772-.3638-.298318-.13825-.698501-.13825zM-46.620145 383.08475v-7.46523h1.098683q.349251 0 .458392.32742l.116416.55298q.196454-.21828.407459-.40018.218282-.1819.458391-.31287.247386-.13097.523876-.20373.283766-.08.618464-.08.705777 0 1.156892.38563.458391.37836.683949 1.01138.174625-.37108.436563-.63302.261938-.26921.574808-.43656t.66212-.24739q.356527-.08.713053-.08.618465 0 1.098684.18918.480219.18918.807641.55298.327423.3638.494772.88768.174625.52387.174625 1.20055v4.75126h-1.797184v-4.75126q0-.71306-.31287-1.06958-.312871-.3638-.916783-.3638-.27649 0-.516599.0946-.232834.0946-.414735.27649-.174625.17463-.27649.44384-.101865.26922-.101865.61847v4.75126h-1.80446v-4.75126q0-.74944-.305594-1.09141-.298318-.34197-.887678-.34197-.385631 0-.727605.19645-.334699.18918-.625741.52387v5.46432zM-31.285191 375.5031q.705776 0 1.295137.22556.596636.22556 1.025923.66212.429287.42929.669396 1.06231.24011.62574.24011 1.43338 0 .20373-.02183.34197-.01455.13097-.06549.21101-.04366.0728-.123693.10914-.08004.0291-.203729.0291h-4.613016q.08004 1.14962.618464 1.68805.538428.53842 1.426106.53842.436563 0 .749433-.10186.320147-.10187.55298-.22556.24011-.12369.414735-.22556.181901-.10186.349251-.10186.10914 0 .189177.0437.08004.0437.138245.12369l.523875.65484q-.298318.34925-.669396.58936-.371079.23284-.778538.37836-.400182.13824-.822193.19645-.414735.0582-.807642.0582-.778537 0-1.447934-.25466-.669396-.26194-1.164168-.76399-.494771-.50932-.778537-1.25148-.283766-.74943-.283766-1.7317 0-.76398.247386-1.43338.247385-.67667.705776-1.17144.465668-.50205 1.127788-.79309.669397-.29105 1.506143-.29105zm.03638 1.28786q-.785814 0-1.229653.44384-.443839.44384-.567532 1.25876h3.376088q0-.34925-.09459-.65484-.09459-.31287-.291042-.54571-.196453-.23283-.494771-.3638-.298318-.13825-.698501-.13825z" style="font-weight:700;font-size:14.5521px;line-height:1.25;font-family:Lato;-inkscape-font-specification:'Lato, Bold';letter-spacing:0;fill:#fff;stroke-width:.264583" transform="translate(237.52517 -329.18907)"/></g></g></svg>