<svg width="970.14795" height="1029.4709" viewBox="0 0 256.68492 272.38079" xmlns="http://www.w3.org/2000/svg"><defs><path id="c" d="M1600.6648 5530.2114h158.57976v94.550331H1600.6648z"/><path id="b" d="M157-13h55v40h-55z"/><filter style="color-interpolation-filters:sRGB" id="a" x="-.05642297" y="-.03515585" width="1.1128459" height="1.0703117"><feGaussianBlur stdDeviation="1.1384116"/></filter></defs><text xml:space="preserve" transform="matrix(.26458 0 0 .26458 -108.48833 -1931.862)" style="font-size:36px;line-height:1.25;font-family:Lato;-inkscape-font-specification:Lato;text-align:center;letter-spacing:0;white-space:pre;shape-inside:url(#b)"><tspan x="157" y="60.48"><tspan dx="0 20.882812 20.039062 14.484375 18.84375">Ehret</tspan></tspan></text><g style="display:inline"><path style="display:inline;vector-effect:none;fill:#000;fill-opacity:.35;stroke-width:.828178;stroke-opacity:.968165;stop-color:#000" d="M414.58597-153.0661h256.68491v272.38079H414.58597Z" transform="translate(-414.58597 153.0661)"/></g><g style="display:inline"><g style="display:inline"><path style="display:inline;fill:#fff;fill-opacity:1;stroke:none;stroke-width:.731013;stroke-miterlimit:4;stroke-dasharray:none;stroke-opacity:1;stop-color:#000" d="M-271.07296 186.16718c-53.68966 0-97.21334 25.95045-97.21335 57.96207 0 32.01177 43.52369 57.9628 97.21335 57.9628 53.68965 0 97.21404-25.95103 97.21404-57.9628 0-32.01162-43.52439-57.96207-97.21404-57.96207zm36.42001 22.14171c33.18021 0 60.07803 16.03714 60.07803 35.82036 0 19.78323-26.89782 35.82108-60.07803 35.82108-33.18018 0-60.07801-16.03785-60.07801-35.82108.00001-19.78322 26.89783-35.82036 60.07801-35.82036z" transform="matrix(1.0698 0 0 1.10893 418.33813 -191.06230654)"/><path style="display:inline;fill:#fff;fill-opacity:1;stroke:none;stroke-width:.731013;stroke-miterlimit:4;stroke-dasharray:none;stroke-opacity:1;stop-color:#000" d="M-212.41915 221.99255c-20.50536 0-37.12817 9.91066-37.12818 22.1367 0 12.22605 16.62282 22.13743 37.12818 22.13743 20.50537 0 37.1282-9.91138 37.1282-22.13743 0-12.22604-16.62283-22.1367-37.1282-22.1367zm13.08686 8.45591c12.67229 0 22.94483 6.12514 22.94483 13.68079 0 7.55581-10.27254 13.68081-22.94483 13.68081-12.67233 0-22.94556-6.125-22.94556-13.68081.00004-7.55565 10.27323-13.68079 22.94556-13.68079z" transform="matrix(1.0698 0 0 1.10893 418.33813 -191.06230654)"/><path style="display:inline;fill:#fff;fill-opacity:1;stroke:none;stroke-width:.730783;stroke-miterlimit:4;stroke-dasharray:none;stroke-opacity:1;stop-color:#000" d="M-177.48361 244.12935c0-4.66942-6.34867-8.45456-14.18015-8.45456-7.8315 0-14.18018 3.78514-14.18021 8.45456 0 4.66955 6.3487 8.45485 14.18021 8.45485 7.83148 0 14.18015-3.7853 14.18015-8.45485z" transform="matrix(1.0698 0 0 1.10893 418.33813 -191.06230654)"/></g><path d="M-146.8816 311.41628q0 1.42028-.34925 2.56116-.34925 1.14088-1.04775 1.94416-.68686.80327-1.72297 1.23401-1.0361.43074-2.40982.43074-.62865 0-1.23401-.0815-.60537-.0699-1.26894-.23283l.16298-1.86267q.0233-.25611.18627-.40745.17462-.16299.50059-.16299.1979 0 .51223.0815.32597.0815.81491.0815.66358 0 1.17581-.18627.51223-.19791.84984-.61701.34925-.4191.52388-1.08267.17462-.67522.17462-1.62983v-10.91987h3.13161zM-134.2557 305.45575v7.59036q0 1.09431.50059 1.69968.51223.59372 1.52506.59372.74506 0 1.39699-.32596.65194-.33761 1.23402-.91969v-8.63811h2.87549v11.94434h-1.75789q-.5588 0-.73343-.52388l-.1979-.95461q-.37254.37253-.76835.68685-.39582.30269-.84984.52388-.44239.20955-.96626.32596-.51223.12806-1.10596.12806-.9779 0-1.7346-.32596-.74507-.33761-1.2573-.94298-.51223-.60536-.77999-1.43192-.25612-.8382-.25612-1.83938v-7.59036zm1.85102-3.09668q0 .32597-.12806.61701-.12805.2794-.36089.48895-.22119.20955-.52387.33761-.29104.11641-.61701.11641-.31432 0-.60536-.11641-.2794-.12806-.5006-.33761-.22119-.20955-.34925-.48895-.12805-.29104-.12805-.61701 0-.3376.12805-.62865.12806-.30268.34925-.52387.2212-.22119.5006-.34925.29104-.12806.60536-.12806.32597 0 .61701.12806.30268.12806.52387.34925.23284.22119.36089.52387.12806.29105.12806.62865zm4.35398 0q0 .32597-.12806.61701-.12806.2794-.34925.48895-.22119.20955-.52387.33761-.29104.11641-.61701.11641-.32597 0-.61701-.11641-.29104-.12806-.51223-.33761-.20955-.20955-.33761-.48895-.12806-.29104-.12806-.61701 0-.3376.12806-.62865.12806-.30268.33761-.52387.22119-.22119.51223-.34925.29104-.12806.61701-.12806.32597 0 .61701.12806.30268.12806.52387.34925.22119.22119.34925.52387.12806.29105.12806.62865zM-116.90656 317.40009v-11.94434h1.68804q.44238 0 .61701.16299.17462.16298.23283.55879l.17462 1.44357q.64029-1.10596 1.50178-1.74625.86148-.64029 1.93251-.64029.88477 0 1.46685.40746l-.37253 2.1537q-.0349.20955-.15135.30269-.11641.0815-.31432.0815-.17463 0-.47731-.0815t-.80327-.0815q-.89641 0-1.5367.50059-.64029.48895-1.08267 1.44356v7.43902zM-96.522589 305.2462q.768349 0 1.443565.16299.675215.15134 1.234015.45402h3.434286v1.07103q0 .26776-.139699.4191-.1397.15134-.477308.20955l-1.071032.19791q.116417.30268.174625.64029.06985.33761.06985.71014 0 .88477-.360891 1.60655-.34925.71014-.977899 1.21073-.617007.50059-1.47849.77999-.84984.26776-1.851022.26776-.675216 0-1.315506-.12806-.5588.33761-.5588.75671 0 .36089.325967.53551.337607.16299.873123.23284.547158.0698 1.234015.0931.686858.0116 1.40864.0699.721782.0582 1.40864.20955.686857.1397 1.222373.45402.547157.31433.873124.86149.337608.53551.337608 1.38535 0 .79163-.395817 1.5367-.384174.74507-1.12924 1.32715-.733424.58208-1.804455.93133-1.071032.36089-2.444747.36089-1.362073 0-2.363255-.26776-1.001182-.25611-1.664751-.6985-.65194-.43074-.9779-1.00118-.32597-.57044-.32597-1.18745 0-.83819.51223-1.40864.51224-.57044 1.420284-.90804-.442384-.24448-.710144-.65194-.26775-.40745-.26775-1.05939 0-.26775.0931-.54715.0931-.29105.2794-.57045.19791-.2794.48895-.52387.291039-.25612.686855-.45402-.908045-.48895-1.431925-1.30387-.51223-.81491-.51223-1.90923 0-.88476.34925-1.59491.36089-.72178.989539-1.22237.640291-.51223 1.501773-.77999.873124-.26776 1.897589-.26776zm3.154887 12.6894q0-.34925-.209549-.57044-.20955-.22119-.570441-.33761-.360891-.12806-.849841-.18626-.477307-.0582-1.024465-.0815-.535516-.0349-1.117598-.0582-.570441-.0349-1.105957-.10478-.488949.26776-.791632.64029-.291042.36089-.291042.8382 0 .31433.151342.58208.162983.2794.500591.47731.349249.19791.896407.30268.547157.11642 1.33879.11642.803274 0 1.385356-.12806.582083-.11641.954615-.33761.384175-.20954.5588-.51223.174624-.29104.174624-.64029zm-3.154887-6.79872q.535516 0 .931332-.1397.395816-.15134.651933-.40746.267757-.25612.395816-.61701.139699-.36089.139699-.79163 0-.88477-.535515-1.397-.523875-.52387-1.583265-.52387t-1.594906.52387q-.523874.51223-.523874 1.397 0 .4191.128058.77999.1397.36089.395816.62865.267758.25612.663574.40746.407458.1397.931332.1397zM-76.921521 305.26949q1.12924 0 2.072214.36089.954615.36089 1.641473 1.05939.686857.68685 1.071032 1.69968.384174 1.00118.384174 2.2934 0 .32597-.03493.54716-.02328.20955-.104775.33761-.06985.11642-.197908.17462-.128058.0466-.325966.0466h-7.380806q.128058 1.83938.98954 2.70086.861482.86149 2.281763.86149.698499 0 1.19909-.16299.512233-.16298.884766-.36089.384174-.19791.663574-.36089.291041-.16298.558799-.16298.174625 0 .302683.0699.128058.0698.221191.1979l.838199 1.04775q-.477308.5588-1.071032.94298-.593724.37253-1.245656.60536-.640291.22119-1.315507.31433-.663574.0931-1.292223.0931-1.245656 0-2.316688-.40746-1.071032-.4191-1.862664-1.22237-.791633-.81492-1.245657-2.00236-.454024-1.19909-.454024-2.77072 0-1.22237.395816-2.2934.395816-1.08268 1.12924-1.87431.745066-.80327 1.804456-1.26894 1.071032-.46566 2.409821-.46566zm.05821 2.06057q-1.257299 0-1.967439.71014-.710141.71014-.908049 2.014h5.401726q0-.5588-.151342-1.04774-.151341-.5006-.465666-.87313-.314324-.37253-.791632-.58208-.477308-.22119-1.117598-.22119zM-62.650503 317.40009v-11.94434h1.757889q.558799 0 .733424.52388l.197908.94297q.360891-.37253.756707-.67522.407458-.30268.849841-.52387.454024-.22119.966257-.33761.512232-.11641 1.117598-.11641.977899 0 1.734606.3376.756707.32597 1.257298.93134.512233.59372.768349 1.43192.267758.82656.267758 1.82774v7.602h-2.875488v-7.602q0-1.09432-.512232-1.68804-.500591-.60537-1.513415-.60537-.745065 0-1.396998.33761-.651932.33761-1.234015.91969v8.63811zM-20.64127 300.56626v2.49131h-7.462298v4.6683h5.879033v2.40983h-5.879033v4.76143h7.462298v2.50296h-10.617185v-16.83383zM-11.350332 317.40009v-17.2995h2.8754871v6.64739q.6984991-.66358 1.5366979-1.07104.8381988-.40745 1.9674389-.40745.9778986 0 1.7346058.3376.7567073.32597 1.2572983.93134.5122326.59372.7683489 1.43192.26775793.82656.26775793 1.82774v7.602H-3.8181848v-7.602q0-1.09432-.5122326-1.68804-.5005909-.60537-1.5134145-.60537-.7450656 0-1.396998.33761t-1.234015.91969v8.63811zM8.6298159 317.40009v-11.94434h1.6880391q.442383 0 .617008.16299.174624.16298.232833.55879l.174624 1.44357q.640291-1.10596 1.501773-1.74625t1.932514-.64029q.884766 0 1.466848.40746l-.372533 2.1537q-.03492.20955-.151341.30269-.116417.0815-.314325.0815-.174624 0-.477307-.0815t-.803274-.0815q-.896407 0-1.536698.50059-.640291.48895-1.082674 1.44356v7.43902zM29.817066 305.26949q1.12924 0 2.072213.36089.954616.36089 1.641473 1.05939.686858.68685 1.071032 1.69968.384174 1.00118.384174 2.2934 0 .32597-.03492.54716-.02328.20955-.104774.33761-.06985.11642-.197908.17462-.128059.0466-.325967.0466h-7.380806q.128058 1.83938.98954 2.70086.861483.86149 2.281764.86149.698499 0 1.19909-.16299.512232-.16298.884765-.36089.384175-.19791.663574-.36089.291042-.16298.558799-.16298.174625 0 .302683.0699.128059.0698.221192.1979l.838199 1.04775q-.477308.5588-1.071032.94298-.593724.37253-1.245657.60536-.640291.22119-1.315506.31433-.663574.0931-1.292223.0931-1.245657 0-2.316689-.40746-1.071032-.4191-1.862664-1.22237-.791632-.81492-1.245656-2.00236-.454025-1.19909-.454025-2.77072 0-1.22237.395816-2.2934.395816-1.08268 1.12924-1.87431.745066-.80327 1.804456-1.26894 1.071032-.46566 2.409822-.46566zm.05821 2.06057q-1.257298 0-1.967439.71014-.710141.71014-.908049 2.014h5.401726q0-.5588-.151341-1.04774-.151342-.5006-.465666-.87313-.314325-.37253-.791633-.58208-.477307-.22119-1.117598-.22119zM48.011319 317.58635q-1.548339 0-2.386538-.87312-.838199-.88477-.838199-2.43311v-6.67066H43.57585q-.232833 0-.407457-.15134-.162983-.15135-.162983-.45403v-1.14088l1.920872-.31432.605366-3.25967q.04657-.23283.209549-.36089.174625-.12806.430741-.12806h1.490132v3.76026h3.143245v2.04893H47.66207v6.47276q0 .55879.279399.87312.2794.31432.745066.31432.267758 0 .442383-.0582.186266-.0698.314324-.1397.1397-.0698.244475-.12806.104775-.0698.20955-.0698.128058 0 .209549.0698.08149.0582.174625.18626l.861482 1.397q-.628649.52388-1.443565.79163-.814915.26776-1.688039.26776z" style="font-weight:700;font-size:23.2833px;line-height:1.25;font-family:Lato;-inkscape-font-specification:'Lato Bold';text-align:center;letter-spacing:6.74687px;text-anchor:middle;fill:#fcfbfb;stroke-width:.264583" transform="matrix(1.04012 0 0 1 182.3097714 -125.99631054)"/><g><path d="M-145.50327 332.15722v2.12327h-6.35991v3.97866h5.01054v2.05383h-5.01054v4.05803h6.35991v2.1332h-9.04873v-14.34699zM-137.11733 346.50421v-10.17982h1.4982q.47625 0 .62508.44649l.16867.80367q.30758-.3175.64492-.57547.34726-.25797.72429-.44648.38696-.18852.82352-.28774.43656-.0992.9525-.0992.83343 0 1.47835.28774.64492.27781 1.07156.79374.43656.50602.65484 1.22039.22821.70445.22821 1.55773v6.47897h-2.4507v-6.47897q0-.93265-.43656-1.43867-.42664-.51593-1.28984-.51593-.635 0-1.19063.28773-.55562.28774-1.05171.78383v7.36201zM-116.09901 336.1458q.65484 0 1.23031.13891.57547.12898 1.05172.38695h2.92694v.91281q0 .2282-.11906.35718-.11906.12899-.40679.1786l-.91282.16867q.0992.25797.14883.5457.0595.28773.0595.60523 0 .75406-.30757 1.36922-.29766.60523-.83344 1.03187-.52586.42664-1.26007.66477-.7243.2282-1.57758.2282-.57547 0-1.12117-.10914-.47625.28773-.47625.64492 0 .30758.27782.4564.28773.13891.74413.19844.46633.0595 1.05172.0794.58539.01 1.20054.0595.61516.0496 1.20055.17859.58539.11906 1.04179.38695.46633.26789.74414.73422.28774.4564.28774 1.1807 0 .67468-.33735 1.30968-.32742.635-.96242 1.13109-.62507.4961-1.53788.79375-.91281.30758-2.08359.30758-1.16086 0-2.01414-.2282-.85328-.21828-1.41882-.59531-.55563-.36711-.83344-.85328-.27781-.48617-.27781-1.01203 0-.71438.43656-1.20055t1.21047-.7739q-.37703-.20836-.60524-.55562-.2282-.34727-.2282-.90289 0-.22821.0794-.46633.0794-.24805.23812-.48617.16867-.23812.41672-.44648.24804-.21828.58539-.38696-.77391-.41671-1.22039-1.11124-.43656-.69453-.43656-1.62719 0-.75406.29765-1.35929.30758-.61515.84336-1.04179.5457-.43657 1.27992-.66477.74414-.2282 1.61726-.2282zm2.68882 10.81482q0-.29766-.17859-.48617-.17859-.18852-.48617-.28774-.30758-.10914-.7243-.15875-.40679-.0496-.87312-.0695-.4564-.0298-.9525-.0496-.48617-.0298-.94257-.0893-.41672.22821-.67469.54571-.24804.30757-.24804.71437 0 .26789.12898.49609.13891.23813.42664.4068.29766.16867.76398.25796.46633.0992 1.14101.0992.68461 0 1.18071-.10914.49609-.0992.81359-.28773.32742-.17859.47625-.43656.14882-.24805.14882-.5457zm-2.68882-5.79436q.45641 0 .79375-.11907.33734-.12898.55562-.34726.22821-.21828.33735-.52586.11906-.30758.11906-.67469 0-.75406-.45641-1.19062-.44648-.44648-1.34937-.44648t-1.35929.44648q-.44648.43656-.44648 1.19062 0 .35719.10914.66477.11906.30758.33734.53578.2282.21828.56554.34726.34727.11907.79375.11907zM-100.52345 336.32439v10.17982h-2.45069v-10.17982zm.36711-2.96663q0 .3175-.12898.59531-.12899.27781-.34727.48617-.20835.20836-.49609.33734-.28773.11907-.61515.11907-.3175 0-.60524-.11907-.27781-.12898-.48617-.33734-.20836-.20836-.33734-.48617-.11906-.27781-.11906-.59531 0-.32742.11906-.61516.12898-.28773.33734-.49609.20836-.20836.48617-.32742.28774-.12898.60524-.12898.32742 0 .61515.12898.28774.11906.49609.32742.21828.20836.34727.49609.12898.28774.12898.61516zM-91.527927 346.50421v-10.17982h1.498199q.476249 0 .625077.44649l.168672.80367q.307577-.3175.64492-.57547.347265-.25797.724295-.44648.386952-.18852.823513-.28774.436562-.0992.952498-.0992.833435 0 1.478356.28774.64492.27781 1.07156.79374.436561.50602.654842 1.22039.228202.70445.228202 1.55773v6.47897h-2.450697v-6.47897q0-.93265-.436561-1.43867-.42664-.51593-1.289841-.51593-.634998 0-1.190622.28773-.555623.28774-1.051716.78383v7.36201zM-69.824999 336.16564q.962419 0 1.766089.30758.813592.30758 1.398981.90289.585389.58539.91281 1.44859.327421.85328.327421 1.9546 0 .27782-.02976.46633-.01984.17859-.0893.28773-.05953.0992-.168671.14883-.109141.0397-.277812.0397h-6.290453q.10914 1.56765.843357 2.30187.734217.73422 1.944683.73422.595311 0 1.02195-.13891.436562-.13891.754061-.30758.327421-.16867.565545-.30758.248047-.1389.476249-.1389.148828 0 .257968.0595.109141.0595.188515.16867l.714374.89297q-.406796.47625-.912811.80367-.506014.3175-1.061638.51593-.545701.18852-1.121169.26789-.565545.0794-1.101325.0794-1.061638 0-1.974448-.34727-.91281-.35718-1.587496-1.04179-.674686-.69453-1.061638-1.70656-.386952-1.02195-.386952-2.3614 0-1.04179.337343-1.9546.337342-.92274.962419-1.59742.634998-.68461 1.537887-1.08148.91281-.39688 2.053823-.39688zm.04961 1.75617q-1.07156 0-1.676793.60523-.605232.60524-.773904 1.71648h4.603739q0-.47625-.128984-.89296-.128985-.42664-.396874-.74414-.26789-.3175-.674686-.49609-.406796-.18852-.952498-.18852zM-52.98781 336.16564q.962419 0 1.766089.30758.813592.30758 1.398981.90289.585389.58539.91281 1.44859.327421.85328.327421 1.9546 0 .27782-.02977.46633-.01984.17859-.0893.28773-.05953.0992-.168672.14883-.10914.0397-.277811.0397h-6.290453q.10914 1.56765.843357 2.30187.734217.73422 1.944682.73422.595311 0 1.021951-.13891.436561-.13891.754061-.30758.327421-.16867.565545-.30758.248046-.1389.476249-.1389.148828 0 .257968.0595.10914.0595.188515.16867l.714373.89297q-.406795.47625-.91281.80367-.506014.3175-1.061638.51593-.545702.18852-1.121169.26789-.565545.0794-1.101325.0794-1.061638 0-1.974448-.34727-.912811-.35718-1.587496-1.04179-.674686-.69453-1.061638-1.70656-.386953-1.02195-.386953-2.3614 0-1.04179.337343-1.9546.337343-.92274.96242-1.59742.634998-.68461 1.537887-1.08148.91281-.39688 2.053823-.39688zm.04961 1.75617q-1.07156 0-1.676793.60523-.605233.60524-.773904 1.71648h4.603738q0-.47625-.128984-.89296-.128984-.42664-.396874-.74414t-.674686-.49609q-.406795-.18852-.952497-.18852zM-40.357486 346.50421v-10.17982h1.438668q.37703 0 .525858.13891.148828.1389.198437.47625l.148828 1.23031q.545702-.94258 1.279919-1.48828.734216-.5457 1.647027-.5457.75406 0 1.250153.34726l-.317499 1.83554q-.02977.1786-.128984.25797-.09922.0695-.26789.0695-.148828 0-.406796-.0695-.257968-.0694-.684608-.0694-.763982 0-1.309684.42664-.545702.41672-.922732 1.23031v6.34006zM-23.430062 336.32439v10.17982h-2.450697v-10.17982zm.367109-2.96663q0 .3175-.128984.59531t-.347265.48617q-.208359.20836-.496093.33734-.287733.11907-.615154.11907-.317499 0-.605233-.11907-.277812-.12898-.486171-.33734-.208359-.20836-.337343-.48617-.119062-.27781-.119062-.59531 0-.32742.119062-.61516.128984-.28773.337343-.49609.208359-.20836.486171-.32742.287734-.12898.605233-.12898.327421 0 .615154.12898.287734.11906.496093.32742.218281.20836.347265.49609.128984.28774.128984.61516zM-14.434543 346.50421v-10.17982h1.498199q.476249 0 .625077.44649l.168671.80367q.307578-.3175.644921-.57547.347264-.25797.724295-.44648.386952-.18852.8235132-.28774.4365614-.0992.9524976-.0992.8334354 0 1.4783557.28774.6449202.27781 1.0715598.79374.4365614.50602.6548421 1.22039.2282026.70445.2282026 1.55773v6.47897h-2.450697v-6.47897q0-.93265-.4365614-1.43867-.4266396-.51593-1.2898406-.51593-.634998 0-1.190622.28773-.555624.28774-1.051716.78383v7.36201zM6.5837769 336.1458q.6548422 0 1.2303095.13891.5754673.12898 1.0517161.38695h2.9269455v.91281q0 .2282-.119062.35718-.119062.12899-.406796.1786l-.91281.16867q.09922.25797.148828.5457.05953.28773.05953.60523 0 .75406-.307577 1.36922-.297656.60523-.8334359 1.03187-.5258581.42664-1.260075.66477-.724295.2282-1.5775742.2282-.5754673 0-1.121169-.10914-.4762488.28773-.4762488.64492 0 .30758.2778118.4564.2877336.13891.7441387.19844.466327.0595 1.0517162.0794.5853891.01 1.2005438.0595.6151547.0496 1.2005439.17859.5853895.11906 1.0417945.38695.466327.26789.744139.73422.287733.4564.287733 1.1807 0 .67468-.337343 1.30968-.327421.635-.962419 1.13109-.6250767.4961-1.537887.79375-.9128102.30758-2.0835885.30758-1.1608565 0-2.0141356-.2282-.8532791-.21828-1.4188246-.59531-.5556236-.36711-.8334354-.85328-.2778118-.48617-.2778118-1.01203 0-.71438.4365614-1.20055t1.2104657-.7739q-.3770303-.20836-.6052328-.55562-.2282026-.34727-.2282026-.90289 0-.22821.079375-.46633.079375-.24805.2381244-.48617.1686715-.23812.4167177-.44648.2480463-.21828.5853892-.38696-.7739043-.41671-1.2203876-1.11124-.4365614-.69453-.4365614-1.62719 0-.75406.2976555-1.35929.3075774-.61515.8433573-1.04179.5457017-.43657 1.2799187-.66477.7441387-.2282 1.6172615-.2282zm2.6888215 10.81482q0-.29766-.1785934-.48617-.1785933-.18852-.4861706-.28774-.3075774-.10914-.7242951-.15875-.4067958-.0496-.8731228-.0695-.4564051-.0298-.9524976-.0496-.4861707-.0298-.9425758-.0893-.4167177.22821-.6746858.54571-.2480463.30757-.2480463.71437 0 .26789.1289841.49609.1389059.23813.4266396.4068.2976555.16867.7639824.25796.466327.0992 1.1410128.0992.6846077 0 1.1807002-.10914.4960925-.0992.8135917-.28773.327421-.17859.4762488-.43656.1488278-.24805.1488278-.5457zm-2.6888215-5.79436q.4564052 0 .7937481-.11907.3373429-.12898.5556236-.34726.2282025-.21828.3373429-.52586.1190622-.30758.1190622-.67469 0-.75406-.4564051-1.19062-.4464833-.44648-1.3493717-.44648-.9028883 0-1.3592934.44648-.4464833.43656-.4464833 1.19062 0 .35719.1091404.66477.1190622.30758.3373429.53578.2282025.21828.5655454.34726.3472648.11907.793748.11907zM33.950336 336.16564q1.141012 0 2.063744.36711.932654.36711 1.587496 1.0418.654843.67468 1.012029 1.64702.357187.97234.357187 2.17289 0 1.21046-.357187 2.18281-.357186.97234-1.012029 1.65694-.654842.68461-1.587496 1.05172-.922732.36711-2.063744.36711-1.141013 0-2.073667-.36711-.932654-.36711-1.597418-1.05172-.654842-.6846-1.021951-1.65694-.357186-.97235-.357186-2.18281 0-1.20055.357186-2.17289.367109-.97234 1.021951-1.64702.664764-.67469 1.597418-1.0418.932654-.36711 2.073667-.36711zm0 8.60225q1.269996 0 1.875229-.85328.615155-.85328.615155-2.50031 0-1.64703-.615155-2.51023-.605233-.8632-1.875229-.8632-1.289841 0-1.904996.87313-.615154.8632-.615154 2.5003 0 1.63711.615154 2.50031.615155.85328 1.904996.85328zM47.53719 346.50421v-8.33435l-.883045-.13891q-.287734-.0496-.466327-.19844-.168671-.14882-.168671-.41671v-1.00211h1.518043v-.75406q0-.87312.257968-1.56765.26789-.69453.754061-1.1807.496092-.48617 1.200543-.74414.704452-.25797 1.587496-.25797.704452 0 1.309685.18851l-.04961 1.23031q-.01984.28774-.26789.35719-.248046.0695-.575467.0695-.436561 0-.783826.0992-.337343.0893-.575467.32742-.238125.22821-.367109.61516-.119062.37703-.119062.94257v.67469h2.649134v1.74624h-2.569759v8.34428z" style="font-weight:700;font-size:19.8437px;line-height:1.25;font-family:Lato;-inkscape-font-specification:'Lato Bold';text-align:center;letter-spacing:6.21771px;text-anchor:middle;fill:#fcfbfb;stroke-width:.264583" transform="matrix(1.03439 0 0 1 181.0471391 -125.99631054)"/></g><g><path d="M-144.31885 362.911q-.14552.29104-.34396.41011-.1852.11906-.44979.11906-.26458 0-.59531-.19844-.33073-.21167-.78052-.46302-.44979-.25135-1.05833-.44979-.59531-.21167-1.41552-.21167-.74083 0-1.29646.18521-.54239.17198-.92604.48948-.37041.3175-.55562.76729-.18521.43656-.18521.96573 0 .67468.37042 1.12448.38364.44979 1.00541.76729.62177.3175 1.41552.56885.79375.25135 1.61396.54239.83343.27782 1.62718.66146.79375.37042 1.41552.9525.62177.56885.99219 1.40229.38364.83344.38364 2.02406 0 1.29646-.44979 2.43416-.43656 1.12448-1.29645 1.97115-.84667.83343-2.07698 1.32291-1.23031.47625-2.81781.47625-.91281 0-1.79916-.18521-.88636-.17197-1.70656-.5027-.80698-.33073-1.52136-.79375-.70114-.46302-1.25677-1.03188l1.03188-1.70656q.14552-.1852.34396-.30427.21166-.13229.46302-.13229.33072 0 .71437.27781.38365.26459.89958.59532.52917.33072 1.23031.60854.71438.26458 1.70656.26458 1.52136 0 2.35479-.71437.83344-.72761.83344-2.07698 0-.75406-.38365-1.23031-.37041-.47625-.99218-.79375-.62177-.33073-1.41552-.55563-.79375-.22489-1.61396-.48947-.82021-.26459-1.61395-.635-.79375-.37042-1.41552-.96573-.62177-.59531-1.00542-1.48167-.37042-.89958-.37042-2.20926 0-1.04511.41011-2.03729.42333-.99219 1.21708-1.75948.80698-.76729 1.97114-1.23031 1.16417-.46302 2.65906-.46302 1.69333 0 3.12208.52916 1.42875.52917 2.43417 1.48167zM-134.4867 364.77631q1.52136 0 2.75167.48948 1.24354.48948 2.11666 1.38906.87312.89958 1.34937 2.19604.47625 1.29646.47625 2.89718 0 1.61396-.47625 2.91042-.47625 1.29645-1.34937 2.20926-.87312.91282-2.11666 1.40229-1.23031.48948-2.75167.48948-1.52135 0-2.76489-.48948-1.24354-.48947-2.12989-1.40229-.87313-.91281-1.36261-2.20926-.47624-1.29646-.47624-2.91042 0-1.60072.47624-2.89718.48948-1.29646 1.36261-2.19604.88635-.89958 2.12989-1.38906 1.24354-.48948 2.76489-.48948zm0 11.46967q1.69333 0 2.50031-1.1377.82021-1.13771.82021-3.33375t-.82021-3.34697q-.80698-1.15094-2.50031-1.15094-1.71979 0-2.53999 1.16417-.82021 1.15093-.82021 3.33374t.82021 3.33375q.8202 1.1377 2.53999 1.1377zM-124.39658 378.56109V367.4486l-1.17739-.18521q-.38365-.0661-.62177-.26458-.2249-.19844-.2249-.55563v-1.33614h2.02406v-1.00542q0-1.16416.34396-2.0902.35719-.92604 1.00542-1.57427.66145-.64823 1.60072-.99219.93927-.34395 2.11667-.34395.93927 0 1.74625.25135l-.0661 1.64041q-.0265.38365-.35719.47625-.33073.0926-.76729.0926-.58208 0-1.0451.13229-.44979.11906-.76729.43656-.3175.30427-.48948.82021-.15875.50271-.15875 1.25677v.89958h3.53218v2.32833h-3.42635v11.12572zM-111.00578 378.77275q-1.75948 0-2.71198-.99218-.9525-1.00542-.9525-2.7649v-7.5803h-1.37583q-.26458 0-.46302-.17198-.18521-.17198-.18521-.51594V365.451l2.18281-.35719.68792-3.70416q.0529-.26458.23812-.4101.19844-.14553.48948-.14553h1.69333v4.27302h3.57187v2.32833h-3.57187v7.35541q0 .635.3175.99218.3175.35719.84667.35719.30427 0 .5027-.0661.21167-.0794.35719-.15875.15875-.0794.27781-.14552.11907-.0794.23813-.0794.14552 0 .23812.0794.0926.0661.19844.21166l.97896 1.5875q-.71438.59531-1.64042.89958-.92604.30427-1.91822.30427zM-106.62115 364.98798h2.59292q.37041 0 .62177.17198.25135.17198.3175.43656l1.94468 7.24957q.15875.59531.25136 1.16417.10583.56885.19843 1.13771.14552-.56886.30427-1.13771.17198-.56886.35719-1.16417l2.248957-7.27603q.07938-.26458.3175-.43656.238124-.17198.555624-.17198h1.441977q.357187 0 .595312.17198.238125.17198.317499.43656l2.222498 7.40832q.171979.56886.30427 1.11125.145521.52917.277812 1.07156.0926-.56885.198437-1.1377.119063-.56886.291042-1.1774l2.010831-7.24957q.06615-.26458.317499-.43656.251354-.17198.582083-.17198h2.473851l-4.299474 13.57311h-2.632601q-.423333 0-.608541-.58209l-2.447392-7.84488q-.119063-.38365-.224896-.76729-.0926-.39688-.15875-.78052-.07937.39687-.171979.79375-.0926.38364-.211666.78052l-2.473851 7.81842q-.185208.58209-.714374.58209h-2.500308zM-73.137753 378.56109h-1.468436q-.46302 0-.727603-.1323-.264583-.14552-.396874-.56885l-.291042-.96573q-.515937.46302-1.018644.82021-.489479.34396-1.018645.58208-.529166.23813-1.124477.35719-.595312.11906-1.322915.11906-.859895 0-1.587498-.22489-.727604-.23813-1.25677-.70115-.515937-.46302-.806978-1.15093-.291041-.68792-.291041-1.60073 0-.76729.396874-1.50812.410104-.75407 1.349374-1.34938.939269-.60854 2.500309-1.00541 1.56104-.39688 3.876141-.44979v-.79375q0-1.36261-.582083-2.01083-.568853-.66146-1.666873-.66146-.793749 0-1.322915.18521-.529166.1852-.92604.42333-.383645.22489-.714374.4101-.330729.18521-.727603.18521-.330729 0-.568854-.17198-.238125-.17198-.383645-.42333l-.595312-1.0451q2.34156-2.14313 5.648847-2.14313 1.190624 0 2.116664.39688.93927.38364 1.587498 1.08479.648228.68791.978957 1.65364.343958.96573.343958 2.11667zm-6.349992-2.03729q.502708 0 .926041-.0926.423332-.0926.793749-.27781.383645-.18521.727603-.44979.357187-.27781.714374-.64823v-2.28864q-1.428748.0661-2.394476.25135-.952499.17198-1.534582.44979-.582082.27782-.833436.64823-.238125.37042-.238125.80698 0 .85989.502708 1.23031.515937.37042 1.336144.37042zM-69.660144 378.56109v-13.57311h1.918227q.502708 0 .701145.18521.198437.1852.264583.635l.198437 1.64041q.727603-1.25677 1.706561-1.98437.978957-.72761 2.196038-.72761 1.005416 0 1.666873.46302l-.423332 2.4474q-.03969.23812-.171979.34396-.132292.0926-.357187.0926-.198438 0-.542396-.0926-.343957-.0926-.912811-.0926-1.018644 0-1.746248.56885-.727603.55563-1.230311 1.64042v8.45343zM-52.986043 364.77631q1.283228 0 2.354789.41011 1.08479.4101 1.86531 1.20385.78052.78052 1.217082 1.93145.436562 1.13771.436562 2.60615 0 .37041-.03969.62177-.02646.23812-.119062.38364-.07937.13229-.224896.19844-.14552.0529-.370416.0529h-8.387281q.145521 2.0902 1.124478 3.06916.978957.97896 2.592913.97896.793749 0 1.362603-.18521.582082-.18521 1.005415-.41011.436562-.22489.754062-.4101.330728-.18521.634999-.18521.198437 0 .343958.0794.14552.0794.251354.22489l.952498 1.19063q-.542395.635-1.217081 1.07156-.674687.42333-1.415519.68791-.727604.25136-1.494894.35719-.754062.10583-1.468436.10583-1.415519 0-2.632601-.46302-1.217082-.47625-2.116664-1.38906-.899582-.92604-1.415519-2.27541-.515937-1.3626-.515937-3.14854 0-1.38906.449792-2.60614.449791-1.23031 1.283227-2.1299.846666-.91281 2.050518-1.44197 1.217082-.52917 2.738434-.52917zm.06615 2.34156q-1.428748 0-2.235726.80698-.806978.80698-1.031874 2.28864h6.138326q0-.635-.171979-1.19062-.171979-.56885-.529166-.99219-.357187-.42333-.899583-.66146-.542395-.25135-1.269998-.25135zM-28.352952 362.911q-.145521.29104-.343958.41011-.185208.11906-.449791.11906t-.595312-.19844q-.330729-.21167-.78052-.46302-.449791-.25135-1.058332-.44979-.595311-.21167-1.415519-.21167-.740832 0-1.296456.18521-.542395.17198-.926041.48948-.370416.3175-.555624.76729-.185208.43656-.185208.96573 0 .67468.370416 1.12448.383645.44979 1.005415.76729.62177.3175 1.415519.56885.793749.25135 1.613957.54239.833436.27782 1.627185.66146.793749.37042 1.415519.9525.62177.56885.992186 1.40229.383646.83344.383646 2.02406 0 1.29646-.449791 2.43416-.436562 1.12448-1.296457 1.97115-.846666.83343-2.076977 1.32291-1.23031.47625-2.817808.47625-.912812 0-1.799165-.18521-.886353-.17197-1.70656-.5027-.806978-.33073-1.521352-.79375-.701145-.46302-1.25677-1.03188l1.031874-1.70656q.145521-.1852.343958-.30427.211666-.13229.46302-.13229.330729 0 .714374.27781.383646.26459.899582.59532.529166.33072 1.230311.60854.714374.26458 1.706561.26458 1.521352 0 2.354788-.71437.833437-.72761.833437-2.07698 0-.75406-.383646-1.23031-.370416-.47625-.992186-.79375-.62177-.33073-1.415519-.55563-.793749-.22489-1.613956-.48947-.820207-.26459-1.613956-.635-.793749-.37042-1.415519-.96573-.62177-.59531-1.005416-1.48167-.370416-.89958-.370416-2.20926 0-1.04511.410104-2.03729.423332-.99219 1.217081-1.75948.806979-.76729 1.971144-1.23031 1.164165-.46302 2.659059-.46302 1.693331 0 3.122079.52916 1.428748.52917 2.434164 1.48167zM-19.499755 382.29171q-.14552.34395-.383645.51593-.224896.18521-.701145.18521h-2.434164l2.539997-5.43718-5.490097-12.56769h2.857496q.396875 0 .608541.18521.211667.1852.3175.42333l2.897184 7.03791q.14552.34395.251353.71437.105834.37042.185209.74083.105833-.38364.224895-.74083.132292-.35719.277812-.7276l2.725205-7.02468q.105833-.26458.343958-.43656.251354-.17198.555624-.17198h2.619372zM-1.8863749 367.63381q-.1322915.21166-.2778122.30427-.1455206.0794-.3704162.0794-.2381247 0-.5159368-.13229-.264583-.13229-.62177-.29104-.3571871-.17198-.8202073-.30427-.4497911-.13229-1.0715612-.13229-.9657279 0-1.5213522.4101-.5556243.41011-.5556243 1.07156 0 .43657.2778122.74084.2910412.29104.7540615.51593.4762494.2249 1.0715611.41011.5953118.17198 1.2170818.38364.6217701.21167 1.2170818.48948.5953117.26458 1.058332.68792.4762494.4101.7540615.99218.2910413.58208.2910413 1.40229 0 .97896-.357187 1.8124-.3571871.8202-1.0451029 1.42874-.6879158.59532-1.7065603.93927-1.0054154.33073-2.3151012.33073-.7011449 0-1.3758316-.13229-.6614575-.11906-1.2832275-.34396-.6085409-.22489-1.1377066-.52916-.515937-.30427-.912812-.66146l.754062-1.24354q.145521-.2249.343958-.34396.198437-.11906.5027075-.11906.3042704 0 .5688534.17198.2778122.17198.6349992.37041.3571871.19844.8334365.37042.4894785.17198 1.2303109.17198.5820826 0 .9921862-.13229.4233328-.14552.6879158-.37042.2778122-.22489.3968745-.51594.1322915-.30427.1322915-.62177 0-.47624-.2910413-.78052-.2778121-.30427-.7540615-.52916-.4630203-.2249-1.0715612-.39688-.5953117-.1852-1.2303109-.39687-.62177-.21167-1.2303109-.48948-.5953118-.29104-1.0715612-.7276-.4630205-.43656-.7540615-1.07156-.277812-.635-.277812-1.53458 0-.83344.330729-1.5875.330728-.75406.9657275-1.30969.6482284-.56885 1.6007272-.89958.9657279-.34396 2.2224971-.34396 1.4022899 0 2.5532259.46302 1.1509361.46302 1.9182268 1.21708zM6.3553842 378.77275q-1.7594769 0-2.7119757-.99218-.9524988-1.00542-.9524988-2.7649v-7.5803H1.3150781q-.264583 0-.46302021-.17198-.18520809-.17198-.18520809-.51594V365.451l2.1828097-.35719.6879158-3.70416q.052917-.26458.2381247-.4101.1984373-.14553.4894785-.14553h1.6933312v4.27302h3.5718705v2.32833H5.9585097v7.35541q0 .635.3174996.99218.3174996.35719.8466656.35719.3042705 0 .5027077-.0661.2116664-.0794.357187-.15875.1587498-.0794.2778122-.14552.1190623-.0794.2381247-.0794.1455206 0 .2381247.0794.092604.0661.1984372.21166l.9789571 1.5875q-.7143741.59531-1.6404146.89958-.9260404.30427-1.9182267.30427zM18.002811 364.77631q1.283227 0 2.354788.41011 1.084791.4101 1.865311 1.20385.780519.78052 1.217081 1.93145.436562 1.13771.436562 2.60615 0 .37041-.03969.62177-.02646.23812-.119063.38364-.07937.13229-.224895.19844-.145521.0529-.370416.0529h-8.387281q.14552 2.0902 1.124477 3.06916.978958.97896 2.592914.97896.793749 0 1.362602-.18521.582083-.18521 1.005416-.41011.436562-.22489.754061-.4101.330729-.18521.634999-.18521.198438 0 .343958.0794.145521.0794.251354.22489l.952499 1.19063q-.542395.635-1.217082 1.07156-.674687.42333-1.415519.68791-.727603.25136-1.494894.35719-.754061.10583-1.468435.10583-1.41552 0-2.632601-.46302-1.217082-.47625-2.116664-1.38906-.899582-.92604-1.415519-2.27541-.515937-1.3626-.515937-3.14854 0-1.38906.449791-2.60614.449791-1.23031 1.283227-2.1299.846666-.91281 2.050519-1.44197 1.217082-.52917 2.738434-.52917zm.06614 2.34156q-1.428748 0-2.235726.80698-.806978.80698-1.031874 2.28864h6.138326q0-.635-.171979-1.19062-.171979-.56885-.529166-.99219-.357187-.42333-.899582-.66146-.542395-.25135-1.269999-.25135zM26.817571 378.56109v-13.57311h1.997602q.634999 0 .833436.59531l.211666 1.00542q.357187-.39688.740833-.72761.396874-.33073.833436-.56885.449791-.23813.952499-.37042.515937-.14552 1.124478-.14552 1.283227 0 2.103435.70115.833436.68791 1.24354 1.83885.317499-.67469.793749-1.15094.476249-.48948 1.045102-.79375.568854-.30427 1.203853-.44979.648228-.14552 1.296457-.14552 1.124477 0 1.997601.34396t1.468436 1.00541q.595312.66146.899582 1.61396.3175.9525.3175 2.18281v8.63864h-3.2676v-8.63864q0-1.29646-.568854-1.94468-.568853-.66146-1.666873-.66146-.502707 0-.939269.17198-.423333.17198-.754062.50271-.317499.31749-.502707.80697-.185209.48948-.185209 1.12448v8.63864h-3.280829v-8.63864q0-1.3626-.555624-1.98437-.542395-.62177-1.613956-.62177-.701145 0-1.322915.35719-.608541.34395-1.137707.95249v9.9351zM57.411217 367.63381q-.132291.21166-.277812.30427-.145521.0794-.370416.0794-.238125 0-.515937-.13229-.264583-.13229-.62177-.29104-.357187-.17198-.820207-.30427-.449791-.13229-1.071561-.13229-.965728 0-1.521353.4101-.555624.41011-.555624 1.07156 0 .43657.277812.74084.291042.29104.754062.51593.476249.2249 1.071561.41011.595312.17198 1.217082.38364.62177.21167 1.217081.48948.595312.26458 1.058332.68792.47625.4101.754062.99218.291041.58208.291041 1.40229 0 .97896-.357187 1.8124-.357187.8202-1.045103 1.42874-.687915.59532-1.70656.93927-1.005415.33073-2.315101.33073-.701145 0-1.375832-.13229-.661457-.11906-1.283227-.34396-.608541-.22489-1.137707-.52916-.515937-.30427-.912811-.66146l.754061-1.24354q.145521-.2249.343958-.34396.198437-.11906.502708-.11906.30427 0 .568853.17198.277812.17198.634999.37041.357187.19844.833437.37042.489478.17198 1.230311.17198.582082 0 .992186-.13229.423333-.14552.687916-.37042.277812-.22489.396874-.51594.132292-.30427.132292-.62177 0-.47624-.291042-.78052-.277812-.30427-.754061-.52916-.46302-.2249-1.071561-.39688-.595312-.1852-1.230311-.39687-.62177-.21167-1.230311-.48948-.595312-.29104-1.071561-.7276-.463021-.43656-.754062-1.07156-.277812-.635-.277812-1.53458 0-.83344.330729-1.5875t.965728-1.30969q.648228-.56885 1.600727-.89958.965728-.34396 2.222497-.34396 1.40229 0 2.553226.46302t1.918227 1.21708z" style="font-weight:700;font-size:26.4583px;line-height:1.25;font-family:Lato;-inkscape-font-specification:'Lato Bold';text-align:center;letter-spacing:.264583px;text-anchor:middle;fill:#fcfbfb;stroke-width:.264583" transform="translate(177.206995 -125.99631054)"/></g></g></svg>