<svg width="1836.9569" height="315.57828" viewBox="0 0 486.02807 83.496734" xmlns="http://www.w3.org/2000/svg"><defs><path id="c" d="M1600.6648 5530.2114h158.57976v94.550331H1600.6648z"/><path id="b" d="M157-13h55v40h-55z"/><filter style="color-interpolation-filters:sRGB" id="a" x="-.05642297" y="-.03515585" width="1.1128459" height="1.0703117"><feGaussianBlur stdDeviation="1.1384116"/></filter></defs><text xml:space="preserve" transform="matrix(.26458 0 0 .26458 275.20172 -1957.8717)" style="font-size:36px;line-height:1.25;font-family:Lato;-inkscape-font-specification:Lato;text-align:center;letter-spacing:0;white-space:pre;shape-inside:url(#b)"><tspan x="157" y="60.48"><tspan dx="0 20.882812 20.039062 14.484375 18.84375">Ehret</tspan></tspan></text><g style="display:inline"><g aria-label="EHRET ENGINEERING SOFTWARE SYSTEMS" style="font-size:23.2833px;line-height:1.25;font-family:Lato;-inkscape-font-specification:Lato;text-align:center;letter-spacing:0;text-anchor:middle;display:inline;fill:#fcfbfb;stroke-width:.264583"><path d="M-377.97519 186.09892v2.0902h-9.10166v6.29708h7.36864v2.01083h-7.36864v6.46905h9.10166v2.09021h-11.68134v-18.95737zM-358.93638 205.05629h-2.57968v-8.62541h-10.21291v8.62541h-2.57968v-18.95737h2.57968v8.45342h10.21291v-8.45342h2.57968zM-351.49209 197.14526v7.91103h-2.55323v-18.95737h5.35781q1.79916 0 3.10885.37041 1.30969.35719 2.15635 1.04511.8599.68791 1.27 1.66687.4101.96573.4101 2.16958 0 1.00542-.3175 1.87854-.3175.87312-.92604 1.57427-.59531.68791-1.46843 1.17739-.8599.48948-1.95792.74084.47625.27781.84667.80697l5.52978 7.52739h-2.27541q-.70114 0-1.03187-.5424l-4.92125-6.77332q-.22489-.3175-.48948-.44979-.26458-.14552-.79374-.14552zm0-1.86531h2.68552q1.12448 0 1.97114-.26459.8599-.27781 1.42875-.76729.58208-.5027.87312-1.19062.29104-.68792.29104-1.52135 0-1.69333-1.12447-2.55323-1.11125-.85989-3.32052-.85989h-2.80458zM-325.57536 186.09892v2.0902h-9.10165v6.29708h7.36864v2.01083h-7.36864v6.46905h9.10165v2.09021h-11.68133v-18.95737zM-308.99716 186.09892v2.15635h-6.1251v16.80102h-2.56645v-16.80102h-6.15156v-2.15635zM-289.50525 186.09892v2.0902h-9.10166v6.29708h7.36864v2.01083h-7.36864v6.46905h9.10166v2.09021h-11.68134v-18.95737zM-284.51579 186.09892q.34396 0 .50271.0926.17197.0794.38364.34396l10.9802 14.28748q-.0397-.34396-.0529-.66146-.0132-.33072-.0132-.63499v-13.42759h2.24895v18.95737h-1.29645q-.30427 0-.51594-.10583-.19844-.10584-.39687-.35719l-10.96697-14.27425q.0265.33073.0397.64823.0132.31749.0132.58208v13.50696h-2.24896v-18.95737h1.32292zM-257.38653 203.19098q.76729 0 1.40229-.0661.64823-.0794 1.21708-.22489.56885-.14552 1.07156-.34396.50271-.21167 1.00542-.47625v-4.18041h-2.93687q-.25136 0-.41011-.14552-.14552-.14552-.14552-.35719v-1.4552h5.82083v7.27603q-.71438.51593-1.4949.89958-.76729.38365-1.65364.64823-.87312.25135-1.87854.37041-1.00542.1323-2.18281.1323-2.06375 0-3.78354-.70115-1.71979-.71437-2.96333-1.98437-1.24354-1.28323-1.94468-3.06916-.68792-1.78594-.68792-3.92906 0-2.16958.67469-3.95552.68792-1.78593 1.94468-3.05593 1.27-1.28323 3.05594-1.98437 1.79916-.70115 4.02166-.70115 1.12448 0 2.09021.17198.96572.15875 1.78593.47625.83344.30427 1.53458.75406.70115.43656 1.30969.99219l-.72761 1.16416q-.22489.35719-.58208.35719-.21166 0-.46302-.14552-.33073-.18521-.74083-.44979-.4101-.26458-1.00542-.50271-.58208-.25135-1.38906-.42333-.79375-.17198-1.89177-.17198-1.60072 0-2.89718.52916-1.29646.51594-2.20927 1.4949-.91281.96573-1.40229 2.35479-.48948 1.37583-.48948 3.09562 0 1.79916.50271 3.21468.51594 1.40229 1.44198 2.38125.92604.97896 2.19604 1.49489 1.27.51594 2.80458.51594zM-243.36694 205.05629h-2.56646v-18.95737h2.56646zM-236.97354 186.09892q.34396 0 .50271.0926.17198.0794.38364.34396l10.9802 14.28748q-.0397-.34396-.0529-.66146-.0132-.33072-.0132-.63499v-13.42759h2.24896v18.95737h-1.29646q-.30427 0-.51594-.10583-.19843-.10584-.39687-.35719l-10.96697-14.27425q.0265.33073.0397.64823.0132.31749.0132.58208v13.50696h-2.24896v-18.95737h1.32292zM-206.61635 186.09892v2.0902h-9.10166v6.29708h7.36864v2.01083h-7.36864v6.46905h9.10166v2.09021h-11.68134v-18.95737zM-191.26848 186.09892v2.0902h-9.10166v6.29708h7.36864v2.01083h-7.36864v6.46905h9.10166v2.09021h-11.68134v-18.95737zM-184.78413 197.14526v7.91103h-2.55322v-18.95737h5.3578q1.79917 0 3.10885.37041 1.30969.35719 2.15635 1.04511.8599.68791 1.27 1.66687.41011.96573.41011 2.16958 0 1.00542-.3175 1.87854-.3175.87312-.92604 1.57427-.59532.68791-1.46844 1.17739-.85989.48948-1.95791.74084.47625.27781.84666.80697l5.52979 7.52739h-2.27542q-.70114 0-1.03187-.5424l-4.92125-6.77332q-.22489-.3175-.48947-.44979-.26459-.14552-.79375-.14552zm0-1.86531h2.68552q1.12448 0 1.97114-.26459.8599-.27781 1.42875-.76729.58208-.5027.87313-1.19062.29104-.68792.29104-1.52135 0-1.69333-1.12448-2.55323-1.11125-.85989-3.32052-.85989h-2.80458zM-167.50602 205.05629h-2.56646v-18.95737h2.56646zM-161.11262 186.09892q.34395 0 .5027.0926.17198.0794.38365.34396l10.98019 14.28748q-.0397-.34396-.0529-.66146-.0132-.33072-.0132-.63499v-13.42759h2.24895v18.95737h-1.29645q-.30427 0-.51594-.10583-.19844-.10584-.39688-.35719l-10.96696-14.27425q.0265.33073.0397.64823.0132.31749.0132.58208v13.50696h-2.24896v-18.95737h1.32292zM-133.98336 203.19098q.76729 0 1.40229-.0661.64822-.0794 1.21708-.22489.56885-.14552 1.07156-.34396.50271-.21167 1.00541-.47625v-4.18041h-2.93687q-.25135 0-.4101-.14552-.14552-.14552-.14552-.35719v-1.4552h5.82082v7.27603q-.71437.51593-1.49489.89958-.76729.38365-1.65364.64823-.87313.25135-1.87854.37041-1.00542.1323-2.18281.1323-2.06375 0-3.78354-.70115-1.71979-.71437-2.96333-1.98437-1.24354-1.28323-1.94468-3.06916-.68792-1.78594-.68792-3.92906 0-2.16958.67469-3.95552.68791-1.78593 1.94468-3.05593 1.27-1.28323 3.05594-1.98437 1.79916-.70115 4.02166-.70115 1.12448 0 2.0902.17198.96573.15875 1.78594.47625.83343.30427 1.53458.75406.70114.43656 1.30969.99219l-.72761 1.16416q-.22489.35719-.58208.35719-.21167 0-.46302-.14552-.33073-.18521-.74083-.44979-.41011-.26458-1.00542-.50271-.58208-.25135-1.38906-.42333-.79375-.17198-1.89177-.17198-1.60072 0-2.89718.52916-1.29646.51594-2.20927 1.4949-.91281.96573-1.40229 2.35479-.48948 1.37583-.48948 3.09562 0 1.79916.50271 3.21468.51594 1.40229 1.44198 2.38125.92604.97896 2.19604 1.49489 1.26999.51594 2.80458.51594z" style="font-size:26.4583px;text-align:start;text-anchor:start" transform="translate(557.0021 -173.09568)"/><path d="M-377.09383 224.44946q-.17754.35507-.41963.50032-.22596.14526-.54875.14526-.32279 0-.72628-.24209-.40349-.25824-.95224-.56489-.54874-.30665-1.29116-.54875-.72629-.25823-1.72694-.25823-.90382 0-1.58168.22595-.66173.20982-1.12978.59717-.4519.38735-.67786.9361-.22595.5326-.22595 1.17819 0 .82312.45191 1.37186.46804.54875 1.22661.9361.75856.38735 1.72693.694.96838.30665 1.96903.66173 1.0168.33893 1.98518.80698.96837.4519 1.72693 1.16205.75856.694 1.21047 1.71079.46805 1.0168.46805 2.46936 0 1.58168-.54875 2.96969-.5326 1.37187-1.58168 2.4048-1.03293 1.0168-2.53391 1.61396-1.50099.58103-3.43774.58103-1.11363 0-2.19498-.22596-1.08136-.20981-2.08201-.6133-.98452-.40349-1.85606-.96838-.8554-.56488-1.53326-1.25889l1.25889-2.08201q.17754-.22595.41963-.37121.25823-.16139.56489-.16139.40349 0 .87153.33893.46805.32279 1.0975.72628.64558.40349 1.50098.74242.87154.32279 2.08201.32279 1.85605 0 2.87285-.87153 1.01679-.88768 1.01679-2.53392 0-.91996-.46805-1.50098-.45191-.58103-1.21047-.96838-.75856-.40349-1.72693-.67786-.96838-.27438-1.96904-.59717-1.00065-.32279-1.96903-.7747-.96837-.45191-1.72693-1.17819-.75856-.72628-1.22661-1.80764-.45191-1.09749-.45191-2.69531 0-1.27503.50033-2.4855.51646-1.21047 1.48484-2.14656.98451-.9361 2.4048-1.50099 1.42028-.56488 3.24406-.56488 2.06587 0 3.80894.64558 1.74308.64558 2.96969 1.80764zM-349.87894 231.87367q0 2.5662-.85539 4.76118-.8554 2.17885-2.4048 3.77667-1.54941 1.59782-3.72825 2.50164-2.17885.88768-4.82574.88768-2.6469 0-4.84188-.88768-2.17885-.90382-3.74439-2.50164-1.5494-1.59782-2.4048-3.77667-.8554-2.19498-.8554-4.76118 0-2.56619.8554-4.74504.8554-2.19499 2.4048-3.79281 1.56554-1.59782 3.74439-2.4855 2.19498-.90381 4.84188-.90381 2.64689 0 4.82574.90381 2.17884.90382 3.72825 2.50164 1.5494 1.58168 2.4048 3.77667.85539 2.17885.85539 4.74504zm-4.45452 0q0-1.92061-.51647-3.43773-.50033-1.53327-1.45257-2.59848-.95223-1.06521-2.3241-1.6301-1.35573-.56488-3.06652-.56488-1.7108 0-3.08267.56488-1.37186.56489-2.34024 1.6301-.95224 1.06521-1.4687 2.59848-.51647 1.51712-.51647 3.43773 0 1.92061.51647 3.45388.51646 1.51712 1.4687 2.58233.96838 1.04908 2.34024 1.61396 1.37187.56489 3.08267.56489 1.71079 0 3.06652-.56489 1.37187-.56488 2.3241-1.61396.95224-1.06521 1.45257-2.58233.51647-1.53327.51647-3.45388zM-331.75971 220.20474v3.45387h-10.34549v6.90775h8.73153v3.47002h-8.73153v9.50622h-4.37383v-23.33786zM-311.93877 220.20474v3.56685h-7.02072v19.77101h-4.34156v-19.77101h-7.053v-3.56685zM-311.31891 220.20474h3.64755q.56489 0 .9361.27437.38735.25824.51647.71015l3.97034 13.96075q.14526.51647.25823 1.12977.12912.59717.2421 1.27503.12911-.67786.27437-1.27503.1614-.6133.33893-1.12977l4.58365-13.96075q.12912-.37121.50033-.67787.38735-.30665.93609-.30665h1.27503q.56489 0 .9361.27437.37121.25824.51647.71015l4.55136 13.96075q.35507 1.03294.61331 2.29182.11298-.62944.22595-1.21047.12912-.58102.25824-1.08135l3.97034-13.96075q.11298-.40349.50033-.69401.38735-.29051.93609-.29051h3.40546l-7.24668 23.33786h-3.92193l-5.10011-15.94592q-.0968-.30666-.20981-.66173-.0968-.35507-.19368-.75856-.0968.40349-.20981.75856-.0968.35507-.19368.66173l-5.14853 15.94592h-3.92192zM-256.74183 243.5426h-3.35704q-.56489 0-.9361-.27437-.35507-.29051-.51647-.71014l-1.74307-4.76118h-9.66762l-1.74308 4.76118q-.12912.37121-.51647.67786-.37121.30665-.91995.30665h-3.37318l9.16729-23.33786h4.43839zm-15.10667-8.81222h7.44036l-2.84057-7.76315q-.19368-.51646-.43577-1.21047-.22596-.71014-.45191-1.53326-.22596.82312-.45191 1.53326-.20982.71015-.41963 1.24275zM-249.81997 234.42373v9.11887h-4.34155v-23.33786h7.11756q2.38866 0 4.08332.50033 1.7108.48419 2.79215 1.37186 1.09749.88768 1.59782 2.13043.51647 1.22661.51647 2.71145 0 1.1782-.35507 2.22727-.33894 1.04907-1.00066 1.90447-.64558.8554-1.61396 1.50098-.95224.64559-2.17885 1.03294.82312.46805 1.42029 1.33959l5.84254 8.61854h-3.90579q-.56488 0-.96837-.22595-.38735-.22596-.66173-.64559l-4.90644-7.47263q-.27437-.41963-.6133-.59717-.32279-.17753-.96838-.17753zm0-3.11494h2.71145q1.22661 0 2.13043-.30666.91996-.30665 1.50098-.83926.59717-.54874.88768-1.29116.29051-.74243.29051-1.6301 0-1.77536-1.17819-2.7276-1.16205-.95223-3.56685-.95223h-2.77601zM-218.46729 220.20474v3.45387h-10.34548v6.47198h8.1505v3.3409h-8.1505v6.6011h10.34548v3.47001h-14.71931v-23.33786zM-195.96464 224.44946q-.17753.35507-.41963.50032-.22595.14526-.54874.14526t-.72628-.24209q-.40349-.25824-.95224-.56489t-1.29117-.54875q-.72628-.25823-1.72694-.25823-.90381 0-1.58168.22595-.66172.20982-1.12977.59717-.45191.38735-.67786.9361-.22596.5326-.22596 1.17819 0 .82312.45191 1.37186.46805.54875 1.22661.9361.75856.38735 1.72694.694.96838.30665 1.96903.66173 1.0168.33893 1.98517.80698.96838.4519 1.72694 1.16205.75856.694 1.21047 1.71079.46805 1.0168.46805 2.46936 0 1.58168-.54875 2.96969-.53261 1.37187-1.58168 2.4048-1.03293 1.0168-2.53392 1.61396-1.50098.58103-3.43773.58103-1.11363 0-2.19499-.22596-1.08135-.20981-2.08201-.6133-.98451-.40349-1.85605-.96838-.8554-.56488-1.53326-1.25889l1.25889-2.08201q.17753-.22595.41963-.37121.25823-.16139.56488-.16139.40349 0 .87154.33893.46805.32279 1.09749.72628.64559.40349 1.50099.74242.87153.32279 2.082.32279 1.85606 0 2.87285-.87153 1.0168-.88768 1.0168-2.53392 0-.91996-.46805-1.50098-.45191-.58103-1.21047-.96838-.75856-.40349-1.72694-.67786-.96837-.27438-1.96903-.59717-1.00065-.32279-1.96903-.7747-.96838-.45191-1.72694-1.17819-.75856-.72628-1.22661-1.80764-.45191-1.09749-.45191-2.69531 0-1.27503.50033-2.4855.51647-1.21047 1.48484-2.14656.98452-.9361 2.40481-1.50099 1.42028-.56488 3.24406-.56488 2.06586 0 3.80894.64558 1.74308.64558 2.96969 1.80764zM-180.75762 234.47215v9.07045h-4.34155v-9.07045l-8.50557-14.26741h3.82509q.56488 0 .88768.27437.33893.27438.56488.69401l4.277 7.79542q.37121.69401.64558 1.32345.27437.61331.50033 1.21047.20981-.6133.46805-1.22661.27437-.62944.64558-1.30731l4.24472-7.79542q.17753-.35507.5326-.66173.35507-.30665.90382-.30665h3.84122zM-157.50699 224.44946q-.17754.35507-.41963.50032-.22596.14526-.54875.14526-.32279 0-.72628-.24209-.40349-.25824-.95224-.56489t-1.29117-.54875q-.72628-.25823-1.72693-.25823-.90382 0-1.58169.22595-.66172.20982-1.12977.59717-.45191.38735-.67786.9361-.22595.5326-.22595 1.17819 0 .82312.4519 1.37186.46805.54875 1.22661.9361.75856.38735 1.72694.694.96838.30665 1.96903.66173 1.0168.33893 1.98517.80698.96838.4519 1.72694 1.16205.75856.694 1.21047 1.71079.46805 1.0168.46805 2.46936 0 1.58168-.54875 2.96969-.5326 1.37187-1.58168 2.4048-1.03293 1.0168-2.53392 1.61396-1.50098.58103-3.43773.58103-1.11363 0-2.19499-.22596-1.08135-.20981-2.082-.6133-.98452-.40349-1.85606-.96838-.8554-.56488-1.53326-1.25889l1.25889-2.08201q.17753-.22595.41963-.37121.25823-.16139.56488-.16139.40349 0 .87154.33893.46805.32279 1.09749.72628.64559.40349 1.50099.74242.87154.32279 2.08201.32279 1.85605 0 2.87284-.87153 1.0168-.88768 1.0168-2.53392 0-.91996-.46805-1.50098-.45191-.58103-1.21047-.96838-.75856-.40349-1.72694-.67786-.96837-.27438-1.96903-.59717-1.00065-.32279-1.96903-.7747-.96837-.45191-1.72694-1.17819-.75856-.72628-1.22661-1.80764-.4519-1.09749-.4519-2.69531 0-1.27503.50032-2.4855.51647-1.21047 1.48485-2.14656.98451-.9361 2.4048-1.50099 1.42028-.56488 3.24406-.56488 2.06587 0 3.80894.64558 1.74308.64558 2.96969 1.80764zM-136.23148 220.20474v3.56685h-7.02073v19.77101h-4.34155v-19.77101h-7.05301v-3.56685zM-118.7296 220.20474v3.45387h-10.34548v6.47198h8.15049v3.3409h-8.15049v6.6011h10.34548v3.47001h-14.71932v-23.33786zM-103.25928 233.85884q.27438.51647.50033 1.08136.2421.54874.46805 1.11363.22595-.58103.46805-1.14591.24209-.56489.51647-1.08136l6.907745-12.92782q.129117-.24209.258233-.38735.145257-.14525.306653-.20981.177535-.0646.38735-.0807.209815-.0161.500328-.0161h3.276339v23.33786h-3.825085v-15.07438q0-.41963.01614-.91996.03228-.50033.0807-1.0168l-7.053013 13.23448q-.24209.45191-.62944.71014-.38735.24209-.90382.24209h-.59716q-.51647 0-.90382-.24209-.38735-.25823-.62944-.71014l-7.14985-13.2829q.0646.53261.0807 1.04908.0323.50033.0323.9361v15.07438h-3.82509v-23.33786h3.27634q.29052 0 .50033.0161.20982.0161.37121.0807.17754.0646.32279.20981.14526.14526.27438.38735l6.9723 12.9601zM-72.458884 224.44946q-.177535.35507-.419629.50032-.225955.14526-.548747.14526-.322792 0-.726282-.24209-.40349-.25824-.952236-.56489t-1.291168-.54875q-.726282-.25823-1.726937-.25823-.903818 0-1.581681.22595-.661724.20982-1.129772.59717-.451909.38735-.677864.9361-.225954.5326-.225954 1.17819 0 .82312.451909 1.37186.468048.54875 1.22661.9361.758561.38735 1.726937.694.968376.30665 1.969031.66173 1.016795.33893 1.985171.80698.968376.4519 1.726937 1.16205.758562.694 1.21047 1.71079.468049 1.0168.468049 2.46936 0 1.58168-.548747 2.96969-.532606 1.37187-1.581681 2.4048-1.032934 1.0168-2.533917 1.61396-1.500983.58103-3.437735.58103-1.113632 0-2.194986-.22596-1.081353-.20981-2.082008-.6133-.984516-.40349-1.856054-.96838-.855399-.56488-1.533262-1.25889l1.258889-2.08201q.177535-.22595.419629-.37121.258234-.16139.564886-.16139.40349 0 .871539.33893.468048.32279 1.097493.72628.645584.40349 1.500982.74242.871539.32279 2.082009.32279 1.856054 0 2.872849-.87153 1.016795-.88768 1.016795-2.53392 0-.91996-.468049-1.50098-.451908-.58103-1.21047-.96838-.758561-.40349-1.726937-.67786-.968376-.27438-1.969031-.59717-1.000656-.32279-1.969032-.7747-.968376-.45191-1.726937-1.17819-.758561-.72628-1.22661-1.80764-.451908-1.09749-.451908-2.69531 0-1.27503.500327-2.4855.516468-1.21047 1.484844-2.14656.984515-.9361 2.4048-1.50099 1.420285-.56488 3.24406-.56488 2.065869 0 3.808946.64558 1.743076.64558 2.969686 1.80764z" style="font-weight:700;font-size:32.2792px;-inkscape-font-specification:'Lato Bold';text-align:start;text-anchor:start" transform="translate(557.0021 -173.09568)"/></g><g style="display:inline"><path style="display:inline;fill:#fff;fill-opacity:1;stroke:none;stroke-width:2;stroke-miterlimit:4;stroke-dasharray:none;stroke-opacity:1;stop-color:#000" d="M928.86914-425.63086c-146.89103 0-265.96871 70.99858-265.96875 158.58008 0 87.58188 119.07772 158.58203 265.96875 158.58203 146.89106 0 265.97066-71.00015 265.97066-158.58203 0-87.5815-119.0796-158.58008-265.97066-158.58008zm99.64256 60.57813c90.7787 0 164.3692 43.87646 164.3692 98.00195 0 54.12549-73.5905 98.0039-164.3692 98.0039-90.77862.00001-164.36912-43.87841-164.36912-98.0039.00004-54.12549 73.5905-98.00195 164.36912-98.00195z" transform="translate(-174.51649 112.05243) scale(.26326)"/><path style="display:inline;fill:#fff;fill-opacity:1;stroke:none;stroke-width:2;stroke-miterlimit:4;stroke-dasharray:none;stroke-opacity:1;stop-color:#000" d="M1089.3418-327.61523c-56.1012 0-101.58004 27.11487-101.58008 60.56445 0 33.44958 45.47888 60.56641 101.58008 60.5664 56.1012 0 101.5801-27.11682 101.5801-60.5664s-45.4789-60.56445-101.5801-60.56445zm35.8047 23.13476c34.6705 0 62.7754 16.75794 62.7754 37.42969 0 20.67213-28.1049 37.42969-62.7754 37.42969-34.6706 0-62.7774-16.75756-62.7774-37.42969.0001-20.67175 28.1068-37.42969 62.7774-37.42969z" transform="translate(-174.51649 112.05243) scale(.26326)"/><path style="display:inline;fill:#fff;fill-opacity:1;stroke:none;stroke-width:.529;stroke-miterlimit:4;stroke-dasharray:none;stroke-opacity:1;stop-color:#000" d="M313.51078-70.6571c0-3.3801-4.59568-6.1201-10.26474-6.1201-5.66907 0-10.26475 2.74-10.26477 6.1201 0 3.3802 4.59569 6.1203 10.26477 6.1203 5.66906 0 10.26474-2.7401 10.26474-6.1203z" transform="matrix(.995 0 0 .995 -174.51649 112.05243)"/></g></g></svg>