<svg width="832" height="520" viewBox="0 0 220.13328 137.5833" xmlns="http://www.w3.org/2000/svg"><defs><filter style="color-interpolation-filters:sRGB" id="a" x="-.05642297" y="-.03515585" width="1.1128459" height="1.0703117"><feGaussianBlur stdDeviation="1.1384116"/></filter></defs><g aria-label="SOFTWARESYSTEME" style="font-size:5.64444px;line-height:1.25;font-family:Lato;-inkscape-font-specification:'Lato, Normal';letter-spacing:0;display:inline;fill:#fff;fill-opacity:1;stroke-width:.264583"><path d="M120.56912 277.98838q-.0272.0543-.0642.0765-.0346.0222-.084.0222-.0494 0-.11112-.037-.0617-.0395-.1457-.0864-.084-.0469-.19755-.084-.11113-.0395-.26423-.0395-.13829 0-.24201.0346-.10125.0321-.17286.0914-.0692.0593-.10372.14323-.0346.0815-.0346.18027 0 .12594.0691.2099.0716.084.18768.14323.11607.0593.26423.10618.14817.0469.30127.10125.15558.0519.30375.12347.14816.0691.26423.1778.11606.10619.18521.26177.0716.15557.0716.37782 0 .24201-.084.45438-.0815.2099-.24201.36795-.15804.15557-.3877.24694-.22966.0889-.52599.0889-.17039 0-.33585-.0346-.16545-.0321-.31855-.0938-.15064-.0617-.28399-.14817-.13088-.0864-.2346-.19261l.19262-.31856q.0272-.0346.0642-.0568.0395-.0247.0864-.0247.0617 0 .13335.0519.0716.0494.16793.11113.0988.0617.22966.11359.13335.0494.31855.0494.28399 0 .43956-.13335.15558-.13582.15558-.3877 0-.14076-.0716-.22966-.0692-.0889-.18521-.14817-.11607-.0617-.26423-.10371-.14817-.042-.30128-.0914-.1531-.0494-.30127-.11854-.14816-.0691-.26423-.18026-.11606-.11113-.18768-.27658-.0691-.16792-.0691-.4124 0-.19509.0766-.38029.079-.18521.22719-.32844.15064-.14323.36795-.22966.21731-.0864.49636-.0864.31609 0 .58279.0988.2667.0988.45437.27658zM124.73314 279.12432q0 .39264-.13088.72849-.13088.33337-.36794.57785-.23707.24447-.57044.38276-.33338.13582-.73837.13582-.40499 0-.74083-.13582-.33338-.13829-.57291-.38276-.23707-.24448-.36795-.57785-.13088-.33585-.13088-.72849t.13088-.72602q.13088-.33584.36795-.58032.23953-.24447.57291-.38029.33584-.13829.74083-.13829.40499 0 .73837.13829.33337.13829.57044.38276.23706.24201.36794.57785.13088.33338.13088.72602zm-.68156 0q0-.29386-.079-.52599-.0766-.2346-.22225-.39758-.1457-.16299-.3556-.24942-.20744-.0864-.4692-.0864t-.47166.0864q-.20991.0864-.35807.24942-.1457.16298-.22472.39758-.079.23213-.079.52599 0 .29386.079.52846.079.23213.22472.39511.14816.16052.35807.24695.2099.0864.47166.0864t.4692-.0864q.2099-.0864.3556-.24695.14569-.16298.22225-.39511.079-.2346.079-.52846zM127.50548 277.33891v.52846h-1.58291v1.05693h1.33597v.53093h-1.33597v1.4545h-.66922v-3.57082zM130.53819 277.33891v.54575h-1.07421v3.02507h-.66428v-3.02507h-1.07914v-.54575zM130.63303 277.33891h.5581q.0864 0 .14323.042.0593.0395.079.10866l.60748 2.13607q.0222.079.0395.17286.0198.0914.037.19508.0197-.10371.042-.19508.0247-.0938.0519-.17286l.70133-2.13607q.0197-.0568.0765-.10372.0593-.0469.14323-.0469h.19508q.0864 0 .14323.042.0568.0395.079.10866l.69639 2.13607q.0543.15804.0938.35066.0173-.0963.0346-.18521.0197-.0889.0395-.16545l.60748-2.13607q.0173-.0617.0766-.10619.0593-.0444.14322-.0444h.52106l-1.10878 3.57082h-.60008l-.78034-2.43981q-.0148-.0469-.0321-.10125-.0148-.0543-.0296-.11606-.0148.0617-.0321.11606-.0148.0543-.0296.10125l-.78775 2.43981h-.60007zM138.98362 280.90973h-.51365q-.0864 0-.14323-.042-.0543-.0444-.079-.10866l-.2667-.72848h-1.4792l-.2667.72848q-.0197.0568-.079.10372-.0568.0469-.14076.0469h-.51611l1.40264-3.57082h.6791zm-2.3114-1.34832h1.13841l-.43462-1.1878q-.0296-.079-.0667-.18521-.0346-.10865-.0691-.2346-.0346.12595-.0692.2346-.0321.10866-.0642.19015zM140.0427 279.51449v1.39524h-.66428v-3.57082h1.08902q.36548 0 .62477.0765.26177.0741.42722.20991.16792.13582.24447.32596.079.18768.079.41487 0 .18027-.0543.34078-.0519.16052-.15311.2914-.0988.13088-.24694.22966-.1457.0988-.33338.15804.12594.0716.21731.20497l.89394 1.31868h-.5976q-.0864 0-.14817-.0346-.0593-.0346-.10125-.0988l-.75071-1.14335q-.042-.0642-.0938-.0914-.0494-.0272-.14816-.0272zm0-.4766h.41487q.18767 0 .32596-.0469.14076-.0469.22966-.12841.0914-.084.13582-.19756.0444-.11359.0444-.24941 0-.27164-.18027-.41734-.1778-.14569-.54575-.14569h-.42474zM144.83983 277.33891v.52846h-1.58292v.99025h1.24707v.51118h-1.24707v1.01h1.58292v.53093h-2.25214v-3.57082zM147.32787 277.98838q-.0272.0543-.0642.0765-.0346.0222-.084.0222-.0494 0-.11112-.037-.0617-.0395-.1457-.0864-.084-.0469-.19755-.084-.11113-.0395-.26423-.0395-.13829 0-.24201.0346-.10125.0321-.17286.0914-.0692.0593-.10372.14323-.0346.0815-.0346.18027 0 .12594.0691.2099.0716.084.18768.14323.11607.0593.26423.10618.14817.0469.30128.10125.15557.0519.30374.12347.14816.0691.26423.1778.11606.10619.18521.26177.0716.15557.0716.37782 0 .24201-.084.45438-.0815.2099-.24201.36795-.15804.15557-.3877.24694-.22966.0889-.52599.0889-.17039 0-.33585-.0346-.16545-.0321-.31855-.0938-.15064-.0617-.28399-.14817-.13088-.0864-.2346-.19261l.19262-.31856q.0272-.0346.0642-.0568.0395-.0247.0864-.0247.0617 0 .13335.0519.0716.0494.16792.11113.0988.0617.22966.11359.13335.0494.31855.0494.28399 0 .43957-.13335.15557-.13582.15557-.3877 0-.14076-.0716-.22966-.0691-.0889-.18521-.14817-.11607-.0617-.26423-.10371-.14817-.042-.30127-.0914-.15311-.0494-.30128-.11854-.14816-.0691-.26423-.18026-.11606-.11113-.18768-.27658-.0691-.16792-.0691-.4124 0-.19509.0765-.38029.079-.18521.22719-.32844.15064-.14323.36795-.22966.21731-.0864.49636-.0864.31609 0 .58279.0988.2667.0988.45437.27658zM149.65463 279.5219v1.38783h-.66428v-1.38783l-1.3014-2.18299h.58526q.0864 0 .13582.042.0519.042.0864.10619l.6544 1.19274q.0568.10619.0988.20249.042.0938.0765.18521.0321-.0938.0716-.18767.042-.0963.0988-.20003l.64946-1.19274q.0272-.0543.0815-.10125.0543-.0469.13829-.0469h.58773zM153.2121 277.98838q-.0272.0543-.0642.0765-.0346.0222-.084.0222-.0494 0-.11113-.037-.0617-.0395-.14569-.0864-.084-.0469-.19756-.084-.11112-.0395-.26423-.0395-.13829 0-.24201.0346-.10124.0321-.17286.0914-.0691.0593-.10371.14323-.0346.0815-.0346.18027 0 .12594.0692.2099.0716.084.18768.14323.11606.0593.26423.10618.14816.0469.30127.10125.15557.0519.30374.12347.14817.0691.26423.1778.11607.10619.18521.26177.0716.15557.0716.37782 0 .24201-.084.45438-.0815.2099-.242.36795-.15805.15557-.38771.24694-.22965.0889-.52599.0889-.17039 0-.33584-.0346-.16545-.0321-.31856-.0938-.15064-.0617-.28399-.14817-.13088-.0864-.23459-.19261l.19261-.31856q.0272-.0346.0642-.0568.0395-.0247.0864-.0247.0617 0 .13335.0519.0716.0494.16792.11113.0988.0617.22966.11359.13335.0494.31856.0494.28398 0 .43956-.13335.15557-.13582.15557-.3877 0-.14076-.0716-.22966-.0691-.0889-.18521-.14817-.11606-.0617-.26423-.10371-.14816-.042-.30127-.0914-.15311-.0494-.30127-.11854-.14817-.0691-.26423-.18026-.11607-.11113-.18768-.27658-.0692-.16792-.0692-.4124 0-.19509.0766-.38029.079-.18521.22719-.32844.15063-.14323.36794-.22966.21731-.0864.49636-.0864.31609 0 .58279.0988.2667.0988.45438.27658zM156.46737 277.33891v.54575h-1.07421v3.02507h-.66428v-3.02507h-1.07915v-.54575zM159.14525 277.33891v.52846h-1.58292v.99025h1.24707v.51118h-1.24707v1.01h1.58292v.53093h-2.25214v-3.57082zM161.51229 279.42806q.042.079.0765.16545.037.084.0716.1704.0346-.0889.0716-.17533.037-.0864.079-.16546l1.05692-1.97802q.0198-.037.0395-.0593.0222-.0222.0469-.0321.0272-.01.0593-.0123.0321-.002.0765-.002h.5013v3.57082h-.58526v-2.30646q0-.0642.002-.14076.005-.0765.0123-.15558l-1.07915 2.02495q-.037.0691-.0963.10865-.0593.037-.13829.037h-.0914q-.079 0-.13829-.037-.0593-.0395-.0963-.10865l-1.09397-2.03235q.01.0815.0123.16051.005.0765.005.14323v2.30646h-.58526v-3.57082h.5013q.0445 0 .0766.002.0321.002.0568.0123.0272.01.0494.0321.0222.0222.042.0593l1.0668 1.98296zM166.56323 277.33891v.52846h-1.58292v.99025h1.24707v.51118h-1.24707v1.01h1.58292v.53093h-2.25214v-3.57082z" style="font-size:4.93889px;text-align:start;text-anchor:start;fill:#fff;fill-opacity:1" transform="matrix(3.8208 0 0 3.8208 -434.2962 -943.82198)"/></g><path style="display:inline;fill:#fff;fill-opacity:1;stroke:snow;stroke-width:1.07419;stroke-linecap:butt;stroke-linejoin:miter;stroke-miterlimit:4;stroke-dasharray:none;stroke-opacity:1" d="m11.726069 84.205861 196.681141.09673"/><path d="M24.044421 64.80508q-.533229 1.199774-1.42195 2.088494-.844286.888719-1.866316 1.46639-1.022028.622107-2.13293.933157-1.066466.311044-2.044059.311044h-5.687813L41.19674 4.816403q1.02203-2.221804 2.977213-3.37714Q46.12914.283928 48.484252.283928h5.59894z" style="font-style:italic;font-weight:900;font-size:22.5778px;line-height:1.25;font-family:Lato;-inkscape-font-specification:'Lato Heavy Italic';font-variation-settings:normal;letter-spacing:0;mix-blend-mode:normal;vector-effect:none;fill:#fff;fill-opacity:1;stroke:none;stroke-width:.4956;stroke-linecap:butt;stroke-linejoin:miter;stroke-miterlimit:4;stroke-dasharray:none;stroke-dashoffset:0;stroke-opacity:.201422;-inkscape-stroke:none;stop-color:#000" transform="translate(16.230643 7.9531614)"/><path d="M49.532111 64.80508q-.533232 1.199774-1.421954 2.088494-.844284.888719-1.866317 1.46639-1.022028.622107-2.132927.933157-1.066466.311044-2.044061.311044h-5.687814L66.684423 4.816403q1.022029-2.221804 2.977214-3.37714Q71.616826.283928 73.971928.283928h5.598939z" style="font-style:italic;font-weight:900;font-size:22.5778px;line-height:1.25;font-family:Lato;-inkscape-font-specification:'Lato Heavy Italic';font-variation-settings:normal;letter-spacing:0;vector-effect:none;fill:#fff;fill-opacity:1;stroke:none;stroke-width:.4956;stroke-linecap:butt;stroke-linejoin:miter;stroke-miterlimit:4;stroke-dasharray:none;stroke-dashoffset:0;stroke-opacity:.201422;-inkscape-stroke:none;stop-color:#000" transform="translate(16.230643 7.9531614)"/><g style="fill:#fff;fill-opacity:1"><path d="M38.070402-3.2235325q-.711687 5.7883806-2.609525 10.4855244-1.897842 4.6971441-5.029272 8.0658401-3.131431 3.368654-7.496458 5.219057-4.317582 1.802912-9.916201 1.802912-2.514635 0-4.9343778-.284535-2.3722969-.284536-4.9343793-.948928l1.1387042-8.872373q.1423517-1.186138.8540261-1.945305.6642449-.8065756 2.1825159-.8065756 1.1386998 0 2.5620772.2845353 1.4233777.2370423 3.1314337.2370423 3.843121 0 6.310306-2.9890911 2.46719-3.036542 3.273774-9.8687511l5.408835-44.6941038h15.46738zM92.628942-35.629117H67.055579l-2.087623 16.70096h19.595176L83.044861-7.4462546H63.544578L61.456959 9.6817606h25.763144L85.701836 21.590676H44.423862l8.540269-69.12875h41.183082z" style="font-style:italic;font-weight:900;font-size:22.5778px;line-height:1.25;font-family:Lato;-inkscape-font-specification:'Lato Heavy Italic';font-variation-settings:normal;letter-spacing:0;opacity:1;vector-effect:none;fill:#fff;fill-opacity:1;stroke:none;stroke-width:.4956;stroke-linecap:butt;stroke-linejoin:miter;stroke-miterlimit:4;stroke-dasharray:none;stroke-dashoffset:0;stroke-opacity:.201422;-inkscape-stroke:none;stop-color:#000;stop-opacity:1" transform="translate(98.86407 55.4914454)"/></g><g aria-label="INGENIEURBÜRO" style="font-size:4.23333px;line-height:1.25;font-family:Lato;-inkscape-font-specification:'Lato, Normal';letter-spacing:0;display:inline;fill:#fff;fill-opacity:1;stroke-width:.264583"><path d="M110.68232 274.04993h-.4517v-3.3365h.4517zM111.80755 270.71343q.0605 0 .0884.0163.0303.014.0675.0605l1.93251 2.51459q-.007-.0605-.009-.11641-.002-.0582-.002-.11176v-2.36325h.39581v3.3365h-.22818q-.0536 0-.0907-.0186-.035-.0186-.0699-.0628l-1.9302-2.51227q.004.0582.007.11409.002.0559.002.10241v2.37723h-.39581v-3.3365h.23283zM116.58231 273.72164q.13505 0 .24681-.0117.11408-.014.2142-.0396.1001-.0256.1886-.0605.0884-.0373.17695-.0838v-.73576h-.51689q-.0442 0-.0722-.0256-.0256-.0256-.0256-.0628v-.25613h1.02447v1.28059q-.12573.0908-.2631.15833-.13505.0675-.29105.11409-.15367.0442-.33062.0652-.17695.0233-.38417.0233-.36322 0-.66591-.1234-.30269-.12573-.52154-.34925-.21887-.22585-.34227-.54018-.12107-.31432-.12107-.69151 0-.38185.11874-.69617.12108-.31433.34227-.53785.22352-.22585.53784-.34925.31666-.12339.70782-.12339.1979 0 .36787.0303.16997.0279.31433.0838.14668.0536.27008.1327.12341.0768.2305.17462l-.12805.2049q-.0396.0629-.10241.0629-.0373 0-.0815-.0256-.0582-.0326-.13038-.0792-.0722-.0465-.17696-.0884-.10241-.0442-.24447-.0745-.1397-.0302-.33295-.0302-.28173 0-.50991.0932-.22818.0909-.38883.26311-.16066.16996-.2468.41444-.0861.24215-.0861.54483 0 .31665.0884.56578.0907.24681.25379.4191.16299.17231.38651.26311.22352.0909.4936.0909zM120.57016 270.71343v.36788h-1.60189v1.10828h1.29687v.3539h-1.29687v1.13856h1.60189v.36788h-2.05592v-3.3365zM121.4483 270.71343q.0605 0 .0884.0163.0303.014.0675.0605l1.93252 2.51459q-.007-.0605-.009-.11641-.002-.0582-.002-.11176v-2.36325h.39581v3.3365h-.22817q-.0536 0-.0907-.0186-.035-.0186-.0699-.0628l-1.9302-2.51227q.004.0582.007.11409.002.0559.002.10241v2.37723h-.39582v-3.3365h.23284zM125.27077 274.04993h-.45169v-3.3365h.45169zM128.21909 270.71343v.36788h-1.60189v1.10828h1.29688v.3539h-1.29688v1.13856h1.60189v.36788h-2.05591v-3.3365zM130.16128 273.69136q.20722 0 .37021-.0698.16298-.0698.27475-.19558.11408-.12573.17229-.30035.0605-.17463.0605-.38418v-2.02797h.44937v2.02797q0 .28872-.0932.53552-.0907.2468-.2631.42841-.16997.17928-.41677.28174-.2468.10241-.55414.10241-.30734 0-.55415-.10241-.2468-.10241-.4191-.28174-.17229-.18161-.26543-.42841-.0907-.2468-.0907-.53552v-2.02797h.44936v2.02564q0 .20955.0582.38418.0605.17462.17229.30035.1141.12573.27707.19791.16532.0698.37254.0698zM132.76188 272.65758v1.39235h-.44936v-3.3365h.94297q.31665 0 .54716.0652.2305.0629.37952.18394.15134.12107.22352.29337.0722.16997.0722.38185 0 .17695-.0559.33062-.0559.15367-.16299.27707-.10472.12108-.25844.20722-.15134.0861-.3446.13039.0838.0488.14902.14203l.97324 1.32482h-.40047q-.1234 0-.18161-.0955l-.86614-1.1921q-.0396-.0559-.0861-.0792-.0465-.0256-.1397-.0256zm0-.32829h.47266q.1979 0 .34692-.0465.15134-.0488.25146-.13505.10241-.0884.15367-.20955.0513-.12108.0513-.26776 0-.29802-.19791-.44936-.19558-.15135-.58441-.15135h-.49362zM135.26732 274.04993v-3.3365h1.06404q.30734 0 .52854.0605.22352.0605.36554.1723.14436.11176.21188.27474.0699.16066.0699.36322 0 .1234-.0396.23749-.0373.11408-.11642.21187-.0769.0978-.19558.17463-.11642.0768-.27474.12573.36554.0722.55182.26311.18626.19091.18626.50292 0 .21187-.0792.38649-.0769.17463-.22817.30036-.14902.12573-.36788.19558-.21653.0675-.49593.0675zm.45169-1.52041v1.16184h.72179q.19325 0 .33061-.0442.1397-.0442.22819-.12339.0909-.0815.13271-.19093.0419-.11176.0419-.24448 0-.25844-.18394-.40745-.18161-.15135-.55181-.15135zm0-.32131h.59606q.19091 0 .33061-.0419.1397-.0419.23051-.11641.0932-.0745.13738-.17928.0442-.10714.0442-.23284 0-.29337-.17695-.43073-.17696-.13738-.54949-.13738h-.61233ZM139.57465 273.69136q.20722 0 .37021-.0698t.27475-.19558q.11408-.12573.17229-.30035.0605-.17463.0605-.38418v-2.02797h.44937v2.02797q0 .28872-.0932.53552-.0908.2468-.2631.42841-.16997.17928-.41677.28174-.2468.10241-.55414.10241-.30734 0-.55415-.10241-.24679-.10241-.4191-.28174-.17229-.18161-.26543-.42841-.0909-.2468-.0909-.53552v-2.02797h.44937v2.02564q0 .20955.0582.38418.0605.17462.1723.30035.11409.12573.27706.19791.16532.0698.37254.0698zm-.23982-3.52044q0 .0513-.0209.0978-.0209.0442-.0559.0792-.035.0349-.0838.0559-.0465.0186-.1001.0186-.0489 0-.0955-.0186-.0442-.0209-.0792-.0559-.035-.0349-.0559-.0792-.0209-.0465-.0209-.0978 0-.0536.0209-.1001.0209-.0488.0559-.0838.0349-.0349.0792-.0559.0465-.0209.0955-.0209.0536 0 .1001.0209.0488.021.0838.0559.0349.0349.0559.0838.0209.0465.0209.1001zm.99187 0q0 .0513-.0209.0978-.0209.0442-.0559.0792-.0349.0349-.0815.0559-.0465.0186-.0978.0186-.0536 0-.1001-.0186-.0465-.0209-.0815-.0559-.0349-.0349-.0559-.0792-.0186-.0465-.0186-.0978 0-.0536.0186-.1001.0209-.0488.0559-.0838.035-.0349.0815-.0559.0465-.0209.1001-.0209.0513 0 .0978.0209.0465.021.0815.0559t.0559.0838q.0209.0465.0209.1001zM142.17525 272.65758v1.39235h-.44936v-3.3365h.94298q.31664 0 .54715.0652.2305.0629.37952.18394.15134.12107.22352.29337.0722.16997.0722.38185 0 .17695-.0559.33062-.0559.15367-.16299.27707-.10483.12108-.25844.20722-.15134.0861-.3446.13039.0838.0488.14902.14203l.97324 1.32482h-.40047q-.1234 0-.18161-.0955l-.86614-1.1921q-.0396-.0559-.0861-.0792-.0465-.0256-.1397-.0256zm0-.32829h.47266q.1979 0 .34692-.0465.15134-.0488.25146-.13505.10241-.0884.15367-.20955.0513-.12108.0513-.26776 0-.29802-.19791-.44936-.19558-.15135-.58441-.15135h-.49362zM147.67055 272.38284q0 .37487-.11874.68919-.11875.31199-.33528.53785-.21653.22584-.52154.35157-.30269.12341-.67056.12341-.36789 0-.67056-.12341-.30269-.12573-.51922-.35157-.21654-.22586-.33529-.53785-.11874-.31432-.11874-.68919 0-.37486.11874-.68685.11875-.31433.33529-.54018.21653-.22817.51922-.3539.30267-.12573.67056-.12573.36787 0 .67056.12573.30501.12573.52154.3539.21653.22585.33528.54018.11874.31199.11874.68685zm-.46334 0q0-.30734-.0838-.55182-.0838-.24447-.23749-.41211-.15367-.16996-.37252-.26077-.21887-.0909-.48895-.0909-.26777 0-.48663.0909-.21886.0908-.37486.26077-.15367.16764-.23749.41211-.0838.24448-.0838.55182 0 .30734.0838.55181.0838.24216.23749.41212.156.16764.37486.25844.21886.0884.48663.0884.27008 0 .48895-.0884.21885-.0909.37252-.25844.15367-.16996.23749-.41212.0838-.24447.0838-.55181z" style="-inkscape-font-specification:Lato;fill:#fff;fill-opacity:1;stroke-width:.291041" transform="matrix(3.47346 0 0 3.47346 -337.83784 -844.10238)"/></g></svg>