<?xml version="1.0" encoding="UTF-8" standalone="no"?>
<!-- Created with Inkscape (http://www.inkscape.org/) -->

<svg
   width="785.96692"
   height="467.67093"
   viewBox="0 0 207.95372 123.73791"
   version="1.1"
   id="svg168634"
   sodipodi:docname="logo-plus-en.svg"
   inkscape:version="1.1 (c4e8f9e, 2021-05-24)"
   xmlns:inkscape="http://www.inkscape.org/namespaces/inkscape"
   xmlns:sodipodi="http://sodipodi.sourceforge.net/DTD/sodipodi-0.dtd"
   xmlns:xlink="http://www.w3.org/1999/xlink"
   xmlns="http://www.w3.org/2000/svg"
   xmlns:svg="http://www.w3.org/2000/svg">
  <sodipodi:namedview
     id="namedview1078"
     pagecolor="#cfcfcf"
     bordercolor="#666666"
     borderopacity="1.0"
     inkscape:pageshadow="2"
     inkscape:pageopacity="1"
     inkscape:pagecheckerboard="false"
     inkscape:document-units="mm"
     showgrid="true"
     inkscape:zoom="0.82943085"
     inkscape:cx="354.45993"
     inkscape:cy="412.93376"
     inkscape:window-width="1872"
     inkscape:window-height="1189"
     inkscape:window-x="32"
     inkscape:window-y="23"
     inkscape:window-maximized="0"
     inkscape:current-layer="layer3"
     fit-margin-top="0"
     fit-margin-left="0"
     fit-margin-right="0"
     fit-margin-bottom="0"
     showborder="false"
     inkscape:showpageshadow="false"
     units="px" />
  <defs
     id="defs168631">
    <color-profile
       name="D65"
       xlink:href="../../../../../../Library/ColorSync/Profiles/D65.icc"
       id="color-profile1050" />
    <rect
       x="309.9783"
       y="662.06946"
       width="85.606476"
       height="19.675682"
       id="rect4134" />
  </defs>
  <g
     inkscape:groupmode="layer"
     id="layer3"
     inkscape:label="logo"
     style="display:inline"
     transform="translate(85.538808,49.602071)">
    <g
       id="use1150"
       transform="matrix(0.26458333,0,0,0.26458333,100.72788,192.81393)"
       style="fill:none;fill-opacity:1">
      <text
         xml:space="preserve"
         style="font-size:5.64444px;line-height:1.25;font-family:Lato;-inkscape-font-specification:'Lato, Normal';letter-spacing:0px;display:inline;fill:none;fill-opacity:1;stroke-width:0.264583"
         x="118.29476"
         y="280.90973"
         id="text2245"><tspan
           style="font-style:normal;font-variant:normal;font-weight:bold;font-stretch:normal;font-size:5.64444px;font-family:Lato;-inkscape-font-specification:'Lato Bold';text-align:center;text-anchor:middle;fill:none;fill-opacity:1;stroke-width:0.264583"
           x="118.29476"
           y="280.90973"
           id="tspan2243"><tspan
   style="font-style:normal;font-variant:normal;font-weight:bold;font-stretch:normal;font-size:4.93889px;font-family:Lato;-inkscape-font-specification:'Lato Bold';text-align:start;text-anchor:start;fill:none;fill-opacity:1"
   id="tspan2241">SOFTWARESYSTEME</tspan> </tspan></text>
      <text
         xml:space="preserve"
         style="font-size:4.23333px;line-height:1.25;font-family:Lato;-inkscape-font-specification:'Lato, Normal';letter-spacing:0px;display:inline;fill:none;fill-opacity:1;stroke-width:0.264583"
         x="111.48794"
         y="273.86356"
         id="text2249"><tspan
           style="font-style:normal;font-variant:normal;font-weight:normal;font-stretch:normal;font-size:4.23333px;font-family:Lato;-inkscape-font-specification:Lato;text-align:start;text-anchor:start;fill:none;fill-opacity:1;stroke-width:0.264583"
           x="111.48794"
           y="273.86356"
           id="tspan2247">INGENIEURBÜRO</tspan></text>
      <g
         id="g2261"
         transform="translate(82.821292,26.113883)"
         style="fill:none;fill-opacity:1">
        <g
           aria-label="//"
           id="g2255"
           style="font-size:22.5778px;line-height:1.25;font-family:Lato;-inkscape-font-specification:'Lato, Normal';letter-spacing:0px;fill:none;fill-opacity:1;stroke-width:0.264583"
           transform="translate(-48.953329,205.95104)">
          <path
             d="m 87.38547,33.581134 q -0.135466,0.3048 -0.361244,0.530578 -0.214489,0.225778 -0.474134,0.372534 -0.259645,0.158045 -0.541867,0.237067 -0.270934,0.07902 -0.51929,0.07902 h -1.444979 l 7.69903,-16.459217 q 0.259645,-0.564445 0.756356,-0.857956 0.496712,-0.293511 1.095024,-0.293511 h 1.422401 z"
             style="font-style:italic;font-weight:900;-inkscape-font-specification:'Lato Heavy Italic';fill:none;fill-opacity:1"
             id="path2251" />
          <path
             d="m 94.044158,33.581134 q -0.135467,0.3048 -0.361245,0.530578 -0.214489,0.225778 -0.474134,0.372534 -0.259645,0.158045 -0.541867,0.237067 -0.270934,0.07902 -0.51929,0.07902 h -1.444979 l 7.69903,-16.459217 q 0.259645,-0.564445 0.756356,-0.857956 0.496712,-0.293511 1.095021,-0.293511 h 1.4224 z"
             style="font-style:italic;font-weight:900;-inkscape-font-specification:'Lato Heavy Italic';fill:none;fill-opacity:1"
             id="path2253" />
        </g>
        <text
           xml:space="preserve"
           style="font-size:22.5778px;line-height:1.25;font-family:Lato;-inkscape-font-specification:'Lato, Normal';letter-spacing:0px;fill:none;fill-opacity:1;stroke-width:0.264583"
           x="56.741013"
           y="240.07968"
           id="text2259"><tspan
             id="tspan2257"
             style="font-style:italic;font-variant:normal;font-weight:900;font-stretch:normal;font-size:22.5778px;font-family:Lato;-inkscape-font-specification:'Lato Heavy Italic';fill:none;fill-opacity:1;stroke-width:0.264583"
             x="56.741013"
             y="240.07968">JE</tspan></text>
      </g>
    </g>
    <g
       id="g1047">
      <g
         id="g3679">
        <g
           aria-label="//"
           id="g2720"
           style="font-size:22.5778px;line-height:1.25;font-family:Lato;-inkscape-font-specification:'Lato, Normal';letter-spacing:0px;fill:#ffffff;fill-opacity:1;stroke-width:0.264583"
           transform="matrix(4.2028845,0,0,4.2028845,-424.91041,-121.84818)">
          <path
             d="m 87.38547,33.581134 q -0.135466,0.3048 -0.361244,0.530578 -0.214489,0.225778 -0.474134,0.372534 -0.259645,0.158045 -0.541867,0.237067 -0.270934,0.07902 -0.51929,0.07902 h -1.444979 l 7.69903,-16.459217 q 0.259645,-0.564445 0.756356,-0.857956 0.496712,-0.293511 1.095024,-0.293511 h 1.422401 z"
             style="font-style:italic;font-weight:900;-inkscape-font-specification:'Lato Heavy Italic';fill:#ffffff;fill-opacity:1"
             id="path2716" />
          <path
             d="m 94.044158,33.581134 q -0.135467,0.3048 -0.361245,0.530578 -0.214489,0.225778 -0.474134,0.372534 -0.259645,0.158045 -0.541867,0.237067 -0.270934,0.07902 -0.51929,0.07902 h -1.444979 l 7.69903,-16.459217 q 0.259645,-0.564445 0.756356,-0.857956 0.496712,-0.293511 1.095021,-0.293511 h 1.4224 z"
             style="font-style:italic;font-weight:900;-inkscape-font-specification:'Lato Heavy Italic';fill:#ffffff;fill-opacity:1"
             id="path2718" />
        </g>
        <g
           aria-label="JE"
           id="text2724"
           style="font-size:22.5778px;line-height:1.25;font-family:Lato;-inkscape-font-specification:'Lato, Normal';letter-spacing:0px;fill:#ffffff;fill-opacity:1;stroke-width:0.264583"
           transform="matrix(4.2028845,0,0,4.2028845,-219.16522,-987.43649)">
          <path
             d="m 64.507776,234.17559 q -0.169333,1.37724 -0.620889,2.49484 -0.451557,1.1176 -1.196624,1.91912 -0.745067,0.80151 -1.783646,1.24178 -1.02729,0.42897 -2.35938,0.42897 -0.598312,0 -1.174046,-0.0677 -0.564445,-0.0677 -1.174046,-0.22578 l 0.270934,-2.11102 q 0.03387,-0.28222 0.2032,-0.46285 0.158045,-0.19191 0.51929,-0.19191 0.270933,0 0.6096,0.0677 0.338667,0.0564 0.745068,0.0564 0.914401,0 1.501423,-0.7112 0.587023,-0.72249 0.778935,-2.34809 l 1.286934,-10.63415 h 3.680182 z"
             style="font-style:italic;font-weight:900;-inkscape-font-specification:'Lato Heavy Italic'"
             id="path1335" />
          <path
             d="m 77.614895,226.46527 h -6.084717 l -0.496712,3.97369 h 4.662316 l -0.361245,2.73191 h -4.639738 l -0.496711,4.0753 h 6.129872 l -0.361244,2.83351 h -9.821344 l 2.032002,-16.44793 h 9.798766 z"
             style="font-style:italic;font-weight:900;-inkscape-font-specification:'Lato Heavy Italic'"
             id="path1337" />
        </g>
      </g>
      <g
         aria-label="SOFTWARE SYSTEMS "
         id="text2710-7"
         style="font-size:19.6057px;line-height:1.25;font-family:Lato;-inkscape-font-specification:'Lato, Normal';letter-spacing:0px;display:inline;fill:#ffffff;stroke-width:0.919018"
         transform="matrix(1.1,0,0,1.1,-92.676157,133.27683)">
        <path
           d="m 32.847914,-64.048939 q -0.09435,0.188705 -0.223015,0.265902 -0.120085,0.0772 -0.291635,0.0772 -0.17155,0 -0.385988,-0.128663 -0.214437,-0.13724 -0.506072,-0.300212 -0.291635,-0.162973 -0.6862,-0.291635 -0.385988,-0.13724 -0.917793,-0.13724 -0.48034,0 -0.840595,0.120085 -0.351677,0.111507 -0.600425,0.317367 -0.24017,0.20586 -0.360255,0.497495 -0.120085,0.283058 -0.120085,0.626158 0,0.437452 0.24017,0.729087 0.248748,0.291635 0.65189,0.497495 0.403143,0.20586 0.917793,0.368833 0.51465,0.162972 1.046455,0.351677 0.540382,0.180128 1.055032,0.428875 0.51465,0.24017 0.917793,0.61758 0.403143,0.368833 0.643313,0.909216 0.248747,0.540382 0.248747,1.312357 0,0.840595 -0.291635,1.57826 -0.283057,0.729088 -0.840595,1.278048 -0.54896,0.540382 -1.346668,0.85775 -0.797707,0.30879 -1.827007,0.30879 -0.591848,0 -1.16654,-0.120085 -0.574693,-0.111508 -1.106498,-0.325945 -0.523227,-0.214438 -0.986412,-0.51465 -0.454608,-0.300213 -0.814863,-0.669045 l 0.669045,-1.106498 q 0.09435,-0.120085 0.223015,-0.197282 0.13724,-0.08578 0.300213,-0.08578 0.214437,0 0.463185,0.180127 0.248747,0.17155 0.58327,0.385988 0.3431,0.214437 0.797707,0.394565 0.463185,0.17155 1.106498,0.17155 0.986412,0 1.526795,-0.463185 0.540382,-0.471763 0.540382,-1.346668 0,-0.488917 -0.248747,-0.797707 -0.24017,-0.30879 -0.643313,-0.51465 -0.403142,-0.214438 -0.917792,-0.360255 -0.51465,-0.145818 -1.046455,-0.317368 -0.531805,-0.17155 -1.046455,-0.41172 -0.51465,-0.24017 -0.917793,-0.626158 -0.403142,-0.385987 -0.65189,-0.96068 -0.24017,-0.58327 -0.24017,-1.432442 0,-0.677623 0.265903,-1.320935 0.27448,-0.643313 0.78913,-1.140808 0.523227,-0.497495 1.278047,-0.797707 0.75482,-0.300213 1.724078,-0.300213 1.09792,0 2.02429,0.3431 0.92637,0.3431 1.57826,0.96068 z"
           style="font-size:17.155px;text-align:start;text-anchor:start"
           id="path1023" />
        <path
           d="m 47.311456,-60.103289 q 0,1.363823 -0.454608,2.530363 -0.454607,1.157962 -1.278048,2.007135 -0.82344,0.849172 -1.981402,1.329512 -1.157963,0.471763 -2.564673,0.471763 -1.40671,0 -2.57325,-0.471763 -1.157962,-0.48034 -1.98998,-1.329512 -0.82344,-0.849173 -1.278047,-2.007135 -0.454608,-1.16654 -0.454608,-2.530363 0,-1.363823 0.454608,-2.521785 0.454607,-1.16654 1.278047,-2.015713 0.832018,-0.849172 1.98998,-1.320935 1.16654,-0.48034 2.57325,-0.48034 1.40671,0 2.564673,0.48034 1.157962,0.48034 1.981402,1.329513 0.823441,0.840595 1.278048,2.007135 0.454608,1.157962 0.454608,2.521785 z m -2.367391,0 q 0,-1.020723 -0.27448,-1.827008 -0.265902,-0.814862 -0.771975,-1.380977 -0.506072,-0.566115 -1.23516,-0.866328 -0.72051,-0.300212 -1.629725,-0.300212 -0.909215,0 -1.638302,0.300212 -0.729088,0.300213 -1.243738,0.866328 -0.506072,0.566115 -0.780552,1.380977 -0.27448,0.806285 -0.27448,1.827008 0,1.020723 0.27448,1.835585 0.27448,0.806285 0.780552,1.3724 0.51465,0.557538 1.243738,0.85775 0.729087,0.300213 1.638302,0.300213 0.909215,0 1.629725,-0.300213 0.729088,-0.300212 1.23516,-0.85775 0.506073,-0.566115 0.771975,-1.3724 0.27448,-0.814862 0.27448,-1.835585 z"
           style="font-size:17.155px;text-align:start;text-anchor:start"
           id="path1025" />
        <path
           d="m 56.94104,-66.304822 v 1.835585 h -5.498177 v 3.67117 h 4.640427 v 1.844163 h -4.640427 v 5.052148 H 49.11836 v -12.403066 z"
           style="font-size:17.155px;text-align:start;text-anchor:start"
           id="path1027" />
        <path
           d="m 67.475015,-66.304822 v 1.895628 h -3.731212 v 10.507438 h -2.307348 v -10.507438 h -3.748368 v -1.895628 z"
           style="font-size:17.155px;text-align:start;text-anchor:start"
           id="path1029" />
        <path
           d="m 67.804445,-66.304822 h 1.938515 q 0.300213,0 0.497495,0.145818 0.20586,0.13724 0.27448,0.37741 l 2.110065,7.419538 q 0.0772,0.27448 0.13724,0.600425 0.06862,0.317367 0.128663,0.677622 0.06862,-0.360255 0.145817,-0.677622 0.08577,-0.325945 0.180128,-0.600425 l 2.43601,-7.419538 q 0.06862,-0.197283 0.265903,-0.360255 0.20586,-0.162973 0.497495,-0.162973 h 0.677622 q 0.300213,0 0.497495,0.145818 0.197283,0.13724 0.27448,0.37741 l 2.418855,7.419538 q 0.188705,0.54896 0.325945,1.218005 0.06004,-0.334523 0.120085,-0.643313 0.06862,-0.30879 0.13724,-0.574692 l 2.110065,-7.419538 q 0.06004,-0.214438 0.265903,-0.368833 0.20586,-0.154395 0.497495,-0.154395 h 1.809852 l -3.851297,12.403066 h -2.084333 l -2.71049,-8.474571 q -0.05147,-0.162972 -0.111507,-0.351677 -0.05147,-0.188705 -0.10293,-0.403143 -0.05147,0.214438 -0.111508,0.403143 -0.05147,0.188705 -0.10293,0.351677 l -2.736223,8.474571 h -2.084332 z"
           style="font-size:17.155px;text-align:start;text-anchor:start"
           id="path1031" />
        <path
           d="m 96.809797,-53.901756 h -1.78412 q -0.300212,0 -0.497495,-0.145818 -0.188705,-0.154395 -0.27448,-0.37741 l -0.92637,-2.530362 H 88.18941 l -0.92637,2.530362 q -0.06862,0.197283 -0.27448,0.360255 -0.197283,0.162973 -0.488918,0.162973 h -1.792698 l 4.872021,-12.403066 h 2.358812 z m -8.02854,-4.683315 h 3.954228 l -1.50964,-4.125778 q -0.10293,-0.27448 -0.231593,-0.643313 -0.120085,-0.37741 -0.24017,-0.814862 -0.120085,0.437452 -0.24017,0.814862 -0.111507,0.37741 -0.223015,0.660468 z"
           style="font-size:17.155px;text-align:start;text-anchor:start"
           id="path1033" />
        <path
           d="m 100.48848,-58.748044 v 4.846288 h -2.307352 v -12.403066 h 3.782682 q 1.26947,0 2.1701,0.265903 0.90922,0.257325 1.48391,0.729087 0.58327,0.471763 0.84917,1.13223 0.27448,0.65189 0.27448,1.44102 0,0.626158 -0.1887,1.183695 -0.18013,0.557538 -0.53181,1.012145 -0.3431,0.454608 -0.85775,0.797708 -0.50607,0.3431 -1.15796,0.54896 0.43745,0.248748 0.75482,0.711933 l 3.10506,4.580385 h -2.07576 q -0.30021,0 -0.51465,-0.120085 -0.20586,-0.120085 -0.35168,-0.3431 l -2.60756,-3.971383 q -0.14581,-0.223015 -0.32594,-0.317367 -0.17155,-0.09435 -0.51465,-0.09435 z m 0,-1.655458 h 1.44102 q 0.65189,0 1.13223,-0.162972 0.48891,-0.162973 0.7977,-0.44603 0.31737,-0.291635 0.47177,-0.6862 0.15439,-0.394565 0.15439,-0.866328 0,-0.943525 -0.62616,-1.449597 -0.61758,-0.506073 -1.89562,-0.506073 h -1.47533 z"
           style="font-size:17.155px;text-align:start;text-anchor:start"
           id="path1035" />
        <path
           d="m 117.15108,-66.304822 v 1.835585 h -5.49818 v 3.439578 h 4.33164 v 1.775542 h -4.33164 v 3.508198 h 5.49818 v 1.844163 h -7.82268 v -12.403066 z"
           style="font-size:17.155px;text-align:start;text-anchor:start"
           id="path1037" />
        <path
           d="m 129.11025,-64.048939 q -0.0944,0.188705 -0.22301,0.265902 -0.12009,0.0772 -0.29164,0.0772 -0.17155,0 -0.38599,-0.128663 -0.21443,-0.13724 -0.50607,-0.300212 -0.29163,-0.162973 -0.6862,-0.291635 -0.38599,-0.13724 -0.91779,-0.13724 -0.48034,0 -0.8406,0.120085 -0.35167,0.111507 -0.60042,0.317367 -0.24017,0.20586 -0.36026,0.497495 -0.12008,0.283058 -0.12008,0.626158 0,0.437452 0.24017,0.729087 0.24875,0.291635 0.65189,0.497495 0.40314,0.20586 0.91779,0.368833 0.51465,0.162972 1.04646,0.351677 0.54038,0.180128 1.05503,0.428875 0.51465,0.24017 0.91779,0.61758 0.40314,0.368833 0.64331,0.909216 0.24875,0.540382 0.24875,1.312357 0,0.840595 -0.29163,1.57826 -0.28306,0.729088 -0.8406,1.278048 -0.54896,0.540382 -1.34667,0.85775 -0.7977,0.30879 -1.827,0.30879 -0.59185,0 -1.16654,-0.120085 -0.5747,-0.111508 -1.1065,-0.325945 -0.52323,-0.214438 -0.98641,-0.51465 -0.45461,-0.300213 -0.81487,-0.669045 l 0.66905,-1.106498 q 0.0944,-0.120085 0.22301,-0.197282 0.13724,-0.08578 0.30022,-0.08578 0.21443,0 0.46318,0.180127 0.24875,0.17155 0.58327,0.385988 0.3431,0.214437 0.79771,0.394565 0.46318,0.17155 1.1065,0.17155 0.98641,0 1.52679,-0.463185 0.54038,-0.471763 0.54038,-1.346668 0,-0.488917 -0.24874,-0.797707 -0.24017,-0.30879 -0.64332,-0.51465 -0.40314,-0.214438 -0.91779,-0.360255 -0.51465,-0.145818 -1.04645,-0.317368 -0.53181,-0.17155 -1.04646,-0.41172 -0.51465,-0.24017 -0.91779,-0.626158 -0.40314,-0.385987 -0.65189,-0.96068 -0.24017,-0.58327 -0.24017,-1.432442 0,-0.677623 0.2659,-1.320935 0.27448,-0.643313 0.78913,-1.140808 0.52323,-0.497495 1.27805,-0.797707 0.75482,-0.300213 1.72408,-0.300213 1.09792,0 2.02429,0.3431 0.92637,0.3431 1.57826,0.96068 z"
           style="font-size:17.155px;text-align:start;text-anchor:start"
           id="path1039" />
        <path
           d="m 137.19213,-58.722311 v 4.820555 h -2.30735 v -4.820555 l -4.52034,-7.582511 h 2.03287 q 0.30021,0 0.47176,0.145818 0.18013,0.145817 0.30021,0.368832 l 2.27304,4.142933 q 0.19728,0.368832 0.3431,0.703355 0.14582,0.325945 0.2659,0.643312 0.11151,-0.325945 0.24875,-0.65189 0.14582,-0.334522 0.3431,-0.694777 l 2.25588,-4.142933 q 0.0944,-0.188705 0.28306,-0.351677 0.18871,-0.162973 0.48034,-0.162973 h 2.04145 z"
           style="font-size:17.155px;text-align:start;text-anchor:start"
           id="path1041" />
        <path
           d="m 149.54883,-64.048939 q -0.0944,0.188705 -0.22302,0.265902 -0.12008,0.0772 -0.29163,0.0772 -0.17155,0 -0.38599,-0.128663 -0.21444,-0.13724 -0.50607,-0.300212 -0.29164,-0.162973 -0.6862,-0.291635 -0.38599,-0.13724 -0.9178,-0.13724 -0.48034,0 -0.84059,0.120085 -0.35168,0.111507 -0.60043,0.317367 -0.24017,0.20586 -0.36025,0.497495 -0.12009,0.283058 -0.12009,0.626158 0,0.437452 0.24017,0.729087 0.24875,0.291635 0.65189,0.497495 0.40315,0.20586 0.9178,0.368833 0.51465,0.162972 1.04645,0.351677 0.54038,0.180128 1.05503,0.428875 0.51465,0.24017 0.9178,0.61758 0.40314,0.368833 0.64331,0.909216 0.24875,0.540382 0.24875,1.312357 0,0.840595 -0.29164,1.57826 -0.28306,0.729088 -0.84059,1.278048 -0.54896,0.540382 -1.34667,0.85775 -0.79771,0.30879 -1.82701,0.30879 -0.59185,0 -1.16654,-0.120085 -0.57469,-0.111508 -1.1065,-0.325945 -0.52322,-0.214438 -0.98641,-0.51465 -0.45461,-0.300213 -0.81486,-0.669045 l 0.66904,-1.106498 q 0.0944,-0.120085 0.22302,-0.197282 0.13724,-0.08578 0.30021,-0.08578 0.21444,0 0.46319,0.180127 0.24874,0.17155 0.58327,0.385988 0.3431,0.214437 0.7977,0.394565 0.46319,0.17155 1.1065,0.17155 0.98641,0 1.5268,-0.463185 0.54038,-0.471763 0.54038,-1.346668 0,-0.488917 -0.24875,-0.797707 -0.24017,-0.30879 -0.64331,-0.51465 -0.40314,-0.214438 -0.91779,-0.360255 -0.51465,-0.145818 -1.04646,-0.317368 -0.5318,-0.17155 -1.04645,-0.41172 -0.51465,-0.24017 -0.9178,-0.626158 -0.40314,-0.385987 -0.65189,-0.96068 -0.24017,-0.58327 -0.24017,-1.432442 0,-0.677623 0.26591,-1.320935 0.27448,-0.643313 0.78913,-1.140808 0.52322,-0.497495 1.27804,-0.797707 0.75482,-0.300213 1.72408,-0.300213 1.09792,0 2.02429,0.3431 0.92637,0.3431 1.57826,0.96068 z"
           style="font-size:17.155px;text-align:start;text-anchor:start"
           id="path1043" />
        <path
           d="m 160.85585,-66.304822 v 1.895628 h -3.73121 v 10.507438 h -2.30735 v -10.507438 h -3.74837 v -1.895628 z"
           style="font-size:17.155px;text-align:start;text-anchor:start"
           id="path1045" />
        <path
           d="m 170.15734,-66.304822 v 1.835585 h -5.49818 v 3.439578 h 4.33164 v 1.775542 h -4.33164 v 3.508198 h 5.49818 v 1.844163 h -7.82268 v -12.403066 z"
           style="font-size:17.155px;text-align:start;text-anchor:start"
           id="path1047" />
        <path
           d="m 178.37914,-59.048256 q 0.14582,0.27448 0.2659,0.574692 0.12866,0.291635 0.24875,0.591848 0.12008,-0.30879 0.24875,-0.609003 0.12866,-0.300212 0.27448,-0.574692 l 3.67117,-6.870578 q 0.0686,-0.128663 0.13724,-0.20586 0.0772,-0.0772 0.16297,-0.111508 0.0944,-0.03431 0.20586,-0.04289 0.11151,-0.0086 0.2659,-0.0086 h 1.74123 v 12.403066 h -2.03286 v -8.011386 q 0,-0.223015 0.009,-0.488917 0.0172,-0.265903 0.0429,-0.540383 l -3.74837,7.033551 q -0.12866,0.24017 -0.33452,0.37741 -0.20586,0.128662 -0.48034,0.128662 h -0.31737 q -0.27448,0 -0.48034,-0.128662 -0.20586,-0.13724 -0.33452,-0.37741 l -3.79983,-7.059283 q 0.0343,0.283057 0.0429,0.557537 0.0172,0.265903 0.0172,0.497495 v 8.011386 h -2.03287 v -12.403066 h 1.74124 q 0.15439,0 0.2659,0.0086 0.11151,0.0086 0.19728,0.04289 0.0943,0.03431 0.17155,0.111508 0.0772,0.0772 0.14582,0.20586 l 3.70548,6.887733 z"
           style="font-size:17.155px;text-align:start;text-anchor:start"
           id="path1049" />
        <path
           d="m 194.74823,-64.048939 q -0.0944,0.188705 -0.22302,0.265902 -0.12008,0.0772 -0.29163,0.0772 -0.17155,0 -0.38599,-0.128663 -0.21444,-0.13724 -0.50607,-0.300212 -0.29164,-0.162973 -0.6862,-0.291635 -0.38599,-0.13724 -0.91779,-0.13724 -0.48034,0 -0.8406,0.120085 -0.35168,0.111507 -0.60042,0.317367 -0.24017,0.20586 -0.36026,0.497495 -0.12008,0.283058 -0.12008,0.626158 0,0.437452 0.24017,0.729087 0.24874,0.291635 0.65189,0.497495 0.40314,0.20586 0.91779,0.368833 0.51465,0.162972 1.04645,0.351677 0.54039,0.180128 1.05504,0.428875 0.51465,0.24017 0.91779,0.61758 0.40314,0.368833 0.64331,0.909216 0.24875,0.540382 0.24875,1.312357 0,0.840595 -0.29164,1.57826 -0.28305,0.729088 -0.84059,1.278048 -0.54896,0.540382 -1.34667,0.85775 -0.79771,0.30879 -1.82701,0.30879 -0.59184,0 -1.16654,-0.120085 -0.57469,-0.111508 -1.10649,-0.325945 -0.52323,-0.214438 -0.98642,-0.51465 -0.4546,-0.300213 -0.81486,-0.669045 l 0.66905,-1.106498 q 0.0943,-0.120085 0.22301,-0.197282 0.13724,-0.08578 0.30021,-0.08578 0.21444,0 0.46319,0.180127 0.24875,0.17155 0.58327,0.385988 0.3431,0.214437 0.79771,0.394565 0.46318,0.17155 1.10649,0.17155 0.98642,0 1.5268,-0.463185 0.54038,-0.471763 0.54038,-1.346668 0,-0.488917 -0.24875,-0.797707 -0.24017,-0.30879 -0.64331,-0.51465 -0.40314,-0.214438 -0.91779,-0.360255 -0.51465,-0.145818 -1.04646,-0.317368 -0.5318,-0.17155 -1.04645,-0.41172 -0.51465,-0.24017 -0.91779,-0.626158 -0.40315,-0.385987 -0.65189,-0.96068 -0.24017,-0.58327 -0.24017,-1.432442 0,-0.677623 0.2659,-1.320935 0.27448,-0.643313 0.78913,-1.140808 0.52323,-0.497495 1.27805,-0.797707 0.75482,-0.300213 1.72407,-0.300213 1.09792,0 2.02429,0.3431 0.92637,0.3431 1.57826,0.96068 z"
           style="font-size:17.155px;text-align:start;text-anchor:start"
           id="path1051" />
      </g>
      <g
         aria-label="ENGINEERING OFFICE"
         id="text2714-9"
         style="font-size:14.7043px;line-height:1.25;font-family:Lato;-inkscape-font-specification:'Lato, Normal';letter-spacing:0px;display:inline;fill:#ffffff;stroke-width:0.919018"
         transform="matrix(1.1,0,0,1.1,-91.657526,134.29702)">
        <path
           d="m 12.054419,-88.899584 v 1.16164 H 6.9961398 v 3.499624 h 4.0951472 v 1.117526 H 6.9961398 v 3.595202 h 5.0582792 v 1.161639 H 5.5624705 v -10.535631 z"
           style="-inkscape-font-specification:Lato"
           id="path1054" />
        <path
           d="m 14.827329,-88.899584 q 0.191155,0 0.279381,0.05147 0.09558,0.04411 0.213213,0.191155 l 6.102284,7.940322 q -0.02206,-0.191156 -0.02941,-0.367607 -0.0074,-0.183804 -0.0074,-0.352903 v -7.462433 h 1.249866 v 10.535631 h -0.720511 q -0.169099,0 -0.286734,-0.05882 -0.110282,-0.05882 -0.220564,-0.198508 l -6.094933,-7.93297 q 0.01471,0.183804 0.02206,0.360256 0.0074,0.176451 0.0074,0.323494 v 7.506545 h -1.249865 v -10.535631 h 0.735215 z"
           style="-inkscape-font-specification:Lato"
           id="path1056" />
        <path
           d="m 29.90452,-79.400606 q 0.426425,0 0.779328,-0.03676 0.360255,-0.04411 0.676398,-0.124986 0.316142,-0.08087 0.595524,-0.191156 0.279382,-0.117634 0.558763,-0.264677 v -2.32328 h -1.632177 q -0.139691,0 -0.227917,-0.08087 -0.08087,-0.08087 -0.08087,-0.198508 v -0.808737 h 3.234946 v 4.043683 q -0.397016,0.286733 -0.830793,0.499946 -0.426425,0.213212 -0.919019,0.360255 -0.485242,0.139691 -1.044005,0.20586 -0.558764,0.07352 -1.213105,0.07352 -1.146935,0 -2.102715,-0.389664 -0.955779,-0.397016 -1.646881,-1.102823 -0.691103,-0.713158 -1.080766,-1.705698 -0.382312,-0.992541 -0.382312,-2.183589 0,-1.205753 0.374959,-2.198293 0.382312,-0.99254 1.080766,-1.698346 0.705807,-0.713159 1.698347,-1.102823 0.999892,-0.389664 2.235054,-0.389664 0.624932,0 1.161639,0.09558 0.536707,0.08823 0.992541,0.264677 0.463185,0.1691 0.852849,0.419073 0.389664,0.242621 0.727863,0.551411 l -0.404368,0.646989 q -0.124987,0.198508 -0.323495,0.198508 -0.117634,0 -0.257325,-0.08087 -0.183804,-0.10293 -0.411721,-0.249973 -0.227916,-0.147043 -0.558763,-0.279382 -0.323495,-0.139691 -0.771976,-0.235269 -0.441129,-0.09558 -1.051357,-0.09558 -0.88961,0 -1.610121,0.294086 -0.720511,0.286734 -1.227809,0.830793 -0.507298,0.536707 -0.779328,1.308683 -0.27203,0.764623 -0.27203,1.720403 0,0.999892 0.279382,1.786572 0.286734,0.779328 0.801384,1.323387 0.514651,0.54406 1.220457,0.830793 0.705807,0.286734 1.558656,0.286734 z"
           style="-inkscape-font-specification:Lato"
           id="path1058" />
        <path
           d="m 37.695962,-78.363953 h -1.426317 v -10.535631 h 1.426317 z"
           style="-inkscape-font-specification:Lato"
           id="path1060" />
        <path
           d="m 41.249117,-88.899584 q 0.191156,0 0.279382,0.05147 0.09558,0.04411 0.213212,0.191155 l 6.102284,7.940322 q -0.02206,-0.191156 -0.02941,-0.367607 -0.0074,-0.183804 -0.0074,-0.352903 V -88.89958 H 49.0571 v 10.535631 h -0.720511 q -0.169099,0 -0.286733,-0.05882 -0.110283,-0.05882 -0.220565,-0.198508 l -6.094932,-7.93297 q 0.0147,0.183804 0.02206,0.360256 0.0074,0.176451 0.0074,0.323494 v 7.506545 h -1.249865 v -10.535631 h 0.735215 z"
           style="-inkscape-font-specification:Lato"
           id="path1062" />
        <path
           d="m 58.120234,-88.899584 v 1.16164 h -5.058279 v 3.499624 h 4.095147 v 1.117526 h -4.095147 v 3.595202 h 5.058279 v 1.161639 h -6.491948 v -10.535631 z"
           style="-inkscape-font-specification:Lato"
           id="path1064" />
        <path
           d="m 66.649878,-88.899584 v 1.16164 h -5.058279 v 3.499624 h 4.095147 v 1.117526 h -4.095147 v 3.595202 h 5.058279 v 1.161639 H 60.15793 v -10.535631 z"
           style="-inkscape-font-specification:Lato"
           id="path1066" />
        <path
           d="m 70.253578,-82.760538 v 4.396585 h -1.418965 v -10.535631 h 2.97762 q 0.999893,0 1.727756,0.205861 0.727863,0.198508 1.1984,0.58082 0.47789,0.382311 0.705807,0.92637 0.227916,0.536707 0.227916,1.205753 0,0.558763 -0.176451,1.044005 -0.176452,0.485242 -0.514651,0.874906 -0.330847,0.382312 -0.816089,0.654341 -0.477889,0.27203 -1.088118,0.411721 0.264678,0.154395 0.470538,0.448481 l 3.073199,4.183373 h -1.26457 q -0.389664,0 -0.573468,-0.301438 l -2.735,-3.764301 q -0.124986,-0.176451 -0.272029,-0.249973 -0.147043,-0.08087 -0.441129,-0.08087 z m 0,-1.036653 h 1.492486 q 0.624933,0 1.09547,-0.147043 0.47789,-0.154396 0.794033,-0.426425 0.323494,-0.279382 0.485242,-0.661694 0.161747,-0.382311 0.161747,-0.845497 0,-0.941075 -0.624933,-1.418965 -0.61758,-0.47789 -1.84539,-0.47789 h -1.558655 z"
           style="-inkscape-font-specification:Lato"
           id="path1068" />
        <path
           d="m 79.855943,-78.363953 h -1.426317 v -10.535631 h 1.426317 z"
           style="-inkscape-font-specification:Lato"
           id="path1070" />
        <path
           d="m 83.409105,-88.899584 q 0.191156,0 0.279382,0.05147 0.09558,0.04411 0.213212,0.191155 l 6.102285,7.940322 q -0.02206,-0.191156 -0.02941,-0.367607 -0.0074,-0.183804 -0.0074,-0.352903 v -7.462433 h 1.249865 v 10.535631 h -0.72051 q -0.1691,0 -0.286734,-0.05882 -0.110282,-0.05882 -0.220565,-0.198508 l -6.094932,-7.93297 q 0.0147,0.183804 0.02206,0.360256 0.0074,0.176451 0.0074,0.323494 v 7.506545 H 82.67389 v -10.535631 z"
           style="-inkscape-font-specification:Lato"
           id="path1072" />
        <path
           d="m 98.486294,-79.400606 q 0.426425,0 0.779328,-0.03676 0.360255,-0.04411 0.676398,-0.124986 0.31614,-0.08087 0.59552,-0.191156 0.27939,-0.117634 0.55877,-0.264677 v -2.32328 h -1.63218 q -0.139691,0 -0.227917,-0.08087 -0.08087,-0.08087 -0.08087,-0.198508 v -0.808737 h 3.234947 v 4.043683 q -0.39702,0.286733 -0.8308,0.499946 -0.42642,0.213212 -0.91902,0.360255 -0.48524,0.139691 -1.043998,0.20586 -0.558764,0.07352 -1.213105,0.07352 -1.146936,0 -2.102715,-0.389664 -0.95578,-0.397016 -1.646882,-1.102823 -0.691102,-0.713158 -1.080766,-1.705698 -0.382311,-0.992541 -0.382311,-2.183589 0,-1.205753 0.374959,-2.198293 0.382312,-0.99254 1.080766,-1.698346 0.705807,-0.713159 1.698347,-1.102823 0.999892,-0.389664 2.235053,-0.389664 0.624933,0 1.16164,0.09558 0.536702,0.08823 0.992542,0.264677 0.46318,0.1691 0.85284,0.419073 0.38967,0.242621 0.72787,0.551411 l -0.40437,0.646989 q -0.12499,0.198508 -0.3235,0.198508 -0.11763,0 -0.25732,-0.08087 -0.1838,-0.10293 -0.41172,-0.249973 -0.22792,-0.147043 -0.55876,-0.279382 -0.3235,-0.139691 -0.771977,-0.235269 -0.441129,-0.09558 -1.051357,-0.09558 -0.889611,0 -1.610121,0.294086 -0.720511,0.286734 -1.227809,0.830793 -0.507299,0.536707 -0.779328,1.308683 -0.27203,0.764623 -0.27203,1.720403 0,0.999892 0.279382,1.786572 0.286734,0.779328 0.801384,1.323387 0.514651,0.54406 1.220457,0.830793 0.705807,0.286734 1.558656,0.286734 z"
           style="-inkscape-font-specification:Lato"
           id="path1074" />
        <path
           d="m 117.21567,-83.628092 q 0,1.183696 -0.37496,2.176236 -0.37496,0.985188 -1.05871,1.698347 -0.68375,0.713159 -1.64688,1.110175 -0.95578,0.389664 -2.11742,0.389664 -1.16164,0 -2.11742,-0.389664 -0.95578,-0.397016 -1.63953,-1.110175 -0.68375,-0.713159 -1.05871,-1.698347 -0.37496,-0.99254 -0.37496,-2.176236 0,-1.183696 0.37496,-2.168884 0.37496,-0.99254 1.05871,-1.705699 0.68375,-0.720511 1.63953,-1.117527 0.95578,-0.397016 2.11742,-0.397016 1.16164,0 2.11742,0.397016 0.96313,0.397016 1.64688,1.117527 0.68375,0.713159 1.05871,1.705699 0.37496,0.985188 0.37496,2.168884 z m -1.46308,0 q 0,-0.970484 -0.26468,-1.74246 -0.26468,-0.771975 -0.74992,-1.30133 -0.48524,-0.536707 -1.17634,-0.823441 -0.6911,-0.286734 -1.54395,-0.286734 -0.8455,0 -1.5366,0.286734 -0.6911,0.286734 -1.1837,0.823441 -0.48524,0.529355 -0.74992,1.30133 -0.26468,0.771976 -0.26468,1.74246 0,0.970484 0.26468,1.74246 0.26468,0.764623 0.74992,1.30133 0.4926,0.529355 1.1837,0.816089 0.6911,0.279381 1.5366,0.279381 0.85285,0 1.54395,-0.279381 0.6911,-0.286734 1.17634,-0.816089 0.48524,-0.536707 0.74992,-1.30133 0.26468,-0.771976 0.26468,-1.74246 z"
           style="-inkscape-font-specification:Lato"
           id="path1076" />
        <path
           d="m 125.66811,-88.899584 v 1.16164 h -5.05828 v 3.683427 h 4.32307 v 1.16164 h -4.32307 v 4.528924 h -1.43367 v -10.535631 z"
           style="-inkscape-font-specification:Lato"
           id="path1078" />
        <path
           d="m 133.99672,-88.899584 v 1.16164 h -5.05828 v 3.683427 h 4.32306 v 1.16164 h -4.32306 v 4.528924 h -1.43367 v -10.535631 z"
           style="-inkscape-font-specification:Lato"
           id="path1080" />
        <path
           d="m 137.52437,-78.363953 h -1.42632 v -10.535631 h 1.42632 z"
           style="-inkscape-font-specification:Lato"
           id="path1082" />
        <path
           d="m 147.76799,-80.540189 q 0.11763,0 0.21321,0.09558 l 0.55876,0.610228 q -0.64699,0.74992 -1.57336,1.168992 -0.91901,0.419073 -2.22035,0.419073 -1.13958,0 -2.06595,-0.389664 -0.92637,-0.397016 -1.58071,-1.102823 -0.65434,-0.713158 -1.0146,-1.705698 -0.36025,-0.992541 -0.36025,-2.183589 0,-1.191048 0.38231,-2.183589 0.38966,-0.99254 1.08812,-1.705698 0.69845,-0.713159 1.66893,-1.102823 0.97784,-0.397016 2.15418,-0.397016 1.16164,0 1.99979,0.360255 0.8455,0.360256 1.49984,0.977836 l -0.46319,0.654342 q -0.0515,0.07352 -0.11763,0.124986 -0.0662,0.04411 -0.19116,0.04411 -0.0956,0 -0.20586,-0.06617 -0.10293,-0.07352 -0.24997,-0.176452 -0.14704,-0.10293 -0.34555,-0.220564 -0.19851,-0.117635 -0.47054,-0.220565 -0.27203,-0.10293 -0.63229,-0.169099 -0.36025,-0.07352 -0.83079,-0.07352 -0.8455,0 -1.5513,0.294086 -0.69846,0.286734 -1.20575,0.823441 -0.5073,0.536707 -0.79404,1.308683 -0.27938,0.771975 -0.27938,1.727755 0,0.985188 0.27938,1.757164 0.28674,0.771976 0.77198,1.308683 0.49259,0.529354 1.16164,0.808736 0.66904,0.279382 1.44102,0.279382 0.47054,0 0.8455,-0.05147 0.37496,-0.05882 0.6911,-0.176452 0.32349,-0.117634 0.59552,-0.294086 0.27939,-0.183804 0.55877,-0.433777 0.12498,-0.110282 0.24262,-0.110282 z"
           style="-inkscape-font-specification:Lato"
           id="path1084" />
        <path
           d="m 156.91476,-88.899584 v 1.16164 h -5.05828 v 3.499624 h 4.09514 v 1.117526 h -4.09514 v 3.595202 h 5.05828 v 1.161639 h -6.49195 v -10.535631 z"
           style="-inkscape-font-specification:Lato"
           id="path1086" />
      </g>
    </g>
  </g>
</svg>
