<svg width="1861.7444" height="315.57828" viewBox="0 0 492.58641 83.496734" xmlns="http://www.w3.org/2000/svg"><defs><path id="c" d="M1600.6648 5530.2114h158.57976v94.550331H1600.6648z"/><path id="b" d="M157-13h55v40h-55z"/><filter style="color-interpolation-filters:sRGB" id="a" x="-.05642297" y="-.03515585" width="1.1128459" height="1.0703117"><feGaussianBlur stdDeviation="1.1384116"/></filter></defs><text xml:space="preserve" transform="matrix(.26458 0 0 .26458 306.09764 -2084.9282)" style="font-size:36px;line-height:1.25;font-family:Lato;-inkscape-font-specification:Lato;text-align:center;letter-spacing:0;white-space:pre;shape-inside:url(#b)"><tspan x="157" y="60.48"><tspan dx="0 20.882812 20.039062 14.484375 18.84375">Ehret</tspan></tspan></text><g style="display:inline"><path d="m193.21116 131.23063-.36079 2.87237h-8.07594l-.69381 5.70311h6.34141l-.3469 2.76135h-6.34141l-.72157 5.85575h8.1037l-.36079 2.87237h-11.71149l2.46995-20.06495zM209.30448 151.29558h-3.62168l1.08234-8.81138h-8.43671l-1.08235 8.81138h-3.62168l2.46996-20.06495h3.62168l-1.08234 8.70036h8.4506l1.08234-8.70036h3.62168zM217.56948 143.38616l-.97134 7.90942h-3.58004l2.45608-20.06495h5.70311q1.73453 0 2.9695.37465 1.23498.36078 2.02592 1.02684.79095.65218 1.1656 1.56801.37466.91583.37466 2.01205 0 1.1656-.33303 2.19243-.31915 1.01296-.9297 1.84554-.61056.83257-1.49863 1.45699-.88808.62444-2.01205.97134.31916.19426.58281.47178.26364.27753.4579.66606l3.58006 7.47926h-3.23315q-.45791 0-.77707-.18039-.30526-.19426-.4579-.54116l-2.94176-6.50794q-.16651-.36078-.41628-.51342-.2359-.16651-.74932-.16651zm1.1656-9.38029-.84644 6.8132h2.08143q1.08233 0 1.8594-.30528.79094-.31915 1.29048-.86032.51342-.55505.76319-1.29049.24977-.73543.24977-1.58188 0-1.30436-.80482-2.0398-.80481-.73543-2.48383-.73543zM243.89174 131.23063l-.36079 2.87237h-8.07594l-.69381 5.70311h6.34141l-.3469 2.76135h-6.34141l-.72156 5.85575h8.10369l-.36079 2.87237h-11.71149l2.46996-20.06495zM259.87405 131.23063l-.37466 2.95563h-5.49496l-2.10918 17.10932h-3.58006l2.0953-17.10932h-5.50883l.36077-2.95563z" style="font-style:italic;font-size:23.2833px;line-height:1.25;font-family:Lato;-inkscape-font-specification:'Lato Bold Italic';text-align:center;letter-spacing:0;text-anchor:middle;fill:#fcfbfb;stroke-width:.315368" transform="translate(10.274089 -118.607881)"/><path d="M278.6121 131.23063v2.9695h-8.89464v5.56435h7.00747v2.87236h-7.00747v5.67537h8.89464v2.98337h-12.65508v-20.06495zM283.79528 131.23063q.24978 0 .41629.0278.16651.0138.29139.0833.13877.0555.26366.18039.12488.11097.27752.30528l10.53202 13.41826q-.0555-.48567-.0833-.94358-.0138-.47179-.0138-.87419v-12.19716h3.28865v20.06494h-1.92879q-.44403 0-.73544-.13875-.29139-.13877-.56891-.49954l-10.4904-13.36276q.0416.44403.0555.88806.0278.43016.0278.79095v12.32204h-3.28866v-20.06494h1.95654zM312.0294 148.54811q1.26274 0 2.19244-.22203.94359-.23589 1.79003-.63831v-3.64943h-2.51159q-.36079 0-.56892-.19426-.20815-.20815-.20815-.49954v-2.10918h6.67445v8.11756q-.76319.55505-1.59576.97134-.8187.4024-1.76228.66605-.9297.26365-1.99817.38853-1.06847.13876-2.30344.13876-2.19244 0-4.03797-.76318-1.84553-.76319-3.19152-2.12307-1.34599-1.35986-2.10918-3.24702-.74931-1.88716-.74931-4.12122 0-2.26182.73544-4.14898.73542-1.88716 2.08141-3.24703 1.35987-1.35986 3.28866-2.10918 1.92879-.74931 4.32937-.74931 2.45608 0 4.24611.73544 1.80391.72155 3.05276 1.88716l-1.08234 1.69289q-.31915.51341-.84644.51341-.33303 0-.67994-.22201-.44404-.26364-.91583-.5273-.45792-.26365-1.02683-.45791-.55505-.19426-1.26273-.31915-.69382-.12488-1.60965-.12488-1.48474 0-2.69198.49954-1.19335.49954-2.03979 1.42925-.84645.9297-1.30436 2.23406-.45792 1.30436-.45792 2.914 0 1.73451.48567 3.09439.48567 1.34599 1.35986 2.27569.87421.9297 2.08143 1.42925 1.20723.48567 2.63647.48567zM327.07553 151.29558h-3.74657v-20.06495h3.74657zM333.5544 131.23063q.24977 0 .41628.0278.16652.0138.2914.0833.13876.0555.26366.18039.12488.11097.27752.30528l10.53201 13.41826q-.0555-.48567-.0832-.94358-.0138-.47179-.0138-.87419v-12.19716h3.28865v20.06494h-1.92879q-.44403 0-.73544-.13875-.29139-.13877-.56891-.49954l-10.4904-13.36276q.0416.44403.0555.88806.0278.43016.0278.79095v12.32204h-3.28865v-20.06494h1.95654zM365.22981 131.23063v2.9695h-8.89462v5.56435h7.00747v2.87236h-7.00747v5.67537h8.89462v2.98337h-12.65507v-20.06495zM381.11154 131.23063v2.9695h-8.89463v5.56435h7.00746v2.87236h-7.00746v5.67537h8.89463v2.98337h-12.65508v-20.06495zM388.19576 143.45554v7.84004h-3.73269v-20.06495h6.1194q2.05367 0 3.51067.43016 1.47087.41629 2.40058 1.17948.94357.76319 1.37373 1.83164.44405 1.0546.44405 2.33121 0 1.01296-.30528 1.91491-.29139.90196-.86032 1.63738-.55505.73545-1.38762 1.2905-.81869.55504-1.87328.88807.70769.40241 1.2211 1.15172l5.02317 7.40988h-3.35803q-.48566 0-.83256-.19426-.33303-.19426-.56893-.55505l-4.21836-6.42467q-.23589-.36078-.5273-.51342-.27752-.15264-.83257-.15264zm0-2.6781h2.3312q1.05459 0 1.83166-.26365.79093-.26364 1.29048-.72156.51342-.47179.76319-1.1101.24977-.63829.24977-1.40148 0-1.52639-1.01296-2.34508-.99909-.8187-3.06663-.8187h-2.38671zM406.70095 151.29558h-3.74657v-20.06495h3.74657zM413.17982 131.23063q.24977 0 .41628.0278.16652.0138.29141.0833.13875.0555.26365.18039.12488.11097.27752.30528l10.53201 13.41826q-.0555-.48567-.0833-.94358-.0138-.47179-.0138-.87419v-12.19716h3.28865v20.06494h-1.92879q-.44403 0-.73542-.13875-.29141-.13877-.56893-.49954l-10.4904-13.36276q.0416.44403.0556.88806.0278.43016.0278.79095v12.32204h-3.28865v-20.06494h1.95654zM441.41395 148.54811q1.26273 0 2.19243-.22203.94359-.23589 1.79004-.63831v-3.64943h-2.51159q-.36078 0-.56893-.19426-.20813-.20815-.20813-.49954v-2.10918h6.67443v8.11756q-.76318.55505-1.59576.97134-.81869.4024-1.76227.66605-.9297.26365-1.99817.38853-1.06846.13876-2.30345.13876-2.19243 0-4.03796-.76318-1.84554-.76319-3.19153-2.12307-1.34598-1.35986-2.10917-3.24702-.74932-1.88716-.74932-4.12122 0-2.26182.73544-4.14898.73543-1.88716 2.08142-3.24703 1.35988-1.35986 3.28867-2.10918 1.92877-.74931 4.32936-.74931 2.45608 0 4.24611.73544 1.8039.72155 3.05276 1.88716l-1.08234 1.69289q-.31916.51341-.84645.51341-.33303 0-.67993-.22201-.44404-.26364-.91583-.5273-.45792-.26365-1.02684-.45791-.55505-.19426-1.26273-.31915-.69382-.12488-1.60963-.12488-1.48476 0-2.69198.49954-1.19336.49954-2.03981 1.42925-.84644.9297-1.30435 2.23406-.45792 1.30436-.45792 2.914 0 1.73451.48567 3.09439.48566 1.34599 1.35986 2.27569.87421.9297 2.08143 1.42925 1.20722.48567 2.63647.48567z" style="font-weight:700;font-size:23.2833px;line-height:1.25;font-family:Lato;-inkscape-font-specification:'Lato Bold';text-align:center;letter-spacing:0;text-anchor:middle;fill:#fcfbfb;stroke-width:.315368" transform="translate(10.274089 -118.607881)"/><g><path d="M186.99518 163.36076q-.12806.25611-.30268.36089-.16298.10477-.39582.10477-.23283 0-.52387-.17462-.29104-.18627-.68686-.40746t-.93133-.39582q-.52388-.18626-1.24566-.18626-.65193 0-1.14088.16298-.47731.15134-.81492.43074-.32596.2794-.48894.67522-.16299.38417-.16299.84984 0 .59372.32597.98954.33761.39581.88476.67521.54716.2794 1.24566.50059t1.42028.47731q.73343.24448 1.43192.58208.6985.32597 1.24566.8382.54716.50059.87313 1.23402.3376.73342.3376 1.78117 0 1.14088-.39581 2.14206-.38418.98954-1.14088 1.73461-.74507.73342-1.82774 1.16416-1.08268.4191-2.47968.4191-.80327 0-1.58326-.16298-.77999-.15134-1.50177-.44238-.71014-.29104-1.33879-.6985-.61701-.40746-1.10596-.90805l.90805-1.50177q.12806-.16299.30268-.26776.18627-.11642.40746-.11642.29104 0 .62865.24448.33761.23283.79163.52387.46567.29104 1.08267.53552.62865.23283 1.50178.23283 1.33879 0 2.07221-.62865.73343-.64029.73343-1.82774 0-.66357-.33761-1.08267-.32597-.4191-.87313-.6985-.54715-.29104-1.24565-.48895-.6985-.19791-1.42028-.43074-.72179-.23283-1.42029-.5588-.69849-.32597-1.24565-.84984-.54716-.52387-.88477-1.30386-.32596-.79164-.32596-1.94416 0-.91969.36089-1.79281.37253-.87313 1.07103-1.54834.71014-.67522 1.73461-1.08268 1.02446-.40746 2.33997-.40746 1.49013 0 2.74743.46567 1.25729.46567 2.14206 1.30387zM206.62555 168.71591q0 1.85103-.61701 3.43429-.617 1.57162-1.7346 2.72415-1.1176 1.15252-2.68922 1.80445-1.57163.64029-3.48086.64029-1.90923 0-3.49249-.64029-1.57163-.65193-2.70087-1.80445-1.11759-1.15253-1.7346-2.72415-.61701-1.58326-.61701-3.43429 0-1.85102.61701-3.42264.61701-1.58327 1.7346-2.73579 1.12924-1.15252 2.70087-1.79281 1.58326-.65194 3.49249-.65194 1.90923 0 3.48086.65194 1.57162.65193 2.68922 1.80445 1.1176 1.14088 1.7346 2.72415.61701 1.57162.61701 3.42264zm-3.2131 0q0-1.38535-.37253-2.47967-.36089-1.10595-1.04775-1.8743-.68685-.76835-1.67639-1.17581-.9779-.40746-2.21192-.40746-1.23401 0-2.22355.40746-.98954.40746-1.68804 1.17581-.68686.76835-1.05939 1.8743-.37254 1.09432-.37254 2.47967 0 1.38536.37254 2.49132.37253 1.09431 1.05939 1.86266.6985.75671 1.68804 1.16417.98954.40745 2.22355.40745 1.23402 0 2.21192-.40745.98954-.40746 1.67639-1.16417.68686-.76835 1.04775-1.86266.37253-1.10596.37253-2.49132zM219.69512 160.299v2.49131h-7.4623v4.98263h6.29814v2.50296h-6.29814v6.85693h-3.15488V160.299ZM233.99216 160.299v2.57281h-5.06412v14.26102h-3.1316v-14.26102h-5.0874V160.299ZM234.43927 160.299h2.63102q.40745 0 .67521.19791.2794.18627.37253.51223l2.86385 10.07003q.10478.37253.18627.81491.0931.43075.17462.9197.0931-.48895.19791-.9197.11642-.44238.24447-.81491l3.30623-10.07003q.0931-.26776.36089-.48895.2794-.22119.67522-.22119h.91969q.40746 0 .67522.19791.26775.18627.37253.51223l3.28294 10.07003q.25612.74506.44239 1.65311.0815-.45402.16298-.87312.0931-.4191.18627-.77999l2.86384-10.07003q.0815-.29104.36089-.50059.2794-.20955.67522-.20955h2.45639l-5.2271 16.83383h-2.82892l-3.67877-11.50195q-.0698-.22119-.15134-.47731-.0699-.25612-.1397-.54716-.0699.29104-.15134.54716-.0699.25612-.1397.47731l-3.71369 11.50195h-2.82892zM273.80624 177.13283h-2.42147q-.40745 0-.67521-.19791-.25612-.20955-.37254-.51223l-1.25729-3.43429h-6.97335l-1.2573 3.43429q-.0931.26775-.37253.48895-.26776.22119-.66358.22119h-2.4331l6.61246-16.83383h3.20145zm-10.89659-6.35634h5.3668l-2.04893-5.59964q-.1397-.37253-.31432-.87312-.16299-.51223-.32597-1.10596-.16298.59373-.32597 1.10596-.15134.51223-.30268.89641zM278.79905 170.55529v6.57754h-3.13161V160.299h5.13397q1.72297 0 2.94534.36089 1.23401.34925 2.01401.98954.79163.64029 1.15252 1.5367.37253.88477.37253 1.9558 0 .84984-.25611 1.60655-.24448.7567-.72179 1.37371-.46566.61701-1.16416 1.08267-.68686.46567-1.57162.74507.59372.33761 1.02446.96626l4.21428 6.21664h-2.81728q-.40746 0-.6985-.16299-.2794-.16298-.47731-.46566l-3.53906-5.39009q-.19791-.30268-.44238-.43074-.23284-.12806-.6985-.12806zm0-2.24683h1.9558q.88476 0 1.53669-.22119.66358-.2212 1.08268-.60537.43074-.39582.64029-.93133.20955-.53552.20955-1.17581 0-1.28058-.84984-1.96744-.8382-.68686-2.57281-.68686h-2.00236zM301.41405 160.299v2.49131h-7.4623v4.66831h5.87903v2.40982h-5.87903v4.76143h7.4623v2.50296h-10.61719V160.299ZM317.64542 163.36076q-.12806.25611-.30268.36089-.16299.10477-.39582.10477t-.52387-.17462q-.29105-.18627-.68686-.40746-.39582-.22119-.93133-.39582-.52388-.18626-1.24566-.18626-.65193 0-1.14088.16298-.47731.15134-.81492.43074-.32596.2794-.48895.67522-.16298.38417-.16298.84984 0 .59372.32597.98954.3376.39581.88476.67521t1.24566.50059q.6985.22119 1.42028.47731.73342.24448 1.43192.58208.6985.32597 1.24566.8382.54716.50059.87312 1.23402.33761.73342.33761 1.78117 0 1.14088-.39582 2.14206-.38417.98954-1.14088 1.73461-.74506.73342-1.82774 1.16416-1.08267.4191-2.47967.4191-.80327 0-1.58326-.16298-.77999-.15134-1.50177-.44238-.71015-.29104-1.33879-.6985-.61701-.40746-1.10596-.90805l.90805-1.50177q.12806-.16299.30268-.26776.18627-.11642.40746-.11642.29104 0 .62865.24448.33761.23283.79163.52387.46567.29104 1.08267.53552.62865.23283 1.50178.23283 1.33879 0 2.07221-.62865.73342-.64029.73342-1.82774 0-.66357-.3376-1.08267-.32597-.4191-.87313-.6985-.54716-.29104-1.24565-.48895-.6985-.19791-1.42029-.43074-.72178-.23283-1.42028-.5588t-1.24565-.84984q-.54716-.52387-.88477-1.30386-.32597-.79164-.32597-1.94416 0-.91969.3609-1.79281.37253-.87313 1.07103-1.54834.71014-.67522 1.7346-1.08268 1.02447-.40746 2.33997-.40746 1.49014 0 2.74743.46567 1.2573.46567 2.14207 1.30387zM328.6144 170.59022v6.54261h-3.13161v-6.54261l-6.13515-10.29122h2.75908q.40745 0 .64029.19791.24447.19791.40745.50059l3.08504 5.62292q.26776.50059.46567.95461.19791.44239.36089.87313.15134-.44239.33761-.88477.1979-.45402.46566-.94297l3.06176-5.62292q.12805-.25612.38417-.47731t.65193-.22119h2.77072zM345.38529 163.36076q-.12806.25611-.30269.36089-.16298.10477-.39581.10477-.23283 0-.52388-.17462-.29104-.18627-.68685-.40746-.39582-.22119-.93134-.39582-.52387-.18626-1.24565-.18626-.65193 0-1.14088.16298-.47731.15134-.81492.43074-.32597.2794-.48895.67522-.16298.38417-.16298.84984 0 .59372.32596.98954.33761.39581.88477.67521.54716.2794 1.24566.50059t1.42028.47731q.73342.24448 1.43192.58208.6985.32597 1.24566.8382.54716.50059.87312 1.23402.33761.73342.33761 1.78117 0 1.14088-.39582 2.14206-.38417.98954-1.14088 1.73461-.74506.73342-1.82774 1.16416-1.08267.4191-2.47967.4191-.80327 0-1.58326-.16298-.77999-.15134-1.50178-.44238-.71014-.29104-1.33879-.6985-.617-.40746-1.10595-.90805l.90805-1.50177q.12805-.16299.30268-.26776.18626-.11642.40746-.11642.29104 0 .62865.24448.3376.23283.79163.52387.46566.29104 1.08267.53552.62865.23283 1.50177.23283 1.33879 0 2.07222-.62865.73342-.64029.73342-1.82774 0-.66357-.33761-1.08267-.32596-.4191-.87312-.6985-.54716-.29104-1.24566-.48895-.6985-.19791-1.42028-.43074t-1.42028-.5588q-.6985-.32597-1.24566-.84984-.54715-.52387-.88476-1.30386-.32597-.79164-.32597-1.94416 0-.91969.36089-1.79281.37254-.87313 1.07104-1.54834.71014-.67522 1.7346-1.08268 1.02447-.40746 2.33997-.40746 1.49013 0 2.74743.46567t2.14207 1.30387zM360.73153 160.299v2.57281h-5.06412v14.26102h-3.13161v-14.26102h-5.0874V160.299ZM373.3558 160.299v2.49131h-7.46229v4.66831h5.87903v2.40982h-5.87903v4.76143h7.46229v2.50296h-10.61718V160.299ZM384.51469 170.14784q.19791.37253.36089.77999.17463.39581.33761.80327.16298-.4191.33761-.82656.17462-.40745.37253-.77999l4.98263-9.32496q.0931-.17462.18626-.2794.10478-.10477.22119-.15134.12806-.0466.2794-.0582.15135-.0116.3609-.0116h2.36325v16.83383h-2.75907v-10.8733q0-.30269.0116-.66358.0233-.36089.0582-.73342l-5.0874 9.54615q-.17463.32597-.45403.51223-.2794.17463-.65193.17463h-.43074q-.37253 0-.65193-.17463-.2794-.18626-.45403-.51223l-5.15725-9.58108q.0466.38418.0582.75671.0233.36089.0233.67522v10.8733h-2.75907V160.299h2.36326q.20955 0 .36089.0116t.26776.0582q.12806.0466.23283.15134.10477.10478.19791.2794l5.02919 9.34825zM406.73133 163.36076q-.12806.25611-.30269.36089-.16298.10477-.39581.10477-.23284 0-.52388-.17462-.29104-.18627-.68685-.40746-.39582-.22119-.93134-.39582-.52387-.18626-1.24565-.18626-.65194 0-1.14088.16298-.47731.15134-.81492.43074-.32597.2794-.48895.67522-.16298.38417-.16298.84984 0 .59372.32596.98954.33761.39581.88477.67521.54716.2794 1.24566.50059.69849.22119 1.42028.47731.73342.24448 1.43192.58208.6985.32597 1.24566.8382.54715.50059.87312 1.23402.33761.73342.33761 1.78117 0 1.14088-.39582 2.14206-.38417.98954-1.14088 1.73461-.74507.73342-1.82774 1.16416-1.08267.4191-2.47967.4191-.80327 0-1.58326-.16298-.78-.15134-1.50178-.44238-.71014-.29104-1.33879-.6985-.617-.40746-1.10595-.90805l.90804-1.50177q.12806-.16299.30269-.26776.18626-.11642.40746-.11642.29104 0 .62864.24448.33761.23283.79164.52387.46566.29104 1.08267.53552.62865.23283 1.50177.23283 1.33879 0 2.07222-.62865.73342-.64029.73342-1.82774 0-.66357-.33761-1.08267-.32596-.4191-.87312-.6985-.54716-.29104-1.24566-.48895-.6985-.19791-1.42028-.43074t-1.42028-.5588q-.6985-.32597-1.24566-.84984-.54715-.52387-.88476-1.30386-.32597-.79164-.32597-1.94416 0-.91969.36089-1.79281.37254-.87313 1.07103-1.54834.71015-.67522 1.73461-1.08268 1.02447-.40746 2.33997-.40746 1.49013 0 2.74743.46567t2.14207 1.30387z" style="font-weight:700;font-size:23.2833px;line-height:1.25;font-family:Lato;-inkscape-font-specification:'Lato Bold';text-align:center;letter-spacing:0;baseline-shift:baseline;text-anchor:middle;vector-effect:none;fill:#fcfbfb;stroke-width:.264583;stop-color:#000" transform="matrix(1.45731 0 0 1.45731 -101.70788 -181.245644)"/></g><g style="display:inline"><path style="display:inline;fill:#fff;fill-opacity:1;stroke:none;stroke-width:2;stroke-miterlimit:4;stroke-dasharray:none;stroke-opacity:1;stop-color:#000" d="M928.86914-425.63086c-146.89103 0-265.96871 70.99858-265.96875 158.58008 0 87.58188 119.07772 158.58203 265.96875 158.58203 146.89106 0 265.97066-71.00015 265.97066-158.58203 0-87.5815-119.0796-158.58008-265.97066-158.58008zm99.64256 60.57813c90.7787 0 164.3692 43.87646 164.3692 98.00195 0 54.12549-73.5905 98.0039-164.3692 98.0039-90.77862.00001-164.36912-43.87841-164.36912-98.0039.00004-54.12549 73.5905-98.00195 164.36912-98.00195z" transform="translate(-174.51649 112.05243) scale(.26326)"/><path style="display:inline;fill:#fff;fill-opacity:1;stroke:none;stroke-width:2;stroke-miterlimit:4;stroke-dasharray:none;stroke-opacity:1;stop-color:#000" d="M1089.3418-327.61523c-56.1012 0-101.58004 27.11487-101.58008 60.56445 0 33.44958 45.47888 60.56641 101.58008 60.5664 56.1012 0 101.5801-27.11682 101.5801-60.5664s-45.4789-60.56445-101.5801-60.56445zm35.8047 23.13476c34.6705 0 62.7754 16.75794 62.7754 37.42969 0 20.67213-28.1049 37.42969-62.7754 37.42969-34.6706 0-62.7774-16.75756-62.7774-37.42969.0001-20.67175 28.1068-37.42969 62.7774-37.42969z" transform="translate(-174.51649 112.05243) scale(.26326)"/><path style="display:inline;fill:#fff;fill-opacity:1;stroke:none;stroke-width:.529;stroke-miterlimit:4;stroke-dasharray:none;stroke-opacity:1;stop-color:#000" d="M313.51078-70.6571c0-3.3801-4.59568-6.1201-10.26474-6.1201-5.66907 0-10.26475 2.74-10.26477 6.1201 0 3.3802 4.59569 6.1203 10.26477 6.1203 5.66906 0 10.26474-2.7401 10.26474-6.1203z" transform="matrix(.995 0 0 .995 -174.51649 112.05243)"/></g></g></svg>