<svg width="1816.0896" height="315.57828" viewBox="0 0 480.50692 83.496734" xmlns="http://www.w3.org/2000/svg"><defs><path id="c" d="M1600.6648 5530.2114h158.57976v94.550331H1600.6648z"/><path id="b" d="M157-13h55v40h-55z"/><filter style="color-interpolation-filters:sRGB" id="a" x="-.05642297" y="-.03515585" width="1.1128459" height="1.0703117"><feGaussianBlur stdDeviation="1.1384116"/></filter></defs><text xml:space="preserve" transform="matrix(.26458 0 0 .26458 254.88301 -1974.3995)" style="font-size:36px;line-height:1.25;font-family:Lato;-inkscape-font-specification:Lato;text-align:center;letter-spacing:0;white-space:pre;shape-inside:url(#b)"><tspan x="157" y="60.48"><tspan dx="0 20.882812 20.039062 14.484375 18.84375">Ehret</tspan></tspan></text><g style="display:inline"><g style="display:inline"><path style="display:inline;fill:#fff;fill-opacity:1;stroke:none;stroke-width:2;stroke-miterlimit:4;stroke-dasharray:none;stroke-opacity:1;stop-color:#000" d="M928.86914-425.63086c-146.89103 0-265.96871 70.99858-265.96875 158.58008 0 87.58188 119.07772 158.58203 265.96875 158.58203 146.89106 0 265.97066-71.00015 265.97066-158.58203 0-87.5815-119.0796-158.58008-265.97066-158.58008zm99.64256 60.57813c90.7787 0 164.3692 43.87646 164.3692 98.00195 0 54.12549-73.5905 98.0039-164.3692 98.0039-90.77862.00001-164.36912-43.87841-164.36912-98.0039.00004-54.12549 73.5905-98.00195 164.36912-98.00195z" transform="translate(-174.51649 112.05243) scale(.26326)"/><path style="display:inline;fill:#fff;fill-opacity:1;stroke:none;stroke-width:2;stroke-miterlimit:4;stroke-dasharray:none;stroke-opacity:1;stop-color:#000" d="M1089.3418-327.61523c-56.1012 0-101.58004 27.11487-101.58008 60.56445 0 33.44958 45.47888 60.56641 101.58008 60.5664 56.1012 0 101.5801-27.11682 101.5801-60.5664s-45.4789-60.56445-101.5801-60.56445zm35.8047 23.13476c34.6705 0 62.7754 16.75794 62.7754 37.42969 0 20.67213-28.1049 37.42969-62.7754 37.42969-34.6706 0-62.7774-16.75756-62.7774-37.42969.0001-20.67175 28.1068-37.42969 62.7774-37.42969z" transform="translate(-174.51649 112.05243) scale(.26326)"/><path style="display:inline;fill:#fff;fill-opacity:1;stroke:none;stroke-width:.529;stroke-miterlimit:4;stroke-dasharray:none;stroke-opacity:1;stop-color:#000" d="M313.51078-70.6571c0-3.3801-4.59568-6.1201-10.26474-6.1201-5.66907 0-10.26475 2.74-10.26477 6.1201 0 3.3802 4.59569 6.1203 10.26477 6.1203 5.66906 0 10.26474-2.7401 10.26474-6.1203z" transform="matrix(.995 0 0 .995 -174.51649 112.05243)"/></g><g style="display:inline"><path d="M-262.36273 1634.5309v2.4913h-7.46229v4.6683h5.87903v2.4099h-5.87903v4.7614h7.46229v2.5029h-10.61718v-16.8338zM-245.45286 1651.3647h-3.15489v-7.3575h-7.89304v7.3575h-3.15489v-16.8338h3.15489v7.2411h7.89304v-7.2411h3.15489zM-238.8204 1644.7872v6.5775h-3.1316v-16.8338h5.13397q1.72296 0 2.94533.3609 1.23402.3493 2.01401.9896.79163.6402 1.15252 1.5366.37254.8848.37254 1.9558 0 .8499-.25612 1.6066-.24448.7567-.72178 1.3737-.46567.617-1.16417 1.0827-.68686.4656-1.57162.745.59372.3377 1.02446.9663l4.21428 6.2166h-2.81728q-.40746 0-.6985-.1629-.2794-.163-.4773-.4657l-3.53907-5.3901q-.1979-.3027-.44238-.4307-.23283-.1281-.6985-.1281zm0-2.2468h1.9558q.88477 0 1.5367-.2212.66357-.2212 1.08267-.6054.43074-.3958.64029-.9313.20955-.5355.20955-1.1758 0-1.2806-.84984-1.9675-.8382-.6868-2.5728-.6868h-2.00237zM-216.2054 1634.5309v2.4913h-7.4623v4.6683h5.87904v2.4099h-5.87904v4.7614h7.4623v2.5029h-10.61718v-16.8338zM-201.63551 1634.5309v2.5728h-5.06412v14.261h-3.1316v-14.261h-5.08741v-2.5728zM-191.59895 1651.3647h-3.14325v-16.8338h3.14325zM-186.1634 1634.5309q.20955 0 .34925.023.1397.012.24448.07.11641.046.22119.1513.10477.093.23283.2561l8.83601 11.2575q-.0466-.4075-.0699-.7916-.0116-.3959-.0116-.7335v-10.233h2.75907v16.8338h-1.61818q-.37254 0-.61701-.1164-.24448-.1164-.47731-.4191l-8.80109-11.2109q.0349.3726.0466.7451.0233.3609.0233.6636v10.3377h-2.75907v-16.8338h1.64147zM-162.47591 1649.0597q1.05939 0 1.83938-.1863.79163-.1979 1.50177-.5355v-3.0617h-2.10714q-.30268 0-.47731-.163-.17462-.1746-.17462-.4191v-1.7696h5.59963v6.8104q-.64029.4657-1.33879.8149-.68685.3376-1.47849.5588-.77999.2212-1.67639.326-.89641.1164-1.93252.1164-1.83938 0-3.38772-.6403-1.54834-.6403-2.67758-1.7812-1.12924-1.1408-1.76953-2.7241-.62865-1.5833-.62865-3.4576 0-1.8976.61701-3.4808.61701-1.5833 1.74625-2.7242 1.14088-1.1408 2.75907-1.7695 1.61819-.6286 3.63219-.6286 2.06058 0 3.56235.617 1.51341.6053 2.56116 1.5832l-.90805 1.4203q-.26776.4307-.71014.4307-.2794 0-.57044-.1862-.37253-.2212-.76835-.4424-.38417-.2212-.86148-.3842-.46567-.163-1.05939-.2677-.58208-.1048-1.35043-.1048-1.24566 0-2.25848.4191-1.00118.4191-1.71132 1.1991t-1.09432 1.8743q-.38417 1.0943-.38417 2.4447 0 1.4552.40745 2.5961.40746 1.1293 1.14089 1.9093.73342.7799 1.74624 1.199 1.01283.4075 2.21192.4075zM-142.76296 1634.5309v2.4913h-7.46229v4.6683h5.87903v2.4099h-5.87903v4.7614h7.46229v2.5029h-10.61718v-16.8338zM-138.41444 1634.5309q.20955 0 .34925.023.1397.012.24447.07.11642.046.22119.1513.10478.093.23284.2561l8.83601 11.2575q-.0466-.4075-.0699-.7916-.0116-.3959-.0116-.7335v-10.233h2.75907v16.8338h-1.61819q-.37253 0-.61701-.1164-.24447-.1164-.47731-.4191l-8.80108-11.2109q.0349.3726.0466.7451.0233.3609.0233.6636v10.3377h-2.75907v-16.8338h1.64147zM-118.92959 1651.3647h-3.14324v-16.8338h3.14324zM-104.51832 1634.5309v2.4913h-7.4623v4.6683h5.87904v2.4099h-5.87904v4.7614h7.4623v2.5029h-10.61718v-16.8338zM-95.035829 1648.8385q.908048 0 1.618189-.3027.721782-.3027 1.210732-.8498.50059-.5472.756707-1.3272.267758-.78.267758-1.7462v-10.0817h3.131604v10.0817q0 1.5018-.48895 2.7823-.477307 1.269-1.385356 2.2003-.908049.9197-2.200272 1.4436-1.292223.5122-2.910412.5122-1.61819 0-2.910413-.5122-1.292223-.5239-2.200268-1.4436-.89641-.9313-1.38536-2.2003-.47731-1.2805-.47731-2.7823v-10.0817h3.131606v10.07q0 .9663.256116 1.7463.267758.78.756708 1.3388.488949.5471 1.199089.8498.721783.3027 1.629832.3027zM-81.612641 1644.7872v6.5775h-3.131604v-16.8338h5.133967q1.722965 0 2.945338.3609 1.234015.3493 2.014005.9896.791633.6402 1.152524 1.5366.372533.8848.372533 1.9558 0 .8499-.256117 1.6066-.244474.7567-.721782 1.3737-.465666.617-1.164165 1.0827-.686857.4656-1.571623.745.593724.3377 1.024465.9663l4.214278 6.2166h-2.81728q-.407457 0-.698499-.1629-.279399-.163-.477307-.4657l-3.539062-5.3901q-.197908-.3027-.442383-.4307-.232833-.1281-.698499-.1281zm0-2.2468h1.955797q.884765 0 1.536698-.2212.663574-.2212 1.082673-.6054.430741-.3958.640291-.9313.20955-.5355.20955-1.1758 0-1.2806-.849841-1.9675-.838199-.6868-2.572805-.6868h-2.002363zM-69.614828 1651.3647v-16.8338h5.809183q1.653115 0 2.81728.3143 1.175806.3144 1.920872.8965.756707.582 1.105957 1.4086.349249.8265.349249 1.8627 0 .5937-.174625 1.1408-.174624.5356-.547157 1.0129-.360891.4656-.931332.8498-.558799.3842-1.33879.6519 3.469212.78 3.469212 3.7486 0 1.0711-.407458 1.9791-.407458.9081-1.187448 1.5716-.779991.652-1.920873 1.0245-1.140881.3725-2.607729.3725zm3.131604-7.3808v4.9361h3.17817q.873124 0 1.455206-.2096.593725-.2095.942974-.5587.360891-.3493.512233-.815.162983-.4656.162983-.9895 0-.5472-.174625-.9779-.174625-.4424-.547158-.7451-.372532-.3143-.954615-.4773-.582082-.163-1.40864-.163zm0-2.1653h2.502954q1.594907 0 2.421464-.5821.826557-.5821.826557-1.851 0-1.3155-.745066-1.8743-.745065-.5588-2.32833-.5588h-2.677579zM-47.650682 1648.8385q.908048 0 1.618189-.3027.721782-.3027 1.210732-.8498.500591-.5472.756707-1.3272.267758-.78.267758-1.7462v-10.0817h3.131604v10.0817q0 1.5018-.48895 2.7823-.477307 1.269-1.385356 2.2003-.908049.9197-2.200272 1.4436-1.292223.5122-2.910412.5122-1.61819 0-2.910413-.5122-1.292223-.5239-2.200272-1.4436-.896407-.9313-1.385356-2.2003-.477308-1.2805-.477308-2.7823v-10.0817h3.131604v10.07q0 .9663.256116 1.7463.267758.78.756708 1.3388.488949.5471 1.19909.8498.721782.3027 1.629831.3027zm-.954616-16.8804q0 .3143-.128058.5937t-.349249.489q-.221192.2095-.512233.326-.291041.1164-.617007.1164-.302683 0-.582083-.1164-.267758-.1165-.477308-.326-.209549-.2096-.337607-.489-.116417-.2794-.116417-.5937t.116417-.5937q.128058-.2911.337607-.5006.20955-.2212.477308-.3492.2794-.1281.582083-.1281.325966 0 .617007.1281.291041.128.512233.3492.221191.2095.349249.5006.128058.2794.128058.5937zm5.029193 0q0 .3143-.128058.5937-.116416.2794-.325966.489-.20955.2095-.500591.326-.2794.1164-.605366.1164-.314325 0-.605366-.1164-.279399-.1165-.500591-.326-.209549-.2096-.337608-.489-.116416-.2794-.116416-.5937t.116416-.5937q.128059-.2911.337608-.5006.221192-.2212.500591-.3492.291041-.1281.605366-.1281.325966 0 .605366.1281.291041.128.500591.3492.20955.2095.325966.5006.128058.2794.128058.5937zM-34.227494 1644.7872v6.5775h-3.131604v-16.8338h5.133968q1.722964 0 2.945337.3609 1.234015.3493 2.014006.9896.791632.6402 1.152523 1.5366.372533.8848.372533 1.9558 0 .8499-.256117 1.6066-.244474.7567-.721782 1.3737-.465666.617-1.164165 1.0827-.686857.4656-1.571623.745.593724.3377 1.024465.9663l4.214278 6.2166h-2.817279q-.407458 0-.698499-.1629-.2794-.163-.477308-.4657l-3.539062-5.3901q-.197908-.3027-.442383-.4307-.232833-.1281-.698499-.1281zm0-2.2468h1.955797q.884765 0 1.536698-.2212.663574-.2212 1.082673-.6054.430741-.3958.640291-.9313.20955-.5355.20955-1.1758 0-1.2806-.849841-1.9675-.838199-.6868-2.572804-.6868h-2.002364zM-6.6284124 1642.9478q0 1.8511-.6170075 3.4343-.6170074 1.5716-1.7346059 2.7242-1.1175982 1.1525-2.6892212 1.8044-1.571623.6403-3.480853.6403-1.909231 0-3.492495-.6403-1.571623-.6519-2.700863-1.8044-1.117599-1.1526-1.734606-2.7242-.617008-1.5832-.617008-3.4343 0-1.851.617008-3.4226.617007-1.5833 1.734606-2.7358 1.12924-1.1525 2.700863-1.7928 1.583264-.6519 3.492495-.6519 1.90923 0 3.480853.6519 1.571623.6519 2.6892212 1.8044 1.1175985 1.1409 1.7346059 2.7242.6170075 1.5716.6170075 3.4226zm-3.2130955 0q0-1.3853-.3725331-2.4796-.360891-1.106-1.047748-1.8743-.686858-.7684-1.676398-1.1759-.977898-.4074-2.211913-.4074-1.234015 0-2.223556.4074-.98954.4075-1.688039 1.1759-.686857.7683-1.05939 1.8743-.372533 1.0943-.372533 2.4796 0 1.3854.372533 2.4913.372533 1.0944 1.05939 1.8627.698499.7567 1.688039 1.1642.989541.4074 2.223556.4074 1.234015 0 2.211913-.4074.98954-.4075 1.676398-1.1642.686857-.7683 1.047748-1.8627.3725331-1.1059.3725331-2.4913z" style="font-weight:700;font-size:23.2833px;line-height:1.25;font-family:Lato;-inkscape-font-specification:'Lato Bold';text-align:center;letter-spacing:0;text-anchor:middle;fill:#fcfbfb;stroke-width:.264583" transform="matrix(1.02918 0 0 1.02918 465.390307 -1663.49023654)"/></g><g style="display:inline"><path d="M-243.83486 1666.6968q-.12806.2561-.30268.3609-.16298.1048-.39582.1048-.23283 0-.52387-.1747-.29104-.1862-.68686-.4074-.39581-.2212-.93133-.3958-.52387-.1863-1.24566-.1863-.65193 0-1.14088.163-.47731.1513-.81491.4307-.32597.2794-.48895.6752-.16299.3842-.16299.8499 0 .5937.32597.9895.33761.3958.88477.6752.54715.2794 1.24565.5006.6985.2212 1.42028.4773.73343.2445 1.43193.5821.6985.326 1.24565.8382.54716.5006.87313 1.234.3376.7335.3376 1.7812 0 1.1409-.39581 2.1421-.38418.9895-1.14088 1.7346-.74507.7334-1.82774 1.1641-1.08268.4191-2.47967.4191-.80328 0-1.58327-.1629-.77999-.1514-1.50177-.4424-.71014-.2911-1.33879-.6985-.61701-.4075-1.10596-.9081l.90805-1.5017q.12806-.163.30268-.2678.18627-.1164.40746-.1164.29104 0 .62865.2445.33761.2328.79163.5238.46567.2911 1.08268.5355.62865.2329 1.50177.2329 1.33879 0 2.07221-.6287.73343-.6403.73343-1.8277 0-.6636-.33761-1.0827-.32597-.4191-.87312-.6985-.54716-.291-1.24566-.4889-.6985-.1979-1.42028-.4308-.72178-.2328-1.42028-.5588-.6985-.3259-1.24566-.8498t-.88477-1.3039q-.32596-.7916-.32596-1.9441 0-.9197.36089-1.7929.37253-.8731 1.07103-1.5483.71014-.6752 1.73461-1.0827 1.02446-.4074 2.33997-.4074 1.49013 0 2.74743.4656 1.2573.4657 2.14206 1.3039zM-224.20449 1672.052q0 1.851-.61701 3.4342-.617 1.5717-1.7346 2.7242t-2.68922 1.8044q-1.57163.6403-3.48086.6403-1.90923 0-3.49249-.6403-1.57162-.6519-2.70086-1.8044-1.1176-1.1525-1.73461-2.7242-.61701-1.5832-.61701-3.4342 0-1.8511.61701-3.4227.61701-1.5833 1.73461-2.7358 1.12924-1.1525 2.70086-1.7928 1.58326-.6519 3.49249-.6519 1.90923 0 3.48086.6519 1.57162.6519 2.68922 1.8045 1.1176 1.1408 1.7346 2.7241.61701 1.5716.61701 3.4227zm-3.21309 0q0-1.3854-.37254-2.4797-.36089-1.106-1.04774-1.8743-.68686-.7684-1.6764-1.1758-.9779-.4075-2.21192-.4075-1.23401 0-2.22355.4075-.98954.4074-1.68804 1.1758-.68686.7683-1.05939 1.8743-.37253 1.0943-.37253 2.4797 0 1.3853.37253 2.4913.37253 1.0943 1.05939 1.8626.6985.7567 1.68804 1.1642.98954.4075 2.22355.4075 1.23402 0 2.21192-.4075.98954-.4075 1.6764-1.1642.68685-.7683 1.04774-1.8626.37254-1.106.37254-2.4913zM-211.13492 1663.635v2.4914h-7.46229v4.9826h6.29813v2.5029h-6.29813v6.857h-3.15489v-16.8339zM-196.83788 1663.635v2.5729h-5.06411v14.261h-3.13161v-14.261h-5.0874v-2.5729zM-196.39076 1663.635h2.63101q.40746 0 .67521.198.2794.1862.37254.5122l2.86384 10.07q.10478.3725.18627.8149.0931.4308.17462.9197.0931-.4889.19791-.9197.11642-.4424.24448-.8149l3.30622-10.07q.0931-.2678.3609-.489.2794-.2212.67521-.2212h.91969q.40746 0 .67522.198.26776.1862.37253.5122l3.28295 10.07q.25611.7451.44238 1.6531.0815-.454.16298-.8731.0931-.4191.18627-.78l2.86384-10.07q.0815-.2911.3609-.5006.27939-.2096.67521-.2096h2.45639l-5.2271 16.8339h-2.82892l-3.67876-11.502q-.0699-.2212-.15135-.4773-.0698-.2561-.1397-.5471-.0699.291-.15134.5471-.0699.2561-.1397.4773l-3.71368 11.502h-2.82892zM-157.0238 1680.4689h-2.42147q-.40745 0-.67521-.1979-.25612-.2096-.37253-.5123l-1.2573-3.4343h-6.97335l-1.2573 3.4343q-.0931.2678-.37253.489-.26776.2212-.66358.2212h-2.4331l6.61246-16.8339h3.20145zm-10.89659-6.3564h5.3668l-2.04893-5.5996q-.1397-.3725-.31432-.8731-.16298-.5123-.32597-1.106-.16298.5937-.32596 1.106-.15134.5122-.30269.8964zM-152.03099 1673.8913v6.5776h-3.1316v-16.8339h5.13396q1.72297 0 2.94534.3609 1.23402.3493 2.01401.9896.79163.6403 1.15252 1.5367.37253.8847.37253 1.9558 0 .8498-.25611 1.6065-.24448.7567-.72179 1.3737-.46566.617-1.16416 1.0827-.68686.4657-1.57162.7451.59372.3376 1.02446.9662l4.21428 6.2167h-2.81728q-.40746 0-.6985-.163-.2794-.163-.47731-.4657l-3.53906-5.3901q-.19791-.3026-.44238-.4307-.23283-.1281-.6985-.1281zm0-2.2468h1.9558q.88476 0 1.5367-.2212.66357-.2212 1.08267-.6054.43074-.3958.64029-.9313.20955-.5355.20955-1.1758 0-1.2806-.84984-1.9674-.8382-.6869-2.57281-.6869h-2.00236zM-129.41599 1663.635v2.4914h-7.4623v4.6683h5.87903v2.4098h-5.87903v4.7614h7.4623v2.503h-10.61719v-16.8339zM-117.68666 1666.6968q-.12806.2561-.30269.3609-.16298.1048-.39581.1048-.23284 0-.52388-.1747-.29104-.1862-.68685-.4074-.39582-.2212-.93134-.3958-.52387-.1863-1.24565-.1863-.65194 0-1.14088.163-.47731.1513-.81492.4307-.32597.2794-.48895.6752-.16298.3842-.16298.8499 0 .5937.32596.9895.33761.3958.88477.6752.54716.2794 1.24566.5006.69849.2212 1.42028.4773.73342.2445 1.43192.5821.6985.326 1.24566.8382.54715.5006.87312 1.234.33761.7335.33761 1.7812 0 1.1409-.39582 2.1421-.38417.9895-1.14088 1.7346-.74507.7334-1.82774 1.1641-1.08267.4191-2.47967.4191-.80327 0-1.58326-.1629-.78-.1514-1.50178-.4424-.71014-.2911-1.33879-.6985-.617-.4075-1.10595-.9081l.90804-1.5017q.12806-.163.30269-.2678.18626-.1164.40746-.1164.29104 0 .62864.2445.33761.2328.79164.5238.46566.2911 1.08267.5355.62865.2329 1.50177.2329 1.33879 0 2.07222-.6287.73342-.6403.73342-1.8277 0-.6636-.33761-1.0827-.32596-.4191-.87312-.6985-.54716-.291-1.24566-.4889-.6985-.1979-1.42028-.4308-.72178-.2328-1.42028-.5588-.6985-.3259-1.24566-.8498-.54715-.5239-.88476-1.3039-.32597-.7916-.32597-1.9441 0-.9197.36089-1.7929.37254-.8731 1.07103-1.5483.71015-.6752 1.73461-1.0827 1.02447-.4074 2.33997-.4074 1.49013 0 2.74743.4656 1.2573.4657 2.14207 1.3039zM-106.71769 1673.9263v6.5426h-3.1316v-6.5426l-6.13515-10.2913h2.75907q.40746 0 .64029.198.24448.1979.40746.5005l3.08504 5.623q.26776.5006.46566.9546.19791.4424.3609.8731.15134-.4424.3376-.8848.19791-.454.46567-.9429l3.06175-5.623q.12806-.2561.38418-.4773.25611-.2212.65193-.2212h2.77071zM-89.946795 1666.6968q-.128059.2561-.302683.3609-.162983.1048-.395816.1048t-.523875-.1747q-.291041-.1862-.686857-.4074-.395816-.2212-.931332-.3958-.523874-.1863-1.245657-.1863-.651932 0-1.140881.163-.477308.1513-.814916.4307-.325966.2794-.488949.6752-.162983.3842-.162983.8499 0 .5937.325966.9895.337608.3958.884765.6752.547158.2794 1.245657.5006.698499.2212 1.420281.4773.733424.2445 1.431923.5821.698499.326 1.245657.8382.547157.5006.873124 1.234.337607.7335.337607 1.7812 0 1.1409-.395816 2.1421-.384174.9895-1.140881 1.7346-.745066.7334-1.827739 1.1641-1.082674.4191-2.479672.4191-.803274 0-1.583264-.1629-.779991-.1514-1.501773-.4424-.710141-.2911-1.33879-.6985-.617007-.4075-1.105961-.9081l.908053-1.5017q.128058-.163.302683-.2678.186266-.1164.407458-.1164.291041 0 .628649.2445.337608.2328.791632.5238.465666.2911 1.082673.5355.62865.2329 1.501773.2329 1.33879 0 2.072214-.6287.733424-.6403.733424-1.8277 0-.6636-.337608-1.0827-.325966-.4191-.873124-.6985-.547157-.291-1.245656-.4889-.698499-.1979-1.420282-.4308-.721782-.2328-1.420281-.5588-.698499-.3259-1.245656-.8498-.547158-.5239-.884766-1.3039-.325966-.7916-.325966-1.9441 0-.9197.360891-1.7929.372533-.8731 1.071032-1.5483.710141-.6752 1.734606-1.0827 1.024465-.4074 2.339971-.4074 1.490132 0 2.74743.4656 1.257298.4657 2.142064 1.3039zM-74.600556 1663.635v2.5729h-5.064118v14.261h-3.131604v-14.261h-5.087401v-2.5729zM-61.976279 1663.635v2.4914h-7.462298v4.6683h5.879034v2.4098h-5.879034v4.7614h7.462298v2.503h-10.617185v-16.8339zM-50.817392 1673.4839q.197908.3725.360891.78.174625.3958.337608.8032.162983-.4191.337608-.8265.174625-.4075.372533-.78l4.982626-9.325q.09313-.1746.186267-.2794.104774-.1047.221191-.1513.128058-.047.279399-.058.151342-.012.360892-.012h2.363255v16.8339h-2.759071v-10.8733q0-.3027.01164-.6636.02328-.3609.05821-.7334l-5.087401 9.5461q-.174624.326-.454024.5123-.2794.1746-.651932.1746h-.430742q-.372532 0-.651932-.1746-.2794-.1863-.454024-.5123l-5.157251-9.5811q.04657.3842.05821.7568.02328.3608.02328.6752v10.8733h-2.759071v-16.8339h2.363255q.20955 0 .360891.012.151342.012.267758.058.128058.047.232833.1513.104775.1048.197908.2794zM-27.00585 1663.635v2.4914h-7.462298v4.6683h5.879033v2.4098h-5.879033v4.7614h7.462298v2.503h-10.617185v-16.8339z" style="font-weight:700;font-size:23.2833px;line-height:1.25;font-family:Lato;-inkscape-font-specification:'Lato Bold';text-align:center;letter-spacing:0;baseline-shift:baseline;text-anchor:middle;vector-effect:none;fill:#fcfbfb;stroke-width:.264583;stop-color:#000" transform="matrix(1.40007 0 0 1.40007 518.317114 -2281.30243654)"/></g></g></svg>