<svg width="1816.1121" height="315.57828" viewBox="0 0 480.51286 83.496734" xmlns="http://www.w3.org/2000/svg"><defs><path id="c" d="M1600.6648 5530.2114h158.57976v94.550331H1600.6648z"/><path id="b" d="M157-13h55v40h-55z"/><filter style="color-interpolation-filters:sRGB" id="a" x="-.05642297" y="-.03515585" width="1.1128459" height="1.0703117"><feGaussianBlur stdDeviation="1.1384116"/></filter></defs><text xml:space="preserve" transform="matrix(.26458 0 0 .26458 275.20172 -1799.9914)" style="font-size:36px;line-height:1.25;font-family:Lato;-inkscape-font-specification:Lato;text-align:center;letter-spacing:0;white-space:pre;shape-inside:url(#b)"><tspan x="157" y="60.48"><tspan dx="0 20.882812 20.039062 14.484375 18.84375">Ehret</tspan></tspan></text><g style="display:inline"><g aria-label="EHRET INGENIEURBÜRO SOFTWARESYSTEME" style="font-size:23.2833px;line-height:1.25;font-family:Lato;-inkscape-font-specification:Lato;text-align:center;letter-spacing:0;text-anchor:middle;display:inline;fill:#fcfbfb;stroke-width:.264583"><path d="M-377.97519 30.394801v2.090206h-9.10166v6.297075h7.36864v2.010831h-7.36864v6.469054h9.10166v2.090206h-11.68134V30.394801ZM-358.93638 49.352173h-2.57968v-8.625406h-10.21291v8.625406h-2.57968V30.394801h2.57968v8.453427h10.21291v-8.453427h2.57968zM-351.49209 41.441141v7.911032h-2.55323V30.394801h5.35781q1.79916 0 3.10885.370416 1.30969.357187 2.15635 1.045103.8599.687916 1.27 1.666873.4101.965728.4101 2.169581 0 1.005415-.3175 1.878539t-.92604 1.574269q-.59531.687916-1.46843 1.177394-.8599.489479-1.95792.740832.47625.277813.84667.806979l5.52978 7.527386h-2.27541q-.70114 0-1.03187-.542395l-4.92125-6.773325q-.22489-.3175-.48948-.449791-.26458-.145521-.79374-.145521zm0-1.86531h2.68552q1.12448 0 1.97114-.264583.8599-.277812 1.42875-.767291.58208-.502707.87312-1.190623.29104-.687916.29104-1.521352 0-1.693331-1.12447-2.553226-1.11125-.859895-3.32052-.859895h-2.80458zM-325.57536 30.394801v2.090206h-9.10165v6.297075h7.36864v2.010831h-7.36864v6.469054h9.10165v2.090206h-11.68133V30.394801ZM-308.99716 30.394801v2.156352h-6.1251v16.80102h-2.56645v-16.80102h-6.15156v-2.156352zM-298.14389 49.352173h-2.56645V30.394801h2.56645zM-291.75049 30.394801q.34396 0 .50271.0926.17198.07938.38365.343958l10.98019 14.287482q-.0397-.343958-.0529-.661458-.0132-.330728-.0132-.634999V30.394801h2.24896v18.957372h-1.29646q-.30427 0-.51593-.105833-.19844-.105834-.39688-.357187L-290.87736 34.6149q.0265.330729.0397.648228.0132.3175.0132.582083v13.506962h-2.24895V30.394801h1.32291zM-264.62122 47.486863q.76729 0 1.40229-.06615.64823-.07938 1.21708-.224896.56886-.14552 1.07156-.343957.50271-.211667 1.00542-.47625v-4.180411h-2.93687q-.25136 0-.41011-.145521-.14552-.14552-.14552-.357187v-1.455206h5.82083v7.276032q-.71437.515937-1.49489.899582-.7673.383646-1.65365.648229-.87312.251353-1.87854.370416-1.00541.132291-2.18281.132291-2.06374 0-3.78353-.701145-1.71979-.714374-2.96333-1.984372-1.24354-1.283228-1.94469-3.069163-.68791-1.785935-.68791-3.929057 0-2.169581.67468-3.955516.68792-1.785935 1.94469-3.055934 1.27-1.283227 3.05593-1.984372 1.79916-.701145 4.02166-.701145 1.12448 0 2.09021.171979.96573.15875 1.78593.476249.83344.304271 1.53458.754062.70115.436562 1.30969.992186l-.7276 1.164165q-.2249.357187-.58209.357187-.21166 0-.46302-.145521-.33072-.185208-.74083-.449791-.4101-.264583-1.00541-.502707-.58209-.251354-1.38906-.423333-.79375-.171979-1.89177-.171979-1.60073 0-2.89719.529166-1.29645.515937-2.20926 1.494894-.91282.965728-1.40229 2.354789-.48948 1.375831-.48948 3.095621 0 1.799164.5027 3.214683.51594 1.40229 1.44198 2.381247.92604.978957 2.19604 1.494894t2.80458.515937zM-241.963 30.394801v2.090206h-9.10166v6.297075h7.36864v2.010831h-7.36864v6.469054h9.10166v2.090206h-11.68134V30.394801ZM-236.97354 30.394801q.34396 0 .50271.0926.17198.07938.38364.343958l10.9802 14.287482q-.0397-.343958-.0529-.661458-.0132-.330728-.0132-.634999V30.394801h2.24896v18.957372h-1.29646q-.30427 0-.51594-.105833-.19843-.105834-.39687-.357187L-236.10042 34.6149q.0265.330729.0397.648228.0132.3175.0132.582083v13.506962h-2.24896V30.394801h1.32292zM-215.25499 49.352173h-2.56645V30.394801h2.56645zM-198.50316 30.394801v2.090206h-9.10166v6.297075h7.36864v2.010831h-7.36864v6.469054h9.10166v2.090206h-11.68134V30.394801ZM-187.468 47.314884q1.1774 0 2.10344-.396875.92604-.396874 1.56104-1.111248.64823-.714374.97896-1.706561.34395-.992186.34395-2.182809v-11.52259h2.55323v11.52259q0 1.640414-.52917 3.042704-.51593 1.40229-1.49489 2.434164-.96573 1.018644-2.36802 1.600727-1.40229.582082-3.14854.582082-1.74624 0-3.14853-.582082-1.40229-.582083-2.38125-1.600727-.97896-1.031874-1.50812-2.434164-.51594-1.40229-.51594-3.042704v-11.52259h2.55323v11.509361q0 1.190623.33072 2.182809.34396.992186.97896 1.706561.64823.714374 1.57427 1.124477.93927.396875 2.11666.396875zM-172.69186 41.441141v7.911032h-2.55322V30.394801h5.3578q1.79917 0 3.10885.370416 1.30969.357187 2.15635 1.045103.8599.687916 1.27 1.666873.41011.965728.41011 2.169581 0 1.005415-.3175 1.878539t-.92604 1.574269q-.59532.687916-1.46844 1.177394-.85989.489479-1.95791.740832.47625.277813.84666.806979l5.52979 7.527386h-2.27542q-.70114 0-1.03187-.542395l-4.92125-6.773325q-.22489-.3175-.48947-.449791-.26459-.145521-.79375-.145521zm0-1.86531h2.68552q1.12448 0 1.97114-.264583.8599-.277812 1.42875-.767291.58208-.502707.87313-1.190623.29104-.687916.29104-1.521352 0-1.693331-1.12448-2.553226-1.11125-.859895-3.32052-.859895h-2.80458zM-158.45646 49.352173V30.394801h6.04572q1.74625 0 3.00302.343958 1.27.343958 2.07698.978957.8202.634999 1.20385 1.56104.39687.912811.39687 2.063747 0 .701145-.22489 1.349373-.21167.648229-.66146 1.203853-.43656.555624-1.11125.992186-.66146.436562-1.56104.714374 2.07698.410104 3.13531 1.494894 1.05833 1.084791 1.05833 2.857497 0 1.203852-.44979 2.196039-.43656.992186-1.29646 1.70656-.84666.714374-2.0902 1.111249-1.23031.383645-2.81781.383645zm2.56646-8.638635v6.601346h4.10103q1.09802 0 1.87854-.251354.79375-.251354 1.29646-.701145.51594-.46302.75406-1.08479.23812-.634999.23812-1.389061 0-1.468436-1.0451-2.315101-1.03187-.859895-3.13531-.859895zm0-1.825623h3.38666q1.08479 0 1.87854-.238124.79375-.238125 1.30968-.661458.52917-.423333.78052-1.018644.25136-.608541.25136-1.322915 0-1.666873-1.00542-2.447393-1.00541-.78052-3.12208-.78052H-155.89ZM-133.98295 47.314884q1.1774 0 2.10344-.396875.92604-.396874 1.56104-1.111248.64822-.714374.97895-1.706561.34396-.992186.34396-2.182809v-11.52259h2.55323v11.52259q0 1.640414-.52917 3.042704-.51594 1.40229-1.49489 2.434164-.96573 1.018644-2.36802 1.600727-1.40229.582082-3.14854.582082t-3.14854-.582082q-1.40229-.582083-2.38124-1.600727-.97896-1.031874-1.50813-2.434164-.51593-1.40229-.51593-3.042704v-11.52259h2.55322v11.509361q0 1.190623.33073 2.182809.34396.992186.97896 1.706561.64823.714374 1.57427 1.124477.93927.396875 2.11666.396875zm-1.3626-20.002475q0 .291042-.11906.555625-.11907.251353-.3175.449791-.19844.198437-.47625.317499-.26459.105833-.56886.105833-.27781 0-.54239-.105833-.25136-.119062-.44979-.317499-.19844-.198438-.3175-.449791-.11906-.264583-.11906-.555625 0-.30427.11906-.568853.11906-.277812.3175-.47625.19843-.198437.44979-.317499.26458-.119063.54239-.119063.30427 0 .56886.119063.27781.119062.47625.317499.19843.198438.3175.47625.11906.264583.11906.568853zm5.63562 0q0 .291042-.11907.555625-.11906.251353-.3175.449791-.19843.198437-.46302.317499-.26458.105833-.55562.105833-.30427 0-.56885-.105833-.26459-.119062-.46302-.317499-.19844-.198438-.3175-.449791-.10584-.264583-.10584-.555625 0-.30427.10584-.568853.11906-.277812.3175-.47625.19843-.198437.46302-.317499.26458-.119063.56885-.119063.29104 0 .55562.119063.26459.119062.46302.317499.19844.198438.3175.47625.11907.264583.11907.568853zM-119.20683 41.441141v7.911032h-2.55322V30.394801h5.3578q1.79917 0 3.10885.370416 1.30969.357187 2.15635 1.045103.8599.687916 1.27 1.666873.41011.965728.41011 2.169581 0 1.005415-.3175 1.878539t-.92604 1.574269q-.59531.687916-1.46844 1.177394-.85989.489479-1.95791.740832.47625.277813.84666.806979l5.52979 7.527386h-2.27542q-.70114 0-1.03187-.542395l-4.92124-6.773325q-.2249-.3175-.48948-.449791-.26459-.145521-.79375-.145521zm0-1.86531h2.68552q1.12448 0 1.97114-.264583.8599-.277812 1.42875-.767291.58208-.502707.87313-1.190623.29104-.687916.29104-1.521352 0-1.693331-1.12448-2.553226-1.11125-.859895-3.32052-.859895h-2.80458zM-87.983532 39.880102q0 2.129893-.674686 3.915828-.674687 1.772706-1.904998 3.055934-1.230311 1.283227-2.963329 1.997601-1.71979.701145-3.809996.701145-2.090205 0-3.809999-.701145-1.71979-.714374-2.9501-1.997601-1.23031-1.283228-1.90499-3.055934-.67469-1.785935-.67469-3.915828 0-2.129894.67469-3.9026.67468-1.785935 1.90499-3.069162 1.23031-1.296457 2.9501-2.010831 1.719794-.714374 3.809999-.714374 2.090206 0 3.809996.714374 1.733018.714374 2.963329 2.010831 1.230311 1.283227 1.904998 3.069162.674686 1.772706.674686 3.9026zm-2.6326 0q0-1.746248-.47625-3.135309-.476249-1.389061-1.349373-2.341559-.873124-.965728-2.116664-1.481665t-2.778122-.515937q-1.521352 0-2.764889.515937-1.24354.515937-2.1299 1.481665-.87312.952498-1.34937 2.341559-.47625 1.389061-.47625 3.135309 0 1.746247.47625 3.135308.47625 1.375832 1.34937 2.34156.88636.952498 2.1299 1.468435 1.243537.502708 2.764889.502708 1.534582 0 2.778122-.502708 1.24354-.515937 2.116664-1.468435.873124-.965728 1.349373-2.34156.47625-1.389061.47625-3.135308z" style="font-size:26.4583px;text-align:start;text-anchor:start" transform="translate(557.0021 -15.215365)"/><path d="M-377.09383 68.745338q-.17754.355072-.41963.500328-.22596.145256-.54875.145256-.32279 0-.72628-.242094-.40349-.258233-.95224-.564886-.54874-.306652-1.29116-.548746-.72629-.258234-1.72694-.258234-.90382 0-1.58168.225955-.66173.209815-1.12978.597165-.4519.38735-.67786.936097-.22595.532607-.22595 1.178191 0 .823119.45191 1.371866.46804.548746 1.22661.936097.75856.38735 1.72693.694002.96838.306653 1.96903.661724 1.0168.338932 1.98518.80698.96837.451909 1.72693 1.162051.75856.694003 1.21047 1.710798.46805 1.016795.46805 2.469359 0 1.581681-.54875 2.969687-.5326 1.371866-1.58168 2.4048-1.03293 1.016795-2.53391 1.61396-1.50099.581026-3.43774.581026-1.11363 0-2.19498-.225955-1.08136-.209814-2.08201-.613304-.98452-.403491-1.85606-.968377-.8554-.564886-1.53326-1.258888l1.25889-2.082009q.17754-.225954.41963-.371211.25823-.161396.56489-.161396.40349 0 .87153.338932.46805.322792 1.0975.726282.64558.40349 1.50098.742422.87154.322792 2.08201.322792 1.85605 0 2.87285-.871539 1.01679-.887678 1.01679-2.533917 0-.919957-.46805-1.500983-.45191-.581026-1.21047-.968376-.75856-.40349-1.72693-.677863-.96838-.274374-1.96904-.597166-1.00065-.322792-1.96903-.7747-.96837-.451909-1.72693-1.178191-.75856-.726282-1.22661-1.807636-.45191-1.097492-.45191-2.695313 0-1.275028.50033-2.485498.51646-1.21047 1.48484-2.146567.98451-.936097 2.4048-1.500983 1.42028-.564886 3.24406-.564886 2.06587 0 3.80894.645584 1.74308.645584 2.96969 1.807635zM-349.87894 76.169555q0 2.566196-.85539 4.761182-.8554 2.178846-2.4048 3.776667-1.54941 1.59782-3.72825 2.501638-2.17885.887678-4.82574.887678-2.6469 0-4.84188-.887678-2.17885-.903818-3.74439-2.501638-1.5494-1.597821-2.4048-3.776667-.8554-2.194986-.8554-4.761182 0-2.566197.8554-4.745043.8554-2.194986 2.4048-3.792806 1.56554-1.59782 3.74439-2.485499 2.19498-.903817 4.84188-.903817 2.64689 0 4.82574.903817 2.17884.903818 3.72825 2.501639 1.5494 1.58168 2.4048 3.776666.85539 2.178846.85539 4.745043zm-4.45452 0q0-1.920613-.51647-3.437735-.50033-1.533262-1.45257-2.598476-.95223-1.065214-2.3241-1.6301-1.35573-.564886-3.06652-.564886-1.7108 0-3.08267.564886-1.37186.564886-2.34024 1.6301-.95224 1.065214-1.4687 2.598476-.51647 1.517122-.51647 3.437735 0 1.920612.51647 3.453874.51646 1.517123 1.4687 2.582336.96838 1.049075 2.34024 1.613961 1.37187.564886 3.08267.564886 1.71079 0 3.06652-.564886 1.37187-.564886 2.3241-1.613961.95224-1.065213 1.45257-2.582336.51647-1.533262.51647-3.453874zM-331.75971 64.500623v3.453875h-10.34549v6.907749h8.73153v3.470014h-8.73153v9.506225h-4.37383V64.500623ZM-311.93877 64.500623v3.566852h-7.02072v19.771011h-4.34156V68.067475h-7.053v-3.566852zM-311.31891 64.500623h3.64755q.56489 0 .9361.274374.38735.258233.51647.710142l3.97034 13.960755q.14526.516467.25823 1.129772.12912.597165.2421 1.275028.12911-.677863.27437-1.275028.1614-.613305.33893-1.129772l4.58365-13.960755q.12912-.371211.50033-.677863.38735-.306653.93609-.306653h1.27503q.56489 0 .9361.274374.37121.258233.51647.710142l4.55136 13.960755q.35507 1.032934.61331 2.291823.11298-.629444.22595-1.21047.12912-.581026.25824-1.081353l3.97034-13.960755q.11298-.40349.50033-.694003.38735-.290513.93609-.290513h3.40546l-7.24668 23.337863h-3.92193l-5.10011-15.945925q-.0968-.306653-.20981-.661724-.0968-.355071-.19368-.758561-.0968.40349-.20981.758561-.0968.355071-.19368.661724l-5.14853 15.945925h-3.92192zM-256.74183 87.838486h-3.35704q-.56489 0-.9361-.274373-.35507-.290513-.51647-.710143l-1.74307-4.761182h-9.66762l-1.74308 4.761182q-.12912.371211-.51647.677864-.37121.306652-.91995.306652h-3.37318l9.16729-23.337863h4.43839zm-15.10667-8.812222h7.44036l-2.84057-7.763148q-.19368-.516467-.43577-1.21047-.22596-.710142-.45191-1.533262-.22596.82312-.45191 1.533262-.20982.710143-.41963 1.242749zM-249.81997 78.719612v9.118874h-4.34155V64.500623h7.11756q2.38866 0 4.08332.500328 1.7108.484188 2.79215 1.371866 1.09749.887678 1.59782 2.130427.51647 1.22661.51647 2.711453 0 1.178191-.35507 2.227265-.33894 1.049074-1.00066 1.904473-.64558.855399-1.61396 1.500983-.95224.645584-2.17885 1.032934.82312.468049 1.42029 1.339587l5.84254 8.618547h-3.90579q-.56488 0-.96837-.225954-.38735-.225955-.66173-.645584l-4.90644-7.472635q-.27437-.41963-.6133-.597166-.32279-.177535-.96838-.177535zm0-3.114943h2.71145q1.22661 0 2.13043-.306653.91996-.306652 1.50098-.839259.59717-.548746.88768-1.291168.29051-.742422.29051-1.6301 0-1.775356-1.17819-2.727592-1.16205-.952237-3.56685-.952237h-2.77601zM-218.46729 64.500623v3.453875h-10.34548v6.47198h8.1505v3.340897h-8.1505v6.601097h10.34548v3.470014h-14.71931V64.500623ZM-202.20614 68.745338q-.17753.355072-.41963.500328-.22595.145256-.54874.145256t-.72629-.242094q-.40349-.258233-.95223-.564886-.54875-.306652-1.29117-.548746-.72628-.258234-1.72694-.258234-.90381 0-1.58168.225955-.66172.209815-1.12977.597165-.45191.38735-.67786.936097-.22596.532607-.22596 1.178191 0 .823119.45191 1.371866.46805.548746 1.22661.936097.75856.38735 1.72694.694002.96837.306653 1.96903.661724 1.01679.338932 1.98517.80698.96838.451909 1.72694 1.162051.75856.694003 1.21047 1.710798.46805 1.016795.46805 2.469359 0 1.581681-.54875 2.969687-.53261 1.371866-1.58168 2.4048-1.03294 1.016795-2.53392 1.61396-1.50098.581026-3.43773.581026-1.11364 0-2.19499-.225955-1.08135-.209814-2.08201-.613304-.98451-.403491-1.85605-.968377-.8554-.564886-1.53326-1.258888l1.25889-2.082009q.17753-.225954.41962-.371211.25824-.161396.56489-.161396.40349 0 .87154.338932.46805.322792 1.09749.726282.64559.40349 1.50099.742422.87153.322792 2.082.322792 1.85606 0 2.87285-.871539 1.0168-.887678 1.0168-2.533917 0-.919957-.46805-1.500983-.45191-.581026-1.21047-.968376-.75856-.40349-1.72694-.677863-.96837-.274374-1.96903-.597166-1.00065-.322792-1.96903-.7747-.96838-.451909-1.72694-1.178191-.75856-.726282-1.22661-1.807636-.45191-1.097492-.45191-2.695313 0-1.275028.50033-2.485498.51647-1.21047 1.48484-2.146567.98452-.936097 2.4048-1.500983 1.42029-.564886 3.24406-.564886 2.06587 0 3.80895.645584t2.96969 1.807635zM-186.9991 78.768031v9.070455h-4.34155v-9.070455l-8.50557-14.267408h3.82508q.56489 0 .88768.274374.33893.274373.56489.694002l4.27699 7.795428q.37121.694002.64558 1.323447.27438.613305.50033 1.21047.20982-.613305.46805-1.22661.27437-.629444.64558-1.307307l4.24472-7.795428q.17754-.355071.53261-.661723.35507-.306653.90381-.306653h3.84123zM-163.7485 68.745338q-.17753.355072-.41962.500328-.22596.145256-.54875.145256-.32279 0-.72628-.242094-.40349-.258233-.95224-.564886-.54875-.306652-1.29117-.548746-.72628-.258234-1.72694-.258234-.90381 0-1.58168.225955-.66172.209815-1.12977.597165-.45191.38735-.67786.936097-.22596.532607-.22596 1.178191 0 .823119.45191 1.371866.46805.548746 1.22661.936097.75856.38735 1.72694.694002.96838.306653 1.96903.661724 1.0168.338932 1.98517.80698.96838.451909 1.72694 1.162051.75856.694003 1.21047 1.710798.46805 1.016795.46805 2.469359 0 1.581681-.54875 2.969687-.53261 1.371866-1.58168 2.4048-1.03293 1.016795-2.53392 1.61396-1.50098.581026-3.43773.581026-1.11363 0-2.19499-.225955-1.08135-.209814-2.08201-.613304-.98451-.403491-1.85605-.968377-.8554-.564886-1.53326-1.258888l1.25889-2.082009q.17753-.225954.41963-.371211.25823-.161396.56488-.161396.40349 0 .87154.338932.46805.322792 1.09749.726282.64559.40349 1.50099.742422.87154.322792 2.08201.322792 1.85605 0 2.87284-.871539 1.0168-.887678 1.0168-2.533917 0-.919957-.46805-1.500983-.45191-.581026-1.21047-.968376-.75856-.40349-1.72694-.677863-.96837-.274374-1.96903-.597166-1.00065-.322792-1.96903-.7747-.96838-.451909-1.72694-1.178191-.75856-.726282-1.22661-1.807636-.45191-1.097492-.45191-2.695313 0-1.275028.50033-2.485498.51647-1.21047 1.48485-2.146567.98451-.936097 2.4048-1.500983 1.42028-.564886 3.24406-.564886 2.06586 0 3.80894.645584 1.74308.645584 2.96969 1.807635zM-142.47297 64.500623v3.566852h-7.02073v19.771011h-4.34155V68.067475h-7.053v-3.566852zM-124.97109 64.500623v3.453875h-10.34548v6.47198h8.1505v3.340897h-8.1505v6.601097h10.34548v3.470014h-14.71931V64.500623ZM-109.50076 78.154726q.27437.516467.50033 1.081353.24209.548746.46804 1.113632.22596-.581025.46805-1.145911.2421-.564886.51647-1.081354l6.90775-12.92782q.12912-.242094.25823-.38735.14526-.145257.30666-.209815.177531-.06456.387346-.0807.209815-.01614.500327-.01614h3.276339v23.337863h-3.825085V72.764099q0-.41963.01614-.919957.03228-.500328.0807-1.016795l-7.053007 13.234473q-.2421.451908-.62945.710142-.38735.242094-.90381.242094h-.59717q-.51647 0-.90382-.242094-.38735-.258234-.62944-.710142l-7.14984-13.282892q.0645.532607.0807 1.049074.0323.500328.0323.936097v15.074387h-3.82508V64.500623h3.27634q.29051 0 .50032.01614.20982.01614.37122.0807.17753.06456.32279.209815.14525.145256.27437.38735l6.97231 12.9601zM-76.489244 64.500623v3.453875h-10.345484v6.47198h8.150498v3.340897h-8.150498v6.601097h10.345484v3.470014H-91.20856V64.500623Z" style="font-weight:700;font-size:32.2792px;-inkscape-font-specification:'Lato Bold';text-align:start;text-anchor:start" transform="translate(557.0021 -15.215365)"/></g><g style="display:inline"><path style="display:inline;fill:#fff;fill-opacity:1;stroke:none;stroke-width:2;stroke-miterlimit:4;stroke-dasharray:none;stroke-opacity:1;stop-color:#000" d="M928.86914-425.63086c-146.89103 0-265.96871 70.99858-265.96875 158.58008 0 87.58188 119.07772 158.58203 265.96875 158.58203 146.89106 0 265.97066-71.00015 265.97066-158.58203 0-87.5815-119.0796-158.58008-265.97066-158.58008zm99.64256 60.57813c90.7787 0 164.3692 43.87646 164.3692 98.00195 0 54.12549-73.5905 98.0039-164.3692 98.0039-90.77862.00001-164.36912-43.87841-164.36912-98.0039.00004-54.12549 73.5905-98.00195 164.36912-98.00195z" transform="translate(-174.51649 112.052435) scale(.26326)"/><path style="display:inline;fill:#fff;fill-opacity:1;stroke:none;stroke-width:2;stroke-miterlimit:4;stroke-dasharray:none;stroke-opacity:1;stop-color:#000" d="M1089.3418-327.61523c-56.1012 0-101.58004 27.11487-101.58008 60.56445 0 33.44958 45.47888 60.56641 101.58008 60.5664 56.1012 0 101.5801-27.11682 101.5801-60.5664s-45.4789-60.56445-101.5801-60.56445zm35.8047 23.13476c34.6705 0 62.7754 16.75794 62.7754 37.42969 0 20.67213-28.1049 37.42969-62.7754 37.42969-34.6706 0-62.7774-16.75756-62.7774-37.42969.0001-20.67175 28.1068-37.42969 62.7774-37.42969z" transform="translate(-174.51649 112.052435) scale(.26326)"/><path style="display:inline;fill:#fff;fill-opacity:1;stroke:none;stroke-width:.529;stroke-miterlimit:4;stroke-dasharray:none;stroke-opacity:1;stop-color:#000" d="M313.51078-70.6571c0-3.3801-4.59568-6.1201-10.26474-6.1201-5.66907 0-10.26475 2.74-10.26477 6.1201 0 3.3802 4.59569 6.1203 10.26477 6.1203 5.66906 0 10.26474-2.7401 10.26474-6.1203z" transform="matrix(.995 0 0 .995 -174.51649 112.052435)"/></g></g></svg>