<svg width="570.78552" height="658.61938" viewBox="0 0 151.02029 174.25966" xmlns="http://www.w3.org/2000/svg"><defs><path id="c" d="M1600.6648 5530.2114h158.57976v94.550331H1600.6648z"/><path id="b" d="M157-13h55v40h-55z"/><filter style="color-interpolation-filters:sRGB" id="a" x="-.05642297" y="-.03515585" width="1.1128459" height="1.0703117"><feGaussianBlur stdDeviation="1.1384116"/></filter></defs><text xml:space="preserve" transform="matrix(.26458 0 0 .26458 -47.070077 -2103.9122)" style="font-size:36px;line-height:1.25;font-family:Lato;-inkscape-font-specification:Lato;text-align:center;letter-spacing:0;white-space:pre;shape-inside:url(#b)"><tspan x="157" y="60.48"><tspan dx="0 20.882812 20.039062 14.484375 18.84375">Ehret</tspan></tspan></text><g style="display:inline"><path style="display:inline;vector-effect:none;fill:#000;fill-opacity:.35;stroke-width:.508103;stroke-opacity:.968165;stop-color:#000" d="M317.35486 111.58899h151.02033v174.25972H317.35486Z" transform="translate(-317.35486 -111.58899)"/></g><g style="display:inline"><g style="display:inline"><path style="display:inline;fill:#fff;fill-opacity:1;stroke:none;stroke-width:.731013;stroke-miterlimit:4;stroke-dasharray:none;stroke-opacity:1;stop-color:#000" d="M-271.07296 186.16718c-53.68966 0-97.21334 25.95045-97.21335 57.96207 0 32.01177 43.52369 57.9628 97.21335 57.9628 53.68965 0 97.21404-25.95103 97.21404-57.9628 0-32.01162-43.52439-57.96207-97.21404-57.96207zm36.42001 22.14171c33.18021 0 60.07803 16.03714 60.07803 35.82036 0 19.78323-26.89782 35.82108-60.07803 35.82108-33.18018 0-60.07801-16.03785-60.07801-35.82108.00001-19.78322 26.89783-35.82036 60.07801-35.82036z" transform="matrix(.66016 0 0 .6843 254.46099924 -116.7686726)"/><path style="display:inline;fill:#fff;fill-opacity:1;stroke:none;stroke-width:.731013;stroke-miterlimit:4;stroke-dasharray:none;stroke-opacity:1;stop-color:#000" d="M-212.41915 221.99255c-20.50536 0-37.12817 9.91066-37.12818 22.1367 0 12.22605 16.62282 22.13743 37.12818 22.13743 20.50537 0 37.1282-9.91138 37.1282-22.13743 0-12.22604-16.62283-22.1367-37.1282-22.1367zm13.08686 8.45591c12.67229 0 22.94483 6.12514 22.94483 13.68079 0 7.55581-10.27254 13.68081-22.94483 13.68081-12.67233 0-22.94556-6.125-22.94556-13.68081.00004-7.55565 10.27323-13.68079 22.94556-13.68079z" transform="matrix(.66016 0 0 .6843 254.46099924 -116.7686726)"/><path style="display:inline;fill:#fff;fill-opacity:1;stroke:none;stroke-width:.730783;stroke-miterlimit:4;stroke-dasharray:none;stroke-opacity:1;stop-color:#000" d="M-177.48361 244.12935c0-4.66942-6.34867-8.45456-14.18015-8.45456-7.8315 0-14.18018 3.78514-14.18021 8.45456 0 4.66955 6.3487 8.45485 14.18021 8.45485 7.83148 0 14.18015-3.7853 14.18015-8.45485z" transform="matrix(.66016 0 0 .6843 254.46099924 -116.7686726)"/></g><path d="M-192.18901 423.06812q0 1.1696-.28762 2.10916-.28761.93952-.86282 1.60102-.56566.66151-1.41888 1.01622-.85329.35472-1.98452.35472-.51772 0-1.01627-.0672-.4985-.0574-1.04497-.19172l.13412-1.53395q.0193-.21091.1534-.33554.14366-.13431.41223-.13431.16313 0 .42184.0672.26844.0672.6711.0672.54646 0 .96827-.15339.42186-.16312.69988-.50811.28761-.34514.43139-.89162.14367-.55603.14367-1.34218v-8.99266h2.57891zM-187.34757 418.15952v6.25079q0 .90117.41226 1.3997.42185.48894 1.25591.48894.61358 0 1.15046-.26844.53686-.27804 1.0162-.75738v-7.11361h2.36801v9.83632h-1.44765q-.46018 0-.60398-.43141l-.16312-.78613q-.30677.30677-.63273.56564-.32595.24926-.69986.43141-.36429.17266-.79572.26846-.42184.1055-.91077.1055-.8053 0-1.42846-.26842-.6136-.27803-1.03541-.77657-.42184-.49849-.64233-1.17921-.21092-.69027-.21092-1.51473v-6.25079zm1.52437-2.55015q0 .26844-.10551.50813-.1055.23007-.29721.40264-.1822.17267-.43141.27804-.23967.096-.50811.096-.25884 0-.49851-.096-.23009-.10551-.41226-.27804-.1822-.17266-.28761-.40264-.10551-.23969-.10551-.50813 0-.278.10551-.5177.1055-.24927.28761-.43142.1822-.1822.41226-.28761.23967-.10551.49851-.10551.26844 0 .50811.10551.24927.10551.43141.28761.19175.18221.29721.43142.10551.2397.10551.5177zm3.58554 0q0 .26844-.10551.50813-.1055.23007-.28759.40264-.18221.17267-.43142.27804-.23968.096-.50814.096-.26841 0-.50811-.096-.23965-.10551-.4218-.27804-.17266-.17266-.27806-.40264-.1055-.23969-.1055-.50813 0-.278.1055-.5177.10551-.24927.27806-.43142.1822-.1822.4218-.28761.2397-.10551.50811-.10551.26846 0 .50814.10551.24925.10551.43142.28761.1822.18221.28759.43142.10551.2397.10551.5177zM-178.61647 427.99584v-9.83632h1.39015q.36433 0 .50811.13431.14367.13432.19176.4602l.14367 1.18877q.52726-.91077 1.23673-1.43805.70945-.52728 1.59145-.52728.72862 0 1.20796.33554l-.30677 1.77361q-.0288.17266-.12477.24927-.096.0671-.25884.0671-.14367 0-.39309-.0671-.24926-.0672-.66148-.0672-.7382 0-1.26549.41226-.52732.40266-.89161 1.18879v6.1261zM-167.3861 417.98697q.63273 0 1.1888.13431.55606.12478 1.01622.37391h2.82819v.882q0 .22051-.11523.34514-.11523.12458-.39306.17266l-.88202.16312q.096.24929.14366.52729.0574.27803.0574.58482 0 .72863-.29721 1.32303-.28761.58481-.80531.99706-.50813.41222-1.21757.64233-.69986.2205-1.52433.2205-.55604 0-1.08334-.10551-.46019.27806-.46019.6232 0 .29717.26846.44099.278.13431.71903.19174.45057.0574 1.0162.0767.56563.0112 1.16006.0574.59436.0479 1.16001.17266.56564.11523 1.00665.37389.45059.25884.71905.70945.278.44099.278 1.14086 0 .65189-.32595 1.26548-.31638.61356-.92996 1.09294-.60397.47934-1.48599.76695-.88202.2972-2.0133.2972-1.12167 0-1.94615-.2205-.82447-.21092-1.37095-.57523-.53686-.35471-.80532-.82448-.26844-.46976-.26844-.97788 0-.69026.42183-1.16006.42186-.46976 1.16962-.74778-.36428-.20132-.58481-.53688-.22049-.33554-.22049-.87242 0-.2205.0767-.45057.0765-.23969.23008-.46978.16293-.23009.40266-.43141.23968-.21092.56563-.37389-.74778-.40264-1.17921-1.07374-.4218-.6711-.4218-1.5723 0-.72862.28758-1.31343.29723-.59438.8149-1.00664.5273-.42182 1.23673-.64235.71905-.22047 1.5627-.22047zm2.59809 10.4499q0-.28763-.17267-.46978-.17266-.1822-.46976-.27803-.29719-.10551-.69983-.1534-.39308-.0479-.84367-.0672-.44101-.0288-.92037-.0479-.46976-.0288-.91079-.0862-.40266.22051-.65189.52728-.23968.29721-.23968.69026 0 .25886.12477.47937.13431.23008.41224.39307.28763.16293.7382.24925.45062.096 1.10253.096.66149 0 1.14086-.1055.47934-.096.78615-.27802.31637-.17266.46016-.42184.14367-.23969.14367-.5273zm-2.59809-5.59886q.44101 0 .76695-.11523.32596-.12477.53688-.33556.22051-.21092.32594-.50811.11524-.29721.11524-.65195 0-.7286-.44103-1.15042-.43139-.43143-1.30385-.43143-.87242 0-1.31341.43143-.43142.42182-.43142 1.15042 0 .34514.10551.64235.11523.2972.32594.51771.22052.21092.54648.33556.33556.11523.76695.11523zM-156.80048 418.00614q.92995 0 1.70648.29721.78615.2972 1.3518.87243.56563.56561.882 1.3997.31636.82446.31636 1.88864 0 .26842-.0288.45059-.0193.17266-.0862.27802-.0574.096-.16312.14385-.10551.0383-.26843.0383h-6.07819q.1055 1.51475.81488 2.22418.70946.70943 1.87906.70943.57523 0 .98747-.13431.42185-.13431.72862-.29723.31637-.16294.54646-.29717.23967-.13432.46016-.13432.14367 0 .24929.0574.1055.0574.1822.16312l.69026.86285q-.39309.46018-.882.77653-.48894.30679-1.02582.49855-.52728.1822-1.08336.25886-.54645.0767-1.06416.0767-1.0258 0-1.90782-.33554-.882-.34514-1.53392-1.00664-.65193-.67109-1.0258-1.64898-.37391-.98748-.37391-2.28172 0-1.00662.32597-1.88864.32594-.8916.92992-1.54352.61358-.66151 1.486-1.04499.88202-.38347 1.98453-.38347zm.0479 1.69694q-1.03539 0-1.62022.58479-.5848.58479-.74778 1.65856h4.44839q0-.46018-.12478-.86282-.12477-.41228-.38348-.71905-.25886-.30678-.65193-.47935-.39306-.18221-.92033-.18221zM-150.60426 427.99584v-9.83632h1.44767q.46019 0 .60398.43143l.16313.77655q.29719-.30679.62315-.55605.33556-.24925.69985-.4314.37391-.1822.79573-.27804.42182-.096.92035-.096.80532 0 1.42849.27802.62314.26844 1.03538.76695.42185.48896.63277 1.17921.22049.6807.22049 1.50518v6.26032h-2.36801v-6.26032q0-.90118-.42184-1.39011-.41222-.49855-1.24631-.49855-.61356 0-1.15042.27803-.53688.27802-1.01626.75738v7.11357zM-127.12132 414.13299v2.05161h-6.14532v3.84442h4.84146v1.98452h-4.84146v3.92109h6.14532v2.06121h-8.74341v-13.86285zM-125.02625 427.99584V413.7495h2.36799v5.4742q.57523-.54648 1.2655-.88202.69026-.33554 1.62021-.33554.80531 0 1.42847.278.62316.26846 1.0354.76699.42183.48894.63275 1.17921.2205.6807.2205 1.50514v6.26036h-2.368v-6.26036q0-.90115-.42183-1.39009-.41224-.49853-1.24632-.49853-.61357 0-1.15044.27802-.53688.27801-1.01624.75739v7.11357zM-114.12847 427.99584v-9.83632h1.39012q.36431 0 .50812.13431.14379.13432.19174.4602l.1438 1.18877q.52729-.91077 1.23673-1.43805.70944-.52728 1.59145-.52728.72862 0 1.20797.33554l-.30679 1.77361q-.0287.17266-.12462.24927-.0958.0671-.25885.0671-.1438 0-.39307-.0671-.24926-.0672-.66151-.0672-.7382 0-1.26549.41226-.52729.40266-.8916 1.18879v6.1261zM-102.2366 418.00614q.92995 0 1.7065.29721.786146.2972 1.35178.87243.565641.56561.882009 1.3997.316376.82446.316376 1.88864 0 .26842-.02875.45059-.01917.17266-.08628.27802-.05754.096-.162991.14385-.105468.0383-.268436.0383h-6.078218q.10545 1.51475.8149 2.22418.70945.70943 1.87908.70943.57522 0 .98747-.13431.42183-.13431.72862-.29723.316372-.16294.54646-.29717.239675-.13432.46018-.13432.143797 0 .249262.0574.105487.0574.182146.16312l.69027.86285q-.39307.46018-.882009.77653-.488939.30679-1.025816.49855-.527293.1822-1.083343.25886-.54647.0767-1.06417.0767-1.02582 0-1.90783-.33554-.88202-.34514-1.53394-1.00664-.65192-.67109-1.02581-1.64898-.3739-.98748-.3739-2.28172 0-1.00662.32596-1.88864.32596-.8916.92994-1.54352.61358-.66151 1.48601-1.04499.88201-.38347 1.98453-.38347zm.0479 1.69694q-1.03541 0-1.62022.58479-.58482.58479-.7478 1.65856h4.44842q0-.46018-.12462-.86282-.12462-.41228-.38349-.71905-.25885-.30678-.65192-.47935-.39307-.18221-.92037-.18221zM-92.809517 428.14924q-1.27508 0-1.965347-.71903-.690268-.72862-.690268-2.00369v-5.49339h-.997056q-.19174 0-.335545-.12458-.13422-.12478-.13422-.37391v-.93952l1.581865-.25885.498526-2.6844q.03835-.19174.172569-.29717.143798-.10551.354721-.10551h1.227143v3.09662h2.588505v1.68732h-2.588505v5.3304q0 .46019.230091.71903.23009.25886.613573.25886.2205 0 .364306-.0479.153376-.0574.258851-.11523.115046-.0574.201328-.1055.08628-.0574.172569-.0574.105468 0 .172569.0574.0671.0479.143798.15339l.709442 1.15044q-.517701.43141-1.188798.65193-.671091.22047-1.390122.22047z" style="font-weight:700;font-size:11.1125px;line-height:1.25;font-family:Lato;-inkscape-font-specification:'Lato Bold';text-align:center;letter-spacing:0;text-anchor:middle;fill:#fff;stroke-width:.456526" transform="matrix(1.20752 0 0 .8171 250.01824224 -236.1843726)"/><g><g style="display:inline"><path d="M-104.51271 354.24419v5.99758h-1.44386v-5.99758zm.21629-1.74784q0 .18705-.0759.35074-.076.16367-.20459.28643-.12276.12275-.29228.19874-.16953.0701-.36243.0701-.18706 0-.35658-.0701-.16368-.076-.28644-.19874-.12276-.12276-.19874-.28643-.0701-.16369-.0701-.35074 0-.19291.0701-.36244.076-.16952.19874-.29228.12276-.12275.28644-.19289.16952-.076.35658-.076.1929 0 .36243.076.16952.0701.29228.19289.12859.12276.20459.29228.0759.16953.0759.36244zM-85.184742 360.24177v-8.68657h1.443865v3.42553q.356583-.37998.806694-.60211.450111-.22797 1.052209-.22797.491032 0 .894379.20459.409192.19877.701474.58458.298124.38579.455957.95283.163676.56702.163676 1.30356 0 .67226-.181213 1.24512-.181215.57287-.52026.99375-.333198.42088-.812539.66055-.473494.23383-1.0639.23383-.274743 0-.502722-.0585-.22798-.0527-.415039-.15198-.187059-.0994-.350737-.23968-.157831-.14614-.303972-.32151l-.0643.40335q-.03508.15198-.122758.2163-.08184.0643-.227979.0643zm2.805892-4.96877q-.450111 0-.77162.19292-.315662.18705-.590407.53194v2.68897q.245516.30399.531951.42675.292281.1169.631326.1169.327354 0 .590405-.12275.263055-.12276.444268-.37412.187059-.25136.286434-.63132.09938-.38582.09938-.90608 0-.5261-.08769-.88853-.08184-.36828-.23967-.59626-.157831-.22797-.38581-.33319-.222134-.10523-.508567-.10523zM-133.47075 360.24177h-1.57832v-8.45275h1.57832zM-131.64748 360.24177v-5.99758h.8827q.28058 0 .36827.26303l.0994.47351q.18121-.18706.37997-.33904.20459-.15198.42673-.26307.22797-.11105.48517-.16952.25721-.0585.56119-.0585.49103 0 .87099.16952.37996.16368.63132.46766.25721.29812.38581.71899.13446.41505.13446.91777v3.81718h-1.44387v-3.81719q0-.5495-.2572-.84763-.25137-.30396-.75994-.30396-.37412 0-.70147.16953-.32734.16952-.61962.46181v4.33744zM-122.92748 354.13896q.38582 0 .72487.0819.33904.076.61963.22798h1.72445v.5378q0 .13446-.0701.21045-.0701.0759-.23968.10522l-.53779.0994q.0585.15199.0876.32152.0351.16953.0351.35659 0 .44426-.18121.80669-.17535.35658-.49102.60794-.30982.25137-.7424.39166-.42673.13444-.92946.13444-.33903 0-.66053-.0643-.28059.16951-.28059.37996 0 .18122.16367.26889.16951.0819.43842.11693.27474.035.61963.0469.34489.005.70733.0351.36242.0292.70732.10521.34487.0701.61378.22799.27473.15784.43843.43257.16952.26891.16952.69565 0 .39749-.19875.77161-.19291.37411-.56703.6664-.36827.29228-.90609.46764-.53777.18122-1.22756.18122-.68393 0-1.18666-.13445-.50272-.12861-.83592-.35074-.32735-.2163-.49103-.50273-.16367-.28643-.16367-.59624 0-.42088.2572-.70732.2572-.28643.71317-.45596-.22214-.12275-.35658-.32737-.13445-.20458-.13445-.53193 0-.13445.0468-.27475.0468-.14614.1403-.28643.0994-.1403.24551-.26306.14613-.12861.3449-.22798-.45597-.2455-.71902-.6547-.25721-.4092-.25721-.95868 0-.44427.17537-.80086.18121-.36242.49687-.61378.32151-.25721.75411-.39164.4384-.13445.95282-.13445zm1.58417 6.37171q0-.17537-.10523-.28644-.1052-.11106-.28642-.16952-.18121-.0643-.42672-.0935-.23967-.0292-.51443-.0409-.26889-.0175-.56118-.0292-.28642-.0175-.55533-.0527-.24553.13443-.3975.3215-.14614.1812-.14614.42087 0 .15784.0759.29229.0819.14029.25137.23967.17537.0994.45011.15198.27474.0585.67225.0585.40334 0 .69562-.0644.29227-.0585.47934-.16954.19289-.10522.28059-.2572.0876-.14614.0876-.32151zm-1.58417-3.41384q.26893 0 .46767-.0701.19874-.076.32735-.20459.13444-.12859.19874-.30981.0701-.18121.0701-.3975 0-.44426-.2689-.70148-.26305-.26306-.79502-.26306-.53193 0-.80084.26306-.26304.25722-.26304.70148 0 .21044.0643.39166.0701.1812.19875.31565.13444.12862.33319.20461.2046.0701.46765.0701zM-116.47301 354.15065q.56704 0 1.04053.18123.47933.18118.82423.53194.3449.34488.53781.85345.19289.50273.19289 1.15158 0 .16367-.0174.27476-.0117.10522-.0527.16952-.0349.0585-.0994.0876-.0644.0234-.16368.0234h-3.70612q.0643.92359.49687 1.35617.43258.43258 1.14575.43258.35073 0 .6021-.0819.2572-.0819.44427-.18119.1929-.0994.33319-.18122.14613-.0819.28058-.0819.0876 0 .15199.0351.0644.035.11108.0994l.42088.52611q-.23968.28059-.53781.47349-.29811.18706-.62547.30397-.32151.11107-.66055.15783-.33321.0468-.64888.0468-.62547 0-1.16326-.2046-.5378-.21043-.93531-.61378-.39749-.4092-.62547-1.00545-.22797-.60211-.22797-1.39126 0-.61379.19874-1.15158.19876-.54365.56703-.94114.37411-.40336.90608-.63718.53778-.23382 1.21002-.23382zm.0292 1.03468q-.63131 0-.98789.35657-.35658.3566-.45596 1.01129h2.71236q0-.28058-.076-.5261-.076-.25136-.23382-.43841-.15784-.18708-.39751-.29229-.23968-.11106-.56119-.11106zM-112.69491 360.24177v-5.99758h.88269q.28058 0 .36828.26303l.0994.47351q.18121-.18706.37996-.33904.20459-.15198.42673-.26307.22798-.11105.48518-.16952.25722-.0585.56119-.0585.49102 0 .87099.16952.37996.16368.63132.46766.25721.29812.3858.71899.13446.41505.13446.91777v3.81718h-1.44386v-3.81719q0-.5495-.25721-.84763-.25136-.30396-.75993-.30396-.37411 0-.70147.16953-.32735.16952-.61963.46181v4.33744zM-100.39757 354.15065q.56702 0 1.040517.18123.479339.18118.824225.53194.344896.34488.537807.85345.192902.50273.192902 1.15158 0 .16367-.01752.27476-.01168.10522-.05267.16952-.03505.0585-.0994.0876-.06435.0234-.163667.0234h-3.706114q.0643.92359.49687 1.35617.43259.43258 1.14576.43258.350715 0 .602086-.0819.257212-.0819.444262-.18119.192912-.0994.333205-.18122.146134-.0819.280595-.0819.08761 0 .151985.0351.06435.035.111058.0994l.420879.52611q-.239649.28059-.537788.47349-.298119.18706-.625482.30397-.321502.11107-.660548.15783-.333212.0468-.648862.0468-.62549 0-1.16328-.2046-.53779-.21043-.93529-.61378-.39751-.4092-.62549-1.00545-.22797-.60211-.22797-1.39126 0-.61379.19873-1.15158.19877-.54365.56704-.94114.37411-.40336.90608-.63718.53779-.23382 1.21003-.23382zm.0293 1.03468q-.63133 0-.98792.35657-.35657.3566-.45595 1.01129h2.712359q0-.28058-.07603-.5261-.07603-.25136-.233819-.43841-.157835-.18708-.397514-.29229-.239676-.11106-.561166-.11106zM-95.298373 354.24419v3.81132q0 .54949.251361.85347.257206.29813.765775.29813.374118 0 .701473-.16368.327354-.16953.619634-.46182v-4.33742h1.443866v5.99758h-.882687q-.28059 0-.368274-.26304l-.09938-.47936q-.187059.18708-.385809.3449-.198752.15198-.426731.26305-.222132.10522-.485184.16368-.257206.0643-.555332.0643-.491032 0-.870997-.1637-.374118-.16951-.631327-.47348-.257205-.30397-.391655-.719-.128603-.42089-.128603-.92362v-3.81133zM-89.974669 360.24177v-5.99758h.847613q.222133 0 .309817.0819.08768.0819.116912.28058l.08768.72485q.321509-.55532.754085-.87684.432573-.3215.97037-.3215.444266 0 .736545.2046l-.187057 1.08143q-.01753.10522-.07599.15199-.05845.0409-.15783.0409-.08768 0-.239671-.0409-.151987-.0409-.403348-.0409-.450112 0-.77162.25137-.321507.24551-.543642.72485v3.73534zM-77.213522 354.24419v3.81132q0 .54949.251361.85347.257207.29813.765776.29813.374119 0 .701474-.16368.327352-.16953.619633-.46182v-4.33742h1.443865v5.99758h-.882687q-.280588 0-.368272-.26304l-.09937-.47936q-.187059.18708-.38581.3449-.198749.15198-.426728.26305-.222133.10522-.485187.16368-.257206.0643-.555332.0643-.49103 0-.870996-.1637-.374118-.16951-.631325-.47348t-.391656-.719q-.128603-.42089-.128603-.92362v-3.81133zm.929452-1.55494q0 .16368-.0643.30982-.0643.14029-.181214.24551-.111065.10522-.263052.16952-.146141.0585-.309817.0585-.157831 0-.303971-.0585-.140294-.0644-.251361-.16952-.111067-.10522-.175369-.24551-.0643-.14614-.0643-.30982 0-.16952.0643-.31567.0643-.15198.175369-.26304.111067-.11108.251361-.17537.14614-.0644.303971-.0644.163676 0 .309817.0644.151987.0642.263052.17537.116913.11106.181214.26304.0643.14615.0643.31567zm2.186259 0q0 .16368-.0643.30982-.0643.14029-.175368.24551-.111067.10522-.263053.16952-.146139.0585-.309816.0585-.163678 0-.309819-.0585-.146138-.0644-.257205-.16952-.105222-.10522-.169524-.24551-.0643-.14614-.0643-.30982 0-.16952.0643-.31567.0643-.15198.169524-.26304.111067-.11108.257205-.17537.146141-.0644.309819-.0644.163677 0 .309816.0644.151986.0642.263053.17537.111067.11106.175368.26304.0643.14615.0643.31567zM-71.889816 360.24177v-5.99758h.847611q.222134 0 .309819.0819.08769.0819.116911.28058l.08769.72485q.321509-.55532.754082-.87684.432576-.3215.970373-.3215.444265 0 .736546.2046l-.18706 1.08143q-.01753.10522-.07599.15199-.05845.0409-.157831.0409-.08768 0-.23967-.0409-.151985-.0409-.403347-.0409-.450112 0-.771621.25137-.321508.24551-.54364.72485v3.73534zM-64.557047 354.15065q.672246 0 1.215887.21629.549487.21629.935297.61379.38581.3975.596252.97037.210444.57287.210444 1.28019 0 .71317-.210444 1.28603-.210442.57287-.596252.97622t-.935297.61963q-.543641.21629-1.215887.21629-.672245 0-1.221732-.21629-.549488-.21628-.941143-.61963-.385811-.40335-.602098-.97622-.210441-.57286-.210441-1.28603 0-.70732.210441-1.28019.216287-.57287.602098-.97037.391655-.3975.941143-.61379.549487-.21629 1.221732-.21629zm0 5.06815q.748239 0 1.104821-.50273.362428-.50273.362428-1.47309 0-.97037-.362428-1.47894-.356582-.50857-1.104821-.50857-.759928 0-1.122356.51441-.362429.50858-.362429 1.4731 0 .96451.362429 1.47309.362428.50273 1.122356.50273zM-57.954801 360.24177v-4.91031l-.52026-.0819q-.169522-.0291-.274744-.1169-.09937-.0876-.09937-.24553v-.5904h.894378v-.44427q0-.51441.151987-.9236.157829-.40919.444265-.69564.29228-.28642.707318-.43841.415039-.15199.935297-.15199.41504 0 .771621.11106l-.02923.72487q-.01169.16951-.157831.21044-.146139.0409-.339045.0409-.257206 0-.461803.0585-.198751.0527-.339045.19291-.140295.13444-.216289.36242-.07014.22214-.07014.55534v.39749h1.560778v1.02884h-1.514014v4.91615zM-52.803537 354.24419v3.81132q0 .54949.251361.85347.257206.29813.765774.29813.37412 0 .701472-.16368.327355-.16953.619637-.46182v-4.33742h1.443864v5.99758h-.882686q-.28059 0-.368273-.26304l-.09938-.47936q-.18706.18708-.38581.3449-.19875.15198-.426729.26305-.222133.10522-.485186.16368-.257207.0643-.555332.0643-.491032 0-.870995-.1637-.374121-.16951-.631326-.47348-.257208-.30397-.391656-.719-.128605-.42089-.128605-.92362v-3.81133zm.929451-1.55494q0 .16368-.0643.30982-.0643.14029-.181214.24551-.111067.10522-.263052.16952-.14614.0585-.309819.0585-.157831 0-.303972-.0585-.140293-.0644-.251361-.16952-.111066-.10522-.175367-.24551-.0643-.14614-.0643-.30982 0-.16952.0643-.31567.0643-.15198.175367-.26304.111068-.11108.251361-.17537.146141-.0644.303972-.0644.163679 0 .309819.0644.151985.0642.263052.17537.116912.11106.181214.26304.0643.14615.0643.31567zm2.186258 0q0 .16368-.0643.30982-.0643.14029-.175369.24551-.111067.10522-.263052.16952-.146141.0585-.309816.0585-.163678 0-.309818-.0585-.146141-.0644-.257208-.16952-.105221-.10522-.169523-.24551-.0643-.14614-.0643-.30982 0-.16952.0643-.31567.0643-.15198.169523-.26304.111067-.11108.257208-.17537.14614-.0644.309818-.0644.163675 0 .309816.0644.151985.0642.263052.17537.111067.11106.175369.26304.0643.14615.0643.31567zM-47.479835 360.24177v-5.99758h.847613q.222134 0 .309818.0819.08768.0819.116913.28058l.08768.72485q.321508-.55532.754083-.87684.432575-.3215.970372-.3215.444266 0 .736547.2046l-.187061 1.08143q-.01754.10522-.07599.15199-.05845.0409-.157834.0409-.08768 0-.239668-.0409-.151986-.0409-.403347-.0409-.450111 0-.771621.25137-.321508.24551-.543641.72485v3.73534z" style="font-weight:700;font-size:14.5521px;line-height:1.25;font-family:Lato;-inkscape-font-specification:'Lato, Bold';letter-spacing:0;fill:#fff;stroke-width:.212567" transform="matrix(1.42638 0 0 1.2429 202.96136618 -309.0293219)"/></g></g><g><path d="M-216.8553 466.91679q-.11729.23468-.27734.3307-.14935.096-.3627.096t-.48004-.16001q-.26668-.17067-.62938-.37336-.36269-.20268-.8534-.3627-.48005-.17067-1.14142-.17067-.59739 0-1.04541.14933-.43737.1387-.74674.39471-.29869.25601-.44803.61871-.14935.35203-.14935.77873 0 .54404.29869.90673.30936.3627.81073.61871.50138.25603 1.14143.45871.64004.20269 1.30143.43737.67205.22402 1.3121.53337.64006.29869 1.14143.76806.50136.45871.80005 1.13076.30937.67205.30937 1.63213 0 1.04541-.3627 1.96282-.35203.90673-1.04541 1.58945-.68273.67205-1.6748 1.06676-.99208.38402-2.27218.38402-.73605 0-1.45078-.14934-.71473-.1387-1.3761-.40537-.65072-.26668-1.22677-.64004-.56538-.37336-1.01341-.83206l.83206-1.37613q.11729-.14933.27736-.24533.17067-.10674.37336-.10674.26669 0 .57605.22401.30935.21335.72539.48003.4267.2667.99207.49071.57605.21335 1.37611.21335 1.22677 0 1.89882-.57604.67205-.58672.67205-1.67479 0-.60806-.30936-.99209-.29869-.38402-.80006-.64005-.50137-.26668-1.14143-.44803-.64004-.18135-1.30143-.3947-.66138-.21335-1.30143-.51204-.64006-.29869-1.14142-.77873-.50138-.48003-.81073-1.19476-.29869-.72539-.29869-1.78147 0-.84272.33069-1.64279.34136-.80006.9814-1.41877.65072-.61872 1.58947-.99209.93874-.37336 2.14416-.37336 1.36545 0 2.51753.42669 1.15209.42672 1.96282 1.19477zM-209.14036 468.4209q1.22677 0 2.21885.39471 1.00274.39469 1.7068 1.12008.70404.72539 1.08807 1.77081.38404 1.04541.38404 2.33618 0 1.30144-.38404 2.34685-.38403 1.04542-1.08807 1.78147-.70406.73606-1.7068 1.13075-.99208.39471-2.21885.39471-1.22676 0-2.22951-.39471-1.00273-.39469-1.71746-1.13075-.70406-.73605-1.09875-1.78147-.38403-1.04541-.38403-2.34685 0-1.29077.38403-2.33618.39469-1.04542 1.09875-1.77081.71473-.72539 1.71746-1.12008 1.00275-.39471 2.22951-.39471zm0 9.24873q1.36544 0 2.01616-.9174.66139-.91741.66139-2.68822 0-1.7708-.66139-2.69888-.65072-.92806-2.01616-.92806-1.38678 0-2.04815.93874-.6614.92808-.6614 2.6882 0 1.76014.6614 2.68822.66137.9174 2.04815.9174zM-201.2174 479.53645v-8.9607l-.94941-.14935q-.30937-.0534-.50138-.21335-.18135-.16001-.18135-.44803v-1.07742h1.63214v-.81073q0-.93875.27734-1.68547.28803-.74672.81073-1.26943.53339-.52271 1.29078-.80006t1.70679-.27735q.75739 0 1.40811.20267l-.0534 1.32277q-.0213.30936-.28801.38403-.26669.0746-.61872.0746-.46937 0-.84273.10673-.3627.096-.61872.35203-.25602.24535-.39469.66139-.12799.40537-.12799 1.01341v.7254h2.84823v1.87747h-2.76289v8.97137zM-190.63292 479.70712q-1.41877 0-2.18683-.80006-.76805-.81073-.76805-2.2295v-6.11248h-1.10943q-.21336 0-.37337-.1387-.14934-.13869-.14934-.41602v-1.04543l1.76014-.28801.5547-2.9869q.0427-.21336.19202-.33069.16001-.11729.39469-.11729h1.36545v3.44561h2.88022v1.87747h-2.88022v5.93113q0 .51203.25601.80007.25603.28801.68273.28801.24535 0 .40536-.0534.17069-.0641.28803-.12799.128-.0641.22401-.11729.096-.0641.19202-.0641.11729 0 .19201.0641.0746.0534.16002.17068l.78939 1.28009q-.57605.48005-1.32276.72541-.74674.24534-1.5468.24534zM-187.31065 468.59159h2.09082q.29869 0 .50138.13869.20268.1387.25601.35203l1.56813 5.84578q.12799.48005.20269.93875.0853.45871.16001.91741.11729-.4587.24535-.91741.1387-.4587.28802-.93875l1.81348-5.86711q.0639-.21335.25601-.35203.19202-.13869.44804-.13869h1.16276q.28802 0 .48004.13869.19201.1387.25601.35203l1.79214 5.97379q.1387.45871.24536.89607.11729.42671.22402.86407.0746-.45871.16001-.91741.096-.4587.23468-.94941l1.62146-5.84578q.0534-.21335.25603-.35203.20267-.13869.46936-.13869h1.99482l-3.46693 10.94486h-2.12284q-.34136 0-.49071-.46938l-1.97347-6.32583q-.096-.30935-.18136-.61871-.0746-.32003-.12799-.62937-.0641.32002-.13869.64004-.0746.30935-.17069.62939l-1.99482 6.30448q-.14934.46938-.57603.46938h-2.01617zM-160.52423 479.53645h-1.18409q-.37336 0-.5867-.10674-.21335-.11728-.32004-.4587l-.23468-.77872q-.41603.37336-.82139.66137-.39471.27736-.8214.46938-.4267.19202-.90674.28802-.48004.096-1.06677.096-.69338 0-1.28009-.18135-.58671-.19201-1.01342-.56537-.41602-.37336-.65072-.92808-.23468-.5547-.23468-1.29076 0-.61872.32002-1.2161.3307-.60804 1.08809-1.08807.7574-.49071 2.01617-.81073 1.25876-.32004 3.12557-.36271v-.64004q0-1.09876-.46936-1.62146-.4587-.53337-1.34411-.53337-.64005 0-1.06675.14934-.42671.14933-.74673.34135-.30936.18136-.57605.3307-.26669.14935-.58671.14935-.26668 0-.4587-.1387-.19202-.13869-.30936-.34136l-.48004-.84273q1.88815-1.72813 4.55503-1.72813.96009 0 1.70681.32002.75739.30935 1.2801.87473.5227.55472.78938 1.33344.27736.77873.27736 1.7068zm-5.12039-1.6428q.40537 0 .74672-.0746.34135-.0746.64005-.22401.30936-.14935.58672-.3627.28802-.22402.57603-.52271v-1.84547q-1.15208.0534-1.93081.20268-.76806.13869-1.23742.3627-.46939.22402-.67207.52271-.19202.29868-.19202.6507 0 .6934.40537.99209.41604.29869 1.07743.29869zM-157.93336 479.53645v-10.94486h1.54679q.40537 0 .56538.14935.16001.14934.21335.51204l.16001 1.32277q.58671-1.01342 1.37611-1.60013.78939-.58671 1.7708-.58671.81073 0 1.34411.37336l-.34136 1.97349q-.032.19202-.13868.27735-.10668.0746-.28802.0746-.16002 0-.43737-.0746-.27736-.0746-.73606-.0746-.8214 0-1.40811.4587-.58671.44805-.99208 1.32277v6.81654zM-144.70133 468.4209q1.03475 0 1.89882.3307.87473.3307 1.50412.97074.62938.62939.98141 1.55747.35202.9174.35202 2.10149 0 .29869-.032.50137-.0213.19201-.096.30936-.064.10673-.18135.16001-.11735.0427-.29869.0427h-6.76319q.11734 1.68547.90673 2.47487.7894.78938 2.09083.78938.64005 0 1.09876-.14934.46936-.14935.81073-.33069.35202-.18135.60804-.3307.26669-.14934.51204-.14934.16002 0 .27736.0641.11735.0641.20268.18134l.76806.96007q-.43737.51204-.98141.86407-.54404.34137-1.14142.55472-.58672.20267-1.20543.28801-.60805.0853-1.18409.0853-1.14142 0-2.12283-.37336-.98141-.38403-1.7068-1.12009-.72539-.74672-1.14143-1.83481-.41603-1.09875-.41603-2.53887 0-1.12008.3627-2.10149.36269-.99207 1.03474-1.71746.68272-.73606 1.65347-1.16276.98141-.42671 2.20817-.42671zm.0533 1.88815q-1.15209 0-1.80281.65072-.65071.65072-.83206 1.84548h4.94972q0-.51204-.13868-.96007-.13868-.4587-.4267-.80007-.28803-.34135-.72539-.53337-.43737-.20269-1.02408-.20269zM-131.31028 470.72509q-.10667.17068-.22401.24535-.11735.0641-.29869.0641-.19202 0-.41604-.10673-.21335-.10673-.50137-.2347-.28802-.13869-.66138-.24535-.3627-.10673-.86407-.10673-.77873 0-1.22676.33069-.44804.3307-.44804.86407 0 .35203.22402.59738.23468.23468.60805.41604.38403.18134.86406.33068.48004.1387.98141.30937.50138.17068.98141.39469.48004.21335.8534.55472.38403.33068.60805.80005.23469.46938.23469 1.13076 0 .78939-.28803 1.46144-.28802.6614-.84273 1.15209-.55471.48005-1.37611.75739-.81073.26669-1.86681.26669-.56538 0-1.10942-.10673-.53337-.096-1.03475-.27735-.4907-.18136-.9174-.4267-.41603-.24535-.73606-.53338l.60805-1.00275q.11735-.18134.27735-.27734.16002-.096.40537-.096t.4587.13869q.22402.1387.51204.29869.28802.16001.67205.29869.3947.1387.99208.1387.46937 0 .80006-.10674.34136-.11728.55471-.29869.22402-.18134.32003-.41604.10667-.24535.10667-.50136 0-.38403-.23468-.62939-.22402-.24535-.60805-.4267-.37336-.18134-.86407-.32002-.48003-.14935-.99207-.32002-.50138-.17069-.99208-.39471-.48004-.23468-.86407-.58671-.37336-.35202-.60805-.86406-.22401-.51204-.22401-1.23743 0-.67205.26668-1.28011.26669-.60804.77873-1.05608.52271-.4587 1.29077-.72539.77873-.27736 1.79214-.27736 1.13075 0 2.05883.37338.92807.37336 1.54678.9814zM-124.58976 482.54467q-.11735.27736-.30936.41604-.18134.14934-.56537.14934h-1.96282l2.04816-4.38433-4.42702-10.13413h2.30418q.32003 0 .49071.14935.17068.14934.25602.34136l2.33618 5.67511q.11735.27734.20268.57603.0854.29869.14935.59738.0853-.30934.18135-.59738.10667-.28801.22401-.58671l2.19751-5.66443q.0853-.21335.27735-.35203.20268-.1387.44804-.1387h2.11216zM-110.60033 470.72509q-.10667.17068-.22401.24535-.11735.0641-.29869.0641-.19202 0-.41604-.10673-.21335-.10673-.50137-.2347-.28802-.13869-.66138-.24535-.3627-.10673-.86407-.10673-.77873 0-1.22676.33069-.44804.3307-.44804.86407 0 .35203.22402.59738.23469.23468.60805.41604.38403.18134.86406.33068.48004.1387.98141.30937.50138.17068.98141.39469.48004.21335.8534.55472.38403.33068.60805.80005.23469.46938.23469 1.13076 0 .78939-.28803 1.46144-.28802.6614-.84273 1.15209-.55471.48005-1.37611.75739-.81073.26669-1.86681.26669-.56538 0-1.10942-.10673-.53337-.096-1.03475-.27735-.4907-.18136-.9174-.4267-.41603-.24535-.73606-.53338l.60805-1.00275q.11735-.18134.27735-.27734.16002-.096.40537-.096t.4587.13869q.22402.1387.51204.29869.28802.16001.67205.29869.3947.1387.99208.1387.46937 0 .80006-.10674.34136-.11728.55471-.29869.22402-.18134.32003-.41604.10667-.24535.10667-.50136 0-.38403-.23468-.62939-.22402-.24535-.60805-.4267-.37336-.18134-.86407-.32002-.48003-.14935-.99207-.32002-.50138-.17069-.99208-.39471-.48004-.23468-.86407-.58671-.37336-.35202-.60804-.86406-.22402-.51204-.22402-1.23743 0-.67205.26668-1.28011.26669-.60804.77873-1.05608.52271-.4587 1.29077-.72539.77873-.27736 1.79214-.27736 1.13075 0 2.05883.37338.92807.37336 1.54678.9814zM-104.16782 479.70712q-1.41879 0-2.18685-.80006-.76806-.81073-.76806-2.2295v-6.11248h-1.10942q-.21335 0-.37336-.1387-.14935-.13869-.14935-.41602v-1.04543l1.76014-.28801.55471-2.9869q.0427-.21336.19202-.33069.16001-.11729.39469-.11729h1.36545v3.44561h2.88024v1.87747h-2.88024v5.93113q0 .51203.25602.80007.25602.28801.68273.28801.24535 0 .40536-.0534.17068-.0641.28803-.12799.128-.0641.22402-.11729.096-.0641.19201-.0641.11735 0 .19202.0641.0747.0534.16001.17068l.7894 1.28009q-.57605.48005-1.32278.72541-.74673.24534-1.54679.24534zM-94.989084 468.4209q1.034747 0 1.898815.3307.874734.3307 1.504117.97074.629382.62939.98141 1.55747.352027.9174.352027 2.10149 0 .29869-.032.50137-.02133.19201-.096.30936-.06401.10673-.181348.16001-.117348.0427-.298691.0427h-6.763193q.117348 1.68547.906737 2.47487.789395.78938 2.09083.78938.64005 0 1.098752-.14934.46937-.14935.81073-.33069.352027-.18135.608048-.3307.266687-.14934.512039-.14934.160013 0 .277355.0641.117347.0641.202682.18134l.768061.96007q-.437367.51204-.981411.86407-.544041.34137-1.141421.55472-.586713.20267-1.205428.28801-.608048.0853-1.184092.0853-1.141423 0-2.122832-.37336-.98141-.38403-1.7068-1.12009-.72539-.74672-1.141423-1.83481-.41603-1.09875-.41603-2.53887 0-1.12008.362693-2.10149.362695-.99207 1.034747-1.71746.68272-.73606 1.653463-1.16276.981409-.42671 2.208172-.42671zm.05334 1.88815q-1.152089 0-1.802807.65072-.650717.65072-.832065 1.84548h4.949719q0-.51204-.138679-.96007-.13868-.4587-.4267-.80007-.288023-.34135-.725391-.53337-.437367-.20269-1.02408-.20269zM-88.094541 479.53645v-10.94486h1.610792q.51204 0 .672053.48003l.170679.81073q.288023-.32002.59738-.5867.320026-.26669.672052-.45871.362696-.19201.768061-.29869.416032-.11729.906737-.11729 1.034747 0 1.696132.56538.672052.55472 1.002746 1.4828.256019-.54405.640049-.92808.384031-.39469.842733-.64005.458702-.24535.970741-.3627.522709-.11729 1.045415-.11729.906739 0 1.610793.27736.704055.27736 1.184092.81073.480038.53337.725391 1.30144.256019.76805.256019 1.76014v6.96587h-2.634871v-6.96587q0-1.04543-.458703-1.56812-.458703-.53338-1.344105-.53338-.405365 0-.757392.1387-.34136.13869-.608048.40536-.256019.25603-.405365.65072-.149345.39471-.149345.90675v6.96587h-2.645539v-6.96587q0-1.09876-.448035-1.60013-.437367-.50137-1.301435-.50137-.565377 0-1.066749.28802-.490706.27736-.917406.76805v8.0113zM-65.611793 468.4209q1.034746 0 1.898815.3307.874735.3307 1.504117.97074.629383.62939.981409 1.55747.352028.9174.352028 2.10149 0 .29869-.032.50137-.02133.19201-.09602.30936-.06401.10673-.181348.16001-.117347.0427-.298689.0427h-6.763194q.117347 1.68547.906737 2.47487.789395.78938 2.09083.78938.64005 0 1.098752-.14934.469371-.14935.81073-.33069.352028-.18135.608048-.3307.266687-.14934.51204-.14934.160012 0 .277355.0641.117347.0641.202682.18134l.768059.96007q-.437367.51204-.981409.86407-.544043.34137-1.141423.55472-.586711.20267-1.205426.28801-.608048.0853-1.184093.0853-1.141422 0-2.122832-.37336-.981409-.38403-1.7068-1.12009-.725389-.74672-1.141422-1.83481-.416033-1.09875-.416033-2.53887 0-1.12008.362696-2.10149.362694-.99207 1.034746-1.71746.682721-.73606 1.653463-1.16276.98141-.42671 2.208173-.42671zm.05334 1.88815q-1.152091 0-1.802808.65072t-.832065 1.84548h4.94972q0-.51204-.138679-.96007-.138679-.4587-.4267-.80007-.288022-.34135-.725389-.53337-.437368-.20269-1.024079-.20269z" style="font-weight:700;font-size:14.5521px;line-height:1.25;font-family:Lato;-inkscape-font-specification:'Lato, Bold';letter-spacing:0;fill:#fff;stroke-width:.387908" transform="matrix(.80493 0 0 .80493 191.08651224 -225.2352566)"/></g></g></svg>