<svg width="970.14795" height="1029.4709" viewBox="0 0 256.68492 272.38079" xmlns="http://www.w3.org/2000/svg"><defs><path id="c" d="M1600.6648 5530.2114h158.57976v94.550331H1600.6648z"/><path id="b" d="M157-13h55v40h-55z"/><filter style="color-interpolation-filters:sRGB" id="a" x="-.05642297" y="-.03515585" width="1.1128459" height="1.0703117"><feGaussianBlur stdDeviation="1.1384116"/></filter></defs><text xml:space="preserve" transform="matrix(.26458 0 0 .26458 -108.48833 -1931.862)" style="font-size:36px;line-height:1.25;font-family:Lato;-inkscape-font-specification:Lato;text-align:center;letter-spacing:0;white-space:pre;shape-inside:url(#b)"><tspan x="157" y="60.48"><tspan dx="0 20.882812 20.039062 14.484375 18.84375">Ehret</tspan></tspan></text><g style="display:inline"><path style="display:inline;vector-effect:none;fill:#000;fill-opacity:.35;stroke-width:.828178;stroke-opacity:.968165;stop-color:#000" d="M414.58597-153.0661h256.68491v272.38079H414.58597Z" transform="translate(-414.58597 153.0661)"/></g><g style="display:inline"><path d="M-146.8816 311.41628q0 1.42028-.34925 2.56116-.34925 1.14088-1.04775 1.94416-.68686.80327-1.72297 1.23401-1.0361.43074-2.40982.43074-.62865 0-1.23401-.0815-.60537-.0699-1.26894-.23283l.16298-1.86267q.0233-.25611.18627-.40745.17462-.16299.50059-.16299.1979 0 .51223.0815.32597.0815.81491.0815.66358 0 1.17581-.18627.51223-.19791.84984-.61701.34925-.4191.52388-1.08267.17462-.67522.17462-1.62983v-10.91987h3.13161zM-134.2557 305.45575v7.59036q0 1.09431.50059 1.69968.51223.59372 1.52506.59372.74506 0 1.39699-.32596.65194-.33761 1.23402-.91969v-8.63811h2.87549v11.94434h-1.75789q-.5588 0-.73343-.52388l-.1979-.95461q-.37254.37253-.76835.68685-.39582.30269-.84984.52388-.44239.20955-.96626.32596-.51223.12806-1.10596.12806-.9779 0-1.7346-.32596-.74507-.33761-1.2573-.94298-.51223-.60536-.77999-1.43192-.25612-.8382-.25612-1.83938v-7.59036zm1.85102-3.09668q0 .32597-.12806.61701-.12805.2794-.36089.48895-.22119.20955-.52387.33761-.29104.11641-.61701.11641-.31432 0-.60536-.11641-.2794-.12806-.5006-.33761-.22119-.20955-.34925-.48895-.12805-.29104-.12805-.61701 0-.3376.12805-.62865.12806-.30268.34925-.52387.2212-.22119.5006-.34925.29104-.12806.60536-.12806.32597 0 .61701.12806.30268.12806.52387.34925.23284.22119.36089.52387.12806.29105.12806.62865zm4.35398 0q0 .32597-.12806.61701-.12806.2794-.34925.48895-.22119.20955-.52387.33761-.29104.11641-.61701.11641-.32597 0-.61701-.11641-.29104-.12806-.51223-.33761-.20955-.20955-.33761-.48895-.12806-.29104-.12806-.61701 0-.3376.12806-.62865.12806-.30268.33761-.52387.22119-.22119.51223-.34925.29104-.12806.61701-.12806.32597 0 .61701.12806.30268.12806.52387.34925.22119.22119.34925.52387.12806.29105.12806.62865zM-116.90656 317.40009v-11.94434h1.68804q.44238 0 .61701.16299.17462.16298.23283.55879l.17462 1.44357q.64029-1.10596 1.50178-1.74625.86148-.64029 1.93251-.64029.88477 0 1.46685.40746l-.37253 2.1537q-.0349.20955-.15135.30269-.11641.0815-.31432.0815-.17463 0-.47731-.0815t-.80327-.0815q-.89641 0-1.5367.50059-.64029.48895-1.08267 1.44356v7.43902zM-96.522589 305.2462q.768349 0 1.443565.16299.675215.15134 1.234015.45402h3.434286v1.07103q0 .26776-.139699.4191-.1397.15134-.477308.20955l-1.071032.19791q.116417.30268.174625.64029.06985.33761.06985.71014 0 .88477-.360891 1.60655-.34925.71014-.977899 1.21073-.617007.50059-1.47849.77999-.84984.26776-1.851022.26776-.675216 0-1.315506-.12806-.5588.33761-.5588.75671 0 .36089.325967.53551.337607.16299.873123.23284.547158.0698 1.234015.0931.686858.0116 1.40864.0699.721782.0582 1.40864.20955.686857.1397 1.222373.45402.547157.31433.873124.86149.337608.53551.337608 1.38535 0 .79163-.395817 1.5367-.384174.74507-1.12924 1.32715-.733424.58208-1.804455.93133-1.071032.36089-2.444747.36089-1.362073 0-2.363255-.26776-1.001182-.25611-1.664751-.6985-.65194-.43074-.9779-1.00118-.32597-.57044-.32597-1.18745 0-.83819.51223-1.40864.51224-.57044 1.420284-.90804-.442384-.24448-.710144-.65194-.26775-.40745-.26775-1.05939 0-.26775.0931-.54715.0931-.29105.2794-.57045.19791-.2794.48895-.52387.291039-.25612.686855-.45402-.908045-.48895-1.431925-1.30387-.51223-.81491-.51223-1.90923 0-.88476.34925-1.59491.36089-.72178.989539-1.22237.640291-.51223 1.501773-.77999.873124-.26776 1.897589-.26776zm3.154887 12.6894q0-.34925-.209549-.57044-.20955-.22119-.570441-.33761-.360891-.12806-.849841-.18626-.477307-.0582-1.024465-.0815-.535516-.0349-1.117598-.0582-.570441-.0349-1.105957-.10478-.488949.26776-.791632.64029-.291042.36089-.291042.8382 0 .31433.151342.58208.162983.2794.500591.47731.349249.19791.896407.30268.547157.11642 1.33879.11642.803274 0 1.385356-.12806.582083-.11641.954615-.33761.384175-.20954.5588-.51223.174624-.29104.174624-.64029zm-3.154887-6.79872q.535516 0 .931332-.1397.395816-.15134.651933-.40746.267757-.25612.395816-.61701.139699-.36089.139699-.79163 0-.88477-.535515-1.397-.523875-.52387-1.583265-.52387t-1.594906.52387q-.523874.51223-.523874 1.397 0 .4191.128058.77999.1397.36089.395816.62865.267758.25612.663574.40746.407458.1397.931332.1397zM-76.921521 305.26949q1.12924 0 2.072214.36089.954615.36089 1.641473 1.05939.686857.68685 1.071032 1.69968.384174 1.00118.384174 2.2934 0 .32597-.03493.54716-.02328.20955-.104775.33761-.06985.11642-.197908.17462-.128058.0466-.325966.0466h-7.380806q.128058 1.83938.98954 2.70086.861482.86149 2.281763.86149.698499 0 1.19909-.16299.512233-.16298.884766-.36089.384174-.19791.663574-.36089.291041-.16298.558799-.16298.174625 0 .302683.0699.128058.0698.221191.1979l.838199 1.04775q-.477308.5588-1.071032.94298-.593724.37253-1.245656.60536-.640291.22119-1.315507.31433-.663574.0931-1.292223.0931-1.245656 0-2.316688-.40746-1.071032-.4191-1.862664-1.22237-.791633-.81492-1.245657-2.00236-.454024-1.19909-.454024-2.77072 0-1.22237.395816-2.2934.395816-1.08268 1.12924-1.87431.745066-.80327 1.804456-1.26894 1.071032-.46566 2.409821-.46566zm.05821 2.06057q-1.257299 0-1.967439.71014-.710141.71014-.908049 2.014h5.401726q0-.5588-.151342-1.04774-.151341-.5006-.465666-.87313-.314324-.37253-.791632-.58208-.477308-.22119-1.117598-.22119zM-62.650503 317.40009v-11.94434h1.757889q.558799 0 .733424.52388l.197908.94297q.360891-.37253.756707-.67522.407458-.30268.849841-.52387.454024-.22119.966257-.33761.512232-.11641 1.117598-.11641.977899 0 1.734606.3376.756707.32597 1.257298.93134.512233.59372.768349 1.43192.267758.82656.267758 1.82774v7.602h-2.875488v-7.602q0-1.09432-.512232-1.68804-.500591-.60537-1.513415-.60537-.745065 0-1.396998.33761-.651932.33761-1.234015.91969v8.63811zM-20.64127 300.56626v2.49131h-7.462298v4.6683h5.879033v2.40983h-5.879033v4.76143h7.462298v2.50296h-10.617185v-16.83383zM-11.350332 317.40009v-17.2995h2.8754871v6.64739q.6984991-.66358 1.5366979-1.07104.8381988-.40745 1.9674389-.40745.9778986 0 1.7346058.3376.7567073.32597 1.2572983.93134.5122326.59372.7683489 1.43192.26775793.82656.26775793 1.82774v7.602H-3.8181848v-7.602q0-1.09432-.5122326-1.68804-.5005909-.60537-1.5134145-.60537-.7450656 0-1.396998.33761t-1.234015.91969v8.63811zM8.6298159 317.40009v-11.94434h1.6880391q.442383 0 .617008.16299.174624.16298.232833.55879l.174624 1.44357q.640291-1.10596 1.501773-1.74625t1.932514-.64029q.884766 0 1.466848.40746l-.372533 2.1537q-.03492.20955-.151341.30269-.116417.0815-.314325.0815-.174624 0-.477307-.0815t-.803274-.0815q-.896407 0-1.536698.50059-.640291.48895-1.082674 1.44356v7.43902zM29.817066 305.26949q1.12924 0 2.072213.36089.954616.36089 1.641473 1.05939.686858.68685 1.071032 1.69968.384174 1.00118.384174 2.2934 0 .32597-.03492.54716-.02328.20955-.104774.33761-.06985.11642-.197908.17462-.128059.0466-.325967.0466h-7.380806q.128058 1.83938.98954 2.70086.861483.86149 2.281764.86149.698499 0 1.19909-.16299.512232-.16298.884765-.36089.384175-.19791.663574-.36089.291042-.16298.558799-.16298.174625 0 .302683.0699.128059.0698.221192.1979l.838199 1.04775q-.477308.5588-1.071032.94298-.593724.37253-1.245657.60536-.640291.22119-1.315506.31433-.663574.0931-1.292223.0931-1.245657 0-2.316689-.40746-1.071032-.4191-1.862664-1.22237-.791632-.81492-1.245656-2.00236-.454025-1.19909-.454025-2.77072 0-1.22237.395816-2.2934.395816-1.08268 1.12924-1.87431.745066-.80327 1.804456-1.26894 1.071032-.46566 2.409822-.46566zm.05821 2.06057q-1.257298 0-1.967439.71014-.710141.71014-.908049 2.014h5.401726q0-.5588-.151341-1.04774-.151342-.5006-.465666-.87313-.314325-.37253-.791633-.58208-.477307-.22119-1.117598-.22119zM48.011319 317.58635q-1.548339 0-2.386538-.87312-.838199-.88477-.838199-2.43311v-6.67066H43.57585q-.232833 0-.407457-.15134-.162983-.15135-.162983-.45403v-1.14088l1.920872-.31432.605366-3.25967q.04657-.23283.209549-.36089.174625-.12806.430741-.12806h1.490132v3.76026h3.143245v2.04893H47.66207v6.47276q0 .55879.279399.87312.2794.31432.745066.31432.267758 0 .442383-.0582.186266-.0698.314324-.1397.1397-.0698.244475-.12806.104775-.0698.20955-.0698.128058 0 .209549.0698.08149.0582.174625.18626l.861482 1.397q-.628649.52388-1.443565.79163-.814915.26776-1.688039.26776z" style="font-weight:700;font-size:23.2833px;line-height:1.25;font-family:Lato;-inkscape-font-specification:'Lato Bold';text-align:center;letter-spacing:6.74687px;text-anchor:middle;fill:#fcfbfb;stroke-width:.264583" transform="matrix(1.04012 0 0 1 181.41672299 -126.57051)"/><g><path d="M-145.50327 332.15722v2.12327h-6.35991v3.97866h5.01054v2.05383h-5.01054v4.05803h6.35991v2.1332h-9.04873v-14.34699zM-137.11733 346.50421v-10.17982h1.4982q.47625 0 .62508.44649l.16867.80367q.30758-.3175.64492-.57547.34726-.25797.72429-.44648.38696-.18852.82352-.28774.43656-.0992.9525-.0992.83343 0 1.47835.28774.64492.27781 1.07156.79374.43656.50602.65484 1.22039.22821.70445.22821 1.55773v6.47897h-2.4507v-6.47897q0-.93265-.43656-1.43867-.42664-.51593-1.28984-.51593-.635 0-1.19063.28773-.55562.28774-1.05171.78383v7.36201zM-116.09901 336.1458q.65484 0 1.23031.13891.57547.12898 1.05172.38695h2.92694v.91281q0 .2282-.11906.35718-.11906.12899-.40679.1786l-.91282.16867q.0992.25797.14883.5457.0595.28773.0595.60523 0 .75406-.30757 1.36922-.29766.60523-.83344 1.03187-.52586.42664-1.26007.66477-.7243.2282-1.57758.2282-.57547 0-1.12117-.10914-.47625.28773-.47625.64492 0 .30758.27782.4564.28773.13891.74413.19844.46633.0595 1.05172.0794.58539.01 1.20054.0595.61516.0496 1.20055.17859.58539.11906 1.04179.38695.46633.26789.74414.73422.28774.4564.28774 1.1807 0 .67468-.33735 1.30968-.32742.635-.96242 1.13109-.62507.4961-1.53788.79375-.91281.30758-2.08359.30758-1.16086 0-2.01414-.2282-.85328-.21828-1.41882-.59531-.55563-.36711-.83344-.85328-.27781-.48617-.27781-1.01203 0-.71438.43656-1.20055t1.21047-.7739q-.37703-.20836-.60524-.55562-.2282-.34727-.2282-.90289 0-.22821.0794-.46633.0794-.24805.23812-.48617.16867-.23812.41672-.44648.24804-.21828.58539-.38696-.77391-.41671-1.22039-1.11124-.43656-.69453-.43656-1.62719 0-.75406.29765-1.35929.30758-.61515.84336-1.04179.5457-.43657 1.27992-.66477.74414-.2282 1.61726-.2282zm2.68882 10.81482q0-.29766-.17859-.48617-.17859-.18852-.48617-.28774-.30758-.10914-.7243-.15875-.40679-.0496-.87312-.0695-.4564-.0298-.9525-.0496-.48617-.0298-.94257-.0893-.41672.22821-.67469.54571-.24804.30757-.24804.71437 0 .26789.12898.49609.13891.23813.42664.4068.29766.16867.76398.25796.46633.0992 1.14101.0992.68461 0 1.18071-.10914.49609-.0992.81359-.28773.32742-.17859.47625-.43656.14882-.24805.14882-.5457zm-2.68882-5.79436q.45641 0 .79375-.11907.33734-.12898.55562-.34726.22821-.21828.33735-.52586.11906-.30758.11906-.67469 0-.75406-.45641-1.19062-.44648-.44648-1.34937-.44648t-1.35929.44648q-.44648.43656-.44648 1.19062 0 .35719.10914.66477.11906.30758.33734.53578.2282.21828.56554.34726.34727.11907.79375.11907zM-100.52345 336.32439v10.17982h-2.45069v-10.17982zm.36711-2.96663q0 .3175-.12898.59531-.12899.27781-.34727.48617-.20835.20836-.49609.33734-.28773.11907-.61515.11907-.3175 0-.60524-.11907-.27781-.12898-.48617-.33734-.20836-.20836-.33734-.48617-.11906-.27781-.11906-.59531 0-.32742.11906-.61516.12898-.28773.33734-.49609.20836-.20836.48617-.32742.28774-.12898.60524-.12898.32742 0 .61515.12898.28774.11906.49609.32742.21828.20836.34727.49609.12898.28774.12898.61516zM-91.527927 346.50421v-10.17982h1.498199q.476249 0 .625077.44649l.168672.80367q.307577-.3175.64492-.57547.347265-.25797.724295-.44648.386952-.18852.823513-.28774.436562-.0992.952498-.0992.833435 0 1.478356.28774.64492.27781 1.07156.79374.436561.50602.654842 1.22039.228202.70445.228202 1.55773v6.47897h-2.450697v-6.47897q0-.93265-.436561-1.43867-.42664-.51593-1.289841-.51593-.634998 0-1.190622.28773-.555623.28774-1.051716.78383v7.36201zM-69.824999 336.16564q.962419 0 1.766089.30758.813592.30758 1.398981.90289.585389.58539.91281 1.44859.327421.85328.327421 1.9546 0 .27782-.02976.46633-.01984.17859-.0893.28773-.05953.0992-.168671.14883-.109141.0397-.277812.0397h-6.290453q.10914 1.56765.843357 2.30187.734217.73422 1.944683.73422.595311 0 1.02195-.13891.436562-.13891.754061-.30758.327421-.16867.565545-.30758.248047-.1389.476249-.1389.148828 0 .257968.0595.109141.0595.188515.16867l.714374.89297q-.406796.47625-.912811.80367-.506014.3175-1.061638.51593-.545701.18852-1.121169.26789-.565545.0794-1.101325.0794-1.061638 0-1.974448-.34727-.91281-.35718-1.587496-1.04179-.674686-.69453-1.061638-1.70656-.386952-1.02195-.386952-2.3614 0-1.04179.337343-1.9546.337342-.92274.962419-1.59742.634998-.68461 1.537887-1.08148.91281-.39688 2.053823-.39688zm.04961 1.75617q-1.07156 0-1.676793.60523-.605232.60524-.773904 1.71648h4.603739q0-.47625-.128984-.89296-.128985-.42664-.396874-.74414-.26789-.3175-.674686-.49609-.406796-.18852-.952498-.18852zM-52.98781 336.16564q.962419 0 1.766089.30758.813592.30758 1.398981.90289.585389.58539.91281 1.44859.327421.85328.327421 1.9546 0 .27782-.02977.46633-.01984.17859-.0893.28773-.05953.0992-.168672.14883-.10914.0397-.277811.0397h-6.290453q.10914 1.56765.843357 2.30187.734217.73422 1.944682.73422.595311 0 1.021951-.13891.436561-.13891.754061-.30758.327421-.16867.565545-.30758.248046-.1389.476249-.1389.148828 0 .257968.0595.10914.0595.188515.16867l.714373.89297q-.406795.47625-.91281.80367-.506014.3175-1.061638.51593-.545702.18852-1.121169.26789-.565545.0794-1.101325.0794-1.061638 0-1.974448-.34727-.912811-.35718-1.587496-1.04179-.674686-.69453-1.061638-1.70656-.386953-1.02195-.386953-2.3614 0-1.04179.337343-1.9546.337343-.92274.96242-1.59742.634998-.68461 1.537887-1.08148.91281-.39688 2.053823-.39688zm.04961 1.75617q-1.07156 0-1.676793.60523-.605233.60524-.773904 1.71648h4.603738q0-.47625-.128984-.89296-.128984-.42664-.396874-.74414t-.674686-.49609q-.406795-.18852-.952497-.18852zM-40.357486 346.50421v-10.17982h1.438668q.37703 0 .525858.13891.148828.1389.198437.47625l.148828 1.23031q.545702-.94258 1.279919-1.48828.734216-.5457 1.647027-.5457.75406 0 1.250153.34726l-.317499 1.83554q-.02977.1786-.128984.25797-.09922.0695-.26789.0695-.148828 0-.406796-.0695-.257968-.0694-.684608-.0694-.763982 0-1.309684.42664-.545702.41672-.922732 1.23031v6.34006zM-23.430062 336.32439v10.17982h-2.450697v-10.17982zm.367109-2.96663q0 .3175-.128984.59531t-.347265.48617q-.208359.20836-.496093.33734-.287733.11907-.615154.11907-.317499 0-.605233-.11907-.277812-.12898-.486171-.33734-.208359-.20836-.337343-.48617-.119062-.27781-.119062-.59531 0-.32742.119062-.61516.128984-.28773.337343-.49609.208359-.20836.486171-.32742.287734-.12898.605233-.12898.327421 0 .615154.12898.287734.11906.496093.32742.218281.20836.347265.49609.128984.28774.128984.61516zM-14.434543 346.50421v-10.17982h1.498199q.476249 0 .625077.44649l.168671.80367q.307578-.3175.644921-.57547.347264-.25797.724295-.44648.386952-.18852.8235132-.28774.4365614-.0992.9524976-.0992.8334354 0 1.4783557.28774.6449202.27781 1.0715598.79374.4365614.50602.6548421 1.22039.2282026.70445.2282026 1.55773v6.47897h-2.450697v-6.47897q0-.93265-.4365614-1.43867-.4266396-.51593-1.2898406-.51593-.634998 0-1.190622.28773-.555624.28774-1.051716.78383v7.36201zM6.5837769 336.1458q.6548422 0 1.2303095.13891.5754673.12898 1.0517161.38695h2.9269455v.91281q0 .2282-.119062.35718-.119062.12899-.406796.1786l-.91281.16867q.09922.25797.148828.5457.05953.28773.05953.60523 0 .75406-.307577 1.36922-.297656.60523-.8334359 1.03187-.5258581.42664-1.260075.66477-.724295.2282-1.5775742.2282-.5754673 0-1.121169-.10914-.4762488.28773-.4762488.64492 0 .30758.2778118.4564.2877336.13891.7441387.19844.466327.0595 1.0517162.0794.5853891.01 1.2005438.0595.6151547.0496 1.2005439.17859.5853895.11906 1.0417945.38695.466327.26789.744139.73422.287733.4564.287733 1.1807 0 .67468-.337343 1.30968-.327421.635-.962419 1.13109-.6250767.4961-1.537887.79375-.9128102.30758-2.0835885.30758-1.1608565 0-2.0141356-.2282-.8532791-.21828-1.4188246-.59531-.5556236-.36711-.8334354-.85328-.2778118-.48617-.2778118-1.01203 0-.71438.4365614-1.20055t1.2104657-.7739q-.3770303-.20836-.6052328-.55562-.2282026-.34727-.2282026-.90289 0-.22821.079375-.46633.079375-.24805.2381244-.48617.1686715-.23812.4167177-.44648.2480463-.21828.5853892-.38696-.7739043-.41671-1.2203876-1.11124-.4365614-.69453-.4365614-1.62719 0-.75406.2976555-1.35929.3075774-.61515.8433573-1.04179.5457017-.43657 1.2799187-.66477.7441387-.2282 1.6172615-.2282zm2.6888215 10.81482q0-.29766-.1785934-.48617-.1785933-.18852-.4861706-.28774-.3075774-.10914-.7242951-.15875-.4067958-.0496-.8731228-.0695-.4564051-.0298-.9524976-.0496-.4861707-.0298-.9425758-.0893-.4167177.22821-.6746858.54571-.2480463.30757-.2480463.71437 0 .26789.1289841.49609.1389059.23813.4266396.4068.2976555.16867.7639824.25796.466327.0992 1.1410128.0992.6846077 0 1.1807002-.10914.4960925-.0992.8135917-.28773.327421-.17859.4762488-.43656.1488278-.24805.1488278-.5457zm-2.6888215-5.79436q.4564052 0 .7937481-.11907.3373429-.12898.5556236-.34726.2282025-.21828.3373429-.52586.1190622-.30758.1190622-.67469 0-.75406-.4564051-1.19062-.4464833-.44648-1.3493717-.44648-.9028883 0-1.3592934.44648-.4464833.43656-.4464833 1.19062 0 .35719.1091404.66477.1190622.30758.3373429.53578.2282025.21828.5655454.34726.3472648.11907.793748.11907zM33.950336 336.16564q1.141012 0 2.063744.36711.932654.36711 1.587496 1.0418.654843.67468 1.012029 1.64702.357187.97234.357187 2.17289 0 1.21046-.357187 2.18281-.357186.97234-1.012029 1.65694-.654842.68461-1.587496 1.05172-.922732.36711-2.063744.36711-1.141013 0-2.073667-.36711-.932654-.36711-1.597418-1.05172-.654842-.6846-1.021951-1.65694-.357186-.97235-.357186-2.18281 0-1.20055.357186-2.17289.367109-.97234 1.021951-1.64702.664764-.67469 1.597418-1.0418.932654-.36711 2.073667-.36711zm0 8.60225q1.269996 0 1.875229-.85328.615155-.85328.615155-2.50031 0-1.64703-.615155-2.51023-.605233-.8632-1.875229-.8632-1.289841 0-1.904996.87313-.615154.8632-.615154 2.5003 0 1.63711.615154 2.50031.615155.85328 1.904996.85328zM47.53719 346.50421v-8.33435l-.883045-.13891q-.287734-.0496-.466327-.19844-.168671-.14882-.168671-.41671v-1.00211h1.518043v-.75406q0-.87312.257968-1.56765.26789-.69453.754061-1.1807.496092-.48617 1.200543-.74414.704452-.25797 1.587496-.25797.704452 0 1.309685.18851l-.04961 1.23031q-.01984.28774-.26789.35719-.248046.0695-.575467.0695-.436561 0-.783826.0992-.337343.0893-.575467.32742-.238125.22821-.367109.61516-.119062.37703-.119062.94257v.67469h2.649134v1.74624h-2.569759v8.34428z" style="font-weight:700;font-size:19.8437px;line-height:1.25;font-family:Lato;-inkscape-font-specification:'Lato Bold';text-align:center;letter-spacing:6.21771px;text-anchor:middle;fill:#fcfbfb;stroke-width:.264583" transform="matrix(1.03439 0 0 1 180.15409069 -126.57051)"/></g><g><path d="M-144.31885 362.911q-.14552.29104-.34396.41011-.1852.11906-.44979.11906-.26458 0-.59531-.19844-.33073-.21167-.78052-.46302-.44979-.25135-1.05833-.44979-.59531-.21167-1.41552-.21167-.74083 0-1.29646.18521-.54239.17198-.92604.48948-.37041.3175-.55562.76729-.18521.43656-.18521.96573 0 .67468.37042 1.12448.38364.44979 1.00541.76729.62177.3175 1.41552.56885.79375.25135 1.61396.54239.83343.27782 1.62718.66146.79375.37042 1.41552.9525.62177.56885.99219 1.40229.38364.83344.38364 2.02406 0 1.29646-.44979 2.43416-.43656 1.12448-1.29645 1.97115-.84667.83343-2.07698 1.32291-1.23031.47625-2.81781.47625-.91281 0-1.79916-.18521-.88636-.17197-1.70656-.5027-.80698-.33073-1.52136-.79375-.70114-.46302-1.25677-1.03188l1.03188-1.70656q.14552-.1852.34396-.30427.21166-.13229.46302-.13229.33072 0 .71437.27781.38365.26459.89958.59532.52917.33072 1.23031.60854.71438.26458 1.70656.26458 1.52136 0 2.35479-.71437.83344-.72761.83344-2.07698 0-.75406-.38365-1.23031-.37041-.47625-.99218-.79375-.62177-.33073-1.41552-.55563-.79375-.22489-1.61396-.48947-.82021-.26459-1.61395-.635-.79375-.37042-1.41552-.96573-.62177-.59531-1.00542-1.48167-.37042-.89958-.37042-2.20926 0-1.04511.41011-2.03729.42333-.99219 1.21708-1.75948.80698-.76729 1.97114-1.23031 1.16417-.46302 2.65906-.46302 1.69333 0 3.12208.52916 1.42875.52917 2.43417 1.48167zM-134.4867 364.77631q1.52136 0 2.75167.48948 1.24354.48948 2.11666 1.38906.87312.89958 1.34937 2.19604.47625 1.29646.47625 2.89718 0 1.61396-.47625 2.91042-.47625 1.29645-1.34937 2.20926-.87312.91282-2.11666 1.40229-1.23031.48948-2.75167.48948-1.52135 0-2.76489-.48948-1.24354-.48947-2.12989-1.40229-.87313-.91281-1.36261-2.20926-.47624-1.29646-.47624-2.91042 0-1.60072.47624-2.89718.48948-1.29646 1.36261-2.19604.88635-.89958 2.12989-1.38906 1.24354-.48948 2.76489-.48948zm0 11.46967q1.69333 0 2.50031-1.1377.82021-1.13771.82021-3.33375t-.82021-3.34697q-.80698-1.15094-2.50031-1.15094-1.71979 0-2.53999 1.16417-.82021 1.15093-.82021 3.33374t.82021 3.33375q.8202 1.1377 2.53999 1.1377zM-124.39658 378.56109V367.4486l-1.17739-.18521q-.38365-.0661-.62177-.26458-.2249-.19844-.2249-.55563v-1.33614h2.02406v-1.00542q0-1.16416.34396-2.0902.35719-.92604 1.00542-1.57427.66145-.64823 1.60072-.99219.93927-.34395 2.11667-.34395.93927 0 1.74625.25135l-.0661 1.64041q-.0265.38365-.35719.47625-.33073.0926-.76729.0926-.58208 0-1.0451.13229-.44979.11906-.76729.43656-.3175.30427-.48948.82021-.15875.50271-.15875 1.25677v.89958h3.53218v2.32833h-3.42635v11.12572zM-111.00578 378.77275q-1.75948 0-2.71198-.99218-.9525-1.00542-.9525-2.7649v-7.5803h-1.37583q-.26458 0-.46302-.17198-.18521-.17198-.18521-.51594V365.451l2.18281-.35719.68792-3.70416q.0529-.26458.23812-.4101.19844-.14553.48948-.14553h1.69333v4.27302h3.57187v2.32833h-3.57187v7.35541q0 .635.3175.99218.3175.35719.84667.35719.30427 0 .5027-.0661.21167-.0794.35719-.15875.15875-.0794.27781-.14552.11907-.0794.23813-.0794.14552 0 .23812.0794.0926.0661.19844.21166l.97896 1.5875q-.71438.59531-1.64042.89958-.92604.30427-1.91822.30427zM-106.62115 364.98798h2.59292q.37041 0 .62177.17198.25135.17198.3175.43656l1.94468 7.24957q.15875.59531.25136 1.16417.10583.56885.19843 1.13771.14552-.56886.30427-1.13771.17198-.56886.35719-1.16417l2.248957-7.27603q.07938-.26458.3175-.43656.238124-.17198.555624-.17198h1.441977q.357187 0 .595312.17198.238125.17198.317499.43656l2.222498 7.40832q.171979.56886.30427 1.11125.145521.52917.277812 1.07156.0926-.56885.198437-1.1377.119063-.56886.291042-1.1774l2.010831-7.24957q.06615-.26458.317499-.43656.251354-.17198.582083-.17198h2.473851l-4.299474 13.57311h-2.632601q-.423333 0-.608541-.58209l-2.447392-7.84488q-.119063-.38365-.224896-.76729-.0926-.39688-.15875-.78052-.07937.39687-.171979.79375-.0926.38364-.211666.78052l-2.473851 7.81842q-.185208.58209-.714374.58209h-2.500308zM-73.137753 378.56109h-1.468436q-.46302 0-.727603-.1323-.264583-.14552-.396874-.56885l-.291042-.96573q-.515937.46302-1.018644.82021-.489479.34396-1.018645.58208-.529166.23813-1.124477.35719-.595312.11906-1.322915.11906-.859895 0-1.587498-.22489-.727604-.23813-1.25677-.70115-.515937-.46302-.806978-1.15093-.291041-.68792-.291041-1.60073 0-.76729.396874-1.50812.410104-.75407 1.349374-1.34938.939269-.60854 2.500309-1.00541 1.56104-.39688 3.876141-.44979v-.79375q0-1.36261-.582083-2.01083-.568853-.66146-1.666873-.66146-.793749 0-1.322915.18521-.529166.1852-.92604.42333-.383645.22489-.714374.4101-.330729.18521-.727603.18521-.330729 0-.568854-.17198-.238125-.17198-.383645-.42333l-.595312-1.0451q2.34156-2.14313 5.648847-2.14313 1.190624 0 2.116664.39688.93927.38364 1.587498 1.08479.648228.68791.978957 1.65364.343958.96573.343958 2.11667zm-6.349992-2.03729q.502708 0 .926041-.0926.423332-.0926.793749-.27781.383645-.18521.727603-.44979.357187-.27781.714374-.64823v-2.28864q-1.428748.0661-2.394476.25135-.952499.17198-1.534582.44979-.582082.27782-.833436.64823-.238125.37042-.238125.80698 0 .85989.502708 1.23031.515937.37042 1.336144.37042zM-69.660144 378.56109v-13.57311h1.918227q.502708 0 .701145.18521.198437.1852.264583.635l.198437 1.64041q.727603-1.25677 1.706561-1.98437.978957-.72761 2.196038-.72761 1.005416 0 1.666873.46302l-.423332 2.4474q-.03969.23812-.171979.34396-.132292.0926-.357187.0926-.198438 0-.542396-.0926-.343957-.0926-.912811-.0926-1.018644 0-1.746248.56885-.727603.55563-1.230311 1.64042v8.45343zM-52.986043 364.77631q1.283228 0 2.354789.41011 1.08479.4101 1.86531 1.20385.78052.78052 1.217082 1.93145.436562 1.13771.436562 2.60615 0 .37041-.03969.62177-.02646.23812-.119062.38364-.07937.13229-.224896.19844-.14552.0529-.370416.0529h-8.387281q.145521 2.0902 1.124478 3.06916.978957.97896 2.592913.97896.793749 0 1.362603-.18521.582082-.18521 1.005415-.41011.436562-.22489.754062-.4101.330728-.18521.634999-.18521.198437 0 .343958.0794.14552.0794.251354.22489l.952498 1.19063q-.542395.635-1.217081 1.07156-.674687.42333-1.415519.68791-.727604.25136-1.494894.35719-.754062.10583-1.468436.10583-1.415519 0-2.632601-.46302-1.217082-.47625-2.116664-1.38906-.899582-.92604-1.415519-2.27541-.515937-1.3626-.515937-3.14854 0-1.38906.449792-2.60614.449791-1.23031 1.283227-2.1299.846666-.91281 2.050518-1.44197 1.217082-.52917 2.738434-.52917zm.06615 2.34156q-1.428748 0-2.235726.80698-.806978.80698-1.031874 2.28864h6.138326q0-.635-.171979-1.19062-.171979-.56885-.529166-.99219-.357187-.42333-.899583-.66146-.542395-.25135-1.269998-.25135zM-28.352952 362.911q-.145521.29104-.343958.41011-.185208.11906-.449791.11906t-.595312-.19844q-.330729-.21167-.78052-.46302-.449791-.25135-1.058332-.44979-.595311-.21167-1.415519-.21167-.740832 0-1.296456.18521-.542395.17198-.926041.48948-.370416.3175-.555624.76729-.185208.43656-.185208.96573 0 .67468.370416 1.12448.383645.44979 1.005415.76729.62177.3175 1.415519.56885.793749.25135 1.613957.54239.833436.27782 1.627185.66146.793749.37042 1.415519.9525.62177.56885.992186 1.40229.383646.83344.383646 2.02406 0 1.29646-.449791 2.43416-.436562 1.12448-1.296457 1.97115-.846666.83343-2.076977 1.32291-1.23031.47625-2.817808.47625-.912812 0-1.799165-.18521-.886353-.17197-1.70656-.5027-.806978-.33073-1.521352-.79375-.701145-.46302-1.25677-1.03188l1.031874-1.70656q.145521-.1852.343958-.30427.211666-.13229.46302-.13229.330729 0 .714374.27781.383646.26459.899582.59532.529166.33072 1.230311.60854.714374.26458 1.706561.26458 1.521352 0 2.354788-.71437.833437-.72761.833437-2.07698 0-.75406-.383646-1.23031-.370416-.47625-.992186-.79375-.62177-.33073-1.415519-.55563-.793749-.22489-1.613956-.48947-.820207-.26459-1.613956-.635-.793749-.37042-1.415519-.96573-.62177-.59531-1.005416-1.48167-.370416-.89958-.370416-2.20926 0-1.04511.410104-2.03729.423332-.99219 1.217081-1.75948.806979-.76729 1.971144-1.23031 1.164165-.46302 2.659059-.46302 1.693331 0 3.122079.52916 1.428748.52917 2.434164 1.48167zM-19.499755 382.29171q-.14552.34395-.383645.51593-.224896.18521-.701145.18521h-2.434164l2.539997-5.43718-5.490097-12.56769h2.857496q.396875 0 .608541.18521.211667.1852.3175.42333l2.897184 7.03791q.14552.34395.251353.71437.105834.37042.185209.74083.105833-.38364.224895-.74083.132292-.35719.277812-.7276l2.725205-7.02468q.105833-.26458.343958-.43656.251354-.17198.555624-.17198h2.619372zM-1.8863749 367.63381q-.1322915.21166-.2778122.30427-.1455206.0794-.3704162.0794-.2381247 0-.5159368-.13229-.264583-.13229-.62177-.29104-.3571871-.17198-.8202073-.30427-.4497911-.13229-1.0715612-.13229-.9657279 0-1.5213522.4101-.5556243.41011-.5556243 1.07156 0 .43657.2778122.74084.2910412.29104.7540615.51593.4762494.2249 1.0715611.41011.5953118.17198 1.2170818.38364.6217701.21167 1.2170818.48948.5953117.26458 1.058332.68792.4762494.4101.7540615.99218.2910413.58208.2910413 1.40229 0 .97896-.357187 1.8124-.3571871.8202-1.0451029 1.42874-.6879158.59532-1.7065603.93927-1.0054154.33073-2.3151012.33073-.7011449 0-1.3758316-.13229-.6614575-.11906-1.2832275-.34396-.6085409-.22489-1.1377066-.52916-.515937-.30427-.912812-.66146l.754062-1.24354q.145521-.2249.343958-.34396.198437-.11906.5027075-.11906.3042704 0 .5688534.17198.2778122.17198.6349992.37041.3571871.19844.8334365.37042.4894785.17198 1.2303109.17198.5820826 0 .9921862-.13229.4233328-.14552.6879158-.37042.2778122-.22489.3968745-.51594.1322915-.30427.1322915-.62177 0-.47624-.2910413-.78052-.2778121-.30427-.7540615-.52916-.4630203-.2249-1.0715612-.39688-.5953117-.1852-1.2303109-.39687-.62177-.21167-1.2303109-.48948-.5953118-.29104-1.0715612-.7276-.4630205-.43656-.7540615-1.07156-.277812-.635-.277812-1.53458 0-.83344.330729-1.5875.330728-.75406.9657275-1.30969.6482284-.56885 1.6007272-.89958.9657279-.34396 2.2224971-.34396 1.4022899 0 2.5532259.46302 1.1509361.46302 1.9182268 1.21708zM6.3553842 378.77275q-1.7594769 0-2.7119757-.99218-.9524988-1.00542-.9524988-2.7649v-7.5803H1.3150781q-.264583 0-.46302021-.17198-.18520809-.17198-.18520809-.51594V365.451l2.1828097-.35719.6879158-3.70416q.052917-.26458.2381247-.4101.1984373-.14553.4894785-.14553h1.6933312v4.27302h3.5718705v2.32833H5.9585097v7.35541q0 .635.3174996.99218.3174996.35719.8466656.35719.3042705 0 .5027077-.0661.2116664-.0794.357187-.15875.1587498-.0794.2778122-.14552.1190623-.0794.2381247-.0794.1455206 0 .2381247.0794.092604.0661.1984372.21166l.9789571 1.5875q-.7143741.59531-1.6404146.89958-.9260404.30427-1.9182267.30427zM18.002811 364.77631q1.283227 0 2.354788.41011 1.084791.4101 1.865311 1.20385.780519.78052 1.217081 1.93145.436562 1.13771.436562 2.60615 0 .37041-.03969.62177-.02646.23812-.119063.38364-.07937.13229-.224895.19844-.145521.0529-.370416.0529h-8.387281q.14552 2.0902 1.124477 3.06916.978958.97896 2.592914.97896.793749 0 1.362602-.18521.582083-.18521 1.005416-.41011.436562-.22489.754061-.4101.330729-.18521.634999-.18521.198438 0 .343958.0794.145521.0794.251354.22489l.952499 1.19063q-.542395.635-1.217082 1.07156-.674687.42333-1.415519.68791-.727603.25136-1.494894.35719-.754061.10583-1.468435.10583-1.41552 0-2.632601-.46302-1.217082-.47625-2.116664-1.38906-.899582-.92604-1.415519-2.27541-.515937-1.3626-.515937-3.14854 0-1.38906.449791-2.60614.449791-1.23031 1.283227-2.1299.846666-.91281 2.050519-1.44197 1.217082-.52917 2.738434-.52917zm.06614 2.34156q-1.428748 0-2.235726.80698-.806978.80698-1.031874 2.28864h6.138326q0-.635-.171979-1.19062-.171979-.56885-.529166-.99219-.357187-.42333-.899582-.66146-.542395-.25135-1.269999-.25135zM26.817571 378.56109v-13.57311h1.997602q.634999 0 .833436.59531l.211666 1.00542q.357187-.39688.740833-.72761.396874-.33073.833436-.56885.449791-.23813.952499-.37042.515937-.14552 1.124478-.14552 1.283227 0 2.103435.70115.833436.68791 1.24354 1.83885.317499-.67469.793749-1.15094.476249-.48948 1.045102-.79375.568854-.30427 1.203853-.44979.648228-.14552 1.296457-.14552 1.124477 0 1.997601.34396t1.468436 1.00541q.595312.66146.899582 1.61396.3175.9525.3175 2.18281v8.63864h-3.2676v-8.63864q0-1.29646-.568854-1.94468-.568853-.66146-1.666873-.66146-.502707 0-.939269.17198-.423333.17198-.754062.50271-.317499.31749-.502707.80697-.185209.48948-.185209 1.12448v8.63864h-3.280829v-8.63864q0-1.3626-.555624-1.98437-.542395-.62177-1.613956-.62177-.701145 0-1.322915.35719-.608541.34395-1.137707.95249v9.9351zM57.411217 367.63381q-.132291.21166-.277812.30427-.145521.0794-.370416.0794-.238125 0-.515937-.13229-.264583-.13229-.62177-.29104-.357187-.17198-.820207-.30427-.449791-.13229-1.071561-.13229-.965728 0-1.521353.4101-.555624.41011-.555624 1.07156 0 .43657.277812.74084.291042.29104.754062.51593.476249.2249 1.071561.41011.595312.17198 1.217082.38364.62177.21167 1.217081.48948.595312.26458 1.058332.68792.47625.4101.754062.99218.291041.58208.291041 1.40229 0 .97896-.357187 1.8124-.357187.8202-1.045103 1.42874-.687915.59532-1.70656.93927-1.005415.33073-2.315101.33073-.701145 0-1.375832-.13229-.661457-.11906-1.283227-.34396-.608541-.22489-1.137707-.52916-.515937-.30427-.912811-.66146l.754061-1.24354q.145521-.2249.343958-.34396.198437-.11906.502708-.11906.30427 0 .568853.17198.277812.17198.634999.37041.357187.19844.833437.37042.489478.17198 1.230311.17198.582082 0 .992186-.13229.423333-.14552.687916-.37042.277812-.22489.396874-.51594.132292-.30427.132292-.62177 0-.47624-.291042-.78052-.277812-.30427-.754061-.52916-.46302-.2249-1.071561-.39688-.595312-.1852-1.230311-.39687-.62177-.21167-1.230311-.48948-.595312-.29104-1.071561-.7276-.463021-.43656-.754062-1.07156-.277812-.635-.277812-1.53458 0-.83344.330729-1.5875t.965728-1.30969q.648228-.56885 1.600727-.89958.965728-.34396 2.222497-.34396 1.40229 0 2.553226.46302t1.918227 1.21708z" style="font-weight:700;font-size:26.4583px;line-height:1.25;font-family:Lato;-inkscape-font-specification:'Lato Bold';text-align:center;letter-spacing:.264583px;text-anchor:middle;fill:#fcfbfb;stroke-width:.264583" transform="translate(176.31394659 -126.57051)"/></g><g style="display:inline;stroke-width:.973737"><path style="display:inline;fill:none;fill-opacity:1;stroke:#fff;stroke-width:1.28818;stroke-miterlimit:4;stroke-dasharray:none;stroke-opacity:1;stop-color:#000" d="M1782.1676 20.767954a13.08618 7.5675644 0 0 1-13.0861 7.56751 13.08618 7.5675644 0 0 1-13.0861-7.56751 13.08618 7.5675644 0 0 1 13.0861-7.567491 13.08618 7.5675644 0 0 1 13.0861 7.567491z" transform="matrix(1.0268 0 0 1.02714 -1610.71269841 63.03668)"/><path style="display:inline;fill:none;fill-opacity:1;stroke:#fff;stroke-width:1.80344;stroke-miterlimit:4;stroke-dasharray:none;stroke-opacity:1;stop-color:#000" d="M1784.3419 20.767949a22.072017 13.147164 0 0 1-22.0719 13.14707 22.072017 13.147164 0 0 1-22.0719-13.14707A22.072017 13.147164 0 0 1 1762.27 7.6209093a22.072017 13.147164 0 0 1 22.0719 13.1470397Z" transform="matrix(1.0268 0 0 1.02714 -1610.71269841 63.03668)"/><path style="display:inline;fill:none;fill-opacity:1;stroke:#fff;stroke-width:2.83399;stroke-miterlimit:4;stroke-dasharray:none;stroke-opacity:1;stop-color:#000" d="M1787.3059 20.767934a37.060391 22.626378 0 0 1-37.0602 22.62622 37.060391 22.626378 0 0 1-37.0601-22.62622 37.060391 22.626378 0 0 1 37.0601-22.6261599 37.060391 22.626378 0 0 1 37.0602 22.6261599z" transform="matrix(1.0268 0 0 1.02714 -1610.71269841 63.03668)"/><path style="display:inline;fill:none;fill-opacity:1;stroke:#fff;stroke-width:3.86453;stroke-miterlimit:4;stroke-dasharray:none;stroke-opacity:1;stop-color:#000" d="M1791.6137 20.767924a61.7609 38.415188 0 0 1-61.7606 38.41491 61.7609 38.415188 0 0 1-61.7605-38.41491 61.7609 38.415188 0 0 1 61.7605-38.41483 61.7609 38.415188 0 0 1 61.7606 38.41483z" transform="matrix(1.0268 0 0 1.02714 -1610.71269841 63.03668)"/><path style="display:inline;fill:none;fill-opacity:1;stroke:#fff;stroke-width:4.37979;stroke-miterlimit:4;stroke-dasharray:none;stroke-opacity:1;stop-color:#000" d="M1796.7078 20.767889a102.17561 64.412905 0 0 1-102.1752 64.41245 102.17561 64.412905 0 0 1-102.1749-64.41245 102.17561 64.412905 0 0 1 102.1749-64.4123 102.17561 64.412905 0 0 1 102.1752 64.4123z" transform="matrix(1.0268 0 0 1.02714 -1610.71269841 63.03668)"/></g><g style="display:inline"><path d="M-318.40607 550.95088q0 1.42028-.36164 2.56117-.36164 1.14088-1.08493 1.94415-.71123.80327-1.7841 1.23402-1.07286.43074-2.49532.43074-.65096 0-1.2778-.0815-.62685-.0698-1.31396-.23284l.16876-1.86266q.0241-.25612.19288-.40746.18082-.16298.51835-.16298.20493 0 .53041.0815.33753.0815.84383.0815.68712 0 1.21752-.18627.53041-.1979.87999-.617.36165-.4191.54247-1.08268.18082-.67521.18082-1.62983v-10.91987h3.24272zM-305.74314 544.99036v7.59035q0 1.09432.51836 1.69968.5304.59373 1.57917.59373.77149 0 1.44656-.32597.67507-.33761 1.2778-.91969v-8.6381h2.97752v11.94433h-1.82027q-.57862 0-.75945-.52387l-.20492-.95462q-.38576.37253-.79561.68686-.40987.30268-.88.52387-.45808.20955-1.00054.32597-.53041.12806-1.1452.12806-1.0126 0-1.79615-.32597-.77151-.33761-1.30191-.94297-.5304-.60537-.80766-1.43193-.26521-.83819-.26521-1.83938v-7.59035zm1.9167-3.09668q0 .32596-.1326.61701-.1326.2794-.3737.48895-.22904.20954-.54246.3376-.30136.11642-.6389.11642-.32547 0-.62684-.11642-.28931-.12806-.51836-.3376-.22904-.20955-.36163-.48895-.1326-.29105-.1326-.61701 0-.33761.1326-.62865.13259-.30268.36163-.52388.22905-.22119.51836-.34924.30137-.12806.62684-.12806.33754 0 .6389.12806.31342.12805.54246.34924.2411.2212.3737.52388.1326.29104.1326.62865zm4.50847 0q0 .32596-.13261.61701-.1326.2794-.36164.48895-.22904.20954-.54246.3376-.30136.11642-.6389.11642t-.6389-.11642q-.30137-.12806-.53041-.3376-.21698-.20955-.34959-.48895-.1326-.29105-.1326-.61701 0-.33761.1326-.62865.13261-.30268.34959-.52388.22904-.22119.53041-.34924.30136-.12806.6389-.12806t.6389.12806q.31342.12805.54246.34924.22904.2212.36164.52388.13261.29104.13261.62865zM-288.18938 556.93469v-11.94433h1.74794q.45807 0 .6389.16298.18082.16298.24109.5588l.18083 1.44356q.66301-1.10595 1.55505-1.74624.89205-.64029 2.00108-.64029.91616 0 1.5189.40745l-.38575 2.15371q-.0361.20955-.15671.30268-.12055.0815-.32548.0815-.18082 0-.49425-.0815-.31342-.0815-.83177-.0815-.92822 0-1.59122.50059-.66301.48895-1.12109 1.44357v7.43901zM-267.49311 544.78081q.79562 0 1.49478.16298.69918.15134 1.27781.45402h3.55614v1.07104q0 .26775-.14465.4191-.14466.15134-.49425.20955l-1.10903.1979q.12054.30269.18081.64029.0723.33761.0723.71015 0 .88476-.37369 1.60654-.36165.71014-1.0126 1.21073-.6389.5006-1.53095.78-.87999.26775-1.9167.26775-.69917 0-1.36218-.12805-.57863.3376-.57863.7567 0 .36089.33754.53552.34958.16298.9041.23283.56657.0699 1.2778.0931.71123.0116 1.45862.0698t1.45862.20955q.71123.1397 1.26574.45403.56658.31432.90411.86148.34958.53552.34958 1.38536 0 .79163-.40985 1.53669-.39781.74507-1.16931 1.32715-.75945.58209-1.86848.93133-1.10904.3609-2.53149.3609-1.41041 0-2.44711-.26776-1.0367-.25612-1.72383-.6985-.67506-.43074-1.01258-1.00118-.33754-.57044-.33754-1.18745 0-.8382.5304-1.40864.53041-.57044 1.47068-.90805-.45808-.24447-.73534-.65193-.27726-.40746-.27726-1.05939 0-.26776.0964-.54716.0964-.29104.28932-.57044.20493-.2794.5063-.52387.30136-.25612.71122-.45403-.94026-.48895-1.48273-1.30386-.5304-.81492-.5304-1.90923 0-.88477.36164-1.59491.37369-.72178 1.02465-1.22237.66301-.51224 1.55505-.77999.9041-.26776 1.96492-.26776zm3.26683 12.6894q0-.34925-.21698-.57044-.21699-.2212-.59068-.33761-.3737-.12806-.87999-.18627-.49425-.0582-1.06082-.0815-.55451-.0349-1.15726-.0582-.59068-.0349-1.14519-.10477-.5063.26775-.81973.64029-.30136.36089-.30136.8382 0 .31432.15671.58208.16877.2794.51835.47731.36164.1979.92821.30268.56658.11642 1.3863.11642.83178 0 1.43451-.12806.60273-.11642.98848-.33761.39781-.20955.57863-.51223.18082-.29104.18082-.64029zm-3.26683-6.79873q.55453 0 .96438-.1397.40986-.15134.67506-.40746.27726-.25611.40987-.617.14465-.36089.14465-.79163 0-.88477-.55452-1.397-.54246-.52388-1.63944-.52388-1.09697 0-1.65149.52388-.54246.51223-.54246 1.397 0 .41909.1326.77999.14466.36089.40986.62864.27726.25612.68712.40746.42192.1397.96437.1397zM-247.60751 544.80409q1.1693 0 2.14574.36089.98848.36089 1.69971 1.05939.71123.68686 1.10904 1.69968.39781 1.00118.39781 2.29341 0 .32596-.0361.54716-.0241.20955-.10849.3376-.0724.11642-.20493.17463-.13261.0466-.33754.0466h-7.64269q.1326 1.83939 1.02466 2.70087.89205.86148 2.36272.86148.72329 0 1.24164-.16298.5304-.16299.91615-.36089.39781-.19791.68712-.3609.30137-.16298.57863-.16298.18082 0 .31342.0698.1326.0699.22904.19791l.86794 1.04775q-.49425.5588-1.10903.94297-.6148.37253-1.28986.60537-.66301.22119-1.36218.31432-.68712.0931-1.33808.0931-1.28984 0-2.39889-.40746-1.10903-.4191-1.92874-1.22238-.81972-.81491-1.28986-2.00236-.47013-1.19909-.47013-2.77071 0-1.22238.40986-2.29341.40986-1.08267 1.16931-1.8743.7715-.80328 1.86847-1.26894 1.10904-.46567 2.49533-.46567zm.0603 2.06057q-1.30191 0-2.03725.71014-.73533.71014-.94026 2.01401h5.59339q0-.5588-.15671-1.04775-.15671-.50059-.4822-.87312-.32547-.37254-.81971-.58209-.49425-.22119-1.15726-.22119zM-233.24109 556.93469v-11.94433h1.82026q.57862 0 .75945.52387l.20493.94298q.37369-.37254.78355-.67522.42191-.30268.88-.52387.47013-.2212 1.00053-.33761.53041-.11642 1.15726-.11642 1.0126 0 1.79616.33761.78354.32596 1.3019.93133.53041.59372.79561 1.43192.27726.82656.27726 1.82774v7.602h-2.97752v-7.602q0-1.09431-.5304-1.68804-.51835-.60536-1.56711-.60536-.77151 0-1.44657.33761-.67506.3376-1.2778.91969v8.6381zM-190.56322 540.10086v2.49132h-7.72707v4.6683h6.08764v2.40982h-6.08764v4.76144h7.72707v2.50295h-10.99389v-16.83383zM-181.35357 556.93469V539.6352h2.97751v6.64738q.72329-.66357 1.59123-1.07103.86794-.40746 2.03725-.40746 1.01259 0 1.79614.33761.78356.32596 1.30191.93133.53041.59372.79562 1.43192.27726.82656.27726 1.82774v7.602h-2.97752v-7.602q0-1.09431-.53041-1.68804-.51835-.60536-1.56711-.60536-.7715 0-1.44657.33761-.67506.3376-1.2778.91969v8.6381zM-161.07545 556.93469v-11.94433h1.74793q.45809 0 .63891.16298.18082.16298.24109.5588l.18082 1.44356q.66301-1.10595 1.55506-1.74624.89205-.64029 2.00109-.64029.91615 0 1.51888.40745l-.38574 2.15371q-.0361.20955-.15671.30268-.12056.0815-.32548.0815-.18082 0-.49424-.0815-.31343-.0815-.83178-.0815-.92821 0-1.59122.50059-.66302.48895-1.12109 1.44357v7.43901zM-139.54741 544.80409q1.16931 0 2.14575.36089.98848.36089 1.69971 1.05939.71123.68686 1.10903 1.69968.39781 1.00118.39781 2.29341 0 .32596-.0361.54716-.0241.20955-.10848.3376-.0724.11642-.20494.17463-.1326.0466-.33753.0466h-7.64268q.13259 1.83939 1.02465 2.70087.89204.86148 2.36272.86148.72328 0 1.24163-.16298.53041-.16299.91616-.36089.39781-.19791.68712-.3609.30137-.16298.57863-.16298.18081 0 .31342.0698.1326.0699.22903.19791l.86794 1.04775q-.49424.5588-1.10903.94297-.61478.37253-1.28985.60537-.66301.22119-1.36218.31432-.68712.0931-1.33808.0931-1.28985 0-2.39889-.40746-1.10903-.4191-1.92875-1.22238-.81972-.81491-1.28986-2.00236-.47013-1.19909-.47013-2.77071 0-1.22238.40987-2.29341.40985-1.08267 1.1693-1.8743.7715-.80328 1.86848-1.26894 1.10903-.46567 2.49532-.46567zm.0603 2.06057q-1.30191 0-2.03725.71014-.73534.71014-.94027 2.01401h5.59339q0-.5588-.15671-1.04775-.15671-.50059-.48219-.87312-.32547-.37254-.81972-.58209-.49424-.22119-1.15725-.22119zM-121.11854 557.12096q-1.60328 0-2.47122-.87313-.86794-.88476-.86794-2.4331v-6.67067h-1.25369q-.24109 0-.42192-.15134-.16876-.15134-.16876-.45402v-1.14089l1.98903-.31432.62685-3.25966q.0482-.23283.21698-.36089.18082-.12806.44602-.12806h1.54301v3.76025h3.25477v2.04893h-3.25477v6.47276q0 .5588.28931.87312.28931.31433.77151.31433.27725 0 .45807-.0582.19288-.0698.32547-.1397.14466-.0699.25316-.12806.10849-.0698.21698-.0698.13261 0 .21699.0698.0844.0582.18082.18627l.89204 1.397q-.65094.52387-1.49478.79163-.84383.26776-1.74793.26776z" style="font-weight:700;font-size:23.2833px;line-height:1.25;font-family:Lato;-inkscape-font-specification:'Lato Bold';font-variation-settings:normal;text-align:center;letter-spacing:6.35px;text-anchor:middle;opacity:1;vector-effect:none;fill:#fff;fill-opacity:1;stroke:none;stroke-width:.796215;stroke-linecap:butt;stroke-linejoin:miter;stroke-miterlimit:4;stroke-dasharray:none;stroke-dashoffset:0;stroke-opacity:1;-inkscape-stroke:none;stop-color:#000;stop-opacity:1" transform="translate(667.16743 -353.74025)"/><path d="M-323.97863 585.46746h-2.74519v-14.347h2.74519zM-317.68937 585.46746v-10.17982h1.53527q.48804 0 .64055.44648l.17285.80367q.31519-.3175.66087-.57547.35586-.25796.74222-.44648.39653-.18852.84389-.28773.44737-.0992.97606-.0992.85406 0 1.51494.28773.66088.27781 1.09808.79375.44736.50601.67104 1.22039.23386.70445.23386 1.55773v6.47897h-2.51134v-6.47897q0-.93266-.44737-1.43867-.43719-.51594-1.32175-.51594-.65071 0-1.22009.28774-.56937.28773-1.07774.78382v7.36202zM-299.40453 575.10904q.67105 0 1.26076.13891.58971.12898 1.07774.38695h2.99937v.91281q0 .22821-.12201.35719t-.41686.17859l-.9354.16867q.10165.25797.15251.54571.061.28773.061.60523 0 .75406-.31518 1.36921-.30502.60524-.85406 1.03188-.53887.42664-1.29125.66476-.74222.2282-1.61662.2282-.58971 0-1.14891-.10914-.48803.28774-.48803.64492 0 .30758.28469.45641.29485.1389.76254.19843.47787.0595 1.07775.0794.59987.01 1.23024.0595.63038.0496 1.23026.17859.59987.11907 1.06757.38696.47787.26789.76255.73421.29486.45641.29486 1.1807 0 .67469-.3457 1.30969-.33552.635-.98623 1.13109-.64054.49609-1.57593.79375-.9354.30757-2.13515.30757-1.18959 0-2.06398-.2282-.87439-.21828-1.45393-.59531-.56938-.36711-.85406-.85328-.28468-.48617-.28468-1.01203 0-.71437.44736-1.20054t1.24042-.77391q-.38636-.20835-.62022-.55562-.23384-.34726-.23384-.90289 0-.2282.0814-.46632.0814-.24805.24401-.48618.17285-.23812.42704-.44648.25417-.21828.59987-.38695-.79306-.41672-1.25059-1.11125-.44736-.69453-.44736-1.62718 0-.75406.30502-1.35929.31519-.61516.86422-1.0418.55921-.43656 1.31159-.66476.76256-.22821 1.65728-.22821zm2.75536 10.81482q0-.29765-.18301-.48617-.18301-.18851-.4982-.28773-.31519-.10914-.74223-.15875-.41685-.0496-.89472-.0695-.46769-.0298-.97607-.0496-.4982-.0298-.96589-.0893-.42703.2282-.69139.5457-.25417.30758-.25417.71437 0 .26789.13217.4961.14234.23812.43719.40679.30502.16867.78289.25797.47787.0992 1.16924.0992.70155 0 1.20992-.10914.50837-.0992.83373-.28774.33552-.17859.48803-.43656.15251-.24804.15251-.5457zm-2.75536-5.79436q.46771 0 .81339-.11906.34569-.12899.56937-.34727.23386-.21828.3457-.52585.12201-.30758.12201-.67469 0-.75406-.46771-1.19062-.45753-.44649-1.38276-.44649t-1.39292.44649q-.45753.43656-.45753 1.19062 0 .35719.11184.66476.12201.30758.34569.53578.23384.21828.57953.34727.35587.11906.81339.11906zM-285.06018 575.12889q.98624 0 1.80979.30758.83373.30757 1.4336.90288.59988.58539.9354 1.44859.33552.85328.33552 1.95461 0 .27781-.0305.46633-.0203.17859-.0915.28773-.061.0992-.17284.14883-.11184.0397-.28469.0397h-6.4461q.11184 1.56766.86422 2.30187.75239.73422 1.99281.73422.61004 0 1.04724-.13891.44736-.1389.77272-.30757.33552-.16867.57953-.30758.25419-.13891.48803-.13891.15252 0 .26436.0595t.19317.16868l.73206.89296q-.41687.47625-.9354.80367-.51854.3175-1.08791.51594-.5592.18851-1.14891.26789-.57953.0794-1.12857.0794-1.08791 0-2.02331-.34726-.93539-.35719-1.62678-1.0418-.69137-.69452-1.08791-1.70655-.39652-1.02195-.39652-2.3614 0-1.0418.34568-1.95461.3457-.92273.98624-1.59742.65071-.6846 1.57594-1.08148.9354-.39687 2.10464-.39687zm.0508 1.75617q-1.09807 0-1.71828.60523-.62021.60523-.79305 1.71648h4.71765q0-.47625-.13218-.89297-.13217-.42664-.40669-.74414-.27451-.3175-.69138-.49609-.41687-.18851-.97607-.18851zM-275.37088 585.46746v-10.17982h1.53527q.48804 0 .64054.44648l.17285.80367q.31518-.3175.66088-.57547.35585-.25796.74221-.44648.39653-.18852.84389-.28773.44737-.0992.97607-.0992.85406 0 1.51494.28773.66088.27781 1.09807.79375.44737.50601.67105 1.22039.23384.70445.23384 1.55773v6.47897h-2.51133v-6.47897q0-.93266-.44737-1.43867-.4372-.51594-1.32176-.51594-.65071 0-1.22008.28774-.56937.28773-1.07773.78382v7.36202zM-258.02144 575.28764v10.17982h-2.51134v-10.17982zm.3762-2.96664q0 .3175-.13219.59532-.13217.27781-.35585.48617-.21351.20835-.50836.33734-.29486.11906-.63039.11906-.32535 0-.6202-.11906-.28469-.12899-.4982-.33734-.21352-.20836-.3457-.48617-.122-.27782-.122-.59532 0-.32742.122-.61515.13218-.28773.3457-.49609.21351-.20836.4982-.32742.29485-.12899.6202-.12899.33553 0 .63039.12899.29485.11906.50836.32742.22368.20836.35585.49609.13219.28773.13219.61515zM-247.74594 575.12889q.98624 0 1.80979.30758.83373.30757 1.4336.90288.59988.58539.9354 1.44859.33552.85328.33552 1.95461 0 .27781-.0305.46633-.0203.17859-.0915.28773-.061.0992-.17284.14883-.11184.0397-.2847.0397h-6.4461q.11184 1.56766.86423 2.30187.75239.73422 1.9928.73422.61004 0 1.04724-.13891.44736-.1389.77272-.30757.33552-.16867.57954-.30758.25418-.13891.48803-.13891.15251 0 .26436.0595.11184.0595.19317.16868l.73205.89296q-.41686.47625-.9354.80367-.51853.3175-1.0879.51594-.55921.18851-1.14891.26789-.57954.0794-1.12858.0794-1.08791 0-2.02331-.34726-.9354-.35719-1.62677-1.0418-.69138-.69452-1.08791-1.70655-.39652-1.02195-.39652-2.3614 0-1.0418.34568-1.95461.34569-.92273.98624-1.59742.65071-.6846 1.57594-1.08148.9354-.39687 2.10464-.39687zm.0508 1.75617q-1.09807 0-1.71828.60523-.62022.60523-.79306 1.71648h4.71766q0-.47625-.13218-.89297-.13218-.42664-.4067-.74414t-.69137-.49609q-.41687-.18851-.97607-.18851zM-235.75882 575.28764v6.46904q0 .93266.4372 1.44859.44736.50602 1.33192.50602.65071 0 1.22008-.27781.56937-.28774 1.07775-.78383v-7.36201h2.51133v10.17982h-1.53527q-.48804 0-.64054-.44649l-.17284-.81359q-.32536.3175-.67106.58539-.34569.25797-.74221.44648-.38636.1786-.8439.27782-.44736.10914-.96589.10914-.85406 0-1.51494-.27782-.65071-.28773-1.09808-.80367-.44736-.51593-.68121-1.22038-.22368-.71438-.22368-1.56766v-6.46904zM-223.38122 585.46746v-10.17982h1.47427q.38636 0 .53886.1389.15252.13891.20335.47625l.15252 1.23031q.5592-.94257 1.31159-1.48828.75237-.5457 1.68777-.5457.77273 0 1.2811.34727l-.32536 1.83554q-.0305.17859-.13218.25797-.10166.0694-.27452.0694-.1525 0-.41686-.0694-.26435-.0695-.70155-.0695-.78288 0-1.34208.42664-.55922.41672-.94558 1.23031v6.34007zM-211.93202 585.46746v-14.74387h2.51135v5.8142q.6202-.64492 1.40309-1.02195.78288-.38695 1.83012-.38695.85406 0 1.55561.34726.71172.33735 1.22008.99219.51853.65484.79305 1.61726.28469.96242.28469 2.21257 0 1.14101-.31519 2.11336-.31519.97234-.9049 1.68671-.57953.71437-1.41325 1.12117-.82356.39687-1.85046.39687-.47787 0-.8744-.0992-.39652-.0893-.72188-.25797t-.61004-.4068q-.27452-.24805-.52871-.5457l-.11184.68461q-.061.25797-.21351.36711-.14234.10914-.39653.10914zm4.88034-8.43358q-.7829 0-1.3421.32742-.54904.3175-1.02689.90289v4.56405q.42702.51594.92522.7243.50837.19844 1.09807.19844.56938 0 1.02691-.20836t.77272-.635q.32535-.42664.4982-1.07156.17284-.65484.17284-1.53789 0-.89296-.1525-1.50812-.14235-.62508-.41687-1.01203t-.67104-.56554q-.38636-.1786-.88456-.1786zM-194.94955 575.28764v6.46904q0 .93266.43719 1.44859.44737.50602 1.33193.50602.65071 0 1.22008-.27781.56937-.28774 1.07774-.78383v-7.36201h2.51134v10.17982h-1.53527q-.48804 0-.64055-.44649l-.17284-.81359q-.32536.3175-.67105.58539-.34569.25797-.74222.44648-.38636.1786-.84388.27782-.44737.10914-.96591.10914-.85405 0-1.51493-.27782-.65071-.28773-1.09807-.80367-.44738-.51593-.68122-1.22038-.22368-.71438-.22368-1.56766v-6.46904zm1.6166-2.63921q0 .27781-.11184.52585-.11184.23813-.31519.41672-.19317.17859-.45753.28773-.25417.0992-.53887.0992-.27452 0-.5287-.0992-.24402-.10914-.43719-.28773-.19319-.17859-.30503-.41672-.11184-.24804-.11184-.52585 0-.28774.11184-.53578.11184-.25797.30503-.44649.19317-.18851.43719-.29765.25418-.10914.5287-.10914.2847 0 .53887.10914.26436.10914.45753.29765.20335.18852.31519.44649.11184.24804.11184.53578zm3.80259 0q0 .27781-.11184.52585-.11184.23813-.30501.41672-.19319.17859-.45753.28773-.25419.0992-.53887.0992-.28469 0-.53887-.0992-.25419-.10914-.44737-.28773-.18302-.17859-.29486-.41672-.11184-.24804-.11184-.52585 0-.28774.11184-.53578.11184-.25797.29486-.44649.19318-.18851.44737-.29765.25418-.10914.53887-.10914.28468 0 .53887.10914.26434.10914.45753.29765.19317.18852.30501.44649.11184.24804.11184.53578zM-182.57194 585.46746v-10.17982h1.47427q.38635 0 .53886.1389.15251.13891.20335.47625l.15251 1.23031q.5592-.94257 1.31159-1.48828.75238-.5457 1.68778-.5457.77272 0 1.28109.34727l-.32536 1.83554q-.0305.17859-.13218.25797-.10165.0694-.27452.0694-.1525 0-.41685-.0694-.26436-.0695-.70155-.0695-.78289 0-1.34209.42664-.5592.41672-.94557 1.23031v6.34007zM-166.69996 575.12889q1.16925 0 2.11481.36711.95574.3671 1.62678 1.04179.67105.67469 1.03707 1.64703.36602.97234.36602 2.17288 0 1.21047-.36602 2.18281t-1.03707 1.65695q-.67104.68461-1.62678 1.05172-.94556.3671-2.11481.3671-1.16924 0-2.12498-.3671-.95573-.36711-1.63694-1.05172-.67105-.68461-1.04724-1.65695-.36602-.97234-.36602-2.18281 0-1.20054.36602-2.17288.37619-.97234 1.04724-1.64703.68121-.67469 1.63694-1.04179.95574-.36711 2.12498-.36711zm0 8.60224q1.30142 0 1.92164-.85328.63037-.85328.63037-2.5003 0-1.64703-.63037-2.51023-.62022-.8632-1.92164-.8632-1.32175 0-1.95213.87312-.63038.8632-.63038 2.50031 0 1.6371.63038 2.5003.63038.85328 1.95213.85328zM-148.98056 585.46746v-8.33436l-.90489-.1389q-.29485-.0496-.47787-.19844-.17284-.14883-.17284-.41672v-1.00211h1.5556v-.75406q0-.87312.26435-1.56765.27452-.69453.77272-1.1807.50837-.48617 1.23026-.74414.72188-.25797 1.62677-.25797.72188 0 1.3421.18852l-.0508 1.23031q-.0203.28773-.27452.35719-.25419.0694-.58971.0694-.44736 0-.80322.0992-.34569.0893-.5897.32742-.24402.2282-.3762.61515-.122.37703-.122.94258v.67468h2.71468v1.74625h-2.63335v8.34428zM-136.90288 575.28764v6.46904q0 .93266.43718 1.44859.44738.50602 1.33194.50602.65071 0 1.22008-.27781.56937-.28774 1.07774-.78383v-7.36201h2.51133v10.17982h-1.53527q-.48803 0-.64054-.44649l-.17285-.81359q-.32535.3175-.67104.58539-.34569.25797-.74222.44648-.38636.1786-.84389.27782-.44737.10914-.9659.10914-.85406 0-1.51494-.27782-.65071-.28773-1.09807-.80367-.44736-.51593-.68121-1.22038-.22368-.71438-.22368-1.56766v-6.46904zm1.6166-2.63921q0 .27781-.11184.52585-.11184.23813-.31519.41672-.19317.17859-.45753.28773-.25418.0992-.53887.0992-.27452 0-.5287-.0992-.24402-.10914-.4372-.28773-.19318-.17859-.30502-.41672-.11184-.24804-.11184-.52585 0-.28774.11184-.53578.11184-.25797.30502-.44649.19318-.18851.4372-.29765.25418-.10914.5287-.10914.28469 0 .53887.10914.26436.10914.45753.29765.20335.18852.31519.44649.11184.24804.11184.53578zm3.80259 0q0 .27781-.11184.52585-.11184.23813-.30501.41672-.19319.17859-.45754.28773-.25418.0992-.53887.0992-.28469 0-.53886-.0992-.25419-.10914-.44738-.28773-.183-.17859-.29485-.41672-.11184-.24804-.11184-.52585 0-.28774.11184-.53578.11185-.25797.29485-.44649.19319-.18851.44738-.29765.25417-.10914.53886-.10914t.53887.10914q.26435.10914.45754.29765.19317.18852.30501.44649.11184.24804.11184.53578zM-124.52528 585.46746v-10.17982h1.47427q.38636 0 .53886.1389.15251.13891.20335.47625l.15251 1.23031q.5592-.94257 1.31159-1.48828.75238-.5457 1.68778-.5457.77272 0 1.28109.34727l-.32536 1.83554q-.0305.17859-.13218.25797-.10165.0694-.27452.0694-.1525 0-.41685-.0694-.26436-.0695-.70155-.0695-.78289 0-1.34209.42664-.55921.41672-.94557 1.23031v6.34007z" style="font-weight:700;font-size:19.8437px;line-height:1.25;font-family:Lato;-inkscape-font-specification:'Lato Bold';font-variation-settings:normal;text-align:center;letter-spacing:3.04271px;text-anchor:middle;opacity:1;vector-effect:none;fill:#fff;fill-opacity:1;stroke:none;stroke-width:.796215;stroke-linecap:butt;stroke-linejoin:miter;stroke-miterlimit:4;stroke-dasharray:none;stroke-dashoffset:0;stroke-opacity:1;-inkscape-stroke:none;stop-color:#000;stop-opacity:1" transform="translate(667.16743 -353.74025)"/><path d="M-315.01612 602.44559q-.14551.29104-.34395.4101-.1852.11906-.44979.11906t-.59531-.19843q-.33073-.21167-.78052-.46303-.4498-.25135-1.05834-.44979-.5953-.21166-1.41552-.21166-.74083 0-1.29646.18521-.54239.17197-.92604.48947-.37041.3175-.55562.76729-.18521.43657-.18521.96573 0 .67469.37043 1.12448.38364.44979 1.0054.76729.62178.3175 1.41553.56885.79375.25136 1.61396.5424.83343.27781 1.62718.66146.79375.37041 1.41552.9525.62177.56885.99219 1.40229.38364.83343.38364 2.02406 0 1.29645-.44979 2.43416-.43656 1.12448-1.29645 1.97114-.84667.83344-2.07698 1.32292-1.23031.47625-2.81781.47625-.91281 0-1.79916-.18521-.88636-.17198-1.70656-.50271-.80698-.33073-1.52136-.79375-.70114-.46302-1.25677-1.03187l1.03188-1.70656q.14552-.18521.34396-.30427.21166-.13229.46301-.13229.33074 0 .71437.27781.38365.26458.89958.59531.52918.33073 1.23031.60854.71438.26458 1.70656.26458 1.52136 0 2.35479-.71437.83344-.7276.83344-2.07698 0-.75406-.38365-1.23031-.37041-.47625-.99218-.79375-.62177-.33073-1.41552-.55562-.79375-.2249-1.61396-.48948-.82021-.26458-1.61395-.635-.79375-.37041-1.41552-.96573-.62177-.59531-1.00542-1.48166-.37041-.89958-.37041-2.20927 0-1.0451.4101-2.03729.42333-.99218 1.21708-1.75948.80698-.76729 1.97114-1.23031 1.16417-.46302 2.65906-.46302 1.69333 0 3.12208.52917t2.43417 1.48166zM-305.18396 604.3109q1.52136 0 2.75167.48948 1.24353.48947 2.11666 1.38906.87311.89958 1.34937 2.19603.47625 1.29646.47625 2.89719 0 1.61395-.47625 2.91041-.47625 1.29646-1.34937 2.20927-.87312.91281-2.11666 1.40229-1.23031.48948-2.75167.48948-1.52135 0-2.76489-.48948-1.24354-.48948-2.12989-1.40229-.87313-.91281-1.3626-2.20927-.47625-1.29646-.47625-2.91041 0-1.60073.47625-2.89719.48947-1.29645 1.3626-2.19603.88635-.89959 2.12989-1.38906 1.24354-.48948 2.76489-.48948zm0 11.46967q1.69333 0 2.50031-1.13771.8202-1.1377.8202-3.33374t-.8202-3.34698q-.80698-1.15093-2.50031-1.15093-1.71979 0-2.53999 1.16416-.82021 1.15094-.82021 3.33375t.82021 3.33374q.8202 1.13771 2.53999 1.13771zM-295.09384 618.09567v-11.11249l-1.17739-.1852q-.38365-.0661-.62178-.26459-.22489-.19843-.22489-.55562v-1.33614h2.02406v-1.00542q0-1.16417.34396-2.09021.35719-.92604 1.00542-1.57426.66145-.64823 1.60072-.99219.93927-.34396 2.11667-.34396.93927 0 1.74625.25136l-.0661 1.64041q-.0265.38365-.35719.47625-.33074.0926-.76729.0926-.58209 0-1.0451.13229-.44979.11907-.76729.43657-.3175.30427-.48948.8202-.15875.50271-.15875 1.25677v.89959h3.53217v2.32833h-3.42635v11.12571zM-281.70305 618.30734q-1.75948 0-2.71198-.99219-.95249-1.00541-.95249-2.76489v-7.5803h-1.37583q-.26459 0-.46302-.17198-.18521-.17198-.18521-.51594v-1.29646l2.18281-.35718.68792-3.70417q.0529-.26458.23812-.4101.19844-.14552.48948-.14552h1.69333v4.27302h3.57187v2.32833h-3.57187v7.3554q0 .635.3175.99219t.84667.35719q.30427 0 .50271-.0661.21166-.0794.35718-.15875.15875-.0794.27781-.14552.11907-.0794.23813-.0794.14552 0 .23812.0794.0926.0661.19844.21167l.97896 1.58749q-.71438.59532-1.64042.89959-.92604.30427-1.91822.30427zM-277.3184 604.52256h2.59291q.37042 0 .62177.17198t.3175.43656l1.94468 7.24958q.15875.59531.25136 1.16416.10583.56886.19843 1.13771.14553-.56885.30428-1.13771.17197-.56885.35718-1.16416l2.24896-7.27603q.0794-.26459.3175-.43657.23812-.17198.55562-.17198h1.44198q.35719 0 .59531.17198.23813.17198.3175.43657l2.2225 7.40832q.17198.56885.30427 1.11125.14551.52916.27781 1.07156.0926-.56885.19844-1.13771.11906-.56885.29104-1.17739l2.01083-7.24958q.0661-.26458.3175-.43656.25135-.17198.58208-.17198h2.47385l-4.29947 13.57311h-2.63261q-.42333 0-.60854-.58208l-2.4474-7.84489q-.11906-.38364-.22489-.76729-.0926-.39687-.15875-.78052-.0794.39688-.17198.79375-.0926.38365-.21167.78052l-2.47385 7.81843q-.18521.58208-.71437.58208h-2.50031zM-243.83501 618.09567h-1.46844q-.46302 0-.7276-.13229-.26458-.14552-.39688-.56885l-.29104-.96573q-.51593.46302-1.01864.82021-.48948.34395-1.01866.58208-.52915.23812-1.12447.35718-.59531.11907-1.32292.11907-.85989 0-1.5875-.2249-.7276-.23812-1.25677-.70114-.51593-.46302-.80697-1.15094-.29105-.68792-.29105-1.60073 0-.76729.39688-1.50812.4101-.75406 1.34937-1.34937.93927-.60854 2.50031-1.00542 1.56104-.39687 3.87614-.44979v-.79375q0-1.3626-.58208-2.01083-.56885-.66146-1.66686-.66146-.79375 0-1.32293.18521-.52915.18521-.92604.42333-.38364.2249-.71437.41011-.33072.18521-.72761.18521-.33072 0-.56885-.17198-.23812-.17198-.38364-.42334l-.59532-1.0451q2.34156-2.14312 5.64886-2.14312 1.19061 0 2.11665.39687.93927.38365 1.58751 1.08479.64823.68792.97896 1.65365.34396.96573.34396 2.11666zm-6.34999-2.03729q.5027 0 .92604-.0926.42333-.0926.79375-.27781.38364-.18521.7276-.4498.35719-.27781.71437-.64822v-2.28865q-1.42875.0661-2.39448.25136-.95249.17198-1.53458.44979-.58209.27781-.83344.64823-.23813.37041-.23813.80697 0 .8599.50271 1.23032.51594.37041 1.33616.37041zM-240.3574 618.09567v-13.57311h1.91822q.50271 0 .70115.18521.19844.18521.26458.635l.19844 1.64041q.7276-1.25676 1.70656-1.98437.97896-.7276 2.19604-.7276 1.00541 0 1.66687.46302l-.42333 2.44739q-.0397.23813-.17198.34396-.13229.0926-.35719.0926-.19843 0-.54239-.0926-.34396-.0926-.91281-.0926-1.01866 0-1.74625.56885-.72761.55562-1.23031 1.64041v8.45343zM-223.68331 604.3109q1.28323 0 2.3548.4101 1.08479.4101 1.8653 1.20385.78052.78052 1.21709 1.93146.43655 1.13771.43655 2.60614 0 .37042-.0397.62177-.0265.23813-.11906.38365-.0794.13229-.22488.19843-.14554.0529-.37042.0529h-8.38728q.14552 2.09021 1.12448 3.06916.97895.97896 2.5929.97896.79375 0 1.3626-.18521.58208-.18521 1.00542-.4101.43656-.2249.75406-.41011.33073-.1852.635-.1852.19844 0 .34396.0794.14552.0794.25135.2249l.9525 1.19062q-.5424.635-1.21708 1.07156-.67469.42333-1.41552.68792-.72761.25135-1.4949.35718-.75406.10584-1.46843.10584-1.41552 0-2.6326-.46302-1.21708-.47625-2.11667-1.38906-.89958-.92604-1.41552-2.27542-.51593-1.3626-.51593-3.14853 0-1.38907.44979-2.60615.44979-1.23031 1.28323-2.12989.84667-.91281 2.05051-1.44198 1.2171-.52916 2.73844-.52916zm.0661 2.34156q-1.42874 0-2.23571.80697-.80698.80698-1.03188 2.28865h6.13833q0-.635-.17198-1.19063-.17198-.56885-.52917-.99218-.35718-.42334-.89958-.66146-.54239-.25135-1.27001-.25135zM-206.812 607.16839q-.13229.21167-.27781.30427-.14552.0794-.37042.0794-.23812 0-.51593-.13229-.26459-.13229-.62177-.29104-.35719-.17198-.82021-.30428-.44979-.13229-1.07156-.13229-.96573 0-1.52135.41011-.55563.4101-.55563 1.07156 0 .43656.2778.74083.29106.29104.75408.51594.47625.22489 1.07156.4101.59531.17198 1.21708.38365.62177.21166 1.21708.48948.59531.26458 1.05833.68791.47625.4101.75406.99219.29105.58208.29105 1.40229 0 .97895-.35719 1.81239-.35719.82021-1.0451 1.42875-.68792.59531-1.70656.93927-1.00542.33073-2.31511.33073-.70114 0-1.37583-.13229-.66145-.11907-1.28322-.34396-.60855-.2249-1.13771-.52917-.51594-.30427-.91281-.66146l.75406-1.24354q.14552-.22489.34396-.34395.19843-.11907.5027-.11907.30427 0 .56886.17198.27781.17198.635.37042.35718.19844.83343.37042.48948.17197 1.23031.17197.58209 0 .99219-.13229.42333-.14552.68792-.37041.27781-.2249.39687-.51594.13229-.30427.13229-.62177 0-.47625-.29104-.78052-.27781-.30427-.75406-.52917-.46302-.22489-1.07156-.39687-.59531-.18521-1.23031-.39688-.62177-.21166-1.23031-.48947-.59532-.29105-1.07156-.72761-.46302-.43656-.75407-1.07156-.27781-.635-.27781-1.53458 0-.83344.33073-1.5875t.96573-1.30968q.64823-.56886 1.60073-.89959.96572-.34395 2.22249-.34395 1.40229 0 2.55323.46302 1.15093.46302 1.91823 1.21708zM-198.21305 621.82629q-.14552.34396-.38365.51594-.22489.18521-.70114.18521h-2.43416l2.53999-5.43718-5.4901-12.5677h2.85749q.39688 0 .60854.18521.21167.18521.3175.42333l2.89719 7.03791q.14552.34396.25135.71438.10583.37041.18521.74083.10583-.38365.22489-.74083.13229-.35719.27782-.72761l2.7252-7.02468q.10583-.26458.34396-.43656.25135-.17198.55562-.17198h2.61937zM-180.59968 607.16839q-.13229.21167-.2778.30427-.14552.0794-.37042.0794-.23812 0-.51594-.13229-.26458-.13229-.62177-.29104-.35718-.17198-.8202-.30428-.44979-.13229-1.07156-.13229-.96574 0-1.52136.41011-.55562.4101-.55562 1.07156 0 .43656.27781.74083.29104.29104.75406.51594.47625.22489 1.07156.4101.59532.17198 1.21709.38365.62177.21166 1.21708.48948.59531.26458 1.05833.68791.47625.4101.75406.99219.29104.58208.29104 1.40229 0 .97895-.35719 1.81239-.35718.82021-1.0451 1.42875-.68791.59531-1.70656.93927-1.00541.33073-2.3151.33073-.70114 0-1.37583-.13229-.66146-.11907-1.28323-.34396-.60854-.2249-1.13771-.52917-.51593-.30427-.91281-.66146l.75406-1.24354q.14553-.22489.34396-.34395.19844-.11907.50271-.11907t.56885.17198q.27782.17198.635.37042.35719.19844.83344.37042.48948.17197 1.23031.17197.58208 0 .99219-.13229.42333-.14552.68791-.37041.27781-.2249.39688-.51594.13229-.30427.13229-.62177 0-.47625-.29104-.78052-.27782-.30427-.75406-.52917-.46302-.22489-1.07157-.39687-.59531-.18521-1.23031-.39688-.62177-.21166-1.23031-.48947-.59531-.29105-1.07156-.72761-.46302-.43656-.75406-1.07156-.27781-.635-.27781-1.53458 0-.83344.33073-1.5875t.96572-1.30968q.64823-.56886 1.60073-.89959.96573-.34395 2.2225-.34395 1.40229 0 2.55322.46302 1.15094.46302 1.91823 1.21708zM-172.35792 618.30734q-1.75948 0-2.71198-.99219-.9525-1.00541-.9525-2.76489v-7.5803h-1.37583q-.26458 0-.46302-.17198-.18521-.17198-.18521-.51594v-1.29646l2.18281-.35718.68792-3.70417q.0529-.26458.23812-.4101.19844-.14552.48948-.14552h1.69333v4.27302h3.57187v2.32833h-3.57187v7.3554q0 .635.3175.99219t.84667.35719q.30427 0 .50271-.0661.21166-.0794.35718-.15875.15875-.0794.27782-.14552.11906-.0794.23812-.0794.14552 0 .23813.0794.0926.0661.19843.21167l.97896 1.58749q-.71437.59532-1.64042.89959-.92604.30427-1.91822.30427zM-160.71049 604.3109q1.28323 0 2.35479.4101 1.08479.4101 1.86531 1.20385.78052.78052 1.21709 1.93146.43656 1.13771.43656 2.60614 0 .37042-.0397.62177-.0265.23813-.11905.38365-.0794.13229-.2249.19843-.14552.0529-.37041.0529h-8.38729q.14553 2.09021 1.12448 3.06916.97896.97896 2.59292.97896.79374 0 1.36259-.18521.58208-.18521 1.00542-.4101.43656-.2249.75407-.41011.33072-.1852.63499-.1852.19844 0 .34396.0794.14552.0794.25136.2249l.95249 1.19062q-.54239.635-1.21708 1.07156-.67468.42333-1.41552.68792-.7276.25135-1.49489.35718-.75406.10584-1.46844.10584-1.41551 0-2.6326-.46302-1.21708-.47625-2.11666-1.38906-.89958-.92604-1.41552-2.27542-.51594-1.3626-.51594-3.14853 0-1.38907.44979-2.60615.4498-1.23031 1.28323-2.12989.84667-.91281 2.05052-1.44198 1.21708-.52916 2.73843-.52916zm.0661 2.34156q-1.42875 0-2.23573.80697-.80697.80698-1.03187 2.28865h6.13833q0-.635-.17198-1.19063-.17198-.56885-.52917-.99218-.35719-.42334-.89958-.66146-.5424-.25135-1.27-.25135zM-151.89573 618.09567v-13.57311h1.99761q.635 0 .83343.59531l.21167 1.00542q.35719-.39687.74082-.7276.39689-.33073.83344-.56886.4498-.23812.9525-.37041.51593-.14552 1.12447-.14552 1.28323 0 2.10344.70114.83344.68792 1.24354 1.83885.3175-.67468.79375-1.15093.47625-.48948 1.0451-.79375.56885-.30427 1.20385-.44979.64823-.14552 1.29646-.14552 1.12448 0 1.9976.34395.87313.34396 1.46844 1.00542.59531.66146.89958 1.61396.3175.95249.3175 2.18281v8.63863h-3.2676v-8.63863q0-1.29646-.56885-1.94469-.56886-.66146-1.66688-.66146-.5027 0-.93927.17198-.42333.17198-.75406.50271-.3175.3175-.50271.80698-.1852.48948-.1852 1.12448v8.63863h-3.28083v-8.63863q0-1.36261-.55563-1.98438-.54239-.62177-1.61395-.62177-.70115 0-1.32292.35719-.60854.34396-1.13771.9525v9.93509zM-123.74947 604.3109q1.28323 0 2.35479.4101 1.08479.4101 1.8653 1.20385.78052.78052 1.21708 1.93146.43656 1.13771.43656 2.60614 0 .37042-.0397.62177-.0264.23813-.11906.38365-.0794.13229-.22489.19843-.14553.0529-.37042.0529h-8.38728q.14552 2.09021 1.12448 3.06916.97895.97896 2.59291.97896.79376 0 1.3626-.18521.58209-.18521 1.00542-.4101.43656-.2249.75406-.41011.33073-.1852.63501-.1852.19844 0 .34395.0794.14553.0794.25135.2249l.9525 1.19062q-.5424.635-1.21707 1.07156-.67469.42333-1.41552.68792-.72761.25135-1.4949.35718-.75406.10584-1.46843.10584-1.41552 0-2.6326-.46302-1.21708-.47625-2.11667-1.38906-.89958-.92604-1.41552-2.27542-.51593-1.3626-.51593-3.14853 0-1.38907.44979-2.60615.44979-1.23031 1.28323-2.12989.84666-.91281 2.05051-1.44198 1.21709-.52916 2.73844-.52916zm.0661 2.34156q-1.42874 0-2.23572.80697-.80698.80698-1.03188 2.28865h6.13833q0-.635-.17198-1.19063-.17199-.56885-.52917-.99218-.35718-.42334-.89958-.66146-.54239-.25135-1.27-.25135z" style="font-weight:700;font-size:26.4583px;line-height:1.25;font-family:Lato;-inkscape-font-specification:'Lato Bold';font-variation-settings:normal;text-align:center;letter-spacing:.264583px;text-anchor:middle;opacity:1;vector-effect:none;fill:#fff;fill-opacity:1;stroke:none;stroke-width:.796215;stroke-linecap:butt;stroke-linejoin:miter;stroke-miterlimit:4;stroke-dasharray:none;stroke-dashoffset:0;stroke-opacity:1;-inkscape-stroke:none;stop-color:#000;stop-opacity:1" transform="translate(667.16743 -353.74025)"/></g><g style="display:inline"><path style="display:inline;fill:none;fill-opacity:1;stroke:#fff;stroke-width:1.32292;stroke-miterlimit:4;stroke-dasharray:none;stroke-opacity:1;stop-color:#000" d="M1782.1676 20.767954a13.08618 7.5675644 0 0 1-13.0861 7.56751 13.08618 7.5675644 0 0 1-13.0861-7.56751 13.08618 7.5675644 0 0 1 13.0861-7.567491 13.08618 7.5675644 0 0 1 13.0861 7.567491z" transform="translate(-1249.66525 74.21705)"/><path style="display:inline;fill:none;fill-opacity:1;stroke:#fff;stroke-width:1.85208;stroke-miterlimit:4;stroke-dasharray:none;stroke-opacity:1;stop-color:#000" d="M1784.3419 20.767949a22.072017 13.147164 0 0 1-22.0719 13.14707 22.072017 13.147164 0 0 1-22.0719-13.14707A22.072017 13.147164 0 0 1 1762.27 7.6209093a22.072017 13.147164 0 0 1 22.0719 13.1470397Z" transform="translate(-1249.66525 74.21705)"/><path style="display:inline;fill:none;fill-opacity:1;stroke:#fff;stroke-width:2.91043;stroke-miterlimit:4;stroke-dasharray:none;stroke-opacity:1;stop-color:#000" d="M1787.3059 20.767934a37.060391 22.626378 0 0 1-37.0602 22.62622 37.060391 22.626378 0 0 1-37.0601-22.62622 37.060391 22.626378 0 0 1 37.0601-22.6261599 37.060391 22.626378 0 0 1 37.0602 22.6261599z" transform="translate(-1249.66525 74.21705)"/><path style="display:inline;fill:none;fill-opacity:1;stroke:#fff;stroke-width:3.96875;stroke-miterlimit:4;stroke-dasharray:none;stroke-opacity:1;stop-color:#000" d="M1791.6137 20.767924a61.7609 38.415188 0 0 1-61.7606 38.41491 61.7609 38.415188 0 0 1-61.7605-38.41491 61.7609 38.415188 0 0 1 61.7605-38.41483 61.7609 38.415188 0 0 1 61.7606 38.41483z" transform="translate(-1249.66525 74.21705)"/><path style="display:inline;fill:none;fill-opacity:1;stroke:#fff;stroke-width:4.49792;stroke-miterlimit:4;stroke-dasharray:none;stroke-opacity:1;stop-color:#000" d="M1796.7078 20.767889a102.17561 64.412905 0 0 1-102.1752 64.41245 102.17561 64.412905 0 0 1-102.1749-64.41245 102.17561 64.412905 0 0 1 102.1749-64.4123 102.17561 64.412905 0 0 1 102.1752 64.4123z" transform="translate(-1249.66525 74.21705)"/></g></g></svg>