<svg width="868.28174" height="556.28668" viewBox="0 0 229.73284 147.18414" xmlns="http://www.w3.org/2000/svg"><g style="display:inline" transform="translate(10.442424 6.6661752)"><rect style="fill:#fff;fill-opacity:1;stroke:none;stroke-width:.150812;stroke-miterlimit:4;stroke-dasharray:none;stroke-opacity:1;stop-color:#000" width="229.73286" height="146.65501" x="-10.442419" y="-6.3460503" ry="18.287914"/></g><g style="display:inline"><path style="display:inline;fill:none;fill-opacity:1;stroke:#000;stroke-width:1.32292;stroke-miterlimit:4;stroke-dasharray:none;stroke-opacity:1;stop-color:#000" d="M228.0878 84.420933a13.08618 7.5675644 0 0 1-13.0861 7.56751 13.08618 7.5675644 0 0 1-13.0861-7.56751 13.08618 7.5675644 0 0 1 13.0861-7.567491 13.08618 7.5675644 0 0 1 13.0861 7.567491z" transform="translate(-25.586516 -11.093433)"/><path style="display:inline;fill:none;fill-opacity:1;stroke:#000;stroke-width:1.85208;stroke-miterlimit:4;stroke-dasharray:none;stroke-opacity:1;stop-color:#000" d="M230.2621 84.420928a22.072017 13.147164 0 0 1-22.0719 13.14707 22.072017 13.147164 0 0 1-22.0719-13.14707 22.072017 13.147164 0 0 1 22.0719-13.14704 22.072017 13.147164 0 0 1 22.0719 13.14704z" transform="translate(-25.586516 -11.093433)"/><path style="display:inline;fill:none;fill-opacity:1;stroke:#000;stroke-width:2.91043;stroke-miterlimit:4;stroke-dasharray:none;stroke-opacity:1;stop-color:#000" d="M233.2261 84.420913a37.060391 22.626378 0 0 1-37.0602 22.626217 37.060391 22.626378 0 0 1-37.0601-22.626217 37.060391 22.626378 0 0 1 37.0601-22.62616 37.060391 22.626378 0 0 1 37.0602 22.62616z" transform="translate(-25.586516 -11.093433)"/><path style="display:inline;fill:none;fill-opacity:1;stroke:#000;stroke-width:3.96875;stroke-miterlimit:4;stroke-dasharray:none;stroke-opacity:1;stop-color:#000" d="M237.5339 84.420903a61.7609 38.415188 0 0 1-61.7606 38.414907 61.7609 38.415188 0 0 1-61.7605-38.414907 61.7609 38.415188 0 0 1 61.7605-38.41483 61.7609 38.415188 0 0 1 61.7606 38.41483z" transform="translate(-25.586516 -11.093433)"/><path style="display:inline;fill:none;fill-opacity:1;stroke:#000;stroke-width:4.49792;stroke-miterlimit:4;stroke-dasharray:none;stroke-opacity:1;stop-color:#000" d="M242.628 84.740988a102.17561 64.412905 0 0 1-102.1752 64.412452A102.17561 64.412905 0 0 1 38.2779 84.740988a102.17561 64.412905 0 0 1 102.1749-64.4123 102.17561 64.412905 0 0 1 102.1752 64.4123z" transform="translate(-25.586516 -11.093433)"/></g></svg>