<?xml version="1.0" encoding="UTF-8" standalone="no"?>
<!-- Created with Inkscape (http://www.inkscape.org/) -->

<svg
   width="785.96692"
   height="467.67093"
   viewBox="0 0 207.95372 123.73791"
   version="1.1"
   id="svg168634"
   sodipodi:docname="logo-plus.svg"
   inkscape:version="1.1 (c4e8f9e, 2021-05-24)"
   xmlns:inkscape="http://www.inkscape.org/namespaces/inkscape"
   xmlns:sodipodi="http://sodipodi.sourceforge.net/DTD/sodipodi-0.dtd"
   xmlns:xlink="http://www.w3.org/1999/xlink"
   xmlns="http://www.w3.org/2000/svg"
   xmlns:svg="http://www.w3.org/2000/svg">
  <sodipodi:namedview
     id="namedview1078"
     pagecolor="#cfcfcf"
     bordercolor="#666666"
     borderopacity="1.0"
     inkscape:pageshadow="2"
     inkscape:pageopacity="1"
     inkscape:pagecheckerboard="false"
     inkscape:document-units="mm"
     showgrid="true"
     inkscape:zoom="1.1833381"
     inkscape:cx="413.23779"
     inkscape:cy="286.0552"
     inkscape:window-width="1872"
     inkscape:window-height="1189"
     inkscape:window-x="32"
     inkscape:window-y="25"
     inkscape:window-maximized="0"
     inkscape:current-layer="layer3"
     fit-margin-top="0"
     fit-margin-left="0"
     fit-margin-right="0"
     fit-margin-bottom="0"
     showborder="false"
     inkscape:showpageshadow="false"
     units="px"
     inkscape:snap-grids="true"
     inkscape:snap-global="true" />
  <defs
     id="defs168631">
    <color-profile
       name="D65"
       xlink:href="../../../../../../Library/ColorSync/Profiles/D65.icc"
       id="color-profile2184" />
    <rect
       x="309.9783"
       y="662.06946"
       width="85.606476"
       height="19.675682"
       id="rect4134" />
  </defs>
  <g
     inkscape:groupmode="layer"
     id="layer3"
     inkscape:label="logo"
     style="display:inline"
     transform="translate(85.538808,49.602071)">
    <g
       id="use1150"
       transform="matrix(0.26458333,0,0,0.26458333,100.72788,192.81393)"
       style="fill:none;fill-opacity:1">
      <text
         xml:space="preserve"
         style="font-size:5.64444px;line-height:1.25;font-family:Lato;-inkscape-font-specification:'Lato, Normal';letter-spacing:0px;display:inline;fill:none;fill-opacity:1;stroke-width:0.264583"
         x="118.29476"
         y="280.90973"
         id="text2245"><tspan
           style="font-style:normal;font-variant:normal;font-weight:bold;font-stretch:normal;font-size:5.64444px;font-family:Lato;-inkscape-font-specification:'Lato Bold';text-align:center;text-anchor:middle;fill:none;fill-opacity:1;stroke-width:0.264583"
           x="118.29476"
           y="280.90973"
           id="tspan2243"><tspan
   style="font-style:normal;font-variant:normal;font-weight:bold;font-stretch:normal;font-size:4.93889px;font-family:Lato;-inkscape-font-specification:'Lato Bold';text-align:start;text-anchor:start;fill:none;fill-opacity:1"
   id="tspan2241">SOFTWARESYSTEME</tspan> </tspan></text>
      <text
         xml:space="preserve"
         style="font-size:4.23333px;line-height:1.25;font-family:Lato;-inkscape-font-specification:'Lato, Normal';letter-spacing:0px;display:inline;fill:none;fill-opacity:1;stroke-width:0.264583"
         x="111.48794"
         y="273.86356"
         id="text2249"><tspan
           style="font-style:normal;font-variant:normal;font-weight:normal;font-stretch:normal;font-size:4.23333px;font-family:Lato;-inkscape-font-specification:Lato;text-align:start;text-anchor:start;fill:none;fill-opacity:1;stroke-width:0.264583"
           x="111.48794"
           y="273.86356"
           id="tspan2247">INGENIEURBÜRO</tspan></text>
      <g
         id="g2261"
         transform="translate(82.821292,26.113883)"
         style="fill:none;fill-opacity:1">
        <g
           aria-label="//"
           id="g2255"
           style="font-size:22.5778px;line-height:1.25;font-family:Lato;-inkscape-font-specification:'Lato, Normal';letter-spacing:0px;fill:none;fill-opacity:1;stroke-width:0.264583"
           transform="translate(-48.953329,205.95104)">
          <path
             d="m 87.38547,33.581134 q -0.135466,0.3048 -0.361244,0.530578 -0.214489,0.225778 -0.474134,0.372534 -0.259645,0.158045 -0.541867,0.237067 -0.270934,0.07902 -0.51929,0.07902 h -1.444979 l 7.69903,-16.459217 q 0.259645,-0.564445 0.756356,-0.857956 0.496712,-0.293511 1.095024,-0.293511 h 1.422401 z"
             style="font-style:italic;font-weight:900;-inkscape-font-specification:'Lato Heavy Italic';fill:none;fill-opacity:1"
             id="path2251" />
          <path
             d="m 94.044158,33.581134 q -0.135467,0.3048 -0.361245,0.530578 -0.214489,0.225778 -0.474134,0.372534 -0.259645,0.158045 -0.541867,0.237067 -0.270934,0.07902 -0.51929,0.07902 h -1.444979 l 7.69903,-16.459217 q 0.259645,-0.564445 0.756356,-0.857956 0.496712,-0.293511 1.095021,-0.293511 h 1.4224 z"
             style="font-style:italic;font-weight:900;-inkscape-font-specification:'Lato Heavy Italic';fill:none;fill-opacity:1"
             id="path2253" />
        </g>
        <text
           xml:space="preserve"
           style="font-size:22.5778px;line-height:1.25;font-family:Lato;-inkscape-font-specification:'Lato, Normal';letter-spacing:0px;fill:none;fill-opacity:1;stroke-width:0.264583"
           x="56.741013"
           y="240.07968"
           id="text2259"><tspan
             id="tspan2257"
             style="font-style:italic;font-variant:normal;font-weight:900;font-stretch:normal;font-size:22.5778px;font-family:Lato;-inkscape-font-specification:'Lato Heavy Italic';fill:none;fill-opacity:1;stroke-width:0.264583"
             x="56.741013"
             y="240.07968">JE</tspan></text>
      </g>
    </g>
    <g
       id="g2181">
      <g
         aria-label="SOFTWARESYSTEME "
         id="text2710"
         style="font-size:5.64444px;line-height:1.25;font-family:Lato;-inkscape-font-specification:'Lato, Normal';letter-spacing:0px;display:inline;fill:#ffffff;fill-opacity:1;stroke-width:0.264583"
         transform="matrix(3.8208041,0,0,3.8208041,-513.99054,-999.31626)">
        <path
           d="m 120.56912,277.98838 q -0.0272,0.0543 -0.0642,0.0765 -0.0346,0.0222 -0.084,0.0222 -0.0494,0 -0.11112,-0.037 -0.0617,-0.0395 -0.1457,-0.0864 -0.084,-0.0469 -0.19755,-0.084 -0.11113,-0.0395 -0.26423,-0.0395 -0.13829,0 -0.24201,0.0346 -0.10125,0.0321 -0.17286,0.0914 -0.0692,0.0593 -0.10372,0.14323 -0.0346,0.0815 -0.0346,0.18027 0,0.12594 0.0691,0.2099 0.0716,0.084 0.18768,0.14323 0.11607,0.0593 0.26423,0.10618 0.14817,0.0469 0.30127,0.10125 0.15558,0.0519 0.30375,0.12347 0.14816,0.0691 0.26423,0.1778 0.11606,0.10619 0.18521,0.26177 0.0716,0.15557 0.0716,0.37782 0,0.24201 -0.084,0.45438 -0.0815,0.2099 -0.24201,0.36795 -0.15804,0.15557 -0.3877,0.24694 -0.22966,0.0889 -0.52599,0.0889 -0.17039,0 -0.33585,-0.0346 -0.16545,-0.0321 -0.31855,-0.0938 -0.15064,-0.0617 -0.28399,-0.14817 -0.13088,-0.0864 -0.2346,-0.19261 l 0.19262,-0.31856 q 0.0272,-0.0346 0.0642,-0.0568 0.0395,-0.0247 0.0864,-0.0247 0.0617,0 0.13335,0.0519 0.0716,0.0494 0.16793,0.11113 0.0988,0.0617 0.22966,0.11359 0.13335,0.0494 0.31855,0.0494 0.28399,0 0.43956,-0.13335 0.15558,-0.13582 0.15558,-0.3877 0,-0.14076 -0.0716,-0.22966 -0.0692,-0.0889 -0.18521,-0.14817 -0.11607,-0.0617 -0.26423,-0.10371 -0.14817,-0.042 -0.30128,-0.0914 -0.1531,-0.0494 -0.30127,-0.11854 -0.14816,-0.0691 -0.26423,-0.18026 -0.11606,-0.11113 -0.18768,-0.27658 -0.0691,-0.16792 -0.0691,-0.4124 0,-0.19509 0.0766,-0.38029 0.079,-0.18521 0.22719,-0.32844 0.15064,-0.14323 0.36795,-0.22966 0.21731,-0.0864 0.49636,-0.0864 0.31609,0 0.58279,0.0988 0.2667,0.0988 0.45437,0.27658 z"
           style="font-size:4.93889px;text-align:start;text-anchor:start"
           id="path1277" />
        <path
           d="m 124.73314,279.12432 q 0,0.39264 -0.13088,0.72849 -0.13088,0.33337 -0.36794,0.57785 -0.23707,0.24447 -0.57044,0.38276 -0.33338,0.13582 -0.73837,0.13582 -0.40499,0 -0.74083,-0.13582 -0.33338,-0.13829 -0.57291,-0.38276 -0.23707,-0.24448 -0.36795,-0.57785 -0.13088,-0.33585 -0.13088,-0.72849 0,-0.39264 0.13088,-0.72602 0.13088,-0.33584 0.36795,-0.58032 0.23953,-0.24447 0.57291,-0.38029 0.33584,-0.13829 0.74083,-0.13829 0.40499,0 0.73837,0.13829 0.33337,0.13829 0.57044,0.38276 0.23706,0.24201 0.36794,0.57785 0.13088,0.33338 0.13088,0.72602 z m -0.68156,0 q 0,-0.29386 -0.079,-0.52599 -0.0766,-0.2346 -0.22225,-0.39758 -0.1457,-0.16299 -0.3556,-0.24942 -0.20744,-0.0864 -0.4692,-0.0864 -0.26176,0 -0.47166,0.0864 -0.20991,0.0864 -0.35807,0.24942 -0.1457,0.16298 -0.22472,0.39758 -0.079,0.23213 -0.079,0.52599 0,0.29386 0.079,0.52846 0.079,0.23213 0.22472,0.39511 0.14816,0.16052 0.35807,0.24695 0.2099,0.0864 0.47166,0.0864 0.26176,0 0.4692,-0.0864 0.2099,-0.0864 0.3556,-0.24695 0.14569,-0.16298 0.22225,-0.39511 0.079,-0.2346 0.079,-0.52846 z"
           style="font-size:4.93889px;text-align:start;text-anchor:start"
           id="path1279" />
        <path
           d="m 127.50548,277.33891 v 0.52846 h -1.58291 v 1.05693 h 1.33597 v 0.53093 h -1.33597 v 1.4545 h -0.66922 v -3.57082 z"
           style="font-size:4.93889px;text-align:start;text-anchor:start"
           id="path1281" />
        <path
           d="m 130.53819,277.33891 v 0.54575 h -1.07421 v 3.02507 h -0.66428 v -3.02507 h -1.07914 v -0.54575 z"
           style="font-size:4.93889px;text-align:start;text-anchor:start"
           id="path1283" />
        <path
           d="m 130.63303,277.33891 h 0.5581 q 0.0864,0 0.14323,0.042 0.0593,0.0395 0.079,0.10866 l 0.60748,2.13607 q 0.0222,0.079 0.0395,0.17286 0.0198,0.0914 0.037,0.19508 0.0197,-0.10371 0.042,-0.19508 0.0247,-0.0938 0.0519,-0.17286 l 0.70133,-2.13607 q 0.0197,-0.0568 0.0765,-0.10372 0.0593,-0.0469 0.14323,-0.0469 h 0.19508 q 0.0864,0 0.14323,0.042 0.0568,0.0395 0.079,0.10866 l 0.69639,2.13607 q 0.0543,0.15804 0.0938,0.35066 0.0173,-0.0963 0.0346,-0.18521 0.0197,-0.0889 0.0395,-0.16545 l 0.60748,-2.13607 q 0.0173,-0.0617 0.0766,-0.10619 0.0593,-0.0444 0.14322,-0.0444 h 0.52106 l -1.10878,3.57082 h -0.60008 l -0.78034,-2.43981 q -0.0148,-0.0469 -0.0321,-0.10125 -0.0148,-0.0543 -0.0296,-0.11606 -0.0148,0.0617 -0.0321,0.11606 -0.0148,0.0543 -0.0296,0.10125 l -0.78775,2.43981 h -0.60007 z"
           style="font-size:4.93889px;text-align:start;text-anchor:start"
           id="path1285" />
        <path
           d="m 138.98362,280.90973 h -0.51365 q -0.0864,0 -0.14323,-0.042 -0.0543,-0.0444 -0.079,-0.10866 l -0.2667,-0.72848 h -1.4792 l -0.2667,0.72848 q -0.0197,0.0568 -0.079,0.10372 -0.0568,0.0469 -0.14076,0.0469 h -0.51611 l 1.40264,-3.57082 h 0.6791 z m -2.3114,-1.34832 h 1.13841 l -0.43462,-1.1878 q -0.0296,-0.079 -0.0667,-0.18521 -0.0346,-0.10865 -0.0691,-0.2346 -0.0346,0.12595 -0.0692,0.2346 -0.0321,0.10866 -0.0642,0.19015 z"
           style="font-size:4.93889px;text-align:start;text-anchor:start"
           id="path1287" />
        <path
           d="m 140.0427,279.51449 v 1.39524 h -0.66428 v -3.57082 h 1.08902 q 0.36548,0 0.62477,0.0765 0.26177,0.0741 0.42722,0.20991 0.16792,0.13582 0.24447,0.32596 0.079,0.18768 0.079,0.41487 0,0.18027 -0.0543,0.34078 -0.0519,0.16052 -0.15311,0.2914 -0.0988,0.13088 -0.24694,0.22966 -0.1457,0.0988 -0.33338,0.15804 0.12594,0.0716 0.21731,0.20497 l 0.89394,1.31868 h -0.5976 q -0.0864,0 -0.14817,-0.0346 -0.0593,-0.0346 -0.10125,-0.0988 l -0.75071,-1.14335 q -0.042,-0.0642 -0.0938,-0.0914 -0.0494,-0.0272 -0.14816,-0.0272 z m 0,-0.4766 h 0.41487 q 0.18767,0 0.32596,-0.0469 0.14076,-0.0469 0.22966,-0.12841 0.0914,-0.084 0.13582,-0.19756 0.0444,-0.11359 0.0444,-0.24941 0,-0.27164 -0.18027,-0.41734 -0.1778,-0.14569 -0.54575,-0.14569 h -0.42474 z"
           style="font-size:4.93889px;text-align:start;text-anchor:start"
           id="path1289" />
        <path
           d="m 144.83983,277.33891 v 0.52846 h -1.58292 v 0.99025 h 1.24707 v 0.51118 h -1.24707 v 1.01 h 1.58292 v 0.53093 h -2.25214 v -3.57082 z"
           style="font-size:4.93889px;text-align:start;text-anchor:start"
           id="path1291" />
        <path
           d="m 147.32787,277.98838 q -0.0272,0.0543 -0.0642,0.0765 -0.0346,0.0222 -0.084,0.0222 -0.0494,0 -0.11112,-0.037 -0.0617,-0.0395 -0.1457,-0.0864 -0.084,-0.0469 -0.19755,-0.084 -0.11113,-0.0395 -0.26423,-0.0395 -0.13829,0 -0.24201,0.0346 -0.10125,0.0321 -0.17286,0.0914 -0.0692,0.0593 -0.10372,0.14323 -0.0346,0.0815 -0.0346,0.18027 0,0.12594 0.0691,0.2099 0.0716,0.084 0.18768,0.14323 0.11607,0.0593 0.26423,0.10618 0.14817,0.0469 0.30128,0.10125 0.15557,0.0519 0.30374,0.12347 0.14816,0.0691 0.26423,0.1778 0.11606,0.10619 0.18521,0.26177 0.0716,0.15557 0.0716,0.37782 0,0.24201 -0.084,0.45438 -0.0815,0.2099 -0.24201,0.36795 -0.15804,0.15557 -0.3877,0.24694 -0.22966,0.0889 -0.52599,0.0889 -0.17039,0 -0.33585,-0.0346 -0.16545,-0.0321 -0.31855,-0.0938 -0.15064,-0.0617 -0.28399,-0.14817 -0.13088,-0.0864 -0.2346,-0.19261 l 0.19262,-0.31856 q 0.0272,-0.0346 0.0642,-0.0568 0.0395,-0.0247 0.0864,-0.0247 0.0617,0 0.13335,0.0519 0.0716,0.0494 0.16792,0.11113 0.0988,0.0617 0.22966,0.11359 0.13335,0.0494 0.31855,0.0494 0.28399,0 0.43957,-0.13335 0.15557,-0.13582 0.15557,-0.3877 0,-0.14076 -0.0716,-0.22966 -0.0691,-0.0889 -0.18521,-0.14817 -0.11607,-0.0617 -0.26423,-0.10371 -0.14817,-0.042 -0.30127,-0.0914 -0.15311,-0.0494 -0.30128,-0.11854 -0.14816,-0.0691 -0.26423,-0.18026 -0.11606,-0.11113 -0.18768,-0.27658 -0.0691,-0.16792 -0.0691,-0.4124 0,-0.19509 0.0765,-0.38029 0.079,-0.18521 0.22719,-0.32844 0.15064,-0.14323 0.36795,-0.22966 0.21731,-0.0864 0.49636,-0.0864 0.31609,0 0.58279,0.0988 0.2667,0.0988 0.45437,0.27658 z"
           style="font-size:4.93889px;text-align:start;text-anchor:start"
           id="path1293" />
        <path
           d="m 149.65463,279.5219 v 1.38783 h -0.66428 v -1.38783 l -1.3014,-2.18299 h 0.58526 q 0.0864,0 0.13582,0.042 0.0519,0.042 0.0864,0.10619 l 0.6544,1.19274 q 0.0568,0.10619 0.0988,0.20249 0.042,0.0938 0.0765,0.18521 0.0321,-0.0938 0.0716,-0.18767 0.042,-0.0963 0.0988,-0.20003 l 0.64946,-1.19274 q 0.0272,-0.0543 0.0815,-0.10125 0.0543,-0.0469 0.13829,-0.0469 h 0.58773 z"
           style="font-size:4.93889px;text-align:start;text-anchor:start"
           id="path1295" />
        <path
           d="m 153.2121,277.98838 q -0.0272,0.0543 -0.0642,0.0765 -0.0346,0.0222 -0.084,0.0222 -0.0494,0 -0.11113,-0.037 -0.0617,-0.0395 -0.14569,-0.0864 -0.084,-0.0469 -0.19756,-0.084 -0.11112,-0.0395 -0.26423,-0.0395 -0.13829,0 -0.24201,0.0346 -0.10124,0.0321 -0.17286,0.0914 -0.0691,0.0593 -0.10371,0.14323 -0.0346,0.0815 -0.0346,0.18027 0,0.12594 0.0692,0.2099 0.0716,0.084 0.18768,0.14323 0.11606,0.0593 0.26423,0.10618 0.14816,0.0469 0.30127,0.10125 0.15557,0.0519 0.30374,0.12347 0.14817,0.0691 0.26423,0.1778 0.11607,0.10619 0.18521,0.26177 0.0716,0.15557 0.0716,0.37782 0,0.24201 -0.084,0.45438 -0.0815,0.2099 -0.242,0.36795 -0.15805,0.15557 -0.38771,0.24694 -0.22965,0.0889 -0.52599,0.0889 -0.17039,0 -0.33584,-0.0346 -0.16545,-0.0321 -0.31856,-0.0938 -0.15064,-0.0617 -0.28399,-0.14817 -0.13088,-0.0864 -0.23459,-0.19261 l 0.19261,-0.31856 q 0.0272,-0.0346 0.0642,-0.0568 0.0395,-0.0247 0.0864,-0.0247 0.0617,0 0.13335,0.0519 0.0716,0.0494 0.16792,0.11113 0.0988,0.0617 0.22966,0.11359 0.13335,0.0494 0.31856,0.0494 0.28398,0 0.43956,-0.13335 0.15557,-0.13582 0.15557,-0.3877 0,-0.14076 -0.0716,-0.22966 -0.0691,-0.0889 -0.18521,-0.14817 -0.11606,-0.0617 -0.26423,-0.10371 -0.14816,-0.042 -0.30127,-0.0914 -0.15311,-0.0494 -0.30127,-0.11854 -0.14817,-0.0691 -0.26423,-0.18026 -0.11607,-0.11113 -0.18768,-0.27658 -0.0692,-0.16792 -0.0692,-0.4124 0,-0.19509 0.0766,-0.38029 0.079,-0.18521 0.22719,-0.32844 0.15063,-0.14323 0.36794,-0.22966 0.21731,-0.0864 0.49636,-0.0864 0.31609,0 0.58279,0.0988 0.2667,0.0988 0.45438,0.27658 z"
           style="font-size:4.93889px;text-align:start;text-anchor:start"
           id="path1297" />
        <path
           d="m 156.46737,277.33891 v 0.54575 h -1.07421 v 3.02507 h -0.66428 v -3.02507 h -1.07915 v -0.54575 z"
           style="font-size:4.93889px;text-align:start;text-anchor:start"
           id="path1299" />
        <path
           d="m 159.14525,277.33891 v 0.52846 h -1.58292 v 0.99025 h 1.24707 v 0.51118 h -1.24707 v 1.01 h 1.58292 v 0.53093 h -2.25214 v -3.57082 z"
           style="font-size:4.93889px;text-align:start;text-anchor:start"
           id="path1301" />
        <path
           d="m 161.51229,279.42806 q 0.042,0.079 0.0765,0.16545 0.037,0.084 0.0716,0.1704 0.0346,-0.0889 0.0716,-0.17533 0.037,-0.0864 0.079,-0.16546 l 1.05692,-1.97802 q 0.0198,-0.037 0.0395,-0.0593 0.0222,-0.0222 0.0469,-0.0321 0.0272,-0.01 0.0593,-0.0123 0.0321,-0.002 0.0765,-0.002 h 0.5013 v 3.57082 h -0.58526 v -2.30646 q 0,-0.0642 0.002,-0.14076 0.005,-0.0765 0.0123,-0.15558 l -1.07915,2.02495 q -0.037,0.0691 -0.0963,0.10865 -0.0593,0.037 -0.13829,0.037 h -0.0914 q -0.079,0 -0.13829,-0.037 -0.0593,-0.0395 -0.0963,-0.10865 l -1.09397,-2.03235 q 0.01,0.0815 0.0123,0.16051 0.005,0.0765 0.005,0.14323 v 2.30646 h -0.58526 v -3.57082 h 0.5013 q 0.0445,0 0.0766,0.002 0.0321,0.002 0.0568,0.0123 0.0272,0.01 0.0494,0.0321 0.0222,0.0222 0.042,0.0593 l 1.0668,1.98296 z"
           style="font-size:4.93889px;text-align:start;text-anchor:start"
           id="path1303" />
        <path
           d="m 166.56323,277.33891 v 0.52846 h -1.58292 v 0.99025 h 1.24707 v 0.51118 h -1.24707 v 1.01 h 1.58292 v 0.53093 h -2.25214 v -3.57082 z"
           style="font-size:4.93889px;text-align:start;text-anchor:start"
           id="path1305" />
      </g>
      <g
         aria-label="INGENIEURBÜRO"
         id="text2714"
         style="font-size:4.23333px;line-height:1.25;font-family:Lato;-inkscape-font-specification:'Lato, Normal';letter-spacing:0px;display:inline;fill:#ffffff;fill-opacity:1;stroke-width:0.264583"
         transform="matrix(3.4734583,0,0,3.4734583,-468.42027,-903.80138)">
        <path
           d="m 110.68232,274.04993 h -0.4517 v -3.3365 h 0.4517 z"
           style="-inkscape-font-specification:Lato;stroke-width:0.291041"
           id="path1308" />
        <path
           d="m 111.80755,270.71343 q 0.0605,0 0.0884,0.0163 0.0303,0.014 0.0675,0.0605 l 1.93251,2.51459 q -0.007,-0.0605 -0.009,-0.11641 -0.002,-0.0582 -0.002,-0.11176 v -2.36325 h 0.39581 v 3.3365 h -0.22818 q -0.0536,0 -0.0907,-0.0186 -0.035,-0.0186 -0.0699,-0.0628 l -1.9302,-2.51227 q 0.004,0.0582 0.007,0.11409 0.002,0.0559 0.002,0.10241 v 2.37723 h -0.39581 v -3.3365 h 0.23283 z"
           style="-inkscape-font-specification:Lato;stroke-width:0.291041"
           id="path1310" />
        <path
           d="m 116.58231,273.72164 q 0.13505,0 0.24681,-0.0117 0.11408,-0.014 0.2142,-0.0396 0.1001,-0.0256 0.1886,-0.0605 0.0884,-0.0373 0.17695,-0.0838 v -0.73576 h -0.51689 q -0.0442,0 -0.0722,-0.0256 -0.0256,-0.0256 -0.0256,-0.0628 v -0.25613 h 1.02447 v 1.28059 q -0.12573,0.0908 -0.2631,0.15833 -0.13505,0.0675 -0.29105,0.11409 -0.15367,0.0442 -0.33062,0.0652 -0.17695,0.0233 -0.38417,0.0233 -0.36322,0 -0.66591,-0.1234 -0.30269,-0.12573 -0.52154,-0.34925 -0.21887,-0.22585 -0.34227,-0.54018 -0.12107,-0.31432 -0.12107,-0.69151 0,-0.38185 0.11874,-0.69617 0.12108,-0.31433 0.34227,-0.53785 0.22352,-0.22585 0.53784,-0.34925 0.31666,-0.12339 0.70782,-0.12339 0.1979,0 0.36787,0.0303 0.16997,0.0279 0.31433,0.0838 0.14668,0.0536 0.27008,0.1327 0.12341,0.0768 0.2305,0.17462 l -0.12805,0.2049 q -0.0396,0.0629 -0.10241,0.0629 -0.0373,0 -0.0815,-0.0256 -0.0582,-0.0326 -0.13038,-0.0792 -0.0722,-0.0465 -0.17696,-0.0884 -0.10241,-0.0442 -0.24447,-0.0745 -0.1397,-0.0302 -0.33295,-0.0302 -0.28173,0 -0.50991,0.0932 -0.22818,0.0909 -0.38883,0.26311 -0.16066,0.16996 -0.2468,0.41444 -0.0861,0.24215 -0.0861,0.54483 0,0.31665 0.0884,0.56578 0.0907,0.24681 0.25379,0.4191 0.16299,0.17231 0.38651,0.26311 0.22352,0.0909 0.4936,0.0909 z"
           style="-inkscape-font-specification:Lato;stroke-width:0.291041"
           id="path1312" />
        <path
           d="m 120.57016,270.71343 v 0.36788 h -1.60189 v 1.10828 h 1.29687 v 0.3539 h -1.29687 v 1.13856 h 1.60189 v 0.36788 h -2.05592 v -3.3365 z"
           style="-inkscape-font-specification:Lato;stroke-width:0.291041"
           id="path1314" />
        <path
           d="m 121.4483,270.71343 q 0.0605,0 0.0884,0.0163 0.0303,0.014 0.0675,0.0605 l 1.93252,2.51459 q -0.007,-0.0605 -0.009,-0.11641 -0.002,-0.0582 -0.002,-0.11176 v -2.36325 h 0.39581 v 3.3365 h -0.22817 q -0.0536,0 -0.0907,-0.0186 -0.035,-0.0186 -0.0699,-0.0628 l -1.9302,-2.51227 q 0.004,0.0582 0.007,0.11409 0.002,0.0559 0.002,0.10241 v 2.37723 h -0.39582 v -3.3365 h 0.23284 z"
           style="-inkscape-font-specification:Lato;stroke-width:0.291041"
           id="path1316" />
        <path
           d="m 125.27077,274.04993 h -0.45169 v -3.3365 h 0.45169 z"
           style="-inkscape-font-specification:Lato;stroke-width:0.291041"
           id="path1318" />
        <path
           d="m 128.21909,270.71343 v 0.36788 h -1.60189 v 1.10828 h 1.29688 v 0.3539 h -1.29688 v 1.13856 h 1.60189 v 0.36788 h -2.05591 v -3.3365 z"
           style="-inkscape-font-specification:Lato;stroke-width:0.291041"
           id="path1320" />
        <path
           d="m 130.16128,273.69136 q 0.20722,0 0.37021,-0.0698 0.16298,-0.0698 0.27475,-0.19558 0.11408,-0.12573 0.17229,-0.30035 0.0605,-0.17463 0.0605,-0.38418 v -2.02797 h 0.44937 v 2.02797 q 0,0.28872 -0.0932,0.53552 -0.0907,0.2468 -0.2631,0.42841 -0.16997,0.17928 -0.41677,0.28174 -0.2468,0.10241 -0.55414,0.10241 -0.30734,0 -0.55415,-0.10241 -0.2468,-0.10241 -0.4191,-0.28174 -0.17229,-0.18161 -0.26543,-0.42841 -0.0907,-0.2468 -0.0907,-0.53552 v -2.02797 h 0.44936 v 2.02564 q 0,0.20955 0.0582,0.38418 0.0605,0.17462 0.17229,0.30035 0.1141,0.12573 0.27707,0.19791 0.16532,0.0698 0.37254,0.0698 z"
           style="-inkscape-font-specification:Lato;stroke-width:0.291041"
           id="path1322" />
        <path
           d="m 132.76188,272.65758 v 1.39235 h -0.44936 v -3.3365 h 0.94297 q 0.31665,0 0.54716,0.0652 0.2305,0.0629 0.37952,0.18394 0.15134,0.12107 0.22352,0.29337 0.0722,0.16997 0.0722,0.38185 0,0.17695 -0.0559,0.33062 -0.0559,0.15367 -0.16299,0.27707 -0.10472,0.12108 -0.25844,0.20722 -0.15134,0.0861 -0.3446,0.13039 0.0838,0.0488 0.14902,0.14203 l 0.97324,1.32482 h -0.40047 q -0.1234,0 -0.18161,-0.0955 l -0.86614,-1.1921 q -0.0396,-0.0559 -0.0861,-0.0792 -0.0465,-0.0256 -0.1397,-0.0256 z m 0,-0.32829 h 0.47266 q 0.1979,0 0.34692,-0.0465 0.15134,-0.0488 0.25146,-0.13505 0.10241,-0.0884 0.15367,-0.20955 0.0513,-0.12108 0.0513,-0.26776 0,-0.29802 -0.19791,-0.44936 -0.19558,-0.15135 -0.58441,-0.15135 h -0.49362 z"
           style="-inkscape-font-specification:Lato;stroke-width:0.291041"
           id="path1324" />
        <path
           d="m 135.26732,274.04993 v -3.3365 h 1.06404 q 0.30734,0 0.52854,0.0605 0.22352,0.0605 0.36554,0.1723 0.14436,0.11176 0.21188,0.27474 0.0699,0.16066 0.0699,0.36322 0,0.1234 -0.0396,0.23749 -0.0373,0.11408 -0.11642,0.21187 -0.0769,0.0978 -0.19558,0.17463 -0.11642,0.0768 -0.27474,0.12573 0.36554,0.0722 0.55182,0.26311 0.18626,0.19091 0.18626,0.50292 0,0.21187 -0.0792,0.38649 -0.0769,0.17463 -0.22817,0.30036 -0.14902,0.12573 -0.36788,0.19558 -0.21653,0.0675 -0.49593,0.0675 z m 0.45169,-1.52041 v 1.16184 h 0.72179 q 0.19325,0 0.33061,-0.0442 0.1397,-0.0442 0.22819,-0.12339 0.0909,-0.0815 0.13271,-0.19093 0.0419,-0.11176 0.0419,-0.24448 0,-0.25844 -0.18394,-0.40745 -0.18161,-0.15135 -0.55181,-0.15135 z m 0,-0.32131 h 0.59606 q 0.19091,0 0.33061,-0.0419 0.1397,-0.0419 0.23051,-0.11641 0.0932,-0.0745 0.13738,-0.17928 0.0442,-0.10714 0.0442,-0.23284 0,-0.29337 -0.17695,-0.43073 -0.17696,-0.13738 -0.54949,-0.13738 H 135.719 Z"
           style="-inkscape-font-specification:Lato;stroke-width:0.291041"
           id="path1326" />
        <path
           d="m 139.57465,273.69136 q 0.20722,0 0.37021,-0.0698 0.16299,-0.0698 0.27475,-0.19558 0.11408,-0.12573 0.17229,-0.30035 0.0605,-0.17463 0.0605,-0.38418 v -2.02797 h 0.44937 v 2.02797 q 0,0.28872 -0.0932,0.53552 -0.0908,0.2468 -0.2631,0.42841 -0.16997,0.17928 -0.41677,0.28174 -0.2468,0.10241 -0.55414,0.10241 -0.30734,0 -0.55415,-0.10241 -0.24679,-0.10241 -0.4191,-0.28174 -0.17229,-0.18161 -0.26543,-0.42841 -0.0909,-0.2468 -0.0909,-0.53552 v -2.02797 h 0.44937 v 2.02564 q 0,0.20955 0.0582,0.38418 0.0605,0.17462 0.1723,0.30035 0.11409,0.12573 0.27706,0.19791 0.16532,0.0698 0.37254,0.0698 z m -0.23982,-3.52044 q 0,0.0513 -0.0209,0.0978 -0.0209,0.0442 -0.0559,0.0792 -0.035,0.0349 -0.0838,0.0559 -0.0465,0.0186 -0.1001,0.0186 -0.0489,0 -0.0955,-0.0186 -0.0442,-0.0209 -0.0792,-0.0559 -0.035,-0.0349 -0.0559,-0.0792 -0.0209,-0.0465 -0.0209,-0.0978 0,-0.0536 0.0209,-0.1001 0.0209,-0.0488 0.0559,-0.0838 0.0349,-0.0349 0.0792,-0.0559 0.0465,-0.0209 0.0955,-0.0209 0.0536,0 0.1001,0.0209 0.0488,0.021 0.0838,0.0559 0.0349,0.0349 0.0559,0.0838 0.0209,0.0465 0.0209,0.1001 z m 0.99187,0 q 0,0.0513 -0.0209,0.0978 -0.0209,0.0442 -0.0559,0.0792 -0.0349,0.0349 -0.0815,0.0559 -0.0465,0.0186 -0.0978,0.0186 -0.0536,0 -0.1001,-0.0186 -0.0465,-0.0209 -0.0815,-0.0559 -0.0349,-0.0349 -0.0559,-0.0792 -0.0186,-0.0465 -0.0186,-0.0978 0,-0.0536 0.0186,-0.1001 0.0209,-0.0488 0.0559,-0.0838 0.035,-0.0349 0.0815,-0.0559 0.0465,-0.0209 0.1001,-0.0209 0.0513,0 0.0978,0.0209 0.0465,0.021 0.0815,0.0559 0.035,0.0349 0.0559,0.0838 0.0209,0.0465 0.0209,0.1001 z"
           style="-inkscape-font-specification:Lato;stroke-width:0.291041"
           id="path1328" />
        <path
           d="m 142.17525,272.65758 v 1.39235 h -0.44936 v -3.3365 h 0.94298 q 0.31664,0 0.54715,0.0652 0.2305,0.0629 0.37952,0.18394 0.15134,0.12107 0.22352,0.29337 0.0722,0.16997 0.0722,0.38185 0,0.17695 -0.0559,0.33062 -0.0559,0.15367 -0.16299,0.27707 -0.10483,0.12108 -0.25844,0.20722 -0.15134,0.0861 -0.3446,0.13039 0.0838,0.0488 0.14902,0.14203 l 0.97324,1.32482 h -0.40047 q -0.1234,0 -0.18161,-0.0955 l -0.86614,-1.1921 q -0.0396,-0.0559 -0.0861,-0.0792 -0.0465,-0.0256 -0.1397,-0.0256 z m 0,-0.32829 h 0.47266 q 0.1979,0 0.34692,-0.0465 0.15134,-0.0488 0.25146,-0.13505 0.10241,-0.0884 0.15367,-0.20955 0.0513,-0.12108 0.0513,-0.26776 0,-0.29802 -0.19791,-0.44936 -0.19558,-0.15135 -0.58441,-0.15135 h -0.49362 z"
           style="-inkscape-font-specification:Lato;stroke-width:0.291041"
           id="path1330" />
        <path
           d="m 147.67055,272.38284 q 0,0.37487 -0.11874,0.68919 -0.11875,0.31199 -0.33528,0.53785 -0.21653,0.22584 -0.52154,0.35157 -0.30269,0.12341 -0.67056,0.12341 -0.36789,0 -0.67056,-0.12341 -0.30269,-0.12573 -0.51922,-0.35157 -0.21654,-0.22586 -0.33529,-0.53785 -0.11874,-0.31432 -0.11874,-0.68919 0,-0.37486 0.11874,-0.68685 0.11875,-0.31433 0.33529,-0.54018 0.21653,-0.22817 0.51922,-0.3539 0.30267,-0.12573 0.67056,-0.12573 0.36787,0 0.67056,0.12573 0.30501,0.12573 0.52154,0.3539 0.21653,0.22585 0.33528,0.54018 0.11874,0.31199 0.11874,0.68685 z m -0.46334,0 q 0,-0.30734 -0.0838,-0.55182 -0.0838,-0.24447 -0.23749,-0.41211 -0.15367,-0.16996 -0.37252,-0.26077 -0.21887,-0.0909 -0.48895,-0.0909 -0.26777,0 -0.48663,0.0909 -0.21886,0.0908 -0.37486,0.26077 -0.15367,0.16764 -0.23749,0.41211 -0.0838,0.24448 -0.0838,0.55182 0,0.30734 0.0838,0.55181 0.0838,0.24216 0.23749,0.41212 0.156,0.16764 0.37486,0.25844 0.21886,0.0884 0.48663,0.0884 0.27008,0 0.48895,-0.0884 0.21885,-0.0909 0.37252,-0.25844 0.15367,-0.16996 0.23749,-0.41212 0.0838,-0.24447 0.0838,-0.55181 z"
           style="-inkscape-font-specification:Lato;stroke-width:0.291041"
           id="path1332" />
      </g>
      <g
         id="g3679">
        <g
           aria-label="//"
           id="g2720"
           style="font-size:22.5778px;line-height:1.25;font-family:Lato;-inkscape-font-specification:'Lato, Normal';letter-spacing:0px;fill:#ffffff;fill-opacity:1;stroke-width:0.264583"
           transform="matrix(4.2028845,0,0,4.2028845,-424.91041,-121.84818)">
          <path
             d="m 87.38547,33.581134 q -0.135466,0.3048 -0.361244,0.530578 -0.214489,0.225778 -0.474134,0.372534 -0.259645,0.158045 -0.541867,0.237067 -0.270934,0.07902 -0.51929,0.07902 h -1.444979 l 7.69903,-16.459217 q 0.259645,-0.564445 0.756356,-0.857956 0.496712,-0.293511 1.095024,-0.293511 h 1.422401 z"
             style="font-style:italic;font-weight:900;-inkscape-font-specification:'Lato Heavy Italic';fill:#ffffff;fill-opacity:1"
             id="path2716" />
          <path
             d="m 94.044158,33.581134 q -0.135467,0.3048 -0.361245,0.530578 -0.214489,0.225778 -0.474134,0.372534 -0.259645,0.158045 -0.541867,0.237067 -0.270934,0.07902 -0.51929,0.07902 h -1.444979 l 7.69903,-16.459217 q 0.259645,-0.564445 0.756356,-0.857956 0.496712,-0.293511 1.095021,-0.293511 h 1.4224 z"
             style="font-style:italic;font-weight:900;-inkscape-font-specification:'Lato Heavy Italic';fill:#ffffff;fill-opacity:1"
             id="path2718" />
        </g>
        <g
           aria-label="JE"
           id="text2724"
           style="font-size:22.5778px;line-height:1.25;font-family:Lato;-inkscape-font-specification:'Lato, Normal';letter-spacing:0px;fill:#ffffff;fill-opacity:1;stroke-width:0.264583"
           transform="matrix(4.2028845,0,0,4.2028845,-219.16522,-987.43649)">
          <path
             d="m 64.507776,234.17559 q -0.169333,1.37724 -0.620889,2.49484 -0.451557,1.1176 -1.196624,1.91912 -0.745067,0.80151 -1.783646,1.24178 -1.02729,0.42897 -2.35938,0.42897 -0.598312,0 -1.174046,-0.0677 -0.564445,-0.0677 -1.174046,-0.22578 l 0.270934,-2.11102 q 0.03387,-0.28222 0.2032,-0.46285 0.158045,-0.19191 0.51929,-0.19191 0.270933,0 0.6096,0.0677 0.338667,0.0564 0.745068,0.0564 0.914401,0 1.501423,-0.7112 0.587023,-0.72249 0.778935,-2.34809 l 1.286934,-10.63415 h 3.680182 z"
             style="font-style:italic;font-weight:900;-inkscape-font-specification:'Lato Heavy Italic'"
             id="path1335" />
          <path
             d="m 77.614895,226.46527 h -6.084717 l -0.496712,3.97369 h 4.662316 l -0.361245,2.73191 h -4.639738 l -0.496711,4.0753 h 6.129872 l -0.361244,2.83351 h -9.821344 l 2.032002,-16.44793 h 9.798766 z"
             style="font-style:italic;font-weight:900;-inkscape-font-specification:'Lato Heavy Italic'"
             id="path1337" />
        </g>
      </g>
    </g>
  </g>
</svg>
