<svg width="561.93921" height="349.16132" viewBox="0 0 148.67972 92.382237" xmlns="http://www.w3.org/2000/svg"><g style="display:inline"><path style="display:inline;fill:none;stroke:#fff;stroke-width:7.9375;stroke-miterlimit:4;stroke-dasharray:none;stop-color:#000" d="M438.85811 1843.9499c0-23.1726-31.50621-41.9576-70.37111-41.9576-38.86491 0-70.37113 18.785-70.37114 41.9576 0 23.1727 31.50623 41.958 70.37114 41.958 38.8649 0 70.37111-18.7853 70.37111-41.958z" transform="translate(-294.14711 -1798.02355)"/><path style="display:inline;fill:none;stroke:#fff;stroke-width:4.90537;stroke-miterlimit:4;stroke-dasharray:none;stop-color:#000" d="M433.52823 1843.95c0-14.3207-19.47084-25.9298-43.48935-25.9298-24.01851 0-43.48935 11.6091-43.48936 25.9298 0 14.3207 19.47085 25.93 43.48936 25.93s43.48935-11.6093 43.48935-25.93z" transform="translate(-294.14711 -1798.02355)"/><path style="display:inline;fill:none;stroke:#fff;stroke-width:3.03152;stroke-miterlimit:4;stroke-dasharray:none;stop-color:#000" d="M430.33377 1843.95c0-8.8502-12.03298-16.0246-26.87642-16.0246s-26.87642 7.1744-26.87643 16.0246c0 8.8502 12.03299 16.0248 26.87643 16.0248s26.87642-7.1746 26.87642-16.0248z" transform="translate(-294.14711 -1798.02355)"/><path style="display:inline;fill:none;stroke:#fff;stroke-width:1.87348;stroke-miterlimit:4;stroke-dasharray:none;stop-color:#000" d="M428.22413 1843.95c0-5.4694-7.43639-9.9032-16.60963-9.9032-9.17325 0-16.60963 4.4338-16.60964 9.9032 0 5.4695 7.43639 9.9034 16.60964 9.9034 9.17324 0 16.60963-4.4339 16.60963-9.9034z" transform="translate(-294.14711 -1798.02355)"/><path style="display:inline;fill:none;stroke:#fff;stroke-width:1.15781;stroke-miterlimit:4;stroke-dasharray:none;stop-color:#000" d="M427.17578 1843.95c0-3.3801-4.59569-6.1201-10.26475-6.1201-5.66907 0-10.26475 2.74-10.26476 6.1201 0 3.3802 4.59569 6.1203 10.26476 6.1203 5.66906 0 10.26475-2.7401 10.26475-6.1203z" transform="translate(-294.14711 -1798.02355)"/></g></svg>