<svg width="242.284mm" height="61.452808mm" viewBox="0 0 242.28393 61.45279" xmlns="http://www.w3.org/2000/svg"><defs><path id="c" d="M1600.6648 5530.2114h158.57976v94.550331H1600.6648z"/><path id="b" d="M157-13h55v40h-55z"/><filter style="color-interpolation-filters:sRGB" id="a" x="-.05642297" y="-.03515585" width="1.1128459" height="1.0703117"><feGaussianBlur stdDeviation="1.1384116"/></filter></defs><text xml:space="preserve" transform="matrix(.26458 0 0 .26458 -35.498514 -2112.3777)" style="font-size:36px;line-height:1.25;font-family:Lato;-inkscape-font-specification:Lato;text-align:center;letter-spacing:0;white-space:pre;shape-inside:url(#b)"><tspan x="157" y="60.48"><tspan dx="0 20.882812 20.039062 14.484375 18.84375">Ehret</tspan></tspan></text><g style="display:inline"><path style="display:inline;vector-effect:none;fill:#000;fill-opacity:.35;stroke-width:.382182;stroke-opacity:.968165;stop-color:#000" d="M305.7833 120.05449h242.28393v61.45279H305.7833Z" transform="translate(-305.7833 -120.05449)"/></g><g style="display:inline"><g style="display:inline"><path style="display:inline;fill:#fff;fill-opacity:1;stroke:none;stroke-width:.731013;stroke-miterlimit:4;stroke-dasharray:none;stroke-opacity:1;stop-color:#000" d="M-271.07296 186.16718c-53.68966 0-97.21334 25.95045-97.21335 57.96207 0 32.01177 43.52369 57.9628 97.21335 57.9628 53.68965 0 97.21404-25.95103 97.21404-57.9628 0-32.01162-43.52439-57.96207-97.21404-57.96207zm36.42001 22.14171c33.18021 0 60.07803 16.03714 60.07803 35.82036 0 19.78323-26.89782 35.82108-60.07803 35.82108-33.18018 0-60.07801-16.03785-60.07801-35.82108.00001-19.78322 26.89783-35.82036 60.07801-35.82036z" transform="matrix(.45346 0 0 .47004 171.939641 -84.02494)"/><path style="display:inline;fill:#fff;fill-opacity:1;stroke:none;stroke-width:.731013;stroke-miterlimit:4;stroke-dasharray:none;stroke-opacity:1;stop-color:#000" d="M-212.41915 221.99255c-20.50536 0-37.12817 9.91066-37.12818 22.1367 0 12.22605 16.62282 22.13743 37.12818 22.13743 20.50537 0 37.1282-9.91138 37.1282-22.13743 0-12.22604-16.62283-22.1367-37.1282-22.1367zm13.08686 8.45591c12.67229 0 22.94483 6.12514 22.94483 13.68079 0 7.55581-10.27254 13.68081-22.94483 13.68081-12.67233 0-22.94556-6.125-22.94556-13.68081.00004-7.55565 10.27323-13.68079 22.94556-13.68079z" transform="matrix(.45346 0 0 .47004 171.939641 -84.02494)"/><path style="display:inline;fill:#fff;fill-opacity:1;stroke:none;stroke-width:.730783;stroke-miterlimit:4;stroke-dasharray:none;stroke-opacity:1;stop-color:#000" d="M-177.48361 244.12935c0-4.66942-6.34867-8.45456-14.18015-8.45456-7.8315 0-14.18018 3.78514-14.18021 8.45456 0 4.66955 6.3487 8.45485 14.18021 8.45485 7.83148 0 14.18015-3.7853 14.18015-8.45485z" transform="matrix(.45346 0 0 .47004 171.939641 -84.02494)"/></g><path d="M-137.60691 363.53268h-1.47428v-7.89557h1.47428zM-135.05747 355.63711q.0982 0 .16381.0109.0655.005.11467.0328.0546.0218.10374.071.0492.0437.10922.12011l4.14436 5.28011q-.0218-.19111-.0327-.3713-.005-.18565-.005-.344v-4.79959h1.29409v7.89557h-.75899q-.17473 0-.28939-.0546-.11467-.0546-.22387-.19658l-4.12798-5.25825q.0164.17473.0218.34945.0109.16928.0109.31124v4.84873h-1.29409v-7.89557h.7699zM-123.94731 362.45155q.49689 0 .86273-.0873.37129-.0928.70437-.25118v-1.43606h-.98831q-.14197 0-.22387-.0764-.0819-.0819-.0819-.19656v-.82997h2.6264v3.19427q-.30032.21841-.62794.38221-.32215.15835-.69346.2621-.36584.10375-.78628.15289-.42044.0546-.9064.0546-.86273 0-1.58895-.30032-.72622-.30032-1.25587-.83543-.52964-.53511-.82996-1.27771-.29486-.74259-.29486-1.6217 0-.89003.2894-1.63263.28939-.74259.81904-1.27771.5351-.5351 1.29409-.82996.75898-.29485 1.70361-.29485.96647 0 1.67085.28939.70984.28394 1.20126.7426l-.4259.66616q-.12559.20203-.33308.20203-.13105 0-.26755-.0873-.17473-.10375-.36038-.20749-.18019-.10374-.40406-.18019-.21841-.0764-.49689-.12558-.27301-.0492-.63339-.0492-.58425 0-1.0593.19657-.46959.19657-.80266.56241-.33308.36584-.51327.8791-.18019.51328-.18019 1.14667 0 .68254.19111 1.21764.19111.52966.53511.89549.34399.36584.81904.56241.47504.19111 1.03746.19111zM-114.70133 355.63711v1.1685h-3.50005v2.18958h2.75745v1.13028h-2.75745v2.23325h3.50005v1.17396h-4.97979v-7.89557zM-112.66174 355.63711q.0983 0 .1638.0109.0655.005.11467.0328.0546.0218.10375.071.0492.0437.1092.12011l4.14436 5.28011q-.0218-.19111-.0327-.3713-.005-.18565-.005-.344v-4.79959h1.29409v7.89557h-.75897q-.17473 0-.2894-.0546-.11466-.0546-.22388-.19658l-4.12797-5.25825q.0164.17473.0218.34945.0109.16928.0109.31124v4.84873h-1.29409v-7.89557h.7699zM-103.52276 363.53268h-1.47428v-7.89557h1.47428zM-96.763431 355.63711v1.1685h-3.500049v2.18958h2.757449v1.13028h-2.757449v2.23325h3.500049v1.17396h-4.979779v-7.89557zM-92.315856 362.34781q.425902 0 .75898-.14197.338538-.14197.567871-.39861.234792-.25663.354918-.62247.125586-.36584.125586-.81904v-4.72861h1.468819v4.72861q0 .70438-.229333 1.305-.223871.59518-.649774 1.032-.425903.43137-1.031994.67708-.606093.24025-1.365073.24025-.758981 0-1.365072-.24025-.606092-.24571-1.031995-.67708-.420443-.43682-.649774-1.032-.223873-.60062-.223873-1.305v-4.72861h1.468819v4.72314q0 .45321.120126.81905.125586.36584.354918.62793.229333.25664.562411.39861.338537.14197.76444.14197zM-86.01997 360.44762v3.08506h-1.468817v-7.89557h2.407987q.808123 0 1.381453.16926.578791.16381.944631.46413.371299.30032.540568.72076.174729.41498.174729.91733 0 .3986-.120126.75351-.114667.35493-.338538.64432-.218411.2894-.546029.5078-.322157.21842-.737139.34947.278475.15835.480506.4532l1.976624 2.91579h-1.32139q-.19111 0-.327617-.0764-.131047-.0764-.223872-.21842l-1.659928-2.52811q-.09283-.14197-.207492-.20203-.109205-.0601-.327617-.0601zm0-1.05383h.917329q.414982 0 .720758-.10374.311237-.10376.507807-.28395.202031-.18565.300316-.43682.09829-.25118.09829-.55148 0-.60064-.398601-.92279-.393141-.32216-1.206724-.32216h-.93917zM-80.392631 363.53268v-7.89557h2.724685q.775361 0 1.32139.14742.551489.14743.900948.42045.354918.27301.518727.6607.163809.38768.163809.87364 0 .27848-.0819.5351-.0819.25118-.256634.47505-.169269.21842-.436823.39861-.262094.18018-.627934.30577 1.627167.36584 1.627167 1.75822 0 .50234-.191111.92824-.19111.42591-.556949.73714-.365839.30578-.900948.48051-.535108.17472-1.223104.17472zm1.468819-3.46182v2.31517h1.490658q.409522 0 .682536-.0983.278475-.0982.442284-.26209.169269-.16381.240253-.38222.07645-.21842.07645-.46413 0-.25664-.0819-.45867-.0819-.20749-.256633-.34945-.174729-.14743-.447744-.22387-.273014-.0764-.660695-.0764zm0-1.01561h1.173961q.74806 0 1.135741-.27302.38768-.27301.38768-.86819 0-.617-.349458-.8791-.349459-.26209-1.092058-.26209h-1.255866zM-70.090772 362.34781q.425903 0 .758981-.14197.338538-.14197.567871-.39861.234792-.25663.354918-.62247.125586-.36584.125586-.81904v-4.72861h1.468818v4.72861q0 .70438-.229332 1.305-.223872.59518-.649774 1.032-.425903.43137-1.031995.67708-.606092.24025-1.365073.24025-.75898 0-1.365072-.24025-.606091-.24571-1.031994-.67708-.420443-.43682-.649774-1.032-.223873-.60062-.223873-1.305v-4.72861h1.468818v4.72314q0 .45321.120127.81905.125586.36584.354918.62793.229333.25664.56241.39861.338538.14197.76444.14197zm-.447743-7.91743q0 .14743-.06006.27848-.06006.13104-.163809.22933-.103745.0982-.240253.15289-.136507.0546-.289395.0546-.141968 0-.273015-.0546-.125586-.0546-.223871-.15289-.09829-.0983-.158349-.22933-.05461-.13105-.05461-.27848 0-.14742.05461-.27848.06006-.1365.158349-.23478.09829-.10375.223871-.16381.131047-.0601.273015-.0601.152888 0 .289395.0601.136508.0601.240253.16381.103746.0982.163809.23478.06006.13106.06006.27848zm2.358845 0q0 .14743-.06006.27848-.05461.13104-.152888.22933-.09829.0982-.234793.15289-.131047.0546-.283934.0546-.147428 0-.283936-.0546-.131047-.0546-.234792-.15289-.09829-.0983-.158348-.22933-.05461-.13105-.05461-.27848 0-.14742.05461-.27848.06006-.1365.158348-.23478.103745-.10375.234792-.16381.136508-.0601.283936-.0601.152887 0 .283934.0601.136508.0601.234793.16381.09829.0982.152888.23478.06006.13106.06006.27848zM-63.794889 360.44762v3.08506h-1.468817v-7.89557h2.407986q.808124 0 1.381454.16926.578791.16381.944631.46413.371299.30032.540568.72076.174729.41498.174729.91733 0 .3986-.120126.75351-.114667.35493-.338538.64432-.218411.2894-.54603.5078-.322157.21842-.737138.34947.278475.15835.480506.4532l1.976624 2.91579h-1.32139q-.19111 0-.327617-.0764-.131047-.0764-.223872-.21842l-1.659928-2.52811q-.09283-.14197-.207492-.20203-.109206-.0601-.327617-.0601zm0-1.05383h.917329q.414982 0 .720758-.10374.311236-.10376.507807-.28395.202031-.18565.300316-.43682.09829-.25118.09829-.55148 0-.60064-.398601-.92279-.393141-.32216-1.206724-.32216h-.93917zM-50.850072 359.5849q0 .86818-.289395 1.61078-.289395.73714-.813583 1.27771-.524188.54057-1.261327.84635-.73714.30031-1.632626.30031-.895488 0-1.638088-.30031-.737139-.30578-1.266787-.84635-.524187-.54057-.813582-1.27771-.289396-.7426-.289396-1.61078 0-.86819.289396-1.60533.289395-.7426.813582-1.28317.529648-.54056 1.266787-.84088.7426-.30577 1.638088-.30577.895486 0 1.632626.30577.737139.30578 1.261327.84635.524188.5351.813583 1.2777.289395.73714.289395 1.60533zm-1.507039 0q0-.64978-.17473-1.16304-.169269-.51873-.491426-.87911-.322157-.36038-.786281-.55149-.458665-.19111-1.037455-.19111-.578792 0-1.042916.19111-.464125.19111-.791742.55149-.322157.36038-.496886.87911-.17473.51326-.17473 1.16304 0 .64977.17473 1.1685.174729.51326.496886.87364.327617.35493.791742.54603.464124.19112 1.042916.19112.57879 0 1.037455-.19112.464124-.1911.786281-.54603.322157-.36038.491426-.87364.17473-.51873.17473-1.1685zM-42.608454 355.63711v1.1685H-46.1085v2.337h2.954017v1.17396H-46.1085v3.21611h-1.479739v-7.89557zM-38.288847 362.34781q.425903 0 .75898-.14197.338538-.14197.56787-.39861.234792-.25663.354919-.62247.125587-.36584.125587-.81904v-4.72861h1.468817v4.72861q0 .70438-.229331 1.305-.223872.59518-.649775 1.032-.425902.43137-1.031995.67708-.606092.24025-1.365072.24025-.75898 0-1.365072-.24025-.606093-.24571-1.031995-.67708-.420442-.43682-.649775-1.032-.223871-.60062-.223871-1.305v-4.72861h1.468817v4.72314q0 .45321.120126.81905.125587.36584.35492.62793.229331.25664.562409.39861.338538.14197.764441.14197zm-.447743-7.91743q0 .14743-.06006.27848-.06006.13104-.163809.22933-.103745.0982-.240253.15289-.136506.0546-.289395.0546-.141967 0-.273014-.0546-.125587-.0546-.223872-.15289-.09829-.0983-.158348-.22933-.05461-.13105-.05461-.27848 0-.14742.05461-.27848.06006-.1365.158348-.23478.09829-.10375.223872-.16381.131047-.0601.273014-.0601.152889 0 .289395.0601.136508.0601.240253.16381.103746.0982.163809.23478.06006.13106.06006.27848zm2.358844 0q0 .14743-.06006.27848-.05461.13104-.152888.22933-.09829.0982-.234792.15289-.131047.0546-.283936.0546-.147428 0-.283934-.0546-.131048-.0546-.234793-.15289-.09829-.0983-.158349-.22933-.05461-.13105-.05461-.27848 0-.14742.05461-.27848.06006-.1365.158349-.23478.103745-.10375.234793-.16381.136506-.0601.283934-.0601.152889 0 .283936.0601.136507.0601.234792.16381.09829.0982.152888.23478.06006.13106.06006.27848zM-31.992965 360.44762v3.08506h-1.468818v-7.89557h2.407988q.808123 0 1.381453.16926.578791.16381.94463.46413.3713.30032.540569.72076.174729.41498.174729.91733 0 .3986-.120126.75351-.114666.35493-.338538.64432-.218412.2894-.546029.5078-.322157.21842-.737139.34947.278474.15835.480505.4532l1.976625 2.91579h-1.32139q-.19111 0-.327618-.0764-.131047-.0764-.223872-.21842l-1.659927-2.52811q-.09283-.14197-.207491-.20203-.109206-.0601-.327618-.0601zm0-1.05383h.917329q.414981 0 .720758-.10374.311236-.10376.507807-.28395.202031-.18565.300316-.43682.09829-.25118.09829-.55148 0-.60064-.398601-.92279-.393141-.32216-1.206724-.32216h-.93917z" style="font-weight:700;font-size:10.7054px;line-height:1.25;font-family:Lato;-inkscape-font-specification:'Lato, Bold';text-align:center;letter-spacing:0;baseline-shift:baseline;text-anchor:middle;vector-effect:none;fill:#fff;stroke-width:.227511;stop-color:#000" transform="matrix(.90662 0 0 .90662 231.437325 -292.987575)"/><g aria-label="SOFTWARESYSTEME" style="font-size:14.8167px;line-height:1.25;font-family:Lato;-inkscape-font-specification:'Lato, Normal';text-align:center;letter-spacing:0;text-anchor:middle;stroke-width:.264583"><path d="M-133.85612 374.34301q-.0815.16298-.19262.22966-.10372.0667-.25188.0667-.14817 0-.33338-.11112-.18521-.11854-.43709-.2593-.25189-.14075-.59267-.25188-.33338-.11853-.79269-.11853-.41487 0-.72602.10371-.30375.0963-.51859.27411-.20743.1778-.31115.42969-.10372.24447-.10372.54081 0 .37782.20744.62971.21484.25188.56303.42968.3482.1778.7927.31856.4445.14076.90382.30374.46672.15558.91122.37042.4445.20743.7927.5334.34819.31856.55562.78529.21484.46672.21484 1.13347 0 .72602-.25188 1.36314-.24448.62971-.72602 1.10384-.47413.46673-1.16311.74084-.68898.2667-1.57798.2667-.51117 0-1.00753-.10372-.49636-.0963-.95568-.28151-.45191-.18521-.85196-.44451-.39264-.25929-.70379-.57785l.57785-.95567q.0815-.10372.19261-.1704.11854-.0741.2593-.0741.18521 0 .40005.15558.21484.14816.50377.33337.29633.18521.68897.34079.40005.14816.95568.14816.85196 0 1.31869-.40005.46672-.40746.46672-1.16311 0-.42228-.21484-.68898-.20743-.2667-.55563-.4445-.34819-.18521-.79269-.31115-.4445-.12594-.90382-.27411-.45932-.14816-.90382-.3556-.4445-.20743-.79269-.54081-.34819-.33337-.56304-.82973-.20743-.50377-.20743-1.2372 0-.58526.22966-1.14088.23707-.55563.68157-.98531.45191-.42969 1.10384-.68898.65194-.25929 1.48908-.25929.94827 0 1.74837.29633.8001.29634 1.36314.82974zM-121.36403 377.75085q0 1.17793-.39264 2.18546-.39264 1.00013-1.10384 1.73356-.7112.73342-1.71133 1.14829-1.00013.40746-2.2151.40746t-2.2225-.40746q-1.00013-.41487-1.71874-1.14829-.7112-.73343-1.10384-1.73356-.39265-1.00753-.39265-2.18546t.39265-2.17806q.39264-1.00753 1.10384-1.74096.71861-.73342 1.71874-1.14088 1.00753-.41487 2.2225-.41487t2.2151.41487q1.00013.41486 1.71133 1.14829.7112.72602 1.10384 1.73355.39264 1.00013.39264 2.17806zm-2.0447 0q0-.88159-.23707-1.57798-.22966-.70379-.66675-1.19274-.43709-.48895-1.0668-.74825-.6223-.25929-1.40759-.25929-.78528 0-1.41499.25929-.62971.2593-1.07421.74825-.4371.48895-.67416 1.19274-.23707.69639-.23707 1.57798t.23707 1.58539q.23706.69638.67416 1.18533.4445.48154 1.07421.74084.62971.25929 1.41499.25929.78529 0 1.40759-.25929.62971-.2593 1.0668-.74084.43709-.48895.66675-1.18533.23707-.7038.23707-1.58539zM-113.04699 372.39461V373.98h-4.74876v3.17077h4.00792v1.5928h-4.00792v4.36352h-2.00766v-10.71248zM-103.94885 372.39461v1.63725h-3.22263v9.07523h-1.99284v-9.07523h-3.23745v-1.63725zM-103.66432 372.39461h1.67429q.25929 0 .42968.12594.1778.11854.23707.32597l1.822454 6.40822q.06668.23707.118533.51859.05927.27411.111125.58526.05927-.31115.125942-.58526.07408-.28152.155576-.51859l2.103971-6.40822q.05927-.17039.229659-.31115.1778-.14076.429684-.14076h.58526q.259292 0 .429684.12594.170392.11854.237067.32597l2.089155 6.40822q.162984.47414.281517 1.05199.05186-.28893.103717-.55563.05927-.2667.118534-.49636l1.822454-6.40822q.05186-.18521.229659-.31856.1778-.13335.429684-.13335h1.563162l-3.326349 10.71248h-1.800229l-2.341039-7.31945q-.04445-.14076-.09631-.30375-.04445-.16298-.0889-.34819-.04445.18521-.09631.34819-.04445.16299-.0889.30375l-2.363264 7.31945h-1.800226zM-78.612521 383.10709h-1.540937q-.259292 0-.429684-.12595-.162984-.13335-.237067-.32596l-.800102-2.18547h-4.437602l-.800102 2.18547q-.05927.17039-.237067.31115-.170392.14076-.422276.14076h-1.548345l4.207943-10.71248h2.037296zm-6.934216-4.04496h3.41525l-1.30387-3.56342q-.0889-.23707-.200025-.55563-.103717-.32596-.207434-.70379-.103717.37783-.207434.70379-.09631.32597-.192617.57045zM-75.435264 378.92137v4.18572h-1.992846v-10.71248h3.267082q1.096436 0 1.874313.22966.785285.22225 1.281644.62971.503768.40746.733427.9779.237067.56304.237067 1.24461 0 .54081-.162983 1.02235-.155576.48154-.459318.87418-.296334.39265-.740835.68898-.437093.29633-1.000127.47413.377825.21485.651934.6149l2.681823 3.95606h-1.792821q-.259292 0-.444501-.10372-.1778-.10372-.303742-.29633l-2.252138-3.43007q-.125942-.19262-.281518-.27411-.148167-.0815-.444501-.0815zm0-1.42981h1.244603q.563034 0 .977902-.14076.422276-.14076.688977-.38524.274109-.25188.407459-.59266.13335-.34079.13335-.74825 0-.81492-.540809-1.25201-.533402-.43709-1.637246-.43709h-1.274236zM-61.043847 372.39461V373.98H-65.7926v2.97075h3.741217v1.53353H-65.7926v3.03001h4.748753v1.5928h-6.756415v-10.71248zM-53.579703 374.34301q-.08149.16298-.192617.22966-.103717.0667-.251884.0667t-.333376-.11112q-.185209-.11854-.437093-.2593-.251884-.14075-.592668-.25188-.333375-.11853-.792693-.11853-.414868 0-.726018.10371-.303743.0963-.518585.27411-.207434.1778-.311151.42969-.103717.24447-.103717.54081 0 .37782.207434.62971.214842.25188.563035.42968.348192.1778.792693.31856t.903819.30374q.466726.15558.911227.37042.444501.20743.792694.5334.348192.31856.555626.78529.214842.46672.214842 1.13347 0 .72602-.251884 1.36314-.244476.62971-.726018 1.10384-.474135.46673-1.163111.74084-.688977.2667-1.577979.2667-.511176 0-1.007535-.10372-.49636-.0963-.955678-.28151-.451909-.18521-.85196-.44451-.392642-.25929-.703793-.57785l.577851-.95567q.08149-.10372.192617-.1704.118534-.0741.259293-.0741.185208 0 .400051.15558.214842.14816.503767.33337.296334.18521.688977.34079.400051.14816.955677.14816.85196 0 1.318686-.40005.466726-.40746.466726-1.16311 0-.42228-.214842-.68898-.207434-.2667-.555626-.4445-.348192-.18521-.792693-.31115-.444501-.12594-.903819-.27411-.459318-.14816-.903819-.3556-.444501-.20743-.792693-.54081-.348193-.33337-.563035-.82973-.207434-.50377-.207434-1.2372 0-.58526.229659-1.14088.237067-.55563.681568-.98531.45191-.42969 1.103844-.68898.651935-.25929 1.489079-.25929.948269 0 1.74837.29633.800102.29634 1.363137.82974zM-46.599422 378.94359v4.1635h-1.992846v-4.1635l-3.904201-6.54898h1.755779q.259292 0 .407459.12594.155576.12595.259293.31856l1.963212 3.57824q.170392.31856.296334.60748.125942.28152.229659.55563.09631-.28152.214842-.56304.125942-.28892.296334-.60007l1.948396-3.57824q.08149-.16298.244476-.30374.162984-.14076.414868-.14076h1.763187zM-35.927001 374.34301q-.08149.16298-.192617.22966-.103717.0667-.251884.0667t-.333376-.11112q-.185208-.11854-.437092-.2593-.251884-.14075-.592668-.25188-.333376-.11853-.792694-.11853-.414867 0-.726018.10371-.303742.0963-.518585.27411-.207433.1778-.31115.42969-.103717.24447-.103717.54081 0 .37782.207434.62971.214842.25188.563034.42968.348193.1778.792694.31856.444501.14076.903818.30374.466726.15558.911227.37042.444501.20743.792694.5334.348192.31856.555626.78529.214842.46672.214842 1.13347 0 .72602-.251884 1.36314-.244475.62971-.726018 1.10384-.474134.46673-1.163111.74084-.688976.2667-1.577978.2667-.511177 0-1.007536-.10372-.496359-.0963-.955677-.28151-.45191-.18521-.85196-.44451-.392643-.25929-.703794-.57785l.577852-.95567q.08149-.10372.192617-.1704.118533-.0741.259292-.0741.185209 0 .400051.15558.214842.14816.503768.33337.296334.18521.688976.34079.400051.14816.955677.14816.851961 0 1.318687-.40005.466726-.40746.466726-1.16311 0-.42228-.214842-.68898-.207434-.2667-.555627-.4445-.348192-.18521-.792693-.31115-.444501-.12594-.903819-.27411-.459318-.14816-.903819-.3556-.444501-.20743-.792693-.54081-.348192-.33337-.563035-.82973-.207433-.50377-.207433-1.2372 0-.58526.229658-1.14088.237068-.55563.681569-.98531.451909-.42969 1.103844-.68898t1.489078-.25929q.948269 0 1.748371.29633.800102.29634 1.363136.82974zM-26.161173 372.39461v1.63725h-3.222632v9.07523h-1.992846v-9.07523H-34.6141v-1.63725zM-18.127511 372.39461V373.98h-4.748752v2.97075h3.741216v1.53353h-3.741216v3.03001h4.748752v1.5928h-6.756415v-10.71248zM-11.026376 378.66208q.125942.23706.229658.49636.111126.25188.214843.51117.103717-.2667.214842-.52599.111125-.25929.237067-.49636l3.1707738-5.93409q.059267-.11112.1185336-.1778.066675-.0667.1407586-.0963.081492-.0296.1778004-.037.096309-.007.2296589-.007h1.503895v10.71248h-1.7557789v-6.9194q0-.19262.00741-.42228.014817-.22966.037042-.46672l-3.237449 6.07484q-.1111252.20744-.2889254.32597-.177801.11112-.414868.11112h-.274109q-.237067 0-.414867-.11112-.177801-.11853-.288926-.32597l-3.281899-6.09707q.02963.24448.03704.48154.01482.22966.01482.42969v6.9194h-1.755778v-10.71248h1.503895q.13335 0 .229658.007.09631.007.170392.037.08149.0296.148167.0963.06668.0667.125942.1778l3.200408 5.94891zM4.1264714 372.39461V373.98H-.6222809v2.97075h3.7412167v1.53353H-.6222809v3.03001h4.7487523v1.5928h-6.7564152v-10.71248z" style="font-weight:700;-inkscape-font-specification:'Lato, Bold';baseline-shift:baseline;opacity:1;vector-effect:none;fill:#fff;stop-color:#000;stop-opacity:1" transform="matrix(.91328 0 0 .91328 233.578647 -295.521062)"/></g><g aria-label="JÜRGEN EHRET" style="font-weight:700;font-size:38.1px;line-height:1.25;font-family:Lato;-inkscape-font-specification:'Lato, Bold';text-align:center;letter-spacing:0;text-anchor:middle;stroke-width:.264583"><path d="M-351.58292 282.60042q0 2.3241-.5715 4.191-.5715 1.8669-1.7145 3.18135-1.12395 1.31445-2.8194 2.0193t-3.94335.70485q-1.0287 0-2.0193-.13335-.9906-.1143-2.07645-.381l.2667-3.048q.0381-.4191.3048-.66675.28575-.2667.81915-.2667.32385 0 .8382.13335.5334.13335 1.3335.13335 1.08585 0 1.92405-.3048.8382-.32385 1.39065-1.00965.5715-.6858.85725-1.77165.28575-1.1049.28575-2.667v-17.8689h5.12445zM-334.91417 288.25827q1.4859 0 2.64795-.4953 1.1811-.4953 1.9812-1.39065.81915-.89535 1.23825-2.1717.43815-1.27635.43815-2.8575v-16.4973h5.12445v16.4973q0 2.45745-.8001 4.55295-.78105 2.07645-2.26695 3.60045-1.4859 1.50495-3.60045 2.3622-2.11455.8382-4.7625.8382-2.64795 0-4.7625-.8382-2.11455-.85725-3.60045-2.3622-1.46685-1.524-2.26695-3.60045-.78105-2.0955-.78105-4.55295v-16.4973h5.12445v16.47825q0 1.58115.4191 2.8575.43815 1.27635 1.23825 2.19075.8001.89535 1.96215 1.39065 1.1811.4953 2.667.4953zm-1.5621-27.6225q0 .51435-.20955.97155-.20955.4572-.5715.8001-.36195.3429-.8382.5334-.47625.1905-1.00965.1905-.4953 0-.9525-.1905-.43815-.1905-.78105-.5334-.3429-.3429-.55245-.8001-.1905-.4572-.1905-.97155 0-.51435.1905-.97155.20955-.47625.55245-.81915.3429-.36195.78105-.5715.4572-.20955.9525-.20955.5334 0 1.00965.20955.47625.20955.8382.5715.36195.3429.5715.81915.20955.4572.20955.97155zm8.2296 0q0 .51435-.20955.97155-.1905.4572-.5334.8001-.3429.3429-.81915.5334-.4572.1905-.9906.1905-.51435 0-.9906-.1905-.4572-.1905-.81915-.5334-.3429-.3429-.55245-.8001-.1905-.4572-.1905-.97155 0-.51435.1905-.97155.20955-.47625.55245-.81915.36195-.36195.81915-.5715.47625-.20955.9906-.20955.5334 0 .9906.20955.47625.20955.81915.5715.3429.3429.5334.81915.20955.4572.20955.97155zM-312.94892 281.62887v10.76325h-5.12445v-27.5463h8.40105q2.8194 0 4.81965.59055 2.0193.5715 3.29565 1.61925 1.2954 1.04775 1.88595 2.5146.6096 1.4478.6096 3.2004 0 1.39065-.4191 2.6289-.40005 1.23825-1.1811 2.2479-.762 1.00965-1.905 1.77165-1.12395.762-2.57175 1.2192.97155.55245 1.6764 1.58115l6.8961 10.1727h-4.6101q-.66675 0-1.143-.2667-.4572-.2667-.78105-.762l-5.7912-8.82015q-.32385-.4953-.7239-.70485-.381-.20955-1.143-.20955zm0-3.67665h3.2004q1.4478 0 2.5146-.36195 1.08585-.36195 1.77165-.9906.70485-.6477 1.04775-1.524t.3429-1.92405q0-2.0955-1.39065-3.21945-1.3716-1.12395-4.21005-1.12395h-3.2766zM-281.55988 288.62022q1.73355 0 3.0099-.3048 1.2954-.32385 2.45745-.8763v-5.01015h-3.44805q-.4953 0-.78105-.2667-.28575-.28575-.28575-.6858v-2.8956h9.16305v11.14425q-1.04775.762-2.19075 1.3335-1.12395.55245-2.41935.9144-1.27635.36195-2.7432.5334-1.46685.1905-3.1623.1905-3.0099 0-5.54355-1.04775-2.53365-1.04775-4.3815-2.91465-1.84785-1.8669-2.8956-4.4577-1.0287-2.5908-1.0287-5.65785 0-3.10515 1.00965-5.69595 1.00965-2.5908 2.8575-4.4577 1.8669-1.8669 4.51485-2.8956t5.9436-1.0287q3.37185 0 5.8293 1.00965 2.4765.9906 4.191 2.5908l-1.4859 2.3241q-.43815.70485-1.16205.70485-.4572 0-.93345-.3048-.6096-.36195-1.2573-.7239-.62865-.36195-1.4097-.62865-.762-.2667-1.73355-.43815-.9525-.17145-2.2098-.17145-2.03835 0-3.6957.6858-1.6383.6858-2.80035 1.96215-1.16205 1.27635-1.7907 3.06705-.62865 1.7907-.62865 4.0005 0 2.38125.66675 4.24815.66675 1.84785 1.8669 3.1242t2.8575 1.96215q1.65735.66675 3.6195.66675zM-249.30228 264.84582v4.0767h-12.21105v7.63905h9.62025v3.94335h-9.62025v7.79145h12.21105v4.09575h-17.3736v-27.5463zM-242.18651 264.84582q.3429 0 .5715.0381.2286.019.40005.1143.1905.0762.36195.24765.17145.1524.381.4191l14.45895 18.42135q-.0762-.66675-.1143-1.2954-.019-.6477-.019-1.20015v-16.74495h4.51485v27.5463h-2.64795q-.6096 0-1.00965-.1905-.40005-.1905-.78105-.6858l-14.4018-18.34515q.0572.6096.0762 1.2192.0381.59055.0381 1.08585v16.9164h-4.51485v-27.5463h2.68605zM-191.33372 264.84582v4.0767h-12.21105v7.63905h9.62025v3.94335h-9.62025v7.79145h12.21105v4.09575h-17.3736v-27.5463zM-163.66301 292.39212h-5.16255v-12.0396h-12.9159v12.0396h-5.16255v-27.5463h5.16255v11.8491h12.9159v-11.8491h5.16255zM-152.80986 281.62887v10.76325h-5.12445v-27.5463h8.40105q2.8194 0 4.81965.59055 2.0193.5715 3.29565 1.61925 1.2954 1.04775 1.88595 2.5146.6096 1.4478.6096 3.2004 0 1.39065-.4191 2.6289-.40005 1.23825-1.1811 2.2479-.762 1.00965-1.905 1.77165-1.12395.762-2.57175 1.2192.97155.55245 1.6764 1.58115l6.8961 10.1727h-4.6101q-.66675 0-1.143-.2667-.4572-.2667-.78105-.762l-5.7912-8.82015q-.32385-.4953-.7239-.70485-.381-.20955-1.143-.20955zm0-3.67665h3.2004q1.4478 0 2.5146-.36195 1.08585-.36195 1.77165-.9906.70485-.6477 1.04775-1.524t.3429-1.92405q0-2.0955-1.39065-3.21945-1.3716-1.12395-4.21005-1.12395h-3.2766zM-115.80345 264.84582v4.0767h-12.21105v7.63905h9.62025v3.94335h-9.62025v7.79145h12.21105v4.09575h-17.3736v-27.5463zM-91.961787 264.84582v4.21005h-8.286753v23.33625h-5.12445v-23.33625h-8.32485v-4.21005z" style="fill:#fff" transform="matrix(.25987 0 0 .25987 200.124189 -60.10877)"/></g></g></svg>