<svg width="970.14771" height="1029.4707" viewBox="0 0 256.68482 272.38073" xmlns="http://www.w3.org/2000/svg"><defs><path id="c" d="M1600.6648 5530.2114h158.57976v94.550331H1600.6648z"/><path id="b" d="M157-13h55v40h-55z"/><filter style="color-interpolation-filters:sRGB" id="a" x="-.05642297" y="-.03515585" width="1.1128459" height="1.0703117"><feGaussianBlur stdDeviation="1.1384116"/></filter></defs><text xml:space="preserve" transform="matrix(.26458 0 0 .26458 68.841889 -2150.4427)" style="font-size:36px;line-height:1.25;font-family:Lato;-inkscape-font-specification:Lato;text-align:center;letter-spacing:0;white-space:pre;shape-inside:url(#b)"><tspan x="157" y="60.48"><tspan dx="0 20.882812 20.039062 14.484375 18.84375">Ehret</tspan></tspan></text><g style="display:inline"><path style="display:inline;vector-effect:none;fill:#000;fill-opacity:.35;stroke-width:.828178;stroke-opacity:.968165;stop-color:#000" d="M201.44289 158.11936H458.1278v272.38079H201.44289Z" transform="translate(-201.44289 -158.11936)"/></g><g style="display:inline"><path style="display:inline;fill:#fff;fill-opacity:1;stroke:none;stroke-width:.796215;stroke-miterlimit:4;stroke-dasharray:none;stroke-opacity:1;stop-color:#000" d="M-222.19074 381.18623c-57.43763 0-103.99962 28.77717-103.99963 64.27593-.00001 35.49876 46.562 64.27675 103.99963 64.27675 57.43762 0 108.45437-28.59657 108.45437-64.09533 0-35.49876-51.01675-64.45735-108.45437-64.45735zm38.96242 24.55363c31.87921 0 66.7689 14.12985 66.72372 39.91522-.0452 25.78537-31.22728 39.53019-66.72372 39.53019s-64.27194-17.78488-64.27194-39.72311c.00001-21.93823 32.39273-39.7223 64.27194-39.7223z" transform="translate(350.64228 -365.66644)"/><path style="display:inline;fill:#fff;fill-opacity:1;stroke:none;stroke-width:.796215;stroke-miterlimit:4;stroke-dasharray:none;stroke-opacity:1;stop-color:#000" d="M-158.68168 420.91409c-21.9368 0-39.72001 10.99023-39.72002 24.54807 0 13.55784 17.78322 24.54889 39.72002 24.54889 21.93681 0 41.44683-10.81735 41.44683-24.37519s-19.51002-24.72177-41.44683-24.72177zm14.00043 9.37702c13.55694 0 24.78839 6.96509 24.78839 15.34378 0 8.37888-11.23145 14.99835-24.78839 14.99835-13.55694 0-24.54734-6.7922-24.54734-15.17108.00004-8.37869 10.9904-15.17105 24.54734-15.17105z" transform="translate(350.64228 -365.66644)"/><path style="display:inline;fill:#fff;fill-opacity:1;stroke:none;stroke-width:.795964;stroke-miterlimit:4;stroke-dasharray:none;stroke-opacity:1;stop-color:#000" d="M-120.24901 445.4624c0-5.17806-6.79186-9.37552-15.17004-9.37552-8.37821 0-15.17007 4.19746-15.17011 9.37552 0 5.17821 6.79189 9.37585 15.17011 9.37585 8.37818 0 15.17004-4.19764 15.17004-9.37585z" transform="translate(350.64228 -365.66644)"/><g style="display:inline"><path d="M-317.17094 537.23378q0 1.42028-.34925 2.56117-.34925 1.14088-1.04775 1.94415-.68686.80327-1.72297 1.23402-1.0361.43074-2.40982.43074-.62865 0-1.23401-.0815-.60537-.0698-1.26894-.23284l.16298-1.86266q.0233-.25612.18627-.40746.17462-.16298.50059-.16298.19791 0 .51223.0815.32597.0815.81492.0815.66357 0 1.1758-.18627.51224-.1979.84984-.617.34925-.4191.52388-1.08268.17462-.67521.17462-1.62983v-10.91987h3.13161zM-304.94191 531.27326v7.59035q0 1.09432.50059 1.69968.51223.59373 1.52506.59373.74506 0 1.397-.32597.65193-.33761 1.23401-.91969v-8.6381h2.87549v11.94433h-1.75789q-.5588 0-.73343-.52387l-.1979-.95462q-.37254.37253-.76835.68686-.39582.30268-.84984.52387-.44239.20955-.96626.32597-.51223.12806-1.10596.12806-.9779 0-1.7346-.32597-.74507-.33761-1.2573-.94297-.51223-.60537-.77999-1.43193-.25612-.83819-.25612-1.83938v-7.59035zm1.85102-3.09668q0 .32596-.12806.61701-.12805.2794-.36089.48895-.22119.20954-.52387.3376-.29104.11642-.61701.11642-.31432 0-.60536-.11642-.2794-.12806-.5006-.3376-.22119-.20955-.34924-.48895-.12806-.29105-.12806-.61701 0-.33761.12806-.62865.12805-.30268.34924-.52388.2212-.22119.5006-.34924.29104-.12806.60536-.12806.32597 0 .61701.12806.30268.12805.52387.34924.23284.2212.36089.52388.12806.29104.12806.62865zm4.35398 0q0 .32596-.12806.61701-.12806.2794-.34925.48895-.22119.20954-.52387.3376-.29104.11642-.61701.11642-.32597 0-.61701-.11642-.29104-.12806-.51223-.3376-.20955-.20955-.33761-.48895-.12806-.29105-.12806-.61701 0-.33761.12806-.62865.12806-.30268.33761-.52388.22119-.22119.51223-.34924.29104-.12806.61701-.12806.32597 0 .61701.12806.30268.12805.52387.34924.22119.2212.34925.52388.12806.29104.12806.62865zM-287.98964 543.21759v-11.94433h1.68804q.44238 0 .61701.16298.17462.16298.23283.5588l.17463 1.44356q.64029-1.10595 1.50177-1.74624t1.93251-.64029q.88477 0 1.46685.40745l-.37253 2.15371q-.0349.20955-.15134.30268-.11642.0815-.31433.0815-.17462 0-.47731-.0815-.30268-.0815-.80327-.0815-.89641 0-1.5367.50059-.64029.48895-1.08267 1.44357v7.43901zM-268.00254 531.06371q.76835 0 1.44356.16298.67522.15134 1.23402.45402h3.43429v1.07104q0 .26775-.1397.4191-.1397.15134-.47731.20955l-1.07103.1979q.11641.30269.17462.64029.0698.33761.0698.71015 0 .88476-.36089 1.60654-.34925.71014-.9779 1.21073-.61701.5006-1.47849.78-.84984.26775-1.85102.26775-.67522 0-1.31551-.12805-.5588.3376-.5588.7567 0 .36089.32597.53552.33761.16298.87312.23283.54716.0699 1.23402.0931.68686.0116 1.40864.0698.72178.0582 1.40864.20955.68686.1397 1.22237.45403.54716.31432.87313.86148.3376.53552.3376 1.38536 0 .79163-.39581 1.53669-.38418.74507-1.12924 1.32715-.73343.58209-1.80446.93133-1.07103.3609-2.44474.3609-1.36208 0-2.36326-.26776-1.00118-.25612-1.66476-.6985-.65193-.43074-.97789-1.00118-.32597-.57044-.32597-1.18745 0-.8382.51223-1.40864t1.42028-.90805q-.44238-.24447-.71014-.65193-.26776-.40746-.26776-1.05939 0-.26776.0931-.54716.0931-.29104.2794-.57044.19791-.2794.48895-.52387.29104-.25612.68685-.45403-.90804-.48895-1.43192-1.30386-.51223-.81492-.51223-1.90923 0-.88477.34925-1.59491.36089-.72178.98954-1.22237.64029-.51224 1.50177-.77999.87312-.26776 1.89759-.26776zm3.15489 12.6894q0-.34925-.20955-.57044-.20955-.2212-.57044-.33761-.36089-.12806-.84984-.18627-.47731-.0582-1.02447-.0815-.53551-.0349-1.1176-.0582-.57044-.0349-1.10595-.10477-.48895.26775-.79164.64029-.29104.36089-.29104.8382 0 .31432.15134.58208.16299.2794.50059.47731.34925.1979.89641.30268.54716.11642 1.33879.11642.80328 0 1.38536-.12806.58208-.11642.95461-.33761.38418-.20955.5588-.51223.17463-.29104.17463-.64029zm-3.15489-6.79873q.53552 0 .93133-.1397.39582-.15134.65193-.40746.26776-.25611.39582-.617.1397-.36089.1397-.79163 0-.88477-.53552-1.397-.52387-.52388-1.58326-.52388t-1.59491.52388q-.52387.51223-.52387 1.397 0 .41909.12806.77999.1397.36089.39581.62864.26776.25612.66358.40746.40746.1397.93133.1397zM-248.79834 531.08699q1.12924 0 2.07222.36089.95461.36089 1.64147 1.05939.68686.68686 1.07103 1.69968.38418 1.00118.38418 2.29341 0 .32596-.0349.54716-.0233.20955-.10477.3376-.0699.11642-.19791.17463-.12806.0466-.32597.0466h-7.38081q.12806 1.83939.98955 2.70087.86148.86148 2.28176.86148.6985 0 1.19909-.16298.51223-.16299.88476-.36089.38418-.19791.66358-.3609.29104-.16298.5588-.16298.17462 0 .30268.0698.12806.0699.22119.19791l.8382 1.04775q-.47731.5588-1.07103.94297-.59373.37253-1.24566.60537-.64029.22119-1.3155.31432-.66358.0931-1.29223.0931-1.24565 0-2.31669-.40746-1.07103-.4191-1.86266-1.22238-.79163-.81491-1.24566-2.00236-.45402-1.19909-.45402-2.77071 0-1.22238.39582-2.29341.39581-1.08267 1.12924-1.8743.74506-.80328 1.80445-1.26894 1.07103-.46567 2.40982-.46567zm.0582 2.06057q-1.2573 0-1.96744.71014t-.90805 2.01401h5.40173q0-.5588-.15134-1.04775-.15134-.50059-.46567-.87312-.31432-.37254-.79163-.58209-.47731-.22119-1.1176-.22119zM-234.92419 543.21759v-11.94433h1.75789q.55879 0 .73342.52387l.19791.94298q.36089-.37254.7567-.67522.40746-.30268.84985-.52387.45402-.2212.96625-.33761.51223-.11642 1.1176-.11642.9779 0 1.73461.33761.7567.32596 1.25729.93133.51224.59372.76835 1.43192.26776.82656.26776 1.82774v7.602h-2.87549v-7.602q0-1.09431-.51223-1.68804-.50059-.60536-1.51341-.60536-.74507 0-1.397.33761-.65193.3376-1.23402.91969v8.6381zM-193.7087 526.38376v2.49132h-7.4623v4.6683h5.87904v2.40982h-5.87904v4.76144h7.4623v2.50295h-10.61718v-16.83383zM-184.81463 543.21759V525.9181h2.87549v6.64738q.6985-.66357 1.5367-1.07103.8382-.40746 1.96744-.40746.9779 0 1.7346.33761.75671.32596 1.2573.93133.51223.59372.76835 1.43192.26776.82656.26776 1.82774v7.602h-2.87549v-7.602q0-1.09431-.51223-1.68804-.50059-.60536-1.51342-.60536-.74506 0-1.397.33761-.65193.3376-1.23401.91969v8.6381zM-165.23135 543.21759v-11.94433h1.68804q.44239 0 .61701.16298.17463.16298.23283.5588l.17463 1.44356q.64029-1.10595 1.50177-1.74624t1.93252-.64029q.88476 0 1.46684.40745l-.37253 2.15371q-.0349.20955-.15134.30268-.11642.0815-.31432.0815-.17463 0-.47731-.0815-.30269-.0815-.80328-.0815-.8964 0-1.53669.50059-.6403.48895-1.08268 1.44357v7.43901zM-144.44098 531.08699q1.12924 0 2.07222.36089.95461.36089 1.64147 1.05939.68686.68686 1.07103 1.69968.38418 1.00118.38418 2.29341 0 .32596-.0349.54716-.0233.20955-.10477.3376-.0699.11642-.19791.17463-.12806.0466-.32597.0466h-7.3808q.12805 1.83939.98954 2.70087.86148.86148 2.28176.86148.6985 0 1.19909-.16298.51223-.16299.88476-.36089.38418-.19791.66358-.3609.29104-.16298.5588-.16298.17462 0 .30268.0698.12806.0699.22119.19791l.8382 1.04775q-.47731.5588-1.07103.94297-.59372.37253-1.24566.60537-.64029.22119-1.3155.31432-.66358.0931-1.29223.0931-1.24565 0-2.31669-.40746-1.07103-.4191-1.86266-1.22238-.79163-.81491-1.24566-2.00236-.45402-1.19909-.45402-2.77071 0-1.22238.39582-2.29341.39581-1.08267 1.12924-1.8743.74506-.80328 1.80445-1.26894 1.07103-.46567 2.40982-.46567zm.0582 2.06057q-1.2573 0-1.96744.71014t-.90805 2.01401h5.40173q0-.5588-.15134-1.04775-.15134-.50059-.46567-.87312-.31432-.37254-.79163-.58209-.47731-.22119-1.1176-.22119zM-126.64359 543.40386q-1.54834 0-2.38654-.87313-.8382-.88476-.8382-2.4331v-6.67067h-1.21073q-.23283 0-.40746-.15134-.16298-.15134-.16298-.45402v-1.14089l1.92087-.31432.60537-3.25966q.0466-.23283.20955-.36089.17462-.12806.43074-.12806h1.49013v3.76025h3.14325v2.04893h-3.14325v6.47276q0 .5588.2794.87312.2794.31433.74507.31433.26775 0 .44238-.0582.18627-.0698.31432-.1397.1397-.0699.24448-.12806.10477-.0698.20955-.0698.12806 0 .20955.0698.0815.0582.17462.18627l.86148 1.397q-.62864.52387-1.44356.79163t-1.68804.26776z" style="font-weight:700;font-size:23.2833px;line-height:1.25;font-family:Lato;-inkscape-font-specification:'Lato Bold';text-align:center;letter-spacing:6.35px;text-anchor:middle;fill:#fcfbfb;stroke-width:.264583" transform="matrix(1.03548 0 0 1 360.6608201 -351.9493415)"/></g><g style="display:inline"><path d="M-321.20554 572.32172h-2.6789v-14.347h2.6789zM-315.06814 572.32172V562.1419h1.4982q.47625 0 .62508.44648l.16867.80367q.30758-.3175.64492-.57547.34726-.25796.72429-.44648.38696-.18852.82352-.28773.43656-.0992.95249-.0992.83344 0 1.47836.28773.64492.27781 1.07156.79375.43656.50601.65484 1.22039.22821.70445.22821 1.55773v6.47897h-2.4507v-6.47897q0-.93266-.43656-1.43867-.42664-.51594-1.28984-.51594-.635 0-1.19063.28774-.55562.28773-1.05171.78382v7.36202zM-297.22482 561.9633q.65484 0 1.23031.13891.57547.12898 1.05172.38695h2.92694v.91281q0 .22821-.11906.35719t-.40679.17859l-.91282.16867q.0992.25797.14883.54571.0595.28773.0595.60523 0 .75406-.30757 1.36921-.29766.60524-.83344 1.03188-.52586.42664-1.26007.66476-.7243.2282-1.57758.2282-.57547 0-1.12117-.10914-.47625.28774-.47625.64492 0 .30758.27782.45641.28773.1389.74413.19843.46633.0595 1.05172.0794.58539.01 1.20054.0595.61516.0496 1.20055.17859.58539.11907 1.04179.38696.46633.26789.74414.73421.28774.45641.28774 1.1807 0 .67469-.33735 1.30969-.32742.635-.96242 1.13109-.62507.49609-1.53788.79375-.91281.30757-2.08359.30757-1.16086 0-2.01414-.2282-.85328-.21828-1.41882-.59531-.55563-.36711-.83344-.85328-.27781-.48617-.27781-1.01203 0-.71437.43656-1.20054t1.21047-.77391q-.37703-.20835-.60524-.55562-.2282-.34726-.2282-.90289 0-.2282.0794-.46632.0794-.24805.23812-.48618.16867-.23812.41672-.44648.24804-.21828.58539-.38695-.77391-.41672-1.22039-1.11125-.43656-.69453-.43656-1.62718 0-.75406.29765-1.35929.30758-.61516.84336-1.0418.5457-.43656 1.27992-.66476.74414-.22821 1.61726-.22821zm2.68882 10.81482q0-.29765-.17859-.48617-.17859-.18851-.48617-.28773-.30758-.10914-.7243-.15875-.40679-.0496-.87312-.0695-.4564-.0298-.9525-.0496-.48617-.0298-.94257-.0893-.41672.2282-.67469.5457-.24804.30758-.24804.71437 0 .26789.12898.4961.13891.23812.42664.40679.29765.16867.76398.25797.46633.0992 1.14101.0992.68461 0 1.1807-.10914.4961-.0992.8136-.28774.32742-.17859.47625-.43656.14882-.24804.14882-.5457zm-2.68882-5.79436q.45641 0 .79375-.11906.33734-.12899.55562-.34727.22821-.21828.33735-.52585.11906-.30758.11906-.67469 0-.75406-.45641-1.19062-.44648-.44649-1.34937-.44649t-1.35929.44649q-.44648.43656-.44648 1.19062 0 .35719.10914.66476.11906.30758.33734.53578.2282.21828.56554.34727.34727.11906.79375.11906zM-283.22684 561.98315q.96242 0 1.76609.30758.81359.30757 1.39898.90288.58539.58539.91281 1.44859.32742.85328.32742 1.95461 0 .27781-.0298.46633-.0198.17859-.0893.28773-.0595.0992-.16867.14883-.10914.0397-.27781.0397h-6.29045q.10914 1.56766.84335 2.30187.73422.73422 1.94469.73422.59531 0 1.02195-.13891.43656-.1389.75406-.30757.32742-.16867.56554-.30758.24805-.13891.47625-.13891.14883 0 .25797.0595.10914.0595.18851.16868l.71438.89296q-.4068.47625-.91281.80367-.50602.3175-1.06164.51594-.5457.18851-1.12117.26789-.56554.0794-1.10132.0794-1.06164 0-1.97445-.34726-.91281-.35719-1.5875-1.0418-.67468-.69452-1.06164-1.70655-.38695-1.02195-.38695-2.3614 0-1.0418.33734-1.95461.33735-.92273.96242-1.59742.635-.6846 1.53789-1.08148.91281-.39687 2.05382-.39687zm.0496 1.75617q-1.07156 0-1.67679.60523-.60523.60523-.7739 1.71648h4.60373q0-.47625-.12898-.89297-.12898-.42664-.39687-.74414-.26789-.3175-.67469-.49609-.4068-.18851-.9525-.18851zM-273.77151 572.32172V562.1419h1.4982q.47625 0 .62507.44648l.16868.80367q.30757-.3175.64492-.57547.34726-.25796.72429-.44648.38695-.18852.82351-.28773.43657-.0992.9525-.0992.83344 0 1.47836.28773.64492.27781 1.07156.79375.43656.50601.65484 1.22039.2282.70445.2282 1.55773v6.47897h-2.45069v-6.47897q0-.93266-.43657-1.43867-.42664-.51594-1.28984-.51594-.635 0-1.19062.28774-.55562.28773-1.05171.78382v7.36202zM-256.841 562.1419v10.17982h-2.4507V562.1419Zm.36711-2.96664q0 .3175-.12899.59532-.12898.27781-.34726.48617-.20836.20835-.49609.33734-.28774.11906-.61516.11906-.3175 0-.60523-.11906-.27781-.12899-.48617-.33734-.20836-.20836-.33735-.48617-.11906-.27782-.11906-.59532 0-.32742.11906-.61515.12899-.28773.33735-.49609t.48617-.32742q.28773-.12899.60523-.12899.32742 0 .61516.12899.28773.11906.49609.32742.21828.20836.34726.49609.12899.28773.12899.61515zM-246.81362 561.98315q.96242 0 1.76609.30758.81359.30757 1.39898.90288.58539.58539.91281 1.44859.32742.85328.32742 1.95461 0 .27781-.0298.46633-.0198.17859-.0893.28773-.0595.0992-.16867.14883-.10914.0397-.27782.0397h-6.29045q.10914 1.56766.84336 2.30187.73422.73422 1.94468.73422.59531 0 1.02195-.13891.43656-.1389.75406-.30757.32742-.16867.56555-.30758.24804-.13891.47625-.13891.14882 0 .25797.0595.10914.0595.18851.16868l.71437.89296q-.40679.47625-.91281.80367-.50601.3175-1.06163.51594-.54571.18851-1.12117.26789-.56555.0794-1.10133.0794-1.06164 0-1.97445-.34726-.91281-.35719-1.58749-1.0418-.67469-.69452-1.06164-1.70655-.38695-1.02195-.38695-2.3614 0-1.0418.33734-1.95461.33734-.92273.96242-1.59742.635-.6846 1.53789-1.08148.91281-.39687 2.05382-.39687zm.0496 1.75617q-1.07156 0-1.67679.60523-.60524.60523-.77391 1.71648h4.60374q0-.47625-.12898-.89297-.12899-.42664-.39688-.74414t-.67468-.49609q-.4068-.18851-.9525-.18851zM-235.11595 562.1419v6.46904q0 .93266.42664 1.44859.43656.50602 1.29976.50602.635 0 1.19062-.27781.55562-.28774 1.05172-.78383v-7.36201h2.45069v10.17982h-1.4982q-.47625 0-.62507-.44649l-.16867-.81359q-.3175.3175-.65485.58539-.33734.25797-.72429.44648-.37703.1786-.82352.27782-.43656.10914-.94257.10914-.83344 0-1.47836-.27782-.635-.28773-1.07156-.80367-.43656-.51593-.66476-1.22038-.21828-.71438-.21828-1.56766v-6.46904zM-223.03723 572.32172V562.1419h1.43867q.37703 0 .52585.1389.14883.13891.19844.47625l.14883 1.23031q.5457-.94257 1.27992-1.48828.73421-.5457 1.64702-.5457.75407 0 1.25016.34727l-.3175 1.83554q-.0298.17859-.12899.25797-.0992.0694-.26789.0694-.14882 0-.40679-.0694-.25797-.0695-.68461-.0695-.76398 0-1.30968.42664-.54571.41672-.92274 1.23031v6.34007zM-211.86449 572.32172v-14.74387h2.4507v5.8142q.60523-.64492 1.36921-1.02195.76398-.38695 1.78593-.38695.83344 0 1.51805.34726.69453.33735 1.19062.99219.50601.65484.7739 1.61726.27781.96242.27781 2.21257 0 1.14101-.30757 2.11336-.30758.97234-.88305 1.68671-.56554.71437-1.37913 1.12117-.80367.39687-1.80578.39687-.46633 0-.85328-.0992-.38695-.0893-.70445-.25797t-.59531-.4068q-.26789-.24805-.51594-.5457l-.10914.68461q-.0595.25797-.20836.36711-.1389.10914-.38695.10914zm4.76249-8.43358q-.76399 0-1.30969.32742-.53578.3175-1.0021.90289v4.56405q.41671.51594.90288.7243.4961.19844 1.07156.19844.55563 0 1.00211-.20836.44648-.20836.75406-.635.3175-.42664.48617-1.07156.16867-.65484.16867-1.53789 0-.89296-.14882-1.50812-.13891-.62508-.4068-1.01203-.26789-.38695-.65484-.56554-.37703-.1786-.8632-.1786zM-195.2921 562.1419v6.46904q0 .93266.42664 1.44859.43656.50602 1.29976.50602.635 0 1.19062-.27781.55563-.28774 1.05172-.78383v-7.36201h2.4507v10.17982h-1.4982q-.47625 0-.62508-.44649l-.16867-.81359q-.3175.3175-.65484.58539-.33735.25797-.7243.44648-.37703.1786-.82351.27782-.43656.10914-.94258.10914-.83343 0-1.47835-.27782-.635-.28773-1.07156-.80367-.43657-.51593-.66477-1.22038-.21828-.71438-.21828-1.56766v-6.46904zm1.57757-2.63921q0 .27781-.10914.52585-.10914.23813-.30758.41672-.18851.17859-.44648.28773-.24804.0992-.52586.0992-.26789 0-.51593-.0992-.23813-.10914-.42664-.28773-.18852-.17859-.29766-.41672-.10914-.24804-.10914-.52585 0-.28774.10914-.53578.10914-.25797.29766-.44649.18851-.18851.42664-.29765.24804-.10914.51593-.10914.27782 0 .52586.10914.25797.10914.44648.29765.19844.18852.30758.44649.10914.24804.10914.53578zm3.71077 0q0 .27781-.10914.52585-.10914.23813-.29765.41672-.18852.17859-.44648.28773-.24805.0992-.52586.0992t-.52586-.0992q-.24805-.10914-.43656-.28773-.1786-.17859-.28774-.41672-.10914-.24804-.10914-.52585 0-.28774.10914-.53578.10914-.25797.28774-.44649.18851-.18851.43656-.29765.24805-.10914.52586-.10914t.52586.10914q.25796.10914.44648.29765.18851.18852.29765.44649.10914.24804.10914.53578zM-183.21337 572.32172V562.1419h1.43867q.37703 0 .52585.1389.14883.13891.19844.47625l.14883 1.23031q.5457-.94257 1.27992-1.48828.73421-.5457 1.64702-.5457.75407 0 1.25016.34727l-.3175 1.83554q-.0298.17859-.12899.25797-.0992.0694-.26789.0694-.14882 0-.40679-.0694-.25797-.0695-.68461-.0695-.76398 0-1.30968.42664-.5457.41672-.92274 1.23031v6.34007zM-167.72464 561.98315q1.14101 0 2.06374.36711.93266.3671 1.5875 1.04179.65484.67469 1.01203 1.64703.35718.97234.35718 2.17288 0 1.21047-.35718 2.18281-.35719.97234-1.01203 1.65695-.65484.68461-1.5875 1.05172-.92273.3671-2.06374.3671t-2.07367-.3671q-.93265-.36711-1.59742-1.05172-.65484-.68461-1.02195-1.65695-.35718-.97234-.35718-2.18281 0-1.20054.35718-2.17288.36711-.97234 1.02195-1.64703.66477-.67469 1.59742-1.04179.93266-.36711 2.07367-.36711zm0 8.60224q1.26999 0 1.87523-.85328.61515-.85328.61515-2.5003 0-1.64703-.61515-2.51023-.60524-.8632-1.87523-.8632-1.28984 0-1.905.87312-.61515.8632-.61515 2.50031 0 1.6371.61515 2.5003.61516.85328 1.905.85328zM-150.43311 572.32172v-8.33436l-.88304-.1389q-.28773-.0496-.46633-.19844-.16867-.14883-.16867-.41672v-1.00211h1.51804v-.75406q0-.87312.25797-1.56765.26789-.69453.75406-1.1807.49609-.48617 1.20055-.74414.70445-.25797 1.58749-.25797.70445 0 1.30969.18852l-.0496 1.23031q-.0198.28773-.26789.35719-.24805.0694-.57547.0694-.43656 0-.78383.0992-.33734.0893-.57546.32742-.23813.2282-.36711.61515-.11906.37703-.11906.94258v.67468h2.64913v1.74625h-2.56976v8.34428zM-138.64707 562.1419v6.46904q0 .93266.42663 1.44859.43657.50602 1.29977.50602.635 0 1.19062-.27781.55562-.28774 1.05172-.78383v-7.36201h2.45069v10.17982h-1.4982q-.47625 0-.62507-.44649l-.16868-.81359q-.31749.3175-.65484.58539-.33734.25797-.72429.44648-.37703.1786-.82352.27782-.43656.10914-.94257.10914-.83344 0-1.47836-.27782-.635-.28773-1.07156-.80367-.43656-.51593-.66476-1.22038-.21828-.71438-.21828-1.56766v-6.46904zm1.57757-2.63921q0 .27781-.10914.52585-.10914.23813-.30758.41672-.18851.17859-.44648.28773-.24805.0992-.52586.0992-.26789 0-.51594-.0992-.23812-.10914-.42664-.28773-.18851-.17859-.29765-.41672-.10914-.24804-.10914-.52585 0-.28774.10914-.53578.10914-.25797.29765-.44649.18852-.18851.42664-.29765.24805-.10914.51594-.10914.27781 0 .52586.10914.25797.10914.44648.29765.19844.18852.30758.44649.10914.24804.10914.53578zm3.71077 0q0 .27781-.10914.52585-.10914.23813-.29765.41672-.18852.17859-.44649.28773-.24804.0992-.52586.0992-.27781 0-.52585-.0992-.24805-.10914-.43657-.28773-.17859-.17859-.28773-.41672-.10914-.24804-.10914-.52585 0-.28774.10914-.53578.10914-.25797.28773-.44649.18852-.18851.43657-.29765.24804-.10914.52585-.10914.27782 0 .52586.10914.25797.10914.44649.29765.18851.18852.29765.44649.10914.24804.10914.53578zM-126.56835 572.32172V562.1419h1.43867q.37703 0 .52585.1389.14883.13891.19844.47625l.14883 1.23031q.5457-.94257 1.27992-1.48828.73421-.5457 1.64702-.5457.75406 0 1.25016.34727l-.3175 1.83554q-.0298.17859-.12899.25797-.0992.0694-.26789.0694-.14882 0-.40679-.0694-.25797-.0695-.68461-.0695-.76398 0-1.30968.42664-.54571.41672-.92274 1.23031v6.34007z" style="font-weight:700;font-size:19.8437px;line-height:1.25;font-family:Lato;-inkscape-font-specification:'Lato Bold';text-align:center;letter-spacing:3.04271px;text-anchor:middle;fill:#fcfbfb;stroke-width:.264583" transform="matrix(1.02474 0 0 1 355.817193 -352.5207016)"/></g><g style="display:inline"><path d="M-314.2733 588.72851q-.14552.29104-.34396.4101-.1852.11906-.44979.11906-.26458 0-.59531-.19843-.33073-.21167-.78052-.46303-.44979-.25135-1.05833-.44979-.59531-.21166-1.41552-.21166-.74083 0-1.29646.18521-.54239.17197-.92604.48947-.37041.3175-.55562.76729-.18521.43657-.18521.96573 0 .67469.37042 1.12448.38364.44979 1.00541.76729.62177.3175 1.41552.56885.79375.25136 1.61396.5424.83343.27781 1.62718.66146.79375.37041 1.41552.9525.62177.56885.99219 1.40229.38364.83343.38364 2.02406 0 1.29645-.44979 2.43416-.43656 1.12448-1.29645 1.97114-.84667.83344-2.07698 1.32292-1.23031.47625-2.81781.47625-.91281 0-1.79916-.18521-.88636-.17198-1.70656-.50271-.80698-.33073-1.52136-.79375-.70114-.46302-1.25677-1.03187l1.03188-1.70656q.14552-.18521.34396-.30427.21166-.13229.46302-.13229.33073 0 .71437.27781.38365.26458.89958.59531.52917.33073 1.23031.60854.71438.26458 1.70656.26458 1.52136 0 2.35479-.71437.83344-.7276.83344-2.07698 0-.75406-.38365-1.23031-.37041-.47625-.99218-.79375-.62177-.33073-1.41552-.55562-.79375-.2249-1.61396-.48948-.82021-.26458-1.61395-.635-.79375-.37041-1.41552-.96573-.62177-.59531-1.00542-1.48166-.37041-.89958-.37041-2.20927 0-1.0451.4101-2.03729.42333-.99218 1.21708-1.75948.80698-.76729 1.97114-1.23031 1.16417-.46302 2.65906-.46302 1.69333 0 3.12208.52917t2.43417 1.48166zM-304.44115 590.59382q1.52136 0 2.75167.48948 1.24354.48947 2.11666 1.38906.87312.89958 1.34937 2.19603.47625 1.29646.47625 2.89719 0 1.61395-.47625 2.91041-.47625 1.29646-1.34937 2.20927-.87312.91281-2.11666 1.40229-1.23031.48948-2.75167.48948-1.52135 0-2.76489-.48948-1.24354-.48948-2.12989-1.40229-.87313-.91281-1.3626-2.20927-.47625-1.29646-.47625-2.91041 0-1.60073.47625-2.89719.48947-1.29645 1.3626-2.19603.88635-.89959 2.12989-1.38906 1.24354-.48948 2.76489-.48948zm0 11.46967q1.69333 0 2.50031-1.13771.82021-1.1377.82021-3.33374t-.82021-3.34698q-.80698-1.15093-2.50031-1.15093-1.71979 0-2.53999 1.16416-.82021 1.15094-.82021 3.33375t.82021 3.33374q.8202 1.13771 2.53999 1.13771zM-294.35103 604.37859V593.2661l-1.17739-.1852q-.38365-.0661-.62177-.26459-.2249-.19843-.2249-.55562v-1.33614h2.02406v-1.00542q0-1.16417.34396-2.09021.35719-.92604 1.00542-1.57426.66145-.64823 1.60072-.99219.93927-.34396 2.11667-.34396.93927 0 1.74625.25136l-.0661 1.64041q-.0265.38365-.35719.47625-.33073.0926-.76729.0926-.58208 0-1.0451.13229-.44979.11907-.76729.43657-.3175.30427-.48948.8202-.15875.50271-.15875 1.25677v.89959h3.53218v2.32833h-3.42635v11.12571zM-280.96023 604.59026q-1.75948 0-2.71198-.99219-.9525-1.00541-.9525-2.76489v-7.5803h-1.37583q-.26458 0-.46302-.17198-.18521-.17198-.18521-.51594v-1.29646l2.18281-.35718.68792-3.70417q.0529-.26458.23812-.4101.19844-.14552.48948-.14552h1.69333v4.27302h3.57187v2.32833h-3.57187v7.3554q0 .635.3175.99219t.84667.35719q.30427 0 .50271-.0661.21166-.0794.35718-.15875.15875-.0794.27781-.14552.11907-.0794.23813-.0794.14552 0 .23812.0794.0926.0661.19844.21167l.97896 1.58749q-.71438.59532-1.64042.89959-.92604.30427-1.91822.30427zM-276.57559 590.80548h2.59291q.37042 0 .62177.17198t.3175.43656l1.94468 7.24958q.15875.59531.25136 1.16416.10583.56886.19843 1.13771.14553-.56885.30428-1.13771.17197-.56885.35718-1.16416l2.24896-7.27603q.0794-.26459.3175-.43657.23812-.17198.55562-.17198h1.44198q.35719 0 .59531.17198.23813.17198.3175.43657l2.2225 7.40832q.17198.56885.30427 1.11125.14552.52916.27781 1.07156.0926-.56885.19844-1.13771.11906-.56885.29104-1.17739l2.01083-7.24958q.0661-.26458.3175-.43656.25135-.17198.58208-.17198h2.47385l-4.29947 13.57311h-2.6326q-.42333 0-.60854-.58208l-2.4474-7.84489q-.11906-.38364-.22489-.76729-.0926-.39687-.15875-.78052-.0794.39688-.17198.79375-.0926.38365-.21167.78052l-2.47385 7.81843q-.18521.58208-.71437.58208h-2.50031zM-243.0922 604.37859h-1.46844q-.46302 0-.7276-.13229-.26458-.14552-.39688-.56885l-.29104-.96573q-.51593.46302-1.01864.82021-.48948.34395-1.01865.58208-.52916.23812-1.12447.35718-.59532.11907-1.32292.11907-.85989 0-1.5875-.2249-.7276-.23812-1.25677-.70114-.51593-.46302-.80697-1.15094-.29105-.68792-.29105-1.60073 0-.76729.39688-1.50812.4101-.75406 1.34937-1.34937.93927-.60854 2.50031-1.00542 1.56104-.39687 3.87614-.44979v-.79375q0-1.3626-.58208-2.01083-.56885-.66146-1.66687-.66146-.79375 0-1.32292.18521-.52916.18521-.92604.42333-.38364.2249-.71437.41011-.33073.18521-.72761.18521-.33072 0-.56885-.17198-.23812-.17198-.38364-.42334l-.59532-1.0451q2.34156-2.14312 5.64885-2.14312 1.19062 0 2.11666.39687.93927.38365 1.5875 1.08479.64823.68792.97896 1.65365.34396.96573.34396 2.11666zm-6.34999-2.03729q.5027 0 .92604-.0926.42333-.0926.79375-.27781.38364-.18521.7276-.4498.35719-.27781.71437-.64822v-2.28865q-1.42875.0661-2.39447.25136-.9525.17198-1.53458.44979-.58209.27781-.83344.64823-.23813.37041-.23813.80697 0 .8599.50271 1.23032.51594.37041 1.33615.37041zM-239.61459 604.37859v-13.57311h1.91822q.50271 0 .70115.18521.19844.18521.26458.635l.19844 1.64041q.7276-1.25676 1.70656-1.98437.97896-.7276 2.19604-.7276 1.00541 0 1.66687.46302l-.42333 2.44739q-.0397.23813-.17198.34396-.13229.0926-.35719.0926-.19843 0-.54239-.0926-.34396-.0926-.91281-.0926-1.01865 0-1.74625.56885-.72761.55562-1.23031 1.64041v8.45343zM-222.94049 590.59382q1.28323 0 2.35479.4101 1.08479.4101 1.86531 1.20385.78052.78052 1.21708 1.93146.43656 1.13771.43656 2.60614 0 .37042-.0397.62177-.0265.23813-.11906.38365-.0794.13229-.22489.19843-.14553.0529-.37042.0529h-8.38728q.14552 2.09021 1.12448 3.06916.97895.97896 2.59291.97896.79375 0 1.3626-.18521.58208-.18521 1.00542-.4101.43656-.2249.75406-.41011.33073-.1852.635-.1852.19844 0 .34396.0794.14552.0794.25135.2249l.9525 1.19062q-.5424.635-1.21708 1.07156-.67469.42333-1.41552.68792-.72761.25135-1.4949.35718-.75406.10584-1.46843.10584-1.41552 0-2.6326-.46302-1.21708-.47625-2.11667-1.38906-.89958-.92604-1.41552-2.27542-.51593-1.3626-.51593-3.14853 0-1.38907.44979-2.60615.44979-1.23031 1.28323-2.12989.84666-.91281 2.05051-1.44198 1.21709-.52916 2.73844-.52916zm.0661 2.34156q-1.42874 0-2.23572.80697-.80698.80698-1.03188 2.28865h6.13833q0-.635-.17198-1.19063-.17198-.56885-.52917-.99218-.35718-.42334-.89958-.66146-.54239-.25135-1.27-.25135zM-206.06919 593.45131q-.13229.21167-.27781.30427-.14552.0794-.37042.0794-.23812 0-.51593-.13229-.26459-.13229-.62177-.29104-.35719-.17198-.82021-.30428-.44979-.13229-1.07156-.13229-.96573 0-1.52135.41011-.55563.4101-.55563 1.07156 0 .43656.27781.74083.29105.29104.75407.51594.47625.22489 1.07156.4101.59531.17198 1.21708.38365.62177.21166 1.21708.48948.59531.26458 1.05833.68791.47625.4101.75406.99219.29105.58208.29105 1.40229 0 .97895-.35719 1.81239-.35719.82021-1.0451 1.42875-.68792.59531-1.70656.93927-1.00542.33073-2.31511.33073-.70114 0-1.37583-.13229-.66145-.11907-1.28322-.34396-.60855-.2249-1.13771-.52917-.51594-.30427-.91281-.66146l.75406-1.24354q.14552-.22489.34396-.34395.19843-.11907.5027-.11907.30427 0 .56886.17198.27781.17198.635.37042.35718.19844.83343.37042.48948.17197 1.23031.17197.58209 0 .99219-.13229.42333-.14552.68792-.37041.27781-.2249.39687-.51594.13229-.30427.13229-.62177 0-.47625-.29104-.78052-.27781-.30427-.75406-.52917-.46302-.22489-1.07156-.39687-.59531-.18521-1.23031-.39688-.62177-.21166-1.23031-.48947-.59532-.29105-1.07156-.72761-.46302-.43656-.75407-1.07156-.27781-.635-.27781-1.53458 0-.83344.33073-1.5875t.96573-1.30968q.64823-.56886 1.60073-.89959.96572-.34395 2.22249-.34395 1.40229 0 2.55323.46302 1.15093.46302 1.91823 1.21708zM-197.47024 608.10921q-.14552.34396-.38365.51594-.22489.18521-.70114.18521h-2.43416l2.53999-5.43718-5.4901-12.5677h2.8575q.39688 0 .60854.18521.21167.18521.3175.42333l2.89719 7.03791q.14552.34396.25135.71438.10583.37041.18521.74083.10583-.38365.22489-.74083.13229-.35719.27782-.72761l2.7252-7.02468q.10583-.26458.34396-.43656.25135-.17198.55562-.17198h2.61937zM-179.85686 593.45131q-.13229.21167-.27781.30427-.14552.0794-.37042.0794-.23812 0-.51594-.13229-.26458-.13229-.62177-.29104-.35718-.17198-.8202-.30428-.44979-.13229-1.07156-.13229-.96573 0-1.52136.41011-.55562.4101-.55562 1.07156 0 .43656.27781.74083.29104.29104.75406.51594.47625.22489 1.07156.4101.59532.17198 1.21709.38365.62177.21166 1.21708.48948.59531.26458 1.05833.68791.47625.4101.75406.99219.29104.58208.29104 1.40229 0 .97895-.35719 1.81239-.35718.82021-1.0451 1.42875-.68791.59531-1.70656.93927-1.00541.33073-2.3151.33073-.70114 0-1.37583-.13229-.66146-.11907-1.28323-.34396-.60854-.2249-1.13771-.52917-.51593-.30427-.91281-.66146l.75406-1.24354q.14553-.22489.34396-.34395.19844-.11907.50271-.11907t.56885.17198q.27782.17198.635.37042.35719.19844.83344.37042.48948.17197 1.23031.17197.58208 0 .99219-.13229.42333-.14552.68791-.37041.27781-.2249.39688-.51594.13229-.30427.13229-.62177 0-.47625-.29104-.78052-.27782-.30427-.75406-.52917-.46302-.22489-1.07157-.39687-.59531-.18521-1.23031-.39688-.62177-.21166-1.23031-.48947-.59531-.29105-1.07156-.72761-.46302-.43656-.75406-1.07156-.27781-.635-.27781-1.53458 0-.83344.33073-1.5875t.96572-1.30968q.64823-.56886 1.60073-.89959.96573-.34395 2.2225-.34395 1.40229 0 2.55322.46302 1.15094.46302 1.91823 1.21708zM-171.6151 604.59026q-1.75948 0-2.71198-.99219-.9525-1.00541-.9525-2.76489v-7.5803h-1.37583q-.26458 0-.46302-.17198-.18521-.17198-.18521-.51594v-1.29646l2.18281-.35718.68792-3.70417q.0529-.26458.23812-.4101.19844-.14552.48948-.14552h1.69333v4.27302h3.57187v2.32833h-3.57187v7.3554q0 .635.3175.99219t.84667.35719q.30427 0 .50271-.0661.21166-.0794.35718-.15875.15875-.0794.27782-.14552.11906-.0794.23812-.0794.14552 0 .23813.0794.0926.0661.19843.21167l.97896 1.58749q-.71437.59532-1.64042.89959-.92604.30427-1.91822.30427zM-159.96768 590.59382q1.28323 0 2.35479.4101 1.08479.4101 1.86531 1.20385.78052.78052 1.21709 1.93146.43656 1.13771.43656 2.60614 0 .37042-.0397.62177-.0265.23813-.11906.38365-.0794.13229-.2249.19843-.14552.0529-.37041.0529h-8.38729q.14553 2.09021 1.12448 3.06916.97896.97896 2.59292.97896.79374 0 1.3626-.18521.58208-.18521 1.00541-.4101.43657-.2249.75407-.41011.33072-.1852.63499-.1852.19844 0 .34396.0794.14552.0794.25136.2249l.95249 1.19062q-.54239.635-1.21708 1.07156-.67468.42333-1.41552.68792-.7276.25135-1.49489.35718-.75406.10584-1.46844.10584-1.41551 0-2.6326-.46302-1.21708-.47625-2.11666-1.38906-.89958-.92604-1.41552-2.27542-.51594-1.3626-.51594-3.14853 0-1.38907.44979-2.60615.4498-1.23031 1.28323-2.12989.84667-.91281 2.05052-1.44198 1.21708-.52916 2.73843-.52916zm.0661 2.34156q-1.42875 0-2.23573.80697-.80697.80698-1.03187 2.28865h6.13833q0-.635-.17198-1.19063-.17198-.56885-.52917-.99218-.35719-.42334-.89958-.66146-.5424-.25135-1.27-.25135zM-151.15292 604.37859v-13.57311h1.99761q.635 0 .83343.59531l.21167 1.00542q.35719-.39687.74083-.7276.39688-.33073.83344-.56886.44979-.23812.9525-.37041.51593-.14552 1.12447-.14552 1.28323 0 2.10344.70114.83344.68792 1.24354 1.83885.3175-.67468.79375-1.15093.47625-.48948 1.0451-.79375.56885-.30427 1.20385-.44979.64823-.14552 1.29646-.14552 1.12448 0 1.9976.34395.87313.34396 1.46844 1.00542.59531.66146.89958 1.61396.3175.95249.3175 2.18281v8.63863h-3.2676v-8.63863q0-1.29646-.56885-1.94469-.56886-.66146-1.66688-.66146-.5027 0-.93927.17198-.42333.17198-.75406.50271-.3175.3175-.50271.80698-.1852.48948-.1852 1.12448v8.63863h-3.28083v-8.63863q0-1.36261-.55563-1.98438-.54239-.62177-1.61395-.62177-.70115 0-1.32292.35719-.60854.34396-1.13771.9525v9.93509zM-123.00666 590.59382q1.28323 0 2.35479.4101 1.08479.4101 1.86531 1.20385.78052.78052 1.21708 1.93146.43656 1.13771.43656 2.60614 0 .37042-.0397.62177-.0264.23813-.11906.38365-.0794.13229-.22489.19843-.14553.0529-.37042.0529h-8.38728q.14552 2.09021 1.12448 3.06916.97895.97896 2.59291.97896.79375 0 1.3626-.18521.58208-.18521 1.00542-.4101.43656-.2249.75406-.41011.33073-.1852.635-.1852.19844 0 .34396.0794.14552.0794.25135.2249l.9525 1.19062q-.5424.635-1.21708 1.07156-.67469.42333-1.41552.68792-.72761.25135-1.4949.35718-.75406.10584-1.46843.10584-1.41552 0-2.6326-.46302-1.21708-.47625-2.11667-1.38906-.89958-.92604-1.41552-2.27542-.51593-1.3626-.51593-3.14853 0-1.38907.44979-2.60615.44979-1.23031 1.28323-2.12989.84666-.91281 2.05051-1.44198 1.21709-.52916 2.73844-.52916zm.0661 2.34156q-1.42874 0-2.23572.80697-.80698.80698-1.03188 2.28865h6.13833q0-.635-.17198-1.19063-.17198-.56885-.52917-.99218-.35718-.42334-.89958-.66146-.54239-.25135-1.27-.25135z" style="font-weight:700;font-size:26.4583px;line-height:1.25;font-family:Lato;-inkscape-font-specification:'Lato Bold';text-align:center;letter-spacing:.264583px;text-anchor:middle;fill:#fcfbfb;stroke-width:.264583" transform="translate(349.899465 -351.9493615)"/></g></g></svg>