<svg width="1843.2783" height="315.57828" viewBox="0 0 487.70061 83.496734" xmlns="http://www.w3.org/2000/svg"><defs><path id="c" d="M1600.6648 5530.2114h158.57976v94.550331H1600.6648z"/><path id="b" d="M157-13h55v40h-55z"/><filter style="color-interpolation-filters:sRGB" id="a" x="-.05642297" y="-.03515585" width="1.1128459" height="1.0703117"><feGaussianBlur stdDeviation="1.1384116"/></filter></defs><text xml:space="preserve" transform="matrix(.26458 0 0 .26458 306.67804 -1993.3533)" style="font-size:36px;line-height:1.25;font-family:Lato;-inkscape-font-specification:Lato;text-align:center;letter-spacing:0;white-space:pre;shape-inside:url(#b)"><tspan x="157" y="60.48"><tspan dx="0 20.882812 20.039062 14.484375 18.84375">Ehret</tspan></tspan></text><g style="display:inline"><g style="display:inline"><path style="display:inline;fill:#fff;fill-opacity:1;stroke:none;stroke-width:2;stroke-miterlimit:4;stroke-dasharray:none;stroke-opacity:1;stop-color:#000" d="M928.86914-425.63086c-146.89103 0-265.96871 70.99858-265.96875 158.58008 0 87.58188 119.07772 158.58203 265.96875 158.58203 146.89106 0 265.97066-71.00015 265.97066-158.58203 0-87.5815-119.0796-158.58008-265.97066-158.58008zm99.64256 60.57813c90.7787 0 164.3692 43.87646 164.3692 98.00195 0 54.12549-73.5905 98.0039-164.3692 98.0039-90.77862.00001-164.36912-43.87841-164.36912-98.0039.00004-54.12549 73.5905-98.00195 164.36912-98.00195z" transform="translate(-174.516487 112.05243) scale(.26326)"/><path style="display:inline;fill:#fff;fill-opacity:1;stroke:none;stroke-width:2;stroke-miterlimit:4;stroke-dasharray:none;stroke-opacity:1;stop-color:#000" d="M1089.3418-327.61523c-56.1012 0-101.58004 27.11487-101.58008 60.56445 0 33.44958 45.47888 60.56641 101.58008 60.5664 56.1012 0 101.5801-27.11682 101.5801-60.5664s-45.4789-60.56445-101.5801-60.56445zm35.8047 23.13476c34.6705 0 62.7754 16.75794 62.7754 37.42969 0 20.67213-28.1049 37.42969-62.7754 37.42969-34.6706 0-62.7774-16.75756-62.7774-37.42969.0001-20.67175 28.1068-37.42969 62.7774-37.42969z" transform="translate(-174.516487 112.05243) scale(.26326)"/><path style="display:inline;fill:#fff;fill-opacity:1;stroke:none;stroke-width:.529;stroke-miterlimit:4;stroke-dasharray:none;stroke-opacity:1;stop-color:#000" d="M313.51078-70.6571c0-3.3801-4.59568-6.1201-10.26474-6.1201-5.66907 0-10.26475 2.74-10.26477 6.1201 0 3.3802 4.59569 6.1203 10.26477 6.1203 5.66906 0 10.26474-2.7401 10.26474-6.1203z" transform="matrix(.995 0 0 .995 -174.516487 112.05243)"/></g><path d="M-74.3492 1950.1079v2.4914h-7.462298v4.6683h5.879033v2.4098h-5.879033v4.7614h7.462298v2.503h-10.617185v-16.8339zM-57.43934 1966.9418h-3.154887v-7.3576h-7.893039v7.3576h-3.154887v-16.8339h3.154887v7.2412h7.893039v-7.2412h3.154887zM-50.806873 1960.3642v6.5776h-3.131603v-16.8339h5.133967q1.722965 0 2.945338.3609 1.234015.3493 2.014005.9896.791633.6403 1.152524 1.5367.372532.8847.372532 1.9558 0 .8498-.256116 1.6065-.244474.7567-.721782 1.3737-.465666.617-1.164165 1.0827-.686858.4657-1.571623.7451.593724.3376 1.024465.9662l4.214278 6.2167h-2.81728q-.407457 0-.698499-.163-.279399-.163-.477307-.4657l-3.539062-5.3901q-.197908-.3026-.442383-.4307-.232833-.1281-.698499-.1281zm0-2.2468h1.955798q.884765 0 1.536698-.2212.663574-.2212 1.082673-.6054.430741-.3958.640291-.9313.209549-.5355.209549-1.1758 0-1.2806-.84984-1.9674-.838199-.6869-2.572805-.6869h-2.002364zM-28.191874 1950.1079v2.4914h-7.462298v4.6683h5.879033v2.4098h-5.879033v4.7614h7.462298v2.503h-10.617185v-16.8339zM-13.621988 1950.1079v2.5729h-5.064117v14.261h-3.131604v-14.261h-5.087402v-2.5729zM3.5043384 1950.1079v2.4914h-7.4622978v4.6683h5.8790333v2.4098h-5.8790333v4.7614h7.4622978v2.503h-10.617185v-16.8339zM7.8528524 1950.1079q.2095497 0 .3492495.023.1396998.012.2444747.07.1164165.046.2211914.1513.1047748.093.232833.2561l8.836012 11.2575q-.04657-.4074-.06985-.7916-.01164-.3958-.01164-.7334v-10.2331h2.759071v16.8339h-1.618189q-.372533 0-.617008-.1164-.244474-.1165-.477307-.4191l-8.801088-11.211q.034925.3726.046567.7451.023283.3609.023283.6636v10.3378H6.2113798v-16.8339h1.6414726zM31.540343 1964.6367q1.05939 0 1.839381-.1862.791632-.1979 1.501773-.5356v-3.0617h-2.107139q-.302683 0-.477308-.163-.174625-.1746-.174625-.4191v-1.7695h5.599634v6.8103q-.640291.4657-1.33879.815-.686857.3376-1.478489.5588-.779991.2211-1.676398.3259-.896407.1164-1.932514.1164-1.83938 0-3.38772-.6403-1.548339-.6402-2.677579-1.7811-1.129241-1.1409-1.769531-2.7242-.628649-1.5832-.628649-3.4575 0-1.8976.617007-3.4809.617008-1.5833 1.746248-2.7241 1.140881-1.1409 2.759071-1.7696 1.618189-.6286 3.632195-.6286 2.060572 0 3.562345.617 1.513414.6054 2.561163 1.5833l-.908049 1.4202q-.267758.4308-.710141.4308-.279399 0-.570441-.1863-.372532-.2212-.768349-.4424-.384174-.2212-.861482-.3841-.465666-.163-1.05939-.2678-.582082-.1048-1.350431-.1048-1.245657 0-2.25848.4191-1.001182.4191-1.711323 1.1991-.710141.78-1.094315 1.8743-.384175 1.0943-.384175 2.4448 0 1.4552.407458 2.596.407458 1.1293 1.140882 1.9093t1.746247 1.1991q1.012824.4074 2.211914.4074zM44.163528 1966.9418h-3.143245v-16.8339h3.143245zM49.599084 1950.1079q.209549 0 .349249.023.1397.012.244475.07.116416.046.221191.1513.104775.093.232833.2561l8.836013 11.2575q-.04657-.4074-.06985-.7916-.01164-.3958-.01164-.7334v-10.2331h2.759071v16.8339h-1.618189q-.372533 0-.617008-.1164-.244474-.1165-.477307-.4191l-8.801088-11.211q.03492.3726.04657.7451.02328.3609.02328.6636v10.3378h-2.759071v-16.8339h1.641473zM76.173703 1950.1079v2.4914h-7.462297v4.6683h5.879033v2.4098h-5.879033v4.7614h7.462297v2.503H65.556518v-16.8339zM89.497937 1950.1079v2.4914H82.03564v4.6683h5.879033v2.4098H82.03564v4.7614h7.462297v2.503H78.880752v-16.8339zM95.441365 1960.3642v6.5776h-3.131604v-16.8339h5.133968q1.722964 0 2.945341.3609 1.23401.3493 2.014.9896.79163.6403 1.15253 1.5367.37253.8847.37253 1.9558 0 .8498-.25612 1.6065-.24447.7567-.72178 1.3737-.46567.617-1.16417 1.0827-.68685.4657-1.57162.7451.59373.3376 1.02447.9662l4.21427 6.2167h-2.81728q-.40745 0-.69849-.163-.2794-.163-.47731-.4657l-3.539063-5.3901q-.197908-.3026-.442383-.4307-.232833-.1281-.698499-.1281zm0-2.2468h1.955797q.884766 0 1.536698-.2212.663574-.2212 1.08267-.6054.43074-.3958.64029-.9313.20955-.5355.20955-1.1758 0-1.2806-.84984-1.9674-.838195-.6869-2.572801-.6869h-2.002364zM110.9666 1966.9418h-3.14325v-16.8339h3.14325zM116.40215 1950.1079q.20955 0 .34925.023.1397.012.24448.07.11641.046.22119.1513.10477.093.23283.2561l8.83601 11.2575q-.0466-.4074-.0699-.7916-.0116-.3958-.0116-.7334v-10.2331h2.75907v16.8339h-1.61819q-.37253 0-.617-.1164-.24448-.1165-.47731-.4191l-8.80109-11.211q.0349.3726.0466.7451.0233.3609.0233.6636v10.3378h-2.75907v-16.8339h1.64147zM140.08963 1964.6367q1.05939 0 1.83938-.1862.79163-.1979 1.50177-.5356v-3.0617h-2.10714q-.30268 0-.4773-.163-.17463-.1746-.17463-.4191v-1.7695h5.59964v6.8103q-.6403.4657-1.33879.815-.68686.3376-1.47849.5588-.77999.2211-1.6764.3259-.89641.1164-1.93252.1164-1.83938 0-3.38772-.6403-1.54834-.6402-2.67758-1.7811-1.12924-1.1409-1.76953-2.7242-.62865-1.5832-.62865-3.4575 0-1.8976.61701-3.4809.61701-1.5833 1.74625-2.7241 1.14088-1.1409 2.75907-1.7696 1.61819-.6286 3.6322-.6286 2.06057 0 3.56234.617 1.51341.6054 2.56116 1.5833l-.90805 1.4202q-.26775.4308-.71014.4308-.2794 0-.57044-.1863-.37253-.2212-.76835-.4424-.38417-.2212-.86148-.3841-.46566-.163-1.05939-.2678-.58208-.1048-1.35043-.1048-1.24566 0-2.25848.4191-1.00118.4191-1.71132 1.1991t-1.09432 1.8743q-.38417 1.0943-.38417 2.4448 0 1.4552.40746 2.596.40745 1.1293 1.14088 1.9093.73342.78 1.74625 1.1991 1.01282.4074 2.21191.4074z" style="font-weight:700;font-size:23.2833px;line-height:1.25;font-family:Lato;-inkscape-font-specification:'Lato Bold';text-align:center;letter-spacing:0;text-anchor:middle;fill:#fcfbfb;stroke-width:.264583" transform="matrix(1.03435 0 0 1.03435 293.3977551 -1998.6993315)"/><g><path d="M-381.26498 227.87076q-.18019.36036-.42591.50782-.22933.14746-.55695.14746-.32762 0-.73714-.24568-.40953-.26214-.96648-.57339-.55695-.31125-1.31048-.55693-.73714-.26214-1.75276-.26214-.91734 0-1.60534.22935-.67162.21304-1.14667.60618-.45866.39315-.688.95008-.22933.54046-.22933 1.19575 0 .8354.45867 1.39233.47505.55707 1.24495.95021.76991.39315 1.75277.7044.98285.31111 1.99847.67161 1.03201.34389 2.01486.81893.98286.45871 1.75277 1.17943.7699.70439 1.22857 1.7365.47505 1.03197.47505 2.50619 0 1.60536-.55695 3.01415-.54058 1.39232-1.60534 2.44076-1.04838 1.03196-2.57181 1.63814-1.52343.58972-3.48915.58972-1.13029 0-2.22781-.22936-1.09753-.21304-2.11315-.6225-.99924-.40947-1.88381-.98286-.86819-.57339-1.55619-1.27765l1.27772-2.11318q.18019-.22936.4259-.37682.2621-.16379.57334-.16379.40952 0 .88457.34404.47505.32757 1.1139.73718.65524.40946 1.52343.7535.88458.32757 2.11315.32757 1.88381 0 2.91581-.8845 1.032-.90097 1.032-2.5719 0-.93375-.47505-1.52347-.45866-.58971-1.22857-.98286-.7699-.40946-1.75276-.68793-.98286-.27846-1.99848-.60604-1.01562-.32771-1.99848-.78628-.98286-.45872-1.75276-1.1959-.76991-.73718-1.24496-1.83472-.45866-1.11386-.45866-2.73554 0-1.29411.50781-2.52265.52419-1.22854 1.50705-2.17875.99924-.95008 2.44076-1.52333 1.44153-.5734 3.29258-.5734 2.09676 0 3.8659.65529 1.76915.65515 3.0141 1.83458zM-353.64308 235.40606q0 2.60454-.86819 4.83241-.86819 2.21139-2.44077 3.83308-1.57257 1.62168-3.784 2.53911-2.21143.90097-4.89791.90097-2.68648 0-4.91429-.90097-2.21143-.91743-3.80039-2.53911-1.57257-1.62169-2.44076-3.83308-.86819-2.22787-.86819-4.83241 0-2.60454.86819-4.81608.86819-2.22772 2.44076-3.84941 1.58896-1.62182 3.80039-2.52279 2.22781-.91729 4.91429-.91729 2.68648 0 4.89791.91729 2.21143.91743 3.784 2.53912 1.57258 1.60536 2.44077 3.83308.86819 2.21154.86819 4.81608zm-4.52115 0q0-1.9494-.52419-3.48919-.50781-1.55611-1.47429-2.63732-.96647-1.08108-2.35886-1.65447-1.376-.5734-3.11238-.5734t-3.12877.5734q-1.39238.57339-2.37524 1.65447-.96647 1.08121-1.49067 2.63732-.52419 1.53979-.52419 3.48919 0 1.94926.52419 3.50551.5242 1.53979 1.49067 2.62101.98286 1.06475 2.37524 1.638 1.39239.5734 3.12877.5734 1.73638 0 3.11238-.5734 1.39239-.57325 2.35886-1.638.96648-1.08122 1.47429-2.62101.52419-1.55625.52419-3.50551zM-335.25288 223.56264v3.50551h-10.5002v7.01102h8.8621v3.52197h-8.8621v9.64834h-4.43925v-23.68684zM-315.13551 223.56264v3.62019h-7.12572v20.06665h-4.40648v-20.06665h-7.15849v-3.62019zM-314.50638 223.56264h3.7021q.57333 0 .95009.27846.39315.262.5242.72072l4.02972 14.1695q.14742.52429.26209 1.14679.13104.60604.24572 1.29397.13104-.68793.27847-1.29397.16381-.6225.344-1.14679l4.6522-14.1695q.13104-.37668.50781-.68793.39314-.31125.9501-.31125h1.29409q.57334 0 .9501.27846.37676.262.52419.72072l4.61943 14.1695q.36038 1.04843.62248 2.32622.11466-.63897.22933-1.22868.13105-.58972.2621-1.09754l4.02972-14.1695q.11466-.40947.50781-.70439.39314-.29479.95009-.29479h3.45639l-7.35506 23.68684h-3.98057l-5.17639-16.18446q-.0983-.31111-.21295-.67161-.0983-.36036-.19658-.76983-.0983.40947-.21295.76983-.0983.3605-.19657.67161l-5.22553 16.18446h-3.98057zM-259.11311 247.24948h-3.40724q-.57334 0-.9501-.27846-.36038-.29493-.52419-.72072l-1.76914-4.8324h-9.81221l-1.76914 4.8324q-.13105.37668-.52419.68793-.37676.31125-.93372.31125h-3.42362l9.30439-23.68684h4.50477zm-15.33259-8.94395h7.55163l-2.88305-7.87934q-.19657-.52414-.44229-1.22854-.22933-.72071-.45867-1.55625-.22933.83554-.45866 1.55625-.21296.72072-.42591 1.26133zM-252.08772 237.99428v9.2552h-4.40648v-23.68684h7.224q2.42439 0 4.14439.50782 1.73638.49136 2.83391 1.39233 1.1139.90096 1.62171 2.16229.52419 1.245.52419 2.752 0 1.19576-.36038 2.26051-.344 1.06489-1.01562 1.93308-.65523.86818-1.63809 1.52332-.96648.65529-2.21143 1.04843.83543.47504 1.44152 1.35968l5.92991 8.74738h-3.96419q-.57334 0-.98286-.22935-.39314-.22936-.67162-.65529l-4.97982-7.58427q-.27847-.42593-.62247-.60618-.32762-.18011-.98286-.18011zm0-3.16161h2.752q1.24495 0 2.16229-.31125.93371-.31125 1.52343-.85172.6061-.55693.90095-1.31057.29486-.75351.29486-1.65447 0-1.80194-1.19581-2.76833-1.17943-.96654-3.6202-.96654h-2.81752zM-220.26615 223.56264v3.50551h-10.5002v6.56876h8.27239v3.39083h-8.27239v6.69977h10.5002v3.52197h-14.93945v-23.68684zM-197.42698 227.87076q-.18019.36036-.4259.50782-.22934.14746-.55696.14746t-.73714-.24568q-.40953-.26214-.96648-.57339-.55695-.31125-1.31048-.55693-.73714-.26214-1.75276-.26214-.91733 0-1.60533.22935-.67162.21304-1.14667.60618-.45867.39315-.688.95008-.22934.54046-.22934 1.19575 0 .8354.45867 1.39233.47505.55707 1.24495.95021.76991.39315 1.75277.7044.98286.31111 1.99848.67161 1.032.34389 2.01486.81893.98285.45871 1.75276 1.17943.76991.70439 1.22857 1.7365.47505 1.03197.47505 2.50619 0 1.60536-.55695 3.01415-.54057 1.39232-1.60534 2.44076-1.04838 1.03196-2.57181 1.63814-1.52343.58972-3.48915.58972-1.13028 0-2.22781-.22936-1.09752-.21304-2.11314-.6225-.99924-.40947-1.88382-.98286-.86819-.57339-1.55619-1.27765l1.27772-2.11318q.18019-.22936.4259-.37682.2621-.16379.57334-.16379.40952 0 .88457.34404.47505.32757 1.11391.73718.65523.40946 1.52343.7535.88457.32757 2.11314.32757 1.88381 0 2.91581-.8845 1.032-.90097 1.032-2.5719 0-.93375-.47504-1.52347-.45867-.58971-1.22858-.98286-.7699-.40946-1.75276-.68793-.98286-.27846-1.99848-.60604-1.01562-.32771-1.99848-.78628-.98286-.45872-1.75276-1.1959-.76991-.73718-1.24495-1.83472-.45867-1.11386-.45867-2.73554 0-1.29411.50781-2.52265.52419-1.22854 1.50705-2.17875.99924-.95008 2.44076-1.52333 1.44153-.5734 3.29258-.5734 2.09676 0 3.86591.65529 1.76914.65515 3.0141 1.83458zM-181.99253 238.04339v9.20609h-4.40648v-9.20609l-8.63277-14.48075h3.88229q.57334 0 .90096.27846.344.27847.57333.7044l4.34096 7.91198q.37676.7044.65524 1.34322.27847.6225.50781 1.22854.21295-.6225.47504-1.24486.27848-.63897.65524-1.3269l4.3082-7.91198q.18019-.36036.54057-.67161.36038-.31125.91734-.31125h3.89867zM-158.3942 227.87076q-.18019.36036-.4259.50782-.22934.14746-.55696.14746t-.73714-.24568q-.40952-.26214-.96648-.57339-.55695-.31125-1.31048-.55693-.73714-.26214-1.75276-.26214-.91733 0-1.60533.22935-.67163.21304-1.14667.60618-.45867.39315-.688.95008-.22934.54046-.22934 1.19575 0 .8354.45867 1.39233.47505.55707 1.24495.95021.76991.39315 1.75277.7044.98286.31111 1.99848.67161 1.032.34389 2.01486.81893.98285.45871 1.75276 1.17943.76991.70439 1.22857 1.7365.47505 1.03197.47505 2.50619 0 1.60536-.55695 3.01415-.54058 1.39232-1.60534 2.44076-1.04838 1.03196-2.57181 1.63814-1.52343.58972-3.48915.58972-1.13028 0-2.22781-.22936-1.09752-.21304-2.11314-.6225-.99924-.40947-1.88382-.98286-.86819-.57339-1.55619-1.27765l1.27772-2.11318q.18019-.22936.4259-.37682.2621-.16379.57334-.16379.40952 0 .88457.34404.47505.32757 1.1139.73718.65524.40946 1.52344.7535.88457.32757 2.11314.32757 1.88381 0 2.91581-.8845 1.032-.90097 1.032-2.5719 0-.93375-.47504-1.52347-.45867-.58971-1.22858-.98286-.7699-.40946-1.75276-.68793-.98286-.27846-1.99848-.60604-1.01562-.32771-1.99848-.78628-.98285-.45872-1.75276-1.1959-.76991-.73718-1.24495-1.83472-.45867-1.11386-.45867-2.73554 0-1.29411.50781-2.52265.52419-1.22854 1.50705-2.17875.99924-.95008 2.44076-1.52333 1.44153-.5734 3.29258-.5734 2.09676 0 3.86591.65529 1.76914.65515 3.0141 1.83458zM-136.8005 223.56264v3.62019h-7.12572v20.06665h-4.40648v-20.06665h-7.15849v-3.62019zM-119.03687 223.56264v3.50551h-10.5002v6.56876h8.27238v3.39083h-8.27238v6.69977h10.5002v3.52197h-14.93945v-23.68684zM-103.3352 237.42089q.27848.52414.50781 1.09754.24572.55693.47505 1.13032.22933-.58972.47505-1.16311.24571-.57325.52418-1.09754l7.011065-13.12107q.131001-.24582.262087-.39314.147436-.14747.31125-.21304.18018-.0647.393144-.0816.212951-.0169.507809-.0169h3.32533v23.68684h-3.882289v-15.29982q0-.42593.01632-.93375.03278-.50783.08189-1.03197l-7.158486 13.43246q-.24572.45857-.63885.72072-.39315.24568-.91735.24568h-.60609q-.52419 0-.91733-.24568-.39315-.26215-.63885-.72072l-7.25679-13.48157q.0656.54047.0819 1.06475.0328.50783.0328.95008v15.29982h-3.8823v-23.68684h3.32534q.29486 0 .50781.0169.21295.0169.37677.0816.18019.0661.32761.21304.14744.14732.27848.39314l7.07658 13.15386zM-72.07416 227.87076q-.180194.36036-.425901.50782-.229344.14746-.556959.14746t-.737152-.24568q-.409522-.26214-.966467-.57339-.556958-.31125-1.310474-.55693-.737152-.26214-1.752769-.26214-.917331 0-1.605333.22935-.671623.21304-1.146674.60618-.458658.39315-.688002.95008-.229329.54046-.229329 1.19575 0 .8354.458673 1.39233.475037.55707 1.244946.95021.769909.39315 1.752768.7044.98286.31111 1.998477.67161 1.031996.34389 2.014855.81893.98286.45871 1.752769 1.17943.769909.70439 1.228567 1.7365.475051 1.03197.475051 2.50619 0 1.60536-.556958 3.01415-.540566 1.39232-1.605333 2.44076-1.048374 1.03196-2.571813 1.63814-1.523426.58972-3.489145.58972-1.130282 0-2.227806-.22936-1.097524-.21304-2.113155-.6225-.999238-.40947-1.883812-.98286-.868181-.57339-1.556183-1.27765l1.277718-2.11318q.180179-.22936.425901-.37682.262101-.16379.573337-.16379.409523 0 .884574.34404.475037.32757 1.113903.73718.65523.40946 1.523425.7535.884574.32757 2.113141.32757 1.883812 0 2.915822-.8845 1.031995-.90097 1.031995-2.5719 0-.93375-.475051-1.52347-.458658-.58971-1.228567-.98286-.769909-.40946-1.752769-.68793-.982846-.27846-1.998477-.60604-1.015616-.32771-1.998476-.78628-.98286-.45872-1.752769-1.1959-.769895-.73718-1.244946-1.83472-.458672-1.11386-.458672-2.73554 0-1.29411.507808-2.52265.524201-1.22854 1.507061-2.17875.999238-.95008 2.440756-1.52333 1.441532-.5734 3.292573-.5734 2.096762 0 3.86591.65529 1.769147.65515 3.014107 1.83458z" style="font-weight:700;font-size:23.2833px;line-height:1.25;font-family:Lato;-inkscape-font-specification:'Lato Bold';text-align:center;letter-spacing:0;baseline-shift:baseline;text-anchor:middle;vector-effect:none;fill:#fcfbfb;stroke-width:.372295;stop-color:#000" transform="translate(558.2677191 -175.8633815)"/></g></g></svg>