<svg width="976.94128" height="232.26259" viewBox="0 0 258.48231 61.45279" xmlns="http://www.w3.org/2000/svg"><defs><path id="c" d="M1600.6648 5530.2114h158.57976v94.550331H1600.6648z"/><path id="b" d="M157-13h55v40h-55z"/><filter style="color-interpolation-filters:sRGB" id="a" x="-.05642297" y="-.03515585" width="1.1128459" height="1.0703117"><feGaussianBlur stdDeviation="1.1384116"/></filter></defs><text xml:space="preserve" transform="matrix(.26458 0 0 .26458 -32.439744 -2112.3777)" style="font-size:36px;line-height:1.25;font-family:Lato;-inkscape-font-specification:Lato;text-align:center;letter-spacing:0;white-space:pre;shape-inside:url(#b)"><tspan x="157" y="60.48"><tspan dx="0 20.882812 20.039062 14.484375 18.84375">Ehret</tspan></tspan></text><g style="display:inline"><path style="display:inline;vector-effect:none;fill:#000;fill-opacity:.35;stroke-width:.394751;stroke-opacity:.968165;stop-color:#000" d="M302.72453 120.05449h258.4823v61.45279h-258.4823z" transform="translate(-302.72453 -120.05449)"/></g><g style="display:inline"><g style="display:inline"><path style="display:inline;fill:#fff;fill-opacity:1;stroke:none;stroke-width:.731013;stroke-miterlimit:4;stroke-dasharray:none;stroke-opacity:1;stop-color:#000" d="M-271.07296 186.16718c-53.68966 0-97.21334 25.95045-97.21335 57.96207 0 32.01177 43.52369 57.9628 97.21335 57.9628 53.68965 0 97.21404-25.95103 97.21404-57.9628 0-32.01162-43.52439-57.96207-97.21404-57.96207zm36.42001 22.14171c33.18021 0 60.07803 16.03714 60.07803 35.82036 0 19.78323-26.89782 35.82108-60.07803 35.82108-33.18018 0-60.07801-16.03785-60.07801-35.82108.00001-19.78322 26.89783-35.82036 60.07801-35.82036z" transform="matrix(.47004 0 0 .47004 178.105467 -84.02494)"/><path style="display:inline;fill:#fff;fill-opacity:1;stroke:none;stroke-width:.731013;stroke-miterlimit:4;stroke-dasharray:none;stroke-opacity:1;stop-color:#000" d="M-212.41915 221.99255c-20.50536 0-37.12817 9.91066-37.12818 22.1367 0 12.22605 16.62282 22.13743 37.12818 22.13743 20.50537 0 37.1282-9.91138 37.1282-22.13743 0-12.22604-16.62283-22.1367-37.1282-22.1367zm13.08686 8.45591c12.67229 0 22.94483 6.12514 22.94483 13.68079 0 7.55581-10.27254 13.68081-22.94483 13.68081-12.67233 0-22.94556-6.125-22.94556-13.68081.00004-7.55565 10.27323-13.68079 22.94556-13.68079z" transform="matrix(.47004 0 0 .47004 178.105467 -84.02494)"/><path style="display:inline;fill:#fff;fill-opacity:1;stroke:none;stroke-width:.730783;stroke-miterlimit:4;stroke-dasharray:none;stroke-opacity:1;stop-color:#000" d="M-177.48361 244.12935c0-4.66942-6.34867-8.45456-14.18015-8.45456-7.8315 0-14.18018 3.78514-14.18021 8.45456 0 4.66955 6.3487 8.45485 14.18021 8.45485 7.83148 0 14.18015-3.7853 14.18015-8.45485z" transform="matrix(.47004 0 0 .47004 178.105467 -84.02494)"/></g><g aria-label="EHRET" style="font-size:12.7px;line-height:1.25;font-family:Lato;-inkscape-font-specification:'Lato, Normal';text-align:center;letter-spacing:0;text-anchor:middle;stroke-width:.264583"><path d="M-134.62131 337.53876v1.3589h-4.07035v2.54635h3.20675v1.31445h-3.20675v2.59715h4.07035v1.36525h-5.7912v-9.1821zM-125.39774 346.72086h-1.72085v-4.0132h-4.3053v4.0132h-1.72085v-9.1821h1.72085v3.9497h4.3053v-3.9497h1.72085zM-121.78003 343.13311v3.58775h-1.70815v-9.1821h2.80035q.9398 0 1.60655.19685.6731.1905 1.09855.53975.4318.34925.62865.8382.2032.4826.2032 1.0668 0 .46355-.1397.8763-.13335.41275-.3937.7493-.254.33655-.635.59055-.37465.254-.85725.4064.32385.18415.5588.52705l2.2987 3.3909h-1.5367q-.22225 0-.381-.0889-.1524-.0889-.26035-.254l-1.9304-2.94005q-.10795-.1651-.2413-.23495-.127-.0699-.381-.0699zm0-1.22555h1.0668q.4826 0 .8382-.12065.36195-.12065.59055-.3302.23495-.2159.34925-.508.1143-.2921.1143-.64135 0-.6985-.46355-1.07315-.4572-.37465-1.40335-.37465h-1.0922zM-109.44456 337.53876v1.3589h-4.07035v2.54635h3.20675v1.31445h-3.20675v2.59715h4.07035v1.36525h-5.7912v-9.1821zM-101.49733 337.53876v1.40335h-2.76225v7.77875h-1.70815v-7.77875h-2.77495v-1.40335z" style="font-weight:700;-inkscape-font-specification:'Lato, Bold';fill:#fff" transform="translate(249.37674891 -329.3892107)"/></g><g aria-label="INGENIEURBÜRO FÜR" style="font-size:8.02904px;line-height:1.25;font-family:Lato;-inkscape-font-specification:'Lato, Normal';text-align:center;letter-spacing:0;text-anchor:middle;stroke-width:.223028"><path d="M-138.96729 365.45538h-1.44523v-7.74h1.44523zM-136.46808 357.71538q.0963 0 .16058.0107.0642.005.11241.0321.0535.0214.1017.0696.0482.0428.10706.11775l4.0627 5.17607q-.0214-.18735-.0321-.36399-.005-.18199-.005-.33722v-4.70502h1.26859v7.74h-.74403q-.17129 0-.28369-.0535-.11241-.0535-.21946-.1927l-4.04664-5.15465q.0161.17129.0214.34257.0107.16594.0107.30511v4.75319h-1.26859v-7.74h.75473zM-125.57684 364.39555q.4871 0 .84573-.0856.36398-.091.6905-.24623v-1.40776h-.96884q-.13917 0-.21946-.0749-.0803-.0803-.0803-.19269v-.81361h2.57465v3.13133q-.2944.2141-.61556.37468-.31581.15523-.6798.25693-.35863.10171-.77079.14988-.41215.0535-.88854.0535-.84573 0-1.55764-.2944-.71191-.2944-1.23112-.81897-.51921-.52456-.81361-1.25253-.28905-.72796-.28905-1.58975 0-.87249.2837-1.60046.28369-.72796.8029-1.25253.52456-.52456 1.26859-.81361.74403-.28904 1.67004-.28904.94743 0 1.63793.28369.69585.27834 1.17759.72797l-.41751.65303q-.12311.19805-.32651.19805-.12847 0-.26228-.0856-.17129-.1017-.35328-.2034-.17664-.1017-.3961-.17664-.21411-.0749-.4871-.12311-.26763-.0482-.62091-.0482-.57274 0-1.03843.1927-.46033.1927-.78684.55133-.32652.35863-.50316.86178-.17664.50316-.17664 1.12407 0 .66909.18735 1.19365.18734.51922.52456.87785t.80291.55132q.46568.18735 1.01701.18735zM-116.51304 357.71538v1.14548h-3.43108v2.14643h2.70311v1.10801h-2.70311v2.18925h3.43108v1.15083h-4.88167v-7.74zM-114.51364 357.71538q.0964 0 .16058.0107.0642.005.11241.0321.0535.0214.1017.0696.0482.0428.10705.11775l4.0627 5.17607q-.0214-.18735-.0321-.36399-.005-.18199-.005-.33722v-4.70502h1.26859v7.74h-.74402q-.17129 0-.2837-.0535-.1124-.0535-.21946-.1927l-4.04664-5.15465q.0161.17129.0214.34257.0107.16594.0107.30511v4.75319h-1.26859v-7.74h.75473zM-105.55473 365.45538h-1.44523v-7.74h1.44523zM-98.928588 357.71538v1.14548h-3.431082v2.14643h2.703115v1.10801h-2.703115v2.18925h3.431082v1.15083h-4.881662v-7.74zM-94.568647 364.29385q.41751 0 .744025-.13917.331867-.13917.556681-.39075.230166-.25158.347925-.61021.123112-.35863.123112-.8029v-4.63544h1.439877v4.63544q0 .6905-.224814 1.27929-.21946.58345-.636971 1.01166-.417511.42287-1.01166.66374-.59415.23552-1.338175.23552-.744026 0-1.338175-.23552-.59415-.24087-1.011661-.66374-.412158-.42821-.636971-1.01166-.219461-.58879-.219461-1.27929v-4.63544h1.439877v4.63008q0 .44428.117759.80291.123112.35863.347925.61556.224814.25158.551329.39075.331867.13917.749378.13917zM-88.396815 362.43111v3.02427h-1.439876v-7.74h2.36054q.7922 0 1.354233.16593.567387.16058.926018.45498.363983.2944.529917.70656.171286.4068.171286.89925 0 .39075-.117759.73867-.112407.34793-.331867.63162-.214108.2837-.53527.4978-.31581.21411-.722615.34258.272988.15523.471038.44427l1.937677 2.85834h-1.295353q-.187345 0-.321162-.0749-.128465-.0749-.219461-.21411l-1.627221-2.4783q-.091-.13917-.203403-.19805-.107054-.0589-.321162-.0589zm0-1.03307h.899254q.406805 0 .706556-.1017.305104-.10171.497801-.27835.19805-.18199.294399-.42821.09635-.24623.09635-.54062 0-.5888-.390747-.90461-.385394-.31581-1.182947-.31581h-.920664zM-82.880357 365.45538v-7.74h2.670998q.760083 0 1.295353.14452.540623.14452.883196.41216.347925.26763.508506.64768.160581.38004.160581.85643 0 .27299-.08029.52456-.08029.24623-.251577.46569-.165934.21411-.428216.39075-.25693.17663-.615561.29975 1.595105.35863 1.595105 1.72357 0 .49244-.187345.90995-.187344.41752-.545975.72262-.358631.29975-.883196.47104-.524564.17128-1.199004.17128zm1.439877-3.39361v2.26955h1.461287q.401452 0 .669087-.0964.272988-.0963.433569-.25693.165934-.16058.235519-.37469.07494-.21411.07494-.45498 0-.25158-.08029-.44963-.08029-.2034-.251577-.34257-.171286-.14452-.438921-.21946-.267635-.0749-.647677-.0749zm0-.9956h1.15083q.73332 0 1.113362-.26764.380041-.26763.380041-.85108 0-.60485-.342572-.86178-.342573-.25693-1.07054-.25693h-1.231121zM-72.781485 364.29385q.417511 0 .744026-.13917.331867-.13917.556681-.39075.230166-.25158.347925-.61021.123112-.35863.123112-.8029v-4.63544h1.439876v4.63544q0 .6905-.224813 1.27929-.219461.58345-.636971 1.01166-.417511.42287-1.011661.66374-.594149.23552-1.338175.23552-.744025 0-1.338175-.23552-.594149-.24087-1.01166-.66374-.412158-.42821-.636971-1.01166-.219461-.58879-.219461-1.27929v-4.63544h1.439876v4.63008q0 .44428.11776.80291.123112.35863.347925.61556.224814.25158.551328.39075.331868.13917.749378.13917zm-.438921-7.76142q0 .14452-.05888.27299-.05888.12846-.160581.22481-.101701.0963-.235519.14988-.133817.0535-.283693.0535-.13917 0-.267635-.0535-.123112-.0535-.21946-.14988-.09635-.0964-.155229-.22481-.05353-.12847-.05353-.27299t.05353-.27299q.05888-.13381.155229-.23016.09635-.1017.21946-.16058.128465-.0589.267635-.0589.149876 0 .283693.0589.133818.0589.235519.16058.101702.0963.160581.23016.05888.12847.05888.27299zm2.312366 0q0 .14452-.05888.27299-.05353.12846-.149876.22481-.09635.0963-.230166.14988-.128465.0535-.27834.0535-.144523 0-.278341-.0535-.128465-.0535-.230166-.14988-.09635-.0964-.155228-.22481-.05353-.12847-.05353-.27299t.05353-.27299q.05888-.13381.155228-.23016.101701-.1017.230166-.16058.133818-.0589.278341-.0589.149875 0 .27834.0589.133818.0589.230166.16058.09635.0963.149876.23016.05888.12847.05888.27299zM-66.609656 362.43111v3.02427h-1.439876v-7.74h2.36054q.7922 0 1.354233.16593.567387.16058.926018.45498.363983.2944.529917.70656.171286.4068.171286.89925 0 .39075-.117759.73867-.112407.34793-.331867.63162-.214108.2837-.535271.4978-.315809.21411-.722614.34258.272988.15523.471038.44427l1.937677 2.85834h-1.295353q-.187345 0-.321162-.0749-.128465-.0749-.219461-.21411l-1.627221-2.4783q-.091-.13917-.203403-.19805-.107054-.0589-.321162-.0589zm0-1.03307h.899254q.406805 0 .706556-.1017.305104-.10171.497801-.27835.19805-.18199.294399-.42821.09635-.24623.09635-.54062 0-.5888-.390747-.90461-.385394-.31581-1.182947-.31581h-.920664zM-53.919903 361.58538q0 .85108-.283693 1.57905-.283693.72261-.797552 1.25253-.51386.52992-1.236474.82967-.722615.2944-1.600457.2944-.877843 0-1.605811-.2944-.722614-.29975-1.241826-.82967-.513859-.52992-.797552-1.25253-.283693-.72797-.283693-1.57905 0-.85108.283693-1.57369.283693-.72797.797552-1.25789.519212-.52991 1.241826-.82431.727968-.29975 1.605811-.29975.877842 0 1.600457.29975.722614.29975 1.236474.82967.513859.52456.797552 1.25253.283693.72261.283693 1.57369zm-1.477345 0q0-.63697-.171287-1.14012-.165933-.50851-.481743-.86179-.315809-.35328-.770788-.54062-.449627-.18735-1.017013-.18735-.567387 0-1.022366.18735-.45498.18734-.776142.54062-.315809.35328-.487095.86179-.171287.50315-.171287 1.14012t.171287 1.14548q.171286.50315.487095.85643.321162.34793.776142.53527.454979.18735 1.022366.18735.567386 0 1.017013-.18735.454979-.18734.770788-.53527.31581-.35328.481743-.85643.171287-.50851.171287-1.14548zM-45.840678 357.71538v1.14548h-3.431081v2.29095h2.895811v1.15083h-2.895811v3.15274h-1.450582v-7.74zM-41.606184 364.29385q.417511 0 .744025-.13917.331868-.13917.556681-.39075.230166-.25158.347926-.61021.123112-.35863.123112-.8029v-4.63544h1.439876v4.63544q0 .6905-.224813 1.27929-.219461.58345-.636972 1.01166-.41751.42287-1.01166.66374-.59415.23552-1.338175.23552-.744025 0-1.338175-.23552-.59415-.24087-1.01166-.66374-.412158-.42821-.636972-1.01166-.21946-.58879-.21946-1.27929v-4.63544h1.439876v4.63008q0 .44428.117759.80291.123112.35863.347926.61556.224813.25158.551328.39075.331867.13917.749378.13917zm-.438921-7.76142q0 .14452-.05888.27299-.05888.12846-.160581.22481-.101701.0963-.235519.14988-.133817.0535-.283693.0535-.13917 0-.267635-.0535-.123112-.0535-.219461-.14988-.09635-.0964-.155228-.22481-.05353-.12847-.05353-.27299t.05353-.27299q.05888-.13381.155228-.23016.09635-.1017.219461-.16058.128465-.0589.267635-.0589.149876 0 .283693.0589.133818.0589.235519.16058.101701.0963.160581.23016.05888.12847.05888.27299zm2.312366 0q0 .14452-.05888.27299-.05353.12846-.149875.22481-.09635.0963-.230166.14988-.128465.0535-.278341.0535-.144523 0-.27834-.0535-.128465-.0535-.230166-.14988-.09635-.0964-.155229-.22481-.05353-.12847-.05353-.27299t.05353-.27299q.05888-.13381.155229-.23016.101701-.1017.230166-.16058.133817-.0589.27834-.0589.149876 0 .278341.0589.133817.0589.230166.16058.09635.0963.149875.23016.05888.12847.05888.27299zM-35.434356 362.43111v3.02427h-1.439876v-7.74h2.360541q.7922 0 1.354233.16593.567386.16058.926017.45498.363984.2944.529918.70656.171286.4068.171286.89925 0 .39075-.117759.73867-.112407.34793-.331868.63162-.214108.2837-.53527.4978-.315809.21411-.722614.34258.272987.15523.471037.44427l1.937678 2.85834h-1.295354q-.187344 0-.321162-.0749-.128465-.0749-.219461-.21411l-1.62722-2.4783q-.091-.13917-.203403-.19805-.107054-.0589-.321162-.0589zm0-1.03307h.899254q.406805 0 .706557-.1017.305103-.10171.497801-.27835.19805-.18199.294398-.42821.09635-.24623.09635-.54062 0-.5888-.390747-.90461-.385395-.31581-1.182947-.31581h-.920665z" style="font-weight:700;font-size:10.7054px;-inkscape-font-specification:'Lato, Bold';baseline-shift:baseline;opacity:1;vector-effect:none;fill:#fff;stop-color:#000;stop-opacity:1" transform="translate(249.37675891 -329.9224072)"/></g><g aria-label="SOFTWARESYSTEME" style="font-size:14.8167px;line-height:1.25;font-family:Lato;-inkscape-font-specification:'Lato, Normal';text-align:center;letter-spacing:0;text-anchor:middle;stroke-width:.264583"><path d="M-133.85612 374.34301q-.0815.16298-.19262.22966-.10372.0667-.25188.0667-.14817 0-.33338-.11112-.18521-.11854-.43709-.2593-.25189-.14075-.59267-.25188-.33338-.11853-.79269-.11853-.41487 0-.72602.10371-.30375.0963-.51859.27411-.20743.1778-.31115.42969-.10372.24447-.10372.54081 0 .37782.20744.62971.21484.25188.56303.42968.3482.1778.7927.31856.4445.14076.90382.30374.46672.15558.91122.37042.4445.20743.7927.5334.34819.31856.55562.78529.21484.46672.21484 1.13347 0 .72602-.25188 1.36314-.24448.62971-.72602 1.10384-.47413.46673-1.16311.74084-.68898.2667-1.57798.2667-.51117 0-1.00753-.10372-.49636-.0963-.95568-.28151-.45191-.18521-.85196-.44451-.39264-.25929-.70379-.57785l.57785-.95567q.0815-.10372.19261-.1704.11854-.0741.2593-.0741.18521 0 .40005.15558.21484.14816.50377.33337.29633.18521.68897.34079.40005.14816.95568.14816.85196 0 1.31869-.40005.46672-.40746.46672-1.16311 0-.42228-.21484-.68898-.20743-.2667-.55563-.4445-.34819-.18521-.79269-.31115-.4445-.12594-.90382-.27411-.45932-.14816-.90382-.3556-.4445-.20743-.79269-.54081-.34819-.33337-.56304-.82973-.20743-.50377-.20743-1.2372 0-.58526.22966-1.14088.23707-.55563.68157-.98531.45191-.42969 1.10384-.68898.65194-.25929 1.48908-.25929.94827 0 1.74837.29633.8001.29634 1.36314.82974zM-121.36403 377.75085q0 1.17793-.39264 2.18546-.39264 1.00013-1.10384 1.73356-.7112.73342-1.71133 1.14829-1.00013.40746-2.2151.40746t-2.2225-.40746q-1.00013-.41487-1.71874-1.14829-.7112-.73343-1.10384-1.73356-.39265-1.00753-.39265-2.18546t.39265-2.17806q.39264-1.00753 1.10384-1.74096.71861-.73342 1.71874-1.14088 1.00753-.41487 2.2225-.41487t2.2151.41487q1.00013.41486 1.71133 1.14829.7112.72602 1.10384 1.73355.39264 1.00013.39264 2.17806zm-2.0447 0q0-.88159-.23707-1.57798-.22966-.70379-.66675-1.19274-.43709-.48895-1.0668-.74825-.6223-.25929-1.40759-.25929-.78528 0-1.41499.25929-.62971.2593-1.07421.74825-.4371.48895-.67416 1.19274-.23707.69639-.23707 1.57798t.23707 1.58539q.23706.69638.67416 1.18533.4445.48154 1.07421.74084.62971.25929 1.41499.25929.78529 0 1.40759-.25929.62971-.2593 1.0668-.74084.43709-.48895.66675-1.18533.23707-.7038.23707-1.58539zM-113.04699 372.39461V373.98h-4.74876v3.17077h4.00792v1.5928h-4.00792v4.36352h-2.00766v-10.71248zM-103.94885 372.39461v1.63725h-3.22263v9.07523h-1.99284v-9.07523h-3.23745v-1.63725zM-103.66432 372.39461h1.67429q.25929 0 .42968.12594.1778.11854.23707.32597l1.822454 6.40822q.06668.23707.118533.51859.05927.27411.111125.58526.05927-.31115.125942-.58526.07408-.28152.155576-.51859l2.103971-6.40822q.05927-.17039.229659-.31115.1778-.14076.429684-.14076h.58526q.259292 0 .429684.12594.170392.11854.237067.32597l2.089155 6.40822q.162984.47414.281517 1.05199.05186-.28893.103717-.55563.05927-.2667.118534-.49636l1.822454-6.40822q.05186-.18521.229659-.31856.1778-.13335.429684-.13335h1.563162l-3.326349 10.71248h-1.800229l-2.341039-7.31945q-.04445-.14076-.09631-.30375-.04445-.16298-.0889-.34819-.04445.18521-.09631.34819-.04445.16299-.0889.30375l-2.363264 7.31945h-1.800226zM-78.612521 383.10709h-1.540937q-.259292 0-.429684-.12595-.162984-.13335-.237067-.32596l-.800102-2.18547h-4.437602l-.800102 2.18547q-.05927.17039-.237067.31115-.170392.14076-.422276.14076h-1.548345l4.207943-10.71248h2.037296zm-6.934216-4.04496h3.41525l-1.30387-3.56342q-.0889-.23707-.200025-.55563-.103717-.32596-.207434-.70379-.103717.37783-.207434.70379-.09631.32597-.192617.57045zM-75.435264 378.92137v4.18572h-1.992846v-10.71248h3.267082q1.096436 0 1.874313.22966.785285.22225 1.281644.62971.503768.40746.733427.9779.237067.56304.237067 1.24461 0 .54081-.162983 1.02235-.155576.48154-.459318.87418-.296334.39265-.740835.68898-.437093.29633-1.000127.47413.377825.21485.651934.6149l2.681823 3.95606h-1.792821q-.259292 0-.444501-.10372-.1778-.10372-.303742-.29633l-2.252138-3.43007q-.125942-.19262-.281518-.27411-.148167-.0815-.444501-.0815zm0-1.42981h1.244603q.563034 0 .977902-.14076.422276-.14076.688977-.38524.274109-.25188.407459-.59266.13335-.34079.13335-.74825 0-.81492-.540809-1.25201-.533402-.43709-1.637246-.43709h-1.274236zM-61.043847 372.39461V373.98H-65.7926v2.97075h3.741217v1.53353H-65.7926v3.03001h4.748753v1.5928h-6.756415v-10.71248zM-53.579703 374.34301q-.08149.16298-.192617.22966-.103717.0667-.251884.0667t-.333376-.11112q-.185209-.11854-.437093-.2593-.251884-.14075-.592668-.25188-.333375-.11853-.792693-.11853-.414868 0-.726018.10371-.303743.0963-.518585.27411-.207434.1778-.311151.42969-.103717.24447-.103717.54081 0 .37782.207434.62971.214842.25188.563035.42968.348192.1778.792693.31856t.903819.30374q.466726.15558.911227.37042.444501.20743.792694.5334.348192.31856.555626.78529.214842.46672.214842 1.13347 0 .72602-.251884 1.36314-.244476.62971-.726018 1.10384-.474135.46673-1.163111.74084-.688977.2667-1.577979.2667-.511176 0-1.007535-.10372-.49636-.0963-.955678-.28151-.451909-.18521-.85196-.44451-.392642-.25929-.703793-.57785l.577851-.95567q.08149-.10372.192617-.1704.118534-.0741.259293-.0741.185208 0 .400051.15558.214842.14816.503767.33337.296334.18521.688977.34079.400051.14816.955677.14816.85196 0 1.318686-.40005.466726-.40746.466726-1.16311 0-.42228-.214842-.68898-.207434-.2667-.555626-.4445-.348192-.18521-.792693-.31115-.444501-.12594-.903819-.27411-.459318-.14816-.903819-.3556-.444501-.20743-.792693-.54081-.348193-.33337-.563035-.82973-.207434-.50377-.207434-1.2372 0-.58526.229659-1.14088.237067-.55563.681568-.98531.45191-.42969 1.103844-.68898.651935-.25929 1.489079-.25929.948269 0 1.74837.29633.800102.29634 1.363137.82974zM-46.599422 378.94359v4.1635h-1.992846v-4.1635l-3.904201-6.54898h1.755779q.259292 0 .407459.12594.155576.12595.259293.31856l1.963212 3.57824q.170392.31856.296334.60748.125942.28152.229659.55563.09631-.28152.214842-.56304.125942-.28892.296334-.60007l1.948396-3.57824q.08149-.16298.244476-.30374.162984-.14076.414868-.14076h1.763187zM-35.927001 374.34301q-.08149.16298-.192617.22966-.103717.0667-.251884.0667t-.333376-.11112q-.185208-.11854-.437092-.2593-.251884-.14075-.592668-.25188-.333376-.11853-.792694-.11853-.414867 0-.726018.10371-.303742.0963-.518585.27411-.207433.1778-.31115.42969-.103717.24447-.103717.54081 0 .37782.207434.62971.214842.25188.563034.42968.348193.1778.792694.31856.444501.14076.903818.30374.466726.15558.911227.37042.444501.20743.792694.5334.348192.31856.555626.78529.214842.46672.214842 1.13347 0 .72602-.251884 1.36314-.244475.62971-.726018 1.10384-.474134.46673-1.163111.74084-.688976.2667-1.577978.2667-.511177 0-1.007536-.10372-.496359-.0963-.955677-.28151-.45191-.18521-.85196-.44451-.392643-.25929-.703794-.57785l.577852-.95567q.08149-.10372.192617-.1704.118533-.0741.259292-.0741.185209 0 .400051.15558.214842.14816.503768.33337.296334.18521.688976.34079.400051.14816.955677.14816.851961 0 1.318687-.40005.466726-.40746.466726-1.16311 0-.42228-.214842-.68898-.207434-.2667-.555627-.4445-.348192-.18521-.792693-.31115-.444501-.12594-.903819-.27411-.459318-.14816-.903819-.3556-.444501-.20743-.792693-.54081-.348192-.33337-.563035-.82973-.207433-.50377-.207433-1.2372 0-.58526.229658-1.14088.237068-.55563.681569-.98531.451909-.42969 1.103844-.68898t1.489078-.25929q.948269 0 1.748371.29633.800102.29634 1.363136.82974zM-26.161173 372.39461v1.63725h-3.222632v9.07523h-1.992846v-9.07523H-34.6141v-1.63725zM-18.127511 372.39461V373.98h-4.748752v2.97075h3.741216v1.53353h-3.741216v3.03001h4.748752v1.5928h-6.756415v-10.71248zM-11.026376 378.66208q.125942.23706.229658.49636.111126.25188.214843.51117.103717-.2667.214842-.52599.111125-.25929.237067-.49636l3.1707738-5.93409q.059267-.11112.1185336-.1778.066675-.0667.1407586-.0963.081492-.0296.1778004-.037.096309-.007.2296589-.007h1.503895v10.71248h-1.7557789v-6.9194q0-.19262.00741-.42228.014817-.22966.037042-.46672l-3.237449 6.07484q-.1111252.20744-.2889254.32597-.177801.11112-.414868.11112h-.274109q-.237067 0-.414867-.11112-.177801-.11853-.288926-.32597l-3.281899-6.09707q.02963.24448.03704.48154.01482.22966.01482.42969v6.9194h-1.755778v-10.71248h1.503895q.13335 0 .229658.007.09631.007.170392.037.08149.0296.148167.0963.06668.0667.125942.1778l3.200408 5.94891zM4.1264714 372.39461V373.98H-.6222809v2.97075h3.7412167v1.53353H-.6222809v3.03001h4.7487523v1.5928h-6.7564152v-10.71248z" style="font-weight:700;-inkscape-font-specification:'Lato, Bold';baseline-shift:baseline;opacity:1;vector-effect:none;fill:#fff;stop-color:#000;stop-opacity:1" transform="translate(249.37675891 -329.9224072)"/></g></g></svg>