<svg width="1683.5575" height="459.34351" viewBox="0 0 445.44115 121.53461" xmlns="http://www.w3.org/2000/svg"><defs><path id="c" d="M1600.6648 5530.2114h158.57976v94.550331H1600.6648z"/><path id="b" d="M157-13h55v40h-55z"/><clipPath clipPathUnits="userSpaceOnUse" id="d"><path style="opacity:1;fill:#060202;stroke-width:1.05833;stop-color:#000;stop-opacity:1" d="M466.02988 1586.7959h37.13984v41.4021h-37.13984z"/></clipPath><filter style="color-interpolation-filters:sRGB" id="a" x="-.05642297" y="-.03515585" width="1.1128459" height="1.0703117"><feGaussianBlur stdDeviation="1.1384116"/></filter></defs><text xml:space="preserve" transform="matrix(.26458 0 0 .26458 -296.41324 -1742.118)" style="font-size:36px;line-height:1.25;font-family:Lato;-inkscape-font-specification:Lato;text-align:center;letter-spacing:0;white-space:pre;shape-inside:url(#b)"><tspan x="157" y="60.48"><tspan dx="0 20.882812 20.039062 14.484375 18.84375">Ehret</tspan></tspan></text><g style="display:inline;opacity:1"><path style="fill:#fff;fill-opacity:1;stroke:none;stroke-width:.264583;-inkscape-stroke:none;stop-color:#000" d="M-101.05897-6.3793921h445.44116v121.53461h-445.44116z" transform="translate(101.05897 6.3793921)"/></g><g style="display:inline"><g aria-label="EHRET INGENIEURBÜRO FÜR SOFTWARESYSTEME" style="font-size:23.2833px;line-height:1.25;font-family:Lato;-inkscape-font-specification:Lato;text-align:center;letter-spacing:0;text-anchor:middle;display:inline;fill:#000;stroke-width:.264583"><path d="M495.29981 1766.2607v2.4913h-7.4623v4.6683h5.87903v2.4098h-5.87903v4.7614h7.4623v2.503h-10.61719v-16.8338zM512.20967 1783.0945h-3.15489v-7.3575h-7.89304v7.3575h-3.15489v-16.8338h3.15489v7.2411h7.89304v-7.2411h3.15489zM518.84213 1776.517v6.5775h-3.1316v-16.8338h5.13397q1.72296 0 2.94534.3608 1.23401.3493 2.014.9896.79163.6403 1.15252 1.5367.37254.8848.37254 1.9558 0 .8498-.25612 1.6065-.24447.7567-.72178 1.3737-.46567.6171-1.16417 1.0827-.68685.4657-1.57162.7451.59372.3376 1.02447.9662l4.21427 6.2167h-2.81728q-.40745 0-.69849-.163-.2794-.163-.47731-.4657l-3.53906-5.3901q-.19791-.3026-.44239-.4307-.23283-.128-.6985-.128zm0-2.2469h1.9558q.88477 0 1.5367-.2212.66357-.2212 1.08267-.6053.43074-.3959.64029-.9314.20955-.5355.20955-1.1758 0-1.2806-.84984-1.9674-.8382-.6869-2.5728-.6869h-2.00237zM541.45713 1766.2607v2.4913h-7.4623v4.6683h5.87904v2.4098h-5.87904v4.7614h7.4623v2.503h-10.61718v-16.8338zM556.02702 1766.2607v2.5728h-5.06412v14.261h-3.1316v-14.261h-5.0874v-2.5728z" style="font-weight:700;-inkscape-font-specification:'Lato Bold';text-align:start;text-anchor:start;fill:#000" transform="translate(-294.765275 -1743.10754174)"/><path d="M487.68617 1812.1986h-2.25848v-16.6825h2.25848zM493.31236 1795.5161q.30268 0 .44238.082.15134.07.33761.3027l9.66257 12.573q-.0349-.3027-.0466-.5821-.0116-.291-.0116-.5588v-11.8163h1.97908v16.6825h-1.14088q-.26776 0-.45402-.093-.17463-.093-.34925-.3143l-9.65093-12.5614q.0233.2911.0349.5705t.0116.5122v11.8861h-1.97908v-16.6825h1.16417zM517.18611 1810.5571q.67522 0 1.23402-.058.57044-.07 1.07103-.1979.50059-.128.94297-.3027.44238-.1862.88477-.4191v-3.6787h-2.58445q-.22119 0-.36089-.1281-.12806-.128-.12806-.3143v-1.2806h5.12233v6.4029q-.62865.454-1.31551.7917-.67522.3376-1.45521.5704-.76834.2212-1.65311.326-.88477.1164-1.92087.1164-1.8161 0-3.32951-.617-1.51342-.6287-2.60773-1.7463-1.09432-1.1292-1.71133-2.7008-.60536-1.5717-.60536-3.4576 0-1.9092.59372-3.4809.60537-1.5716 1.71132-2.6892 1.1176-1.1292 2.68923-1.7462 1.58326-.617 3.53906-.617.98954 0 1.83938.1513.84984.1397 1.57162.4191.73342.2678 1.35043.6636.61701.3841 1.15253.8731l-.6403 1.0245q-.1979.3143-.51223.3143-.18626 0-.40746-.1281-.29104-.163-.65193-.3958-.36089-.2328-.88476-.4424-.51224-.2212-1.22238-.3725-.6985-.1513-1.66475-.1513-1.40864 0-2.54952.4656-1.14089.454-1.94416 1.3155-.80327.8499-1.23401 2.0722-.43075 1.2108-.43075 2.7242 0 1.5833.44239 2.8289.45402 1.234 1.26894 2.0955.81491.8615 1.93251 1.3155 1.1176.454 2.46803.454zM537.12535 1795.5161v1.8394h-8.00946v5.5414h6.4844v1.7696h-6.4844v5.6927h8.00946v1.8394h-10.27958v-16.6825zM541.51607 1795.5161q.30268 0 .44238.082.15134.07.33761.3027l9.66257 12.573q-.0349-.3027-.0466-.5821-.0116-.291-.0116-.5588v-11.8163h1.97908v16.6825h-1.14088q-.26776 0-.45403-.093-.17462-.093-.34925-.3143l-9.65092-12.5614q.0233.2911.0349.5705t.0116.5122v11.8861h-1.97908v-16.6825h1.16417zM560.62838 1812.1986h-2.25848v-16.6825h2.25848zM575.36998 1795.5161v1.8394h-8.00945v5.5414h6.4844v1.7696h-6.4844v5.6927h8.00945v1.8394h-10.27957v-16.6825zM585.08094 1810.4058q1.03611 0 1.85102-.3493.81492-.3492 1.37372-.9779.57044-.6286.86148-1.5017.30268-.8732.30268-1.9209v-10.1399h2.24684v10.1399q0 1.4436-.46567 2.6776-.45402 1.234-1.3155 2.142-.84984.8965-2.08386 1.4087-1.23401.5122-2.77071.5122-1.5367 0-2.77071-.5122-1.23402-.5122-2.0955-1.4087-.86148-.908-1.32715-2.142-.45402-1.234-.45402-2.6776v-10.1399h2.24683v10.1283q0 1.0477.29105 1.9208.30268.8732.86148 1.5018.57044.6287 1.38535.9895.82656.3493 1.86267.3493zM598.08394 1805.2369v6.9617h-2.24684v-16.6825h4.71487q1.58326 0 2.73579.326 1.15252.3143 1.89759.9197.7567.6053 1.11759 1.4668.3609.8499.3609 1.9093 0 .8847-.2794 1.6531-.2794.7683-.81492 1.3853-.52387.6054-1.29222 1.0361-.75671.4308-1.72297.652.4191.2444.74507.7101l4.86621 6.6241h-2.00237q-.617 0-.90804-.4773l-4.3307-5.9605q-.19791-.2794-.43074-.3958-.23283-.1281-.6985-.1281zm0-1.6415h2.36325q.98954 0 1.73461-.2328.75671-.2445 1.2573-.6752.51223-.4424.76835-1.0478.25611-.6053.25611-1.3388 0-1.4901-.98954-2.2468-.9779-.7567-2.92205-.7567h-2.46803zM610.61108 1812.1986v-16.6825h5.32024q1.53669 0 2.64265.3027 1.1176.3027 1.82774.8615.72178.5588 1.05939 1.3737.34925.8033.34925 1.8161 0 .617-.19791 1.1874-.18627.5705-.58208 1.0594-.38418.489-.9779.8732-.58208.3841-1.37372.6286 1.82774.3609 2.75908 1.3155.93133.9546.93133 2.5146 0 1.0594-.39582 1.9325-.38417.8732-1.14088 1.5018-.74507.6287-1.83938.9779-1.08267.3376-2.47967.3376zm2.25848-7.602v5.8092h3.60891q.96626 0 1.65312-.2212.6985-.2212 1.14088-.617.45402-.4075.66357-.9546.20955-.5588.20955-1.2224 0-1.2922-.91969-2.0373-.90805-.7567-2.75907-.7567zm0-1.6065h2.98026q.95462 0 1.65312-.2096.6985-.2095 1.15252-.5821.46567-.3725.68686-.8964.22119-.5355.22119-1.1641 0-1.4669-.88477-2.1537-.88476-.6869-2.74742-.6869h-3.06176zM632.14777 1810.4058q1.03611 0 1.85102-.3493.81492-.3492 1.37372-.9779.57044-.6286.86148-1.5017.30268-.8732.30268-1.9209v-10.1399h2.24684v10.1399q0 1.4436-.46566 2.6776-.45403 1.234-1.31551 2.142-.84984.8965-2.08386 1.4087-1.23401.5122-2.77071.5122-1.5367 0-2.77071-.5122-1.23402-.5122-2.0955-1.4087-.86148-.908-1.32715-2.142-.45402-1.234-.45402-2.6776v-10.1399h2.24684v10.1283q0 1.0477.29104 1.9208.30268.8732.86148 1.5018.57044.6287 1.38536.9895.82656.3493 1.86266.3493zm-1.19909-17.6022q0 .2561-.10477.489-.10478.2212-.2794.3958-.17463.1746-.4191.2794-.23283.093-.50059.093-.24448 0-.47731-.093-.22119-.1048-.39582-.2794-.17462-.1746-.2794-.3958-.10477-.2329-.10477-.489 0-.2677.10477-.5006.10478-.2444.2794-.4191.17463-.1746.39582-.2794.23283-.1047.47731-.1047.26776 0 .50059.1047.24447.1048.4191.2794.17462.1747.2794.4191.10477.2329.10477.5006zm4.95935 0q0 .2561-.10478.489-.10477.2212-.2794.3958-.17462.1746-.40746.2794-.23283.093-.48895.093-.26775 0-.50059-.093-.23283-.1048-.40746-.2794-.17462-.1746-.27939-.3958-.0931-.2329-.0931-.489 0-.2677.0931-.5006.10477-.2444.27939-.4191.17463-.1746.40746-.2794.23284-.1047.50059-.1047.25612 0 .48895.1047.23284.1048.40746.2794.17463.1747.2794.4191.10478.2329.10478.5006zM645.15077 1805.2369v6.9617h-2.24684v-16.6825h4.71487q1.58326 0 2.73578.326 1.15253.3143 1.89759.9197.75671.6053 1.1176 1.4668.36089.8499.36089 1.9093 0 .8847-.2794 1.6531-.2794.7683-.81491 1.3853-.52388.6054-1.29223 1.0361-.7567.4308-1.72296.652.4191.2444.74506.7101l4.86621 6.6241h-2.00236q-.61701 0-.90805-.4773l-4.33069-5.9605q-.19791-.2794-.43074-.3958-.23284-.1281-.6985-.1281zm0-1.6415h2.36325q.98954 0 1.73461-.2328.7567-.2445 1.25729-.6752.51224-.4424.76835-1.0478.25612-.6053.25612-1.3388 0-1.4901-.98954-2.2468-.9779-.7567-2.92205-.7567h-2.46803zM672.62724 1803.8632q0 1.8743-.59373 3.4459-.59372 1.56-1.6764 2.6892-1.08267 1.1293-2.60773 1.7579-1.51341.617-3.35279.617-1.83938 0-3.3528-.617-1.51341-.6286-2.59608-1.7579-1.08268-1.1292-1.6764-2.6892-.59373-1.5716-.59373-3.4459 0-1.8743.59373-3.4343.59372-1.5716 1.6764-2.7009 1.08267-1.1408 2.59608-1.7695 1.51342-.6286 3.3528-.6286 1.83938 0 3.35279.6286 1.52506.6287 2.60773 1.7695 1.08268 1.1293 1.6764 2.7009.59373 1.56.59373 3.4343zm-2.31669 0q0-1.5367-.4191-2.7591-.4191-1.2224-1.18745-2.0606-.76835-.8498-1.86266-1.3038-1.09432-.454-2.44475-.454-1.33879 0-2.43311.454-1.09431.454-1.8743 1.3038-.76835.8382-1.18745 2.0606-.4191 1.2224-.4191 2.7591 0 1.5367.4191 2.7591.4191 1.2107 1.18745 2.0605.77999.8382 1.8743 1.2923 1.09432.4423 2.43311.4423 1.35043 0 2.44475-.4423 1.09431-.4541 1.86266-1.2923.76835-.8498 1.18745-2.0605.4191-1.2224.4191-2.7591z" style="font-weight:400;-inkscape-font-specification:Lato;fill:#000" transform="translate(-294.765275 -1743.10754174)"/><path d="M685.75891 1801.9616v1.1287h-4.9149v3.579h4.20052v1.1288h-4.20052v4.4005h-1.39304v-10.237zM691.52257 1811.0985q.6358 0 1.13586-.2143.50006-.2144.84296-.6001.35005-.3858.52864-.9216.18574-.5357.18574-1.1787v-6.2222h1.37874v6.2222q0 .8858-.28575 1.6431-.27861.7572-.80724 1.3144-.5215.5501-1.27873.8644-.75724.3144-1.70022.3144-.94297 0-1.70021-.3144-.75724-.3143-1.28587-.8644-.52864-.5572-.81439-1.3144-.27861-.7573-.27861-1.6431v-6.2222h1.37875v6.2151q0 .6429.17859 1.1787.18574.5358.52864.9215.35004.3858.8501.6073.50721.2143 1.143.2143zm-.7358-10.8014q0 .1572-.0643.3001-.0643.1357-.17145.2428-.10715.1072-.25717.1715-.14288.057-.30718.057-.15002 0-.2929-.057-.13573-.064-.24288-.1715-.10716-.1071-.17145-.2428-.0643-.1429-.0643-.3001 0-.1643.0643-.3072.0643-.15.17145-.2571.10715-.1072.24288-.1715.14288-.064.2929-.064.1643 0 .30718.064.15002.064.25717.1715.10716.1071.17145.2571.0643.1429.0643.3072zm3.04323 0q0 .1572-.0643.3001-.0643.1357-.17145.2428-.10716.1072-.25003.1715-.14288.057-.30004.057-.1643 0-.30718-.057-.14287-.064-.25003-.1715-.10716-.1071-.17145-.2428-.0571-.1429-.0571-.3001 0-.1643.0571-.3072.0643-.15.17145-.2571.10716-.1072.25003-.1715.14288-.064.30718-.064.15716 0 .30004.064.14287.064.25003.1715.10716.1071.17145.2571.0643.1429.0643.3072zM699.50169 1807.9266v4.272h-1.37874v-10.237h2.89322q.97155 0 1.67878.2.70723.1929 1.16443.5644.46434.3715.6858.9001.22146.5215.22146 1.1716 0 .5429-.17145 1.0144-.17145.4715-.50007.8501-.32147.3715-.79295.6358-.46435.2643-1.05728.4.25718.1501.4572.4358l2.98609 4.0648h-1.22873q-.37861 0-.55721-.2929l-2.65747-3.6576q-.12145-.1714-.26432-.2429-.14288-.079-.42863-.079zm0-1.0072h1.45018q.60722 0 1.06442-.1429.46435-.15.77153-.4143.31432-.2715.47148-.643.15717-.3714.15717-.8215 0-.9144-.60722-1.3787-.60008-.4644-1.79308-.4644h-1.51448z" style="font-weight:400;font-size:14.2875px;-inkscape-font-specification:Lato;fill:#000" transform="translate(-294.765275 -1743.10754174)"/><path d="M493.7049 1827.5307q-.12806.2561-.30268.3609-.16299.1047-.39582.1047t-.52387-.1746q-.29104-.1863-.68686-.4075-.39582-.2211-.93133-.3958-.52388-.1862-1.24566-.1862-.65193 0-1.14088.1629-.47731.1514-.81492.4308-.32596.2794-.48895.6752-.16298.3842-.16298.8498 0 .5938.32597.9896.33761.3958.88476.6752.54716.2794 1.24566.5006.6985.2212 1.42028.4773.73343.2445 1.43192.5821.6985.3259 1.24566.8382.54716.5006.87312 1.234.33761.7334.33761 1.7812 0 1.1408-.39581 2.142-.38418.9896-1.14089 1.7346-.74506.7335-1.82773 1.1642-1.08268.4191-2.47968.4191-.80327 0-1.58326-.163-.77999-.1513-1.50177-.4424-.71014-.291-1.33879-.6985-.61701-.4074-1.10596-.908l.90805-1.5018q.12806-.163.30268-.2677.18627-.1165.40746-.1165.29104 0 .62865.2445.33761.2328.79163.5239.46567.291 1.08267.5355.62865.2328 1.50178.2328 1.33879 0 2.07221-.6286.73342-.6403.73342-1.8278 0-.6635-.3376-1.0826-.32597-.4191-.87313-.6985-.54715-.2911-1.24565-.489-.6985-.1979-1.42028-.4307-.72179-.2328-1.42029-.5588-.6985-.326-1.24565-.8499-.54716-.5238-.88477-1.3038-.32596-.7917-.32596-1.9442 0-.9197.36089-1.7928.37253-.8731 1.07103-1.5483.71014-.6752 1.7346-1.0827 1.02447-.4075 2.33998-.4075 1.49013 0 2.74743.4657 1.25729.4657 2.14206 1.3039zM513.33527 1832.8858q0 1.851-.61701 3.4343-.61701 1.5716-1.7346 2.7242-1.1176 1.1525-2.68922 1.8044-1.57163.6403-3.48086.6403-1.90923 0-3.49249-.6403-1.57163-.6519-2.70087-1.8044-1.11759-1.1526-1.7346-2.7242-.61701-1.5833-.61701-3.4343t.61701-3.4226q.61701-1.5833 1.7346-2.7358 1.12924-1.1525 2.70087-1.7928 1.58326-.652 3.49249-.652 1.90923 0 3.48086.652 1.57162.6519 2.68922 1.8044 1.11759 1.1409 1.7346 2.7242.61701 1.5716.61701 3.4226zm-3.2131 0q0-1.3853-.37253-2.4797-.36089-1.1059-1.04775-1.8743-.68685-.7683-1.67639-1.1758-.9779-.4074-2.21192-.4074-1.23401 0-2.22355.4074-.98954.4075-1.68804 1.1758-.68686.7684-1.05939 1.8743-.37254 1.0944-.37254 2.4797 0 1.3854.37254 2.4913.37253 1.0943 1.05939 1.8627.6985.7567 1.68804 1.1642.98954.4074 2.22355.4074 1.23402 0 2.21192-.4074.98954-.4075 1.67639-1.1642.68686-.7684 1.04775-1.8627.37253-1.1059.37253-2.4913zM526.40484 1824.4689v2.4913h-7.4623v4.9826h6.29814v2.503h-6.29814v6.8569h-3.15488v-16.8338zM540.70188 1824.4689v2.5728h-5.06412v14.261h-3.1316v-14.261h-5.0874v-2.5728zM541.14899 1824.4689h2.63102q.40745 0 .67521.1979.2794.1863.37253.5122l2.86385 10.0701q.10477.3725.18627.8149.0931.4307.17462.9197.0931-.489.19791-.9197.11642-.4424.24447-.8149l3.30623-10.0701q.0931-.2677.36089-.4889.2794-.2212.67522-.2212h.91969q.40746 0 .67522.1979.26775.1863.37253.5122l3.28294 10.0701q.25612.745.44239 1.6531.0815-.454.16298-.8731.0931-.4191.18627-.78l2.86384-10.0701q.0815-.291.36089-.5005.2794-.2096.67522-.2096h2.45639l-5.2271 16.8338h-2.82893l-3.67876-11.5019q-.0698-.2212-.15134-.4773-.0698-.2561-.1397-.5472-.0698.2911-.15134.5472-.0698.2561-.1397.4773l-3.71369 11.5019h-2.82892zM580.51596 1841.3027h-2.42147q-.40746 0-.67521-.1979-.25612-.2095-.37254-.5122l-1.25729-3.4343h-6.97335l-1.2573 3.4343q-.0931.2678-.37253.4889-.26776.2212-.66358.2212h-2.4331l6.61245-16.8338h3.20146zm-10.89659-6.3563h5.3668l-2.04893-5.5996q-.1397-.3726-.31432-.8732-.16299-.5122-.32597-1.1059-.16298.5937-.32597 1.1059-.15134.5123-.30268.8964zM585.50877 1834.7252v6.5775h-3.13161v-16.8338h5.13397q1.72297 0 2.94534.3609 1.23401.3492 2.014.9895.79164.6403 1.15253 1.5367.37253.8848.37253 1.9558 0 .8499-.25612 1.6066-.24447.7567-.72178 1.3737-.46566.617-1.16416 1.0827-.68686.4656-1.57163.745.59373.3376 1.02447.9663l4.21428 6.2166h-2.81728q-.40746 0-.6985-.1629-.2794-.163-.47731-.4657l-3.53906-5.3901q-.19791-.3027-.44238-.4307-.23284-.1281-.6985-.1281zm0-2.2468h1.9558q.88476 0 1.53669-.2212.66358-.2212 1.08268-.6054.43074-.3958.64029-.9313.20955-.5355.20955-1.1758 0-1.2806-.84984-1.9675-.8382-.6868-2.57281-.6868h-2.00236zM608.12377 1824.4689v2.4913h-7.4623v4.6683h5.87903v2.4098h-5.87903v4.7615h7.4623v2.5029h-10.61719v-16.8338zM619.85309 1827.5307q-.12805.2561-.30268.3609-.16298.1047-.39582.1047-.23283 0-.52387-.1746-.29104-.1863-.68686-.4075-.39581-.2211-.93133-.3958-.52387-.1862-1.24566-.1862-.65193 0-1.14088.1629-.4773.1514-.81491.4308-.32597.2794-.48895.6752-.16298.3842-.16298.8498 0 .5938.32596.9896.33761.3958.88477.6752.54715.2794 1.24565.5006.6985.2212 1.42028.4773.73343.2445 1.43193.5821.6985.3259 1.24565.8382.54716.5006.87313 1.234.33761.7334.33761 1.7812 0 1.1408-.39582 2.142-.38417.9896-1.14088 1.7346-.74507.7335-1.82774 1.1642-1.08267.4191-2.47967.4191-.80328 0-1.58327-.163-.77999-.1513-1.50177-.4424-.71014-.291-1.33879-.6985-.61701-.4074-1.10596-.908l.90805-1.5018q.12806-.163.30269-.2677.18626-.1165.40745-.1165.29104 0 .62865.2445.33761.2328.79163.5239.46567.291 1.08268.5355.62865.2328 1.50177.2328 1.33879 0 2.07221-.6286.73343-.6403.73343-1.8278 0-.6635-.33761-1.0826-.32597-.4191-.87312-.6985-.54716-.2911-1.24566-.489-.6985-.1979-1.42028-.4307-.72178-.2328-1.42028-.5588-.6985-.326-1.24566-.8499-.54716-.5238-.88476-1.3038-.32597-.7917-.32597-1.9442 0-.9197.36089-1.7928.37253-.8731 1.07103-1.5483.71014-.6752 1.73461-1.0827 1.02446-.4075 2.33997-.4075 1.49013 0 2.74743.4657t2.14206 1.3039zM630.82207 1834.7601v6.5426h-3.1316v-6.5426l-6.13515-10.2912h2.75907q.40746 0 .64029.1979.24448.1979.40746.5006l3.08504 5.6229q.26775.5006.46566.9546.19791.4424.36089.8732.15134-.4424.33761-.8848.19791-.454.46567-.943l3.06175-5.6229q.12806-.2561.38418-.4773.25611-.2212.65193-.2212h2.77071zM647.59296 1827.5307q-.12806.2561-.30268.3609-.16298.1047-.39582.1047-.23283 0-.52387-.1746-.29104-.1863-.68686-.4075-.39581-.2211-.93133-.3958-.52387-.1862-1.24566-.1862-.65193 0-1.14088.1629-.47731.1514-.81491.4308-.32597.2794-.48895.6752-.16299.3842-.16299.8498 0 .5938.32597.9896.33761.3958.88476.6752.54716.2794 1.24566.5006.6985.2212 1.42028.4773.73343.2445 1.43193.5821.69849.3259 1.24565.8382.54716.5006.87313 1.234.3376.7334.3376 1.7812 0 1.1408-.39581 2.142-.38418.9896-1.14088 1.7346-.74507.7335-1.82774 1.1642-1.08268.4191-2.47967.4191-.80328 0-1.58327-.163-.77999-.1513-1.50177-.4424-.71014-.291-1.33879-.6985-.61701-.4074-1.10596-.908l.90805-1.5018q.12806-.163.30268-.2677.18627-.1165.40746-.1165.29104 0 .62865.2445.33761.2328.79163.5239.46567.291 1.08268.5355.62864.2328 1.50177.2328 1.33879 0 2.07221-.6286.73343-.6403.73343-1.8278 0-.6635-.33761-1.0826-.32597-.4191-.87313-.6985-.54715-.2911-1.24565-.489-.6985-.1979-1.42028-.4307-.72179-.2328-1.42028-.5588-.6985-.326-1.24566-.8499-.54716-.5238-.88477-1.3038-.32596-.7917-.32596-1.9442 0-.9197.36089-1.7928.37253-.8731 1.07103-1.5483.71014-.6752 1.73461-1.0827 1.02446-.4075 2.33997-.4075 1.49013 0 2.74743.4657t2.14206 1.3039zM662.9392 1824.4689v2.5728h-5.06412v14.261h-3.1316v-14.261h-5.0874v-2.5728zM675.56348 1824.4689v2.4913h-7.4623v4.6683h5.87903v2.4098h-5.87903v4.7615h7.4623v2.5029h-10.61719v-16.8338zM686.72237 1834.3177q.1979.3726.36089.78.17462.3958.3376.8033.16299-.4191.33761-.8265.17463-.4075.37254-.78l4.98262-9.325q.0931-.1746.18627-.2794.10477-.1048.22119-.1513.12806-.047.2794-.058.15134-.012.36089-.012h2.36326v16.8338h-2.75908v-10.8733q0-.3027.0116-.6635.0233-.3609.0582-.7335l-5.0874 9.5462q-.17462.326-.45402.5122-.2794.1746-.65193.1746h-.43075q-.37253 0-.65193-.1746-.2794-.1862-.45402-.5122l-5.15725-9.5811q.0466.3842.0582.7567.0233.3609.0233.6752v10.8733h-2.75907v-16.8338h2.36325q.20955 0 .36089.012.15135.012.26776.058.12806.046.23283.1513.10478.1048.19791.2794l5.0292 9.3482zM710.53391 1824.4689v2.4913h-7.4623v4.6683h5.87903v2.4098h-5.87903v4.7615h7.4623v2.5029h-10.61719v-16.8338z" style="font-weight:700;-inkscape-font-specification:'Lato Bold';text-align:start;text-anchor:start;fill:#000" transform="translate(-294.765275 -1743.10754174)"/></g><g style="stroke-width:1.04822"><path style="display:inline;opacity:1;fill:none;stroke:#0a48bf;stroke-width:5.54682;stroke-miterlimit:4;stroke-dasharray:none;stop-color:#000" d="M598.00139 1802.8854c0 23.1506-30.79866 41.9178-68.79075 41.9178-37.99208 0-68.79075-18.7672-68.79076-41.9178 0-23.1506 30.79868-41.9179 68.79076-41.9179 37.99209 0 68.79075 18.7673 68.79075 41.9179z" transform="matrix(.94004 -.16575 .16557 .93897 -695.8641 -1544.37521)"/><path style="display:inline;opacity:1;fill:none;stroke:#0a48bf;stroke-width:3.4282;stroke-miterlimit:4;stroke-dasharray:none;stop-color:#000" d="M592.55517 1802.8854a42.514747 25.906503 0 0 1-42.51474 25.9065 42.514747 25.906503 0 0 1-42.51477-25.9065 42.514747 25.906503 0 0 1 42.51477-25.9065 42.514747 25.906503 0 0 1 42.51474 25.9065z" transform="matrix(.94004 -.16575 .16557 .93897 -695.8641 -1544.37521)"/><path style="display:inline;opacity:1;fill:none;stroke:#0a48bf;stroke-width:2.11857;stroke-miterlimit:4;stroke-dasharray:none;stop-color:#000" d="M588.95514 1802.8854a26.275389 16.010996 0 0 1-26.2754 16.011 26.275389 16.010996 0 0 1-26.27539-16.011 26.275389 16.010996 0 0 1 26.27539-16.011 26.275389 16.010996 0 0 1 26.2754 16.011z" transform="matrix(.94004 -.16575 .16557 .93897 -695.8641 -1544.37521)"/><path style="display:inline;opacity:1;fill:none;stroke:#0a48bf;stroke-width:1.30932;stroke-miterlimit:4;stroke-dasharray:none;stop-color:#000" d="M586.56128 1802.8854a16.23898 9.8952764 0 0 1-16.239 9.8952 16.23898 9.8952764 0 0 1-16.23897-9.8952 16.23898 9.8952764 0 0 1 16.23897-9.8953 16.23898 9.8952764 0 0 1 16.239 9.8953z" transform="matrix(.94004 -.16575 .16557 .93897 -695.8641 -1544.37521)"/><path style="display:inline;opacity:1;fill:none;stroke:#0a48bf;stroke-width:.80928;stroke-miterlimit:4;stroke-dasharray:none;stop-color:#000" d="M584.70897 1802.8854a10.036177 6.1155773 0 0 1-10.03617 6.1155 10.036177 6.1155773 0 0 1-10.0362-6.1155 10.036177 6.1155773 0 0 1 10.0362-6.1156 10.036177 6.1155773 0 0 1 10.03617 6.1156z" transform="matrix(.94004 -.16575 .16557 .93897 -695.8641 -1544.37521)"/></g></g></svg>