<svg width="1695.1311" height="440.90442" viewBox="0 0 448.50334 116.65594" xmlns="http://www.w3.org/2000/svg"><defs><path id="c" d="M1600.6648 5530.2114h158.57976v94.550331H1600.6648z"/><path id="b" d="M157-13h55v40h-55z"/><clipPath clipPathUnits="userSpaceOnUse" id="d"><path style="opacity:1;fill:#060202;stroke-width:1.05833;stop-color:#000;stop-opacity:1" d="M466.02988 1586.7959h37.13984v41.4021h-37.13984z"/></clipPath><filter style="color-interpolation-filters:sRGB" id="a" x="-.05642297" y="-.03515585" width="1.1128459" height="1.0703117"><feGaussianBlur stdDeviation="1.1384116"/></filter></defs><text xml:space="preserve" transform="matrix(.26458 0 0 .26458 -314.20517 -1784.5114)" style="font-size:36px;line-height:1.25;font-family:Lato;-inkscape-font-specification:Lato;text-align:center;letter-spacing:0;white-space:pre;shape-inside:url(#b)"><tspan x="157" y="60.48"><tspan dx="0 20.882812 20.039062 14.484375 18.84375">Ehret</tspan></tspan></text><g style="display:inline"><path style="display:inline;fill:none;stroke:#fff;stroke-width:3.59727;stroke-miterlimit:4;stroke-dasharray:none;stop-color:#000" d="M451.93719 1842.6375a35.96406 20.986768 0 0 0-35.96406-20.9867 35.96406 20.986768 0 0 0-35.96408 20.9867 35.96406 20.986768 0 0 0 35.96408 20.9867 35.96406 20.986768 0 0 0 35.96406-20.9867z" transform="translate(-314.20517 -1784.5114)"/><path style="display:inline;fill:none;stroke:#fff;stroke-width:2.22303;stroke-miterlimit:4;stroke-dasharray:none;stop-color:#000" d="M448.15094 1842.6375a22.226868 12.970452 0 0 0-22.22687-12.9705 22.226868 12.970452 0 0 0-22.22687 12.9705 22.226868 12.970452 0 0 0 22.22687 12.9705 22.226868 12.970452 0 0 0 22.22687-12.9705z" transform="translate(-314.20517 -1784.5114)"/><path style="display:inline;fill:none;stroke:#fff;stroke-width:1.37372;stroke-miterlimit:4;stroke-dasharray:none;stop-color:#000" d="M445.4116 1842.6375a13.736872 8.016129 0 0 0-13.73689-8.0161 13.736872 8.016129 0 0 0-13.73685 8.0161 13.736872 8.016129 0 0 0 13.73685 8.0161 13.736872 8.016129 0 0 0 13.73689-8.0161z" transform="translate(-314.20517 -1784.5114)"/><path style="display:inline;fill:none;fill-opacity:1;stroke:#fff;stroke-width:.849048;stroke-miterlimit:4;stroke-dasharray:none;stroke-opacity:1;stop-color:#000" d="M443.42105 1842.6375a8.4897992 4.9542079 0 0 0-8.4898-4.9541 8.4897992 4.9542079 0 0 0-8.48981 4.9541 8.4897992 4.9542079 0 0 0 8.48981 4.9542 8.4897992 4.9542079 0 0 0 8.4898-4.9542z" transform="translate(-314.20517 -1784.5114)"/><path style="display:inline;fill:none;stroke:#fff;stroke-width:4.49792;stroke-miterlimit:4;stroke-dasharray:none;stop-color:#000" d="M456.80871 1842.6375c0-18.7542-26.05319-33.9574-58.19144-33.9574s-58.19145 15.2032-58.19146 33.9574c0 18.7542 26.05321 33.9576 58.19146 33.9576s58.19144-15.2034 58.19144-33.9576z" transform="translate(-314.20517 -1784.5114)"/><path d="M497.10737 1765.2712v2.4913h-7.4623v4.6683h5.87904v2.4098h-5.87904v4.7614h7.4623v2.503h-10.61718v-16.8338zM514.01723 1782.105h-3.15489v-7.3575h-7.89304v7.3575h-3.15488v-16.8338h3.15488v7.2411h7.89304v-7.2411h3.15489zM520.6497 1775.5274v6.5776h-3.13161v-16.8338h5.13397q1.72297 0 2.94534.3608 1.23401.3493 2.01401.9896.79163.6403 1.15252 1.5367.37253.8847.37253 1.9558 0 .8498-.25612 1.6065-.24447.7567-.72178 1.3737-.46566.6171-1.16416 1.0827-.68686.4657-1.57163.7451.59373.3376 1.02447.9662l4.21428 6.2167h-2.81728q-.40746 0-.6985-.163-.2794-.163-.47731-.4657l-3.53906-5.3901q-.19791-.3026-.44238-.4307-.23284-.1281-.6985-.1281zm0-2.2468h1.9558q.88476 0 1.53669-.2212.66358-.2212 1.08268-.6053.43074-.3959.64029-.9314.20955-.5355.20955-1.1758 0-1.2806-.84984-1.9674-.8382-.6869-2.57281-.6869h-2.00236zM543.2647 1765.2712v2.4913h-7.4623v4.6683h5.87903v2.4098h-5.87903v4.7614h7.4623v2.503h-10.61719v-16.8338zM557.83458 1765.2712v2.5728h-5.06411v14.261h-3.13161v-14.261h-5.0874v-2.5728z" style="font-style:normal;font-weight:700;font-size:23.2833px;line-height:1.25;font-family:Lato;-inkscape-font-specification:'Lato Bold';text-align:start;letter-spacing:0;text-anchor:start;fill:#fff;stroke-width:.264583" transform="matrix(1.15184 0 0 1.15184 -396.410979 -2002.21966837)"/><path d="M497.80301 1826.5412q-.12805.2561-.30268.3609-.16298.1047-.39581.1047-.23284 0-.52388-.1746-.29104-.1863-.68686-.4075-.39581-.2211-.93133-.3958-.52387-.1862-1.24565-.1862-.65194 0-1.14089.1629-.4773.1514-.81491.4308-.32597.2794-.48895.6752-.16298.3842-.16298.8498 0 .5938.32596.9896.33761.3958.88477.6752.54715.2794 1.24565.5006.6985.2212 1.42029.4773.73342.2445 1.43192.5821.6985.3259 1.24565.8382.54716.5006.87313 1.234.33761.7334.33761 1.7812 0 1.1408-.39582 2.142-.38417.9896-1.14088 1.7346-.74507.7335-1.82774 1.1642-1.08267.4191-2.47967.4191-.80328 0-1.58327-.163-.77999-.1513-1.50177-.4424-.71014-.291-1.33879-.6985-.61701-.4074-1.10596-.908l.90805-1.5018q.12806-.163.30269-.2677.18626-.1165.40745-.1165.29104 0 .62865.2445.33761.2328.79163.5239.46567.291 1.08268.5355.62865.2328 1.50177.2328 1.33879 0 2.07221-.6286.73343-.6403.73343-1.8278 0-.6635-.33761-1.0826-.32597-.4191-.87312-.6985-.54716-.2911-1.24566-.489-.6985-.1979-1.42028-.4307-.72178-.2328-1.42028-.5588-.6985-.326-1.24566-.8499-.54716-.5238-.88476-1.3038-.32597-.7917-.32597-1.9442 0-.9197.36089-1.7928.37253-.8731 1.07103-1.5483.71014-.6752 1.73461-1.0827 1.02446-.4075 2.33997-.4075 1.49013 0 2.74743.4657t2.14206 1.3039zM517.43338 1831.8963q0 1.851-.617 3.4343-.61701 1.5716-1.73461 2.7242-1.1176 1.1525-2.68922 1.8044-1.57162.6403-3.48085.6403-1.90924 0-3.4925-.6403-1.57162-.6519-2.70086-1.8044-1.1176-1.1526-1.73461-2.7242-.61701-1.5833-.61701-3.4343t.61701-3.4226q.61701-1.5833 1.73461-2.7358 1.12924-1.1525 2.70086-1.7928 1.58326-.652 3.4925-.652 1.90923 0 3.48085.652 1.57162.6519 2.68922 1.8044 1.1176 1.1409 1.73461 2.7242.617 1.5716.617 3.4226zm-3.21309 0q0-1.3853-.37253-2.4797-.3609-1.1059-1.04775-1.8743-.68686-.7683-1.6764-1.1758-.9779-.4074-2.21191-.4074-1.23402 0-2.22356.4074-.98954.4075-1.68804 1.1758-.68686.7684-1.05939 1.8743-.37253 1.0944-.37253 2.4797 0 1.3854.37253 2.4913.37253 1.0943 1.05939 1.8627.6985.7567 1.68804 1.1642.98954.4074 2.22356.4074 1.23401 0 2.21191-.4074.98954-.4075 1.6764-1.1642.68685-.7684 1.04775-1.8627.37253-1.1059.37253-2.4913zM530.50295 1823.4794v2.4913h-7.46229v4.9826h6.29813v2.503h-6.29813v6.8569h-3.15489v-16.8338zM544.8 1823.4794v2.5728h-5.06412v14.261h-3.13161v-14.261h-5.0874v-2.5728zM545.24711 1823.4794h2.63101q.40746 0 .67522.1979.27939.1863.37253.5122l2.86384 10.0701q.10478.3725.18627.8149.0931.4307.17462.9197.0931-.489.19791-.9197.11642-.4424.24448-.8149l3.30623-10.0701q.0931-.2677.36089-.4889.2794-.2212.67521-.2212h.91969q.40746 0 .67522.1979.26776.1863.37253.5122l3.28295 10.0701q.25611.745.44238 1.6531.0815-.454.16298-.8731.0931-.4191.18627-.78l2.86385-10.0701q.0815-.291.36089-.5005.2794-.2096.67521-.2096h2.45639l-5.2271 16.8338h-2.82892l-3.67876-11.5019q-.0698-.2212-.15134-.4773-.0698-.2561-.1397-.5472-.0698.2911-.15135.5472-.0698.2561-.1397.4773l-3.71368 11.5019h-2.82892zM584.61407 1840.3132h-2.42146q-.40746 0-.67522-.1979-.25612-.2095-.37253-.5122l-1.2573-3.4343h-6.97335l-1.2573 3.4343q-.0931.2677-.37253.4889-.26776.2212-.66357.2212h-2.43311l6.61246-16.8338h3.20145zm-10.89658-6.3563h5.3668l-2.04893-5.5996q-.1397-.3726-.31433-.8732-.16298-.5122-.32597-1.1059-.16298.5937-.32596 1.1059-.15134.5123-.30268.8964zM589.60688 1833.7357v6.5775h-3.1316v-16.8338h5.13397q1.72296 0 2.94533.3609 1.23402.3492 2.01401.9895.79163.6403 1.15252 1.5367.37253.8848.37253 1.9558 0 .8499-.25611 1.6066-.24448.7567-.72178 1.3737-.46567.617-1.16417 1.0827-.68686.4656-1.57162.745.59372.3376 1.02446.9663l4.21428 6.2166h-2.81728q-.40746 0-.6985-.163-.2794-.1629-.47731-.4656l-3.53906-5.3901q-.1979-.3027-.44238-.4307-.23283-.1281-.6985-.1281zm0-2.2468h1.9558q.88476 0 1.5367-.2212.66357-.2212 1.08267-.6054.43074-.3958.64029-.9313.20955-.5355.20955-1.1758 0-1.2806-.84984-1.9675-.8382-.6868-2.5728-.6868h-2.00237zM612.22188 1823.4794v2.4913h-7.4623v4.6683h5.87904v2.4098h-5.87904v4.7615h7.4623v2.5029h-10.61719v-16.8338zM623.95121 1826.5412q-.12806.2561-.30269.3609-.16298.1047-.39581.1047-.23283 0-.52388-.1746-.29104-.1863-.68685-.4075-.39582-.2211-.93133-.3958-.52388-.1862-1.24566-.1862-.65193 0-1.14088.1629-.47731.1514-.81492.4308-.32596.2794-.48895.6752-.16298.3842-.16298.8498 0 .5938.32597.9896.3376.3958.88476.6752.54716.2794 1.24566.5006.6985.2212 1.42028.4773.73342.2445 1.43192.5821.6985.3259 1.24566.8382.54716.5006.87312 1.234.33761.7334.33761 1.7812 0 1.1408-.39582 2.142-.38417.9896-1.14088 1.7346-.74506.7335-1.82774 1.1642-1.08267.4191-2.47967.4191-.80327 0-1.58326-.163-.77999-.1513-1.50178-.4424-.71014-.291-1.33879-.6985-.617-.4074-1.10595-.908l.90805-1.5018q.12805-.163.30268-.2677.18627-.1165.40746-.1165.29104 0 .62865.2445.3376.2328.79163.5239.46566.291 1.08267.5355.62865.2328 1.50177.2328 1.33879 0 2.07222-.6286.73342-.6403.73342-1.8278 0-.6635-.33761-1.0826-.32596-.4191-.87312-.6985-.54716-.2911-1.24566-.489-.6985-.1979-1.42028-.4307-.72178-.2328-1.42028-.5588-.6985-.326-1.24566-.8499-.54715-.5238-.88476-1.3038-.32597-.7917-.32597-1.9442 0-.9197.36089-1.7928.37254-.8731 1.07104-1.5483.71014-.6752 1.7346-1.0827 1.02447-.4075 2.33997-.4075 1.49013 0 2.74743.4657t2.14207 1.3039zM634.92019 1833.7706v6.5426h-3.13161v-6.5426l-6.13515-10.2912h2.75907q.40746 0 .64029.1979.24448.1979.40746.5006l3.08504 5.6229q.26776.5006.46567.9546.1979.4424.36089.8732.15134-.4424.3376-.8848.19791-.454.46567-.943l3.06175-5.6229q.12806-.2561.38418-.4773t.65193-.2212h2.77071zM651.69108 1826.5412q-.12806.2561-.30269.3609-.16298.1047-.39581.1047-.23284 0-.52388-.1746-.29104-.1863-.68685-.4075-.39582-.2211-.93134-.3958-.52387-.1862-1.24565-.1862-.65194 0-1.14088.1629-.47731.1514-.81492.4308-.32597.2794-.48895.6752-.16298.3842-.16298.8498 0 .5938.32596.9896.33761.3958.88477.6752.54716.2794 1.24566.5006.69849.2212 1.42028.4773.73342.2445 1.43192.5821.6985.3259 1.24566.8382.54715.5006.87312 1.234.33761.7334.33761 1.7812 0 1.1408-.39582 2.142-.38417.9896-1.14088 1.7346-.74507.7335-1.82774 1.1642-1.08267.4191-2.47967.4191-.80327 0-1.58326-.163-.78-.1513-1.50178-.4424-.71014-.291-1.33879-.6985-.61701-.4074-1.10595-.908l.90804-1.5018q.12806-.163.30269-.2677.18626-.1165.40745-.1165.29105 0 .62865.2445.33761.2328.79164.5239.46566.291 1.08267.5355.62865.2328 1.50177.2328 1.33879 0 2.07222-.6286.73342-.6403.73342-1.8278 0-.6635-.33761-1.0826-.32596-.4191-.87312-.6985-.54716-.2911-1.24566-.489-.6985-.1979-1.42028-.4307-.72178-.2328-1.42028-.5588-.6985-.326-1.24566-.8499-.54715-.5238-.88476-1.3038-.32597-.7917-.32597-1.9442 0-.9197.36089-1.7928.37254-.8731 1.07103-1.5483.71014-.6752 1.73461-1.0827t2.33997-.4075q1.49013 0 2.74743.4657t2.14206 1.3039zM667.03731 1823.4794v2.5728h-5.06411v14.261h-3.13161v-14.261h-5.0874v-2.5728zM679.66159 1823.4794v2.4913h-7.4623v4.6683h5.87904v2.4098h-5.87904v4.7615h7.4623v2.5029h-10.61718v-16.8338zM690.82048 1833.3282q.19791.3726.36089.78.17463.3958.33761.8033.16298-.4191.33761-.8266.17462-.4074.37253-.7799l4.98263-9.325q.0931-.1746.18626-.2794.10478-.1048.22119-.1513.12806-.047.2794-.058.15134-.012.36089-.012h2.36326v16.8338h-2.75907v-10.8733q0-.3027.0116-.6635.0233-.3609.0582-.7335l-5.0874 9.5462q-.17463.326-.45403.5122-.2794.1746-.65193.1746h-.43074q-.37253 0-.65193-.1746-.2794-.1862-.45403-.5122l-5.15725-9.5811q.0466.3842.0582.7567.0233.3609.0233.6752v10.8733h-2.75907v-16.8338h2.36326q.20955 0 .36089.012t.26776.058q.12805.047.23283.1513.10477.1048.19791.2794l5.02919 9.3482zM714.63202 1823.4794v2.4913h-7.4623v4.6683h5.87904v2.4098h-5.87904v4.7615h7.4623v2.5029h-10.61718v-16.8338z" style="font-style:normal;font-weight:700;font-size:23.2833px;line-height:1.25;font-family:Lato;-inkscape-font-specification:'Lato Bold';text-align:start;letter-spacing:0;text-anchor:start;fill:#fff;stroke-width:.264583" transform="matrix(1.15184 0 0 1.15184 -397.574303 -2034.81363837)"/><g><path d="M490.92915 1811.2091h-1.84785v-13.6493h1.84785zM495.53241 1797.5598q.24765 0 .36195.067.12382.057.27622.2476l7.90575 10.287q-.0286-.2476-.0381-.4762-.01-.2382-.01-.4572v-9.6679h1.61925v13.6493h-.93345q-.21908 0-.37148-.076-.14287-.076-.28575-.2572l-7.89622-10.2774q.019.2381.0286.4667.01.2286.01.4191v9.725h-1.61925v-13.6493h.9525zM515.0655 1809.8661q.55245 0 1.00965-.048.46673-.057.8763-.162.40958-.1047.77153-.2476.36195-.1524.7239-.3429v-3.0099h-2.11455q-.18098 0-.29528-.1048-.10477-.1048-.10477-.2572v-1.0477h4.191v5.2387q-.51435.3715-1.07633.6477-.55245.2763-1.19062.4668-.62865.1809-1.35255.2667-.7239.095-1.57163.095-1.4859 0-2.72415-.5048-1.23825-.5144-2.1336-1.4288-.89535-.9239-1.40017-2.2098-.4953-1.2858-.4953-2.8289 0-1.5621.48577-2.848.4953-1.2858 1.40018-2.2002.9144-.924 2.20027-1.4288 1.2954-.5048 2.8956-.5048.80963 0 1.50495.1238.69533.1143 1.28588.3429.60007.2191 1.1049.5429.50482.3144.94297.7144l-.52387.8382q-.16193.2572-.4191.2572-.1524 0-.33338-.1048-.23812-.1333-.5334-.3238-.29527-.1905-.7239-.362-.4191-.181-1.00012-.3048-.5715-.1238-1.36208-.1238-1.15252 0-2.08597.381-.93345.3715-1.59068 1.0763-.65722.6953-1.00965 1.6955-.35242.9906-.35242 2.2288 0 1.2954.36195 2.3146.37147 1.0096 1.03822 1.7145.66675.7048 1.58115 1.0763.9144.3715 2.0193.3715zM531.37945 1797.5598v1.5049h-6.5532v4.5339h5.30542v1.4478h-5.30542v4.6578h6.5532v1.5049h-8.41058v-13.6493zM534.97186 1797.5598q.24765 0 .36195.067.12383.057.27623.2476l7.90575 10.287q-.0286-.2476-.0381-.4762-.01-.2382-.01-.4572v-9.6679h1.61925v13.6493h-.93345q-.21907 0-.37147-.076-.14288-.076-.28575-.2572l-7.89623-10.2774q.019.2381.0286.4667.01.2286.01.4191v9.725h-1.61925v-13.6493h.9525zM550.60923 1811.2091h-1.84785v-13.6493h1.84785zM562.67056 1797.5598v1.5049h-6.5532v4.5339h5.30542v1.4478h-5.30542v4.6578h6.5532v1.5049h-8.41058v-13.6493zM570.6159 1809.7423q.84772 0 1.51447-.2858.66675-.2857 1.12395-.8001.46673-.5143.70485-1.2287.24765-.7144.24765-1.5716v-8.2963h1.83833v8.2963q0 1.1811-.381 2.1907-.37148 1.0097-1.07633 1.7526-.69532.7334-1.70497 1.1525-1.00965.4191-2.26695.4191t-2.26695-.4191q-1.00965-.4191-1.7145-1.1525-.70485-.7429-1.08585-1.7526-.37148-1.0096-.37148-2.1907v-8.2963h1.83833v8.2867q0 .8573.23812 1.5717.24765.7143.70485 1.2287.46673.5143 1.13348.8096.67627.2858 1.524.2858zM581.25472 1805.5132v5.6959h-1.83832v-13.6493h3.85762q1.2954 0 2.23838.2667.94297.2572 1.55257.7525.61913.4953.9144 1.2001.29528.6953.29528 1.5621 0 .7239-.2286 1.3526-.2286.6286-.66675 1.1334-.42863.4953-1.05728.8478-.61912.3524-1.4097.5334.3429.2.6096.581l3.98145 5.4197h-1.6383q-.50482 0-.74295-.3905l-3.5433-4.8768q-.16192-.2286-.35242-.3239-.1905-.1047-.5715-.1047zm0-1.3431h1.93358q.80962 0 1.41922-.1905.61913-.2 1.0287-.5524.4191-.362.62865-.8573.20955-.4953.20955-1.0953 0-1.2192-.80962-1.8384-.8001-.6191-2.39078-.6191h-2.0193zM591.50422 1811.2091v-13.6493h4.35293q1.2573 0 2.16217.2476.9144.2477 1.49543.7049.59055.4572.86677 1.1239.28575.6573.28575 1.4859 0 .5049-.16193.9716-.15239.4667-.47624.8668-.31433.4-.8001.7143-.47625.3144-1.12395.5144 1.49542.2953 2.25742 1.0763.762.7811.762 2.0574 0 .8668-.32385 1.5812-.31433.7143-.93345 1.2287-.6096.5143-1.50495.8001-.88582.2762-2.02882.2762zm1.84785-6.2198v4.753h2.95275q.79058 0 1.35255-.181.5715-.181.93345-.5048.37148-.3334.54293-.7811.17145-.4572.17145-1.0001 0-1.0573-.75248-1.6669-.74295-.6191-2.25742-.6191zm0-1.3145h2.4384q.78105 0 1.35255-.1714.5715-.1715.94298-.4763.381-.3048.56197-.7334.18098-.4381.18098-.9525 0-1.2001-.7239-1.7621t-2.2479-.562h-2.50508zM609.12517 1809.7423q.84773 0 1.51448-.2858.66675-.2857 1.12395-.8001.46672-.5143.70485-1.2287.24765-.7144.24765-1.5716v-8.2963h1.83832v8.2963q0 1.1811-.381 2.1907-.37147 1.0097-1.07632 1.7526-.69533.7334-1.70498 1.1525-1.00965.4191-2.26695.4191t-2.26695-.4191q-1.00965-.4191-1.7145-1.1525-.70485-.7429-1.08585-1.7526-.37147-1.0096-.37147-2.1907v-8.2963h1.83832v8.2867q0 .8573.23813 1.5717.24765.7143.70485 1.2287.46672.5143 1.13347.8096.67628.2858 1.524.2858zm-.98107-14.4018q0 .2095-.0857.4-.0857.181-.2286.3239-.14287.1428-.3429.2286-.1905.076-.40957.076-.20003 0-.39053-.076-.18097-.086-.32385-.2286-.14287-.1429-.2286-.3239-.0857-.1905-.0857-.4 0-.2191.0857-.4096.0857-.2.2286-.3429.14288-.1429.32385-.2286.1905-.086.39053-.086.21907 0 .40957.086.20003.086.3429.2286.14288.1429.2286.3429.0857.1905.0857.4096zm4.05765 0q0 .2095-.0857.4-.0857.181-.2286.3239-.14287.1428-.33337.2286-.1905.076-.40005.076-.21908 0-.40958-.076-.1905-.086-.33337-.2286-.14288-.1429-.2286-.3239-.0762-.1905-.0762-.4 0-.2191.0762-.4096.0857-.2.2286-.3429.14287-.1429.33337-.2286.1905-.086.40958-.086.20955 0 .40005.086.1905.086.33337.2286.14288.1429.2286.3429.0857.1905.0857.4096zM619.76399 1805.5132v5.6959h-1.83832v-13.6493h3.85762q1.2954 0 2.23838.2667.94297.2572 1.55257.7525.61913.4953.9144 1.2001.29528.6953.29528 1.5621 0 .7239-.2286 1.3526-.2286.6286-.66675 1.1334-.42863.4953-1.05728.8478-.61912.3524-1.4097.5334.3429.2.6096.581l3.98145 5.4197h-1.6383q-.50482 0-.74295-.3905l-3.5433-4.8768q-.16192-.2286-.35242-.3239-.1905-.1047-.5715-.1047zm0-1.3431h1.93358q.80962 0 1.41922-.1905.61913-.2 1.0287-.5524.4191-.362.62865-.8573.20955-.4953.20955-1.0953 0-1.2192-.80962-1.8384-.8001-.6191-2.39078-.6191h-2.0193zM642.24479 1804.3892q0 1.5335-.48577 2.8194-.48578 1.2764-1.3716 2.2003-.88583.9239-2.1336 1.4383-1.23825.5048-2.7432.5048-1.50495 0-2.7432-.5048-1.23825-.5144-2.12408-1.4383-.88582-.9239-1.3716-2.2003-.48577-1.2859-.48577-2.8194 0-1.5335.48577-2.8099.48578-1.2858 1.3716-2.2098.88583-.9334 2.12408-1.4478 1.23825-.5143 2.7432-.5143 1.50495 0 2.7432.5143 1.24777.5144 2.1336 1.4478.88582.924 1.3716 2.2098.48577 1.2764.48577 2.8099zm-1.89547 0q0-1.2573-.3429-2.2574t-.97155-1.6859q-.62865-.6954-1.524-1.0668-.89535-.3715-2.00025-.3715-1.09538 0-1.99073.3715-.89535.3714-1.53352 1.0668-.62865.6858-.97155 1.6859t-.3429 2.2574q0 1.2573.3429 2.2574.3429.9906.97155 1.686.63817.6858 1.53352 1.0572.89535.362 1.99073.362 1.1049 0 2.00025-.362.89535-.3714 1.524-1.0572.62865-.6954.97155-1.686.3429-1.0001.3429-2.2574z" style="font-style:normal;font-size:19.05px;line-height:1.25;font-family:Lato;-inkscape-font-specification:Lato;text-align:start;letter-spacing:0;text-anchor:start;fill:#fff;stroke-width:.264583" transform="matrix(1.08154 0 0 1.08154 -269.040938 -1908.21770837)"/></g><path style="fill:none;stroke:#000;stroke-width:.264583px;stroke-linecap:butt;stroke-linejoin:miter;stroke-opacity:1" d="m315.00574 1784.9083 68.44443.4037" transform="translate(-314.20517 -1784.5114)"/><path style="fill:none;stroke:#fff;stroke-width:1.05833312;stroke-linecap:butt;stroke-linejoin:miter;stroke-miterlimit:4;stroke-dasharray:none;stroke-opacity:1" d="m315.00574 1784.9083 68.44443.4037" transform="translate(-314.20517 -1784.5114)"/><path style="fill:none;stroke:#fff;stroke-width:.943187;stroke-linecap:butt;stroke-linejoin:miter;stroke-miterlimit:4;stroke-dasharray:none;stroke-opacity:1" d="m314.54447 1827.205.51884-42.297" transform="translate(-314.20517 -1784.5114)"/><path style="fill:none;stroke:#fff;stroke-width:.943186;stroke-linecap:butt;stroke-linejoin:miter;stroke-miterlimit:4;stroke-dasharray:none;stroke-opacity:1" d="m762.31165 1900.3668-.51884-42.2969" transform="translate(-314.20517 -1784.5114)"/><path style="fill:none;stroke:#fff;stroke-width:1.05833312;stroke-linecap:butt;stroke-linejoin:miter;stroke-miterlimit:4;stroke-dasharray:none;stroke-opacity:1" d="m693.86715 1900.7705 68.4445-.4037" transform="translate(-314.20517 -1784.5114)"/></g></svg>