<?xml version="1.0" encoding="UTF-8" standalone="no"?>
<!-- Created with Inkscape (http://www.inkscape.org/) -->

<svg
   width="626.98315"
   height="266.14395"
   viewBox="0 0 165.88926 70.417232"
   version="1.1"
   id="svg168634"
   sodipodi:docname="logo-navbar.svg"
   inkscape:version="1.1.1 (c3084ef, 2021-09-22)"
   xmlns:inkscape="http://www.inkscape.org/namespaces/inkscape"
   xmlns:sodipodi="http://sodipodi.sourceforge.net/DTD/sodipodi-0.dtd"
   xmlns:xlink="http://www.w3.org/1999/xlink"
   xmlns="http://www.w3.org/2000/svg"
   xmlns:svg="http://www.w3.org/2000/svg">
  <sodipodi:namedview
     id="namedview1078"
     pagecolor="#cfcfcf"
     bordercolor="#666666"
     borderopacity="1.0"
     inkscape:pageshadow="2"
     inkscape:pageopacity="1"
     inkscape:pagecheckerboard="false"
     inkscape:document-units="mm"
     showgrid="true"
     inkscape:zoom="0.81656366"
     inkscape:cx="233.29473"
     inkscape:cy="251.05207"
     inkscape:window-width="1872"
     inkscape:window-height="1163"
     inkscape:window-x="41"
     inkscape:window-y="60"
     inkscape:window-maximized="0"
     inkscape:current-layer="layer3"
     fit-margin-top="0"
     fit-margin-left="0"
     fit-margin-right="0"
     fit-margin-bottom="2"
     showborder="true"
     inkscape:showpageshadow="false"
     units="px"
     inkscape:snap-grids="true"
     inkscape:snap-global="true"
     lock-margins="false" />
  <defs
     id="defs168631">
    <color-profile
       name="D65"
       xlink:href="file:///Library/ColorSync/Profiles/D65.icc"
       id="color-profile8310" />
    <rect
       x="309.9783"
       y="662.06946"
       width="85.606476"
       height="19.675682"
       id="rect4134" />
  </defs>
  <g
     inkscape:groupmode="layer"
     id="layer3"
     inkscape:label="logo"
     style="display:inline"
     transform="translate(64.391524,58.4598)">
    <g
       id="g3858"
       transform="translate(-100.50938,-68.668125)"
       style="fill:#ffffff;fill-opacity:1">
      <path
         d="m 49.270924,75.013405 q -0.533229,1.199774 -1.42195,2.088494 -0.844286,0.888719 -1.866316,1.46639 -1.022028,0.622107 -2.13293,0.933157 -1.066466,0.311044 -2.044059,0.311044 H 36.117856 L 66.423243,15.024728 q 1.02203,-2.221804 2.977213,-3.37714 1.955187,-1.155335 4.310299,-1.155335 h 5.59894 z"
         style="font-style:italic;font-weight:900;font-size:22.5778px;line-height:1.25;font-family:Lato;-inkscape-font-specification:'Lato Heavy Italic';font-variation-settings:normal;letter-spacing:0px;mix-blend-mode:normal;vector-effect:none;fill:#ffffff;fill-opacity:1;stroke:none;stroke-width:0.4956;stroke-linecap:butt;stroke-linejoin:miter;stroke-miterlimit:4;stroke-dasharray:none;stroke-dashoffset:0;stroke-opacity:0.201422;-inkscape-stroke:none;stop-color:#000000"
         id="path2716-0" />
      <path
         d="m 74.758614,75.013405 q -0.533232,1.199774 -1.421954,2.088494 -0.844284,0.888719 -1.866317,1.46639 -1.022028,0.622107 -2.132927,0.933157 -1.066466,0.311044 -2.044061,0.311044 H 61.605541 L 91.910926,15.024728 q 1.022029,-2.221804 2.977214,-3.37714 1.955189,-1.155335 4.310291,-1.155335 h 5.598939 z"
         style="font-style:italic;font-weight:900;font-size:22.5778px;line-height:1.25;font-family:Lato;-inkscape-font-specification:'Lato Heavy Italic';font-variation-settings:normal;letter-spacing:0px;vector-effect:none;fill:#ffffff;fill-opacity:1;stroke:none;stroke-width:0.4956;stroke-linecap:butt;stroke-linejoin:miter;stroke-miterlimit:4;stroke-dasharray:none;stroke-dashoffset:0;stroke-opacity:0.201422;-inkscape-stroke:none;stop-color:#000000"
         id="path2718-2" />
      <g
         id="g12720"
         transform="translate(107.85993,57.746609)"
         style="fill:#ffffff;fill-opacity:1">
        <path
           d="m 38.070402,-3.2235325 q -0.711687,5.7883806 -2.609525,10.4855244 -1.897842,4.6971441 -5.029272,8.0658401 -3.131431,3.368654 -7.496458,5.219057 -4.317582,1.802912 -9.916201,1.802912 -2.514635,0 -4.9343778,-0.284535 Q 5.7122713,21.78073 3.1501889,21.116338 L 4.2888931,12.243965 Q 4.4312448,11.057827 5.1429192,10.29866 5.8071641,9.4920844 7.3254351,9.4920844 q 1.1386998,0 2.5620772,0.2845353 1.4233777,0.2370423 3.1314337,0.2370423 3.843121,0 6.310306,-2.9890911 2.46719,-3.036542 3.273774,-9.8687511 l 5.408835,-44.6941038 h 15.46738 z"
           style="font-style:italic;font-weight:900;font-size:22.5778px;line-height:1.25;font-family:Lato;-inkscape-font-specification:'Lato Heavy Italic';font-variation-settings:normal;letter-spacing:0px;opacity:1;vector-effect:none;fill:#ffffff;fill-opacity:1;stroke:none;stroke-width:0.4956;stroke-linecap:butt;stroke-linejoin:miter;stroke-miterlimit:4;stroke-dasharray:none;stroke-dashoffset:0;stroke-opacity:0.201422;-inkscape-stroke:none;stop-color:#000000;stop-opacity:1"
           id="path1335-3" />
        <path
           d="M 92.628942,-35.629117 H 67.055579 l -2.087623,16.70096 H 84.563132 L 83.044861,-7.4462546 H 63.544578 L 61.456959,9.6817606 H 87.220103 L 85.701836,21.590676 H 44.423862 l 8.540269,-69.12875 h 41.183082 z"
           style="font-style:italic;font-weight:900;font-size:22.5778px;line-height:1.25;font-family:Lato;-inkscape-font-specification:'Lato Heavy Italic';font-variation-settings:normal;letter-spacing:0px;opacity:1;vector-effect:none;fill:#ffffff;fill-opacity:1;stroke:none;stroke-width:0.4956;stroke-linecap:butt;stroke-linejoin:miter;stroke-miterlimit:4;stroke-dasharray:none;stroke-dashoffset:0;stroke-opacity:0.201422;-inkscape-stroke:none;stop-color:#000000;stop-opacity:1"
           id="path1337-9" />
      </g>
    </g>
  </g>
</svg>
