<?xml version="1.0" encoding="UTF-8" standalone="no"?>
<!-- Created with Inkscape (http://www.inkscape.org/) -->

<svg
   width="97.407951"
   height="48"
   viewBox="0 0 25.772515 12.699996"
   version="1.1"
   id="svg168634"
   sodipodi:docname="logo-navbar.svg"
   inkscape:version="1.1 (c4e8f9e, 2021-05-24)"
   xmlns:inkscape="http://www.inkscape.org/namespaces/inkscape"
   xmlns:sodipodi="http://sodipodi.sourceforge.net/DTD/sodipodi-0.dtd"
   xmlns:xlink="http://www.w3.org/1999/xlink"
   xmlns="http://www.w3.org/2000/svg"
   xmlns:svg="http://www.w3.org/2000/svg">
  <sodipodi:namedview
     id="namedview1078"
     pagecolor="#cfcfcf"
     bordercolor="#666666"
     borderopacity="1.0"
     inkscape:pageshadow="2"
     inkscape:pageopacity="1"
     inkscape:pagecheckerboard="false"
     inkscape:document-units="mm"
     showgrid="true"
     inkscape:zoom="6.5325093"
     inkscape:cx="56.027475"
     inkscape:cy="24.569425"
     inkscape:window-width="1872"
     inkscape:window-height="1163"
     inkscape:window-x="41"
     inkscape:window-y="60"
     inkscape:window-maximized="0"
     inkscape:current-layer="layer3"
     fit-margin-top="0"
     fit-margin-left="0"
     fit-margin-right="0"
     fit-margin-bottom="2"
     showborder="true"
     inkscape:showpageshadow="false"
     units="px"
     inkscape:snap-grids="true"
     inkscape:snap-global="true"
     lock-margins="false" />
  <defs
     id="defs168631">
    <color-profile
       name="D65"
       xlink:href="../../../../../../Library/ColorSync/Profiles/D65.icc"
       id="color-profile2952" />
    <rect
       x="309.9783"
       y="662.06946"
       width="85.606476"
       height="19.675682"
       id="rect4134" />
  </defs>
  <g
     inkscape:groupmode="layer"
     id="layer3"
     inkscape:label="logo"
     style="display:inline"
     transform="translate(-5.5518001,17.885902)">
    <g
       id="use1150"
       transform="matrix(0.26458333,0,0,0.26458333,100.72788,192.81393)"
       style="fill:none;fill-opacity:1">
      <text
         xml:space="preserve"
         style="font-size:5.64444px;line-height:1.25;font-family:Lato;-inkscape-font-specification:'Lato, Normal';letter-spacing:0px;display:inline;fill:none;fill-opacity:1;stroke-width:0.264583"
         x="118.29476"
         y="280.90973"
         id="text2245"><tspan
           style="font-style:normal;font-variant:normal;font-weight:bold;font-stretch:normal;font-size:5.64444px;font-family:Lato;-inkscape-font-specification:'Lato Bold';text-align:center;text-anchor:middle;fill:none;fill-opacity:1;stroke-width:0.264583"
           x="118.29476"
           y="280.90973"
           id="tspan2243"><tspan
   style="font-style:normal;font-variant:normal;font-weight:bold;font-stretch:normal;font-size:4.93889px;font-family:Lato;-inkscape-font-specification:'Lato Bold';text-align:start;text-anchor:start;fill:none;fill-opacity:1"
   id="tspan2241">SOFTWARESYSTEME</tspan> </tspan></text>
      <text
         xml:space="preserve"
         style="font-size:4.23333px;line-height:1.25;font-family:Lato;-inkscape-font-specification:'Lato, Normal';letter-spacing:0px;display:inline;fill:none;fill-opacity:1;stroke-width:0.264583"
         x="111.48794"
         y="273.86356"
         id="text2249"><tspan
           style="font-style:normal;font-variant:normal;font-weight:normal;font-stretch:normal;font-size:4.23333px;font-family:Lato;-inkscape-font-specification:Lato;text-align:start;text-anchor:start;fill:none;fill-opacity:1;stroke-width:0.264583"
           x="111.48794"
           y="273.86356"
           id="tspan2247">INGENIEURBÜRO</tspan></text>
      <g
         id="g2261"
         transform="translate(82.821292,26.113883)"
         style="fill:none;fill-opacity:1">
        <g
           aria-label="//"
           id="g2255"
           style="font-size:22.5778px;line-height:1.25;font-family:Lato;-inkscape-font-specification:'Lato, Normal';letter-spacing:0px;fill:none;fill-opacity:1;stroke-width:0.264583"
           transform="translate(-48.953329,205.95104)">
          <path
             d="m 87.38547,33.581134 q -0.135466,0.3048 -0.361244,0.530578 -0.214489,0.225778 -0.474134,0.372534 -0.259645,0.158045 -0.541867,0.237067 -0.270934,0.07902 -0.51929,0.07902 h -1.444979 l 7.69903,-16.459217 q 0.259645,-0.564445 0.756356,-0.857956 0.496712,-0.293511 1.095024,-0.293511 h 1.422401 z"
             style="font-style:italic;font-weight:900;-inkscape-font-specification:'Lato Heavy Italic';fill:none;fill-opacity:1"
             id="path2251" />
          <path
             d="m 94.044158,33.581134 q -0.135467,0.3048 -0.361245,0.530578 -0.214489,0.225778 -0.474134,0.372534 -0.259645,0.158045 -0.541867,0.237067 -0.270934,0.07902 -0.51929,0.07902 h -1.444979 l 7.69903,-16.459217 q 0.259645,-0.564445 0.756356,-0.857956 0.496712,-0.293511 1.095021,-0.293511 h 1.4224 z"
             style="font-style:italic;font-weight:900;-inkscape-font-specification:'Lato Heavy Italic';fill:none;fill-opacity:1"
             id="path2253" />
        </g>
        <text
           xml:space="preserve"
           style="font-size:22.5778px;line-height:1.25;font-family:Lato;-inkscape-font-specification:'Lato, Normal';letter-spacing:0px;fill:none;fill-opacity:1;stroke-width:0.264583"
           x="56.741013"
           y="240.07968"
           id="text2259"><tspan
             id="tspan2257"
             style="font-style:italic;font-variant:normal;font-weight:900;font-stretch:normal;font-size:22.5778px;font-family:Lato;-inkscape-font-specification:'Lato Heavy Italic';fill:none;fill-opacity:1;stroke-width:0.264583"
             x="56.741013"
             y="240.07968">JE</tspan></text>
      </g>
    </g>
    <g
       id="g3679"
       transform="matrix(0.14298774,0,0,0.14298774,15.801643,-10.793414)">
      <g
         aria-label="//"
         id="g2720"
         style="font-size:22.5778px;line-height:1.25;font-family:Lato;-inkscape-font-specification:'Lato, Normal';letter-spacing:0px;fill:#ffffff;fill-opacity:1;stroke-width:0.264583"
         transform="matrix(4.2028845,0,0,4.2028845,-424.91041,-121.84818)">
        <path
           d="m 87.38547,33.581134 q -0.135466,0.3048 -0.361244,0.530578 -0.214489,0.225778 -0.474134,0.372534 -0.259645,0.158045 -0.541867,0.237067 -0.270934,0.07902 -0.51929,0.07902 h -1.444979 l 7.69903,-16.459217 q 0.259645,-0.564445 0.756356,-0.857956 0.496712,-0.293511 1.095024,-0.293511 h 1.422401 z"
           style="font-style:italic;font-weight:900;-inkscape-font-specification:'Lato Heavy Italic';fill:#ffffff;fill-opacity:1"
           id="path2716" />
        <path
           d="m 94.044158,33.581134 q -0.135467,0.3048 -0.361245,0.530578 -0.214489,0.225778 -0.474134,0.372534 -0.259645,0.158045 -0.541867,0.237067 -0.270934,0.07902 -0.51929,0.07902 h -1.444979 l 7.69903,-16.459217 q 0.259645,-0.564445 0.756356,-0.857956 0.496712,-0.293511 1.095021,-0.293511 h 1.4224 z"
           style="font-style:italic;font-weight:900;-inkscape-font-specification:'Lato Heavy Italic';fill:#ffffff;fill-opacity:1"
           id="path2718" />
      </g>
      <g
         aria-label="JE"
         id="text2724"
         style="font-size:22.5778px;line-height:1.25;font-family:Lato;-inkscape-font-specification:'Lato, Normal';letter-spacing:0px;fill:#ffffff;fill-opacity:1;stroke-width:0.264583"
         transform="matrix(4.2028845,0,0,4.2028845,-219.16522,-987.43649)">
        <path
           d="m 64.507776,234.17559 q -0.169333,1.37724 -0.620889,2.49484 -0.451557,1.1176 -1.196624,1.91912 -0.745067,0.80151 -1.783646,1.24178 -1.02729,0.42897 -2.35938,0.42897 -0.598312,0 -1.174046,-0.0677 -0.564445,-0.0677 -1.174046,-0.22578 l 0.270934,-2.11102 q 0.03387,-0.28222 0.2032,-0.46285 0.158045,-0.19191 0.51929,-0.19191 0.270933,0 0.6096,0.0677 0.338667,0.0564 0.745068,0.0564 0.914401,0 1.501423,-0.7112 0.587023,-0.72249 0.778935,-2.34809 l 1.286934,-10.63415 h 3.680182 z"
           style="font-style:italic;font-weight:900;-inkscape-font-specification:'Lato Heavy Italic'"
           id="path1335" />
        <path
           d="m 77.614895,226.46527 h -6.084717 l -0.496712,3.97369 h 4.662316 l -0.361245,2.73191 h -4.639738 l -0.496711,4.0753 h 6.129872 l -0.361244,2.83351 h -9.821344 l 2.032002,-16.44793 h 9.798766 z"
           style="font-style:italic;font-weight:900;-inkscape-font-specification:'Lato Heavy Italic'"
           id="path1337" />
      </g>
    </g>
  </g>
</svg>
