<svg width="1839.827" height="315.57828" viewBox="0 0 486.78745 83.496734" xmlns="http://www.w3.org/2000/svg"><defs><path id="c" d="M1600.6648 5530.2114h158.57976v94.550331H1600.6648z"/><path id="b" d="M157-13h55v40h-55z"/><filter style="color-interpolation-filters:sRGB" id="a" x="-.05642297" y="-.03515585" width="1.1128459" height="1.0703117"><feGaussianBlur stdDeviation="1.1384116"/></filter></defs><text xml:space="preserve" transform="matrix(.26458 0 0 .26458 270.28477 -1992.3231)" style="font-size:36px;line-height:1.25;font-family:Lato;-inkscape-font-specification:Lato;text-align:center;letter-spacing:0;white-space:pre;shape-inside:url(#b)"><tspan x="157" y="60.48"><tspan dx="0 20.882812 20.039062 14.484375 18.84375">Ehret</tspan></tspan></text><g style="display:inline"><g style="display:inline"><path style="display:inline;fill:#fff;fill-opacity:1;stroke:none;stroke-width:2;stroke-miterlimit:4;stroke-dasharray:none;stroke-opacity:1;stop-color:#000" d="M928.86914-425.63086c-146.89103 0-265.96871 70.99858-265.96875 158.58008 0 87.58188 119.07772 158.58203 265.96875 158.58203 146.89106 0 265.97066-71.00015 265.97066-158.58203 0-87.5815-119.0796-158.58008-265.97066-158.58008zm99.64256 60.57813c90.7787 0 164.3692 43.87646 164.3692 98.00195 0 54.12549-73.5905 98.0039-164.3692 98.0039-90.77862.00001-164.36912-43.87841-164.36912-98.0039.00004-54.12549 73.5905-98.00195 164.36912-98.00195z" transform="translate(-174.51649 112.05243) scale(.26326)"/><path style="display:inline;fill:#fff;fill-opacity:1;stroke:none;stroke-width:2;stroke-miterlimit:4;stroke-dasharray:none;stroke-opacity:1;stop-color:#000" d="M1089.3418-327.61523c-56.1012 0-101.58004 27.11487-101.58008 60.56445 0 33.44958 45.47888 60.56641 101.58008 60.5664 56.1012 0 101.5801-27.11682 101.5801-60.5664s-45.4789-60.56445-101.5801-60.56445zm35.8047 23.13476c34.6705 0 62.7754 16.75794 62.7754 37.42969 0 20.67213-28.1049 37.42969-62.7754 37.42969-34.6706 0-62.7774-16.75756-62.7774-37.42969.0001-20.67175 28.1068-37.42969 62.7774-37.42969z" transform="translate(-174.51649 112.05243) scale(.26326)"/><path style="display:inline;fill:#fff;fill-opacity:1;stroke:none;stroke-width:.529;stroke-miterlimit:4;stroke-dasharray:none;stroke-opacity:1;stop-color:#000" d="M313.51078-70.6571c0-3.3801-4.59568-6.1201-10.26474-6.1201-5.66907 0-10.26475 2.74-10.26477 6.1201 0 3.3802 4.59569 6.1203 10.26477 6.1203 5.66906 0 10.26474-2.7401 10.26474-6.1203z" transform="matrix(.995 0 0 .995 -174.51649 112.05243)"/></g><path d="m-371.95168 219.9435-.36078 2.87236h-8.0759l-.69381 5.70308h6.34139l-.3469 2.76135h-6.34139l-.72156 5.85573h8.10366l-.36078 2.87236h-11.71145l2.46995-20.06488zM-355.8584 240.00838h-3.62167l1.08234-8.81134h-8.43669l-1.08234 8.81134h-3.62167l2.46995-20.06488h3.62167l-1.08233 8.70033h8.45056l1.08233-8.70033h3.62167zM-347.59344 232.09898l-.97132 7.9094h-3.58005l2.45608-20.06488h5.70309q1.73451 0 2.96949.37465 1.23497.36078 2.02591 1.02684.79094.65217 1.1656 1.568.37465.91582.37465 2.01204 0 1.16559-.33302 2.19243-.31915 1.01295-.9297 1.84552-.61055.83257-1.49863 1.45699-.88807.62443-2.01203.97133.31915.19427.58279.47179.26365.27752.45792.66605l3.58004 7.47924h-3.23314q-.45791 0-.77706-.18039-.30528-.19427-.45792-.54117l-2.94174-6.5079q-.16651-.36078-.41628-.51342-.23589-.16652-.74931-.16652zm1.1656-9.38026-.84644 6.81318h2.08141q1.08234 0 1.85941-.30527.79093-.31915 1.29048-.86032.51341-.55505.76318-1.29048.24977-.73544.24977-1.58188 0-1.30436-.80481-2.03979-.80482-.73544-2.48383-.73544zM-321.27129 219.9435l-.36078 2.87236h-8.0759l-.69381 5.70308h6.34139l-.3469 2.76135h-6.34139l-.72156 5.85573h8.10366l-.36078 2.87236h-11.71145l2.46995-20.06488zM-305.28902 219.9435l-.37466 2.95561h-5.49495l-2.10917 17.10927h-3.58004l2.0953-17.10927h-5.50883l.36078-2.95561z" style="font-style:italic;font-size:23.2833px;line-height:1.25;font-family:Lato;-inkscape-font-specification:'Lato Bold Italic';text-align:center;letter-spacing:0;text-anchor:middle;fill:#fcfbfb;stroke-width:.315367" transform="translate(552.08515 -207.54708)"/><path d="M-295.00161 240.00838h-3.74656V219.9435h3.74656zM-288.52276 219.9435q.24977 0 .41628.0277.16652.0139.2914.0832.13876.0555.26365.18039.12488.11101.27752.30528l10.53198 13.41821q-.0555-.48566-.0832-.94357-.0139-.47179-.0139-.8742v-12.19712h3.28864v20.06488h-1.92878q-.44403 0-.73543-.13876-.2914-.13876-.56892-.49954l-10.49036-13.36271q.0416.44404.0555.88807.0277.43016.0277.79094v12.322h-3.28864V219.9435ZM-236.79212 219.9435v2.96949h-8.8946v5.56433h7.00744v2.87235h-7.00744v5.67534h8.8946v2.98337h-12.65503V219.9435ZM-231.60896 219.9435q.24977 0 .41629.0277.16651.0139.2914.0832.13876.0555.26364.18039.12489.11101.27753.30528l10.53198 13.41821q-.0555-.48566-.0833-.94357-.0139-.47179-.0139-.8742v-12.19712h3.28865v20.06488h-1.92879q-.44403 0-.73543-.13876-.2914-.13876-.56892-.49954l-10.49035-13.36271q.0416.44404.0555.88807.0277.43016.0277.79094v12.322h-3.28864V219.9435ZM-208.38422 240.00838h-3.74656V219.9435h3.74656zM-191.20688 219.9435v2.96949h-8.8946v5.56433h7.00744v2.87235h-7.00744v5.67534h8.8946v2.98337h-12.65503V219.9435ZM-179.90435 236.99726q1.08234 0 1.92879-.36078.86033-.36078 1.44312-1.01296.59668-.65218.90194-1.58188.31916-.9297.31916-2.08142V219.9435h3.73267v12.01672q0 1.79002-.58279 3.3164-.56892 1.5125-1.65126 2.62259-1.08234 1.09621-2.62259 1.72064-1.54025.61055-3.46904.61055-1.92877 0-3.46902-.61055-1.54025-.62443-2.62259-1.72064-1.06847-1.11009-1.65126-2.62259-.56892-1.52638-.56892-3.3164V219.9435h3.73268v12.00285q0 1.15172.30528 2.08142.31914.9297.90194 1.59575.58279.65218 1.42924 1.01296.86033.36078 1.94265.36078zM-163.90473 232.16837v7.84001h-3.73268V219.9435h6.11938q2.05366 0 3.51065.43016 1.47088.41628 2.40057 1.17947.94358.76319 1.37374 1.83165.44404 1.05458.44404 2.33119 0 1.01295-.30528 1.9149-.2914.90195-.86031 1.63739-.55505.73543-1.38762 1.29047-.8187.55505-1.87328.88808.70768.40241 1.2211 1.15172l5.02316 7.40985h-3.35803q-.48566 0-.83256-.19427-.33303-.19426-.56892-.55504l-4.21835-6.42465q-.23588-.36078-.52729-.51342-.27752-.15263-.83257-.15263zm0-2.6781h2.33119q1.05459 0 1.83165-.26364.79094-.26365 1.29048-.72156.51341-.47179.76318-1.11009.24977-.6383.24977-1.40149 0-1.52637-1.01295-2.34507-.99909-.81869-3.06662-.81869h-2.3867zM-149.60407 240.00838V219.9435h6.92418q1.97041 0 3.35802.37465 1.4015.37466 2.28956 1.06846.90195.69381 1.31824 1.67902.41628.9852.41628 2.22018 0 .70768-.20815 1.35986-.20813.6383-.65218 1.20722-.43015.55504-1.11008 1.01296-.66606.45791-1.59576.77706 4.13508.9297 4.13508 4.46811 0 1.27661-.48565 2.35895-.48567 1.08233-1.41537 1.87327-.9297.77707-2.28956 1.2211-1.35987.44404-3.10825.44404zm3.73267-8.79747v5.88348h3.78818q1.04071 0 1.73452-.24977.70768-.24977 1.12397-.66605.43015-.41629.61054-.97133.19428-.55505.19428-1.17947 0-.65218-.20815-1.1656-.20814-.52729-.65218-.88807-.44404-.37466-1.13784-.56892-.6938-.19427-1.67901-.19427zm0-2.58096h2.98336q1.90104 0 2.88624-.6938.9852-.69381.9852-2.20631 0-1.568-.88806-2.23405-.88808-.66606-2.77523-.66606h-3.19151zM-123.42415 236.99726q1.08234 0 1.92878-.36078.86032-.36078 1.44312-1.01296.59667-.65218.90195-1.58188.31914-.9297.31914-2.08142V219.9435h3.73268v12.01672q0 1.79002-.58279 3.3164-.56893 1.5125-1.65127 2.62259-1.08234 1.09621-2.62258 1.72064-1.54025.61055-3.46903.61055-1.92878 0-3.46904-.61055-1.54025-.62443-2.62259-1.72064-1.06845-1.11009-1.65125-2.62259-.56892-1.52638-.56892-3.3164V219.9435h3.73267v12.00285q0 1.15172.30528 2.08142.31915.9297.90195 1.59575.5828.65218 1.42924 1.01296.86032.36078 1.94266.36078zm-1.13785-20.12039q0 .37466-.15264.70769-.15263.33302-.41628.58279-.26365.24977-.61055.38853-.3469.13877-.73544.13877-.36077 0-.6938-.13877-.31916-.13876-.56893-.38853-.24977-.24977-.40239-.58279-.13877-.33303-.13877-.70769 0-.37465.13877-.70768.15262-.3469.40239-.59667.24977-.26365.56893-.41629.33303-.15263.6938-.15263.38854 0 .73544.15263.3469.15264.61055.41629.26365.24977.41628.59667.15264.33303.15264.70768zm5.99448 0q0 .37466-.15262.70769-.13877.33302-.38854.58279-.24977.24977-.59667.38853-.33303.13877-.72157.13877-.37465 0-.72155-.13877-.33303-.13876-.59667-.38853-.24977-.24977-.40241-.58279-.13877-.33303-.13877-.70769 0-.37465.13877-.70768.15264-.3469.40241-.59667.26364-.26365.59667-.41629.3469-.15263.72155-.15263.38854 0 .72157.15263.3469.15264.59667.41629.24977.24977.38854.59667.15262.33303.15262.70768zM-107.42455 232.16837v7.84001h-3.73267V219.9435h6.11937q2.05366 0 3.51066.43016 1.47087.41628 2.400567 1.17947.943574.76319 1.373745 1.83165.444032 1.05458.444032 2.33119 0 1.01295-.305279 1.9149-.291393.90195-.860317 1.63739-.55505.73543-1.387619 1.29047-.818679.55505-1.873269.88808.70768.40241 1.2211 1.15172l5.02315 7.40985h-3.358024q-.485655 0-.832557-.19427-.333029-.19426-.568919-.55504l-4.21835-6.42465q-.23589-.36078-.5273-.51342-.27752-.15263-.83257-.15263zm0-2.6781h2.33119q1.05459 0 1.83165-.26364.79094-.26365 1.29048-.72156.51341-.47179.76319-1.11009.24977-.6383.24977-1.40149 0-1.52637-1.01296-2.34507-.99908-.81869-3.06662-.81869h-2.3867zM-74.528165 229.97594q0 2.2063-.735438 4.09346-.735426 1.87327-2.067536 3.24701-1.33211 1.37374-3.205384 2.1508-1.873286.76319-4.14897.76319t-4.162832-.76319q-1.873274-.77706-3.219258-2.1508-1.33211-1.37374-2.067548-3.24701-.735438-1.88716-.735438-4.09346 0-2.20631.735438-4.07958.735438-1.88716 2.067548-3.26089 1.345984-1.37374 3.219258-2.13693 1.887148-.77706 4.162832-.77706t4.14897.77706q1.873274.77707 3.205384 2.1508 1.33211 1.35986 2.067536 3.24702.735438 1.87327.735438 4.07958zm-3.829805 0q0-1.65126-.444044-2.95562-.430159-1.31823-1.248854-2.23405-.818682-.91583-1.998153-1.40149-1.165596-.48567-2.636472-.48567-1.470864 0-2.650334.48567-1.179471.48566-2.012039 1.40149-.818695.91582-1.262728 2.23405-.444033 1.30436-.444033 2.95562 0 1.65126.444033 2.96949.444033 1.30435 1.262728 2.22018.832568.90195 2.012039 1.38761 1.17947.48567 2.650334.48567 1.470876 0 2.636472-.48567 1.179471-.48566 1.998153-1.38761.818695-.91583 1.248854-2.22018.444044-1.31823.444044-2.96949zM-260.28874 237.2609q1.26272 0 2.19242-.22201.94358-.2359 1.79002-.63831v-3.64942h-2.51157q-.36078 0-.56892-.19426-.20815-.20814-.20815-.49954v-2.10917h6.67442v8.11753q-.76319.55505-1.59575.97133-.8187.40241-1.76227.66605-.9297.26365-1.99816.38853-1.06847.13877-2.30344.13877-2.19243 0-4.03795-.76319-1.84553-.76319-3.19151-2.12305-1.34599-1.35986-2.10918-3.24701-.74931-1.88716-.74931-4.12121 0-2.26181.73544-4.14897.73543-1.88715 2.08142-3.24701 1.35986-1.35986 3.28864-2.10917 1.92878-.74931 4.32935-.74931 2.45608 0 4.2461.73543 1.80389.72156 3.05274 1.88716l-1.08233 1.69289q-.31916.51341-.84645.51341-.33302 0-.67993-.22202-.44403-.26364-.91582-.52729-.45792-.26365-1.02684-.45791-.55504-.19427-1.26272-.31915-.69381-.12489-1.60963-.12489-1.48475 0-2.69197.49954-1.19335.49954-2.03979 1.42924-.84645.9297-1.30436 2.23406-.45791 1.30436-.45791 2.91399 0 1.73451.48566 3.09437.48567 1.34599 1.35986 2.27569.8742.9297 2.08142 1.42924 1.20722.48566 2.63647.48566z" style="font-weight:700;font-size:23.2833px;line-height:1.25;font-family:Lato;-inkscape-font-specification:'Lato Bold';text-align:center;letter-spacing:0;text-anchor:middle;fill:#fcfbfb;stroke-width:.315367" transform="translate(552.08515 -207.54708)"/><g style="display:inline"><path d="M-22.977824-41.916051q-.128058.256117-.302683.360891-.162983.104775-.395816.104775t-.523874-.174625q-.291042-.186266-.686858-.407457-.395816-.221192-.931332-.395816-.523874-.186267-1.245656-.186267-.651933 0-1.140882.162983-.477308.151342-.814916.430741-.325966.2794-.488949.675216-.162983.384175-.162983.849841 0 .593724.325966.98954.337608.395816.884766.675216.547157.279399 1.245656.50059.698499.221192 1.420282.477308.733424.244475 1.431923.582083.698499.325966 1.245656.838198.547158.500591.873124 1.234015.337608.733424.337608 1.781173 0 1.140882-.395816 2.142064-.384175.98954-1.140882 1.734605-.745066.733424-1.827739 1.164165-1.082674.4191-2.479672.4191-.803274 0-1.583264-.162983-.779991-.151342-1.501773-.442383-.710141-.291041-1.33879-.698499-.617007-.407458-1.105957-.908049l.908049-1.501773q.128058-.162983.302683-.267758.186266-.116416.407458-.116416.291041 0 .628649.244475.337608.232833.791632.523874.465666.291041 1.082674.535516.628649.232833 1.501773.232833 1.338789 0 2.072213-.628649.733424-.640291.733424-1.827739 0-.663574-.337608-1.082674-.325966-.419099-.873123-.698499-.547158-.291041-1.245657-.488949-.698499-.197908-1.420281-.430741-.721783-.232833-1.420282-.558799-.698499-.325967-1.245656-.849841-.547158-.523874-.884766-1.303865-.325966-.791632-.325966-1.944155 0-.919691.360891-1.792814.372533-.873124 1.071032-1.54834.710141-.675216 1.734606-1.082673 1.024465-.407458 2.339972-.407458 1.490131 0 2.747429.465666 1.257298.465666 2.142064 1.303865zM-3.347455-36.560892q0 1.851023-.6170075 3.434287-.6170075 1.571623-1.7346059 2.724146-1.1175984 1.152524-2.6892212 1.804456-1.5716228.640291-3.4808534.640291-1.909231 0-3.492495-.640291-1.571623-.651932-2.700863-1.804456-1.117598-1.152523-1.734606-2.724146-.617007-1.583264-.617007-3.434287 0-1.851022.617007-3.422645.617008-1.583264 1.734606-2.735788 1.12924-1.152523 2.700863-1.792814 1.583264-.651932 3.492495-.651932 1.9092306 0 3.4808534.651932 1.5716228.651933 2.6892212 1.804456 1.1175984 1.140882 1.7346059 2.724146.6170075 1.571623.6170075 3.422645zm-3.2130955 0q0-1.385356-.3725328-2.479671-.3608912-1.105957-1.0477485-1.874306-.6868574-.768349-1.6763977-1.175807-.9778985-.407457-2.2119135-.407457t-2.223555.407457q-.98954.407458-1.688039 1.175807-.686858.768349-1.059391 1.874306-.372532 1.094315-.372532 2.479671 0 1.385357.372532 2.491313.372533 1.094316 1.059391 1.862664.698499.756708 1.688039 1.164166.98954.407457 2.223555.407457 1.234015 0 2.2119135-.407457.9895403-.407458 1.6763977-1.164166.6868573-.768348 1.0477485-1.862664.3725328-1.105956.3725328-2.491313zM9.7221159-44.977805v2.491313H2.2598181v4.982627h6.2981327v2.502954H2.2598181v6.856932H-.89506913v-16.833826zM24.019156-44.977805V-42.405h-5.064117v14.261021h-3.131604V-42.405h-5.087401v-2.572805zM24.466268-44.977805h2.631013q.407458 0 .675215.197908.2794.186267.372533.512233l2.863846 10.070027q.104775.372533.186267.814916.09313.430741.174624.91969.09313-.488949.197908-.91969.116417-.442383.244475-.814916l3.306229-10.070027q.09313-.267758.360891-.488949.279399-.221192.675216-.221192h.91969q.407458 0 .675216.197908.267758.186267.372532.512233l3.282946 10.070027q.256116.745066.442383 1.653115.08149-.454025.162983-.873124.09313-.4191.186266-.779991l2.863846-10.070027q.08149-.291041.360891-.500591.2794-.20955.675216-.20955h2.456388l-5.227101 16.833826H40.49682l-3.678761-11.50195q-.06985-.221191-.151342-.477308-.06985-.256116-.1397-.547157-.06985.291041-.151341.547157-.06985.256117-.1397.477308l-3.713686 11.50195h-2.828921zM63.833231-28.143979h-2.421463q-.407458 0-.675216-.197908-.256116-.209549-.372533-.512232l-1.257298-3.434287h-6.973348l-1.257299 3.434287q-.09313.267758-.372533.488949-.267757.221191-.663574.221191h-2.433104l6.612457-16.833826h3.201454zM52.936646-34.50032h5.366801l-2.04893-5.599633q-.1397-.372533-.314325-.873124-.162983-.512233-.325966-1.105957-.162983.593724-.325966 1.105957-.151342.512232-.302683.896407zM68.826043-34.721511v6.577532h-3.131604v-16.833826h5.133968q1.722964 0 2.945338.360891 1.234014.34925 2.014005.989541.791632.64029 1.152523 1.536697.372533.884766.372533 1.955798 0 .84984-.256116 1.606547-.244475.756708-.721782 1.373715-.465666.617008-1.164165 1.082674-.686858.465666-1.571623.745065.593724.337608 1.024465.966257l4.214277 6.216641h-2.817279q-.407458 0-.698499-.162983-.2794-.162983-.477308-.465666l-3.539061-5.390084q-.197908-.302683-.442383-.430741-.232833-.128058-.698499-.128058zm0-2.246838h1.955797q.884766 0 1.536698-.221192.663574-.221191 1.082674-.605366.430741-.395816.64029-.931332.20955-.535516.20955-1.175806 0-1.280582-.84984-1.967439-.838199-.686858-2.572805-.686858h-2.002364zM91.441041-44.977805v2.491313h-7.462297v4.668302h5.879033v2.409822h-5.879033v4.761435h7.462297v2.502954H80.823856v-16.833826zM103.17037-41.916051q-.12806.256117-.30268.360891-.16299.104775-.39582.104775t-.52387-.174625q-.29105-.186266-.68686-.407457-.39582-.221192-.93133-.395816-.523878-.186267-1.24566-.186267-.651932 0-1.140882.162983-.477307.151342-.814915.430741-.325966.2794-.48895.675216-.162983.384175-.162983.849841 0 .593724.325967.98954.337607.395816.884765.675216.547158.279399 1.245657.50059.698499.221192 1.420281.477308.73342.244475 1.43192.582083.6985.325966 1.24566.838198.54716.500591.87312 1.234015.33761.733424.33761 1.781173 0 1.140882-.39582 2.142064-.38417.98954-1.14088 1.734605-.74506.733424-1.82774 1.164165-1.082669.4191-2.479667.4191-.803274 0-1.583265-.162983-.77999-.151342-1.501773-.442383-.71014-.291041-1.338789-.698499-.617008-.407458-1.105957-.908049l.908049-1.501773q.128058-.162983.302682-.267758.186267-.116416.407458-.116416.291041 0 .628649.244475.337608.232833.791633.523874.465666.291041 1.082673.535516.628649.232833 1.501773.232833 1.33879 0 2.072214-.628649.73342-.640291.73342-1.827739 0-.663574-.3376-1.082674-.32597-.419099-.87313-.698499-.547156-.291041-1.245655-.488949-.698499-.197908-1.420281-.430741-.721782-.232833-1.420281-.558799-.698499-.325967-1.245657-.849841-.547157-.523874-.884765-1.303865-.325966-.791632-.325966-1.944155 0-.919691.360891-1.792814.372533-.873124 1.071032-1.54834.71014-.675216 1.734605-1.082673 1.024466-.407458 2.339972-.407458 1.490135 0 2.747425.465666 1.2573.465666 2.14207 1.303865zM114.13935-34.686586v6.542607h-3.13161v-6.542607l-6.13515-10.291219h2.75908q.40745 0 .64029.197908.24447.197908.40745.500591l3.08504 5.622917q.26776.500591.46567.954616.19791.442382.36089.873123.15134-.442382.33761-.884765.1979-.454024.46566-.942974l3.06176-5.622917q.12805-.256116.38417-.477307.25612-.221192.65193-.221192h2.77072zM130.91024-41.916051q-.12806.256117-.30269.360891-.16298.104775-.39581.104775-.23283 0-.52388-.174625-.29104-.186266-.68685-.407457-.39582-.221192-.93134-.395816-.52387-.186267-1.24565-.186267-.65193 0-1.14088.162983-.47731.151342-.81492.430741-.32597.2794-.48895.675216-.16298.384175-.16298.849841 0 .593724.32596.98954.33761.395816.88477.675216.54716.279399 1.24566.50059.6985.221192 1.42028.477308.73342.244475 1.43192.582083.6985.325966 1.24566.838198.54716.500591.87312 1.234015.33761.733424.33761 1.781173 0 1.140882-.39582 2.142064-.38417.98954-1.14088 1.734605-.74506.733424-1.82774 1.164165-1.08267.4191-2.47967.4191-.80327 0-1.58326-.162983-.77999-.151342-1.50178-.442383-.71014-.291041-1.33879-.698499-.617-.407458-1.10595-.908049l.90805-1.501773q.12805-.162983.30268-.267758.18627-.116416.40746-.116416.29104 0 .62865.244475.3376.232833.79163.523874.46566.291041 1.08267.535516.62865.232833 1.50177.232833 1.33879 0 2.07222-.628649.73342-.640291.73342-1.827739 0-.663574-.33761-1.082674-.32596-.419099-.87312-.698499-.54716-.291041-1.24566-.488949-.6985-.197908-1.42028-.430741-.72178-.232833-1.42028-.558799-.6985-.325967-1.24566-.849841-.54715-.523874-.88476-1.303865-.32597-.791632-.32597-1.944155 0-.919691.36089-1.792814.37254-.873124 1.07104-1.54834.71014-.675216 1.7346-1.082673 1.02447-.407458 2.33997-.407458 1.49013 0 2.74743.465666t2.14207 1.303865zM146.25648-44.977805V-42.405h-5.06412v14.261021h-3.13161V-42.405h-5.0874v-2.572805zM158.88075-44.977805v2.491313h-7.46229v4.668302h5.87903v2.409822h-5.87903v4.761435h7.46229v2.502954h-10.61718v-16.833826zM170.03964-35.128969q.19791.372533.36089.779991.17463.395816.33761.803274.16298-.4191.33761-.826557.17462-.407458.37253-.779991l4.98263-9.324962q.0931-.174625.18626-.279399.10478-.104775.22119-.151342.12806-.04657.2794-.05821.15135-.01164.3609-.01164h2.36325v16.833826h-2.75907V-39.01728q0-.302683.0116-.663574.0233-.360891.0582-.733424l-5.0874 9.546153q-.17463.325966-.45403.512233-.2794.174625-.65193.174625h-.43074q-.37253 0-.65193-.174625-.2794-.186267-.45403-.512233l-5.15725-9.581078q.0466.384175.0582.756707.0233.360892.0233.675216v10.873301h-2.75907v-16.833826h2.36326q.20955 0 .36089.01164t.26776.05821q.12806.04657.23283.151342.10477.104774.19791.279399l5.02919 9.348245zM193.85118-44.977805v2.491313h-7.4623v4.668302h5.87904v2.409822h-5.87904v4.761435h7.4623v2.502954H183.234v-16.833826z" style="font-weight:700;font-size:23.2833px;line-height:1.25;font-family:Lato;-inkscape-font-specification:'Lato Bold';text-align:center;letter-spacing:0;baseline-shift:baseline;text-anchor:middle;vector-effect:none;fill:#fcfbfb;stroke-width:.264583;stop-color:#000" transform="matrix(1.4573 0 0 1.4573 204.28756 118.64786)"/></g></g></svg>