<svg width="242.284mm" height="61.452801mm" viewBox="0 0 242.28394 61.452788" xmlns="http://www.w3.org/2000/svg"><defs><path id="c" d="M1600.6648 5530.2114h158.57976v94.550331H1600.6648z"/><path id="b" d="M157-13h55v40h-55z"/><filter style="color-interpolation-filters:sRGB" id="a" x="-.05642297" y="-.03515585" width="1.1128459" height="1.0703117"><feGaussianBlur stdDeviation="1.1384116"/></filter></defs><text xml:space="preserve" transform="matrix(.26458 0 0 .26458 -130.80684 -2119.5875)" style="font-size:36px;line-height:1.25;font-family:Lato;-inkscape-font-specification:Lato;text-align:center;letter-spacing:0;white-space:pre;shape-inside:url(#b)"><tspan x="157" y="60.48"><tspan dx="0 20.882812 20.039062 14.484375 18.84375">Ehret</tspan></tspan></text><g style="display:inline"><path style="display:inline;vector-effect:none;fill:#000;fill-opacity:.35;stroke-width:.382182;stroke-opacity:.968165;stop-color:#000" d="M-150.99354 334.81151H91.2904v61.45279h-242.28394z" transform="translate(150.99354 -334.81151)"/><path d="M-302.08827 455.48564v1.16769h-3.49758v2.18804h2.75551v1.12948h-2.75551v2.23169h3.49758v1.17314h-4.97628v-7.89004zM-300.0501 455.48564q.0982 0 .16369.0109.0655.005.11458.0327.0546.0219.10373.0709.049.0436.10913.12005l4.14145 5.27639q-.0219-.19097-.0327-.37104-.005-.18552-.005-.34376v-4.79623h1.29318v7.89005h-.75845q-.1746 0-.28919-.0546-.11458-.0546-.22371-.19644l-4.12508-5.25456q.0163.17461.0219.34921.0109.16915.0109.31102v4.84534h-1.29318v-7.89005h.76936zM-288.94775 462.2953q.49654 0 .86211-.0873.37105-.0928.70389-.251v-1.43504h-.98762q-.14186 0-.22372-.0765-.0818-.0818-.0818-.19643v-.82937h2.62456v3.19203q-.30011.21825-.6275.38195-.32193.15823-.69297.2619-.36558.10373-.78573.15278-.42015.0546-.90577.0546-.86212 0-1.58783-.30011-.72571-.3001-1.25498-.83484-.52928-.53472-.82939-1.27681-.29464-.74207-.29464-1.62056 0-.8894.28919-1.63148.28919-.74209.81847-1.27681.53474-.53474 1.29318-.82939.75844-.29465 1.70242-.29465.96579 0 1.66967.2892.70934.28373 1.20042.74208l-.42561.66568q-.1255.20189-.33284.20189-.13095 0-.26737-.0873-.1746-.10372-.36012-.20734-.18006-.10373-.40378-.18006-.21826-.0764-.49653-.12551-.27283-.049-.63296-.049-.58384 0-1.05855.19643-.46925.19643-.8021.56201-.33284.36558-.51291.87849-.18006.51291-.18006 1.14586 0 .68205.19098 1.21678.19097.52928.53474.89486.34375.36559.81846.56202.47472.19098 1.03673.19098zM-283.03125 463.37568h-1.47324v-7.89004h1.47324zM-280.48359 455.48564q.0982 0 .16369.0109.0655.005.11458.0327.0546.0219.10373.0709.0492.0436.10913.12005l4.14145 5.27639q-.0219-.19097-.0327-.37104-.005-.18552-.005-.34376v-4.79623h1.29318v7.89005h-.75846q-.1746 0-.28919-.0546t-.22372-.19644l-4.12507-5.25456q.0164.17461.0219.34921.0109.16915.0109.31102v4.84534h-1.29318v-7.89005h.76936zM-268.02804 455.48564v1.16769h-3.49759v2.18804h2.75551v1.12948h-2.75551v2.23169h3.49759v1.17314h-4.97629v-7.89004zM-261.78295 455.48564v1.16769h-3.49759v2.18804h2.75551v1.12948h-2.75551v2.23169h3.49759v1.17314h-4.97629v-7.89004zM-258.99726 460.29278v3.0829h-1.46779v-7.89004h2.4063q.80756 0 1.38048.16915.57839.16369.94397.4638.37104.30011.54019.72025.1746.4147.1746.91668 0 .39832-.12004.753-.11459.35466-.33829.64385-.21826.2892-.54566.50746-.32193.21826-.73661.34922.27828.15823.48017.45288l1.97523 2.91375h-1.32046q-.19098 0-.32739-.0763-.13095-.0764-.22371-.21826l-1.65877-2.52634q-.0928-.14186-.20734-.20189-.10913-.06-.32739-.06zm0-1.05309h.91668q.4147 0 .72026-.10373.31102-.10373.50745-.28374.20189-.18552.30011-.43651.0982-.25101.0982-.55111 0-.60021-.39832-.92214-.39288-.32193-1.20588-.32193h-.93851zM-251.72057 463.37568h-1.47324v-7.89004h1.47324zM-249.17291 455.48564q.0982 0 .1637.0109.0655.005.11457.0327.0546.0219.10362.0709.0492.0436.10913.12005l4.14146 5.27639q-.0219-.19097-.0327-.37104-.005-.18552-.005-.34376v-4.79623h1.29318v7.89005h-.75844q-.17462 0-.28921-.0546-.11457-.0546-.2237-.19644l-4.12509-5.25456q.0164.17461.0219.34921.0109.16915.0109.31102v4.84534h-1.29318v-7.89005h.76935zM-238.07055 462.2953q.49654 0 .86211-.0873.37104-.0928.70389-.251v-1.43504h-.98762q-.14187 0-.22372-.0765-.0819-.0818-.0819-.19643v-.82937h2.62456v3.19203q-.30011.21825-.6275.38195-.32193.15823-.69297.2619-.36559.10373-.78573.15278-.42015.0546-.90577.0546-.86212 0-1.58783-.30011-.72571-.3001-1.25498-.83484-.52928-.53472-.82939-1.27681-.29464-.74207-.29464-1.62056 0-.8894.28919-1.63148.28919-.74209.81847-1.27681.53472-.53474 1.29318-.82939.75844-.29465 1.7024-.29465.9658 0 1.66969.2892.70934.28373 1.20042.74208l-.42561.66568q-.1255.20189-.33284.20189-.13095 0-.26737-.0873-.1746-.10372-.36012-.20734-.18007-.10373-.40378-.18006-.21826-.0764-.49654-.12551-.27283-.049-.63295-.049-.58384 0-1.05855.19643-.46926.19643-.8021.56201-.33285.36558-.51291.87849t-.18006 1.14586q0 .68205.19098 1.21678.19097.52928.53472.89486.34377.36559.81848.56202.4747.19098 1.03673.19098zM-224.12914 459.43066q0 .86758-.28919 1.60965-.28919.73663-.81301 1.27681-.52383.54019-1.26044.84575-.73663.30011-1.63149.30011-.89486 0-1.63693-.30011-.73662-.30556-1.2659-.84575-.52382-.54018-.81301-1.27681-.28919-.74207-.28919-1.60965t.28919-1.6042q.28919-.74208.81301-1.28226.52928-.5402 1.2659-.8403.74207-.30557 1.63693-.30557t1.63149.30557q.73661.30556 1.26044.84575.52382.53473.81301 1.27681.28919.73662.28919 1.6042zm-1.50598 0q0-.64932-.17461-1.16223-.16914-.51836-.49108-.87849-.32193-.36012-.78573-.5511-.45834-.19097-1.03673-.19097-.57838 0-1.04217.19097-.46381.19098-.79119.5511-.32193.36013-.49654.87849-.17461.51291-.17461 1.16223 0 .64932.17461 1.16768.17461.51291.49654.87303.32738.35467.79119.54565.46379.19098 1.04217.19098.57839 0 1.03673-.19098.4638-.19098.78573-.54565.32194-.36012.49108-.87303.17461-.51836.17461-1.16768zM-218.00341 455.48564v1.16769h-3.49759v2.33535h2.95194v1.17314h-2.95194v3.21386h-1.4787v-7.89004z" style="font-weight:700;font-size:10.0789px;line-height:1.25;font-family:Lato;-inkscape-font-specification:'Lato, Bold';text-align:center;letter-spacing:0;baseline-shift:baseline;text-anchor:middle;vector-effect:none;fill:#fff;stroke-width:.227352;stop-color:#000" transform="translate(376.72843 -374.756417) scale(.88757)"/><g aria-label="SOFTWARE SYSTEMS" style="font-size:14.8167px;line-height:1.25;font-family:Lato;-inkscape-font-specification:'Lato, Normal';text-align:center;letter-spacing:0;text-anchor:middle;stroke-width:.264583"><path d="M-318.89665 472.18825q-.0815.16299-.19261.22966-.10372.0667-.25189.0667t-.33337-.11113q-.18521-.11853-.4371-.25929-.25188-.14076-.59267-.25188-.33337-.11854-.79269-.11854-.41487 0-.72602.10372-.30374.0963-.51858.27411-.20744.1778-.31115.42968-.10372.24448-.10372.54081 0 .37783.20743.62971.21485.25189.56304.42969t.79269.31856q.4445.14075.90382.30374.46673.15557.91123.37042.4445.20743.79269.5334.34819.31856.55563.78528.21484.46673.21484 1.13348 0 .72602-.25188 1.36314-.24448.62971-.72602 1.10384-.47414.46673-1.16311.74083-.68898.26671-1.57798.26671-.51118 0-1.00754-.10372-.49636-.0963-.95567-.28152-.45191-.18521-.85196-.4445-.39265-.25929-.7038-.57785l.57785-.95568q.0815-.10372.19262-.17039.11853-.0741.25929-.0741.18521 0 .40005.15557.21485.14817.50377.33338.29634.18521.68898.34078.40005.14817.95568.14817.85196 0 1.31868-.40005.46673-.40746.46673-1.16311 0-.42228-.21484-.68898-.20744-.2667-.55563-.4445-.34819-.18521-.79269-.31115-.4445-.12594-.90382-.27411-.45932-.14817-.90382-.3556-.4445-.20744-.79269-.54081-.3482-.33338-.56304-.82974-.20743-.50376-.20743-1.23719 0-.58526.22966-1.14089.23706-.55562.68156-.98531.45191-.42968 1.10385-.68897.65193-.2593 1.48908-.2593.94827 0 1.74837.29634.8001.29633 1.36313.82973zM-306.40455 475.59609q0 1.17793-.39264 2.18547-.39264 1.00012-1.10385 1.73355-.7112.73343-1.71132 1.1483-1.00013.40746-2.2151.40746t-2.22251-.40746q-1.00012-.41487-1.71873-1.1483-.71121-.73343-1.10385-1.73355-.39264-1.00754-.39264-2.18547 0-1.17792.39264-2.17805.39264-1.00754 1.10385-1.74096.71861-.73343 1.71873-1.14089 1.00754-.41487 2.22251-.41487t2.2151.41487q1.00012.41487 1.71132 1.1483.71121.72601 1.10385 1.73355.39264 1.00013.39264 2.17805zm-2.0447 0q0-.88159-.23707-1.57797-.22966-.7038-.66675-1.19275t-1.0668-.74824q-.62231-.25929-1.40759-.25929-.78529 0-1.415.25929t-1.07421.74824q-.43709.48895-.67416 1.19275-.23706.69638-.23706 1.57797 0 .8816.23706 1.58539.23707.69639.67416 1.18534.4445.48154 1.07421.74083.62971.25929 1.415.25929.78528 0 1.40759-.25929.62971-.25929 1.0668-.74083.43709-.48895.66675-1.18534.23707-.70379.23707-1.58539zM-298.08752 470.23986v1.58538h-4.74875v3.17078h4.00792v1.59279h-4.00792v4.36352h-2.00766v-10.71247zM-288.98937 470.23986v1.63724h-3.22263v9.07523h-1.99285v-9.07523h-3.23745v-1.63724zM-288.70484 470.23986h1.67428q.2593 0 .42969.12594.1778.11853.23707.32597l1.82245 6.40822q.0667.23707.11853.51858.0593.27411.11113.58526.0593-.31115.12594-.58526.0741-.28151.15558-.51858l2.10397-6.40822q.0593-.1704.22966-.31115.1778-.14076.42968-.14076h.58526q.25929 0 .42968.12594.1704.11853.23707.32597l2.08916 6.40822q.16298.47413.28151 1.05199.0519-.28893.10372-.55563.0593-.2667.11853-.49636l1.82246-6.40822q.0519-.18521.22966-.31856.1778-.13335.42968-.13335h1.56316l-3.32635 10.71247h-1.80023l-2.34103-7.31945q-.0444-.14076-.0963-.30374-.0444-.16298-.0889-.34819-.0444.18521-.0963.34819-.0444.16298-.0889.30374l-2.36326 7.31945h-1.80023zM-263.65304 480.95233h-1.54094q-.25929 0-.42969-.12594-.16298-.13335-.23706-.32597l-.8001-2.18546h-4.43761l-.8001 2.18546q-.0593.17039-.23707.31115-.17039.14076-.42227.14076h-1.54835l4.20795-10.71247h2.03729zm-6.93422-4.04496h3.41525l-1.30387-3.56341q-.0889-.23707-.20003-.55563-.10371-.32597-.20743-.70379-.10372.37782-.20743.70379-.0963.32597-.19262.57044zM-260.47579 476.76661v4.18572h-1.99284v-10.71247h3.26708q1.09643 0 1.87431.22966.78529.22225 1.28165.62971.50376.40746.73342.9779.23707.56303.23707 1.2446 0 .54081-.16298 1.02235-.15558.48155-.45932.87419-.29634.39264-.74084.68898-.43709.29633-1.00012.47413.37782.21484.65193.61489l2.68182 3.95606h-1.79282q-.25929 0-.4445-.10372-.1778-.10371-.30374-.29633l-2.25214-3.43007q-.12594-.19261-.28152-.2741-.14816-.0815-.4445-.0815zm0-1.42981h1.24461q.56303 0 .9779-.14076.42227-.14076.68897-.38523.27411-.25188.40746-.59267.13335-.34078.13335-.74824 0-.81492-.54081-1.25201-.5334-.4371-1.63724-.4371h-1.27424zM-246.08437 470.23986v1.58538h-4.74875v2.97075h3.74121v1.53353h-3.74121v3.03002h4.74875v1.59279h-6.75642v-10.71247zM-235.75528 472.18825q-.0815.16299-.19262.22966-.10372.0667-.25188.0667-.14817 0-.33338-.11113-.18521-.11853-.43709-.25929-.25189-.14076-.59267-.25188-.33338-.11854-.79269-.11854-.41487 0-.72602.10372-.30374.0963-.51859.27411-.20743.1778-.31115.42968-.10371.24448-.10371.54081 0 .37783.20743.62971.21484.25189.56303.42969.3482.1778.7927.31856.4445.14075.90382.30374.46672.15557.91122.37042.4445.20743.7927.5334.34819.31856.55562.78528.21485.46673.21485 1.13348 0 .72602-.25189 1.36314-.24447.62971-.72602 1.10384-.47413.46673-1.16311.74083-.68897.26671-1.57798.26671-.51117 0-1.00753-.10372-.49636-.0963-.95568-.28152-.45191-.18521-.85196-.4445-.39264-.25929-.70379-.57785l.57785-.95568q.0815-.10372.19262-.17039.11853-.0741.25929-.0741.18521 0 .40005.15557.21484.14817.50377.33338.29633.18521.68897.34078.40005.14817.95568.14817.85196 0 1.31869-.40005.46672-.40746.46672-1.16311 0-.42228-.21484-.68898-.20743-.2667-.55563-.4445-.34819-.18521-.79269-.31115-.4445-.12594-.90382-.27411-.45932-.14817-.90382-.3556-.4445-.20744-.79269-.54081-.34819-.33338-.56303-.82974-.20744-.50376-.20744-1.23719 0-.58526.22966-1.14089.23707-.55562.68157-.98531.45191-.42968 1.10384-.68897.65194-.2593 1.48908-.2593.94827 0 1.74837.29634.8001.29633 1.36314.82973zM-228.77499 476.78884v4.16349h-1.99285v-4.16349l-3.9042-6.54898h1.75578q.25929 0 .40746.12594.15557.12594.25929.31856l1.96321 3.57823q.17039.31856.29634.60749.12594.28151.22966.55562.0963-.28151.21484-.56303.12594-.28893.29633-.60008l1.9484-3.57823q.0815-.16299.24447-.30374.16299-.14076.41487-.14076h1.76319zM-218.10257 472.18825q-.0815.16299-.19262.22966-.10372.0667-.25188.0667-.14817 0-.33338-.11113-.18521-.11853-.43709-.25929-.25189-.14076-.59267-.25188-.33338-.11854-.79269-.11854-.41487 0-.72602.10372-.30374.0963-.51859.27411-.20743.1778-.31115.42968-.10371.24448-.10371.54081 0 .37783.20743.62971.21484.25189.56303.42969.3482.1778.7927.31856.4445.14075.90382.30374.46672.15557.91122.37042.4445.20743.7927.5334.34819.31856.55562.78528.21485.46673.21485 1.13348 0 .72602-.25189 1.36314-.24447.62971-.72602 1.10384-.47413.46673-1.16311.74083-.68897.26671-1.57798.26671-.51117 0-1.00753-.10372-.49636-.0963-.95568-.28152-.45191-.18521-.85196-.4445-.39264-.25929-.70379-.57785l.57785-.95568q.0815-.10372.19262-.17039.11853-.0741.25929-.0741.18521 0 .40005.15557.21484.14817.50377.33338.29633.18521.68897.34078.40005.14817.95568.14817.85196 0 1.31869-.40005.46672-.40746.46672-1.16311 0-.42228-.21484-.68898-.20743-.2667-.55563-.4445-.34819-.18521-.79269-.31115-.4445-.12594-.90382-.27411-.45932-.14817-.90382-.3556-.4445-.20744-.79269-.54081-.34819-.33338-.56303-.82974-.20744-.50376-.20744-1.23719 0-.58526.22966-1.14089.23707-.55562.68157-.98531.45191-.42968 1.10384-.68897.65194-.2593 1.48908-.2593.94827 0 1.74837.29634.8001.29633 1.36314.82973zM-208.33674 470.23986v1.63724h-3.22264v9.07523h-1.99284v-9.07523h-3.23745v-1.63724zM-200.30309 470.23986v1.58538h-4.74875v2.97075h3.74121v1.53353h-3.74121v3.03002h4.74875v1.59279h-6.75642v-10.71247zM-193.20195 476.50732q.12594.23707.22966.49636.11113.25188.21484.51118.10372-.2667.21484-.526.11113-.25929.23707-.49636l3.17078-5.93408q.0593-.11113.11853-.1778.0667-.0667.14076-.0963.0815-.0296.1778-.037.0963-.007.22966-.007h1.50389v10.71247h-1.75578v-6.9194q0-.19261.007-.42227.0148-.22966.037-.46673l-3.23745 6.07485q-.11112.20743-.28892.32597-.1778.11112-.41487.11112h-.27411q-.23706 0-.41487-.11112-.1778-.11854-.28892-.32597l-3.2819-6.09707q.0296.24447.037.48154.0148.22966.0148.42968v6.9194h-1.75578v-10.71247h1.50389q.13336 0 .22966.007t.1704.037q.0815.0296.14816.0963.0667.0667.12594.1778l3.20041 5.9489zM-179.06404 472.18825q-.0815.16299-.19261.22966-.10372.0667-.25189.0667-.14816 0-.33337-.11113-.18521-.11853-.4371-.25929-.25188-.14076-.59266-.25188-.33338-.11854-.7927-.11854-.41487 0-.72602.10372-.30374.0963-.51858.27411-.20743.1778-.31115.42968-.10372.24448-.10372.54081 0 .37783.20744.62971.21484.25189.56303.42969t.79269.31856q.4445.14075.90382.30374.46673.15557.91123.37042.4445.20743.79269.5334.3482.31856.55563.78528.21484.46673.21484 1.13348 0 .72602-.25188 1.36314-.24448.62971-.72602 1.10384-.47414.46673-1.16311.74083-.68898.26671-1.57798.26671-.51118 0-1.00754-.10372-.49636-.0963-.95567-.28152-.45191-.18521-.85196-.4445-.39265-.25929-.7038-.57785l.57785-.95568q.0815-.10372.19262-.17039.11854-.0741.25929-.0741.18521 0 .40006.15557.21484.14817.50376.33338.29634.18521.68898.34078.40005.14817.95568.14817.85196 0 1.31868-.40005.46673-.40746.46673-1.16311 0-.42228-.21484-.68898-.20744-.2667-.55563-.4445-.34819-.18521-.79269-.31115-.4445-.12594-.90382-.27411-.45932-.14817-.90382-.3556-.4445-.20744-.79269-.54081-.3482-.33338-.56304-.82974-.20743-.50376-.20743-1.23719 0-.58526.22966-1.14089.23706-.55562.68156-.98531.45191-.42968 1.10385-.68897.65193-.2593 1.48908-.2593.94827 0 1.74837.29634.8001.29633 1.36313.82973z" style="font-weight:700;-inkscape-font-specification:'Lato, Bold';baseline-shift:baseline;opacity:1;vector-effect:none;fill:#fff;stop-color:#000;stop-opacity:1" transform="matrix(.91328 0 0 .91328 401.416 -384.880945)"/></g><g style="display:inline"><path style="display:inline;fill:#fff;fill-opacity:1;stroke:none;stroke-width:.731013;stroke-miterlimit:4;stroke-dasharray:none;stroke-opacity:1;stop-color:#000" d="M-271.07296 186.16718c-53.68966 0-97.21334 25.95045-97.21335 57.96207 0 32.01177 43.52369 57.9628 97.21335 57.9628 53.68965 0 97.21404-25.95103 97.21404-57.9628 0-32.01162-43.52439-57.96207-97.21404-57.96207zm36.42001 22.14171c33.18021 0 60.07803 16.03714 60.07803 35.82036 0 19.78323-26.89782 35.82108-60.07803 35.82108-33.18018 0-60.07801-16.03785-60.07801-35.82108.00001-19.78322 26.89783-35.82036 60.07801-35.82036z" transform="matrix(.45346 0 0 .47004 170.783647 -84.02494)"/><path style="display:inline;fill:#fff;fill-opacity:1;stroke:none;stroke-width:.731013;stroke-miterlimit:4;stroke-dasharray:none;stroke-opacity:1;stop-color:#000" d="M-212.41915 221.99255c-20.50536 0-37.12817 9.91066-37.12818 22.1367 0 12.22605 16.62282 22.13743 37.12818 22.13743 20.50537 0 37.1282-9.91138 37.1282-22.13743 0-12.22604-16.62283-22.1367-37.1282-22.1367zm13.08686 8.45591c12.67229 0 22.94483 6.12514 22.94483 13.68079 0 7.55581-10.27254 13.68081-22.94483 13.68081-12.67233 0-22.94556-6.125-22.94556-13.68081.00004-7.55565 10.27323-13.68079 22.94556-13.68079z" transform="matrix(.45346 0 0 .47004 170.783647 -84.02494)"/><path style="display:inline;fill:#fff;fill-opacity:1;stroke:none;stroke-width:.730783;stroke-miterlimit:4;stroke-dasharray:none;stroke-opacity:1;stop-color:#000" d="M-177.48361 244.12935c0-4.66942-6.34867-8.45456-14.18015-8.45456-7.8315 0-14.18018 3.78514-14.18021 8.45456 0 4.66955 6.3487 8.45485 14.18021 8.45485 7.83148 0 14.18015-3.7853 14.18015-8.45485z" transform="matrix(.45346 0 0 .47004 170.783647 -84.02494)"/></g><g><path d="M-321.17927 442.66147q0 .60396-.14852 1.08911-.14851.48514-.44554.82673-.29208.34158-.73267.52475-.4406.18317-1.02476.18317-.26732 0-.52475-.0346-.25742-.0297-.5396-.099l.0693-.79208q.01-.10891.0792-.17327.0743-.0693.21287-.0693.0842 0 .21783.0347.13861.0346.34653.0346.28218 0 .5-.0792.21782-.0842.36139-.26237.14851-.17822.22277-.4604.0743-.28713.0743-.69307v-4.64356h1.33168zM-316.84759 444.13176q.38614 0 .68812-.12871.30693-.12871.51485-.36138.21287-.23268.32178-.56436.11386-.33168.11386-.74258v-4.28712h1.33169v4.28712q0 .63862-.20792 1.18317-.20297.53961-.58911.93565-.38614.39109-.93565.61386-.5495.21782-1.23762.21782t-1.23762-.21782q-.54951-.22277-.93565-.61386-.38118-.39604-.5891-.93565-.20298-.54455-.20298-1.18317v-4.28712h1.33169v4.28217q0 .4109.10891.74258.11386.33168.32178.56931.20792.23267.5099.36138.30693.12871.69307.12871zm-.40594-7.17821q0 .13366-.0545.25247-.0544.11882-.14851.20792-.0941.0891-.21782.13862-.12376.0495-.26238.0495-.12871 0-.24752-.0495-.11386-.0495-.20297-.13862-.0891-.0891-.14357-.20792-.0495-.11881-.0495-.25247 0-.13366.0495-.25248.0545-.12376.14357-.21287.0891-.0941.20297-.14851.11881-.0545.24752-.0545.13862 0 .26238.0545.12376.0544.21782.14851.0941.0891.14851.21287.0545.11882.0545.25248zm2.13861 0q0 .13366-.0545.25247-.0495.11882-.13862.20792-.0891.0891-.21287.13862-.11881.0495-.25742.0495-.13367 0-.25743-.0495-.11881-.0495-.21287-.13862-.0891-.0891-.14356-.20792-.0495-.11881-.0495-.25247 0-.13366.0495-.25248.0544-.12376.14356-.21287.0941-.0941.21287-.14851.12376-.0545.25743-.0545.13861 0 .25742.0545.12377.0544.21287.14851.0891.0891.13862.21287.0545.11882.0545.25248zM-311.13951 442.40899v2.79703h-1.33169v-7.15841h2.18317q.73267 0 1.25248.15346.52475.14852.85643.42079.33663.27228.4901.65347.15842.37624.15842.83168 0 .36139-.10892.68317-.10396.32178-.30693.58416-.19802.26238-.49505.4604-.29207.19801-.66831.31683.25247.14356.43564.41089l1.79208 2.64356h-1.19802q-.17327 0-.29703-.0693-.11881-.0693-.20297-.19802l-1.50495-2.29207q-.0842-.12872-.18812-.18317-.099-.0545-.29703-.0545zm0-.95544h.83168q.37624 0 .65346-.0941.28218-.0941.4604-.25743.18317-.16831.27228-.39604.0891-.22772.0891-.5 0-.54455-.36139-.83663-.35644-.29208-1.09406-.29208h-.85148zM-302.98249 444.22582q.45049 0 .78217-.0792.33664-.0842.63862-.22773v-1.30198h-.89604q-.12871 0-.20297-.0693-.0743-.0743-.0743-.17822v-.75248h2.38119v2.89604q-.27228.19802-.56931.34654-.29208.14356-.62871.23762-.33168.0941-.71287.13861-.38119.0495-.82178.0495-.78218 0-1.4406-.27228-.65841-.27228-1.13861-.75742-.4802-.48515-.75248-1.15842-.26732-.67327-.26732-1.4703 0-.80693.26237-1.48019.26238-.67327.74258-1.15842.48515-.48515 1.17326-.75247.68812-.26733 1.54456-.26733.87624 0 1.51485.26238.64356.25742 1.08911.67326l-.38614.60396q-.11386.18317-.30198.18317-.11881 0-.24258-.0792-.15841-.0941-.32673-.18812-.16336-.094-.36633-.16336-.19802-.0693-.4505-.11386-.24752-.0446-.57426-.0446-.5297 0-.96039.17822-.42574.17822-.72772.5099-.30198.33168-.46535.79703-.16337.46535-.16337 1.0396 0 .61882.17327 1.10396.17327.4802.48515.81189.31188.33168.74257.5099.4307.17326.9406.17326zM-294.59976 438.04761v1.0594h-3.17327v1.98515h2.5v1.02475h-2.5v2.02476h3.17327v1.06435h-4.51485v-7.15841zM-292.7506 438.04761q.0891 0 .14852.01.0594.005.10396.0297.0495.0198.0941.0644.0446.0396.099.10891l3.75742 4.78713q-.0198-.17327-.0297-.33664-.005-.16831-.005-.31188v-4.35148h1.17327v7.15841h-.68812q-.15842 0-.26238-.0495t-.20297-.17822l-3.74257-4.76733q.0149.15842.0198.31683.01.15347.01.28218v4.39604h-1.17326v-7.15841h.69801zM-279.53556 438.04761v1.0594h-3.17327v1.98515h2.5v1.02475h-2.5v2.02476h3.17327v1.06435h-4.51485v-7.15841zM-272.34482 445.20602h-1.34158v-3.12871h-3.35644v3.12871h-1.34158v-7.15841h1.34158v3.0792h3.35644v-3.0792h1.34158zM-269.52443 442.40899v2.79703h-1.33168v-7.15841h2.18317q.73267 0 1.25247.15346.52475.14852.85644.42079.33663.27228.4901.65347.15841.37624.15841.83168 0 .36139-.10891.68317-.10396.32178-.30693.58416-.19802.26238-.49505.4604-.29208.19801-.66832.31683.25248.14356.43565.41089l1.79208 2.64356h-1.19802q-.17327 0-.29703-.0693-.11881-.0693-.20297-.19802l-1.50495-2.29207q-.0842-.12872-.18812-.18317-.099-.0545-.29703-.0545zm0-.95544h.83168q.37624 0 .65347-.0941.28218-.0941.4604-.25743.18316-.16831.27227-.39604.0891-.22772.0891-.5 0-.54455-.36138-.83663-.35644-.29208-1.09406-.29208h-.85149zM-259.90763 438.04761v1.0594h-3.17327v1.98515h2.5v1.02475h-2.5v2.02476h3.17327v1.06435h-4.51485v-7.15841zM-253.71194 438.04761v1.09406h-2.15346v6.06435h-1.33168v-6.06435h-2.16337v-1.09406z" style="font-weight:700;font-size:38.1px;line-height:1.25;font-family:Lato;-inkscape-font-specification:'Lato, Bold';text-align:center;letter-spacing:0;text-anchor:middle;fill:#fff;stroke-width:.0687568" transform="translate(428.78212 -429.331285)"/></g></g></svg>