<svg width="1683.5575" height="459.34351" viewBox="0 0 445.44115 121.53461" xmlns="http://www.w3.org/2000/svg"><defs><path id="c" d="M1600.6648 5530.2114h158.57976v94.550331H1600.6648z"/><path id="b" d="M157-13h55v40h-55z"/><clipPath clipPathUnits="userSpaceOnUse" id="d"><path style="opacity:1;fill:#060202;stroke-width:1.05833;stop-color:#000;stop-opacity:1" d="M466.02988 1586.7959h37.13984v41.4021h-37.13984z"/></clipPath><filter style="color-interpolation-filters:sRGB" id="a" x="-.05642297" y="-.03515585" width="1.1128459" height="1.0703117"><feGaussianBlur stdDeviation="1.1384116"/></filter></defs><text xml:space="preserve" transform="matrix(.26458 0 0 .26458 -296.41324 -1742.118)" style="font-size:36px;line-height:1.25;font-family:Lato;-inkscape-font-specification:Lato;text-align:center;letter-spacing:0;white-space:pre;shape-inside:url(#b)"><tspan x="157" y="60.48"><tspan dx="0 20.882812 20.039062 14.484375 18.84375">Ehret</tspan></tspan></text><g style="display:inline;opacity:1"><path style="fill:#fff;fill-opacity:1;stroke:none;stroke-width:.264583;-inkscape-stroke:none;stop-color:#000" d="M-101.05897-6.3793921h445.44116v121.53461h-445.44116z" transform="translate(101.05897 6.3793921)"/></g><g style="display:inline"><path d="M496.94777 1765.2712v2.4913h-7.4623v4.6683h5.87903v2.4098h-5.87903v4.7614h7.4623v2.503h-10.61719v-16.8338zM513.85763 1782.105h-3.15489v-7.3575h-7.89304v7.3575h-3.15489v-16.8338h3.15489v7.2411h7.89304v-7.2411h3.15489zM520.49009 1775.5275v6.5775h-3.1316v-16.8338h5.13397q1.72296 0 2.94534.3608 1.23401.3493 2.014.9896.79163.6403 1.15252 1.5367.37254.8848.37254 1.9558 0 .8498-.25612 1.6065-.24447.7567-.72178 1.3737-.46567.6171-1.16417 1.0827-.68685.4657-1.57162.7451.59372.3376 1.02447.9662l4.21427 6.2167h-2.81728q-.40745 0-.69849-.163-.2794-.163-.47731-.4657l-3.53906-5.3901q-.19791-.3026-.44239-.4307-.23283-.128-.6985-.128zm0-2.2469h1.9558q.88477 0 1.5367-.2212.66357-.2212 1.08267-.6053.43074-.3959.64029-.9314.20956-.5355.20956-1.1758 0-1.2806-.84984-1.9674-.8382-.6869-2.5728-.6869h-2.00238zM543.10509 1765.2712v2.4913h-7.4623v4.6683h5.87904v2.4098h-5.87904v4.7614h7.4623v2.503h-10.61717v-16.8338zM557.67498 1765.2712v2.5728h-5.06412v14.261h-3.1316v-14.261h-5.0874v-2.5728z" style="font-weight:700;font-size:23.2833px;line-height:1.25;font-family:Lato;-inkscape-font-specification:'Lato Bold';text-align:start;letter-spacing:0;text-anchor:start;fill:#000;stroke-width:.264583" transform="translate(-296.41324 -1742.118)"/><path d="M488.26694 1809.7471h-1.93636v-14.3032h1.93636zM493.09069 1795.4439q.25952 0 .3793.07.12975.061.28945.2596l8.28445 10.7797q-.0299-.2594-.04-.499-.01-.2495-.01-.4791v-10.131h1.69681v14.3032h-.97817q-.22957 0-.38926-.08-.14973-.08-.29944-.2695l-8.27446-10.7698q.0199.2495.0299.4892.01.2395.01.4391v10.1907h-1.69683v-14.303h.99815zM513.55945 1808.3398q.57892 0 1.05802-.049.48908-.061.91827-.1698.42919-.1097.80848-.2594.37929-.1597.75858-.3594v-3.154h-2.21584q-.18965 0-.30942-.1098-.1098-.1097-.1098-.2695v-1.0979h4.39177v5.4896q-.53899.3893-1.12789.6788-.57892.2895-1.24766.4891-.65875.1896-1.41734.2796-.75857.1-1.64691.1-1.55707 0-2.85463-.5291-1.29757-.539-2.23581-1.4972-.93824-.9681-1.46724-2.3155-.51903-1.3477-.51903-2.9646 0-1.6368.50904-2.9844.51903-1.3474 1.46725-2.3056.9582-.9682 2.30568-1.4971 1.35744-.5291 3.0343-.5291.8484 0 1.57703.1298.72863.1198 1.34747.3593.62882.2296 1.15783.5689.52901.3294.98815.7486l-.54898.8784q-.16968.2695-.43917.2695-.1597 0-.34935-.1099-.24953-.1397-.55895-.3393-.30941-.1996-.75856-.3793-.43919-.1896-1.04804-.3194-.59888-.1297-1.42732-.1297-1.20774 0-2.1859.3991-.97817.3894-1.66687 1.128-.68871.7287-1.05801 1.7766-.36931 1.0381-.36931 2.3356 0 1.3576.37929 2.4255.38927 1.058 1.08796 1.7966.69868.7387 1.65688 1.1279.95821.3893 2.11603.3893zM530.65487 1795.4439v1.577h-6.86711v4.7512h5.55956v1.5172h-5.55956v4.8807h6.86711v1.5771h-8.81345v-14.3032zM534.41935 1795.4439q.25952 0 .37929.07.12976.061.28945.2596l8.28446 10.7797q-.0299-.2594-.04-.499-.01-.2495-.01-.4791v-10.131h1.69682v14.3032h-.97816q-.22958 0-.38928-.08-.14971-.08-.29944-.2695l-8.27445-10.7698q.0199.2495.0299.4892.01.2395.01.4391v10.1907h-1.69682v-14.303h.99813zM550.80577 1809.7471h-1.93636v-14.3032h1.93636zM563.44486 1795.4439v1.577h-6.8671v4.7512h5.55956v1.5172h-5.55956v4.8807h6.8671v1.5771h-8.81344v-14.3032zM571.77079 1808.2099q.88833 0 1.58701-.2994.69869-.2994 1.1778-.8384.48909-.5389.73861-1.2875.25951-.7487.25951-1.6469v-8.6938h1.92639v8.6938q0 1.2376-.39925 2.2956-.38927 1.0581-1.12789 1.8365-.72863.7686-1.78664 1.2078-1.05802.4392-2.37554.4392-1.31753 0-2.37554-.4392t-1.79663-1.2078q-.73862-.7784-1.13786-1.8365-.38926-1.058-.38926-2.2956v-8.6938h1.92637v8.6838q0 .8982.24954 1.6468.25951.7487.73861 1.2876.48908.5391 1.18776.8484.70868.2994 1.59701.2994zM582.91922 1803.7784v5.9687h-1.92638v-14.3032h4.04241q1.35746 0 2.3456.2795.98814.2695 1.62695.7885.64877.5191.95819 1.2577.30943.7287.30943 1.637 0 .7585-.23956 1.4173-.23955.6587-.69868 1.1877-.44916.519-1.10792.8883-.64878.3694-1.47723.5591.35933.2096.63881.6087l4.17217 5.6794h-1.71679q-.529 0-.77853-.4092l-3.71304-5.1104q-.16968-.2396-.3693-.3393-.19962-.1098-.59888-.1098zm0-1.4075h2.0262q.84841 0 1.48722-.1995.64877-.2097 1.07796-.579.43918-.3792.65877-.8984.21959-.5189.21959-1.1478 0-1.2775-.8484-1.9263-.83843-.6488-2.50531-.6488h-2.11603zM593.6597 1809.7471v-14.3032h4.56143q1.31753 0 2.26575.2596.9582.2595 1.56704.7386.61884.4792.9083 1.1778.29944.6887.29944 1.5571 0 .529-.16969 1.018-.15969.4891-.49905.9084-.32939.4191-.83844.7486-.49905.3293-1.17779.5389 1.56706.3094 2.36558 1.1279.79849.8185.79849 2.156 0 .9083-.33936 1.6568-.32938.7487-.97817 1.2877-.6388.5389-1.57704.8384-.92824.2894-2.126.2894zm1.93635-6.5177v4.9805h3.09419q.82846 0 1.41734-.1895.59887-.1897.97816-.529.38926-.3494.56894-.8185.17967-.479.17967-1.048 0-1.1079-.78853-1.7469-.77854-.6486-2.36554-.6486zm0-1.3774h2.55521q.81845 0 1.41733-.1798.59887-.1795.98814-.499.39926-.3194.5889-.7686.18965-.4591.18965-.998 0-1.2577-.75859-1.8465-.75856-.589-2.35557-.589h-2.62507zM612.12471 1808.2099q.88834 0 1.58702-.2994.69869-.2994 1.1778-.8384.48907-.5389.73861-1.2875.2595-.7487.2595-1.6469v-8.6938h1.92639v8.6938q0 1.2376-.39925 2.2956-.38926 1.0581-1.12788 1.8365-.72863.7686-1.78665 1.2078-1.05801.4392-2.37554.4392-1.31752 0-2.37554-.4392-1.05801-.4392-1.79662-1.2078-.73861-.7784-1.13786-1.8365-.38927-1.058-.38927-2.2956v-8.6938h1.92639v8.6838q0 .8982.24951 1.6468.25953.7487.73862 1.2876.48909.5391 1.18778.8484.70867.2994 1.59699.2994zm-1.02807-15.0916q0 .2196-.0898.4193-.0898.1896-.23955.3393-.14972.1497-.35932.2396-.19963.08-.42919.08-.20962 0-.40925-.08-.18963-.09-.33936-.2396-.14971-.1497-.23955-.3393-.0898-.1997-.0898-.4193 0-.2295.0898-.4292.0898-.2095.23955-.3594.14973-.1497.33936-.2395.19963-.09.40925-.09.22956 0 .42919.09.2096.09.35932.2395.14972.1499.23955.3594.0898.1997.0898.4292zm4.25202 0q0 .2196-.0898.4193-.0898.1896-.23956.3393-.14972.1497-.34934.2396-.19963.08-.41922.08-.22957 0-.4292-.08-.19962-.09-.34934-.2396-.14972-.1497-.23954-.3393-.0798-.1997-.0798-.4193 0-.2295.0798-.4292.0898-.2095.23954-.3594.14972-.1497.34934-.2395.19963-.09.4292-.09.21959 0 .41922.09.19962.09.34934.2395.14972.1499.23956.3594.0898.1997.0898.4292zM623.27315 1803.7784v5.9687h-1.92638v-14.3032h4.04241q1.35744 0 2.34559.2795.98814.2695 1.62694.7885.64879.5191.95822 1.2577.30942.7287.30942 1.637 0 .7585-.23956 1.4173-.23955.6587-.69868 1.1877-.44916.519-1.10793.8883-.64878.3694-1.47721.5591.35931.2096.63879.6087l4.17216 5.6794h-1.71678q-.529 0-.77852-.4092l-3.71304-5.1104q-.16968-.2396-.3693-.3393-.19963-.1098-.59888-.1098zm0-1.4075h2.0262q.8484 0 1.48721-.1995.64877-.2097 1.07796-.579.43919-.3792.65876-.8984.2196-.5189.2196-1.1478 0-1.2775-.84841-1.9263-.83843-.6488-2.50529-.6488h-2.11603zM646.8308 1802.6005q0 1.607-.50906 2.9545-.50903 1.3375-1.43729 2.3056-.92826.9683-2.2358 1.5072-1.29757.529-2.8746.529-1.57704 0-2.87461-.529-1.29756-.5389-2.22581-1.5072-.92827-.9681-1.43731-2.3056-.50904-1.3475-.50904-2.9545 0-1.6069.50904-2.9444.50904-1.3475 1.43731-2.3158.92825-.9781 2.22581-1.517 1.29757-.539 2.87461-.539 1.57703 0 2.8746.539 1.30754.5389 2.2358 1.517.92826.9683 1.43729 2.3158.50906 1.3374.50906 2.9444zm-1.98627 0q0-1.3175-.35933-2.3655-.35933-1.0482-1.01809-1.7667-.65877-.7287-1.59699-1.1179-.93824-.3892-2.09607-.3892-1.14784 0-2.0861.3892-.93822.3892-1.60696 1.1179-.65878.7185-1.0181 1.7667-.35932 1.048-.35932 2.3655t.35932 2.3657q.35932 1.038 1.0181 1.7666.66874.7187 1.60696 1.108.93826.3791 2.0861.3791 1.15783 0 2.09607-.3791.93822-.3893 1.59699-1.108.65876-.7286 1.01809-1.7666.35933-1.0482.35933-2.3657z" style="font-weight:400;font-size:23.2833px;line-height:1.25;font-family:Lato;-inkscape-font-specification:Lato;text-align:center;letter-spacing:0;text-anchor:middle;fill:#000;stroke-width:.264583" transform="translate(-296.41324 -1742.118)"/><g><path d="M495.35286 1826.5412q-.12806.2561-.30268.3609-.16298.1047-.39582.1047-.23283 0-.52387-.1746-.29104-.1863-.68686-.4075-.39582-.2211-.93133-.3958-.52388-.1862-1.24566-.1862-.65193 0-1.14088.1629-.4773.1514-.81491.4308-.32596.2794-.48895.6752-.16298.3842-.16298.8498 0 .5938.32597.9896.3376.3958.88475.6752.54716.2794 1.24566.5006.6985.2212 1.42028.4773.73343.2445 1.43192.5821.6985.3259 1.24566.8382.54716.5006.87312 1.234.33761.7334.33761 1.7812 0 1.1408-.39581 2.142-.38418.9896-1.14089 1.7346-.74506.7335-1.82773 1.1642-1.08268.4191-2.47968.4191-.80327 0-1.58326-.163-.77999-.1513-1.50177-.4424-.71014-.291-1.33879-.6985-.61701-.4074-1.10596-.908l.90805-1.5018q.12806-.163.30268-.2677.18627-.1165.40746-.1165.29104 0 .62865.2445.33761.2328.79163.5239.46567.291 1.08267.5355.62865.2328 1.50178.2328 1.33879 0 2.07221-.6286.73342-.6403.73342-1.8278 0-.6635-.3376-1.0826-.32597-.4191-.87313-.6985-.54715-.2911-1.24565-.489-.6985-.1979-1.42028-.4307-.72179-.2328-1.42029-.5588-.6985-.326-1.24565-.8499-.54716-.5238-.88477-1.3038-.32596-.7917-.32596-1.9442 0-.9197.36089-1.7928.37253-.8731 1.07103-1.5483.71014-.6752 1.7346-1.0827 1.02447-.4075 2.33998-.4075 1.49013 0 2.74743.4657 1.25729.4657 2.14206 1.3039zM514.98324 1831.8963q0 1.851-.61702 3.4343-.61701 1.5716-1.7346 2.7242-1.1176 1.1525-2.68922 1.8044-1.57163.6403-3.48086.6403-1.90922 0-3.49248-.6403-1.57164-.6519-2.70087-1.8044-1.1176-1.1526-1.7346-2.7242-.61701-1.5833-.61701-3.4343t.61701-3.4226q.617-1.5833 1.7346-2.7358 1.12923-1.1525 2.70087-1.7928 1.58326-.652 3.49248-.652 1.90923 0 3.48086.652 1.57162.6519 2.68922 1.8044 1.11759 1.1409 1.7346 2.7242.61702 1.5716.61702 3.4226zm-3.2131 0q0-1.3853-.37253-2.4797-.36089-1.1059-1.04775-1.8743-.68685-.7683-1.67639-1.1758-.9779-.4074-2.21193-.4074-1.23401 0-2.22355.4074-.98953.4075-1.68804 1.1758-.68686.7684-1.05939 1.8743-.37254 1.0944-.37254 2.4797 0 1.3854.37254 2.4913.37253 1.0943 1.05939 1.8627.69851.7567 1.68804 1.1642.98954.4074 2.22355.4074 1.23402 0 2.21193-.4074.98953-.4075 1.67639-1.1642.68686-.7684 1.04775-1.8627.37253-1.1059.37253-2.4913zM528.05281 1823.4794v2.4913h-7.46231v4.9826h6.29814v2.503h-6.29814v6.8569h-3.15488v-16.8338zM542.34984 1823.4794v2.5728h-5.06412v14.261h-3.1316v-14.261h-5.0874v-2.5728zM542.79696 1823.4794h2.63102q.40745 0 .67521.1979.2794.1863.37253.5122l2.86384 10.0701q.10478.3725.18628.8149.0931.4307.17462.9197.0931-.489.1979-.9197.11642-.4424.24447-.8149l3.30624-10.0701q.0931-.2677.36089-.4889.2794-.2212.67522-.2212h.91968q.40746 0 .67522.1979.26775.1863.37253.5122l3.28294 10.0701q.25612.745.4424 1.6531.0815-.454.16297-.8731.0931-.4191.18627-.78l2.86384-10.0701q.0815-.291.3609-.5005.2794-.2096.67521-.2096h2.4564l-5.2271 16.8338h-2.82893l-3.67876-11.5019q-.0698-.2212-.15134-.4773-.0698-.2561-.1397-.5472-.0698.2911-.15134.5472-.0698.2561-.1397.4773l-3.71369 11.5019h-2.82892zM582.16392 1840.3132h-2.42147q-.40746 0-.67521-.1979-.25612-.2095-.37254-.5122l-1.25729-3.4343h-6.97335l-1.25729 3.4343q-.0931.2678-.37253.4889-.26776.2212-.66359.2212h-2.43309l6.61244-16.8338h3.20146zm-10.89659-6.3563h5.36681l-2.04894-5.5996q-.13969-.3726-.31431-.8732-.163-.5122-.32597-1.1059-.16298.5937-.32597 1.1059-.15134.5123-.30268.8964zM587.15674 1833.7357v6.5775h-3.13162v-16.8338h5.13397q1.72297 0 2.94534.3609 1.23401.3492 2.014.9895.79164.6403 1.15253 1.5367.37253.8848.37253 1.9558 0 .8499-.25612 1.6066-.24447.7567-.72178 1.3737-.46566.617-1.16416 1.0827-.68686.4656-1.57163.745.59373.3376 1.02447.9663l4.21428 6.2166h-2.81728q-.40746 0-.6985-.1629-.2794-.163-.47731-.4657l-3.53906-5.3901q-.19791-.3027-.44238-.4307-.23284-.1281-.69849-.1281zm0-2.2468h1.95579q.88476 0 1.53669-.2212.66359-.2212 1.08268-.6054.43074-.3958.6403-.9313.20955-.5355.20955-1.1758 0-1.2806-.84984-1.9675-.8382-.6868-2.57281-.6868h-2.00236zM609.77174 1823.4794v2.4913h-7.46231v4.6683h5.87904v2.4098h-5.87904v4.7615h7.46231v2.5029h-10.6172v-16.8338zM621.50105 1826.5412q-.12805.2561-.30268.3609-.16298.1047-.39582.1047-.23283 0-.52387-.1746-.29103-.1863-.68686-.4075-.39581-.2211-.93133-.3958-.52387-.1862-1.24566-.1862-.65193 0-1.14088.1629-.4773.1514-.81491.4308-.32597.2794-.48895.6752-.16298.3842-.16298.8498 0 .5938.32596.9896.33761.3958.88477.6752.54715.2794 1.24565.5006.6985.2212 1.42028.4773.73343.2445 1.43193.5821.6985.3259 1.24565.8382.54716.5006.87313 1.234.33761.7334.33761 1.7812 0 1.1408-.39582 2.142-.38417.9896-1.14088 1.7346-.74507.7335-1.82774 1.1642-1.08267.4191-2.47967.4191-.80328 0-1.58327-.163-.77999-.1513-1.50177-.4424-.71014-.291-1.33879-.6985-.61701-.4074-1.10596-.908l.90805-1.5018q.12806-.163.30269-.2677.18626-.1165.40745-.1165.29104 0 .62865.2445.33761.2328.79163.5239.46567.291 1.08268.5355.62865.2328 1.50177.2328 1.33879 0 2.07221-.6286.73343-.6403.73343-1.8278 0-.6635-.33761-1.0826-.32597-.4191-.87312-.6985-.54716-.2911-1.24566-.489-.6985-.1979-1.42028-.4307-.72178-.2328-1.42028-.5588-.6985-.326-1.24566-.8499-.54716-.5238-.88476-1.3038-.32597-.7917-.32597-1.9442 0-.9197.36089-1.7928.37253-.8731 1.07103-1.5483.71014-.6752 1.73461-1.0827 1.02446-.4075 2.33997-.4075 1.49013 0 2.74743.4657t2.14206 1.3039zM632.47004 1833.7706v6.5426h-3.13161v-6.5426l-6.13514-10.2912h2.75906q.40747 0 .6403.1979.24447.1979.40746.5006l3.08504 5.6229q.26775.5006.46566.9546.19791.4424.36089.8732.15134-.4424.33761-.8848.19791-.454.46567-.943l3.06175-5.6229q.12806-.2561.38418-.4773.25611-.2212.65193-.2212h2.77071zM649.24092 1826.5412q-.12806.2561-.30268.3609-.16298.1047-.39582.1047-.23283 0-.52387-.1746-.29103-.1863-.68686-.4075-.39581-.2211-.93133-.3958-.52387-.1862-1.24566-.1862-.65193 0-1.14088.1629-.47731.1514-.81491.4308-.32597.2794-.48895.6752-.16299.3842-.16299.8498 0 .5938.32597.9896.33761.3958.88476.6752.54716.2794 1.24566.5006.6985.2212 1.42028.4773.73343.2445 1.43193.5821.69849.3259 1.24565.8382.54716.5006.87313 1.234.3376.7334.3376 1.7812 0 1.1408-.39581 2.142-.38418.9896-1.14088 1.7346-.74507.7335-1.82774 1.1642-1.08268.4191-2.47967.4191-.80328 0-1.58327-.163-.77999-.1513-1.50177-.4424-.71014-.291-1.33879-.6985-.61701-.4074-1.10596-.908l.90805-1.5018q.12806-.163.30268-.2677.18627-.1165.40746-.1165.29104 0 .62865.2445.33761.2328.79163.5239.46567.291 1.08268.5355.62864.2328 1.50177.2328 1.33879 0 2.07221-.6286.73343-.6403.73343-1.8278 0-.6635-.33761-1.0826-.32597-.4191-.87313-.6985-.54715-.2911-1.24565-.489-.6985-.1979-1.42028-.4307-.72179-.2328-1.42028-.5588-.6985-.326-1.24566-.8499-.54716-.5238-.88477-1.3038-.32596-.7917-.32596-1.9442 0-.9197.36089-1.7928.37253-.8731 1.07103-1.5483.71014-.6752 1.73461-1.0827 1.02446-.4075 2.33997-.4075 1.49013 0 2.74743.4657t2.14206 1.3039zM664.58717 1823.4794v2.5728h-5.06412v14.261h-3.13161v-14.261h-5.0874v-2.5728zM677.21145 1823.4794v2.4913h-7.46231v4.6683h5.87903v2.4098h-5.87903v4.7615h7.4623v2.5029h-10.61719v-16.8338zM688.37033 1833.3282q.1979.3726.36089.78.17462.3958.3376.8033.16299-.4191.33761-.8265.17463-.4075.37254-.78l4.98262-9.325q.0931-.1746.18627-.2794.10477-.1048.22119-.1513.12806-.047.2794-.058.15134-.012.36089-.012h2.36326v16.8338h-2.75908v-10.8733q0-.3027.0116-.6635.0233-.3609.0582-.7335l-5.0874 9.5462q-.17462.326-.45402.5122-.27941.1746-.65193.1746h-.43075q-.37253 0-.65193-.1746-.2794-.1862-.45402-.5122l-5.15725-9.5811q.0466.3842.0582.7567.0233.3609.0233.6752v10.8733h-2.75907v-16.8338h2.36325q.20955 0 .36089.012.15135.012.26776.058.12806.046.23283.1513.10478.1048.19791.2794l5.0292 9.3482zM712.18187 1823.4794v2.4913h-7.4623v4.6683h5.87904v2.4098h-5.87904v4.7615h7.4623v2.5029h-10.61719v-16.8338z" style="font-weight:700;font-size:23.2833px;line-height:1.25;font-family:Lato;-inkscape-font-specification:'Lato Bold';text-align:start;letter-spacing:0;text-anchor:start;fill:#000;stroke-width:.264583" transform="translate(-295.13266 -1742.118)"/></g><g style="stroke-width:1.04822"><path style="display:inline;opacity:1;fill:none;stroke:#0a48bf;stroke-width:5.54682;stroke-miterlimit:4;stroke-dasharray:none;stop-color:#000" d="M598.00139 1802.8854c0 23.1506-30.79866 41.9178-68.79075 41.9178-37.99208 0-68.79075-18.7672-68.79076-41.9178 0-23.1506 30.79868-41.9179 68.79076-41.9179 37.99209 0 68.79075 18.7673 68.79075 41.9179z" transform="matrix(.94004 -.16575 .16557 .93897 -695.8641 -1544.37521)"/><path style="display:inline;opacity:1;fill:none;stroke:#0a48bf;stroke-width:3.4282;stroke-miterlimit:4;stroke-dasharray:none;stop-color:#000" d="M592.55517 1802.8854a42.514747 25.906503 0 0 1-42.51474 25.9065 42.514747 25.906503 0 0 1-42.51477-25.9065 42.514747 25.906503 0 0 1 42.51477-25.9065 42.514747 25.906503 0 0 1 42.51474 25.9065z" transform="matrix(.94004 -.16575 .16557 .93897 -695.8641 -1544.37521)"/><path style="display:inline;opacity:1;fill:none;stroke:#0a48bf;stroke-width:2.11857;stroke-miterlimit:4;stroke-dasharray:none;stop-color:#000" d="M588.95514 1802.8854a26.275389 16.010996 0 0 1-26.2754 16.011 26.275389 16.010996 0 0 1-26.27539-16.011 26.275389 16.010996 0 0 1 26.27539-16.011 26.275389 16.010996 0 0 1 26.2754 16.011z" transform="matrix(.94004 -.16575 .16557 .93897 -695.8641 -1544.37521)"/><path style="display:inline;opacity:1;fill:none;stroke:#0a48bf;stroke-width:1.30932;stroke-miterlimit:4;stroke-dasharray:none;stop-color:#000" d="M586.56128 1802.8854a16.23898 9.8952764 0 0 1-16.239 9.8952 16.23898 9.8952764 0 0 1-16.23897-9.8952 16.23898 9.8952764 0 0 1 16.23897-9.8953 16.23898 9.8952764 0 0 1 16.239 9.8953z" transform="matrix(.94004 -.16575 .16557 .93897 -695.8641 -1544.37521)"/><path style="display:inline;opacity:1;fill:none;stroke:#0a48bf;stroke-width:.80928;stroke-miterlimit:4;stroke-dasharray:none;stop-color:#000" d="M584.70897 1802.8854a10.036177 6.1155773 0 0 1-10.03617 6.1155 10.036177 6.1155773 0 0 1-10.0362-6.1155 10.036177 6.1155773 0 0 1 10.0362-6.1156 10.036177 6.1155773 0 0 1 10.03617 6.1156z" transform="matrix(.94004 -.16575 .16557 .93897 -695.8641 -1544.37521)"/></g></g></svg>