<svg width="970.14771" height="1029.4707" viewBox="0 0 256.68482 272.38073" xmlns="http://www.w3.org/2000/svg"><defs><path id="c" d="M1600.6648 5530.2114h158.57976v94.550331H1600.6648z"/><path id="b" d="M157-13h55v40h-55z"/><filter style="color-interpolation-filters:sRGB" id="a" x="-.05642297" y="-.03515585" width="1.1128459" height="1.0703117"><feGaussianBlur stdDeviation="1.1384116"/></filter></defs><text xml:space="preserve" transform="matrix(.26458 0 0 .26458 68.841889 -2150.4427)" style="font-size:36px;line-height:1.25;font-family:Lato;-inkscape-font-specification:Lato;text-align:center;letter-spacing:0;white-space:pre;shape-inside:url(#b)"><tspan x="157" y="60.48"><tspan dx="0 20.882812 20.039062 14.484375 18.84375">Ehret</tspan></tspan></text><g style="display:inline"><path style="display:inline;vector-effect:none;fill:#000;fill-opacity:.35;stroke-width:.828178;stroke-opacity:.968165;stop-color:#000" d="M201.44289 158.11936H458.1278v272.38079H201.44289Z" transform="translate(-201.44289 -158.11936)"/></g><g style="display:inline"><path style="display:inline;fill:#fff;fill-opacity:1;stroke:none;stroke-width:.796215;stroke-miterlimit:4;stroke-dasharray:none;stroke-opacity:1;stop-color:#000" d="M-221.29558 381.21075c-57.43763 0-103.99962 28.77717-103.99963 64.27593-.00001 35.49876 46.562 64.27675 103.99963 64.27675 57.43762 0 108.45437-28.59657 108.45437-64.09533 0-35.49876-51.01675-64.45735-108.45437-64.45735zm38.96242 24.55363c31.87921 0 66.7689 14.12985 66.72372 39.91522-.0452 25.78537-31.22728 39.53019-66.72372 39.53019s-64.27194-17.78488-64.27194-39.72311c.00001-21.93823 32.39273-39.7223 64.27194-39.7223z" transform="translate(350.64228 -365.66644)"/><path style="display:inline;fill:#fff;fill-opacity:1;stroke:none;stroke-width:.796215;stroke-miterlimit:4;stroke-dasharray:none;stroke-opacity:1;stop-color:#000" d="M-158.86562 420.93861c-21.9368 0-39.72001 10.99023-39.72002 24.54807 0 13.55784 17.78322 24.54889 39.72002 24.54889 21.93681 0 41.44683-10.81735 41.44683-24.37519s-19.51002-24.72177-41.44683-24.72177zm14.00043 9.37702c13.55694 0 24.78839 6.96509 24.78839 15.34378 0 8.37888-11.23145 14.99835-24.78839 14.99835-13.55694 0-24.54734-6.7922-24.54734-15.17108.00004-8.37869 10.9904-15.17105 24.54734-15.17105z" transform="translate(350.64228 -365.66644)"/><path style="display:inline;fill:#fff;fill-opacity:1;stroke:none;stroke-width:.795964;stroke-miterlimit:4;stroke-dasharray:none;stroke-opacity:1;stop-color:#000" d="M-121.19511 445.48692c0-5.17806-6.79186-9.37552-15.17004-9.37552-8.37821 0-15.17007 4.19746-15.17011 9.37552 0 5.17821 6.79189 9.37585 15.17011 9.37585 8.37818 0 15.17004-4.19763 15.17004-9.37585z" transform="translate(350.64228 -365.66644)"/><path d="M-318.40607 550.95088q0 1.42028-.36164 2.56117-.36164 1.14088-1.08493 1.94415-.71123.80327-1.7841 1.23402-1.07286.43074-2.49532.43074-.65096 0-1.2778-.0815-.62685-.0698-1.31396-.23284l.16876-1.86266q.0241-.25612.19288-.40746.18082-.16298.51835-.16298.20493 0 .53041.0815.33753.0815.84383.0815.68712 0 1.21752-.18627.53041-.1979.87999-.617.36165-.4191.54247-1.08268.18082-.67521.18082-1.62983v-10.91987h3.24272zM-305.74314 544.99036v7.59035q0 1.09432.51836 1.69968.5304.59373 1.57917.59373.77149 0 1.44656-.32597.67507-.33761 1.2778-.91969v-8.6381h2.97752v11.94433h-1.82027q-.57862 0-.75945-.52387l-.20492-.95462q-.38576.37253-.79561.68686-.40987.30268-.88.52387-.45808.20955-1.00054.32597-.53041.12806-1.1452.12806-1.0126 0-1.79615-.32597-.77151-.33761-1.30191-.94297-.5304-.60537-.80766-1.43193-.26521-.83819-.26521-1.83938v-7.59035zm1.9167-3.09668q0 .32596-.1326.61701-.1326.2794-.3737.48895-.22904.20954-.54246.3376-.30136.11642-.6389.11642-.32547 0-.62684-.11642-.28931-.12806-.51836-.3376-.22904-.20955-.36163-.48895-.1326-.29105-.1326-.61701 0-.33761.1326-.62865.13259-.30268.36163-.52388.22905-.22119.51836-.34924.30137-.12806.62684-.12806.33754 0 .6389.12806.31342.12805.54246.34924.2411.2212.3737.52388.1326.29104.1326.62865zm4.50847 0q0 .32596-.13261.61701-.1326.2794-.36164.48895-.22904.20954-.54246.3376-.30136.11642-.6389.11642t-.6389-.11642q-.30137-.12806-.53041-.3376-.21698-.20955-.34959-.48895-.1326-.29105-.1326-.61701 0-.33761.1326-.62865.13261-.30268.34959-.52388.22904-.22119.53041-.34924.30136-.12806.6389-.12806t.6389.12806q.31342.12805.54246.34924.22904.2212.36164.52388.13261.29104.13261.62865zM-288.18938 556.93469v-11.94433h1.74794q.45807 0 .6389.16298.18082.16298.24109.5588l.18083 1.44356q.66301-1.10595 1.55505-1.74624.89205-.64029 2.00108-.64029.91616 0 1.5189.40745l-.38575 2.15371q-.0361.20955-.15671.30268-.12055.0815-.32548.0815-.18082 0-.49425-.0815-.31342-.0815-.83177-.0815-.92822 0-1.59122.50059-.66301.48895-1.12109 1.44357v7.43901zM-267.49311 544.78081q.79562 0 1.49478.16298.69918.15134 1.27781.45402h3.55614v1.07104q0 .26775-.14465.4191-.14466.15134-.49425.20955l-1.10903.1979q.12054.30269.18081.64029.0723.33761.0723.71015 0 .88476-.37369 1.60654-.36165.71014-1.0126 1.21073-.6389.5006-1.53095.78-.87999.26775-1.9167.26775-.69917 0-1.36218-.12805-.57863.3376-.57863.7567 0 .36089.33754.53552.34958.16298.9041.23283.56657.0699 1.2778.0931.71123.0116 1.45862.0698t1.45862.20955q.71123.1397 1.26574.45403.56658.31432.90411.86148.34958.53552.34958 1.38536 0 .79163-.40985 1.53669-.39781.74507-1.16931 1.32715-.75945.58209-1.86848.93133-1.10904.3609-2.53149.3609-1.41041 0-2.44711-.26776-1.0367-.25612-1.72383-.6985-.67506-.43074-1.01258-1.00118-.33754-.57044-.33754-1.18745 0-.8382.5304-1.40864.53041-.57044 1.47068-.90805-.45808-.24447-.73534-.65193-.27726-.40746-.27726-1.05939 0-.26776.0964-.54716.0964-.29104.28932-.57044.20493-.2794.5063-.52387.30136-.25612.71122-.45403-.94026-.48895-1.48273-1.30386-.5304-.81492-.5304-1.90923 0-.88477.36164-1.59491.37369-.72178 1.02465-1.22237.66301-.51224 1.55505-.77999.9041-.26776 1.96492-.26776zm3.26683 12.6894q0-.34925-.21698-.57044-.21699-.2212-.59068-.33761-.3737-.12806-.87999-.18627-.49425-.0582-1.06082-.0815-.55451-.0349-1.15726-.0582-.59068-.0349-1.14519-.10477-.5063.26775-.81973.64029-.30136.36089-.30136.8382 0 .31432.15671.58208.16877.2794.51835.47731.36164.1979.92821.30268.56658.11642 1.3863.11642.83178 0 1.43451-.12806.60273-.11642.98848-.33761.39781-.20955.57863-.51223.18082-.29104.18082-.64029zm-3.26683-6.79873q.55453 0 .96438-.1397.40986-.15134.67506-.40746.27726-.25611.40987-.617.14465-.36089.14465-.79163 0-.88477-.55452-1.397-.54246-.52388-1.63944-.52388-1.09697 0-1.65149.52388-.54246.51223-.54246 1.397 0 .41909.1326.77999.14466.36089.40986.62864.27726.25612.68712.40746.42192.1397.96437.1397zM-247.60751 544.80409q1.1693 0 2.14574.36089.98848.36089 1.69971 1.05939.71123.68686 1.10904 1.69968.39781 1.00118.39781 2.29341 0 .32596-.0361.54716-.0241.20955-.10849.3376-.0724.11642-.20493.17463-.13261.0466-.33754.0466h-7.64269q.1326 1.83939 1.02466 2.70087.89205.86148 2.36272.86148.72329 0 1.24164-.16298.5304-.16299.91615-.36089.39781-.19791.68712-.3609.30137-.16298.57863-.16298.18082 0 .31342.0698.1326.0699.22904.19791l.86794 1.04775q-.49425.5588-1.10903.94297-.6148.37253-1.28986.60537-.66301.22119-1.36218.31432-.68712.0931-1.33808.0931-1.28984 0-2.39889-.40746-1.10903-.4191-1.92874-1.22238-.81972-.81491-1.28986-2.00236-.47013-1.19909-.47013-2.77071 0-1.22238.40986-2.29341.40986-1.08267 1.16931-1.8743.7715-.80328 1.86847-1.26894 1.10904-.46567 2.49533-.46567zm.0603 2.06057q-1.30191 0-2.03725.71014-.73533.71014-.94026 2.01401h5.59339q0-.5588-.15671-1.04775-.15671-.50059-.4822-.87312-.32547-.37254-.81971-.58209-.49425-.22119-1.15726-.22119zM-233.24109 556.93469v-11.94433h1.82026q.57862 0 .75945.52387l.20493.94298q.37369-.37254.78355-.67522.42191-.30268.88-.52387.47013-.2212 1.00053-.33761.53041-.11642 1.15726-.11642 1.0126 0 1.79616.33761.78354.32596 1.3019.93133.53041.59372.79561 1.43192.27726.82656.27726 1.82774v7.602h-2.97752v-7.602q0-1.09431-.5304-1.68804-.51835-.60536-1.56711-.60536-.77151 0-1.44657.33761-.67506.3376-1.2778.91969v8.6381zM-190.56322 540.10086v2.49132h-7.72707v4.6683h6.08764v2.40982h-6.08764v4.76144h7.72707v2.50295h-10.99389v-16.83383zM-181.35357 556.93469V539.6352h2.97751v6.64738q.72329-.66357 1.59123-1.07103.86794-.40746 2.03725-.40746 1.01259 0 1.79614.33761.78356.32596 1.30191.93133.53041.59372.79562 1.43192.27726.82656.27726 1.82774v7.602h-2.97752v-7.602q0-1.09431-.53041-1.68804-.51835-.60536-1.56711-.60536-.7715 0-1.44657.33761-.67506.3376-1.2778.91969v8.6381zM-161.07545 556.93469v-11.94433h1.74793q.45809 0 .63891.16298.18082.16298.24109.5588l.18082 1.44356q.66301-1.10595 1.55506-1.74624.89205-.64029 2.00109-.64029.91615 0 1.51888.40745l-.38574 2.15371q-.0361.20955-.15671.30268-.12056.0815-.32548.0815-.18082 0-.49424-.0815-.31343-.0815-.83178-.0815-.92821 0-1.59122.50059-.66302.48895-1.12109 1.44357v7.43901zM-139.54741 544.80409q1.16931 0 2.14575.36089.98848.36089 1.69971 1.05939.71123.68686 1.10903 1.69968.39781 1.00118.39781 2.29341 0 .32596-.0361.54716-.0241.20955-.10848.3376-.0724.11642-.20494.17463-.1326.0466-.33753.0466h-7.64268q.13259 1.83939 1.02465 2.70087.89204.86148 2.36272.86148.72328 0 1.24163-.16298.53041-.16299.91616-.36089.39781-.19791.68712-.3609.30137-.16298.57863-.16298.18081 0 .31342.0698.1326.0699.22903.19791l.86794 1.04775q-.49424.5588-1.10903.94297-.61478.37253-1.28985.60537-.66301.22119-1.36218.31432-.68712.0931-1.33808.0931-1.28985 0-2.39889-.40746-1.10903-.4191-1.92875-1.22238-.81972-.81491-1.28986-2.00236-.47013-1.19909-.47013-2.77071 0-1.22238.40987-2.29341.40985-1.08267 1.1693-1.8743.7715-.80328 1.86848-1.26894 1.10903-.46567 2.49532-.46567zm.0603 2.06057q-1.30191 0-2.03725.71014-.73534.71014-.94027 2.01401h5.59339q0-.5588-.15671-1.04775-.15671-.50059-.48219-.87312-.32547-.37254-.81972-.58209-.49424-.22119-1.15725-.22119zM-121.11854 557.12096q-1.60328 0-2.47122-.87313-.86794-.88476-.86794-2.4331v-6.67067h-1.25369q-.24109 0-.42192-.15134-.16876-.15134-.16876-.45402v-1.14089l1.98903-.31432.62685-3.25966q.0482-.23283.21698-.36089.18082-.12806.44602-.12806h1.54301v3.76025h3.25477v2.04893h-3.25477v6.47276q0 .5588.28931.87312.28931.31433.77151.31433.27725 0 .45807-.0582.19288-.0698.32547-.1397.14466-.0699.25316-.12806.10849-.0698.21698-.0698.13261 0 .21699.0698.0844.0582.18082.18627l.89204 1.397q-.65094.52387-1.49478.79163-.84383.26776-1.74793.26776z" style="font-weight:700;font-size:23.2833px;line-height:1.25;font-family:Lato;-inkscape-font-specification:'Lato Bold';text-align:center;letter-spacing:6.35px;text-anchor:middle;fill:#fff;stroke-width:.796215;font-variation-settings:normal;opacity:1;vector-effect:none;fill-opacity:1;stroke:none;stroke-linecap:butt;stroke-linejoin:miter;stroke-miterlimit:4;stroke-dasharray:none;stroke-dashoffset:0;stroke-opacity:1;-inkscape-stroke:none;stop-color:#000;stop-opacity:1" transform="translate(350.64228 -365.66644)"/><path d="M-323.97863 585.46746h-2.74519v-14.347h2.74519zM-317.68937 585.46746v-10.17982h1.53527q.48804 0 .64055.44648l.17285.80367q.31519-.3175.66087-.57547.35586-.25796.74222-.44648.39653-.18852.84389-.28773.44737-.0992.97606-.0992.85406 0 1.51494.28773.66088.27781 1.09808.79375.44736.50601.67104 1.22039.23386.70445.23386 1.55773v6.47897h-2.51134v-6.47897q0-.93266-.44737-1.43867-.43719-.51594-1.32175-.51594-.65071 0-1.22009.28774-.56937.28773-1.07774.78382v7.36202zM-299.40453 575.10904q.67105 0 1.26076.13891.58971.12898 1.07774.38695h2.99937v.91281q0 .22821-.12201.35719t-.41686.17859l-.9354.16867q.10165.25797.15251.54571.061.28773.061.60523 0 .75406-.31518 1.36921-.30502.60524-.85406 1.03188-.53887.42664-1.29125.66476-.74222.2282-1.61662.2282-.58971 0-1.14891-.10914-.48803.28774-.48803.64492 0 .30758.28469.45641.29485.1389.76254.19843.47787.0595 1.07775.0794.59987.01 1.23024.0595.63038.0496 1.23026.17859.59987.11907 1.06757.38696.47787.26789.76255.73421.29486.45641.29486 1.1807 0 .67469-.3457 1.30969-.33552.635-.98623 1.13109-.64054.49609-1.57593.79375-.9354.30757-2.13515.30757-1.18959 0-2.06398-.2282-.87439-.21828-1.45393-.59531-.56938-.36711-.85406-.85328-.28468-.48617-.28468-1.01203 0-.71437.44736-1.20054t1.24042-.77391q-.38636-.20835-.62022-.55562-.23384-.34726-.23384-.90289 0-.2282.0814-.46632.0814-.24805.24401-.48618.17285-.23812.42704-.44648.25417-.21828.59987-.38695-.79306-.41672-1.25059-1.11125-.44736-.69453-.44736-1.62718 0-.75406.30502-1.35929.31519-.61516.86422-1.0418.55921-.43656 1.31159-.66476.76256-.22821 1.65728-.22821zm2.75536 10.81482q0-.29765-.18301-.48617-.18301-.18851-.4982-.28773-.31519-.10914-.74223-.15875-.41685-.0496-.89472-.0695-.46769-.0298-.97607-.0496-.4982-.0298-.96589-.0893-.42703.2282-.69139.5457-.25417.30758-.25417.71437 0 .26789.13217.4961.14234.23812.43719.40679.30502.16867.78289.25797.47787.0992 1.16924.0992.70155 0 1.20992-.10914.50837-.0992.83373-.28774.33552-.17859.48803-.43656.15251-.24804.15251-.5457zm-2.75536-5.79436q.46771 0 .81339-.11906.34569-.12899.56937-.34727.23386-.21828.3457-.52585.12201-.30758.12201-.67469 0-.75406-.46771-1.19062-.45753-.44649-1.38276-.44649t-1.39292.44649q-.45753.43656-.45753 1.19062 0 .35719.11184.66476.12201.30758.34569.53578.23384.21828.57953.34727.35587.11906.81339.11906zM-285.06018 575.12889q.98624 0 1.80979.30758.83373.30757 1.4336.90288.59988.58539.9354 1.44859.33552.85328.33552 1.95461 0 .27781-.0305.46633-.0203.17859-.0915.28773-.061.0992-.17284.14883-.11184.0397-.28469.0397h-6.4461q.11184 1.56766.86422 2.30187.75239.73422 1.99281.73422.61004 0 1.04724-.13891.44736-.1389.77272-.30757.33552-.16867.57953-.30758.25419-.13891.48803-.13891.15252 0 .26436.0595t.19317.16868l.73206.89296q-.41687.47625-.9354.80367-.51854.3175-1.08791.51594-.5592.18851-1.14891.26789-.57953.0794-1.12857.0794-1.08791 0-2.02331-.34726-.93539-.35719-1.62678-1.0418-.69137-.69452-1.08791-1.70655-.39652-1.02195-.39652-2.3614 0-1.0418.34568-1.95461.3457-.92273.98624-1.59742.65071-.6846 1.57594-1.08148.9354-.39687 2.10464-.39687zm.0508 1.75617q-1.09807 0-1.71828.60523-.62021.60523-.79305 1.71648h4.71765q0-.47625-.13218-.89297-.13217-.42664-.40669-.74414-.27451-.3175-.69138-.49609-.41687-.18851-.97607-.18851zM-275.37088 585.46746v-10.17982h1.53527q.48804 0 .64054.44648l.17285.80367q.31518-.3175.66088-.57547.35585-.25796.74221-.44648.39653-.18852.84389-.28773.44737-.0992.97607-.0992.85406 0 1.51494.28773.66088.27781 1.09807.79375.44737.50601.67105 1.22039.23384.70445.23384 1.55773v6.47897h-2.51133v-6.47897q0-.93266-.44737-1.43867-.4372-.51594-1.32176-.51594-.65071 0-1.22008.28774-.56937.28773-1.07773.78382v7.36202zM-258.02144 575.28764v10.17982h-2.51134v-10.17982zm.3762-2.96664q0 .3175-.13219.59532-.13217.27781-.35585.48617-.21351.20835-.50836.33734-.29486.11906-.63039.11906-.32535 0-.6202-.11906-.28469-.12899-.4982-.33734-.21352-.20836-.3457-.48617-.122-.27782-.122-.59532 0-.32742.122-.61515.13218-.28773.3457-.49609.21351-.20836.4982-.32742.29485-.12899.6202-.12899.33553 0 .63039.12899.29485.11906.50836.32742.22368.20836.35585.49609.13219.28773.13219.61515zM-247.74594 575.12889q.98624 0 1.80979.30758.83373.30757 1.4336.90288.59988.58539.9354 1.44859.33552.85328.33552 1.95461 0 .27781-.0305.46633-.0203.17859-.0915.28773-.061.0992-.17284.14883-.11184.0397-.2847.0397h-6.4461q.11184 1.56766.86423 2.30187.75239.73422 1.9928.73422.61004 0 1.04724-.13891.44736-.1389.77272-.30757.33552-.16867.57954-.30758.25418-.13891.48803-.13891.15251 0 .26436.0595.11184.0595.19317.16868l.73205.89296q-.41686.47625-.9354.80367-.51853.3175-1.0879.51594-.55921.18851-1.14891.26789-.57954.0794-1.12858.0794-1.08791 0-2.02331-.34726-.9354-.35719-1.62677-1.0418-.69138-.69452-1.08791-1.70655-.39652-1.02195-.39652-2.3614 0-1.0418.34568-1.95461.34569-.92273.98624-1.59742.65071-.6846 1.57594-1.08148.9354-.39687 2.10464-.39687zm.0508 1.75617q-1.09807 0-1.71828.60523-.62022.60523-.79306 1.71648h4.71766q0-.47625-.13218-.89297-.13218-.42664-.4067-.74414t-.69137-.49609q-.41687-.18851-.97607-.18851zM-235.75882 575.28764v6.46904q0 .93266.4372 1.44859.44736.50602 1.33192.50602.65071 0 1.22008-.27781.56937-.28774 1.07775-.78383v-7.36201h2.51133v10.17982h-1.53527q-.48804 0-.64054-.44649l-.17284-.81359q-.32536.3175-.67106.58539-.34569.25797-.74221.44648-.38636.1786-.8439.27782-.44736.10914-.96589.10914-.85406 0-1.51494-.27782-.65071-.28773-1.09808-.80367-.44736-.51593-.68121-1.22038-.22368-.71438-.22368-1.56766v-6.46904zM-223.38122 585.46746v-10.17982h1.47427q.38636 0 .53886.1389.15252.13891.20335.47625l.15252 1.23031q.5592-.94257 1.31159-1.48828.75237-.5457 1.68777-.5457.77273 0 1.2811.34727l-.32536 1.83554q-.0305.17859-.13218.25797-.10166.0694-.27452.0694-.1525 0-.41686-.0694-.26435-.0695-.70155-.0695-.78288 0-1.34208.42664-.55922.41672-.94558 1.23031v6.34007zM-211.93202 585.46746v-14.74387h2.51135v5.8142q.6202-.64492 1.40309-1.02195.78288-.38695 1.83012-.38695.85406 0 1.55561.34726.71172.33735 1.22008.99219.51853.65484.79305 1.61726.28469.96242.28469 2.21257 0 1.14101-.31519 2.11336-.31519.97234-.9049 1.68671-.57953.71437-1.41325 1.12117-.82356.39687-1.85046.39687-.47787 0-.8744-.0992-.39652-.0893-.72188-.25797t-.61004-.4068q-.27452-.24805-.52871-.5457l-.11184.68461q-.061.25797-.21351.36711-.14234.10914-.39653.10914zm4.88034-8.43358q-.7829 0-1.3421.32742-.54904.3175-1.02689.90289v4.56405q.42702.51594.92522.7243.50837.19844 1.09807.19844.56938 0 1.02691-.20836t.77272-.635q.32535-.42664.4982-1.07156.17284-.65484.17284-1.53789 0-.89296-.1525-1.50812-.14235-.62508-.41687-1.01203t-.67104-.56554q-.38636-.1786-.88456-.1786zM-194.94955 575.28764v6.46904q0 .93266.43719 1.44859.44737.50602 1.33193.50602.65071 0 1.22008-.27781.56937-.28774 1.07774-.78383v-7.36201h2.51134v10.17982h-1.53527q-.48804 0-.64055-.44649l-.17284-.81359q-.32536.3175-.67105.58539-.34569.25797-.74222.44648-.38636.1786-.84388.27782-.44737.10914-.96591.10914-.85405 0-1.51493-.27782-.65071-.28773-1.09807-.80367-.44738-.51593-.68122-1.22038-.22368-.71438-.22368-1.56766v-6.46904zm1.6166-2.63921q0 .27781-.11184.52585-.11184.23813-.31519.41672-.19317.17859-.45753.28773-.25417.0992-.53887.0992-.27452 0-.5287-.0992-.24402-.10914-.43719-.28773-.19319-.17859-.30503-.41672-.11184-.24804-.11184-.52585 0-.28774.11184-.53578.11184-.25797.30503-.44649.19317-.18851.43719-.29765.25418-.10914.5287-.10914.2847 0 .53887.10914.26436.10914.45753.29765.20335.18852.31519.44649.11184.24804.11184.53578zm3.80259 0q0 .27781-.11184.52585-.11184.23813-.30501.41672-.19319.17859-.45753.28773-.25419.0992-.53887.0992-.28469 0-.53887-.0992-.25419-.10914-.44737-.28773-.18302-.17859-.29486-.41672-.11184-.24804-.11184-.52585 0-.28774.11184-.53578.11184-.25797.29486-.44649.19318-.18851.44737-.29765.25418-.10914.53887-.10914.28468 0 .53887.10914.26434.10914.45753.29765.19317.18852.30501.44649.11184.24804.11184.53578zM-182.57194 585.46746v-10.17982h1.47427q.38635 0 .53886.1389.15251.13891.20335.47625l.15251 1.23031q.5592-.94257 1.31159-1.48828.75238-.5457 1.68778-.5457.77272 0 1.28109.34727l-.32536 1.83554q-.0305.17859-.13218.25797-.10165.0694-.27452.0694-.1525 0-.41685-.0694-.26436-.0695-.70155-.0695-.78289 0-1.34209.42664-.5592.41672-.94557 1.23031v6.34007zM-166.69996 575.12889q1.16925 0 2.11481.36711.95574.3671 1.62678 1.04179.67105.67469 1.03707 1.64703.36602.97234.36602 2.17288 0 1.21047-.36602 2.18281t-1.03707 1.65695q-.67104.68461-1.62678 1.05172-.94556.3671-2.11481.3671-1.16924 0-2.12498-.3671-.95573-.36711-1.63694-1.05172-.67105-.68461-1.04724-1.65695-.36602-.97234-.36602-2.18281 0-1.20054.36602-2.17288.37619-.97234 1.04724-1.64703.68121-.67469 1.63694-1.04179.95574-.36711 2.12498-.36711zm0 8.60224q1.30142 0 1.92164-.85328.63037-.85328.63037-2.5003 0-1.64703-.63037-2.51023-.62022-.8632-1.92164-.8632-1.32175 0-1.95213.87312-.63038.8632-.63038 2.50031 0 1.6371.63038 2.5003.63038.85328 1.95213.85328zM-148.98056 585.46746v-8.33436l-.90489-.1389q-.29485-.0496-.47787-.19844-.17284-.14883-.17284-.41672v-1.00211h1.5556v-.75406q0-.87312.26435-1.56765.27452-.69453.77272-1.1807.50837-.48617 1.23026-.74414.72188-.25797 1.62677-.25797.72188 0 1.3421.18852l-.0508 1.23031q-.0203.28773-.27452.35719-.25419.0694-.58971.0694-.44736 0-.80322.0992-.34569.0893-.5897.32742-.24402.2282-.3762.61515-.122.37703-.122.94258v.67468h2.71468v1.74625h-2.63335v8.34428zM-136.90288 575.28764v6.46904q0 .93266.43718 1.44859.44738.50602 1.33194.50602.65071 0 1.22008-.27781.56937-.28774 1.07774-.78383v-7.36201h2.51133v10.17982h-1.53527q-.48803 0-.64054-.44649l-.17285-.81359q-.32535.3175-.67104.58539-.34569.25797-.74222.44648-.38636.1786-.84389.27782-.44737.10914-.9659.10914-.85406 0-1.51494-.27782-.65071-.28773-1.09807-.80367-.44736-.51593-.68121-1.22038-.22368-.71438-.22368-1.56766v-6.46904zm1.6166-2.63921q0 .27781-.11184.52585-.11184.23813-.31519.41672-.19317.17859-.45753.28773-.25418.0992-.53887.0992-.27452 0-.5287-.0992-.24402-.10914-.4372-.28773-.19318-.17859-.30502-.41672-.11184-.24804-.11184-.52585 0-.28774.11184-.53578.11184-.25797.30502-.44649.19318-.18851.4372-.29765.25418-.10914.5287-.10914.28469 0 .53887.10914.26436.10914.45753.29765.20335.18852.31519.44649.11184.24804.11184.53578zm3.80259 0q0 .27781-.11184.52585-.11184.23813-.30501.41672-.19319.17859-.45754.28773-.25418.0992-.53887.0992-.28469 0-.53886-.0992-.25419-.10914-.44738-.28773-.183-.17859-.29485-.41672-.11184-.24804-.11184-.52585 0-.28774.11184-.53578.11185-.25797.29485-.44649.19319-.18851.44738-.29765.25417-.10914.53886-.10914t.53887.10914q.26435.10914.45754.29765.19317.18852.30501.44649.11184.24804.11184.53578zM-124.52528 585.46746v-10.17982h1.47427q.38636 0 .53886.1389.15251.13891.20335.47625l.15251 1.23031q.5592-.94257 1.31159-1.48828.75238-.5457 1.68778-.5457.77272 0 1.28109.34727l-.32536 1.83554q-.0305.17859-.13218.25797-.10165.0694-.27452.0694-.1525 0-.41685-.0694-.26436-.0695-.70155-.0695-.78289 0-1.34209.42664-.55921.41672-.94557 1.23031v6.34007z" style="font-weight:700;font-size:19.8437px;line-height:1.25;font-family:Lato;-inkscape-font-specification:'Lato Bold';text-align:center;letter-spacing:3.04271px;text-anchor:middle;fill:#fff;stroke-width:.796215;font-variation-settings:normal;opacity:1;vector-effect:none;fill-opacity:1;stroke:none;stroke-linecap:butt;stroke-linejoin:miter;stroke-miterlimit:4;stroke-dasharray:none;stroke-dashoffset:0;stroke-opacity:1;-inkscape-stroke:none;stop-color:#000;stop-opacity:1" transform="translate(350.64228 -365.66644)"/><path d="M-315.01612 602.44559q-.14551.29104-.34395.4101-.1852.11906-.44979.11906t-.59531-.19843q-.33073-.21167-.78052-.46303-.4498-.25135-1.05834-.44979-.5953-.21166-1.41552-.21166-.74083 0-1.29646.18521-.54239.17197-.92604.48947-.37041.3175-.55562.76729-.18521.43657-.18521.96573 0 .67469.37043 1.12448.38364.44979 1.0054.76729.62178.3175 1.41553.56885.79375.25136 1.61396.5424.83343.27781 1.62718.66146.79375.37041 1.41552.9525.62177.56885.99219 1.40229.38364.83343.38364 2.02406 0 1.29645-.44979 2.43416-.43656 1.12448-1.29645 1.97114-.84667.83344-2.07698 1.32292-1.23031.47625-2.81781.47625-.91281 0-1.79916-.18521-.88636-.17198-1.70656-.50271-.80698-.33073-1.52136-.79375-.70114-.46302-1.25677-1.03187l1.03188-1.70656q.14552-.18521.34396-.30427.21166-.13229.46301-.13229.33074 0 .71437.27781.38365.26458.89958.59531.52918.33073 1.23031.60854.71438.26458 1.70656.26458 1.52136 0 2.35479-.71437.83344-.7276.83344-2.07698 0-.75406-.38365-1.23031-.37041-.47625-.99218-.79375-.62177-.33073-1.41552-.55562-.79375-.2249-1.61396-.48948-.82021-.26458-1.61395-.635-.79375-.37041-1.41552-.96573-.62177-.59531-1.00542-1.48166-.37041-.89958-.37041-2.20927 0-1.0451.4101-2.03729.42333-.99218 1.21708-1.75948.80698-.76729 1.97114-1.23031 1.16417-.46302 2.65906-.46302 1.69333 0 3.12208.52917t2.43417 1.48166zM-305.18396 604.3109q1.52136 0 2.75167.48948 1.24353.48947 2.11666 1.38906.87311.89958 1.34937 2.19603.47625 1.29646.47625 2.89719 0 1.61395-.47625 2.91041-.47625 1.29646-1.34937 2.20927-.87312.91281-2.11666 1.40229-1.23031.48948-2.75167.48948-1.52135 0-2.76489-.48948-1.24354-.48948-2.12989-1.40229-.87313-.91281-1.3626-2.20927-.47625-1.29646-.47625-2.91041 0-1.60073.47625-2.89719.48947-1.29645 1.3626-2.19603.88635-.89959 2.12989-1.38906 1.24354-.48948 2.76489-.48948zm0 11.46967q1.69333 0 2.50031-1.13771.8202-1.1377.8202-3.33374t-.8202-3.34698q-.80698-1.15093-2.50031-1.15093-1.71979 0-2.53999 1.16416-.82021 1.15094-.82021 3.33375t.82021 3.33374q.8202 1.13771 2.53999 1.13771zM-295.09384 618.09567v-11.11249l-1.17739-.1852q-.38365-.0661-.62178-.26459-.22489-.19843-.22489-.55562v-1.33614h2.02406v-1.00542q0-1.16417.34396-2.09021.35719-.92604 1.00542-1.57426.66145-.64823 1.60072-.99219.93927-.34396 2.11667-.34396.93927 0 1.74625.25136l-.0661 1.64041q-.0265.38365-.35719.47625-.33074.0926-.76729.0926-.58209 0-1.0451.13229-.44979.11907-.76729.43657-.3175.30427-.48948.8202-.15875.50271-.15875 1.25677v.89959h3.53217v2.32833h-3.42635v11.12571zM-281.70305 618.30734q-1.75948 0-2.71198-.99219-.95249-1.00541-.95249-2.76489v-7.5803h-1.37583q-.26459 0-.46302-.17198-.18521-.17198-.18521-.51594v-1.29646l2.18281-.35718.68792-3.70417q.0529-.26458.23812-.4101.19844-.14552.48948-.14552h1.69333v4.27302h3.57187v2.32833h-3.57187v7.3554q0 .635.3175.99219t.84667.35719q.30427 0 .50271-.0661.21166-.0794.35718-.15875.15875-.0794.27781-.14552.11907-.0794.23813-.0794.14552 0 .23812.0794.0926.0661.19844.21167l.97896 1.58749q-.71438.59532-1.64042.89959-.92604.30427-1.91822.30427zM-277.3184 604.52256h2.59291q.37042 0 .62177.17198t.3175.43656l1.94468 7.24958q.15875.59531.25136 1.16416.10583.56886.19843 1.13771.14553-.56885.30428-1.13771.17197-.56885.35718-1.16416l2.24896-7.27603q.0794-.26459.3175-.43657.23812-.17198.55562-.17198h1.44198q.35719 0 .59531.17198.23813.17198.3175.43657l2.2225 7.40832q.17198.56885.30427 1.11125.14551.52916.27781 1.07156.0926-.56885.19844-1.13771.11906-.56885.29104-1.17739l2.01083-7.24958q.0661-.26458.3175-.43656.25135-.17198.58208-.17198h2.47385l-4.29947 13.57311h-2.63261q-.42333 0-.60854-.58208l-2.4474-7.84489q-.11906-.38364-.22489-.76729-.0926-.39687-.15875-.78052-.0794.39688-.17198.79375-.0926.38365-.21167.78052l-2.47385 7.81843q-.18521.58208-.71437.58208h-2.50031zM-243.83501 618.09567h-1.46844q-.46302 0-.7276-.13229-.26458-.14552-.39688-.56885l-.29104-.96573q-.51593.46302-1.01864.82021-.48948.34395-1.01866.58208-.52915.23812-1.12447.35718-.59531.11907-1.32292.11907-.85989 0-1.5875-.2249-.7276-.23812-1.25677-.70114-.51593-.46302-.80697-1.15094-.29105-.68792-.29105-1.60073 0-.76729.39688-1.50812.4101-.75406 1.34937-1.34937.93927-.60854 2.50031-1.00542 1.56104-.39687 3.87614-.44979v-.79375q0-1.3626-.58208-2.01083-.56885-.66146-1.66686-.66146-.79375 0-1.32293.18521-.52915.18521-.92604.42333-.38364.2249-.71437.41011-.33072.18521-.72761.18521-.33072 0-.56885-.17198-.23812-.17198-.38364-.42334l-.59532-1.0451q2.34156-2.14312 5.64886-2.14312 1.19061 0 2.11665.39687.93927.38365 1.58751 1.08479.64823.68792.97896 1.65365.34396.96573.34396 2.11666zm-6.34999-2.03729q.5027 0 .92604-.0926.42333-.0926.79375-.27781.38364-.18521.7276-.4498.35719-.27781.71437-.64822v-2.28865q-1.42875.0661-2.39448.25136-.95249.17198-1.53458.44979-.58209.27781-.83344.64823-.23813.37041-.23813.80697 0 .8599.50271 1.23032.51594.37041 1.33616.37041zM-240.3574 618.09567v-13.57311h1.91822q.50271 0 .70115.18521.19844.18521.26458.635l.19844 1.64041q.7276-1.25676 1.70656-1.98437.97896-.7276 2.19604-.7276 1.00541 0 1.66687.46302l-.42333 2.44739q-.0397.23813-.17198.34396-.13229.0926-.35719.0926-.19843 0-.54239-.0926-.34396-.0926-.91281-.0926-1.01866 0-1.74625.56885-.72761.55562-1.23031 1.64041v8.45343zM-223.68331 604.3109q1.28323 0 2.3548.4101 1.08479.4101 1.8653 1.20385.78052.78052 1.21709 1.93146.43655 1.13771.43655 2.60614 0 .37042-.0397.62177-.0265.23813-.11906.38365-.0794.13229-.22488.19843-.14554.0529-.37042.0529h-8.38728q.14552 2.09021 1.12448 3.06916.97895.97896 2.5929.97896.79375 0 1.3626-.18521.58208-.18521 1.00542-.4101.43656-.2249.75406-.41011.33073-.1852.635-.1852.19844 0 .34396.0794.14552.0794.25135.2249l.9525 1.19062q-.5424.635-1.21708 1.07156-.67469.42333-1.41552.68792-.72761.25135-1.4949.35718-.75406.10584-1.46843.10584-1.41552 0-2.6326-.46302-1.21708-.47625-2.11667-1.38906-.89958-.92604-1.41552-2.27542-.51593-1.3626-.51593-3.14853 0-1.38907.44979-2.60615.44979-1.23031 1.28323-2.12989.84667-.91281 2.05051-1.44198 1.2171-.52916 2.73844-.52916zm.0661 2.34156q-1.42874 0-2.23571.80697-.80698.80698-1.03188 2.28865h6.13833q0-.635-.17198-1.19063-.17198-.56885-.52917-.99218-.35718-.42334-.89958-.66146-.54239-.25135-1.27001-.25135zM-206.812 607.16839q-.13229.21167-.27781.30427-.14552.0794-.37042.0794-.23812 0-.51593-.13229-.26459-.13229-.62177-.29104-.35719-.17198-.82021-.30428-.44979-.13229-1.07156-.13229-.96573 0-1.52135.41011-.55563.4101-.55563 1.07156 0 .43656.2778.74083.29106.29104.75408.51594.47625.22489 1.07156.4101.59531.17198 1.21708.38365.62177.21166 1.21708.48948.59531.26458 1.05833.68791.47625.4101.75406.99219.29105.58208.29105 1.40229 0 .97895-.35719 1.81239-.35719.82021-1.0451 1.42875-.68792.59531-1.70656.93927-1.00542.33073-2.31511.33073-.70114 0-1.37583-.13229-.66145-.11907-1.28322-.34396-.60855-.2249-1.13771-.52917-.51594-.30427-.91281-.66146l.75406-1.24354q.14552-.22489.34396-.34395.19843-.11907.5027-.11907.30427 0 .56886.17198.27781.17198.635.37042.35718.19844.83343.37042.48948.17197 1.23031.17197.58209 0 .99219-.13229.42333-.14552.68792-.37041.27781-.2249.39687-.51594.13229-.30427.13229-.62177 0-.47625-.29104-.78052-.27781-.30427-.75406-.52917-.46302-.22489-1.07156-.39687-.59531-.18521-1.23031-.39688-.62177-.21166-1.23031-.48947-.59532-.29105-1.07156-.72761-.46302-.43656-.75407-1.07156-.27781-.635-.27781-1.53458 0-.83344.33073-1.5875t.96573-1.30968q.64823-.56886 1.60073-.89959.96572-.34395 2.22249-.34395 1.40229 0 2.55323.46302 1.15093.46302 1.91823 1.21708zM-198.21305 621.82629q-.14552.34396-.38365.51594-.22489.18521-.70114.18521h-2.43416l2.53999-5.43718-5.4901-12.5677h2.85749q.39688 0 .60854.18521.21167.18521.3175.42333l2.89719 7.03791q.14552.34396.25135.71438.10583.37041.18521.74083.10583-.38365.22489-.74083.13229-.35719.27782-.72761l2.7252-7.02468q.10583-.26458.34396-.43656.25135-.17198.55562-.17198h2.61937zM-180.59968 607.16839q-.13229.21167-.2778.30427-.14552.0794-.37042.0794-.23812 0-.51594-.13229-.26458-.13229-.62177-.29104-.35718-.17198-.8202-.30428-.44979-.13229-1.07156-.13229-.96574 0-1.52136.41011-.55562.4101-.55562 1.07156 0 .43656.27781.74083.29104.29104.75406.51594.47625.22489 1.07156.4101.59532.17198 1.21709.38365.62177.21166 1.21708.48948.59531.26458 1.05833.68791.47625.4101.75406.99219.29104.58208.29104 1.40229 0 .97895-.35719 1.81239-.35718.82021-1.0451 1.42875-.68791.59531-1.70656.93927-1.00541.33073-2.3151.33073-.70114 0-1.37583-.13229-.66146-.11907-1.28323-.34396-.60854-.2249-1.13771-.52917-.51593-.30427-.91281-.66146l.75406-1.24354q.14553-.22489.34396-.34395.19844-.11907.50271-.11907t.56885.17198q.27782.17198.635.37042.35719.19844.83344.37042.48948.17197 1.23031.17197.58208 0 .99219-.13229.42333-.14552.68791-.37041.27781-.2249.39688-.51594.13229-.30427.13229-.62177 0-.47625-.29104-.78052-.27782-.30427-.75406-.52917-.46302-.22489-1.07157-.39687-.59531-.18521-1.23031-.39688-.62177-.21166-1.23031-.48947-.59531-.29105-1.07156-.72761-.46302-.43656-.75406-1.07156-.27781-.635-.27781-1.53458 0-.83344.33073-1.5875t.96572-1.30968q.64823-.56886 1.60073-.89959.96573-.34395 2.2225-.34395 1.40229 0 2.55322.46302 1.15094.46302 1.91823 1.21708zM-172.35792 618.30734q-1.75948 0-2.71198-.99219-.9525-1.00541-.9525-2.76489v-7.5803h-1.37583q-.26458 0-.46302-.17198-.18521-.17198-.18521-.51594v-1.29646l2.18281-.35718.68792-3.70417q.0529-.26458.23812-.4101.19844-.14552.48948-.14552h1.69333v4.27302h3.57187v2.32833h-3.57187v7.3554q0 .635.3175.99219t.84667.35719q.30427 0 .50271-.0661.21166-.0794.35718-.15875.15875-.0794.27782-.14552.11906-.0794.23812-.0794.14552 0 .23813.0794.0926.0661.19843.21167l.97896 1.58749q-.71437.59532-1.64042.89959-.92604.30427-1.91822.30427zM-160.71049 604.3109q1.28323 0 2.35479.4101 1.08479.4101 1.86531 1.20385.78052.78052 1.21709 1.93146.43656 1.13771.43656 2.60614 0 .37042-.0397.62177-.0265.23813-.11905.38365-.0794.13229-.2249.19843-.14552.0529-.37041.0529h-8.38729q.14553 2.09021 1.12448 3.06916.97896.97896 2.59292.97896.79374 0 1.36259-.18521.58208-.18521 1.00542-.4101.43656-.2249.75407-.41011.33072-.1852.63499-.1852.19844 0 .34396.0794.14552.0794.25136.2249l.95249 1.19062q-.54239.635-1.21708 1.07156-.67468.42333-1.41552.68792-.7276.25135-1.49489.35718-.75406.10584-1.46844.10584-1.41551 0-2.6326-.46302-1.21708-.47625-2.11666-1.38906-.89958-.92604-1.41552-2.27542-.51594-1.3626-.51594-3.14853 0-1.38907.44979-2.60615.4498-1.23031 1.28323-2.12989.84667-.91281 2.05052-1.44198 1.21708-.52916 2.73843-.52916zm.0661 2.34156q-1.42875 0-2.23573.80697-.80697.80698-1.03187 2.28865h6.13833q0-.635-.17198-1.19063-.17198-.56885-.52917-.99218-.35719-.42334-.89958-.66146-.5424-.25135-1.27-.25135zM-151.89573 618.09567v-13.57311h1.99761q.635 0 .83343.59531l.21167 1.00542q.35719-.39687.74082-.7276.39689-.33073.83344-.56886.4498-.23812.9525-.37041.51593-.14552 1.12447-.14552 1.28323 0 2.10344.70114.83344.68792 1.24354 1.83885.3175-.67468.79375-1.15093.47625-.48948 1.0451-.79375.56885-.30427 1.20385-.44979.64823-.14552 1.29646-.14552 1.12448 0 1.9976.34395.87313.34396 1.46844 1.00542.59531.66146.89958 1.61396.3175.95249.3175 2.18281v8.63863h-3.2676v-8.63863q0-1.29646-.56885-1.94469-.56886-.66146-1.66688-.66146-.5027 0-.93927.17198-.42333.17198-.75406.50271-.3175.3175-.50271.80698-.1852.48948-.1852 1.12448v8.63863h-3.28083v-8.63863q0-1.36261-.55563-1.98438-.54239-.62177-1.61395-.62177-.70115 0-1.32292.35719-.60854.34396-1.13771.9525v9.93509zM-123.74947 604.3109q1.28323 0 2.35479.4101 1.08479.4101 1.8653 1.20385.78052.78052 1.21708 1.93146.43656 1.13771.43656 2.60614 0 .37042-.0397.62177-.0264.23813-.11906.38365-.0794.13229-.22489.19843-.14553.0529-.37042.0529h-8.38728q.14552 2.09021 1.12448 3.06916.97895.97896 2.59291.97896.79376 0 1.3626-.18521.58209-.18521 1.00542-.4101.43656-.2249.75406-.41011.33073-.1852.63501-.1852.19844 0 .34395.0794.14553.0794.25135.2249l.9525 1.19062q-.5424.635-1.21707 1.07156-.67469.42333-1.41552.68792-.72761.25135-1.4949.35718-.75406.10584-1.46843.10584-1.41552 0-2.6326-.46302-1.21708-.47625-2.11667-1.38906-.89958-.92604-1.41552-2.27542-.51593-1.3626-.51593-3.14853 0-1.38907.44979-2.60615.44979-1.23031 1.28323-2.12989.84666-.91281 2.05051-1.44198 1.21709-.52916 2.73844-.52916zm.0661 2.34156q-1.42874 0-2.23572.80697-.80698.80698-1.03188 2.28865h6.13833q0-.635-.17198-1.19063-.17199-.56885-.52917-.99218-.35718-.42334-.89958-.66146-.54239-.25135-1.27-.25135z" style="font-weight:700;font-size:26.4583px;line-height:1.25;font-family:Lato;-inkscape-font-specification:'Lato Bold';text-align:center;letter-spacing:.264583px;text-anchor:middle;fill:#fff;stroke-width:.796215;font-variation-settings:normal;opacity:1;vector-effect:none;fill-opacity:1;stroke:none;stroke-linecap:butt;stroke-linejoin:miter;stroke-miterlimit:4;stroke-dasharray:none;stroke-dashoffset:0;stroke-opacity:1;-inkscape-stroke:none;stop-color:#000;stop-opacity:1" transform="translate(350.64228 -365.66644)"/></g></svg>