<svg width="706.39514" height="668.2132" viewBox="0 0 186.90033 176.79802" xmlns="http://www.w3.org/2000/svg"><defs><path id="c" d="M1600.6648 5530.2114h158.57976v94.550331H1600.6648z"/><path id="b" d="M157-13h55v40h-55z"/><filter style="color-interpolation-filters:sRGB" id="a" x="-.05642297" y="-.03515585" width="1.1128459" height="1.0703117"><feGaussianBlur stdDeviation="1.1384116"/></filter></defs><text xml:space="preserve" transform="matrix(.26458 0 0 .26458 95.661339 -1896.8378)" style="font-size:36px;line-height:1.25;font-family:Lato;-inkscape-font-specification:Lato;text-align:center;letter-spacing:0;white-space:pre;shape-inside:url(#b)"><tspan x="157" y="60.48"><tspan dx="0 20.882812 20.039062 14.484375 18.84375">Ehret</tspan></tspan></text><g style="display:inline"><path style="display:inline;vector-effect:none;fill:#000;fill-opacity:.25;stroke-width:.71169;stroke-opacity:.968165;stop-color:#000" d="M-400.82426 89.96192h233.62541v220.99753h-233.62541z" transform="matrix(.8 0 0 .8 320.659409 -71.969533)"/><path style="display:inline;fill:#fff;fill-opacity:1;stroke:none;stroke-width:.731013;stroke-miterlimit:4;stroke-dasharray:none;stroke-opacity:1;stop-color:#000" d="M-271.07296 186.16718c-53.68966 0-97.21334 25.95045-97.21335 57.96207 0 32.01177 43.52369 57.9628 97.21335 57.9628 53.68965 0 97.21404-25.95103 97.21404-57.9628 0-32.01162-43.52439-57.96207-97.21404-57.96207zm36.42001 22.14171c33.18021 0 60.07803 16.03714 60.07803 35.82036 0 19.78323-26.89782 35.82108-60.07803 35.82108-33.18018 0-60.07801-16.03785-60.07801-35.82108.00001-19.78322 26.89783-35.82036 60.07801-35.82036z" transform="matrix(.83355 0 0 .83355 319.61814948 -145.2858674)"/><path style="display:inline;fill:#fff;fill-opacity:1;stroke:none;stroke-width:.731013;stroke-miterlimit:4;stroke-dasharray:none;stroke-opacity:1;stop-color:#000" d="M-212.41915 221.99255c-20.50536 0-37.12817 9.91066-37.12818 22.1367 0 12.22605 16.62282 22.13743 37.12818 22.13743 20.50537 0 37.1282-9.91138 37.1282-22.13743 0-12.22604-16.62283-22.1367-37.1282-22.1367zm13.08686 8.45591c12.67229 0 22.94483 6.12514 22.94483 13.68079 0 7.55581-10.27254 13.68081-22.94483 13.68081-12.67233 0-22.94556-6.125-22.94556-13.68081.00004-7.55565 10.27323-13.68079 22.94556-13.68079z" transform="matrix(.83355 0 0 .83355 319.61814948 -145.2858674)"/><path style="display:inline;fill:#fff;fill-opacity:1;stroke:none;stroke-width:.730783;stroke-miterlimit:4;stroke-dasharray:none;stroke-opacity:1;stop-color:#000" d="M-177.48361 244.12935c0-4.66942-6.34867-8.45456-14.18015-8.45456-7.8315 0-14.18018 3.78514-14.18021 8.45456 0 4.66955 6.3487 8.45485 14.18021 8.45485 7.83148 0 14.18015-3.7853 14.18015-8.45485z" transform="matrix(.83355 0 0 .83355 319.61814948 -145.2858674)"/><g aria-label="INGENIEURBÜRO FÜR" style="font-weight:700;font-size:32.2792px;line-height:1.25;font-family:Lato;-inkscape-font-specification:'Lato, Bold';text-align:center;letter-spacing:0;text-anchor:middle;stroke-width:.264583"><path d="M-489.62509 360.62277h-4.35769v-23.33786h4.35769zM-482.0894 337.28491q.29051 0 .48418.0323.19368.0161.33894.0968.16139.0645.30665.20981.14525.12912.32279.35507l12.24996 15.607q-.0646-.56489-.0968-1.0975-.0161-.54874-.0161-1.01679v-14.18671h3.82508v23.33786h-2.2434q-.51647 0-.8554-.16139-.33893-.1614-.66172-.58103l-12.20154-15.54243q.0484.51646.0646 1.03293.0323.50033.0323.91996v14.33196h-3.82509v-23.33786h2.27569zM-449.24986 357.42713q1.46871 0 2.55006-.25823 1.09749-.27438 2.08201-.74242v-4.24472h-2.92127q-.41963 0-.66172-.22595-.2421-.2421-.2421-.58103v-2.45322h7.76315v9.44167q-.88768.64558-1.85605 1.12977-.95224.46805-2.04973.7747-1.08136.30665-2.32411.45191-1.24274.1614-2.67917.1614-2.55006 0-4.69662-.88768-2.14657-.88768-3.71211-2.46936t-2.45322-3.77667q-.87154-2.19498-.87154-4.79346 0-2.63075.8554-4.82574.8554-2.19499 2.42094-3.77667 1.58168-1.58168 3.82509-2.45322 2.2434-.87153 5.03555-.87153 2.85671 0 4.93872.85539 2.09815.83926 3.55071 2.19499l-1.25889 1.96903q-.37121.59717-.98451.59717-.38735 0-.79084-.25824-.51647-.30665-1.06522-.6133-.5326-.30665-1.19433-.53261-.64558-.22595-1.4687-.37121-.80698-.14526-1.8722-.14526-1.72693 0-3.13108.58103-1.388.58103-2.37252 1.66238-.98452 1.08135-1.51712 2.59847-.53261 1.51713-.53261 3.38932 0 2.01745.56489 3.59913.56488 1.56554 1.58168 2.6469 1.01679 1.08135 2.42094 1.66238 1.40414.56488 3.06652.56488zM-421.92047 337.28491v3.45387h-10.34548v6.47198h8.15049v3.3409h-8.15049v6.6011h10.34548v3.47001h-14.71932v-23.33786zM-415.89182 337.28491q.29051 0 .48418.0323.19368.0161.33894.0968.16139.0645.30665.20981.14526.12912.32279.35507l12.24996 15.607q-.0646-.56489-.0968-1.0975-.0161-.54874-.0161-1.01679v-14.18671h3.82509v23.33786h-2.24341q-.51647 0-.8554-.16139-.33893-.1614-.66172-.58103l-12.20154-15.54243q.0484.51646.0646 1.03293.0323.50033.0323.91996v14.33196h-3.82509v-23.33786h2.27569zM-388.87867 360.62277h-4.35769v-23.33786h4.35769zM-368.89936 337.28491v3.45387h-10.34548v6.47198h8.1505v3.3409h-8.1505v6.6011h10.34548v3.47001h-14.71931v-23.33786zM-355.75315 357.12048q1.25889 0 2.24341-.41963 1.00065-.41963 1.67851-1.17819.69401-.75856 1.04908-1.83992.37121-1.08135.37121-2.42094v-13.97689h4.34155v13.97689q0 2.08201-.67786 3.85737-.66173 1.75921-1.92061 3.05038-1.25889 1.27503-3.05039 2.00131-1.79149.71015-4.0349.71015-2.2434 0-4.0349-.71015-1.79149-.72628-3.05038-2.00131-1.24275-1.29117-1.92062-3.05038-.66172-1.77536-.66172-3.85737v-13.97689h4.34155v13.96075q0 1.33959.35507 2.42094.37121 1.08136 1.04908 1.85606.67786.75856 1.66238 1.17819 1.00065.41963 2.25954.41963zM-337.14369 351.5039v9.11887h-4.34155v-23.33786h7.11756q2.38866 0 4.08332.50033 1.7108.48419 2.79215 1.37186 1.0975.88768 1.59782 2.13043.51647 1.22661.51647 2.71145 0 1.17819-.35507 2.22727-.33893 1.04907-1.00066 1.90447-.64558.8554-1.61396 1.50098-.95223.64559-2.17884 1.03294.82312.46805 1.42028 1.33959l5.84254 8.61854h-3.90578q-.56489 0-.96838-.22595-.38735-.22596-.66172-.64559l-4.90644-7.47263q-.27438-.41963-.61331-.59717-.32279-.17753-.96837-.17753zm0-3.11495h2.71146q1.2266 0 2.13042-.30665.91996-.30665 1.50099-.83926.59716-.54874.88767-1.29116.29052-.74243.29052-1.6301 0-1.77536-1.17819-2.7276-1.16206-.95223-3.56686-.95223h-2.77601zM-320.51032 360.62277v-23.33786h8.05366q2.29183 0 3.90579.43577 1.6301.43577 2.66303 1.24275 1.04907.80698 1.53326 1.95289.48419 1.14591.48419 2.58234 0 .82312-.24209 1.58168-.2421.74242-.75857 1.40414-.50032.64559-1.29116 1.17819-.7747.53261-1.85606.90382 4.8096 1.08135 4.8096 5.19695 0 1.48485-.56488 2.74373-.56489 1.25889-1.64624 2.17885-1.08136.90382-2.66304 1.42028-1.58168.51647-3.61527.51647zm4.34155-10.2325v6.84319h4.40612q1.21047 0 2.01745-.29052.82311-.29051 1.3073-.7747.50033-.48419.71015-1.12977.22595-.64558.22595-1.37187 0-.75856-.24209-1.35572-.2421-.61331-.75857-1.03294-.51646-.43577-1.32344-.66172-.80698-.22595-1.95289-.22595zm0-3.00197h3.47002q2.21112 0 3.35704-.80698 1.14591-.80698 1.14591-2.5662 0-1.82377-1.03294-2.59847-1.03293-.7747-3.22792-.7747h-3.71211zM-290.05993 357.12048q1.25889 0 2.24341-.41963 1.00065-.41963 1.67852-1.17819.694-.75856 1.04907-1.83992.37121-1.08135.37121-2.42094v-13.97689h4.34155v13.97689q0 2.08201-.67786 3.85737-.66172 1.75921-1.92061 3.05038-1.25889 1.27503-3.05039 2.00131-1.79149.71015-4.0349.71015-2.2434 0-4.0349-.71015-1.79149-.72628-3.05038-2.00131-1.24275-1.29117-1.92061-3.05038-.66173-1.77536-.66173-3.85737v-13.97689h4.34155v13.96075q0 1.33959.35508 2.42094.37121 1.08136 1.04907 1.85606.67786.75856 1.66238 1.17819 1.00065.41963 2.25954.41963zm-1.32344-23.40242q0 .43577-.17754.82312-.17754.38735-.48419.67786t-.71014.45191q-.40349.1614-.8554.1614-.41963 0-.80698-.1614-.37121-.1614-.66172-.45191-.29052-.29051-.46805-.67786-.1614-.38735-.1614-.82312 0-.43577.1614-.82312.17753-.40349.46805-.694.29051-.30666.66172-.48419.38735-.17754.80698-.17754.45191 0 .8554.17754.40349.17753.71014.48419.30665.29051.48419.694.17754.38735.17754.82312zm6.9723 0q0 .43577-.17753.82312-.1614.38735-.45191.67786t-.694.45191q-.38735.1614-.83926.1614-.43577 0-.83926-.1614-.38735-.1614-.69401-.45191-.29051-.29051-.46804-.67786-.1614-.38735-.1614-.82312 0-.43577.1614-.82312.17753-.40349.46804-.694.30666-.30666.69401-.48419.40349-.17754.83926-.17754.45191 0 .83926.17754.40349.17753.694.48419.29051.29051.45191.694.17753.38735.17753.82312zM-271.45047 351.5039v9.11887h-4.34155v-23.33786h7.11757q2.38866 0 4.08331.50033 1.7108.48419 2.79216 1.37186 1.09749.88768 1.59782 2.13043.51646 1.22661.51646 2.71145 0 1.17819-.35507 2.22727-.33893 1.04907-1.00065 1.90447-.64559.8554-1.61396 1.50098-.95224.64559-2.17885 1.03294.82312.46805 1.42029 1.33959l5.84253 8.61854h-3.90578q-.56489 0-.96838-.22595-.38735-.22596-.66172-.64559l-4.90644-7.47263q-.27437-.41963-.61331-.59717-.32279-.17753-.96837-.17753zm0-3.11495h2.71146q1.22661 0 2.13042-.30665.91996-.30665 1.50099-.83926.59716-.54874.88768-1.29116.29051-.74243.29051-1.6301 0-1.77536-1.17819-2.7276-1.16205-.95223-3.56685-.95223h-2.77602zM-233.18802 348.95384q0 2.5662-.8554 4.76118-.85539 2.17885-2.4048 3.77667-1.5494 1.59782-3.72824 2.50164-2.17885.88768-4.82574.88768-2.6469 0-4.84188-.88768-2.17885-.90382-3.74439-2.50164-1.5494-1.59782-2.4048-3.77667-.8554-2.19498-.8554-4.76118 0-2.5662.8554-4.74504.8554-2.19499 2.4048-3.79281 1.56554-1.59782 3.74439-2.4855 2.19498-.90381 4.84188-.90381 2.64689 0 4.82574.90381 2.17884.90382 3.72824 2.50164 1.54941 1.58168 2.4048 3.77667.8554 2.17884.8554 4.74504zm-4.45453 0q0-1.92061-.51646-3.43773-.50033-1.53327-1.45257-2.59848-.95223-1.06521-2.3241-1.6301-1.35573-.56489-3.06652-.56489-1.7108 0-3.08267.56489-1.37186.56489-2.34024 1.6301-.95224 1.06521-1.4687 2.59848-.51647 1.51712-.51647 3.43773 0 1.92061.51647 3.45388.51646 1.51712 1.4687 2.58233.96838 1.04908 2.34024 1.61396 1.37187.56489 3.08267.56489 1.71079 0 3.06652-.56489 1.37187-.56488 2.3241-1.61396.95224-1.06521 1.45257-2.58233.51646-1.53327.51646-3.45388zM-208.82732 337.28491v3.45387h-10.34548v6.90775h8.73152v3.47002h-8.73152v9.50622h-4.37383v-23.33786zM-196.05936 357.12048q1.25889 0 2.2434-.41963 1.00066-.41963 1.67852-1.17819.694-.75856 1.04907-1.83992.37122-1.08135.37122-2.42094v-13.97689h4.34155v13.97689q0 2.08201-.67786 3.85737-.66173 1.75921-1.92062 3.05038-1.25889 1.27503-3.05038 2.00131-1.7915.71015-4.0349.71015-2.24341 0-4.0349-.71015-1.7915-.72628-3.05039-2.00131-1.24275-1.29117-1.92061-3.05038-.66172-1.77536-.66172-3.85737v-13.97689h4.34155v13.96075q0 1.33959.35507 2.42094.37121 1.08136 1.04907 1.85606.67787.75856 1.66238 1.17819 1.00066.41963 2.25955.41963zm-1.32345-23.40242q0 .43577-.17754.82312-.17753.38735-.48418.67786-.30666.29051-.71015.45191-.40349.1614-.85539.1614-.41963 0-.80698-.1614-.37122-.1614-.66173-.45191-.29051-.29051-.46805-.67786-.16139-.38735-.16139-.82312 0-.43577.16139-.82312.17754-.40349.46805-.694.29051-.30666.66173-.48419.38735-.17754.80698-.17754.4519 0 .85539.17754.40349.17753.71015.48419.30665.29051.48418.694.17754.38735.17754.82312zm6.97231 0q0 .43577-.17754.82312-.16139.38735-.45191.67786-.29051.29051-.694.45191-.38735.1614-.83926.1614-.43577 0-.83926-.1614-.38735-.1614-.694-.45191-.29051-.29051-.46805-.67786-.16139-.38735-.16139-.82312 0-.43577.16139-.82312.17754-.40349.46805-.694.30665-.30666.694-.48419.40349-.17754.83926-.17754.45191 0 .83926.17754.40349.17753.694.48419.29052.29051.45191.694.17754.38735.17754.82312zM-177.4499 351.5039v9.11887h-4.34155v-23.33786h7.11756q2.38866 0 4.08332.50033 1.7108.48419 2.79215 1.37186 1.09749.88768 1.59782 2.13043.51647 1.22661.51647 2.71145 0 1.17819-.35507 2.22727-.33894 1.04907-1.00066 1.90447-.64558.8554-1.61396 1.50098-.95224.64559-2.17884 1.03294.82311.46805 1.42028 1.33959l5.84254 8.61854h-3.90579q-.56488 0-.96837-.22595-.38735-.22596-.66173-.64559l-4.90644-7.47263q-.27437-.41963-.6133-.59717-.32279-.17753-.96838-.17753zm0-3.11495h2.71145q1.22661 0 2.13043-.30665.91996-.30665 1.50098-.83926.59717-.54874.88768-1.29116.29051-.74243.29051-1.6301 0-1.77536-1.17819-2.7276-1.16205-.95223-3.56685-.95223h-2.77601z" style="fill:#fff" transform="matrix(.4 0 0 .4 211.629393 2.7252118)"/></g><g aria-label="EHRET" style="font-weight:700;font-size:32.2792px;line-height:1.25;font-family:Lato;-inkscape-font-specification:'Lato, Bold';text-align:center;letter-spacing:0;text-anchor:middle;stroke-width:.264583"><path d="M-478.08666 284.4508v3.45388h-10.34549v6.47198h8.1505v3.34089h-8.1505v6.6011h10.34549v3.47002h-14.71932V284.4508ZM-454.64339 307.78867h-4.37383v-10.20023h-10.94265v10.20023h-4.37383V284.4508h4.37383v10.03883h10.94265V284.4508h4.37383zM-445.44836 298.66979v9.11888h-4.34155V284.4508h7.11756q2.38866 0 4.08332.50033 1.7108.48419 2.79215 1.37187 1.09749.88767 1.59782 2.13042.51647 1.22661.51647 2.71146 0 1.17819-.35507 2.22726-.33893 1.04908-1.00066 1.90447-.64558.8554-1.61396 1.50099-.95223.64558-2.17884 1.03293.82312.46805 1.42028 1.33959l5.84254 8.61855h-3.90579q-.56488 0-.96837-.22596-.38735-.22595-.66173-.64558l-4.90643-7.47264q-.27438-.41963-.61331-.59716-.32279-.17754-.96838-.17754zm0-3.11494h2.71145q1.22661 0 2.13043-.30665.91996-.30666 1.50098-.83926.59717-.54875.88768-1.29117.29051-.74242.29051-1.6301 0-1.77536-1.17819-2.72759-1.16205-.95224-3.56685-.95224h-2.77601zM-414.09567 284.4508v3.45388h-10.34548v6.47198h8.15049v3.34089h-8.15049v6.6011h10.34548v3.47002h-14.71932V284.4508ZM-393.89645 284.4508v3.56685h-7.02073v19.77102h-4.34155v-19.77102h-7.05301v-3.56685z" style="fill:#fff" transform="matrix(.4 0 0 .4 211.324417 4.8600278)"/></g><g aria-label="SOFTWARESYSTEME" style="font-weight:700;font-size:38.1px;line-height:1.25;font-family:Lato;-inkscape-font-specification:'Lato, Bold';text-align:center;letter-spacing:0;text-anchor:middle;stroke-width:.264583"><path d="M-478.99319 378.52077q-.20955.4191-.4953.59055-.2667.17145-.6477.17145-.381 0-.85725-.28575-.47625-.3048-1.12395-.66675-.6477-.36195-1.524-.6477-.85725-.3048-2.03835-.3048-1.0668 0-1.8669.2667-.78105.24765-1.3335.70485-.5334.4572-.8001 1.1049-.2667.62865-.2667 1.39065 0 .97155.5334 1.61925.55245.6477 1.4478 1.1049.89535.4572 2.03835.81915 1.143.36195 2.3241.78105 1.20015.40005 2.34315.9525 1.143.5334 2.03835 1.3716.89535.81915 1.42875 2.0193.55245 1.20015.55245 2.91465 0 1.8669-.6477 3.5052-.62865 1.61925-1.8669 2.83845-1.2192 1.20015-2.99085 1.905-1.77165.6858-4.05765.6858-1.31445 0-2.5908-.2667-1.27635-.24765-2.45745-.7239-1.16205-.47625-2.19075-1.143-1.00965-.66675-1.80975-1.4859l1.4859-2.45745q.20955-.2667.4953-.43815.3048-.1905.66675-.1905.47625 0 1.0287.40005.55245.381 1.2954.85725.762.47625 1.77165.8763 1.0287.381 2.45745.381 2.19075 0 3.3909-1.0287 1.20015-1.04775 1.20015-2.99085 0-1.08585-.55245-1.77165-.5334-.6858-1.42875-1.143-.89535-.47625-2.03835-.8001-1.143-.32385-2.3241-.70485-1.1811-.381-2.3241-.9144t-2.03835-1.39065q-.89535-.85725-1.4478-2.1336-.5334-1.2954-.5334-3.18135 0-1.50495.59055-2.9337.6096-1.42875 1.7526-2.53365 1.16205-1.1049 2.83845-1.77165t3.82905-.66675q2.4384 0 4.4958.762t3.5052 2.1336zM-446.87072 387.28377q0 3.02895-1.00965 5.61975-1.00965 2.57175-2.83845 4.4577-1.8288 1.88595-4.40055 2.95275-2.57175 1.04775-5.69595 1.04775-3.1242 0-5.715-1.04775-2.57175-1.0668-4.4196-2.95275-1.8288-1.88595-2.83845-4.4577-1.00965-2.5908-1.00965-5.61975 0-3.02895 1.00965-5.6007 1.00965-2.5908 2.83845-4.47675 1.84785-1.88595 4.4196-2.9337 2.5908-1.0668 5.715-1.0668 3.1242 0 5.69595 1.0668 2.57175 1.0668 4.40055 2.95275 1.8288 1.8669 2.83845 4.4577 1.00965 2.57175 1.00965 5.6007zm-5.2578 0q0-2.26695-.6096-4.05765-.59055-1.80975-1.7145-3.06705-1.12395-1.2573-2.7432-1.92405-1.6002-.66675-3.6195-.66675t-3.63855.66675q-1.61925.66675-2.76225 1.92405-1.12395 1.2573-1.73355 3.06705-.6096 1.7907-.6096 4.05765 0 2.26695.6096 4.0767.6096 1.7907 1.73355 3.048 1.143 1.23825 2.76225 1.905 1.61925.66675 3.63855.66675t3.6195-.66675q1.61925-.66675 2.7432-1.905 1.12395-1.2573 1.7145-3.048.6096-1.80975.6096-4.0767zM-425.48412 373.51062v4.0767h-12.21105v8.1534h10.30605v4.09575h-10.30605v11.22045h-5.16255v-27.5463zM-402.08894 373.51062v4.21005h-8.28675v23.33625h-5.12445v-23.33625h-8.32485v-4.21005zM-401.3573 373.51062h4.3053q.66675 0 1.1049.32385.4572.3048.6096.8382l4.6863 16.47825q.17145.6096.3048 1.3335.1524.70485.28575 1.50495.1524-.8001.32385-1.50495.1905-.7239.40005-1.3335l5.4102-16.47825q.1524-.43815.59055-.8001.4572-.36195 1.1049-.36195h1.50495q.66675 0 1.1049.32385.43815.3048.6096.8382l5.3721 16.47825q.4191 1.2192.7239 2.7051.13335-.74295.2667-1.42875.1524-.6858.3048-1.27635l4.6863-16.47825q.13335-.47625.59055-.81915.4572-.3429 1.1049-.3429h4.01955l-8.55345 27.5463h-4.62915l-6.0198-18.8214q-.1143-.36195-.24765-.78105-.1143-.4191-.2286-.89535-.1143.47625-.24765.89535-.1143.4191-.2286.78105l-6.07695 18.8214h-4.62915zM-336.93854 401.05692h-3.9624q-.66675 0-1.1049-.32385-.4191-.3429-.6096-.8382l-2.0574-5.61975h-11.41095l-2.0574 5.61975q-.1524.43815-.6096.8001-.43815.36195-1.08585.36195h-3.98145l10.8204-27.5463h5.23875zm-17.8308-10.4013h8.78205l-3.3528-9.16305q-.2286-.6096-.51435-1.42875-.2667-.8382-.5334-1.80975-.2667.97155-.5334 1.80975-.24765.8382-.4953 1.46685zM-328.76847 390.29367v10.76325h-5.12445v-27.5463h8.40105q2.8194 0 4.81965.59055 2.0193.5715 3.29565 1.61925 1.2954 1.04775 1.88595 2.5146.6096 1.4478.6096 3.2004 0 1.39065-.4191 2.6289-.40005 1.23825-1.1811 2.2479-.762 1.00965-1.905 1.77165-1.12395.762-2.57175 1.2192.97155.55245 1.6764 1.58115l6.8961 10.1727h-4.6101q-.66675 0-1.143-.2667-.4572-.2667-.78105-.762l-5.7912-8.82015q-.32385-.4953-.7239-.70485-.381-.20955-1.143-.20955zm0-3.67665h3.2004q1.4478 0 2.5146-.36195 1.08585-.36195 1.77165-.9906.70485-.6477 1.04775-1.524t.3429-1.92405q0-2.0955-1.39065-3.21945-1.3716-1.12395-4.21005-1.12395h-3.2766zM-291.76206 373.51062v4.0767h-12.21105v7.63905h9.62025v3.94335h-9.62025v7.79145h12.21105v4.09575h-17.3736v-27.5463zM-272.56858 378.52077q-.20955.4191-.4953.59055-.2667.17145-.6477.17145-.381 0-.85725-.28575-.47625-.3048-1.12395-.66675-.6477-.36195-1.524-.6477-.85725-.3048-2.03835-.3048-1.0668 0-1.8669.2667-.78105.24765-1.3335.70485-.5334.4572-.8001 1.1049-.2667.62865-.2667 1.39065 0 .97155.5334 1.61925.55245.6477 1.4478 1.1049.89535.4572 2.03835.81915 1.143.36195 2.3241.78105 1.20015.40005 2.34315.9525 1.143.5334 2.03835 1.3716.89535.81915 1.42875 2.0193.55245 1.20015.55245 2.91465 0 1.8669-.6477 3.5052-.62865 1.61925-1.8669 2.83845-1.2192 1.20015-2.99085 1.905-1.77165.6858-4.05765.6858-1.31445 0-2.5908-.2667-1.27635-.24765-2.45745-.7239-1.16205-.47625-2.19075-1.143-1.00965-.66675-1.80975-1.4859l1.4859-2.45745q.20955-.2667.4953-.43815.3048-.1905.66675-.1905.47625 0 1.0287.40005.55245.381 1.2954.85725.762.47625 1.77165.8763 1.0287.381 2.45745.381 2.19075 0 3.3909-1.0287 1.20015-1.04775 1.20015-2.99085 0-1.08585-.55245-1.77165-.5334-.6858-1.42875-1.143-.89535-.47625-2.03835-.8001-1.143-.32385-2.3241-.70485-1.1811-.381-2.3241-.9144t-2.03835-1.39065q-.89535-.85725-1.4478-2.1336-.5334-1.2954-.5334-3.18135 0-1.50495.59055-2.9337.6096-1.42875 1.7526-2.53365 1.16205-1.1049 2.83845-1.77165t3.82905-.66675q2.4384 0 4.4958.762t3.5052 2.1336zM-254.61931 390.35082v10.7061h-5.12445v-10.7061l-10.03935-16.8402h4.51485q.66675 0 1.04775.32385.40005.32385.66675.81915l5.04825 9.20115q.43815.81915.762 1.5621.32385.7239.59055 1.42875.24765-.7239.55245-1.4478.32385-.74295.762-1.54305l5.01015-9.20115q.20955-.4191.62865-.78105.4191-.36195 1.0668-.36195h4.5339zM-227.176 378.52077q-.20955.4191-.4953.59055-.2667.17145-.6477.17145-.381 0-.85725-.28575-.47625-.3048-1.12395-.66675-.6477-.36195-1.524-.6477-.85725-.3048-2.03835-.3048-1.0668 0-1.8669.2667-.78105.24765-1.3335.70485-.5334.4572-.8001 1.1049-.2667.62865-.2667 1.39065 0 .97155.5334 1.61925.55245.6477 1.4478 1.1049.89535.4572 2.03835.81915 1.143.36195 2.3241.78105 1.20015.40005 2.34315.9525 1.143.5334 2.03835 1.3716.89535.81915 1.42875 2.0193.55245 1.20015.55245 2.91465 0 1.8669-.6477 3.5052-.62865 1.61925-1.8669 2.83845-1.2192 1.20015-2.99085 1.905-1.77165.6858-4.05765.6858-1.31445 0-2.5908-.2667-1.27635-.24765-2.45745-.7239-1.16205-.47625-2.19075-1.143-1.00965-.66675-1.80975-1.4859l1.4859-2.45745q.20955-.2667.4953-.43815.3048-.1905.66675-.1905.47625 0 1.0287.40005.55245.381 1.2954.85725.762.47625 1.77165.8763 1.0287.381 2.45745.381 2.19075 0 3.3909-1.0287 1.20015-1.04775 1.20015-2.99085 0-1.08585-.55245-1.77165-.5334-.6858-1.42875-1.143-.89535-.47625-2.03835-.8001-1.143-.32385-2.3241-.70485-1.1811-.381-2.3241-.9144t-2.03835-1.39065q-.89535-.85725-1.4478-2.1336-.5334-1.2954-.5334-3.18135 0-1.50495.59055-2.9337.6096-1.42875 1.7526-2.53365 1.16205-1.1049 2.83845-1.77165t3.82905-.66675q2.4384 0 4.4958.762t3.5052 2.1336zM-202.06395 373.51062v4.21005h-8.28675v23.33625h-5.12445v-23.33625H-223.8v-4.21005zM-181.40601 373.51062v4.0767h-12.21105v7.63905h9.62025v3.94335h-9.62025v7.79145h12.21105v4.09575h-17.3736v-27.5463zM-163.146 389.62692q.32385.6096.59055 1.27635.28575.6477.55245 1.31445.2667-.6858.55245-1.35255t.6096-1.27635l8.1534-15.25905q.1524-.28575.3048-.4572.17145-.17145.36195-.24765.20955-.0762.4572-.0952.24765-.019.59055-.019h3.86715v27.5463h-4.51485v-17.7927q0-.4953.019-1.08585.0381-.59055.0952-1.20015l-8.32485 15.621q-.28575.5334-.74295.8382-.4572.28575-1.0668.28575h-.70485q-.6096 0-1.0668-.28575-.4572-.3048-.74295-.8382l-8.43915-15.67815q.0762.62865.0952 1.23825.0381.59055.0381 1.1049v17.7927h-4.51485v-27.5463h3.86715q.3429 0 .59055.019.24765.019.43815.0952.20955.0762.381.24765.17145.17145.32385.4572l8.2296 15.29715zM-124.18159 373.51062v4.0767h-12.21105v7.63905h9.62025v3.94335h-9.62025v7.79145h12.21105v4.09575h-17.3736v-27.5463z" style="fill:#fff" transform="matrix(.4 0 0 .4 211.324417 3.335159)"/></g></g></svg>