<svg width="190" height="23" viewBox="0 0 50.270833 6.0854165" xmlns="http://www.w3.org/2000/svg"><defs><filter style="color-interpolation-filters:sRGB" id="a" x="-.0309588" y="-.36114087" width="1.0619176" height="1.7222817"><feGaussianBlur stdDeviation=".70612804"/></filter><path id="b" d="M-57.243935-5.2039943h333.05563v81.529243h-333.05563z"/></defs><g aria-label="+49 157 7768 8503" style="font-weight:700;font-size:5.82083px;line-height:1.25;font-family:'PT Mono';-inkscape-font-specification:'PT Mono Bold';text-align:center;letter-spacing:0;text-anchor:middle;opacity:1;vector-effect:none;fill:#0070c9;stroke-width:.265;stop-color:#000;stop-opacity:1"><path d="M73.021625 38.971504v1.242747h1.184539v.392906h-1.184539v1.251478h-.42492v-1.251478h-1.178718v-.392906h1.178718v-1.242747zM77.131586 40.860363h.63156v.296862q0 .04657-.0291.07858-.02619.03202-.0844.03202h-.518054v1.097226h-.456935v-1.097226h-1.848113q-.05821 0-.101865-.03202-.04075-.03492-.05239-.0844l-.05239-.264847 2.028559-2.692134h.483129zm-.456935-1.720055q0-.07567.0029-.162984.0058-.08731.02037-.180445l-1.516326 2.063484h1.493043zM79.477835 40.653723q-.235743 0-.448204-.07858-.209549-.07858-.369622-.229923-.160073-.154252-.256117-.375443-.09313-.224102-.09313-.512233 0-.273579.101865-.512233.101864-.238654.28522-.416189.183356-.177536.436562-.2794.253207-.101865.55589-.101865.299772 0 .544247.09895.244475.09895.4191.27649.174625.177535.267758.42492.09604.247386.09604.547158 0 .180446-.03493.343429-.03201.160073-.09604.314325-.06403.154252-.154252.308504-.08731.151342-.200818.314325l-1.015735 1.466849q-.03784.0553-.107686.09022-.06985.03201-.160072.03201h-.477308l1.26894-1.661846q.06403-.0844.119327-.160073.0553-.07567.104775-.151342-.160072.128058-.360891.194998-.200819.06694-.424921.06694zm1.041929-1.219463q0-.194998-.06403-.352161-.06112-.160072-.171715-.270668-.110595-.110596-.264847-.168804-.151342-.06112-.334698-.06112-.192088 0-.35216.06403-.157163.06112-.270669.171715-.110596.110595-.171714.264847-.06112.154252-.06112.337609 0 .197908.0553.35507.05821.154252.162983.261938.107685.107685.259027.162983.154252.0553.343429.0553.20955 0 .369623-.06694.162983-.06985.273579-.183356.110595-.113506.168804-.261937.05821-.148432.05821-.308504zM83.217355 41.969231h.896407v-2.843475q0-.128059.0087-.259027l-.745067.637381q-.0291.02328-.05821.03493-.0291.0087-.0553.0087-.04366 0-.07858-.01746-.03493-.02037-.05239-.04657l-.162984-.224102 1.239837-1.073943h.42201v3.783539h.820737v.395816h-2.235198zM88.604988 38.421435q0 .110596-.06985.183356-.06985.06985-.235744.06985h-1.309687l-.192087 1.094316q.325967-.06985.602456-.06985.325966 0 .573352.09604.250295.09604.419099.264848.168805.168804.253207.398727.08731.229922.08731.500591 0 .331787-.116417.599546-.116416.267758-.320145.459845-.200819.189177-.474398.291042-.273579.101864-.590814.101864-.183356 0-.35216-.03784-.168804-.03493-.314325-.09604-.145521-.06112-.270669-.1397-.125148-.07858-.221191-.165894l.157162-.221191q.05239-.07567.1397-.07567.0553 0 .128058.04657.07567.04366.180446.09895.104775.0553.244475.101864.14261.04366.337608.04366.218281 0 .392906-.06985.174625-.06985.296862-.197909.125148-.130968.192088-.311414.06694-.180446.06694-.404548 0-.194997-.05821-.35216-.0553-.157162-.171714-.267758-.113507-.110596-.285221-.171715-.171715-.06112-.401637-.06112-.157163 0-.325967.02619t-.34925.0844l-.325966-.09604.337608-1.949978h1.976172zM92.290027 38.194423v.232833q0 .09895-.02328.162983-.02037.06403-.04366.107686l-1.725876 3.483766q-.03784.07567-.104775.130969-.06694.05239-.180446.05239h-.369623l1.75207-3.44011q.03784-.07276.07567-.133879.04075-.06112.09022-.116417h-2.176991q-.04948 0-.09022-.03784-.03784-.04075-.03784-.09022v-.35216zM96.792076 38.194423v.232833q0 .09895-.02328.162983-.02037.06403-.04366.107686l-1.725876 3.483766q-.03784.07567-.104775.130969-.06694.05239-.180446.05239h-.369622l1.752069-3.44011q.03784-.07276.07567-.133879.04075-.06112.09022-.116417h-2.17699q-.04948 0-.09022-.03784-.03784-.04075-.03784-.09022v-.35216zM100.16861 38.194423v.232833q0 .09895-.0233.162983-.0204.06403-.0437.107686l-1.725875 3.483766q-.03784.07567-.104774.130969-.06694.05239-.180446.05239h-.369623l1.75207-3.44011q.03784-.07276.07567-.133879.04075-.06112.09022-.116417h-2.176991q-.04948 0-.09022-.03784-.03784-.04075-.03784-.09022v-.35216zM102.28203 39.809703q.25029 0 .4744.0844.2241.08149.3929.241565.16881.157162.26776.389995.099.229923.099.526785 0 .288131-.10477.535517-.10478.247385-.29395.430741-.18627.183356-.45112.288131-.26484.104775-.58208.104775-.31432 0-.57044-.09895-.25321-.101865-.43365-.285221-.18045-.186266-.2794-.448204-.096-.264847-.096-.590814 0-.273579.12224-.582083t.38709-.663574l1.05648-1.423193q.0407-.05239.1135-.08731.0728-.03784.1659-.03784h.45984l-1.44647 1.830651q.14843-.101865.32887-.157163.18045-.05821.39-.05821zm-1.07686 1.268941q0 .200819.0582.366712.0582.165894.16881.285221.1135.119327.27358.186267.16298.06403.36962.06403.20955 0 .37835-.06694.16881-.06694.28813-.186266.12224-.119327.18627-.282311.0669-.162983.0669-.35507 0-.203729-.064-.366713-.064-.165893-.18044-.279399-.11642-.116417-.2794-.177536-.16299-.06112-.35799-.06112-.20955 0-.37835.07276-.1688.06985-.28813.192087-.11642.119327-.18045.2794-.0611.157163-.0611.328878zM105.45193 42.411614q-.31142 0-.57045-.08149-.25902-.0844-.44529-.238654-.18627-.154252-.28813-.372533-.10186-.221191-.10186-.49477 0-.401637.20955-.660664.20955-.261938.59954-.372534-.32888-.122237-.49768-.363801-.16589-.244475-.16589-.582083 0-.229923.0902-.430742.0902-.200818.25612-.34925.16589-.148431.39581-.232833.23284-.0844.51806-.0844.28231 0 .51514.0844.23283.0844.39873.232833.16589.148432.25611.34925.0902.200819.0902.430742 0 .337608-.16881.582083-.1688.241564-.49477.363801.39.110596.59955.372534.20955.259027.20955.660664 0 .273579-.10478.49477-.10186.218281-.28813.372533-.18336.154252-.44238.238654-.25903.08149-.57044.08149zm0-.413279q.20373 0 .3638-.0553.16298-.05821.27358-.160073.1135-.104774.17171-.247385.0611-.145521.0611-.320145 0-.215371-.0728-.366713-.0699-.154252-.19209-.250295-.11932-.09604-.27649-.1397-.15716-.04657-.32887-.04657-.17172 0-.32888.04657-.15716.04366-.2794.1397-.11933.09604-.19209.250295-.0699.151342-.0699.366713 0 .174624.0582.320145.0611.142611.17171.247385.11351.101865.27358.160073.16299.0553.36672.0553zm0-2.002365q.20373 0 .34634-.06112.14552-.06403.23574-.165894.0902-.104775.13097-.238654.0407-.133879.0407-.276489 0-.145521-.0495-.273579-.0466-.128058-.14261-.224102-.0931-.09604-.23575-.151342-.1397-.0553-.32596-.0553-.18627 0-.32888.0553-.1397.0553-.23574.151342-.0931.09604-.14261.224102-.0466.128058-.0466.273579 0 .14261.0407.276489t.13097.238654q.0902.101865.23284.165894.14552.06112.34925.06112zM109.95397 42.411614q-.31141 0-.57044-.08149-.25902-.0844-.44529-.238654-.18627-.154252-.28813-.372533-.10187-.221191-.10187-.49477 0-.401637.20955-.660664.20955-.261938.59955-.372534-.32888-.122237-.49768-.363801-.16589-.244475-.16589-.582083 0-.229923.0902-.430742.0902-.200818.25611-.34925.1659-.148431.39582-.232833.23283-.0844.51805-.0844.28231 0 .51515.0844.23283.0844.39872.232833.1659.148432.25612.34925.0902.200819.0902.430742 0 .337608-.1688.582083-.1688.241564-.49477.363801.39.110596.59955.372534.20955.259027.20955.660664 0 .273579-.10478.49477-.10186.218281-.28813.372533-.18336.154252-.44238.238654-.25903.08149-.57045.08149zm0-.413279q.20373 0 .36381-.0553.16298-.05821.27358-.160073.1135-.104774.17171-.247385.0611-.145521.0611-.320145 0-.215371-.0728-.366713-.0699-.154252-.19209-.250295-.11933-.09604-.27649-.1397-.15716-.04657-.32888-.04657-.17171 0-.32887.04657-.15716.04366-.2794.1397-.11933.09604-.19209.250295-.0699.151342-.0699.366713 0 .174624.0582.320145.0611.142611.17171.247385.11351.101865.27358.160073.16299.0553.36671.0553zm0-2.002365q.20373 0 .34634-.06112.14552-.06403.23575-.165894.0902-.104775.13097-.238654.0407-.133879.0407-.276489 0-.145521-.0495-.273579-.0466-.128058-.14262-.224102-.0931-.09604-.23574-.151342-.1397-.0553-.32597-.0553-.18626 0-.32887.0553-.1397.0553-.23575.151342-.0931.09604-.14261.224102-.0466.128058-.0466.273579 0 .14261.0407.276489.0408.133879.13097.238654.0902.101865.23283.165894.14553.06112.34925.06112zM114.49176 38.421435q0 .110596-.0699.183356-.0699.06985-.23574.06985h-1.30969l-.19208 1.094316q.32596-.06985.60245-.06985.32597 0 .57335.09604.2503.09604.4191.264848.16881.168804.25321.398727.0873.229922.0873.500591 0 .331787-.11641.599546-.11642.267758-.32015.459845-.20082.189177-.4744.291042-.27358.101864-.59081.101864-.18336 0-.35216-.03784-.16881-.03493-.31433-.09604-.14552-.06112-.27067-.1397-.12514-.07858-.22119-.165894l.15717-.221191q.0524-.07567.1397-.07567.0553 0 .12805.04657.0757.04366.18045.09895.10477.0553.24447.101864.14261.04366.33761.04366.21828 0 .39291-.06985.17462-.06985.29686-.197909.12515-.130968.19209-.311414.0669-.180446.0669-.404548 0-.194997-.0582-.35216-.0553-.157162-.17172-.267758-.1135-.110596-.28522-.171715-.17171-.06112-.40163-.06112-.15717 0-.32597.02619-.1688.02619-.34925.0844l-.32597-.09604.33761-1.949978h1.97617zM118.22337 40.28119q0 .547158-.11933.948796-.11641.398726-.32014.660664-.20373.261937-.48313.389995-.27649.128059-.59372.128059-.32015 0-.59664-.128059-.27358-.128058-.47731-.389995-.20373-.261938-.32014-.660664-.11642-.401638-.11642-.948796t.11642-.948795q.11641-.401637.32014-.663575.20373-.264847.47731-.392906.27649-.128058.59664-.128058.31723 0 .59372.128058.2794.128059.48313.392906.20373.261938.32014.663575.11933.401637.11933.948795zm-.53843 0q0-.477308-.0815-.800364-.0786-.325966-.21537-.523874-.13388-.197909-.31141-.282311-.17754-.08731-.36962-.08731-.19209 0-.36963.08731-.17753.0844-.31141.282311-.13388.197908-.21537.523874-.0786.323056-.0786.800364 0 .477308.0786.800364.0815.323057.21537.520965.13388.197908.31141.28522.17754.0844.36963.0844.19208 0 .36962-.0844.17753-.08731.31141-.28522.13679-.197908.21537-.520965.0815-.323056.0815-.800364zM120.20291 38.147856q.26485 0 .48895.07567.2241.07567.38417.215371.16299.1397.25321.337608.0902.197908.0902.439472 0 .197909-.0524.355071-.0495.154252-.14552.273579-.0931.116417-.22702.197908-.13388.08149-.29977.130969.40746.107685.61119.360891.20664.253207.20664.634471 0 .288131-.1106.518054-.10768.229923-.29686.392906-.18918.160073-.44238.247385-.2503.0844-.53843.0844-.33179 0-.56753-.08149-.23575-.0844-.39873-.229922-.16298-.145521-.26776-.343429-.10477-.200819-.17753-.433652l.22119-.09313q.0611-.02619.12224-.02619.0582 0 .10186.02619.0466.02328.0699.07567.006.01164.0116.02619.006.01164.0116.02619.0408.0844.099.192087.0582.104775.15716.197908.0989.09313.24448.157163.14843.06403.36671.06403.21828 0 .38126-.06985.1659-.07276.27358-.186266.1106-.113507.16589-.253207.0553-.1397.0553-.276489 0-.168804-.0466-.308504-.0437-.1397-.16299-.241564-.11641-.101865-.32596-.160073-.20664-.05821-.53261-.05821v-.375443q.26485-.0029.45111-.05821.18918-.0553.30851-.151342.11933-.09604.17171-.229923.0553-.133879.0553-.296862 0-.180446-.0582-.314325-.0553-.133879-.15425-.221191-.099-.08731-.23574-.130969-.13388-.04366-.29104-.04366-.15717 0-.29105.04657-.13387.04657-.23865.130969-.10186.08149-.17171.197908-.0698.113506-.10478.247385-.0233.0844-.0699.122238-.0466.03783-.11933.03783h-.032q-.0145-.0029-.0349-.0058l-.27066-.04657q.0407-.285221.15716-.503502.11641-.221191.29395-.369623.18045-.148431.41037-.224102.23283-.07858.50059-.07858z" style="font-weight:400;font-family:Lato;-inkscape-font-specification:Lato;vector-effect:none;stop-color:#000;stop-opacity:1" transform="translate(-71.32985683 -37.76165768)"/></g></svg>