<svg width="840" height="730" viewBox="0 0 222.24999 193.14584" xmlns="http://www.w3.org/2000/svg"><g style="display:inline"><path style="display:inline;fill:#000;stroke-width:.529167" d="M125.58074 188.4646c0-.29104.25218-.52916.5604-.52916s.41322.23812.23335.52916c-.17988.29104-.43206.52917-.5604.52917s-.23335-.23813-.23335-.52917zm-27.51667-.38892c0-.28369 2.78665-.67071 6.21771-.86354 13.37969-.75195 16.53646-1.03238 16.53646-1.46902 0-.24943-1.53928-.45352-3.42062-.45352-3.17705 0-6.13422.2444-19.33355 1.59785-10.14238 1.03999-16.93334 1.25726-16.93334.54176 0-.36594.315601-.54423.70133-.39621.513271.19696 14.09109-.86006 15.04138-1.17095.0728-.0238.13229-.28141.13229-.57245 0-.71384-6.19421-.68017-6.63687.0361-.192139.31089-.66706.44333-1.05538.29431-.388319-.14901-.79664.001-.90737.33307-.14751.44254-.64277.42115-1.85271-.08-1.51998-.62961-7.4311-.48892-12.30183.29279-3.016779.48417-11.65891.5823-11.935029.13553-.164051-.26543.71591-.4826 1.95546-.4826 1.63908 0 2.09498-.15875 1.67165-.58208-.72667-.72667-2.51074-.69366-10.34521.19142-3.41974.38634-6.217711.53415-6.217711.32848 0-.45521 1.878011-.76165 11.08582-1.80897 3.91438-.44523 7.23226-.9247 7.373051-1.0655.91995-.91994-1.39554-1.09573-6.02345-.45728-11.20463 1.54575-12.17725 1.66129-12.39132 1.47212-.54088-.47801.76211-.75966 8.18701-1.76966 4.34966-.59169 8.3036-1.30138 8.78654-1.57709.482929-.27572 1.73894-.36161 2.791129-.19086 1.56594.25412 1.85624.48955 1.59983 1.29743-.27066.85278-.0206.98699 1.83907.98699h2.152321v-4.23333c0-2.32834.210359-4.23334.46745-4.23334.674059 0 1.104519 1.97386 1.11283 5.10276.005 1.95591.236149 2.80936.82101 3.03379.96709.37111.94537.43731 2.06068-6.28213 1.04823-6.31528 2.23949-8.32568 1.56918-2.64817-.24054 2.03729-.44579 4.77573-.45612 6.08542-.0187 2.37056-.0101 2.38173 1.90871 2.48843 1.70897.095 1.95897-.055 2.20516-1.32292.15272-.78655.23785-7.62134.18918-15.18843l-.0885-13.75833-4.07656-.26458c-2.24211-.14552-4.32768-.5166-4.63461-.82461-.30692-.30802-1.04733-1.95213-1.64534-3.65359-1.22797-3.49379-1.14268-5.61011.65125-16.1593 1.63729-9.6281 2.53938-15.22754 3.32476-20.63751.81554-5.61764 2.20832-13.376921 2.73811-15.254135.43976-1.558224 2.14536-2.20836 5.79351-2.20836 2.96165 0 3.49025-.418938 2.04354-1.619598-1.38508-1.149519-2.7875-4.403344-2.51416-5.833244.16016-.83779-.0578-1.603796-.57961-2.036842-.45997-.381739-.82873-1.081631-.81947-1.555318.0139-.712927.15535-.678985.82118.197086.78115 1.027819.88081.97835 3.45646-1.715784 1.45866-1.525765 2.49738-3.024477 2.30826-3.330472-.18912-.305995-.0705-.885759.26367-1.288366.45781-.551628.45228-1.250131-.0224-2.834571-1.37906-4.602892 1.31619-11.016377 5.33967-12.705999 1.20484-.505963 2.09537-1.241676 2.09847-1.733653.003-.470074.51302-1.500041 1.133469-2.288816.90103-1.145472 1.40696-1.36456 2.51355-1.088468 1.96052.48915 3.23753 1.797926 3.23753 3.318078 0 .716834.70435 2.105551 1.56524 3.086037 2.11768 2.411912 2.9205 5.526506 2.18125 8.462339-.92387 3.669023-.72878 6.935299.48685 8.150925.58208.582083 1.24347 1.058333 1.46975 1.058333.99143 0 2.92039-1.876491 4.85018-4.718229 2.27293-3.347043 4.28264-4.612064 8.17456-5.14551 5.65814-.775534 10.75798 3.607926 12.52963 10.769566.93348 3.773429 2.31892 4.342304 1.82476.749257-.4053-2.946869.45019-6.480223 1.88292-7.776822.51483-.465915 1.84751-.968465 2.9615-1.116777 1.78879-.238152 2.16267-.0834 3.19989 1.324447 1.9038 2.584079 2.98062 8.500715 2.64747 14.546594l-.28725 5.213084 2.466-.17593c2.19744-.15677 2.45528-.06067 2.36756.882403-.0541.582084.46022 4.153959 1.14301 7.937505.6828 3.78354 1.52032 9.02229 1.86117 11.64166.34084 2.61938 1.18116 8.21531 1.86738 12.43542.68621 4.2201 1.54048 10.49689 1.89836 13.94841.57714 5.56606.5543 6.46338-.20202 7.9375-.46899.9141-.93295 2.13826-1.03102 2.72034-.16814.99801-.53631 1.05059-6.45957.92251l-6.28127-.13583.40802 7.01499c.22441 3.85825.49385 10.825.59875 15.48166.1049 4.65667.19512 8.53948.20047 8.62847.005.089.62599-.50633 1.37917-1.32292 1.29941-1.40882 1.37378-1.18602.40545 1.21479-.24554.60878-.0877.79505.56029.66145.59019-.12166 1.35351-1.52909 2.20768-4.07054 1.47256-4.38141 3.32814-8.26457 3.74841-7.8443.15396.15396-.45796 2.65504-1.35983 5.55795-.90187 2.90291-1.63976 5.53846-1.63976 5.85677 0 .31831.83344.57875 1.85209.57875 1.4552 0 2.30565-.45357 3.96875-2.11667 2.49361-2.49362 3.15431-2.72956 1.62353-.57977-1.35856 1.90792-1.36287 2.16727-.036 2.16727 1.65831 0 1.23922.9812-.62547 1.46439-.92609.23997-1.77937.72303-1.89618 1.07346-.33112.99338 1.73598.7528 3.75198-.43667l1.82-1.07383.27016 1.73529c.14859.9544.1171 1.89325-.07 2.08633-.18707.19308-3.71164.4928-7.8324.66605-7.31772.30766-7.48581.29023-7.21433-.74793.2164-.8275.72012-1.06292 2.27429-1.06292 1.14893 0 2.50596-.41268 3.19695-.9722 1.19699-.96927 1.19099-.9723-1.98533-1.00222-3.676-.0346-4.4795.31889-4.65622 2.04858-.0702.68681-.15798 1.3767-.19513 1.53307-.0371.15638-.78191.33875-1.65503.40528-1.2789.0975-1.5875-.0864-1.5875-.94578 0-1.25905-.45032-1.36433-1.26458-.29567-.32846.43108-1.81247.87983-3.36563 1.01774-2.47392.21967-2.77812.13523-2.77812-.77106 0-.55976-.23813-1.01774-.52917-1.01774s-.52917.23812-.52917.52917c0 .3061-1.6861.52916-3.99998.52916-2.5319 0-3.87994-.19421-3.67293-.52916.17987-.29105 1.74174-.52917 3.47081-.52917 2.0044 0 3.14377-.2191 3.14377-.60455 0-.4246-.96822-.50335-3.25262-.26459-1.78895.18698-4.18425.33997-5.3229.33997-1.1824 0-1.93614.21703-1.75751.50606.17201.27833.63823.38116 1.03603.2285.39781-.15264.86964-.0407 1.04853.24873.402.65045-2.88873 1.01372-12.65361 1.39687-4.07459.15988-9.37287.43228-11.77397.60535-2.688249.19377-4.365619.11714-4.365619-.19943zm44.25696-1.98827c1.695-1.695-1.28994-2.63089-3.27769-1.02767-.98598.79523-.96881.8194.42802.60254.9855-.15299 1.45521.007 1.45521.49445 0 .93207.41363.91151 1.39446-.0693zm-71.341549-1.0437c-.96898-.80943-2.53664-1.26014-2.81521-.8094-.35911.58106 1.84479 1.62204 2.55063 1.20475.23764-.14049.35671-.3184.26458-.39535zm32.085209.25311c.62807-.004.83515-.19209.52917-.47963-.64383-.60502-3.942289-.10788-3.942289.59419 0 .29225.535119.38742 1.190619.21175.65485-.17549 1.65497-.32233 2.2225-.32631zm-27.738339-.80097c-.0246-.79152-2.27303-.63859-2.54356.17301-.16351.49053.18702.65003 1.16298.52916.76837-.0951 1.38963-.41113 1.38058-.70217zm36.594219-.98274c.84921-1.5946 2.17299-2.49368 2.78579-1.89205.31683.31105.26791.72834-.13229 1.12854-1.1189 1.1189-.69136 1.48167 1.74625 1.48167 2.23623 0 3.05098-.58196 1.85209-1.32292-.29105-.17987-.52917-1.02736-.52917-1.88331 0-2.22678 1.37452-1.99237 2.51037.4281 1.39779 2.97867 3.07403 2.91774 5.40579-.1965 1.9828-2.64816 2.96764-2.32262 1.06347.35155-.63667.89412-1.00113 1.78214-.8099 1.97337.75987.75987 2.23833-.9046 4.0011-4.50448 1.01865-2.08023 2.04147-3.79562 2.27294-3.81195.58005-.0409-.13055 3.60905-1.05976 5.44344-.86055 1.69884-.64802 2.3733.36371 1.15424.36815-.4436.91912-.80654 1.22436-.80654.30525 0 .99047-.39409 1.52271-.87577 1.32331-1.19758 1.22779-.13212-.11762 1.312-1.32333 1.42043-.94134 2.2096 1.06952 2.2096 1.0273 0 1.93577-.50692 2.84503-1.5875 1.64342-1.95309 2.05796-2.0039 1.60436-.19664-.31042 1.2368-.24069 1.3302.62948.84323.57123-.31968.98768-1.15454 1.00046-2.00562.0334-2.22458 1.07513-2.09383 1.99602.25053.67625 1.72158 1.02341 2.04497 1.93838 1.80571 1.01873-.26641 1.11458-.6637 1.11458-4.61966v-4.32818l-18.65313-.0138c-32.657009-.0241-40.30884-.18947-39.641539-.85678.67048-.67047 56.758249-.76176 57.838499-.0941.51452.31799.47652-8.3226-.0933-21.21178-.0434-.98221-.0808-.97368-.52031.11865l-.47353 1.17699-18.41063.0632c-10.12586.0348-23.1848.0657-29.019869.0687l-10.60923.006.0259 15.29071c.0256 15.14757.0362 15.29072 1.13149 15.29075.60808.00002 1.86401-.83341 2.79096-1.85205.92695-1.01865 1.90247-1.85209 2.16783-1.85209.26536 0 1.01781-.9525 1.67211-2.11666 1.17697-2.09413 2.51087-2.9784 1.79605-1.19063-.20365.50933-.5028 2.32259-.66479 4.02949-.2924 3.08118-.28541 3.10068.97512 2.71865.69829-.21164 1.49584-.59616 1.77233-.85449.27649-.25833.99087-.47091 1.5875-.4724.596639-.002 2.037289-.58937 3.201459-1.3064 2.46895-1.52067 2.91042-1.60844 2.91042-.57863 0 .41695-.45475.90242-1.01055 1.07883-.5558.1764-1.29934.6687-1.65229 1.09399-1.15355 1.38993 1.51032.91554 2.95148-.52561.71437-.71438 1.29886-1.16424 1.29886-.99971 0 .16454.46833-.263 1.04073-.9501.83703-1.00473 1.04417-1.07539 1.05833-.361.01.48854-.33958 1.24543-.77614 1.68199-1.07163 1.07164-.99948 1.39852.30868 1.39852 1.75934 0 .86595 1.30341-1.02094 1.48948-.92899.0916-1.5833.33773-1.45401.54693.12929.20919 1.21065.28731 2.40302.1736 1.5427-.14712 2.34212-.53378 2.77183-1.34067zm-24.439839-21.93432c0-.89102 9.63002-1.26178 33.922499-1.30603 22.17573-.0404 23.50232.0103 23.67464.90484.17407.90366-.84503.92909-21.96042.54819-12.17863-.21968-22.50015-.40829-22.93672-.41912-.436559-.0109-3.472649.16222-6.746869.38455-3.79612.25778-5.95313.21704-5.95313-.11243zm58.737509 22.86045c0-.55802-.28776-.73994-.83703-.52917-.46037.17666-.95067.3212-1.08956.3212-.1389 0-.10537.23812.0745.52917.5211.84315 1.85208.61233 1.85208-.3212zm-67.733339-.20797c0-.29104-.23812-.52917-.52917-.52917-.29104 0-.52916.23813-.52916.52917s.23812.52917.52916.52917c.29105 0 .52917-.23813.52917-.52917zm5.33811-.50047c-.73686-.4554-3.82811-.053-3.51275.45723.12488.20206 1.10139.26532 2.17002.14056 1.06862-.12475 1.67285-.39376 1.34273-.59779zm9.02877-.82245c0-.27649-.25599-.58803-.56886-.69232-.312871-.1043-.56885.20725-.56885.69232 0 .48507.255979.79662.56885.69233.31287-.10429.56886-.41584.56886-.69233zm20.558129-33.33489c4.51114.002 16.52861.0845 26.70547.18462 15.19366.14945 18.53767.0543 18.69505-.53177.10541-.39259.28534-1.01394.39984-1.38081.1145-.36685.15517-.83557.0904-1.04158-.16947-.53879-83.46157-.76435-83.46157-.22602 0 .24701.391001 1.23288.86889 2.19083l.86888 1.74173 13.81549-.4698c7.59852-.25839 17.50643-.46864 22.01758-.4672zm5.46855-5.00471 41.18731-.002-.27293-1.46684c-.28156-1.51315-.93499-6.40558-1.96281-14.696-.32473-2.61938-.79584-5.59594-1.04688-6.61458-.25105-1.01865-.58959-3.16178-.75232-4.76251-.71385-7.02182-.97215-8.9378-1.65669-12.28823-.39971-1.95633-.87467-5.051958-1.05547-6.879161-.18079-1.827203-.44376-3.441251-.58436-3.586771-.1406-.145521-2.31908-.294877-4.84106-.331902-2.52198-.03703-6.83207-.205802-9.57797-.375059-4.45578-.274653-5.06592-.202977-5.67504.66667-1.1523 1.645135-4.82721 1.860362-7.88057.461538-2.39014-1.094987-3.4031-1.200688-11.61435-1.211923-5.9209-.0081-9.68614.218615-11.01536.663271-1.11074.371571-2.221999.550449-2.46946.397508-.24746-.153073-.444599 2.878743-.43808 6.737239.006 3.85849-.0941 7.37263-.22369 7.80919-.12955.43656-.42358 1.74625-.65341 2.91042-.62102 3.14575-2.335269 6.05157-3.58522 6.07731-1.08345.0223-3.53109-4.48174-3.85818-7.09964-.30722-2.45895.7074-9.79739 2.2101-15.98492.26466-1.089749.0996-1.133943-4.39795-1.177345-2.5701-.0248-5.08223.08169-5.58249.236639-1.03228.319744-1.99351 3.258314-1.99789 6.107776-.003 1.91268-1.69889 13.84593-3.75086 26.39226-.97097 5.93677-2.58642 17.17872-2.5977 18.07736-.002.19266.65045.25819 1.45081.14565.80037-.11256 19.9895-.20542 42.64252-.20636zm-20.285229-16.00676c-10.33197-.28393-18.88463-.61418-19.0059-.7339-.75184-.7422 1.8285-.94142 12.794479-.98783 6.763261-.0286 12.58958-.23525 12.94736-.45916.35779-.22391 1.07848-.17807 1.60154.10186 1.83297.98098 23.72503 1.47542 40.18656.90763 5.9542-.20537 8.68171-.11807 8.93134.28584.19766.31982.1133.73347-.18747.91921-.88521.54667-36.9217.52549-57.267909-.0337zm4.894799-18.29925c-1.23693-.0966-2.24896-.40009-2.24896-.6744 0-.29222 3.67017-.50014 8.86354-.50213 4.87495-.002 16.60261-.1379 26.06146-.30231 16.04763-.27894 19.60002-.0679 18.43692 1.09517-.33434.33435-47.23687.68641-51.11296.38367zm-22.357299-.7084c0-.51048 2.99208-.99391 6.15157-.99391 3.03596 0 4.01256.99726 1.12448 1.14825-4.17335.2182-7.27605.15238-7.27605-.15434zm16.24926-3.76586c-.12657-.65824-.23493-.2443-.24081.91987-.006 1.16417.0977 1.70273.23013 1.1968.13245-.50593.13726-1.45843.0107-2.11667zm1.44649-12.659191c1.380199.109772 2.921719-.150789 3.907279-.660445.89526-.462958 2.59797-.841742 3.7838-.841742 1.82074 0 2.23535-.20859 2.66599-1.341272.28048-.7377.46679-1.511606.41403-1.719792-.0528-.208185.0914-2.245053.32024-4.526371.38269-3.814255.32757-4.230384-.68531-5.174022-1.56185-1.455083-1.90428-3.405023-1.19824-6.823292.80473-3.896142.77359-5.301967-.16729-7.553821-1.28748-3.08138-3.20038-4.222643-6.66252-3.974964-3.664859.262182-5.815529 1.700988-7.383229 4.939408-1.04197 2.152427-1.12099 2.884859-.78457 7.272348.29555 3.854444.60381 5.12842 1.46812 6.0674 1.35706 1.474312.78597 2.249425-.67992.922812-1.04486-.945587-1.10988-.931676-2.69462.576508-2.32263 2.210438-2.81122 3.284839-1.96643 4.32421.60015.738402.57054.81119-.21092.518452-2.35137-.880829-1.59627 3.301511 1.04599 5.793479 1.2347 1.164472 2.38499 1.75725 3.40997 1.75725 1.1562 0 1.52296.233823 1.45254.926042-.0518.509323-.0521 1.640417-.00063 2.513542.0874 1.482221.14639 1.429514.88988-.794765.79582-2.38087.79762-2.382158 3.07582-2.200965zm29.400089-.443854c0-.873125.23813-1.5875.52917-1.5875s.52917.483724.52917 1.074942c0 1.238864 1.39717 1.972884 2.20935 1.160707.84062-.840627-.47674-4.232836-2.04215-5.258534-1.04709-.686074-2.7614-.876842-8.15337-.907299-3.75512-.02121-6.82818-.187394-6.829-.369295-.005-1.066185 11.04824-1.370976 14.54213-.401002 2.11417.586935 3.46264 1.900012 4.00096 3.895973.31435 1.165515 1.95954 1.484261 10.40262 2.015445l4.34095.273105.32222-2.197229c.17723-1.208476.24786-3.983167.15697-6.165979l-.16527-3.96875-2.01717-.16619c-2.31984-.191126-2.43309-1.323721-.15918-1.591818 1.14397-.134876 1.4119-.411338 1.28211-1.322917-.16947-1.190215-1.35077-1.425296-3.2068-.63816-1.54733.656215-1.03408-.486827.67079-1.493919 1.65921-.980116 1.67881-1.930746.0398-1.930746-1.71578 0-2.89954 3.685686-2.50429 7.797157.18928 1.968959.49843 4.149055.687 4.844656.32934 1.21494.26153 1.250685-1.72263.907945-5.01818-.866832-4.85652-.778463-4.75237-2.597684.10821-1.890209-.75708-5.129705-1.99672-7.47541-2.50959-4.748742-7.18373-7.103122-11.82208-5.954828-2.13444.528412-2.81908 1.038485-4.38871 3.269686-1.02287 1.453983-2.83821 3.620458-4.0341 4.81439l-2.17433 2.170785-.25513 5.298035-.25511 5.298034 5.33987.432318c2.93694.237776 6.21774.43861 7.29069.446299 1.42474.01021 2.01786.270343 2.19942.964631.4294 1.642031 1.93518 1.146494 1.93518-.636848zm12.91804-11.328763c-.2248-2.480792-.13487-4.552637.2449-5.642058.72199-2.071096.41062-2.653094-.50456-.94308-.7755 1.449035-.93174 5.303881-.31321 7.727443.42576 1.668198.3891 1.719792-1.22185 1.719792-.97244 0-1.52523.219324-1.33373.529167.17987.291041 1.03729.529166 1.90538.529166h1.57833zm-39.1945-23.705419c.16792-.642133.17623-1.296603.0185-1.454376-.4149-.414897-1.80697 1.633654-1.47506 2.170684.49471.800463 1.14338.481469 1.45661-.716308zm28.57557 130.159987c.76543-.48678 5.9441-.53429 5.45989-.0501-.19519.19519-1.64106.37379-3.21305.39688-1.57198.0231-2.58306-.13297-2.24684-.34679zm36.33006-13.58132c-3.90482-.52048-2.20467-1.37573 2.73479-1.37573 4.61026 0 6.10226.43034 4.65822 1.34358-.83696.52931-3.57379.54121-7.39301.0321zm-111.36968-3.72477c-.18066-.29232.0849-1.16238.59014-1.93347.815691-1.2449.95615-1.29498 1.25363-.44695.23238.66248.45359.76317.7221.3287.48592-.78623 2.78755-.82123 3.26443-.0496.4416.71453 3.73698.17485 5.37597-.88042 1.44604-.93105 2.318071-.97208 1.97973-.0932-.1898.49303.49506.6149 2.6896.47862 3.22464-.20026 5.535741.19677 5.535741.95101 0 .97842-2.093051 1.12378-3.44321.23912-1.29369-.84766-1.56524-.84785-4.60311-.003-2.15219.59836-3.404711.72116-3.75748.36839-.35277-.35277-.87093-.34625-1.55444.0195-.72497.38799-1.47023.36441-2.54439-.0805-1.30636-.54111-1.77546-.47079-3.34967.50212-1.11565.68951-1.95885.92379-2.15904.59987zm-6.10533-2.16593c0-.56288 2.20438-1.6102 2.60721-1.23872.260911.24061-1.617179 1.74296-2.210329 1.76811-.21828.009-.396881-.22897-.396881-.52939zm105.41001-.0888c-.75792-.75792-.84024-2.01084-.13213-2.01084.27658 0 .72258.3926.99111.87244.4924.87986 1.57195.85637 6.17894-.13448 2.0801-.44738 1.1676.49165-1.26959 1.30649-2.33951.78218-4.96786.76686-5.76833-.0336zm12.59417.10583c0-.29104.37124-.52917.82498-.52917.45374 0 .67781.23813.49793.52917-.17987.29104-.55111.52917-.82498.52917-.27386 0-.49793-.23813-.49793-.52917zm6.61458 0c.17987-.29104.43205-.52917.5604-.52917.12834 0 .23335.23813.23335.52917s-.25218.52917-.5604.52917-.41323-.23813-.23335-.52917zm-8.73125-1.83347c0-.83379 2.00859-2.15516 2.51152-1.65223.35557.35556-1.40641 2.42737-2.06437 2.42737-.24593 0-.44715-.34882-.44715-.77514z"/><path style="display:inline;fill:#e96149;fill-opacity:1;stroke:#000;stroke-width:.495059;-inkscape-stroke:none;stop-color:#000" d="M75.045233 144.45285c-.138465-.22786 1.108244-8.94207 3.236909-22.62529 1.880548-12.08829 2.643138-17.55035 2.990316-21.41825.28189-3.140502 1.017736-5.642611 1.779302-6.050188.981704-.525391 9.492104-.438211 9.698386.09935.09174.239064-.200591 2.26523-.649621 4.502594-2.076103 10.344564-1.805342 14.042094 1.334993 18.230634 1.022244 1.36345 1.826101 1.34613 2.900529-.0625 2.117942-2.77677 3.101464-7.69288 3.107909-15.53479.0024-2.993141.08771-5.752179.189455-6.131195.326549-1.216472 3.675799-1.603113 13.886909-1.603113 8.90694 0 9.02483.0089 10.80622.818656 1.45164.659839 2.32095.818652 4.48109.818652 2.50114 0 2.74517-.06238 3.65544-.934484l.9754-.934485 8.13316.239898c4.47323.131942 8.79626.332729 9.60673.446191l1.47358.20629.67926 4.581562c.37359 2.519858.88064 5.720008 1.12677 7.111438.24613 1.39144.38253 2.58692.30312 2.65664-.0794.0697-1.24957.002-2.60034-.1515-2.66588-.30202-49.65528.21739-50.54475.55871-.75548.2899-.67104.68005.19758.91283.97842.26221 45.64034.19612 49.93818-.0739 2.15958-.13568 3.35775-.0941 3.35944.11657.009 1.0781 1.10269 9.40534 1.63481 12.44352.79412 4.53419 3.03797 21.46624 2.86733 21.63689-.19047.19047-84.45267.32926-84.568107.13929zm81.094317-15.96374c1.17058-1.17101.22082-1.22506-21.92254-1.24748-16.28471-.0165-22.19203-.12842-24.29877-.46041-3.24995-.51216-2.18624-.49786-15.718137-.21122-12.588801.26667-14.735755.41392-14.735755 1.01061 0 .32588 1.138833.48549 4.666322.65399 17.63678.84245 71.2318 1.03188 72.00888.25451zm-66.084449-19.05562c.184544-.18455.238082-.433.118972-.55211-.642673-.64267-7.692541-.45968-8.760833.22741-.413589.266-.411528.35103.01587.65473.616492.43806 8.145968.14998 8.625986-.33003zM108.3681 184.29082c.85841-.24424 1.65024-.53357 1.75963-.64295.42456-.42456-.22962-1.20952-1.00799-1.20952h-.81907l.80879-1.19181c.8101-1.19375.98107-1.80136.611-2.17143-.10878-.10878-1.15167.61142-2.31753 1.60046-1.16586.98903-2.4972 1.94174-2.95852 2.11713-1.62197.61668-1.35377-.35483.33708-1.22102 1.21393-.62187 1.5397-1.03144 1.30562-1.64146-.25785-.67193-.87582-.53786-3.11615.67605-1.13184.61329-2.5736 1.22251-3.203902 1.35382-.630301.13131-1.769089.54147-2.530639.91146-.761553.36999-1.474203.58315-1.583672.47368-.196649-.19665.267597-4.61613.710438-6.76317.324654-1.57403-.388718-1.23608-1.881243.89121-1.439505 2.05172-5.703289 5.94747-6.509329 5.94747-.318519 0-.660906-.21312-.76086-.47359-.09995-.26048-.286242-7.03893-.413978-15.06322l-.232243-14.58963H144.83017l.33513-.90052c.25514-.68558.39352.85808.57978 6.46736.13455 4.05233.19639 8.74408.13741 10.42611l-.10724 3.05823-28.65286.0526c-16.04218.0295-28.851518.18069-29.104237.34357-1.428184.92045 1.180772 1.02042 29.349837 1.12454l28.57099.10561v4.02942c0 3.14117-.10585 4.11728-.48018 4.42795-.7374.61198-1.22748.26949-2.13-1.48856-1.06231-2.0693-2.0283-2.21977-2.33012-.36297-.11176.68762-.44582 1.49282-.74234 1.78934-.50052.50053-.53912.45204-.53912-.67716 0-.66895-.0952-1.21629-.21164-1.21629-.1164 0-.92055.66311-1.787 1.47358-1.24336 1.16301-1.81581 1.47358-2.7162 1.47358-1.54909 0-1.72485-.46898-.71948-1.91974.8508-1.2277 1.07957-2.0098.58789-2.0098-.14408 0-.40196.13507-.57305.30016-.29198.28171-3.42217 2.0054-3.42181 1.88427.00009-.0308.28028-.79291.62265-1.69367.34236-.90076.72741-2.3375.85566-3.19275.37221-2.48202-.51661-2.00747-2.14748 1.14655-1.81083 3.5021-3.17281 5.48498-3.76745 5.48498-.65462 0-.59917-.31782.28669-1.64316 2.00788-3.004 1.13555-3.27365-1.55085-.47939-2.41595 2.51296-3.16383 2.65283-4.34556.8127-1.45095-2.25936-1.78195-2.61969-2.4064-2.61969-1.10298 0-1.27407 2.99026-.21059 3.68066.64925.42148-.45305.89328-2.09988.89879-1.83478.006-2.04883-.17556-1.39051-1.18028.41256-.62965.43341-.87852.10659-1.27231-.63754-.76819-.9975-.60608-2.66815 1.20166-1.49149 1.61389-1.6496 1.69634-3.45812 1.80318l-1.89517.11198zm-14.167997-22.50144c3.321992-.23554 11.254527-.22143 26.409507.047 11.91373.21101 22.34809.28066 23.18747.15479 1.16841-.17521 1.50196-.35442 1.42298-.76456-.0567-.29463-.47079-.63798-.9201-.76301-1.2189-.33915-42.11453-.31723-49.147384.0264-6.154586.30067-7.829158.51507-7.829158 1.00238 0 .27055.733576.53964 1.637305.6006.270155.0182 2.627876-.11837 5.23938-.30354zM76.879888 148.71916c-.404643-.94062-.639593-1.80642-.522113-1.92401.322998-.3233 46.124805-.46428 65.606235-.20194l17.14629.23089-.18616 1.14718c-.10239.63094-.27921 1.23943-.39293 1.3522-.11372.11276-10.61925.16359-23.34562.11295-20.85271-.083-41.606285.22337-53.289136.78658l-4.28085.20637z"/></g><g style="display:inline"><g aria-label="Jürgen will help me..." style="font-style:italic;font-weight:300;font-size:12.7px;line-height:1.25;font-family:Lato;-inkscape-font-specification:'Lato, Light Italic';text-align:center;letter-spacing:0;text-anchor:middle;display:inline;fill:none;stroke:#000;stroke-width:.529;stop-color:#000" stroke="none"><path d="M25.969642 24.662324q-.18415 1.5113-.94615 2.31775-.75565.8001-2.01295.8001-.3429 0-.64135-.04445t-.60325-.13335l.0889-.69215q.0127-.09525.06985-.1651.0635-.06985.1905-.06985.0635 0 .14605.01905.08255.0127.18415.0381.10795.01905.2413.0381.1397.0127.3175.0127.3302 0 .6223-.10795.2921-.10795.52705-.3556.23495-.24765.3937-.6477.1651-.40005.23495-.98425l.74295-6.1087h1.18745zM29.229772 21.246024l-.4826 4.0894q-.0127.127-.0254.2413-.0064.1143-.0064.22225 0 .5207.1905.7747.19685.254.61595.254.2921 0 .5969-.15875.31115-.15875.5969-.45085.2921-.2921.53975-.70485.24765-.41275.4318-.92075l.40005-3.34645h1.12395l-.7747 6.43255h-.5588q-.19685 0-.3048-.0889-.10795-.0889-.10795-.27305 0-.0064.0064-.1143.0063-.10795.0127-.23495.0127-.127.01905-.23495.0127-.10795.0127-.1143l.04445-.51435q-.51435.81915-1.14935 1.2446-.635.4191-1.3081.4191-.71755 0-1.1176-.48895-.3937-.48895-.3937-1.40335 0-.127.0064-.26035.0063-.13335.0254-.2794l.4826-4.0894zm1.1811-1.905q0 .14605-.05715.27305t-.15875.22225q-.1016.09525-.23495.1524-.127.05715-.27305.05715t-.27305-.05715q-.127-.05715-.22225-.1524t-.1524-.22225q-.05715-.127-.05715-.27305t.05715-.2794q.05715-.13335.1524-.2286.09525-.1016.22225-.15875.127-.05715.27305-.05715t.27305.05715q.13335.05715.23495.15875.1016.09525.15875.2286.05715.13335.05715.2794zm2.27965 0q0 .14605-.05715.27305t-.15875.22225q-.09525.09525-.2286.1524-.127.05715-.27305.05715t-.2794-.05715q-.127-.05715-.22225-.1524t-.1524-.22225q-.05715-.127-.05715-.27305t.05715-.2794q.05715-.13335.1524-.2286.09525-.1016.22225-.15875.13335-.05715.2794-.05715.14605 0 .27305.05715.13335.05715.2286.15875.1016.09525.15875.2286.05715.13335.05715.2794zM34.105183 27.678574l.7747-6.4389h.56515q.1778 0 .2794.08255.1016.08255.1016.254 0 .0254-.0064.0762 0 .04445-.0063.09525 0 .0508-.0063.0889v.04445l-.0889 1.1684q.41275-.889.92075-1.3716.51435-.4826 1.0795-.4826.2667 0 .5334.1143l-.2032 1.08585q-.29845-.12065-.57785-.12065-.61595 0-1.09855.60325-.4826.5969-.80645 1.8161l-.3556 2.9845zM43.300776 23.030374q-.0063.3175-.08255.5715-.06985.254-.1778.4699-.10795.2159-.23495.4064-.127.1905-.23495.381-.10795.1905-.18415.3937-.06985.19685-.06985.4318 0 .2667.127.4826.13335.2159.28575.4445.15875.2286.28575.50165.13335.2667.13335.635 0 .45085-.20955.8509-.20955.4064-.5969.71755-.38735.31115-.94615.48895-.55245.18415-1.2446.18415-.55245 0-1.00965-.1143-.45085-.1143-.7747-.32385-.3175-.20955-.48895-.508-.1778-.2921-.1778-.6477 0-.50165.26035-.8636t.6858-.5969q.42545-.23495.9652-.3429.5461-.10795 1.11125-.10795.2286 0 .45085.01905.2286.01905.45085.0508-.05715-.12065-.09525-.24765-.03175-.13335-.03175-.28575 0-.19685.05715-.4064.0635-.20955.2032-.4699-.2413.1651-.53975.254t-.67945.0889q-.3683 0-.69215-.12065-.3175-.12065-.5588-.3556-.2413-.23495-.381-.5842-.1397-.3556-.1397-.8255 0-.4572.1651-.89535.17145-.4445.4953-.7874.32385-.34925.8001-.5588.47625-.20955 1.09855-.20955.6985 0 1.21285.3302h1.74625l-.0508.37465q-.0127.10795-.0762.19685-.05715.0889-.1778.10795l-.8001.1397q.05715.1651.0889.34925.03175.1778.03175.381zm-2.4511 1.74625q.3429 0 .60325-.14605.26035-.1524.43815-.3937.18415-.24765.2794-.55245.09525-.3048.09525-.61595 0-.5588-.28575-.84455-.2794-.28575-.7747-.28575-.3429 0-.60325.1397-.26035.1397-.43815.37465-.1778.23495-.27305.5334-.0889.29845-.0889.6223 0 .5715.27305.86995.2794.29845.7747.29845zm1.27 3.0607q0-.1651-.03175-.3048-.03175-.14605-.08255-.27305-.3429-.05715-.6477-.08255-.29845-.0254-.56515-.0254-.5207 0-.9017.09525-.381.0889-.62865.2413-.24765.1524-.3683.34925-.12065.2032-.12065.4191 0 .4572.381.6985.38735.2413 1.0922.2413.4191 0 .762-.1143.34925-.10795.59055-.2921.24765-.18415.381-.4318.1397-.24765.1397-.5207zM49.617043 22.623974q0 .4191-.17145.7747-.17145.34925-.62865.635-.4572.2794-1.2573.48895-.8001.20955-2.0574.33655-.0063.06985-.0063.1397v.13335q0 .8509.3683 1.30175.37465.4445 1.12395.4445.3048 0 .53975-.0635.2413-.0635.42545-.1524.1905-.09525.3302-.2032.14605-.1143.2667-.2032.12065-.09525.22225-.15875.1016-.0635.2032-.0635.1143 0 .20955.10795l.2794.34925q-.32385.33655-.635.57785-.3048.23495-.62865.3937t-.67945.2286q-.34925.0762-.75565.0762-.55245 0-.9906-.18415-.43815-.18415-.74295-.5207-.3048-.3429-.4699-.8255-.1651-.4826-.1651-1.0795 0-.4953.1016-.98425.10795-.4953.3048-.9398.2032-.4445.48895-.8255.2921-.381.6604-.65405.37465-.2794.81915-.43815.45085-.15875.9652-.15875.48895 0 .84455.1397t.5842.3556q.2286.2159.33655.47625.1143.26035.1143.4953zm-1.9431-.65405q-.40005 0-.7366.1651t-.5969.4572q-.26035.28575-.4445.67945-.18415.38735-.28575.8382.9779-.12065 1.56845-.27305.59055-.15875.90805-.33655.3175-.18415.4191-.3937.1016-.20955.1016-.43815 0-.1143-.0508-.23495-.0508-.127-.1651-.2286-.10795-.1016-.28575-.1651-.1778-.06985-.4318-.06985zM50.327449 27.678574l.76835-6.4389h.56515q.381 0 .381.381l-.09525 1.2446q.51435-.8509 1.1557-1.2827.6477-.4318 1.33985-.4318.71755 0 1.11125.4826.40005.4826.40005 1.4097 0 .127-.0064.26035-.0063.13335-.0254.2794l-.4826 4.09575h-1.1303l.4826-4.09575q.0127-.127.01905-.2413.0127-.12065.0127-.2286 0-.5207-.19685-.76835-.1905-.254-.60325-.254-.3048 0-.6223.1651-.31115.1651-.60325.4699-.2921.29845-.5461.73025-.24765.42545-.42545.9525l-.3683 3.27025zM20.749347 37.121023h.84455q.127 0 .2032.0635.08255.0635.09525.17145l.59055 4.1402q.03175.22225.03175.4318.0064.2032.0127.4064l.1524-.4064q.08255-.20955.17145-.4318l1.75895-4.1656q.0381-.09525.12065-.15875.0889-.0635.19685-.0635h.4699q.127 0 .19685.0635t.08255.15875l.71755 4.1656q.0381.22225.05715.4318.0254.20955.04445.4191.0635-.2032.12065-.41275.0635-.2159.1524-.43815l1.6256-4.1402q.0381-.1016.127-.1651.0889-.06985.2032-.06985h.8128l-2.69875 6.43255h-.85725q-.14605 0-.18415-.2159l-.78105-4.36245q-.01905-.1016-.03175-.2032-.0127-.10795-.0254-.20955-.03175.10795-.0635.20955-.03175.1016-.0762.20955l-1.86055 4.3561q-.0889.2159-.254.2159h-.8255zM31.728299 37.121023l-.7747 6.43255h-1.11125l.7747-6.43255zm.42545-2.0193q0 .1651-.06985.31115-.0635.1397-.1778.254-.10795.10795-.24765.17145-.1397.0635-.2921.0635-.14605 0-.28575-.0635t-.24765-.17145q-.1016-.1143-.1651-.254-.0635-.14605-.0635-.31115 0-.1651.0635-.311149.0635-.14605.17145-.254.10795-.1143.24765-.1778.1397-.06985.28575-.06985.1524 0 .2921.0635.1397.0635.24765.1778.1143.10795.1778.26035.0635.146049.0635.311149zM32.898485 43.553573l1.13665-9.353549h1.11125l-1.13665 9.353549zM35.924656 43.553573l1.13665-9.353549h1.11125l-1.13665 9.353549zM41.349343 43.553573l1.1303-9.353549h1.1303l-.52705 4.343399q.50165-.7493 1.11125-1.1303.61595-.38735 1.2573-.38735.73025 0 1.12395.4826.3937.4826.3937 1.40335 0 .127-.0063.2667-.0064.13335-.0254.2794l-.4826 4.09575h-1.1303l.4826-4.09575q.0127-.127.01905-.2413.0127-.12065.0127-.2286 0-.5207-.19685-.7747-.1905-.254-.6096-.254-.28575 0-.59055.15875-.29845.1524-.5842.43815-.28575.28575-.5334.69215-.24765.40005-.4318.89535l-.41275 3.40995zM53.164113 38.498973q0 .4191-.17145.7747-.17145.34925-.62865.635-.4572.2794-1.2573.48895-.8001.20955-2.0574.33655-.0063.06985-.0063.1397v.13335q0 .8509.3683 1.30175.37465.4445 1.12395.4445.3048 0 .53975-.0635.2413-.0635.42545-.1524.1905-.09525.3302-.2032.14605-.1143.2667-.2032.12065-.09525.22225-.15875.1016-.0635.2032-.0635.1143 0 .20955.10795l.2794.34925q-.32385.33655-.635.57785-.3048.23495-.62865.3937t-.67945.2286q-.34925.0762-.75565.0762-.55245 0-.9906-.18415-.43815-.18415-.74295-.5207-.3048-.3429-.4699-.8255-.1651-.4826-.1651-1.0795 0-.4953.1016-.98425.10795-.4953.3048-.9398.2032-.4445.48895-.8255.2921-.381.6604-.65405.37465-.2794.81915-.43815.45085-.15875.9652-.15875.48895 0 .84455.1397t.5842.3556q.2286.2159.33655.47625.1143.26035.1143.4953zm-1.9431-.65405q-.40005 0-.7366.1651t-.5969.4572q-.26035.28575-.4445.67945-.18415.38735-.28575.8382.9779-.12065 1.56845-.27305.59055-.15875.90805-.33655.3175-.18415.4191-.3937.1016-.20955.1016-.43815 0-.1143-.0508-.23495-.0508-.127-.1651-.2286-.10795-.1016-.28575-.1651-.1778-.06985-.4318-.06985zM53.982468 43.553573l1.13665-9.353549h1.11125l-1.13665 9.353549zM56.627641 45.731623l1.04775-8.61695h.56515q.381 0 .381.381l-.10795 1.3716q.2413-.4191.52705-.75565.28575-.3429.5969-.5842.3175-.2413.6604-.3683.3429-.13335.6985-.13335.81915 0 1.27635.5969.4572.5969.4572 1.74625 0 .5207-.10795 1.0414t-.31115.99695q-.19685.4699-.4826.88265-.2794.4064-.62865.7112-.3429.29845-.7493.4699t-.8509.17145q-.47625 0-.86995-.18415-.3937-.1905-.6604-.53975l-.3429 2.81305zm3.94335-7.7978q-.3048 0-.6223.1905-.31115.1905-.60325.5334-.2921.3429-.5461.8128-.24765.4699-.4318 1.02235l-.2032 1.6383q.2413.34925.57785.4953.3429.1397.69215.1397.3302 0 .6223-.1397.2921-.1397.5334-.37465.2413-.2413.4318-.5588.1905-.32385.3175-.6858.13335-.3683.2032-.75565.06985-.3937.06985-.7747 0-.75565-.27305-1.14935-.27305-.3937-.76835-.3937zM30.124031 59.428573l.7747-6.4389h.56515q.381 0 .381.381l-.0889 1.14935q.47625-.8001 1.0414-1.2065.56515-.41275 1.1938-.41275.654049 0 .965199.45085.31115.4445.31115 1.27635.4826-.88265 1.0795-1.30175.60325-.42545 1.26365-.42545.7112 0 1.06045.46355.3556.46355.3556 1.3335 0 .14605-.0127.3048t-.03175.3302l-.4826 4.09575h-1.11125l.4826-4.09575q.0381-.31115.0381-.56515 0-.47625-.15875-.6985-.15875-.2286-.5334-.2286-.27305 0-.5461.1397-.27305.13335-.52705.40005-.254.26035-.47625.65405-.2159.38735-.38735.89535l-.41275 3.49885h-1.117599l.48895-4.09575q.01905-.17145.03175-.32385.0127-.1524.0127-.28575 0-.45085-.152399-.66675-.14605-.2159-.5207-.2159-.3048 0-.59055.1524-.2794.1524-.5334.4445-.24765.28575-.46355.70485-.2159.41275-.3937.93345l-.40005 3.3528zM45.21421 54.373973q0 .4191-.17145.7747-.17145.34925-.62865.635-.4572.2794-1.2573.48895-.8001.20955-2.0574.33655-.0063.06985-.0063.1397v.13335q0 .8509.3683 1.30175.37465.4445 1.12395.4445.3048 0 .53975-.0635.2413-.0635.42545-.1524.1905-.09525.3302-.2032.14605-.1143.2667-.2032.12065-.09525.22225-.15875.1016-.0635.2032-.0635.1143 0 .20955.10795l.2794.34925q-.32385.33655-.635.57785-.3048.23495-.62865.3937t-.67945.2286q-.34925.0762-.75565.0762-.55245 0-.9906-.18415-.43815-.18415-.74295-.5207-.3048-.3429-.4699-.8255-.1651-.4826-.1651-1.0795 0-.4953.1016-.98425.10795-.4953.3048-.9398.2032-.4445.48895-.8255.2921-.381.6604-.65405.37465-.2794.81915-.43815.45085-.15875.9652-.15875.48895 0 .84455.1397t.5842.3556q.2286.2159.33655.47625.1143.26035.1143.4953zm-1.9431-.65405q-.40005 0-.7366.1651t-.5969.4572q-.26035.28575-.4445.67945-.18415.38735-.28575.8382.9779-.12065 1.56845-.27305.59055-.15875.90805-.33655.3175-.18415.4191-.3937.1016-.20955.1016-.43815 0-.1143-.0508-.23495-.0508-.127-.1651-.2286-.10795-.1016-.28575-.1651-.1778-.06985-.4318-.06985zM47.347016 58.730073q0-.1651.05715-.31115.0635-.14605.17145-.254.10795-.10795.24765-.17145.14605-.0635.3175-.0635.1651 0 .3048.0635.14605.0635.254.17145.10795.10795.17145.254.0635.14605.0635.31115 0 .17145-.0635.3175-.0635.1397-.17145.24765-.10795.10795-.254.1651-.1397.0635-.3048.0635-.17145 0-.3175-.0635-.1397-.05715-.24765-.1651-.10795-.10795-.17145-.24765-.05715-.14605-.05715-.3175zM50.050727 58.730073q0-.1651.05715-.31115.0635-.14605.17145-.254.10795-.10795.24765-.17145.14605-.0635.3175-.0635.1651 0 .3048.0635.14605.0635.254.17145.10795.10795.17145.254.0635.14605.0635.31115 0 .17145-.0635.3175-.0635.1397-.17145.24765-.10795.10795-.254.1651-.1397.0635-.3048.0635-.17145 0-.3175-.0635-.1397-.05715-.24765-.1651-.10795-.10795-.17145-.24765-.05715-.14605-.05715-.3175zM52.754439 58.730073q0-.1651.05715-.31115.0635-.14605.17145-.254.10795-.10795.24765-.17145.14605-.0635.3175-.0635.1651 0 .3048.0635.14605.0635.254.17145.10795.10795.17145.254.0635.14605.0635.31115 0 .17145-.0635.3175-.0635.1397-.17145.24765-.10795.10795-.254.1651-.1397.0635-.3048.0635-.17145 0-.3175-.0635-.1397-.05715-.24765-.1651-.10795-.10795-.17145-.24765-.05715-.14605-.05715-.3175z" style="font-weight:400;-inkscape-font-specification:'Lato, Italic';fill:#333;stroke:none;stop-color:#000;stop-opacity:1" transform="translate(1.8560305 1.5160112)"/></g><path style="font-variation-settings:normal;display:inline;vector-effect:none;fill:none;fill-opacity:1;stroke:#000;stroke-width:.529167;stroke-linecap:butt;stroke-linejoin:miter;stroke-miterlimit:4;stroke-dasharray:none;stroke-dashoffset:0;stroke-opacity:1;-inkscape-stroke:none;stop-color:#000" d="M22.818058 19.956253c-4.490396-.550722-10.86917-.197389-13.361411 4.245011-3.5687326 6.361238-1.1797053 11.229498 2e-7 15.22157"/><path style="font-variation-settings:normal;display:inline;vector-effect:none;fill:none;fill-opacity:1;stroke:#000;stroke-width:.529167;stroke-linecap:butt;stroke-linejoin:miter;stroke-miterlimit:4;stroke-dasharray:none;stroke-dashoffset:0;stroke-opacity:1;-inkscape-stroke:none;stop-color:#000" d="M13.778781 31.64341c-3.315483 3.078073-8.6218094 8.607497-6.8319038 13.376399 2.5630325 6.828767 7.8249088 8.140278 11.6374008 9.811579"/><path style="font-variation-settings:normal;display:inline;vector-effect:none;fill:none;fill-opacity:1;stroke:#000;stroke-width:.529167;stroke-linecap:butt;stroke-linejoin:miter;stroke-miterlimit:4;stroke-dasharray:none;stroke-dashoffset:0;stroke-opacity:1;-inkscape-stroke:none;stop-color:#000" d="M44.476449 64.828162c-1.156156 3.664303-1.652327 8.124222-9.170656 7.900687-3.743641-.111305-8.298594-2.857996-15.005112-8.322626-5.390309-4.392151-8.422129-8.954143-7.80497-14.137503M63.005704 56.351139c4.49039.550722 12.138191 1.043409 14.63043-3.398991 3.568741-6.361238 1.17971-11.229498 0-15.22157M45.418275 10.405692c-3.835161-2.399694-9.796972-4.5158746-14.693853-3.113464-9.1756 2.6277873-10.274506 11.149656-10.884754 15.271184"/><path style="font-variation-settings:normal;display:inline;vector-effect:none;fill:none;fill-opacity:1;stroke:#000;stroke-width:.529167;stroke-linecap:butt;stroke-linejoin:miter;stroke-miterlimit:4;stroke-dasharray:none;stroke-dashoffset:0;stroke-opacity:1;-inkscape-stroke:none;stop-color:#000" d="M42.616345 12.32525c1.156149-3.664303 1.65232-8.124222 9.17065-7.900687 3.74364.111305 8.29859 2.857996 15.00511 8.322626 5.39031 4.392151 8.42213 8.954143 7.80497 14.137503"/><path style="font-variation-settings:normal;display:inline;vector-effect:none;fill:none;fill-opacity:1;stroke:#000;stroke-width:.529167;stroke-linecap:butt;stroke-linejoin:miter;stroke-miterlimit:4;stroke-dasharray:none;stroke-dashoffset:0;stroke-opacity:1;-inkscape-stroke:none;stop-color:#000" d="M77.069724 43.256571c3.31548-3.078073 8.62181-8.607497 6.8319-13.376399-2.56303-6.828767-7.8249-8.140278-11.63739-9.811579"/><circle style="font-variation-settings:normal;display:inline;fill:none;fill-opacity:1;stroke:#000;stroke-width:.4;stroke-linecap:butt;stroke-linejoin:miter;stroke-miterlimit:4;stroke-dasharray:none;stroke-dashoffset:0;stroke-opacity:1;stop-color:#000" cx="63.952061" cy="73.311279" r="3.0355213"/><circle style="font-variation-settings:normal;display:inline;vector-effect:none;fill:none;fill-opacity:1;stroke:#000;stroke-width:.4;stroke-linecap:butt;stroke-linejoin:miter;stroke-miterlimit:4;stroke-dasharray:none;stroke-dashoffset:0;stroke-opacity:1;-inkscape-stroke:none;stop-color:#000" cx="75.293671" cy="80.926712" r="1.5635618"/><circle style="font-variation-settings:normal;display:inline;vector-effect:none;fill:none;fill-opacity:1;stroke:#000;stroke-width:.4;stroke-linecap:butt;stroke-linejoin:miter;stroke-miterlimit:4;stroke-dasharray:none;stroke-dashoffset:0;stroke-opacity:1;-inkscape-stroke:none;stop-color:#000" cx="69.809494" cy="78.532211" r="1.9075172"/><path style="font-variation-settings:normal;display:inline;vector-effect:none;fill:none;fill-opacity:1;stroke:#000;stroke-width:.529167;stroke-linecap:butt;stroke-linejoin:miter;stroke-miterlimit:4;stroke-dasharray:none;stroke-dashoffset:0;stroke-opacity:1;-inkscape-stroke:none;stop-color:#000" d="M41.674516 66.74772c3.835157 2.399694 10.55547 6.083309 14.693852 3.113464 5.925903-4.252632 5.822147-9.674498 6.443148-13.79065"/></g></svg>