<svg width="800" height="720" viewBox="0 0 211.66665 190.50001" xmlns="http://www.w3.org/2000/svg"><g style="display:inline"><path style="display:inline;fill:#000;stroke-width:.529167" d="M136.16414 190.58128c0-.29104.25218-.52916.5604-.52916s.41322.23812.23335.52916c-.17988.29104-.43206.52917-.5604.52917s-.23335-.23813-.23335-.52917zm-27.51668-.38892c0-.28369 2.78666-.67071 6.21772-.86354 13.37969-.75195 16.53646-1.03238 16.53646-1.46902 0-.24943-1.53928-.45352-3.42062-.45352-3.17705 0-6.13422.2444-19.33356 1.59785-10.142431 1.03999-16.933392 1.25726-16.933392.54176 0-.36594.3156-.54423.701327-.39621.513277.19696 14.091135-.86006 15.041425-1.17095.0728-.0238.13229-.28141.13229-.57245 0-.71384-6.19424-.68017-6.63691.0361-.19214.31089-.66706.44333-1.055377.29431-.38832-.14901-.796647.001-.907377.33307-.147507.44254-.642764.42115-1.852708-.08-1.519981-.62961-7.431098-.48892-12.301831.29279-3.016776.48417-11.658907.5823-11.935026.13553-.164051-.26543.71591-.4826 1.95546-.4826 1.63908 0 2.09498-.15875 1.67165-.58208-.72667-.72667-2.51074-.69366-10.34521.19142-3.41974.38634-6.217711.53415-6.217711.32848 0-.45521 1.878011-.76165 11.08582-1.80897 3.91438-.44523 7.23226-.9247 7.373051-1.0655.91995-.91994-1.39554-1.09573-6.02345-.45728-11.20463 1.54575-12.17725 1.66129-12.39132 1.47212-.54088-.47801.76211-.75966 8.18701-1.76966 4.34966-.59169 8.3036-1.30138 8.78654-1.57709.482929-.27572 1.73894-.36161 2.791129-.19086 1.56594.25412 1.85624.48955 1.59983 1.29743-.27066.85278-.0206.98699 1.839066.98699h2.152328v-4.23333c0-2.32834.21036-4.23334.467447-4.23334.674057 0 1.104514 1.97386 1.112834 5.10276.005 1.95591.23614 2.80936.821007 3.03379.967084.37111.945364.43731 2.060678-6.28213 1.048234-6.31528 2.239495-8.32568 1.569181-2.64817-.24054 2.03729-.445787 4.77573-.456117 6.08542-.0187 2.37056-.0101 2.38173 1.908708 2.48843 1.708971.095 1.958968-.055 2.205158-1.32292.15272-.78655.237847-7.62134.189177-15.18843l-.0885-13.75833-4.076559-.26458c-2.242115-.14552-4.327683-.5166-4.634613-.82461-.306917-.30802-1.047334-1.95213-1.645341-3.65359-1.227971-3.49379-1.142684-5.61011.651247-16.1593 1.637291-9.6281 2.539385-15.22754 3.324762-20.63751.815544-5.61764 2.208318-13.376933 2.738115-15.254147.439757-1.558224 2.145355-2.20836 5.7935-2.20836 2.961652 0 3.490252-.418938 2.043538-1.619598-1.385074-1.149519-2.787495-4.403344-2.514158-5.833244.16016-.83779-.0578-1.603796-.579604-2.036842-.45997-.381739-.82874-1.081631-.81948-1.555318.0139-.712927.15535-.678985.82119.197086.781144 1.027819.880804.97835 3.456459-1.715784 1.458667-1.525765 2.497387-3.024477 2.308267-3.330472-.18912-.305995-.0705-.885759.26367-1.288366.45782-.551628.45229-1.250131-.0224-2.834571-1.37907-4.602892 1.3162-11.016377 5.3397-12.705999 1.20485-.505963 2.09538-1.241676 2.09848-1.733653.003-.470074.51303-1.500041 1.13348-2.288816.90103-1.145472 1.40696-1.36456 2.51355-1.088468 1.96052.48915 3.23753 1.797926 3.23753 3.318078 0 .716834.70435 2.105551 1.56524 3.086037 2.11768 2.411912 2.9205 5.526506 2.18125 8.462339-.92387 3.669023-.72878 6.935299.48685 8.150925.58208.582083 1.24347 1.058333 1.46975 1.058333.99143 0 2.92039-1.876491 4.85018-4.718229 2.27293-3.347043 4.28264-4.612064 8.17456-5.14551 5.65814-.775534 10.75798 3.607926 12.52963 10.769566.93348 3.773429 2.31892 4.342304 1.82476.749257-.4053-2.946869.45019-6.480223 1.88292-7.776822.51483-.465915 1.84751-.968465 2.9615-1.116777 1.78879-.238152 2.16267-.0834 3.19989 1.324447 1.9038 2.584079 2.98062 8.500715 2.64747 14.546594l-.28725 5.213084 2.466-.17593c2.19744-.15677 2.45528-.06067 2.36756.882403-.0541.582084.46022 4.153959 1.14301 7.937517.6828 3.78354 1.52032 9.02229 1.86117 11.64166.34084 2.61938 1.18116 8.21531 1.86738 12.43542.68621 4.2201 1.54048 10.49689 1.89836 13.94841.57714 5.56606.5543 6.46338-.20202 7.9375-.46899.9141-.93295 2.13826-1.03102 2.72034-.16814.99801-.53631 1.05059-6.45957.92251l-6.28127-.13583.40802 7.01499c.22441 3.85825.49385 10.825.59875 15.48166.1049 4.65667.19512 8.53948.20047 8.62847.005.089.62599-.50633 1.37917-1.32292 1.29941-1.40882 1.37378-1.18602.40545 1.21479-.24554.60878-.0877.79505.56029.66145.59019-.12166 1.35351-1.52909 2.20768-4.07054 1.47256-4.38141 3.32814-8.26457 3.74841-7.8443.15396.15396-.45796 2.65504-1.35983 5.55795-.90187 2.90291-1.63976 5.53846-1.63976 5.85677 0 .31831.83344.57875 1.85209.57875 1.4552 0 2.30565-.45357 3.96875-2.11667 2.49361-2.49362 3.15431-2.72956 1.62353-.57977-1.35856 1.90792-1.36287 2.16727-.036 2.16727 1.65831 0 1.23922.9812-.62547 1.46439-.92609.23997-1.77937.72303-1.89618 1.07346-.33112.99338 1.73598.7528 3.75198-.43667l1.82-1.07383.27016 1.73529c.14859.9544.1171 1.89325-.07 2.08633-.18707.19308-3.71164.4928-7.8324.66605-7.31772.30766-7.48581.29023-7.21433-.74793.2164-.8275.72012-1.06292 2.27429-1.06292 1.14893 0 2.50596-.41268 3.19695-.9722 1.19699-.96927 1.19099-.9723-1.98533-1.00222-3.676-.0346-4.4795.31889-4.65622 2.04858-.0702.68681-.15798 1.3767-.19513 1.53307-.0371.15638-.78191.33875-1.65503.40528-1.2789.0975-1.5875-.0864-1.5875-.94578 0-1.25905-.45032-1.36433-1.26458-.29567-.32846.43108-1.81247.87983-3.36563 1.01774-2.47392.21967-2.77812.13523-2.77812-.77106 0-.55976-.23813-1.01774-.52917-1.01774s-.52917.23812-.52917.52917c0 .3061-1.6861.52916-3.99998.52916-2.5319 0-3.87994-.19421-3.67293-.52916.17987-.29105 1.74174-.52917 3.47081-.52917 2.0044 0 3.14377-.2191 3.14377-.60455 0-.4246-.96822-.50335-3.25262-.26459-1.78895.18698-4.18425.33997-5.3229.33997-1.1824 0-1.93614.21703-1.75751.50606.17201.27833.63823.38116 1.03603.2285.39781-.15264.86964-.0407 1.04853.24873.402.65045-2.88873 1.01372-12.65361 1.39687-4.07459.15988-9.37287.43228-11.77397.60535-2.68825.19377-4.36563.11714-4.36563-.19943zm44.25697-1.98827c1.695-1.695-1.28994-2.63089-3.27769-1.02767-.98598.79523-.96881.8194.42802.60254.9855-.15299 1.45521.007 1.45521.49445 0 .93207.41363.91151 1.39446-.0693zm-71.341609-1.0437c-.96898-.80943-2.53664-1.26014-2.81521-.8094-.35911.58106 1.84479 1.62204 2.55063 1.20475.23764-.14049.35671-.3184.26458-.39535zm32.085269.25311c.62807-.004.83515-.19209.52917-.47963-.64383-.60502-3.94229-.10788-3.94229.59419 0 .29225.53512.38742 1.19062.21175.65485-.17549 1.65497-.32233 2.2225-.32631zm-27.738399-.80097c-.0246-.79152-2.273028-.63859-2.543565.17301-.16351.49053.18702.65003 1.162984.52916.768374-.0951 1.389631-.41113 1.380581-.70217zm36.594279-.98274c.84921-1.5946 2.17299-2.49368 2.78579-1.89205.31683.31105.26791.72834-.13229 1.12854-1.1189 1.1189-.69136 1.48167 1.74625 1.48167 2.23623 0 3.05098-.58196 1.85209-1.32292-.29105-.17987-.52917-1.02736-.52917-1.88331 0-2.22678 1.37452-1.99237 2.51037.4281 1.39779 2.97867 3.07403 2.91774 5.40579-.1965 1.9828-2.64816 2.96764-2.32262 1.06347.35155-.63667.89412-1.00113 1.78214-.8099 1.97337.75987.75987 2.23833-.9046 4.0011-4.50448 1.01865-2.08023 2.04147-3.79562 2.27294-3.81195.58005-.0409-.13055 3.60905-1.05976 5.44344-.86055 1.69884-.64802 2.3733.36371 1.15424.36815-.4436.91912-.80654 1.22436-.80654.30525 0 .99047-.39409 1.52271-.87577 1.32331-1.19758 1.22779-.13212-.11762 1.312-1.32333 1.42043-.94134 2.2096 1.06952 2.2096 1.0273 0 1.93577-.50692 2.84503-1.5875 1.64342-1.95309 2.05796-2.0039 1.60436-.19664-.31042 1.2368-.24069 1.3302.62948.84323.57123-.31968.98768-1.15454 1.00046-2.00562.0334-2.22458 1.07513-2.09383 1.99602.25053.67625 1.72158 1.02341 2.04497 1.93838 1.80571 1.01873-.26641 1.11458-.6637 1.11458-4.61966v-4.32818l-18.65313-.0138c-32.65704-.0241-40.308905-.18947-39.641601-.85678.670477-.67047 56.749841-.58917 57.892261-.38943.4163.0728.42282-8.02727-.147-20.91645-.0434-.98221 1.50138 1.43809.32586 1.37098l-1.35355.12778-18.37678-.13988c-10.12586.0348-23.1848.0657-29.01989.0687l-10.609272.006.0259 15.29071c.0256 15.14757.0362 15.29072 1.131494 15.29075.608074.00002 1.864008-.83341 2.790968-1.85205.92695-1.01865 1.90248-1.85209 2.16784-1.85209.26536 0 1.01781-.9525 1.67212-2.11666 1.17697-2.09413 2.51088-2.9784 1.79606-1.19063-.20365.50933-.50281 2.32259-.6648 4.02949-.2924 3.08118-.28541 3.10068.97513 2.71865.69829-.21164 1.49585-.59616 1.77234-.85449.27649-.25833.99087-.47091 1.58751-.4724.59664-.002 2.03729-.58937 3.20146-1.3064 2.46895-1.52067 2.91042-1.60844 2.91042-.57863 0 .41695-.45475.90242-1.01055 1.07883-.5558.1764-1.29934.6687-1.65229 1.09399-1.15355 1.38993 1.51032.91554 2.95148-.52561.71437-.71438 1.29886-1.16424 1.29886-.99971 0 .16454.46833-.263 1.04073-.9501.83703-1.00473 1.04417-1.07539 1.05833-.361.01.48854-.33958 1.24543-.77614 1.68199-1.07163 1.07164-.99948 1.39852.30868 1.39852 1.75934 0 .86595 1.30341-1.02094 1.48948-.92899.0916-1.5833.33773-1.45401.54693.12929.20919 1.21065.28731 2.40302.1736 1.5427-.14712 2.34212-.53378 2.77183-1.34067zm-24.439898-21.93432c0-.89102 9.630058-1.26178 33.922558-1.30603 22.17573-.0404 23.50232.0103 23.67464.90484.17407.90366-.84503.92909-21.96042.54819-12.17863-.21968-22.50015-.40829-22.93672-.41912-.43656-.0109-3.47267.16222-6.74691.38455-3.79614.25778-5.953148.21704-5.953148-.11243zm58.737568 22.86045c0-.55802-.28776-.73994-.83703-.52917-.46037.17666-.95067.3212-1.08956.3212-.1389 0-.10537.23812.0745.52917.5211.84315 1.85208.61233 1.85208-.3212zm-67.733397-.20797c0-.29104-.238127-.52917-.529177-.52917-.291037 0-.529157.23813-.529157.52917s.23812.52917.529157.52917c.29105 0 .529177-.23813.529177-.52917zm5.33811-.50047c-.736867-.4554-3.828109-.053-3.512749.45723.124877.20206 1.101384.26532 2.170018.14056 1.068614-.12475 1.672848-.39376 1.342731-.59779zm9.028787-.82245c0-.27649-.25599-.58803-.56886-.69232-.31288-.1043-.56886.20725-.56886.69232 0 .48507.25598.79662.56886.69233.31287-.10429.56886-.41584.56886-.69233zm20.55817-33.33489c4.51114.002 16.52861-.18627 26.70547-.0862 15.19366.14945 18.53767.32507 18.69505-.261.10541-.39259.1511-1.01394.2656-1.38081.1145-.36685.0746-.83557.01-1.04158-.16947-.53879-82.817267-.6301-82.817267-.0918 0 .24701-.03857 1.09863.439312 2.05658l.868884 1.74173 13.815501-.4698c7.59856-.25839 17.50648-.46864 22.01763-.4672zm5.46855-5.00471 40.86398-.16424-.0173-1.13537c-.0234-1.53894-.8673-6.57481-1.89512-14.86523-.32473-2.61938-.79584-5.59594-1.04688-6.61458-.25105-1.01865-.58959-3.16178-.75232-4.76251-.71385-7.02182-1.20908-8.87011-1.65669-12.28823-.25927-1.97984-.87467-5.05196-1.05547-6.879173-.18079-1.827203-.44376-3.441251-.58436-3.586771-.1406-.145521-2.31908-.294877-4.84106-.331902-2.52198-.03703-6.83207-.205802-9.57797-.375059-4.45578-.274653-5.06592-.202977-5.67504.66667-1.1523 1.645135-4.82721 1.860362-7.88057.461538-2.39014-1.094987-3.4031-1.200688-11.61435-1.211923-5.9209-.0081-9.68614.218615-11.01536.663271-1.11074.371571-2.222.550449-2.46946.397508-.24747-.153073-.44461 2.878743-.43809 6.737251.006 3.85849-.0941 7.37263-.22369 7.80919-.12955.43656-.42358 1.74625-.65341 2.91042-.62103 3.14575-2.33528 6.05157-3.58524 6.07731-1.08346.0223-3.53111-4.48174-3.8582-7.09964-.30722-2.45895.87606-9.6728 2.04902-15.931235.18411-.982356.207-1.107095-4.371126-1.231042-2.569273-.06956-4.96147.204537-5.448248.397729-.602699.239199-1.61763 3.097224-1.997888 5.946698-.003 1.91268-1.698891 13.84593-3.750859 26.39226-.970974 5.93677-2.452173 17.15188-2.463453 18.05052.347029.11211.43566.0434 1.289711.0651.807992.0205 20.016393-.098 42.669433-.099zm-20.28524-16.00676c-10.332021-.28393-18.884683-.61418-19.005953-.7339-.751837-.7422 1.828501-.94142 12.794493-.98783 6.7633-.0286 12.58963-.23525 12.94741-.45916.35779-.22391 1.07848-.17807 1.60154.10186 1.83297.98098 23.72503 1.47542 40.18656.90763 5.9542-.20537 8.4617.21587 8.93134.28584 3.91326.583.1133.73347-.18747.91921-.88521.54666-36.9217.52549-57.26792-.0337zm4.89481-18.29925c-1.23693-.0966-2.24896-.40009-2.24896-.6744 0-.29222 3.67017-.50014 8.86354-.50213 4.87495-.002 16.60261-.1379 26.06146-.30231 12.76285-.22184 18.14092.22743 19.1339-.10953.35602-.12082.0289 1.0975.0815 1.23858.16603.44272-48.01535.65256-51.89144.34982zm-22.357362-.7084c0-.51048 2.992085-.99391 6.151577-.99391 3.035955 0 4.012565.99726 1.124471 1.14825-4.173346.2182-7.276048.15238-7.276048-.15434zm17.695802-16.425063c1.38021.109772 2.92173-.150789 3.90729-.660445.89526-.462958 2.59797-.841742 3.7838-.841742 1.82074 0 2.23535-.20859 2.66599-1.341272.28048-.7377.46679-1.511606.41403-1.719792-.0528-.208185.0914-2.245053.32024-4.526371.38269-3.814255.32757-4.230384-.68531-5.174022-1.56185-1.455083-1.90428-3.405023-1.19824-6.823292.80473-3.896142.77359-5.301967-.16729-7.553821-1.28748-3.08138-3.20038-4.222643-6.66252-3.974964-3.66487.262182-5.81556 1.700988-7.38327 4.939408-1.04197 2.152427-1.12099 2.884859-.78457 7.272348.29555 3.854444.60381 5.12842 1.46813 6.0674 1.35707 1.474312.78597 2.249425-.67993.922812-1.04486-.945587-1.10988-.931676-2.69463.576508-2.322644 2.210438-2.811231 3.284839-1.966437 4.32421.600147.738402.570537.81119-.21092.518452-2.351375-.880829-1.596271 3.301511 1.045987 5.793479 1.23471 1.164472 2.38501 1.75725 3.40999 1.75725 1.15621 0 1.52297.233823 1.45255.926042-.0518.509323-.0521 1.640417-.00063 2.513542.0874 1.482221.14639 1.429514.88988-.794765.79583-2.38087.79763-2.382158 3.07584-2.200965zm29.4001-.443854c0-.873125.23813-1.5875.52917-1.5875s.52917.483724.52917 1.074942c0 1.238864 1.39717 1.972884 2.20935 1.160707.84062-.840627-.47674-4.232836-2.04215-5.258534-1.04709-.686074-2.7614-.876842-8.15337-.907299-3.75512-.02121-6.82818-.187394-6.829-.369295-.005-1.066185 11.04824-1.370976 14.54213-.401002 2.11417.586935 3.46264 1.900012 4.00096 3.895973.31435 1.165515 1.95954 1.484261 10.40262 2.015445l4.34095.273105.32222-2.197229c.17723-1.208476.24786-3.983167.15697-6.165979l-.16527-3.96875-2.01717-.16619c-2.31984-.191126-2.43309-1.323721-.15918-1.591818 1.14397-.134876 1.4119-.411338 1.28211-1.322917-.16947-1.190215-1.35077-1.425296-3.2068-.63816-1.54733.656215-1.03408-.486827.67079-1.493919 1.65921-.980116 1.67881-1.930746.0398-1.930746-1.71578 0-2.89954 3.685686-2.50429 7.797157.18928 1.968959.49843 4.149055.687 4.844656.32934 1.21494.26153 1.250685-1.72263.907945-5.01818-.866832-4.85652-.778463-4.75237-2.597684.10821-1.890209-.75708-5.129705-1.99672-7.47541-2.50959-4.748742-7.18373-7.103122-11.82208-5.954828-2.13444.528412-2.81908 1.038485-4.38871 3.269686-1.02287 1.453983-2.83821 3.620458-4.0341 4.81439l-2.17433 2.170785-.25513 5.298035-.25511 5.298034 5.33987.432318c2.93694.237776 6.21774.43861 7.29069.446299 1.42474.01021 2.01786.270343 2.19942.964631.4294 1.642031 1.93518 1.146494 1.93518-.636848zm12.91804-11.328763c-.2248-2.480792-.13487-4.552637.2449-5.642058.72199-2.071096.41062-2.653094-.50456-.94308-.7755 1.449035-.93174 5.303881-.31321 7.727443.42576 1.668198.3891 1.719792-1.22185 1.719792-.97244 0-1.52523.219324-1.33373.529167.17987.291041 1.03729.529166 1.90538.529166h1.57833zm-39.1945-23.705419c.16792-.642133.17623-1.296603.0185-1.454376-.4149-.414897-1.80697 1.633654-1.47506 2.170684.49471.800463 1.14338.481469 1.45661-.716308zm28.57557 130.159999c.76543-.48678 5.9441-.53429 5.45989-.0501-.19519.19519-1.64106.37379-3.21305.39688-1.57198.0231-2.58306-.13297-2.24684-.34679zm36.33006-13.58132c-3.90482-.52048-2.20467-1.37573 2.73479-1.37573 4.61026 0 6.10226.43034 4.65822 1.34358-.83696.52931-3.57379.54121-7.39301.0321zM66.0694 172.62183c-.18066-.29232.0849-1.16238.59014-1.93347.815691-1.2449.95615-1.29498 1.25363-.44695.23238.66248.45359.76317.7221.3287.48592-.78623 2.78755-.82123 3.26443-.0496.4416.71453 3.73698.17485 5.37597-.88042 1.44604-.93105 2.318071-.97208 1.97973-.0932-.1898.49303.49506.6149 2.6896.47862 3.224637-.20026 5.535742.19677 5.535742.95101 0 .97842-2.093048 1.12378-3.443209.23912-1.293694-.84766-1.565241-.84785-4.603112-.003-2.15219.59836-3.404711.72116-3.75748.36839-.35277-.35277-.87093-.34625-1.55444.0195-.72497.38799-1.47023.36441-2.54439-.0805-1.30636-.54111-1.77546-.47079-3.34967.50212-1.11565.68951-1.95885.92379-2.15904.59987zm-6.10533-2.16593c0-.56288 2.20438-1.6102 2.60721-1.23872.260911.24061-1.617179 1.74296-2.210329 1.76811-.21828.009-.396881-.22897-.396881-.52939zm105.41007-.0888c-.75792-.75792-.84024-2.01084-.13213-2.01084.27658 0 .72258.3926.99111.87244.4924.87986 1.57195.85637 6.17894-.13448 2.0801-.44738 1.1676.49165-1.26959 1.30649-2.33951.78218-4.96786.76686-5.76833-.0336zm12.59417.10583c0-.29104.37124-.52917.82498-.52917.45374 0 .67781.23813.49793.52917-.17987.29104-.55111.52917-.82498.52917-.27386 0-.49793-.23813-.49793-.52917zm6.61458 0c.17987-.29104.43205-.52917.5604-.52917.12834 0 .23335.23813.23335.52917s-.25218.52917-.5604.52917-.41323-.23813-.23335-.52917zm-8.73125-1.83347c0-.83379 2.00859-2.15516 2.51152-1.65223.35557.35556-1.40641 2.42737-2.06437 2.42737-.24593 0-.44715-.34882-.44715-.77514z" transform="translate(-16.8050236 -3.4077051)"/><path style="display:inline;fill:#e96149;fill-opacity:1;stroke:#000;stroke-width:.495059;-inkscape-stroke:none;stop-color:#000" d="M85.628574 146.56953c-.13847-.22786 1.108244-8.94207 3.236912-22.62529 1.880548-12.08829 2.643135-17.55035 2.990312-21.41825.281887-3.140514 1.017734-5.642623 1.779301-6.0502.981704-.525391 9.680061-.384514 9.698401.09935.0917.239064-.20059 2.26523-.64962 4.5026-2.07612 10.34457-1.80535 14.0421 1.335 18.23064 1.02225 1.36345 1.82611 1.34613 2.90055-.0625 2.11795-2.77677 3.10147-7.69288 3.10792-15.53479.002-2.99315-.0477-6.1922.0541-6.571216.32655-1.216472 3.81119-1.433879 14.0223-1.433879 8.90694 0 9.02483.279675 10.80622 1.089431 1.45164.659839 2.32095.818652 4.48109.818652 2.50114 0 2.74517-.06238 3.65544-.934484l.9754-.934485 8.13316.239898c4.47323.131942 8.82775.215684 9.64058.310804l1.47358.172443.64541 4.750806c.34292 2.52422.88064 5.72001 1.12677 7.11144.24613 1.39144.38253 2.58692.30312 2.65664-.0794.0697-1.24957.002-2.60034-.1515-2.66588-.30202-49.65528.21739-50.54475.55871-.75548.2899-.67104.68005.19758.91283.97842.26221 45.64034.19612 49.93818-.0739 2.15958-.13568 3.35775-.0941 3.35944.11657.009 1.0781 1.10269 9.40534 1.63481 12.44352.79412 4.53419 3.03797 21.46624 2.86733 21.63689-.19047.19047-84.452729.32926-84.568166.13929zm82.549786-15.99759c1.17058-1.17101.25467-1.02198-21.88869-1.0444-16.28471-.0165-23.68129-.29765-25.78803-.62964-3.24995-.51216-2.18624-.49786-15.71817-.21122-12.588825.26667-14.735783.41392-14.735783 1.01061 0 .32588 1.138834.48549 4.666323.65399 17.63684.84245 72.68727.99803 73.46435.22066zm-67.53992-19.02177c.18455-.18455.23809-.433.11898-.55211-.64268-.64267-7.692548-.45968-8.760842.22741-.41359.266-.41153.35103.0159.65473.616494.43806 8.145972.14998 8.625992-.33003zM118.9515 186.4075c.85841-.24424 1.65024-.53357 1.75963-.64295.42456-.42456-.22962-1.20952-1.00799-1.20952h-.81907l.80879-1.19181c.8101-1.19375.98107-1.80136.611-2.17143-.10878-.10878-1.15167.61142-2.31753 1.60046-1.16586.98903-2.4972 1.94174-2.95852 2.11713-1.62197.61668-1.35377-.35483.33708-1.22102 1.21393-.62187 1.5397-1.03144 1.30562-1.64146-.25785-.67193-.87582-.53786-3.11615.67605-1.13184.61329-2.5736 1.22251-3.20391 1.35382-.6303.13131-1.76909.54147-2.53065.91146-.76156.36999-1.47421.58315-1.58368.47368-.19665-.19665.2676-4.61613.71044-6.76317.32466-1.57403-.38872-1.23608-1.88125.89121-1.43952 2.05172-5.703314 5.94747-6.509361 5.94747-.318517 0-.660907-.21312-.760854-.47359-.0999-.26048-.28624-7.03893-.41398-15.06322l-.232247-14.58963h58.264702l.26744-.0543c.71686-.14568.46121.0119.64747 5.62119.13455 4.05233.19639 8.74408.13741 10.42611l-.10724 3.05823-28.65286.0526c-16.04218.0295-28.851581.18069-29.104301.34357-1.428181.92045 1.180774 1.02042 29.349901 1.12454l28.57099.10561v4.02942c0 3.14117-.10585 4.11728-.48018 4.42795-.7374.61198-1.22748.26949-2.13-1.48856-1.06231-2.0693-2.0283-2.21977-2.33012-.36297-.11176.68762-.44582 1.49282-.74234 1.78934-.50052.50053-.53912.45204-.53912-.67716 0-.66895-.0952-1.21629-.21164-1.21629-.1164 0-.92055.66311-1.787 1.47358-1.24336 1.16301-1.81581 1.47358-2.7162 1.47358-1.54909 0-1.72485-.46898-.71948-1.91974.8508-1.2277 1.07957-2.0098.58789-2.0098-.14408 0-.40196.13507-.57305.30016-.29198.28171-3.42217 2.0054-3.42181 1.88427.00009-.0308.28028-.79291.62265-1.69367.34236-.90076.72741-2.3375.85566-3.19275.37221-2.48202-.51661-2.00747-2.14748 1.14655-1.81083 3.5021-3.17281 5.48498-3.76745 5.48498-.65462 0-.59917-.31782.28669-1.64316 2.00788-3.004 1.13555-3.27365-1.55085-.47939-2.41595 2.51296-3.16383 2.65283-4.34556.8127-1.45095-2.25936-1.78195-2.61969-2.4064-2.61969-1.10298 0-1.27407 2.99026-.21059 3.68066.64925.42148-.45305.89328-2.09988.89879-1.83478.006-2.04883-.17556-1.39051-1.18028.41256-.62965.43341-.87852.10659-1.27231-.63754-.76819-.9975-.60608-2.66815 1.20166-1.49149 1.61389-1.6496 1.69634-3.45812 1.80318l-1.89517.11198zm-14.16803-22.50144c3.32201-.23554 11.25456-.22143 26.40954.047 11.91373.21101 22.34809.28066 23.18747.15479 1.16841-.17521 1.50196-.35442 1.42298-.76456-.0567-.29463-.47079-.63798-.9201-.76301-1.2189-.33915-42.11453-.31723-49.14741.0264-6.154617.30067-7.829188.51507-7.829188 1.00238 0 .27055.733567.53964 1.637301.6006.27015.0182 2.627887-.11837 5.239407-.30354zM87.463232 150.83584c-.404647-.94062-.639597-1.80642-.522117-1.92401.323-.3233 46.124865-.46428 65.606295-.20194l17.14629.23089-.18616 1.14718c-.10239.63094-.27921 1.23943-.39293 1.3522-.11372.11276-10.61925.16359-23.34562.11295-20.85271-.083-41.60632.22337-53.289195.78658l-4.280856.20637z" transform="translate(-16.8050236 -3.4077051)"/></g><g style="display:inline" transform="translate(.6135984 -3.4077051)"><path style="font-variation-settings:normal;display:inline;vector-effect:none;fill:none;fill-opacity:1;stroke:#000;stroke-width:.427885;stroke-linecap:butt;stroke-linejoin:miter;stroke-miterlimit:4;stroke-dasharray:none;stroke-dashoffset:0;stroke-opacity:1;-inkscape-stroke:none;stop-color:#000" d="M19.016225 23.059374c-3.63094-.445314-8.788822-.159609-10.8040514 3.43252-2.8856808 5.143705-.9539108 9.080185 0 12.308178"/><path style="font-variation-settings:normal;display:inline;vector-effect:none;fill:none;fill-opacity:1;stroke:#000;stroke-width:.443257;stroke-linecap:butt;stroke-linejoin:miter;stroke-miterlimit:4;stroke-dasharray:none;stroke-dashoffset:0;stroke-opacity:1;-inkscape-stroke:none;stop-color:#000" d="M34.268926 60.598348c3.071014 2.102726 8.452328 5.330485 11.766151 2.728165 4.745186-3.726358 8.225919-7.807711 8.723188-11.414479"/><path style="font-variation-settings:normal;display:inline;vector-effect:none;fill:none;fill-opacity:1;stroke:#000;stroke-width:.427885;stroke-linecap:butt;stroke-linejoin:miter;stroke-miterlimit:4;stroke-dasharray:none;stroke-dashoffset:0;stroke-opacity:1;-inkscape-stroke:none;stop-color:#000" d="M9.9657963 34.504156c-2.6809038 2.488933-5.2303447 4.965497-3.783025 8.821637 2.0724703 5.521748 6.3272297 6.582237 9.4100147 7.933653"/><path style="font-variation-settings:normal;display:inline;vector-effect:none;fill:none;fill-opacity:1;stroke:#000;stroke-width:.427885;stroke-linecap:butt;stroke-linejoin:miter;stroke-miterlimit:4;stroke-dasharray:none;stroke-dashoffset:0;stroke-opacity:1;-inkscape-stroke:none;stop-color:#000" d="M36.529224 59.342848c-.93487 2.962959-1.336075 6.569255-7.415403 6.388504-3.027112-.09-6.710252-2.310979-12.13315-6.729684-4.358609-3.551498-6.810142-7.24033-6.311107-11.4316M50.479053 53.999239c5.206992.497668 9.243228 1.22811 12.133194-2.786333 4.13826-5.748429 1.367975-10.147706 0-13.755204M37.290784 15.33678c-3.101115-1.940395-7.921842-3.651541-11.881464-2.51755-7.4194 2.124831-8.307977 9.015624-8.801424 12.348296"/><path style="font-variation-settings:normal;display:inline;vector-effect:none;fill:none;fill-opacity:1;stroke:#000;stroke-width:.427885;stroke-linecap:butt;stroke-linejoin:miter;stroke-miterlimit:4;stroke-dasharray:none;stroke-dashoffset:0;stroke-opacity:1;-inkscape-stroke:none;stop-color:#000" d="M35.02514 16.888937c.934865-2.96296 1.336068-6.569255 7.415398-6.388504 3.027111.09 6.710249 2.310978 12.133148 6.729684 4.35861 3.551498 6.810143 7.24033 6.311107 11.4316"/><path style="font-variation-settings:normal;display:inline;vector-effect:none;fill:none;fill-opacity:1;stroke:#000;stroke-width:.427885;stroke-linecap:butt;stroke-linejoin:miter;stroke-miterlimit:4;stroke-dasharray:none;stroke-dashoffset:0;stroke-opacity:1;-inkscape-stroke:none;stop-color:#000" d="M62.88418 41.900036c2.680901-2.488933 6.971605-6.960031 5.524282-10.81617-2.072469-5.521749-6.327223-6.582238-9.410007-7.933654"/><circle style="font-variation-settings:normal;display:inline;opacity:1;vector-effect:none;fill:none;fill-opacity:1;stroke:#000;stroke-width:.443257;stroke-linecap:butt;stroke-linejoin:miter;stroke-miterlimit:4;stroke-dasharray:none;stroke-dashoffset:0;stroke-opacity:1;-inkscape-stroke:none;stop-color:#000;stop-opacity:1" cx="55.347553" cy="65.391563" r="3.506027"/><circle style="font-variation-settings:normal;display:inline;opacity:1;vector-effect:none;fill:none;fill-opacity:1;stroke:#000;stroke-width:.443257;stroke-linecap:butt;stroke-linejoin:miter;stroke-miterlimit:4;stroke-dasharray:none;stroke-dashoffset:0;stroke-opacity:1;-inkscape-stroke:none;stop-color:#000;stop-opacity:1" cx="69.174614" cy="75.5867" r="1.719918"/><circle style="font-variation-settings:normal;display:inline;opacity:1;vector-effect:none;fill:none;fill-opacity:1;stroke:#000;stroke-width:.443257;stroke-linecap:butt;stroke-linejoin:miter;stroke-miterlimit:4;stroke-dasharray:none;stroke-dashoffset:0;stroke-opacity:1;-inkscape-stroke:none;stop-color:#000;stop-opacity:1" cx="62.497513" cy="71.839516" r="2.4290087"/><g aria-label="Relax, Jürgen will help ..." style="font-style:italic;font-size:10.5833px;line-height:1.25;font-family:Lato;-inkscape-font-specification:'Lato Italic';text-align:center;letter-spacing:0;text-anchor:middle;stroke-width:.264583"><path d="m23.836501 24.907451-.391582 3.180281h-.984247l.926039-7.582934h1.994952q.603248 0 1.042455.127.444499.126999.730248.365124.29104.232832.428623.571498.142875.333374.142875.746122 0 .460374-.137583.857248-.137583.396873-.396874.714372-.259291.312208-.624414.534457-.365124.216958-.825498.322791.169333.116416.280458.317499l1.635119 3.026823h-.878413q-.259291 0-.370416-.211666l-1.428745-2.730491q-.06879-.132291-.15875-.185208-.08996-.05292-.285749-.05292zm.449791-3.62478-.359833 2.905115h.968372q.44979 0 .793748-.126999.343957-.127.57679-.354541.238124-.232832.35454-.54504.121708-.317499.121708-.693206 0-.57679-.365124-.878414-.359832-.306915-1.084788-.306915zM32.803202 23.875579q0 .349249-.142875.645581-.142874.291041-.523873.529165-.380999.232833-1.047747.407457-.666748.174625-1.714494.280458-.0053.05821-.0053.116416v.111125q0 .709081.306916 1.084788.312207.370415.936622.370415.253999 0 .44979-.05292.201083-.05292.35454-.127.15875-.07937.275166-.169332.121708-.09525.22225-.169333.100541-.07937.185207-.132291.08467-.05292.169333-.05292.09525 0 .174625.08996l.232832.291041q-.269874.280457-.529165.48154-.253999.195791-.523873.328082-.269874.132291-.566207.1905-.29104.0635-.629706.0635-.460374 0-.825497-.153457-.365124-.153458-.619123-.433916-.254-.285749-.391583-.687914-.137582-.402166-.137582-.899581 0-.412748.08467-.820205.08996-.412749.253999-.783165.169333-.370415.407457-.687914.243416-.317499.550332-.54504.312207-.232833.682623-.365124.375707-.132291.80433-.132291.407457 0 .70379.116416.296332.116417.486832.296333.190499.179916.280457.396873.09525.216958.09525.412749zm-1.619245-.54504q-.333374 0-.613832.137583-.280457.137583-.497415.380999-.216957.238124-.370415.566206-.153458.322791-.238124.698498.814914-.100541 1.307037-.227541.492124-.132291.756706-.280457.264583-.153458.349249-.328083.08467-.174624.08467-.365123 0-.09525-.04233-.195791-.04233-.105833-.137583-.1905-.08996-.08467-.238124-.137583-.148166-.05821-.359832-.05821zM33.485163 28.087732l.947205-7.7946h.926039l-.947206 7.7946zM39.859287 28.087732h-.486832q-.185208 0-.253999-.09525-.0635-.09525-.0635-.232833l.09525-1.084788q-.190499.338665-.412748.613831-.216958.275166-.465665.470957-.243416.190499-.51329.296332-.269875.105833-.560915.105833-.317499 0-.57679-.121708-.259291-.126999-.444499-.365123-.179916-.243416-.280457-.592665-.100542-.354541-.100542-.809623 0-.476248.116417-.926038.121708-.455082.338665-.857248.22225-.402165.529165-.735539.306916-.338665.682623-.582081.380999-.248708.814914-.380999.433916-.137583.910164-.137583.343957 0 .666748.05821.328082.05292.645581.190499zm-2.30716-.709081q.259291 0 .507999-.158749.248707-.164041.470956-.44979.22225-.28575.412749-.677332.195791-.396873.343957-.86783l.227541-1.841494q-.116416-.02646-.232832-.03175-.111125-.01058-.22225-.01058-.317499 0-.613831.105833-.296332.100542-.555623.28575-.259291.185207-.470957.444498-.211666.253999-.365124.560915-.148166.306916-.232832.656165-.08467.343957-.08467.709081 0 1.275287.814914 1.275287zM42.799955 25.203783l-1.285871-2.476492h.841372q.105833 0 .148166.03175.04762.02646.08467.100541l.89958 1.841494q.02646-.05821.05292-.111124.03175-.05292.07408-.111125l1.211788-1.60337q.05821-.07408.105833-.111124.04762-.03704.116416-.03704h.851956l-1.915578 2.481784 1.428746 2.878657h-.841373q-.105833 0-.164041-.05292-.05821-.05821-.09525-.132291l-1.010705-2.143119q-.05292.116417-.111125.201083l-1.460495 1.947327q-.05292.07408-.116417.127-.0635.05292-.158749.05292h-.825498zM46.120466 27.436859q0-.248707.169332-.423332.174625-.174624.460374-.174624.158749 0 .280457.05821.121708.05821.201083.164041.08467.100542.127.238124.04233.132292.04233.291041 0 .238124-.06879.497415-.0635.254-.195791.502707-.126999.253999-.312207.492123-.185208.238125-.423332.439207l-.164041-.153457q-.06879-.0635-.06879-.148167 0-.0635.08467-.164041.08467-.100541.195791-.243416.111125-.137583.211666-.32279.105833-.179916.142874-.402166h-.0635q-.275166 0-.449791-.179916-.169332-.185208-.169332-.470957zM15.391524 38.803323q-.153458 1.259413-.788456 1.931452-.629706.666748-1.677453.666748-.285749 0-.534456-.03704-.248708-.03704-.502707-.111125l.07408-.57679q.01058-.07937.05821-.137583.05292-.05821.15875-.05821.05292 0 .121708.01588.06879.01058.153458.03175.08996.01588.201082.03175.116417.01058.264583.01058.275166 0 .518581-.08996.243416-.08996.439207-.296332.195791-.206375.328083-.539748.137583-.333374.195791-.820206l.619123-5.090567h.989538zM18.10829 35.956416l-.402165 3.407822q-.01058.105833-.02117.201083-.0053.09525-.0053.185208 0 .433915.158749.645581.164041.211666.51329.211666.243416 0 .497415-.132291.259291-.132292.497415-.375708.243416-.243415.449791-.587373.206374-.343957.359832-.767289l.333374-2.788699h.936622l-.645581 5.360441h-.465666q-.164041 0-.253999-.07408-.08996-.07408-.08996-.227541 0-.0053.0053-.09525.0053-.08996.01058-.195791.01058-.105833.01587-.195791.01058-.08996.01058-.09525l.03704-.428623q-.428624.682623-.957789 1.037163-.529165.349249-1.09008.349249-.597956 0-.93133-.407457-.328082-.407457-.328082-1.169455 0-.105833.0053-.216957.0053-.111125.02117-.232833l.402165-3.407822zm.984247-1.587495q0 .121708-.04763.227541-.04762.105833-.132291.185207-.08467.07937-.195791.127-.105833.04762-.227541.04762t-.227541-.04762q-.105833-.04763-.185207-.127-.07937-.07937-.127-.185207-.04763-.105833-.04763-.227541t.04763-.232833q.04763-.111125.127-.190499.07937-.08467.185207-.132292.105833-.04762.227541-.04762t.227541.04762q.111125.04763.195791.132292.08467.07937.132291.190499.04763.111125.04763.232833zm1.899703 0q0 .121708-.04763.227541t-.132292.185207q-.07937.07937-.190499.127-.105833.04762-.227541.04762t-.232832-.04762q-.105833-.04763-.185208-.127-.07937-.07937-.127-.185207-.04763-.105833-.04763-.227541t.04763-.232833q.04763-.111125.127-.190499.07937-.08467.185208-.132292.111124-.04762.232832-.04762.121708 0 .227541.04762.111125.04763.190499.132292.08467.07937.132292.190499.04763.111125.04763.232833zM22.17112 41.316857l.645581-5.365733h.470957q.148166 0 .232833.06879.08467.06879.08467.211666 0 .02117-.0053.0635 0 .03704-.0053.07937 0 .04233-.0053.07408v.03704l-.07408.973663q.343957-.740831.767289-1.142996.428624-.402166.899581-.402166.222249 0 .444499.09525l-.169333.904872q-.248708-.100541-.48154-.100541-.51329 0-.915456.502707-.402165.497415-.672039 1.513411l-.296333 2.487076zM29.834091 37.443369q-.0053.264583-.06879.476249-.05821.211666-.148167.391582-.08996.179916-.195791.338665-.105833.15875-.195791.317499-.08996.15875-.153458.328083-.05821.164041-.05821.359832 0 .222249.105833.402165.111125.179916.238124.370416.132292.190499.238125.41804.111124.222249.111124.529165 0 .375707-.174624.709081-.174625.338666-.497415.597957-.322791.25929-.788456.407457-.460374.153457-1.037163.153457-.460374 0-.841373-.09525-.375707-.09525-.645581-.269874-.264582-.174625-.407457-.423332-.148166-.243416-.148166-.539749 0-.41804.216957-.719664.216958-.301624.571499-.497415.35454-.195791.80433-.285749.455082-.08996.926039-.08996.1905 0 .375707.01588.1905.01588.375707.04233-.04762-.100542-.07937-.206374-.02646-.111125-.02646-.238125 0-.164041.04763-.338665.05292-.174625.169333-.391582-.201083.137582-.44979.211666-.248708.07408-.566207.07408-.306915 0-.57679-.100542-.264582-.100541-.465665-.296332-.201082-.195791-.317499-.486832-.116416-.296332-.116416-.687914 0-.380999.137583-.746123.142874-.370415.412749-.656165.269874-.29104.666747-.465665.396874-.174624.915456-.174624.582081 0 1.010705.275166h1.455204l-.04233.312207q-.01058.08996-.0635.164041-.04763.07408-.148167.08996l-.666747.116416q.04762.137583.07408.291041.02646.148166.02646.317499zm-2.042577 1.455204q.285749 0 .502707-.121708.216958-.127.365124-.328082.153458-.206375.232832-.460374.07937-.253999.07937-.51329 0-.465665-.238124-.703789-.232833-.238125-.645581-.238125-.28575 0-.502707.116417-.216958.116416-.365124.312207t-.227541.444499q-.07408.248707-.07408.518581 0 .476249.227541.724956.232832.248708.645581.248708zm1.05833 2.550575q0-.137583-.02646-.253999-.02646-.121708-.06879-.227541-.285749-.04762-.539748-.06879-.248707-.02117-.470957-.02117-.433915 0-.751414.07937-.317499.07408-.523873.201082-.206375.127-.306916.291041-.100541.169333-.100541.349249 0 .380999.317499.582081.32279.201083.910163.201083.349249 0 .634998-.09525.291041-.08996.492124-.243415.206374-.153458.317499-.359833.116416-.206374.116416-.433915zM35.097629 37.104704q0 .349248-.142875.645581-.142874.291041-.523873.529165-.380999.232832-1.047747.407457-.666748.174624-1.714494.280457-.0053.05821-.0053.116417v.111124q0 .709081.306916 1.084788.312207.370416.936622.370416.253999 0 .44979-.05292.201083-.05292.35454-.126999.15875-.07937.275166-.169333.121708-.09525.222249-.169333.100542-.07937.185208-.132291.08467-.05292.169333-.05292.09525 0 .174624.08996l.232833.29104q-.269874.280458-.529165.48154-.253999.195792-.523873.328083-.269874.132291-.566207.190499-.291041.0635-.629706.0635-.460374 0-.825497-.153458-.365124-.153458-.619124-.433915-.253999-.285749-.391582-.687915-.137582-.402165-.137582-.89958 0-.412749.08467-.820206.08996-.412749.253999-.783164.169333-.370415.407457-.687914.243416-.317499.550332-.54504.312207-.232833.682623-.365124.375707-.132292.80433-.132292.407457 0 .70379.116417.296332.116416.486832.296332.190499.179916.280457.396874.09525.216958.09525.412749zm-1.619245-.54504q-.333374 0-.613832.137583-.280457.137582-.497415.380998-.216957.238125-.370415.566207-.153458.322791-.238124.698498.814914-.100542 1.307037-.227541.492124-.132292.756706-.280458.264583-.153458.349249-.328082.08467-.174624.08467-.365124 0-.09525-.04233-.195791-.04233-.105833-.137583-.190499-.08996-.08467-.238124-.137583-.148166-.05821-.359832-.05821zM35.689631 41.316857l.64029-5.365733h.470956q.317499 0 .317499.317499l-.07937 1.037163q.428623-.709081.96308-1.068913.539748-.359832 1.116538-.359832.597956 0 .926039.402165.333374.402166.333374 1.174746 0 .105833-.0053.216958-.0053.111125-.02117.232833l-.402165 3.413114h-.941914l.402166-3.413114q.01058-.105833.01588-.201083.01058-.100541.01058-.190499 0-.433916-.164041-.64029-.15875-.211666-.502707-.211666-.253999 0-.518582.137583-.25929.137583-.502706.391582-.243416.248708-.455082.60854-.206374.35454-.354541.793747l-.306915 2.7252zM43.349294 35.956416h.70379q.105833 0 .169332.05292.06879.05292.07937.142875l.492124 3.450155q.02646.185208.02646.359833.0053.169332.01058.338665.0635-.169333.127-.338665.06879-.174625.142874-.359833l1.465787-3.471322q.03175-.07937.100542-.132291.07408-.05292.164041-.05292h.391582q.105833 0 .164041.05292.05821.05292.06879.132291l.597957 3.471322q.03175.185208.04763.359833.02117.174624.03704.349248.05292-.169332.100542-.343957.05292-.179916.126999-.365124l1.354663-3.450155q.03175-.08467.105833-.137583.07408-.05821.169332-.05821h.677332l-2.248952 5.360441h-.714372q-.121708 0-.153458-.179916l-.650873-3.635364q-.01587-.08467-.02646-.169332-.01058-.08996-.02117-.174625-.02646.08996-.05292.174625-.02646.08467-.0635.174624l-1.550454 3.630072q-.07408.179916-.211666.179916h-.687914zM52.498392 35.956416l-.645581 5.360441h-.926039l.645582-5.360441zm.354541-1.682745q0 .137583-.05821.259291-.05292.116416-.148166.211666-.08996.08996-.206375.142874-.116416.05292-.243416.05292-.121708 0-.238124-.05292t-.206374-.142874q-.08467-.09525-.137583-.211666-.05292-.121708-.05292-.259291t.05292-.259291q.05292-.121708.142874-.211666.08996-.09525.206375-.148166.116416-.05821.238124-.05821.127 0 .243416.05292.116416.05292.206374.148166.09525.08996.148166.216958.05292.121708.05292.259291zM53.473544 41.316857l.947205-7.7946h.926039l-.947206 7.7946zM55.995344 41.316857l.947206-7.7946h.926039l-.947206 7.7946zM21.758702 54.545981l.941914-7.7946h.941913l-.439207 3.619489q.418041-.624415.926039-.941914.51329-.322791 1.047747-.322791.608539 0 .936622.402166.328082.402165.328082 1.169454 0 .105833-.0053.22225-.0053.111124-.02117.232832l-.402166 3.413114h-.941913l.402165-3.413114q.01058-.105833.01588-.201082.01058-.100542.01058-.1905 0-.433915-.164041-.645581-.158749-.211666-.507998-.211666-.238124 0-.492124.132291-.248707.127-.486831.365124-.238125.238124-.444499.57679-.206374.333374-.359832.746122l-.343957 2.841616zM31.604313 50.333828q0 .349249-.142875.645581-.142875.291041-.523873.529165-.380999.232833-1.047747.407457-.666748.174625-1.714495.280458-.0053.05821-.0053.116416v.111125q0 .709081.306915 1.084788.312208.370416.936622.370416.254 0 .449791-.05292.201082-.05292.35454-.127.15875-.07937.275166-.169332.121708-.09525.222249-.169333.100542-.07937.185208-.132291.08467-.05292.169333-.05292.09525 0 .174624.08996l.232833.291041q-.269874.280457-.529165.48154-.253999.195791-.523873.328082-.269875.132292-.566207.1905-.291041.0635-.629706.0635-.460374 0-.825498-.153458-.365123-.153458-.619123-.433916-.253999-.285749-.391582-.687914-.137583-.402165-.137583-.899581 0-.412748.08467-.820205.08996-.412749.253999-.783164.169333-.370416.407457-.687915.243416-.317499.550332-.54504.312207-.232832.682622-.365124.375708-.132291.804331-.132291.407457 0 .70379.116416.296332.116417.486831.296333.1905.179916.280458.396873.09525.216958.09525.412749zm-1.619245-.54504q-.333374 0-.613832.137583-.280457.137583-.497415.380999-.216957.238124-.370415.566206-.153458.322791-.238125.698498.814915-.100541 1.307038-.227541.492123-.132291.756706-.280457.264582-.153458.349249-.328082.08467-.174625.08467-.365124 0-.09525-.04233-.195791-.04233-.105833-.137583-.1905-.08996-.08467-.238124-.137583-.148166-.05821-.359832-.05821zM32.286274 54.545981l.947205-7.7946h.926039l-.947205 7.7946zM34.490577 56.361017l.873122-7.180769h.470957q.317499 0 .317499.317499l-.08996 1.142997q.201082-.349249.439207-.629706.238124-.28575.497415-.486832.264582-.201083.550331-.306916.285749-.111125.582082-.111125.682623 0 1.063621.497415.380999.497416.380999 1.455204 0 .433915-.08996.867831-.08996.433915-.259291.830789-.164041.391582-.402165.735539-.232833.338666-.523873.592665-.285749.248707-.624415.391582-.338666.142875-.709081.142875-.396874 0-.724956-.153458-.328082-.15875-.550332-.449791l-.285749 2.344201zm3.286114-6.498146q-.253999 0-.518581.15875-.259291.158749-.502707.444498-.243416.285749-.455082.677332-.206374.391582-.359832.851955l-.169333 1.365246q.201083.291041.48154.412749.285749.116416.57679.116416.275166 0 .518582-.116416.243416-.116417.444498-.312208.201083-.201082.359832-.465665.15875-.269874.264583-.571498.111125-.306916.169333-.629706.05821-.328083.05821-.645582 0-.629706-.227541-.957788-.227541-.328083-.64029-.328083zM42.1046 53.9639q0-.137583.04763-.259291.05292-.121708.142874-.211666.08996-.08996.206375-.142874.121708-.05292.264582-.05292.137583 0 .253999.05292.121708.05292.211666.142874.08996.08996.142875.211666.05292.121708.05292.259291 0 .142874-.05292.264582-.05292.116417-.142875.206375-.08996.08996-.211666.137583-.116416.05292-.253999.05292-.142874 0-.264582-.05292-.116417-.04763-.206375-.137583-.08996-.08996-.142874-.206375-.04763-.121708-.04763-.264582ZM44.357686 53.9639q0-.137583.04762-.259291.05292-.121708.142874-.211666.08996-.08996.206375-.142874.121708-.05292.264582-.05292.137583 0 .253999.05292.121708.05292.211666.142874.08996.08996.142875.211666.05292.121708.05292.259291 0 .142874-.05292.264582-.05292.116417-.142875.206375-.08996.08996-.211666.137583-.116416.05292-.253999.05292-.142874 0-.264582-.05292-.116417-.04763-.206375-.137583-.08996-.08996-.142874-.206375-.04762-.121708-.04762-.264582zM46.61077 53.9639q0-.137583.04762-.259291.05292-.121708.142875-.211666.08996-.08996.206374-.142874.121708-.05292.264582-.05292.137583 0 .254.05292.121708.05292.211666.142874.08996.08996.142874.211666.05292.121708.05292.259291 0 .142874-.05292.264582-.05292.116417-.142874.206375-.08996.08996-.211666.137583-.116417.05292-.254.05292-.142874 0-.264582-.05292-.116416-.04763-.206374-.137583-.08996-.08996-.142875-.206375-.04762-.121708-.04762-.264582z"/></g></g></svg>