<svg width="810" height="720" viewBox="0 0 214.31248 190.50001" xmlns="http://www.w3.org/2000/svg"><g style="display:inline"><path style="display:inline;fill:#000;stroke-width:.529167" d="M136.16414 190.58128c0-.29104.25218-.52916.5604-.52916s.41322.23812.23335.52916c-.17988.29104-.43206.52917-.5604.52917s-.23335-.23813-.23335-.52917zm-27.51668-.38892c0-.28369 2.78666-.67071 6.21772-.86354 13.37969-.75195 16.53646-1.03238 16.53646-1.46902 0-.24943-1.53928-.45352-3.42062-.45352-3.17705 0-6.13422.2444-19.33356 1.59785-10.142431 1.03999-16.933392 1.25726-16.933392.54176 0-.36594.3156-.54423.701327-.39621.513277.19696 14.091135-.86006 15.041425-1.17095.0728-.0238.13229-.28141.13229-.57245 0-.71384-6.19424-.68017-6.63691.0361-.19214.31089-.66706.44333-1.055377.29431-.38832-.14901-.796647.001-.907377.33307-.147507.44254-.642764.42115-1.852708-.08-1.519981-.62961-7.431098-.48892-12.301831.29279-3.016776.48417-11.658907.5823-11.935026.13553-.164051-.26543.71591-.4826 1.95546-.4826 1.63908 0 2.09498-.15875 1.67165-.58208-.72667-.72667-2.51074-.69366-10.34521.19142-3.41974.38634-6.217711.53415-6.217711.32848 0-.45521 1.878011-.76165 11.08582-1.80897 3.91438-.44523 7.23226-.9247 7.373051-1.0655.91995-.91994-1.39554-1.09573-6.02345-.45728-11.20463 1.54575-12.17725 1.66129-12.39132 1.47212-.54088-.47801.76211-.75966 8.18701-1.76966 4.34966-.59169 8.3036-1.30138 8.78654-1.57709.482929-.27572 1.73894-.36161 2.791129-.19086 1.56594.25412 1.85624.48955 1.59983 1.29743-.27066.85278-.0206.98699 1.839066.98699h2.152328v-4.23333c0-2.32834.21036-4.23334.467447-4.23334.674057 0 1.104514 1.97386 1.112834 5.10276.005 1.95591.23614 2.80936.821007 3.03379.967084.37111.945364.43731 2.060678-6.28213 1.048234-6.31528 2.239495-8.32568 1.569181-2.64817-.24054 2.03729-.445787 4.77573-.456117 6.08542-.0187 2.37056-.0101 2.38173 1.908708 2.48843 1.708971.095 1.958968-.055 2.205158-1.32292.15272-.78655.237847-7.62134.189177-15.18843l-.0885-13.75833-4.076559-.26458c-2.242115-.14552-4.327683-.5166-4.634613-.82461-.306917-.30802-1.047334-1.95213-1.645341-3.65359-1.227971-3.49379-1.142684-5.61011.651247-16.1593 1.637291-9.6281 2.539385-15.22754 3.324762-20.63751.815544-5.61764 2.208318-13.376933 2.738115-15.254147.439757-1.558224 2.145355-2.20836 5.7935-2.20836 2.961652 0 3.490252-.418938 2.043538-1.619598-1.385074-1.149519-2.787495-4.403344-2.514158-5.833244.16016-.83779-.0578-1.603796-.579604-2.036842-.45997-.381739-.82874-1.081631-.81948-1.555318.0139-.712927.15535-.678985.82119.197086.781144 1.027819.880804.97835 3.456459-1.715784 1.458667-1.525765 2.497387-3.024477 2.308267-3.330472-.18912-.305995-.0705-.885759.26367-1.288366.45782-.551628.45229-1.250131-.0224-2.834571-1.37907-4.602892 1.3162-11.016377 5.3397-12.705999 1.20485-.505963 2.09538-1.241676 2.09848-1.733653.003-.470074.51303-1.500041 1.13348-2.288816.90103-1.145472 1.40696-1.36456 2.51355-1.088468 1.96052.48915 3.23753 1.797926 3.23753 3.318078 0 .716834.70435 2.105551 1.56524 3.086037 2.11768 2.411912 2.9205 5.526506 2.18125 8.462339-.92387 3.669023-.72878 6.935299.48685 8.150925.58208.582083 1.24347 1.058333 1.46975 1.058333.99143 0 2.92039-1.876491 4.85018-4.718229 2.27293-3.347043 4.28264-4.612064 8.17456-5.14551 5.65814-.775534 10.75798 3.607926 12.52963 10.769566.93348 3.773429 2.31892 4.342304 1.82476.749257-.4053-2.946869.45019-6.480223 1.88292-7.776822.51483-.465915 1.84751-.968465 2.9615-1.116777 1.78879-.238152 2.16267-.0834 3.19989 1.324447 1.9038 2.584079 2.98062 8.500715 2.64747 14.546594l-.28725 5.213084 2.466-.17593c2.19744-.15677 2.45528-.06067 2.36756.882403-.0541.582084.46022 4.153959 1.14301 7.937517.6828 3.78354 1.52032 9.02229 1.86117 11.64166.34084 2.61938 1.18116 8.21531 1.86738 12.43542.68621 4.2201 1.54048 10.49689 1.89836 13.94841.57714 5.56606.5543 6.46338-.20202 7.9375-.46899.9141-.93295 2.13826-1.03102 2.72034-.16814.99801-.53631 1.05059-6.45957.92251l-6.28127-.13583.40802 7.01499c.22441 3.85825.49385 10.825.59875 15.48166.1049 4.65667.19512 8.53948.20047 8.62847.005.089.62599-.50633 1.37917-1.32292 1.29941-1.40882 1.37378-1.18602.40545 1.21479-.24554.60878-.0877.79505.56029.66145.59019-.12166 1.35351-1.52909 2.20768-4.07054 1.47256-4.38141 3.32814-8.26457 3.74841-7.8443.15396.15396-.45796 2.65504-1.35983 5.55795-.90187 2.90291-1.63976 5.53846-1.63976 5.85677 0 .31831.83344.57875 1.85209.57875 1.4552 0 2.30565-.45357 3.96875-2.11667 2.49361-2.49362 3.15431-2.72956 1.62353-.57977-1.35856 1.90792-1.36287 2.16727-.036 2.16727 1.65831 0 1.23922.9812-.62547 1.46439-.92609.23997-1.77937.72303-1.89618 1.07346-.33112.99338 1.73598.7528 3.75198-.43667l1.82-1.07383.27016 1.73529c.14859.9544.1171 1.89325-.07 2.08633-.18707.19308-3.71164.4928-7.8324.66605-7.31772.30766-7.48581.29023-7.21433-.74793.2164-.8275.72012-1.06292 2.27429-1.06292 1.14893 0 2.50596-.41268 3.19695-.9722 1.19699-.96927 1.19099-.9723-1.98533-1.00222-3.676-.0346-4.4795.31889-4.65622 2.04858-.0702.68681-.15798 1.3767-.19513 1.53307-.0371.15638-.78191.33875-1.65503.40528-1.2789.0975-1.5875-.0864-1.5875-.94578 0-1.25905-.45032-1.36433-1.26458-.29567-.32846.43108-1.81247.87983-3.36563 1.01774-2.47392.21967-2.77812.13523-2.77812-.77106 0-.55976-.23813-1.01774-.52917-1.01774s-.52917.23812-.52917.52917c0 .3061-1.6861.52916-3.99998.52916-2.5319 0-3.87994-.19421-3.67293-.52916.17987-.29105 1.74174-.52917 3.47081-.52917 2.0044 0 3.14377-.2191 3.14377-.60455 0-.4246-.96822-.50335-3.25262-.26459-1.78895.18698-4.18425.33997-5.3229.33997-1.1824 0-1.93614.21703-1.75751.50606.17201.27833.63823.38116 1.03603.2285.39781-.15264.86964-.0407 1.04853.24873.402.65045-2.88873 1.01372-12.65361 1.39687-4.07459.15988-9.37287.43228-11.77397.60535-2.68825.19377-4.36563.11714-4.36563-.19943zm44.25697-1.98827c1.695-1.695-1.28994-2.63089-3.27769-1.02767-.98598.79523-.96881.8194.42802.60254.9855-.15299 1.45521.007 1.45521.49445 0 .93207.41363.91151 1.39446-.0693zm-71.341609-1.0437c-.96898-.80943-2.53664-1.26014-2.81521-.8094-.35911.58106 1.84479 1.62204 2.55063 1.20475.23764-.14049.35671-.3184.26458-.39535zm32.085269.25311c.62807-.004.83515-.19209.52917-.47963-.64383-.60502-3.94229-.10788-3.94229.59419 0 .29225.53512.38742 1.19062.21175.65485-.17549 1.65497-.32233 2.2225-.32631zm-27.738399-.80097c-.0246-.79152-2.273028-.63859-2.543565.17301-.16351.49053.18702.65003 1.162984.52916.768374-.0951 1.389631-.41113 1.380581-.70217zm36.594279-.98274c.84921-1.5946 2.17299-2.49368 2.78579-1.89205.31683.31105.26791.72834-.13229 1.12854-1.1189 1.1189-.69136 1.48167 1.74625 1.48167 2.23623 0 3.05098-.58196 1.85209-1.32292-.29105-.17987-.52917-1.02736-.52917-1.88331 0-2.22678 1.37452-1.99237 2.51037.4281 1.39779 2.97867 3.07403 2.91774 5.40579-.1965 1.9828-2.64816 2.96764-2.32262 1.06347.35155-.63667.89412-1.00113 1.78214-.8099 1.97337.75987.75987 2.23833-.9046 4.0011-4.50448 1.01865-2.08023 2.04147-3.79562 2.27294-3.81195.58005-.0409-.13055 3.60905-1.05976 5.44344-.86055 1.69884-.64802 2.3733.36371 1.15424.36815-.4436.91912-.80654 1.22436-.80654.30525 0 .99047-.39409 1.52271-.87577 1.32331-1.19758 1.22779-.13212-.11762 1.312-1.32333 1.42043-.94134 2.2096 1.06952 2.2096 1.0273 0 1.93577-.50692 2.84503-1.5875 1.64342-1.95309 2.05796-2.0039 1.60436-.19664-.31042 1.2368-.24069 1.3302.62948.84323.57123-.31968.98768-1.15454 1.00046-2.00562.0334-2.22458 1.07513-2.09383 1.99602.25053.67625 1.72158 1.02341 2.04497 1.93838 1.80571 1.01873-.26641 1.11458-.6637 1.11458-4.61966v-4.32818l-18.65313-.0138c-32.65704-.0241-40.308905-.18947-39.641601-.85678.670477-.67047 56.758311-.76176 57.838561-.0941.51452.31799.47652-8.3226-.0933-21.21178-.0434-.98221-.0808-.97368-.52031.11865l-.47353 1.17699-18.41063.0632c-10.12586.0348-23.1848.0657-29.01989.0687l-10.609272.006.0259 15.29071c.0256 15.14757.0362 15.29072 1.131494 15.29075.608074.00002 1.864008-.83341 2.790968-1.85205.92695-1.01865 1.90248-1.85209 2.16784-1.85209.26536 0 1.01781-.9525 1.67212-2.11666 1.17697-2.09413 2.51088-2.9784 1.79606-1.19063-.20365.50933-.50281 2.32259-.6648 4.02949-.2924 3.08118-.28541 3.10068.97513 2.71865.69829-.21164 1.49585-.59616 1.77234-.85449.27649-.25833.99087-.47091 1.58751-.4724.59664-.002 2.03729-.58937 3.20146-1.3064 2.46895-1.52067 2.91042-1.60844 2.91042-.57863 0 .41695-.45475.90242-1.01055 1.07883-.5558.1764-1.29934.6687-1.65229 1.09399-1.15355 1.38993 1.51032.91554 2.95148-.52561.71437-.71438 1.29886-1.16424 1.29886-.99971 0 .16454.46833-.263 1.04073-.9501.83703-1.00473 1.04417-1.07539 1.05833-.361.01.48854-.33958 1.24543-.77614 1.68199-1.07163 1.07164-.99948 1.39852.30868 1.39852 1.75934 0 .86595 1.30341-1.02094 1.48948-.92899.0916-1.5833.33773-1.45401.54693.12929.20919 1.21065.28731 2.40302.1736 1.5427-.14712 2.34212-.53378 2.77183-1.34067zm-24.439898-21.93432c0-.89102 9.630058-1.26178 33.922558-1.30603 22.17573-.0404 23.50232.0103 23.67464.90484.17407.90366-.84503.92909-21.96042.54819-12.17863-.21968-22.50015-.40829-22.93672-.41912-.43656-.0109-3.47267.16222-6.74691.38455-3.79614.25778-5.953148.21704-5.953148-.11243zm58.737568 22.86045c0-.55802-.28776-.73994-.83703-.52917-.46037.17666-.95067.3212-1.08956.3212-.1389 0-.10537.23812.0745.52917.5211.84315 1.85208.61233 1.85208-.3212zm-67.733397-.20797c0-.29104-.238127-.52917-.529177-.52917-.291037 0-.529157.23813-.529157.52917s.23812.52917.529157.52917c.29105 0 .529177-.23813.529177-.52917zm5.33811-.50047c-.736867-.4554-3.828109-.053-3.512749.45723.124877.20206 1.101384.26532 2.170018.14056 1.068614-.12475 1.672848-.39376 1.342731-.59779zm9.028787-.82245c0-.27649-.25599-.58803-.56886-.69232-.31288-.1043-.56886.20725-.56886.69232 0 .48507.25598.79662.56886.69233.31287-.10429.56886-.41584.56886-.69233zm20.55817-33.33489c4.51114.002 16.52861.0845 26.70547.18462 15.19366.14945 18.53767.0543 18.69505-.53177.10541-.39259.28534-1.01394.39984-1.38081.1145-.36685.15517-.83557.0904-1.04158-.16947-.53879-83.461632-.76435-83.461632-.22602 0 .24701.391007 1.23288.868887 2.19083l.868884 1.74173 13.815501-.4698c7.59856-.25839 17.50648-.46864 22.01763-.4672zm5.46855-5.00471 41.18731-.002-.27293-1.46684c-.28156-1.51315-.93499-6.40558-1.96281-14.696-.32473-2.61938-.79584-5.59594-1.04688-6.61458-.25105-1.01865-.58959-3.16178-.75232-4.76251-.71385-7.02182-.97215-8.9378-1.65669-12.28823-.39971-1.95633-.87467-5.05196-1.05547-6.879173-.18079-1.827203-.44376-3.441251-.58436-3.586771-.1406-.145521-2.31908-.294877-4.84106-.331902-2.52198-.03703-6.83207-.205802-9.57797-.375059-4.45578-.274653-5.06592-.202977-5.67504.66667-1.1523 1.645135-4.82721 1.860362-7.88057.461538-2.39014-1.094987-3.4031-1.200688-11.61435-1.211923-5.9209-.0081-9.68614.218615-11.01536.663271-1.11074.371571-2.222.550449-2.46946.397508-.24747-.153073-.44461 2.878743-.43809 6.737251.006 3.85849-.0941 7.37263-.22369 7.80919-.12955.43656-.42358 1.74625-.65341 2.91042-.62103 3.14575-2.33528 6.05157-3.58524 6.07731-1.08346.0223-3.53111-4.48174-3.8582-7.09964-.30722-2.45895.7074-9.79739 2.21011-15.984932.26466-1.089749.0996-1.133943-4.397974-1.177345-2.570095-.0248-5.082223.08169-5.58249.236639-1.032274.319744-1.993508 3.258314-1.997888 6.107788-.003 1.91268-1.698891 13.84593-3.750859 26.39226-.970974 5.93677-2.586415 17.17872-2.597695 18.07736-.002.19266.650447.25819 1.450801.14565.800377-.11256 19.989545-.20542 42.642585-.20636zm-20.28524-16.00676c-10.332021-.28393-18.884683-.61418-19.005953-.7339-.751837-.7422 1.828501-.94142 12.794493-.98783 6.7633-.0286 12.58963-.23525 12.94741-.45916.35779-.22391 1.07848-.17807 1.60154.10186 1.83297.98098 23.72503 1.47542 40.18656.90763 5.9542-.20537 8.68171-.11807 8.93134.28584.19766.31982.1133.73347-.18747.91921-.88521.54667-36.9217.52549-57.26792-.0337zm4.89481-18.29925c-1.23693-.0966-2.24896-.40009-2.24896-.6744 0-.29222 3.67017-.50014 8.86354-.50213 4.87495-.002 16.60261-.1379 26.06146-.30231 16.04763-.27894 19.60002-.0679 18.43692 1.09517-.33434.33435-47.23687.68641-51.11296.38367zm-22.357362-.7084c0-.51048 2.992085-.99391 6.151577-.99391 3.035955 0 4.012565.99726 1.124471 1.14825-4.173346.2182-7.276048.15238-7.276048-.15434zm16.249312-3.76586c-.12658-.65824-.23494-.2443-.24082.91987-.006 1.16417.0977 1.70273.23014 1.1968.13245-.50593.13726-1.45843.0107-2.11667zm1.44649-12.659203c1.38021.109772 2.92173-.150789 3.90729-.660445.89526-.462958 2.59797-.841742 3.7838-.841742 1.82074 0 2.23535-.20859 2.66599-1.341272.28048-.7377.46679-1.511606.41403-1.719792-.0528-.208185.0914-2.245053.32024-4.526371.38269-3.814255.32757-4.230384-.68531-5.174022-1.56185-1.455083-1.90428-3.405023-1.19824-6.823292.80473-3.896142.77359-5.301967-.16729-7.553821-1.28748-3.08138-3.20038-4.222643-6.66252-3.974964-3.66487.262182-5.81556 1.700988-7.38327 4.939408-1.04197 2.152427-1.12099 2.884859-.78457 7.272348.29555 3.854444.60381 5.12842 1.46813 6.0674 1.35707 1.474312.78597 2.249425-.67993.922812-1.04486-.945587-1.10988-.931676-2.69463.576508-2.322644 2.210438-2.811231 3.284839-1.966437 4.32421.600147.738402.570537.81119-.21092.518452-2.351375-.880829-1.596271 3.301511 1.045987 5.793479 1.23471 1.164472 2.38501 1.75725 3.40999 1.75725 1.15621 0 1.52297.233823 1.45255.926042-.0518.509323-.0521 1.640417-.00063 2.513542.0874 1.482221.14639 1.429514.88988-.794765.79583-2.38087.79763-2.382158 3.07584-2.200965zm29.4001-.443854c0-.873125.23813-1.5875.52917-1.5875s.52917.483724.52917 1.074942c0 1.238864 1.39717 1.972884 2.20935 1.160707.84062-.840627-.47674-4.232836-2.04215-5.258534-1.04709-.686074-2.7614-.876842-8.15337-.907299-3.75512-.02121-6.82818-.187394-6.829-.369295-.005-1.066185 11.04824-1.370976 14.54213-.401002 2.11417.586935 3.46264 1.900012 4.00096 3.895973.31435 1.165515 1.95954 1.484261 10.40262 2.015445l4.34095.273105.32222-2.197229c.17723-1.208476.24786-3.983167.15697-6.165979l-.16527-3.96875-2.01717-.16619c-2.31984-.191126-2.43309-1.323721-.15918-1.591818 1.14397-.134876 1.4119-.411338 1.28211-1.322917-.16947-1.190215-1.35077-1.425296-3.2068-.63816-1.54733.656215-1.03408-.486827.67079-1.493919 1.65921-.980116 1.67881-1.930746.0398-1.930746-1.71578 0-2.89954 3.685686-2.50429 7.797157.18928 1.968959.49843 4.149055.687 4.844656.32934 1.21494.26153 1.250685-1.72263.907945-5.01818-.866832-4.85652-.778463-4.75237-2.597684.10821-1.890209-.75708-5.129705-1.99672-7.47541-2.50959-4.748742-7.18373-7.103122-11.82208-5.954828-2.13444.528412-2.81908 1.038485-4.38871 3.269686-1.02287 1.453983-2.83821 3.620458-4.0341 4.81439l-2.17433 2.170785-.25513 5.298035-.25511 5.298034 5.33987.432318c2.93694.237776 6.21774.43861 7.29069.446299 1.42474.01021 2.01786.270343 2.19942.964631.4294 1.642031 1.93518 1.146494 1.93518-.636848zm12.91804-11.328763c-.2248-2.480792-.13487-4.552637.2449-5.642058.72199-2.071096.41062-2.653094-.50456-.94308-.7755 1.449035-.93174 5.303881-.31321 7.727443.42576 1.668198.3891 1.719792-1.22185 1.719792-.97244 0-1.52523.219324-1.33373.529167.17987.291041 1.03729.529166 1.90538.529166h1.57833zm-39.1945-23.705419c.16792-.642133.17623-1.296603.0185-1.454376-.4149-.414897-1.80697 1.633654-1.47506 2.170684.49471.800463 1.14338.481469 1.45661-.716308zm28.57557 130.159999c.76543-.48678 5.9441-.53429 5.45989-.0501-.19519.19519-1.64106.37379-3.21305.39688-1.57198.0231-2.58306-.13297-2.24684-.34679zm36.33006-13.58132c-3.90482-.52048-2.20467-1.37573 2.73479-1.37573 4.61026 0 6.10226.43034 4.65822 1.34358-.83696.52931-3.57379.54121-7.39301.0321zM66.0694 172.62183c-.18066-.29232.0849-1.16238.59014-1.93347.815691-1.2449.95615-1.29498 1.25363-.44695.23238.66248.45359.76317.7221.3287.48592-.78623 2.78755-.82123 3.26443-.0496.4416.71453 3.73698.17485 5.37597-.88042 1.44604-.93105 2.318071-.97208 1.97973-.0932-.1898.49303.49506.6149 2.6896.47862 3.224637-.20026 5.535742.19677 5.535742.95101 0 .97842-2.093048 1.12378-3.443209.23912-1.293694-.84766-1.565241-.84785-4.603112-.003-2.15219.59836-3.404711.72116-3.75748.36839-.35277-.35277-.87093-.34625-1.55444.0195-.72497.38799-1.47023.36441-2.54439-.0805-1.30636-.54111-1.77546-.47079-3.34967.50212-1.11565.68951-1.95885.92379-2.15904.59987zm-6.10533-2.16593c0-.56288 2.20438-1.6102 2.60721-1.23872.260911.24061-1.617179 1.74296-2.210329 1.76811-.21828.009-.396881-.22897-.396881-.52939zm105.41007-.0888c-.75792-.75792-.84024-2.01084-.13213-2.01084.27658 0 .72258.3926.99111.87244.4924.87986 1.57195.85637 6.17894-.13448 2.0801-.44738 1.1676.49165-1.26959 1.30649-2.33951.78218-4.96786.76686-5.76833-.0336zm12.59417.10583c0-.29104.37124-.52917.82498-.52917.45374 0 .67781.23813.49793.52917-.17987.29104-.55111.52917-.82498.52917-.27386 0-.49793-.23813-.49793-.52917zm6.61458 0c.17987-.29104.43205-.52917.5604-.52917.12834 0 .23335.23813.23335.52917s-.25218.52917-.5604.52917-.41323-.23813-.23335-.52917zm-8.73125-1.83347c0-.83379 2.00859-2.15516 2.51152-1.65223.35557.35556-1.40641 2.42737-2.06437 2.42737-.24593 0-.44715-.34882-.44715-.77514z" transform="translate(.6135984 -3.4077051)"/><path style="display:inline;fill:#e96149;fill-opacity:1;stroke:#000;stroke-width:.495059;-inkscape-stroke:none;stop-color:#000" d="M85.628574 146.56953c-.13847-.22786 1.108244-8.94207 3.236912-22.62529 1.880548-12.08829 2.643135-17.55035 2.990312-21.41825.281887-3.140514 1.017734-5.642623 1.779301-6.0502.981704-.525391 9.492121-.438211 9.698401.09935.0917.239064-.20059 2.26523-.64962 4.5026-2.07612 10.34457-1.80535 14.0421 1.335 18.23064 1.02225 1.36345 1.82611 1.34613 2.90055-.0625 2.11795-2.77677 3.10147-7.69288 3.10792-15.53479.002-2.99315.0877-5.752191.18946-6.131207.32655-1.216472 3.6758-1.603113 13.88691-1.603113 8.90694 0 9.02483.0089 10.80622.818656 1.45164.659839 2.32095.818652 4.48109.818652 2.50114 0 2.74517-.06238 3.65544-.934484l.9754-.934485 8.13316.239898c4.47323.131942 8.79626.332729 9.60673.446191l1.47358.20629.67926 4.581572c.37359 2.51986.88064 5.72001 1.12677 7.11144.24613 1.39144.38253 2.58692.30312 2.65664-.0794.0697-1.24957.002-2.60034-.1515-2.66588-.30202-49.65528.21739-50.54475.55871-.75548.2899-.67104.68005.19758.91283.97842.26221 45.64034.19612 49.93818-.0739 2.15958-.13568 3.35775-.0941 3.35944.11657.009 1.0781 1.10269 9.40534 1.63481 12.44352.79412 4.53419 3.03797 21.46624 2.86733 21.63689-.19047.19047-84.452729.32926-84.568166.13929zm81.094376-15.96374c1.17058-1.17101.22082-1.22506-21.92254-1.24748-16.28471-.0165-22.19203-.12842-24.29877-.46041-3.24995-.51216-2.18624-.49786-15.71817-.21122-12.588825.26667-14.735783.41392-14.735783 1.01061 0 .32588 1.138834.48549 4.666323.65399 17.63684.84245 71.23186 1.03188 72.00894.25451zm-66.08451-19.05562c.18455-.18455.23809-.433.11898-.55211-.64268-.64267-7.692548-.45968-8.760842.22741-.41359.266-.41153.35103.0159.65473.616494.43806 8.145972.14998 8.625992-.33003zM118.9515 186.4075c.85841-.24424 1.65024-.53357 1.75963-.64295.42456-.42456-.22962-1.20952-1.00799-1.20952h-.81907l.80879-1.19181c.8101-1.19375.98107-1.80136.611-2.17143-.10878-.10878-1.15167.61142-2.31753 1.60046-1.16586.98903-2.4972 1.94174-2.95852 2.11713-1.62197.61668-1.35377-.35483.33708-1.22102 1.21393-.62187 1.5397-1.03144 1.30562-1.64146-.25785-.67193-.87582-.53786-3.11615.67605-1.13184.61329-2.5736 1.22251-3.20391 1.35382-.6303.13131-1.76909.54147-2.53065.91146-.76156.36999-1.47421.58315-1.58368.47368-.19665-.19665.2676-4.61613.71044-6.76317.32466-1.57403-.38872-1.23608-1.88125.89121-1.43952 2.05172-5.703314 5.94747-6.509361 5.94747-.318517 0-.660907-.21312-.760854-.47359-.0999-.26048-.28624-7.03893-.41398-15.06322l-.232247-14.58963h58.264702l.33513-.90052c.25514-.68558.39352.85808.57978 6.46736.13455 4.05233.19639 8.74408.13741 10.42611l-.10724 3.05823-28.65286.0526c-16.04218.0295-28.851581.18069-29.104301.34357-1.428181.92045 1.180774 1.02042 29.349901 1.12454l28.57099.10561v4.02942c0 3.14117-.10585 4.11728-.48018 4.42795-.7374.61198-1.22748.26949-2.13-1.48856-1.06231-2.0693-2.0283-2.21977-2.33012-.36297-.11176.68762-.44582 1.49282-.74234 1.78934-.50052.50053-.53912.45204-.53912-.67716 0-.66895-.0952-1.21629-.21164-1.21629-.1164 0-.92055.66311-1.787 1.47358-1.24336 1.16301-1.81581 1.47358-2.7162 1.47358-1.54909 0-1.72485-.46898-.71948-1.91974.8508-1.2277 1.07957-2.0098.58789-2.0098-.14408 0-.40196.13507-.57305.30016-.29198.28171-3.42217 2.0054-3.42181 1.88427.00009-.0308.28028-.79291.62265-1.69367.34236-.90076.72741-2.3375.85566-3.19275.37221-2.48202-.51661-2.00747-2.14748 1.14655-1.81083 3.5021-3.17281 5.48498-3.76745 5.48498-.65462 0-.59917-.31782.28669-1.64316 2.00788-3.004 1.13555-3.27365-1.55085-.47939-2.41595 2.51296-3.16383 2.65283-4.34556.8127-1.45095-2.25936-1.78195-2.61969-2.4064-2.61969-1.10298 0-1.27407 2.99026-.21059 3.68066.64925.42148-.45305.89328-2.09988.89879-1.83478.006-2.04883-.17556-1.39051-1.18028.41256-.62965.43341-.87852.10659-1.27231-.63754-.76819-.9975-.60608-2.66815 1.20166-1.49149 1.61389-1.6496 1.69634-3.45812 1.80318l-1.89517.11198zm-14.16803-22.50144c3.32201-.23554 11.25456-.22143 26.40954.047 11.91373.21101 22.34809.28066 23.18747.15479 1.16841-.17521 1.50196-.35442 1.42298-.76456-.0567-.29463-.47079-.63798-.9201-.76301-1.2189-.33915-42.11453-.31723-49.14741.0264-6.154617.30067-7.829188.51507-7.829188 1.00238 0 .27055.733567.53964 1.637301.6006.27015.0182 2.627887-.11837 5.239407-.30354zM87.463232 150.83584c-.404647-.94062-.639597-1.80642-.522117-1.92401.323-.3233 46.124865-.46428 65.606295-.20194l17.14629.23089-.18616 1.14718c-.10239.63094-.27921 1.23943-.39293 1.3522-.11372.11276-10.61925.16359-23.34562.11295-20.85271-.083-41.60632.22337-53.289195.78658l-4.280856.20637z" transform="translate(.6135984 -3.4077051)"/></g><g style="display:inline" transform="translate(.6135984 -3.4077051)"><g aria-label="Relax, Jürgen will help ..." style="font-style:italic;font-weight:300;font-size:12.7px;line-height:1.25;font-family:Lato;-inkscape-font-specification:'Lato, Light Italic';text-align:center;letter-spacing:0;text-anchor:middle;display:inline;opacity:1;fill:none;stroke:#000;stroke-width:.529;stop-color:#000;stop-opacity:1" stroke="none"><path d="m29.147922 21.401071-.4699 3.81635h-1.1811l1.11125-9.09955h2.39395q.7239 0 1.25095.1524.5334.1524.8763.43815.34925.2794.51435.6858.17145.40005.17145.89535 0 .55245-.1651 1.0287-.1651.47625-.47625.85725-.31115.37465-.7493.64135-.43815.26035-.9906.38735.2032.1397.33655.381l1.96215 3.6322h-1.0541q-.31115 0-.4445-.254l-1.7145-3.2766q-.08255-.15875-.1905-.22225t-.3429-.0635zm.53975-4.34975-.4318 3.48615h1.16205q.53975 0 .9525-.1524.41275-.1524.69215-.42545.28575-.2794.42545-.65405.14605-.381.14605-.83185 0-.69215-.43815-1.0541-.4318-.3683-1.30175-.3683zM39.907997 20.162821q0 .4191-.17145.7747-.17145.34925-.62865.635-.4572.2794-1.2573.48895-.8001.20955-2.0574.33655-.0063.06985-.0063.1397v.13335q0 .8509.3683 1.30175.37465.4445 1.12395.4445.3048 0 .53975-.0635.2413-.0635.42545-.1524.1905-.09525.3302-.2032.14605-.1143.2667-.2032.12065-.09525.22225-.15875.1016-.0635.2032-.0635.1143 0 .20955.10795l.2794.34925q-.32385.33655-.635.57785-.3048.23495-.62865.3937t-.67945.2286q-.34925.0762-.75565.0762-.55245 0-.9906-.18415-.43815-.18415-.74295-.5207-.3048-.3429-.4699-.8255-.1651-.4826-.1651-1.0795 0-.4953.1016-.98425.10795-.4953.3048-.9398.2032-.4445.48895-.8255.2921-.381.6604-.65405.37465-.2794.81915-.43815.45085-.15875.9652-.15875.48895 0 .84455.1397t.5842.3556q.2286.2159.33655.47625.1143.26035.1143.4953zm-1.9431-.65405q-.40005 0-.7366.1651t-.5969.4572q-.26035.28575-.4445.67945-.18415.38735-.28575.8382.9779-.12065 1.56845-.27305.59055-.15875.90805-.33655.3175-.18415.4191-.3937.1016-.20955.1016-.43815 0-.1143-.0508-.23495-.0508-.127-.1651-.2286-.10795-.1016-.28575-.1651-.1778-.06985-.4318-.06985zM40.726353 25.217421l1.13665-9.35355h1.11125l-1.13665 9.35355zM48.375326 25.217421h-.5842q-.22225 0-.3048-.1143-.0762-.1143-.0762-.2794l.1143-1.30175q-.2286.4064-.4953.7366-.26035.3302-.5588.56515-.2921.2286-.61595.3556-.32385.127-.6731.127-.381 0-.69215-.14605-.31115-.1524-.5334-.43815-.2159-.2921-.33655-.7112-.12065-.42545-.12065-.97155 0-.5715.1397-1.11125.14605-.5461.4064-1.0287.2667-.4826.635-.88265.3683-.4064.81915-.6985.4572-.29845.9779-.4572.5207-.1651 1.0922-.1651.41275 0 .8001.06985.3937.0635.7747.2286zm-2.7686-.8509q.31115 0 .6096-.1905.29845-.19685.56515-.53975.2667-.3429.4953-.8128.23495-.47625.41275-1.0414l.27305-2.2098q-.1397-.03175-.2794-.0381-.13335-.0127-.2667-.0127-.381 0-.7366.127-.3556.12065-.66675.3429-.31115.22225-.56515.5334-.254.3048-.43815.6731-.1778.3683-.2794.7874-.1016.41275-.1016.8509 0 1.53035.9779 1.53035zM51.904139 21.756671l-1.54305-2.9718h1.00965q.127 0 .1778.0381.05715.03175.1016.12065l1.0795 2.2098q.03175-.06985.0635-.13335.0381-.0635.0889-.13335l1.45415-1.92405q.06985-.0889.127-.13335.05715-.04445.1397-.04445h1.02235l-2.2987 2.97815 1.7145 3.4544h-1.00965q-.127 0-.19685-.0635-.06985-.06985-.1143-.15875l-1.21285-2.57175q-.0635.1397-.13335.2413l-1.7526 2.3368q-.0635.0889-.1397.1524-.0762.0635-.1905.0635h-.990599ZM55.888764 24.436371q0-.29845.2032-.508.20955-.20955.55245-.20955.1905 0 .33655.06985t.2413.19685q.1016.12065.1524.28575.0508.15875.0508.34925 0 .28575-.08255.5969-.0762.3048-.23495.60325-.1524.3048-.37465.59055-.22225.28575-.508.52705l-.19685-.18415q-.08255-.0762-.08255-.1778 0-.0762.1016-.19685t.23495-.2921q.13335-.1651.254-.38735.127-.2159.17145-.4826h-.0762q-.3302 0-.53975-.2159-.2032-.22225-.2032-.56515zM19.013917 38.07617q-.18415 1.5113-.94615 2.31775-.75565.8001-2.01295.8001-.3429 0-.64135-.04445t-.60325-.13335l.0889-.69215q.0127-.09525.06985-.1651.0635-.06985.1905-.06985.0635 0 .14605.01905.08255.0127.18415.0381.10795.01905.2413.0381.1397.0127.3175.0127.3302 0 .6223-.10795.2921-.10795.52705-.3556.23495-.24765.3937-.6477.1651-.40005.23495-.98425l.74295-6.1087h1.18745zM22.274047 34.65987l-.4826 4.0894q-.0127.127-.0254.2413-.0064.1143-.0064.22225 0 .5207.1905.7747.19685.254.61595.254.2921 0 .5969-.15875.31115-.15875.5969-.45085.2921-.2921.53975-.70485.24765-.41275.4318-.92075l.40005-3.34645h1.12395l-.7747 6.43255h-.5588q-.19685 0-.3048-.0889-.10795-.0889-.10795-.27305 0-.0063.0064-.1143.0064-.10795.0127-.23495.0127-.127.01905-.23495.0127-.10795.0127-.1143l.04445-.51435q-.51435.81915-1.14935 1.2446-.635.4191-1.3081.4191-.71755 0-1.1176-.48895-.3937-.48895-.3937-1.40335 0-.127.0064-.26035.0064-.13335.0254-.2794l.4826-4.0894zm1.1811-1.905q0 .14605-.05715.27305t-.15875.22225q-.1016.09525-.23495.1524-.127.05715-.27305.05715t-.27305-.05715q-.127-.05715-.22225-.1524t-.1524-.22225q-.05715-.127-.05715-.27305t.05715-.2794q.05715-.13335.1524-.2286.09525-.1016.22225-.15875.127-.05715.27305-.05715t.27305.05715q.13335.05715.23495.15875.1016.09525.15875.2286.05715.13335.05715.2794zm2.27965 0q0 .14605-.05715.27305t-.15875.22225q-.09525.09525-.2286.1524-.127.05715-.27305.05715t-.2794-.05715q-.127-.05715-.22225-.1524t-.1524-.22225q-.05715-.127-.05715-.27305t.05715-.2794q.05715-.13335.1524-.2286.09525-.1016.22225-.15875.13335-.05715.2794-.05715.14605 0 .27305.05715.13335.05715.2286.15875.1016.09525.15875.2286.05715.13335.05715.2794zM27.149458 41.09242l.7747-6.4389h.56515q.1778 0 .2794.08255.1016.08255.1016.254 0 .0254-.0064.0762 0 .04445-.0064.09525 0 .0508-.0063.0889v.04445l-.0889 1.1684q.41275-.889.92075-1.3716.51435-.4826 1.0795-.4826.2667 0 .5334.1143l-.2032 1.08585q-.29845-.12065-.57785-.12065-.61595 0-1.09855.60325-.4826.5969-.80645 1.8161l-.3556 2.9845zM36.345051 36.44422q-.0063.3175-.08255.5715-.06985.254-.1778.4699-.10795.2159-.23495.4064-.127.1905-.23495.381-.10795.1905-.18415.3937-.06985.19685-.06985.4318 0 .2667.127.4826.13335.2159.28575.4445.15875.2286.28575.50165.13335.2667.13335.635 0 .45085-.20955.8509-.20955.4064-.5969.71755-.38735.31115-.94615.48895-.55245.18415-1.2446.18415-.55245 0-1.00965-.1143-.45085-.1143-.7747-.32385-.3175-.20955-.48895-.508-.1778-.2921-.1778-.6477 0-.50165.26035-.8636t.6858-.5969q.42545-.23495.9652-.3429.5461-.10795 1.11125-.10795.2286 0 .45085.01905.2286.01905.45085.0508-.05715-.12065-.09525-.24765-.03175-.13335-.03175-.28575 0-.19685.05715-.4064.0635-.20955.2032-.4699-.2413.1651-.53975.254t-.67945.0889q-.3683 0-.69215-.12065-.3175-.12065-.5588-.3556-.2413-.23495-.381-.5842-.1397-.3556-.1397-.8255 0-.4572.1651-.89535.17145-.4445.4953-.7874.32385-.34925.8001-.5588.47625-.20955 1.09855-.20955.6985 0 1.21285.3302h1.74625l-.0508.37465q-.0127.10795-.0762.19685-.05715.0889-.1778.10795l-.8001.1397q.05715.1651.0889.34925.03175.1778.03175.381zm-2.4511 1.74625q.3429 0 .60325-.14605.26035-.1524.43815-.3937.18415-.24765.2794-.55245.09525-.3048.09525-.61595 0-.5588-.28575-.84455-.2794-.28575-.7747-.28575-.3429 0-.60325.1397-.26035.1397-.43815.37465-.1778.23495-.27305.5334-.0889.29845-.0889.6223 0 .5715.27305.86995.2794.29845.7747.29845zm1.27 3.0607q0-.1651-.03175-.3048-.03175-.14605-.08255-.27305-.3429-.05715-.6477-.08255-.29845-.0254-.56515-.0254-.5207 0-.9017.09525-.381.0889-.62865.2413-.24765.1524-.3683.34925-.12065.2032-.12065.4191 0 .4572.381.6985.38735.2413 1.0922.2413.4191 0 .762-.1143.34925-.10795.59055-.2921.24765-.18415.381-.4318.1397-.24765.1397-.5207zM42.661318 36.03782q0 .4191-.17145.7747-.17145.34925-.62865.635-.4572.2794-1.2573.48895-.8001.20955-2.0574.33655-.0063.06985-.0063.1397v.13335q0 .8509.3683 1.30175.37465.4445 1.12395.4445.3048 0 .53975-.0635.2413-.0635.42545-.1524.1905-.09525.3302-.2032.14605-.1143.2667-.2032.12065-.09525.22225-.15875.1016-.0635.2032-.0635.1143 0 .20955.10795l.2794.34925q-.32385.33655-.635.57785-.3048.23495-.62865.3937t-.67945.2286q-.34925.0762-.75565.0762-.55245 0-.9906-.18415-.43815-.18415-.74295-.5207-.3048-.3429-.4699-.8255-.1651-.4826-.1651-1.0795 0-.4953.1016-.98425.10795-.4953.3048-.9398.2032-.4445.48895-.8255.2921-.381.6604-.65405.37465-.2794.81915-.43815.45085-.15875.9652-.15875.48895 0 .84455.1397t.5842.3556q.2286.2159.33655.47625.1143.26035.1143.4953zm-1.9431-.65405q-.40005 0-.7366.1651t-.5969.4572q-.26035.28575-.4445.67945-.18415.38735-.28575.8382.9779-.12065 1.56845-.27305.59055-.15875.90805-.33655.3175-.18415.4191-.3937.1016-.20955.1016-.43815 0-.1143-.0508-.23495-.0508-.127-.1651-.2286-.10795-.1016-.28575-.1651-.1778-.06985-.4318-.06985zM43.371724 41.09242l.76835-6.4389h.56515q.381 0 .381.381l-.09525 1.2446q.51435-.8509 1.1557-1.2827.6477-.4318 1.33985-.4318.71755 0 1.11125.4826.40005.4826.40005 1.4097 0 .127-.0064.26035-.0063.13335-.0254.2794l-.4826 4.09575h-1.1303l.4826-4.09575q.0127-.127.01905-.2413.0127-.12065.0127-.2286 0-.5207-.19685-.76835-.1905-.254-.60325-.254-.3048 0-.6223.1651-.31115.1651-.60325.4699-.2921.29845-.5461.73025-.24765.42545-.42545.9525l-.3683 3.27025zM52.563349 34.65987h.84455q.127 0 .2032.0635.08255.0635.09525.17145l.59055 4.1402q.03175.22225.03175.4318.0064.2032.0127.4064l.1524-.4064q.08255-.20955.17145-.4318l1.75895-4.1656q.0381-.09525.12065-.15875.0889-.0635.19685-.0635h.4699q.127 0 .19685.0635t.08255.15875l.71755 4.1656q.0381.22225.05715.4318.0254.20955.04445.4191.0635-.2032.12065-.41275.0635-.2159.1524-.43815l1.6256-4.1402q.0381-.1016.127-.1651.0889-.06985.2032-.06985h.8128l-2.69875 6.43255h-.85725q-.14605 0-.18415-.2159l-.78105-4.36245q-.01905-.1016-.03175-.2032-.0127-.10795-.0254-.20955-.03175.10795-.0635.20955-.03175.1016-.0762.20955l-1.86055 4.3561q-.0889.2159-.254.2159h-.8255zM63.542299 34.65987l-.7747 6.43255h-1.11125l.7747-6.43255zm.42545-2.0193q0 .1651-.06985.31115-.0635.1397-.1778.254-.10795.10795-.24765.17145-.1397.0635-.2921.0635-.14605 0-.28575-.0635t-.24765-.17145q-.1016-.1143-.1651-.254-.0635-.14605-.0635-.31115 0-.1651.0635-.31115.0635-.14605.17145-.254.10795-.1143.24765-.1778.1397-.06985.28575-.06985.1524 0 .2921.0635.1397.0635.24765.1778.1143.10795.1778.26035.0635.14605.0635.31115zM64.712485 41.09242l1.13665-9.35355h1.11125l-1.13665 9.35355zM67.738658 41.09242l1.13665-9.35355h1.11125l-1.13665 9.35355zM26.654555 56.96742l1.1303-9.35355h1.1303l-.52705 4.3434q.50165-.7493 1.11125-1.1303.61595-.38735 1.2573-.38735.73025 0 1.12395.4826.3937.4826.3937 1.40335 0 .127-.0063.2667-.0063.13335-.0254.2794l-.4826 4.09575h-1.1303l.4826-4.09575q.0127-.127.01905-.2413.0127-.12065.0127-.2286 0-.5207-.19685-.7747-.1905-.254-.6096-.254-.28575 0-.59055.15875-.29845.1524-.5842.43815-.28575.28575-.5334.69215-.24765.40005-.4318.89535l-.41275 3.40995zM38.469325 51.91282q0 .4191-.17145.7747-.17145.34925-.62865.635-.4572.2794-1.2573.48895-.8001.20955-2.0574.33655-.0064.06985-.0064.1397v.13335q0 .8509.3683 1.30175.37465.4445 1.12395.4445.3048 0 .53975-.0635.2413-.0635.42545-.1524.1905-.09525.3302-.2032.14605-.1143.2667-.2032.12065-.09525.22225-.15875.1016-.0635.2032-.0635.1143 0 .20955.10795l.2794.34925q-.32385.33655-.635.57785-.3048.23495-.62865.3937t-.67945.2286q-.34925.0762-.75565.0762-.55245 0-.9906-.18415-.43815-.18415-.74295-.5207-.3048-.3429-.4699-.8255-.1651-.4826-.1651-1.0795 0-.4953.1016-.98425.10795-.4953.3048-.9398.2032-.4445.48895-.8255.2921-.381.6604-.65405.37465-.2794.81915-.43815.45085-.15875.9652-.15875.48895 0 .84455.1397t.5842.3556q.2286.2159.33655.47625.1143.26035.1143.4953zm-1.9431-.65405q-.40005 0-.7366.1651t-.5969.4572q-.26035.28575-.4445.67945-.18415.38735-.28575.8382.9779-.12065 1.56845-.27305.59055-.15875.90805-.33655.3175-.18415.4191-.3937.1016-.20955.1016-.43815 0-.1143-.0508-.23495-.0508-.127-.1651-.2286-.10795-.1016-.28575-.1651-.1778-.06985-.4318-.06985zM39.287681 56.96742l1.13665-9.35355h1.11125l-1.13665 9.35355zM41.932853 59.14547l1.04775-8.61695h.56515q.381 0 .381.381l-.10795 1.3716q.2413-.4191.52705-.75565.28575-.3429.5969-.5842.3175-.2413.6604-.3683.3429-.13335.6985-.13335.81915 0 1.27635.5969.4572.5969.4572 1.74625 0 .5207-.10795 1.0414t-.31115.99695q-.19685.4699-.4826.88265-.2794.4064-.62865.7112-.3429.29845-.7493.4699t-.8509.17145q-.47625 0-.86995-.18415-.3937-.1905-.6604-.53975l-.3429 2.81305zm3.94335-7.7978q-.3048 0-.6223.1905-.31115.1905-.60325.5334-.2921.3429-.5461.8128-.24765.4699-.4318 1.02235l-.2032 1.6383q.2413.34925.57785.4953.3429.1397.69215.1397.3302 0 .6223-.1397.2921-.1397.5334-.37465.2413-.2413.4318-.5588.1905-.32385.3175-.6858.13335-.3683.2032-.75565.06985-.3937.06985-.7747 0-.75565-.27305-1.14935-.27305-.3937-.76835-.3937zM50.011376 56.26892c0-.110067.01905-.213783.05715-.31115.04233-.09737.09948-.182033.17145-.254.07197-.07197.154516-.129117.24765-.17145.09737-.04233.2032-.0635.3175-.0635.110066 0 .211666.02117.3048.0635.09737.04233.182033.09948.254.17145.07197.07197.129116.156633.17145.254.04233.09737.0635.201083.0635.31115 0 .1143-.02117.220133-.0635.3175-.04233.09313-.09948.175683-.17145.24765-.07197.07197-.156634.127-.254.1651-.09313.04233-.194734.0635-.3048.0635-.1143 0-.220134-.02117-.3175-.0635-.09313-.0381-.175684-.09313-.24765-.1651-.07197-.07197-.129117-.154517-.17145-.24765-.0381-.09737-.05715-.2032-.05715-.3175zM52.715086 56.26892c0-.110067.01905-.213783.05715-.31115.04233-.09737.09948-.182033.17145-.254.07197-.07197.154516-.129117.24765-.17145.09737-.04233.2032-.0635.3175-.0635.110066 0 .211666.02117.3048.0635.09737.04233.182033.09948.254.17145.07197.07197.129116.156633.17145.254.04233.09737.0635.201083.0635.31115 0 .1143-.02117.220133-.0635.3175-.04233.09313-.09948.175683-.17145.24765-.07197.07197-.156634.127-.254.1651-.09313.04233-.194734.0635-.3048.0635-.1143 0-.220134-.02117-.3175-.0635-.09313-.0381-.175684-.09313-.24765-.1651-.07197-.07197-.129117-.154517-.17145-.24765-.0381-.09737-.05715-.2032-.05715-.3175zM55.418797 56.26892c0-.110067.01905-.213783.05715-.31115.04233-.09737.09948-.182033.17145-.254.07197-.07197.154516-.129117.24765-.17145.09737-.04233.2032-.0635.3175-.0635.110066 0 .211666.02117.3048.0635.09737.04233.182033.09948.254.17145.07197.07197.129116.156633.17145.254.04233.09737.0635.201083.0635.31115 0 .1143-.02117.220133-.0635.3175-.04233.09313-.09948.175683-.17145.24765-.07197.07197-.156634.127-.254.1651-.09313.04233-.194734.0635-.3048.0635-.1143 0-.220134-.02117-.3175-.0635-.09313-.0381-.175684-.09313-.24765-.1651-.07197-.07197-.129117-.154517-.17145-.24765-.0381-.09737-.05715-.2032-.05715-.3175z" style="font-weight:400;-inkscape-font-specification:'Lato Italic';fill:#333;stroke:none;stop-color:#000;stop-opacity:1" transform="translate(-.614499 3.8902907)"/></g><circle style="font-variation-settings:normal;display:inline;fill:none;fill-opacity:1;stroke:#000;stroke-width:.44;stroke-linecap:butt;stroke-linejoin:miter;stroke-miterlimit:4;stroke-dasharray:none;stroke-dashoffset:0;stroke-opacity:1;stop-color:#000" cx="71.774818" cy="69.957832" r="3.3390734"/><circle style="font-variation-settings:normal;display:inline;vector-effect:none;fill:none;fill-opacity:1;stroke:#000;stroke-width:.44;stroke-linecap:butt;stroke-linejoin:miter;stroke-miterlimit:4;stroke-dasharray:none;stroke-dashoffset:0;stroke-opacity:1;-inkscape-stroke:none;stop-color:#000" cx="84.25058" cy="78.334808" r="1.719918"/><path style="font-variation-settings:normal;display:inline;vector-effect:none;fill:none;fill-opacity:1;stroke:#000;stroke-width:.582084;stroke-linecap:butt;stroke-linejoin:miter;stroke-miterlimit:4;stroke-dasharray:none;stroke-dashoffset:0;stroke-opacity:1;-inkscape-stroke:none;stop-color:#000" d="M24.410743 22.908982c-4.939437-.605794-11.956087-.217128-14.6975529 4.669512-3.9256058 6.997362-1.2976758 12.352448 3e-7 16.743727" transform="translate(-1.5537586 4.2306693) scale(.9025)"/><path style="font-variation-settings:normal;display:inline;vector-effect:none;fill:none;fill-opacity:1;stroke:#000;stroke-width:.602996;stroke-linecap:butt;stroke-linejoin:miter;stroke-miterlimit:4;stroke-dasharray:none;stroke-dashoffset:0;stroke-opacity:1;-inkscape-stroke:none;stop-color:#000" d="M45.160123 73.976032c4.177728 2.860494 11.498328 7.251454 16.006367 3.711325 6.455229-5.069242 11.190328-10.621409 11.8668-15.527963" transform="translate(-1.5537586 4.2306693) scale(.9025)"/><path style="font-variation-settings:normal;display:inline;vector-effect:none;fill:none;fill-opacity:1;stroke:#000;stroke-width:.582084;stroke-linecap:butt;stroke-linejoin:miter;stroke-miterlimit:4;stroke-dasharray:none;stroke-dashoffset:0;stroke-opacity:1;-inkscape-stroke:none;stop-color:#000" d="M12.098773 38.478168c-3.6470323 3.38588-7.1152258 6.754933-5.1463296 12.000726 2.8193357 7.511643 8.6074006 8.954305 12.8011416 10.792737" transform="translate(-1.5537586 4.2306693) scale(.9025)"/><path style="font-variation-settings:normal;display:inline;vector-effect:none;fill:none;fill-opacity:1;stroke:#000;stroke-width:.582084;stroke-linecap:butt;stroke-linejoin:miter;stroke-miterlimit:4;stroke-dasharray:none;stroke-dashoffset:0;stroke-opacity:1;-inkscape-stroke:none;stop-color:#000" d="M48.234973 72.268082c-1.271772 4.030733-1.817561 8.936644-10.087722 8.690756-4.118005-.122436-9.128453-3.143796-16.505623-9.154889-5.92934-4.831366-9.264342-9.849557-8.585467-15.551253" transform="translate(-1.5537586 4.2306693) scale(.9025)"/><path style="font-variation-settings:normal;display:inline;opacity:1;vector-effect:none;fill:none;fill-opacity:1;stroke:#000;stroke-width:.582084;stroke-linecap:butt;stroke-linejoin:miter;stroke-miterlimit:4;stroke-dasharray:none;stroke-dashoffset:0;stroke-opacity:1;-inkscape-stroke:none;stop-color:#000;stop-opacity:1" d="M67.21196 64.998774c7.083457.677015 12.574248 1.670689 16.505683-3.790455 5.629582-7.820014 1.860958-13.804677 0-18.712224" transform="translate(-1.5537586 4.2306693) scale(.9025)"/><path style="font-variation-settings:normal;display:inline;vector-effect:none;fill:none;fill-opacity:1;stroke:#000;stroke-width:.582084;stroke-linecap:butt;stroke-linejoin:miter;stroke-miterlimit:4;stroke-dasharray:none;stroke-dashoffset:0;stroke-opacity:1;-inkscape-stroke:none;stop-color:#000" d="M49.27098 12.403365c-4.218676-2.6396637-10.776669-4.9674624-16.163237-3.4248107C23.014583 11.86912 21.805787 21.243176 21.134514 25.776857" transform="translate(-1.5537586 4.2306693) scale(.9025)"/><path style="font-variation-settings:normal;display:inline;vector-effect:none;fill:none;fill-opacity:1;stroke:#000;stroke-width:.582084;stroke-linecap:butt;stroke-linejoin:miter;stroke-miterlimit:4;stroke-dasharray:none;stroke-dashoffset:0;stroke-opacity:1;-inkscape-stroke:none;stop-color:#000" d="M46.188857 14.514879c1.271765-4.030734 1.817552-8.9366447 10.087715-8.6907562 4.118004.1224355 9.128449 3.1437956 16.505621 9.1548892 5.929341 4.831366 9.264343 9.849557 8.585467 15.551253" transform="translate(-1.5537586 4.2306693) scale(.9025)"/><path style="font-variation-settings:normal;display:inline;vector-effect:none;fill:none;fill-opacity:1;stroke:#000;stroke-width:.582084;stroke-linecap:butt;stroke-linejoin:miter;stroke-miterlimit:4;stroke-dasharray:none;stroke-dashoffset:0;stroke-opacity:1;-inkscape-stroke:none;stop-color:#000" d="M84.087574 48.539332c3.647028-3.385881 9.483991-9.468247 7.51509-14.714039-2.819333-7.511644-8.60739-8.954306-12.801129-10.792737" transform="translate(-1.5537586 4.2306693) scale(.9025)"/><circle style="font-variation-settings:normal;display:inline;vector-effect:none;fill:none;fill-opacity:1;stroke:#000;stroke-width:.44;stroke-linecap:butt;stroke-linejoin:miter;stroke-miterlimit:4;stroke-dasharray:none;stroke-dashoffset:0;stroke-opacity:1;-inkscape-stroke:none;stop-color:#000" cx="78.217987" cy="75.700851" r="2.098269"/></g></svg>