<svg width="2360.848" height="2241.962" viewBox="0 0 624.641 593.186" xmlns="http://www.w3.org/2000/svg"><defs><filter style="color-interpolation-filters:sRGB" id="a" x="-.039" y="-.032" width="1.092" height="1.066"><feGaussianBlur stdDeviation=".313"/></filter><filter style="color-interpolation-filters:sRGB" id="b" x="-.034" y="-.028" width="1.082" height="1.058"><feFlood flood-opacity=".502" flood-color="#000" result="flood"/><feComposite in="flood" in2="SourceGraphic" operator="in" result="composite1"/><feGaussianBlur in="composite1" stdDeviation="2.2" result="blur"/><feOffset dx="2.3" dy=".5" result="offset"/><feComposite in="SourceGraphic" in2="offset" result="composite2"/></filter></defs><g style="display:inline"><path style="display:inline;fill:#010cff;fill-opacity:1;stroke:#000;stroke-width:2.50627;stroke-linecap:round;stroke-miterlimit:4;stroke-dasharray:none" d="m-482.188 205.191 33.632-47.89 42.223 9.039-32.818 48.578zM-495.962-17.49l29.537-36.626 36.51 6.177-28.932 37.064zM-403.58 55.467-374.534 15l39.398 7.113-28.331 40.986zM-452.012-115.347l26.785-32.3 34.538 5.098-26.24 32.656z" transform="translate(532.015 346.793)"/><path style="display:inline;fill:#ff0201;fill-opacity:1;stroke:#000;stroke-width:2.50627;stroke-linecap:round;stroke-miterlimit:4;stroke-dasharray:none" d="m-296.06-87.941 24.33-34.032 36.939 5.475-23.693 34.422z" transform="translate(532.015 346.793)"/><path style="display:inline;fill:#010cff;fill-opacity:1;stroke:#000;stroke-width:2.50627;stroke-linecap:round;stroke-miterlimit:4;stroke-dasharray:none" d="m-173.223-223.123 19.875-28.531 34.71 4.112-19.305 28.82zM-308.85-279.867l21.29-25.827 31.818 3.518-20.819 26.07zM-48.729-22.385l20.254-37.908 41.502 6.364-19.425 38.378zM-84.92-107.384l19.864-33.834 38.781 5.366-19.145 34.22zM-197.424 116.626l25.531-44.294 43.444 8.025-24.636 44.905zM-161.542-10.562l22.824-38.091 40.502 6.441-22.045 38.565z" transform="translate(532.015 346.793)"/><g aria-label="0 1 0 1 0 0 0 1 1 1" style="font-size:6.35px;line-height:1.25;font-family:Lato;-inkscape-font-specification:'Lato, Normal';text-align:center;letter-spacing:0;text-anchor:middle;display:inline;stroke-width:.264583"><path d="M456.604 142.424c-.587 1.167-1.256 2.155-2.011 2.967-.742.805-1.53 1.449-2.364 1.93a8.236 8.236 0 0 1-2.594.98 8.176 8.176 0 0 1-2.63.09c-.873-.117-1.62-.359-2.239-.73a3.284 3.284 0 0 1-1.34-1.5c-.282-.629-.372-1.389-.271-2.281.103-.9.444-1.934 1.022-3.106.578-1.173 1.24-2.17 1.986-2.99.747-.822 1.54-1.477 2.38-1.967a8.224 8.224 0 0 1 2.599-1.008 8.171 8.171 0 0 1 2.665-.086c.873.117 1.62.365 2.241.744.629.377 1.08.889 1.352 1.535.277.637.357 1.409.244 2.312-.106.904-.453 1.941-1.04 3.11zm-2.206-.293c.51-1.02.828-1.891.951-2.613.135-.728.12-1.329-.04-1.805a1.935 1.935 0 0 0-.827-1.081 3.353 3.353 0 0 0-1.382-.487 4.85 4.85 0 0 0-1.662.079c-.578.116-1.157.363-1.737.74-.579.376-1.153.9-1.724 1.57-.559.667-1.09 1.51-1.598 2.533-.504 1.021-.82 1.89-.946 2.609-.118.715-.099 1.311.058 1.78.158.47.433.828.825 1.077.396.245.856.399 1.38.469a5.006 5.006 0 0 0 1.646-.07c.577-.122 1.153-.369 1.728-.74.583-.371 1.154-.886 1.713-1.546.567-.659 1.104-1.496 1.615-2.515zM462.604 148.955l3.645.48 4.636-9.062c.14-.273.294-.55.46-.826l-4.088 1.637c-.105.04-.204.067-.296.081a1.124 1.124 0 0 1-.24 0 .688.688 0 0 1-.293-.1.367.367 0 0 1-.138-.177l-.301-.808 6.833-2.774 1.726.232-6.195 12.075 3.33.438-.645 1.25-9.073-1.191zM493.224 147.285c-.613 1.155-1.302 2.134-2.07 2.937-.757.797-1.553 1.433-2.391 1.911-.837.478-1.702.801-2.594.971-.884.172-1.752.2-2.604.088-.861-.112-1.593-.353-2.197-.718a3.139 3.139 0 0 1-1.286-1.483c-.26-.624-.33-1.377-.206-2.26.127-.89.492-1.913 1.095-3.072.604-1.16 1.286-2.147 2.046-2.96.76-.813 1.564-1.462 2.407-1.947a8.393 8.393 0 0 1 2.599-.998 8.126 8.126 0 0 1 2.64-.086c.86.116 1.592.36 2.196.734.612.375 1.045.881 1.298 1.519.256.63.315 1.394.178 2.288-.129.894-.5 1.92-1.111 3.076zm-2.176-.288c.533-1.01.87-1.872 1.012-2.586.153-.72.156-1.316.007-1.785-.14-.47-.403-.827-.788-1.071a3.217 3.217 0 0 0-1.354-.48 4.832 4.832 0 0 0-1.648.079c-.575.115-1.154.36-1.737.733-.583.373-1.166.892-1.748 1.555-.571.658-1.12 1.493-1.65 2.506-.527 1.01-.862 1.87-1.006 2.58-.136.71-.133 1.298.01 1.763.143.463.406.818.787 1.065.385.24.836.394 1.352.463.517.068 1.061.044 1.632-.07.574-.121 1.15-.365 1.729-.733.588-.368 1.166-.877 1.736-1.53.579-.652 1.134-1.482 1.666-2.49zM498.985 153.744l3.595.473 4.829-8.967c.146-.271.305-.544.478-.818l-4.09 1.623a1.516 1.516 0 0 1-.294.079 1.074 1.074 0 0 1-.238 0 .674.674 0 0 1-.287-.099.356.356 0 0 1-.133-.175l-.275-.8 6.836-2.746 1.7.229-6.453 11.949 3.284.432-.671 1.238-8.947-1.176zM529.329 152.079c-.636 1.143-1.345 2.112-2.126 2.906-.77.789-1.576 1.42-2.417 1.893a8.513 8.513 0 0 1-2.593.962c-.88.17-1.739.198-2.58.088-.848-.111-1.566-.348-2.153-.71-.58-.362-.99-.851-1.233-1.467-.242-.618-.29-1.362-.144-2.236.149-.88.538-1.893 1.165-3.04.629-1.149 1.33-2.126 2.104-2.93.775-.804 1.586-1.447 2.434-1.927a8.53 8.53 0 0 1 2.598-.989c.889-.172 1.76-.2 2.615-.085.848.113 1.565.355 2.154.725.596.37 1.01.87 1.243 1.501.237.624.275 1.379.116 2.264-.151.884-.546 1.9-1.183 3.045zm-2.145-.285c.554-.999.911-1.852 1.07-2.558.17-.713.19-1.303.056-1.768-.126-.464-.377-.817-.752-1.058-.372-.247-.814-.406-1.327-.474a4.815 4.815 0 0 0-1.632.078c-.573.115-1.153.357-1.739.726-.586.37-1.178.883-1.772 1.54-.582.651-1.149 1.478-1.698 2.48-.549.999-.904 1.85-1.066 2.553-.153.703-.166 1.285-.036 1.744.128.46.378.81.75 1.054.374.238.816.39 1.326.457a4.93 4.93 0 0 0 1.616-.07c.571-.12 1.147-.36 1.73-.726.592-.364 1.177-.868 1.76-1.514.589-.645 1.161-1.467 1.714-2.464zM547.192 154.45c-.647 1.137-1.365 2.1-2.153 2.892-.776.785-1.586 1.412-2.43 1.883a8.575 8.575 0 0 1-2.592.958 8.027 8.027 0 0 1-2.568.088c-.842-.111-1.553-.346-2.132-.707a2.897 2.897 0 0 1-1.207-1.458c-.233-.614-.27-1.355-.114-2.224.16-.875.56-1.883 1.2-3.024.642-1.143 1.352-2.115 2.133-2.915.781-.8 1.597-1.44 2.447-1.918a8.63 8.63 0 0 1 2.597-.984 8.013 8.013 0 0 1 2.602-.085c.842.113 1.553.353 2.133.72.588.368.993.866 1.217 1.493.227.62.255 1.372.085 2.252-.162.88-.568 1.89-1.218 3.03zm-2.129-.283c.565-.994.931-1.843 1.1-2.546.178-.708.204-1.294.077-1.757-.119-.461-.363-.812-.734-1.052-.366-.246-.804-.403-1.313-.471a4.782 4.782 0 0 0-1.625.078c-.571.114-1.15.355-1.74.723-.588.367-1.183.878-1.782 1.53-.589.65-1.163 1.472-1.723 2.468-.56.994-.924 1.841-1.094 2.541-.162.7-.182 1.277-.06 1.735.122.456.366.805.733 1.048.37.236.806.388 1.313.454a4.92 4.92 0 0 0 1.607-.07c.57-.119 1.148-.36 1.732-.723.593-.362 1.183-.864 1.77-1.506.595-.642 1.175-1.46 1.74-2.452zM564.933 156.805c-.66 1.131-1.387 2.09-2.182 2.877-.782.781-1.597 1.406-2.442 1.874a8.643 8.643 0 0 1-2.591.953 7.978 7.978 0 0 1-2.556.09c-.836-.111-1.54-.345-2.112-.704a2.83 2.83 0 0 1-1.182-1.45c-.223-.61-.25-1.348-.083-2.212.172-.872.583-1.875 1.235-3.01.652-1.136 1.372-2.103 2.16-2.9.787-.796 1.607-1.432 2.459-1.907a8.656 8.656 0 0 1 2.597-.98 7.99 7.99 0 0 1 2.59-.086c.836.112 1.54.352 2.112.717.58.366.977.86 1.19 1.485.218.617.236 1.365.055 2.24-.173.875-.59 1.88-1.25 3.013zm-2.116-.28c.575-.99.951-1.834 1.127-2.533.187-.705.221-1.288.101-1.748-.112-.46-.35-.809-.715-1.047-.362-.245-.796-.4-1.3-.469a4.786 4.786 0 0 0-1.619.079c-.569.113-1.149.353-1.739.718-.591.367-1.189.875-1.794 1.525-.594.645-1.176 1.463-1.747 2.454-.57.99-.944 1.832-1.122 2.527-.17.697-.199 1.272-.083 1.726.116.454.354.802.715 1.043.364.235.797.386 1.3.452a4.907 4.907 0 0 0 1.6-.07c.57-.119 1.147-.358 1.733-.72.595-.36 1.188-.86 1.781-1.499.6-.639 1.188-1.451 1.762-2.438zM570.237 163.124l3.494.46 5.2-8.785c.158-.265.328-.531.511-.8l-4.09 1.592a1.541 1.541 0 0 1-.291.077.957.957 0 0 1-.234 0 .627.627 0 0 1-.276-.095.318.318 0 0 1-.12-.172l-.228-.783 6.838-2.694 1.654.222-6.947 11.705 3.194.42-.723 1.213-8.7-1.143zM587.742 165.428l3.47.457 5.29-8.74c.16-.263.333-.53.52-.796l-4.09 1.584a1.56 1.56 0 0 1-.293.078 1.013 1.013 0 0 1-.232 0 .612.612 0 0 1-.273-.095.316.316 0 0 1-.117-.17l-.217-.779 6.839-2.683 1.643.22-7.066 11.647 3.171.418-.735 1.206-8.64-1.136zM605.127 167.717l3.447.455 5.377-8.696c.163-.264.339-.528.527-.793l-4.09 1.577c-.104.038-.201.063-.29.077a1.03 1.03 0 0 1-.232 0 .607.607 0 0 1-.27-.094.308.308 0 0 1-.115-.17l-.205-.775 6.839-2.67 1.631.22-7.183 11.587 3.15.415-.747 1.2-8.582-1.127z"/></g><path style="font-variation-settings:normal;display:inline;fill:none;fill-opacity:1;stroke:#000;stroke-width:2.14081;stroke-linecap:butt;stroke-linejoin:miter;stroke-miterlimit:4;stroke-dasharray:none;stroke-dashoffset:0;stroke-opacity:1;stop-color:#000" d="m-202.827-163.34-27.095 12.378-5.329-16.91" transform="translate(532.015 346.793)"/><path style="font-variation-settings:normal;display:inline;fill:none;fill-opacity:1;stroke:#000;stroke-width:1.76723;stroke-linecap:butt;stroke-linejoin:miter;stroke-miterlimit:4;stroke-dasharray:none;stroke-dashoffset:0;stroke-opacity:1;stop-color:#000" d="m-81.285-159.434-8.879-16.812m0 0 17.79-8.384" transform="translate(532.015 346.793)"/><path style="fill:none;stroke:#000;stroke-width:2.08857;stroke-linecap:butt;stroke-linejoin:miter;stroke-miterlimit:4;stroke-dasharray:none;stroke-opacity:1" d="m-531.179 151.113 371.994-497.28" transform="translate(532.015 346.793)"/><path style="fill:none;stroke:#000;stroke-width:2.22933;stroke-linecap:butt;stroke-linejoin:miter;stroke-miterlimit:4;stroke-dasharray:none;stroke-opacity:1" d="M-531.179-233.021 92.483-152.22" transform="translate(532.015 346.793)"/><path style="fill:none;stroke:#000;stroke-width:2.08857;stroke-linecap:butt;stroke-linejoin:miter;stroke-miterlimit:4;stroke-dasharray:none;stroke-opacity:1" d="m-403.872 245.826 372.776-576.692M-442.925-30.74l42.536 7.344M-408.193-145.261l54.186-65.813M-252.183-119.766l50.428-71.511M-387.956 33.1l-48.219-8.765M-421.429 189.27l47.189 10.542M-127.762-233.63l31.413 3.777M-265.474-289.839l59.072 6.807" transform="translate(532.015 346.793)"/><path style="fill:none;stroke:#000;stroke-width:2.18101;stroke-linecap:butt;stroke-linejoin:miter;stroke-miterlimit:4;stroke-dasharray:none;stroke-opacity:1" d="m-45.176-139.066 17.149-29.283" transform="translate(532.015 346.793)"/><path style="fill:none;stroke:#000;stroke-width:2.08857;stroke-linecap:butt;stroke-linejoin:miter;stroke-miterlimit:4;stroke-dasharray:none;stroke-opacity:1" d="m-149.896-30.522-67.456-12.123M-6.637-57.478l52.45-101.059M-183.498 91.782l-108.174-19.946" transform="translate(532.015 346.793)"/></g></svg>