<?xml version="1.0" encoding="UTF-8" standalone="no"?>
<!-- Created with Inkscape (http://www.inkscape.org/) -->

<svg
   width="236mm"
   height="30mm"
   viewBox="0 0 235.99991 29.999992"
   version="1.1"
   id="svg168634"
   sodipodi:docname="text-contact.svg"
   inkscape:version="1.1.1 (c3084ef, 2021-09-22)"
   xmlns:inkscape="http://www.inkscape.org/namespaces/inkscape"
   xmlns:sodipodi="http://sodipodi.sourceforge.net/DTD/sodipodi-0.dtd"
   xmlns:xlink="http://www.w3.org/1999/xlink"
   xmlns="http://www.w3.org/2000/svg"
   xmlns:svg="http://www.w3.org/2000/svg">
  <sodipodi:namedview
     id="namedview1078"
     pagecolor="#cfcfcf"
     bordercolor="#666666"
     borderopacity="1.0"
     inkscape:pageshadow="2"
     inkscape:pageopacity="1"
     inkscape:pagecheckerboard="false"
     inkscape:document-units="mm"
     showgrid="true"
     inkscape:zoom="0.82943085"
     inkscape:cx="335.16959"
     inkscape:cy="46.417372"
     inkscape:window-width="1872"
     inkscape:window-height="1189"
     inkscape:window-x="32"
     inkscape:window-y="73"
     inkscape:window-maximized="0"
     inkscape:current-layer="text7936"
     fit-margin-top="0"
     fit-margin-left="0"
     fit-margin-right="0"
     fit-margin-bottom="0"
     showborder="true"
     inkscape:showpageshadow="false"
     units="mm"
     inkscape:snap-grids="false" />
  <defs
     id="defs168631">
    <color-profile
       name="D65"
       xlink:href="file:///Library/ColorSync/Profiles/D65.icc"
       id="color-profile72453" />
    <rect
       x="309.9783"
       y="662.06946"
       width="85.606476"
       height="19.675682"
       id="rect4134" />
  </defs>
  <g
     inkscape:groupmode="layer"
     id="layer3"
     inkscape:label="text"
     style="display:inline"
     transform="translate(100.15448,2.4016584)">
    <g
       id="use1150"
       transform="matrix(0.26458333,0,0,0.26458333,100.72788,192.81393)"
       style="fill:none;fill-opacity:1">
      <text
         xml:space="preserve"
         style="font-size:5.64444px;line-height:1.25;font-family:Lato;-inkscape-font-specification:'Lato, Normal';letter-spacing:0px;display:inline;fill:none;fill-opacity:1;stroke-width:0.264583"
         x="118.29476"
         y="280.90973"
         id="text2245"><tspan
           style="font-style:normal;font-variant:normal;font-weight:bold;font-stretch:normal;font-size:5.64444px;font-family:Lato;-inkscape-font-specification:'Lato Bold';text-align:center;text-anchor:middle;fill:none;fill-opacity:1;stroke-width:0.264583"
           x="118.29476"
           y="280.90973"
           id="tspan2243"><tspan
   style="font-style:normal;font-variant:normal;font-weight:bold;font-stretch:normal;font-size:4.93889px;font-family:Lato;-inkscape-font-specification:'Lato Bold';text-align:start;text-anchor:start;fill:none;fill-opacity:1"
   id="tspan2241">SOFTWARESYSTEME</tspan> </tspan></text>
      <text
         xml:space="preserve"
         style="font-size:4.23333px;line-height:1.25;font-family:Lato;-inkscape-font-specification:'Lato, Normal';letter-spacing:0px;display:inline;fill:none;fill-opacity:1;stroke-width:0.264583"
         x="111.48794"
         y="273.86356"
         id="text2249"><tspan
           style="font-style:normal;font-variant:normal;font-weight:normal;font-stretch:normal;font-size:4.23333px;font-family:Lato;-inkscape-font-specification:Lato;text-align:start;text-anchor:start;fill:none;fill-opacity:1;stroke-width:0.264583"
           x="111.48794"
           y="273.86356"
           id="tspan2247">INGENIEURBÜRO</tspan></text>
      <g
         id="g2261"
         transform="translate(82.821292,26.113883)"
         style="fill:none;fill-opacity:1">
        <g
           aria-label="//"
           id="g2255"
           style="font-size:22.5778px;line-height:1.25;font-family:Lato;-inkscape-font-specification:'Lato, Normal';letter-spacing:0px;fill:none;fill-opacity:1;stroke-width:0.264583"
           transform="translate(-48.953329,205.95104)">
          <path
             d="m 87.38547,33.581134 q -0.135466,0.3048 -0.361244,0.530578 -0.214489,0.225778 -0.474134,0.372534 -0.259645,0.158045 -0.541867,0.237067 -0.270934,0.07902 -0.51929,0.07902 h -1.444979 l 7.69903,-16.459217 q 0.259645,-0.564445 0.756356,-0.857956 0.496712,-0.293511 1.095024,-0.293511 h 1.422401 z"
             style="font-style:italic;font-weight:900;-inkscape-font-specification:'Lato Heavy Italic';fill:none;fill-opacity:1"
             id="path2251" />
          <path
             d="m 94.044158,33.581134 q -0.135467,0.3048 -0.361245,0.530578 -0.214489,0.225778 -0.474134,0.372534 -0.259645,0.158045 -0.541867,0.237067 -0.270934,0.07902 -0.51929,0.07902 h -1.444979 l 7.69903,-16.459217 q 0.259645,-0.564445 0.756356,-0.857956 0.496712,-0.293511 1.095021,-0.293511 h 1.4224 z"
             style="font-style:italic;font-weight:900;-inkscape-font-specification:'Lato Heavy Italic';fill:none;fill-opacity:1"
             id="path2253" />
        </g>
        <text
           xml:space="preserve"
           style="font-size:22.5778px;line-height:1.25;font-family:Lato;-inkscape-font-specification:'Lato, Normal';letter-spacing:0px;fill:none;fill-opacity:1;stroke-width:0.264583"
           x="56.741013"
           y="240.07968"
           id="text2259"><tspan
             id="tspan2257"
             style="font-style:italic;font-variant:normal;font-weight:900;font-stretch:normal;font-size:22.5778px;font-family:Lato;-inkscape-font-specification:'Lato Heavy Italic';fill:none;fill-opacity:1;stroke-width:0.264583"
             x="56.741013"
             y="240.07968">JE</tspan></text>
      </g>
    </g>
    <g
       aria-label="PORTFOLIO "
       id="text7936"
       style="font-size:33.8667px;line-height:1.25;font-family:Lato;-inkscape-font-specification:'Lato, Normal';text-align:center;letter-spacing:2.64583px;text-anchor:middle;fill:#ffffff;stroke-width:0.264583">
      <g
         aria-label="CONTACT"
         id="text9139"
         style="font-weight:300;font-size:38.1px;-inkscape-font-specification:'Lato Light';letter-spacing:2.35479px;stroke-width:0.0700042">
        <path
           d="m -56.01261,21.542316 q 0.1905,0 0.32385,0.13335 l 0.762,0.81915 q -0.8382,0.89535 -1.8288,1.61925 -0.9906,0.70485 -2.1717,1.2192 -1.16205,0.4953 -2.57175,0.762 -1.39065,0.28575 -3.06705,0.28575 -2.80035,0 -5.1435,-0.97155 -2.3241,-0.9906 -4.0005,-2.7813 -1.65735,-1.80975 -2.590799,-4.36245 -0.93345,-2.5527 -0.93345,-5.6769 0,-3.0670496 0.9525,-5.6006995 0.971549,-2.5336499 2.705099,-4.3433998 1.7526,-1.82879994 4.17195,-2.8193999 2.4384,-1.00965 5.3721,-1.00965 1.46685,0 2.68605,0.22860003 1.2192,0.20954999 2.26695,0.62864997 1.0668,0.40004999 2.00025,1.00964996 0.93345,0.60959994 1.8288,1.40969994 l -0.59055,0.85725 q -0.1524,0.2286 -0.47625,0.2286 -0.17145,0 -0.43815,-0.1905 -0.2667,-0.20955 -0.6858,-0.4953 -0.40005,-0.3048 -0.9906,-0.6477 -0.5715,-0.36195 -1.3716,-0.6477 -0.8001,-0.30479995 -1.84785,-0.49529994 -1.04775,-0.20954999 -2.38125,-0.20954999 -2.45745,0 -4.51485,0.85724993 -2.0574,0.8382 -3.5433,2.4193499 -1.4859,1.5621 -2.3241,3.8099999 -0.81915,2.2288499 -0.81915,5.0101495 0,2.8575 0.81915,5.1054 0.81915,2.2479 2.26695,3.81 1.4478,1.54305 3.40995,2.38125 1.9812,0.81915 4.28625,0.81915 1.4478,0 2.57175,-0.1905 1.143,-0.1905 2.0955,-0.5715 0.9525,-0.381 1.77165,-0.93345 0.81915,-0.55245 1.61925,-1.2954 0.09525,-0.0762 0.17145,-0.1143 0.09525,-0.05715 0.20955,-0.05715 z"
           id="path72400" />
        <path
           d="m -22.41106,12.588816 q 0,3.1242 -0.93345,5.6769 -0.93345,2.53365 -2.6289,4.3434 -1.69545,1.7907 -4.05765,2.7813 -2.3622,0.97155 -5.23875,0.97155 -2.83845,0 -5.200649,-0.97155 -2.3622,-0.9906 -4.05765,-2.7813 -1.69545,-1.80975 -2.64795,-4.3434 -0.93345,-2.5527 -0.93345,-5.6769 0,-3.1051496 0.93345,-5.6387995 0.9525,-2.5526999 2.64795,-4.3433998 1.69545,-1.80974994 4.05765,-2.8003499 2.362199,-0.9906 5.200649,-0.9906 2.87655,0 5.23875,0.9906 2.3622,0.97154996 4.05765,2.7812999 1.69545,1.8097499 2.6289,4.3624498 0.93345,2.5336499 0.93345,5.6387995 z m -2.0193,0 q 0,-2.8193996 -0.78105,-5.0672995 -0.78105,-2.2478999 -2.2098,-3.8099999 -1.4097,-1.5620999 -3.40995,-2.3812499 -2.00025,-0.83819993 -4.43865,-0.83819993 -2.4003,0 -4.400549,0.83819993 -1.9812,0.81915 -3.429,2.3812499 -1.42875,1.5621 -2.22885,3.8099999 -0.78105,2.2478999 -0.78105,5.0672995 0,2.83845 0.78105,5.08635 0.8001,2.22885 2.22885,3.79095 1.4478,1.5621 3.429,2.38125 2.000249,0.81915 4.400549,0.81915 2.4384,0 4.43865,-0.81915 2.00025,-0.81915 3.40995,-2.38125 1.42875,-1.5621 2.2098,-3.79095 0.78105,-2.2479 0.78105,-5.08635 z"
           id="path72402" />
        <path
           d="m -12.783932,-0.87953318 q 0.2667,0 0.4191,0.0762 0.1524,0.05715 0.32385,0.28574999 L 5.4088169,22.837716 q -0.05715,-0.5715 -0.05715,-1.1049 V -0.87953318 H 7.0661668 V 26.076216 H 6.1327169 q -0.43815,0 -0.70485,-0.381 L -12.098132,2.3018167 q 0.05715,0.5715 0.05715,1.08585 V 26.076216 h -1.69545 V -0.87953318 h 0.9525 z"
           id="path72404" />
        <path
           d="M 35.018801,-0.87953318 V 0.77781676 H 25.550952 V 26.076216 h -1.9431 V 0.77781676 h -9.525 v -1.65734994 z"
           id="path72406" />
        <path
           d="m 60.151438,26.076216 h -1.50495 q -0.2667,0 -0.43815,-0.13335 -0.17145,-0.1524 -0.2667,-0.381 l -3.18135,-7.82955 h -13.23975 l -3.162299,7.82955 q -0.0762,0.20955 -0.2667,0.36195 -0.1905,0.1524 -0.4572,0.1524 h -1.4859 L 47.178388,-0.87953318 h 1.9431 z m -18.04035,-9.7917 h 12.0777 L 48.683338,2.6637667 q -0.13335,-0.32385 -0.2667,-0.7239 -0.13335,-0.4191 -0.2667,-0.8763 -0.13335,0.4572 -0.2667,0.8763 -0.13335,0.40005 -0.2667,0.74295 z"
           id="path72408" />
        <path
           d="m 85.762704,21.542316 q 0.1905,0 0.32385,0.13335 l 0.762,0.81915 q -0.8382,0.89535 -1.8288,1.61925 -0.9906,0.70485 -2.1717,1.2192 -1.16205,0.4953 -2.57175,0.762 -1.39065,0.28575 -3.06705,0.28575 -2.80035,0 -5.143499,-0.97155 -2.3241,-0.9906 -4.0005,-2.7813 -1.65735,-1.80975 -2.5908,-4.36245 -0.93345,-2.5527 -0.93345,-5.6769 0,-3.0670496 0.9525,-5.6006995 0.97155,-2.5336499 2.7051,-4.3433998 1.7526,-1.82879994 4.17195,-2.8193999 2.438399,-1.00965 5.372099,-1.00965 1.46685,0 2.68605,0.22860003 1.2192,0.20954999 2.26695,0.62864997 1.0668,0.40004999 2.00025,1.00964996 0.93345,0.60959994 1.8288,1.40969994 l -0.59055,0.85725 q -0.1524,0.2286 -0.47625,0.2286 -0.17145,0 -0.43815,-0.1905 -0.2667,-0.20955 -0.6858,-0.4953 -0.40005,-0.3048 -0.9906,-0.6477 -0.5715,-0.36195 -1.3716,-0.6477 -0.8001,-0.30479995 -1.84785,-0.49529994 -1.04775,-0.20954999 -2.38125,-0.20954999 -2.45745,0 -4.514849,0.85724993 -2.0574,0.8382 -3.5433,2.4193499 -1.4859,1.5621 -2.3241,3.8099999 -0.81915,2.2288499 -0.81915,5.0101495 0,2.8575 0.81915,5.1054 0.81915,2.2479 2.26695,3.81 1.4478,1.54305 3.40995,2.38125 1.981199,0.81915 4.286249,0.81915 1.4478,0 2.57175,-0.1905 1.143,-0.1905 2.0955,-0.5715 0.9525,-0.381 1.77165,-0.93345 0.81915,-0.55245 1.61925,-1.2954 0.09525,-0.0762 0.17145,-0.1143 0.09525,-0.05715 0.20955,-0.05715 z"
           id="path72410" />
        <path
           d="M 112.92535,-0.87953318 V 0.77781676 H 103.4575 V 26.076216 h -1.9431 V 0.77781676 h -9.525 v -1.65734994 z"
           id="path72412" />
      </g>
    </g>
  </g>
</svg>
