<?xml version="1.0" encoding="UTF-8" standalone="no"?>
<!-- Created with Inkscape (http://www.inkscape.org/) -->

<svg
   width="236mm"
   height="30mm"
   viewBox="0 0 235.99991 29.999992"
   version="1.1"
   id="svg168634"
   sodipodi:docname="text-kontakt.svg"
   inkscape:version="1.1.1 (c3084ef, 2021-09-22)"
   xmlns:inkscape="http://www.inkscape.org/namespaces/inkscape"
   xmlns:sodipodi="http://sodipodi.sourceforge.net/DTD/sodipodi-0.dtd"
   xmlns:xlink="http://www.w3.org/1999/xlink"
   xmlns="http://www.w3.org/2000/svg"
   xmlns:svg="http://www.w3.org/2000/svg">
  <sodipodi:namedview
     id="namedview1078"
     pagecolor="#cfcfcf"
     bordercolor="#666666"
     borderopacity="1.0"
     inkscape:pageshadow="2"
     inkscape:pageopacity="1"
     inkscape:pagecheckerboard="false"
     inkscape:document-units="mm"
     showgrid="true"
     inkscape:zoom="0.82943085"
     inkscape:cx="375.55873"
     inkscape:cy="63.296416"
     inkscape:window-width="1872"
     inkscape:window-height="1189"
     inkscape:window-x="32"
     inkscape:window-y="73"
     inkscape:window-maximized="0"
     inkscape:current-layer="text7936"
     fit-margin-top="0"
     fit-margin-left="0"
     fit-margin-right="0"
     fit-margin-bottom="0"
     showborder="true"
     inkscape:showpageshadow="false"
     units="mm"
     inkscape:snap-grids="false" />
  <defs
     id="defs168631">
    <color-profile
       name="D65"
       xlink:href="file:///Library/ColorSync/Profiles/D65.icc"
       id="color-profile979" />
    <rect
       x="309.9783"
       y="662.06946"
       width="85.606476"
       height="19.675682"
       id="rect4134" />
  </defs>
  <g
     inkscape:groupmode="layer"
     id="layer3"
     inkscape:label="text"
     style="display:inline"
     transform="translate(100.15448,2.4016584)">
    <g
       id="use1150"
       transform="matrix(0.26458333,0,0,0.26458333,100.72788,192.81393)"
       style="fill:none;fill-opacity:1">
      <text
         xml:space="preserve"
         style="font-size:5.64444px;line-height:1.25;font-family:Lato;-inkscape-font-specification:'Lato, Normal';letter-spacing:0px;display:inline;fill:none;fill-opacity:1;stroke-width:0.264583"
         x="118.29476"
         y="280.90973"
         id="text2245"><tspan
           style="font-style:normal;font-variant:normal;font-weight:bold;font-stretch:normal;font-size:5.64444px;font-family:Lato;-inkscape-font-specification:'Lato Bold';text-align:center;text-anchor:middle;fill:none;fill-opacity:1;stroke-width:0.264583"
           x="118.29476"
           y="280.90973"
           id="tspan2243"><tspan
   style="font-style:normal;font-variant:normal;font-weight:bold;font-stretch:normal;font-size:4.93889px;font-family:Lato;-inkscape-font-specification:'Lato Bold';text-align:start;text-anchor:start;fill:none;fill-opacity:1"
   id="tspan2241">SOFTWARESYSTEME</tspan> </tspan></text>
      <text
         xml:space="preserve"
         style="font-size:4.23333px;line-height:1.25;font-family:Lato;-inkscape-font-specification:'Lato, Normal';letter-spacing:0px;display:inline;fill:none;fill-opacity:1;stroke-width:0.264583"
         x="111.48794"
         y="273.86356"
         id="text2249"><tspan
           style="font-style:normal;font-variant:normal;font-weight:normal;font-stretch:normal;font-size:4.23333px;font-family:Lato;-inkscape-font-specification:Lato;text-align:start;text-anchor:start;fill:none;fill-opacity:1;stroke-width:0.264583"
           x="111.48794"
           y="273.86356"
           id="tspan2247">INGENIEURBÜRO</tspan></text>
      <g
         id="g2261"
         transform="translate(82.821292,26.113883)"
         style="fill:none;fill-opacity:1">
        <g
           aria-label="//"
           id="g2255"
           style="font-size:22.5778px;line-height:1.25;font-family:Lato;-inkscape-font-specification:'Lato, Normal';letter-spacing:0px;fill:none;fill-opacity:1;stroke-width:0.264583"
           transform="translate(-48.953329,205.95104)">
          <path
             d="m 87.38547,33.581134 q -0.135466,0.3048 -0.361244,0.530578 -0.214489,0.225778 -0.474134,0.372534 -0.259645,0.158045 -0.541867,0.237067 -0.270934,0.07902 -0.51929,0.07902 h -1.444979 l 7.69903,-16.459217 q 0.259645,-0.564445 0.756356,-0.857956 0.496712,-0.293511 1.095024,-0.293511 h 1.422401 z"
             style="font-style:italic;font-weight:900;-inkscape-font-specification:'Lato Heavy Italic';fill:none;fill-opacity:1"
             id="path2251" />
          <path
             d="m 94.044158,33.581134 q -0.135467,0.3048 -0.361245,0.530578 -0.214489,0.225778 -0.474134,0.372534 -0.259645,0.158045 -0.541867,0.237067 -0.270934,0.07902 -0.51929,0.07902 h -1.444979 l 7.69903,-16.459217 q 0.259645,-0.564445 0.756356,-0.857956 0.496712,-0.293511 1.095021,-0.293511 h 1.4224 z"
             style="font-style:italic;font-weight:900;-inkscape-font-specification:'Lato Heavy Italic';fill:none;fill-opacity:1"
             id="path2253" />
        </g>
        <text
           xml:space="preserve"
           style="font-size:22.5778px;line-height:1.25;font-family:Lato;-inkscape-font-specification:'Lato, Normal';letter-spacing:0px;fill:none;fill-opacity:1;stroke-width:0.264583"
           x="56.741013"
           y="240.07968"
           id="text2259"><tspan
             id="tspan2257"
             style="font-style:italic;font-variant:normal;font-weight:900;font-stretch:normal;font-size:22.5778px;font-family:Lato;-inkscape-font-specification:'Lato Heavy Italic';fill:none;fill-opacity:1;stroke-width:0.264583"
             x="56.741013"
             y="240.07968">JE</tspan></text>
      </g>
    </g>
    <g
       aria-label="PORTFOLIO "
       id="text7936"
       style="font-size:33.8667px;line-height:1.25;font-family:Lato;-inkscape-font-specification:'Lato, Normal';text-align:center;letter-spacing:2.64583px;text-anchor:middle;fill:#ffffff;stroke-width:0.264583">
      <g
         aria-label="KONTAKT"
         id="text9139"
         style="font-weight:300;font-size:38.1px;-inkscape-font-specification:'Lato Light';letter-spacing:2.35479px;stroke-width:0.0700042">
        <path
           d="m -72.549202,11.569642 h 1.6002 q 0.36195,0 0.62865,-0.01905 0.2667,-0.0381 0.47625,-0.1143 0.2286,-0.09525 0.4191,-0.2286 0.1905,-0.13335 0.40005,-0.3429 l 10.87755,-11.1823499 q 0.3048,-0.30479999 0.55245,-0.41909998 0.2667,-0.13335 0.6477,-0.13335 h 1.58115 l -11.7729,12.09674988 q -0.36195,0.381 -0.6477,0.59055 -0.2667,0.20955 -0.6096,0.3429 0.40005,0.1143 0.70485,0.36195 0.32385,0.2286 0.6477,0.6096 l 12.4206,12.953999 h -1.58115 q -0.4953,0 -0.70485,-0.13335 -0.20955,-0.1524 -0.43815,-0.381 l -11.41095,-11.658599 q -0.20955,-0.20955 -0.381,-0.36195 -0.17145,-0.1524 -0.40005,-0.24765 -0.20955,-0.1143 -0.51435,-0.1524 -0.3048,-0.05715 -0.762,-0.05715 h -1.73355 v 12.992099 h -1.9431 V -0.90810788 h 1.9431 z"
           id="path926" />
        <path
           d="m -24.111274,12.598342 q 0,3.124199 -0.93345,5.676899 -0.93345,2.53365 -2.6289,4.3434 -1.69545,1.7907 -4.05765,2.7813 -2.3622,0.97155 -5.23875,0.97155 -2.838449,0 -5.200649,-0.97155 -2.3622,-0.9906 -4.05765,-2.7813 -1.69545,-1.80975 -2.64795,-4.3434 -0.93345,-2.5527 -0.93345,-5.676899 0,-3.1051503 0.93345,-5.6388002 0.9525,-2.5526999 2.64795,-4.3433998 1.69545,-1.80974994 4.05765,-2.8003499 2.3622,-0.9906 5.200649,-0.9906 2.87655,0 5.23875,0.9906 2.3622,0.97154996 4.05765,2.7812999 1.69545,1.8097499 2.6289,4.3624498 0.93345,2.5336499 0.93345,5.6388002 z m -2.0193,0 q 0,-2.8194003 -0.78105,-5.0673002 -0.78105,-2.2478999 -2.2098,-3.8099999 -1.4097,-1.5620999 -3.40995,-2.3812499 -2.00025,-0.83819993 -4.43865,-0.83819993 -2.400299,0 -4.400549,0.83819993 -1.9812,0.81915 -3.429,2.3812499 -1.42875,1.5621 -2.22885,3.8099999 -0.78105,2.2478999 -0.78105,5.0673002 0,2.838449 0.78105,5.086349 0.8001,2.22885 2.22885,3.79095 1.4478,1.5621 3.429,2.38125 2.00025,0.81915 4.400549,0.81915 2.4384,0 4.43865,-0.81915 2.00025,-0.81915 3.40995,-2.38125 1.42875,-1.5621 2.2098,-3.79095 0.78105,-2.2479 0.78105,-5.086349 z"
           id="path928" />
        <path
           d="m -14.484146,-0.87000788 q 0.2667,0 0.4191,0.0762 0.1524,0.05715 0.32385,0.28574999 L 3.708603,22.847241 q -0.05715,-0.5715 -0.05715,-1.1049 V -0.87000788 h 1.7145 V 26.085741 h -0.93345 q -0.43815,0 -0.70485,-0.381 L -13.798346,2.311342 q 0.05715,0.5715 0.05715,1.08585 v 22.688549 h -1.69545 V -0.87000788 h 0.9525 z"
           id="path930" />
        <path
           d="M 33.318587,-0.87000788 V 0.78734206 H 23.850738 V 26.085741 h -1.9431 V 0.78734206 h -9.525 v -1.65734994 z"
           id="path932" />
        <path
           d="m 58.451224,26.085741 h -1.50495 q -0.2667,0 -0.43815,-0.13335 -0.17145,-0.1524 -0.2667,-0.381 l -3.18135,-7.82955 H 39.820325 l -3.1623,7.82955 q -0.0762,0.20955 -0.2667,0.36195 -0.1905,0.1524 -0.4572,0.1524 h -1.4859 L 45.478174,-0.87000788 h 1.9431 z m -18.040349,-9.7917 H 52.488574 L 46.983124,2.673292 q -0.13335,-0.32385 -0.2667,-0.7239 -0.13335,-0.4191 -0.2667,-0.8763 -0.13335,0.4572 -0.2667,0.8763 -0.13335,0.40005 -0.2667,0.74295 z"
           id="path934" />
        <path
           d="m 67.588997,11.569642 h 1.6002 q 0.36195,0 0.62865,-0.01905 0.2667,-0.0381 0.47625,-0.1143 0.2286,-0.09525 0.4191,-0.2286 0.1905,-0.13335 0.40005,-0.3429 l 10.87755,-11.1823499 q 0.3048,-0.30479999 0.55245,-0.41909998 0.2667,-0.13335 0.6477,-0.13335 h 1.58115 L 72.999197,11.226742 q -0.36195,0.381 -0.6477,0.59055 -0.2667,0.20955 -0.6096,0.3429 0.40005,0.1143 0.70485,0.36195 0.32385,0.2286 0.6477,0.6096 l 12.4206,12.953999 h -1.58115 q -0.4953,0 -0.70485,-0.13335 -0.20955,-0.1524 -0.43815,-0.381 L 71.379947,13.912792 q -0.20955,-0.20955 -0.381,-0.36195 -0.17145,-0.1524 -0.40005,-0.24765 -0.20955,-0.1143 -0.51435,-0.1524 -0.3048,-0.05715 -0.762,-0.05715 h -1.73355 v 12.992099 h -1.9431 V -0.90810788 h 1.9431 z"
           id="path936" />
        <path
           d="m 110.18334,-0.87000788 v 1.65734994 h -9.46785 V 26.085741 H 98.772391 V 0.78734206 h -9.524999 v -1.65734994 z"
           id="path938" />
      </g>
    </g>
  </g>
</svg>
