<?xml version="1.0" encoding="UTF-8" standalone="no"?>
<!-- Created with Inkscape (http://www.inkscape.org/) -->

<svg
   width="236mm"
   height="30mm"
   viewBox="0 0 235.99992 29.999992"
   version="1.1"
   id="svg168634"
   sodipodi:docname="text-portfolio.svg"
   inkscape:version="1.1.1 (c3084ef, 2021-09-22)"
   xmlns:inkscape="http://www.inkscape.org/namespaces/inkscape"
   xmlns:sodipodi="http://sodipodi.sourceforge.net/DTD/sodipodi-0.dtd"
   xmlns:xlink="http://www.w3.org/1999/xlink"
   xmlns="http://www.w3.org/2000/svg"
   xmlns:svg="http://www.w3.org/2000/svg">
  <sodipodi:namedview
     id="namedview1078"
     pagecolor="#cfcfcf"
     bordercolor="#666666"
     borderopacity="1.0"
     inkscape:pageshadow="2"
     inkscape:pageopacity="1"
     inkscape:pagecheckerboard="false"
     inkscape:document-units="mm"
     showgrid="true"
     inkscape:zoom="0.82943085"
     inkscape:cx="419.56481"
     inkscape:cy="-42.800434"
     inkscape:window-width="1872"
     inkscape:window-height="1189"
     inkscape:window-x="32"
     inkscape:window-y="73"
     inkscape:window-maximized="0"
     inkscape:current-layer="text7936"
     fit-margin-top="0"
     fit-margin-left="0"
     fit-margin-right="0"
     fit-margin-bottom="0"
     showborder="true"
     inkscape:showpageshadow="false"
     units="mm"
     inkscape:snap-grids="false" />
  <defs
     id="defs168631">
    <color-profile
       name="D65"
       xlink:href="file:///Library/ColorSync/Profiles/D65.icc"
       id="color-profile72211" />
    <rect
       x="309.9783"
       y="662.06946"
       width="85.606476"
       height="19.675682"
       id="rect4134" />
  </defs>
  <g
     inkscape:groupmode="layer"
     id="layer3"
     inkscape:label="text"
     style="display:inline"
     transform="translate(100.15448,2.4016584)">
    <g
       id="use1150"
       transform="matrix(0.26458333,0,0,0.26458333,100.72788,192.81393)"
       style="fill:none;fill-opacity:1">
      <text
         xml:space="preserve"
         style="font-size:5.64444px;line-height:1.25;font-family:Lato;-inkscape-font-specification:'Lato, Normal';letter-spacing:0px;display:inline;fill:none;fill-opacity:1;stroke-width:0.264583"
         x="118.29476"
         y="280.90973"
         id="text2245"><tspan
           style="font-style:normal;font-variant:normal;font-weight:bold;font-stretch:normal;font-size:5.64444px;font-family:Lato;-inkscape-font-specification:'Lato Bold';text-align:center;text-anchor:middle;fill:none;fill-opacity:1;stroke-width:0.264583"
           x="118.29476"
           y="280.90973"
           id="tspan2243"><tspan
   style="font-style:normal;font-variant:normal;font-weight:bold;font-stretch:normal;font-size:4.93889px;font-family:Lato;-inkscape-font-specification:'Lato Bold';text-align:start;text-anchor:start;fill:none;fill-opacity:1"
   id="tspan2241">SOFTWARESYSTEME</tspan> </tspan></text>
      <text
         xml:space="preserve"
         style="font-size:4.23333px;line-height:1.25;font-family:Lato;-inkscape-font-specification:'Lato, Normal';letter-spacing:0px;display:inline;fill:none;fill-opacity:1;stroke-width:0.264583"
         x="111.48794"
         y="273.86356"
         id="text2249"><tspan
           style="font-style:normal;font-variant:normal;font-weight:normal;font-stretch:normal;font-size:4.23333px;font-family:Lato;-inkscape-font-specification:Lato;text-align:start;text-anchor:start;fill:none;fill-opacity:1;stroke-width:0.264583"
           x="111.48794"
           y="273.86356"
           id="tspan2247">INGENIEURBÜRO</tspan></text>
      <g
         id="g2261"
         transform="translate(82.821292,26.113883)"
         style="fill:none;fill-opacity:1">
        <g
           aria-label="//"
           id="g2255"
           style="font-size:22.5778px;line-height:1.25;font-family:Lato;-inkscape-font-specification:'Lato, Normal';letter-spacing:0px;fill:none;fill-opacity:1;stroke-width:0.264583"
           transform="translate(-48.953329,205.95104)">
          <path
             d="m 87.38547,33.581134 q -0.135466,0.3048 -0.361244,0.530578 -0.214489,0.225778 -0.474134,0.372534 -0.259645,0.158045 -0.541867,0.237067 -0.270934,0.07902 -0.51929,0.07902 h -1.444979 l 7.69903,-16.459217 q 0.259645,-0.564445 0.756356,-0.857956 0.496712,-0.293511 1.095024,-0.293511 h 1.422401 z"
             style="font-style:italic;font-weight:900;-inkscape-font-specification:'Lato Heavy Italic';fill:none;fill-opacity:1"
             id="path2251" />
          <path
             d="m 94.044158,33.581134 q -0.135467,0.3048 -0.361245,0.530578 -0.214489,0.225778 -0.474134,0.372534 -0.259645,0.158045 -0.541867,0.237067 -0.270934,0.07902 -0.51929,0.07902 h -1.444979 l 7.69903,-16.459217 q 0.259645,-0.564445 0.756356,-0.857956 0.496712,-0.293511 1.095021,-0.293511 h 1.4224 z"
             style="font-style:italic;font-weight:900;-inkscape-font-specification:'Lato Heavy Italic';fill:none;fill-opacity:1"
             id="path2253" />
        </g>
        <text
           xml:space="preserve"
           style="font-size:22.5778px;line-height:1.25;font-family:Lato;-inkscape-font-specification:'Lato, Normal';letter-spacing:0px;fill:none;fill-opacity:1;stroke-width:0.264583"
           x="56.741013"
           y="240.07968"
           id="text2259"><tspan
             id="tspan2257"
             style="font-style:italic;font-variant:normal;font-weight:900;font-stretch:normal;font-size:22.5778px;font-family:Lato;-inkscape-font-specification:'Lato Heavy Italic';fill:none;fill-opacity:1;stroke-width:0.264583"
             x="56.741013"
             y="240.07968">JE</tspan></text>
      </g>
    </g>
    <g
       aria-label="PORTFOLIO "
       id="text7936"
       style="font-size:33.8667px;line-height:1.25;font-family:Lato;-inkscape-font-specification:'Lato, Normal';text-align:center;letter-spacing:2.64583px;text-anchor:middle;fill:#ffffff;stroke-width:0.264583">
      <g
         aria-label="PORTFOLIO"
         id="text9139"
         style="font-weight:300;font-size:38.1px;-inkscape-font-specification:'Lato Light';letter-spacing:2.35479px;stroke-width:0.0700042">
        <path
           d="m -92.076078,15.227241 v 10.8585 h -1.9431 V -0.87000788 h 6.95325 q 4.743449,0 7.143749,2.07644988 2.41935,2.07645 2.41935,5.9245498 0,1.7716499 -0.66675,3.2575502 -0.6477,1.4859 -1.88595,2.57175 -1.23825,1.0668 -3.0099,1.6764 -1.771649,0.590549 -4.000499,0.590549 z m 0,-1.562099 h 5.01015 q 1.7907,0 3.2004,-0.4953 1.409699,-0.4953 2.381249,-1.3716 0.9906,-0.8763 1.50495,-2.0574003 0.5334,-1.20015 0.5334,-2.6098499 0,-3.1051499 -1.92405,-4.7815498 -1.905,-1.67639994 -5.695949,-1.67639994 h -5.01015 z"
           id="path72154" />
        <path
           d="m -45.572915,12.598342 q 0,3.124199 -0.93345,5.676899 -0.93345,2.53365 -2.6289,4.3434 -1.69545,1.7907 -4.05765,2.7813 -2.3622,0.97155 -5.23875,0.97155 -2.83845,0 -5.20065,-0.97155 -2.3622,-0.9906 -4.05765,-2.7813 -1.695449,-1.80975 -2.647949,-4.3434 -0.93345,-2.5527 -0.93345,-5.676899 0,-3.1051503 0.93345,-5.6388002 0.9525,-2.5526999 2.647949,-4.3433998 1.69545,-1.80974994 4.05765,-2.8003499 2.3622,-0.9906 5.20065,-0.9906 2.87655,0 5.23875,0.9906 2.3622,0.97154996 4.05765,2.7812999 1.69545,1.8097499 2.6289,4.3624498 0.93345,2.5336499 0.93345,5.6388002 z m -2.0193,0 q 0,-2.8194003 -0.78105,-5.0673002 -0.78105,-2.2478999 -2.2098,-3.8099999 -1.4097,-1.5620999 -3.40995,-2.3812499 -2.00025,-0.83819993 -4.43865,-0.83819993 -2.4003,0 -4.40055,0.83819993 -1.9812,0.81915 -3.429,2.3812499 -1.42875,1.5621 -2.22885,3.8099999 -0.781049,2.2478999 -0.781049,5.0673002 0,2.838449 0.781049,5.086349 0.8001,2.22885 2.22885,3.79095 1.4478,1.5621 3.429,2.38125 2.00025,0.81915 4.40055,0.81915 2.4384,0 4.43865,-0.81915 2.00025,-0.81915 3.40995,-2.38125 1.42875,-1.5621 2.2098,-3.79095 0.78105,-2.2479 0.78105,-5.086349 z"
           id="path72156" />
        <path
           d="m -34.383688,13.893742 v 12.191999 h -1.9431 V -0.87000788 h 6.87705 q 4.66725,0 6.9723,1.80974993 2.30505,1.79069995 2.30505,5.27684975 0,1.54305 -0.5334,2.8193999 -0.5334,1.2763503 -1.54305,2.2479003 -0.9906,0.9525 -2.4003,1.58115 -1.4097,0.6096 -3.18135,0.8001 0.4572,0.28575 0.81915,0.762 l 9.27735,11.658599 h -1.69545 q -0.3048,0 -0.5334,-0.1143 -0.20955,-0.1143 -0.4191,-0.381 l -8.62965,-10.934699 q -0.32385,-0.4191 -0.70485,-0.59055 -0.36195,-0.17145 -1.143,-0.17145 z m 0,-1.4478 h 4.6863 q 1.7907,0 3.2004,-0.4191 1.42875,-0.43815 2.4003,-1.23825 0.9906,-0.8001003 1.50495,-1.9240503 0.51435,-1.1239499 0.51435,-2.5336499 0,-2.8765499 -1.88595,-4.2671998 -1.88595,-1.39064994 -5.4864,-1.39064994 h -4.93395 z"
           id="path72158" />
        <path
           d="M 6.2014779,-0.87000788 V 0.78734206 H -3.2663717 V 26.085741 H -5.2094716 V 0.78734206 h -9.5249994 v -1.65734994 z"
           id="path72160" />
        <path
           d="M 29.358269,-0.87000788 V 0.74924206 H 15.16602 V 12.083992 h 12.287249 v 1.61925 H 15.16602 V 26.085741 H 13.20387 V -0.87000788 Z"
           id="path72162" />
        <path
           d="m 61.403073,12.598342 q 0,3.124199 -0.93345,5.676899 -0.93345,2.53365 -2.6289,4.3434 -1.69545,1.7907 -4.05765,2.7813 -2.3622,0.97155 -5.23875,0.97155 -2.838449,0 -5.200649,-0.97155 -2.3622,-0.9906 -4.05765,-2.7813 -1.69545,-1.80975 -2.64795,-4.3434 -0.93345,-2.5527 -0.93345,-5.676899 0,-3.1051503 0.93345,-5.6388002 0.9525,-2.5526999 2.64795,-4.3433998 1.69545,-1.80974994 4.05765,-2.8003499 2.3622,-0.9906 5.200649,-0.9906 2.87655,0 5.23875,0.9906 2.3622,0.97154996 4.05765,2.7812999 1.69545,1.8097499 2.6289,4.3624498 0.93345,2.5336499 0.93345,5.6388002 z m -2.0193,0 q 0,-2.8194003 -0.78105,-5.0673002 -0.78105,-2.2478999 -2.2098,-3.8099999 -1.4097,-1.5620999 -3.40995,-2.3812499 -2.00025,-0.83819993 -4.43865,-0.83819993 -2.400299,0 -4.400549,0.83819993 -1.9812,0.81915 -3.429,2.3812499 -1.42875,1.5621 -2.22885,3.8099999 -0.78105,2.2478999 -0.78105,5.0673002 0,2.838449 0.78105,5.086349 0.8001,2.22885 2.22885,3.79095 1.4478,1.5621 3.429,2.38125 2.00025,0.81915 4.400549,0.81915 2.4384,0 4.43865,-0.81915 2.00025,-0.81915 3.40995,-2.38125 1.42875,-1.5621 2.2098,-3.79095 0.78105,-2.2479 0.78105,-5.086349 z"
           id="path72164" />
        <path
           d="m 72.020803,24.428391 h 12.782549 v 1.65735 H 70.077703 V -0.87000788 h 1.9431 z"
           id="path72166" />
        <path
           d="m 94.595975,26.085741 h -1.96215 V -0.87000788 h 1.96215 z"
           id="path72168" />
        <path
           d="m 129.71022,12.598342 q 0,3.124199 -0.93345,5.676899 -0.93345,2.53365 -2.6289,4.3434 -1.69545,1.7907 -4.05765,2.7813 -2.3622,0.97155 -5.23875,0.97155 -2.83845,0 -5.20065,-0.97155 -2.3622,-0.9906 -4.05765,-2.7813 -1.69545,-1.80975 -2.64795,-4.3434 -0.93345,-2.5527 -0.93345,-5.676899 0,-3.1051503 0.93345,-5.6388002 0.9525,-2.5526999 2.64795,-4.3433998 1.69545,-1.80974994 4.05765,-2.8003499 2.3622,-0.9906 5.20065,-0.9906 2.87655,0 5.23875,0.9906 2.3622,0.97154996 4.05765,2.7812999 1.69545,1.8097499 2.6289,4.3624498 0.93345,2.5336499 0.93345,5.6388002 z m -2.0193,0 q 0,-2.8194003 -0.78105,-5.0673002 -0.78105,-2.2478999 -2.2098,-3.8099999 -1.4097,-1.5620999 -3.40995,-2.3812499 -2.00025,-0.83819993 -4.43865,-0.83819993 -2.4003,0 -4.40055,0.83819993 -1.9812,0.81915 -3.429,2.3812499 -1.42875,1.5621 -2.22885,3.8099999 -0.78105,2.2478999 -0.78105,5.0673002 0,2.838449 0.78105,5.086349 0.8001,2.22885 2.22885,3.79095 1.4478,1.5621 3.429,2.38125 2.00025,0.81915 4.40055,0.81915 2.4384,0 4.43865,-0.81915 2.00025,-0.81915 3.40995,-2.38125 1.42875,-1.5621 2.2098,-3.79095 0.78105,-2.2479 0.78105,-5.086349 z"
           id="path72170" />
      </g>
    </g>
  </g>
</svg>
