<svg xmlns="http://www.w3.org/2000/svg" width="123mm" height="20mm" viewBox="0 0 123 20.000001"><path d="M27.336823 157.24568c.54261 0 .8785-.34881.8785-.91725v-17.16948c0-.56844-.33589-.91726-.8785-.91726-.5426 0-.87849.34882-.87849.91726v17.16948c0 .56844.33589.91725.87849.91725zM32.581973 157.06482h5.86527c3.94033 0 6.30452-1.93787 6.30452-5.11597 0-2.58381-1.79575-4.3279-4.37957-4.63796v-.0904c1.98954-.36173 3.41064-2.13165 3.41064-4.1987 0-2.75177-2.17041-4.5992-5.37434-4.5992h-5.82652c-.5426 0-.87849.34882-.87849.91726v16.80774c0 .56844.33589.91726.87849.91726zm.8785-10.36113v-6.71792h4.57336c2.48047 0 3.96616 1.20147 3.96616 3.22977 0 2.19624-1.65364 3.48815-4.48292 3.48815zm0 8.79792v-7.27346h4.50877c3.21685 0 4.97385 1.30483 4.97385 3.63027 0 2.31252-1.6924 3.64319-4.74131 3.64319z" style="font-weight:300;font-size:26.4583px;line-height:1.25;font-family:&quot;SF Pro Rounded&quot;;-inkscape-font-specification:&quot;SF Pro Rounded Light&quot;;fill:#000;fill-opacity:1;stroke:none;stroke-width:.264583" transform="translate(-25.9687415 -137.74369)"/><path d="M53.730533 157.37488c4.482923 0 7.286365-2.24793 7.286365-5.8136 0-2.76469-1.653643-4.34083-5.581045-5.15473l-2.00246-.41341c-2.32544-.49092-3.25561-1.30483-3.25561-2.57089 0-1.56321 1.47277-2.54507 3.53983-2.54507 1.74408 0 3.074742.6718 3.707778 2.24793.348815.72347.826822 1.05936 1.601967 1.05936.865579 0 1.446939-.55552 1.446939-1.36942 0-.31006-.03876-.55552-.116272-.76223-.762227-2.46754-3.320207-3.94032-6.614572-3.94032-4.04368 0-6.92464 2.22208-6.92464 5.50353 0 2.72593 1.74408 4.48293 5.4777 5.24516l2.00246.41341c2.428787.50385 3.358962 1.33067 3.358962 2.67425 0 1.5503-1.57613 2.66134-3.824052 2.66134-1.98954 0-3.59151-.72347-4.17287-2.33836-.36173-.74931-.82682-1.04645-1.56321-1.04645-.87849 0-1.47277.59428-1.47277 1.52446 0 .31006.0646.64596.18086.95601.72347 2.11873 3.20394 3.66903 6.92464 3.66903z" style="font-weight:600;font-size:26.4583px;line-height:1.25;font-family:&quot;SF Pro Rounded&quot;;-inkscape-font-specification:&quot;SF Pro Rounded Semi-Bold&quot;;fill:#000;fill-opacity:1;stroke:none;stroke-width:.264583" transform="translate(-25.9687415 -137.74369)"/><path d="M70.228211 157.3232c4.534601 0 7.376801-2.95847 7.376801-7.73854 0-4.76716-2.8422-7.73854-7.376801-7.73854-4.54752 0-7.402639 2.97138-7.402639 7.73854 0 4.78007 2.8422 7.73854 7.402639 7.73854zm0-2.68717c-2.506304 0-4.108271-1.96371-4.108271-5.05137 0-3.10059 1.614886-5.05138 4.108271-5.05138s4.095352 1.95079 4.095352 5.05138c0 3.08766-1.601967 5.05137-4.095352 5.05137zM81.622852 157.28444c.981851 0 1.614887-.59428 1.614887-1.58905v-4.48293h5.064284c.839741 0 1.369423-.45216 1.369423-1.25315 0-.8139-.529682-1.27899-1.369423-1.27899h-5.064284v-3.92741h5.619804c.86558 0 1.421101-.47801 1.421101-1.31775 0-.83974-.555521-1.34358-1.421101-1.34358h-7.24761c-.968932 0-1.589048.59428-1.589048 1.58905v12.01476c0 .99477.620116 1.58905 1.601967 1.58905zM97.590847 157.28444c.981851 0 1.614887-.59428 1.614887-1.58905v-10.92956h3.307286c.80099 0 1.39526-.52969 1.39526-1.33067 0-.8139-.59427-1.34358-1.39526-1.34358h-9.818508c-.826822 0-1.408181.52968-1.408181 1.34358 0 .80098.594278 1.33067 1.408181 1.33067h3.294368v10.92956c0 .99477.620116 1.58905 1.601967 1.58905z" style="font-weight:600;font-size:26.4583px;line-height:1.25;font-family:&quot;SF Pro Rounded&quot;;-inkscape-font-specification:&quot;SF Pro Rounded, Semi-Bold&quot;;font-variant-caps:all-small-caps;fill:#000;fill-opacity:1;stroke:none;stroke-width:.264583" transform="translate(-25.9687415 -137.74369)"/><path d="M112.56408 157.37488c4.48292 0 7.28636-2.24793 7.28636-5.8136 0-2.76469-1.65364-4.34083-5.58105-5.15473l-2.00245-.41341c-2.32544-.49092-3.25561-1.30483-3.25561-2.57089 0-1.56321 1.47277-2.54507 3.53983-2.54507 1.74407 0 3.07474.6718 3.70777 2.24793.34882.72347.82682 1.05936 1.60197 1.05936.86558 0 1.44694-.55552 1.44694-1.36942 0-.31006-.0388-.55552-.11627-.76223-.76223-2.46754-3.32021-3.94032-6.61458-3.94032-4.04367 0-6.92463 2.22208-6.92463 5.50353 0 2.72593 1.74408 4.48293 5.4777 5.24516l2.00246.41341c2.42878.50385 3.35896 1.33067 3.35896 2.67425 0 1.5503-1.57613 2.66134-3.82405 2.66134-1.98954 0-3.59151-.72347-4.17287-2.33836-.36173-.74931-.82682-1.04645-1.56321-1.04645-.8785 0-1.47277.59428-1.47277 1.52446 0 .31006.0646.64596.18086.95601.72347 2.11873 3.20394 3.66903 6.92464 3.66903z" style="font-weight:600;font-size:26.4583px;line-height:1.25;font-family:&quot;SF Pro Rounded&quot;;-inkscape-font-specification:&quot;SF Pro Rounded Semi-Bold&quot;;fill:#000;fill-opacity:1;stroke:none;stroke-width:.264583" transform="translate(-25.9687415 -137.74369)"/><path d="M128.06698 157.28444c.99477 0 1.65365-.6072 1.65365-1.58905v-4.15995l4.40541-7.27346c.2067-.34881.28422-.64595.28422-1.00768 0-.82682-.58136-1.38234-1.47278-1.38234-.67179 0-1.0852.2713-1.43402.93017l-3.33312 5.65857h-.0646l-3.37189-5.68441c-.32297-.6072-.67179-.90433-1.4211-.90433-.87849 0-1.49861.56844-1.49861 1.38234 0 .3359.0904.68471.29714 1.03352l4.37957 7.24762v4.15995c0 .98185.58136 1.58905 1.57613 1.58905zM142.30382 157.3232c3.77238 0 6.17533-1.86035 6.17533-4.75423 0-2.31252-1.35651-3.59151-4.41833-4.22454l-1.86035-.38758c-1.76991-.37466-2.49338-.89142-2.49338-1.79576 0-1.07228 1.05936-1.79575 2.62257-1.79575 1.33067 0 2.26084.51676 2.93263 1.61488.34882.47801.71056.68471 1.279.68471.8139 0 1.3565-.50384 1.3565-1.27899 0-.2067-.0258-.38757-.0904-.56844-.52969-1.79574-2.68718-2.97138-5.50354-2.97138-3.41064 0-5.85235 1.84743-5.85235 4.61211 0 2.20917 1.40819 3.60444 4.22455 4.1858l1.98954.42633c1.84743.40049 2.5709.91725 2.5709 1.87326 0 1.07229-1.17564 1.83452-2.91972 1.83452-1.52445 0-2.71301-.6072-3.37188-1.71824-.34882-.47801-.67179-.68472-1.22731-.68472-.82683 0-1.35651.51677-1.35651 1.30484 0 .24546.0388.49092.12919.7493.59428 1.76992 2.8422 2.89388 5.81359 2.89388z" style="font-weight:600;font-size:26.4583px;line-height:1.25;font-family:&quot;SF Pro Rounded&quot;;-inkscape-font-specification:&quot;SF Pro Rounded, Semi-Bold&quot;;font-variant-caps:all-small-caps;fill:#000;fill-opacity:1;stroke:none;stroke-width:.264583" transform="translate(-25.9687415 -137.74369)"/></svg>