<svg width="77mm" height="77mm" viewBox="0 0 77 77" xmlns="http://www.w3.org/2000/svg"><path style="fill:#fff;stroke-width:.318001;stop-color:#000" d="m18.621441 73.272537 45.846456-45.846455c.274216-.274216.715733-.274216.989949 0l3.687268 3.687267c.274216.274216.274216.715734 0 .98995L23.298658 77.949754c-.274216.274216-.715733.274216-.989949 0l-3.687268-3.687267c-.274216-.274216-.274216-.715734 0-.98995z" transform="translate(-5.3832775 -14.187918)"/><path style="display:inline;fill:#fff;stroke-width:.318001;stop-color:#000" d="m23.298658 27.426082 45.846456 45.846455c.274216.274216.274216.715734 0 .98995l-3.687268 3.687267c-.274216.274216-.715733.274216-.989949 0L18.621441 32.103299c-.274216-.274216-.274216-.715734 0-.98995l3.687268-3.687267c.274216-.274216.715733-.274216.989949 0z" transform="translate(-5.3832775 -14.187918)"/></svg>