<svg width="77mm" height="77mm" viewBox="0 0 77 77" xmlns="http://www.w3.org/2000/svg"><g style="display:inline"><path style="display:inline;fill:#fff;stroke-width:1.20189;stop-color:#000" d="M145.51172 50.21875a95.292569 95.292569 0 0 0-95.29297 95.29297 95.292569 95.292569 0 0 0 95.29297 95.29297 95.292569 95.292569 0 0 0 95.29297-95.29297 95.292569 95.292569 0 0 0-95.29297-95.29297zm39.57812 43.957031c.48941-.02638 1.05109.197592 1.49805.644531l9.61523 9.615238c.71513.71512.85762 1.72444.32032 2.26172l-38.81446 38.81445 38.81446 38.81445c.53728.53727.39479 1.5466-.32032 2.26172l-9.61523 9.61523c-.71513.71513-1.72444.85761-2.26172.32032l-38.81445-38.81446-38.81445 38.81446c-.53728.53727-1.5466.3948-2.26172-.32032l-9.615238-9.61523c-.715123-.71512-.857602-1.72445-.320312-2.26172l38.81445-38.81445L94.5 106.69727c-.537279-.53726-.394793-1.54659.320312-2.26172l9.615238-9.615238c.71512-.715124 1.72444-.857602 2.26172-.320312l38.81445 38.81445L184.32617 94.5c.20148-.20148.47003-.308393.76367-.324219z" transform="scale(.26458)"/></g></svg>