<svg width="50.425861mm" height="50.425861mm" viewBox="0 0 50.425861 50.425861" xmlns="http://www.w3.org/2000/svg"><g style="display:inline"><path style="display:inline;fill:#fff;stroke-width:1.20189;stop-color:#000" d="M95.292969 0A95.292569 95.292569 0 0 0 0 95.292969a95.292569 95.292569 0 0 0 95.292969 95.292971 95.292569 95.292569 0 0 0 95.292971-95.292971A95.292569 95.292569 0 0 0 95.292969 0Zm33.835941 49.699219c.45683.0062.9964.250336 1.44336.697265l9.61718 9.617188c.71513.715128.91279 1.667309.44336 2.136719l-33.14258 33.142578 33.14258 33.142581c.46942.46941.27177 1.42159-.44336 2.13672l-9.61718 9.61718c-.71513.71513-1.66731.91279-2.13672.44336l-33.142581-33.14258-33.142578 33.14258c-.469414.46942-1.421602.27177-2.136719-.44336l-9.617188-9.61718c-.715124-.71513-.912788-1.66731-.443359-2.13672l33.142578-33.142581-33.142578-33.142578c-.469417-.469403-.271731-1.421591.443359-2.136719l9.617188-9.617188c.715128-.715132 1.667305-.912791 2.136719-.443359l33.142578 33.142578 33.142581-33.142578c.17602-.176031.41926-.257627.69336-.253906z" transform="scale(.26458)"/></g></svg>