<svg width="252.19707" height="16.920046" viewBox="0 0 66.72714 4.4767619" xmlns="http://www.w3.org/2000/svg"><defs><path id="a" d="M-57.243935-5.2039943h333.05563v81.529243h-333.05563z"/></defs><g style="display:inline"><g aria-label="juergen_ehret2000@yahoo.com" style="font-size:5.82083px;line-height:1.25;font-family:Lato;-inkscape-font-specification:Lato;text-align:center;letter-spacing:0;text-anchor:middle;display:inline;fill:#0070c9;stroke-width:.264583"><path d="M63.740628 52.947403v-.4953h-.404812v.4953zm0 3.214687v-2.771775h-.404812v2.7051q0 .1905-.04763.261938-.04762.0762-.180975.0762h-.08573q-.01905 0-.03334-.0048-.01905 0-.04286-.0048v.347662q.09525.01905.204787.01905.271463 0 .428625-.1524.161925-.147637.161925-.47625zM66.410754 55.852528v-2.462213h-.404813v1.39065q0 .166688-.04763.309563-.04286.138112-.13335.242887-.09049.104775-.2286.161925-.13335.05715-.319087.05715-.233363 0-.366713-.13335-.13335-.13335-.13335-.36195v-1.666875h-.404812v1.61925q0 .200025.0381.366713.04286.161925.142875.280987.100012.119063.261937.185738.161925.06191.404813.06191.271462 0 .471487-.104775.200025-.109537.328613-.338137h.0095v.390525zM68.733142 54.385678H67.31868q.0095-.142875.06191-.2667.05239-.128588.142875-.223838.09049-.09525.214313-.147637.128587-.05715.28575-.05715.1524 0 .276225.05715.128587.05239.219075.147637.09525.09049.147637.219075.05715.128588.06668.271463zm.390525.6858h-.40005q-.05239.242887-.219075.36195-.161925.119062-.4191.119062-.200025 0-.347662-.06667-.147638-.06668-.242888-.176212-.09525-.1143-.138112-.257175-.04286-.147638-.0381-.309563h1.843087q.0095-.223837-.04286-.471487-.04762-.24765-.180975-.4572-.128588-.20955-.347663-.3429-.214312-.138113-.542925-.138113-.252412 0-.466725.09525-.20955.09525-.366712.2667-.1524.17145-.238125.404813-.08572.233362-.08572.51435.0095.280987.08096.519112.0762.238125.223838.409575.147637.17145.36195.2667.219075.09525.51435.09525.4191 0 .695325-.20955t.357187-.623887zM69.567101 53.390315v2.462213h.404812v-1.095375q0-.238125.04762-.4191.04762-.185738.1524-.314325.104775-.128588.276225-.195263.17145-.06668.414338-.06668v-.428625q-.328613-.0095-.542925.13335-.214313.142875-.36195.442913h-.0095v-.519113ZM73.164277 55.642978v-2.252663h-.381v.352425h-.0048q-.109537-.204787-.3048-.3048-.195262-.104775-.428625-.104775-.319087 0-.538162.123825-.219075.119063-.352425.309563-.13335.185737-.1905.4191-.05715.2286-.05715.447675 0 .252412.06668.481012.07144.223838.20955.395288.138112.166687.3429.2667.204787.100012.481012.100012.238125 0 .447675-.104775.214313-.109537.319088-.338137h.0095v.161925q0 .204787-.04286.376237-.0381.17145-.128587.290513-.09049.123825-.2286.1905-.138113.07144-.338138.07144-.100012 0-.20955-.02381-.109537-.01905-.204787-.06667-.09049-.04763-.157163-.123825-.06191-.0762-.06668-.185738h-.404812q.0095.200025.104775.338138.09525.138112.238125.223837.147637.08572.32385.123825.180975.0381.352425.0381.59055 0 .866775-.300037.276225-.300038.276225-.904875zm-1.133475-.119063q-.200025 0-.333375-.08096-.13335-.08573-.214313-.219075-.08096-.138113-.1143-.3048-.03334-.166688-.03334-.333375 0-.176213.0381-.338138.04286-.161925.128587-.28575.09049-.123825.2286-.195262.138113-.0762.333375-.0762.1905 0 .32385.0762.13335.0762.214313.204787.08573.123825.123825.280988.0381.157162.0381.319087 0 .17145-.04286.3429-.0381.17145-.123825.309563-.08572.13335-.2286.219075-.138112.08096-.338137.08096zM75.486218 54.385678h-1.414462q.0095-.142875.06191-.2667.05239-.128588.142874-.223838.09049-.09525.214313-.147637.128587-.05715.28575-.05715.1524 0 .276225.05715.128587.05239.219075.147637.09525.09049.147637.219075.05715.128588.06667.271463zm.390525.6858h-.40005q-.05239.242887-.219075.36195-.161925.119062-.4191.119062-.200025 0-.347662-.06667-.147638-.06668-.242888-.176212-.09525-.1143-.138112-.257175-.04286-.147638-.0381-.309563h1.843087q.0095-.223837-.04286-.471487-.04763-.24765-.180975-.4572-.128588-.20955-.347663-.3429-.214312-.138113-.542925-.138113-.252412 0-.466725.09525-.209549.09525-.366712.2667-.1524.17145-.238125.404813-.08572.233362-.08572.51435.0095.280987.08096.519112.0762.238125.223837.409575.147638.17145.36195.2667.219075.09525.51435.09525.4191 0 .695325-.20955t.357187-.623887zM76.334464 53.390315v2.462213h.404813v-1.39065q0-.166688.04286-.3048.04762-.142875.138113-.24765.09049-.104775.223837-.161925.138113-.05715.32385-.05715.233363 0 .366713.13335.13335.13335.13335.36195v1.666875h.404812v-1.61925q0-.200025-.04286-.36195-.0381-.166688-.138113-.28575-.100012-.119063-.261937-.185738-.161925-.06667-.404813-.06667-.547687 0-.8001.447675h-.0095v-.390525ZM78.680665 56.204953v.238125h2.38125v-.238125zM83.076453 54.385678h-1.414462q.0095-.142875.06191-.2667.05239-.128588.142875-.223838.09049-.09525.214313-.147637.128587-.05715.28575-.05715.1524 0 .276225.05715.128587.05239.219075.147637.09525.09049.147637.219075.05715.128588.06668.271463zm.390525.6858h-.40005q-.05239.242887-.219075.36195-.161925.119062-.4191.119062-.200025 0-.347662-.06667-.147638-.06668-.242888-.176212-.09525-.1143-.138112-.257175-.04286-.147638-.0381-.309563h1.843087q.0095-.223837-.04286-.471487-.04762-.24765-.180975-.4572-.128588-.20955-.347663-.3429-.214312-.138113-.542925-.138113-.252412 0-.466725.09525-.20955.09525-.366712.2667-.1524.17145-.238125.404813-.08572.233362-.08572.51435.0095.280987.08096.519112.0762.238125.223838.409575.147637.17145.36195.2667.219075.09525.51435.09525.4191 0 .695325-.20955t.357187-.623887zM83.924699 52.452103v3.400425h.404813v-1.39065q0-.166688.04286-.3048.04763-.142875.138113-.24765.09049-.104775.223837-.161925.138113-.05715.32385-.05715.233363 0 .366713.13335.13335.13335.13335.36195v1.666875h.404812v-1.61925q0-.200025-.04286-.36195-.0381-.166688-.138113-.28575-.100012-.119063-.261937-.185738-.161925-.06667-.404813-.06667-.109537 0-.2286.02381-.1143.02381-.223837.0762-.104775.04763-.1905.128587-.08572.0762-.13335.1905h-.0095v-1.300162zM86.561413 53.390315v2.462213h.404812v-1.095375q0-.238125.04763-.4191.04762-.185738.1524-.314325.104775-.128588.276225-.195263.17145-.06668.414338-.06668v-.428625q-.328613-.0095-.542925.13335-.214313.142875-.36195.442913h-.0095v-.519113ZM89.786662 54.385678H88.3722q.0095-.142875.06191-.2667.05239-.128588.142875-.223838.09049-.09525.214313-.147637.128587-.05715.28575-.05715.1524 0 .276225.05715.128587.05239.219075.147637.09525.09049.147637.219075.05715.128588.06668.271463zm.390525.6858h-.40005q-.05239.242887-.219075.36195-.161925.119062-.4191.119062-.200025 0-.347662-.06667-.147638-.06668-.242888-.176212-.09525-.1143-.138112-.257175-.04286-.147638-.0381-.309563h1.843087q.0095-.223837-.04286-.471487-.04763-.24765-.180975-.4572-.128588-.20955-.347663-.3429-.214312-.138113-.542925-.138113-.252412 0-.466725.09525-.20955.09525-.366712.2667-.1524.17145-.238125.404813-.08573.233362-.08573.51435.0095.280987.08096.519112.0762.238125.223838.409575.147637.17145.36195.2667.219075.09525.51435.09525.4191 0 .695325-.20955t.357187-.623887zM91.19324 53.390315v-.738187h-.404812v.738187h-.4191v.357188h.4191v1.566862q0 .17145.03334.276225.03334.104775.100013.161925.07144.05715.180975.08096.1143.01905.271462.01905h.309562v-.357185h-.18574q-.09525 0-.157163-.0048-.05715-.0095-.09049-.03334-.03334-.02381-.04762-.06667-.0095-.04286-.0095-.1143v-1.528762h.490537v-.357188ZM92.033598 53.671303h.404813q-.0048-.1524.02858-.300038.0381-.1524.119062-.271462.08096-.119063.204788-.1905.128587-.0762.3048-.0762.13335 0 .252412.04286.119063.04286.204788.123825.09049.08096.142875.195263.05239.109537.05239.24765 0 .176212-.05715.309562-.05239.13335-.161925.24765-.104775.1143-.2667.2286-.161925.109538-.376237.242888-.176213.104775-.338138.223837-.161925.119063-.290512.276225-.128588.157163-.214313.371475-.08096.20955-.104775.509588h2.205038v-.357186h-1.73355q.02858-.157162.119062-.276225.09525-.123825.223838-.2286.13335-.104775.290512-.195262.157163-.09525.314325-.1905.157163-.100013.3048-.20955.147638-.109538.261938-.242888.1143-.138112.180975-.309562.07144-.17145.07144-.395288 0-.238125-.08572-.4191-.08096-.180975-.223837-.300037-.142875-.123825-.338138-.185738-.1905-.06667-.409575-.06667-.2667 0-.47625.09049-.20955.09049-.352425.252412-.138112.157163-.204787.376238-.06668.219075-.05239.47625zM95.103699 54.190415v-.271462q.0048-.1524.02381-.300038.02381-.1524.06191-.295275.04286-.142875.119063-.24765.08096-.109537.200025-.176212.119062-.06667.290512-.06667t.290513.06667q.119062.06668.195262.176212.08096.104775.119063.24765.04286.142875.06191.295275.02381.147638.02381.300038.0048.147637.0048.271462 0 .1905-.01429.428625-.0095.233363-.0762.442913-.06191.204787-.204788.347662-.142875.142875-.40005.142875-.257175 0-.40005-.142875-.142875-.142875-.20955-.347662-.06191-.20955-.0762-.442913-.0095-.238125-.0095-.428625zm-.428625.0048q0 .185737.0095.385762.0095.200025.04762.390525.0381.1905.109538.36195.07144.166688.195262.295275.123825.128588.309563.204788.1905.07144.452437.07144.2667 0 .452438-.07144.185737-.0762.309562-.204788.123825-.128587.195263-.295275.07144-.17145.109537-.36195.0381-.1905.04762-.390525.0095-.200025.0095-.385762 0-.185738-.0095-.385763-.0095-.200025-.04762-.390525-.0381-.1905-.109537-.36195-.07144-.17145-.195263-.300037-.123825-.128588-.314325-.204788-.185737-.0762-.447675-.0762-.261937 0-.452437.0762-.185738.0762-.309563.204788-.123825.128587-.195262.300037-.07144.17145-.109538.36195-.0381.1905-.04762.390525-.0095.200025-.0095.385763zM97.7547 54.190415v-.271462q.0048-.1524.02381-.300038.02381-.1524.06191-.295275.04286-.142875.119063-.24765.08096-.109537.200025-.176212.119062-.06667.290512-.06667t.290513.06667q.119062.06668.195262.176212.08096.104775.119063.24765.04286.142875.06191.295275.02381.147638.02381.300038.0048.147637.0048.271462 0 .1905-.01429.428625-.0095.233363-.0762.442913-.06191.204787-.204788.347662-.142875.142875-.40005.142875-.257175 0-.40005-.142875-.142875-.142875-.20955-.347662-.06191-.20955-.0762-.442913-.0095-.238125-.0095-.428625zm-.428625.0048q0 .185737.0095.385762.0095.200025.04762.390525.0381.1905.109538.36195.07144.166688.195262.295275.123825.128588.309563.204788.1905.07144.452437.07144.2667 0 .452438-.07144.185737-.0762.309562-.204788.123825-.128587.195263-.295275.07144-.17145.109537-.36195.0381-.1905.04762-.390525.0095-.200025.0095-.385762 0-.185738-.0095-.385763-.0095-.200025-.04762-.390525-.0381-.1905-.109537-.36195-.07144-.17145-.195263-.300037-.123825-.128588-.314325-.204788-.185737-.0762-.447675-.0762-.261937 0-.452437.0762-.185738.0762-.309563.204788-.123825.128587-.195262.300037-.07144.17145-.109538.36195-.0381.1905-.04762.390525-.0095.200025-.0095.385763zM100.4057 54.190415v-.271462q.005-.1524.0238-.300038.0238-.1524.0619-.295275.0429-.142875.11906-.24765.081-.109537.20002-.176212.11907-.06667.29052-.06667t.29051.06667q.11906.06668.19526.176212.081.104775.11906.24765.0429.142875.0619.295275.0238.147638.0238.300038.005.147637.005.271462 0 .1905-.0143.428625-.01.233363-.0762.442913-.0619.204787-.20478.347662-.14288.142875-.40005.142875-.25718 0-.40005-.142875-.14288-.142875-.20955-.347662-.0619-.20955-.0762-.442913-.01-.238125-.01-.428625zm-.428624.0048q0 .185737.0095.385762.0095.200025.04763.390525.0381.1905.10953.36195.0714.166688.19527.295275.12382.128588.30956.204788.1905.07144.45244.07144.2667 0 .45243-.07144.18574-.0762.30957-.204788.12382-.128587.19526-.295275.0714-.17145.10954-.36195.0381-.1905.0476-.390525.01-.200025.01-.385762 0-.185738-.01-.385763-.01-.200025-.0476-.390525-.0381-.1905-.10954-.36195-.0714-.17145-.19526-.300037-.12383-.128588-.31433-.204788-.18574-.0762-.44767-.0762-.26194 0-.45244.0762-.18574.0762-.30956.204788-.12383.128587-.19527.300037-.0714.17145-.10953.36195-.0381.1905-.04763.390525-.0095.200025-.0095.385763zM104.97123 54.566653l.40005-1.35255h-.30004l-.10954.300037q-.081-.214312-.22384-.300037-.14287-.09049-.30956-.09049-.25241 0-.46196.119063-.20479.119062-.35243.309562-.14287.1905-.22383.433388-.081.242887-.081.490537 0 .157163.0476.295275.0524.138113.13811.238125.0905.100013.21431.161925.12859.05715.28099.05715.17621 0 .32861-.09525.1524-.100012.26194-.223837h.0143q.01.157162.0953.233362.0857.0762.20955.0762.16669 0 .36195-.100012.19526-.100013.36195-.280988t.27622-.433387q.1143-.257175.1143-.566738 0-.32385-.12858-.59055-.12859-.271462-.35243-.461962-.21907-.195263-.51435-.3048-.29527-.109538-.62389-.109538-.36195 0-.6858.138113-.31908.138112-.56197.381-.23813.238125-.381.561975-.13811.319087-.13811.6858 0 .381.13811.709612.13811.32385.37624.566738.24288.238125.56673.376237.32862.138113.70485.138113.2286 0 .44768-.05715.21907-.05239.40957-.157163.19527-.109537.35719-.261937.16193-.157163.27623-.357188h-.30004q-.20479.261938-.52388.4191-.31432.157163-.65722.157163-.30004 0-.56674-.1143-.2667-.119063-.47149-.319088-.20002-.204787-.31908-.481012-.1143-.276225-.1143-.595313 0-.314325.10953-.59055.1143-.276225.30957-.485775.19526-.20955.4572-.328612.2667-.123825.5715-.123825.25241 0 .48101.08573.23336.08572.41434.24765.18097.157162.28575.385762.10953.2286.10953.509588 0 .1905-.0619.385762-.0619.195263-.15716.352425-.0952.157163-.21431.257175-.1143.100013-.22384.100013-.1143 0-.1143-.147638 0-.05239.0143-.1143.019-.06667.0381-.128587zm-.54293-1.119188q.0762 0 .14288.0381.0714.0381.12382.100013.0572.05715.0857.138112.0333.08096.0333.166688 0 .147637-.0571.32385-.0572.176212-.15716.333375-.10001.1524-.23336.257175-.13335.100012-.29051.100012-.18098 0-.29528-.128587-.1143-.13335-.1143-.333375 0-.157163.0571-.328613.0572-.176212.15716-.32385.10002-.147637.23813-.242887.14287-.100013.30956-.100013zM107.51336 56.18114q-.0714.180975-.14287.3048-.0667.123825-.1524.200025-.081.08096-.18574.1143-.10001.0381-.23336.0381-.0714 0-.14288-.0095-.0714-.0095-.13811-.03334v-.371475q.0524.02381.11906.0381.0714.01905.11906.01905.12383 0 .20479-.06191.0857-.05715.12859-.166687l.16669-.414338-.97632-2.447925h.4572l.71914 2.014538h.01l.69056-2.014538h.42862zM111.10905 55.843003q-.10478.06191-.29052.06191-.15716 0-.25241-.08573-.0905-.09049-.0905-.290512-.16668.200025-.39052.290512-.21908.08573-.47625.08573-.16669 0-.31909-.0381-.14764-.0381-.25717-.119062-.10954-.08096-.17622-.20955-.0619-.13335-.0619-.319088 0-.20955.0714-.3429t.18574-.214312q.11906-.08573.2667-.128588.1524-.04286.30956-.07144.16669-.03334.31432-.04762.1524-.01905.2667-.04763.1143-.03334.18098-.09049.0667-.06191.0667-.176212 0-.13335-.0524-.214313-.0476-.08096-.12859-.123825-.0762-.04286-.17621-.05715-.0953-.01429-.1905-.01429-.25718 0-.42863.100012-.17145.09525-.18574.366713h-.40481q.01-.2286.0953-.385763.0857-.157162.2286-.252412.14288-.100013.32385-.142875.18574-.04286.39529-.04286.16669 0 .32861.02381.16669.02381.30004.100012.13335.07144.21431.204788.081.13335.081.347662v1.266825q0 .142875.0143.20955.0191.06667.1143.06667.0524 0 .12383-.02381zm-.65723-1.262063q-.0762.05715-.20002.08573-.12383.02381-.26194.04286-.13335.01429-.27146.0381-.13812.01905-.24765.06668-.10954.04762-.18098.138112-.0667.08572-.0667.238125 0 .100013.0381.17145.0429.06668.10477.109538.0667.04286.1524.06191.0857.01905.18098.01905.20002 0 .3429-.05239.14287-.05715.23336-.138113.0905-.08572.13335-.180975.0429-.100012.0429-.185737zM111.4858 52.452103v3.400425h.40482v-1.39065q0-.166688.0429-.3048.0476-.142875.13811-.24765.0905-.104775.22384-.161925.13811-.05715.32385-.05715.23336 0 .36671.13335.13335.13335.13335.36195v1.666875h.40481v-1.61925q0-.200025-.0429-.36195-.0381-.166688-.13811-.28575-.10001-.119063-.26194-.185738-.16192-.06667-.40481-.06667-.10954 0-.2286.02381-.1143.02381-.22384.0762-.10477.04763-.1905.128587-.0857.0762-.13335.1905h-.01v-1.300162zM114.43208 54.623803q0-.223838.0572-.395288.0619-.176212.16669-.295275.10477-.119062.24289-.180975.14287-.06191.30003-.06191.15717 0 .29528.06191.14287.06191.24765.180975.10477.119063.16192.295275.0619.17145.0619.395288 0 .223837-.0619.40005-.0571.17145-.16192.290512-.10478.1143-.24765.176213-.13811.06191-.29528.06191-.15716 0-.30003-.06191-.13812-.06191-.24289-.176213-.10478-.119062-.16669-.290512-.0572-.176213-.0572-.40005zm-.42862 0q0 .271462.0762.504825.0762.233362.2286.409575.1524.17145.37623.271462.22384.09525.51435.09525.29528 0 .51435-.09525.22384-.100012.37624-.271462.1524-.176213.2286-.409575.0762-.233363.0762-.504825 0-.271463-.0762-.504825-.0762-.238125-.2286-.409575-.1524-.176213-.37624-.276225-.21907-.100013-.51435-.100013-.29051 0-.51435.100013-.22383.100012-.37623.276225-.1524.17145-.2286.409575-.0762.233362-.0762.504825zM117.1668 54.623803q0-.223838.0572-.395288.0619-.176212.16669-.295275.10477-.119062.24288-.180975.14288-.06191.30004-.06191.15716 0 .29528.06191.14287.06191.24765.180975.10477.119063.16192.295275.0619.17145.0619.395288 0 .223837-.0619.40005-.0571.17145-.16192.290512-.10478.1143-.24765.176213-.13812.06191-.29528.06191t-.30004-.06191q-.13811-.06191-.24288-.176213-.10478-.119062-.16669-.290512-.0572-.176213-.0572-.40005zm-.42863 0q0 .271462.0762.504825.0762.233362.2286.409575.1524.17145.37624.271462.22384.09525.51435.09525.29528 0 .51435-.09525.22384-.100012.37624-.271462.1524-.176213.2286-.409575.0762-.233363.0762-.504825 0-.271463-.0762-.504825-.0762-.238125-.2286-.409575-.1524-.176213-.37624-.276225-.21907-.100013-.51435-.100013-.29051 0-.51435.100013-.22384.100012-.37624.276225-.1524.17145-.2286.409575-.0762.233362-.0762.504825zM119.69673 55.32389v.528638h.52863v-.528638ZM122.59873 54.18089h.4191q-.0238-.219075-.1143-.376237-.0905-.161925-.23337-.2667-.13811-.104775-.32385-.1524-.18097-.05239-.39052-.05239-.29051 0-.50959.104775-.21907.100013-.36671.280988-.14288.176212-.21431.4191-.0714.238125-.0714.51435 0 .276225.0714.509587.0762.2286.21907.395288.14764.166687.36195.257175.21908.09049.50006.09049.47149 0 .74295-.24765.27623-.24765.3429-.70485h-.41433q-.0381.28575-.20955.442913-.16669.157162-.46673.157162-.1905 0-.32861-.0762t-.22384-.200025q-.0857-.128587-.12859-.290512-.0381-.161925-.0381-.333375 0-.185738.0381-.357188.0381-.176212.12383-.309562.0905-.13335.23812-.214313.14764-.08096.36672-.08096.25717 0 .40957.128587.1524.128588.20003.36195zM123.78035 54.623803q0-.223838.0572-.395288.0619-.176212.16668-.295275.10478-.119062.24289-.180975.14288-.06191.30004-.06191.15716 0 .29527.06191.14288.06191.24765.180975.10478.119063.16193.295275.0619.17145.0619.395288 0 .223837-.0619.40005-.0571.17145-.16193.290512-.10477.1143-.24765.176213-.13811.06191-.29527.06191-.15716 0-.30004-.06191-.13811-.06191-.24289-.176213-.10477-.119062-.16668-.290512-.0572-.176213-.0572-.40005zm-.42863 0q0 .271462.0762.504825.0762.233362.2286.409575.1524.17145.37624.271462.22384.09525.51435.09525.29527 0 .51435-.09525.22384-.100012.37624-.271462.1524-.176213.2286-.409575.0762-.233363.0762-.504825 0-.271463-.0762-.504825-.0762-.238125-.2286-.409575-.1524-.176213-.37624-.276225-.21908-.100013-.51435-.100013-.29051 0-.51435.100013-.22384.100012-.37624.276225-.1524.17145-.2286.409575-.0762.233362-.0762.504825zM126.21979 53.390315v2.462213h.40481v-1.533525q0-.07144.0333-.176213.0381-.109537.1143-.20955.081-.100012.20479-.17145.12859-.07144.3048-.07144.13811 0 .22384.04286.0905.0381.14287.1143.0524.07144.0714.17145.0238.100013.0238.219075v1.614488h.40481v-1.533525q0-.28575.17145-.4572t.47149-.17145q.14764 0 .23813.04286.0952.04286.14763.119063.0524.07144.0714.17145.019.100012.019.214312v1.614488h.40481V54.04754q0-.1905-.0619-.32385-.0572-.138112-.16669-.223837-.10477-.08573-.25717-.123825-.14764-.04286-.33338-.04286-.24288 0-.44767.109538-.20003.109537-.32385.309562-.0762-.2286-.26194-.32385-.18574-.09525-.41434-.09525-.51911 0-.79533.4191h-.01v-.36195z" style="font-size:4.7625px;font-family:'Helvetica Neue';-inkscape-font-specification:'Helvetica Neue'" transform="translate(-62.945281 -52.371138)"/></g></g></svg>