<svg width="504.39548" height="33.839981" viewBox="0 0 133.45464 8.9534946" xmlns="http://www.w3.org/2000/svg"><defs><path id="a" d="M-57.243935-5.2039943h333.05563v81.529243h-333.05563z"/></defs><g style="display:inline"><g aria-label="juergen_ehret2000@yahoo.com" style="font-size:9.525px;line-height:1.25;font-family:Lato;-inkscape-font-specification:Lato;text-align:center;letter-spacing:0;text-anchor:middle;display:inline;fill:#0070c9;stroke-width:.264583"><path d="M55.73231 49.996482v-.9906h-.809625v.9906zm0 6.429375v-5.54355h-.809625v5.4102q0 .381-.09525.523875-.09525.1524-.36195.1524h-.17145q-.0381 0-.06668-.0095-.0381 0-.08572-.0095v.695325q.1905.0381.409575.0381.542925 0 .85725-.3048.32385-.295275.32385-.9525zM61.07256 55.806732v-4.924425h-.809625v2.7813q0 .333375-.09525.619125-.08572.276225-.2667.485775-.180975.20955-.4572.32385-.2667.1143-.638175.1143-.466725 0-.733424-.2667-.2667-.2667-.2667-.7239v-3.33375h-.809625v3.2385q0 .40005.0762.733425.08573.32385.28575.561975.200025.238125.523875.371475.323849.123825.809624.123825.542925 0 .942975-.20955.40005-.219075.657225-.676275h.01905v.78105zM65.717338 52.873032h-2.828925q.01905-.28575.123825-.5334.104775-.257175.28575-.447675t.428625-.295275q.257175-.1143.5715-.1143.3048 0 .55245.1143.257175.104775.43815.295275.1905.180975.295275.43815.1143.257175.13335.542925zm.78105 1.3716h-.8001q-.104775.485775-.43815.7239-.32385.238125-.8382.238125-.40005 0-.695325-.13335-.295275-.13335-.485775-.352425-.1905-.2286-.276225-.51435-.08572-.295275-.0762-.619125h3.686175q.01905-.447675-.08573-.942975-.09525-.4953-.36195-.9144-.257175-.4191-.695325-.6858-.428625-.276225-1.08585-.276225-.504825 0-.93345.1905-.4191.1905-.733425.5334-.3048.3429-.47625.809625-.17145.466725-.17145 1.0287.01905.561975.161925 1.038225.1524.47625.447675.81915.295275.3429.7239.5334.43815.1905 1.0287.1905.8382 0 1.39065-.4191t.714375-1.247775zM67.385255 50.882307v4.924425h.809625v-2.19075q0-.47625.09525-.8382.09525-.371475.3048-.62865.20955-.257175.55245-.390525.3429-.13335.828675-.13335v-.85725q-.657225-.01905-1.08585.2667-.428625.28575-.723899.885825h-.01905v-1.038225zM74.579607 55.387632v-4.505325h-.762v.70485h-.0095q-.219075-.409575-.6096-.6096-.390525-.20955-.85725-.20955-.638175 0-1.076325.24765-.43815.238125-.70485.619125-.2667.371475-.381.8382-.1143.4572-.1143.89535 0 .504825.13335.962025.142875.447675.4191.790575.276225.333375.6858.5334.409575.200025.962025.200025.47625 0 .89535-.20955.428625-.219075.638175-.676275h.01905v.32385q0 .409575-.08572.752475-.0762.3429-.257175.581025-.180975.24765-.4572.381-.276225.142875-.676275.142875-.200025 0-.4191-.04763-.219075-.0381-.409575-.13335-.180975-.09525-.314325-.24765-.123825-.1524-.13335-.371475h-.809625q.01905.40005.20955.676275.1905.276225.47625.447675.295275.17145.6477.24765.36195.0762.70485.0762 1.1811 0 1.73355-.600075.55245-.600075.55245-1.80975zm-2.26695-.238125q-.40005 0-.66675-.161925-.2667-.17145-.428625-.43815-.161925-.276225-.2286-.6096-.06668-.333375-.06668-.66675 0-.352425.0762-.676275.08573-.32385.257175-.5715.180975-.24765.4572-.390525.276225-.1524.66675-.1524.381 0 .6477.1524.2667.1524.428625.409575.17145.24765.24765.561975.0762.314325.0762.638175 0 .3429-.08572.6858-.0762.3429-.24765.619125-.17145.2667-.4572.43815-.276225.161925-.676275.161925zM79.22349 52.873032h-2.828925q.01905-.28575.123825-.5334.104775-.257175.28575-.447675t.428625-.295275q.257175-.1143.5715-.1143.3048 0 .55245.1143.257175.104775.43815.295275.1905.180975.295275.43815.1143.257175.13335.542925zm.78105 1.3716h-.8001q-.104775.485775-.43815.7239-.32385.238125-.8382.238125-.40005 0-.695325-.13335-.295275-.13335-.485775-.352425-.1905-.2286-.276225-.51435-.08572-.295275-.0762-.619125h3.686175q.01905-.447675-.08573-.942975-.09525-.4953-.36195-.9144-.257175-.4191-.695325-.6858-.428625-.276225-1.08585-.276225-.504825 0-.93345.1905-.4191.1905-.733425.5334-.3048.3429-.47625.809625-.17145.466725-.17145 1.0287.01905.561975.161925 1.038225.1524.47625.447675.81915.295275.3429.7239.5334.43815.1905 1.0287.1905.8382 0 1.39065-.4191t.714375-1.247775zM80.919982 50.882307v4.924425h.809625v-2.7813q0-.333375.08572-.6096.09525-.28575.276225-.4953.180975-.20955.447675-.32385.276225-.1143.6477-.1143.466725 0 .733425.2667t.2667.7239v3.33375h.809625v-3.2385q0-.40005-.08573-.7239-.0762-.333375-.276225-.5715-.200025-.238125-.523875-.371475-.32385-.13335-.809625-.13335-1.095375 0-1.6002.89535h-.01905v-.78105zM85.612384 56.511582v.47625h4.762499v-.47625zM94.403959 52.873032h-2.828925q.01905-.28575.123825-.5334.104775-.257175.28575-.447675t.428625-.295275q.257175-.1143.5715-.1143.3048 0 .55245.1143.257175.104775.43815.295275.1905.180975.295275.43815.1143.257175.13335.542925zm.78105 1.3716h-.8001q-.104775.485775-.43815.7239-.32385.238125-.8382.238125-.40005 0-.695325-.13335-.295275-.13335-.485775-.352425-.1905-.2286-.276225-.51435-.08572-.295275-.0762-.619125h3.686175q.01905-.447675-.08572-.942975-.09525-.4953-.36195-.9144-.257175-.4191-.695325-.6858-.428625-.276225-1.08585-.276225-.504825 0-.93345.1905-.4191.1905-.733425.5334-.3048.3429-.47625.809625-.17145.466725-.17145 1.0287.01905.561975.161925 1.038225.1524.47625.447675.81915.295275.3429.7239.5334.43815.1905 1.0287.1905.8382 0 1.39065-.4191t.714375-1.247775zM96.100451 49.005882v6.80085h.809625v-2.7813q0-.333375.08572-.6096.09525-.28575.276225-.4953.180975-.20955.447675-.32385.276225-.1143.6477-.1143.466725 0 .733425.2667t.2667.7239v3.33375h.809619v-3.2385q0-.40005-.0857-.7239-.0762-.333375-.276224-.5715-.200025-.238125-.523875-.371475-.32385-.13335-.809625-.13335-.219075 0-.4572.04763-.2286.04762-.447675.1524-.20955.09525-.381.257175-.17145.1524-.2667.381h-.01905v-2.600325zM101.37388 50.882307v4.924425h.80962v-2.19075q0-.47625.0953-.8382.0952-.371475.3048-.62865.20955-.257175.55245-.390525.3429-.13335.82868-.13335v-.85725q-.65723-.01905-1.08585.2667-.42863.28575-.7239.885825h-.019v-1.038225zM107.82438 52.873032h-2.82893q.019-.28575.12383-.5334.10477-.257175.28575-.447675.18097-.1905.42862-.295275.25718-.1143.5715-.1143.3048 0 .55245.1143.25718.104775.43815.295275.1905.180975.29528.43815.1143.257175.13335.542925zm.78105 1.3716h-.8001q-.10478.485775-.43815.7239-.32385.238125-.8382.238125-.40005 0-.69533-.13335-.29527-.13335-.48577-.352425-.1905-.2286-.27623-.51435-.0857-.295275-.0762-.619125h3.68618q.0191-.447675-.0857-.942975-.0953-.4953-.36195-.9144-.25717-.4191-.69532-.6858-.42863-.276225-1.08585-.276225-.50483 0-.93345.1905-.4191.1905-.73343.5334-.3048.3429-.47625.809625-.17145.466725-.17145 1.0287.0191.561975.16193 1.038225.1524.47625.44767.81915.29528.3429.7239.5334.43815.1905 1.0287.1905.8382 0 1.39065-.4191t.71438-1.247775zM110.63753 50.882307v-1.476375h-.80962v1.476375h-.8382v.714375h.8382v3.133725q0 .3429.0667.55245.0667.20955.20003.32385.14287.1143.36195.161925.2286.0381.54292.0381h.61913v-.714375h-.37148q-.1905 0-.31432-.0095-.1143-.01905-.18098-.06668-.0667-.04762-.0952-.13335-.0191-.08572-.0191-.2286v-3.057525h.98108v-.714375zM112.31825 51.444282h.80962q-.01-.3048.0571-.600075.0762-.3048.23813-.542925.16192-.238125.40957-.381.25718-.1524.6096-.1524.2667 0 .50483.08572.23812.08573.40957.24765.18098.161925.28575.390525.10478.219075.10478.4953 0 .352425-.1143.619125-.10478.2667-.32385.4953-.20955.2286-.5334.4572-.32385.219075-.75248.485775-.35242.20955-.67627.447675t-.58103.55245q-.25717.314325-.42862.74295-.16193.4191-.20955 1.019175h4.41007v-.714375h-3.4671q.0572-.314325.23813-.55245.1905-.24765.44767-.4572.2667-.20955.58103-.390525.31432-.1905.62865-.381.31432-.200025.6096-.4191.29527-.219075.52387-.485775.2286-.276225.36195-.619125.14288-.3429.14288-.790575 0-.47625-.17145-.8382-.16193-.36195-.44768-.600075-.28575-.24765-.67627-.371475-.381-.13335-.81915-.13335-.5334 0-.9525.180975-.4191.180975-.70485.504825-.27623.314325-.40958.752475-.13335.43815-.10477.9525zM118.45845 52.482507v-.542925q.01-.3048.0476-.600075.0476-.3048.12382-.59055.0857-.28575.23813-.4953.16192-.219075.40005-.352425.23812-.13335.58102-.13335t.58103.13335q.23812.13335.39052.352425.16193.20955.23813.4953.0857.28575.12382.59055.0476.295275.0476.600075.01.295275.01.542925 0 .381-.0286.85725-.019.466725-.1524.885825-.12383.409575-.40958.695325-.28575.28575-.8001.28575-.51435 0-.8001-.28575-.28575-.28575-.4191-.695325-.12382-.4191-.1524-.885825-.0191-.47625-.0191-.85725zm-.85725.0095q0 .371475.019.771525.0191.40005.0953.78105.0762.381.21908.7239.14287.333375.39052.59055.24765.257175.61913.409575.381.142875.90487.142875.5334 0 .90488-.142875.37147-.1524.61912-.409575.24765-.257175.39053-.59055.14287-.3429.21907-.7239.0762-.381.0953-.78105.019-.40005.019-.771525t-.019-.771525q-.0191-.40005-.0953-.78105-.0762-.381-.21907-.7239-.14288-.3429-.39053-.600075-.24765-.257175-.62865-.409575-.37147-.1524-.89535-.1524-.52387 0-.90487.1524-.37148.1524-.61913.409575-.24765.257175-.39052.600075-.14288.3429-.21908.7239-.0762.381-.0953.78105-.019.40005-.019.771525zM123.76045 52.482507v-.542925q.01-.3048.0476-.600075.0476-.3048.12382-.59055.0857-.28575.23813-.4953.16192-.219075.40005-.352425.23812-.13335.58102-.13335t.58103.13335q.23812.13335.39052.352425.16193.20955.23813.4953.0857.28575.12382.59055.0476.295275.0476.600075.01.295275.01.542925 0 .381-.0286.85725-.0191.466725-.1524.885825-.12383.409575-.40958.695325-.28575.28575-.8001.28575-.51435 0-.8001-.28575-.28575-.28575-.4191-.695325-.12382-.4191-.1524-.885825-.019-.47625-.019-.85725zm-.85725.0095q0 .371475.0191.771525.019.40005.0952.78105t.21908.7239q.14287.333375.39052.59055.24765.257175.61913.409575.381.142875.90487.142875.5334 0 .90488-.142875.37147-.1524.61912-.409575.24765-.257175.39053-.59055.14287-.3429.21907-.7239.0762-.381.0952-.78105.0191-.40005.0191-.771525t-.0191-.771525q-.019-.40005-.0952-.78105t-.21907-.7239q-.14288-.3429-.39053-.600075-.24765-.257175-.62865-.409575-.37147-.1524-.89535-.1524-.52387 0-.90487.1524-.37148.1524-.61913.409575-.24765.257175-.39052.600075-.14288.3429-.21908.7239-.0762.381-.0952.78105-.0191.40005-.0191.771525zM129.06246 52.482507v-.542925q.01-.3048.0476-.600075.0476-.3048.12383-.59055.0857-.28575.23812-.4953.16193-.219075.40005-.352425.23813-.13335.58103-.13335.3429 0 .58102.13335.23813.13335.39053.352425.16192.20955.23812.4953.0857.28575.12383.59055.0476.295275.0476.600075.01.295275.01.542925 0 .381-.0286.85725-.019.466725-.1524.885825-.12382.409575-.40957.695325-.28575.28575-.8001.28575-.51435 0-.8001-.28575-.28575-.28575-.4191-.695325-.12383-.4191-.1524-.885825-.0191-.47625-.0191-.85725zm-.85725.0095q0 .371475.019.771525.0191.40005.0953.78105.0762.381.21907.7239.14288.333375.39053.59055.24765.257175.61912.409575.381.142875.90488.142875.5334 0 .90487-.142875.37148-.1524.61913-.409575.24765-.257175.39052-.59055.14288-.3429.21908-.7239.0762-.381.0952-.78105.019-.40005.019-.771525t-.019-.771525q-.019-.40005-.0952-.78105t-.21908-.7239q-.14287-.3429-.39052-.600075-.24765-.257175-.62865-.409575-.37148-.1524-.89535-.1524-.52388 0-.90488.1524-.37147.1524-.61912.409575-.24765.257175-.39053.600075-.14287.3429-.21907.7239-.0762.381-.0953.78105-.019.40005-.019.771525zM138.19351 53.234982l.8001-2.7051h-.60008l-.21907.600075q-.16193-.428625-.44768-.600075-.28575-.180975-.61912-.180975-.50483 0-.92393.238125-.40957.238125-.70485.619125-.28575.381-.44767.866775-.16193.485775-.16193.981075 0 .314325.0952.59055.10478.276225.27623.47625.18097.200025.42862.32385.25718.1143.56198.1143.35242 0 .65722-.1905.3048-.200025.52388-.447675h.0286q.019.314325.1905.466725.17145.1524.4191.1524.33338 0 .7239-.200025.39053-.200025.7239-.561975.33338-.36195.55245-.866775.2286-.51435.2286-1.133475 0-.6477-.25717-1.1811-.25718-.542925-.70485-.923925-.43815-.390525-1.0287-.6096-.59055-.219075-1.24778-.219075-.7239 0-1.3716.276225-.63817.276225-1.12395.762-.47625.47625-.762 1.12395-.27622.638175-.27622 1.3716 0 .762.27622 1.419225.27623.6477.75248 1.133475.48577.47625 1.13347.752475.65723.276225 1.4097.276225.4572 0 .89535-.1143.43815-.104775.81915-.314325.39053-.219075.71438-.523875.32385-.314325.55245-.714375h-.60008q-.40957.523875-1.04775.8382-.62865.314325-1.31445.314325-.60007 0-1.13347-.2286-.5334-.238125-.94298-.638175-.40005-.409575-.63817-.962025-.2286-.55245-.2286-1.190625 0-.62865.21907-1.1811.2286-.55245.61913-.97155.39052-.4191.9144-.657225.5334-.24765 1.143-.24765.50482 0 .96202.17145.46673.17145.82868.4953.36195.314325.5715.771525.21907.4572.21907 1.019175 0 .381-.12382.771525-.12383.390525-.31433.70485-.1905.314325-.42862.51435-.2286.200025-.44768.200025-.2286 0-.2286-.295275 0-.104775.0286-.2286.0381-.13335.0762-.257175zm-1.08585-2.238375q.1524 0 .28575.0762.14287.0762.24765.200025.1143.1143.17145.276225.0667.161925.0667.333375 0 .295275-.1143.6477-.1143.352425-.31432.66675-.20003.3048-.46673.51435-.2667.200025-.58102.200025-.36195 0-.59055-.257175-.2286-.2667-.2286-.66675 0-.314325.1143-.657225.1143-.352425.31432-.6477.20003-.295275.47625-.485775.28575-.200025.61913-.200025zM143.27777 56.463957q-.14287.36195-.28575.6096-.13335.24765-.3048.40005-.16192.161925-.37147.2286-.20003.0762-.46673.0762-.14287 0-.28575-.01905-.14287-.01905-.27622-.06668v-.74295q.10477.04763.23812.0762.14288.0381.23813.0381.24765 0 .40957-.123825.17145-.1143.25718-.333375l.33337-.828675-1.95262-4.89585h.9144l1.43827 4.029075h.0191l1.38113-4.029075h.85725zM150.46915 55.787682q-.20955.123825-.58103.123825-.31432 0-.50482-.17145-.18098-.180975-.18098-.581025-.33337.40005-.78105.581025-.43815.17145-.9525.17145-.33337 0-.63817-.0762-.29528-.0762-.51435-.238125-.21908-.161925-.35243-.4191-.12382-.2667-.12382-.638175 0-.4191.14287-.6858.14288-.2667.37148-.428625.23812-.17145.5334-.257175.3048-.08572.61912-.142875.33338-.06668.62865-.09525.3048-.0381.5334-.09525.2286-.06668.36195-.180975.13335-.123825.13335-.352425 0-.2667-.10477-.428625-.0952-.161925-.25718-.24765-.1524-.08572-.35242-.1143-.1905-.02857-.381-.02857-.51435 0-.85725.200025-.3429.1905-.37148.733425h-.80962q.0191-.4572.1905-.771525.17145-.314325.4572-.504825.28575-.200025.6477-.28575.37147-.08573.79057-.08573.33338 0 .65723.04763.33337.04762.60007.200025.2667.142875.42863.409575.16192.2667.16192.695325v2.53365q0 .28575.0286.4191.0381.13335.2286.13335.10477 0 .24765-.04762zm-1.31445-2.524125q-.1524.1143-.40005.17145-.24765.04763-.52388.08573-.2667.02857-.54292.0762-.27623.0381-.4953.13335-.21908.09525-.36195.276225-.13335.17145-.13335.47625 0 .200025.0762.3429.0857.13335.20955.219075.13335.08572.3048.123825.17145.0381.36195.0381.40005 0 .6858-.104775.28575-.1143.46672-.276225.18098-.17145.2667-.36195.0857-.200025.0857-.371475zM151.22266 49.005882v6.80085h.80963v-2.7813q0-.333375.0857-.6096.0952-.28575.27623-.4953.18097-.20955.44767-.32385.27623-.1143.6477-.1143.46673 0 .73343.2667.2667.2667.2667.7239v3.33375h.80962v-3.2385q0-.40005-.0857-.7239-.0762-.333375-.27623-.5715-.20002-.238125-.52387-.371475-.32385-.13335-.80963-.13335-.21907 0-.4572.04763-.2286.04762-.44767.1524-.20955.09525-.381.257175-.17145.1524-.2667.381h-.0191v-2.600325zM157.11521 53.349282q0-.447675.1143-.790575.12383-.352425.33338-.59055.20955-.238125.48577-.36195.28575-.123825.60008-.123825.31432 0 .59055.123825.28575.123825.4953.36195.20955.238125.32385.59055.12382.3429.12382.790575 0 .447675-.12382.8001-.1143.3429-.32385.581025-.20955.2286-.4953.352425-.27623.123825-.59055.123825-.31433 0-.60008-.123825-.27622-.123825-.48577-.352425-.20955-.238125-.33338-.581025-.1143-.352425-.1143-.8001zm-.85725 0q0 .542925.1524 1.00965.1524.466725.4572.81915.3048.3429.75248.542925.44767.1905 1.0287.1905.59055 0 1.0287-.1905.44767-.200025.75247-.542925.3048-.352425.4572-.81915.1524-.466725.1524-1.00965 0-.542925-.1524-1.00965-.1524-.47625-.4572-.81915-.3048-.352425-.75247-.55245-.43815-.200025-1.0287-.200025-.58103 0-1.0287.200025-.44768.200025-.75248.55245-.3048.3429-.4572.81915-.1524.466725-.1524 1.00965zM162.58465 53.349282q0-.447675.1143-.790575.12383-.352425.33338-.59055.20955-.238125.48577-.36195.28575-.123825.60008-.123825.31432 0 .59055.123825.28575.123825.4953.36195.20955.238125.32385.59055.12382.3429.12382.790575 0 .447675-.12382.8001-.1143.3429-.32385.581025-.20955.2286-.4953.352425-.27623.123825-.59055.123825-.31433 0-.60008-.123825-.27622-.123825-.48577-.352425-.20955-.238125-.33338-.581025-.1143-.352425-.1143-.8001zm-.85725 0q0 .542925.1524 1.00965.1524.466725.4572.81915.3048.3429.75248.542925.44767.1905 1.0287.1905.59055 0 1.0287-.1905.44767-.200025.75247-.542925.3048-.352425.4572-.81915.1524-.466725.1524-1.00965 0-.542925-.1524-1.00965-.1524-.47625-.4572-.81915-.3048-.352425-.75247-.55245-.43815-.200025-1.0287-.200025-.58103 0-1.0287.200025-.44768.200025-.75248.55245-.3048.3429-.4572.81915-.1524.466725-.1524 1.00965zM167.64451 54.749457v1.057275h1.05727v-1.057275zM173.44851 52.463457h.8382q-.0476-.43815-.2286-.752475-.18098-.32385-.46673-.5334-.27622-.20955-.6477-.3048-.36195-.104775-.78105-.104775-.58102 0-1.01917.20955-.43815.200025-.73343.561975-.28575.352425-.42862.8382-.14288.47625-.14288 1.0287 0 .55245.14288 1.019175.1524.4572.43815.790575.29527.333375.7239.51435.43815.180975 1.00012.180975.94298 0 1.4859-.4953.55245-.4953.6858-1.4097h-.82867q-.0762.5715-.4191.885825-.33338.314325-.93345.314325-.381 0-.65723-.1524-.27622-.1524-.44767-.40005-.17145-.257175-.25718-.581025-.0762-.32385-.0762-.66675 0-.371475.0762-.714375.0762-.352425.24765-.619125.18098-.2667.47625-.428625.29528-.161925.73343-.161925.51435 0 .81915.257175.3048.257175.40005.7239zM175.81175 53.349282q0-.447675.1143-.790575.12382-.352425.33337-.59055.20955-.238125.48578-.36195.28575-.123825.60007-.123825.31433 0 .59055.123825.28575.123825.4953.36195.20955.238125.32385.59055.12383.3429.12383.790575 0 .447675-.12383.8001-.1143.3429-.32385.581025-.20955.2286-.4953.352425-.27622.123825-.59055.123825-.31432 0-.60007-.123825-.27623-.123825-.48578-.352425-.20955-.238125-.33337-.581025-.1143-.352425-.1143-.8001zm-.85725 0q0 .542925.1524 1.00965.1524.466725.4572.81915.3048.3429.75247.542925.44768.1905 1.0287.1905.59055 0 1.0287-.1905.44768-.200025.75248-.542925.3048-.352425.4572-.81915.1524-.466725.1524-1.00965 0-.542925-.1524-1.00965-.1524-.47625-.4572-.81915-.3048-.352425-.75248-.55245-.43815-.200025-1.0287-.200025-.58102 0-1.0287.200025-.44767.200025-.75247.55245-.3048.3429-.4572.81915-.1524.466725-.1524 1.00965zM180.69063 50.882307v4.924425h.80963v-3.06705q0-.142875.0667-.352425.0762-.219075.2286-.4191.16193-.200025.40958-.3429.25717-.142875.6096-.142875.27622 0 .44767.08572.18098.0762.28575.2286.10478.142875.14288.3429.0476.200025.0476.43815v3.228975h.80963v-3.06705q0-.5715.3429-.9144t.94297-.3429q.29528 0 .47625.08572.1905.08573.29528.238125.10477.142875.14287.3429.0381.200025.0381.428625v3.228975h.80963v-3.609975q0-.381-.12383-.6477-.1143-.276225-.33337-.447675-.20955-.17145-.51435-.24765-.29528-.08573-.66675-.08573-.48578 0-.89535.219075-.40005.219075-.6477.619125-.1524-.4572-.52388-.6477-.37147-.1905-.82867-.1905-1.03823 0-1.59068.8382h-.019v-.7239z" style="font-family:'Helvetica Neue';-inkscape-font-specification:'Helvetica Neue'" transform="translate(-54.141635 -48.843957)"/></g></g></svg>