<svg width="87.766556mm" height="77.900688mm" viewBox="0 0 87.766557 77.900688" xmlns="http://www.w3.org/2000/svg"><g style="display:inline"><path style="fill:#fff;stroke-width:.318001;stop-color:#000" d="M27.797212 40.111633h64.836679c.3878 0 .7.3122.7.7v5.214584c0 .3878-.3122.7-.7.7H27.797212c-.3878 0-.7-.3122-.7-.7v-5.214584c0-.3878.3122-.7.7-.7z" transform="translate(-16.332274 -18.206158)"/><path style="display:inline;fill:#fff;stroke-width:.318001;stop-color:#000" d="M27.797212 67.586784h64.836679c.3878 0 .7.3122.7.7v5.214584c0 .3878-.3122.7-.7.7H27.797212c-.3878 0-.7-.3122-.7-.7v-5.214584c0-.3878.3122-.7.7-.7z" transform="translate(-16.332274 -18.206158)"/></g></svg>