<svg aria-hidden="true" data-prefix="fab" data-icon="linkedin" class="svg-inline--fa fa-linkedin" viewBox="0 0 385.5118 105.82678" width="102mm" height="28mm" xmlns="http://www.w3.org/2000/svg"><g style="display:inline"><path fill="currentColor" d="M374.45271.22042205h-87.11388c-3.99168 0-7.23492 3.28860005-7.23492 7.32563995v86.95512c0 4.03704 3.24324 7.325638 7.23492 7.325638h87.11388c3.99168 0 7.2576-3.288598 7.2576-7.325638V7.546062c0-4.0370399-3.26592-7.32563995-7.2576-7.32563995zM310.81263 87.311622h-15.05952v-48.48984h15.0822v48.48984zm-7.52976-55.1124c-4.83084 0-8.7318-3.92364-8.7318-8.7318s3.90096-8.7318 8.7318-8.7318c4.80816 0 8.7318 3.92364 8.7318 8.7318 0 4.83084-3.90096 8.7318-8.7318 8.7318zm63.98028 55.1124h-15.05952v-23.5872c0-5.62464-.1134-12.85956-7.8246-12.85956-7.84728 0-9.04932 6.1236-9.04932 12.45132v23.99544h-15.05952v-48.48984h14.44716v6.62256h.20412c2.01852-3.81024 6.94008-7.8246 14.26572-7.8246 15.24096 0 18.07596 10.04724 18.07596 23.11092z" style="fill:#333;fill-opacity:1;stroke-width:.2268" transform="translate(1.7795277 1.8897654)"/><g aria-label="Linked" style="font-size:96px;line-height:1.25;font-family:Lato;-inkscape-font-specification:'Lato, Normal';text-align:center;letter-spacing:0;text-anchor:middle;fill:#333"><path d="M11.3339849 80.1053844h29.7599998v7.824H2.02198485v-68.784h9.31200005ZM59.4944847 39.3053844v48.624h-8.544v-48.624zm1.92-15.264q0 1.248-.528 2.352-.48 1.056-1.344 1.92-.816.816-1.92 1.296-1.104.48-2.352.48-1.248 0-2.352-.48-1.056-.48-1.92-1.296-.816-.864-1.296-1.92-.48-1.104-.48-2.352 0-1.248.48-2.352.48-1.152 1.296-1.968.864-.864 1.92-1.344 1.104-.48 2.352-.48 1.248 0 2.352.48 1.104.48 1.92 1.344.864.816 1.344 1.968.528 1.104.528 2.352zM74.5529847 87.9293844v-48.624h5.088q1.824 0 2.304 1.776l.672 5.28q3.168-3.504 7.056-5.664 3.936-2.16 9.072-2.16 3.984003 0 7.008003 1.344 3.072 1.296 5.088 3.744 2.064 2.4 3.12 5.808t1.056 7.536v30.96h-8.544v-30.96q0-5.52-2.544-8.544-2.496003-3.072-7.680003-3.072-3.792 0-7.104 1.824-3.264 1.824-6.048 4.944v35.808zM136.8704877 17.2253844v41.616h2.208q.96 0 1.584-.24.624-.288 1.392-1.104l15.36-16.464q.72-.768 1.44-1.248t1.92-.48h7.776l-17.904 19.056q-.672.816-1.344 1.44-.624.624-1.44 1.104.864.576 1.536 1.344.72.72 1.344 1.68l19.008 24h-7.68q-1.056 0-1.824-.384-.72-.432-1.392-1.296l-15.984-19.92q-.72-1.008-1.44-1.296-.72-.336-2.16-.336h-2.4v23.232h-8.592v-70.704zM194.6759877 38.5373844q4.368 0 8.064 1.488 3.696 1.44 6.384 4.224 2.688 2.736 4.176 6.816 1.536 4.032 1.536 9.216 0 2.016-.432 2.688-.432.672-1.632.672h-32.352q.096 4.608 1.248 8.016 1.152 3.408 3.168 5.712 2.016 2.256 4.8 3.408 2.784 1.104 6.24 1.104 3.216 0 5.52-.72 2.352-.768 4.032-1.632 1.68-.864 2.784-1.584 1.152-.768 1.968-.768 1.056 0 1.632.816l2.4 3.12q-1.584 1.92-3.792 3.36-2.208 1.392-4.752 2.304-2.496.912-5.184 1.344-2.688.48-5.328.48-5.04 0-9.312-1.68-4.224-1.728-7.344-4.992-3.072-3.312-4.8-8.16-1.728-4.848-1.728-11.136 0-5.088 1.536-9.504 1.584-4.416 4.512-7.632 2.928-3.264 7.152-5.088 4.224-1.872 9.504-1.872zm.192 6.288q-6.192 0-9.744 3.6-3.552 3.552-4.416 9.888h26.448q0-2.976-.816-5.424-.816-2.496-2.4-4.272-1.584-1.824-3.888-2.784-2.256-1.008-5.184-1.008zM259.9019877 87.9293844q-1.824 0-2.304-1.776l-.768-5.904q-3.12 3.792-7.152 6.096-3.984 2.256-9.168 2.256-4.176 0-7.584-1.584-3.408-1.632-5.808-4.752t-3.696-7.776q-1.296-4.656-1.296-10.704 0-5.376 1.44-9.984 1.44-4.656 4.128-8.064 2.736-3.408 6.624-5.328 3.888-1.968 8.832-1.968 4.464 0 7.632 1.536 3.168 1.488 5.664 4.224v-26.976h8.544v70.704zm-16.56-6.24q4.176 0 7.296-1.92 3.168-1.92 5.808-5.424v-23.52q-2.352-3.168-5.184-4.416-2.784-1.296-6.192-1.296-6.816 0-10.464 4.848-3.648 4.848-3.648 13.824 0 4.752.816 8.16.816 3.36 2.4 5.568 1.584 2.16 3.888 3.168t5.28 1.008z"/></g></g></svg>