<svg xmlns="http://www.w3.org/2000/svg" width="102mm" height="28mm" aria-hidden="true" class="svg-inline--fa fa-linkedin" data-icon="linkedin" data-prefix="fab" viewBox="0 0 385.5118 105.82678"><defs><path id="a" d="M483.5878-87.328491h95.405113v58.555519H483.5878z"/></defs><g style="display:inline"><path fill="currentColor" d="M162.17384 38.901058H75.059963c-3.99168 0-7.23492 3.2886-7.23492 7.32564v86.955122c0 4.03704 3.24324 7.32564 7.23492 7.32564h87.113877c3.99168 0 7.2576-3.2886 7.2576-7.32564V46.226698c0-4.03704-3.26592-7.32564-7.2576-7.32564zM98.533763 125.99226h-15.05952V77.502419h15.0822v48.489841zm-7.52976-55.112401c-4.83084 0-8.7318-3.92364-8.7318-8.731801 0-4.80816 3.90096-8.7318 8.7318-8.7318 4.80816 0 8.7318 3.92364 8.7318 8.7318 0 4.830841-3.90096 8.731801-8.7318 8.731801zm63.980277 55.112401h-15.05952v-23.5872c0-5.624641-.1134-12.859561-7.8246-12.859561-7.84728 0-9.04932 6.1236-9.04932 12.451321v23.99544h-15.05952V77.502419h14.44716v6.62256h.20412c2.01852-3.81024 6.94008-7.8246 14.26572-7.8246 15.24096 0 18.07596 10.04724 18.07596 23.11092z" style="display:inline;fill:#333;fill-opacity:1;stroke-width:.2268" transform="translate(214.020129 -36.79087)"/><g aria-label="Linked" style="font-size:96px;line-height:1.25;font-family:Lato;-inkscape-font-specification:&quot;Lato, Normal&quot;;text-align:center;letter-spacing:0;text-anchor:middle;display:inline;fill:#333"><path d="M-202.64789 118.23459h29.76v7.824h-39.072V57.274594h9.312zM-154.48739 77.434594v48.623996h-8.544V77.434594Zm1.92-15.264q0 1.248-.528 2.352-.48 1.056-1.344 1.92-.816.816-1.92 1.296-1.104.48-2.352.48-1.248 0-2.352-.48-1.056-.48-1.92-1.296-.816-.864-1.296-1.92-.48-1.104-.48-2.352 0-1.248.48-2.352.48-1.152 1.296-1.968.864-.864 1.92-1.344 1.104-.48 2.352-.48 1.248 0 2.352.48 1.104.48 1.92 1.344.864.816 1.344 1.968.528 1.104.528 2.352zM-139.42889 126.05859V77.434594h5.088q1.824 0 2.304 1.776l.672 5.28q3.168-3.504 7.056-5.664 3.936-2.16 9.072-2.16 3.984 0 7.008 1.344 3.072 1.296 5.088 3.744 2.064 2.4 3.12 5.808t1.056 7.536v30.959996h-8.544V95.098594q0-5.52-2.544-8.544-2.496-3.072-7.68-3.072-3.792 0-7.104 1.824-3.264 1.824-6.048 4.944v35.807996zM-77.11139 55.354594v41.616h2.208q.96 0 1.584-.24.624-.288 1.392-1.104l15.36-16.464q.72-.768 1.44-1.248t1.92-.48h7.776l-17.904 19.056q-.672.816-1.344 1.44-.624.624-1.44 1.104.864.576 1.536 1.343996.72.72 1.344 1.68l19.008 24h-7.68q-1.056 0-1.824-.384-.72-.432-1.392-1.296l-15.984-19.92q-.72-1.008-1.44-1.296-.72-.336-2.16-.336h-2.4v23.232h-8.592V55.354594ZM-19.30589 76.666594q4.368 0 8.064 1.488 3.6960004 1.44 6.3840004 4.224 2.688 2.736 4.17599995 6.816 1.536 4.032 1.536 9.216 0 2.015996-.432 2.687996-.432.672-1.63199995.672H-33.56189q.096 4.608 1.248 8.016 1.152 3.408 3.168 5.712 2.016 2.256 4.8 3.408 2.784 1.104 6.24 1.104 3.216 0 5.52-.72 2.352-.768 4.0320004-1.632 1.68-.864 2.784-1.584 1.152-.768 1.968-.768 1.056 0 1.632.816l2.39999995 3.12q-1.58399995 1.92-3.79199995 3.36-2.208 1.392-4.752 2.304-2.4960004.912-5.1840004 1.344-2.688.48-5.328.48-5.04 0-9.312-1.68-4.224-1.728-7.344-4.992-3.072-3.312-4.8-8.16-1.728-4.848-1.728-11.136 0-5.087996 1.536-9.503996 1.584-4.416 4.512-7.632 2.928-3.264 7.152-5.088 4.224-1.872 9.504-1.872zm.192 6.288q-6.192 0-9.744 3.6-3.552 3.552-4.416 9.888h26.4480004q0-2.976-.816-5.424-.816-2.496-2.4000004-4.272-1.584-1.824-3.888-2.784-2.256-1.008-5.184-1.008zM45.92011 126.05859q-1.824 0-2.304-1.776l-.768-5.904q-3.12 3.792-7.152 6.096-3.984 2.256-9.168 2.256-4.176 0-7.584-1.584-3.408-1.632-5.808-4.752t-3.6959996-7.776q-1.296-4.656-1.296-10.704 0-5.375996 1.44-9.983996 1.4399996-4.656 4.1279996-8.064 2.736-3.408 6.624-5.328 3.888-1.968 8.832-1.968 4.464 0 7.632 1.536 3.168 1.488 5.664 4.224v-26.976h8.544v70.703996zm-16.56-6.24q4.176 0 7.296-1.92 3.168-1.92 5.808-5.424V88.954594q-2.352-3.168-5.184-4.416-2.784-1.296-6.192-1.296-6.816 0-10.464 4.848-3.648 4.848-3.648 13.823996 0 4.752.816 8.16.816 3.36 2.4 5.568 1.584 2.16 3.888 3.168t5.28 1.008z" style="-inkscape-font-specification:Lato" transform="translate(214.020129 -36.79087)"/></g></g></svg>