<?xml version="1.0" encoding="UTF-8" standalone="no"?>
<!-- Created with Inkscape (http://www.inkscape.org/) -->

<svg
   width="349.83893"
   height="57.006535"
   viewBox="0 0 92.561546 15.082979"
   version="1.1"
   id="svg3052"
   inkscape:version="1.1.1 (c3084ef, 2021-09-22)"
   sodipodi:docname="logo-company-name.svg"
   xmlns:inkscape="http://www.inkscape.org/namespaces/inkscape"
   xmlns:sodipodi="http://sodipodi.sourceforge.net/DTD/sodipodi-0.dtd"
   xmlns="http://www.w3.org/2000/svg"
   xmlns:svg="http://www.w3.org/2000/svg">
  <sodipodi:namedview
     id="namedview3054"
     pagecolor="#cecece"
     bordercolor="#dd2929"
     borderopacity="1"
     inkscape:pageshadow="2"
     inkscape:pageopacity="0"
     inkscape:pagecheckerboard="0"
     inkscape:document-units="mm"
     showgrid="false"
     inkscape:showpageshadow="false"
     fit-margin-top="0"
     fit-margin-left="0"
     fit-margin-right="0"
     fit-margin-bottom="0"
     units="px"
     inkscape:zoom="0.57549102"
     inkscape:cx="-264.12228"
     inkscape:cy="349.26696"
     inkscape:current-layer="layer1" />
  <defs
     id="defs3049" />
  <g
     inkscape:label="Layer 1"
     inkscape:groupmode="layer"
     id="layer1"
     transform="translate(-64.059781,-56.823836)">
    <path
       d="m 64.454306,71.815771 c 0.242785,0 0.404641,-0.161856 0.404641,-0.424872 V 57.339752 c 0,-0.263016 -0.161856,-0.424873 -0.404641,-0.424873 -0.242784,0 -0.394525,0.161857 -0.394525,0.424873 v 14.051147 c 0,0.263016 0.151741,0.424872 0.394525,0.424872 z"
       style="font-weight:200;font-size:20.1083px;line-height:1.25;font-family:'SF Pro Rounded';-inkscape-font-specification:'SF Pro Rounded Ultra-Light';text-align:center;letter-spacing:0px;text-anchor:middle;display:inline;fill:#000000;fill-opacity:1;stroke:none;stroke-width:0.2726"
       id="path306392" />
    <path
       d="m 67.853288,71.664031 h 4.572438 c 3.065154,0 4.926501,-1.507286 4.926501,-3.894666 0,-2.114247 -1.578099,-3.449562 -3.641766,-3.672114 v -0.06069 c 1.739955,-0.333829 2.872948,-1.679259 2.872948,-3.419214 0,-2.114246 -1.719723,-3.550721 -4.258843,-3.550721 h -4.471278 c -0.242785,0 -0.394525,0.161856 -0.394525,0.424873 v 13.747665 c 0,0.263017 0.15174,0.424873 0.394525,0.424873 z m 0.40464,-7.87026 v -5.998798 h 3.945246 c 2.174944,0 3.570954,1.122877 3.570954,2.883064 0,1.922043 -1.476938,3.115734 -3.763157,3.115734 z m 0,7.141907 v -6.42367 h 3.88455 c 2.771789,0 4.400467,1.224038 4.400467,3.237125 0,1.962507 -1.557866,3.186545 -4.18803,3.186545 z"
       style="font-weight:200;font-size:20.1083px;line-height:1.25;font-family:'SF Pro Rounded';-inkscape-font-specification:'SF Pro Rounded Ultra-Light';text-align:center;letter-spacing:0px;text-anchor:middle;display:inline;fill:#000000;fill-opacity:1;stroke:none;stroke-width:0.2726"
       id="path306394" />
    <path
       d="m 84.221002,71.906815 c 3.409097,0 5.573924,-1.729838 5.573924,-4.481395 0,-2.124363 -1.254385,-3.348401 -4.319539,-3.995826 l -1.588214,-0.333829 c -1.891695,-0.40464 -2.650396,-1.112761 -2.650396,-2.174943 0,-1.335314 1.264502,-2.164828 2.974108,-2.164828 1.456707,0 2.569469,0.576613 3.065153,1.922043 0.232669,0.526034 0.566497,0.778934 1.112762,0.778934 0.586729,0 1.001486,-0.384409 1.001486,-0.971137 0,-0.212437 -0.03034,-0.384409 -0.08093,-0.526034 -0.566496,-1.95239 -2.549235,-3.135964 -5.068123,-3.135964 -3.105617,0 -5.300793,1.719723 -5.300793,4.218379 0,2.104131 1.325198,3.459676 4.238611,4.076753 l 1.598331,0.333829 c 1.95239,0.424873 2.721208,1.132994 2.721208,2.265988 0,1.304966 -1.325199,2.255872 -3.176429,2.255872 -1.689376,0 -3.014573,-0.63731 -3.469794,-2.002972 -0.222553,-0.546265 -0.55638,-0.778933 -1.072297,-0.778933 -0.617078,0 -1.021718,0.424873 -1.021718,1.082414 0,0.242784 0.05058,0.485568 0.121392,0.70812 0.566497,1.699491 2.508772,2.923529 5.341258,2.923529 z"
       style="font-weight:500;font-size:20.1083px;line-height:1.25;font-family:'SF Pro Rounded';-inkscape-font-specification:'SF Pro Rounded Medium';text-align:center;letter-spacing:0px;text-anchor:middle;display:inline;fill:#000000;fill-opacity:1;stroke:none;stroke-width:0.2726"
       id="path306396" />
    <path
       d="m 96.886255,71.856235 c 3.459675,0 5.634615,-2.296335 5.634615,-5.988681 0,-3.692346 -2.17494,-5.998798 -5.634615,-5.998798 -3.47991,0 -5.644737,2.306452 -5.644737,5.998798 0,3.692346 2.164827,5.988681 5.644737,5.988681 z m 0,-1.881578 c -2.094016,0 -3.409098,-1.588215 -3.409098,-4.107103 0,-2.518888 1.325199,-4.107103 3.409098,-4.107103 2.073783,0 3.388865,1.588215 3.388865,4.107103 0,2.518888 -1.315082,4.107103 -3.388865,4.107103 z"
       style="font-weight:500;font-size:20.1083px;line-height:1.25;font-family:'SF Pro Rounded';-inkscape-font-specification:'SF Pro Rounded Medium';font-variant-caps:all-small-caps;text-align:center;letter-spacing:0px;text-anchor:middle;display:inline;fill:#000000;fill-opacity:1;stroke:none;stroke-width:0.2726"
       id="path306398" />
    <path
       d="m 105.51522,71.815771 c 0.66765,0 1.10264,-0.40464 1.10264,-1.082413 v -3.732811 h 4.14757 c 0.5665,0 0.9509,-0.323712 0.9509,-0.880093 0,-0.566497 -0.3844,-0.900325 -0.9509,-0.900325 h -4.14757 v -3.287705 h 4.58256 c 0.58673,0 0.98125,-0.343945 0.98125,-0.930674 0,-0.586729 -0.39452,-0.930673 -0.98125,-0.930673 h -5.69532 c -0.65754,0 -1.08241,0.40464 -1.08241,1.082413 v 9.579868 c 0,0.677773 0.42487,1.082413 1.09253,1.082413 z"
       style="font-weight:500;font-size:20.1083px;line-height:1.25;font-family:'SF Pro Rounded';-inkscape-font-specification:'SF Pro Rounded Medium';font-variant-caps:all-small-caps;text-align:center;letter-spacing:0px;text-anchor:middle;display:inline;fill:#000000;fill-opacity:1;stroke:none;stroke-width:0.2726"
       id="path306400" />
    <path
       d="m 117.78594,71.815771 c 0.66766,0 1.10265,-0.40464 1.10265,-1.082413 V 61.94254 h 2.76167 c 0.5665,0 0.97114,-0.374293 0.97114,-0.94079 0,-0.566497 -0.40464,-0.930673 -0.97114,-0.930673 h -7.7084 c -0.5665,0 -0.97114,0.364176 -0.97114,0.930673 0,0.566497 0.40464,0.94079 0.97114,0.94079 h 2.76167 v 8.790818 c 0,0.677773 0.41476,1.082413 1.08241,1.082413 z"
       style="font-weight:500;font-size:20.1083px;line-height:1.25;font-family:'SF Pro Rounded';-inkscape-font-specification:'SF Pro Rounded Medium';font-variant-caps:all-small-caps;text-align:center;letter-spacing:0px;text-anchor:middle;display:inline;fill:#000000;fill-opacity:1;stroke:none;stroke-width:0.2726"
       id="path306402" />
    <path
       d="m 129.29797,71.906815 c 3.40909,0 5.57392,-1.729838 5.57392,-4.481395 0,-2.124363 -1.25438,-3.348401 -4.31954,-3.995826 l -1.58821,-0.333829 c -1.8917,-0.40464 -2.6504,-1.112761 -2.6504,-2.174943 0,-1.335314 1.26451,-2.164828 2.97411,-2.164828 1.45671,0 2.56947,0.576613 3.06515,1.922043 0.23267,0.526034 0.5665,0.778934 1.11277,0.778934 0.58673,0 1.00148,-0.384409 1.00148,-0.971137 0,-0.212437 -0.0303,-0.384409 -0.0809,-0.526034 -0.5665,-1.95239 -2.54923,-3.135964 -5.06812,-3.135964 -3.10562,0 -5.30079,1.719723 -5.30079,4.218379 0,2.104131 1.32519,3.459676 4.23861,4.076753 l 1.59833,0.333829 c 1.95239,0.424873 2.7212,1.132994 2.7212,2.265988 0,1.304966 -1.32519,2.255872 -3.17642,2.255872 -1.68938,0 -3.01458,-0.63731 -3.4698,-2.002972 -0.22255,-0.546265 -0.55638,-0.778933 -1.0723,-0.778933 -0.61707,0 -1.02171,0.424873 -1.02171,1.082414 0,0.242784 0.0506,0.485568 0.12139,0.70812 0.5665,1.699491 2.50877,2.923529 5.34126,2.923529 z"
       style="font-weight:500;font-size:20.1083px;line-height:1.25;font-family:'SF Pro Rounded';-inkscape-font-specification:'SF Pro Rounded Medium';text-align:center;letter-spacing:0px;text-anchor:middle;display:inline;fill:#000000;fill-opacity:1;stroke:none;stroke-width:0.2726"
       id="path306404" />
    <path
       d="m 141.10336,71.815771 c 0.66766,0 1.133,-0.414757 1.133,-1.082413 v -3.540606 l 3.51025,-5.644737 c 0.14163,-0.242784 0.20232,-0.445104 0.20232,-0.698005 0,-0.566497 -0.39452,-0.940789 -1.00148,-0.940789 -0.45522,0 -0.73847,0.182088 -0.98126,0.60696 l -2.7819,4.552208 h -0.0506 l -2.81225,-4.57244 c -0.22255,-0.384408 -0.4451,-0.586728 -0.97114,-0.586728 -0.58673,0 -1.0116,0.384408 -1.0116,0.940789 0,0.232669 0.0607,0.465336 0.21244,0.708121 l 3.49002,5.634621 v 3.540606 c 0,0.667656 0.38441,1.082413 1.06218,1.082413 z"
       style="font-weight:500;font-size:20.1083px;line-height:1.25;font-family:'SF Pro Rounded';-inkscape-font-specification:'SF Pro Rounded Medium';font-variant-caps:all-small-caps;text-align:center;letter-spacing:0px;text-anchor:middle;display:inline;fill:#000000;fill-opacity:1;stroke:none;stroke-width:0.2726"
       id="path306406" />
    <path
       d="m 151.97808,71.856235 c 2.83249,0 4.64325,-1.406125 4.64325,-3.621533 0,-1.750072 -1.03183,-2.721209 -3.42933,-3.247241 l -1.37578,-0.303482 c -1.43647,-0.323712 -2.03331,-0.7587 -2.03331,-1.497169 0,-0.910442 0.90032,-1.537635 2.20529,-1.537635 1.12288,0 1.90181,0.455221 2.39749,1.375779 0.23267,0.364176 0.48557,0.526032 0.90033,0.526032 0.57661,0 0.94079,-0.343944 0.94079,-0.89021 0,-0.151739 -0.0202,-0.283248 -0.0607,-0.414756 -0.39452,-1.426359 -2.05355,-2.377264 -4.18803,-2.377264 -2.5897,0 -4.41058,1.416243 -4.41058,3.500142 0,1.679259 1.04195,2.721208 3.22701,3.196661 l 1.52751,0.343945 c 1.48706,0.333828 2.0839,0.789049 2.0839,1.59833 0,0.910441 -0.99137,1.557866 -2.41772,1.557866 -1.26451,0 -2.21541,-0.5058 -2.70098,-1.44659 -0.23267,-0.374293 -0.46534,-0.526032 -0.88009,-0.526032 -0.58673,0 -0.95091,0.364176 -0.95091,0.920557 0,0.182088 0.0202,0.354061 0.0809,0.546265 0.45522,1.416242 2.17494,2.296335 4.44093,2.296335 z"
       style="font-weight:500;font-size:20.1083px;line-height:1.25;font-family:'SF Pro Rounded';-inkscape-font-specification:'SF Pro Rounded Medium';font-variant-caps:all-small-caps;text-align:center;letter-spacing:0px;text-anchor:middle;display:inline;fill:#000000;fill-opacity:1;stroke:none;stroke-width:0.2726"
       id="path306408" />
  </g>
</svg>
