<svg xmlns="http://www.w3.org/2000/svg" width="333.173" height="350.50769" viewBox="0 0 88.152023 92.738501"><defs><path id="b" d="M1600.6648 5530.2114h158.57976v94.550331H1600.6648z"/><path id="a" d="M157-13h55v40h-55z"/><path id="c" d="M157-13h55v40h-55z"/><path id="d" d="M1600.6648 5530.2114h158.57976v94.550331H1600.6648z"/><path id="e" d="M157-13h55v40h-55z"/><path id="f" d="M1600.6648 5530.2114h158.57976v94.550331H1600.6648z"/><path id="g" d="M157-13h55v40h-55z"/><path id="h" d="M1600.6648 5530.2114h158.57976v94.550331H1600.6648z"/><path id="i" d="M157-13h55v40h-55z"/><path id="j" d="M1600.6648 5530.2114h158.57976v94.550331H1600.6648z"/><path id="k" d="M157-13h55v40h-55z"/><path id="l" d="M1600.6648 5530.2114h158.57976v94.550331H1600.6648z"/><path id="m" d="M157-13h55v40h-55z"/><path id="n" d="M1600.6648 5530.2114h158.57976v94.550331H1600.6648z"/><path id="o" d="M157-13h55v40h-55z"/><path id="p" d="M1600.6648 5530.2114h158.57976v94.550331H1600.6648z"/></defs><g style="display:inline" transform="translate(-7.517779 -2.6825836)"><ellipse cx="51.593781" cy="30.026939" rx="43.282249" ry="26.550606" style="font-variation-settings:normal;display:inline;fill:none;fill-opacity:1;stroke:#000;stroke-width:1.5875;stroke-linecap:butt;stroke-linejoin:miter;stroke-miterlimit:4;stroke-dasharray:none;stroke-dashoffset:0;stroke-opacity:1;stop-color:#000"/><ellipse cx="67.019264" cy="30.026939" rx="26.510872" ry="16.17045" style="font-variation-settings:normal;display:inline;fill:none;fill-opacity:1;stroke:#000;stroke-width:1.32292;stroke-linecap:butt;stroke-linejoin:miter;stroke-miterlimit:4;stroke-dasharray:none;stroke-dashoffset:0;stroke-opacity:1;stop-color:#000"/><ellipse cx="76.28009" cy="30.026939" rx="16.145391" ry="9.7550411" style="font-variation-settings:normal;display:inline;fill:none;fill-opacity:1;stroke:#000;stroke-width:1.05833;stroke-linecap:butt;stroke-linejoin:miter;stroke-miterlimit:4;stroke-dasharray:none;stroke-dashoffset:0;stroke-opacity:1;stop-color:#000"/><ellipse cx="81.766106" cy="30.026939" rx="9.7389774" ry="5.7899771" style="font-variation-settings:normal;display:inline;fill:none;fill-opacity:1;stroke:#000;stroke-width:.926042;stroke-linecap:butt;stroke-linejoin:miter;stroke-miterlimit:4;stroke-dasharray:none;stroke-dashoffset:0;stroke-opacity:1;stop-color:#000"/><ellipse cx="84.930321" cy="30.026939" rx="5.7796507" ry="3.3394673" style="font-variation-settings:normal;display:inline;fill:none;fill-opacity:1;stroke:#000;stroke-width:.79375;stroke-linecap:butt;stroke-linejoin:miter;stroke-miterlimit:4;stroke-dasharray:none;stroke-dashoffset:0;stroke-opacity:1;stop-color:#000"/><ellipse cx="86.91993" cy="30.026939" rx="3.1086199" ry="1.7900585" style="font-variation-settings:normal;display:inline;fill:none;fill-opacity:1;stroke:#000;stroke-width:.661458;stroke-linecap:butt;stroke-linejoin:miter;stroke-miterlimit:4;stroke-dasharray:none;stroke-dashoffset:0;stroke-opacity:1;stop-color:#000"/><ellipse cx="88.214539" cy="30.026939" rx="1.2934215" ry=".68038863" style="font-variation-settings:normal;display:inline;fill:none;fill-opacity:1;stroke:#000;stroke-width:.555625;stroke-linecap:butt;stroke-linejoin:miter;stroke-miterlimit:4;stroke-dasharray:none;stroke-dashoffset:0;stroke-opacity:1;stop-color:#000"/><path d="M7.9264858 75.982442c.2515104 0 .4191843-.167724.4191843-.440193V60.98616c0-.272479-.1676739-.440123-.4191843-.440123s-.4087047.167644-.4087047.440123v14.556089c0 .272469.1571943.440193.4087047.440193zM11.447631 75.825233h4.736779c3.175319 0 5.103565-1.561465 5.103565-4.034611 0-2.190231-1.634818-3.573548-3.772655-3.804069v-.06257c1.80249-.345872 2.976205-1.739614 2.976205-3.542105 0-2.190241-1.781531-3.678304-4.411911-3.678304h-4.631983c-.25151 0-.408704.167633-.408704.440113v14.241741c0 .272479.157194.440113.408704.440113zm.419184-8.153108v-6.214408h4.087043c2.253115 0 3.699299 1.163291 3.699299 2.986731 0 1.991074-1.530021 3.227677-3.898411 3.227677zm0 7.398557v-6.654521h4.024167c2.87141 0 4.558625 1.268047 4.558625 3.353452 0 2.033102-1.613858 3.301069-4.338554 3.301069z" style="font-weight:200;font-size:19.05px;line-height:1.25;font-family:Lato;-inkscape-font-specification:&quot;SF Pro Rounded Ultra-Light&quot;;text-align:center;letter-spacing:0;text-anchor:middle;fill:#000;fill-opacity:1;stroke:none;stroke-width:.204507"/><path d="M28.403623 76.076763c3.531624 0 5.774259-1.792066 5.774259-4.642437 0-2.200736-1.299471-3.468793-4.474789-4.139437l-1.645297-.345862c-1.959685-.419184-2.745656-1.152716-2.745656-2.253119 0-1.383317 1.30995-2.242614 3.081003-2.242614 1.509062 0 2.661818.597332 3.175318 1.991154.241031.544949.586858.806914 1.152756.806914.607816 0 1.03748-.398245 1.03748-1.006081 0-.220017-.03143-.398165-.08384-.54487-.586857-2.022597-2.640858-3.248695-5.250278-3.248695-3.217237 0-5.49131 1.781482-5.49131 4.369958 0 2.179726 1.372827 3.584063 4.390952 4.223263l1.655776.345862c2.022562.440123 2.819012 1.173725 2.819012 2.34737 0 1.351873-1.372827 2.336946-3.290594 2.336946-1.750092 0-3.12292-.66022-3.594502-2.074901-.230551-.565888-.576378-.806914-1.110838-.806914-.639255 0-1.058438.440113-1.058438 1.121262 0 .251541.05239.503001.125754.733612.586858 1.760543 2.598941 3.028589 5.533229 3.028589z" style="font-weight:500;font-size:19.05px;line-height:1.25;font-family:Lato;-inkscape-font-specification:&quot;SF Pro Rounded Medium&quot;;text-align:center;letter-spacing:0;text-anchor:middle;fill:#000;fill-opacity:1;stroke:none;stroke-width:.204507"/><path d="M40.632517 76.007239c3.147872 0 5.127619-2.169302 5.127619-5.650918 0-3.481615-1.979747-5.658564-5.127619-5.658564-3.155456 0-5.127618 2.176949-5.127618 5.658564 0 3.481616 1.972162 5.650918 5.127618 5.650918zm0-1.49425c-2.078353 0-3.390599-1.608051-3.390599-4.156668 0-2.556262 1.312246-4.164314 3.390599-4.164314 2.078355 0 3.383015 1.608052 3.383015 4.164314 0 2.548617-1.30466 4.156668-3.383015 4.156668zM48.217749 75.94659c.523381 0 .849546-.333738.849546-.879846v-3.823h4.058101c.455114 0 .766109-.280665.766109-.720549 0-.432397-.310995-.713062-.766109-.713062h-4.058101v-3.458828h4.460118c.470285 0 .79645-.288231.79645-.735761 0-.447539-.318581-.73577-.79645-.73577h-5.309664c-.530966 0-.849546.333738-.849546.879846v9.307124c0 .546108.31858.879846.849546.879846zM59.246679 75.94659c.523382 0 .849547-.333738.849547-.879846v-8.715439h2.677587c.470286 0 .788865-.288231.788865-.735761 0-.447539-.318579-.73577-.788865-.73577h-7.061852c-.470285 0-.788865.288231-.788865.73577 0 .44753.31858.735761.788865.735761h2.685173v8.715439c0 .546108.318579.879846.849545.879846z" style="font-weight:500;font-size:20.1083px;line-height:1.25;font-family:Lato;-inkscape-font-specification:&quot;SF Pro Rounded Medium&quot;;text-align:center;letter-spacing:0;text-anchor:middle;fill:#000;fill-opacity:1;stroke:#000;stroke-width:.396875;stroke-miterlimit:4;stroke-dasharray:none;stroke-opacity:1"/><path d="M70.355158 76.076763c3.531624 0 5.774258-1.792066 5.774258-4.642437 0-2.200736-1.299471-3.468793-4.474789-4.139437l-1.645297-.345862c-1.959684-.419184-2.745655-1.152716-2.745655-2.253119 0-1.383317 1.30995-2.242614 3.081003-2.242614 1.509062 0 2.661818.597332 3.175317 1.991154.241032.544949.586859.806914 1.152757.806914.607816 0 1.03748-.398245 1.03748-1.006081 0-.220017-.03143-.398165-.08384-.54487-.586857-2.022597-2.640859-3.248695-5.250278-3.248695-3.217237 0-5.491311 1.781482-5.491311 4.369958 0 2.179726 1.372828 3.584063 4.390953 4.223263l1.655776.345862c2.022562.440123 2.819012 1.173725 2.819012 2.34737 0 1.351873-1.372827 2.336946-3.290594 2.336946-1.750093 0-3.12292-.66022-3.594503-2.074901-.230551-.565888-.576377-.806914-1.110838-.806914-.639254 0-1.058438.440113-1.058438 1.121262 0 .251541.05239.503001.125755.733612.586858 1.760543 2.598941 3.028589 5.533229 3.028589z" style="font-weight:500;font-size:27.7812px;line-height:1.25;font-family:Lato;-inkscape-font-specification:&quot;SF Pro Rounded Medium&quot;;text-align:center;letter-spacing:0;text-anchor:middle;fill:#000;fill-opacity:1;stroke:none;stroke-width:.204507"/><path d="M81.742089 75.94659c.530966 0 .849547-.333738.849547-.879846v-3.724351l3.474037-5.256601c.128949-.197158.174461-.371678.174461-.561261 0-.439963-.364091-.766125-.834377-.766125-.33375 0-.546136.13651-.750938.477894l-2.874803 4.475264h-.05309L78.85212 65.2363c-.212387-.34896-.409603-.477894-.758524-.477894-.47787 0-.84196.326162-.84196.773701 0 .189663.04551.364103.174459.553685l3.466453 5.256601v3.724351c0 .546108.326164.879846.849545.879846zM91.291901 76.007239c2.556227 0 4.179466-1.297021 4.179466-3.360168 0-1.592909-.940573-2.510766-3.238901-2.996236l-1.190878-.250301c-1.418438-.303374-1.987332-.83434-1.987332-1.63076 0-1.001294.948152-1.623263 2.230058-1.623263 1.092278 0 1.926649.432317 2.298329 1.441177.174455.394457.424768.584039.834371.584039.439949 0 .750944-.288231.750944-.728115 0-.159308-.02279-.288241-.06065-.394466-.424777-1.463966-1.911484-2.351389-3.80021-2.351389-2.328666 0-3.974659 1.289456-3.974659 3.16302 0 1.577687.993664 2.594124 3.178212 3.056795l1.198472.250311c1.463948.318596 2.040422.849562 2.040422 1.699124 0 .978506-.993663 1.691479-2.381763 1.691479-1.266734 0-2.260397-.477894-2.60173-1.501816-.166877-.409599-.417189-.584119-.804041-.584119-.462696 0-.766107.318596-.766107.811631 0 .182087.03792.364103.09102.530967.424773 1.274313 1.881141 2.19209 4.005005 2.19209z" style="font-weight:500;font-size:20.1083px;line-height:1.25;font-family:Lato;-inkscape-font-specification:&quot;SF Pro Rounded Medium&quot;;text-align:center;letter-spacing:0;text-anchor:middle;fill:#000;fill-opacity:1;stroke:#000;stroke-width:.396875;stroke-miterlimit:4;stroke-dasharray:none;stroke-opacity:1"/><path d="M7.8133802 86.956819c.1806447 0 .2956011-.118239.2956011-.30546v-4.220521c0-.18721-.1149564-.30545-.2956011-.30545-.1806448 0-.2956012.11824-.2956012.30545v4.220521c0 .187221.1149564.30546.2956012.30546z" style="font-size:6.35px;line-height:1.25;font-family:&quot;SF Pro Rounded&quot;;-inkscape-font-specification:&quot;SF Pro Rounded&quot;;text-align:center;letter-spacing:0;text-anchor:middle;display:inline;fill:#000;fill-opacity:1;stroke:none;stroke-width:.280273"/><path d="M9.1015709 86.943408c.1279573 0 .2070574-.08379.2070574-.216362v-2.442823h.020942l1.7658067 2.521921c.07445.107021.127957.137264.241955.137264.148895 0 .237303-.08612.237303-.227993v-2.977908c0-.132614-.0791-.216373-.207059-.216373-.127956 0-.207057.08379-.207057.216373v2.452113h-.02094l-1.7634828-2.528891c-.074448-.107021-.1302834-.139595-.2419549-.139595-.1442419 0-.2396288.09777-.2396288.244286v2.961626c0 .132603.079098.216362.2070584.216362zM13.717656 86.96667c.895698 0 1.423812-.537415 1.423812-1.444749v-.102328c0-.132604-.08143-.216363-.209385-.216363h-.991084c-.116325 0-.200079.07447-.200079.1838 0 .109341.08375.183789.200079.183789h.781701v.06049c0 .563018-.409463.949208-1.005044.949208-.683989 0-1.107409-.523454-1.107409-1.367971 0-.830556.416442-1.328428 1.107409-1.328428.423421 0 .749129.204732.92129.593251.0535.123303.116324.174489.21869.174489.116325 0 .190772-.0768.190772-.19077 0-.05116-.0047-.104659-.03257-.176819-.181467-.469948-.683989-.786351-1.298182-.786351-.939902 0-1.53781.66771-1.53781 1.716948 0 1.06786.600235 1.751851 1.53781 1.751851zM15.972354 86.910835h1.705317c.118652 0 .200078-.0768.200078-.18845 0-.111672-.08143-.188439-.200078-.188439h-1.495933v-1.153939h1.41218c.116324 0 .197751-.0768.197751-.18612 0-.111671-.08143-.186119-.197751-.186119h-1.41218v-1.077171h1.495933c.118652 0 .200078-.0768.200078-.18844 0-.111671-.08143-.188449-.200078-.188449h-1.705317c-.127957 0-.209384.08379-.209384.216362v2.924402c0 .132614.08143.216363.209384.216363zM18.687697 86.943408c.127956 0 .207057-.08379.207057-.216362v-2.442823h.02094l1.765806 2.521921c.07445.107021.127956.137264.241955.137264.148895 0 .237302-.08612.237302-.227993v-2.977908c0-.132614-.0791-.216373-.207058-.216373-.127957 0-.207057.08379-.207057.216373v2.452113h-.02094l-1.76348-2.528891c-.07445-.107021-.130283-.139595-.241955-.139595-.144243 0-.239628.09777-.239628.244286v2.961626c0 .132603.0791.216362.207058.216362zM22.105638 86.943408c.127957 0 .209385-.08379.209385-.216362v-2.989539c0-.132614-.08143-.216373-.209385-.216373-.127957 0-.209383.08379-.209383.216373v2.989539c0 .132603.08143.216362.209383.216362zM23.259906 86.910835h1.705318c.11865 0 .200078-.0768.200078-.18845 0-.111672-.08143-.188439-.200078-.188439H23.46929v-1.153939h1.41218c.116324 0 .197752-.0768.197752-.18612 0-.111671-.08143-.186119-.197752-.186119h-1.41218v-1.077171h1.495934c.11865 0 .200078-.0768.200078-.18844 0-.111671-.08143-.188449-.200078-.188449h-1.705318c-.127956 0-.209384.08379-.209384.216362v2.924402c0 .132614.08143.216363.209384.216363zM27.101271 86.96667c.832883 0 1.333079-.516483 1.333079-1.233037v-1.996126c0-.132614-.08143-.216373-.209384-.216373-.127957 0-.209385.08379-.209385.216373v1.968203c0 .507183-.332688.87476-.91431.87476-.581623 0-.91431-.367577-.91431-.87476v-1.968203c0-.132614-.08143-.216373-.209385-.216373-.127957 0-.209384.08379-.209384.216373v1.996126c0 .716554.500195 1.233037 1.333079 1.233037zM29.383886 86.952709c.125631 0 .209385-.08612.209385-.216363v-1.153939h.802639l.672355 1.235368c.05351.1.109345.134934.204731.134934.120978 0 .214037-.08379.214037-.1931 0-.0465-.01163-.08845-.0442-.146565l-.614194-1.095773c.421096-.132614.674683-.495541.674683-.96317 0-.604893-.423422-1.000393-1.070186-1.000393h-1.049247c-.127957 0-.209384.08379-.209384.216362v2.966276c0 .130284.08375.216363.209385.216363zm.209385-1.74021v-1.286553h.784027c.432726 0 .693293.239635.693293.642117 0 .411782-.244281.644436-.674681.644436zM32.324897 86.910835h1.058553c.714233 0 1.137654-.351297 1.137654-.942228 0-.446686-.293137-.767739-.74913-.825905v-.01864c.323382-.05815.579296-.383869.579296-.732846 0-.502521-.388524-.837536-.963167-.837536h-1.063206c-.127957 0-.209384.08379-.209384.216362v2.924402c0 .132614.08143.216363.209384.216363zm.209385-1.910048v-1.077161h.758435c.407136 0 .635132.183789.635132.516473 0 .362938-.269873.560688-.765415.560688zm0 1.54014v-1.179532h.746803c.535092 0 .809618.19775.809618.58627 0 .38853-.26522.593262-.770068.593262zM35.984794 83.179149c.13959 0 .255915-.114002.255915-.255916 0-.141915-.116325-.255917-.255915-.255917-.139589 0-.255913.114002-.255913.255917 0 .141914.116324.255916.255913.255916zm.865455 0c.139589 0 .255914-.114002.255914-.255916 0-.141915-.116325-.255917-.255914-.255917-.13959 0-.255914.114002-.255914.255917 0 .141914.116324.255916.255914.255916zm-.432727 3.787521c.832883 0 1.333079-.516483 1.333079-1.233037v-1.996126c0-.132614-.08143-.216373-.209384-.216373-.127957 0-.209385.08379-.209385.216373v1.968203c0 .507183-.332688.87476-.91431.87476-.581623 0-.91431-.367577-.91431-.87476v-1.968203c0-.132614-.08143-.216373-.209385-.216373-.127957 0-.209384.08379-.209384.216373v1.996126c0 .716554.500195 1.233037 1.333079 1.233037zM38.700137 86.952709c.125631 0 .209385-.08612.209385-.216363v-1.153939h.802639l.672355 1.235368c.05351.1.109345.134934.204731.134934.120978 0 .214037-.08379.214037-.1931 0-.0465-.01163-.08845-.0442-.146565l-.614194-1.095773c.421096-.132614.674683-.495541.674683-.96317 0-.604893-.423422-1.000393-1.070186-1.000393h-1.049246c-.127957 0-.209383.08379-.209383.216362v2.966276c0 .130284.08375.216363.209383.216363zm.209385-1.74021v-1.286553h.784027c.432726 0 .693293.239635.693293.642117 0 .411782-.244281.644436-.674681.644436zM42.848599 86.96667c.951534 0 1.547116-.667698 1.547116-1.733239 0-1.06553-.595582-1.735559-1.547116-1.735559s-1.547116.670029-1.547116 1.735559c0 1.065541.595582 1.733239 1.547116 1.733239zm0-.3862c-.686315 0-1.116715-.521134-1.116715-1.347039 0-.828225.4304-1.349359 1.116715-1.349359.686315 0 1.116715.521134 1.116715 1.349359 0 .825905-.4304 1.347039-1.116715 1.347039z" style="font-size:4.49792px;line-height:1.25;font-family:&quot;SF Pro Rounded&quot;;-inkscape-font-specification:&quot;SF Pro Rounded&quot;;text-align:center;letter-spacing:.079375px;text-anchor:middle;display:inline;fill:#000;fill-opacity:1;stroke:#000;stroke-width:.140137;stroke-miterlimit:4;stroke-dasharray:none;stroke-opacity:1"/><path d="M48.072715 86.989657c1.060879 0 1.750614-.548495 1.750614-1.425449 0-.670029-.39085-1.064163-1.37947-1.280938l-.525513-.114956c-.647037-.141226-.89994-.397418-.89994-.771849 0-.482808.456538-.771839 1.04774-.771839.512375 0 .903226.210198 1.067448.689733.05255.151088.144516.22991.295601.22991.157654 0 .269325-.105082.269325-.266043 0-.06239-.0066-.111672-.01642-.147794-.170792-.640475-.807975-1.037893-1.59953-1.037893-.982051 0-1.671787.548507-1.671787 1.330207 0 .673313.410557 1.10357 1.359765 1.310494l.525512.114955c.656891.14452.919647.40727.919647.804698 0 .466389-.466392.804688-1.110146.804688-.59777 0-1.064162-.229911-1.208678-.719298-.04599-.157655-.137948-.233194-.285748-.233194-.167507 0-.27261.118239-.27261.305449 0 .06896.01313.141237.03285.206924.177361.571493.811261.972195 1.701348.972195z" style="font-size:6.35px;line-height:1.25;font-family:&quot;SF Pro Rounded&quot;;-inkscape-font-specification:&quot;SF Pro Rounded&quot;;text-align:center;letter-spacing:0;text-anchor:middle;display:inline;fill:#000;fill-opacity:1;stroke:none;stroke-width:.280273"/><path d="M51.795783 86.96667c.951534 0 1.547116-.667698 1.547116-1.733239 0-1.06553-.595582-1.735559-1.547116-1.735559s-1.547116.670029-1.547116 1.735559c0 1.065541.595582 1.733239 1.547116 1.733239zm0-.3862c-.686315 0-1.116715-.521134-1.116715-1.347039 0-.828225.4304-1.349359 1.116715-1.349359.686315 0 1.116715.521134 1.116715 1.349359 0 .825905-.4304 1.347039-1.116715 1.347039zM54.162151 86.943408c.127957 0 .209383-.08379.209383-.216362v-1.270272h1.323774c.116324 0 .197752-.07447.197752-.186119 0-.111672-.08143-.186119-.197752-.186119h-1.323774v-1.153939h1.454058c.11865 0 .200077-.0768.200077-.18844 0-.111671-.08143-.188449-.200077-.188449h-1.663441c-.127957 0-.209385.08379-.209385.216362v2.956976c0 .132603.08143.216362.209385.216362zM57.608011 86.943408c.127956 0 .209384-.08379.209384-.216362v-2.796449h.893372c.118651 0 .200079-.0768.200079-.18844 0-.111671-.08143-.188449-.200079-.188449h-2.205513c-.118651 0-.200078.0768-.200078.188449 0 .111672.08143.18844.200078.18844h.893372v2.796449c0 .132603.08143.216362.209385.216362zM60.295438 86.943408c.130283 0 .200079-.05816.241955-.19775l.732845-2.498659h.02326l.732845 2.498659c.04187.139584.111671.19775.241955.19775.125631 0 .195425-.06282.234975-.200081l.821252-2.915091c.01396-.05116.01861-.07913.01861-.116322 0-.111671-.08608-.19078-.207059-.19078-.107018 0-.179139.05816-.207057.167508l-.660719 2.605669h-.01861l-.70958-2.547503c-.0442-.158196-.118651-.225674-.255914-.225674-.141916 0-.216363.06748-.262893.234985l-.707253 2.538192h-.01861l-.660723-2.605669c-.02791-.107011-.09771-.167508-.207058-.167508-.120977 0-.207057.07913-.207057.19078 0 .03718.0047.06515.01861.116322l.821251 2.915091c.03955.137264.109345.200081.234975.200081zM63.606362 86.943408c.104691 0 .16518-.04883.204731-.160526l.295464-.832887h1.328426l.297791.832887c.03955.111671.10004.160526.204731.160526.120977 0 .209385-.0768.209385-.183799 0-.03019-.007-.06515-.02559-.116322l-1.081818-2.922072c-.05119-.137264-.134937-.200081-.262894-.200081-.137262 0-.223343.06515-.274525.202412l-1.079492 2.919741c-.01861.05116-.02559.08612-.02559.116322 0 .107021.08841.183799.209384.183799zm.621172-1.34937.53742-1.530828h.01396l.537418 1.530828zM66.894018 86.952709c.125631 0 .209385-.08612.209385-.216363v-1.153939h.802638l.672356 1.235368c.05351.1.109345.134934.204731.134934.120978 0 .214037-.08379.214037-.1931 0-.0465-.01163-.08845-.0442-.146565l-.614194-1.095773c.421095-.132614.674682-.495541.674682-.96317 0-.604893-.423421-1.000393-1.070186-1.000393H66.89402c-.127957 0-.209384.08379-.209384.216362v2.966276c0 .130284.08375.216363.209384.216363zm.209385-1.74021v-1.286553h.784027c.432727 0 .693294.239635.693294.642117 0 .411782-.244282.644436-.674683.644436zM69.835031 86.910835h1.705318c.11865 0 .200078-.0768.200078-.18845 0-.111672-.08143-.188439-.200078-.188439h-1.495933v-1.153939h1.41218c.116324 0 .197751-.0768.197751-.18612 0-.111671-.08143-.186119-.197751-.186119h-1.41218v-1.077171h1.495933c.11865 0 .200078-.0768.200078-.18844 0-.111671-.08143-.188449-.200078-.188449h-1.705318c-.127957 0-.209383.08379-.209383.216362v2.924402c0 .132614.08143.216363.209383.216363z" style="font-size:4.49792px;line-height:1.25;font-family:&quot;SF Pro Rounded&quot;;-inkscape-font-specification:&quot;SF Pro Rounded&quot;;font-variation-settings:normal;text-align:end;letter-spacing:.079375px;text-anchor:end;display:inline;vector-effect:none;fill:#000;fill-opacity:1;stroke:#000;stroke-width:.140137;stroke-linecap:butt;stroke-linejoin:miter;stroke-miterlimit:4;stroke-dasharray:none;stroke-dashoffset:0;stroke-opacity:1;-inkscape-stroke:none;stop-color:#000"/><path d="M75.410452 86.989657c1.060879 0 1.750614-.548495 1.750614-1.425449 0-.670029-.39085-1.064163-1.379471-1.280938l-.525513-.114956c-.647037-.141226-.89994-.397418-.89994-.771849 0-.482808.456539-.771839 1.04774-.771839.512376 0 .903226.210198 1.067449.689733.05255.151088.144516.22991.295601.22991.157654 0 .269325-.105082.269325-.266043 0-.06239-.0066-.111672-.01642-.147794-.170792-.640475-.807976-1.037893-1.59953-1.037893-.982052 0-1.671787.548507-1.671787 1.330207 0 .673313.410556 1.10357 1.359764 1.310494l.525513.114955c.656891.14452.919648.40727.919648.804698 0 .466389-.466394.804688-1.110146.804688-.597771 0-1.064163-.229911-1.20868-.719298-.04598-.157655-.137947-.233194-.285747-.233194-.167507 0-.27261.118239-.27261.305449 0 .06896.01313.141237.03285.206924.177361.571493.81126.972195 1.701348.972195z" style="font-size:6.35px;line-height:1.25;font-family:&quot;SF Pro Rounded&quot;;-inkscape-font-specification:&quot;SF Pro Rounded&quot;;text-align:center;letter-spacing:0;text-anchor:middle;display:inline;fill:#000;fill-opacity:1;stroke:none;stroke-width:.280273"/><path d="M78.849684 86.943408c.127956 0 .209384-.08379.209384-.216362v-1.260961l1.086471-1.626218c.03257-.04883.04187-.08845.04187-.134933 0-.104659-.08841-.1838-.202404-.1838-.08375 0-.13261.0303-.183793.107021l-.944555 1.433118h-.01396l-.944555-1.433118c-.05119-.0768-.100041-.107021-.183792-.107021-.113999 0-.202405.07913-.202405.1838 0 .0465.0093.08612.04187.134933l1.086471 1.626218v1.260961c0 .132603.08143.216362.209385.216362zM81.82327 86.96667c.751457 0 1.240019-.38852 1.240019-1.009694 0-.474609-.276853-.753788-.977126-.907334l-.372238-.08146c-.458319-.1-.637458-.281499-.637458-.546726 0-.341996.323381-.546727.742149-.546727.362933 0 .639785.148895.756111.488571.03722.10701.10236.162846.209383.162846.111672 0 .190773-.07447.190773-.188439 0-.04417-.0047-.07913-.01163-.104659-.120978-.453667-.572316-.735176-1.133-.735176-.695621 0-1.184185.38853-1.184185.942227 0 .476929.290812.781701.963168.928276l.372238.08146c.465298.102328.651418.288479.651418.569989 0 .330353-.330363.569988-.786355.569988-.42342 0-.753782-.162857-.856148-.509502-.03257-.111672-.09771-.165177-.202404-.165177-.118651 0-.193099.08379-.193099.216362 0 .04883.0093.1.02326.146565.125631.404812.574644.688641 1.205123.688641zM84.694488 86.943408c.127956 0 .209383-.08379.209383-.216362v-2.796449h.893373c.118651 0 .200078-.0768.200078-.18844 0-.111671-.08143-.188449-.200078-.188449h-2.205513c-.118651 0-.200078.0768-.200078.188449 0 .111672.08143.18844.200078.18844h.893372v2.796449c0 .132603.08143.216362.209385.216362zM86.702575 86.910835h1.705318c.118651 0 .200079-.0768.200079-.18845 0-.111672-.08143-.188439-.200079-.188439H86.91196v-1.153939h1.412179c.116325 0 .197753-.0768.197753-.18612 0-.111671-.08143-.186119-.197753-.186119H86.91196v-1.077171h1.495933c.118651 0 .200079-.0768.200079-.18844 0-.111671-.08143-.188449-.200079-.188449h-1.705318c-.127957 0-.209383.08379-.209383.216362v2.924402c0 .132614.08143.216363.209383.216363zM89.406285 86.943408c.120978 0 .195426-.0768.195426-.202411v-2.41722h.01628l.995738 2.386977c.05118.120983.130283.176818.251261.176818.120977 0 .197752-.05583.251261-.181469l.995738-2.382326h.01628v2.41722c0 .125633.07445.202411.195425.202411.120978 0 .195425-.0768.195425-.202411v-2.959296c0-.158196-.10469-.260567-.262893-.260567-.144243 0-.234975.06981-.300117.223343l-1.081818 2.61033h-.01861l-1.084144-2.61033c-.06514-.155865-.151222-.223343-.293139-.223343-.160527 0-.267545.104659-.267545.260567v2.959296c0 .125633.07445.202411.195425.202411zM94.359711 86.96667c.751457 0 1.240019-.38852 1.240019-1.009694 0-.474609-.276852-.753788-.977126-.907334l-.372238-.08146c-.458318-.1-.637458-.281499-.637458-.546726 0-.341996.323382-.546727.74215-.546727.362932 0 .639785.148895.75611.488571.03722.10701.102371.162846.209383.162846.111672 0 .190773-.07447.190773-.188439 0-.04417-.0047-.07913-.01163-.104659-.120977-.453667-.572316-.735176-1.133-.735176-.695621 0-1.184184.38853-1.184184.942227 0 .476929.290812.781701.963167.928276l.372239.08146c.465298.102328.651417.288479.651417.569989 0 .330353-.330362.569988-.786354.569988-.423421 0-.753783-.162857-.856149-.509502-.03257-.111672-.09771-.165177-.202404-.165177-.118651 0-.193098.08379-.193098.216362 0 .04883.0093.1.02326.146565.125631.404812.574643.688641 1.205122.688641z" style="font-size:4.49792px;line-height:1.25;font-family:&quot;SF Pro Rounded&quot;;-inkscape-font-specification:&quot;SF Pro Rounded&quot;;font-variation-settings:normal;text-align:center;letter-spacing:.079375px;text-anchor:middle;display:inline;vector-effect:none;fill:#000;fill-opacity:1;stroke:#000;stroke-width:.140137;stroke-linecap:butt;stroke-linejoin:miter;stroke-miterlimit:4;stroke-dasharray:none;stroke-dashoffset:0;stroke-opacity:1;-inkscape-stroke:none;stop-color:#000"/><path d="M27.342865 95.319038h1.081133c1.174193 0 1.86393-.730791 1.86393-1.976148 0-1.242624-.692474-1.973414-1.86393-1.973414h-1.081133c-.150538 0-.246334.09851-.246334.25455v3.440462c0 .156014.09579.25455.246334.25455zm.246334-.443402v-3.062758h.801954c.897752 0 1.393157.547415 1.393157 1.535489 0 .979864-.498142 1.527269-1.393157 1.527269z" style="font-size:6.35px;line-height:1.25;font-family:&quot;SF Pro Rounded&quot;;-inkscape-font-specification:&quot;SF Pro Rounded&quot;;text-align:center;letter-spacing:.079375px;text-anchor:middle;display:inline;fill:#000;fill-opacity:1;stroke:none;stroke-width:.280273"/><path d="M31.037112 95.353529c.103462 0 .172434-.07087.172434-.178185v-.9503h.660997l.553705 1.017353c.04407.08241.09005.111132.168602.111132.09963 0 .176266-.06896.176266-.159023 0-.03835-.0095-.07277-.03641-.120707l-.505807-.902408c.346785-.109203.555622-.408096.555622-.793194 0-.498147-.348701-.823851-.881331-.823851h-.864085c-.10538 0-.172434.06896-.172434.178185v2.442813c0 .107296.06897.178185.172434.178185zm.172434-1.433118v-1.059513h.64567c.356363 0 .570948.197337.570948.528792 0 .339125-.201173.530721-.555621.530721z" style="font-size:3.70417px;line-height:1.25;font-family:&quot;SF Pro Rounded&quot;;-inkscape-font-specification:&quot;SF Pro Rounded&quot;;text-align:center;letter-spacing:.079375px;text-anchor:middle;display:inline;fill:#000;fill-opacity:1;stroke:#000;stroke-width:.112109;stroke-miterlimit:4;stroke-dasharray:none;stroke-opacity:1"/><path d="M33.744927 95.34641c.175172 0 .312024-.136851.312024-.312028 0-.175166-.136852-.312017-.312024-.312017-.17517 0-.312022.136851-.312022.312017 0 .175177.136852.312028.312022.312028z" style="font-size:6.35px;line-height:1.25;font-family:&quot;SF Pro Rounded&quot;;-inkscape-font-specification:&quot;SF Pro Rounded&quot;;text-align:center;letter-spacing:.0529167px;text-anchor:middle;display:inline;fill:#000;fill-opacity:1;stroke:none;stroke-width:.280273"/><path d="M35.010757 93.939563h1.406842c.134115 0 .235387-.0876.235387-.221701 0-.134108-.10127-.221701-.235387-.221701h-1.406842c-.134116 0-.235386.0876-.235386.221701 0 .134118.101269.221701.235386.221701zM37.550736 95.357353c.150538 0 .246334-.09852.246334-.25454v-3.517102c0-.156014-.09579-.25455-.246334-.25455-.150537 0-.246334.09852-.246334.25455v3.517102c0 .156014.09579.25454.246334.25454z" style="font-size:5.29167px;line-height:1.25;font-family:&quot;SF Pro Rounded&quot;;-inkscape-font-specification:&quot;SF Pro Rounded&quot;;text-align:center;letter-spacing:0;text-anchor:middle;display:inline;fill:#000;fill-opacity:1;stroke:none;stroke-width:.280273"/><path d="M38.619006 95.345859c.10538 0 .170519-.06896.170519-.178185v-2.011729h.01725l1.454192 2.076876c.06131.08813.10538.113038.199258.113038.12262 0 .195425-.07087.195425-.187761V92.70571c0-.109214-.06515-.178185-.170518-.178185-.105379 0-.170518.06896-.170518.178185v2.019388h-.01725l-1.452277-2.082618c-.06131-.08813-.107293-.114955-.199257-.114955-.118788 0-.197342.08051-.197342.201172v2.438977c0 .109214.06515.178185.170518.178185zM42.435327 95.365022c.737634 0 1.172551-.442587 1.172551-1.189796v-.08432c0-.109214-.06705-.178185-.172434-.178185h-.816187c-.09579 0-.16477.06133-.16477.151364 0 .09004.06897.151353.16477.151353h.643753v.04979c0 .463656-.337204.781701-.827683.781701-.563284 0-.911984-.431083-.911984-1.126567 0-.683991.342952-1.094004.911984-1.094004.3487 0 .616931.168609.75871.48856.04407.101587.09579.143694.180097.143694.09579 0 .157107-.06324.157107-.157105 0-.04216-.0038-.08623-.02682-.145611-.149443-.387016-.563285-.647583-1.069092-.647583-.774037 0-1.266431.549873-1.266431 1.413955 0 .879422.49431 1.442705 1.266431 1.442705z" style="font-size:3.70417px;line-height:1.25;font-family:&quot;SF Pro Rounded&quot;;-inkscape-font-specification:&quot;SF Pro Rounded&quot;;font-variation-settings:normal;text-align:center;letter-spacing:.079375px;text-anchor:middle;display:inline;vector-effect:none;fill:#000;fill-opacity:1;stroke:#000;stroke-width:.112109;stroke-linecap:butt;stroke-linejoin:miter;stroke-miterlimit:4;stroke-dasharray:none;stroke-dashoffset:0;stroke-opacity:1;-inkscape-stroke:none;stop-color:#000"/><path d="M44.577942 95.34641c.175171 0 .312024-.136851.312024-.312028 0-.175166-.136853-.312017-.312024-.312017-.17517 0-.312023.136851-.312023.312017 0 .175177.136853.312028.312023.312028zM47.397102 95.384725c.728054 0 1.160508-.443402 1.160508-1.193356v-2.605658c0-.156014-.09579-.25455-.246335-.25455-.150538 0-.246334.09852-.246334.25455v2.602925c0 .481718-.235386.741744-.670577.741744-.317498 0-.544672-.183386-.634995-.514566-.04106-.153281-.117693-.221701-.243596-.221701-.145064 0-.232649.09311-.232649.251806 0 .10127.01916.172433.04927.260016.145064.41603.555621.67879 1.064712.67879z" style="font-size:5.29167px;line-height:1.25;font-family:&quot;SF Pro Rounded&quot;;-inkscape-font-specification:&quot;SF Pro Rounded&quot;;text-align:center;letter-spacing:0;text-anchor:middle;display:inline;fill:#000;fill-opacity:1;stroke:none;stroke-width:.280273"/><path d="M49.955967 92.245878c.114956 0 .210752-.09385.210752-.210748 0-.116873-.09579-.210759-.210752-.210759-.114957 0-.210753.09385-.210753.210759 0 .116873.09579.210748.210753.210748zm.712727 0c.114955 0 .210752-.09385.210752-.210748 0-.116873-.09579-.210759-.210752-.210759-.114956 0-.210753.09385-.210753.210759 0 .116873.09579.210748.210753.210748zm-.356364 3.119144c.685904 0 1.09783-.425341 1.09783-1.015446V92.70571c0-.109214-.06705-.178185-.172434-.178185-.105379 0-.172434.06896-.172434.178185v1.620879c0 .417672-.273979.720388-.752962.720388-.478983 0-.752962-.302716-.752962-.720388V92.70571c0-.109214-.06705-.178185-.172434-.178185-.105379 0-.172434.06896-.172434.178185v1.643866c0 .590105.411926 1.015446 1.09783 1.015446zM52.206969 95.353529c.103462 0 .172434-.07087.172434-.178185v-.9503h.660997l.553705 1.017353c.04407.08241.09005.111132.168601.111132.09963 0 .176266-.06896.176266-.159023 0-.03835-.0095-.07277-.0364-.120707l-.505806-.902408c.346783-.109203.55562-.408096.55562-.793194 0-.498147-.3487-.823851-.881329-.823851h-.86409c-.105379 0-.172434.06896-.172434.178185v2.442813c0 .107296.06897.178185.172434.178185zm.172434-1.433118v-1.059513h.64567c.356362 0 .570947.197337.570947.528792 0 .339125-.201173.530721-.55562.530721zM55.630522 95.365022c.737635 0 1.172552-.442587 1.172552-1.189796v-.08432c0-.109214-.06705-.178185-.172434-.178185h-.816188c-.09579 0-.16477.06133-.16477.151364 0 .09004.06897.151353.16477.151353h.643754v.04979c0 .463656-.337204.781701-.827684.781701-.563283 0-.911984-.431083-.911984-1.126567 0-.683991.342952-1.094004.911984-1.094004.348701 0 .616931.168609.75871.48856.04407.101587.09579.143694.180098.143694.09579 0 .157107-.06324.157107-.157105 0-.04216-.0038-.08623-.02682-.145611-.149443-.387016-.563285-.647583-1.069092-.647583-.774036 0-1.266431.549873-1.266431 1.413955 0 .879422.494311 1.442705 1.266431 1.442705zM57.502171 95.319038h1.404379c.09771 0 .164771-.06324.164771-.155188 0-.09195-.06705-.155198-.164771-.155198h-1.231945v-.950299h1.162972c.09579 0 .162855-.06324.162855-.15327 0-.09195-.06705-.153281-.162855-.153281h-1.162972v-.88707h1.231945c.09771 0 .164771-.06324.164771-.155198 0-.09195-.06705-.155188-.164771-.155188h-1.404379c-.105379 0-.172434.06896-.172434.178185v2.408322c0 .109214.06705.178185.172434.178185zM59.753173 95.345859c.10538 0 .170519-.06896.170519-.178185v-2.011729h.01725l1.454192 2.076876c.06131.08813.10538.113038.199258.113038.12262 0 .195425-.07087.195425-.187761V92.70571c0-.109214-.06515-.178185-.170518-.178185-.105379 0-.170518.06896-.170518.178185v2.019388h-.01725l-1.452277-2.082618c-.06131-.08813-.107293-.114955-.199257-.114955-.118788 0-.197342.08051-.197342.201172v2.438977c0 .109214.06515.178185.170518.178185z" style="font-size:3.70417px;line-height:1.25;font-family:&quot;SF Pro Rounded&quot;;-inkscape-font-specification:&quot;SF Pro Rounded&quot;;font-variation-settings:normal;text-align:center;letter-spacing:.079375px;text-anchor:middle;display:inline;vector-effect:none;fill:#000;fill-opacity:1;stroke:#000;stroke-width:.112109;stroke-linecap:butt;stroke-linejoin:miter;stroke-miterlimit:4;stroke-dasharray:none;stroke-dashoffset:0;stroke-opacity:1;-inkscape-stroke:none;stop-color:#000"/><path d="M63.921205 95.319038h2.006255c.139589 0 .235386-.09036.235386-.221701 0-.131375-.09579-.221701-.235386-.221701h-1.759921v-1.35758h1.661388c.136852 0 .232649-.09036.232649-.218957 0-.131375-.09579-.218968-.232649-.218968h-1.661388v-1.267253h1.759921c.139589 0 .235386-.09036.235386-.221701 0-.131375-.09579-.221701-.235386-.221701h-2.006255c-.150538 0-.246335.09851-.246335.25455v3.440462c0 .156014.09579.25455.246335.25455z" style="font-size:5.29167px;line-height:1.25;font-family:&quot;SF Pro Rounded&quot;;-inkscape-font-specification:&quot;SF Pro Rounded&quot;;text-align:center;letter-spacing:0;text-anchor:middle;display:inline;fill:#000;fill-opacity:1;stroke:none;stroke-width:.280273"/><path d="M66.830687 95.345859c.105379 0 .172434-.06896.172434-.178185V94.06027h1.517419v1.107404c0 .109214.06705.178185.172434.178185.105379 0 .172434-.06896.172434-.178185V92.70571c0-.109214-.06705-.178185-.172434-.178185-.105379 0-.172434.06896-.172434.178185v1.044174h-1.517419V92.70571c0-.109214-.06705-.178185-.172434-.178185-.10538 0-.172435.06896-.172435.178185v2.461964c0 .109214.06705.178185.172435.178185zM69.658384 95.353529c.103462 0 .172434-.07087.172434-.178185v-.9503h.660998l.553704 1.017353c.04407.08241.09005.111132.168603.111132.09963 0 .176265-.06896.176265-.159023 0-.03835-.0095-.07277-.03641-.120707l-.505806-.902408c.346784-.109203.555621-.408096.555621-.793194 0-.498147-.3487-.823851-.88133-.823851h-.864081c-.105379 0-.172434.06896-.172434.178185v2.442813c0 .107296.06897.178185.172434.178185zm.172434-1.433118v-1.059513h.64567c.356364 0 .570948.197337.570948.528792 0 .339125-.201173.530721-.55562.530721zM72.095233 95.319038h1.40438c.09771 0 .16477-.06324.16477-.155188 0-.09195-.06705-.155198-.16477-.155198h-1.231946v-.950299h1.162971c.09579 0 .162855-.06324.162855-.15327 0-.09195-.06705-.153281-.162855-.153281h-1.162971v-.88707h1.231946c.09771 0 .16477-.06324.16477-.155198 0-.09195-.06705-.155188-.16477-.155188h-1.40438c-.105379 0-.172434.06896-.172434.178185v2.408322c0 .109214.06705.178185.172434.178185zM75.047467 95.345859c.105379 0 .172434-.06896.172434-.178185v-2.302942h.735718c.09771 0 .16477-.06324.16477-.155198 0-.09195-.06705-.155188-.16477-.155188h-1.816305c-.09771 0-.16477.06324-.16477.155188 0 .09195.06705.155198.16477.155198h.735719v2.302942c0 .109214.06705.178185.172434.178185z" style="font-size:3.70417px;line-height:1.25;font-family:&quot;SF Pro Rounded&quot;;-inkscape-font-specification:&quot;SF Pro Rounded&quot;;font-variation-settings:normal;text-align:center;letter-spacing:.079375px;text-anchor:middle;display:inline;vector-effect:none;fill:#000;fill-opacity:1;stroke:#000;stroke-width:.112109;stroke-linecap:butt;stroke-linejoin:miter;stroke-miterlimit:4;stroke-dasharray:none;stroke-dashoffset:0;stroke-opacity:1;-inkscape-stroke:none;stop-color:#000"/></g></svg>