<svg width="338pt" height="312.41684pt" viewBox="0 0 119.23889 110.21373" xmlns="http://www.w3.org/2000/svg"><defs><path id="C" d="M-42 1608h588v290H-42z"/><path id="b" d="M1600.6648 5530.2114h158.57976v94.550331H1600.6648z"/><path id="a" d="M157-13h55v40h-55z"/><path id="c" d="M157-13h55v40h-55z"/><path id="d" d="M1600.6648 5530.2114h158.57976v94.550331H1600.6648z"/><path id="e" d="M157-13h55v40h-55z"/><path id="f" d="M1600.6648 5530.2114h158.57976v94.550331H1600.6648z"/><path id="g" d="M157-13h55v40h-55z"/><path id="h" d="M1600.6648 5530.2114h158.57976v94.550331H1600.6648z"/><path id="i" d="M157-13h55v40h-55z"/><path id="j" d="M1600.6648 5530.2114h158.57976v94.550331H1600.6648z"/><path id="k" d="M157-13h55v40h-55z"/><path id="l" d="M1600.6648 5530.2114h158.57976v94.550331H1600.6648z"/><path id="m" d="M157-13h55v40h-55z"/><path id="n" d="M1600.6648 5530.2114h158.57976v94.550331H1600.6648z"/><path id="o" d="M157-13h55v40h-55z"/><path id="p" d="M1600.6648 5530.2114h158.57976v94.550331H1600.6648z"/><path id="q" d="M157-13h55v40h-55z"/><path id="r" d="M1600.6648 5530.2114h158.57976v94.550331H1600.6648z"/><path id="s" d="M157-13h55v40h-55z"/><path id="t" d="M1600.6648 5530.2114h158.57976v94.550331H1600.6648z"/><path id="u" d="M157-13h55v40h-55z"/><path id="v" d="M1600.6648 5530.2114h158.57976v94.550331H1600.6648z"/><path id="w" d="M157-13h55v40h-55z"/><path id="x" d="M1600.6648 5530.2114h158.57976v94.550331H1600.6648z"/><path id="y" d="M157-13h55v40h-55z"/><path id="z" d="M1600.6648 5530.2114h158.57976v94.550331H1600.6648z"/><path id="A" d="M157-13h55v40h-55z"/><path id="B" d="M1600.6648 5530.2114h158.57976v94.550331H1600.6648z"/></defs><g style="display:inline"><path style="display:inline;fill:#000;fill-opacity:.3;stroke:none;stroke-width:.721389;stroke-miterlimit:4;stroke-dasharray:none;stroke-opacity:1;stop-color:#000" d="M21.448568 15.385749H140.68746V125.59947H21.448568Z" transform="translate(-21.448568 -15.385749)"/></g><g style="display:inline" transform="translate(-21.448568 -15.385749)"><text xml:space="preserve" transform="matrix(.26458 0 0 .26458 -151.33077 -2112.9399)" style="font-size:36px;line-height:1.25;font-family:Lato;-inkscape-font-specification:Lato;text-align:center;letter-spacing:0;white-space:pre;shape-inside:url(#A)"><tspan x="157" y="60.48"><tspan dx="0 20.882812 20.039062 14.484375 18.84375">Ehret</tspan></tspan></text><ellipse style="font-variation-settings:normal;display:inline;fill:none;fill-opacity:1;stroke:#fff;stroke-width:1.32292;stroke-linecap:butt;stroke-linejoin:miter;stroke-miterlimit:4;stroke-dasharray:none;stroke-dashoffset:0;stroke-opacity:1;stop-color:#000" cx="80.922424" cy="57.965431" rx="48.043922" ry="29.504705"/><ellipse style="font-variation-settings:normal;display:inline;fill:none;fill-opacity:1;stroke:#fff;stroke-width:1.32292;stroke-linecap:butt;stroke-linejoin:miter;stroke-miterlimit:4;stroke-dasharray:none;stroke-dashoffset:0;stroke-opacity:1;stop-color:#000" cx="98.836594" cy="57.965431" rx="29.427452" ry="17.969624"/><ellipse style="font-variation-settings:normal;display:inline;fill:none;fill-opacity:1;stroke:#fff;stroke-width:1.05833;stroke-linecap:butt;stroke-linejoin:miter;stroke-miterlimit:4;stroke-dasharray:none;stroke-dashoffset:0;stroke-opacity:1;stop-color:#000" cx="109.79208" cy="57.965431" rx="17.921618" ry="10.840415"/><ellipse style="font-variation-settings:normal;display:inline;fill:none;fill-opacity:1;stroke:#fff;stroke-width:1.05833;stroke-linecap:butt;stroke-linejoin:miter;stroke-miterlimit:4;stroke-dasharray:none;stroke-dashoffset:0;stroke-opacity:1;stop-color:#000" cx="116.49889" cy="57.965431" rx="10.810406" ry="6.4341874"/><ellipse style="font-variation-settings:normal;display:inline;fill:none;fill-opacity:1;stroke:#fff;stroke-width:.79375;stroke-linecap:butt;stroke-linejoin:miter;stroke-miterlimit:4;stroke-dasharray:none;stroke-dashoffset:0;stroke-opacity:1;stop-color:#000" cx="120.64079" cy="57.965431" rx="6.4154959" ry="3.7110264"/><g style="display:inline;stroke-width:1.24188"><path d="M-63.548936 409.74324h1.222372v19.83578h-1.222372zM-58.828303 409.74324h7.945423q1.777997 0 2.972589.4445t1.916903 1.16681q.722311.72232 1.027904 1.66688.333375.91679.333375 1.86134 0 .80565-.277812 1.52796t-.805655 1.27794q-.500062.55562-1.222373.94457-.69453.36114-1.555747.47227l.05556.0556q.194468-.0278.91678.16669.722311.19448 1.500185.75009.805654.52785 1.416841 1.50019.638967.94456.638967 2.44474 0 1.36129-.500061 2.38919-.500062 1.02791-1.416841 1.75022-.888999.69453-2.166934 1.05569-1.277935.36115-2.833683.36115h-7.945423zm7.945423 9.00111q2.52809 0 3.778244-1.11124 1.250154-1.13903 1.250154-2.97259 0-1.08347-.416718-1.80578-.416718-.75009-1.111248-1.19459-.69453-.47228-1.61131-.66675-.888998-.19447-1.889122-.19447h-6.72305v7.94542zm0 9.77899q2.666996 0 4.167181-1.11124 1.527966-1.13904 1.527966-3.38932 0-1.27793-.527843-2.08359-.527843-.83343-1.361279-1.30572-.805655-.47228-1.833559-.63896-1.000124-.19447-1.972466-.19447h-6.72305v8.7233z" style="font-weight:200;font-size:27.7812px;line-height:1.25;font-family:'Helvetica Neue';-inkscape-font-specification:'Helvetica Neue Ultra-Light';text-align:center;letter-spacing:0;text-anchor:middle;fill:#fff;fill-opacity:1;stroke-width:.328581" transform="matrix(.8055 0 0 .80496 83.405721 -232.59163)"/><path d="M-40.163241 423.05044h-1.889122q-.08334 1.83356.472281 3.13928.583405 1.30571 1.63909 2.13915 1.055686.83343 2.555871 1.25015 1.500185.38894 3.2504.38894 1.750216 0 3.00037-.33337 1.250154-.3056 2.08359-.80566.861217-.52784 1.333498-1.16681.500061-.63897.750092-1.25016.277812-.63896.333374-1.19459.08334-.55562.08334-.889 0-1.22237-.416718-2.08359-.388937-.86121-1.111248-1.44462-.69453-.61118-1.639091-1.00012-.916779-.41671-1.972465-.69453l-4.833929-1.19458q-.611186-.13892-1.16681-.36117-.527843-.22224-.944561-.5834-.416718-.36115-.666749-.86122-.22225-.52783-.22225-1.22236 0-1.11126.416718-1.86135.416718-.75009 1.083467-1.19459.69453-.47229 1.583529-.66674.916779-.22225 1.889121-.22225 1.055686 0 2.000247.30559.972342.27781 1.694653.86122.750092.55562 1.194592 1.41684.47228.83343.527842 1.97246h1.889122q0-1.52796-.611186-2.66699-.583406-1.16681-1.583529-1.94469-1.000123-.77787-2.333621-1.16681-1.333497-.38893-2.805901-.38893-2.08359 0-3.417088.61118-1.333497.58341-2.111371 1.44463-.750092.86121-1.027904 1.83355-.277812.97235-.277812 1.69466 0 1.16681.361155 1.97246.388937.80566 1.000124 1.36128.611186.55563 1.416841.889.833436.33337 1.694653.55562l4.417211 1.08347q.69453.16669 1.416841.4445.722311.25003 1.305717.66675.611186.41672.972342 1.0279.388936.61119.388936 1.44463 0 1.08346-.527842 1.86134-.527843.75009-1.333498 1.25015-.777874.47228-1.694653.69453-.91678.22225-1.694654.22225-1.361278 0-2.55587-.25003-1.194592-.27781-2.08359-.88901-.861217-.61118-1.361279-1.63909-.500061-1.02789-.47228-2.55587z" style="font-weight:300;font-size:27.7812px;line-height:1.25;font-family:'Helvetica Neue';-inkscape-font-specification:'Helvetica Neue Light';text-align:center;letter-spacing:0;text-anchor:middle;fill:#fff;fill-opacity:1;stroke-width:.328581" transform="matrix(.8055 0 0 .80496 83.405721 -232.59163)"/><path d="M-23.475408 422.40036q0-1.18639.301624-2.31246.321733-1.12605.965199-2.01082.663574-.90488 1.689097-1.4478 1.025523-.54292 2.453212-.54292 1.42769 0 2.433105.54292 1.025523.54292 1.668989 1.4478.663573.88477.965198 2.01082.321733 1.12607.321733 2.31246 0 1.16628-.321733 2.31245-.301625 1.12607-.965198 2.03094-.643466.88477-1.668989 1.42769-1.005415.54292-2.433105.54292-1.427689 0-2.453212-.54292-1.025523-.54292-1.689097-1.42769-.643466-.90487-.965199-2.03094-.301624-1.14617-.301624-2.31245zm-1.367364 0q0 1.48801.422274 2.83527.422274 1.34725 1.266823 2.37278.844548 1.02552 2.111371 1.64888 1.286931.60325 2.976028.60325 1.689098 0 2.95592-.60325 1.266823-.62336 2.111372-1.64888.844548-1.02553 1.266822-2.37278.422275-1.34726.422275-2.83527 0-1.48802-.422275-2.83526-.422274-1.34726-1.266822-2.37279-.844549-1.04562-2.111372-1.64887-1.266822-.62337-2.95592-.62337-1.689097 0-2.976028.62337-1.266823.60325-2.111371 1.64887-.844549 1.02553-1.266823 2.37279-.422274 1.34724-.422274 2.83526z" style="font-size:20.1083px;line-height:1.25;font-family:'Helvetica Neue';-inkscape-font-specification:'Helvetica Neue, Normal';text-align:center;letter-spacing:1.00542px;text-anchor:middle;fill:#fff;fill-opacity:1;stroke:#fff;stroke-width:.492872;stroke-miterlimit:4;stroke-dasharray:none;stroke-opacity:1" transform="matrix(.8055 0 0 .80496 83.405721 -232.59163)"/><path d="M-8.1883832 415.22171v14.35731h1.3673644v-6.83681H.0560195v-1.16628h-6.8770383v-5.18795H.9206764v-1.16627zM2.0891646 415.22171v1.16627h4.9868582v13.19104h1.367364v-13.19104h5.0069672v-1.16627z" style="font-size:20.1083px;line-height:1.25;font-family:'Helvetica Neue';-inkscape-font-specification:'Helvetica Neue, Normal';font-variation-settings:normal;text-align:center;letter-spacing:1.00542px;text-anchor:middle;opacity:1;vector-effect:none;fill:#fff;fill-opacity:1;stroke:#fff;stroke-width:.492872;stroke-linecap:butt;stroke-linejoin:miter;stroke-miterlimit:4;stroke-dasharray:none;stroke-dashoffset:0;stroke-opacity:1;-inkscape-stroke:none;stop-color:#000;stop-opacity:1" transform="matrix(.8055 0 0 .80496 83.405721 -232.59163)"/><path d="M17.257352 423.05044H15.36823q-.08334 1.83356.472281 3.13928.583405 1.30571 1.639091 2.13915 1.055685.83343 2.55587 1.25015 1.500185.38894 3.250401.38894 1.750215 0 3.000369-.33337 1.250154-.3056 2.08359-.80566.861217-.52784 1.333498-1.16681.500061-.63897.750092-1.25016.277812-.63896.333375-1.19459.08334-.55562.08334-.889 0-1.22237-.416718-2.08359-.388937-.86121-1.111248-1.44462-.69453-.61118-1.639091-1.00012-.916779-.41671-1.972465-.69453l-4.833929-1.19458q-.611186-.13892-1.16681-.36117-.527843-.22224-.944561-.5834-.416718-.36115-.666749-.86122-.222249-.52783-.222249-1.22236 0-1.11126.416718-1.86135.416718-.75009 1.083466-1.19459.69453-.47229 1.583529-.66674.91678-.22225 1.889122-.22225 1.055685 0 2.000246.30559.972342.27781 1.694653.86122.750093.55562 1.194592 1.41684.47228.83343.527843 1.97246h1.889121q0-1.52796-.611186-2.66699-.583405-1.16681-1.583529-1.94469-1.000123-.77787-2.33362-1.16681-1.333498-.38893-2.805902-.38893-2.08359 0-3.417087.61118-1.333498.58341-2.111372 1.44463-.750092.86121-1.027904 1.83355-.277812.97235-.277812 1.69466 0 1.16681.361156 1.97246.388936.80566 1.000123 1.36128.611186.55563 1.416841.889.833436.33337 1.694653.55562l4.417211 1.08347q.69453.16669 1.416841.4445.722312.25003 1.305717.66675.611186.41672.972342 1.0279.388937.61119.388937 1.44463 0 1.08346-.527843 1.86134-.527843.75009-1.333498 1.25015-.777873.47228-1.694653.69453-.91678.22225-1.694653.22225-1.361279 0-2.555871-.25003-1.194591-.27781-2.08359-.88901-.861217-.61118-1.361279-1.63909-.500061-1.02789-.47228-2.55587z" style="font-weight:300;font-size:27.7812px;line-height:1.25;font-family:'Helvetica Neue';-inkscape-font-specification:'Helvetica Neue Light';text-align:center;letter-spacing:0;text-anchor:middle;fill:#fff;fill-opacity:1;stroke-width:.328581" transform="matrix(.8055 0 0 .80496 83.405721 -232.59163)"/><path d="M37.343488 423.66719v5.91183h1.367364v-5.91183l5.670541-8.44548H42.75262l-4.705342 7.27919-4.72545-7.27919h-1.608664zM47.283597 424.85357h-1.367365q-.06033 1.32716.341841 2.27224.422275.9451 1.18639 1.54835.764115.60325 1.849964.90486 1.085848.28152 2.352671.28152t2.171696-.2413q.904873-.22119 1.508122-.58313.623358-.38207.965199-.84456.361949-.46249.542924-.90487.201083-.4625.241299-.86466.06032-.40217.06032-.64347 0-.88476-.301624-1.50812-.281516-.62336-.804332-1.04563-.502708-.44238-1.18639-.7239-.663574-.30162-1.427689-.50271l-3.498844-.86465q-.442383-.10055-.844549-.26141-.382057-.16087-.683682-.42228-.301624-.2614-.482599-.62335-.160866-.38206-.160866-.88477 0-.80433.301624-1.34725.301625-.54293.784224-.86466.502707-.34184 1.146173-.4826.663574-.16087 1.367364-.16087.764116 0 1.447798.22119.70379.20109 1.226606.62336.542924.40217.864657 1.02552.341841.60325.382058 1.42769h1.367364q0-1.10595-.442383-1.93039-.422274-.84455-1.146173-1.40758-.723899-.56304-1.689097-.84455-.965198-.28152-2.030938-.28152-1.508123 0-2.473321.44238-.965198.42228-1.528231 1.04564-.542924.62335-.744007 1.32714t-.201083 1.22661q0 .84455.261408 1.42769.281516.58314.723899.98531.442382.40216 1.025523.64346.603249.2413 1.226606.40217l3.19722.78422q.502707.12065 1.025523.32173.522816.18098.94509.4826.442383.30163.703791.74401.281516.44238.281516 1.04563 0 .78422-.382058 1.34726-.382057.54292-.965198.90487-.563032.34184-1.226606.50271-.663574.16086-1.226607.16086-.985306 0-1.849963-.18097-.864657-.20108-1.508123-.64347-.623357-.44238-.985306-1.18639-.36195-.744-.341841-1.84996z" style="font-size:20.1083px;line-height:1.25;font-family:'Helvetica Neue';-inkscape-font-specification:'Helvetica Neue, Normal';font-variation-settings:normal;text-align:center;letter-spacing:1.00542px;text-anchor:middle;opacity:1;vector-effect:none;fill:#fff;fill-opacity:1;stroke:#fff;stroke-width:.492872;stroke-linecap:butt;stroke-linejoin:miter;stroke-miterlimit:4;stroke-dasharray:none;stroke-dashoffset:0;stroke-opacity:1;-inkscape-stroke:none;stop-color:#000;stop-opacity:1" transform="matrix(.8055 0 0 .80496 83.405721 -232.59163)"/></g></g></svg>