<svg width="970.14789" height="1134.9917" viewBox="0 0 256.6849 300.29982" xmlns="http://www.w3.org/2000/svg"><defs><path id="c" d="M1600.6648 5530.2114h158.57976v94.550331H1600.6648z"/><path id="b" d="M157-13h55v40h-55z"/><filter style="color-interpolation-filters:sRGB" id="a" x="-.05642297" y="-.03515585" width="1.1128459" height="1.0703117"><feGaussianBlur stdDeviation="1.1384116"/></filter></defs><text xml:space="preserve" transform="matrix(.26458 0 0 .26458 -108.48833 -1917.9025)" style="font-size:36px;line-height:1.25;font-family:Lato;-inkscape-font-specification:Lato;text-align:center;letter-spacing:0;white-space:pre;shape-inside:url(#b)"><tspan x="157" y="60.48"><tspan dx="0 20.882812 20.039062 14.484375 18.84375">Ehret</tspan></tspan></text><g style="display:inline"><path style="display:inline;vector-effect:none;fill:#000;fill-opacity:.35;stroke-width:.828178;stroke-opacity:.968165;stop-color:#000" d="M414.58597-167.02562h256.68491v300.29983H414.58597Z" transform="translate(-414.58597 167.02562)"/></g><g style="display:inline"><g style="display:inline;stroke-width:.95413"><path style="display:inline;fill:none;fill-opacity:1;stroke:#fff;stroke-width:2.27202;stroke-miterlimit:4;stroke-dasharray:none;stroke-opacity:1;stop-color:#000" d="M-132.42407 448.2864a13.08618 7.5675644 0 0 1-13.0861 7.56752 13.08618 7.5675644 0 0 1-13.0861-7.56752 13.08618 7.5675644 0 0 1 13.0861-7.56749 13.08618 7.5675644 0 0 1 13.0861 7.56749z" transform="matrix(1.04777 0 0 1.04838 361.26237 -383.66375)"/><path style="display:inline;fill:none;fill-opacity:1;stroke:#fff;stroke-width:2.77692;stroke-miterlimit:4;stroke-dasharray:none;stroke-opacity:1;stop-color:#000" d="M-130.24713 448.2864a22.072017 13.147164 0 0 1-22.0719 13.14707 22.072017 13.147164 0 0 1-22.0719-13.14707 22.072017 13.147164 0 0 1 22.0719-13.14704 22.072017 13.147164 0 0 1 22.0719 13.14704z" transform="matrix(1.04777 0 0 1.04838 361.26237 -383.66375)"/><path style="display:inline;fill:none;fill-opacity:1;stroke:#fff;stroke-width:3.2818;stroke-miterlimit:4;stroke-dasharray:none;stroke-opacity:1;stop-color:#000" d="M-127.49585 448.28639a37.060391 22.626378 0 0 1-37.0602 22.62622 37.060391 22.626378 0 0 1-37.0601-22.62622 37.060391 22.626378 0 0 1 37.0601-22.62616 37.060391 22.626378 0 0 1 37.0602 22.62616z" transform="matrix(1.04777 0 0 1.04838 361.26237 -383.66375)"/><path style="display:inline;fill:none;fill-opacity:1;stroke:#fff;stroke-width:3.78671;stroke-miterlimit:4;stroke-dasharray:none;stroke-opacity:1;stop-color:#000" d="M-124.06333 448.28638a61.7609 38.415188 0 0 1-61.7606 38.41491 61.7609 38.415188 0 0 1-61.7605-38.41491 61.7609 38.415188 0 0 1 61.7605-38.41483 61.7609 38.415188 0 0 1 61.7606 38.41483z" transform="matrix(1.04777 0 0 1.04838 361.26237 -383.66375)"/><path style="display:inline;fill:none;fill-opacity:1;stroke:#fff;stroke-width:4.2916;stroke-miterlimit:4;stroke-dasharray:none;stroke-opacity:1;stop-color:#000" d="M-120.1248 448.28634A102.17561 64.412905 0 0 1-222.3 512.69879a102.17561 64.412905 0 0 1-102.1749-64.41245A102.17561 64.412905 0 0 1-222.3 383.87404a102.17561 64.412905 0 0 1 102.1752 64.4123z" transform="matrix(1.04777 0 0 1.04838 361.26237 -383.66375)"/></g><g style="stroke-width:1.00463"><path d="M-152.55804 305.3312h10.9802v3.22791h-7.35541v4.31271h6.69395v3.22791h-6.69395v4.52437h7.4877v3.22791h-11.11249zM-129.94983 323.85201v-7.51416q0-1.61395-.47625-2.32833-.44979-.71437-1.56104-.71437-.97896 0-1.66687.58208-.66146.55563-.9525 1.40229v8.57249h-3.43958v-13.22915h2.7252l.39688 1.74625h.10583q.60854-.84667 1.61396-1.48167 1.00541-.635 2.59291-.635.97896 0 1.74625.26459.76729.26458 1.29645.87312.52917.60854.79375 1.66687.26459 1.03188.26459 2.56646v8.22853zM-111.64275 323.85201q0 2.88396-1.56104 4.23333-1.56104 1.37583-4.36562 1.37583-1.905 0-3.01625-.26458-1.08479-.26459-1.64041-.55563l.71437-2.7252q.60854.23812 1.40229.47625.82021.23812 2.01083.23812 1.79917 0 2.43416-.79375.66146-.76729.66146-2.16958v-.84666h-.10583q-.92604 1.24354-3.28083 1.24354-2.56646 0-3.83645-1.5875-1.24354-1.5875-1.24354-4.97416 0-3.54541 1.69333-5.37104 1.69333-1.82562 4.92124-1.82562 1.69333 0 3.01625.23813 1.34937.23812 2.19604.55562zm-5.82083-2.54q1.00542 0 1.53458-.44979.55563-.44979.84667-1.34937v-5.95312q-.82021-.34396-2.03729-.34396-1.32292 0-2.06375 1.00542-.74083.97896-.74083 3.14854 0 1.93145.635 2.93687.635 1.00541 1.82562 1.00541zM-107.56404 310.62286h3.43958v13.22915h-3.43958zm-.50271-3.73062q0-.76729.55562-1.29646.58209-.55562 1.5875-.55562 1.00542 0 1.61396.55562.635.52917.635 1.29646 0 .76729-.635 1.29646-.60854.5027-1.61396.5027-1.00541 0-1.5875-.5027-.55562-.52917-.55562-1.29646zM-91.860208 323.85201v-7.51416q0-1.61395-.476249-2.32833-.449791-.71437-1.56104-.71437-.978957 0-1.666873.58208-.661457.55563-.952499 1.40229v8.57249h-3.439578v-13.22915h2.7252l.396879 1.74625h.105833q.608541-.84667 1.613956-1.48167 1.005416-.635 2.592914-.635.978957 0 1.746247.26459.767291.26458 1.296457.87312.529166.60854.793749 1.66687.264583 1.03188.264583 2.56646v8.22853zM-74.161671 322.7143q-.793749.635-2.169581 1.08479-1.349373.42334-2.883955.42334-3.201454 0-4.683119-1.85208-1.481665-1.87854-1.481665-5.13291 0-3.4925 1.666873-5.23875 1.666873-1.74625 4.683119-1.74625 1.005416 0 1.957915.26459.952498.26458 1.693331.87312.740832.60854 1.190623 1.64042.449791 1.03187.449791 2.56645 0 .55563-.07938 1.19062-.05292.635-.185208 1.32292h-7.93749q.07938 1.66687.846666 2.51354.793749.84666 2.539997.84666 1.08479 0 1.931456-.3175.873124-.34395 1.322915-.68791zm-4.921244-9.71019q-1.349373 0-2.010831.8202-.634999.79375-.767291 2.14313h4.921244q.105833-1.42875-.449791-2.19604-.529166-.76729-1.693331-.76729zM-60.087094 322.7143q-.793749.635-2.169581 1.08479-1.349373.42334-2.883954.42334-3.201455 0-4.683119-1.85208-1.481665-1.87854-1.481665-5.13291 0-3.4925 1.666873-5.23875 1.666873-1.74625 4.683119-1.74625 1.005415 0 1.957914.26459.952499.26458 1.693331.87312.740832.60854 1.190624 1.64042.449791 1.03187.449791 2.56645 0 .55563-.07937 1.19062-.05292.635-.185208 1.32292h-7.93749q.07937 1.66687.846665 2.51354.793749.84666 2.539997.84666 1.08479 0 1.931456-.3175.873124-.34395 1.322915-.68791zm-4.921244-9.71019q-1.349373 0-2.010831.8202-.634999.79375-.76729 2.14313h4.921243q.105834-1.42875-.449791-2.19604-.529166-.76729-1.693331-.76729zM-49.138324 313.85077q-.820208-.29104-1.481665-.29104-.926041 0-1.56104.50271-.608541.47625-.820207 1.24354v8.54603h-3.439579v-13.22915h2.672288l.396875 1.74625h.105833q.449791-.97896 1.217082-1.50812.76729-.52917 1.799164-.52917.687916 0 1.56104.29104zM-46.027818 310.62286h3.439579v13.22915h-3.439579zm-.502708-3.73062q0-.76729.555624-1.29646.582083-.55562 1.587498-.55562 1.005416 0 1.613957.55562.634999.52917.634999 1.29646 0 .76729-.634999 1.29646-.608541.5027-1.613957.5027-1.005415 0-1.587498-.5027-.555624-.52917-.555624-1.29646zM-30.323984 323.85201v-7.51416q0-1.61395-.476249-2.32833-.449791-.71437-1.56104-.71437-.978957 0-1.666873.58208-.661457.55563-.952498 1.40229v8.57249h-3.439579v-13.22915h2.725205l.396874 1.74625h.105833q.608541-.84667 1.613957-1.48167 1.005415-.635 2.592913-.635.978957 0 1.746248.26459.76729.26458 1.296456.87312.529166.60854.793749 1.66687.264583 1.03188.264583 2.56646v8.22853zM-12.016914 323.85201q0 2.88396-1.56104 4.23333-1.561039 1.37583-4.365619 1.37583-1.904998 0-3.016246-.26458-1.08479-.26459-1.640415-.55563l.714374-2.7252q.608541.23812 1.40229.47625.820208.23812 2.010831.23812 1.799164 0 2.434164-.79375.661457-.76729.661457-2.16958v-.84666h-.105833q-.926041 1.24354-3.280829 1.24354-2.566455 0-3.836454-1.5875-1.24354-1.5875-1.24354-4.97416 0-3.54541 1.693331-5.37104 1.693332-1.82562 4.921244-1.82562 1.693331 0 3.016246.23813 1.349374.23812 2.196039.55562zm-5.820826-2.54q1.005416 0 1.534582-.44979.555624-.44979.846665-1.34937v-5.95312q-.820207-.34396-2.037289-.34396-1.322915 0-2.063747 1.00542-.740833.97896-.740833 3.14854 0 1.93145.635 2.93687.634999 1.00541 1.825622 1.00541zM-1.3790214 317.23744q0-3.36021 1.6404146-5.15937 1.6404146-1.82563 4.6037441-1.82563 1.587498 0 2.7516632.50271 1.1641652.50271 1.9314559 1.42875.7672906.89958 1.1377066 2.19604.396875 1.29646.396875 2.8575 0 3.3602-1.6404148 5.18582-1.6139563 1.79917-4.5772859 1.79917-1.5874979 0-2.7516631-.50271T.15556 322.31743q-.7672907-.92604-1.1641652-2.2225-.3704162-1.29645-.3704162-2.85749zm3.5454122 0q0 .87312.1587498 1.61395t.4762494 1.29646q.3174996.55562.8202073.87312.529166.29104 1.24354.29104 1.3493733 0 2.0108308-.97895.6614575-.97896.6614575-3.09562 0-1.82563-.6085409-2.93688-.6085409-1.1377-2.0637474-1.1377-1.2699983 0-1.9843724.9525-.7143741.9525-.7143741 3.12208zM12.733598 310.62286h1.825623v-.74083q0-2.51354 1.058332-3.62479 1.058332-1.13771 3.069162-1.13771 2.116664 0 3.518954.50271l-.661457 2.75167q-.608541-.21167-1.084791-.26459-.449791-.0794-.952498-.0794-.529166 0-.846666.15875-.291041.15875-.449791.5027-.132291.3175-.185208.82021-.02646.47625-.02646 1.11125h2.910413v2.91041h-2.910413v10.31874h-3.439577v-10.31871h-1.825623zM34.728717 310.62286v13.22915h-3.439579v-10.31874h-3.995203v10.31874h-3.439579v-10.31874h-1.825623v-2.91041h1.825623v-.74083q0-2.51354 1.296456-3.65125 1.296457-1.16416 3.757079-1.16416 1.825623 0 3.227913.29104 1.428748.26458 2.301872.76729l-.899583 2.67229q-.687915-.37042-1.666872-.58208-.978958-.23813-2.169581-.23813-.767291 0-1.24354.18521-.47625.15875-.740833.50271-.264583.3175-.343957.8202-.07937.50271-.07937 1.13771zM48.797493 323.0318q-.793749.58209-1.931455.87313-1.111249.3175-2.301873.3175-1.587498 0-2.698746-.50271-1.08479-.50271-1.772706-1.40229-.687916-.92604-1.005416-2.2225-.291041-1.29645-.291041-2.85749 0-3.36021 1.508123-5.15937 1.508123-1.82563 4.392078-1.82563 1.455206 0 2.32833.23813.899583.23812 1.613957.60854l-.820208 2.80458q-.608541-.29104-1.217081-.44979-.582083-.15875-1.349374-.15875-1.428748 0-2.16958.9525-.740833.92604-.740833 2.98979 0 .84666.185208 1.56104.185208.71437.555625 1.24354.370416.52916.952498.84666.608541.29104 1.40229.29104.873124 0 1.481665-.21166.608541-.23813 1.08479-.55563zM61.815402 322.7143q-.793749.635-2.16958 1.08479-1.349374.42334-2.883955.42334-3.201454 0-4.683119-1.85208-1.481665-1.87854-1.481665-5.13291 0-3.4925 1.666873-5.23875 1.666873-1.74625 4.683119-1.74625 1.005415 0 1.957914.26459.952499.26458 1.693331.87312.740833.60854 1.190624 1.64042.449791 1.03187.449791 2.56645 0 .55563-.07937 1.19062-.05292.635-.185208 1.32292h-7.93749q.07937 1.66687.846666 2.51354.793749.84666 2.539996.84666 1.084791 0 1.931456-.3175.873124-.34395 1.322915-.68791zm-4.921244-9.71019q-1.349373 0-2.01083.8202-.634999.79375-.767291 2.14313h4.921244q.105833-1.42875-.449791-2.19604-.529166-.76729-1.693332-.76729z" style="font-weight:700;font-size:26.4583px;line-height:1.25;font-family:'PT Sans';-inkscape-font-specification:'PT Sans Bold';text-align:center;letter-spacing:.79375px;text-anchor:middle;fill:#fff;fill-opacity:1;stroke-width:.265807" transform="matrix(.99081 0 0 1 173.88380038 -133.12657)"/></g><path d="M-142.35979 365.40611q0-.84667-.635-1.37583-.60854-.52917-1.56104-.9525-.92604-.44979-2.03729-.89958-1.08479-.47625-2.03728-1.13771-.92605-.68792-1.56104-1.69333-.60855-1.00542-.60855-2.56646 0-1.34937.4498-2.32833.44979-1.00541 1.26999-1.66687.84667-.66146 1.98438-.97896 1.1377-.3175 2.53999-.3175 1.61396 0 3.04271.29105 1.42875.26458 2.35479.79374l-1.13771 3.04271q-.58208-.37042-1.74625-.66146-1.16416-.3175-2.51354-.3175-1.27 0-1.95791.50271-.66146.50271-.66146 1.34937 0 .79375.60854 1.32292.635.52916 1.56104.97895.9525.4498 2.03729.92605 1.11125.47624 2.03729 1.16416.9525.66146 1.56104 1.66687.635.97896.635 2.46062 0 1.48167-.50271 2.56646-.47625 1.05833-1.37583 1.77271-.87312.71437-2.14312 1.05833-1.24354.34396-2.75167.34396-1.98437 0-3.49249-.37042-1.50812-.37042-2.2225-.74083l1.16417-3.09562q.29104.15875.74083.34395.47625.18521 1.05833.34396.58208.15875 1.21708.26459.66146.10583 1.34938.10583 1.61395 0 2.46062-.52917.87312-.55562.87312-1.66687zM-136.00194 363.76569q0-3.3602 1.64041-5.15936 1.64042-1.82563 4.60375-1.82563 1.58749 0 2.75166.50271 1.16416.50271 1.93146 1.42875.76729.89958 1.1377 2.19604.39688 1.29646.39688 2.85749 0 3.36021-1.64042 5.18583-1.61395 1.79917-4.57728 1.79917-1.5875 0-2.75167-.50271-1.16416-.50271-1.95791-1.40229-.76729-.92604-1.16417-2.2225-.37041-1.29646-.37041-2.8575zm3.54541 0q0 .87313.15875 1.61396.15875.74083.47625 1.29646.3175.55562.82021.87312.52916.29104 1.24354.29104 1.34937 0 2.01083-.97895.66145-.97896.66145-3.09563 0-1.82562-.60854-2.93687-.60854-1.1377-2.06374-1.1377-1.27 0-1.98438.9525-.71437.95249-.71437 3.12207zM-121.62475 357.15112h1.82562v-.74083q0-2.51354 1.05833-3.62479 1.05833-1.13771 3.06916-1.13771 2.11667 0 3.51896.50271l-.66146 2.75166q-.60854-.21166-1.08479-.26458-.44979-.0794-.9525-.0794-.52916 0-.84666.15875-.29104.15875-.44979.5027-.1323.3175-.18521.82021-.0265.47625-.0265 1.11125h2.91041v2.91041h-2.91041v10.31874h-3.43958V360.0615h-1.82562zM-112.45695 357.15112h1.82562v-2.48708l3.43958-.97896v3.46604h3.22791v2.91041h-3.22791v5.08q0 1.37583.26458 1.98437.29104.58208 1.05833.58208.52917 0 .89958-.10583.39688-.10583.87313-.3175l.60854 2.64583q-.71438.34396-1.66687.58208-.9525.23813-1.93146.23813-1.82562 0-2.69875-.92604-.84666-.9525-.84666-3.09563v-6.66749h-1.82562zM-91.659901 357.15112l2.407706 6.77332.476249 2.19604h.105833l.370416-2.22249 1.693332-6.74687h3.148537l-4.074578 13.36144h-2.539997l-2.672288-7.40832-.343958-1.66688h-.132291l-.3175 1.69334-2.539997 7.38186h-2.61937l-4.259793-13.36144h3.730623l1.93146 6.64103.317498 2.35479h.132292l.449791-2.38125 2.196039-6.61457zM-81.190269 357.91841q1.058332-.47625 2.513539-.74083 1.455206-.29104 3.042704-.29104 1.375832 0 2.301872.34395.926041.3175 1.455207.92605.555624.60854.76729 1.4552.238125.84667.238125 1.905 0 1.16416-.07937 2.35479-.07937 1.16416-.105833 2.30187 0 1.13771.07937 2.2225.07937 1.05833.396874 2.01083h-2.804579l-.555625-1.82562h-.132291q-.529166.8202-1.481665 1.42874-.926041.58209-2.407705.58209-.926041 0-1.666873-.26459-.740833-.29104-1.269999-.79375-.529166-.52916-.820207-1.21708-.291041-.71437-.291041-1.5875 0-1.21708.529166-2.03728.555624-.84667 1.561039-1.34938 1.031874-.52916 2.434164-.71437 1.428748-.21167 3.174996-.13229.185208-1.48167-.211666-2.11667-.396875-.66145-1.772706-.66145-1.031874 0-2.196039.21166-1.137707.21167-1.87854.55563zm4.36562 9.84249q1.031873 0 1.640414-.44979.608541-.47625.899582-1.00542v-1.71979q-.820207-.0794-1.587498-.0265-.740832.0529-1.322915.23813-.582082.18521-.92604.52916-.343958.34396-.343958.87313 0 .74083.423333 1.16416.449791.39688 1.217082.39688zM-59.624283 360.37903q-.820207-.29104-1.481665-.29104-.92604 0-1.56104.50271-.60854.47625-.820207 1.24354v8.54603h-3.439579v-13.22915h2.672288l.396875 1.74625h.105833q.449791-.97896 1.217082-1.50813.767291-.52916 1.799164-.52916.687916 0 1.56104.29104zM-45.983377 369.24256q-.793749.635-2.169581 1.08479-1.349373.42334-2.883954.42334-3.201455 0-4.683119-1.85208-1.481665-1.87854-1.481665-5.13292 0-3.49249 1.666873-5.23874 1.666873-1.74625 4.683119-1.74625 1.005415 0 1.957914.26459.952499.26458 1.693331.87312.740833.60854 1.190624 1.64042.449791 1.03187.449791 2.56645 0 .55562-.07937 1.19062-.05292.635-.185208 1.32292h-7.93749q.07937 1.66687.846665 2.51354.793749.84666 2.539997.84666 1.08479 0 1.931456-.3175.873124-.34395 1.322915-.68791zm-4.921244-9.71019q-1.349373 0-2.010831.8202-.634999.79375-.76729 2.14313h4.921243q.105834-1.42875-.449791-2.19604-.529166-.76729-1.693331-.76729zM-26.226469 365.40611q0-.84667-.634999-1.37583-.608541-.52917-1.56104-.9525-.92604-.44979-2.037289-.89958-1.08479-.47625-2.037289-1.13771-.92604-.68792-1.561039-1.69333-.608541-1.00542-.608541-2.56646 0-1.34937.449791-2.32833.449791-1.00541 1.269998-1.66687.846666-.66146 1.984373-.97896 1.137707-.3175 2.539996-.3175 1.613957 0 3.042705.29105 1.428748.26458 2.354789.79374l-1.137707 3.04271q-.582083-.37042-1.746248-.66146-1.164165-.3175-2.513539-.3175-1.269998 0-1.957914.50271-.661457.50271-.661457 1.34937 0 .79375.608541 1.32292.634999.52916 1.561039.97895.952499.4498 2.037289.92605 1.111249.47624 2.037289 1.16416.952499.66146 1.56104 1.66687.634999.97896.634999 2.46062 0 1.48167-.502707 2.56646-.47625 1.05833-1.375832 1.77271-.873124.71437-2.143122 1.05833-1.24354.34396-2.751663.34396-1.984373 0-3.492496-.37042t-2.222497-.74083l1.164165-3.09562q.291041.15875.740832.34395.47625.18521 1.058332.34396.582083.15875 1.217082.26459.661458.10583 1.349374.10583 1.613956 0 2.460621-.52917.873124-.55562.873124-1.66687zM-14.418218 364.5859l.47625 2.06375h.15875l.343958-2.09021 2.01083-7.40832h3.5454122l-4.0216612 11.93269q-.502708 1.48167-.978957 2.69875-.449791 1.24354-1.005416 2.14312-.555624.89958-1.24354 1.37583-.661457.50271-1.587498.50271-1.375831 0-2.196038-.44979l.634999-2.75166q.396874.15875.793749.15875.608541 0 1.164165-.52917.582082-.50271.873124-1.85208l-5.529785-13.22915h4.127495zM-.0377199 366.72902q0-.52916-.4497911-.84666t-1.1112486-.58208q-.6614575-.26459-1.4552065-.52917-.793749-.29104-1.4552065-.76729-.6614574-.50271-1.1112485-1.24354-.4497911-.76729-.4497911-1.95791 0-1.95792 1.1641652-2.98979 1.1641651-1.03188 3.360204-1.03188 1.5081231 0 2.7252049.3175t1.9049976.71438l-.7672907 2.48708q-.6085409-.23813-1.5345814-.50271-.9260405-.26458-1.8785393-.26458-1.5345814 0-1.5345814 1.19062 0 .47625.4497911.76729t1.1112486.55563q.6614575.23812 1.4552065.52916.793749.29104 1.4552065.76729.6614575.44979 1.1112486 1.19063.449791.74083.449791 1.90499 0 2.01083-1.2964566 3.175-1.2699984 1.13771-3.8364535 1.13771-1.4022899 0-2.64583-.37042-1.2170817-.34396-1.9843724-.82021l.9524988-2.56645q.6085409.34396 1.6139562.68791 1.0054154.3175 2.0637474.3175.7672907 0 1.2170818-.29104.4762494-.29104.4762494-.97896zM5.3300089 357.15114h1.8256227v-2.48708l3.4395794-.97896v3.46604h3.227912v2.91041h-3.227912v5.08q0 1.37583.264583 1.98437.291041.58208 1.058332.58208.529166 0 .899582-.10583.396874-.10583.873123-.3175l.608541 2.64583q-.714374.34396-1.666872.58208-.952499.23813-1.931456.23813-1.8256229 0-2.6987468-.92604-.8466656-.9525-.8466656-3.09563v-6.66749H5.3300089ZM27.442526 369.24257q-.793749.635-2.16958 1.08479-1.349374.42334-2.883955.42334-3.201454 0-4.683119-1.85208-1.481665-1.87854-1.481665-5.13292 0-3.49249 1.666873-5.23874 1.666873-1.74625 4.683119-1.74625 1.005416 0 1.957914.26459.952499.26458 1.693331.87312.740833.60854 1.190624 1.64042.449791 1.03187.449791 2.56645 0 .55562-.07937 1.19062-.05292.635-.185208 1.32292h-7.93749q.07937 1.66687.846666 2.51354.793749.84666 2.539997.84666 1.08479 0 1.931455-.3175.873124-.34395 1.322915-.68791zm-4.921243-9.71019q-1.349374 0-2.010831.8202-.634999.79375-.767291 2.14313h4.921244q.105833-1.42875-.449791-2.19604-.529166-.76729-1.693331-.76729zM38.86755 370.38027v-7.19666q0-1.82562-.343958-2.59291-.343958-.76729-1.428748-.76729-.899582 0-1.455207.50271-.555624.47625-.846665 1.24354v8.81061h-3.439579v-13.22915h2.672288l.396875 1.74625h.105833q.608541-.84667 1.534581-1.48167.952499-.635 2.434164-.635 1.269998 0 2.063747.52917.820207.50271 1.269998 1.71979.608541-1.03187 1.56104-1.64042.952499-.60854 2.301872-.60854 1.111249 0 1.878539.26459.793749.26458 1.269999.92604.502708.635.740832 1.71979.238125 1.08479.238125 2.75166v7.93749h-3.439579v-7.43478q0-1.56104-.343958-2.32833-.317499-.79375-1.455206-.79375-.926041 0-1.481665.50271-.529166.5027-.793749 1.37583v8.67832zM59.17926 366.72902q0-.52916-.449791-.84666t-1.111249-.58208q-.661457-.26459-1.455206-.52917-.793749-.29104-1.455207-.76729-.661457-.50271-1.111248-1.24354-.449791-.76729-.449791-1.95791 0-1.95792 1.164165-2.98979 1.164165-1.03188 3.360204-1.03188 1.508123 0 2.725205.3175 1.217081.3175 1.904997.71438l-.76729 2.48708q-.608541-.23813-1.534582-.50271-.92604-.26458-1.878539-.26458-1.534581 0-1.534581 1.19062 0 .47625.449791.76729t1.111248.55563q.661458.23812 1.455207.52916.793749.29104 1.455206.76729.661458.44979 1.111249 1.19063.449791.74083.449791 1.90499 0 2.01083-1.296457 3.175-1.269998 1.13771-3.836453 1.13771-1.40229 0-2.64583-.37042-1.217082-.34396-1.984373-.82021l.952499-2.56645q.608541.34396 1.613956.68791 1.005416.3175 2.063748.3175.76729 0 1.217081-.29104.47625-.29104.47625-.97896z" style="font-weight:700;font-size:26.4583px;line-height:1.25;font-family:'PT Sans';-inkscape-font-specification:'PT Sans Bold';text-align:center;letter-spacing:1.05833px;text-anchor:middle;fill:#fff;stroke-width:.264583" transform="translate(173.31205 -133.12657)"/><g aria-label="for" style="font-weight:700;font-size:14.8167px;line-height:1.25;font-family:'PT Sans';-inkscape-font-specification:'PT Sans Bold';text-align:center;letter-spacing:8.33437px;text-anchor:middle;display:inline;stroke-width:.264583"><path d="M-273.26504 347.5969h1.02235v-.41487q0-1.40759.59267-2.02989.59267-.63711 1.71874-.63711 1.18534 0 1.97062.28151l-.37042 1.54094q-.34078-.11853-.60748-.14817-.25189-.0444-.5334-.0444-.29634 0-.47414.0889-.16298.0889-.25188.28152-.0741.1778-.10372.45932-.0148.2667-.0148.6223h1.62983v1.62984h-1.62983v5.77851h-1.92618v-5.77851h-1.02235zM-259.94554 351.30107q0-1.88172.91863-2.88925.91864-1.02235 2.57811-1.02235.889 0 1.54093.28151.65194.28152 1.08162.8001.42969.50377.63712 1.22979.22225.72602.22225 1.6002 0 1.88172-.91863 2.90408-.90382 1.00753-2.56329 1.00753-.889 0-1.54094-.28151-.65193-.28152-1.09643-.78529-.42969-.51858-.65194-1.2446-.20743-.72602-.20743-1.60021zm1.98543 0q0 .48896.0889.90382.0889.41487.26671.72602.1778.31115.45931.48895.29634.16299.69639.16299.75565 0 1.12607-.54822.37041-.54822.37041-1.73356 0-1.02235-.34078-1.64465-.34078-.63712-1.1557-.63712-.7112 0-1.11125.5334-.40006.5334-.40006 1.74837zM-239.20798 349.40454q-.45931-.16299-.82973-.16299-.51859 0-.87419.28152-.34078.2667-.45931.69638v4.7858h-1.92617v-7.40835h1.49648l.22225.9779h.0593q.25188-.54822.68157-.84455.42968-.29633 1.00753-.29633.38524 0 .87419.16298z" style="fill:#fff" transform="translate(384.26295 -142.5153106)"/></g><g aria-label="Dr.-Ing. Jürgen Ehret" style="font-size:22.7186px;line-height:1.25;font-family:'PT Sans';-inkscape-font-specification:'PT Sans';text-align:center;letter-spacing:1.05668px;text-anchor:middle;display:inline;stroke-width:.264583"><path d="M-151.32775 394.60171q.47709-.0682 1.06777-.11359.6134-.0454 1.24952-.0682.63613-.0227 1.22681-.0227.6134-.0227 1.09049-.0227 2.11283 0 3.61226.59069 1.49943.59068 2.43089 1.65846.93146 1.06777 1.36312 2.54448.43165 1.47671.43165 3.24876 0 1.61302-.40894 3.11245-.40893 1.49942-1.36311 2.65807t-2.52177 1.86293q-1.54486.70427-3.83944.70427-.3635 0-.9769-.0227-.59068-.0227-1.24952-.0682-.63612-.0227-1.22681-.0682-.59068-.0227-.88602-.0682zm4.8845 2.54448q-.49981 0-1.02234.0227-.49981.0227-.74971.0682v10.65502q.0909.0227.29534.0454.22718 0 .47709.0227.2499 0 .47709.0227h.34078q1.31768 0 2.18098-.45438.88603-.47709 1.38584-1.24952.52253-.77243.72699-1.77205.20447-1.02234.20447-2.09011 0-.93146-.18175-1.86293-.18175-.95418-.68156-1.70389-.47709-.74972-1.31768-1.22681-.84058-.47709-2.13554-.47709zM-129.38168 401.9171q-.70427-.2499-1.27224-.2499-.79515 0-1.34039.43165-.52253.40893-.70428 1.06777v7.33811h-2.95342v-11.3593h2.29458l.34078 1.49943h.0909q.38622-.84059 1.04506-1.29496.65884-.45437 1.54486-.45437.59069 0 1.3404.2499zM-128.32464 409.0053q0-.79515.49981-1.24952.49981-.47709 1.31768-.47709.8633 0 1.36311.47709.49981.45437.49981 1.24952t-.49981 1.27224q-.49981.47709-1.36311.47709-.81787 0-1.31768-.47709t-.49981-1.27224zM-124.06677 402.66681h5.70237v2.61264h-5.70237zM-114.39122 394.60171h3.11245v15.90302h-3.11245zM-100.29051 410.50473v-6.45208q0-1.38584-.40894-1.99924-.38621-.6134-1.3404-.6134-.84058 0-1.43127.49981-.56796.47709-.81787 1.20408v7.36083h-2.95341v-11.3593h2.34001l.34078 1.49943h.0909q.52253-.727 1.38584-1.27224.86331-.54525 2.22642-.54525.84059 0 1.499429.22719.658839.22718 1.113211.74971.454372.52253.681558 1.43127.227186.88603.227186 2.20371v7.06548zM-84.195895 410.50473q0 2.47633-1.340397 3.63498-1.340398 1.18136-3.748569 1.18136-1.635739 0-2.58992-.22718-.931463-.22719-1.408554-.47709l.613403-2.34002q.522527.20447 1.204085.40894.704277.20446 1.726614.20446 1.544865 0 2.090111-.68155.567965-.65884.567965-1.86293v-.727h-.09087q-.795151 1.06778-2.817107 1.06778-2.203704 0-3.294197-1.36312-1.067774-1.36311-1.067774-4.27109 0-3.0443 1.453991-4.61188 1.45399-1.56758 4.225659-1.56758 1.45399 0 2.58992.20446 1.158649.20447 1.885644.4771zm-4.998092-2.18099q.863307 0 1.317679-.38621.477091-.38622.726995-1.15865v-5.11168q-.704276-.29535-1.749332-.29535-1.13593 0-1.772051.86331-.63612.84059-.63612 2.70351 0 1.65846.545246 2.52177.545246.8633 1.567583.8633zM-80.931962 409.0053q0-.79515.49981-1.24952.499809-.47709 1.317678-.47709.863307 0 1.363116.47709.499809.45437.499809 1.24952t-.499809 1.27224q-.499809.47709-1.363116.47709-.817869 0-1.317678-.47709-.49981-.47709-.49981-1.27224zM-66.990374 394.60171h3.112448v11.63192q0 .90875-.204468 1.72662-.204467.81787-.681558 1.45399-.454372.6134-1.181367.99962-.726995.36349-1.77205.36349-.65884 0-1.431272-.13631-.772433-.13631-1.340398-.38621l.681558-2.54449q.590684.29534 1.340398.29534.954181 0 1.204085-.70427.272624-.70428.272624-1.86293zM-57.187393 399.14543v6.45208q0 1.38584.318061 1.99924.340779.6134 1.29496.6134.840588 0 1.385834-.49981.567965-.49981.840588-1.2268v-7.33811h2.953418v7.90607q0 .93147.09087 1.84021.09087.88603.272623 1.61302h-2.226423l-.522528-1.68118h-.09087q-.522528.86331-1.45399 1.43128-.931463.56796-2.203704.56796-.863307 0-1.544865-.22719-.681558-.22718-1.13593-.74971-.454372-.52253-.704277-1.40855-.227186-.88603-.227186-2.22643v-7.06548zm-2.135548-3.43051q0-.72699.431653-1.15865.454372-.43165 1.181367-.43165.726996 0 1.13593.43165.431654.43166.431654 1.15865 0 .68156-.431654 1.11321-.408934.43166-1.13593.43166-.726995 0-1.181367-.43166-.431653-.43165-.431653-1.11321zm4.975373 0q0-.72699.408935-1.15865.431653-.43165 1.158648-.43165.726996 0 1.158649.43165.454372.43166.454372 1.15865 0 .68156-.454372 1.11321-.431653.43166-1.158649.43166-.726995 0-1.158648-.43166-.408935-.43165-.408935-1.11321zM-40.497828 401.9171q-.704277-.2499-1.272242-.2499-.795151 0-1.340397.43165-.522528.40893-.704277 1.06777v7.33811h-2.953418v-11.3593h2.294579l.340779 1.49943h.09087q.386216-.84059 1.045056-1.29496.658839-.45437 1.544865-.45437.590683 0 1.340397.2499zM-28.114508 410.50473q0 2.47633-1.340398 3.63498-1.340397 1.18136-3.748569 1.18136-1.635739 0-2.58992-.22718-.931462-.22719-1.408553-.47709l.613402-2.34002q.522528.20447 1.204086.40894.704277.20446 1.726613.20446 1.544865 0 2.090112-.68155.567965-.65884.567965-1.86293v-.727h-.09087q-.795151 1.06778-2.817106 1.06778-2.203704 0-3.294197-1.36312-1.067774-1.36311-1.067774-4.27109 0-3.0443 1.45399-4.61188 1.453991-1.56758 4.22566-1.56758 1.45399 0 2.58992.20446 1.158649.20447 1.885644.4771zm-4.998092-2.18099q.863307 0 1.317679-.38621.47709-.38622.726995-1.15865v-5.11168q-.704277-.29535-1.749332-.29535-1.13593 0-1.772051.86331-.636121.84059-.636121 2.70351 0 1.65846.545247 2.52177.545246.8633 1.567583.8633zM-15.422353 409.52783q-.681558.54525-1.862925.93146-1.158648.3635-2.476327.3635-2.748951 0-4.021192-1.5903-1.272242-1.61302-1.272242-4.40741 0-2.99885 1.431272-4.49828 1.431272-1.49943 4.021192-1.49943.863307 0 1.681177.22719.817869.22718 1.45399.74971.636121.52253 1.022337 1.40855.386216.88603.386216 2.20371 0 .47709-.06816 1.02233-.04544.54525-.15903 1.13593h-6.81558q.06816 1.43128.726995 2.15827.681558.727 2.180986.727.931463 0 1.658458-.27263.749714-.29534 1.13593-.59068zm-4.225659-8.33773q-1.158649 0-1.726614.70428-.545246.68156-.658839 1.84021h4.22566q.09087-1.22681-.386217-1.88565-.454372-.65884-1.45399-.65884zM-4.9644331 410.50473v-6.45208q0-1.38584-.4089348-1.99924-.3862162-.6134-1.3403974-.6134-.8405882 0-1.4312717.49981-.567965.47709-.8178696 1.20408v7.36083h-2.9534184v-11.3593h2.3400162l.340779 1.49943h.090874q.5225278-.727 1.3858345-1.27224.8633068-.54525 2.2264228-.54525.8405881 0 1.4994275.22719.6588394.22718 1.1132114.74971.454372.52253.681558 1.43127.227186.88603.227186 2.20371v7.06548zM8.4134432 394.60171h9.4282188v2.77167h-6.315771v3.70313h5.747806v2.77167h-5.747806v3.88488h6.429364v2.77167H8.4134432ZM28.201262 410.50473v-6.45208q0-1.38584-.386216-1.99924t-1.408553-.6134q-.749714 0-1.385835.52253-.613402.49981-.817869 1.29496v7.24723h-2.953418v-15.90302h2.953418v5.81596h.09087q.545246-.72699 1.340397-1.15865.795151-.43165 2.021956-.43165.863306 0 1.522146.22719.658839.22718 1.090493.74971.454372.52253.658839 1.43127.227186.88603.227186 2.20371v7.06548zM40.956243 401.9171q-.704277-.2499-1.272242-.2499-.795151 0-1.340397.43165-.522528.40893-.704277 1.06777v7.33811h-2.953418v-11.3593h2.294579l.340779 1.49943h.09087q.386216-.84059 1.045056-1.29496.658839-.45437 1.544865-.45437.590683 0 1.340397.2499zM52.817035 409.52783q-.681558.54525-1.862925.93146-1.158649.3635-2.476327.3635-2.748951 0-4.021193-1.5903-1.272241-1.61302-1.272241-4.40741 0-2.99885 1.431272-4.49828 1.431271-1.49943 4.021192-1.49943.863306 0 1.681176.22719.81787.22718 1.45399.74971.636121.52253 1.022337 1.40855.386217.88603.386217 2.20371 0 .47709-.06816 1.02233-.04544.54525-.15903 1.13593h-6.81558q.06816 1.43128.726995 2.15827.681558.727 2.180986.727.931462 0 1.658457-.27263.749714-.29534 1.13593-.59068zm-4.225659-8.33773q-1.158649 0-1.726614.70428-.545246.68156-.658839 1.84021h4.225659q.09087-1.22681-.386216-1.88565-.454372-.65884-1.45399-.65884zM55.141688 399.14543h1.567584v-2.13555l2.953417-.84059v2.97614h2.77167v2.49905h-2.77167v4.36197q0 1.18136.227186 1.70389.249905.49981.908744.49981.454372 0 .772433-.0909.340779-.0909.749714-.27263l.522527 2.27186q-.613402.29535-1.431271.49981-.81787.20447-1.658458.20447-1.567584 0-2.317297-.79515-.726995-.81787-.726995-2.65808v-5.72508h-1.567584z" style="font-weight:700;-inkscape-font-specification:'PT Sans Bold';fill:#fff" transform="matrix(.99844 0 0 1.00157 173.31205 -133.12657)"/></g></g></svg>