<svg width="1450.3385" height="462.47604" viewBox="0 0 383.73527 122.36342" xmlns="http://www.w3.org/2000/svg"><defs><path id="d" d="M83.976158 1224.1858h406.81784v278.05438H83.976158z"/><path id="c" d="M1600.6648 5530.2114h158.57976v94.550331H1600.6648z"/><path id="b" d="M157-13h55v40h-55z"/><filter style="color-interpolation-filters:sRGB" id="a" x="-.05642297" y="-.03515585" width="1.1128459" height="1.0703117"><feGaussianBlur stdDeviation="1.1384116"/></filter></defs><text xml:space="preserve" transform="matrix(.26458 0 0 .26458 168.07106 -2173.4093)" style="font-size:36px;line-height:1.25;font-family:Lato;-inkscape-font-specification:Lato;text-align:center;letter-spacing:0;white-space:pre;shape-inside:url(#b)"><tspan x="157" y="60.48"><tspan dx="0 20.882812 20.039062 14.484375 18.84375">Ehret</tspan></tspan></text><g style="display:inline"><path style="display:inline;vector-effect:none;fill:#000;fill-opacity:.35;stroke-width:.828176;stroke-opacity:.968165;stop-color:#000" d="M-107.65841 21.267393h383.7354V143.63085h-383.7354z" transform="translate(107.65841 -21.267393)"/></g><g aria-label="Softwaresysteme" style="font-size:21.1667px;line-height:1.25;font-family:'PT Sans';-inkscape-font-specification:'PT Sans';text-align:center;letter-spacing:1.05833px;text-anchor:middle;display:inline;stroke-width:.264583"><path d="M-527.54309 497.16559h-3.21733q-.0212 1.397.508 2.413.52916 1.01601 1.41817 1.67217.91016.65617 2.07433.95251 1.18534.3175 2.43417.3175 1.54517 0 2.70934-.35984 1.18534-.35983 1.9685-.99483.80434-.65617 1.20651-1.54517.40216-.889.40216-1.92617 0-1.27-.55033-2.07434-.52917-.8255-1.27-1.31233-.74084-.48684-1.50284-.69851-.74083-.23283-1.16417-.3175-1.41817-.35983-2.30717-.59266-.86783-.23284-1.37583-.46567-.48684-.23283-.65617-.508-.16933-.27517-.16933-.71967 0-.48683.21166-.80433.21167-.3175.52917-.52917.33867-.21167.74083-.29634.40217-.0847.80434-.0847.61383 0 1.12183.10583.52917.10583.93134.35984.40217.254.635.6985.254.4445.29633 1.12183h3.21734q0-1.31233-.508-2.2225-.48683-.93134-1.3335-1.524-.84667-.59267-1.94734-.84667-1.0795-.27517-2.26483-.27517-1.01601 0-2.03201.27517-1.016.27516-1.82033.84667-.80434.5715-1.31234 1.43933-.48683.84667-.48683 2.01084 0 1.03717.381 1.778.40216.71967 1.03717 1.2065.635.48684 1.43933.80434.80434.29633 1.651.508.82551.23283 1.62984.42333.80433.1905 1.43934.4445.635.254 1.016.635.40216.381.40216.99484 0 .5715-.29633.9525-.29633.35983-.74083.5715-.4445.21167-.95251.29633-.508.0635-.9525.0635-.65616 0-1.27-.14816-.61383-.16934-1.0795-.48684-.4445-.33866-.71967-.86783-.27517-.52917-.27517-1.29117zM-512.67481 496.72109q0-.65617.127-1.29117.127-.635.42334-1.12183.3175-.48684.8255-.78317.508-.3175 1.27-.3175t1.27.3175q.52917.29633.82551.78317.3175.48683.4445 1.12183.127.635.127 1.29117 0 .65617-.127 1.29117-.127.61383-.4445 1.12183-.29634.48684-.82551.78317-.508.29634-1.27.29634t-1.27-.29634q-.508-.29633-.8255-.78317-.29634-.508-.42334-1.12183-.127-.635-.127-1.29117zm-3.00567 0q0 1.31234.40217 2.37067.40217 1.05834 1.143 1.82034.74084.74083 1.778 1.143 1.03717.40217 2.32834.40217t2.32834-.40217q1.05833-.40217 1.79917-1.143.74083-.762 1.143-1.82034.40217-1.05833.40217-2.37067t-.40217-2.37067q-.40217-1.0795-1.143-1.82034-.74084-.762-1.79917-1.16417-1.03717-.42333-2.32834-.42333t-2.32834.42333q-1.03716.40217-1.778 1.16417-.74083.74084-1.143 1.82034-.40217 1.05833-.40217 2.37067zM-500.68751 493.24975v8.93235h3.00567v-8.93235h2.07433v-2.01084h-2.07433v-.65616q0-.67734.254-.9525.27517-.29634.889-.29634.5715 0 1.10067.0635v-2.24367q-.381-.0212-.78317-.0423-.40217-.0423-.80433-.0423-1.84151 0-2.75168.93134-.91016.93133-.91016 2.39184v.84666h-1.79917v2.01084zM-489.406 491.23891v-3.28083h-3.00567v3.28083h-1.82033v2.01084h1.82033v6.45584q0 .82551.27517 1.33351t.74083.78316q.48684.27517 1.10067.35984.635.10583 1.3335.10583.4445 0 .91017-.0212.46567-.0212.84667-.0847v-2.32834q-.21167.0423-.4445.0635-.23283.0212-.48684.0212-.762 0-1.016-.254t-.254-1.016v-5.41868h2.20134v-2.01084zM-472.20674 502.1821l3.45018-10.94319h-3.09034l-2.01084 7.40835h-.0423l-1.86267-7.40835h-2.92101l-1.82033 7.42952h-.0423l-2.01083-7.42952h-3.17501l3.47134 10.94319h3.11151l1.86267-7.34485h.0423l1.94734 7.34485zM-466.54564 494.60442q.0635-1.05834.52917-1.75684.46566-.6985 1.18533-1.12183.71967-.42334 1.60867-.59267.91017-.1905 1.82034-.1905.8255 0 1.67217.127.84667.10583 1.54517.4445.6985.33867 1.143.9525.4445.59267.4445 1.58751v5.69384q0 .74083.0847 1.41817.0847.67733.29633 1.016h-3.04801q-.0847-.254-.14816-.508-.0423-.27517-.0635-.55034-.71967.74084-1.69334 1.03717-.97367.29634-1.98967.29634-.78317 0-1.4605-.1905-.67733-.19051-1.18534-.59267-.508-.40217-.80433-1.016-.27517-.61384-.27517-1.46051 0-.93133.3175-1.524.33867-.61383.84667-.97367.52917-.35983 1.18534-.52916.67733-.1905 1.35467-.29634.67733-.10583 1.3335-.16933.65617-.0635 1.16417-.1905.508-.127.80433-.35984.29633-.254.27517-.71966 0-.48684-.16934-.76201-.14816-.29633-.42333-.4445-.254-.16933-.61383-.21166-.33867-.0635-.74084-.0635-.889 0-1.397.381t-.59267 1.27zm6.94268 2.2225q-.1905.16934-.48684.27517-.27516.0847-.61383.14817-.3175.0635-.67734.10583-.35983.0423-.71966.10583-.33867.0635-.67734.16934-.3175.10583-.5715.29633-.23283.16934-.381.4445-.14817.27517-.14817.6985 0 .40217.14817.67734.14817.27516.40217.4445.254.14817.59267.21167.33866.0635.6985.0635.889 0 1.37583-.29634.48684-.29633.71967-.6985.23283-.42333.27517-.84667.0635-.42333.0635-.67733zM-453.206 491.23891v10.94319h3.00567v-4.93184q0-.74084.14817-1.37584.14817-.635.48684-1.10067.35983-.48683.93133-.762t1.397-.27517q.27517 0 .5715.0423.29634.0212.508.0635v-2.79401q-.35983-.10583-.65616-.10583-.5715 0-1.10067.16933-.52917.16934-.99484.48684-.46566.29633-.8255.74083-.35983.42334-.5715.93134h-.0423v-2.03201zM-436.95197 495.53575h-4.88951q.0212-.3175.127-.71966.127-.40217.40217-.762.29633-.35984.762-.59267.48684-.254 1.2065-.254 1.10067 0 1.62984.59267.55033.59266.762 1.73566zm-4.88951 1.90501h7.89518q.0847-1.27-.21167-2.43417-.29633-1.16417-.97366-2.07434-.65617-.91017-1.69334-1.43934-1.03717-.55033-2.43417-.55033-1.24884 0-2.286.4445-1.01601.4445-1.75684 1.22767-.74083.762-1.143 1.82034-.40217 1.05833-.40217 2.286 0 1.27.381 2.32834.40217 1.05833 1.12184 1.82033.71966.762 1.75683 1.18534 1.03717.40217 2.32834.40217 1.86267 0 3.175-.84667 1.31234-.84667 1.94734-2.81517h-2.64584q-.14816.508-.80433.97366-.65617.44451-1.56634.44451-1.27 0-1.94733-.65617-.67734-.65617-.74084-2.11667zM-428.7932 498.62609h-2.8575q.0423 1.10067.48683 1.84151.46567.71966 1.16417 1.16416.71967.4445 1.62984.63501.91017.1905 1.86267.1905.93133 0 1.82033-.1905.91017-.16934 1.60867-.61384.69851-.4445 1.12184-1.16417.4445-.74083.4445-1.82033 0-.76201-.29633-1.27001-.29634-.52916-.78317-.86783-.48684-.35983-1.12184-.5715-.61383-.21167-1.27-.35984-.635-.14816-1.24883-.27516-.61384-.127-1.10067-.27517-.46567-.16933-.762-.42333-.29634-.254-.29634-.65617 0-.33867.16934-.52917.16933-.21167.40216-.3175.254-.10583.55034-.127.29633-.0423.55033-.0423.80434 0 1.397.3175.59267.29633.65617 1.16417h2.85751q-.0847-1.01601-.52917-1.67217-.42334-.67734-1.0795-1.0795-.65617-.40217-1.50284-.57151-.8255-.16933-1.7145-.16933-.889 0-1.73567.16933-.84667.14817-1.524.55034-.67734.381-1.10067 1.05833-.40217.67734-.40217 1.73567 0 .71967.29633 1.22767.29634.48684.78317.8255.48684.3175 1.10067.52917.635.1905 1.29117.33867 1.60867.33866 2.49767.67733.91017.33867.91017 1.016 0 .40217-.1905.67734-.1905.254-.48684.42333-.27516.14817-.635.23284-.33866.0635-.65616.0635-.44451 0-.86784-.10584-.40217-.10583-.71967-.3175-.3175-.23283-.52916-.5715-.19051-.35983-.19051-.84667zM-413.29685 503.53677l4.572-12.29786h-3.1115l-2.39184 7.49302h-.0423l-2.47651-7.49302h-3.19617l3.83118 10.26585q.127.3175.127.67734 0 .48683-.29634.889-.27517.40217-.86783.46567-.4445.0212-.889-.0212-.44451-.0423-.86784-.0847v2.47651q.46567.0423.91017.0635.46567.0423.93133.0423 1.54517 0 2.41301-.5715.86783-.5715 1.35467-1.905zM-404.31093 498.62609h-2.85751q.0423 1.10067.48684 1.84151.46566.71966 1.16416 1.16416.71967.4445 1.62984.63501.91017.1905 1.86267.1905.93133 0 1.82034-.1905.91016-.16934 1.60867-.61384.6985-.4445 1.12183-1.16417.4445-.74083.4445-1.82033 0-.76201-.29633-1.27001-.29634-.52916-.78317-.86783-.48683-.35983-1.12184-.5715-.61383-.21167-1.27-.35984-.635-.14816-1.24883-.27516-.61384-.127-1.10067-.27517-.46567-.16933-.762-.42333-.29634-.254-.29634-.65617 0-.33867.16934-.52917.16933-.21167.40216-.3175.25401-.10583.55034-.127.29633-.0423.55033-.0423.80434 0 1.39701.3175.59266.29633.65616 1.16417h2.85751q-.0847-1.01601-.52917-1.67217-.42333-.67734-1.0795-1.0795-.65617-.40217-1.50284-.57151-.8255-.16933-1.7145-.16933-.889 0-1.73567.16933-.84667.14817-1.524.55034-.67734.381-1.10067 1.05833-.40217.67734-.40217 1.73567 0 .71967.29634 1.22767.29633.48684.78316.8255.48684.3175 1.10067.52917.635.1905 1.29117.33867 1.60867.33866 2.49767.67733.91017.33867.91017 1.016 0 .40217-.1905.67734-.1905.254-.48683.42333-.27517.14817-.63501.23284-.33866.0635-.65616.0635-.4445 0-.86784-.10584-.40217-.10583-.71967-.3175-.3175-.23283-.52916-.5715-.1905-.35983-.1905-.84667zM-390.4021 491.23891v-3.28083h-3.00567v3.28083h-1.82034v2.01084h1.82034v6.45584q0 .82551.27516 1.33351.27517.508.74084.78316.48683.27517 1.10067.35984.635.10583 1.3335.10583.4445 0 .91017-.0212.46566-.0212.84666-.0847v-2.32834q-.21166.0423-.4445.0635-.23283.0212-.48683.0212-.762 0-1.016-.254t-.254-1.016v-5.41868h2.20133v-2.01084zM-378.34636 495.53575h-4.8895q.0212-.3175.127-.71966.127-.40217.40216-.762.29634-.35984.762-.59267.48684-.254 1.20651-.254 1.10067 0 1.62983.59267.55034.59266.762 1.73566zm-4.8895 1.90501h7.89518q.0847-1.27-.21167-2.43417-.29634-1.16417-.97367-2.07434-.65617-.91017-1.69334-1.43934-1.03716-.55033-2.43417-.55033-1.24883 0-2.286.4445-1.016.4445-1.75684 1.22767-.74083.762-1.143 1.82034-.40217 1.05833-.40217 2.286 0 1.27.38101 2.32834.40216 1.05833 1.12183 1.82033t1.75684 1.18534q1.03716.40217 2.32833.40217 1.86267 0 3.17501-.84667 1.31233-.84667 1.94734-2.81517h-2.64584q-.14817.508-.80434.97366-.65616.44451-1.56633.44451-1.27 0-1.94734-.65617-.67733-.65617-.74083-2.11667zM-372.41505 491.23891v10.94319h3.00567v-6.35001q0-.80434.23283-1.29117.23283-.508.55033-.762.33867-.27517.67734-.35984.35983-.10583.5715-.10583.71967 0 1.0795.254.381.23284.52917.635.16933.40217.1905.889.0212.46567.0212.95251v6.13834h3.00567v-6.09601q0-.508.0635-.99484.0847-.508.29633-.889.23284-.40216.61384-.635.40216-.254 1.03716-.254.63501 0 .99484.21167.381.21166.5715.5715.1905.35983.23283.84667.0423.48683.0423 1.03717v6.20184h3.00567v-7.32368q0-1.05833-.29634-1.79917-.29633-.762-.8255-1.22767-.52916-.46567-1.27-.67733-.74083-.21167-1.60867-.21167-1.143 0-1.98967.55033-.8255.55034-1.31233 1.27001-.4445-1.016-1.31234-1.41817-.84667-.40217-1.88383-.40217-1.07951 0-1.92617.46567-.82551.46567-1.41817 1.31233h-.0423v-1.48167zM-344.89305 495.53575h-4.88951q.0212-.3175.127-.71966.127-.40217.40217-.762.29634-.35984.762-.59267.48684-.254 1.2065-.254 1.10067 0 1.62984.59267.55034.59266.762 1.73566zm-4.88951 1.90501h7.89518q.0847-1.27-.21166-2.43417-.29634-1.16417-.97367-2.07434-.65617-.91017-1.69334-1.43934-1.03717-.55033-2.43417-.55033-1.24883 0-2.286.4445-1.016.4445-1.75684 1.22767-.74083.762-1.143 1.82034-.40217 1.05833-.40217 2.286 0 1.27.381 2.32834.40217 1.05833 1.12184 1.82033.71967.762 1.75683 1.18534 1.03717.40217 2.32834.40217 1.86267 0 3.17501-.84667 1.31233-.84667 1.94733-2.81517h-2.64583q-.14817.508-.80434.97366-.65617.44451-1.56633.44451-1.27001 0-1.94734-.65617-.67734-.65617-.74084-2.11667z" style="font-weight:700;font-family:'Helvetica Neue';-inkscape-font-specification:'Helvetica Neue Bold';fill:#fff" transform="translate(711.065438 -434.506366)"/></g><g aria-label="Ingenieurbüro" style="font-weight:700;font-size:21.1667px;line-height:1.25;font-family:'PT Sans';-inkscape-font-specification:'PT Sans Bold';text-align:center;letter-spacing:4.15396px;text-anchor:middle;display:inline;stroke-width:.264583"><path d="M-530.64458 448.05082v15.11303h3.32317v-15.11303zM-520.5656 452.22066v10.94319h3.00567v-5.73618q0-1.67217.55033-2.39183.55034-.74084 1.77801-.74084 1.0795 0 1.50283.67734.42334.65616.42334 2.01083v6.18068h3.00567v-6.73101q0-1.016-.1905-1.8415-.16934-.84667-.61384-1.41817-.4445-.59267-1.22767-.91017-.762-.33867-1.9685-.33867-.9525 0-1.86267.4445-.91017.42334-1.48167 1.37584h-.0635v-1.52401zM-498.74274 460.58151q-.6985 0-1.16417-.29633-.46566-.29634-.762-.762-.27517-.46567-.40217-1.03717-.10583-.59267-.10583-1.18534 0-.61383.127-1.16417.14817-.5715.4445-.99483.3175-.4445.762-.6985.46567-.254 1.10067-.254.74084 0 1.22767.27517.48683.27516.78317.74083.29633.46567.42333 1.0795.127.59267.127 1.27 0 .59267-.16933 1.14301-.14817.52916-.46567.9525-.3175.42333-.80433.67733-.48684.254-1.12184.254zm5.41868 1.88384v-10.24469h-2.85751v1.46051h-.0423q-.55034-.9525-1.37584-1.35467-.80433-.40217-1.88383-.40217-1.14301 0-2.03201.4445-.86783.4445-1.4605 1.2065-.59267.74084-.91017 1.73567-.29633.97367-.29633 2.03201 0 1.12183.254 2.13783.27517.99484.84667 1.75684.5715.74083 1.4605 1.18533.889.42334 2.11667.42334.99483 0 1.88384-.40217.91016-.42333 1.397-1.29117h.0423v1.43934q.0212 1.16417-.5715 1.92617-.5715.762-1.8415.762-.80434 0-1.41817-.33867-.61384-.3175-.8255-1.16417h-2.98451q.0635.93134.508 1.58751.46567.67733 1.14301 1.10066.6985.42334 1.524.61384.84667.21167 1.651.21167 1.88384 0 3.00567-.50801 1.12184-.508 1.7145-1.24883.59267-.71967.76201-1.56634.1905-.84666.1905-1.50283zM-479.38414 456.5175h-4.88951q.0212-.3175.127-.71966.127-.40217.40217-.762.29633-.35984.762-.59267.48683-.254 1.2065-.254 1.10067 0 1.62983.59267.55034.59266.76201 1.73566zm-4.88951 1.90501h7.89518q.0847-1.27-.21167-2.43417-.29633-1.16417-.97367-2.07434-.65617-.91017-1.69333-1.43933-1.03717-.55034-2.43417-.55034-1.24884 0-2.28601.4445-1.016.4445-1.75683 1.22767-.74084.762-1.14301 1.82034-.40216 1.05833-.40216 2.286 0 1.27.381 2.32834.40216 1.05833 1.12183 1.82033t1.75684 1.18534q1.03717.40217 2.32834.40217 1.86267 0 3.175-.84667 1.31234-.84667 1.94734-2.81517h-2.64584q-.14817.508-.80434.97367-.65616.4445-1.56633.4445-1.27 0-1.94734-.65617-.67733-.65617-.74083-2.11667zM-470.44188 452.22066v10.94319h3.00567v-5.73618q0-1.67217.55034-2.39183.55033-.74084 1.778-.74084 1.0795 0 1.50284.67734.42333.65616.42333 2.01083v6.18068h3.00567v-6.73101q0-1.016-.1905-1.8415-.16933-.84667-.61383-1.41817-.4445-.59267-1.22767-.91017-.762-.33867-1.96851-.33867-.9525 0-1.86267.4445-.91016.42334-1.48166 1.37584h-.0635v-1.52401zM-450.62985 450.52733v-2.47651h-3.00567v2.47651zm-3.00567 1.69333v10.94319h3.00567v-10.94319zM-436.74318 456.5175h-4.8895q.0212-.3175.127-.71966.127-.40217.40216-.762.29634-.35984.76201-.59267.48683-.254 1.2065-.254 1.10067 0 1.62983.59267.55034.59266.762 1.73566zm-4.8895 1.90501h7.89518q.0847-1.27-.21167-2.43417-.29634-1.16417-.97367-2.07434-.65617-.91017-1.69334-1.43933-1.03716-.55034-2.43417-.55034-1.24883 0-2.286.4445-1.016.4445-1.75684 1.22767-.74083.762-1.143 1.82034-.40217 1.05833-.40217 2.286 0 1.27.38101 2.32834.40216 1.05833 1.12183 1.82033t1.75684 1.18534q1.03717.40217 2.32833.40217 1.86267 0 3.17501-.84667 1.31233-.84667 1.94734-2.81517h-2.64584q-.14817.508-.80434.97367-.65616.4445-1.56633.4445-1.27 0-1.94734-.65617-.67733-.65617-.74083-2.11667zM-417.53506 463.16385v-10.94319h-3.00568v5.73618q0 1.67217-.55033 2.413-.55033.71967-1.778.71967-1.0795 0-1.50284-.65617-.42333-.67733-.42333-2.032v-6.18068h-3.00567v6.73102q0 1.016.16933 1.86267.1905.8255.635 1.41816.4445.5715 1.2065.88901.78317.3175 1.98967.3175.9525 0 1.86267-.42334.91017-.42333 1.48167-1.37583h.0635v1.524zM-411.07923 452.22066v10.94319h3.00567v-4.93184q0-.74084.14817-1.37584.14817-.635.48684-1.10067.35983-.48683.93133-.762.5715-.27516 1.397-.27516.27517 0 .5715.0423.29634.0212.508.0635v-2.79401q-.35983-.10583-.65616-.10583-.5715 0-1.10067.16933-.52917.16934-.99484.48684-.46566.29633-.8255.74083-.35983.42334-.5715.93134h-.0423v-2.03201zM-390.67619 457.70284q0 .67733-.14817 1.31234-.14816.635-.46566 1.12183-.3175.48683-.80434.78317-.46566.27517-1.143.27517-.65617 0-1.143-.27517-.48683-.29634-.80434-.78317-.3175-.48683-.46566-1.12183-.14817-.63501-.14817-1.31234 0-.6985.14817-1.3335.14816-.635.46566-1.12184.31751-.48683.80434-.762.48683-.29633 1.143-.29633.67734 0 1.143.29633.48684.27517.80434.762.3175.48684.46566 1.12184.14817.635.14817 1.3335zm-8.02218-9.65202v15.11303h2.85751v-1.397h.0423q.48683.91016 1.43934 1.29117.9525.381 2.159.381.8255 0 1.62984-.33867.80433-.33867 1.43933-1.03717.65617-.6985 1.05834-1.778.40216-1.10067.40216-2.60351 0-1.50283-.40216-2.58233-.40217-1.10067-1.05834-1.79917-.635-.6985-1.43933-1.03717-.80434-.33867-1.62984-.33867-1.016 0-1.9685.40217-.93134.381-1.48167 1.22767h-.0423v-5.50335zM-380.0806 448.05082v2.47651h2.8575v-2.47651zm4.36034 0v2.47651h2.8575v-2.47651zm4.38151 15.11303v-10.94319h-3.00567v5.73618q0 1.67217-.55034 2.413-.55033.71967-1.778.71967-1.0795 0-1.50284-.65617-.42333-.67733-.42333-2.032v-6.18068h-3.00567v6.73102q0 1.016.16933 1.86267.1905.8255.635 1.41816.4445.5715 1.2065.88901.78317.3175 1.98967.3175.95251 0 1.86267-.42334.91017-.42333 1.48167-1.37583h.0635v1.524zM-364.88292 452.22066v10.94319h3.00567v-4.93184q0-.74084.14817-1.37584.14816-.635.48683-1.10067.35983-.48683.93133-.762.57151-.27516 1.39701-.27516.27516 0 .5715.0423.29633.0212.508.0635v-2.79401q-.35984-.10583-.65617-.10583-.5715 0-1.10067.16933-.52917.16934-.99483.48684-.46567.29633-.8255.74083-.35984.42334-.5715.93134h-.0423v-2.03201zM-350.23228 457.70284q0-.65617.127-1.29117.127-.635.42334-1.12183.3175-.48684.8255-.78317.508-.3175 1.27-.3175t1.27.3175q.52917.29633.82551.78317.3175.48683.4445 1.12183.127.635.127 1.29117 0 .65617-.127 1.29117-.127.61383-.4445 1.12183-.29634.48684-.82551.78317-.508.29634-1.27.29634t-1.27-.29634q-.508-.29633-.8255-.78317-.29634-.508-.42334-1.12183-.127-.635-.127-1.29117zm-3.00567 0q0 1.31234.40217 2.37067.40217 1.05834 1.143 1.82034.74084.74083 1.778 1.143 1.03717.40217 2.32834.40217t2.32834-.40217q1.05833-.40217 1.79917-1.143.74083-.762 1.143-1.82034.40217-1.05833.40217-2.37067t-.40217-2.37067q-.40217-1.0795-1.143-1.82034-.74084-.762-1.79917-1.16417-1.03717-.42333-2.32834-.42333t-2.32834.42333q-1.03716.40217-1.778 1.16417-.74083.74084-1.143 1.82034-.40217 1.05833-.40217 2.37067z" style="font-family:'Helvetica Neue';-inkscape-font-specification:'Helvetica Neue Bold';fill:#fff" transform="translate(711.029718 -422.095836)"/></g><g aria-label="Dr.-Ing. Jürgen Ehret" style="font-size:12.7px;line-height:1.25;font-family:'PT Sans';-inkscape-font-specification:'PT Sans';text-align:center;letter-spacing:1.05833px;text-anchor:middle;display:inline;stroke-width:.264583"><path d="M-507.05679 534.40636v-5.715h1.4224q.7366 0 1.2319.2159.508.2032.8128.5969.3048.3937.4318.9525.1397.5461.1397 1.2319 0 .7493-.1905 1.27t-.508.8509q-.3175.3175-.7239.4572t-.8382.1397zm-1.9939-7.3914v9.0678h3.9116q1.0414 0 1.8034-.3429.7747-.3556 1.2827-.9652.5207-.6096.7747-1.4478t.254-1.8288q0-1.1303-.3175-1.9685-.3048-.8382-.8636-1.397-.5461-.5588-1.3081-.8382-.7493-.2794-1.6256-.2794zM-498.78189 529.51686v6.5659h1.8034v-2.9591q0-.4445.0889-.8255t.2921-.6604q.2159-.2921.5588-.4572.3429-.1651.8382-.1651.1651 0 .3429.0254.1778.0127.3048.0381v-1.6764q-.2159-.0635-.3937-.0635-.3429 0-.6604.1016t-.5969.2921q-.2794.1778-.4953.4445-.2159.254-.3429.5588h-.0254v-1.2192zM-493.89073 534.12696v1.9558h1.9939v-1.9558zM-489.41015 531.84096v1.5494h3.8227v-1.5494zM-482.98925 527.01496v9.0678h1.9939v-9.0678zM-478.37591 529.51686v6.5659h1.8034v-3.4417q0-1.0033.3302-1.4351.3302-.4445 1.0668-.4445.6477 0 .9017.4064.254.3937.254 1.2065v3.7084h1.8034v-4.0386q0-.6096-.1143-1.1049-.1016-.508-.3683-.8509-.2667-.3556-.7366-.5461-.4572-.2032-1.1811-.2032-.5715 0-1.1176.2667-.5461.254-.889.8255h-.0381v-.9144zM-466.71626 534.53336q-.4191 0-.6985-.1778-.2794-.1778-.4572-.4572-.1651-.2794-.2413-.6223-.0635-.3556-.0635-.7112 0-.3683.0762-.6985.0889-.3429.2667-.5969.1905-.2667.4572-.4191.2794-.1524.6604-.1524.4445 0 .7366.1651t.4699.4445q.1778.2794.254.6477.0762.3556.0762.762 0 .3556-.1016.6858-.0889.3175-.2794.5715-.1905.254-.4826.4064-.2921.1524-.6731.1524zm3.2512 1.1303v-6.1468h-1.7145v.8763h-.0254q-.3302-.5715-.8255-.8128-.4826-.2413-1.1303-.2413-.6858 0-1.2192.2667-.5207.2667-.8763.7239-.3556.4445-.5461 1.0414-.1778.5842-.1778 1.2192 0 .6731.1524 1.2827.1651.5969.508 1.0541.3429.4445.8763.7112.5334.254 1.27.254.5969 0 1.1303-.2413.5461-.254.8382-.7747h.0254v.8636q.0127.6985-.3429 1.1557-.3429.4572-1.1049.4572-.4826 0-.8509-.2032-.3683-.1905-.4953-.6985h-1.7907q.0381.5588.3048.9525.2794.4064.6858.6604.4191.254.9144.3683.508.127.9906.127 1.1303 0 1.8034-.3048.6731-.3048 1.0287-.7493.3556-.4318.4572-.9398.1143-.508.1143-.9017zM-460.87856 534.12696v1.9558h1.9939v-1.9558zM-446.29447 533.22526v-6.2103h-1.9939v6.1214q0 .2413-.0254.508-.0127.254-.1143.4826-.0889.2159-.3048.3556-.2159.1397-.6096.1397-.3556 0-.5842-.1143-.2159-.1143-.3429-.3048-.127-.2032-.1778-.4826-.0508-.2794-.0508-.6096v-.4064h-1.8034v.7874q0 .7493.254 1.2827.254.5207.6731.8636.4191.3302.9525.4826.5334.1651 1.1049.1651 1.016 0 1.6129-.3048.5969-.3175.9144-.7747.3175-.4699.4064-1.0033.0889-.5334.0889-.9779zM-442.7515 527.01496v1.4859h1.7145v-1.4859zm2.6162 0v1.4859h1.7145v-1.4859zm2.6289 9.0678v-6.5659h-1.8034v3.4417q0 1.0033-.3302 1.4478-.3302.4318-1.0668.4318-.6477 0-.9017-.3937-.254-.4064-.254-1.2192v-3.7084h-1.8034v4.0386q0 .6096.1016 1.1176.1143.4953.381.8509.2667.3429.7239.5334.4699.1905 1.1938.1905.5715 0 1.1176-.254.5461-.254.889-.8255h.0381v.9144zM-435.06695 529.51686v6.5659h1.8034v-2.9591q0-.4445.0889-.8255t.2921-.6604q.2159-.2921.5588-.4572.3429-.1651.8382-.1651.1651 0 .3429.0254.1778.0127.3048.0381v-1.6764q-.2159-.0635-.3937-.0635-.3429 0-.6604.1016t-.5969.2921q-.2794.1778-.4953.4445-.2159.254-.3429.5588h-.0254v-1.2192zM-426.36321 534.53336q-.4191 0-.6985-.1778-.2794-.1778-.4572-.4572-.1651-.2794-.2413-.6223-.0635-.3556-.0635-.7112 0-.3683.0762-.6985.0889-.3429.2667-.5969.1905-.2667.4572-.4191.2794-.1524.6604-.1524.4445 0 .7366.1651t.4699.4445q.1778.2794.254.6477.0762.3556.0762.762 0 .3556-.1016.6858-.0889.3175-.2794.5715-.1905.254-.4826.4064-.2921.1524-.6731.1524zm3.2512 1.1303v-6.1468h-1.7145v.8763h-.0254q-.3302-.5715-.8255-.8128-.4826-.2413-1.1303-.2413-.6858 0-1.2192.2667-.5207.2667-.8763.7239-.3556.4445-.5461 1.0414-.1778.5842-.1778 1.2192 0 .6731.1524 1.2827.1651.5969.508 1.0541.3429.4445.8763.7112.5334.254 1.27.254.5969 0 1.1303-.2413.5461-.254.8382-.7747h.0254v.8636q.0127.6985-.3429 1.1557-.3429.4572-1.1049.4572-.4826 0-.8509-.2032-.3683-.1905-.4953-.6985h-1.7907q.0381.5588.3048.9525.2794.4064.6858.6604.4191.254.9144.3683.508.127.9906.127 1.1303 0 1.8034-.3048.6731-.3048 1.0287-.7493.3556-.4318.4572-.9398.1143-.508.1143-.9017zM-416.17796 532.09496h-2.9337q.0127-.1905.0762-.4318.0762-.2413.2413-.4572.1778-.2159.4572-.3556.2921-.1524.7239-.1524.6604 0 .9779.3556.3302.3556.4572 1.0414zm-2.9337 1.143h4.7371q.0508-.762-.127-1.4605-.1778-.6985-.5842-1.2446-.3937-.5461-1.016-.8636-.6223-.3302-1.4605-.3302-.7493 0-1.3716.2667-.6096.2667-1.0541.7366-.4445.4572-.6858 1.0922-.2413.635-.2413 1.3716 0 .762.2286 1.397.2413.635.6731 1.0922.4318.4572 1.0541.7112.6223.2413 1.397.2413 1.1176 0 1.905-.508.7874-.508 1.1684-1.6891h-1.5875q-.0889.3048-.4826.5842-.3937.2667-.9398.2667-.762 0-1.1684-.3937-.4064-.3937-.4445-1.27zM-412.24664 529.51686v6.5659h1.8034v-3.4417q0-1.0033.3302-1.4351.3302-.4445 1.0668-.4445.6477 0 .9017.4064.254.3937.254 1.2065v3.7084h1.8034v-4.0386q0-.6096-.1143-1.1049-.1016-.508-.3683-.8509-.2667-.3556-.7366-.5461-.4572-.2032-1.1811-.2032-.5715 0-1.1176.2667-.5461.254-.889.8255h-.0381v-.9144zM-398.87659 527.01496v9.0678h6.8834v-1.6764h-4.8895v-2.2225h4.3942v-1.5494h-4.3942v-1.9431h4.7879v-1.6764zM-389.7736 527.01496v9.0678h1.8034v-3.4417q0-1.0033.3302-1.4351.3302-.4445 1.0668-.4445.6477 0 .9017.4064.254.3937.254 1.2065v3.7084h1.8034v-4.0386q0-.6096-.1143-1.1049-.1016-.508-.3683-.8509-.2667-.3556-.7366-.5461-.4572-.2032-1.1811-.2032-.508 0-1.0414.2667-.5334.254-.8763.8255h-.0381v-3.4163zM-381.17465 529.51686v6.5659h1.8034v-2.9591q0-.4445.0889-.8255t.2921-.6604q.2159-.2921.5588-.4572.3429-.1651.8382-.1651.1651 0 .3429.0254.1778.0127.3048.0381v-1.6764q-.2159-.0635-.3937-.0635-.3429 0-.6604.1016t-.5969.2921q-.2794.1778-.4953.4445-.2159.254-.3429.5588h-.0254v-1.2192zM-370.99892 532.09496h-2.9337q.0127-.1905.0762-.4318.0762-.2413.2413-.4572.1778-.2159.4572-.3556.2921-.1524.7239-.1524.6604 0 .9779.3556.3302.3556.4572 1.0414zm-2.9337 1.143h4.7371q.0508-.762-.127-1.4605-.1778-.6985-.5842-1.2446-.3937-.5461-1.016-.8636-.6223-.3302-1.4605-.3302-.7493 0-1.3716.2667-.6096.2667-1.0541.7366-.4445.4572-.6858 1.0922-.2413.635-.2413 1.3716 0 .762.2286 1.397.2413.635.6731 1.0922.4318.4572 1.0541.7112.6223.2413 1.397.2413 1.1176 0 1.905-.508.7874-.508 1.1684-1.6891h-1.5875q-.0889.3048-.4826.5842-.3937.2667-.9398.2667-.762 0-1.1684-.3937-.4064-.3937-.4445-1.27zM-364.79133 529.51686v-1.9685h-1.8034v1.9685h-1.0922v1.2065h1.0922v3.8735q0 .4953.1651.8001t.4445.4699q.2921.1651.6604.2159.381.0635.8001.0635.2667 0 .5461-.0127.2794-.0127.508-.0508v-1.397q-.127.0254-.2667.0381-.1397.0127-.2921.0127-.4572 0-.6096-.1524-.1524-.1524-.1524-.6096v-3.2512h1.3208v-1.2065z" style="font-weight:700;font-family:'Helvetica Neue';-inkscape-font-specification:'Helvetica Neue Bold';fill:#fff" transform="translate(711.011158 -442.150786)"/></g><g style="display:inline;stroke-width:1.21915"><path style="display:inline;fill:none;fill-opacity:1;stroke:#fff;stroke-width:2.3515;stroke-miterlimit:4;stroke-dasharray:none;stroke-opacity:1;stop-color:#000" d="M-165.55737 439.72724a11.106197 6.4262649 0 0 1-11.10613 6.42623 11.106197 6.4262649 0 0 1-11.10613-6.42622 11.106197 6.4262649 0 0 1 11.10614-6.4262 11.106197 6.4262649 0 0 1 11.10612 6.42619z" transform="matrix(.82133 0 0 .81916 287.664798 -299.027426)"/><path style="display:inline;fill:none;fill-opacity:1;stroke:#fff;stroke-width:2.87406;stroke-miterlimit:4;stroke-dasharray:none;stroke-opacity:1;stop-color:#000" d="M-163.84062 439.72726a18.732446 11.164379 0 0 1-18.73236 11.16429 18.732446 11.164379 0 0 1-18.73234-11.1643 18.732446 11.164379 0 0 1 18.73235-11.16427 18.732446 11.164379 0 0 1 18.73235 11.16428z" transform="matrix(.82133 0 0 .81916 287.664798 -299.027426)"/><path style="display:inline;fill:none;fill-opacity:1;stroke:#fff;stroke-width:3.3966;stroke-miterlimit:4;stroke-dasharray:none;stroke-opacity:1;stop-color:#000" d="M-161.92136 439.72725a31.453028 19.213989 0 0 1-31.45287 19.21385 31.453028 19.213989 0 0 1-31.45278-19.21385 31.453028 19.213989 0 0 1 31.45278-19.21381 31.453028 19.213989 0 0 1 31.45287 19.21381z" transform="matrix(.82133 0 0 .81916 287.664798 -299.027426)"/><path style="display:inline;fill:none;fill-opacity:1;stroke:#fff;stroke-width:3.91918;stroke-miterlimit:4;stroke-dasharray:none;stroke-opacity:1;stop-color:#000" d="M-159.62176 439.72723a52.416267 32.621616 0 0 1-52.41601 32.62138 52.416267 32.621616 0 0 1-52.41593-32.62138 52.416267 32.621616 0 0 1 52.41594-32.6213 52.416267 32.621616 0 0 1 52.416 32.6213z" transform="matrix(.82133 0 0 .81916 287.664798 -299.027426)"/><path style="display:inline;fill:none;fill-opacity:1;stroke:#fff;stroke-width:4.44174;stroke-miterlimit:4;stroke-dasharray:none;stroke-opacity:1;stop-color:#000" d="M-156.89016 439.7272a86.716094 54.698496 0 0 1-86.71574 54.69811 86.716094 54.698496 0 0 1-86.71549-54.6981 86.716094 54.698496 0 0 1 86.71549-54.69799 86.716094 54.698496 0 0 1 86.71574 54.69798z" transform="matrix(.82133 0 0 .81916 287.664798 -299.027426)"/></g></svg>