<svg xmlns="http://www.w3.org/2000/svg" width="333.173" height="350.50769" viewBox="0 0 88.152024 92.738493"><defs><path id="G" d="M-42 1608h588v290H-42z"/><path id="b" d="M1600.6648 5530.2114h158.57976v94.550331H1600.6648z"/><path id="a" d="M157-13h55v40h-55z"/><path id="c" d="M157-13h55v40h-55z"/><path id="d" d="M1600.6648 5530.2114h158.57976v94.550331H1600.6648z"/><path id="e" d="M157-13h55v40h-55z"/><path id="f" d="M1600.6648 5530.2114h158.57976v94.550331H1600.6648z"/><path id="g" d="M157-13h55v40h-55z"/><path id="h" d="M1600.6648 5530.2114h158.57976v94.550331H1600.6648z"/><path id="i" d="M157-13h55v40h-55z"/><path id="j" d="M1600.6648 5530.2114h158.57976v94.550331H1600.6648z"/><path id="k" d="M157-13h55v40h-55z"/><path id="l" d="M1600.6648 5530.2114h158.57976v94.550331H1600.6648z"/><path id="m" d="M157-13h55v40h-55z"/><path id="n" d="M1600.6648 5530.2114h158.57976v94.550331H1600.6648z"/><path id="o" d="M157-13h55v40h-55z"/><path id="p" d="M1600.6648 5530.2114h158.57976v94.550331H1600.6648z"/><path id="q" d="M157-13h55v40h-55z"/><path id="r" d="M1600.6648 5530.2114h158.57976v94.550331H1600.6648z"/><path id="s" d="M157-13h55v40h-55z"/><path id="t" d="M1600.6648 5530.2114h158.57976v94.550331H1600.6648z"/><path id="u" d="M157-13h55v40h-55z"/><path id="v" d="M1600.6648 5530.2114h158.57976v94.550331H1600.6648z"/><path id="w" d="M157-13h55v40h-55z"/><path id="x" d="M1600.6648 5530.2114h158.57976v94.550331H1600.6648z"/><path id="y" d="M157-13h55v40h-55z"/><path id="z" d="M1600.6648 5530.2114h158.57976v94.550331H1600.6648z"/><path id="A" d="M157-13h55v40h-55z"/><path id="B" d="M1600.6648 5530.2114h158.57976v94.550331H1600.6648z"/><path id="C" d="M157-13h55v40h-55z"/><path id="D" d="M1600.6648 5530.2114h158.57976v94.550331H1600.6648z"/><path id="E" d="M157-13h55v40h-55z"/><path id="F" d="M1600.6648 5530.2114h158.57976v94.550331H1600.6648z"/><marker id="J" orient="auto" refX="0" refY="0" style="overflow:visible"><path d="m0 0 5-5-17.5 5L5 5Z" style="fill:context-stroke;fill-rule:evenodd;stroke:context-stroke;stroke-width:1pt" transform="matrix(.8 0 0 .8 10 0)"/></marker><marker id="H" orient="auto" refX="0" refY="0" style="overflow:visible"><path d="m0 0 5-5-17.5 5L5 5Z" style="fill:context-stroke;fill-rule:evenodd;stroke:context-stroke;stroke-width:1pt" transform="matrix(-.8 0 0 -.8 -10 0)"/></marker><marker id="I" orient="auto" refX="0" refY="0" style="overflow:visible"><path d="m0 0 5-5-17.5 5L5 5Z" style="fill:context-stroke;fill-rule:evenodd;stroke:context-stroke;stroke-width:1pt" transform="matrix(-.8 0 0 -.8 -10 0)"/></marker></defs><g style="display:inline"><g transform="translate(-8.0248416 -5.7838867)"><ellipse cx="52.100853" cy="33.128242" rx="43.282249" ry="26.550606" style="font-variation-settings:normal;display:inline;fill:none;fill-opacity:1;stroke:#fff;stroke-width:1.5875;stroke-linecap:butt;stroke-linejoin:miter;stroke-miterlimit:4;stroke-dasharray:none;stroke-dashoffset:0;stroke-opacity:1;stop-color:#000"/><ellipse cx="67.526337" cy="33.128242" rx="26.510872" ry="16.17045" style="font-variation-settings:normal;display:inline;fill:none;fill-opacity:1;stroke:#fff;stroke-width:1.32292;stroke-linecap:butt;stroke-linejoin:miter;stroke-miterlimit:4;stroke-dasharray:none;stroke-dashoffset:0;stroke-opacity:1;stop-color:#000"/><ellipse cx="76.787163" cy="33.128242" rx="16.145391" ry="9.7550411" style="font-variation-settings:normal;display:inline;fill:none;fill-opacity:1;stroke:#fff;stroke-width:1.05833;stroke-linecap:butt;stroke-linejoin:miter;stroke-miterlimit:4;stroke-dasharray:none;stroke-dashoffset:0;stroke-opacity:1;stop-color:#000"/><ellipse cx="82.273178" cy="33.128242" rx="9.7389774" ry="5.7899771" style="font-variation-settings:normal;display:inline;fill:none;fill-opacity:1;stroke:#fff;stroke-width:.926042;stroke-linecap:butt;stroke-linejoin:miter;stroke-miterlimit:4;stroke-dasharray:none;stroke-dashoffset:0;stroke-opacity:1;stop-color:#000"/><ellipse cx="85.437393" cy="33.128242" rx="5.7796507" ry="3.3394673" style="font-variation-settings:normal;display:inline;fill:none;fill-opacity:1;stroke:#fff;stroke-width:.79375;stroke-linecap:butt;stroke-linejoin:miter;stroke-miterlimit:4;stroke-dasharray:none;stroke-dashoffset:0;stroke-opacity:1;stop-color:#000"/><ellipse cx="87.427002" cy="33.128242" rx="3.1086199" ry="1.7900585" style="font-variation-settings:normal;display:inline;fill:none;fill-opacity:1;stroke:#fff;stroke-width:.661458;stroke-linecap:butt;stroke-linejoin:miter;stroke-miterlimit:4;stroke-dasharray:none;stroke-dashoffset:0;stroke-opacity:1;stop-color:#000"/><ellipse cx="88.721611" cy="33.128242" rx="1.2934215" ry=".68038863" style="font-variation-settings:normal;display:inline;fill:none;fill-opacity:1;stroke:#fff;stroke-width:.555625;stroke-linecap:butt;stroke-linejoin:miter;stroke-miterlimit:4;stroke-dasharray:none;stroke-dashoffset:0;stroke-opacity:1;stop-color:#000"/></g><path d="M8.4335462 81.729578c.2515104 0 .4191843-.167724.4191843-.440193V66.733296c0-.272479-.1676739-.440123-.4191843-.440123s-.4087047.167644-.4087047.440123v14.556089c0 .272469.1571943.440193.4087047.440193zM11.954691 81.572369h4.736779c3.175319 0 5.103565-1.561465 5.103565-4.034611 0-2.190231-1.634818-3.573548-3.772655-3.804069v-.06257c1.80249-.345872 2.976205-1.739614 2.976205-3.542105 0-2.190241-1.781531-3.678304-4.411911-3.678304h-4.631983c-.25151 0-.408704.167633-.408704.440113v14.241741c0 .272479.157194.440113.408704.440113zm.419184-8.153108v-6.214408h4.087043c2.253115 0 3.699299 1.163291 3.699299 2.986731 0 1.991074-1.530021 3.227677-3.898411 3.227677zm0 7.398557v-6.654521h4.024167c2.87141 0 4.558625 1.268047 4.558625 3.353452 0 2.033102-1.613858 3.301069-4.338554 3.301069z" style="font-weight:200;font-size:19.05px;line-height:1.25;font-family:Lato;-inkscape-font-specification:&quot;SF Pro Rounded Ultra-Light&quot;;text-align:center;letter-spacing:0;text-anchor:middle;fill:#fff;stroke:none;stroke-width:.204507" transform="translate(-8.02484154 -8.4297199)"/><path d="M28.910683 81.823899c3.531624 0 5.774259-1.792066 5.774259-4.642437 0-2.200736-1.299471-3.468793-4.474789-4.139437l-1.645297-.345862c-1.959685-.419184-2.745656-1.152716-2.745656-2.253119 0-1.383317 1.30995-2.242614 3.081003-2.242614 1.509062 0 2.661818.597332 3.175318 1.991154.241031.544949.586858.806914 1.152756.806914.607816 0 1.03748-.398245 1.03748-1.006081 0-.220017-.03143-.398165-.08384-.54487-.586857-2.022597-2.640858-3.248695-5.250278-3.248695-3.217237 0-5.49131 1.781482-5.49131 4.369958 0 2.179726 1.372827 3.584063 4.390952 4.223263l1.655776.345862c2.022562.440123 2.819012 1.173725 2.819012 2.34737 0 1.351873-1.372827 2.336946-3.290594 2.336946-1.750092 0-3.12292-.66022-3.594502-2.074901-.230551-.565888-.576378-.806914-1.110838-.806914-.639255 0-1.058438.440113-1.058438 1.121262 0 .251541.05239.503001.125754.733612.586858 1.760543 2.598941 3.028589 5.533229 3.028589z" style="font-weight:500;font-size:19.05px;line-height:1.25;font-family:Lato;-inkscape-font-specification:&quot;SF Pro Rounded Medium&quot;;text-align:center;letter-spacing:0;text-anchor:middle;fill:#fff;stroke:none;stroke-width:.204507" transform="translate(-8.02484154 -8.4297199)"/><path d="M41.139577 81.754375c3.147872 0 5.127619-2.169302 5.127619-5.650918 0-3.481615-1.979747-5.658564-5.127619-5.658564-3.155456 0-5.127618 2.176949-5.127618 5.658564 0 3.481616 1.972162 5.650918 5.127618 5.650918zm0-1.49425c-2.078353 0-3.390599-1.608051-3.390599-4.156668 0-2.556262 1.312246-4.164314 3.390599-4.164314 2.078355 0 3.383015 1.608052 3.383015 4.164314 0 2.548617-1.30466 4.156668-3.383015 4.156668zM48.724809 81.693726c.523381 0 .849546-.333738.849546-.879846v-3.823h4.058101c.455114 0 .766109-.280665.766109-.720549 0-.432397-.310995-.713062-.766109-.713062h-4.058101v-3.458828h4.460118c.470285 0 .79645-.288231.79645-.735761 0-.447539-.318581-.73577-.79645-.73577h-5.309664c-.530966 0-.849546.333738-.849546.879846v9.307124c0 .546108.31858.879846.849546.879846zM59.753739 81.693726c.523382 0 .849547-.333738.849547-.879846v-8.715439h2.677587c.470286 0 .788865-.288231.788865-.735761 0-.447539-.318579-.73577-.788865-.73577h-7.061852c-.470285 0-.788865.288231-.788865.73577 0 .44753.31858.735761.788865.735761h2.685173v8.715439c0 .546108.318579.879846.849545.879846z" style="font-weight:500;font-size:20.1083px;line-height:1.25;font-family:Lato;-inkscape-font-specification:&quot;SF Pro Rounded Medium&quot;;text-align:center;letter-spacing:0;text-anchor:middle;fill:#fff;stroke:#fff;stroke-width:.396875;stroke-miterlimit:4;stroke-dasharray:none;stroke-opacity:1" transform="translate(-8.02484154 -8.4297199)"/><path d="M70.862218 81.823899c3.531624 0 5.774258-1.792066 5.774258-4.642437 0-2.200736-1.299471-3.468793-4.474789-4.139437l-1.645297-.345862c-1.959684-.419184-2.745655-1.152716-2.745655-2.253119 0-1.383317 1.30995-2.242614 3.081003-2.242614 1.509062 0 2.661818.597332 3.175317 1.991154.241032.544949.586859.806914 1.152757.806914.607816 0 1.03748-.398245 1.03748-1.006081 0-.220017-.03143-.398165-.08384-.54487-.586857-2.022597-2.640859-3.248695-5.250278-3.248695-3.217237 0-5.491311 1.781482-5.491311 4.369958 0 2.179726 1.372828 3.584063 4.390953 4.223263l1.655776.345862c2.022562.440123 2.819012 1.173725 2.819012 2.34737 0 1.351873-1.372827 2.336946-3.290594 2.336946-1.750093 0-3.12292-.66022-3.594503-2.074901-.230551-.565888-.576377-.806914-1.110838-.806914-.639254 0-1.058438.440113-1.058438 1.121262 0 .251541.05239.503001.125755.733612.586858 1.760543 2.598941 3.028589 5.533229 3.028589z" style="font-weight:500;font-size:27.7812px;line-height:1.25;font-family:Lato;-inkscape-font-specification:&quot;SF Pro Rounded Medium&quot;;text-align:center;letter-spacing:0;text-anchor:middle;fill:#fff;stroke:none;stroke-width:.204507" transform="translate(-8.02484154 -8.4297199)"/><path d="M82.249149 81.693726c.530966 0 .849547-.333738.849547-.879846v-3.724351l3.474037-5.256601c.128949-.197158.174461-.371678.174461-.561261 0-.439963-.364091-.766125-.834377-.766125-.33375 0-.546136.13651-.750938.477894L82.287076 75.4587h-.05309l-2.874806-4.475264c-.212387-.34896-.409603-.477894-.758524-.477894-.47787 0-.84196.326162-.84196.773701 0 .189663.04551.364103.174459.553685l3.466453 5.256601v3.724351c0 .546108.326164.879846.849545.879846zM91.798961 81.754375c2.556227 0 4.179466-1.297021 4.179466-3.360168 0-1.592909-.940573-2.510766-3.238901-2.996236l-1.190878-.250301c-1.418438-.303374-1.987332-.83434-1.987332-1.63076 0-1.001294.948152-1.623263 2.230058-1.623263 1.092278 0 1.926649.432317 2.298329 1.441177.174455.394457.424768.584039.834371.584039.439949 0 .750944-.288231.750944-.728115 0-.159308-.02279-.288241-.06065-.394466-.424777-1.463966-1.911484-2.351389-3.80021-2.351389-2.328666 0-3.974659 1.289456-3.974659 3.16302 0 1.577687.993664 2.594124 3.178212 3.056795l1.198472.250311c1.463948.318596 2.040422.849562 2.040422 1.699124 0 .978506-.993663 1.691479-2.381763 1.691479-1.266734 0-2.260397-.477894-2.60173-1.501816-.166877-.409599-.417189-.584119-.804041-.584119-.462696 0-.766107.318596-.766107.811631 0 .182087.03792.364103.09102.530967.424773 1.274313 1.881141 2.19209 4.005005 2.19209z" style="font-weight:500;font-size:20.1083px;line-height:1.25;font-family:Lato;-inkscape-font-specification:&quot;SF Pro Rounded Medium&quot;;text-align:center;letter-spacing:0;text-anchor:middle;fill:#fff;stroke:#fff;stroke-width:.396875;stroke-miterlimit:4;stroke-dasharray:none;stroke-opacity:1" transform="translate(-8.02484154 -8.4297199)"/><path d="M-85.536344 89.463343c.170532 0 .279053-.11162.279053-.28836v-3.98425c0-.17673-.108521-.28835-.279053-.28835s-.279053.11162-.279053.28835v3.98425c0 .17674.108521.28836.279053.28836z" style="font-size:6.35px;line-height:1.25;font-family:&quot;SF Pro Rounded&quot;;-inkscape-font-specification:&quot;SF Pro Rounded&quot;;text-align:center;letter-spacing:0;text-anchor:middle;display:inline;fill:#fff;fill-opacity:1;stroke:none;stroke-width:.264583" transform="translate(90.9043544 -10.4943926) scale(1.0593012)"/><path d="M-84.320268 89.450683c.120794 0 .195466-.0791.195466-.20425v-2.30607h.01977l1.666954 2.38074c.07028.10103.120794.12958.22841.12958.14056 0 .224018-.0813.224018-.21523v-2.8112c0-.12519-.07467-.20426-.195467-.20426-.120793 0-.195466.0791-.195466.20426v2.31484h-.01977l-1.664758-2.38732c-.07028-.10103-.12299-.13178-.22841-.13178-.136167 0-.226214.0923-.226214.23061v2.79583c0 .12518.07467.20425.195467.20425zM-79.962598 89.472643c.845556 0 1.344105-.50733 1.344105-1.36387v-.0966c0-.12518-.07687-.20425-.197663-.20425h-.935602c-.109813 0-.188878.0703-.188878.17351 0 .10322.07906.1735.188878.1735h.73794v.0571c0 .5315-.38654.89607-.94878.89607-.645698 0-1.045415-.49415-1.045415-1.29139 0-.78406.393129-1.25406 1.045415-1.25406.399717 0 .707192.19327.869715.56004.05051.1164.109812.16472.206447.16472.109813 0 .180093-.0725.180093-.18009 0-.0483-.0044-.0988-.03075-.16692-.171308-.44364-.645698-.74233-1.225508-.74233-.887285 0-1.451721.63033-1.451721 1.62083 0 1.00808.566633 1.65378 1.451721 1.65378zM-77.834121 89.419933h1.609851c.112009 0 .188877-.0725.188877-.1779 0-.10542-.07687-.17789-.188877-.17789h-1.412189v-1.08934h1.333124c.109812 0 .186681-.0725.186681-.1757 0-.10542-.07687-.1757-.186681-.1757h-1.333124v-1.01687h1.412189c.112009 0 .188877-.0725.188877-.17789 0-.10542-.07687-.1779-.188877-.1779h-1.609851c-.120794 0-.197663.0791-.197663.20425v2.76069c0 .12519.07687.20425.197663.20425zM-75.270787 89.450683c.120793 0 .195466-.0791.195466-.20425v-2.30607h.01977l1.666954 2.38074c.07028.10103.120793.12958.22841.12958.14056 0 .224017-.0813.224017-.21523v-2.8112c0-.12519-.07467-.20426-.195466-.20426-.120794 0-.195466.0791-.195466.20426v2.31484h-.01977l-1.664758-2.38732c-.07028-.10103-.12299-.13178-.22841-.13178-.136168 0-.226214.0923-.226214.23061v2.79583c0 .12518.07467.20425.195467.20425zM-72.044187 89.450683c.120794 0 .197663-.0791.197663-.20425v-2.82218c0-.12519-.07687-.20426-.197663-.20426-.120794 0-.197662.0791-.197662.20426v2.82218c0 .12518.07687.20425.197662.20425zM-70.954537 89.419933h1.609852c.112008 0 .188877-.0725.188877-.1779 0-.10542-.07687-.17789-.188877-.17789h-1.412189v-1.08934h1.333124c.109812 0 .186681-.0725.186681-.1757 0-.10542-.07687-.1757-.186681-.1757h-1.333124v-1.01687h1.412189c.112008 0 .188877-.0725.188877-.17789 0-.10542-.07687-.1779-.188877-.1779h-1.609852c-.120793 0-.197662.0791-.197662.20425v2.76069c0 .12519.07687.20425.197662.20425zM-67.328217 89.472643c.786257 0 1.258451-.48757 1.258451-1.16401v-1.88438c0-.12519-.07687-.20426-.197662-.20426-.120794 0-.197663.0791-.197663.20426v1.85802c0 .47879-.314064.82579-.863126.82579-.549063 0-.863126-.347-.863126-.82579v-1.85802c0-.12519-.07687-.20426-.197663-.20426-.120794 0-.197662.0791-.197662.20426v1.88438c0 .67644.472193 1.16401 1.258451 1.16401zM-65.173386 89.459463c.118598 0 .197663-.0813.197663-.20425v-1.08934h.757706l.634716 1.16621c.05051.0944.103224.12738.19327.12738.114205 0 .202055-.0791.202055-.18229 0-.0439-.01098-.0835-.04173-.13836l-.57981-1.03443c.397522-.12519.636913-.4678.636913-.90925 0-.57103-.399718-.94439-1.010275-.94439h-.990509c-.120794 0-.197662.0791-.197662.20425v2.80022c0 .12299.07906.20425.197663.20425zm.197663-1.64279v-1.21453h.740136c.408502 0 .654482.22622.654482.60617 0 .38873-.230606.60836-.636912.60836zM-62.397017 89.419933h.999294c.674249 0 1.073966-.33163 1.073966-.88948 0-.42168-.276727-.72476-.707192-.77967v-.0176c.305278-.0549.546866-.36238.546866-.69182 0-.47439-.366774-.79065-.909248-.79065h-1.003686c-.120794 0-.197662.0791-.197662.20425v2.76069c0 .12519.07687.20425.197662.20425zm.197663-1.80312v-1.01686h.715977c.384344 0 .599576.1735.599576.48756 0 .34262-.254765.5293-.722566.5293zm0 1.45392v-1.1135h.704996c.505137 0 .764295.18668.764295.55345 0 .36678-.250373.56005-.726959.56005zM-58.942006 85.897153c.131775 0 .241588-.10762.241588-.24159s-.109813-.24159-.241588-.24159-.241587.10762-.241587.24159.109812.24159.241587.24159zm.817005 0c.131775 0 .241588-.10762.241588-.24159s-.109813-.24159-.241588-.24159-.241587.10762-.241587.24159.109812.24159.241587.24159zm-.408502 3.57549c.786257 0 1.258451-.48757 1.258451-1.16401v-1.88438c0-.12519-.07687-.20426-.197662-.20426-.120794 0-.197663.0791-.197663.20426v1.85802c0 .47879-.314064.82579-.863126.82579-.549063 0-.863126-.347-.863126-.82579v-1.85802c0-.12519-.07687-.20426-.197663-.20426-.120794 0-.197662.0791-.197662.20426v1.88438c0 .67644.472193 1.16401 1.258451 1.16401zM-56.378672 89.459463c.118598 0 .197663-.0813.197663-.20425v-1.08934h.757706l.634716 1.16621c.05051.0944.103224.12738.19327.12738.114205 0 .202055-.0791.202055-.18229 0-.0439-.01098-.0835-.04173-.13836l-.57981-1.03443c.397522-.12519.636913-.4678.636913-.90925 0-.57103-.399718-.94439-1.010275-.94439h-.990508c-.120794 0-.197662.0791-.197662.20425v2.80022c0 .12299.07906.20425.197662.20425zm.197663-1.64279v-1.21453h.740136c.408502 0 .654482.22622.654482.60617 0 .38873-.230606.60836-.636912.60836zM-52.462447 89.472643c.898266 0 1.460506-.63032 1.460506-1.63621 0-1.00588-.56224-1.6384-1.460506-1.6384-.898266 0-1.460506.63252-1.460506 1.6384 0 1.00589.56224 1.63621 1.460506 1.63621zm0-.36458c-.647894 0-1.0542-.49196-1.0542-1.27163 0-.78186.406306-1.27382 1.0542-1.27382s1.0542.49196 1.0542 1.27382c0 .77967-.406306 1.27163-1.0542 1.27163z" style="font-size:4.49792px;line-height:1.25;font-family:&quot;SF Pro Rounded&quot;;-inkscape-font-specification:&quot;SF Pro Rounded&quot;;text-align:center;letter-spacing:.079375px;text-anchor:middle;display:inline;fill:#fff;fill-opacity:1;stroke:#fff;stroke-width:.132292;stroke-miterlimit:4;stroke-dasharray:none;stroke-opacity:1" transform="translate(90.9043544 -10.4943926) scale(1.0593012)"/><path d="M-47.530784 89.494343c1.001489 0 1.652612-.51779 1.652612-1.34565 0-.63252-.36897-1.00459-1.302246-1.20923l-.496094-.10852c-.610815-.13332-.84956-.37517-.84956-.72864 0-.45578.430981-.72863.989086-.72863.483692 0 .852662.19843 1.007691.65112.04961.14263.136426.21704.279053.21704.148828 0 .254248-.0992.254248-.25115 0-.0589-.0062-.10542-.0155-.13952-.161231-.60462-.762744-.97979-1.509986-.97979-.927075 0-1.578198.5178-1.578198 1.25574 0 .63562.387573 1.04179 1.283643 1.23713l.496093.10852c.620118.13643.868164.38447.868164.75965 0 .44028-.440283.75964-1.047998.75964-.564306 0-1.004589-.21704-1.141015-.67903-.04341-.14883-.130225-.22014-.269751-.22014-.15813 0-.257349.11162-.257349.28835 0 .0651.0124.13333.03101.19534.167432.5395.765845.91777 1.606104.91777z" style="font-size:6.35px;line-height:1.25;font-family:&quot;SF Pro Rounded&quot;;-inkscape-font-specification:&quot;SF Pro Rounded&quot;;text-align:center;letter-spacing:0;text-anchor:middle;display:inline;fill:#fff;fill-opacity:1;stroke:none;stroke-width:.264583" transform="translate(90.9043544 -10.4943926) scale(1.0593012)"/><path d="M-44.016139 89.472643c.898266 0 1.460506-.63032 1.460506-1.63621 0-1.00588-.56224-1.6384-1.460506-1.6384-.898266 0-1.460506.63252-1.460506 1.6384 0 1.00589.56224 1.63621 1.460506 1.63621zm0-.36458c-.647894 0-1.0542-.49196-1.0542-1.27163 0-.78186.406306-1.27382 1.0542-1.27382s1.0542.49196 1.0542 1.27382c0 .77967-.406306 1.27163-1.0542 1.27163zM-41.782244 89.450683c.120794 0 .197662-.0791.197662-.20425v-1.19916h1.249667c.109812 0 .186681-.0703.186681-.1757 0-.10542-.07687-.1757-.186681-.1757h-1.249667v-1.08934h1.372657c.112008 0 .188877-.0725.188877-.17789 0-.10542-.07687-.1779-.188877-.1779h-1.570319c-.120794 0-.197663.0791-.197663.20425v2.79144c0 .12518.07687.20425.197663.20425zM-38.529288 89.450683c.120793 0 .197662-.0791.197662-.20425v-2.6399h.84336c.112009 0 .188878-.0725.188878-.17789 0-.10542-.07687-.1779-.188878-.1779h-2.082045c-.112009 0-.188877.0725-.188877.1779 0 .10542.07687.17789.188877.17789h.84336v2.6399c0 .12518.07687.20425.197663.20425zM-35.992307 89.450683c.12299 0 .188878-.0549.22841-.18668l.691819-2.35878h.02196l.691819 2.35878c.03953.13177.10542.18668.22841.18668.118598 0 .184485-.0593.221821-.18888l.775277-2.7519c.01318-.0483.01757-.0747.01757-.10981 0-.10542-.08126-.1801-.195467-.1801-.101027 0-.169111.0549-.195466.15813l-.623735 2.4598h-.01757l-.669856-2.40489c-.04173-.14934-.112009-.21304-.241588-.21304-.133971 0-.204251.0637-.248176.22183l-.66766 2.3961h-.01757l-.623735-2.4598c-.02635-.10102-.09224-.15813-.195466-.15813-.114205 0-.195466.0747-.195466.1801 0 .0351.0044.0615.01757.10981l.775276 2.7519c.03734.12958.103224.18888.221821.18888zM-32.866733 89.450683c.09883 0 .155933-.0461.19327-.15154l.278923-.78626h1.254059l.28112.78626c.03734.10542.09444.15154.19327.15154.114205 0 .197663-.0725.197663-.17351 0-.0285-.0066-.0615-.02416-.10981l-1.021256-2.75849c-.04832-.12958-.127383-.18888-.248177-.18888-.129578 0-.21084.0615-.259157.19108l-1.01906 2.75629c-.01757.0483-.02416.0813-.02416.10981 0 .10103.08346.17351.197663.17351zm.586398-1.27383.507334-1.44513h.01318l.507333 1.44513zM-29.763125 89.459463c.118598 0 .197663-.0813.197663-.20425v-1.08934h.757706l.634716 1.16621c.05051.0944.103224.12738.19327.12738.114205 0 .202055-.0791.202055-.18229 0-.0439-.01098-.0835-.04173-.13836l-.57981-1.03443c.397521-.12519.636912-.4678.636912-.90925 0-.57103-.399717-.94439-1.010275-.94439h-.990509c-.120794 0-.197662.0791-.197662.20425v2.80022c0 .12299.07906.20425.197662.20425zm.197663-1.64279v-1.21453h.740136c.408503 0 .654483.22622.654483.60617 0 .38873-.230607.60836-.636913.60836zM-26.986754 89.419933h1.609852c.112008 0 .188877-.0725.188877-.1779 0-.10542-.07687-.17789-.188877-.17789h-1.412189v-1.08934h1.333124c.109812 0 .186681-.0725.186681-.1757 0-.10542-.07687-.1757-.186681-.1757h-1.333124v-1.01687h1.412189c.112008 0 .188877-.0725.188877-.17789 0-.10542-.07687-.1779-.188877-.1779h-1.609852c-.120794 0-.197662.0791-.197662.20425v2.76069c0 .12519.07687.20425.197662.20425z" style="font-size:4.49792px;line-height:1.25;font-family:&quot;SF Pro Rounded&quot;;-inkscape-font-specification:&quot;SF Pro Rounded&quot;;font-variation-settings:normal;text-align:end;letter-spacing:.079375px;text-anchor:end;display:inline;vector-effect:none;fill:#fff;fill-opacity:1;stroke:#fff;stroke-width:.132292;stroke-linecap:butt;stroke-linejoin:miter;stroke-miterlimit:4;stroke-dasharray:none;stroke-dashoffset:0;stroke-opacity:1;-inkscape-stroke:none;stop-color:#000" transform="translate(90.9043544 -10.4943926) scale(1.0593012)"/><path d="M-21.723453 89.494343c1.001489 0 1.652612-.51779 1.652612-1.34565 0-.63252-.36897-1.00459-1.302246-1.20923l-.496094-.10852c-.610815-.13332-.84956-.37517-.84956-.72864 0-.45578.430981-.72863.989086-.72863.483692 0 .852662.19843 1.007691.65112.04961.14263.136426.21704.279053.21704.148828 0 .254248-.0992.254248-.25115 0-.0589-.0062-.10542-.0155-.13952-.161231-.60462-.762744-.97979-1.509986-.97979-.927075 0-1.578198.5178-1.578198 1.25574 0 .63562.387573 1.04179 1.283643 1.23713l.496094.10852c.620117.13643.868164.38447.868164.75965 0 .44028-.440284.75964-1.047998.75964-.564307 0-1.00459-.21704-1.141016-.67903-.04341-.14883-.130225-.22014-.269751-.22014-.15813 0-.257349.11162-.257349.28835 0 .0651.0124.13333.03101.19534.167432.5395.765845.91777 1.606104.91777z" style="font-size:6.35px;line-height:1.25;font-family:&quot;SF Pro Rounded&quot;;-inkscape-font-specification:&quot;SF Pro Rounded&quot;;text-align:center;letter-spacing:0;text-anchor:middle;display:inline;fill:#fff;fill-opacity:1;stroke:none;stroke-width:.264583" transform="translate(90.9043544 -10.4943926) scale(1.0593012)"/><path d="M-18.476754 89.450683c.120793 0 .197662-.0791.197662-.20425v-1.19037l1.025649-1.53518c.03075-.0461.03953-.0835.03953-.12738 0-.0988-.08346-.17351-.191073-.17351-.07906 0-.125187.0286-.173504.10103l-.891678 1.35289h-.01318l-.891678-1.35289c-.04832-.0725-.09444-.10103-.173503-.10103-.107617 0-.191074.0747-.191074.17351 0 .0439.0088.0813.03953.12738l1.025649 1.53518v1.19037c0 .12518.07687.20425.197663.20425zM-15.669634 89.472643c.709389 0 1.170601-.36677 1.170601-.95317 0-.44804-.261354-.71159-.922425-.85654l-.3514-.0769c-.432661-.0944-.601772-.26574-.601772-.51612 0-.32285.305278-.51612.700603-.51612.342615 0 .603969.14056.713782.46122.03514.10102.09663.15373.197662.15373.10542 0 .180093-.0703.180093-.17789 0-.0417-.0044-.0747-.01098-.0988-.114205-.42827-.540277-.69402-1.069573-.69402-.656679 0-1.117892.36678-1.117892.88948 0 .45023.274532.73794.909248.87631l.3514.0769c.43925.0966.61495.27233.61495.53808 0 .31186-.311868.53808-.742333.53808-.399717 0-.711585-.15374-.80822-.48098-.03075-.10542-.09224-.15593-.191073-.15593-.112009 0-.182289.0791-.182289.20425 0 .0461.0088.0944.02196.13836.118598.38215.542474.65009 1.137658.65009zM-12.959151 89.450683c.120793 0 .197662-.0791.197662-.20425v-2.6399h.84336c.112009 0 .188878-.0725.188878-.17789 0-.10542-.07687-.1779-.188878-.1779h-2.082045c-.112009 0-.188877.0725-.188877.1779 0 .10542.07687.17789.188877.17789h.84336v2.6399c0 .12518.07687.20425.197663.20425zM-11.063479 89.419933h1.6098514c.112009 0 .188878-.0725.188878-.1779 0-.10542-.07687-.17789-.188878-.17789h-1.4121884v-1.08934h1.3331234c.109813 0 .186682-.0725.186682-.1757 0-.10542-.07687-.1757-.186682-.1757h-1.3331234v-1.01687h1.4121884c.112009 0 .188878-.0725.188878-.17789 0-.10542-.07687-.1779-.188878-.1779h-1.6098514c-.120794 0-.197662.0791-.197662.20425v2.76069c0 .12519.07687.20425.197662.20425zM-8.5111266 89.450683c.114205 0 .184485-.0725.184485-.19108v-2.2819h.01537l.939995 2.25335c.04832.11421.12299.16692.237195.16692.114205 0 .186682-.0527.237195-.17131l.939995-2.24896h.01537v2.2819c0 .1186.07028.19108.184485.19108.114205 0 .184485-.0725.184485-.19108v-2.79363c0-.14934-.09883-.24598-.248176-.24598-.136168 0-.221821.0659-.283316.21084l-1.021257 2.4642h-.01757l-1.023452-2.4642c-.06149-.14714-.142756-.21084-.276728-.21084-.151541 0-.252568.0988-.252568.24598v2.79363c0 .1186.07028.19108.184485.19108zM-3.8350006 89.472643c.709389 0 1.170601-.36677 1.170601-.95317 0-.44804-.261354-.71159-.922425-.85654l-.3514-.0769c-.432661-.0944-.601772-.26574-.601772-.51612 0-.32285.305278-.51612.700603-.51612.342615 0 .603969.14056.713782.46122.03514.10102.09664.15373.197662.15373.10542 0 .180093-.0703.180093-.17789 0-.0417-.0044-.0747-.01098-.0988-.114205-.42827-.540277-.69402-1.069573-.69402-.656679 0-1.117892.36678-1.117892.88948 0 .45023.274532.73794.909248.87631l.3514.0769c.43925.0966.61495.27233.61495.53808 0 .31186-.311868.53808-.742333.53808-.399717 0-.711585-.15374-.80822-.48098-.03075-.10542-.09224-.15593-.191073-.15593-.112009 0-.182289.0791-.182289.20425 0 .0461.0088.0944.02196.13836.118598.38215.542474.65009 1.137658.65009z" style="font-size:4.49792px;line-height:1.25;font-family:&quot;SF Pro Rounded&quot;;-inkscape-font-specification:&quot;SF Pro Rounded&quot;;font-variation-settings:normal;text-align:center;letter-spacing:.079375px;text-anchor:middle;display:inline;vector-effect:none;fill:#fff;fill-opacity:1;stroke:#fff;stroke-width:.132292;stroke-linecap:butt;stroke-linejoin:miter;stroke-miterlimit:4;stroke-dasharray:none;stroke-dashoffset:0;stroke-opacity:1;-inkscape-stroke:none;stop-color:#000" transform="translate(90.9043544 -10.4943926) scale(1.0593012)"/><path d="M-67.100148 97.357433h1.02061c1.10846 0 1.759584-.68988 1.759584-1.86552 0-1.17306-.653708-1.86294-1.759584-1.86294h-1.02061c-.14211 0-.232544.093-.232544.2403v3.24786c0 .14728.09043.2403.232544.2403zm.232544-.41858v-2.8913h.75706c.847494 0 1.315166.51677 1.315166 1.44953 0 .92501-.470256 1.44177-1.315166 1.44177z" style="font-size:6.35px;line-height:1.25;font-family:&quot;SF Pro Rounded&quot;;-inkscape-font-specification:&quot;SF Pro Rounded&quot;;text-align:center;letter-spacing:.079375px;text-anchor:middle;display:inline;fill:#fff;fill-opacity:1;stroke:none;stroke-width:.264583" transform="translate(90.9043544 -10.4943926) scale(1.0593012)"/><path d="M-63.61271 97.389993c.09767 0 .162781-.0669.162781-.16821v-.8971h.623993l.522708.9604c.0416.0778.08501.10491.159164.10491.09405 0 .166398-.0651.166398-.15012 0-.0362-.009-.0687-.03437-.11395l-.477491-.85189c.327371-.10309.524517-.38525.524517-.74879 0-.47026-.32918-.77773-.831992-.77773h-.815713c-.09948 0-.162781.0651-.162781.16821v2.30606c0 .10129.06511.16821.162781.16821zm.162781-1.35289v-1.0002h.609524c.336414 0 .538986.18629.538986.49919 0 .32014-.189911.50101-.524517.50101z" style="font-size:3.70417px;line-height:1.25;font-family:&quot;SF Pro Rounded&quot;;-inkscape-font-specification:&quot;SF Pro Rounded&quot;;text-align:center;letter-spacing:.079375px;text-anchor:middle;display:inline;fill:#fff;fill-opacity:1;stroke:#fff;stroke-width:.105833;stroke-miterlimit:4;stroke-dasharray:none;stroke-opacity:1" transform="translate(90.9043544 -10.4943926) scale(1.0593012)"/><path d="M-61.056482 97.383273c.165365 0 .294556-.12919.294556-.29456 0-.16536-.129191-.29455-.294556-.29455-.165364 0-.294555.12919-.294555.29455 0 .16537.129191.29456.294555.29456z" style="font-size:6.35px;line-height:1.25;font-family:&quot;SF Pro Rounded&quot;;-inkscape-font-specification:&quot;SF Pro Rounded&quot;;text-align:center;letter-spacing:.0529167px;text-anchor:middle;display:inline;fill:#fff;fill-opacity:1;stroke:none;stroke-width:.264583" transform="translate(90.9043544 -10.4943926) scale(1.0593012)"/><path d="M-59.861515 96.055183h1.328085c.126607 0 .222209-.0827.222209-.20929 0-.1266-.0956-.20929-.222209-.20929h-1.328085c-.126608 0-.222209.0827-.222209.20929 0 .12661.0956.20929.222209.20929zM-57.463728 97.393603c.142111 0 .232544-.093.232544-.24029v-3.32021c0-.14728-.09043-.2403-.232544-.2403-.14211 0-.232544.093-.232544.2403v3.32021c0 .14728.09043.24029.232544.24029z" style="font-size:5.29167px;line-height:1.25;font-family:&quot;SF Pro Rounded&quot;;-inkscape-font-specification:&quot;SF Pro Rounded&quot;;text-align:center;letter-spacing:0;text-anchor:middle;display:inline;fill:#fff;fill-opacity:1;stroke:none;stroke-width:.264583" transform="translate(90.9043544 -10.4943926) scale(1.0593012)"/><path d="M-56.455261 97.382753c.09948 0 .160973-.0651.160973-.16821v-1.89911h.01628l1.372785 1.96061c.05788.0832.09948.10671.188103.10671.115755 0 .184485-.0669.184485-.17725v-2.3151c0-.1031-.0615-.16821-.160972-.16821-.09948 0-.160973.0651-.160973.16821v1.90634h-.01628l-1.370977-1.96603c-.05788-.0832-.101286-.10852-.188102-.10852-.112138 0-.186294.076-.186294.18991v2.30244c0 .1031.0615.16821.160972.16821zM-52.852583 97.400843c.69634 0 1.10691-.41781 1.10691-1.12319v-.0796c0-.1031-.0633-.16821-.162781-.16821h-.770496c-.09043 0-.155546.0579-.155546.14289 0 .085.06511.14288.155546.14288h.607715v.047c0 .4377-.318327.73794-.781348.73794-.531751 0-.86093-.40695-.86093-1.0635 0-.6457.323753-1.03276.86093-1.03276.329179 0 .582394.15917.716236.46121.0416.0959.09043.13565.170015.13565.09043 0 .148312-.0597.148312-.14831 0-.0398-.0036-.0814-.02532-.13746-.141077-.36535-.531751-.61133-1.009242-.61133-.730706 0-1.195535.51909-1.195535 1.3348 0 .83019.466638 1.36194 1.195535 1.36194z" style="font-size:3.70417px;line-height:1.25;font-family:&quot;SF Pro Rounded&quot;;-inkscape-font-specification:&quot;SF Pro Rounded&quot;;font-variation-settings:normal;text-align:center;letter-spacing:.079375px;text-anchor:middle;display:inline;vector-effect:none;fill:#fff;fill-opacity:1;stroke:#fff;stroke-width:.105833;stroke-linecap:butt;stroke-linejoin:miter;stroke-miterlimit:4;stroke-dasharray:none;stroke-dashoffset:0;stroke-opacity:1;-inkscape-stroke:none;stop-color:#000" transform="translate(90.9043544 -10.4943926) scale(1.0593012)"/><path d="M-50.829915 97.383273c.165365 0 .294556-.12919.294556-.29456 0-.16536-.129191-.29455-.294556-.29455-.165364 0-.294556.12919-.294556.29455 0 .16537.129192.29456.294556.29456zM-48.168576 97.419443c.687297 0 1.095541-.41858 1.095541-1.12655v-2.45979c0-.14728-.09043-.2403-.232544-.2403-.142111 0-.232544.093-.232544.2403v2.45721c0 .45475-.222209.70022-.633037.70022-.299724 0-.514181-.17312-.599447-.48576-.03876-.1447-.111105-.20929-.22996-.20929-.136943 0-.219625.0879-.219625.23771 0 .0956.01809.16278.04651.24546.136943.39274.524517.64079 1.005108.64079z" style="font-size:5.29167px;line-height:1.25;font-family:&quot;SF Pro Rounded&quot;;-inkscape-font-specification:&quot;SF Pro Rounded&quot;;text-align:center;letter-spacing:0;text-anchor:middle;display:inline;fill:#fff;fill-opacity:1;stroke:none;stroke-width:.264583" transform="translate(90.9043544 -10.4943926) scale(1.0593012)"/><path d="M-45.75296 94.456313c.108521 0 .198954-.0886.198954-.19895 0-.11033-.09043-.19896-.198954-.19896-.108521 0-.198954.0886-.198954.19896 0 .11033.09043.19895.198954.19895zm.672828 0c.10852 0 .198954-.0886.198954-.19895 0-.11033-.09043-.19896-.198954-.19896-.108521 0-.198955.0886-.198955.19896 0 .11033.09043.19895.198955.19895zm-.336414 2.94453c.647506 0 1.036372-.40153 1.036372-.9586v-1.55184c0-.1031-.0633-.16821-.162781-.16821-.09948 0-.162781.0651-.162781.16821v1.53014c0 .39429-.258641.68006-.71081.68006-.452169 0-.71081-.28577-.71081-.68006v-1.53014c0-.1031-.0633-.16821-.162781-.16821-.09948 0-.162781.0651-.162781.16821v1.55184c0 .55707.388866.9586 1.036372.9586zM-43.627972 97.389993c.09767 0 .162781-.0669.162781-.16821v-.8971h.623993l.522708.9604c.0416.0778.08501.10491.159163.10491.09405 0 .166398-.0651.166398-.15012 0-.0362-.009-.0687-.03436-.11395l-.477491-.85189c.32737-.10309.524516-.38525.524516-.74879 0-.47026-.329179-.77773-.831991-.77773h-.815717c-.09948 0-.162781.0651-.162781.16821v2.30606c0 .10129.06511.16821.162781.16821zm.162781-1.35289v-1.0002h.609524c.336413 0 .538985.18629.538985.49919 0 .32014-.189911.50101-.524516.50101zM-40.396074 97.400843c.696341 0 1.106911-.41781 1.106911-1.12319v-.0796c0-.1031-.0633-.16821-.162781-.16821h-.770497c-.09043 0-.155546.0579-.155546.14289 0 .085.06511.14288.155546.14288h.607716v.047c0 .4377-.318327.73794-.781349.73794-.53175 0-.86093-.40695-.86093-1.0635 0-.6457.323753-1.03276.86093-1.03276.32918 0 .582394.15917.716236.46121.0416.0959.09043.13565.170016.13565.09043 0 .148312-.0597.148312-.14831 0-.0398-.0036-.0814-.02532-.13746-.141077-.36535-.531751-.61133-1.009242-.61133-.730705 0-1.195535.51909-1.195535 1.3348 0 .83019.466639 1.36194 1.195535 1.36194zM-38.629203 97.357433h1.32576c.09224 0 .155547-.0597.155547-.1465 0-.0868-.0633-.14651-.155547-.14651h-1.162979v-.8971h1.097867c.09043 0 .153738-.0597.153738-.14469 0-.0868-.0633-.1447-.153738-.1447h-1.097867v-.83741h1.162979c.09224 0 .155547-.0597.155547-.14651 0-.0868-.0633-.1465-.155547-.1465h-1.32576c-.09948 0-.162781.0651-.162781.16821v2.2735c0 .1031.0633.16821.162781.16821zM-36.504215 97.382753c.09948 0 .160973-.0651.160973-.16821v-1.89911h.01628l1.372785 1.96061c.05788.0832.09948.10671.188103.10671.115755 0 .184485-.0669.184485-.17725v-2.3151c0-.1031-.0615-.16821-.160972-.16821-.09948 0-.160973.0651-.160973.16821v1.90634h-.01628l-1.370977-1.96603c-.05788-.0832-.101286-.10852-.188102-.10852-.112138 0-.186294.076-.186294.18991v2.30244c0 .1031.0615.16821.160972.16821z" style="font-size:3.70417px;line-height:1.25;font-family:&quot;SF Pro Rounded&quot;;-inkscape-font-specification:&quot;SF Pro Rounded&quot;;font-variation-settings:normal;text-align:center;letter-spacing:.079375px;text-anchor:middle;display:inline;vector-effect:none;fill:#fff;fill-opacity:1;stroke:#fff;stroke-width:.105833;stroke-linecap:butt;stroke-linejoin:miter;stroke-miterlimit:4;stroke-dasharray:none;stroke-dashoffset:0;stroke-opacity:1;-inkscape-stroke:none;stop-color:#000" transform="translate(90.9043544 -10.4943926) scale(1.0593012)"/><path d="M-32.569516 97.357433h1.893942c.131775 0 .222209-.0853.222209-.20929 0-.12402-.09043-.20929-.222209-.20929h-1.661398v-1.28158h1.568381c.129191 0 .219625-.0853.219625-.2067 0-.12402-.09043-.20671-.219625-.20671h-1.568381v-1.19631h1.661398c.131775 0 .222209-.0853.222209-.20929 0-.12402-.09043-.20929-.222209-.20929h-1.893942c-.14211 0-.232544.093-.232544.2403v3.24786c0 .14728.09043.2403.232544.2403z" style="font-size:5.29167px;line-height:1.25;font-family:&quot;SF Pro Rounded&quot;;-inkscape-font-specification:&quot;SF Pro Rounded&quot;;text-align:center;letter-spacing:0;text-anchor:middle;display:inline;fill:#fff;fill-opacity:1;stroke:none;stroke-width:.264583" transform="translate(90.9043544 -10.4943926) scale(1.0593012)"/><path d="M-29.822911 97.382753c.09948 0 .162781-.0651.162781-.16821v-1.04541h1.432472v1.04541c0 .1031.0633.16821.162781.16821.09948 0 .162781-.0651.162781-.16821v-2.32414c0-.1031-.0633-.16821-.162781-.16821-.09948 0-.162781.0651-.162781.16821v.98572h-1.432472v-.98572c0-.1031-.0633-.16821-.162781-.16821-.09948 0-.162781.0651-.162781.16821v2.32414c0 .1031.0633.16821.162781.16821zM-27.153512 97.389993c.09767 0 .162781-.0669.162781-.16821v-.8971h.623994l.522707.9604c.0416.0778.08501.10491.159164.10491.09405 0 .166398-.0651.166398-.15012 0-.0362-.009-.0687-.03437-.11395l-.47749-.85189c.32737-.10309.524516-.38525.524516-.74879 0-.47026-.329179-.77773-.831992-.77773h-.815708c-.09948 0-.162781.0651-.162781.16821v2.30606c0 .10129.06511.16821.162781.16821zm.162781-1.35289v-1.0002h.609524c.336414 0 .538986.18629.538986.49919 0 .32014-.189911.50101-.524516.50101zM-24.853081 97.357433h1.32576c.09224 0 .155546-.0597.155546-.1465 0-.0868-.0633-.14651-.155546-.14651h-1.16298v-.8971h1.097867c.09043 0 .153738-.0597.153738-.14469 0-.0868-.0633-.1447-.153738-.1447h-1.097867v-.83741h1.16298c.09224 0 .155546-.0597.155546-.14651 0-.0868-.0633-.1465-.155546-.1465h-1.32576c-.09948 0-.162781.0651-.162781.16821v2.2735c0 .1031.0633.16821.162781.16821zM-22.066118 97.382753c.09948 0 .162781-.0651.162781-.16821v-2.17402h.694532c.09224 0 .155546-.0597.155546-.14651 0-.0868-.0633-.1465-.155546-.1465h-1.714626c-.09224 0-.155546.0597-.155546.1465 0 .0868.0633.14651.155546.14651h.694532v2.17402c0 .1031.0633.16821.162781.16821z" style="font-size:3.70417px;line-height:1.25;font-family:&quot;SF Pro Rounded&quot;;-inkscape-font-specification:&quot;SF Pro Rounded&quot;;font-variation-settings:normal;text-align:center;letter-spacing:.079375px;text-anchor:middle;display:inline;vector-effect:none;fill:#fff;fill-opacity:1;stroke:#fff;stroke-width:.105833;stroke-linecap:butt;stroke-linejoin:miter;stroke-miterlimit:4;stroke-dasharray:none;stroke-dashoffset:0;stroke-opacity:1;-inkscape-stroke:none;stop-color:#000" transform="translate(90.9043544 -10.4943926) scale(1.0593012)"/></g></svg>