<svg width="601.70459" height="601.70459" viewBox="0 0 159.20096 159.20098" xmlns="http://www.w3.org/2000/svg"><defs><path id="c" d="M1600.6648 5530.2114h158.57976v94.550331H1600.6648z"/><path id="b" d="M157-13h55v40h-55z"/><filter style="color-interpolation-filters:sRGB" id="a" x="-.05642297" y="-.03515585" width="1.1128459" height="1.0703117"><feGaussianBlur stdDeviation="1.1384116"/></filter></defs><text xml:space="preserve" transform="matrix(.26458 0 0 .26458 -143.56973 -2099.5208)" style="font-size:36px;line-height:1.25;font-family:Lato;-inkscape-font-specification:Lato;text-align:center;letter-spacing:0;white-space:pre;shape-inside:url(#b)"><tspan x="157" y="60.48"><tspan dx="0 20.882812 20.039062 14.484375 18.84375">Ehret</tspan></tspan></text><g style="display:inline"><path style="display:inline;vector-effect:none;fill:#000;fill-opacity:.35;stroke-width:.604623;stroke-opacity:.968165;stop-color:#000" d="M202.08969-50.922078h159.201V108.27893h-159.201z" transform="translate(-202.08969 50.922078)"/></g><g style="display:inline"><g style="display:inline"><path d="M645.13873 4.176701v18.891226h4.92124V4.176701ZM657.27689 19.522515v-4.603744h1.37583q.68792 0 1.21708.582083.52917.582082.52917 1.693331 0 1.190623-.52917 1.772706-.52916.555624-1.21708.555624zm0-7.93749V7.722113h1.19062q.76729 0 1.16417.582083.39687.582083.39687 1.375832 0 .76729-.39687 1.349373-.39688.555624-1.16417.555624zm-4.92125-7.408324v18.891226h7.43479q1.53458 0 2.61937-.396874 1.08479-.423333 1.74625-1.164165.68791-.740833 1.00541-1.772707.3175-1.031873.3175-2.248955 0-.740832-.21167-1.455206-.1852-.740833-.60854-1.349374-.42333-.608541-1.08479-1.005415-.66145-.423333-1.58749-.502708v-.05292q.79374-.15875 1.34937-.555625.55562-.396874.89958-.952499.37042-.582082.52917-1.269998.1852-.714374.1852-1.455206 0-2.143123-1.26999-3.413121-1.24354-1.296457-3.88937-1.296457z" style="font-weight:900;font-stretch:condensed;font-size:26.4583px;line-height:1.25;font-family:'Helvetica Neue';-inkscape-font-specification:'Helvetica Neue Heavy Condensed';text-align:center;letter-spacing:0;text-anchor:middle;fill:snow;stroke-width:.264583" transform="translate(-618.12232 105.723996)"/><path d="M674.74515 9.627111h4.60375q0-3.042704-1.45521-4.418536-1.42875-1.40229-4.65666-1.40229-3.12208 0-4.65666 1.508123-1.53458 1.508123-1.53458 4.392078 0 1.666873.55562 2.698746.58209 1.031874 1.42875 1.666873.87313.635 1.87854 1.031874 1.00542.396875 1.85208.793749.87313.370416 1.42875.926041.58208.529166.58208 1.455206 0 .767291-.42333 1.296457-.39688.529166-1.16417.529166-.71437 0-1.16416-.47625-.44979-.502707-.44979-1.719789v-.449791h-4.7625v.661457q0 1.481665.42334 2.48708.42333 1.005416 1.21708 1.640415.82021.608541 1.98437.846666 1.19062.264583 2.72521.264583 3.25437 0 4.97416-1.349374 1.71979-1.375831 1.71979-4.392078 0-1.719789-.60855-2.778121-.58208-1.08479-1.48166-1.746248-.89958-.661457-1.93146-1.058332-1.03187-.423333-1.93145-.820207-.89958-.396875-1.50812-.92604-.58209-.555625-.58209-1.481665 0-.634999.37042-1.137707.37042-.529166 1.16416-.529166.71438 0 1.05834.608541.34395.582082.34395 1.428748z" style="font-weight:900;font-stretch:condensed;font-size:26.4583px;line-height:1.25;font-family:'Helvetica Neue';-inkscape-font-specification:'Helvetica Neue Heavy Condensed';text-align:center;letter-spacing:0;text-anchor:middle;fill:#999;fill-opacity:1;stroke-width:.264583" transform="translate(-618.12232 105.723996)"/><path d="M685.15807 15.228065q0-1.581149.0439-2.613288.0439-1.054099.17568-1.66899.15372-.614892.41725-.856456.28548-.241564.74665-.241564t.7247.241564q.28548.241564.41724.856456.15373.614891.19765 1.66899.0439 1.032139.0439 2.613288 0 1.581148-.0439 2.635248-.0439 1.032138-.19765 1.647029-.13176.614892-.41724.856456-.26353.241564-.7247.241564t-.74665-.241564q-.26353-.241564-.41725-.856456-.13176-.614891-.17568-1.647029-.0439-1.0541-.0439-2.635248zm-4.2164 0q0 2.19604.28549 3.755228.28548 1.537228.94429 2.525446.65882.966257 1.73488 1.383505 1.07605.417248 2.63524.417248t2.63525-.417248q1.07606-.417248 1.73487-1.383505.65881-.988218.9443-2.525446.28548-1.559188.28548-3.755228t-.28548-3.733268q-.28549-1.559189-.9443-2.525446-.65881-.988218-1.73487-1.427426-1.07606-.461169-2.63525-.461169t-2.63524.461169q-1.07606.439208-1.73488 1.427426-.65881.966257-.94429 2.525446-.28549 1.537228-.28549 3.733268zM693.62689 7.388202v15.679725h4.08463V16.61157h4.87521v-3.206219h-4.87521v-2.679168h5.20462V7.388202ZM706.24245 10.857945v12.209982h4.08464V10.857945h3.07445V7.388202h-10.18962v3.469743z" style="font-size:21.9604px;line-height:1.25;font-family:'Helvetica Neue';-inkscape-font-specification:'Helvetica Neue, Normal';text-align:center;letter-spacing:0;text-anchor:middle;fill:#999;fill-opacity:1;stroke-width:.264583" transform="translate(-618.12232 105.723996)"/><path d="M721.89675 9.627111h4.60375q0-3.042704-1.45521-4.418536-1.42875-1.40229-4.65666-1.40229-3.12208 0-4.65666 1.508123-1.53458 1.508123-1.53458 4.392078 0 1.666873.55562 2.698746.58208 1.031874 1.42875 1.666873.87312.635 1.87854 1.031874 1.00541.396875 1.85208.793749.87312.370416 1.42875.926041.58208.529166.58208 1.455206 0 .767291-.42333 1.296457-.39688.529166-1.16417.529166-.71437 0-1.16416-.47625-.44979-.502707-.44979-1.719789v-.449791h-4.7625v.661457q0 1.481665.42333 2.48708.42334 1.005416 1.21709 1.640415.8202.608541 1.98437.846666 1.19062.264583 2.7252.264583 3.25437 0 4.97416-1.349374 1.71979-1.375831 1.71979-4.392078 0-1.719789-.60854-2.778121-.58208-1.08479-1.48166-1.746248-.89958-.661457-1.93146-1.058332-1.03187-.423333-1.93145-.820207-.89959-.396875-1.50813-.92604-.58208-.555625-.58208-1.481665 0-.634999.37042-1.137707.37041-.529166 1.16416-.529166.71438 0 1.05833.608541.34396.582082.34396 1.428748z" style="font-weight:900;font-stretch:condensed;font-size:26.4583px;line-height:1.25;font-family:'Helvetica Neue';-inkscape-font-specification:'Helvetica Neue Heavy Condensed';text-align:center;letter-spacing:0;text-anchor:middle;fill:snow;stroke-width:.264583" transform="translate(-618.12232 105.723996)"/><path d="M731.25556 16.897055v6.170872h4.08464v-6.170872l3.99679-9.508853h-4.47992l-1.53723 5.468139h-.0439l-1.53723-5.468139h-4.41404zM746.06855 11.912044h3.8211q0-2.525446-1.20782-3.667387-1.18586-1.163901-3.86503-1.163901-2.59132 0-3.86503 1.251743-1.2737 1.251743-1.2737 3.645426 0 1.383506.46117 2.239961.48313.856456 1.18586 1.383505.72469.52705 1.55919.856456.83449.329406 1.53723.658812.72469.307446 1.18586.768614.48313.439208.48313 1.207822 0 .636851-.35137 1.076059-.32941.439208-.96626.439208-.59293 0-.96626-.395287-.37332-.417247-.37332-1.427426v-.373326h-3.95287v.549009q0 1.229783.35136 2.064278.35137.834495 1.01018 1.361545.68077.505089 1.64703.702733.98822.219604 2.26192.219604 2.70113 0 4.12856-1.119981 1.42742-1.141941 1.42742-3.645426 0-1.427426-.50509-2.305842-.48313-.900376-1.22978-1.449386-.74665-.54901-1.60311-.878416-.85645-.351367-1.60311-.680773-.74665-.329406-1.25174-.768614-.48313-.461168-.48313-1.229782 0-.52705.30745-.944297.30744-.439208.96625-.439208.59293 0 .87842.505089.28549.483129.28549 1.185861z" style="font-size:21.9604px;line-height:1.25;font-family:'Helvetica Neue';-inkscape-font-specification:'Helvetica Neue, Normal';text-align:center;letter-spacing:0;text-anchor:middle;fill:snow;fill-opacity:1;stroke-width:.264583" transform="translate(-618.12232 105.723996)"/></g><g transform="translate(-202.08969 50.922078)"><ellipse style="font-variation-settings:normal;fill:none;fill-opacity:1;stroke:snow;stroke-width:2.8476;stroke-linecap:butt;stroke-linejoin:miter;stroke-miterlimit:4;stroke-dasharray:none;stroke-dashoffset:0;stroke-opacity:1;stop-color:#000" cx="281.69019" cy="14.024622" rx="54.337502" ry="33.404861"/><ellipse style="font-variation-settings:normal;fill:none;fill-opacity:1;stroke:#e5e5e5;stroke-width:2.6187;stroke-linecap:butt;stroke-linejoin:miter;stroke-miterlimit:4;stroke-dasharray:none;stroke-dashoffset:0;stroke-opacity:1;stop-color:#000" cx="301.24374" cy="14.024622" rx="33.282341" ry="20.344986"/><ellipse style="font-variation-settings:normal;fill:none;fill-opacity:1;stroke:#ccc;stroke-width:2.079;stroke-linecap:butt;stroke-linejoin:miter;stroke-miterlimit:4;stroke-dasharray:none;stroke-dashoffset:0;stroke-opacity:1;stop-color:#000" cx="313.02164" cy="14.024622" rx="20.269283" ry="12.273383"/><ellipse style="font-variation-settings:normal;fill:none;fill-opacity:1;stroke:#b2b2b2;stroke-width:1.68;stroke-linecap:butt;stroke-linejoin:miter;stroke-miterlimit:4;stroke-dasharray:none;stroke-dashoffset:0;stroke-opacity:1;stop-color:#000" cx="320.01205" cy="14.024622" rx="12.226529" ry="7.2847075"/><ellipse style="font-variation-settings:normal;fill:none;fill-opacity:1;stroke:#999;stroke-width:1.365;stroke-linecap:butt;stroke-linejoin:miter;stroke-miterlimit:4;stroke-dasharray:none;stroke-dashoffset:0;stroke-opacity:1;stop-color:#000" cx="324.08444" cy="14.024622" rx="7.2559023" ry="4.2015781"/></g></g></svg>