<svg xmlns="http://www.w3.org/2000/svg" width="333.173" height="287.8125" viewBox="0 0 88.152024 76.15039"><defs><path id="G" d="M-42 1608h588v290H-42z"/><path id="b" d="M1600.6648 5530.2114h158.57976v94.550331H1600.6648z"/><path id="a" d="M157-13h55v40h-55z"/><path id="c" d="M157-13h55v40h-55z"/><path id="d" d="M1600.6648 5530.2114h158.57976v94.550331H1600.6648z"/><path id="e" d="M157-13h55v40h-55z"/><path id="f" d="M1600.6648 5530.2114h158.57976v94.550331H1600.6648z"/><path id="g" d="M157-13h55v40h-55z"/><path id="h" d="M1600.6648 5530.2114h158.57976v94.550331H1600.6648z"/><path id="i" d="M157-13h55v40h-55z"/><path id="j" d="M1600.6648 5530.2114h158.57976v94.550331H1600.6648z"/><path id="k" d="M157-13h55v40h-55z"/><path id="l" d="M1600.6648 5530.2114h158.57976v94.550331H1600.6648z"/><path id="m" d="M157-13h55v40h-55z"/><path id="n" d="M1600.6648 5530.2114h158.57976v94.550331H1600.6648z"/><path id="o" d="M157-13h55v40h-55z"/><path id="p" d="M1600.6648 5530.2114h158.57976v94.550331H1600.6648z"/><path id="q" d="M157-13h55v40h-55z"/><path id="r" d="M1600.6648 5530.2114h158.57976v94.550331H1600.6648z"/><path id="s" d="M157-13h55v40h-55z"/><path id="t" d="M1600.6648 5530.2114h158.57976v94.550331H1600.6648z"/><path id="u" d="M157-13h55v40h-55z"/><path id="v" d="M1600.6648 5530.2114h158.57976v94.550331H1600.6648z"/><path id="w" d="M157-13h55v40h-55z"/><path id="x" d="M1600.6648 5530.2114h158.57976v94.550331H1600.6648z"/><path id="y" d="M157-13h55v40h-55z"/><path id="z" d="M1600.6648 5530.2114h158.57976v94.550331H1600.6648z"/><path id="A" d="M157-13h55v40h-55z"/><path id="B" d="M1600.6648 5530.2114h158.57976v94.550331H1600.6648z"/><path id="C" d="M157-13h55v40h-55z"/><path id="D" d="M1600.6648 5530.2114h158.57976v94.550331H1600.6648z"/><path id="E" d="M157-13h55v40h-55z"/><path id="F" d="M1600.6648 5530.2114h158.57976v94.550331H1600.6648z"/><marker id="H" orient="auto" refX="0" refY="0" style="overflow:visible"><path d="m0 0 5-5-17.5 5L5 5Z" style="fill:context-stroke;fill-rule:evenodd;stroke:context-stroke;stroke-width:1pt" transform="matrix(-.8 0 0 -.8 -10 0)"/></marker><marker id="I" orient="auto" refX="0" refY="0" style="overflow:visible"><path d="m0 0 5-5-17.5 5L5 5Z" style="fill:context-stroke;fill-rule:evenodd;stroke:context-stroke;stroke-width:1pt" transform="matrix(-.8 0 0 -.8 -10 0)"/></marker></defs><g style="display:inline"><g transform="translate(-8.0248418 -5.7838867)"><ellipse cx="52.100853" cy="33.128242" rx="43.282249" ry="26.550606" style="font-variation-settings:normal;display:inline;fill:none;fill-opacity:1;stroke:#fff;stroke-width:1.5875;stroke-linecap:butt;stroke-linejoin:miter;stroke-miterlimit:4;stroke-dasharray:none;stroke-dashoffset:0;stroke-opacity:1;stop-color:#000"/><ellipse cx="67.526337" cy="33.128242" rx="26.510872" ry="16.17045" style="font-variation-settings:normal;display:inline;fill:none;fill-opacity:1;stroke:#fff;stroke-width:1.32292;stroke-linecap:butt;stroke-linejoin:miter;stroke-miterlimit:4;stroke-dasharray:none;stroke-dashoffset:0;stroke-opacity:1;stop-color:#000"/><ellipse cx="76.787163" cy="33.128242" rx="16.145391" ry="9.7550411" style="font-variation-settings:normal;display:inline;fill:none;fill-opacity:1;stroke:#fff;stroke-width:1.05833;stroke-linecap:butt;stroke-linejoin:miter;stroke-miterlimit:4;stroke-dasharray:none;stroke-dashoffset:0;stroke-opacity:1;stop-color:#000"/><ellipse cx="82.273178" cy="33.128242" rx="9.7389774" ry="5.7899771" style="font-variation-settings:normal;display:inline;fill:none;fill-opacity:1;stroke:#fff;stroke-width:.926042;stroke-linecap:butt;stroke-linejoin:miter;stroke-miterlimit:4;stroke-dasharray:none;stroke-dashoffset:0;stroke-opacity:1;stop-color:#000"/><ellipse cx="85.437393" cy="33.128242" rx="5.7796507" ry="3.3394673" style="font-variation-settings:normal;display:inline;fill:none;fill-opacity:1;stroke:#fff;stroke-width:.79375;stroke-linecap:butt;stroke-linejoin:miter;stroke-miterlimit:4;stroke-dasharray:none;stroke-dashoffset:0;stroke-opacity:1;stop-color:#000"/><ellipse cx="87.427002" cy="33.128242" rx="3.1086199" ry="1.7900585" style="font-variation-settings:normal;display:inline;fill:none;fill-opacity:1;stroke:#fff;stroke-width:.661458;stroke-linecap:butt;stroke-linejoin:miter;stroke-miterlimit:4;stroke-dasharray:none;stroke-dashoffset:0;stroke-opacity:1;stop-color:#000"/><ellipse cx="88.721611" cy="33.128242" rx="1.2934215" ry=".68038863" style="font-variation-settings:normal;display:inline;fill:none;fill-opacity:1;stroke:#fff;stroke-width:.555625;stroke-linecap:butt;stroke-linejoin:miter;stroke-miterlimit:4;stroke-dasharray:none;stroke-dashoffset:0;stroke-opacity:1;stop-color:#000"/></g><g style="display:inline"><path d="M-83.383992 1027.8418c.325561 0 .542602-.2171.542602-.5698v-18.8418c0-.3527-.217041-.5697-.542602-.5697s-.529037.217-.529037.5697v18.8418c0 .3527.203476.5698.529037.5698zM-78.826139 1027.6383h6.131398c4.110207 0 6.606174-2.0212 6.606174-5.2225 0-2.8351-2.116146-4.6257-4.883414-4.9241v-.081c2.333187-.4477 3.852471-2.2518 3.852471-4.585 0-2.8351-2.306057-4.7613-5.710881-4.7613h-5.995748c-.325561 0-.529036.217-.529036.5697v18.4349c0 .3527.203475.5697.529036.5697zm.542602-10.5536v-8.0441h5.290365c2.916484 0 4.788459 1.5058 4.788459 3.8661 0 2.5773-1.980496 4.178-5.046195 4.178zm0 9.5769v-8.6138h5.208975c3.716821 0 5.900792 1.6414 5.900792 4.3408 0 2.6317-2.089016 4.273-5.615926 4.273z" style="font-weight:200;font-size:19.05px;line-height:1.25;font-family:Lato;-inkscape-font-specification:&quot;SF Pro Rounded Ultra-Light&quot;;text-align:center;letter-spacing:0;text-anchor:middle;fill:#fff;stroke:none;stroke-width:.264583" transform="translate(64.8597752 -718.4883167) scale(.77294046)"/><path d="M-56.877905 1027.9639c4.571418 0 7.474336-2.3197 7.474336-6.0093 0-2.8487-1.682065-4.4901-5.792271-5.3582l-2.129712-.4477c-2.536662-.5426-3.55404-1.4921-3.55404-2.9165 0-1.7906 1.69563-2.9029 3.988122-2.9029 1.953365 0 3.44552.7732 4.110207 2.5774.311995.7054.759642 1.0445 1.492154 1.0445.786772 0 1.342939-.5155 1.342939-1.3023 0-.2848-.04069-.5154-.108521-.7053-.759642-2.6181-3.418389-4.2052-6.796084-4.2052-4.164467 0-7.108081 2.306-7.108081 5.6566 0 2.8215 1.77702 4.6393 5.683752 5.4667l2.143276.4477c2.618052.5697 3.648995 1.5193 3.648995 3.0385 0 1.7499-1.77702 3.025-4.259422 3.025-2.265361 0-4.042382-.8546-4.652808-2.6858-.298431-.7325-.746078-1.0445-1.437895-1.0445-.827467 0-1.370068.5697-1.370068 1.4514 0 .3256.06782.6511.16278.9496.759642 2.2789 3.36413 3.9203 7.162341 3.9203z" style="font-weight:500;font-size:19.05px;line-height:1.25;font-family:Lato;-inkscape-font-specification:&quot;SF Pro Rounded Medium&quot;;text-align:center;letter-spacing:0;text-anchor:middle;fill:#fff;stroke:none;stroke-width:.264583" transform="translate(64.8597752 -718.4883167) scale(.77294046)"/><path d="M-41.048536 1027.8739c4.07468 0 6.63731-2.808 6.63731-7.3147s-2.56263-7.3246-6.63731-7.3246c-4.084498 0-6.63731 2.8179-6.63731 7.3246s2.552812 7.3147 6.63731 7.3147zm0-1.9342c-2.69027 0-4.388872-2.0815-4.388872-5.3805 0-3.3089 1.698602-5.3904 4.388872-5.3904 2.690271 0 4.379054 2.0815 4.379054 5.3904 0 3.299-1.688783 5.3805-4.379054 5.3805zM-31.230033 1027.7954c.677476 0 1.099672-.432 1.099672-1.1389v-4.9486h5.252901c.58911 0 .991669-.3633.991669-.9327 0-.5597-.402559-.923-.991669-.923h-5.252901v-4.4772h5.773281c.608748 0 1.030944-.3731 1.030944-.9524s-.412378-.9524-1.030944-.9524h-6.872953c-.687296 0-1.099673.432-1.099673 1.1389v12.0474c0 .7069.412377 1.1389 1.099673 1.1389zM-16.953927 1027.7954c.677477 0 1.099673-.432 1.099673-1.1389v-11.2815h3.465932c.608748 0 1.021125-.3731 1.021125-.9524s-.412377-.9524-1.021125-.9524h-9.141028c-.608748 0-1.021125.3731-1.021125.9524s.412377.9524 1.021125.9524h3.475751v11.2815c0 .7069.412377 1.1389 1.099672 1.1389z" style="font-weight:500;font-size:20.1083px;line-height:1.25;font-family:Lato;-inkscape-font-specification:&quot;SF Pro Rounded Medium&quot;;text-align:center;letter-spacing:0;text-anchor:middle;fill:#fff;stroke:#fff;stroke-width:.396875;stroke-miterlimit:4;stroke-dasharray:none;stroke-opacity:1" transform="translate(64.8597752 -718.4883167) scale(.77294046)"/><path d="M-2.5748524 1027.9639c4.5714182 0 7.4743366-2.3197 7.4743366-6.0093 0-2.8487-1.6820648-4.4901-5.79227172-5.3582l-2.12971118-.4477c-2.5366623-.5426-3.5540403-1.4921-3.5540403-2.9165 0-1.7906 1.6956299-2.9029 3.9881216-2.9029 1.95336563 0 3.44551995.7732 4.1102069 2.5774.3119959.7054.7596422 1.0445 1.4921543 1.0445.7867723 0 1.3429389-.5155 1.3429389-1.3023 0-.2848-.040695-.5154-.1085203-.7053-.7596422-2.6181-3.41838993-4.2052-6.7960847-4.2052-4.1644671 0-7.1080806 2.306-7.1080806 5.6566 0 2.8215 1.7770202 4.6393 5.6837515 5.4667l2.1432762.4477c2.61805255.5697 3.6489955 1.5193 3.6489955 3.0385 0 1.7499-1.77702011 3.025-4.2594223 3.025-2.2653616 0-4.0423817-.8546-4.6528085-2.6858-.2984308-.7325-.7460771-1.0445-1.4378941-1.0445-.8274674 0-1.370069.5697-1.370069 1.4514 0 .3256.067825.6511.1627805.9496.7596422 2.2789 3.3641297 3.9203 7.1623407 3.9203z" style="font-weight:500;font-size:27.7812px;line-height:1.25;font-family:Lato;-inkscape-font-specification:&quot;SF Pro Rounded Medium&quot;;text-align:center;letter-spacing:0;text-anchor:middle;fill:#fff;stroke:none;stroke-width:.264583" transform="translate(64.8597752 -718.4883167) scale(.77294046)"/><path d="M12.164661 1027.7954c.687295 0 1.099673-.432 1.099673-1.1389v-4.8209l4.496875-6.8043c.166915-.2552.225826-.4811.225826-.7265 0-.5695-.471288-.9917-1.080036-.9917-.432014 0-.706932.1767-.972032.6186l-3.721213 5.7929h-.06873l-3.7212135-5.7929c-.2749182-.4517-.5301993-.6186-.9818506-.6186-.6185658 0-1.0898541.4222-1.0898541 1.0015 0 .2455.058911.4713.2258256.7167l4.4870566 6.8043v4.8209c0 .7069.422196 1.1389 1.099673 1.1389zM24.52616 1027.8739c3.308837 0 5.409997-1.6789 5.409997-4.3495 0-2.0619-1.217495-3.25-4.192502-3.8784l-1.541505-.324c-1.836061-.3927-2.572449-1.08-2.572449-2.1109 0-1.2961 1.227314-2.1012 2.886641-2.1012 1.413865 0 2.4939.5596 2.975007 1.8655.225826.5106.549836.756 1.080036.756.569473 0 .972032-.3731.972032-.9425 0-.2062-.02946-.3731-.07855-.5106-.549837-1.895-2.474264-3.0437-4.919072-3.0437-3.014281 0-5.144896 1.6691-5.144896 4.0943 0 2.0422 1.286224 3.3579 4.113953 3.9568l1.551324.324c1.894972.4124 2.641178 1.0997 2.641178 2.1994 0 1.2666-1.286224 2.1895-3.08301 2.1895-1.639691 0-2.925915-.6186-3.367748-1.944-.216007-.5302-.540018-.7561-1.040761-.7561-.598929 0-.99167.4124-.99167 1.0506 0 .2357.04909.4713.117823.6873.549836 1.6495 2.434989 2.8375 5.18417 2.8375z" style="font-weight:500;font-size:20.1083px;line-height:1.25;font-family:Lato;-inkscape-font-specification:&quot;SF Pro Rounded Medium&quot;;text-align:center;letter-spacing:0;text-anchor:middle;fill:#fff;stroke:#fff;stroke-width:.396875;stroke-miterlimit:4;stroke-dasharray:none;stroke-opacity:1" transform="translate(64.8597752 -718.4883167) scale(.77294046)"/></g></g></svg>