<svg width="1642.788" height="461.164" viewBox="0 0 434.654 122.016" xmlns="http://www.w3.org/2000/svg"><defs><path id="e" d="M3.035 655.602h497.772v261.027H3.035z"/><path id="d" d="M83.976 1224.186h406.818v278.054H83.976z"/><path id="c" d="M1600.665 5530.211h158.58v94.55h-158.58z"/><path id="b" d="M157-13h55v40h-55z"/><filter style="color-interpolation-filters:sRGB" id="a" x="-.056" y="-.035" width="1.113" height="1.07"><feGaussianBlur stdDeviation="1.138"/></filter></defs><text xml:space="preserve" transform="matrix(.26458 0 0 .26458 181.607 -2169.768)" style="font-size:36px;line-height:1.25;font-family:Lato;-inkscape-font-specification:Lato;text-align:center;letter-spacing:0;white-space:pre;shape-inside:url(#b)"><tspan x="157" y="60.48"><tspan dx="0 20.882812 20.039062 14.484375 18.84375">Ehret</tspan></tspan></text><g style="display:inline"><path style="display:inline;vector-effect:none;fill:#000;fill-opacity:.35;stroke-width:.874622;stroke-opacity:.968165;stop-color:#000" d="M-121.195 17.626H313.46v122.017h-434.654z" transform="translate(121.195 -17.626)"/></g><g style="display:inline"><g style="display:inline"><path style="display:inline;fill:none;fill-opacity:1;stroke:#fff;stroke-width:2.04665;stroke-miterlimit:4;stroke-dasharray:none;stroke-opacity:1;stop-color:#000" d="M43.07 87.322a9.68 5.586 0 0 1-9.679 5.586 9.68 5.586 0 0 1-9.679-5.586 9.68 5.586 0 0 1 9.68-5.586 9.68 5.586 0 0 1 9.678 5.586z" transform="translate(112.763 -26.314)"/><path style="display:inline;fill:none;fill-opacity:1;stroke:#fff;stroke-width:2.50147;stroke-miterlimit:4;stroke-dasharray:none;stroke-opacity:1;stop-color:#000" d="M44.567 87.322a16.325 9.704 0 0 1-16.326 9.704 16.325 9.704 0 0 1-16.325-9.704 16.325 9.704 0 0 1 16.325-9.704 16.325 9.704 0 0 1 16.326 9.704Z" transform="translate(112.763 -26.314)"/><path style="display:inline;fill:none;fill-opacity:1;stroke:#fff;stroke-width:2.95626;stroke-miterlimit:4;stroke-dasharray:none;stroke-opacity:1;stop-color:#000" d="M46.24 87.322a27.412 16.701 0 0 1-27.412 16.7 27.412 16.701 0 0 1-27.411-16.7 27.412 16.701 0 0 1 27.41-16.701 27.412 16.701 0 0 1 27.412 16.7Z" transform="translate(112.763 -26.314)"/><path style="display:inline;fill:none;fill-opacity:1;stroke:#fff;stroke-width:3.41109;stroke-miterlimit:4;stroke-dasharray:none;stroke-opacity:1;stop-color:#000" d="M48.243 87.322a45.681 28.355 0 0 1-45.68 28.355 45.681 28.355 0 0 1-45.681-28.355 45.681 28.355 0 0 1 45.68-28.355 45.681 28.355 0 0 1 45.681 28.355Z" transform="translate(112.763 -26.314)"/><path style="display:inline;fill:none;fill-opacity:1;stroke:#fff;stroke-width:3.8659;stroke-miterlimit:4;stroke-dasharray:none;stroke-opacity:1;stop-color:#000" d="M50.624 87.322a75.574 47.545 0 0 1-75.573 47.544 75.574 47.545 0 0 1-75.573-47.544A75.574 47.545 0 0 1-24.95 39.778a75.574 47.545 0 0 1 75.573 47.544z" transform="translate(112.763 -26.314)"/></g><g aria-label="Softwaresysteme" style="font-size:31.75px;line-height:1.25;font-family:'PT Sans';-inkscape-font-specification:'PT Sans';text-align:center;letter-spacing:.264583px;text-anchor:middle;display:inline;stroke-width:.264583"><path d="M72.026 92.457h-2.159q-.095 2.096.54 3.588.667 1.492 1.873 2.445 1.207.952 2.921 1.428 1.715.445 3.715.445 2 0 3.429-.381 1.429-.35 2.381-.92.984-.604 1.524-1.334.572-.73.857-1.43.318-.73.381-1.364.096-.635.096-1.016 0-1.397-.477-2.382-.444-.984-1.27-1.65-.793-.7-1.873-1.144-1.048-.476-2.254-.793l-5.525-1.366q-.698-.158-1.333-.412-.603-.254-1.08-.667-.476-.413-.762-.984-.254-.604-.254-1.397 0-1.27.477-2.128.476-.857 1.238-1.365.794-.54 1.81-.762 1.047-.254 2.159-.254 1.206 0 2.286.35 1.11.317 1.936.984.858.635 1.366 1.619.54.952.603 2.254h2.159q0-1.746-.699-3.048-.666-1.333-1.81-2.222-1.142-.89-2.666-1.334-1.524-.444-3.207-.444-2.381 0-3.905.698-1.524.667-2.413 1.651-.858.984-1.175 2.096-.318 1.11-.318 1.936 0 1.334.413 2.255.445.92 1.143 1.555.699.635 1.62 1.016.952.381 1.936.635l5.048 1.239q.794.19 1.62.508.825.285 1.492.762.698.476 1.111 1.174.445.699.445 1.651 0 1.239-.604 2.128-.603.857-1.524 1.428-.889.54-1.936.794-1.048.254-1.937.254-1.556 0-2.921-.286-1.365-.317-2.381-1.016-.985-.698-1.556-1.873-.572-1.175-.54-2.92zM97.845 84.742q1.429 0 2.508.603 1.08.603 1.778 1.588.73.984 1.08 2.254.38 1.238.38 2.54t-.38 2.572q-.35 1.238-1.08 2.222-.698.984-1.778 1.588-1.08.603-2.508.603-1.429 0-2.508-.603-1.08-.604-1.81-1.588-.698-.984-1.08-2.222-.349-1.27-.349-2.572t.35-2.54q.38-1.27 1.079-2.254.73-.985 1.81-1.588 1.08-.603 2.508-.603zm0-1.683q-1.873 0-3.334.699-1.428.698-2.413 1.873-.984 1.175-1.492 2.762-.508 1.556-.508 3.334t.508 3.365q.508 1.556 1.492 2.73.985 1.176 2.413 1.874 1.46.667 3.334.667 1.873 0 3.302-.667 1.46-.698 2.445-1.873.984-1.175 1.492-2.73.508-1.588.508-3.366t-.508-3.334q-.508-1.587-1.492-2.762t-2.445-1.873q-1.429-.699-3.302-.699zM115.18 85.218v-1.683h-3.239v-1.428q0-.667.032-1.239.032-.571.222-.984.222-.444.667-.698.444-.254 1.27-.254.35 0 .698.063.35.032.762.095v-1.714q-.476-.064-.857-.095-.38-.032-.825-.032-1.207 0-2 .35-.763.348-1.207.983-.445.635-.603 1.524-.16.89-.16 1.937v1.492h-2.793v1.683h2.794v14.7h2v-14.7zM120.549 83.535v-4.92h-2v4.92h-2.858v1.683h2.857v11.208q-.031 2.095.762 2.89.794.761 2.794.761.445 0 .89-.032.444-.031.888-.031V98.33q-.857.095-1.714.095-1.08-.063-1.365-.603-.254-.572-.254-1.556V85.218h3.333v-1.683zM125.413 83.535l5.27 16.383h2.191l4-13.78h.064l4.032 13.78h2.191l5.27-16.383h-2.127l-4.19 14.034h-.064l-4-14.034h-2.255l-4 14.034h-.064l-4.19-14.034zM150.64 88.552h2q.064-2 1.27-2.89 1.207-.92 3.112-.92.89 0 1.651.159.794.127 1.365.508.604.38.921 1.047.35.635.35 1.651 0 .667-.191 1.08-.159.413-.476.667-.318.222-.794.317-.476.095-1.111.159-1.62.19-3.207.413-1.556.19-2.826.698-1.238.508-2 1.492-.762.953-.762 2.667 0 1.239.413 2.16.444.888 1.174 1.492.762.571 1.747.825 1.016.286 2.159.286 1.206 0 2.063-.222.89-.223 1.556-.635.699-.413 1.238-1.016.572-.635 1.112-1.43h.063q0 .636.064 1.176.095.508.349.889.254.38.698.603.477.19 1.239.19.412 0 .666-.031.286-.032.635-.096V98.11q-.285.127-.635.127-1.174 0-1.174-1.207v-8.7q0-1.65-.54-2.666-.54-1.048-1.397-1.62-.857-.571-1.937-.762-1.08-.222-2.159-.222-1.429 0-2.603.318-1.175.317-2.064.984-.857.667-1.365 1.714-.508 1.048-.604 2.477zm10.668 2.413v2.603q0 1.207-.476 2.16-.444.952-1.238 1.619-.762.666-1.81 1.016-1.048.349-2.19.349-.699 0-1.366-.222-.667-.223-1.175-.635-.508-.445-.825-1.016-.286-.604-.286-1.366 0-1.206.699-1.841.73-.667 1.841-1.016 1.111-.35 2.445-.508 1.365-.19 2.635-.413.413-.063.953-.222t.73-.508zM167.59 83.535v16.383h2v-8.73q0-1.303.445-2.382.445-1.111 1.239-1.905.825-.794 1.936-1.207 1.112-.444 2.477-.38v-2q-2.223-.096-3.842.983-1.587 1.08-2.35 3.08h-.063v-3.842zM189.023 90.584h-10.605q.127-1.111.508-2.16.413-1.079 1.08-1.872.666-.826 1.619-1.302.952-.508 2.19-.508 1.207 0 2.16.508.952.476 1.619 1.302.667.793 1.016 1.841.38 1.048.413 2.19zm-10.605 1.683h12.605q.063-1.715-.318-3.366-.38-1.683-1.27-2.953-.857-1.301-2.254-2.095-1.397-.794-3.365-.794-1.937 0-3.366.762-1.397.73-2.286 1.969-.889 1.206-1.333 2.762-.413 1.556-.413 3.175 0 1.746.413 3.334.444 1.555 1.333 2.762.89 1.175 2.286 1.873 1.429.667 3.366.667 3.111 0 4.794-1.524 1.714-1.524 2.35-4.318h-2q-.477 1.905-1.715 3.048-1.239 1.143-3.43 1.143-1.428 0-2.444-.603-1.016-.604-1.683-1.524-.667-.921-.984-2.064-.286-1.175-.286-2.254zM203.79 88.33h2q-.064-1.334-.54-2.318-.476-.984-1.302-1.651-.794-.667-1.873-.984-1.048-.318-2.286-.318-1.08 0-2.19.254-1.08.254-1.97.794-.888.54-1.46 1.429-.54.889-.54 2.127 0 1.048.35 1.778.349.698.952 1.206.635.477 1.46.826.826.317 1.81.571l2.572.572q.667.159 1.302.38.667.223 1.175.572.508.318.793.826.318.476.318 1.206 0 .858-.445 1.46-.412.572-1.079.953t-1.46.54q-.763.159-1.493.159-2 0-3.365-1.016-1.334-1.048-1.46-3.08h-2.001q.254 3.016 2.032 4.382 1.81 1.365 4.699 1.365 1.143 0 2.318-.254 1.174-.254 2.095-.826.953-.603 1.556-1.524.603-.952.603-2.286 0-1.08-.413-1.873-.412-.794-1.079-1.333-.635-.54-1.492-.858-.826-.349-1.683-.476l-2.667-.603q-.508-.127-1.111-.318-.604-.222-1.112-.54-.508-.317-.857-.761-.317-.477-.317-1.143 0-.794.349-1.334.35-.54.92-.857.572-.35 1.239-.476.698-.16 1.365-.16.857 0 1.62.223.761.19 1.333.635.603.445.952 1.143.35.667.381 1.588zM207.657 83.535l6.54 16.32-.698 1.841q-.254.572-.477 1.048-.222.476-.54.794-.317.35-.761.54-.413.19-1.08.19-.35 0-.698-.063-.318-.032-.667-.096v1.683q.254.095.571.095.35.032.953.064.952 0 1.556-.19.635-.16 1.08-.572.475-.381.856-1.08.381-.666.826-1.714l7.112-18.86h-2l-5.049 13.97-5.397-13.97zM234.27 88.33h2q-.063-1.334-.54-2.318-.475-.984-1.301-1.651-.794-.667-1.873-.984-1.048-.318-2.286-.318-1.08 0-2.191.254-1.08.254-1.968.794-.89.54-1.461 1.429-.54.889-.54 2.127 0 1.048.35 1.778.349.698.952 1.206.635.477 1.46.826.826.317 1.81.571l2.572.572q.667.159 1.302.38.667.223 1.175.572.508.318.793.826.318.476.318 1.206 0 .858-.445 1.46-.412.572-1.08.953-.666.381-1.46.54-.762.159-1.492.159-2 0-3.365-1.016-1.334-1.048-1.461-3.08h-2q.254 3.016 2.032 4.382 1.81 1.365 4.699 1.365 1.143 0 2.318-.254 1.174-.254 2.095-.826.953-.603 1.556-1.524.603-.952.603-2.286 0-1.08-.413-1.873-.412-.794-1.08-1.333-.634-.54-1.491-.858-.826-.349-1.683-.476l-2.667-.603q-.508-.127-1.111-.318-.604-.222-1.112-.54-.508-.317-.857-.761-.317-.477-.317-1.143 0-.794.349-1.334t.92-.857q.572-.35 1.239-.476.698-.16 1.365-.16.857 0 1.62.223.761.19 1.333.635.603.445.952 1.143.35.667.381 1.588zM243.154 83.535v-4.92h-2v4.92h-2.858v1.683h2.858v11.208q-.032 2.095.762 2.89.794.761 2.794.761.444 0 .889-.032.444-.031.889-.031V98.33q-.857.095-1.715.095-1.08-.063-1.365-.603-.254-.572-.254-1.556V85.218h3.334v-1.683zM261.449 90.584h-10.605q.127-1.111.508-2.16.413-1.079 1.08-1.872.666-.826 1.619-1.302.952-.508 2.19-.508 1.207 0 2.16.508.952.476 1.619 1.302.667.793 1.016 1.841.38 1.048.413 2.19zm-10.605 1.683h12.605q.063-1.715-.318-3.366-.38-1.683-1.27-2.953-.857-1.301-2.254-2.095-1.397-.794-3.365-.794-1.937 0-3.366.762-1.397.73-2.286 1.969-.889 1.206-1.333 2.762-.413 1.556-.413 3.175 0 1.746.413 3.334.444 1.555 1.333 2.762.89 1.175 2.286 1.873 1.429.667 3.366.667 3.111 0 4.794-1.524 1.714-1.524 2.35-4.318h-2q-.477 1.905-1.715 3.048-1.239 1.143-3.43 1.143-1.428 0-2.444-.603-1.016-.604-1.683-1.524-.667-.921-.984-2.064-.286-1.175-.286-2.254zM266.43 83.535v16.383h2v-9.144q0-1.301.285-2.38.286-1.112.857-1.906.604-.825 1.524-1.27.953-.476 2.223-.476.952 0 1.62.317.666.318 1.047.89.413.54.571 1.301.19.73.19 1.556v11.112h2.001v-9.27q0-1.144.19-2.191.223-1.08.73-1.905.509-.826 1.366-1.302.857-.508 2.16-.508 2.158 0 3.015 1.08.858 1.047.858 3.08v11.016h2V88.806q0-5.747-5.43-5.747-1.619 0-3.047.794-1.43.794-2.16 2.413-.444-1.62-1.777-2.413-1.302-.794-2.921-.794-2 0-3.302.857-1.27.858-2.064 2.382h-.095v-2.763zM304.952 90.584h-10.605q.127-1.111.508-2.16.413-1.079 1.08-1.872.667-.826 1.62-1.302.952-.508 2.19-.508 1.206 0 2.159.508.952.476 1.62 1.302.666.793 1.015 1.841.381 1.048.413 2.19zm-10.605 1.683h12.605q.064-1.715-.317-3.366-.381-1.683-1.27-2.953-.858-1.301-2.255-2.095-1.397-.794-3.365-.794-1.937 0-3.366.762-1.397.73-2.286 1.969-.889 1.206-1.333 2.762-.413 1.556-.413 3.175 0 1.746.413 3.334.444 1.555 1.333 2.762.89 1.175 2.286 1.873 1.43.667 3.366.667 3.111 0 4.794-1.524 1.715-1.524 2.35-4.318h-2q-.477 1.905-1.715 3.048t-3.43 1.143q-1.428 0-2.444-.603-1.016-.604-1.683-1.524-.666-.921-.984-2.064-.286-1.175-.286-2.254z" style="font-weight:300;font-family:'Helvetica Neue';-inkscape-font-specification:'Helvetica Neue Light';fill:#fff" transform="translate(117.386 -28.501)"/></g><g aria-label="Dr.-Ing. Jürgen Ehret" style="font-size:23.8125px;line-height:1.25;font-family:'PT Sans';-inkscape-font-specification:'PT Sans';text-align:center;letter-spacing:.529167px;text-anchor:middle;display:inline;stroke-width:.264583"><path d="M70.03 124.713h7.048q1.953 0 3.381.667 1.43.667 2.334 1.833.905 1.143 1.333 2.691.453 1.548.453 3.31t-.453 3.31q-.428 1.548-1.333 2.715-.905 1.143-2.334 1.81-1.428.666-3.381.666h-7.049zm2.976 14.573h2.929q1.738 0 2.834-.452 1.119-.476 1.738-1.286.643-.833.857-1.929.238-1.119.238-2.405 0-1.286-.238-2.381-.214-1.12-.857-1.929-.62-.833-1.738-1.286-1.096-.476-2.834-.476h-2.929zM87.386 129.404h2.548v2.381h.047q.12-.5.453-.976.357-.476.833-.857.5-.405 1.096-.643.595-.238 1.214-.238.476 0 .643.024l.381.047v2.62q-.286-.048-.595-.072-.286-.047-.572-.047-.69 0-1.31.285-.595.262-1.047.81-.453.524-.715 1.31-.261.785-.261 1.81v5.857h-2.715zM94.29 138.5h3.31v3.215h-3.31ZM100.926 133.952h6.93v2.572h-6.93zM111.353 124.713h2.977v17.002h-2.977zM118.105 129.404h2.572v1.81l.048.048q.619-1.024 1.62-1.596 1-.595 2.214-.595 2.024 0 3.19 1.048 1.167 1.047 1.167 3.143v8.453h-2.714v-7.739q-.048-1.452-.62-2.095-.57-.667-1.785-.667-.69 0-1.239.262-.547.238-.928.69-.381.43-.596 1.024-.214.596-.214 1.262v7.263h-2.715zM143.69 141.072q0 2.786-1.571 4.144-1.548 1.38-4.477 1.38-.928 0-1.881-.19-.929-.19-1.714-.643-.762-.452-1.286-1.19t-.62-1.81h2.715q.12.572.405.929.286.357.667.547.405.215.88.262.477.072 1 .072 1.644 0 2.406-.81.762-.81.762-2.334v-1.88h-.048q-.571 1.023-1.571 1.595-.977.571-2.12.571-1.476 0-2.524-.5-1.024-.524-1.714-1.405-.667-.905-.976-2.071-.31-1.167-.31-2.5 0-1.239.381-2.358.381-1.12 1.095-1.953.715-.857 1.739-1.357 1.047-.5 2.357-.5 1.167 0 2.143.5.977.476 1.5 1.524h.048v-1.69h2.715zm-6.024-1.5q.905 0 1.524-.357.643-.381 1.024-.976.405-.62.571-1.381.191-.786.191-1.572t-.19-1.524q-.191-.738-.596-1.31-.38-.571-1.024-.905-.619-.333-1.5-.333-.905 0-1.524.381-.62.381-1 1-.381.595-.548 1.381-.166.762-.166 1.524t.19 1.5q.19.715.572 1.286.404.572 1 .929.619.357 1.476.357zM147.19 138.5h3.31v3.215h-3.31zM170.792 136.238q0 1.12-.19 2.167-.191 1.048-.787 1.882-.571.833-1.69 1.333-1.096.5-2.93.5-1.357 0-2.309-.405-.953-.428-1.572-1.143-.619-.738-.905-1.738-.285-1-.285-2.167v-.905h2.976v.881q0 1.453.477 2.262.5.786 1.857.786.714 0 1.167-.214.476-.214.738-.62.286-.428.38-1.047.096-.62.096-1.405v-11.692h2.977zM185.373 141.715h-2.667v-1.714h-.048q-.5.928-1.5 1.5-.976.548-2 .548-2.429 0-3.524-1.191-1.072-1.214-1.072-3.643v-7.81h2.715v7.548q0 1.619.619 2.286t1.738.667q.857 0 1.429-.262.571-.262.929-.691.357-.452.5-1.072.166-.619.166-1.333v-7.144h2.715zm-8.835-14.335v-2.572h2.715v2.572zm6.81-2.572v2.572h-2.714v-2.572zM188.765 129.404h2.548v2.381h.047q.12-.5.453-.976.357-.476.833-.857.5-.405 1.096-.643.595-.238 1.214-.238.476 0 .643.024l.38.047v2.62q-.285-.048-.594-.072-.286-.047-.572-.047-.69 0-1.31.285-.595.262-1.047.81-.453.524-.715 1.31-.262.785-.262 1.81v5.857h-2.714zM209.048 141.072q0 2.786-1.572 4.144-1.548 1.38-4.477 1.38-.928 0-1.88-.19-.93-.19-1.715-.643-.762-.452-1.286-1.19t-.62-1.81h2.715q.12.572.405.929.286.357.667.547.405.215.881.262.476.072 1 .072 1.643 0 2.405-.81.762-.81.762-2.334v-1.88h-.047q-.572 1.023-1.572 1.595-.976.571-2.12.571-1.476 0-2.523-.5-1.024-.524-1.715-1.405-.667-.905-.976-2.071-.31-1.167-.31-2.5 0-1.239.381-2.358.381-1.12 1.096-1.953.714-.857 1.738-1.357 1.048-.5 2.357-.5 1.167 0 2.143.5.977.476 1.5 1.524h.048v-1.69h2.715zm-6.025-1.5q.905 0 1.524-.357.643-.381 1.024-.976.405-.62.572-1.381.19-.786.19-1.572t-.19-1.524q-.19-.738-.596-1.31-.38-.571-1.024-.905-.619-.333-1.5-.333-.905 0-1.524.381t-1 1q-.38.595-.548 1.381-.166.762-.166 1.524t.19 1.5q.19.715.572 1.286.405.572 1 .929.619.357 1.476.357zM220.787 134.476q-.048-.643-.286-1.238-.214-.595-.62-1.024-.38-.452-.952-.714-.547-.286-1.238-.286-.714 0-1.31.262-.571.238-1 .69-.404.43-.666 1.024-.239.596-.262 1.286zm-6.334 1.786q0 .715.19 1.381.214.667.62 1.167.404.5 1.023.81.62.286 1.477.286 1.19 0 1.905-.5.738-.524 1.095-1.548h2.572q-.215 1-.738 1.786-.524.785-1.263 1.333-.738.524-1.666.786-.905.286-1.905.286-1.453 0-2.572-.477-1.12-.476-1.905-1.333-.762-.857-1.167-2.048-.381-1.19-.381-2.62 0-1.309.405-2.476.428-1.19 1.19-2.072.786-.904 1.882-1.428 1.095-.524 2.476-.524 1.453 0 2.596.619 1.167.595 1.929 1.595t1.095 2.31q.357 1.286.19 2.667zM226.118 129.404h2.571v1.81l.048.048q.619-1.024 1.62-1.596 1-.595 2.214-.595 2.024 0 3.19 1.048 1.167 1.047 1.167 3.143v8.453h-2.714v-7.739q-.048-1.452-.62-2.095-.57-.667-1.785-.667-.69 0-1.239.262-.547.238-.928.69-.381.43-.596 1.024-.214.596-.214 1.262v7.263h-2.715zM247.835 124.713h12.24v2.572h-9.264v4.453h8.573v2.429h-8.573v4.977h9.43v2.571h-12.406zM263.005 124.713h2.715v6.31h.047q.5-.833 1.477-1.38 1-.572 2.214-.572 2.024 0 3.191 1.048 1.167 1.047 1.167 3.143v8.453h-2.715v-7.739q-.047-1.452-.619-2.095-.571-.667-1.786-.667-.69 0-1.238.262-.548.238-.929.69-.38.43-.595 1.024-.214.596-.214 1.262v7.263h-2.715zM277.208 129.404h2.548v2.381h.047q.12-.5.453-.976.357-.476.833-.857.5-.405 1.096-.643.595-.238 1.214-.238.476 0 .643.024l.381.047v2.62q-.286-.048-.595-.072-.286-.047-.572-.047-.69 0-1.31.285-.595.262-1.047.81-.453.524-.715 1.31-.261.785-.261 1.81v5.857h-2.715zM294.115 134.476q-.047-.643-.286-1.238-.214-.595-.619-1.024-.38-.452-.952-.714-.548-.286-1.238-.286-.715 0-1.31.262-.572.238-1 .69-.405.43-.667 1.024-.238.596-.262 1.286zm-6.334 1.786q0 .715.19 1.381.215.667.62 1.167t1.024.81q.619.286 1.476.286 1.19 0 1.905-.5.738-.524 1.095-1.548h2.572q-.214 1-.738 1.786-.524.785-1.262 1.333-.738.524-1.667.786-.905.286-1.905.286-1.453 0-2.572-.477-1.119-.476-1.905-1.333-.762-.857-1.167-2.048-.38-1.19-.38-2.62 0-1.309.404-2.476.429-1.19 1.19-2.072.787-.904 1.882-1.428 1.095-.524 2.477-.524 1.452 0 2.595.619 1.167.595 1.929 1.595t1.095 2.31q.358 1.286.19 2.667zM298.19 129.404h2.047v-3.69h2.715v3.69h2.453v2.024h-2.453v6.573q0 .428.024.738.047.31.166.524.143.214.405.333.262.095.715.095h.571q.286-.024.572-.095v2.095q-.453.048-.881.096-.429.047-.881.047-1.072 0-1.739-.19-.643-.215-1.024-.596-.357-.404-.5-1-.119-.595-.143-1.357v-7.263h-2.048z" style="font-weight:500;font-family:'Helvetica Neue';-inkscape-font-specification:'Helvetica Neue Medium';fill:#fff" transform="translate(117.386 -37.435)"/></g><g aria-label="Ingenieurbüro" style="font-weight:700;font-size:31.75px;line-height:1.25;font-family:'PT Sans';-inkscape-font-specification:'PT Sans Bold';text-align:center;letter-spacing:4.15396px;text-anchor:middle;display:inline;stroke-width:.264583"><path d="M74.677 36.577v22.67h2.159v-22.67zM85.329 42.864v16.383h2V49.69q.032-1.206.38-2.222.382-1.048 1.017-1.778.667-.762 1.587-1.175.953-.445 2.16-.445 1.206 0 2 .381.825.381 1.301 1.048.477.667.667 1.588.19.889.19 1.936v10.224h2V48.706q0-1.46-.285-2.635-.286-1.175-.984-1.969-.699-.825-1.873-1.27-1.143-.444-2.858-.444-1.746 0-3.207.92-1.46.89-2.032 2.382h-.063v-2.826zM120.41 57.913v-15.05h-2v2.827h-.063q-.286-.667-.826-1.27-.508-.604-1.175-1.048-.666-.476-1.492-.73-.794-.254-1.714-.254-1.778 0-3.175.666-1.366.635-2.318 1.778-.92 1.112-1.429 2.636-.476 1.492-.476 3.175 0 1.746.413 3.302.412 1.524 1.301 2.667.921 1.143 2.318 1.81 1.397.634 3.366.634 1.81 0 3.143-.92 1.365-.921 2.064-2.445h.063v2.222q0 2.985-1.238 4.572-1.238 1.588-4.032 1.588-.826 0-1.62-.19-.793-.16-1.46-.54-.635-.381-1.111-1.016-.445-.604-.604-1.524h-2q.095 1.301.699 2.222.635.953 1.555 1.556.953.603 2.128.889 1.174.286 2.413.286 2 0 3.365-.54 1.397-.54 2.254-1.556.858-1.016 1.239-2.476.412-1.46.412-3.27zm-7.27-.54q-1.397 0-2.413-.54-1.016-.57-1.683-1.46-.667-.92-.984-2.095-.318-1.175-.318-2.413 0-1.27.286-2.477.317-1.238.984-2.19.667-.953 1.683-1.524 1.016-.604 2.445-.604 1.428 0 2.413.604 1.016.603 1.65 1.587.636.984.921 2.19.286 1.207.286 2.414 0 1.238-.35 2.413-.317 1.175-.983 2.095-.667.89-1.651 1.46-.985.54-2.286.54zM140.174 49.912H129.57q.127-1.11.508-2.159.412-1.08 1.079-1.873.667-.825 1.62-1.302.952-.508 2.19-.508 1.206 0 2.159.508.953.477 1.62 1.302.666.794 1.015 1.842.381 1.047.413 2.19zm-10.604 1.683h12.604q.064-1.714-.317-3.365-.381-1.683-1.27-2.953-.857-1.302-2.254-2.096-1.398-.793-3.366-.793-1.937 0-3.366.762-1.397.73-2.286 1.968-.889 1.207-1.333 2.762-.413 1.556-.413 3.175 0 1.747.413 3.334.444 1.556 1.333 2.762.89 1.175 2.286 1.874 1.43.666 3.366.666 3.111 0 4.794-1.524 1.715-1.524 2.35-4.318h-2q-.477 1.905-1.715 3.048t-3.429 1.143q-1.429 0-2.445-.603-1.016-.603-1.682-1.524-.667-.92-.985-2.064-.285-1.174-.285-2.254zM149.012 42.864v16.383h2V49.69q.032-1.206.381-2.222.381-1.048 1.016-1.778.667-.762 1.588-1.175.952-.445 2.159-.445 1.206 0 2 .381.826.381 1.302 1.048.476.667.667 1.588.19.889.19 1.936v10.224h2V48.706q0-1.46-.285-2.635-.286-1.175-.985-1.969-.698-.825-1.873-1.27-1.143-.444-2.857-.444-1.747 0-3.207.92-1.46.89-2.032 2.382h-.064v-2.826zM170.283 36.577v3.207h2v-3.207zm0 6.287v16.383h2V42.864zM192.075 49.912h-10.604q.127-1.11.508-2.159.413-1.08 1.08-1.873.666-.825 1.619-1.302.952-.508 2.19-.508 1.207 0 2.16.508.952.477 1.619 1.302.666.794 1.016 1.842.38 1.047.412 2.19zm-10.604 1.683h12.605q.063-1.714-.318-3.365-.38-1.683-1.27-2.953-.857-1.302-2.254-2.096-1.397-.793-3.366-.793-1.936 0-3.365.762-1.397.73-2.286 1.968-.89 1.207-1.334 2.762-.412 1.556-.412 3.175 0 1.747.412 3.334.445 1.556 1.334 2.762.889 1.175 2.286 1.874 1.429.666 3.365.666 3.112 0 4.795-1.524 1.714-1.524 2.35-4.318h-2.001q-.476 1.905-1.715 3.048-1.238 1.143-3.429 1.143-1.428 0-2.444-.603t-1.683-1.524q-.667-.92-.984-2.064-.286-1.174-.286-2.254zM214.217 59.247V42.864h-2v8.604q0 1.238-.286 2.445-.286 1.175-.89 2.095-.603.921-1.523 1.493-.921.54-2.223.54-2.381 0-3.365-1.144-.953-1.143-1.016-3.365V42.864h-2V53.5q0 1.46.317 2.604.317 1.143.984 1.936.699.794 1.778 1.207 1.111.444 2.667.444 1.842 0 3.334-.857 1.524-.889 2.318-2.54h.063v2.953zM222.152 42.864v16.383h2v-8.731q0-1.302.445-2.382.445-1.11 1.238-1.905.826-.793 1.937-1.206 1.111-.445 2.477-.381v-2q-2.223-.096-3.842.984-1.588 1.08-2.35 3.08h-.063v-3.842zM236.29 36.577v22.67h1.842v-3.112h.063q.699 1.715 2.254 2.636 1.588.92 3.588.92 1.873 0 3.239-.666 1.397-.699 2.317-1.874.921-1.206 1.366-2.762.444-1.587.444-3.334 0-1.746-.444-3.302-.445-1.587-1.366-2.762-.92-1.206-2.317-1.905-1.366-.698-3.239-.698-.889 0-1.778.222t-1.65.698q-.763.445-1.366 1.112-.572.666-.89 1.555h-.063v-9.398zm13.113 14.478q0 1.27-.318 2.54-.285 1.239-.952 2.223-.635.984-1.651 1.62-1.016.602-2.445.602-1.587 0-2.699-.603-1.08-.635-1.778-1.62-.666-.983-.984-2.222-.286-1.27-.286-2.54t.286-2.508q.318-1.27.984-2.254.699-.984 1.778-1.588 1.112-.635 2.7-.635 1.428 0 2.444.635 1.016.604 1.65 1.588.668.984.953 2.254.318 1.238.318 2.508zM261.406 40.038h2.16v-3.207h-2.16zm5.62 0h2.159v-3.207h-2.16zm4.921 19.209V42.864h-2v8.604q0 1.238-.286 2.445-.286 1.175-.889 2.095-.603.921-1.524 1.493-.92.54-2.222.54-2.382 0-3.366-1.144-.952-1.143-1.016-3.365V42.864h-2V53.5q0 1.46.317 2.604.318 1.143.985 1.936.698.794 1.778 1.207 1.11.444 2.667.444 1.841 0 3.333-.857 1.524-.889 2.318-2.54h.064v2.953zM279.883 42.864v16.383h2v-8.731q0-1.302.445-2.382.444-1.11 1.238-1.905.825-.793 1.937-1.206 1.11-.445 2.476-.381v-2q-2.222-.096-3.842.984-1.587 1.08-2.35 3.08h-.063v-3.842zM300.346 44.07q1.429 0 2.509.604 1.079.603 1.778 1.587.73.984 1.079 2.254.381 1.239.381 2.54 0 1.302-.381 2.572-.35 1.238-1.08 2.223-.698.984-1.777 1.587-1.08.603-2.509.603-1.428 0-2.508-.603t-1.81-1.587q-.698-.985-1.08-2.223-.348-1.27-.348-2.572 0-1.301.349-2.54.38-1.27 1.08-2.254.73-.984 1.809-1.587 1.08-.604 2.508-.604zm0-1.682q-1.873 0-3.333.698-1.43.699-2.413 1.873-.985 1.175-1.493 2.763-.508 1.555-.508 3.333 0 1.778.508 3.366.508 1.556 1.493 2.73.984 1.175 2.413 1.874 1.46.666 3.333.666 1.874 0 3.302-.666 1.46-.699 2.445-1.874.984-1.174 1.492-2.73.508-1.588.508-3.366t-.508-3.333q-.508-1.588-1.492-2.763-.984-1.174-2.445-1.873-1.428-.698-3.302-.698z" style="font-weight:300;font-family:'Helvetica Neue';-inkscape-font-specification:'Helvetica Neue Light';fill:#fff" transform="translate(114.409 -23.723)"/></g></g></svg>