<svg width="601.70459" height="601.70459" viewBox="0 0 159.20096 159.20098" xmlns="http://www.w3.org/2000/svg"><defs><path id="c" d="M1600.6648 5530.2114h158.57976v94.550331H1600.6648z"/><path id="b" d="M157-13h55v40h-55z"/><filter style="color-interpolation-filters:sRGB" id="a" x="-.05642297" y="-.03515585" width="1.1128459" height="1.0703117"><feGaussianBlur stdDeviation="1.1384116"/></filter></defs><text xml:space="preserve" transform="matrix(.26458 0 0 .26458 -143.3771 -2100.3501)" style="font-size:36px;line-height:1.25;font-family:Lato;-inkscape-font-specification:Lato;text-align:center;letter-spacing:0;white-space:pre;shape-inside:url(#b)"><tspan x="157" y="60.48"><tspan dx="0 20.882812 20.039062 14.484375 18.84375">Ehret</tspan></tspan></text><g style="display:inline"><path style="display:inline;vector-effect:none;fill:#000;fill-opacity:.5;stroke-width:.604623;stroke-opacity:.968165;stop-color:#000" d="M201.89706-50.092824h159.201V109.10818h-159.201z" transform="translate(-201.89706 50.092824)"/></g><g style="display:inline"><path style="display:inline;fill:none;fill-opacity:1;stroke:snow;stroke-width:2.91042;stroke-miterlimit:4;stroke-dasharray:none;stroke-opacity:1;stop-color:#000" d="M334.01638-83.608771A54.662461 34.295534 14.296894 0 1 272.5949-63.85651a54.662461 34.295534 14.296894 0 1-44.52341-46.72422 54.662461 34.295534 14.296894 0 1 61.42129-19.75223 54.662461 34.295534 14.296894 0 1 44.5236 46.724189z" transform="translate(-201.89706 50.092824)"/><path style="display:inline;fill:none;fill-opacity:1;stroke:snow;stroke-width:2.38125;stroke-miterlimit:4;stroke-dasharray:none;stroke-opacity:1;stop-color:#000" d="M313.7809-77.739368a33.781396 21.194636 14.296895 0 1-37.95847 12.206899 33.781396 21.194636 14.296895 0 1-27.51546-28.875567 33.781396 21.194636 14.296895 0 1 37.95835-12.206874 33.781396 21.194636 14.296895 0 1 27.51558 28.875542z" transform="translate(-201.89706 50.092824)"/><path style="display:inline;fill:none;fill-opacity:1;stroke:snow;stroke-width:1.85208;stroke-miterlimit:4;stroke-dasharray:none;stroke-opacity:1;stop-color:#000" d="M301.27533-74.461178a20.876858 13.098257 14.296894 0 1-23.45828 7.543845 20.876858 13.098257 14.296894 0 1-17.00452-17.845062 20.876858 13.098257 14.296894 0 1 23.45821-7.543839 20.876858 13.098257 14.296894 0 1 17.00459 17.845056z" transform="translate(-201.89706 50.092824)"/><path style="display:inline;fill:none;fill-opacity:1;stroke:snow;stroke-width:1.32292;stroke-miterlimit:4;stroke-dasharray:none;stroke-opacity:1;stop-color:#000" d="M293.54693-72.60509a12.901901 8.0947246 14.296894 0 1-14.49722 4.662106 12.901901 8.0947246 14.296894 0 1-10.50879-11.028254 12.901901 8.0947246 14.296894 0 1 14.49718-4.662092 12.901901 8.0947246 14.296894 0 1 10.50883 11.02824z" transform="translate(-201.89706 50.092824)"/><path style="display:inline;fill:none;fill-opacity:1;stroke:snow;stroke-width:1.05833;stroke-miterlimit:4;stroke-dasharray:none;stroke-opacity:1;stop-color:#000" d="M288.77076-71.453555a7.973351 5.0025248 14.296894 0 1-8.95926 2.881161 7.973351 5.0025248 14.296894 0 1-6.4944-6.815433 7.973351 5.0025248 14.296894 0 1 8.95921-2.881168 7.973351 5.0025248 14.296894 0 1 6.49445 6.81544z" transform="translate(-201.89706 50.092824)"/><path style="display:inline;fill:none;fill-opacity:1;stroke:snow;stroke-width:3.175;stroke-miterlimit:4;stroke-dasharray:none;stroke-opacity:1;stop-color:#000" d="M207.59749-89.551535a54.662461 34.295534 14.296894 0 1-61.42148 19.752261 54.662461 34.295534 14.296894 0 1-44.52341-46.724216 54.662461 34.295534 14.296894 0 1 61.42129-19.75224 54.662461 34.295534 14.296894 0 1 44.5236 46.724195z" transform="translate(-201.89706 50.092824)"/><path style="display:inline;fill:none;fill-opacity:1;stroke:snow;stroke-width:2.38125;stroke-miterlimit:4;stroke-dasharray:none;stroke-opacity:1;stop-color:#000" d="M187.36201-83.901695a33.790596 21.282785 14.437399 0 1-37.95847 12.261003 33.790596 21.282785 14.437399 0 1-27.51546-29.003548 33.790596 21.282785 14.437399 0 1 37.95835-12.26099 33.790596 21.282785 14.437399 0 1 27.51558 29.003535z" transform="translate(-201.89706 50.092824)"/><path style="display:inline;fill:none;fill-opacity:1;stroke:snow;stroke-width:1.5875;stroke-miterlimit:4;stroke-dasharray:none;stroke-opacity:1;stop-color:#000" d="M174.85644-80.462275a20.86889 13.020368 14.09921 0 1-23.45828 7.496124 20.86889 13.020368 14.09921 0 1-17.00452-17.732174 20.86889 13.020368 14.09921 0 1 23.45821-7.49612 20.86889 13.020368 14.09921 0 1 17.00459 17.73217z" transform="translate(-201.89706 50.092824)"/><path style="display:inline;fill:none;fill-opacity:1;stroke:snow;stroke-width:1.05833;stroke-miterlimit:4;stroke-dasharray:none;stroke-opacity:1;stop-color:#000" d="M167.12804-78.445041a12.896977 8.0465893 14.09921 0 1-14.49722 4.632614 12.896977 8.0465893 14.09921 0 1-10.50879-10.958488 12.896977 8.0465893 14.09921 0 1 14.49718-4.6326 12.896977 8.0465893 14.09921 0 1 10.50883 10.958474z" transform="translate(-201.89706 50.092824)"/><path style="display:inline;fill:none;fill-opacity:1;stroke:snow;stroke-width:.79375;stroke-miterlimit:4;stroke-dasharray:none;stroke-opacity:1;stop-color:#000" d="M162.35187-77.127905a7.9703077 4.9727772 14.09921 0 1-8.95926 2.862936 7.9703077 4.9727772 14.09921 0 1-6.4944-6.772319 7.9703077 4.9727772 14.09921 0 1 8.95921-2.862937 7.9703077 4.9727772 14.09921 0 1 6.49445 6.77232z" transform="translate(-201.89706 50.092824)"/><path style="display:inline;fill:none;fill-opacity:1;stroke:snow;stroke-width:2.91042;stroke-miterlimit:4;stroke-dasharray:none;stroke-opacity:1;stop-color:#000" d="M176.16311 25.889971a54.662461 34.295534 14.296894 0 1-61.42148 19.752261A54.662461 34.295534 14.296894 0 1 70.218219-1.0819881 54.662461 34.295534 14.296894 0 1 131.63951-20.834226a54.662461 34.295534 14.296894 0 1 44.5236 46.724197z" transform="translate(-201.89706 50.092824)"/><path style="display:inline;fill:none;fill-opacity:1;stroke:snow;stroke-width:2.2389;stroke-miterlimit:4;stroke-dasharray:none;stroke-opacity:1;stop-color:#000" d="M155.92763 31.703085a33.790596 21.282785 14.437399 0 1-37.95847 12.261006 33.790596 21.282785 14.437399 0 1-27.515461-29.003558A33.790596 21.282785 14.437399 0 1 128.41205 2.6995472a33.790596 21.282785 14.437399 0 1 27.51558 29.0035378Z" transform="translate(-201.89706 50.092824)"/><path style="display:inline;fill:none;fill-opacity:1;stroke:snow;stroke-width:1.72217;stroke-miterlimit:4;stroke-dasharray:none;stroke-opacity:1;stop-color:#000" d="M143.42206 35.168224a20.86889 13.020368 14.09921 0 1-23.45828 7.496124 20.86889 13.020368 14.09921 0 1-17.00452-17.732177 20.86889 13.020368 14.09921 0 1 23.45821-7.496117 20.86889 13.020368 14.09921 0 1 17.00459 17.73217z" transform="translate(-201.89706 50.092824)"/><path style="display:inline;fill:none;fill-opacity:1;stroke:snow;stroke-width:1.32477;stroke-miterlimit:4;stroke-dasharray:none;stroke-opacity:1;stop-color:#000" d="M135.69366 37.090321a12.896977 8.0465893 14.09921 0 1-14.49722 4.632614 12.896977 8.0465893 14.09921 0 1-10.50879-10.95849 12.896977 8.0465893 14.09921 0 1 14.49718-4.6326 12.896977 8.0465893 14.09921 0 1 10.50883 10.958476z" transform="translate(-201.89706 50.092824)"/><path style="display:inline;fill:none;fill-opacity:1;stroke:snow;stroke-width:1.01918;stroke-miterlimit:4;stroke-dasharray:none;stroke-opacity:1;stop-color:#000" d="M130.91749 38.118497a7.9703077 4.9727772 14.09921 0 1-8.95926 2.862936 7.9703077 4.9727772 14.09921 0 1-6.4944-6.772319 7.9703077 4.9727772 14.09921 0 1 8.95921-2.862942 7.9703077 4.9727772 14.09921 0 1 6.49445 6.772325z" transform="translate(-201.89706 50.092824)"/><path style="display:inline;fill:none;fill-opacity:1;stroke:snow;stroke-width:2.91042;stroke-miterlimit:4;stroke-dasharray:none;stroke-opacity:1;stop-color:#000" d="M198.67638 180.42108a54.662461 34.295534 14.296894 0 1-61.42148 19.75226 54.662461 34.295534 14.296894 0 1-44.523412-46.72422 54.662461 34.295534 14.296894 0 1 61.421292-19.75224 54.662461 34.295534 14.296894 0 1 44.5236 46.7242z" transform="translate(-201.89706 50.092824)"/><path style="display:inline;fill:none;fill-opacity:1;stroke:snow;stroke-width:2.38125;stroke-miterlimit:4;stroke-dasharray:none;stroke-opacity:1;stop-color:#000" d="M178.4409 186.23419a33.790596 21.282785 14.437399 0 1-37.95847 12.26101 33.790596 21.282785 14.437399 0 1-27.51546-29.00356 33.790596 21.282785 14.437399 0 1 37.95835-12.26098 33.790596 21.282785 14.437399 0 1 27.51558 29.00353z" transform="translate(-201.89706 50.092824)"/><path style="display:inline;fill:none;fill-opacity:1;stroke:snow;stroke-width:1.85208;stroke-miterlimit:4;stroke-dasharray:none;stroke-opacity:1;stop-color:#000" d="M165.93533 189.69933a20.86889 13.020368 14.09921 0 1-23.45828 7.49613 20.86889 13.020368 14.09921 0 1-17.00452-17.73218 20.86889 13.020368 14.09921 0 1 23.45821-7.49612 20.86889 13.020368 14.09921 0 1 17.00459 17.73217z" transform="translate(-201.89706 50.092824)"/><path style="display:inline;fill:none;fill-opacity:1;stroke:snow;stroke-width:1.32292;stroke-miterlimit:4;stroke-dasharray:none;stroke-opacity:1;stop-color:#000" d="M158.20693 191.62143a12.896977 8.0465893 14.09921 0 1-14.49722 4.63261 12.896977 8.0465893 14.09921 0 1-10.50879-10.95849 12.896977 8.0465893 14.09921 0 1 14.49718-4.6326 12.896977 8.0465893 14.09921 0 1 10.50883 10.95848z" transform="translate(-201.89706 50.092824)"/><path style="display:inline;fill:none;fill-opacity:1;stroke:snow;stroke-width:1.05833;stroke-miterlimit:4;stroke-dasharray:none;stroke-opacity:1;stop-color:#000" d="M153.43076 192.64961a7.9703077 4.9727772 14.09921 0 1-8.95926 2.86293 7.9703077 4.9727772 14.09921 0 1-6.4944-6.77232 7.9703077 4.9727772 14.09921 0 1 8.95921-2.86294 7.9703077 4.9727772 14.09921 0 1 6.49445 6.77233z" transform="translate(-201.89706 50.092824)"/><text xml:space="preserve" style="font-size:16.9333px;line-height:1.25;font-family:'Helvetica Neue';-inkscape-font-specification:'Helvetica Neue Heavy Condensed';text-align:center;letter-spacing:1.07156px;text-anchor:middle;stroke-width:.264583;font-style:normal;font-variant:normal;font-weight:900;font-stretch:condensed;font-variant-ligatures:normal;font-variant-position:normal;font-variant-caps:normal;font-variant-numeric:normal;font-variant-alternates:normal;font-variant-east-asian:normal;font-feature-settings:normal;font-variation-settings:normal;text-indent:0;text-decoration-line:none;text-decoration-style:solid;text-decoration-color:#000;word-spacing:normal;text-transform:none;writing-mode:lr-tb;direction:ltr;text-orientation:mixed;dominant-baseline:auto;baseline-shift:baseline;white-space:normal;shape-padding:0;shape-margin:0;inline-size:0;opacity:1;vector-effect:none;fill:#000;fill-opacity:1;stroke-linecap:butt;stroke-linejoin:miter;stroke-miterlimit:4;stroke-dasharray:none;stroke-dashoffset:0;stroke-opacity:1;-inkscape-stroke:none;stop-color:#000;stop-opacity:1" x="226.75171" y="163.51312" transform="translate(-201.89706 50.092824)"><tspan style="stroke-width:.264583;font-style:normal;font-variant:normal;font-weight:900;font-stretch:condensed;font-size:16.9333px;line-height:1.25;font-family:'Helvetica Neue';-inkscape-font-specification:'Helvetica Neue Heavy Condensed';font-variant-ligatures:normal;font-variant-position:normal;font-variant-caps:normal;font-variant-numeric:normal;font-variant-alternates:normal;font-variant-east-asian:normal;font-feature-settings:normal;font-variation-settings:normal;text-indent:0;text-align:center;text-decoration-line:none;text-decoration-style:solid;text-decoration-color:#000;letter-spacing:1.07156px;word-spacing:normal;text-transform:none;writing-mode:lr-tb;direction:ltr;text-orientation:mixed;dominant-baseline:auto;baseline-shift:baseline;text-anchor:middle;white-space:normal;shape-padding:0;shape-margin:0;inline-size:0;vector-effect:none;fill:#000;fill-opacity:1;stroke-linecap:butt;stroke-linejoin:miter;stroke-miterlimit:4;stroke-dasharray:none;stroke-dashoffset:0;stroke-opacity:1;-inkscape-stroke:none;stop-color:#000;stop-opacity:1" x="227.28749" y="163.51312">de</tspan></text><text xml:space="preserve" style="font-size:16.9333px;line-height:1.25;font-family:'Helvetica Neue';-inkscape-font-specification:'Helvetica Neue, Normal';text-align:center;letter-spacing:1.07156px;text-anchor:middle;stroke-width:.264583" x="42.878906" y="9.9028683" transform="translate(-201.89706 50.092824)"><tspan style="font-style:normal;font-variant:normal;font-weight:900;font-stretch:condensed;font-size:16.9333px;font-family:'Helvetica Neue';-inkscape-font-specification:'Helvetica Neue Heavy Condensed';stroke-width:.264583" x="43.414684" y="9.9028683">en</tspan></text><path style="display:inline;fill:none;fill-opacity:1;stroke:snow;stroke-width:2.91042;stroke-miterlimit:4;stroke-dasharray:none;stroke-opacity:1;stop-color:#000" d="M17.563501 23.060975a54.662461 34.295534 14.296894 0 1-61.42148 19.752261 54.662461 34.295534 14.296894 0 1-44.52341-46.7242206 54.662461 34.295534 14.296894 0 1 61.42129-19.7522374 54.662461 34.295534 14.296894 0 1 44.5236 46.724197z" transform="translate(-201.89706 50.092824)"/><path style="display:inline;fill:none;fill-opacity:1;stroke:#e5e5e5;stroke-width:2.2389;stroke-miterlimit:4;stroke-dasharray:none;stroke-opacity:1;stop-color:#000" d="M-2.6719793 28.874089A33.790596 21.282785 14.437399 0 1-40.630449 41.135095a33.790596 21.282785 14.437399 0 1-27.51546-29.003558A33.790596 21.282785 14.437399 0 1-30.187559-.12944957 33.790596 21.282785 14.437399 0 1-2.6719793 28.874089Z" transform="translate(-201.89706 50.092824)"/><path style="display:inline;fill:none;fill-opacity:1;stroke:#ccc;stroke-width:1.72217;stroke-miterlimit:4;stroke-dasharray:none;stroke-opacity:1;stop-color:#000" d="M-15.177549 32.339228a20.86889 13.020368 14.09921 0 1-23.45828 7.496124 20.86889 13.020368 14.09921 0 1-17.00452-17.732177 20.86889 13.020368 14.09921 0 1 23.45821-7.496117 20.86889 13.020368 14.09921 0 1 17.00459 17.73217z" transform="translate(-201.89706 50.092824)"/><path style="display:inline;fill:none;fill-opacity:1;stroke:#b2b2b2;stroke-width:1.32477;stroke-miterlimit:4;stroke-dasharray:none;stroke-opacity:1;stop-color:#000" d="M-22.905949 34.164777a12.896977 8.0465893 14.09921 0 1-14.49722 4.632614 12.896977 8.0465893 14.09921 0 1-10.50879-10.95849 12.896977 8.0465893 14.09921 0 1 14.49718-4.6326 12.896977 8.0465893 14.09921 0 1 10.50883 10.958476z" transform="translate(-201.89706 50.092824)"/><path style="display:inline;fill:none;fill-opacity:1;stroke:#999;stroke-width:1.01918;stroke-miterlimit:4;stroke-dasharray:none;stroke-opacity:1;stop-color:#000" d="M-27.682119 35.192953a7.9703077 4.9727772 14.09921 0 1-8.95926 2.862936 7.9703077 4.9727772 14.09921 0 1-6.4944-6.772319 7.9703077 4.9727772 14.09921 0 1 8.95921-2.862942 7.9703077 4.9727772 14.09921 0 1 6.49445 6.772325z" transform="translate(-201.89706 50.092824)"/><path style="display:inline;fill:none;fill-opacity:1;stroke:snow;stroke-width:2.91042;stroke-miterlimit:4;stroke-dasharray:none;stroke-opacity:1;stop-color:#000" d="M-142.58056 20.971854a54.662461 34.295534 14.296894 0 1-61.42148 19.752261 54.662461 34.295534 14.296894 0 1-44.52341-46.7242201 54.662461 34.295534 14.296894 0 1 61.42129-19.7522379 54.662461 34.295534 14.296894 0 1 44.5236 46.724197z" transform="translate(-201.89706 50.092824)"/><path style="display:inline;fill:none;fill-opacity:1;stroke:#e5e5e5;stroke-width:2.2389;stroke-miterlimit:4;stroke-dasharray:none;stroke-opacity:1;stop-color:#000" d="M-162.81604 27.143476a33.790596 21.282785 14.437399 0 1-37.95847 12.261006 33.790596 21.282785 14.437399 0 1-27.51546-29.003558 33.790596 21.282785 14.437399 0 1 37.95835-12.2609871 33.790596 21.282785 14.437399 0 1 27.51558 29.0035391z" transform="translate(-201.89706 50.092824)"/><path style="display:inline;fill:none;fill-opacity:1;stroke:#d1d1d1;stroke-width:1.72217;stroke-miterlimit:4;stroke-dasharray:none;stroke-opacity:1;stop-color:#000" d="M-175.32161 30.90972a20.86889 13.020368 14.09921 0 1-23.45828 7.496124 20.86889 13.020368 14.09921 0 1-17.00452-17.732177 20.86889 13.020368 14.09921 0 1 23.45821-7.496117 20.86889 13.020368 14.09921 0 1 17.00459 17.73217z" transform="translate(-201.89706 50.092824)"/><path style="display:inline;fill:none;fill-opacity:1;stroke:#b8b8b8;stroke-width:1.32477;stroke-miterlimit:4;stroke-dasharray:none;stroke-opacity:1;stop-color:#000" d="M-183.05001 33.023913a12.896977 8.0465893 14.09921 0 1-14.49722 4.632614 12.896977 8.0465893 14.09921 0 1-10.50879-10.95849 12.896977 8.0465893 14.09921 0 1 14.49718-4.6326 12.896977 8.0465893 14.09921 0 1 10.50883 10.958476z" transform="translate(-201.89706 50.092824)"/><path style="display:inline;fill:none;fill-opacity:1;stroke:#999;stroke-width:1.01918;stroke-miterlimit:4;stroke-dasharray:none;stroke-opacity:1;stop-color:#000" d="M-187.82618 34.266036a7.9703077 4.9727772 14.09921 0 1-8.95926 2.862936 7.9703077 4.9727772 14.09921 0 1-6.4944-6.772319 7.9703077 4.9727772 14.09921 0 1 8.95921-2.862942 7.9703077 4.9727772 14.09921 0 1 6.49445 6.772325z" transform="translate(-201.89706 50.092824)"/><path style="display:inline;fill:none;fill-opacity:1;stroke:snow;stroke-width:2.91042;stroke-miterlimit:4;stroke-dasharray:none;stroke-opacity:1;stop-color:#000" d="M-283.18525 18.51232a54.662461 34.295534 14.296894 0 1-61.42148 19.752261 54.662461 34.295534 14.296894 0 1-44.52341-46.7242195 54.662461 34.295534 14.296894 0 1 61.42129-19.7522385 54.662461 34.295534 14.296894 0 1 44.5236 46.724197z" transform="translate(-201.89706 50.092824)"/><path style="display:inline;fill:none;fill-opacity:1;stroke:#ededed;stroke-width:2.2389;stroke-miterlimit:4;stroke-dasharray:none;stroke-opacity:1;stop-color:#000" d="M-303.42073 24.683942a33.790596 21.282785 14.437399 0 1-37.95847 12.261006 33.790596 21.282785 14.437399 0 1-27.51546-29.0035575 33.790596 21.282785 14.437399 0 1 37.95835-12.260987 33.790596 21.282785 14.437399 0 1 27.51558 29.0035385z" transform="translate(-201.89706 50.092824)"/><path style="display:inline;fill:none;fill-opacity:1;stroke:#d9d9d9;stroke-width:1.72217;stroke-miterlimit:4;stroke-dasharray:none;stroke-opacity:1;stop-color:#000" d="M-315.9263 28.450186a20.86889 13.020368 14.09921 0 1-23.45828 7.496124 20.86889 13.020368 14.09921 0 1-17.00452-17.732177 20.86889 13.020368 14.09921 0 1 23.45821-7.496117 20.86889 13.020368 14.09921 0 1 17.00459 17.73217z" transform="translate(-201.89706 50.092824)"/><path style="display:inline;fill:none;fill-opacity:1;stroke:#bfbfbf;stroke-width:1.32477;stroke-miterlimit:4;stroke-dasharray:none;stroke-opacity:1;stop-color:#000" d="M-323.6547 30.564379a12.896977 8.0465893 14.09921 0 1-14.49722 4.632614 12.896977 8.0465893 14.09921 0 1-10.50879-10.95849 12.896977 8.0465893 14.09921 0 1 14.49718-4.6326 12.896977 8.0465893 14.09921 0 1 10.50883 10.958476z" transform="translate(-201.89706 50.092824)"/><path style="display:inline;fill:none;fill-opacity:1;stroke:#999;stroke-width:1.01918;stroke-miterlimit:4;stroke-dasharray:none;stroke-opacity:1;stop-color:#000" d="M-328.43087 31.806502a7.9703077 4.9727772 14.09921 0 1-8.95926 2.862936 7.9703077 4.9727772 14.09921 0 1-6.4944-6.772319 7.9703077 4.9727772 14.09921 0 1 8.95921-2.862942 7.9703077 4.9727772 14.09921 0 1 6.49445 6.772325z" transform="translate(-201.89706 50.092824)"/><text xml:space="preserve" style="font-style:normal;font-variant:normal;font-weight:900;font-stretch:condensed;font-size:8.46667px;line-height:1.25;font-family:'Helvetica Neue';-inkscape-font-specification:'Helvetica Neue Heavy Condensed';text-align:center;letter-spacing:1.07156px;text-anchor:middle;stroke-width:.264583" x="-336.16815" y="76.424301" transform="translate(-201.89706 50.092824)"><tspan style="font-style:normal;font-variant:normal;font-weight:900;font-stretch:condensed;font-family:'Helvetica Neue';-inkscape-font-specification:'Helvetica Neue Heavy Condensed';stroke-width:.264583" x="-335.63239" y="76.424301">May 3, 2022</tspan></text><path style="display:inline;fill:none;fill-opacity:1;stroke:snow;stroke-width:2.91042;stroke-miterlimit:4;stroke-dasharray:none;stroke-opacity:1;stop-color:#000" d="M37.534227 175.58775a54.662461 34.295534 14.296894 0 1-61.42148 19.75226 54.662461 34.295534 14.296894 0 1-44.52341-46.72421 54.662461 34.295534 14.296894 0 1 61.4212896-19.75224 54.662461 34.295534 14.296894 0 1 44.5236004 46.72419z" transform="translate(-201.89706 50.092824)"/><path style="display:inline;fill:none;fill-opacity:1;stroke:snow;stroke-width:2.2389;stroke-miterlimit:4;stroke-dasharray:none;stroke-opacity:1;stop-color:#000" d="M17.298747 181.75938a33.790596 21.282785 14.437399 0 1-37.95847 12.261 33.790596 21.282785 14.437399 0 1-27.51546-29.00356 33.790596 21.282785 14.437399 0 1 37.95835-12.26098 33.790596 21.282785 14.437399 0 1 27.51558 29.00354z" transform="translate(-201.89706 50.092824)"/><path style="display:inline;fill:none;fill-opacity:1;stroke:snow;stroke-width:1.72217;stroke-miterlimit:4;stroke-dasharray:none;stroke-opacity:1;stop-color:#000" d="M4.7931766 185.52562a20.86889 13.020368 14.09921 0 1-23.4582796 7.49612 20.86889 13.020368 14.09921 0 1-17.00452-17.73217 20.86889 13.020368 14.09921 0 1 23.45821-7.49612 20.86889 13.020368 14.09921 0 1 17.0045896 17.73217z" transform="translate(-201.89706 50.092824)"/><path style="display:inline;fill:none;fill-opacity:1;stroke:snow;stroke-width:1.32477;stroke-miterlimit:4;stroke-dasharray:none;stroke-opacity:1;stop-color:#000" d="M-2.9352234 187.63981a12.896977 8.0465893 14.09921 0 1-14.4972196 4.63262 12.896977 8.0465893 14.09921 0 1-10.50879-10.95849 12.896977 8.0465893 14.09921 0 1 14.49718-4.6326 12.896977 8.0465893 14.09921 0 1 10.5088296 10.95847z" transform="translate(-201.89706 50.092824)"/><path style="display:inline;fill:none;fill-opacity:1;stroke:snow;stroke-width:1.01918;stroke-miterlimit:4;stroke-dasharray:none;stroke-opacity:1;stop-color:#000" d="M-7.7113934 188.88194a7.9703077 4.9727772 14.09921 0 1-8.9592596 2.86293 7.9703077 4.9727772 14.09921 0 1-6.4944-6.77232 7.9703077 4.9727772 14.09921 0 1 8.95921-2.86294 7.9703077 4.9727772 14.09921 0 1 6.4944496 6.77233z" transform="translate(-201.89706 50.092824)"/><text xml:space="preserve" style="font-style:normal;font-variant:normal;font-weight:900;font-stretch:condensed;font-size:8.46667px;line-height:1.25;font-family:'Helvetica Neue';-inkscape-font-specification:'Helvetica Neue Heavy Condensed';text-align:center;letter-spacing:1.07156px;text-anchor:middle;display:inline;stroke-width:.264583" x="-14.306305" y="226.93663" transform="translate(-201.89706 50.092824)"><tspan style="font-style:normal;font-variant:normal;font-weight:900;font-stretch:condensed;font-family:'Helvetica Neue';-inkscape-font-specification:'Helvetica Neue Heavy Condensed';stroke-width:.264583" x="-13.770523" y="226.93663">May 3, 2022</tspan></text><path style="display:inline;fill:none;fill-opacity:1;stroke:snow;stroke-width:2.91042;stroke-miterlimit:4;stroke-dasharray:none;stroke-opacity:1;stop-color:#000" d="M-413.63728 16.462986a54.662461 34.295534 14.296894 0 1-61.42148 19.752261 54.662461 34.295534 14.296894 0 1-44.52341-46.72422 54.662461 34.295534 14.296894 0 1 61.42129-19.752238 54.662461 34.295534 14.296894 0 1 44.5236 46.724197z" transform="translate(-201.89706 50.092824)"/><path style="display:inline;fill:none;fill-opacity:1;stroke:#ededed;stroke-width:2.2389;stroke-miterlimit:4;stroke-dasharray:none;stroke-opacity:1;stop-color:#000" d="M-433.87276 25.80961a33.790596 21.282785 14.437399 0 1-37.95847 12.261006 33.790596 21.282785 14.437399 0 1-27.51546-29.0035584 33.790596 21.282785 14.437399 0 1 37.95835-12.2609884A33.790596 21.282785 14.437399 0 1-433.87276 25.80961z" transform="translate(-201.89706 50.092824)"/><path style="display:inline;fill:none;fill-opacity:1;stroke:#d9d9d9;stroke-width:1.72217;stroke-miterlimit:4;stroke-dasharray:none;stroke-opacity:1;stop-color:#000" d="M-446.37833 32.221689a20.86889 13.020368 14.09921 0 1-23.45828 7.496124 20.86889 13.020368 14.09921 0 1-17.00452-17.732177 20.86889 13.020368 14.09921 0 1 23.45821-7.496117 20.86889 13.020368 14.09921 0 1 17.00459 17.73217z" transform="translate(-201.89706 50.092824)"/><path style="display:inline;fill:none;fill-opacity:1;stroke:#bfbfbf;stroke-width:1.32477;stroke-miterlimit:4;stroke-dasharray:none;stroke-opacity:1;stop-color:#000" d="M-454.10673 36.45255a12.896977 8.0465893 14.09921 0 1-14.49722 4.632614 12.896977 8.0465893 14.09921 0 1-10.50879-10.95849 12.896977 8.0465893 14.09921 0 1 14.49718-4.6326 12.896977 8.0465893 14.09921 0 1 10.50883 10.958476z" transform="translate(-201.89706 50.092824)"/><path style="display:inline;fill:none;fill-opacity:1;stroke:#999;stroke-width:1.01918;stroke-miterlimit:4;stroke-dasharray:none;stroke-opacity:1;stop-color:#000" d="M-458.8829 39.282174a7.9703077 4.9727772 14.09921 0 1-8.95926 2.862936 7.9703077 4.9727772 14.09921 0 1-6.4944-6.772319 7.9703077 4.9727772 14.09921 0 1 8.95921-2.862942 7.9703077 4.9727772 14.09921 0 1 6.49445 6.772325z" transform="translate(-201.89706 50.092824)"/><text xml:space="preserve" style="font-style:normal;font-variant:normal;font-weight:900;font-stretch:condensed;font-size:8.46667px;line-height:1.25;font-family:'Helvetica Neue';-inkscape-font-specification:'Helvetica Neue Heavy Condensed';text-align:center;letter-spacing:1.07156px;text-anchor:middle;display:inline;stroke-width:.264583" x="-466.62018" y="75.208946" transform="translate(-201.89706 50.092824)"><tspan style="font-style:normal;font-variant:normal;font-weight:900;font-stretch:condensed;font-family:'Helvetica Neue';-inkscape-font-specification:'Helvetica Neue Heavy Condensed';stroke-width:.264583" x="-466.08441" y="75.208946">May 3, 2022</tspan></text><path style="display:inline;fill:none;fill-opacity:1;stroke:snow;stroke-width:2.64583;stroke-miterlimit:4;stroke-dasharray:none;stroke-opacity:1;stop-color:#000" d="M-539.20337 10.752115a54.662461 34.295534 14.296894 0 1-61.42148 19.752261 54.662461 34.295534 14.296894 0 1-44.52341-46.72422 54.662461 34.295534 14.296894 0 1 61.42129-19.752238 54.662461 34.295534 14.296894 0 1 44.5236 46.724197z" transform="translate(-201.89706 50.092824)"/><path style="display:inline;fill:none;fill-opacity:1;stroke:#ededed;stroke-width:2.38125;stroke-miterlimit:4;stroke-dasharray:none;stroke-opacity:1;stop-color:#000" d="M-559.43885 20.098739a33.790596 21.282785 14.437399 0 1-37.95847 12.261006 33.790596 21.282785 14.437399 0 1-27.51546-29.0035583 33.790596 21.282785 14.437399 0 1 37.95835-12.2609885 33.790596 21.282785 14.437399 0 1 27.51558 29.0035408z" transform="translate(-201.89706 50.092824)"/><path style="display:inline;fill:none;fill-opacity:1;stroke:#d9d9d9;stroke-width:2.11667;stroke-miterlimit:4;stroke-dasharray:none;stroke-opacity:1;stop-color:#000" d="M-571.94442 26.510818a20.86889 13.020368 14.09921 0 1-23.45828 7.496124 20.86889 13.020368 14.09921 0 1-17.00452-17.732177 20.86889 13.020368 14.09921 0 1 23.45821-7.4961173 20.86889 13.020368 14.09921 0 1 17.00459 17.7321703z" transform="translate(-201.89706 50.092824)"/><path style="display:inline;fill:none;fill-opacity:1;stroke:#bfbfbf;stroke-width:1.85208;stroke-miterlimit:4;stroke-dasharray:none;stroke-opacity:1;stop-color:#000" d="M-579.67282 30.741679a12.896977 8.0465893 14.09921 0 1-14.49722 4.632614 12.896977 8.0465893 14.09921 0 1-10.50879-10.95849 12.896977 8.0465893 14.09921 0 1 14.49718-4.6326 12.896977 8.0465893 14.09921 0 1 10.50883 10.958476z" transform="translate(-201.89706 50.092824)"/><path style="display:inline;fill:none;fill-opacity:1;stroke:#999;stroke-width:1.5875;stroke-miterlimit:4;stroke-dasharray:none;stroke-opacity:1;stop-color:#000" d="M-584.44899 33.571303a7.9703077 4.9727772 14.09921 0 1-8.95926 2.862936 7.9703077 4.9727772 14.09921 0 1-6.4944-6.772319 7.9703077 4.9727772 14.09921 0 1 8.95921-2.862942 7.9703077 4.9727772 14.09921 0 1 6.49445 6.772325z" transform="translate(-201.89706 50.092824)"/><text xml:space="preserve" style="font-style:normal;font-variant:normal;font-weight:900;font-stretch:condensed;font-size:8.46667px;line-height:1.25;font-family:'Helvetica Neue';-inkscape-font-specification:'Helvetica Neue Heavy Condensed';text-align:center;letter-spacing:1.07156px;text-anchor:middle;display:inline;stroke-width:.264583" x="-592.18628" y="72.261391" transform="translate(-201.89706 50.092824)"><tspan style="font-style:normal;font-variant:normal;font-weight:900;font-stretch:condensed;font-family:'Helvetica Neue';-inkscape-font-specification:'Helvetica Neue Heavy Condensed';stroke-width:.264583" x="-591.65051" y="72.261391">May 3, 2022</tspan></text><path style="display:inline;fill:none;fill-opacity:1;stroke:snow;stroke-width:3.04271;stroke-miterlimit:4;stroke-dasharray:none;stroke-opacity:1;stop-color:#000;font-variation-settings:normal;opacity:1;stroke-linecap:butt;stroke-linejoin:miter;stroke-dashoffset:0;stop-opacity:1" d="M489.69312 29.173036a54.662461 34.295534 14.296894 0 1-61.42148 19.752261 54.662461 34.295534 14.296894 0 1-44.52341-46.7242204 54.662461 34.295534 14.296894 0 1 61.42129-19.7522376 54.662461 34.295534 14.296894 0 1 44.5236 46.724197Z" transform="translate(-201.89706 50.092824)"/><path style="display:inline;fill:none;fill-opacity:1;stroke:#fafafa;stroke-width:2.50507;stroke-miterlimit:4;stroke-dasharray:none;stroke-opacity:1;stop-color:#000" d="M469.45764 34.797886a33.790596 21.282785 14.437399 0 1-37.95847 12.261006 33.790596 21.282785 14.437399 0 1-27.51546-29.003558 33.790596 21.282785 14.437399 0 1 37.95835-12.2609871 33.790596 21.282785 14.437399 0 1 27.51558 29.0035391Z" transform="translate(-201.89706 50.092824)"/><path style="display:inline;fill:none;fill-opacity:1;stroke:#f2f2f2;stroke-width:2.15371;stroke-miterlimit:4;stroke-dasharray:none;stroke-opacity:1;stop-color:#000" d="M456.95207 37.922151a20.86889 13.020368 14.09921 0 1-23.45828 7.496124 20.86889 13.020368 14.09921 0 1-17.00452-17.732177 20.86889 13.020368 14.09921 0 1 23.45821-7.496117 20.86889 13.020368 14.09921 0 1 17.00459 17.73217z" transform="translate(-201.89706 50.092824)"/><path style="display:inline;fill:none;fill-opacity:1;stroke:#e5e5e5;stroke-width:1.66688;stroke-miterlimit:4;stroke-dasharray:none;stroke-opacity:1;stop-color:#000" d="M449.22367 39.454734a12.896977 8.0465893 14.09921 0 1-14.49722 4.632614 12.896977 8.0465893 14.09921 0 1-10.50879-10.95849 12.896977 8.0465893 14.09921 0 1 14.49718-4.6326 12.896977 8.0465893 14.09921 0 1 10.50883 10.958476z" transform="translate(-201.89706 50.092824)"/><path style="display:inline;fill:none;fill-opacity:1;stroke:#d4d4d4;stroke-width:1.29619;stroke-miterlimit:4;stroke-dasharray:none;stroke-opacity:1;stop-color:#000" d="M444.4475 40.273044a7.9703077 4.9727772 14.09921 0 1-8.95926 2.862936 7.9703077 4.9727772 14.09921 0 1-6.4944-6.772319 7.9703077 4.9727772 14.09921 0 1 8.95921-2.862942 7.9703077 4.9727772 14.09921 0 1 6.49445 6.772325z" transform="translate(-201.89706 50.092824)"/><text xml:space="preserve" style="font-style:normal;font-variant:normal;font-weight:900;font-stretch:condensed;font-size:8.46667px;line-height:1.25;font-family:'Helvetica Neue';-inkscape-font-specification:'Helvetica Neue Heavy Condensed';text-align:center;letter-spacing:1.07156px;text-anchor:middle;display:inline;stroke-width:.264583" x="436.71021" y="87.887749" transform="translate(-201.89706 50.092824)"><tspan style="font-style:normal;font-variant:normal;font-weight:900;font-stretch:condensed;font-family:'Helvetica Neue';-inkscape-font-specification:'Helvetica Neue Heavy Condensed';stroke-width:.264583" x="437.24597" y="87.887749">May 4, 2022</tspan></text><g transform="translate(-201.89706 50.092824)"><ellipse style="display:inline;fill:none;stroke:snow;stroke-width:2.91703;stroke-miterlimit:4;stroke-dasharray:none;stroke-opacity:1;stop-color:#000" cx="575.05389" cy="15.221333" rx="54.979149" ry="33.923992"/><ellipse style="display:inline;fill:none;stroke:snow;stroke-width:2.33363;stroke-miterlimit:4;stroke-dasharray:none;stroke-opacity:1;stop-color:#000" cx="594.17633" cy="15.221333" rx="33.923988" ry="20.910912"/><ellipse style="font-variation-settings:normal;display:inline;fill:none;fill-opacity:1;stroke:snow;stroke-width:2.04192;stroke-linecap:butt;stroke-linejoin:miter;stroke-miterlimit:4;stroke-dasharray:none;stroke-dashoffset:0;stroke-opacity:1;stop-color:#000" cx="605.63776" cy="15.221333" rx="20.911013" ry="12.868281"/><ellipse style="font-variation-settings:normal;display:inline;fill:none;fill-opacity:1;stroke:snow;stroke-width:1.45852;stroke-linecap:butt;stroke-linejoin:miter;stroke-miterlimit:4;stroke-dasharray:none;stroke-dashoffset:0;stroke-opacity:1;stop-color:#000" cx="612.45941" cy="15.221333" rx="12.868145" ry="7.8974104"/><ellipse style="font-variation-settings:normal;display:inline;fill:none;fill-opacity:1;stroke:snow;stroke-width:1.16681;stroke-linecap:butt;stroke-linejoin:miter;stroke-miterlimit:4;stroke-dasharray:none;stroke-dashoffset:0;stroke-opacity:1;stop-color:#000" cx="616.77399" cy="15.221333" rx="7.8973565" ry="4.7339783"/></g><text xml:space="preserve" style="font-style:normal;font-variant:normal;font-weight:900;font-stretch:condensed;font-size:8.46667px;line-height:1.25;font-family:'Helvetica Neue';-inkscape-font-specification:'Helvetica Neue Heavy Condensed';text-align:center;letter-spacing:1.07156px;text-anchor:middle;display:inline;stroke-width:.264583" x="575.04346" y="82.357521" transform="translate(-201.89706 50.092824)"><tspan style="font-style:normal;font-variant:normal;font-weight:900;font-stretch:condensed;font-family:'Helvetica Neue';-inkscape-font-specification:'Helvetica Neue Heavy Condensed';stroke-width:.264583" x="575.57922" y="82.357521">May 4, 2022</tspan></text><path d="M645.13873 4.176701v18.891226h4.92124V4.176701ZM657.27689 19.522515v-4.603744h1.37583q.68792 0 1.21708.582083.52917.582082.52917 1.693331 0 1.190623-.52917 1.772706-.52916.555624-1.21708.555624zm0-7.93749V7.722113h1.19062q.76729 0 1.16417.582083.39687.582083.39687 1.375832 0 .76729-.39687 1.349373-.39688.555624-1.16417.555624zm-4.92125-7.408324v18.891226h7.43479q1.53458 0 2.61937-.396874 1.08479-.423333 1.74625-1.164165.68791-.740833 1.00541-1.772707.3175-1.031873.3175-2.248955 0-.740832-.21167-1.455206-.1852-.740833-.60854-1.349374-.42333-.608541-1.08479-1.005415-.66145-.423333-1.58749-.502708v-.05292q.79374-.15875 1.34937-.555625.55562-.396874.89958-.952499.37042-.582082.52917-1.269998.1852-.714374.1852-1.455206 0-2.143123-1.26999-3.413121-1.24354-1.296457-3.88937-1.296457z" style="font-weight:900;font-stretch:condensed;font-size:26.4583px;line-height:1.25;font-family:'Helvetica Neue';-inkscape-font-specification:'Helvetica Neue Heavy Condensed';text-align:center;letter-spacing:0;text-anchor:middle;fill:snow;stroke-width:.264583" transform="translate(-201.89706 50.092824)"/><path d="M674.74515 9.627111h4.60375q0-3.042704-1.45521-4.418536-1.42875-1.40229-4.65666-1.40229-3.12208 0-4.65666 1.508123-1.53458 1.508123-1.53458 4.392078 0 1.666873.55562 2.698746.58209 1.031874 1.42875 1.666873.87313.635 1.87854 1.031874 1.00542.396875 1.85208.793749.87313.370416 1.42875.926041.58208.529166.58208 1.455206 0 .767291-.42333 1.296457-.39688.529166-1.16417.529166-.71437 0-1.16416-.47625-.44979-.502707-.44979-1.719789v-.449791h-4.7625v.661457q0 1.481665.42334 2.48708.42333 1.005416 1.21708 1.640415.82021.608541 1.98437.846666 1.19062.264583 2.72521.264583 3.25437 0 4.97416-1.349374 1.71979-1.375831 1.71979-4.392078 0-1.719789-.60855-2.778121-.58208-1.08479-1.48166-1.746248-.89958-.661457-1.93146-1.058332-1.03187-.423333-1.93145-.820207-.89958-.396875-1.50812-.92604-.58209-.555625-.58209-1.481665 0-.634999.37042-1.137707.37042-.529166 1.16416-.529166.71438 0 1.05834.608541.34395.582082.34395 1.428748z" style="font-weight:900;font-stretch:condensed;font-size:26.4583px;line-height:1.25;font-family:'Helvetica Neue';-inkscape-font-specification:'Helvetica Neue Heavy Condensed';text-align:center;letter-spacing:0;text-anchor:middle;fill:#999;fill-opacity:1;stroke-width:.264583" transform="translate(-201.89706 50.092824)"/><path d="M685.15807 15.228065q0-1.581149.0439-2.613288.0439-1.054099.17568-1.66899.15372-.614892.41725-.856456.28548-.241564.74665-.241564t.7247.241564q.28548.241564.41724.856456.15373.614891.19765 1.66899.0439 1.032139.0439 2.613288 0 1.581148-.0439 2.635248-.0439 1.032138-.19765 1.647029-.13176.614892-.41724.856456-.26353.241564-.7247.241564t-.74665-.241564q-.26353-.241564-.41725-.856456-.13176-.614891-.17568-1.647029-.0439-1.0541-.0439-2.635248zm-4.2164 0q0 2.19604.28549 3.755228.28548 1.537228.94429 2.525446.65882.966257 1.73488 1.383505 1.07605.417248 2.63524.417248t2.63525-.417248q1.07606-.417248 1.73487-1.383505.65881-.988218.9443-2.525446.28548-1.559188.28548-3.755228t-.28548-3.733268q-.28549-1.559189-.9443-2.525446-.65881-.988218-1.73487-1.427426-1.07606-.461169-2.63525-.461169t-2.63524.461169q-1.07606.439208-1.73488 1.427426-.65881.966257-.94429 2.525446-.28549 1.537228-.28549 3.733268zM693.62689 7.388202v15.679725h4.08463V16.61157h4.87521v-3.206219h-4.87521v-2.679168h5.20462V7.388202ZM706.24245 10.857945v12.209982h4.08464V10.857945h3.07445V7.388202h-10.18962v3.469743z" style="font-size:21.9604px;line-height:1.25;font-family:'Helvetica Neue';-inkscape-font-specification:'Helvetica Neue, Normal';text-align:center;letter-spacing:0;text-anchor:middle;fill:#999;fill-opacity:1;stroke-width:.264583" transform="translate(-201.89706 50.092824)"/><path d="M721.89675 9.627111h4.60375q0-3.042704-1.45521-4.418536-1.42875-1.40229-4.65666-1.40229-3.12208 0-4.65666 1.508123-1.53458 1.508123-1.53458 4.392078 0 1.666873.55562 2.698746.58208 1.031874 1.42875 1.666873.87312.635 1.87854 1.031874 1.00541.396875 1.85208.793749.87312.370416 1.42875.926041.58208.529166.58208 1.455206 0 .767291-.42333 1.296457-.39688.529166-1.16417.529166-.71437 0-1.16416-.47625-.44979-.502707-.44979-1.719789v-.449791h-4.7625v.661457q0 1.481665.42333 2.48708.42334 1.005416 1.21709 1.640415.8202.608541 1.98437.846666 1.19062.264583 2.7252.264583 3.25437 0 4.97416-1.349374 1.71979-1.375831 1.71979-4.392078 0-1.719789-.60854-2.778121-.58208-1.08479-1.48166-1.746248-.89958-.661457-1.93146-1.058332-1.03187-.423333-1.93145-.820207-.89959-.396875-1.50813-.92604-.58208-.555625-.58208-1.481665 0-.634999.37042-1.137707.37041-.529166 1.16416-.529166.71438 0 1.05833.608541.34396.582082.34396 1.428748z" style="font-weight:900;font-stretch:condensed;font-size:26.4583px;line-height:1.25;font-family:'Helvetica Neue';-inkscape-font-specification:'Helvetica Neue Heavy Condensed';text-align:center;letter-spacing:0;text-anchor:middle;fill:snow;stroke-width:.264583" transform="translate(-201.89706 50.092824)"/><path d="M731.25556 16.897055v6.170872h4.08464v-6.170872l3.99679-9.508853h-4.47992l-1.53723 5.468139h-.0439l-1.53723-5.468139h-4.41404zM746.06855 11.912044h3.8211q0-2.525446-1.20782-3.667387-1.18586-1.163901-3.86503-1.163901-2.59132 0-3.86503 1.251743-1.2737 1.251743-1.2737 3.645426 0 1.383506.46117 2.239961.48313.856456 1.18586 1.383505.72469.52705 1.55919.856456.83449.329406 1.53723.658812.72469.307446 1.18586.768614.48313.439208.48313 1.207822 0 .636851-.35137 1.076059-.32941.439208-.96626.439208-.59293 0-.96626-.395287-.37332-.417247-.37332-1.427426v-.373326h-3.95287v.549009q0 1.229783.35136 2.064278.35137.834495 1.01018 1.361545.68077.505089 1.64703.702733.98822.219604 2.26192.219604 2.70113 0 4.12856-1.119981 1.42742-1.141941 1.42742-3.645426 0-1.427426-.50509-2.305842-.48313-.900376-1.22978-1.449386-.74665-.54901-1.60311-.878416-.85645-.351367-1.60311-.680773-.74665-.329406-1.25174-.768614-.48313-.461168-.48313-1.229782 0-.52705.30745-.944297.30744-.439208.96625-.439208.59293 0 .87842.505089.28549.483129.28549 1.185861z" style="font-size:21.9604px;line-height:1.25;font-family:'Helvetica Neue';-inkscape-font-specification:'Helvetica Neue, Normal';text-align:center;letter-spacing:0;text-anchor:middle;fill:snow;fill-opacity:1;stroke-width:.264583" transform="translate(-201.89706 50.092824)"/><text xml:space="preserve" style="font-style:normal;font-variant:normal;font-weight:900;font-stretch:condensed;font-size:8.46667px;line-height:1.25;font-family:'Helvetica Neue';-inkscape-font-specification:'Helvetica Neue Heavy Condensed';text-align:center;letter-spacing:1.07156px;text-anchor:middle;display:inline;stroke-width:.264583" x="689.75293" y="73.695793" transform="translate(-201.89706 50.092824)"><tspan style="font-style:normal;font-variant:normal;font-weight:900;font-stretch:condensed;font-family:'Helvetica Neue';-inkscape-font-specification:'Helvetica Neue Heavy Condensed';stroke-width:.264583" x="690.2887" y="73.695793">May 4, 2022</tspan></text><g transform="translate(-201.89706 50.092824)"><ellipse style="display:inline;fill:none;stroke:snow;stroke-width:2.91703;stroke-miterlimit:4;stroke-dasharray:none;stroke-opacity:1;stop-color:#000" cx="829.05347" cy="12.646224" rx="54.979149" ry="33.923992"/><ellipse style="display:inline;fill:none;stroke:#e5e5e5;stroke-width:2.33363;stroke-miterlimit:4;stroke-dasharray:none;stroke-opacity:1;stop-color:#000" cx="848.1759" cy="12.646224" rx="33.923988" ry="20.910912"/><ellipse style="font-variation-settings:normal;display:inline;fill:none;fill-opacity:1;stroke:#c7c7c7;stroke-width:2.04192;stroke-linecap:butt;stroke-linejoin:miter;stroke-miterlimit:4;stroke-dasharray:none;stroke-dashoffset:0;stroke-opacity:1;stop-color:#000" cx="859.63733" cy="12.646224" rx="20.911013" ry="12.868281"/><ellipse style="font-variation-settings:normal;display:inline;fill:none;fill-opacity:1;stroke:#b5b5b5;stroke-width:1.45852;stroke-linecap:butt;stroke-linejoin:miter;stroke-miterlimit:4;stroke-dasharray:none;stroke-dashoffset:0;stroke-opacity:1;stop-color:#000" cx="866.45898" cy="12.646224" rx="12.868145" ry="7.8974104"/><ellipse style="font-variation-settings:normal;display:inline;fill:none;fill-opacity:1;stroke:#999;stroke-width:1.16681;stroke-linecap:butt;stroke-linejoin:miter;stroke-miterlimit:4;stroke-dasharray:none;stroke-dashoffset:0;stroke-opacity:1;stop-color:#000" cx="870.77356" cy="12.646224" rx="7.8973565" ry="4.7339783"/></g><text xml:space="preserve" style="font-style:normal;font-variant:normal;font-weight:900;font-stretch:condensed;font-size:8.46667px;line-height:1.25;font-family:'Helvetica Neue';-inkscape-font-specification:'Helvetica Neue Heavy Condensed';text-align:center;letter-spacing:1.07156px;text-anchor:middle;display:inline;stroke-width:.264583" x="829.04303" y="72.525284" transform="translate(-201.89706 50.092824)"><tspan style="font-style:normal;font-variant:normal;font-weight:900;font-stretch:condensed;font-family:'Helvetica Neue';-inkscape-font-specification:'Helvetica Neue Heavy Condensed';stroke-width:.264583" x="829.5788" y="72.525284">May 4, 2022</tspan></text><g transform="rotate(17.675 342.21014027 1563.02476234)" style="display:inline"><ellipse style="display:inline;fill:none;stroke:snow;stroke-width:2.91703;stroke-miterlimit:4;stroke-dasharray:none;stroke-opacity:1;stop-color:#000" cx="281.49756" cy="10.702192" rx="54.979149" ry="33.923992"/><ellipse style="display:inline;fill:none;stroke:#e5e5e5;stroke-width:2.33363;stroke-miterlimit:4;stroke-dasharray:none;stroke-opacity:1;stop-color:#000" cx="300.62" cy="10.702192" rx="33.923988" ry="20.910912"/><ellipse style="font-variation-settings:normal;display:inline;fill:none;fill-opacity:1;stroke:#c7c7c7;stroke-width:2.04192;stroke-linecap:butt;stroke-linejoin:miter;stroke-miterlimit:4;stroke-dasharray:none;stroke-dashoffset:0;stroke-opacity:1;stop-color:#000" cx="312.08142" cy="10.702192" rx="20.911013" ry="12.868281"/><ellipse style="font-variation-settings:normal;display:inline;fill:none;fill-opacity:1;stroke:#b5b5b5;stroke-width:1.45852;stroke-linecap:butt;stroke-linejoin:miter;stroke-miterlimit:4;stroke-dasharray:none;stroke-dashoffset:0;stroke-opacity:1;stop-color:#000" cx="318.90308" cy="10.702192" rx="12.868145" ry="7.8974104"/><ellipse style="font-variation-settings:normal;display:inline;fill:none;fill-opacity:1;stroke:#999;stroke-width:1.16681;stroke-linecap:butt;stroke-linejoin:miter;stroke-miterlimit:4;stroke-dasharray:none;stroke-dashoffset:0;stroke-opacity:1;stop-color:#000" cx="323.21765" cy="10.702192" rx="7.8973565" ry="4.7339783"/></g><text xml:space="preserve" style="font-style:normal;font-variant:normal;font-weight:900;font-stretch:condensed;font-size:8.46667px;line-height:1.25;font-family:'Helvetica Neue';-inkscape-font-specification:'Helvetica Neue Heavy Condensed';text-align:center;letter-spacing:1.07156px;text-anchor:middle;display:inline;stroke-width:.264583" x="957.56439" y="73.461693" transform="translate(-201.89706 50.092824)"><tspan style="font-style:normal;font-variant:normal;font-weight:900;font-stretch:condensed;font-family:'Helvetica Neue';-inkscape-font-specification:'Helvetica Neue Heavy Condensed';stroke-width:.264583" x="958.10016" y="73.461693">May 4, 2022</tspan></text><g><g style="display:inline"><path d="M645.13873 4.176701v18.891226h4.92124V4.176701ZM657.27689 19.522515v-4.603744h1.37583q.68792 0 1.21708.582083.52917.582082.52917 1.693331 0 1.190623-.52917 1.772706-.52916.555624-1.21708.555624zm0-7.93749V7.722113h1.19062q.76729 0 1.16417.582083.39687.582083.39687 1.375832 0 .76729-.39687 1.349373-.39688.555624-1.16417.555624zm-4.92125-7.408324v18.891226h7.43479q1.53458 0 2.61937-.396874 1.08479-.423333 1.74625-1.164165.68791-.740833 1.00541-1.772707.3175-1.031873.3175-2.248955 0-.740832-.21167-1.455206-.1852-.740833-.60854-1.349374-.42333-.608541-1.08479-1.005415-.66145-.423333-1.58749-.502708v-.05292q.79374-.15875 1.34937-.555625.55562-.396874.89958-.952499.37042-.582082.52917-1.269998.1852-.714374.1852-1.455206 0-2.143123-1.26999-3.413121-1.24354-1.296457-3.88937-1.296457z" style="font-weight:900;font-stretch:condensed;font-size:26.4583px;line-height:1.25;font-family:'Helvetica Neue';-inkscape-font-specification:'Helvetica Neue Heavy Condensed';text-align:center;letter-spacing:0;text-anchor:middle;fill:snow;stroke-width:.264583" transform="translate(-618.122308 111.496089)"/><path d="M674.74515 9.627111h4.60375q0-3.042704-1.45521-4.418536-1.42875-1.40229-4.65666-1.40229-3.12208 0-4.65666 1.508123-1.53458 1.508123-1.53458 4.392078 0 1.666873.55562 2.698746.58209 1.031874 1.42875 1.666873.87313.635 1.87854 1.031874 1.00542.396875 1.85208.793749.87313.370416 1.42875.926041.58208.529166.58208 1.455206 0 .767291-.42333 1.296457-.39688.529166-1.16417.529166-.71437 0-1.16416-.47625-.44979-.502707-.44979-1.719789v-.449791h-4.7625v.661457q0 1.481665.42334 2.48708.42333 1.005416 1.21708 1.640415.82021.608541 1.98437.846666 1.19062.264583 2.72521.264583 3.25437 0 4.97416-1.349374 1.71979-1.375831 1.71979-4.392078 0-1.719789-.60855-2.778121-.58208-1.08479-1.48166-1.746248-.89958-.661457-1.93146-1.058332-1.03187-.423333-1.93145-.820207-.89958-.396875-1.50812-.92604-.58209-.555625-.58209-1.481665 0-.634999.37042-1.137707.37042-.529166 1.16416-.529166.71438 0 1.05834.608541.34395.582082.34395 1.428748z" style="font-weight:900;font-stretch:condensed;font-size:26.4583px;line-height:1.25;font-family:'Helvetica Neue';-inkscape-font-specification:'Helvetica Neue Heavy Condensed';text-align:center;letter-spacing:0;text-anchor:middle;fill:#999;fill-opacity:1;stroke-width:.264583" transform="translate(-618.122308 111.496089)"/><path d="M685.15807 15.228065q0-1.581149.0439-2.613288.0439-1.054099.17568-1.66899.15372-.614892.41725-.856456.28548-.241564.74665-.241564t.7247.241564q.28548.241564.41724.856456.15373.614891.19765 1.66899.0439 1.032139.0439 2.613288 0 1.581148-.0439 2.635248-.0439 1.032138-.19765 1.647029-.13176.614892-.41724.856456-.26353.241564-.7247.241564t-.74665-.241564q-.26353-.241564-.41725-.856456-.13176-.614891-.17568-1.647029-.0439-1.0541-.0439-2.635248zm-4.2164 0q0 2.19604.28549 3.755228.28548 1.537228.94429 2.525446.65882.966257 1.73488 1.383505 1.07605.417248 2.63524.417248t2.63525-.417248q1.07606-.417248 1.73487-1.383505.65881-.988218.9443-2.525446.28548-1.559188.28548-3.755228t-.28548-3.733268q-.28549-1.559189-.9443-2.525446-.65881-.988218-1.73487-1.427426-1.07606-.461169-2.63525-.461169t-2.63524.461169q-1.07606.439208-1.73488 1.427426-.65881.966257-.94429 2.525446-.28549 1.537228-.28549 3.733268zM693.62689 7.388202v15.679725h4.08463V16.61157h4.87521v-3.206219h-4.87521v-2.679168h5.20462V7.388202ZM706.24245 10.857945v12.209982h4.08464V10.857945h3.07445V7.388202h-10.18962v3.469743z" style="font-size:21.9604px;line-height:1.25;font-family:'Helvetica Neue';-inkscape-font-specification:'Helvetica Neue, Normal';text-align:center;letter-spacing:0;text-anchor:middle;fill:#999;fill-opacity:1;stroke-width:.264583" transform="translate(-618.122308 111.496089)"/><path d="M721.89675 9.627111h4.60375q0-3.042704-1.45521-4.418536-1.42875-1.40229-4.65666-1.40229-3.12208 0-4.65666 1.508123-1.53458 1.508123-1.53458 4.392078 0 1.666873.55562 2.698746.58208 1.031874 1.42875 1.666873.87312.635 1.87854 1.031874 1.00541.396875 1.85208.793749.87312.370416 1.42875.926041.58208.529166.58208 1.455206 0 .767291-.42333 1.296457-.39688.529166-1.16417.529166-.71437 0-1.16416-.47625-.44979-.502707-.44979-1.719789v-.449791h-4.7625v.661457q0 1.481665.42333 2.48708.42334 1.005416 1.21709 1.640415.8202.608541 1.98437.846666 1.19062.264583 2.7252.264583 3.25437 0 4.97416-1.349374 1.71979-1.375831 1.71979-4.392078 0-1.719789-.60854-2.778121-.58208-1.08479-1.48166-1.746248-.89958-.661457-1.93146-1.058332-1.03187-.423333-1.93145-.820207-.89959-.396875-1.50813-.92604-.58208-.555625-.58208-1.481665 0-.634999.37042-1.137707.37041-.529166 1.16416-.529166.71438 0 1.05833.608541.34396.582082.34396 1.428748z" style="font-weight:900;font-stretch:condensed;font-size:26.4583px;line-height:1.25;font-family:'Helvetica Neue';-inkscape-font-specification:'Helvetica Neue Heavy Condensed';text-align:center;letter-spacing:0;text-anchor:middle;fill:snow;stroke-width:.264583" transform="translate(-618.122308 111.496089)"/><path d="M731.25556 16.897055v6.170872h4.08464v-6.170872l3.99679-9.508853h-4.47992l-1.53723 5.468139h-.0439l-1.53723-5.468139h-4.41404zM746.06855 11.912044h3.8211q0-2.525446-1.20782-3.667387-1.18586-1.163901-3.86503-1.163901-2.59132 0-3.86503 1.251743-1.2737 1.251743-1.2737 3.645426 0 1.383506.46117 2.239961.48313.856456 1.18586 1.383505.72469.52705 1.55919.856456.83449.329406 1.53723.658812.72469.307446 1.18586.768614.48313.439208.48313 1.207822 0 .636851-.35137 1.076059-.32941.439208-.96626.439208-.59293 0-.96626-.395287-.37332-.417247-.37332-1.427426v-.373326h-3.95287v.549009q0 1.229783.35136 2.064278.35137.834495 1.01018 1.361545.68077.505089 1.64703.702733.98822.219604 2.26192.219604 2.70113 0 4.12856-1.119981 1.42742-1.141941 1.42742-3.645426 0-1.427426-.50509-2.305842-.48313-.900376-1.22978-1.449386-.74665-.54901-1.60311-.878416-.85645-.351367-1.60311-.680773-.74665-.329406-1.25174-.768614-.48313-.461168-.48313-1.229782 0-.52705.30745-.944297.30744-.439208.96625-.439208.59293 0 .87842.505089.28549.483129.28549 1.185861z" style="font-size:21.9604px;line-height:1.25;font-family:'Helvetica Neue';-inkscape-font-specification:'Helvetica Neue, Normal';text-align:center;letter-spacing:0;text-anchor:middle;fill:snow;fill-opacity:1;stroke-width:.264583" transform="translate(-618.122308 111.496089)"/></g><g style="display:inline" transform="rotate(12.823 238.84846055 -3297.78231846)"><ellipse style="display:inline;fill:none;stroke:snow;stroke-width:2.91703;stroke-miterlimit:4;stroke-dasharray:none;stroke-opacity:1;stop-color:#000" cx="829.05347" cy="12.646224" rx="54.979149" ry="33.923992"/><ellipse style="display:inline;fill:none;stroke:#e5e5e5;stroke-width:2.33363;stroke-miterlimit:4;stroke-dasharray:none;stroke-opacity:1;stop-color:#000" cx="848.1759" cy="12.646224" rx="33.923988" ry="20.910912"/><ellipse style="font-variation-settings:normal;display:inline;fill:none;fill-opacity:1;stroke:#c7c7c7;stroke-width:2.04192;stroke-linecap:butt;stroke-linejoin:miter;stroke-miterlimit:4;stroke-dasharray:none;stroke-dashoffset:0;stroke-opacity:1;stop-color:#000" cx="859.63733" cy="12.646224" rx="20.911013" ry="12.868281"/><ellipse style="font-variation-settings:normal;display:inline;fill:none;fill-opacity:1;stroke:#b5b5b5;stroke-width:1.45852;stroke-linecap:butt;stroke-linejoin:miter;stroke-miterlimit:4;stroke-dasharray:none;stroke-dashoffset:0;stroke-opacity:1;stop-color:#000" cx="866.45898" cy="12.646224" rx="12.868145" ry="7.8974104"/><ellipse style="font-variation-settings:normal;display:inline;fill:none;fill-opacity:1;stroke:#999;stroke-width:1.16681;stroke-linecap:butt;stroke-linejoin:miter;stroke-miterlimit:4;stroke-dasharray:none;stroke-dashoffset:0;stroke-opacity:1;stop-color:#000" cx="870.77356" cy="12.646224" rx="7.8973565" ry="4.7339783"/></g></g></g></svg>