<svg width="338pt" height="312.41684pt" viewBox="0 0 119.23889 110.21373" xmlns="http://www.w3.org/2000/svg"><defs><path id="b" d="M1600.6648 5530.2114h158.57976v94.550331H1600.6648z"/><path id="a" d="M157-13h55v40h-55z"/><path id="c" d="M157-13h55v40h-55z"/><path id="d" d="M1600.6648 5530.2114h158.57976v94.550331H1600.6648z"/><path id="e" d="M157-13h55v40h-55z"/><path id="f" d="M1600.6648 5530.2114h158.57976v94.550331H1600.6648z"/><path id="g" d="M157-13h55v40h-55z"/><path id="h" d="M1600.6648 5530.2114h158.57976v94.550331H1600.6648z"/><path id="i" d="M157-13h55v40h-55z"/><path id="j" d="M1600.6648 5530.2114h158.57976v94.550331H1600.6648z"/><path id="k" d="M157-13h55v40h-55z"/><path id="l" d="M1600.6648 5530.2114h158.57976v94.550331H1600.6648z"/><path id="m" d="M157-13h55v40h-55z"/><path id="n" d="M1600.6648 5530.2114h158.57976v94.550331H1600.6648z"/><path id="o" d="M157-13h55v40h-55z"/><path id="p" d="M1600.6648 5530.2114h158.57976v94.550331H1600.6648z"/></defs><g style="display:inline" transform="translate(-21.448568 -15.385749)"><text xml:space="preserve" transform="matrix(.26458 0 0 .26458 -151.33077 -2112.9399)" style="font-size:36px;line-height:1.25;font-family:Lato;-inkscape-font-specification:Lato;text-align:center;letter-spacing:0;white-space:pre;shape-inside:url(#o)"><tspan x="157" y="60.48"><tspan dx="0 20.882812 20.039062 14.484375 18.84375">Ehret</tspan></tspan></text><path d="M32.216965 97.244878h.984623v15.967102h-.984623zM36.019442 97.244878h6.400049q1.432179 0 2.394425.357807.962245.357806 1.544068.93924.581822.581442.827978 1.341779.268534.737976.268534 1.498316 0 .64852-.223778 1.22995-.223778.58143-.648956 1.0287-.402801.44725-.984623.76033-.559445.29072-1.253157.38017l.04475.0448q.156644-.0224.738467.13418.581823.15654 1.208402.60379.648955.4249 1.141267 1.2076.514689.76034.514689 1.96793 0 1.09578-.4028 1.92321-.402801.82743-1.141267 1.40886-.71609.55907-1.745469.84979-1.029378.29072-2.282535.29072h-6.40005zm6.400049 7.245572q2.03638 0 3.043381-.89451 1.007001-.91688 1.007001-2.39283 0-.87215-.335667-1.453585-.335667-.603796-.895112-.961603-.559445-.380168-1.297912-.53671-.71609-.156541-1.521691-.156541h-5.415426v6.395779zm0 7.87174q2.148269 0 3.35667-.89452 1.230779-.91687 1.230779-2.72827 0-1.02869-.425178-1.67722-.425179-.67088-1.096512-1.05105-.648957-.38017-1.476935-.51434-.805601-.15655-1.588824-.15655h-5.415426v7.02195z" style="font-weight:200;font-size:27.7812px;line-height:1.25;font-family:'Helvetica Neue';-inkscape-font-specification:'Helvetica Neue Ultra-Light';text-align:center;letter-spacing:0;text-anchor:middle;fill:#000;fill-opacity:1;stroke-width:.264583"/><path d="M51.054175 107.9567h-1.52169q-.06713 1.47595.380423 2.52701.469934 1.05105 1.320289 1.72194.850357.67088 2.058758 1.00633 1.208401.31308 2.618202.31308t2.416802-.26836q1.007001-.24599 1.678335-.64852.693711-.42489 1.074134-.93924.4028-.51435.6042-1.00634.223778-.51434.268533-.9616.06713-.44725.06713-.71561 0-.98397-.335667-1.67722-.313289-.69324-.895112-1.16286-.559445-.49198-1.32029-.80507-.738467-.33544-1.588823-.55907l-3.893737-.9616q-.492311-.11182-.939867-.29072-.425178-.1789-.760845-.46962t-.537067-.69325q-.179023-.42489-.179023-.98396 0-.89452.335667-1.498316.335667-.603804.872734-.96161.559445-.380169 1.275535-.536702.738467-.178904 1.52169-.178904.850356 0 1.611201.24599.783223.223627 1.365046.693251.6042.447254.962245 1.140501.380422.67089.425178 1.58777h1.52169q0-1.22996-.492311-2.146837-.469934-.939241-1.275535-1.565406-.8056-.626158-1.879735-.939241-1.074134-.313075-2.260157-.313075-1.678335 0-2.752469.491978-1.074134.469625-1.700713 1.162876-.6042.693244-.827978 1.475945-.223778.7827-.223778 1.36414 0 .93924.290911 1.58776.31329.64853.805602 1.09578.492311.44726 1.141267.71561.671334.26836 1.365045.44726l3.55807.87215q.559445.13418 1.141267.35781.581823.20127 1.051757.53671.492311.33545.783223.82742.313289.49199.313289 1.16288 0 .87215-.425178 1.49831-.425178.6038-1.074134 1.00633-.626579.38017-1.365046.55907-.738467.1789-1.365046.1789-1.096511 0-2.058757-.20126-.962245-.22363-1.678334-.71562-.693712-.49198-1.096513-1.3194-.402799-.82743-.380422-2.05739z" style="font-weight:300;font-size:27.7812px;line-height:1.25;font-family:'Helvetica Neue';-inkscape-font-specification:'Helvetica Neue Light';text-align:center;letter-spacing:0;text-anchor:middle;fill:#000;fill-opacity:1;stroke-width:.264583"/><path d="M64.496248 107.43341q0-.955.242959-1.86145.259156-.90644.777469-1.61865.53451-.72838 1.36057-1.16541.82606-.43704 1.976066-.43704t1.959869.43704q.82606.43703 1.344373 1.16541.534509.71221.777468 1.61865.259157.90645.259157 1.86145 0 .93881-.259157 1.86144-.242959.90645-.777468 1.63483-.518313.71221-1.344373 1.14924-.809863.43704-1.959869.43704t-1.976066-.43704q-.82606-.43703-1.36057-1.14924-.518313-.72838-.777469-1.63483-.242959-.92263-.242959-1.86144zm-1.101413 0q0 1.19779.340142 2.28229.340142 1.08449 1.020428 1.91.680284.82551 1.700712 1.32729 1.036625.4856 2.397195.4856t2.380997-.4856q1.020428-.50178 1.700713-1.32729.680285-.82551 1.020428-1.91.340142-1.0845.340142-2.28229 0-1.1978-.340142-2.28229-.340143-1.0845-1.020428-1.91001-.680285-.84169-1.700713-1.32729-1.020427-.50178-2.380997-.50178-1.36057 0-2.397195.50178-1.020428.4856-1.700712 1.32729-.680286.82551-1.020428 1.91001-.340142 1.08449-.340142 2.28229z" style="font-size:20.1083px;line-height:1.25;font-family:'Helvetica Neue';-inkscape-font-specification:'Helvetica Neue, Normal';text-align:center;letter-spacing:1.00542px;text-anchor:middle;fill:#000;fill-opacity:1;stroke:#000;stroke-width:.396875;stroke-miterlimit:4;stroke-dasharray:none;stroke-opacity:1"/><path d="M76.809968 101.65484v11.55714h1.101414v-5.5034h5.539464v-.93882h-5.539464v-4.1761h6.235947v-.93882zM85.088547 101.65484v.93882h4.016922v10.61832h1.101413v-10.61832h4.033119v-.93882z" style="font-size:20.1083px;line-height:1.25;font-family:'Helvetica Neue';-inkscape-font-specification:'Helvetica Neue, Normal';font-variation-settings:normal;text-align:center;letter-spacing:1.00542px;text-anchor:middle;vector-effect:none;fill:#000;fill-opacity:1;stroke:#000;stroke-width:.396875;stroke-linecap:butt;stroke-linejoin:miter;stroke-miterlimit:4;stroke-dasharray:none;stroke-dashoffset:0;stroke-opacity:1;-inkscape-stroke:none;stop-color:#000"/><path d="M97.306543 107.9567h-1.52169q-.06713 1.47595.380423 2.52701.469934 1.05105 1.32029 1.72194.850356.67088 2.058757 1.00633 1.208397.31308 2.618207.31308 1.4098 0 2.4168-.26836 1.007-.24599 1.67833-.64852.69371-.42489 1.07414-.93924.4028-.51435.6042-1.00634.22377-.51434.26853-.9616.0671-.44725.0671-.71561 0-.98397-.33567-1.67722-.31329-.69324-.89511-1.16286-.55944-.49198-1.32029-.80507-.73846-.33544-1.58882-.55907l-3.89374-.9616q-.492309-.11182-.939865-.29072-.425178-.1789-.760845-.46962t-.537067-.69325q-.179022-.42489-.179022-.98396 0-.89452.335667-1.498316.335667-.603804.872733-.96161.559445-.380169 1.275539-.536702.73846-.178904 1.52169-.178904.85035 0 1.6112.24599.78322.223627 1.36504.693251.6042.447254.96225 1.140501.38042.67089.42518 1.58777h1.52169q0-1.22996-.49232-2.146837-.46993-.939241-1.27553-1.565406-.8056-.626158-1.87973-.939241-1.07414-.313075-2.26016-.313075-1.67834 0-2.752471.491978-1.074134.469625-1.700713 1.162876-.6042.693244-.827978 1.475945-.223778.7827-.223778 1.36414 0 .93924.290912 1.58776.313288.64853.8056 1.09578.492312.44726 1.141268.71561.671334.26836 1.365045.44726l3.558065.87215q.55945.13418 1.14127.35781.58183.20127 1.05176.53671.49231.33545.78322.82742.31329.49199.31329 1.16288 0 .87215-.42518 1.49831-.42518.6038-1.07413 1.00633-.62658.38017-1.36505.55907-.73846.1789-1.36504.1789-1.09651 0-2.05876-.20126-.962245-.22363-1.678335-.71562-.693711-.49198-1.096512-1.3194-.4028-.82743-.380422-2.05739z" style="font-weight:300;font-size:27.7812px;line-height:1.25;font-family:'Helvetica Neue';-inkscape-font-specification:'Helvetica Neue Light';text-align:center;letter-spacing:0;text-anchor:middle;fill:#000;fill-opacity:1;stroke-width:.264583"/><path d="M113.48595 108.45315v4.75883h1.10142v-4.75883l4.56763-6.79831h-1.31198l-3.79016 5.8595-3.80636-5.8595h-1.29578zM121.49273 109.40816h-1.10142q-.0486 1.0683.27535 1.82907.34015.76076.95564 1.24636.6155.48559 1.49015.72839.87465.22661 1.89508.22661 1.02043 0 1.74931-.19424.72887-.17805 1.21479-.46941.50212-.30754.77747-.67983.29155-.37229.43733-.72839.16197-.37229.19436-.69602.0486-.32373.0486-.51797 0-.7122-.24296-1.21398-.22676-.50178-.64789-.8417-.40493-.3561-.95564-.58271-.53451-.24279-1.15-.40466l-2.81833-.69602q-.35634-.0809-.68028-.21042-.30775-.1295-.55071-.33992t-.38873-.50178q-.12958-.30754-.12958-.7122 0-.64746.24296-1.08449.24296-.43704.63169-.69602.40493-.27517.92324-.38848.53451-.12949 1.10142-.12949.6155 0 1.1662.17805.56691.16187.98803.50178.43733.32373.69649.82551.27535.48559.30775 1.14924h1.10141q0-.89025-.35634-1.5539-.34014-.67983-.92325-1.13305-.5831-.45323-1.36057-.67983-.77746-.22662-1.63592-.22662-1.21479 0-1.99226.3561-.77747.33992-1.23099.84171-.43733.50177-.5993 1.0683-.16198.56652-.16198.98737 0 .67984.21057 1.14924.22676.46941.5831.79314.35634.32373.82606.51796.48592.19424.98803.32374l2.57537.63127q.40493.0971.82606.25898.42113.14568.76127.38847.35634.24281.56691.59891.22676.3561.22676.84169 0 .63127-.30775 1.0845-.30775.43703-.77747.72838-.45352.27517-.98803.40467-.53451.12949-.98804.12949-.79366 0-1.49014-.14568-.69649-.16186-1.2148-.51797-.50211-.3561-.79366-.955-.29156-.5989-.27536-1.48915z" style="font-size:20.1083px;line-height:1.25;font-family:'Helvetica Neue';-inkscape-font-specification:'Helvetica Neue, Normal';font-variation-settings:normal;text-align:center;letter-spacing:1.00542px;text-anchor:middle;vector-effect:none;fill:#000;fill-opacity:1;stroke:#000;stroke-width:.396875;stroke-linecap:butt;stroke-linejoin:miter;stroke-miterlimit:4;stroke-dasharray:none;stroke-dashoffset:0;stroke-opacity:1;-inkscape-stroke:none;stop-color:#000"/><ellipse style="font-variation-settings:normal;display:inline;fill:none;fill-opacity:1;stroke:#000;stroke-width:1.32292;stroke-linecap:butt;stroke-linejoin:miter;stroke-miterlimit:4;stroke-dasharray:none;stroke-dashoffset:0;stroke-opacity:1;stop-color:#000" cx="80.922424" cy="57.965431" rx="48.043922" ry="29.504705"/><ellipse style="font-variation-settings:normal;display:inline;fill:none;fill-opacity:1;stroke:#000;stroke-width:1.32292;stroke-linecap:butt;stroke-linejoin:miter;stroke-miterlimit:4;stroke-dasharray:none;stroke-dashoffset:0;stroke-opacity:1;stop-color:#000" cx="98.836594" cy="57.965431" rx="29.427452" ry="17.969624"/><ellipse style="font-variation-settings:normal;display:inline;fill:none;fill-opacity:1;stroke:#000;stroke-width:1.05833;stroke-linecap:butt;stroke-linejoin:miter;stroke-miterlimit:4;stroke-dasharray:none;stroke-dashoffset:0;stroke-opacity:1;stop-color:#000" cx="109.79208" cy="57.965431" rx="17.921618" ry="10.840415"/><ellipse style="font-variation-settings:normal;display:inline;fill:none;fill-opacity:1;stroke:#000;stroke-width:1.05833;stroke-linecap:butt;stroke-linejoin:miter;stroke-miterlimit:4;stroke-dasharray:none;stroke-dashoffset:0;stroke-opacity:1;stop-color:#000" cx="116.49889" cy="57.965431" rx="10.810406" ry="6.4341874"/><ellipse style="font-variation-settings:normal;display:inline;fill:none;fill-opacity:1;stroke:#000;stroke-width:.79375;stroke-linecap:butt;stroke-linejoin:miter;stroke-miterlimit:4;stroke-dasharray:none;stroke-dashoffset:0;stroke-opacity:1;stop-color:#000" cx="120.64079" cy="57.965431" rx="6.4154959" ry="3.7110264"/></g></svg>