<svg width="882.73334" height="947.04626" viewBox="0 0 233.55645 250.5726" xmlns="http://www.w3.org/2000/svg"><defs><path id="c" d="M1600.6648 5530.2114h158.57976v94.550331H1600.6648z"/><path id="b" d="M157-13h55v40h-55z"/><filter style="color-interpolation-filters:sRGB" id="a" x="-.05642297" y="-.03515585" width="1.1128459" height="1.0703117"><feGaussianBlur stdDeviation="1.1384116"/></filter></defs><text xml:space="preserve" transform="matrix(.26458 0 0 .26458 78.583649 -2150.443)" style="font-size:36px;line-height:1.25;font-family:Lato;-inkscape-font-specification:Lato;text-align:center;letter-spacing:0;white-space:pre;shape-inside:url(#b)"><tspan x="157" y="60.48"><tspan dx="0 20.882812 20.039062 14.484375 18.84375">Ehret</tspan></tspan></text><g style="display:inline"><path style="display:inline;vector-effect:none;fill:#000;fill-opacity:.35;stroke-width:.828176;stroke-opacity:.968165;stop-color:#000" d="M191.70113 158.11958h233.55653v250.57266H191.70113Z" transform="translate(-191.70113 -158.11958)"/></g><g style="display:inline"><g style="display:inline;stroke-width:.95413"><path style="display:inline;fill:none;fill-opacity:1;stroke:#fff;stroke-width:2.27202;stroke-miterlimit:4;stroke-dasharray:none;stroke-opacity:1;stop-color:#000" d="M-132.42407 448.2864a13.08618 7.5675644 0 0 1-13.0861 7.56752 13.08618 7.5675644 0 0 1-13.0861-7.56752 13.08618 7.5675644 0 0 1 13.0861-7.56749 13.08618 7.5675644 0 0 1 13.0861 7.56749z" transform="matrix(.8487 0 0 .84919 305.443395 -304.50098)"/><path style="display:inline;fill:none;fill-opacity:1;stroke:#fff;stroke-width:2.77692;stroke-miterlimit:4;stroke-dasharray:none;stroke-opacity:1;stop-color:#000" d="M-130.24713 448.2864a22.072017 13.147164 0 0 1-22.0719 13.14707 22.072017 13.147164 0 0 1-22.0719-13.14707 22.072017 13.147164 0 0 1 22.0719-13.14704 22.072017 13.147164 0 0 1 22.0719 13.14704z" transform="matrix(.8487 0 0 .84919 305.443395 -304.50098)"/><path style="display:inline;fill:none;fill-opacity:1;stroke:#fff;stroke-width:3.2818;stroke-miterlimit:4;stroke-dasharray:none;stroke-opacity:1;stop-color:#000" d="M-127.49585 448.28639a37.060391 22.626378 0 0 1-37.0602 22.62622 37.060391 22.626378 0 0 1-37.0601-22.62622 37.060391 22.626378 0 0 1 37.0601-22.62616 37.060391 22.626378 0 0 1 37.0602 22.62616z" transform="matrix(.8487 0 0 .84919 305.443395 -304.50098)"/><path style="display:inline;fill:none;fill-opacity:1;stroke:#fff;stroke-width:3.78671;stroke-miterlimit:4;stroke-dasharray:none;stroke-opacity:1;stop-color:#000" d="M-124.06333 448.28638a61.7609 38.415188 0 0 1-61.7606 38.41491 61.7609 38.415188 0 0 1-61.7605-38.41491 61.7609 38.415188 0 0 1 61.7605-38.41483 61.7609 38.415188 0 0 1 61.7606 38.41483z" transform="matrix(.8487 0 0 .84919 305.443395 -304.50098)"/><path style="display:inline;fill:none;fill-opacity:1;stroke:#fff;stroke-width:4.2916;stroke-miterlimit:4;stroke-dasharray:none;stroke-opacity:1;stop-color:#000" d="M-120.1248 448.28634A102.17561 64.412905 0 0 1-222.3 512.69879a102.17561 64.412905 0 0 1-102.1749-64.41245A102.17561 64.412905 0 0 1-222.3 383.87404a102.17561 64.412905 0 0 1 102.1752 64.4123z" transform="matrix(.8487 0 0 .84919 305.443395 -304.50098)"/></g><path d="M-325.57922 572.56619q0-.6858-.51435-1.11442-.49291-.42863-1.26444-.77153-.75009-.36433-1.65019-.72866-.87869-.38576-1.65021-.92154-.75009-.55722-1.26444-1.3716-.49292-.81439-.49292-2.07883 0-1.09299.36433-1.88595.36433-.81438 1.02869-1.35016.68581-.53579 1.60735-.79296.92154-.25718 2.05739-.25718 1.30731 0 2.4646.23575 1.15729.21431 1.90738.64293l-.92155 2.4646q-.47148-.30004-1.41446-.53578-.94297-.25718-2.03597-.25718-1.02869 0-1.5859.4072-.53579.40718-.53579 1.09299 0 .64293.49292 1.07156.51435.42862 1.26444.79295.77153.36433 1.65021.75009.90011.38577 1.6502.94298.77153.53578 1.26444 1.35017.51435.79295.51435 1.9931t-.40719 2.07883q-.38576.85725-1.11442 1.43589-.70723.57865-1.73593.85725-1.00727.2786-2.22884.2786-1.60735 0-2.82893-.30003-1.22158-.30004-1.80022-.60007l.94297-2.50746q.23575.12859.60008.27861.38576.15002.85724.2786.47149.12859.98584.21431.53578.0857 1.093.0857 1.30729 0 1.9931-.42862.70722-.45006.70722-1.35017zM-319.5721 571.23745q0-2.72176 1.32873-4.17909 1.32874-1.47875 3.72904-1.47875 1.28587 0 2.22884.40719.94298.4072 1.56449 1.15729.6215.72866.92153 1.77879.32148 1.05013.32148 2.31457 0 2.72177-1.32874 4.20052-1.3073 1.45732-3.7076 1.45732-1.28588 0-2.22885-.40718-.94297-.4072-1.58591-1.13586-.62151-.75009-.94298-1.80022-.30003-1.05014-.30003-2.31458zm2.87178 0q0 .70724.12859 1.30731t.38576 1.05013q.25718.45005.66437.70723.42862.23574 1.00727.23574 1.09299 0 1.62877-.79296.53578-.79295.53578-2.50745 0-1.47875-.49292-2.37886-.49292-.92155-1.67163-.92155-1.0287 0-1.60735.77153-.57864.77152-.57864 2.52888zM-307.06932 565.87965h1.47875v-.60007q0-2.03597.85725-2.93608.85724-.92155 2.48602-.92155 1.7145 0 2.85035.4072l-.53578 2.22884q-.49292-.17144-.87868-.21431-.36433-.0643-.77152-.0643-.42862 0-.6858.12859-.23575.12858-.36434.40719-.10715.25718-.15001.66437-.0215.38576-.0215.90011h2.35743v2.35743h-2.35743v8.35818h-2.78606v-8.35816h-1.47875zM-298.78615 565.87965h1.47875v-2.01454l2.78606-.79295v2.80749h2.61461v2.35743h-2.61461v4.11479q0 1.11443.21431 1.60735.23575.47149.85725.47149.42863 0 .72867-.0857.32146-.0857.70723-.25717l.49291 2.14312q-.57864.2786-1.35016.47149-.77153.19287-1.56448.19287-1.47876 0-2.18598-.75009-.68581-.77152-.68581-2.50745v-5.40067h-1.47875zM-281.08329 565.87965l1.95024 5.48639.38577 1.77879h.0857l.30004-1.80022 1.3716-5.46496h2.55031l-3.30041 10.82277h-2.0574l-2.16455-6.00074-.2786-1.35018h-.10716l-.25718 1.3716-2.05739 5.97932h-2.12169l-3.45043-10.82277h3.0218l1.56449 5.37923.25717 1.90738h.10716l.36433-1.92881 1.77879-5.3578zM-271.74563 566.50115q.85725-.38576 2.03596-.60007 1.17872-.23575 2.4646-.23575 1.11442 0 1.86451.27861.75009.25717 1.17872.75009.45005.49292.62151 1.17872.19287.6858.19287 1.54305 0 .94297-.0643 1.90738-.0643.94297-.0857 1.86452 0 .92153.0643 1.80022.0643.85725.32147 1.62877h-2.27171l-.45005-1.47876h-.10716q-.42863.66437-1.20015 1.15729-.75009.47148-1.95024.47148-.75009 0-1.35017-.2143-.60007-.23575-1.0287-.64294-.42862-.42862-.66436-.98584-.23575-.57864-.23575-1.28587 0-.98584.42862-1.65021.45006-.68579 1.26445-1.09299.83582-.42862 1.97167-.57864 1.15728-.17145 2.57175-.10716.15002-1.20014-.17145-1.71449-.32147-.53579-1.43589-.53579-.83582 0-1.7788.17146-.92154.17145-1.52161.45005zm3.53615 7.97242q.83582 0 1.32874-.36434.49291-.38575.72866-.81438v-1.39303q-.66437-.0643-1.28588-.0215-.60007.0428-1.07155.19288-.4715.15001-.7501.42862t-.2786.70724q0 .60007.34289.94297.36433.32147.98584.32147zM-253.41992 568.49426q-.66437-.23575-1.20015-.23575-.75009 0-1.26444.4072-.49292.38576-.66437 1.00727v6.92228h-2.78606v-10.71561h2.16456l.32146 1.41446h.0857q.36433-.79296.98584-1.22158.6215-.42862 1.45732-.42862.55721 0 1.26444.23574zM-241.51354 575.67372q-.64293.51435-1.75736.87868-1.09298.34289-2.336.34289-2.59318 0-3.79332-1.50018-1.20015-1.52162-1.20015-4.15766 0-2.82892 1.35016-4.24338 1.35017-1.41446 3.79333-1.41446.81439 0 1.58591.21431.77153.21432 1.3716.70723.60007.49292.9644 1.32874.36433.83582.36433 2.07883 0 .45005-.0643.9644-.0429.51435-.15002 1.07157h-6.42937q.0643 1.35016.6858 2.03596.64293.6858 2.0574.6858.87868 0 1.56448-.25718.70723-.2786 1.07156-.5572zm-3.9862-7.86527q-1.093 0-1.62878.66437-.51434.64294-.6215 1.73593h3.98621q.0857-1.15728-.36433-1.77878-.42863-.62152-1.3716-.62152zM-233.05221 573.63775q0-.42862-.36434-.6858-.36433-.25717-.9001-.47149-.53579-.21431-1.17872-.42862-.64294-.23574-1.17872-.6215-.53578-.4072-.90012-1.00727-.36433-.62151-.36433-1.58592 0-1.5859.94298-2.42172.94297-.83582 2.72176-.83582 1.22159 0 2.20742.25717.98584.25718 1.54305.57865l-.62151 2.01454q-.49292-.19289-1.24301-.4072-.75009-.21432-1.52162-.21432-1.24301 0-1.24301.96441 0 .38577.36433.62151t.90012.45005q.53578.19289 1.17872.42863.64293.23574 1.17872.6215.53577.36433.9001.96441.36433.60008.36433 1.54305 0 1.62877-1.05012 2.57175-1.0287.92153-3.10754.92153-1.13585 0-2.14312-.30003-.98583-.27861-1.60734-.66437l.77153-2.07882q.49291.2786 1.3073.5572.81439.25718 1.67163.25718.62152 0 .98585-.23574.38576-.23575.38576-.79296zM-222.8322 571.90182l.38577 1.67164h.12858l.27861-1.69307 1.62877-6.00074h2.87178l-3.25754 9.66548q-.4072 1.20015-.79296 2.18599-.36433 1.00726-.81438 1.73592-.45006.72866-1.00727 1.11442-.53578.4072-1.28587.4072-1.11442 0-1.77879-.36433l.51435-2.22885q.32146.12858.64293.12858.49292 0 .94297-.42861.4715-.4072.70724-1.50019l-4.47913-10.71561h3.34327zM-210.32675 573.63775q0-.42862-.36432-.6858-.36433-.25717-.90012-.47149-.53577-.21431-1.17871-.42862-.64294-.23574-1.17872-.6215-.53578-.4072-.90011-1.00727-.36433-.62151-.36433-1.58592 0-1.5859.94298-2.42172.94297-.83582 2.72176-.83582 1.22157 0 2.20741.25717.98584.25718 1.54305.57865l-.62151 2.01454q-.49291-.19289-1.24301-.4072-.75009-.21432-1.52161-.21432-1.24301 0-1.24301.96441 0 .38577.36433.62151t.90011.45005q.53578.19289 1.17872.42863.64293.23574 1.17871.6215.53578.36433.90011.96441.36433.60008.36433 1.54305 0 1.62877-1.05012 2.57175-1.0287.92153-3.10753.92153-1.13586 0-2.14312-.30003-.98584-.27861-1.60734-.66437l.77152-2.07882q.49292.2786 1.3073.5572.81439.25718 1.67164.25718.6215 0 .98583-.23574.38576-.23575.38576-.79296zM-205.12162 565.87965h1.47875v-2.01454l2.78606-.79295v2.80749h2.61462v2.35743h-2.61462v4.11479q0 1.11443.21432 1.60735.23574.47149.85725.47149.42862 0 .72866-.0857.32146-.0857.70722-.25717l.49293 2.14312q-.57865.2786-1.35017.47149-.77153.19287-1.56448.19287-1.47876 0-2.18599-.75009-.6858-.77152-.6858-2.50745v-5.40067h-1.47875zM-186.35323 575.67372q-.64294.51435-1.75736.87868-1.09299.34289-2.336.34289-2.59318 0-3.79333-1.50018-1.20015-1.52162-1.20015-4.15766 0-2.82892 1.35017-4.24338t3.79333-1.41446q.81438 0 1.58591.21431.77152.21432 1.37159.70723.60008.49292.96441 1.32874.36433.83582.36433 2.07883 0 .45005-.0643.9644-.0429.51435-.15002 1.07157h-6.42937q.0643 1.35016.68581 2.03596.64293.6858 2.0574.6858.87868 0 1.56447-.25718.70724-.2786 1.07157-.5572zm-3.98621-7.86527q-1.09299 0-1.62877.66437-.51435.64294-.6215 1.73593h3.9862q.0857-1.15728-.36433-1.77878-.42863-.62152-1.3716-.62152zM-176.24169 576.59526v-5.82929q0-1.47876-.27861-2.10026-.27861-.62151-1.15729-.62151-.72866 0-1.17872.40719-.45005.38576-.68579 1.00727v7.1366h-2.78606v-10.71561h2.16455l.32147 1.41446h.0857q.49291-.6858 1.24301-1.20015.77152-.51435 1.97167-.51435 1.0287 0 1.67163.42863.66437.40719 1.0287 1.39303.49292-.83583 1.26445-1.32874.77151-.49292 1.86451-.49292.90011 0 1.52162.21431.64294.21432 1.0287.7501.40718.51434.60007 1.39302.19288.87868.19288 2.22885v6.42937h-2.78606v-6.02217q0-1.26444-.2786-1.88595-.25718-.64294-1.17872-.64294-.75009 0-1.20015.40719-.42862.4072-.64293 1.11443v7.02944zM-154.79575 575.67372q-.64293.51435-1.75735.87868-1.093.34289-2.33601.34289-2.59318 0-3.79333-1.50018-1.20014-1.52162-1.20014-4.15766 0-2.82892 1.35016-4.24338 1.35017-1.41446 3.79333-1.41446.81439 0 1.5859.21431.77153.21432 1.37161.70723.60007.49292.9644 1.32874.36433.83582.36433 2.07883 0 .45005-.0643.9644-.0429.51435-.15002 1.07157h-6.42937q.0643 1.35016.6858 2.03596.64293.6858 2.0574.6858.87868 0 1.56448-.25718.70723-.2786 1.07156-.5572zm-3.98621-7.86527q-1.09299 0-1.62877.66437-.51435.64294-.6215 1.73593h3.98621q.0857-1.15728-.36434-1.77878-.42862-.62152-1.3716-.62152z" style="font-weight:700;font-size:26.4583px;line-height:1.25;font-family:'PT Sans';-inkscape-font-specification:'PT Sans Bold';text-align:center;letter-spacing:2.11667px;text-anchor:middle;fill:#fff;fill-opacity:1;stroke-width:.238125" transform="translate(360.384025 -379.487226)"/><g aria-label="Ingenieurbüro" style="font-weight:700;font-size:26.4583px;line-height:1.25;font-family:'PT Sans';-inkscape-font-specification:'PT Sans Bold';text-align:center;letter-spacing:5.21229px;text-anchor:middle;display:inline;fill:#fff;fill-opacity:1;stroke-width:.293981"><path d="M-332.12578 539.49591h3.62479v18.52081h-3.62479zM-311.72229 558.01672v-7.51415q0-1.61396-.47625-2.32833-.44979-.71438-1.56104-.71438-.97895 0-1.66687.58208-.66146.55563-.9525 1.40229v8.57249h-3.43958v-13.22915h2.72521l.39687 1.74625h.10584q.60854-.84666 1.61395-1.48166 1.00542-.635 2.59291-.635.97896 0 1.74625.26458t1.29646.87312q.52917.60855.79375 1.66688.26458 1.03187.26458 2.56645v8.22853zM-288.99667 558.01672q0 2.88396-1.56104 4.23333-1.56104 1.37583-4.36562 1.37583-1.905 0-3.01625-.26458-1.08479-.26458-1.64041-.55562l.71437-2.72521q.60854.23813 1.40229.47625.82021.23813 2.01083.23813 1.79917 0 2.43417-.79375.66145-.76729.66145-2.16958v-.84667h-.10583q-.92604 1.24354-3.28083 1.24354-2.56645 0-3.83645-1.5875-1.24354-1.5875-1.24354-4.97416 0-3.54541 1.69333-5.37103 1.69333-1.82563 4.92124-1.82563 1.69333 0 3.01625.23813 1.34937.23812 2.19604.55562zm-5.82083-2.53999q1.00542 0 1.53458-.44979.55563-.4498.84667-1.34938v-5.95311q-.82021-.34396-2.03729-.34396-1.32291 0-2.06375 1.00541-.74083.97896-.74083 3.14854 0 1.93146.635 2.93687.635 1.00542 1.82562 1.00542zM-270.2336 556.87902q-.79374.635-2.16958 1.08479-1.34937.42333-2.88395.42333-3.20146 0-4.68312-1.85208-1.48166-1.87854-1.48166-5.13291 0-3.4925 1.66687-5.23874 1.66687-1.74625 4.68312-1.74625 1.00541 0 1.95791.26458.9525.26458 1.69333.87312.74083.60855 1.19063 1.64042.44979 1.03187.44979 2.56645 0 .55563-.0794 1.19063-.0529.635-.18521 1.32291h-7.93749q.0794 1.66688.84667 2.51354.79375.84667 2.54.84667 1.08479 0 1.93145-.3175.87313-.34396 1.32292-.68792zm-4.92124-9.7102q-1.34937 0-2.01083.82021-.635.79375-.76729 2.14312h4.92124q.10584-1.42875-.44979-2.19604-.52916-.76729-1.69333-.76729zM-254.07254 558.01672v-7.51415q0-1.61396-.47625-2.32833-.44979-.71438-1.56104-.71438-.97895 0-1.66687.58208-.66146.55563-.9525 1.40229v8.57249h-3.43958v-13.22915h2.72521l.39687 1.74625h.10584q.60854-.84666 1.61395-1.48166 1.00542-.635 2.59292-.635.97895 0 1.74624.26458t1.29646.87312q.52917.60855.79375 1.66688.26458 1.03187.26458 2.56645v8.22853zM-242.22128 544.78757h3.43958v13.22915h-3.43958zm-.50271-3.73062q0-.76729.55563-1.29645.58208-.55563 1.5875-.55563 1.00541 0 1.61395.55563.635.52916.635 1.29645 0 .76729-.635 1.29646-.60854.50271-1.61395.50271-1.00542 0-1.5875-.50271-.55563-.52917-.55563-1.29646zM-219.61183 556.87902q-.79375.635-2.16958 1.08479-1.34937.42333-2.88396.42333-3.20145 0-4.68311-1.85208-1.48167-1.87854-1.48167-5.13291 0-3.4925 1.66687-5.23874 1.66688-1.74625 4.68312-1.74625 1.00542 0 1.95792.26458.9525.26458 1.69333.87312.74083.60855 1.19062 1.64042t.44979 2.56645q0 .55563-.0794 1.19063-.0529.635-.18521 1.32291h-7.93749q.0794 1.66688.84666 2.51354.79375.84667 2.54.84667 1.08479 0 1.93146-.3175.87312-.34396 1.32291-.68792zm-4.92124-9.7102q-1.34938 0-2.01084.82021-.63499.79375-.76729 2.14312h4.92125q.10583-1.42875-.44979-2.19604-.52917-.76729-1.69333-.76729zM-208.23972 544.78757v7.51416q0 1.61396.37042 2.32833.39688.71438 1.50812.71438.97896 0 1.61396-.58209.66146-.58208.97896-1.42875v-8.54603h3.43958v9.20749q0 1.08479.10583 2.14312.10583 1.03188.3175 1.87854h-2.59291l-.60855-1.95791h-.10583q-.60854 1.00541-1.69333 1.66687-1.08479.66146-2.56645.66146-1.00542 0-1.79917-.26458-.79375-.26459-1.32291-.87313-.52917-.60854-.82021-1.64041-.26458-1.03188-.26458-2.59291v-8.22854zM-184.82122 548.01549q-.82021-.29104-1.48166-.29104-.92604 0-1.56104.5027-.60854.47625-.82021 1.24354v8.54603h-3.43958v-13.22915h2.67229l.39687 1.74625h.10584q.44979-.97896 1.21708-1.50812.76729-.52917 1.79916-.52917.68792 0 1.56104.29104zM-177.60967 539.49591h3.43958v6.35h.10583q.55563-.635 1.42875-1.00542.87312-.37042 1.93146-.37042 2.38124 0 3.62478 1.64042 1.27 1.61396 1.27 4.9477 0 3.57187-1.77271 5.42395-1.74624 1.85208-4.81541 1.85208-1.69333 0-3.09562-.29104-1.40229-.26458-2.11666-.60854zm5.9002 7.88458q-.9525 0-1.56104.5027-.58208.47625-.89958 1.40229v5.76791q.42333.21167.89958.29105.50271.0794 1.05833.0794 1.40229 0 2.11667-1.00542.74083-1.03187.74083-3.25437 0-3.78353-2.35479-3.78353zM-154.93077 544.78757v7.51416q0 1.61396.37042 2.32833.39687.71438 1.50812.71438.97896 0 1.61395-.58209.66146-.58208.97896-1.42875v-8.54603h3.43958v9.20749q0 1.08479.10583 2.14312.10584 1.03188.3175 1.87854h-2.59291l-.60854-1.95791h-.10583q-.60854 1.00541-1.69334 1.66687-1.08479.66146-2.56645.66146-1.00542 0-1.79916-.26458-.79375-.26459-1.32292-.87313-.52917-.60854-.82021-1.64041-.26458-1.03188-.26458-2.59291v-8.22854zm-2.48708-3.9952q0-.84667.50271-1.34937.52916-.50271 1.37583-.50271.84666 0 1.32291.50271.50271.5027.50271 1.34937 0 .79375-.50271 1.29646-.47625.5027-1.32291.5027-.84667 0-1.37583-.5027-.50271-.50271-.50271-1.29646zm5.79437 0q0-.84667.47625-1.34937.5027-.50271 1.34937-.50271.84666 0 1.34937.50271.52917.5027.52917 1.34937 0 .79375-.52917 1.29646-.50271.5027-1.34937.5027-.84667 0-1.34937-.5027-.47625-.50271-.47625-1.29646zM-131.51227 548.01549q-.82021-.29104-1.48167-.29104-.92604 0-1.56104.5027-.60854.47625-.82021 1.24354v8.54603h-3.43957v-13.22915h2.67228l.39688 1.74625h.10583q.44979-.97896 1.21708-1.50812.76729-.52917 1.79917-.52917.68791 0 1.56104.29104zM-124.93574 551.40215q0-3.36021 1.64041-5.15937 1.64042-1.82562 4.60375-1.82562 1.5875 0 2.75166.50271 1.16417.5027 1.93146 1.42874.76729.89959 1.1377 2.19604.39688 1.29646.39688 2.8575 0 3.3602-1.64042 5.18583-1.61395 1.79916-4.57728 1.79916-1.5875 0-2.75167-.50271-1.16416-.50271-1.95791-1.40229-.76729-.92604-1.16416-2.22249-.37042-1.29646-.37042-2.8575zm3.54541 0q0 .87312.15875 1.61396.15875.74083.47625 1.29645.3175.55563.82021.87313.52916.29104 1.24354.29104 1.34937 0 2.01083-.97896.66146-.97896.66146-3.09562 0-1.82562-.60854-2.93687-.60855-1.13771-2.06375-1.13771-1.27 0-1.98437.9525-.71438.9525-.71438 3.12208z" style="fill:#fff;fill-opacity:1;stroke-width:.293981" transform="matrix(.81 0 0 .81 296.841114 -291.802118)"/></g><g><path d="M-257.54024 537.88937h.82811v-.33605q0-1.14013.48006-1.64421.48006-.51606 1.39218-.51606.96012 0 1.5962.22803l-.30004 1.24816q-.27603-.096-.49206-.12002-.20403-.036-.43205-.036-.24004 0-.38405.072-.13202.072-.20403.22803-.06.14402-.084.37205-.012.21602-.012.50406h1.32017v1.32017h-1.32017v4.68059h-1.5602v-4.68059h-.8281zM-244.89289 537.88937v3.40843q0 .7321.16803 1.05614.18002.32404.68408.32404.44405 0 .7321-.26403.30003-.26404.44405-.64809v-3.87649h1.5602v4.17653q0 .49207.048.97212.048.46807.14402.85211h-1.17615l-.27604-.88811h-.048q-.27603.45606-.76809.7561-.49207.30003-1.16415.30003-.45606 0-.81611-.12001-.36004-.12002-.60007-.39605-.24003-.27604-.37205-.7441-.12002-.46805-.12002-1.17615v-3.73247zm-1.12814-1.81223q0-.38405.22803-.61208.24003-.22803.62408-.22803t.60007.22803q.22803.22803.22803.61208 0 .36005-.22803.58808-.21602.22802-.60007.22802t-.62408-.22802q-.22803-.22803-.22803-.58808zm2.62834 0q0-.38405.21602-.61208.22803-.22803.61208-.22803.38405 0 .61208.22803.24003.22803.24003.61208 0 .36005-.24003.58808-.22803.22802-.61208.22802-.38405 0-.61208-.22802-.21602-.22803-.21602-.58808zM-229.88368 539.35356q-.37205-.13202-.67208-.13202-.42006 0-.70809.22803-.27603.21602-.37205.56407v3.87649h-1.5602v-6.00076h1.21216l.18002.7921h.048q.20403-.44406.55207-.68409.34805-.24002.8161-.24002.31204 0 .7081.13201z" style="font-weight:700;font-size:14.8167px;line-height:1.25;font-family:'PT Sans';-inkscape-font-specification:'PT Sans Bold';text-align:center;letter-spacing:8.33438px;text-anchor:middle;fill:#fff;fill-opacity:1;stroke-width:.238125" transform="translate(360.384025 -366.37710171)"/></g><g aria-label="Dr.-Ing. Jürgen Ehret" style="font-size:13.2292px;line-height:1.25;font-family:'PT Sans';-inkscape-font-specification:'PT Sans';text-align:center;letter-spacing:3.28083px;text-anchor:middle;display:inline;stroke-width:.264583"><path d="M-332.03446 582.27887q.27781-.0397.62177-.0661.35719-.0265.72761-.0397.37041-.0132.71437-.0132.35719-.0132.63501-.0132 1.23031 0 2.10344.34396t1.41552.96574q.5424.62177.79375 1.48167.25136.85989.25136 1.89177 0 .93927-.23813 1.8124-.23812.87313-.79375 1.54782-.55562.67469-1.46844 1.08479-.89959.41011-2.23573.41011-.21167 0-.56886-.0132-.34396-.0132-.72761-.0397-.37041-.0132-.71437-.0397-.34396-.0132-.51594-.0397zm2.84428 1.48167q-.29105 0-.59532.0132-.29104.0132-.43656.0397v6.2045q.0529.0132.17198.0265.13229 0 .27781.0132.14552 0 .27781.0132h.19844q.7673 0 1.27001-.26459.51593-.27781.80698-.7276.30427-.4498.42333-1.03188.11906-.59532.11906-1.21709 0-.5424-.10583-1.08479-.10583-.55563-.39688-.99219-.27781-.43657-.76729-.71438t-1.24354-.27781zM-316.58959 586.53867q-.4101-.14552-.74083-.14552-.46303 0-.78053.25135-.30427.23813-.4101.62177v4.27304h-1.7198v-6.6146h1.33615l.19844.87312h.0529q.22489-.48948.60854-.75406.38365-.26458.89959-.26458.34395 0 .78052.14552zM-313.30855 590.66618q0-.46302.29104-.72761.29104-.27781.76729-.27781.50271 0 .79376.27781.29104.26459.29104.72761t-.29104.74083q-.29105.27782-.79376.27782-.47625 0-.76729-.27782-.29104-.27781-.29104-.74083zM-308.16365 586.97523h3.32053v1.52136h-3.32053zM-299.86399 582.27887h1.8124v9.26044h-1.8124zM-288.98753 591.53931v-3.7571q0-.80698-.23813-1.16417-.22489-.35718-.78052-.35718-.48948 0-.83344.29104-.33073.27781-.47625.70115v4.28626h-1.7198v-6.6146h1.36261l.19844.87312h.0529q.30427-.42333.80698-.74083t1.29646-.3175q.48948 0 .87313.13229.38364.13229.64823.43656.26458.30427.39687.83344.13229.51594.13229 1.28324v4.11428zM-276.95 591.53931q0 1.44198-.78053 2.11667-.78052.68792-2.18281.68792-.95251 0-1.50813-.13229-.5424-.1323-.82021-.27782l.35719-1.36261q.30427.11907.70114.23813.41011.11906 1.00542.11906.89959 0 1.21709-.39687.33073-.38365.33073-1.0848v-.42333h-.0529q-.46302.62177-1.64042.62177-1.28323 0-1.91823-.79375-.62178-.79375-.62178-2.48709 0-1.77271.84667-2.68553.84667-.91281 2.46063-.91281.84667 0 1.50813.11906.67469.11906 1.09803.27781zm-2.91043-1.27001q.50271 0 .7673-.22489.27781-.2249.42333-.67469v-2.97657q-.4101-.17198-1.01865-.17198-.66146 0-1.03188.50271-.37041.48948-.37041 1.57427 0 .96573.3175 1.46844t.91281.50271zM-272.38387 590.66618q0-.46302.29104-.72761.29104-.27781.76729-.27781.50271 0 .79375.27781.29105.26459.29105.72761t-.29105.74083q-.29104.27782-.79375.27782-.47625 0-.76729-.27782-.29104-.27781-.29104-.74083zM-258.93455 582.27887h1.8124v6.77335q0 .52916-.11906 1.00542-.11907.47625-.39688.84667-.26458.35718-.68792.58208-.42333.21167-1.03188.21167-.38364 0-.83344-.0794-.44979-.0794-.78052-.22489l.39688-1.48168q.34396.17198.78052.17198.55563 0 .70115-.4101.15875-.41011.15875-1.0848zM-250.56069 584.92471v3.75709q0 .80698.18521 1.16417.19844.35719.75406.35719.48948 0 .80699-.29105.33073-.29104.48948-.71437v-4.27303h1.71979v4.60376q0 .5424.0529 1.07156.0529.51594.15875.93928h-1.29646l-.30427-.97896h-.0529q-.30427.50271-.84667.83344-.5424.33073-1.28323.33073-.50271 0-.89959-.1323-.39687-.13229-.66146-.43656-.26458-.30427-.4101-.82021-.1323-.51594-.1323-1.29646v-4.11428zm-1.24354-1.99761q0-.42334.25135-.67469.26458-.25136.68792-.25136.42333 0 .66146.25136.25135.25135.25135.67469 0 .39687-.25135.64823-.23813.25135-.66146.25135-.42334 0-.68792-.25135-.25135-.25136-.25135-.64823zm2.89719 0q0-.42334.23813-.67469.25135-.25136.67469-.25136.42333 0 .67468.25136.26459.25135.26459.67469 0 .39687-.26459.64823-.25135.25135-.67468.25135-.42334 0-.67469-.25135-.23813-.25136-.23813-.64823zM-238.17672 586.53867q-.41011-.14552-.74084-.14552-.46302 0-.78052.25135-.30427.23813-.4101.62177v4.27304h-1.7198v-6.6146h1.33615l.19844.87312h.0529q.2249-.48948.60855-.75406.38364-.26458.89958-.26458.34396 0 .78053.14552zM-228.30031 591.53931q0 1.44198-.78052 2.11667-.78053.68792-2.18282.68792-.9525 0-1.50813-.13229-.5424-.1323-.82021-.27782l.35719-1.36261q.30427.11907.70115.23813.4101.11906 1.00541.11906.89959 0 1.21709-.39687.33073-.38365.33073-1.0848v-.42333h-.0529q-.46302.62177-1.64042.62177-1.28323 0-1.91823-.79375-.62177-.79375-.62177-2.48709 0-1.77271.84667-2.68553.84666-.91281 2.46063-.91281.84667 0 1.50813.11906.67469.11906 1.09802.27781zm-2.91042-1.27001q.50271 0 .76729-.22489.27781-.2249.42333-.67469v-2.97657q-.4101-.17198-1.01864-.17198-.66146 0-1.03188.50271-.37042.48948-.37042 1.57427 0 .96573.3175 1.46844t.91282.50271zM-218.24406 590.97045q-.39688.3175-1.0848.5424-.67469.21167-1.44198.21167-1.60073 0-2.34157-.92605-.74083-.93927-.74083-2.56646 0-1.74626.83344-2.61939.83344-.87312 2.34156-.87312.50271 0 .97897.13229.47625.13229.84666.43656.37042.30427.59532.82021.22489.51594.22489 1.28324 0 .27781-.0397.59531-.0265.3175-.0926.66146h-3.96876q.0397.83344.42334 1.25677.39687.42334 1.27.42334.5424 0 .96573-.15875.43657-.17198.66146-.34396zm-2.46063-4.85512q-.67469 0-1.00542.41011-.3175.39688-.38365 1.07156h2.46063q.0529-.71437-.2249-1.09802-.26458-.38365-.84666-.38365zM-209.48882 591.53931v-3.7571q0-.80698-.23813-1.16417-.22489-.35718-.78052-.35718-.48948 0-.83344.29104-.33073.27781-.47625.70115v4.28626h-1.7198v-6.6146h1.36261l.19844.87312h.0529q.30427-.42333.80698-.74083t1.29646-.3175q.48948 0 .87313.13229.38364.13229.64823.43656.26458.30427.39687.83344.1323.51594.1323 1.28324v4.11428zM-196.36776 582.27887h5.49012v1.61396h-3.67772v2.15636h3.34699v1.61396h-3.34699v2.26219h3.74386v1.61397h-5.55626zM-182.17965 591.53931v-3.7571q0-.80698-.2249-1.16417-.2249-.35718-.82021-.35718-.43657 0-.80698.30427-.35719.29104-.47625.75406v4.22012h-1.7198v-9.26044h1.7198v3.38667h.0529q.3175-.42333.78053-.67469.46302-.25135 1.17739-.25135.50271 0 .88636.13229.38365.13229.635.43656.26459.30427.38365.83344.13229.51594.13229 1.28324v4.11428zM-172.08682 586.53867q-.4101-.14552-.74083-.14552-.46302 0-.78052.25135-.30427.23813-.41011.62177v4.27304h-1.71979v-6.6146h1.33614l.19844.87312h.0529q.2249-.48948.60854-.75406.38365-.26458.89959-.26458.34396 0 .78052.14552zM-162.51468 590.97045q-.39687.3175-1.08479.5424-.67469.21167-1.44198.21167-1.60074 0-2.34157-.92605-.74084-.93927-.74084-2.56646 0-1.74626.83344-2.61939.83344-.87312 2.34157-.87312.50271 0 .97896.13229.47625.13229.84667.43656.37042.30427.59531.82021.2249.51594.2249 1.28324 0 .27781-.0397.59531-.0265.3175-.0926.66146h-3.96876q.0397.83344.42333 1.25677.39688.42334 1.27001.42334.54239 0 .96573-.15875.43656-.17198.66146-.34396zm-2.46063-4.85512q-.67469 0-1.00542.41011-.3175.39688-.38364 1.07156h2.46063q.0529-.71437-.2249-1.09802-.26458-.38365-.84667-.38365zM-158.4955 584.92471h.91282v-1.24355l1.71979-.48948v1.73303h1.61397v1.45521h-1.61397v2.54q0 .68792.1323.99219.14552.29105.52916.29105.26459 0 .4498-.0529.19844-.0529.43656-.15875l.30427 1.32292q-.35719.17198-.83344.29104-.47625.11907-.96573.11907-.91281 0-1.34938-.46303-.42333-.47625-.42333-1.54781v-3.33376h-.91282z" style="font-weight:700;-inkscape-font-specification:'PT Sans Bold';fill:#fff" transform="translate(359.800895 -363.428297)"/></g></g></svg>