<svg xmlns="http://www.w3.org/2000/svg" width="390" height="310" viewBox="0 0 103.1875 82.020839"><defs><path id="b" d="M1600.6648 5530.2114h158.57976v94.550331H1600.6648z"/><path id="a" d="M157-13h55v40h-55z"/><path id="c" d="M157-13h55v40h-55z"/><path id="d" d="M1600.6648 5530.2114h158.57976v94.550331H1600.6648z"/><path id="e" d="M157-13h55v40h-55z"/><path id="f" d="M1600.6648 5530.2114h158.57976v94.550331H1600.6648z"/><path id="g" d="M157-13h55v40h-55z"/><path id="h" d="M1600.6648 5530.2114h158.57976v94.550331H1600.6648z"/><path id="i" d="M157-13h55v40h-55z"/><path id="j" d="M1600.6648 5530.2114h158.57976v94.550331H1600.6648z"/><path id="k" d="M157-13h55v40h-55z"/><path id="l" d="M1600.6648 5530.2114h158.57976v94.550331H1600.6648z"/><path id="m" d="M157-13h55v40h-55z"/><path id="n" d="M1600.6648 5530.2114h158.57976v94.550331H1600.6648z"/><path id="o" d="M157-13h55v40h-55z"/><path id="p" d="M1600.6648 5530.2114h158.57976v94.550331H1600.6648z"/></defs><g style="display:inline"><path d="M.37478115 69.714934h.98462195v15.966983H.37478115Z" style="font-weight:200;font-size:27.7812px;line-height:1.25;font-family:&quot;Helvetica Neue&quot;;-inkscape-font-specification:&quot;Helvetica Neue Ultra-Light&quot;;text-align:center;letter-spacing:0;text-anchor:middle;fill:#000;fill-opacity:1;stroke:none;stroke-width:.265;stroke-miterlimit:4;stroke-dasharray:none;stroke-opacity:1" transform="translate(2.5135691 -6.7687178)"/><path d="M4.1772551 69.714934H10.5773q1.432179 0 2.394423.357804.962245.357804 1.544067.939233.581823.581438.827978 1.34177.268534.737976.268534 1.498306 0 .64851-.223778 1.22994t-.648956 1.02869q-.4028.44725-.984622.76034-.559445.2907-1.253156.38016l.04475.0448q.156644-.0224.738467.13418.581822.15655 1.2084.60379.648955.4249 1.141267 1.20759.514688.76033.514688 1.96792 0 1.09578-.402799 1.9232-.402801.82742-1.141267 1.40885-.716089.55907-1.745467.84979-1.029378.29071-2.282534.29071H4.1772501ZM10.5773 76.960457q2.036379 0 3.043379-.8945 1.007-.91688 1.007-2.39282 0-.87215-.335666-1.453575-.335667-.603791-.895112-.961595-.559444-.380166-1.297911-.536706-.716089-.156541-1.52169-.156541H5.1618781v6.395737zm0 7.87168q2.148268 0 3.356668-.8945 1.230778-.91688 1.230778-2.72827 0-1.02868-.425178-1.6772-.425178-.67088-1.096511-1.05105-.648956-.38017-1.476934-.51434-.8056-.15654-1.588823-.15654H5.1618781v7.0219z" style="font-weight:200;font-size:27.7812px;line-height:1.25;font-family:&quot;Helvetica Neue&quot;;-inkscape-font-specification:&quot;Helvetica Neue Ultra-Light&quot;;text-align:center;letter-spacing:0;text-anchor:middle;fill:#000;fill-opacity:1;stroke:none;stroke-width:.264583;stroke-opacity:1" transform="translate(2.5135691 -6.7687178)"/><path d="M19.211979 80.426677h-1.52169q-.06713 1.47594.380423 2.52699.469933 1.05104 1.320289 1.72193.850356.67088 2.058756 1.00632 1.2084.31308 2.6182.31308t2.4168-.26835q1.007001-.246 1.678334-.64852.693711-.42489 1.074134-.93924.402799-.51434.6042-1.00632.223777-.51434.268533-.9616.06713-.44725.06713-.71561 0-.98396-.335667-1.6772-.313289-.69324-.895111-1.16286-.559444-.49198-1.320289-.80506-.738466-.33543-1.588822-.55906l-3.893734-.96159q-.492311-.11183-.939867-.29073-.425178-.17889-.760844-.46961-.335667-.29071-.537067-.69325-.179023-.42488-.179023-.98395 0-.89451.335667-1.498306.335666-.603792.872733-.961596.559445-.380174 1.275534-.536698.738467-.178902 1.521689-.178902.850356 0 1.611201.245987.783222.223626 1.365044.693247.6042.447251.962245 1.140498.380422.67088.425177 1.58775h1.52169q0-1.22995-.492311-2.146818-.469934-.939234-1.275534-1.565395-.8056-.626153-1.879734-.939234-1.074133-.313073-2.260156-.313073-1.678333 0-2.752467.491975-1.074133.469621-1.700711 1.162867-.6042.693239-.827978 1.475928-.223778.78271-.223778 1.36414 0 .93923.290911 1.58774.313289.64853.805601 1.09578.492311.44726 1.141267.71561.671333.26835 1.365044.44725l3.558067.87215q.559445.13417 1.141267.3578.581822.20126 1.051756.53671.492311.33544.783222.82741.313289.49199.313289 1.16287 0 .87214-.425178 1.4983-.425178.60379-1.074133 1.00632-.626578.38017-1.365045.55907-.738467.1789-1.365045.1789-1.096511 0-2.058755-.20126-.962245-.22363-1.678334-.71562-.693711-.49197-1.096511-1.3194-.4028-.82741-.380422-2.05737z" style="font-weight:300;font-size:27.7812px;line-height:1.25;font-family:&quot;Helvetica Neue&quot;;-inkscape-font-specification:&quot;Helvetica Neue Light&quot;;text-align:center;letter-spacing:0;text-anchor:middle;fill:#000;fill-opacity:1;stroke:none;stroke-width:.264583;stroke-opacity:1" transform="translate(2.5135691 -6.7687178)"/><path d="M32.654043 79.903387q0-.95499.242958-1.86143.259156-.90642.777469-1.61863.534509-.72839 1.360569-1.16542.826059-.43702 1.976064-.43702 1.150006 0 1.959868.43702.82606.43703 1.344372 1.16542.534509.71221.777468 1.61863.259156.90644.259156 1.86143 0 .93881-.259156 1.86143-.242959.90644-.777468 1.63482-.518312.71221-1.344372 1.14923-.809862.43703-1.959868.43703-1.150005 0-1.976064-.43703-.82606-.43702-1.360569-1.14923-.518313-.72838-.777469-1.63482-.242958-.92262-.242958-1.86143zm-1.101413 0q0 1.19779.340142 2.28228.340142 1.08448 1.020427 1.90999.680284.8255 1.700711 1.32728 1.036624.48559 2.397193.48559 1.36057 0 2.380996-.48559 1.020427-.50178 1.700712-1.32728.680284-.82551 1.020426-1.90999.340143-1.08449.340143-2.28228 0-1.19779-.340143-2.28226-.340142-1.08449-1.020426-1.91-.680285-.84168-1.700712-1.32727-1.020426-.50179-2.380996-.50179-1.360569 0-2.397193.50179-1.020427.48559-1.700711 1.32727-.680285.82551-1.020427 1.91-.340142 1.08447-.340142 2.28226z" style="font-size:20.1083px;line-height:1.25;font-family:&quot;Helvetica Neue&quot;;-inkscape-font-specification:&quot;Helvetica Neue, Normal&quot;;text-align:center;letter-spacing:1.00542px;text-anchor:middle;fill:#000;fill-opacity:1;stroke:#000;stroke-width:.396875;stroke-miterlimit:4;stroke-dasharray:none;stroke-opacity:1" transform="translate(2.5135691 -6.7687178)"/><path d="M44.967754 74.124877v11.55704h1.101413v-5.50335h5.539461v-.93881h-5.539461v-4.17608h6.235943v-.9388zM53.246328 74.124877v.9388h4.016918v10.61824h1.101413v-10.61824h4.033117v-.9388z" style="font-size:20.1083px;line-height:1.25;font-family:&quot;Helvetica Neue&quot;;-inkscape-font-specification:&quot;Helvetica Neue, Normal&quot;;font-variation-settings:normal;text-align:center;letter-spacing:1.00542px;text-anchor:middle;vector-effect:none;fill:#000;fill-opacity:1;stroke:#000;stroke-width:.396875;stroke-linecap:butt;stroke-linejoin:miter;stroke-miterlimit:4;stroke-dasharray:none;stroke-dashoffset:0;stroke-opacity:1;-inkscape-stroke:none;stop-color:#000" transform="translate(2.5135691 -6.7687178)"/><path d="M65.464316 80.426677h-1.52169q-.06713 1.47594.380423 2.52699.469933 1.05104 1.320289 1.72193.850356.67088 2.058756 1.00632 1.208399.31308 2.618199.31308 1.4098 0 2.4168-.26835 1.007-.246 1.67834-.64852.69371-.42489 1.07413-.93924.4028-.51434.6042-1.00632.22378-.51434.26853-.9616.0671-.44725.0671-.71561 0-.98396-.33566-1.6772-.31329-.69324-.89512-1.16286-.55944-.49198-1.32028-.80506-.73847-.33543-1.58883-.55906l-3.89373-.96159q-.492311-.11183-.939867-.29073-.425178-.17889-.760845-.46961-.335666-.29071-.537067-.69325-.179021-.42488-.179021-.98395 0-.89451.335666-1.498306.335667-.603792.872733-.961596.559445-.380174 1.275531-.536698.73847-.178902 1.52169-.178902.85036 0 1.6112.245987.78322.223626 1.36505.693247.6042.447251.96224 1.140498.38042.67088.42518 1.58775h1.52169q0-1.22995-.49231-2.146818-.46994-.939234-1.27554-1.565395-.8056-.626153-1.87973-.939234-1.07413-.313073-2.26016-.313073-1.67833 0-2.752462.491975-1.074134.469621-1.700712 1.162867-.6042.693239-.827978 1.475928-.223778.78271-.223778 1.36414 0 .93923.290912 1.58774.313288.64853.8056 1.09578.492311.44726 1.141266.71561.671334.26835 1.365045.44725l3.558067.87215q.55944.13417 1.14127.3578.58182.20126 1.05175.53671.49231.33544.78323.82741.31328.49199.31328 1.16287 0 .87214-.42517 1.4983-.42518.60379-1.07414 1.00632-.62657.38017-1.36504.55907-.73847.1789-1.36505.1789-1.09651 0-2.05875-.20126-.962247-.22363-1.678336-.71562-.693711-.49197-1.096512-1.3194-.402799-.82741-.380422-2.05737z" style="font-weight:300;font-size:27.7812px;line-height:1.25;font-family:&quot;Helvetica Neue&quot;;-inkscape-font-specification:&quot;Helvetica Neue Light&quot;;text-align:center;letter-spacing:0;text-anchor:middle;fill:#000;fill-opacity:1;stroke:none;stroke-width:.264583;stroke-opacity:1" transform="translate(2.5135691 -6.7687178)"/><path d="M81.643713 80.923137v4.75878h1.10142v-4.75878l4.56762-6.79826h-1.31198l-3.79015 5.85944-3.80636-5.85944h-1.29578zM89.650483 81.878127h-1.10141q-.0486 1.06831.27535 1.82906.34014.76076.95564 1.24635.61549.48559 1.49014.72838.87466.22661 1.89508.22661 1.02043 0 1.74931-.19424.72887-.17805 1.21479-.46939.50211-.30755.77747-.67984.29155-.37228.43732-.72838.16198-.37229.19437-.69602.0486-.32373.0486-.51796 0-.7122-.24296-1.21398-.22676-.50178-.64789-.84169-.40493-.35609-.95564-.58271-.53451-.24279-1.15-.40466l-2.81833-.696q-.35633-.0809-.68028-.21043-.30775-.12949-.55071-.33992-.24295-.21041-.38873-.50177-.12958-.30754-.12958-.7122 0-.64745.24296-1.08448.24296-.43704.63169-.69602.40493-.27516.92325-.38847.53451-.12949 1.10141-.12949.6155 0 1.1662.17805.56691.16187.98803.50178.43733.32373.69649.8255.27535.48559.30774 1.14923h1.10142q0-.89025-.35634-1.55389-.34014-.67982-.92325-1.13304-.5831-.45322-1.36057-.67983-.77746-.22661-1.63592-.22661-1.21479 0-1.99226.3561-.77747.33992-1.23099.84169-.43733.50178-.5993 1.0683-.16197.56652-.16197.98737 0 .67983.21056 1.14923.22676.4694.5831.79313.35634.32372.82606.51796.48592.19424.98804.32373l2.57536.63127q.40493.0971.82606.25898.42113.14568.76127.38847.35634.2428.5669.5989.22677.35609.22677.84168 0 .63127-.30775 1.08449-.30775.43703-.77747.72839-.45352.27516-.98803.40466-.53451.12948-.98804.12948-.79366 0-1.49014-.14567-.69648-.16186-1.2148-.51797-.50211-.3561-.79366-.95499-.29155-.59889-.27535-1.48914z" style="font-size:20.1083px;line-height:1.25;font-family:&quot;Helvetica Neue&quot;;-inkscape-font-specification:&quot;Helvetica Neue, Normal&quot;;font-variation-settings:normal;text-align:center;letter-spacing:1.00542px;text-anchor:middle;vector-effect:none;fill:#000;fill-opacity:1;stroke:#000;stroke-width:.396875;stroke-linecap:butt;stroke-linejoin:miter;stroke-miterlimit:4;stroke-dasharray:none;stroke-dashoffset:0;stroke-opacity:1;-inkscape-stroke:none;stop-color:#000" transform="translate(2.5135691 -6.7687178)"/><ellipse cx="51.593781" cy="30.026939" rx="43.282249" ry="26.550606" style="font-variation-settings:normal;display:inline;fill:none;fill-opacity:1;stroke:#000;stroke-width:1.5875;stroke-linecap:butt;stroke-linejoin:miter;stroke-miterlimit:4;stroke-dasharray:none;stroke-dashoffset:0;stroke-opacity:1;stop-color:#000"/><ellipse cx="67.019264" cy="30.026939" rx="26.510872" ry="16.17045" style="font-variation-settings:normal;display:inline;fill:none;fill-opacity:1;stroke:#000;stroke-width:1.32292;stroke-linecap:butt;stroke-linejoin:miter;stroke-miterlimit:4;stroke-dasharray:none;stroke-dashoffset:0;stroke-opacity:1;stop-color:#000"/><ellipse cx="76.28009" cy="30.026939" rx="16.145391" ry="9.7550411" style="font-variation-settings:normal;display:inline;fill:none;fill-opacity:1;stroke:#000;stroke-width:1.05833;stroke-linecap:butt;stroke-linejoin:miter;stroke-miterlimit:4;stroke-dasharray:none;stroke-dashoffset:0;stroke-opacity:1;stop-color:#000"/><ellipse cx="81.766106" cy="30.026939" rx="9.7389774" ry="5.7899771" style="font-variation-settings:normal;display:inline;fill:none;fill-opacity:1;stroke:#000;stroke-width:.926042;stroke-linecap:butt;stroke-linejoin:miter;stroke-miterlimit:4;stroke-dasharray:none;stroke-dashoffset:0;stroke-opacity:1;stop-color:#000"/><ellipse cx="84.930321" cy="30.026939" rx="5.7796507" ry="3.3394673" style="font-variation-settings:normal;display:inline;fill:none;fill-opacity:1;stroke:#000;stroke-width:.79375;stroke-linecap:butt;stroke-linejoin:miter;stroke-miterlimit:4;stroke-dasharray:none;stroke-dashoffset:0;stroke-opacity:1;stop-color:#000"/><ellipse cx="86.91993" cy="30.026939" rx="3.1086199" ry="1.7900585" style="font-variation-settings:normal;display:inline;fill:none;fill-opacity:1;stroke:#000;stroke-width:.661458;stroke-linecap:butt;stroke-linejoin:miter;stroke-miterlimit:4;stroke-dasharray:none;stroke-dashoffset:0;stroke-opacity:1;stop-color:#000"/><ellipse cx="88.214539" cy="30.026939" rx="1.2934215" ry=".68038863" style="font-variation-settings:normal;display:inline;fill:none;fill-opacity:1;stroke:#000;stroke-width:.555625;stroke-linecap:butt;stroke-linejoin:miter;stroke-miterlimit:4;stroke-dasharray:none;stroke-dashoffset:0;stroke-opacity:1;stop-color:#000"/></g></svg>