<svg width="543.03839" height="543.03839" viewBox="0 0 143.67886 143.67887" xmlns:xlink="http://www.w3.org/1999/xlink" xmlns="http://www.w3.org/2000/svg"><defs><radialGradient xlink:href="#a" id="o" cx="70.680351" cy="105.33943" fx="70.680351" fy="105.33943" r="52.584085" gradientTransform="matrix(-.00326 -.96413 .92264 -.00312 -29.955509 181.32131)" gradientUnits="userSpaceOnUse"/><radialGradient xlink:href="#b" id="p" gradientUnits="userSpaceOnUse" gradientTransform="matrix(.0049 -.99074 .76587 .0038 10.75974 388.06848)" cx="276.96179" cy="71.620445" fx="276.96179" fy="71.620445" r="52.584084"/><radialGradient xlink:href="#c" id="q" gradientUnits="userSpaceOnUse" gradientTransform="matrix(.0049 -.99074 .76587 .0038 10.75974 388.06848)" cx="276.96179" cy="71.620445" fx="276.96179" fy="71.620445" r="52.584084"/><radialGradient xlink:href="#d" id="r" gradientUnits="userSpaceOnUse" gradientTransform="matrix(.0049 -.99074 .76587 .0038 10.75974 388.06848)" cx="276.96179" cy="71.620445" fx="276.96179" fy="71.620445" r="52.584084"/><radialGradient xlink:href="#e" id="s" gradientUnits="userSpaceOnUse" gradientTransform="matrix(.0049 -.99074 .76587 .0038 10.75974 388.06848)" cx="276.96179" cy="71.620445" fx="276.96179" fy="71.620445" r="52.584084"/><radialGradient xlink:href="#f" id="t" gradientUnits="userSpaceOnUse" gradientTransform="matrix(.0049 -.99074 .76587 .0038 10.75974 388.06848)" cx="276.96179" cy="71.620445" fx="276.96179" fy="71.620445" r="52.584084"/><radialGradient xlink:href="#g" id="u" gradientUnits="userSpaceOnUse" gradientTransform="matrix(.0049 -.99074 .76587 .0038 10.75974 388.06848)" cx="276.96179" cy="71.620445" fx="276.96179" fy="71.620445" r="52.584084"/><radialGradient xlink:href="#h" id="v" gradientUnits="userSpaceOnUse" gradientTransform="matrix(.0049 -.99074 .76587 .0038 10.75974 388.06848)" cx="276.96179" cy="71.620445" fx="276.96179" fy="71.620445" r="52.584084"/><radialGradient xlink:href="#i" id="w" gradientUnits="userSpaceOnUse" gradientTransform="matrix(.0049 -.99074 .76587 .0038 10.75974 388.06848)" cx="276.96179" cy="71.620445" fx="276.96179" fy="71.620445" r="52.584084"/><radialGradient xlink:href="#j" id="x" gradientUnits="userSpaceOnUse" gradientTransform="matrix(.0049 -.99074 .76587 .0038 10.75974 388.06848)" cx="276.96179" cy="71.620445" fx="276.96179" fy="71.620445" r="52.584084"/><radialGradient xlink:href="#k" id="y" cx="71.839455" cy="112.1566" fx="71.839455" fy="112.1566" r="52.584085" gradientTransform="matrix(-.00257 -1 .90295 -.00232 -29.247394 184.25578)" gradientUnits="userSpaceOnUse"/><linearGradient id="k"><stop style="stop-color:#646464;stop-opacity:1" offset="0"/><stop style="stop-color:#bebebe;stop-opacity:1" offset="1"/></linearGradient><linearGradient id="c"><stop style="stop-color:#999;stop-opacity:1" offset="0"/><stop style="stop-color:snow;stop-opacity:1" offset="1"/></linearGradient><linearGradient id="d"><stop style="stop-color:#999;stop-opacity:1" offset="0"/><stop style="stop-color:snow;stop-opacity:1" offset="1"/></linearGradient><linearGradient id="e"><stop style="stop-color:#999;stop-opacity:1" offset="0"/><stop style="stop-color:snow;stop-opacity:1" offset="1"/></linearGradient><linearGradient id="f"><stop style="stop-color:#999;stop-opacity:1" offset="0"/><stop style="stop-color:snow;stop-opacity:1" offset="1"/></linearGradient><linearGradient id="g"><stop style="stop-color:#999;stop-opacity:1" offset="0"/><stop style="stop-color:snow;stop-opacity:1" offset="1"/></linearGradient><linearGradient id="h"><stop style="stop-color:#999;stop-opacity:1" offset="0"/><stop style="stop-color:snow;stop-opacity:1" offset="1"/></linearGradient><linearGradient id="i"><stop style="stop-color:#999;stop-opacity:1" offset="0"/><stop style="stop-color:snow;stop-opacity:1" offset="1"/></linearGradient><linearGradient id="j"><stop style="stop-color:#999;stop-opacity:1" offset="0"/><stop style="stop-color:snow;stop-opacity:1" offset="1"/></linearGradient><linearGradient id="a"><stop style="stop-color:#999;stop-opacity:1" offset="0"/><stop style="stop-color:#0a0a0a;stop-opacity:1" offset="1"/></linearGradient><linearGradient id="b"><stop style="stop-color:#999;stop-opacity:1" offset="0"/><stop style="stop-color:snow;stop-opacity:1" offset="1"/></linearGradient><path id="n" d="M1600.6648 5530.2114h158.57976v94.550331H1600.6648z"/><path id="m" d="M157-13h55v40h-55z"/><filter style="color-interpolation-filters:sRGB" id="l" x="-.05642297" y="-.03515585" width="1.1128459" height="1.0703117"><feGaussianBlur stdDeviation="1.1384116"/></filter></defs><text xml:space="preserve" transform="matrix(.26458 0 0 .26458 292.94459 -2704.9076)" style="font-size:36px;line-height:1.25;font-family:Lato;-inkscape-font-specification:Lato;text-align:center;letter-spacing:0;white-space:pre;shape-inside:url(#m)"><tspan x="157" y="60.48"><tspan dx="0 20.882812 20.039062 14.484375 18.84375">Ehret</tspan></tspan></text><ellipse style="font-variation-settings:normal;display:inline;fill:none;fill-opacity:1;stroke:#bebebe;stroke-width:3.175;stroke-linecap:butt;stroke-linejoin:miter;stroke-miterlimit:4;stroke-dasharray:none;stroke-dashoffset:0;stroke-opacity:1;stop-color:#000" cx="71.839455" cy="56.738335" rx="54.337502" ry="33.404861"/><ellipse style="font-variation-settings:normal;display:inline;fill:none;fill-opacity:1;stroke:#aaa;stroke-width:2.64583;stroke-linecap:butt;stroke-linejoin:miter;stroke-miterlimit:4;stroke-dasharray:none;stroke-dashoffset:0;stroke-opacity:1;stop-color:#000" cx="91.651894" cy="56.738335" rx="33.282341" ry="20.344986"/><ellipse style="font-variation-settings:normal;display:inline;fill:none;fill-opacity:1;stroke:#969696;stroke-width:2.11667;stroke-linecap:butt;stroke-linejoin:miter;stroke-miterlimit:4;stroke-dasharray:none;stroke-dashoffset:0;stroke-opacity:1;stop-color:#000" cx="103.7389" cy="56.738335" rx="20.269283" ry="12.273383"/><ellipse style="font-variation-settings:normal;display:inline;fill:none;fill-opacity:1;stroke:#828282;stroke-width:1.85208;stroke-linecap:butt;stroke-linejoin:miter;stroke-miterlimit:4;stroke-dasharray:none;stroke-dashoffset:0;stroke-opacity:1;stop-color:#000" cx="110.98789" cy="56.738335" rx="12.226529" ry="7.2847075"/><ellipse style="font-variation-settings:normal;display:inline;fill:none;fill-opacity:1;stroke:#6e6e6e;stroke-width:1.5875;stroke-linecap:butt;stroke-linejoin:miter;stroke-miterlimit:4;stroke-dasharray:none;stroke-dashoffset:0;stroke-opacity:1;stop-color:#000" cx="115.29707" cy="56.738335" rx="7.2559023" ry="4.2015781"/><g style="fill-opacity:1;fill:url(#y)"><path d="M19.25537 102.75067v18.89122h4.92124v-18.89122zM31.39353 118.09648v-4.60374h1.37583q.68792 0 1.21708.58208.52917.58208.52917 1.69333 0 1.19062-.52917 1.77271-.52916.55562-1.21708.55562zm0-7.93749v-3.86291h1.19062q.76729 0 1.16417.58208.39687.58209.39687 1.37583 0 .76729-.39687 1.34938-.39688.55562-1.16417.55562zm-4.92125-7.40832v18.89122h7.43479q1.53458 0 2.61937-.39687 1.08479-.42333 1.74625-1.16417.68791-.74083 1.00541-1.7727.3175-1.03188.3175-2.24896 0-.74083-.21167-1.4552-.1852-.74084-.60854-1.34938-.42333-.60854-1.08479-1.00541-.66145-.42334-1.58749-.50271v-.0529q.79374-.15875 1.34937-.55563.55562-.39687.89958-.95249.37042-.58209.52917-1.27.1852-.71438.1852-1.45521 0-2.14312-1.26999-3.41312-1.24354-1.29646-3.88937-1.29646zM48.86179 108.20108h4.60375q0-3.04271-1.45521-4.41854-1.42875-1.40229-4.65666-1.40229-3.12208 0-4.65666 1.50812-1.53458 1.50813-1.53458 4.39208 0 1.66687.55562 2.69875.58209 1.03187 1.42875 1.66687.87313.635 1.87854 1.03187 1.00542.39688 1.85208.79375.87313.37042 1.42875.92604.58208.52917.58208 1.45521 0 .76729-.42333 1.29646-.39688.52916-1.16417.52916-.71437 0-1.16416-.47625-.44979-.5027-.44979-1.71978v-.4498h-4.7625v.66146q0 1.48167.42334 2.48708.42333 1.00542 1.21708 1.64042.82021.60854 1.98437.84666 1.19062.26459 2.72521.26459 3.25437 0 4.97416-1.34938 1.71979-1.37583 1.71979-4.39208 0-1.71979-.60855-2.77812-.58208-1.08479-1.48166-1.74625-.89958-.66145-1.93146-1.05833-1.03187-.42333-1.93145-.8202-.89958-.39688-1.50812-.92604-.58209-.55563-.58209-1.48167 0-.635.37042-1.13771.37042-.52916 1.16416-.52916.71438 0 1.05834.60854.34395.58208.34395 1.42875z" style="font-weight:900;font-stretch:condensed;font-size:26.4583px;line-height:1.25;font-family:'Helvetica Neue';-inkscape-font-specification:'Helvetica Neue Heavy Condensed';text-align:center;letter-spacing:0;text-anchor:middle;display:inline;fill:url(#y);fill-opacity:1;stroke-width:.264583"/><path d="M59.27471 113.80203q0-1.58115.0439-2.61329.0439-1.0541.17568-1.66899.15372-.61489.41725-.85645.28548-.24157.74665-.24157t.7247.24157q.28548.24156.41724.85645.15373.61489.19765 1.66899.0439 1.03214.0439 2.61329t-.0439 2.63525q-.0439 1.03214-.19765 1.64703-.13176.61489-.41724.85645-.26353.24157-.7247.24157t-.74665-.24157q-.26353-.24156-.41725-.85645-.13176-.61489-.17568-1.64703-.0439-1.0541-.0439-2.63525zm-4.2164 0q0 2.19604.28549 3.75523.28548 1.53723.94429 2.52545.65882.96625 1.73488 1.3835 1.07605.41725 2.63524.41725t2.63525-.41725q1.07606-.41725 1.73487-1.3835.65881-.98822.9443-2.52545.28548-1.55919.28548-3.75523t-.28548-3.73327q-.28549-1.55919-.9443-2.52544-.65881-.98822-1.73487-1.42743-1.07606-.46117-2.63525-.46117t-2.63524.46117q-1.07606.43921-1.73488 1.42743-.65881.96625-.94429 2.52544-.28549 1.53723-.28549 3.73327zM67.74353 105.96217v15.67972h4.08463v-6.45635h4.87521v-3.20622h-4.87521v-2.67917h5.20462v-3.33798zM80.35909 109.43191v12.20998h4.08464v-12.20998h3.07445v-3.46974H77.32856v3.46974z" style="font-size:21.9604px;line-height:1.25;font-family:'Helvetica Neue';-inkscape-font-specification:'Helvetica Neue, Normal';text-align:center;letter-spacing:0;text-anchor:middle;display:inline;fill:url(#y);fill-opacity:1;stroke-width:.264583"/><path d="M96.01339 108.20108h4.60375q0-3.04271-1.45521-4.41854-1.42875-1.40229-4.65666-1.40229-3.12208 0-4.65666 1.50812-1.53458 1.50813-1.53458 4.39208 0 1.66687.55562 2.69875.58208 1.03187 1.42875 1.66687.87312.635 1.87854 1.03187 1.00541.39688 1.85208.79375.87312.37042 1.42875.92604.58208.52917.58208 1.45521 0 .76729-.42333 1.29646-.39688.52916-1.16417.52916-.71437 0-1.16416-.47625-.44979-.5027-.44979-1.71978v-.4498h-4.7625v.66146q0 1.48167.42333 2.48708.42334 1.00542 1.21709 1.64042.8202.60854 1.98437.84666 1.19062.26459 2.7252.26459 3.25437 0 4.97416-1.34938 1.71979-1.37583 1.71979-4.39208 0-1.71979-.60854-2.77812-.58208-1.08479-1.48166-1.74625-.89958-.66145-1.93146-1.05833-1.03187-.42333-1.93145-.8202-.89959-.39688-1.50813-.92604-.58208-.55563-.58208-1.48167 0-.635.37042-1.13771.37041-.52916 1.16416-.52916.71438 0 1.05833.60854.34396.58208.34396 1.42875z" style="font-weight:900;font-stretch:condensed;font-size:26.4583px;line-height:1.25;font-family:'Helvetica Neue';-inkscape-font-specification:'Helvetica Neue Heavy Condensed';text-align:center;letter-spacing:0;text-anchor:middle;display:inline;fill:url(#y);fill-opacity:1;stroke-width:.264583"/><path d="M105.3722 115.47102v6.17087h4.08464v-6.17087l3.99679-9.50885h-4.47992l-1.53723 5.46814h-.0439l-1.53723-5.46814h-4.41404zM120.18519 110.48601h3.8211q0-2.52545-1.20782-3.66739-1.18586-1.1639-3.86503-1.1639-2.59132 0-3.86503 1.25174-1.2737 1.25175-1.2737 3.64543 0 1.38351.46117 2.23996.48313.85646 1.18586 1.38351.72469.52705 1.55919.85645.83449.32941 1.53723.65881.72469.30745 1.18586.76862.48313.43921.48313 1.20782 0 .63685-.35137 1.07606-.32941.43921-.96626.43921-.59293 0-.96626-.39529-.37332-.41725-.37332-1.42743v-.37332h-3.95287v.54901q0 1.22978.35136 2.06428.35137.83449 1.01018 1.36154.68077.50509 1.64703.70273.98822.21961 2.26192.21961 2.70113 0 4.12856-1.11998 1.42742-1.14194 1.42742-3.64543 0-1.42742-.50509-2.30584-.48313-.90038-1.22978-1.44939t-1.60311-.87841q-.85645-.35137-1.60311-.68078-.74665-.3294-1.25174-.76861-.48313-.46117-.48313-1.22978 0-.52705.30745-.9443.30744-.43921.96625-.43921.59293 0 .87842.50509.28549.48313.28549 1.18586z" style="font-size:21.9604px;line-height:1.25;font-family:'Helvetica Neue';-inkscape-font-specification:'Helvetica Neue, Normal';text-align:center;letter-spacing:0;text-anchor:middle;display:inline;fill:url(#y);fill-opacity:1;stroke-width:.264583"/><path d="M19.25537 102.75067v18.89122h4.92124v-18.89122zM31.39353 118.09648v-4.60374h1.37583q.68792 0 1.21708.58208.52917.58208.52917 1.69333 0 1.19062-.52917 1.77271-.52916.55562-1.21708.55562zm0-7.93749v-3.86291h1.19062q.76729 0 1.16417.58208.39687.58209.39687 1.37583 0 .76729-.39687 1.34938-.39688.55562-1.16417.55562zm-4.92125-7.40832v18.89122h7.43479q1.53458 0 2.61937-.39687 1.08479-.42333 1.74625-1.16417.68791-.74083 1.00541-1.7727.3175-1.03188.3175-2.24896 0-.74083-.21167-1.4552-.1852-.74084-.60854-1.34938-.42333-.60854-1.08479-1.00541-.66145-.42334-1.58749-.50271v-.0529q.79374-.15875 1.34937-.55563.55562-.39687.89958-.95249.37042-.58209.52917-1.27.1852-.71438.1852-1.45521 0-2.14312-1.26999-3.41312-1.24354-1.29646-3.88937-1.29646zM48.86179 108.20108h4.60375q0-3.04271-1.45521-4.41854-1.42875-1.40229-4.65666-1.40229-3.12208 0-4.65666 1.50812-1.53458 1.50813-1.53458 4.39208 0 1.66687.55562 2.69875.58209 1.03187 1.42875 1.66687.87313.635 1.87854 1.03187 1.00542.39688 1.85208.79375.87313.37042 1.42875.92604.58208.52917.58208 1.45521 0 .76729-.42333 1.29646-.39688.52916-1.16417.52916-.71437 0-1.16416-.47625-.44979-.5027-.44979-1.71978v-.4498h-4.7625v.66146q0 1.48167.42334 2.48708.42333 1.00542 1.21708 1.64042.82021.60854 1.98437.84666 1.19062.26459 2.72521.26459 3.25437 0 4.97416-1.34938 1.71979-1.37583 1.71979-4.39208 0-1.71979-.60855-2.77812-.58208-1.08479-1.48166-1.74625-.89958-.66145-1.93146-1.05833-1.03187-.42333-1.93145-.8202-.89958-.39688-1.50812-.92604-.58209-.55563-.58209-1.48167 0-.635.37042-1.13771.37042-.52916 1.16416-.52916.71438 0 1.05834.60854.34395.58208.34395 1.42875z" style="font-weight:900;font-stretch:condensed;font-size:26.4583px;line-height:1.25;font-family:'Helvetica Neue';-inkscape-font-specification:'Helvetica Neue Heavy Condensed';text-align:center;letter-spacing:0;text-anchor:middle;display:inline;fill:url(#y);fill-opacity:1;stroke-width:.264583"/><path d="M59.27471 113.80203q0-1.58115.0439-2.61329.0439-1.0541.17568-1.66899.15372-.61489.41725-.85645.28548-.24157.74665-.24157t.7247.24157q.28548.24156.41724.85645.15373.61489.19765 1.66899.0439 1.03214.0439 2.61329t-.0439 2.63525q-.0439 1.03214-.19765 1.64703-.13176.61489-.41724.85645-.26353.24157-.7247.24157t-.74665-.24157q-.26353-.24156-.41725-.85645-.13176-.61489-.17568-1.64703-.0439-1.0541-.0439-2.63525zm-4.2164 0q0 2.19604.28549 3.75523.28548 1.53723.94429 2.52545.65882.96625 1.73488 1.3835 1.07605.41725 2.63524.41725t2.63525-.41725q1.07606-.41725 1.73487-1.3835.65881-.98822.9443-2.52545.28548-1.55919.28548-3.75523t-.28548-3.73327q-.28549-1.55919-.9443-2.52544-.65881-.98822-1.73487-1.42743-1.07606-.46117-2.63525-.46117t-2.63524.46117q-1.07606.43921-1.73488 1.42743-.65881.96625-.94429 2.52544-.28549 1.53723-.28549 3.73327zM67.74353 105.96217v15.67972h4.08463v-6.45635h4.87521v-3.20622h-4.87521v-2.67917h5.20462v-3.33798zM80.35909 109.43191v12.20998h4.08464v-12.20998h3.07445v-3.46974H77.32856v3.46974z" style="font-size:21.9604px;line-height:1.25;font-family:'Helvetica Neue';-inkscape-font-specification:'Helvetica Neue, Normal';text-align:center;letter-spacing:0;text-anchor:middle;display:inline;fill:url(#y);fill-opacity:1;stroke-width:.264583"/><path d="M96.01339 108.20108h4.60375q0-3.04271-1.45521-4.41854-1.42875-1.40229-4.65666-1.40229-3.12208 0-4.65666 1.50812-1.53458 1.50813-1.53458 4.39208 0 1.66687.55562 2.69875.58208 1.03187 1.42875 1.66687.87312.635 1.87854 1.03187 1.00541.39688 1.85208.79375.87312.37042 1.42875.92604.58208.52917.58208 1.45521 0 .76729-.42333 1.29646-.39688.52916-1.16417.52916-.71437 0-1.16416-.47625-.44979-.5027-.44979-1.71978v-.4498h-4.7625v.66146q0 1.48167.42333 2.48708.42334 1.00542 1.21709 1.64042.8202.60854 1.98437.84666 1.19062.26459 2.7252.26459 3.25437 0 4.97416-1.34938 1.71979-1.37583 1.71979-4.39208 0-1.71979-.60854-2.77812-.58208-1.08479-1.48166-1.74625-.89958-.66145-1.93146-1.05833-1.03187-.42333-1.93145-.8202-.89959-.39688-1.50813-.92604-.58208-.55563-.58208-1.48167 0-.635.37042-1.13771.37041-.52916 1.16416-.52916.71438 0 1.05833.60854.34396.58208.34396 1.42875z" style="font-weight:900;font-stretch:condensed;font-size:26.4583px;line-height:1.25;font-family:'Helvetica Neue';-inkscape-font-specification:'Helvetica Neue Heavy Condensed';text-align:center;letter-spacing:0;text-anchor:middle;display:inline;fill:url(#y);fill-opacity:1;stroke-width:.264583"/><path d="M105.3722 115.47102v6.17087h4.08464v-6.17087l3.99679-9.50885h-4.47992l-1.53723 5.46814h-.0439l-1.53723-5.46814h-4.41404zM120.18519 110.48601h3.8211q0-2.52545-1.20782-3.66739-1.18586-1.1639-3.86503-1.1639-2.59132 0-3.86503 1.25174-1.2737 1.25175-1.2737 3.64543 0 1.38351.46117 2.23996.48313.85646 1.18586 1.38351.72469.52705 1.55919.85645.83449.32941 1.53723.65881.72469.30745 1.18586.76862.48313.43921.48313 1.20782 0 .63685-.35137 1.07606-.32941.43921-.96626.43921-.59293 0-.96626-.39529-.37332-.41725-.37332-1.42743v-.37332h-3.95287v.54901q0 1.22978.35136 2.06428.35137.83449 1.01018 1.36154.68077.50509 1.64703.70273.98822.21961 2.26192.21961 2.70113 0 4.12856-1.11998 1.42742-1.14194 1.42742-3.64543 0-1.42742-.50509-2.30584-.48313-.90038-1.22978-1.44939t-1.60311-.87841q-.85645-.35137-1.60311-.68078-.74665-.3294-1.25174-.76861-.48313-.46117-.48313-1.22978 0-.52705.30745-.9443.30744-.43921.96625-.43921.59293 0 .87842.50509.28549.48313.28549 1.18586z" style="font-size:21.9604px;line-height:1.25;font-family:'Helvetica Neue';-inkscape-font-specification:'Helvetica Neue, Normal';text-align:center;letter-spacing:0;text-anchor:middle;display:inline;fill:url(#y);fill-opacity:1;stroke-width:.264583"/></g></svg>