<svg xmlns="http://www.w3.org/2000/svg" width="333.173" height="350.8573" viewBox="0 0 88.152024 92.830993"><defs><path id="G" d="M-42 1608h588v290H-42z"/><path id="b" d="M1600.6648 5530.2114h158.57976v94.550331H1600.6648z"/><path id="a" d="M157-13h55v40h-55z"/><path id="c" d="M157-13h55v40h-55z"/><path id="d" d="M1600.6648 5530.2114h158.57976v94.550331H1600.6648z"/><path id="e" d="M157-13h55v40h-55z"/><path id="f" d="M1600.6648 5530.2114h158.57976v94.550331H1600.6648z"/><path id="g" d="M157-13h55v40h-55z"/><path id="h" d="M1600.6648 5530.2114h158.57976v94.550331H1600.6648z"/><path id="i" d="M157-13h55v40h-55z"/><path id="j" d="M1600.6648 5530.2114h158.57976v94.550331H1600.6648z"/><path id="k" d="M157-13h55v40h-55z"/><path id="l" d="M1600.6648 5530.2114h158.57976v94.550331H1600.6648z"/><path id="m" d="M157-13h55v40h-55z"/><path id="n" d="M1600.6648 5530.2114h158.57976v94.550331H1600.6648z"/><path id="o" d="M157-13h55v40h-55z"/><path id="p" d="M1600.6648 5530.2114h158.57976v94.550331H1600.6648z"/><path id="q" d="M157-13h55v40h-55z"/><path id="r" d="M1600.6648 5530.2114h158.57976v94.550331H1600.6648z"/><path id="s" d="M157-13h55v40h-55z"/><path id="t" d="M1600.6648 5530.2114h158.57976v94.550331H1600.6648z"/><path id="u" d="M157-13h55v40h-55z"/><path id="v" d="M1600.6648 5530.2114h158.57976v94.550331H1600.6648z"/><path id="w" d="M157-13h55v40h-55z"/><path id="x" d="M1600.6648 5530.2114h158.57976v94.550331H1600.6648z"/><path id="y" d="M157-13h55v40h-55z"/><path id="z" d="M1600.6648 5530.2114h158.57976v94.550331H1600.6648z"/><path id="A" d="M157-13h55v40h-55z"/><path id="B" d="M1600.6648 5530.2114h158.57976v94.550331H1600.6648z"/><path id="C" d="M157-13h55v40h-55z"/><path id="D" d="M1600.6648 5530.2114h158.57976v94.550331H1600.6648z"/><path id="E" d="M157-13h55v40h-55z"/><path id="F" d="M1600.6648 5530.2114h158.57976v94.550331H1600.6648z"/><marker id="H" orient="auto" refX="0" refY="0" style="overflow:visible"><path d="m0 0 5-5-17.5 5L5 5Z" style="fill:context-stroke;fill-rule:evenodd;stroke:context-stroke;stroke-width:1pt" transform="matrix(-.8 0 0 -.8 -10 0)"/></marker><marker id="I" orient="auto" refX="0" refY="0" style="overflow:visible"><path d="m0 0 5-5-17.5 5L5 5Z" style="fill:context-stroke;fill-rule:evenodd;stroke:context-stroke;stroke-width:1pt" transform="matrix(-.8 0 0 -.8 -10 0)"/></marker></defs><g style="display:inline"><g transform="translate(-8.0248415 -5.7838867)"><ellipse cx="52.100853" cy="33.128242" rx="43.282249" ry="26.550606" style="font-variation-settings:normal;display:inline;fill:none;fill-opacity:1;stroke:#fff;stroke-width:1.5875;stroke-linecap:butt;stroke-linejoin:miter;stroke-miterlimit:4;stroke-dasharray:none;stroke-dashoffset:0;stroke-opacity:1;stop-color:#000"/><ellipse cx="67.526337" cy="33.128242" rx="26.510872" ry="16.17045" style="font-variation-settings:normal;display:inline;fill:none;fill-opacity:1;stroke:#fff;stroke-width:1.32292;stroke-linecap:butt;stroke-linejoin:miter;stroke-miterlimit:4;stroke-dasharray:none;stroke-dashoffset:0;stroke-opacity:1;stop-color:#000"/><ellipse cx="76.787163" cy="33.128242" rx="16.145391" ry="9.7550411" style="font-variation-settings:normal;display:inline;fill:none;fill-opacity:1;stroke:#fff;stroke-width:1.05833;stroke-linecap:butt;stroke-linejoin:miter;stroke-miterlimit:4;stroke-dasharray:none;stroke-dashoffset:0;stroke-opacity:1;stop-color:#000"/><ellipse cx="82.273178" cy="33.128242" rx="9.7389774" ry="5.7899771" style="font-variation-settings:normal;display:inline;fill:none;fill-opacity:1;stroke:#fff;stroke-width:.926042;stroke-linecap:butt;stroke-linejoin:miter;stroke-miterlimit:4;stroke-dasharray:none;stroke-dashoffset:0;stroke-opacity:1;stop-color:#000"/><ellipse cx="85.437393" cy="33.128242" rx="5.7796507" ry="3.3394673" style="font-variation-settings:normal;display:inline;fill:none;fill-opacity:1;stroke:#fff;stroke-width:.79375;stroke-linecap:butt;stroke-linejoin:miter;stroke-miterlimit:4;stroke-dasharray:none;stroke-dashoffset:0;stroke-opacity:1;stop-color:#000"/><ellipse cx="87.427002" cy="33.128242" rx="3.1086199" ry="1.7900585" style="font-variation-settings:normal;display:inline;fill:none;fill-opacity:1;stroke:#fff;stroke-width:.661458;stroke-linecap:butt;stroke-linejoin:miter;stroke-miterlimit:4;stroke-dasharray:none;stroke-dashoffset:0;stroke-opacity:1;stop-color:#000"/><ellipse cx="88.721611" cy="33.128242" rx="1.2934215" ry=".68038863" style="font-variation-settings:normal;display:inline;fill:none;fill-opacity:1;stroke:#fff;stroke-width:.555625;stroke-linecap:butt;stroke-linejoin:miter;stroke-miterlimit:4;stroke-dasharray:none;stroke-dashoffset:0;stroke-opacity:1;stop-color:#000"/></g><path d="M8.4335462 81.729578c.2515104 0 .4191843-.167724.4191843-.440193V66.733296c0-.272479-.1676739-.440123-.4191843-.440123s-.4087047.167644-.4087047.440123v14.556089c0 .272469.1571943.440193.4087047.440193zM11.954691 81.572369h4.736779c3.175319 0 5.103565-1.561465 5.103565-4.034611 0-2.190231-1.634818-3.573548-3.772655-3.804069v-.06257c1.80249-.345872 2.976205-1.739614 2.976205-3.542105 0-2.190241-1.781531-3.678304-4.411911-3.678304h-4.631983c-.25151 0-.408704.167633-.408704.440113v14.241741c0 .272479.157194.440113.408704.440113zm.419184-8.153108v-6.214408h4.087043c2.253115 0 3.699299 1.163291 3.699299 2.986731 0 1.991074-1.530021 3.227677-3.898411 3.227677zm0 7.398557v-6.654521h4.024167c2.87141 0 4.558625 1.268047 4.558625 3.353452 0 2.033102-1.613858 3.301069-4.338554 3.301069z" style="font-weight:200;font-size:19.05px;line-height:1.25;font-family:Lato;-inkscape-font-specification:&quot;SF Pro Rounded Ultra-Light&quot;;text-align:center;letter-spacing:0;text-anchor:middle;fill:#fff;stroke:none;stroke-width:.204507" transform="translate(-8.02484153 -8.4297201)"/><path d="M28.910683 81.823899c3.531624 0 5.774259-1.792066 5.774259-4.642437 0-2.200736-1.299471-3.468793-4.474789-4.139437l-1.645297-.345862c-1.959685-.419184-2.745656-1.152716-2.745656-2.253119 0-1.383317 1.30995-2.242614 3.081003-2.242614 1.509062 0 2.661818.597332 3.175318 1.991154.241031.544949.586858.806914 1.152756.806914.607816 0 1.03748-.398245 1.03748-1.006081 0-.220017-.03143-.398165-.08384-.54487-.586857-2.022597-2.640858-3.248695-5.250278-3.248695-3.217237 0-5.49131 1.781482-5.49131 4.369958 0 2.179726 1.372827 3.584063 4.390952 4.223263l1.655776.345862c2.022562.440123 2.819012 1.173725 2.819012 2.34737 0 1.351873-1.372827 2.336946-3.290594 2.336946-1.750092 0-3.12292-.66022-3.594502-2.074901-.230551-.565888-.576378-.806914-1.110838-.806914-.639255 0-1.058438.440113-1.058438 1.121262 0 .251541.05239.503001.125754.733612.586858 1.760543 2.598941 3.028589 5.533229 3.028589z" style="font-weight:500;font-size:19.05px;line-height:1.25;font-family:Lato;-inkscape-font-specification:&quot;SF Pro Rounded Medium&quot;;text-align:center;letter-spacing:0;text-anchor:middle;fill:#fff;stroke:none;stroke-width:.204507" transform="translate(-8.02484153 -8.4297201)"/><path d="M41.139577 81.754375c3.147872 0 5.127619-2.169302 5.127619-5.650918 0-3.481615-1.979747-5.658564-5.127619-5.658564-3.155456 0-5.127618 2.176949-5.127618 5.658564 0 3.481616 1.972162 5.650918 5.127618 5.650918zm0-1.49425c-2.078353 0-3.390599-1.608051-3.390599-4.156668 0-2.556262 1.312246-4.164314 3.390599-4.164314 2.078355 0 3.383015 1.608052 3.383015 4.164314 0 2.548617-1.30466 4.156668-3.383015 4.156668zM48.724809 81.693726c.523381 0 .849546-.333738.849546-.879846v-3.823h4.058101c.455114 0 .766109-.280665.766109-.720549 0-.432397-.310995-.713062-.766109-.713062h-4.058101v-3.458828h4.460118c.470285 0 .79645-.288231.79645-.735761 0-.447539-.318581-.73577-.79645-.73577h-5.309664c-.530966 0-.849546.333738-.849546.879846v9.307124c0 .546108.31858.879846.849546.879846zM59.753739 81.693726c.523382 0 .849547-.333738.849547-.879846v-8.715439h2.677587c.470286 0 .788865-.288231.788865-.735761 0-.447539-.318579-.73577-.788865-.73577h-7.061852c-.470285 0-.788865.288231-.788865.73577 0 .44753.31858.735761.788865.735761h2.685173v8.715439c0 .546108.318579.879846.849545.879846z" style="font-weight:500;font-size:20.1083px;line-height:1.25;font-family:Lato;-inkscape-font-specification:&quot;SF Pro Rounded Medium&quot;;text-align:center;letter-spacing:0;text-anchor:middle;fill:#fff;stroke:#fff;stroke-width:.396875;stroke-miterlimit:4;stroke-dasharray:none;stroke-opacity:1" transform="translate(-8.02484153 -8.4297201)"/><path d="M70.862218 81.823899c3.531624 0 5.774258-1.792066 5.774258-4.642437 0-2.200736-1.299471-3.468793-4.474789-4.139437l-1.645297-.345862c-1.959684-.419184-2.745655-1.152716-2.745655-2.253119 0-1.383317 1.30995-2.242614 3.081003-2.242614 1.509062 0 2.661818.597332 3.175317 1.991154.241032.544949.586859.806914 1.152757.806914.607816 0 1.03748-.398245 1.03748-1.006081 0-.220017-.03143-.398165-.08384-.54487-.586857-2.022597-2.640859-3.248695-5.250278-3.248695-3.217237 0-5.491311 1.781482-5.491311 4.369958 0 2.179726 1.372828 3.584063 4.390953 4.223263l1.655776.345862c2.022562.440123 2.819012 1.173725 2.819012 2.34737 0 1.351873-1.372827 2.336946-3.290594 2.336946-1.750093 0-3.12292-.66022-3.594503-2.074901-.230551-.565888-.576377-.806914-1.110838-.806914-.639254 0-1.058438.440113-1.058438 1.121262 0 .251541.05239.503001.125755.733612.586858 1.760543 2.598941 3.028589 5.533229 3.028589z" style="font-weight:500;font-size:27.7812px;line-height:1.25;font-family:Lato;-inkscape-font-specification:&quot;SF Pro Rounded Medium&quot;;text-align:center;letter-spacing:0;text-anchor:middle;fill:#fff;stroke:none;stroke-width:.204507" transform="translate(-8.02484153 -8.4297201)"/><path d="M82.249149 81.693726c.530966 0 .849547-.333738.849547-.879846v-3.724351l3.474037-5.256601c.128949-.197158.174461-.371678.174461-.561261 0-.439963-.364091-.766125-.834377-.766125-.33375 0-.546136.13651-.750938.477894L82.287076 75.4587h-.05309l-2.874806-4.475264c-.212387-.34896-.409603-.477894-.758524-.477894-.47787 0-.84196.326162-.84196.773701 0 .189663.04551.364103.174459.553685l3.466453 5.256601v3.724351c0 .546108.326164.879846.849545.879846zM91.798961 81.754375c2.556227 0 4.179466-1.297021 4.179466-3.360168 0-1.592909-.940573-2.510766-3.238901-2.996236l-1.190878-.250301c-1.418438-.303374-1.987332-.83434-1.987332-1.63076 0-1.001294.948152-1.623263 2.230058-1.623263 1.092278 0 1.926649.432317 2.298329 1.441177.174455.394457.424768.584039.834371.584039.439949 0 .750944-.288231.750944-.728115 0-.159308-.02279-.288241-.06065-.394466-.424777-1.463966-1.911484-2.351389-3.80021-2.351389-2.328666 0-3.974659 1.289456-3.974659 3.16302 0 1.577687.993664 2.594124 3.178212 3.056795l1.198472.250311c1.463948.318596 2.040422.849562 2.040422 1.699124 0 .978506-.993663 1.691479-2.381763 1.691479-1.266734 0-2.260397-.477894-2.60173-1.501816-.166877-.409599-.417189-.584119-.804041-.584119-.462696 0-.766107.318596-.766107.811631 0 .182087.03792.364103.09102.530967.424773 1.274313 1.881141 2.19209 4.005005 2.19209z" style="font-weight:500;font-size:20.1083px;line-height:1.25;font-family:Lato;-inkscape-font-specification:&quot;SF Pro Rounded Medium&quot;;text-align:center;letter-spacing:0;text-anchor:middle;fill:#fff;stroke:#fff;stroke-width:.396875;stroke-miterlimit:4;stroke-dasharray:none;stroke-opacity:1" transform="translate(-8.02484153 -8.4297201)"/><path d="M8.0248418 89.788269h.5761151v-4.618521h-.5761151ZM9.4107188 89.788269h.5569113V87.82948c0-.566513.3424689-.940988.8673729-.940988.512103 0 .764953.297659.764953.838567v2.06121h.556912v-2.16043c0-.758552-.422485-1.232246-1.152231-1.232246-.505701 0-.844969.227245-1.0242043.537708h-.0128022v-.473696h-.5569113ZM14.275691 90.972511c.902581 0 1.469094-.505701 1.469094-1.277061v-3.235845h-.556911v.563314h-.0128c-.204841-.371275-.576115-.627326-1.046609-.627326-.844969 0-1.424285.672134-1.424285 1.705941v.0032c0 1.040208.572915 1.715543 1.411482 1.715543.476896 0 .860972-.236844 1.059412-.604921h.0128v.425685c0 .515309-.332866.838569-.918583.838569-.454491 0-.771355-.14723-.876976-.387279l-.0128-.0288H12.8194l.0064.0288c.108822.492904.627325.880183 1.44989.880183zm-.03841-1.645132c-.592118 0-.963393-.467293-.963393-1.222644v-.0032c0-.739348.371275-1.213042.963393-1.213042.563313 0 .95059.480095.95059 1.213042v.0032c0 .739347-.384077 1.222644-.95059 1.222644zM17.834803 89.852287c.726545 0 1.270654-.435287 1.379476-.9858l.0064-.03201h-.547309l-.0096.02881c-.09602.284856-.393679.496094-.816163.496094-.592119 0-.969794-.400076-.982597-1.085013h2.397279v-.20484c0-.9986-.55371-1.673935-1.462692-1.673935-.908982 0-1.497899.707342-1.497899 1.737947v.0032c0 1.046609.576115 1.715546 1.533106 1.715546zm-.03841-2.963795c.486498 0 .844969.30406.89938.950589h-1.821164c.06081-.620924.438487-.950589.921784-.950589zM19.8192 89.788269h.556911V87.82948c0-.566513.342468-.940988.867373-.940988.512103 0 .764953.297659.764953.838567v2.06121h.556911v-2.16043c0-.758552-.422484-1.232246-1.15223-1.232246-.505701 0-.844969.227245-1.024205.537708h-.01281v-.473696h-.556911zM23.589554 85.896293c.195239 0 .348869-.156831.348869-.34887 0-.195239-.15363-.348869-.348869-.348869-.192038 0-.34887.15363-.34887.348869 0 .192039.156832.34887.34887.34887zm-.278455 3.891976h.556911v-3.328664h-.556911zM26.002836 89.852287c.726545 0 1.270654-.435287 1.379476-.9858l.0064-.03201h-.54731l-.0096.02881c-.09602.284856-.393678.496094-.816163.496094-.592118 0-.969794-.400076-.982596-1.085013h2.397279v-.20484c0-.9986-.553711-1.673935-1.462692-1.673935-.908982 0-1.4979.707342-1.4979 1.737947v.0032c0 1.046609.576115 1.715546 1.533106 1.715547zm-.03841-2.963795c.486497 0 .844968.30406.899379.950589h-1.821164c.06081-.620924.438488-.950589.921785-.950589zM29.12346 89.852287c.505701 0 .844969-.227251 1.024205-.537714h.01281v.473696h.556912v-3.328664h-.556917v1.958793c0 .566513-.342468.940986-.867373.940986-.512102 0-.764953-.297658-.764953-.838566v-2.061213h-.556912v2.160433c0 .758554.422485 1.232249 1.152231 1.232249zM31.443924 89.788269h.556911v-2.054808c0-.505702.281656-.806562.713743-.806562.134427 0 .25285.016.29766.032v-.540908c-.04481-.0064-.128026-.02241-.224045-.02241-.374475 0-.662533.243248-.774555.627325h-.01281v-.563313h-.556911zM35.12146 89.852287c.85137 0 1.414683-.678539 1.414683-1.728348v-.0032c0-1.049809-.569714-1.725145-1.405081-1.725145-.470494 0-.857772.236848-1.065813.620925h-.01281V85.16975h-.556911v4.618517h.556911v-.563307h.01281c.208041.387277.579316.627326 1.056211.627327zm-.108822-.492903c-.563312 0-.963393-.489696-.963393-1.235445v-.0032c0-.742548.403281-1.232246.963393-1.232246.588918 0 .953791.473694.953791 1.232246v.0032c0 .764953-.364873 1.235445-.953791 1.235445zM37.864407 85.909095c.179235 0 .320063-.144028.320063-.323264s-.140828-.320064-.320063-.320064c-.179236 0-.323265.140828-.323265.320064s.144029.323264.323265.323264zm1.190638 0c.182436 0 .323264-.144028.323264-.323264s-.140828-.320064-.323264-.320064c-.176035 0-.320065.140828-.320065.320064s.14403.323264.320065.323264zm-.816164 3.943192c.505702 0 .844969-.227251 1.024205-.537714h.01281v.473696h.556911v-3.328664h-.556914v1.958793c0 .566513-.342468.940986-.867373.940986-.512103 0-.764953-.297658-.764953-.838566v-2.061213h-.556912v2.160433c0 .758554.422485 1.232249 1.15223 1.232249zM40.559347 89.788269h.556911v-2.054808c0-.505702.281656-.806562.713743-.806562.134427 0 .25285.016.29766.032v-.540908c-.04481-.0064-.128026-.02241-.224046-.02241-.374474 0-.662532.243248-.774555.627325h-.01281v-.563313h-.556911zM43.807995 89.852287c.918583 0 1.539508-.665736 1.539508-1.728348v-.0064c0-1.062613-.624125-1.721945-1.542709-1.721945-.918584 0-1.539507.662533-1.539507 1.721945v.0064c0 1.059411.617723 1.728348 1.542708 1.728348zm.0032-.492903c-.588918 0-.976195-.451289-.976195-1.235445v-.0064c0-.777756.390478-1.229046.969794-1.229046.588918 0 .972994.448089.972994 1.229046v.0064c0 .780955-.380876 1.235445-.966593 1.235445zM48.852205 89.865085c1.056211 0 1.705941-.518498 1.705941-1.337866v-.0032c0-.704141-.39688-1.088218-1.344269-1.29626l-.512103-.112048c-.60172-.131227-.880176-.368074-.880176-.745749v-.0032c0-.444889.403281-.739348 1.021004-.742549.585718 0 .979396.278456 1.04981.74895l.0064.04481h.576115l-.0032-.04801c-.05121-.75535-.710541-1.277055-1.613122-1.277055-.95059 0-1.622725.531306-1.625925 1.289858v.0032c0 .675335.422484 1.081816 1.325065 1.280256l.512102.112022c.633727.140828.89938.368074.89938.774555v.0032c0 .476895-.419284.777757-1.085017.777757-.668933 0-1.117024-.284859-1.184237-.748951l-.0064-.04481h-.576116l.0032.04481c.05761.790557.732946 1.280255 1.731546 1.280255zM52.526538 89.852287c.918583 0 1.539508-.665736 1.539508-1.728348v-.0064c0-1.062613-.624125-1.721945-1.542708-1.721945-.918584 0-1.539508.662533-1.539508 1.721945v.0064c0 1.059411.617724 1.728348 1.542708 1.728348zm.0032-.492903c-.588917 0-.976194-.451289-.976194-1.235445v-.0064c0-.777756.390477-1.229046.969793-1.229046.588918 0 .972995.448089.972995 1.229046v.0064c0 .780955-.380877 1.235445-.966594 1.235445zM54.808594 89.788269h.556911v-2.867771h.678536v-.460893h-.684937v-.40648c0-.329666.15363-.486498.460891-.486498.08642 0 .172835.0032.240048.01281v-.45129c-.08322-.01281-.214443-.02241-.339267-.02241-.614523 0-.912182.304061-.912182.944189v.409682h-.464093v.460892h.464093zM57.708373 89.852287c.108822 0 .227246-.01277.29766-.02237v-.45129c-.04801.0031-.112023.01277-.179236.01277-.297659 0-.454491-.09921-.454491-.454489v-2.016402h.633727v-.460893h-.633727v-.899379h-.576115v.899379h-.486497v.460893h.486497v2.019603c0 .636926.30086.912186.912182.912186zM59.257483 89.788269h.566513l.74895-2.576513h.01281l.75215 2.576513h.566513l.928186-3.328664h-.55051l-.665734 2.707742h-.01281l-.755351-2.707742h-.537707l-.75215 2.707742h-.01281l-.66573-2.707742h-.553711zM64.192871 89.852287c.444889 0 .844969-.240049 1.040208-.604924h.01281v.540906h.556911v-2.301258c0-.665733-.492899-1.091418-1.280255-1.091418-.784158 0-1.261053.441688-1.309063.988998l-.0032.0352h.537708l.0064-.02881c.06401-.29766.332866-.502501.761752-.502501.464093 0 .729746.24645.729746.652931v.278456l-.953791.05441c-.764953.04481-1.206641.400079-1.206641.966593v.0064c0 .604917.444889 1.005001 1.107422 1.005001zm-.537708-1.005004v-.0064c0-.310462.256051-.508902.700941-.534507l.889778-.05441v.272054c0 .483297-.403281.844968-.928186.844968-.40008 0-.662533-.201638-.662533-.521703zM66.510134 89.788269h.556911v-2.054808c0-.505702.281656-.806562.713743-.806562.134426 0 .25285.016.297659.032v-.540908c-.04481-.0064-.128026-.02241-.224045-.02241-.374475 0-.662533.243248-.774555.627325h-.01281v-.563313h-.556911zM69.749179 89.852287c.726546 0 1.270654-.435287 1.379476-.9858l.0064-.03201h-.54731l-.0096.02881c-.09602.284856-.393678.496094-.816163.496094-.592118 0-.969793-.400076-.982596-1.085013h2.397279v-.20484c0-.9986-.553711-1.673935-1.462692-1.673935-.908982 0-1.4979.707342-1.4979 1.737947v.0032c0 1.046609.576116 1.715546 1.533106 1.715547zm-.03841-2.963795c.486497 0 .844969.30406.89938.950589h-1.821165c.06081-.620924.438488-.950589.921785-.950589zM74.674966 89.865085c1.056212 0 1.705941-.518498 1.705941-1.337866v-.0032c0-.704141-.396879-1.088218-1.344269-1.29626l-.512102-.112022c-.60172-.131227-.880176-.368074-.880176-.745749v-.0032c0-.444889.403281-.739348 1.021005-.742549.585716 0 .979396.278456 1.049809.74895l.0064.04481h.576115l-.0032-.04801c-.05121-.75535-.710542-1.277055-1.613122-1.277055-.95059 0-1.622724.531306-1.625925 1.289858v.0032c0 .675335.422484 1.081816 1.325065 1.280256l.512102.112022c.633727.140828.89938.368074.89938.774555v.0032c0 .476895-.419284.777757-1.085017.777757-.668934 0-1.117023-.284859-1.184236-.748951l-.0064-.04481h-.576116l.0032.04481c.05762.790557.732947 1.280255 1.731546 1.280254zM77.289888 90.908492c.601721 0 .892979-.275252 1.129826-.91218l1.29946-3.536707h-.585717l-.921784 2.771755h-.01281l-.918584-2.771755h-.595319l1.235447 3.331869-.06722.188835c-.134427.377679-.329666.467293-.681737.467293-.06722 0-.131226-.0096-.179235-.0192v.454487c.07041.01277.188837.02563.297659.02563zM81.338695 89.852287c.742549 0 1.293059-.409684 1.293059-.992201v-.0032c0-.473695-.243249-.739347-.915383-.90258l-.528106-.128053c-.368074-.08962-.518503-.246449-.518503-.473695v-.0032c0-.294459.24965-.489698.65293-.489698.412883 0 .659332.214443.704141.537707l.0032.02241h.531307l-.0032-.04161c-.04161-.556911-.5057-.982597-1.235446-.982597-.720144 0-1.222645.406482-1.222645.979396v.0032c0 .480095.304061.771354.931387.921784l.528105.128025c.377676.09282.5025.227246.5025.467294v.0032c0 .30086-.268853.489699-.720144.489699-.45449 0-.700939-.19524-.768153-.528106l-.0064-.03201h-.556911l.0032.02881c.06722.595315.540908.995399 1.325065.995399zM84.286489 89.852287c.108822 0 .227245-.01277.29766-.02237v-.45129c-.04801.0031-.112023.01277-.179237.01277-.297659 0-.45449-.09921-.45449-.454489v-2.016402h.633727v-.460893h-.633727v-.899379h-.576115v.899379h-.486498v.460893h.486498v2.019603c0 .636926.30086.912186.912182.912186zM86.456518 89.852287c.726545 0 1.270654-.435287 1.379476-.9858l.0064-.03201h-.54731l-.0096.02881c-.09602.284856-.393678.496094-.816162.496094-.592119 0-.969795-.400076-.982597-1.085013h2.397279v-.20484c0-.9986-.55371-1.673935-1.462692-1.673935-.908982 0-1.4979.707342-1.4979 1.737947v.0032c0 1.046609.576115 1.715546 1.533107 1.715546zm-.03841-2.963795c.486497 0 .844969.30406.899379.950589h-1.821163c.06081-.620924.438488-.950589.921784-.950589zM88.440918 89.788269h.556911v-2.086815c0-.464092.320065-.812962.761755-.812962.412882 0 .681731.265653.681731.668933v2.230844h.556914v-2.115621c0-.454491.310463-.784156.752153-.784156.438484 0 .691339.272054.691339.729745v2.170032h.556906v-2.298057c0-.662532-.425679-1.094619-1.085012-1.094619-.467293 0-.857777.240048-1.043408.640128h-.01277c-.144032-.406481-.480098-.640128-.934585-.640128-.428885 0-.761755.220844-.912185.55051h-.01281v-.486498h-.556911zM94.883808 89.852287c.742545 0 1.293057-.409684 1.293057-.992201v-.0032c0-.473695-.243247-.739347-.915386-.90258l-.528106-.128026c-.368071-.08962-.518498-.246449-.518498-.473694v-.0032c0-.294459.249649-.489698.652931-.489698.412881 0 .659325.214443.704136.537707l.0031.02241h.531311l-.0031-.04161c-.04157-.556911-.5057-.982597-1.23544-.982597-.720147 0-1.22265.406482-1.22265.979397v.0032c0 .480095.30406.771354.931388.921784l.528106.128026c.377679.09282.502504.227245.502504.467293v.0032c0 .30086-.268858.489695-.720147.489695-.454488 0-.700939-.195236-.768156-.528102l-.0062-.03201h-.556907l.0031.02881c.0672.595319.540912.995403 1.32507.995403z" style="font-size:8.46667px;line-height:1.25;font-family:&quot;SF Pro Display&quot;;-inkscape-font-specification:&quot;SF Pro Display&quot;;text-align:center;letter-spacing:0;text-anchor:middle;fill:#fff;fill-opacity:1;stroke:none;stroke-width:.204841" transform="translate(-8.0248415 -5.7838867)"/><path d="M24.418519 97.981908h1.55231c1.373075 0 2.179636-.854571 2.179636-2.31086v-.0062c0-1.449886-.812962-2.30126-2.179636-2.30126h-1.55231zm.576115-.518506v-3.581511h.937788c1.046609 0 1.629125.636928 1.629125 1.789157v.0062c0 1.145826-.582516 1.785951-1.629125 1.785951zM28.787392 97.981908h.556911V95.9271c0-.505701.281657-.806564.713743-.806564.134427 0 .252851.01603.297659.03198v-.540904c-.04481-.0062-.128025-.02237-.224044-.02237-.374475 0-.662533.243246-.774555.62732h-.01281v-.563318h-.556906ZM30.832601 98.026719c.204841 0 .364873-.160035.364873-.364873 0-.204839-.160032-.364874-.364873-.364874s-.364873.160035-.364873.364874c0 .204838.160032.364873.364873.364873zM31.917618 96.36879h2.048409v-.518507h-2.048409zM34.801394 97.981908h.576115v-4.618523h-.576115zM36.187271 97.981908h.556912v-1.958792c0-.566514.342468-.940988.867373-.940988.512102 0 .764953.297658.764953.838569v2.061211h.556911v-2.160433c0-.758547-.422484-1.232242-1.15223-1.232242-.505701 0-.844969.227243-1.024205.537706h-.01281v-.473695h-.556911zM41.052244 99.166143c.902581 0 1.469094-.505701 1.469094-1.277054v-3.235845h-.556911v.563309h-.01281c-.204841-.371269-.576115-.62732-1.046609-.62732-.844969 0-1.424285.672131-1.424285 1.705938v.0031c0 1.040201.572914 1.715538 1.411482 1.715538.476896 0 .860972-.236844 1.059412-.604923h.01281v.425687c0 .515301-.332867.838569-.918584.838569-.45449 0-.771354-.14723-.876975-.387279l-.01281-.0288h-.560111l.0064.0288c.108821.492903.627325.880174 1.449889.880174zm-.03841-1.645125c-.592118 0-.963393-.467292-.963393-1.222642v-.0031c0-.739347.371275-1.213042.963393-1.213042.563312 0 .95059.480098.95059 1.213042v.0031c0 .739347-.384076 1.222642-.95059 1.222642zM43.58395 98.026719c.204841 0 .364873-.160035.364873-.364873 0-.204839-.160032-.364874-.364873-.364874s-.364873.160035-.364873.364874c0 .204838.160032.364873.364873.364873zM46.749382 98.058725c.854571 0 1.360272-.518506 1.360272-1.392278v-3.303062h-.576115v3.296659c0 .563317-.275255.867377-.787357.867377-.457692 0-.684937-.291262-.720145-.640133l-.0032-.03198h-.576115l.0032.04483c.04801.662531.4993 1.158631 1.29946 1.158631zM49.687569 94.102732c.179236 0 .320064-.144025.320064-.32326s-.140828-.320071-.320064-.320071c-.179235 0-.323264.140836-.323264.320071s.144029.32326.323264.32326zm1.190639 0c.182436 0 .323264-.144025.323264-.32326s-.140828-.320071-.323264-.320071c-.176036 0-.320065.140836-.320065.320071s.144029.32326.320065.32326zm-.816164 3.943187c.505701 0 .844969-.227243 1.024205-.537706h.01281v.473695h.556911v-3.328664h-.556911v1.958792c0 .566514-.342469.940988-.867374.940988-.512101 0-.764953-.297657-.764953-.838569v-2.061211h-.556911v2.160433c0 .758547.422484 1.232242 1.152231 1.232242zM52.38251 97.981908h.556911V95.9271c0-.505701.281657-.806564.713742-.806564.134427 0 .252852.01603.29766.03198v-.540904c-.04481-.0062-.128025-.02237-.224045-.02237-.374474 0-.662532.243246-.774554.62732h-.01281v-.563309h-.556912zM55.659963 99.166143c.902581 0 1.469094-.505701 1.469094-1.277054v-3.235845h-.556912v.563309h-.01281c-.204841-.371269-.576115-.62732-1.046609-.62732-.844969 0-1.424285.672131-1.424285 1.705938v.0031c0 1.040201.572915 1.715538 1.411483 1.715538.476895 0 .860972-.236844 1.059411-.604923h.01281v.425687c0 .515301-.332866.838569-.918583.838569-.45449 0-.771354-.14723-.876975-.387279l-.01281-.0288h-.560112l.0064.0288c.108821.492903.627324.880174 1.449889.880174zm-.03841-1.645125c-.592119 0-.963393-.467292-.963393-1.222642v-.0031c0-.739347.371274-1.213042.963393-1.213042.563312 0 .95059.480098.95059 1.213042v.0031c0 .739347-.384076 1.222642-.95059 1.222642zM59.219076 98.045919c.726545 0 1.270654-.435287 1.379476-.985791l.0064-.03205h-.54731l-.0096.0288c-.09602.28486-.393679.496101-.816164.496101-.592118 0-.969793-.400085-.982596-1.085021h2.397279v-.204838c0-.998597-.553711-1.673933-1.462692-1.673933-.908982 0-1.497899.707342-1.497899 1.737944v.0031c0 1.046604.576115 1.715538 1.533106 1.715538zm-.03841-2.963791c.486497 0 .844969.30406.89938.950588h-1.821164c.06081-.620917.438488-.950588.921784-.950588zM61.203473 97.981908h.556911v-1.958792c0-.566514.342468-.940988.867373-.940988.512102 0 .764953.297658.764953.838569v2.061211h.556911v-2.160433c0-.758547-.422484-1.232242-1.15223-1.232242-.505701 0-.844969.227243-1.024205.537706h-.01281v-.473695h-.556912zM66.09085 97.981908h2.861372v-.518506h-2.285257v-1.587516h2.166834v-.512103h-2.166834v-1.481892h2.285257v-.518506H66.09085ZM69.656362 97.981908h.556911v-1.942789c0-.566514.342468-.956991.857771-.956991.518504 0 .825765.355274.825765.956991v1.942789h.556911v-2.038806c0-.806563-.483296-1.353869-1.190637-1.353869-.4961 0-.857772.220841-1.037008.595314h-.01281v-1.821162h-.556912zM73.161062 97.981908h.556911V95.9271c0-.505701.281656-.806564.713743-.806564.134427 0 .25285.01603.29766.03198v-.540904c-.04481-.0062-.128026-.02237-.224046-.02237-.374474 0-.662532.243246-.774555.62732h-.01281v-.563309h-.556911zM76.400107 98.045919c.726546 0 1.270654-.435287 1.379476-.985791l.0064-.03205h-.547334l-.0096.0288c-.09602.28486-.393678.496101-.816162.496101-.592119 0-.969795-.400085-.982597-1.085021h2.397279v-.204838c0-.998597-.55371-1.673933-1.462692-1.673933-.908982 0-1.497899.707342-1.497899 1.737944v.0031c0 1.046604.576114 1.715538 1.533106 1.715538zm-.03841-2.963791c.486497 0 .844969.30406.89938.950588h-1.821164c.06081-.620917.438487-.950588.921784-.950588zM79.466323 98.045919c.108822 0 .227246-.01277.29766-.02237v-.45129c-.04801.0031-.112022.01277-.179236.01277-.297659 0-.454491-.09922-.454491-.454487v-2.016408h.633727v-.46089h-.633727v-.899383h-.576115v.899383h-.486497v.46089h.486497v2.019606c0 .636928.30086.912179.912182.912179z" style="font-size:8.46667px;line-height:1.25;font-family:&quot;SF Pro Display&quot;;-inkscape-font-specification:&quot;SF Pro Display&quot;;text-align:center;letter-spacing:0;text-anchor:middle;fill:#fff;fill-opacity:1;stroke:none;stroke-width:.204841" transform="matrix(.81 0 0 .81 1.8724962 12.5064183)"/></g></svg>