<svg width="543.038" height="543.038" viewBox="0 0 143.679 143.679" xmlns="http://www.w3.org/2000/svg"><defs><path id="c" d="M1600.665 5530.211h158.58v94.55h-158.58z"/><path id="b" d="M157-13h55v40h-55z"/><filter style="color-interpolation-filters:sRGB" id="a" x="-.056" y="-.035" width="1.113" height="1.07"><feGaussianBlur stdDeviation="1.138"/></filter></defs><text xml:space="preserve" transform="matrix(.26458 0 0 .26458 292.945 -2704.908)" style="font-size:36px;line-height:1.25;font-family:Lato;-inkscape-font-specification:Lato;text-align:center;letter-spacing:0;white-space:pre;shape-inside:url(#b)"><tspan x="157" y="60.48"><tspan dx="0 20.882812 20.039062 14.484375 18.84375">Ehret</tspan></tspan></text><g style="display:inline"><path d="M19.255 102.75v18.892h4.922V102.75zM31.394 118.096v-4.603h1.375q.688 0 1.217.582.53.582.53 1.693 0 1.19-.53 1.773-.529.555-1.217.555zm0-7.937v-3.863h1.19q.767 0 1.164.582.397.582.397 1.376 0 .767-.397 1.35-.397.555-1.164.555zm-4.922-7.408v18.89h7.435q1.535 0 2.62-.396 1.084-.423 1.746-1.164.688-.741 1.005-1.773.318-1.032.318-2.249 0-.74-.212-1.455-.185-.74-.609-1.35-.423-.608-1.084-1.005-.662-.423-1.588-.503v-.052q.794-.16 1.35-.556.555-.397.9-.953.37-.582.528-1.27.185-.714.185-1.455 0-2.143-1.27-3.413-1.243-1.296-3.889-1.296z" style="font-weight:900;font-stretch:condensed;font-size:26.4583px;line-height:1.25;font-family:'Helvetica Neue';-inkscape-font-specification:'Helvetica Neue Heavy Condensed';text-align:center;letter-spacing:0;text-anchor:middle;fill:#333;fill-opacity:1;stroke-width:.264583"/><path d="M48.862 108.201h4.604q0-3.043-1.456-4.418-1.428-1.403-4.656-1.403-3.122 0-4.657 1.508-1.535 1.509-1.535 4.392 0 1.667.556 2.7.582 1.031 1.429 1.666.873.635 1.878 1.032 1.006.397 1.852.794.874.37 1.43.926.581.529.581 1.455 0 .767-.423 1.296-.397.53-1.164.53-.715 0-1.164-.477-.45-.502-.45-1.72v-.45h-4.763v.662q0 1.482.424 2.487.423 1.006 1.217 1.64.82.61 1.984.847 1.19.265 2.725.265 3.255 0 4.974-1.35 1.72-1.375 1.72-4.392 0-1.72-.608-2.778-.582-1.084-1.482-1.746-.9-.661-1.931-1.058-1.032-.424-1.932-.82-.9-.397-1.508-.926-.582-.556-.582-1.482 0-.635.37-1.138.37-.529 1.164-.529.715 0 1.059.609.344.582.344 1.428z" style="font-weight:900;font-stretch:condensed;font-size:26.4583px;line-height:1.25;font-family:'Helvetica Neue';-inkscape-font-specification:'Helvetica Neue Heavy Condensed';text-align:center;letter-spacing:0;text-anchor:middle;fill:#999;fill-opacity:1;stroke-width:.264583"/><path d="M59.275 113.802q0-1.581.044-2.613.044-1.054.175-1.67.154-.614.418-.856.285-.241.746-.241t.725.241q.285.242.417.857.154.615.198 1.669.044 1.032.044 2.613t-.044 2.635q-.044 1.032-.198 1.647-.132.615-.417.857-.264.241-.725.241-.461 0-.746-.241-.264-.242-.418-.857-.131-.615-.175-1.647-.044-1.054-.044-2.635zm-4.217 0q0 2.196.286 3.755.285 1.537.944 2.526.659.966 1.735 1.383 1.076.417 2.635.417 1.56 0 2.635-.417 1.077-.417 1.735-1.383.66-.989.945-2.526.285-1.559.285-3.755 0-2.196-.285-3.733-.286-1.56-.945-2.526-.658-.988-1.735-1.427-1.076-.461-2.635-.461-1.559 0-2.635.46-1.076.44-1.735 1.428-.659.967-.944 2.526-.286 1.537-.286 3.733zM67.744 105.962v15.68h4.084v-6.456h4.875v-3.207h-4.875V109.3h5.205v-3.338zM80.36 109.432v12.21h4.084v-12.21h3.074v-3.47h-10.19v3.47z" style="font-size:21.9604px;line-height:1.25;font-family:'Helvetica Neue';-inkscape-font-specification:'Helvetica Neue, Normal';text-align:center;letter-spacing:0;text-anchor:middle;fill:#999;fill-opacity:1;stroke-width:.264583"/><path d="M96.013 108.201h4.604q0-3.043-1.455-4.418-1.429-1.403-4.657-1.403-3.122 0-4.656 1.508-1.535 1.509-1.535 4.392 0 1.667.556 2.7.582 1.031 1.428 1.666.874.635 1.879 1.032t1.852.794q.873.37 1.429.926.582.529.582 1.455 0 .767-.423 1.296-.397.53-1.165.53-.714 0-1.164-.477-.45-.502-.45-1.72v-.45h-4.762v.662q0 1.482.423 2.487.424 1.006 1.217 1.64.82.61 1.985.847 1.19.265 2.725.265 3.254 0 4.974-1.35 1.72-1.375 1.72-4.392 0-1.72-.609-2.778-.582-1.084-1.481-1.746-.9-.661-1.932-1.058-1.032-.424-1.931-.82-.9-.397-1.508-.926-.582-.556-.582-1.482 0-.635.37-1.138.37-.529 1.164-.529.714 0 1.058.609.344.582.344 1.428z" style="font-weight:900;font-stretch:condensed;font-size:26.4583px;line-height:1.25;font-family:'Helvetica Neue';-inkscape-font-specification:'Helvetica Neue Heavy Condensed';text-align:center;letter-spacing:0;text-anchor:middle;fill:#333;fill-opacity:1;stroke-width:.264583"/><path d="M105.372 115.471v6.17h4.085v-6.17l3.997-9.509h-4.48l-1.538 5.468h-.043l-1.538-5.468h-4.414zM120.185 110.486h3.821q0-2.525-1.208-3.667-1.185-1.164-3.865-1.164-2.59 0-3.865 1.251-1.273 1.252-1.273 3.646 0 1.383.46 2.24.484.856 1.187 1.383.724.527 1.559.857.834.33 1.537.659.725.307 1.186.768.483.44.483 1.208 0 .637-.351 1.076-.33.44-.966.44-.593 0-.967-.396-.373-.417-.373-1.427v-.374h-3.953v.55q0 1.23.351 2.064.352.834 1.01 1.361.681.505 1.648.703.988.22 2.262.22 2.7 0 4.128-1.12 1.428-1.142 1.428-3.646 0-1.427-.506-2.306-.483-.9-1.23-1.45-.746-.548-1.602-.878-.857-.351-1.604-.68-.746-.33-1.251-.769-.483-.461-.483-1.23 0-.527.307-.944.307-.44.966-.44.593 0 .879.506.285.483.285 1.186z" style="font-size:21.9604px;line-height:1.25;font-family:'Helvetica Neue';-inkscape-font-specification:'Helvetica Neue, Normal';text-align:center;letter-spacing:0;text-anchor:middle;fill:#333;fill-opacity:1;stroke-width:.264583"/><ellipse style="font-variation-settings:normal;fill:none;fill-opacity:1;stroke:#333;stroke-width:3.175;stroke-linecap:butt;stroke-linejoin:miter;stroke-miterlimit:4;stroke-dasharray:none;stroke-dashoffset:0;stroke-opacity:1;stop-color:#000" cx="71.839" cy="56.738" rx="54.338" ry="33.405"/><ellipse style="font-variation-settings:normal;fill:none;fill-opacity:1;stroke:#4d4d4d;stroke-width:2.64583;stroke-linecap:butt;stroke-linejoin:miter;stroke-miterlimit:4;stroke-dasharray:none;stroke-dashoffset:0;stroke-opacity:1;stop-color:#000" cx="91.652" cy="56.738" rx="33.282" ry="20.345"/><ellipse style="font-variation-settings:normal;fill:none;fill-opacity:1;stroke:#666;stroke-width:2.11667;stroke-linecap:butt;stroke-linejoin:miter;stroke-miterlimit:4;stroke-dasharray:none;stroke-dashoffset:0;stroke-opacity:1;stop-color:#000" cx="103.739" cy="56.738" rx="20.269" ry="12.273"/><ellipse style="font-variation-settings:normal;fill:none;fill-opacity:1;stroke:gray;stroke-width:1.85208;stroke-linecap:butt;stroke-linejoin:miter;stroke-miterlimit:4;stroke-dasharray:none;stroke-dashoffset:0;stroke-opacity:1;stop-color:#000" cx="110.988" cy="56.738" rx="12.227" ry="7.285"/><ellipse style="font-variation-settings:normal;fill:none;fill-opacity:1;stroke:#999;stroke-width:1.5875;stroke-linecap:butt;stroke-linejoin:miter;stroke-miterlimit:4;stroke-dasharray:none;stroke-dashoffset:0;stroke-opacity:1;stop-color:#000" cx="115.297" cy="56.738" rx="7.256" ry="4.202"/></g></svg>