<svg xmlns="http://www.w3.org/2000/svg" width="333.173" height="350.73654" viewBox="0 0 88.152023 92.799049"><defs><path id="b" d="M1600.6648 5530.2114h158.57976v94.550331H1600.6648z"/><path id="a" d="M157-13h55v40h-55z"/><path id="c" d="M157-13h55v40h-55z"/><path id="d" d="M1600.6648 5530.2114h158.57976v94.550331H1600.6648z"/><path id="e" d="M157-13h55v40h-55z"/><path id="f" d="M1600.6648 5530.2114h158.57976v94.550331H1600.6648z"/><path id="g" d="M157-13h55v40h-55z"/><path id="h" d="M1600.6648 5530.2114h158.57976v94.550331H1600.6648z"/><path id="i" d="M157-13h55v40h-55z"/><path id="j" d="M1600.6648 5530.2114h158.57976v94.550331H1600.6648z"/><path id="k" d="M157-13h55v40h-55z"/><path id="l" d="M1600.6648 5530.2114h158.57976v94.550331H1600.6648z"/><path id="m" d="M157-13h55v40h-55z"/><path id="n" d="M1600.6648 5530.2114h158.57976v94.550331H1600.6648z"/><path id="o" d="M157-13h55v40h-55z"/><path id="p" d="M1600.6648 5530.2114h158.57976v94.550331H1600.6648z"/></defs><g style="display:inline" transform="translate(-7.5177811 -2.6825836)"><ellipse cx="51.593781" cy="30.026939" rx="43.282249" ry="26.550606" style="font-variation-settings:normal;display:inline;fill:none;fill-opacity:1;stroke:#000;stroke-width:1.5875;stroke-linecap:butt;stroke-linejoin:miter;stroke-miterlimit:4;stroke-dasharray:none;stroke-dashoffset:0;stroke-opacity:1;stop-color:#000"/><ellipse cx="67.019264" cy="30.026939" rx="26.510872" ry="16.17045" style="font-variation-settings:normal;display:inline;fill:none;fill-opacity:1;stroke:#000;stroke-width:1.32292;stroke-linecap:butt;stroke-linejoin:miter;stroke-miterlimit:4;stroke-dasharray:none;stroke-dashoffset:0;stroke-opacity:1;stop-color:#000"/><ellipse cx="76.28009" cy="30.026939" rx="16.145391" ry="9.7550411" style="font-variation-settings:normal;display:inline;fill:none;fill-opacity:1;stroke:#000;stroke-width:1.05833;stroke-linecap:butt;stroke-linejoin:miter;stroke-miterlimit:4;stroke-dasharray:none;stroke-dashoffset:0;stroke-opacity:1;stop-color:#000"/><ellipse cx="81.766106" cy="30.026939" rx="9.7389774" ry="5.7899771" style="font-variation-settings:normal;display:inline;fill:none;fill-opacity:1;stroke:#000;stroke-width:.926042;stroke-linecap:butt;stroke-linejoin:miter;stroke-miterlimit:4;stroke-dasharray:none;stroke-dashoffset:0;stroke-opacity:1;stop-color:#000"/><ellipse cx="84.930321" cy="30.026939" rx="5.7796507" ry="3.3394673" style="font-variation-settings:normal;display:inline;fill:none;fill-opacity:1;stroke:#000;stroke-width:.79375;stroke-linecap:butt;stroke-linejoin:miter;stroke-miterlimit:4;stroke-dasharray:none;stroke-dashoffset:0;stroke-opacity:1;stop-color:#000"/><ellipse cx="86.91993" cy="30.026939" rx="3.1086199" ry="1.7900585" style="font-variation-settings:normal;display:inline;fill:none;fill-opacity:1;stroke:#000;stroke-width:.661458;stroke-linecap:butt;stroke-linejoin:miter;stroke-miterlimit:4;stroke-dasharray:none;stroke-dashoffset:0;stroke-opacity:1;stop-color:#000"/><ellipse cx="88.214539" cy="30.026939" rx="1.2934215" ry=".68038863" style="font-variation-settings:normal;display:inline;fill:none;fill-opacity:1;stroke:#000;stroke-width:.555625;stroke-linecap:butt;stroke-linejoin:miter;stroke-miterlimit:4;stroke-dasharray:none;stroke-dashoffset:0;stroke-opacity:1;stop-color:#000"/><path d="M7.9264858 75.982442c.2515104 0 .4191843-.167724.4191843-.440193V60.98616c0-.272479-.1676739-.440123-.4191843-.440123s-.4087047.167644-.4087047.440123v14.556089c0 .272469.1571943.440193.4087047.440193zM11.447631 75.825233h4.736779c3.175319 0 5.103565-1.561465 5.103565-4.034611 0-2.190231-1.634818-3.573548-3.772655-3.804069v-.06257c1.80249-.345872 2.976205-1.739614 2.976205-3.542105 0-2.190241-1.781531-3.678304-4.411911-3.678304h-4.631983c-.25151 0-.408704.167633-.408704.440113v14.241741c0 .272479.157194.440113.408704.440113zm.419184-8.153108v-6.214408h4.087043c2.253115 0 3.699299 1.163291 3.699299 2.986731 0 1.991074-1.530021 3.227677-3.898411 3.227677zm0 7.398557v-6.654521h4.024167c2.87141 0 4.558625 1.268047 4.558625 3.353452 0 2.033102-1.613858 3.301069-4.338554 3.301069z" style="font-weight:200;font-size:19.05px;line-height:1.25;font-family:Lato;-inkscape-font-specification:&quot;SF Pro Rounded Ultra-Light&quot;;text-align:center;letter-spacing:0;text-anchor:middle;fill:#000;stroke:none;stroke-width:.204507;fill-opacity:1"/><path d="M28.403623 76.076763c3.531624 0 5.774259-1.792066 5.774259-4.642437 0-2.200736-1.299471-3.468793-4.474789-4.139437l-1.645297-.345862c-1.959685-.419184-2.745656-1.152716-2.745656-2.253119 0-1.383317 1.30995-2.242614 3.081003-2.242614 1.509062 0 2.661818.597332 3.175318 1.991154.241031.544949.586858.806914 1.152756.806914.607816 0 1.03748-.398245 1.03748-1.006081 0-.220017-.03143-.398165-.08384-.54487-.586857-2.022597-2.640858-3.248695-5.250278-3.248695-3.217237 0-5.49131 1.781482-5.49131 4.369958 0 2.179726 1.372827 3.584063 4.390952 4.223263l1.655776.345862c2.022562.440123 2.819012 1.173725 2.819012 2.34737 0 1.351873-1.372827 2.336946-3.290594 2.336946-1.750092 0-3.12292-.66022-3.594502-2.074901-.230551-.565888-.576378-.806914-1.110838-.806914-.639255 0-1.058438.440113-1.058438 1.121262 0 .251541.05239.503001.125754.733612.586858 1.760543 2.598941 3.028589 5.533229 3.028589z" style="font-weight:500;font-size:19.05px;line-height:1.25;font-family:Lato;-inkscape-font-specification:&quot;SF Pro Rounded Medium&quot;;text-align:center;letter-spacing:0;text-anchor:middle;fill:#000;stroke:none;stroke-width:.204507;fill-opacity:1"/><path d="M40.632517 76.007239c3.147872 0 5.127619-2.169302 5.127619-5.650918 0-3.481615-1.979747-5.658564-5.127619-5.658564-3.155456 0-5.127618 2.176949-5.127618 5.658564 0 3.481616 1.972162 5.650918 5.127618 5.650918zm0-1.49425c-2.078353 0-3.390599-1.608051-3.390599-4.156668 0-2.556262 1.312246-4.164314 3.390599-4.164314 2.078355 0 3.383015 1.608052 3.383015 4.164314 0 2.548617-1.30466 4.156668-3.383015 4.156668zM48.217749 75.94659c.523381 0 .849546-.333738.849546-.879846v-3.823h4.058101c.455114 0 .766109-.280665.766109-.720549 0-.432397-.310995-.713062-.766109-.713062h-4.058101v-3.458828h4.460118c.470285 0 .79645-.288231.79645-.735761 0-.447539-.318581-.73577-.79645-.73577h-5.309664c-.530966 0-.849546.333738-.849546.879846v9.307124c0 .546108.31858.879846.849546.879846zM59.246679 75.94659c.523382 0 .849547-.333738.849547-.879846v-8.715439h2.677587c.470286 0 .788865-.288231.788865-.735761 0-.447539-.318579-.73577-.788865-.73577h-7.061852c-.470285 0-.788865.288231-.788865.73577 0 .44753.31858.735761.788865.735761h2.685173v8.715439c0 .546108.318579.879846.849545.879846z" style="font-weight:500;font-size:20.1083px;line-height:1.25;font-family:Lato;-inkscape-font-specification:&quot;SF Pro Rounded Medium&quot;;text-align:center;letter-spacing:0;text-anchor:middle;fill:#000;stroke:#000;stroke-width:.396875;stroke-miterlimit:4;stroke-dasharray:none;stroke-opacity:1;fill-opacity:1"/><path d="M70.355158 76.076763c3.531624 0 5.774258-1.792066 5.774258-4.642437 0-2.200736-1.299471-3.468793-4.474789-4.139437l-1.645297-.345862c-1.959684-.419184-2.745655-1.152716-2.745655-2.253119 0-1.383317 1.30995-2.242614 3.081003-2.242614 1.509062 0 2.661818.597332 3.175317 1.991154.241032.544949.586859.806914 1.152757.806914.607816 0 1.03748-.398245 1.03748-1.006081 0-.220017-.03143-.398165-.08384-.54487-.586857-2.022597-2.640859-3.248695-5.250278-3.248695-3.217237 0-5.491311 1.781482-5.491311 4.369958 0 2.179726 1.372828 3.584063 4.390953 4.223263l1.655776.345862c2.022562.440123 2.819012 1.173725 2.819012 2.34737 0 1.351873-1.372827 2.336946-3.290594 2.336946-1.750093 0-3.12292-.66022-3.594503-2.074901-.230551-.565888-.576377-.806914-1.110838-.806914-.639254 0-1.058438.440113-1.058438 1.121262 0 .251541.05239.503001.125755.733612.586858 1.760543 2.598941 3.028589 5.533229 3.028589z" style="font-weight:500;font-size:27.7812px;line-height:1.25;font-family:Lato;-inkscape-font-specification:&quot;SF Pro Rounded Medium&quot;;text-align:center;letter-spacing:0;text-anchor:middle;fill:#000;stroke:none;stroke-width:.204507;fill-opacity:1"/><path d="M81.742089 75.94659c.530966 0 .849547-.333738.849547-.879846v-3.724351l3.474037-5.256601c.128949-.197158.174461-.371678.174461-.561261 0-.439963-.364091-.766125-.834377-.766125-.33375 0-.546136.13651-.750938.477894l-2.874803 4.475264h-.05309L78.85212 65.2363c-.212387-.34896-.409603-.477894-.758524-.477894-.47787 0-.84196.326162-.84196.773701 0 .189663.04551.364103.174459.553685l3.466453 5.256601v3.724351c0 .546108.326164.879846.849545.879846zM91.291901 76.007239c2.556227 0 4.179466-1.297021 4.179466-3.360168 0-1.592909-.940573-2.510766-3.238901-2.996236l-1.190878-.250301c-1.418438-.303374-1.987332-.83434-1.987332-1.63076 0-1.001294.948152-1.623263 2.230058-1.623263 1.092278 0 1.926649.432317 2.298329 1.441177.174455.394457.424768.584039.834371.584039.439949 0 .750944-.288231.750944-.728115 0-.159308-.02279-.288241-.06065-.394466-.424777-1.463966-1.911484-2.351389-3.80021-2.351389-2.328666 0-3.974659 1.289456-3.974659 3.16302 0 1.577687.993664 2.594124 3.178212 3.056795l1.198472.250311c1.463948.318596 2.040422.849562 2.040422 1.699124 0 .978506-.993663 1.691479-2.381763 1.691479-1.266734 0-2.260397-.477894-2.60173-1.501816-.166877-.409599-.417189-.584119-.804041-.584119-.462696 0-.766107.318596-.766107.811631 0 .182087.03792.364103.09102.530967.424773 1.274313 1.881141 2.19209 4.005005 2.19209z" style="font-weight:500;font-size:20.1083px;line-height:1.25;font-family:Lato;-inkscape-font-specification:&quot;SF Pro Rounded Medium&quot;;text-align:center;letter-spacing:0;text-anchor:middle;fill:#000;stroke:#000;stroke-width:.396875;stroke-miterlimit:4;stroke-dasharray:none;stroke-opacity:1;fill-opacity:1"/><path d="M7.863512 86.609827c.2129942 0 .3457309-.135827.3457309-.358081v-3.836993c0-.222253-.1327367-.35808-.3457309-.35808-.2160816 0-.3457309.135827-.3457309.35808v3.836993c0 .222254.1296493.358081.3457309.358081zM9.2896504 86.619085c.1944735 0 .3333832-.13274.3333832-.351907v-1.599c0-.503166.302514-.836546.7717204-.836546.463032 0 .691461.268558.691461.756282v1.679264c0 .219167.138909.351907.333383.351907.19756 0 .33647-.13274.33647-.351907V84.45827c0-.743937-.410555-1.200798-1.126711-1.200798-.500075 0-.8396324.222253-1.0155844.592678h-.01543v-.256212c0-.206812-.1327361-.339553-.3241226-.339553-.1944734 0-.3179486.132741-.3179486.336466v2.676327c0 .219167.1358227.351907.333383.351907zM13.762539 87.782838c.966194.009 1.555788-.509338 1.555788-1.311925v-2.873879c0-.216091-.141997-.342649-.333383-.342649-.191387 0-.33647.126558-.33647.342649v.262375h-.01235c-.197561-.367329-.555639-.598851-1.015584-.598851-.839631 0-1.364401.63281-1.364401 1.648391 0 1.003235.530944 1.642228 1.348967 1.642228.463032 0 .845805-.231522 1.027931-.583429h.01543v.515511c0 .453775-.330296.762464-.873587.756291-.317948-.006-.546377-.126568-.811849-.404384-.08952-.0895-.154344-.123472-.256211-.123472-.169778 0-.283993.111127-.283993.265472 0 .07716.01852.145075.06174.219166.222255.351898.688374.580334 1.277967.586506zm.02161-1.774959c-.512422 0-.845805-.416729-.845805-1.095844 0-.676018.333383-1.102007.845805-1.102007.521683 0 .867414.438334.867414 1.105103 0 .66676-.345731 1.092748-.867414 1.092748zM17.377276 86.622172c.605028 0 1.077321-.243867 1.290315-.669856.02778-.06481.0463-.126558.0463-.179035 0-.16669-.117302-.271644-.27782-.271644-.09569 0-.163604.03395-.234602.117299-.246951.336466-.47538.463034-.839632.463034-.530943 0-.864326-.370425-.864326-.963113v-.01543h1.963255c.206821 0 .330297-.123472.330297-.339552 0-.885936-.595768-1.509488-1.460094-1.509488-.919891 0-1.506398.66677-1.506398 1.697782 0 1.04954.57416 1.670005 1.552701 1.670005zm-.876674-1.984867c.03395-.506242.367339-.845805.827284-.845805.463032 0 .78098.336476.796415.845805zM19.636872 86.619085c.194473 0 .333383-.13274.333383-.351907v-1.599c0-.503166.302514-.836546.77172-.836546.463032 0 .691461.268558.691461.756282v1.679264c0 .219167.138909.351907.333383.351907.19756 0 .336469-.13274.336469-.351907V84.45827c0-.743937-.410555-1.200798-1.126711-1.200798-.500074 0-.839631.222253-1.015583.592678h-.01543v-.256212c0-.206812-.132736-.339553-.324123-.339553-.194473 0-.317948.132741-.317948.336466v2.676327c0 .219167.135822.351907.333383.351907zM23.103437 82.822224c.216082 0 .388947-.172862.388947-.38277 0-.213005-.172865-.379694-.388947-.379694-.212994 0-.38586.166689-.38586.379694 0 .209908.172866.38277.38586.38277zm0 3.796861c.200648 0 .333383-.138913.333383-.351907v-2.657799c0-.216081-.132735-.354994-.333383-.354994-.200647 0-.333383.138913-.333383.354994v2.657799c0 .212994.132736.351907.333383.351907zM25.526637 86.622172c.605029 0 1.077321-.243867 1.290316-.669856.02778-.06481.0463-.126558.0463-.179035 0-.16669-.117301-.271644-.277819-.271644-.09569 0-.163605.03395-.234603.117299-.24695.336466-.475379.463034-.839631.463034-.530943 0-.864326-.370425-.864326-.963113v-.01543h1.963255c.206821 0 .330296-.123472.330296-.339552 0-.885936-.595768-1.509488-1.460094-1.509488-.91989 0-1.506397.66677-1.506397 1.697782 0 1.04954.574159 1.670005 1.5527 1.670005zm-.876674-1.984867c.03396-.506242.367339-.845805.827284-.845805.463032 0 .780981.336476.796415.845805zM28.576474 86.619085c.496988 0 .827284-.219166 1.006323-.608119h.01543v.271643c0 .203736.129648.336476.321035.336476.191386 0 .317948-.13274.317948-.339562v-2.670144c0-.222253-.135823-.354994-.333382-.354994-.194474 0-.333383.132741-.333383.354994v1.595914c0 .506252-.290167.839632-.771721.839632-.459944 0-.694547-.265471-.694547-.759368v-1.676178c0-.222253-.13891-.354994-.333383-.354994-.197561 0-.333383.132741-.333383.354994v1.805822c0 .743937.432163 1.203884 1.139058 1.203884zM31.231192 86.619085c.19756 0 .333383-.135826.333383-.351907v-1.65765c0-.404384.185212-.709987.642071-.713074.138909 0 .237689-.02778.305601-.08642.06482-.05247.09878-.129654.09878-.234608 0-.104954-.02779-.185208-.08952-.234599-.05556-.05247-.145084-.08024-.262385-.08024-.324123 0-.623551.243867-.71307.60812h-.01543v-.277827c0-.203725-.129648-.336466-.314861-.336466-.188299 0-.317949.132741-.317949.336466v2.676327c0 .21608.132737.351907.333384.351907zM33.314835 86.619085c.194474 0 .330296-.123471.330296-.333379v-.277827h.01234c.200647.376598.571072.60812 1.043365.60812.827284 0 1.358227-.648251 1.358227-1.679264 0-1.027935-.53403-1.676177-1.352053-1.676177-.459945 0-.833458.228426-1.027931.605033h-.01543v-1.466269c0-.219167-.138909-.351908-.333382-.351908-.194474 0-.333384.132741-.333384.351908v3.886384c0 .209908.126562.333379.317949.333379zm1.20697-.567988c-.503162 0-.86124-.438333-.86124-1.114362 0-.669855.358078-1.114362.86124-1.114362.524769 0 .851979.432161.851979 1.114362 0 .688374-.324123 1.114362-.851979 1.114362zM37.367908 82.828397c.203734 0 .367339-.160518.367339-.361167 0-.200649-.163605-.361166-.367339-.361166-.203734 0-.364252.160517-.364252.361166s.160518.361167.364252.361167zm1.188449 0c.203734 0 .367339-.160518.367339-.361167 0-.200649-.163605-.361166-.367339-.361166-.203734 0-.364252.160517-.364252.361166s.160518.361167.364252.361167zm-.855065 3.790688c.496987 0 .827283-.219166 1.006322-.608119h.01543v.271643c0 .203736.129648.336476.321035.336476s.317949-.13274.317949-.339562v-2.670144c0-.222253-.135823-.354994-.333383-.354994-.194474 0-.333384.132741-.333384.354994v1.595914c0 .506252-.290166.839632-.771719.839632-.459945 0-.694548-.265471-.694548-.759368v-1.676178c0-.222253-.13891-.354994-.333383-.354994-.197561 0-.333383.132741-.333383.354994v1.805822c0 .743937.432163 1.203884 1.139059 1.203884zM40.356008 86.619085c.197561 0 .333384-.135826.333384-.351907v-1.65765c0-.404384.185213-.709987.642071-.713074.138909 0 .23769-.02778.305601-.08642.06482-.05247.09878-.129654.09878-.234608 0-.104954-.02779-.185208-.08952-.234599-.05556-.05247-.145083-.08024-.262384-.08024-.324123 0-.62355.243867-.71307.60812h-.01543v-.277827c0-.203725-.129649-.336466-.314862-.336466-.188299 0-.317949.132741-.317949.336466v2.676327c0 .21608.132736.351907.333383.351907zM43.356454 86.622172c.929151 0 1.540353-.638983 1.540353-1.685437 0-1.043367-.614289-1.68235-1.540353-1.68235-.926063 0-1.540353.638983-1.540353 1.68235 0 1.046454.611202 1.685437 1.540353 1.685437zm0-.549471c-.521683 0-.861239-.413633-.861239-1.135966 0-.719246.339556-1.132889.861239-1.132889.521682 0 .86124.413643.86124 1.132889 0 .722333-.33647 1.135966-.86124 1.135966zM48.301636 86.634517c1.040278 0 1.700871-.527856 1.700871-1.367488 0-.648242-.382773-1.021753-1.318098-1.219316l-.48464-.101868c-.577246-.123472-.808762-.339552-.808762-.663673 0-.407471.385859-.660597.907542-.660597.444511 0 .784068.175949.935325.586506.07099.160517.172865.237694.339556.237694.179039 0 .305601-.117309.305601-.296344 0-.06481-.0093-.117299-.02469-.160517-.172865-.595765-.777894-.956931-1.546527-.956931-.947672 0-1.617525.52477-1.617525 1.287224 0 .64207.404381 1.055713 1.293402 1.244017l.487727.101868c.595768.129644.830371.345724.830371.691459 0 .398202-.404381.688374-.96928.688374-.515509 0-.91989-.194477-1.0588-.611206-.06791-.16669-.169779-.237685-.327209-.237685-.1883 0-.311775.129644-.311775.330293 0 .07407.01543.148173.03704.216081.172866.518597.765547.892109 1.629873.892109zM51.937979 86.622172c.929152 0 1.540354-.638983 1.540354-1.685437 0-1.043367-.61429-1.68235-1.540354-1.68235-.926063 0-1.540352.638983-1.540352 1.68235 0 1.046454.611202 1.685437 1.540352 1.685437zm0-.549471c-.521682 0-.861239-.413633-.861239-1.135966 0-.719246.339557-1.132889.861239-1.132889.521683 0 .86124.413643.86124 1.132889 0 .722333-.33647 1.135966-.86124 1.135966zM54.530958 86.619085c.200648 0 .333384-.126568.333384-.348821v-2.429373h.429076c.157431 0 .265472-.09259.265472-.259299 0-.160517-.108041-.262385-.265472-.262385h-.438337v-.293247c0-.296345.117301-.429075.398208-.432172.06791 0 .123475-.009.169778-.0216.10804-.03086.160517-.09567.160517-.203735 0-.179035-.169778-.293248-.524769-.293248-.558725.003-.864326.296334-.864326.926058v.317948h-.231516c-.157431 0-.265472.101868-.265472.262385 0 .16669.108041.259299.265472.259299h.231516v2.429373c0 .222253.132736.348821.336469.348821zM56.231829 85.78254c0 .537115.277819.805673.824197.805673h.03396c.327209 0 .481553-.101868.481553-.302507 0-.157431-.09569-.234609-.28708-.253126l-.05248-.003c-.240777-.01852-.330296-.135827-.330296-.395126v-1.793476h.379687c.172864 0 .277818-.09876.277818-.262385 0-.163604-.104954-.265472-.277818-.265472h-.379691v-.481551c0-.212995-.132736-.354994-.333383-.354994-.203733 0-.33647.141999-.33647.354994v.481551h-.234602c-.172866 0-.27782.09876-.27782.265472 0 .163603.104954.262385.27782.262385h.234602zM59.037804 86.619085c.225341 0 .364252-.10804.425989-.336476l.601942-2.154633h.01543l.608115 2.154633c.06174.237695.191387.336476.422902.336476.219169 0 .354992-.10804.419816-.336476l.740852-2.552844c.0216-.07716.03087-.132731.03087-.188304 0-.172863-.126562-.287076-.321036-.287076-.166692 0-.262385.0895-.305601.277817l-.58342 2.336774h-.01543l-.620463-2.312074c-.0463-.197563-.175952-.302517-.376599-.302517-.203734 0-.33647.104954-.382773.302517l-.617376 2.312074h-.01235l-.583414-2.336774c-.04322-.188294-.141996-.277817-.308688-.277817-.194474 0-.324122.114213-.324122.287076 0 .05555.0093.114222.03396.188304l.740852 2.552844c.06791.234609.191386.336476.410555.336476zM63.655775 86.615999c.422903 0 .836544-.228436 1.024844-.589592h.01543v.27473c.0062.197563.132736.317948.317949.317948.1883 0 .321035-.126568.321035-.336476v-1.960166c0-.651328-.503161-1.068058-1.290316-1.068058-.583419 0-1.074234.234599-1.244012.601938-.04013.07407-.05865.148172-.05865.21609 0 .16669.120389.277817.287081.277817.117301 0 .203733-.04321.271645-.142.185212-.296344.398207-.410557.719243-.410557.407468 0 .651331.216081.651331.577247v.25004l-.892108.05247c-.768633.04321-1.20697.392029-1.20697.960017 0 .58342.447598.978545 1.083495.978545zm.182126-.527856c-.354991 0-.592681-.185218-.592681-.469207 0-.277816.225342-.453775.62355-.481552l.802588-.04938v.256212c0 .422902-.367338.743937-.833457.743937zM66.310491 86.619085c.197561 0 .333384-.135826.333384-.351907v-1.65765c0-.404384.185212-.709987.642071-.713074.138909 0 .237689-.02778.305601-.08642.06482-.05247.09878-.129654.09878-.234608 0-.104954-.02779-.185208-.08952-.234599-.05556-.05247-.145083-.08024-.262384-.08024-.324123 0-.623551.243867-.71307.60812h-.01543v-.277827c0-.203725-.129648-.336466-.314861-.336466-.188299 0-.317949.132741-.317949.336466v2.676327c0 .21608.132736.351907.333383.351907zM69.323289 86.622172c.605027 0 1.07732-.243867 1.290314-.669856.02779-.06481.04631-.126558.04631-.179035 0-.16669-.117301-.271644-.277819-.271644-.0957 0-.163605.03395-.234603.117299-.24695.336466-.475379.463034-.839631.463034-.530943 0-.864326-.370425-.864326-.963113v-.01543h1.963255c.20682 0 .330296-.123472.330296-.339552 0-.885936-.595768-1.509488-1.460094-1.509488-.91989 0-1.506397.66677-1.506397 1.697782 0 1.04954.57416 1.670005 1.552701 1.670005zm-.876675-1.984867c.03396-.506242.367339-.845805.827284-.845805.463032 0 .78098.336476.796415.845805zM74.132643 86.634517c1.040279 0 1.700871-.527856 1.700871-1.367488 0-.648242-.382772-1.021753-1.318097-1.219316l-.48464-.101868c-.577246-.123472-.808762-.339552-.808762-.663673 0-.407471.385859-.660597.907542-.660597.44451 0 .784068.175949.935324.586506.071.160517.172865.237694.339557.237694.179039 0 .305601-.117309.305601-.296344 0-.06481-.0093-.117299-.0247-.160517-.172865-.595765-.777894-.956931-1.546526-.956931-.947672 0-1.617525.52477-1.617525 1.287224 0 .64207.40438 1.055713 1.293402 1.244017l.487727.101868c.595768.129644.83037.345724.83037.691459 0 .398202-.404381.688374-.96928.688374-.515509 0-.919889-.194477-1.0588-.611206-.06791-.16669-.169778-.237685-.327209-.237685-.1883 0-.311774.129644-.311774.330293 0 .07407.01543.148173.03704.216081.172866.518597.765546.892109 1.629872.892109zM76.775016 87.770493c.601941 0 .907542-.265471 1.194622-1.046454l1.126712-2.978843c.0216-.06481.03396-.132731.03396-.185208 0-.179045-.132736-.305603-.324122-.305603-.169779 0-.262385.07407-.317949.256213l-.83037 2.444804h-.0093l-.827244-2.444804c-.05865-.185218-.154344-.256213-.321035-.256213-.194474 0-.339558.126558-.339558.30869 0 .05247.01234.120385.03705.188294l1.086582 2.843016-.06174.188304c-.120388.33338-.308688.435247-.493901.435247-.07717 0-.101866-.003-.172865-.003-.160517 0-.259298.09259-.259298.234608 0 .206822.169778.321035.478467.321035zM80.769435 86.622172c.802589 0 1.342793-.401298 1.342793-1.003236 0-.481552-.262385-.725419-.944585-.88285l-.503162-.117299c-.342644-.08024-.500075-.222253-.500075-.425988 0-.253127.246951-.429075.605029-.429075.327209 0 .52477.129644.669853.376598.06482.104954.160518.141999.268558.141999.166692 0 .259299-.09876.259299-.246953 0-.03086-.0062-.06173-.01234-.09876-.09261-.38277-.57416-.682201-1.160667-.682201-.77172 0-1.281055.388943-1.281055.975459 0 .463024.308688.771713.938412.919886l.512421.120385c.348818.08333.47538.197563.47538.410557 0 .268558-.256211.432161-.635897.432161-.385861 0-.580334-.117299-.747025-.379684-.08335-.123472-.179039-.175949-.290167-.175949-.166692 0-.28708.09876-.28708.265472 0 .04321.0062.0895.02779.138903.154343.398212.623549.660597 1.262533.660597zM82.828386 85.78254c0 .537115.277818.805673.824196.805673h.03396c.327211 0 .481554-.101868.481554-.302507 0-.157431-.0957-.234609-.28708-.253126l-.05248-.003c-.240776-.01852-.330296-.135827-.330296-.395126v-1.793476h.379687c.172865 0 .277818-.09876.277818-.262385 0-.163604-.104953-.265472-.277818-.265472h-.379691v-.481551c0-.212995-.132735-.354994-.333383-.354994-.203734 0-.336469.141999-.336469.354994v.481551h-.234604c-.172865 0-.277819.09876-.277819.265472 0 .163603.104954.262385.277819.262385h.234604zM85.992439 86.622172c.605027 0 1.07732-.243867 1.290316-.669856.02778-.06481.0463-.126558.0463-.179035 0-.16669-.117301-.271644-.277818-.271644-.0957 0-.163605.03395-.234604.117299-.24695.336466-.475379.463034-.839631.463034-.530943 0-.864326-.370425-.864326-.963113v-.01543h1.963255c.206822 0 .330296-.123472.330296-.339552 0-.885936-.595767-1.509488-1.460094-1.509488-.91989 0-1.506397.66677-1.506397 1.697782 0 1.04954.57416 1.670005 1.552701 1.670005zm-.876675-1.984867c.03396-.506242.367339-.845805.827284-.845805.463032 0 .780981.336476.796415.845805zM88.252035 86.619085c.200647 0 .333383-.138913.333383-.351907v-1.713213c0-.41673.280905-.725419.676026-.725419.3766 0 .614289.237685.614289.611196v1.827436c0 .212994.126562.351907.327209.351907.200648 0 .32721-.138913.32721-.351907v-1.734827c0-.410557.274732-.703805.669852-.703805.395121 0 .620463.240771.620463.660587v1.778045c0 .212994.132736.351907.333383.351907s.33647-.138913.33647-.351907v-1.938562c0-.645156-.419816-1.071144-1.061887-1.071144-.463031 0-.845804.24078-1.012496.635896h-.01543c-.129648-.404384-.456857-.635896-.907542-.635896-.438337 0-.777894.24078-.922977.601937h-.01543v-.265471c0-.212995-.132736-.339553-.317949-.339553-.1883 0-.317949.129645-.317949.339553v2.67324c0 .212994.132736.351907.333384.351907zM94.327012 86.622172c.802588 0 1.342793-.401298 1.342793-1.003236 0-.481552-.262385-.725419-.944585-.88285l-.503162-.117299c-.342644-.08024-.500075-.222253-.500075-.425988 0-.253127.246951-.429075.605029-.429075.327209 0 .52477.129644.669853.376598.06482.104954.160518.141999.268558.141999.166692 0 .259298-.09876.259298-.246953 0-.03086-.0062-.06173-.01234-.09876-.09261-.38277-.57416-.682201-1.160667-.682201-.77172 0-1.281055.388943-1.281055.975459 0 .463024.308688.771713.938412.919886l.512421.120385c.348818.08333.47538.197563.47538.410557 0 .268558-.256211.432161-.635897.432161-.385861 0-.580334-.117299-.747025-.379684-.08335-.123472-.179039-.175949-.290167-.175949-.166691 0-.28708.09876-.28708.265472 0 .04321.0062.0895.02779.138903.154343.398212.623549.660597 1.262533.660597z" style="font-weight:500;font-size:6.35px;line-height:1.25;font-family:&quot;SF Pro Rounded&quot;;-inkscape-font-specification:&quot;SF Pro Rounded Medium&quot;;text-align:center;letter-spacing:0;text-anchor:middle;display:inline;fill:#000;stroke-width:.263413;fill-opacity:1;stroke:none;stroke-opacity:1"/><path d="M28.664437 94.462848h1.021243c1.106133 0 1.75695-.689409 1.75695-1.862421 0-1.170443-.65339-1.849557-1.75695-1.849557h-1.021243c-.180068 0-.288109.113187-.288109.298395v3.115178c0 .185217.108041.298405.288109.298405zm.288109-.499044v-2.716459h.679113c.784583 0 1.221891.483613 1.221891 1.358229 0 .877186-.434736 1.35823-1.221891 1.35823zM32.198916 94.511721c.164634 0 .27782-.113188.27782-.293258v-1.381377c0-.336983.154343-.591652.535059-.594221.115758 0 .198074-.0232.254668-.07208.05402-.04371.08231-.10804.08231-.195502 0-.08751-.02315-.154345-.0746-.195502-.0463-.04371-.120903-.0669-.218654-.0669-.270102 0-.519625.203218-.594225.50676h-.01286v-.231512c0-.169776-.108041-.280395-.262385-.280395-.156916 0-.264957.110619-.264957.280395v2.230267c0 .180071.110613.293258.277819.293258zM33.79895 94.491142c.187785 0 .336984-.149197.336984-.336984 0-.187786-.149199-.336983-.336984-.336983-.187786 0-.336985.149197-.336985.336983 0 .187787.149199.336984.336985.336984zM35.02084 93.207512h1.23218c.154345 0 .270103-.09518.270103-.252091 0-.154345-.115758-.249522-.270103-.249522h-1.23218c-.154343 0-.26753.09518-.26753.249522 0 .156913.113187.252091.26753.252091zM37.410601 94.504005c.177496 0 .288109-.113187.288109-.298395v-3.197503c0-.185207-.110613-.298395-.288109-.298395-.180068 0-.288108.113188-.288108.298395v3.197503c0 .185208.10804.298395.288108.298395zM38.59905 94.511721c.162062 0 .27782-.110609.27782-.293258v-1.332504c0-.419298.252095-.697114.6431-.697114.385861 0 .576218.223796.576218.630231v1.399387c0 .182649.115758.293258.277819.293258.164634 0 .280392-.110609.280392-.293258v-1.507427c0-.619947-.342129-1.000657-.938926-1.000657-.416729 0-.699693.185208-.84632.493897h-.01286v-.213512c0-.172344-.110614-.282963-.270102-.282963-.162062 0-.264958.110619-.264958.280395v2.230267c0 .182649.113186.293258.27782.293258zM42.326459 95.481515c.805162.008 1.29649-.424446 1.29649-1.093266v-2.394906c0-.180071-.11833-.285542-.277819-.285542s-.280391.105471-.280391.285542v.218649h-.01029c-.164633-.306111-.463032-.499044-.84632-.499044-.699693 0-1.137001.527338-1.137001 1.373661 0 .836027.442452 1.368523 1.124139 1.368523.38586 0 .704838-.192933.856609-.486191h.01286v.429592c0 .378141-.275247.635389-.72799.630242-.264957-.005-.455315-.105472-.676542-.336984-.0746-.07457-.12862-.102903-.213509-.102903-.141481 0-.236661.09259-.236661.221228 0 .06431.01543.120903.05145.182639.185212.293258.573645.483613 1.064975.48876zm.01801-1.479133c-.427019 0-.704837-.347268-.704837-.913195 0-.563358.277818-.918352.704837-.918352.434736 0 .722845.365278.722845.920921s-.288109.910626-.722845.910626zM44.582456 94.491142c.187785 0 .336985-.149197.336985-.336984 0-.187786-.1492-.336983-.336985-.336983-.187785 0-.336985.149197-.336985.336983 0 .187787.1492.336984.336985.336984zM47.293766 94.524584c.722845 0 1.155008-.427024 1.155008-1.162728v-2.353749c0-.185207-.110613-.298395-.288109-.298395-.180068 0-.288109.113188-.288109.298395v2.351181c0 .421867-.205792.65081-.583935.65081-.280392 0-.478466-.159482-.558211-.447592-.04631-.169777-.133764-.244375-.280391-.244375-.164634 0-.270103.10804-.270103.282963 0 .102893.02058.177492.05402.270101.151772.403867.553067.653389 1.05983.653389zM49.732403 91.352817c.169779 0 .306116-.133766.306116-.300974 0-.167207-.136337-.300973-.306116-.300973-.169778 0-.303543.133766-.303543.300973 0 .167208.133765.300974.303543.300974zm.990375 0c.169778 0 .306116-.133766.306116-.300974 0-.167207-.136338-.300973-.306116-.300973-.169779 0-.303543.133766-.303543.300973 0 .167208.133764.300974.303543.300974zm-.712555 3.158904c.414156 0 .689403-.182639.838602-.50676h.01286v.226365c0 .169786.108042.280395.26753.280395.159489 0 .264958-.110609.264958-.282964v-2.22513c0-.185207-.113187-.295826-.27782-.295826-.162061 0-.277819.110619-.277819.295826v1.329935c0 .421877-.241806.699693-.6431.699693-.383289 0-.578791-.221227-.578791-.63281v-1.396818c0-.185207-.115758-.295826-.277819-.295826-.164634 0-.277819.110619-.277819.295826v1.504858c0 .619948.360135 1.003236.949216 1.003236zM52.222488 94.511721c.164634 0 .277819-.113188.277819-.293258v-1.381377c0-.336983.154344-.591652.53506-.594221.115758 0 .198074-.0232.254668-.07208.05402-.04371.08231-.10804.08231-.195502 0-.08751-.02315-.154345-.0746-.195502-.04631-.04371-.120903-.0669-.218654-.0669-.270102 0-.519625.203218-.594225.50676h-.01286v-.231512c0-.169776-.108041-.280395-.262385-.280395-.156916 0-.264957.110619-.264957.280395v2.230267c0 .180071.110612.293258.277819.293258zM54.694566 95.481515c.805161.008 1.296489-.424446 1.296489-1.093266v-2.394906c0-.180071-.11833-.285542-.277818-.285542-.159489 0-.280392.105471-.280392.285542v.218649h-.01029c-.164634-.306111-.463033-.499044-.84632-.499044-.699693 0-1.137002.527338-1.137002 1.373661 0 .836027.442453 1.368523 1.12414 1.368523.38586 0 .704838-.192933.85661-.486191h.01286v.429592c0 .378141-.275247.635389-.72799.630242-.264958-.005-.455315-.105472-.676542-.336984-.0746-.07457-.12862-.102903-.213509-.102903-.141482 0-.236661.09259-.236661.221228 0 .06431.01543.120903.05145.182639.185213.293258.573645.483613 1.064975.48876zm.01801-1.479133c-.427018 0-.704838-.347268-.704838-.913195 0-.563358.27782-.918352.704838-.918352.434735 0 .722845.365278.722845.920921s-.28811.910626-.722845.910626zM57.706848 94.514289c.504191 0 .897768-.203217 1.075263-.558211.02315-.05406.03859-.105462.03859-.149198 0-.138903-.09776-.226364-.231516-.226364-.07975 0-.136338.02827-.195503.09776-.205792.280395-.39615.385857-.699693.385857-.442453 0-.720272-.308679-.720272-.802586v-.01284h1.636046c.172351 0 .275247-.102893.275247-.282964 0-.738272-.496473-1.257904-1.216745-1.257904-.766575 0-1.255332.555642-1.255332 1.414827 0 .874617.478466 1.391661 1.293918 1.391661zm-.730562-1.654045c.02829-.421877.306115-.704841.689403-.704841.385861 0 .650818.280385.66368.704841zM59.589844 94.511721c.162061 0 .277819-.110609.277819-.293258v-1.332504c0-.419298.252096-.697114.643101-.697114.385859 0 .576217.223796.576217.630231v1.399387c0 .182649.115758.293258.27782.293258.164634 0 .280392-.110609.280392-.293258v-1.507427c0-.619947-.34213-1.000657-.938927-1.000657-.416729 0-.699693.185208-.84632.493897h-.01286v-.213512c0-.172344-.110613-.282963-.270102-.282963-.162062 0-.264958.110619-.264958.280395v2.230267c0 .182649.113186.293258.27782.293258zM63.607938 94.462848h1.841839c.159489 0 .26753-.09777.26753-.249522 0-.151776-.108041-.249522-.26753-.249522h-1.553731v-1.152443h1.468842c.154343 0 .257239-.09518.257239-.239228 0-.146629-.105468-.239238-.257239-.239238h-1.468842v-1.082981h1.553731c.159489 0 .26753-.09777.26753-.249522 0-.151766-.108041-.249522-.26753-.249522h-1.841839c-.180069 0-.28811.113187-.28811.298395v3.115178c0 .185217.108041.298405.28811.298405zM66.504461 94.511721c.162061 0 .277819-.110609.277819-.293258v-1.319641c0-.427014.252096-.709977.663679-.709977.391005 0 .591653.239228.591653.637957v1.391661c0 .182649.115758.293258.27782.293258.164633 0 .280391-.110609.280391-.293258v-1.499701c0-.612232-.354991-1.008383-.949216-1.008383-.411584 0-.707411.182639-.85661.499044h-.01286v-1.219316c0-.174923-.102896-.28811-.275247-.28811-.169778 0-.275247.113187-.275247.28811v3.228356c0 .182649.115758.293258.27782.293258zM69.406129 94.511721c.164634 0 .277819-.113188.277819-.293258v-1.381377c0-.336983.154344-.591652.535059-.594221.115758 0 .198076-.0232.254669-.07208.05402-.04371.08231-.10804.08231-.195502 0-.08751-.02315-.154345-.0746-.195502-.0463-.04371-.120903-.0669-.218654-.0669-.270101 0-.519624.203218-.594224.50676h-.01286v-.231512c0-.169776-.108041-.280395-.262385-.280395-.156916 0-.264958.110619-.264958.280395v2.230267c0 .180071.110614.293258.27782.293258zM71.91679 94.514289c.504191 0 .897769-.203217 1.075264-.558211.02315-.05406.03859-.105462.03859-.149198 0-.138903-.09776-.226364-.231516-.226364-.07975 0-.136337.02827-.195503.09776-.205792.280395-.39615.385857-.699693.385857-.442452 0-.720272-.308679-.720272-.802586v-.01284h1.636047c.172351 0 .275247-.102893.275247-.282964 0-.738272-.496474-1.257904-1.216746-1.257904-.766575 0-1.255332.555642-1.255332 1.414827 0 .874617.478467 1.391661 1.293918 1.391661zm-.730562-1.654045c.02829-.421877.306116-.704841.689404-.704841.385861 0 .650817.280385.663679.704841zM73.684032 93.814596c0 .447603.231516.671399.686832.671399h.02829c.272674 0 .401294-.08492.401294-.252091 0-.131197-.07975-.195502-.239233-.210943l-.04373-.003c-.200649-.01543-.275247-.113187-.275247-.329268v-1.494564h.316405c.144054 0 .231516-.08233.231516-.218659 0-.136334-.08746-.221217-.231516-.221217h-.316405v-.401299c0-.177492-.110614-.295826-.27782-.295826-.169779 0-.280392.118334-.280392.295826v.401299h-.195503c-.144054 0-.231516.08233-.231516.221217 0 .136345.08746.218659.231516.218659h.195503z" style="font-weight:500;font-size:5.29167px;line-height:1.25;font-family:&quot;SF Pro Rounded&quot;;-inkscape-font-specification:&quot;SF Pro Rounded Medium&quot;;text-align:center;letter-spacing:0;text-anchor:middle;display:inline;fill:#000;stroke-width:.263413;fill-opacity:1;stroke:none;stroke-opacity:1"/></g></svg>