<svg xmlns="http://www.w3.org/2000/svg" width="560.69751" height="537.16296" viewBox="0 0 148.35119 142.12438"><defs><filter id="a" width="1.0042869" height="1.003508" x="-.00214345" y="-.00175401" style="color-interpolation-filters:sRGB"><feGaussianBlur stdDeviation=".07009692"/></filter></defs><ellipse cx="74.175606" cy="47.03931" rx="59.911781" ry="36.751652" style="font-variation-settings:normal;display:inline;fill:none;fill-opacity:1;stroke:#000;stroke-width:2.19744;stroke-linecap:butt;stroke-linejoin:miter;stroke-miterlimit:4;stroke-dasharray:none;stroke-dashoffset:0;stroke-opacity:1;stop-color:#000"/><ellipse cx="95.52774" cy="47.03931" rx="36.696651" ry="22.383322" style="font-variation-settings:normal;display:inline;fill:none;fill-opacity:1;stroke:#000;stroke-width:1.83121;stroke-linecap:butt;stroke-linejoin:miter;stroke-miterlimit:4;stroke-dasharray:none;stroke-dashoffset:0;stroke-opacity:1;stop-color:#000"/><ellipse cx="108.34669" cy="47.03931" rx="22.348635" ry="13.503039" style="font-variation-settings:normal;display:inline;fill:none;fill-opacity:1;stroke:#000;stroke-width:1.46494;stroke-linecap:butt;stroke-linejoin:miter;stroke-miterlimit:4;stroke-dasharray:none;stroke-dashoffset:0;stroke-opacity:1;stop-color:#000"/><ellipse cx="115.94048" cy="47.03931" rx="13.480803" ry="8.0145521" style="font-variation-settings:normal;display:inline;fill:none;fill-opacity:1;stroke:#000;stroke-width:1.28183;stroke-linecap:butt;stroke-linejoin:miter;stroke-miterlimit:4;stroke-dasharray:none;stroke-dashoffset:0;stroke-opacity:1;stop-color:#000"/><ellipse cx="120.32042" cy="47.03931" rx="8.0002584" ry="4.6225286" style="font-variation-settings:normal;display:inline;fill:none;fill-opacity:1;stroke:#000;stroke-width:1.09872;stroke-linecap:butt;stroke-linejoin:miter;stroke-miterlimit:4;stroke-dasharray:none;stroke-dashoffset:0;stroke-opacity:1;stop-color:#000"/><ellipse cx="123.07446" cy="47.03931" rx="4.3029871" ry="2.4778194" style="font-variation-settings:normal;display:inline;fill:none;fill-opacity:1;stroke:#000;stroke-width:.915597;stroke-linecap:butt;stroke-linejoin:miter;stroke-miterlimit:4;stroke-dasharray:none;stroke-dashoffset:0;stroke-opacity:1;stop-color:#000"/><ellipse cx="124.86649" cy="47.03931" rx="1.7903688" ry=".94180167" style="font-variation-settings:normal;display:inline;fill:none;fill-opacity:1;stroke:#000;stroke-width:.769103;stroke-linecap:butt;stroke-linejoin:miter;stroke-miterlimit:4;stroke-dasharray:none;stroke-dashoffset:0;stroke-opacity:1;stop-color:#000"/><path d="M14.043699 109.5323c.54261 0 .8785-.34881.8785-.91725V91.445567c0-.56844-.33589-.917255-.8785-.917255-.5426 0-.87849.348815-.87849.917255v17.169483c0 .56844.33589.91725.87849.91725zM19.288849 109.35144h5.86527c3.94033 0 6.30452-1.93787 6.30452-5.11597 0-2.58381-1.79575-4.327895-4.37957-4.637955v-.0904c1.98954-.36173 3.41064-2.13165 3.41064-4.198705 0-2.751767-2.17041-4.599197-5.37434-4.599197h-5.82652c-.5426 0-.87849.348815-.87849.917255v16.807742c0 .56844.33589.91726.87849.91726zm.8785-10.361125v-6.717926h4.57336c2.48047 0 3.96616 1.201476 3.96616 3.229773 0 2.196243-1.65364 3.488153-4.48292 3.488153zm0 8.797915v-7.27346h4.50877c3.21685 0 4.97385 1.30483 4.97385 3.63027 0 2.31252-1.6924 3.64319-4.74131 3.64319z" style="font-weight:300;font-size:26.4583px;line-height:1.25;font-family:&quot;SF Pro Rounded&quot;;-inkscape-font-specification:&quot;SF Pro Rounded Light&quot;;fill:#000;fill-opacity:1;stroke:none;stroke-width:.264583"/><path d="M40.437409 109.6615c4.482923 0 7.286365-2.24793 7.286365-5.8136 0-2.76469-1.653643-4.340825-5.581045-5.154725l-2.00246-.41341c-2.32544-.49092-3.25561-1.30483-3.25561-2.570898 0-1.56321 1.47277-2.545061 3.53983-2.545061 1.74408 0 3.074742.671793 3.707778 2.247922.348815.723469.826822 1.059367 1.601967 1.059367.865579 0 1.446939-.555522 1.446939-1.369425 0-.310058-.03876-.555521-.116272-.762226-.762227-2.467547-3.320207-3.940323-6.614572-3.940323-4.04368 0-6.92464 2.222083-6.92464 5.503533 0 2.725931 1.74408 4.482926 5.4777 5.245156l2.00246.41341c2.428787.50385 3.358962 1.33067 3.358962 2.67425 0 1.5503-1.57613 2.66134-3.824052 2.66134-1.98954 0-3.59151-.72347-4.17287-2.33836-.36173-.74931-.82682-1.04645-1.56321-1.04645-.87849 0-1.47277.59428-1.47277 1.52446 0 .31006.0646.64596.18086.95601.72347 2.11873 3.20394 3.66903 6.92464 3.66903z" style="font-weight:600;font-size:26.4583px;line-height:1.25;font-family:&quot;SF Pro Rounded&quot;;-inkscape-font-specification:&quot;SF Pro Rounded Semi-Bold&quot;;fill:#000;fill-opacity:1;stroke:none;stroke-width:.264583"/><path d="M56.935087 109.60982c4.534601 0 7.376801-2.95847 7.376801-7.73854 0-4.767155-2.8422-7.738542-7.376801-7.738542-4.54752 0-7.402639 2.971387-7.402639 7.738542 0 4.78007 2.8422 7.73854 7.402639 7.73854zm0-2.68717c-2.506304 0-4.108271-1.96371-4.108271-5.05137 0-3.100585 1.614886-5.051375 4.108271-5.051375s4.095352 1.95079 4.095352 5.051375c0 3.08766-1.601967 5.05137-4.095352 5.05137zM68.329728 109.57106c.981851 0 1.614887-.59428 1.614887-1.58905v-4.48293h5.064284c.839741 0 1.369423-.45216 1.369423-1.25315 0-.8139-.529682-1.27899-1.369423-1.27899h-5.064284v-3.927405h5.619804c.86558 0 1.421101-.47801 1.421101-1.317749 0-.83974-.555521-1.343585-1.421101-1.343585h-7.24761c-.968932 0-1.589048.594278-1.589048 1.589048v12.014761c0 .99477.620116 1.58905 1.601967 1.58905zM84.297723 109.57106c.981851 0 1.614887-.59428 1.614887-1.58905V97.052455h3.307287c.800984 0 1.395262-.52969 1.395262-1.330669 0-.813902-.594278-1.343585-1.395262-1.343585h-9.818509c-.826822 0-1.408181.529683-1.408181 1.343585 0 .800979.594278 1.330669 1.408181 1.330669h3.294368v10.929555c0 .99477.620116 1.58905 1.601967 1.58905z" style="font-weight:600;font-size:26.4583px;line-height:1.25;font-family:&quot;SF Pro Rounded&quot;;-inkscape-font-specification:&quot;SF Pro Rounded, Semi-Bold&quot;;font-variant-caps:all-small-caps;fill:#000;fill-opacity:1;stroke:none;stroke-width:.264583"/><path d="M99.270952 109.6615c4.482928 0 7.286368-2.24793 7.286368-5.8136 0-2.76469-1.65364-4.340825-5.58105-5.154725l-2.002457-.41341c-2.325436-.49092-3.255611-1.30483-3.255611-2.570898 0-1.56321 1.472777-2.545061 3.539831-2.545061 1.744077 0 3.074747.671793 3.707777 2.247922.34882.723469.82682 1.059367 1.60197 1.059367.86558 0 1.44694-.555522 1.44694-1.369425 0-.310058-.0388-.555521-.11627-.762226-.76223-2.467547-3.32021-3.940323-6.614579-3.940323-4.043675 0-6.924633 2.222083-6.924633 5.503533 0 2.725931 1.744078 4.482926 5.477695 5.245156l2.002459.41341c2.428788.50385 3.358968 1.33067 3.358968 2.67425 0 1.5503-1.57613 2.66134-3.824055 2.66134-1.98954 0-3.591507-.72347-4.172866-2.33836-.361735-.74931-.826822-1.04645-1.563211-1.04645-.878498 0-1.472776.59428-1.472776 1.52446 0 .31006.06459.64596.180867.95601.723469 2.11873 3.203935 3.66903 6.924633 3.66903z" style="font-weight:600;font-size:26.4583px;line-height:1.25;font-family:&quot;SF Pro Rounded&quot;;-inkscape-font-specification:&quot;SF Pro Rounded Semi-Bold&quot;;fill:#000;fill-opacity:1;stroke:none;stroke-width:.264583"/><path d="M114.77386 109.57106c.99477 0 1.65365-.6072 1.65365-1.58905v-4.15995l4.40541-7.273455c.2067-.348812.28422-.645951.28422-1.007686 0-.826822-.58136-1.382343-1.47278-1.382343-.67179 0-1.0852.271301-1.43402.930175l-3.33312 5.658569h-.0646l-3.37189-5.684407c-.32297-.607198-.67179-.904337-1.4211-.904337-.87849 0-1.49861.56844-1.49861 1.382343 0 .335897.0904.684712.29714 1.033526l4.37957 7.247615v4.15995c0 .98185.58136 1.58905 1.57613 1.58905zM129.0107 109.60982c3.77238 0 6.17533-1.86035 6.17533-4.75423 0-2.31252-1.35651-3.59151-4.41833-4.22454l-1.86035-.38758c-1.76991-.374655-2.49338-.891415-2.49338-1.795755 0-1.07228 1.05936-1.79575 2.62257-1.79575 1.33067 0 2.26084.51676 2.93263 1.61488.34882.47801.71056.68471 1.279.68471.8139 0 1.3565-.50384 1.3565-1.27899 0-.2067-.0258-.38757-.0904-.56844-.52969-1.795749-2.68718-2.971387-5.50354-2.971387-3.41064 0-5.85235 1.84743-5.85235 4.612117 0 2.209165 1.40819 3.604435 4.22455 4.185795l1.98954.42633c1.84743.40049 2.5709.91725 2.5709 1.87326 0 1.07229-1.17564 1.83452-2.91972 1.83452-1.52445 0-2.71301-.6072-3.37188-1.71824-.34882-.47801-.67179-.68472-1.22731-.68472-.82683 0-1.35651.51677-1.35651 1.30484 0 .24546.0388.49092.12919.7493.59428 1.76992 2.8422 2.89388 5.81359 2.89388z" style="font-weight:600;font-size:26.4583px;line-height:1.25;font-family:&quot;SF Pro Rounded&quot;;-inkscape-font-specification:&quot;SF Pro Rounded, Semi-Bold&quot;;font-variant-caps:all-small-caps;fill:#000;fill-opacity:1;stroke:none;stroke-width:.264583"/><path d="M13.541596 123.14154c.223652 0 .365976-.14639.365976-.37817v-5.22532c0-.23179-.142324-.37818-.365976-.37818-.223652 0-.365975.14639-.365975.37818v5.22532c0 .23178.142323.37817.365975.37817z" style="font-weight:400;font-size:6.35px;line-height:1.25;font-family:&quot;SF Pro Rounded&quot;;-inkscape-font-specification:&quot;SF Pro Rounded&quot;;text-align:center;letter-spacing:0;text-anchor:middle;display:inline;fill:#000;fill-opacity:1;stroke:none;stroke-width:.346999"/><path d="M15.298279 123.14154c.207386 0 .345644-.14639.345644-.36597v-3.04167h.02847l2.285314 3.13519c.158589.21552.280581.27245.455436.27245.223652 0 .34971-.13419.34971-.39037v-3.95254c0-.21958-.138257-.36597-.345643-.36597-.207387 0-.345644.14639-.345644.36597v3.04573h-.02847l-2.30158-3.15552c-.134191-.18299-.252116-.25618-.418838-.25618-.219586 0-.370042.15859-.370042.39037v3.95254c0 .21958.138257.36597.345643.36597zM21.723185 123.15781c1.325645 0 2.020998-.77262 2.020998-1.9966v-.0854c0-.22366-.15859-.37411-.390375-.37411h-1.313445c-.154523 0-.296848.11386-.296848.29684 0 .18299.138258.28872.296848.28872h1.0044v.0813c0 .67096-.581495 1.15486-1.284981 1.15486-.984068 0-1.488302-.70755-1.488302-1.76888 0-1.08573.56523-1.70382 1.459837-1.70382.46357 0 .853943.20332 1.264649.77261.08133.11387.19112.18299.329377.18299.219586 0 .333445-.13826.333445-.32124 0-.1098-.0366-.22772-.138256-.37818-.361911-.5327-.97187-.89867-1.76075-.89867-1.398841 0-2.21212.9312-2.21212 2.35037 0 1.44357.784814 2.39918 2.175523 2.39918zM24.894973 123.08461h2.354444c.187054 0 .325312-.11793.325312-.31311 0-.19519-.138258-.31718-.325312-.31718h-1.992535v-1.40697h1.882742c.182989 0 .317179-.11387.317179-.30091 0-.19113-.134192-.30498-.317179-.30498h-1.882742v-1.32158h1.992535c.187054 0 .325312-.11793.325312-.31312 0-.19518-.138258-.31718-.325312-.31718h-2.354444c-.211452 0-.345644.13826-.345644.35378v3.88748c0 .21552.134192.35377.345644.35377zM28.701119 123.14154c.207386 0 .345644-.14639.345644-.36597v-3.04167h.02846l2.285314 3.13519c.15859.21552.280582.27245.455437.27245.223653 0 .349709-.13419.349709-.39037v-3.95254c0-.21958-.138257-.36597-.345642-.36597-.207387 0-.345644.14639-.345644.36597v3.04573h-.02846l-2.30158-3.15552c-.134191-.18299-.252116-.25618-.418838-.25618-.219586 0-.370042.15859-.370042.39037v3.95254c0 .21958.138256.36597.345642.36597zM33.471002 123.14154c.215519 0 .357843-.13826.357843-.35377v-4.00134c0-.21552-.142324-.35377-.357843-.35377-.215519 0-.34971.13825-.34971.35377v4.00134c0 .21551.134191.35377.34971.35377zM35.126023 123.08461h2.354443c.187054 0 .325312-.11793.325312-.31311 0-.19519-.138258-.31718-.325312-.31718h-1.992533v-1.40697h1.88274c.18299 0 .317179-.11387.317179-.30091 0-.19113-.13419-.30498-.317179-.30498h-1.88274v-1.32158h1.992533c.187054 0 .325312-.11793.325312-.31312 0-.19518-.138258-.31718-.325312-.31718h-2.354443c-.211451 0-.345643.13826-.345643.35378v3.88748c0 .21552.134192.35377.345643.35377zM40.477402 123.16187c1.175188 0 1.894941-.69942 1.894941-1.69568v-2.67976c0-.21552-.142325-.35377-.357844-.35377s-.349709.13825-.349709.35377v2.61876c0 .65062-.431038 1.10606-1.187388 1.10606-.752284 0-1.183321-.45544-1.183321-1.10606v-2.61876c0-.21552-.142324-.35377-.357843-.35377-.215518 0-.34971.13825-.34971.35377v2.67976c0 .99626.719752 1.69568 1.890874 1.69568zM43.669521 123.14154c.215518 0 .357843-.13826.357843-.35377v-1.46391h1.04913l.898673 1.56963c.109798.19112.187054.24805.341578.24805.199252 0 .349709-.13826.349709-.32938 0-.0894-.02439-.16672-.07319-.24805l-.797012-1.35411c.573361-.19112.914938-.69128.914938-1.31344 0-.85801-.601826-1.40698-1.557429-1.40698H43.66546c-.211453 0-.345642.13826-.345642.35378v3.94441c0 .21551.13419.35377.349707.35377zm.357843-2.40324v-1.63876h1.040997c.569296 0 .914938.31312.914938.81735 0 .5205-.325309.82141-.894604.82141zM47.845709 123.08461h1.569629c.996269 0 1.598094-.49203 1.598094-1.30124 0-.60996-.431037-1.0532-1.065396-1.12233v-.0244c.467638-.0773.829545-.51237.829545-1.00034 0-.69535-.544896-1.14672-1.370376-1.14672h-1.561496c-.211452 0-.345644.13826-.345644.35378v3.88747c0 .21552.134192.35378.345644.35378zm.361909-2.64315v-1.35818h1.0288c.532696 0 .837676.23585.837676.65469 0 .45137-.353776.70349-.9922.70349zm0 2.04946v-1.49644h1.020666c.695354 0 1.057263.25212 1.057263.74009 0 .4961-.34971.75635-1.008467.75635zM52.973435 118.08701c.223651 0 .410705-.17892.410705-.40257s-.187054-.40257-.410705-.40257c-.223652 0-.410706.17892-.410706.40257s.187054.40257.410706.40257zm1.29718 0c.227718 0 .410706-.17892.410706-.40257s-.182988-.40257-.410706-.40257c-.223651 0-.40664.17892-.40664.40257s.182989.40257.40664.40257zm-.650624 5.07486c1.17519 0 1.894941-.69942 1.894941-1.69568v-2.67976c0-.21552-.142323-.35377-.357842-.35377s-.349711.13825-.349711.35377v2.61876c0 .65062-.431038 1.10606-1.187388 1.10606-.752282 0-1.18332-.45544-1.18332-1.10606v-2.61876c0-.21552-.142325-.35377-.357844-.35377-.215518 0-.349709.13825-.349709.35377v2.67976c0 .99626.719752 1.69568 1.890873 1.69568zM56.812111 123.14154c.21552 0 .357843-.13826.357843-.35377v-1.46391h1.04913l.898674 1.56963c.109785.19112.187055.24805.341577.24805.199254 0 .34971-.13826.34971-.32938 0-.0894-.02439-.16672-.07319-.24805l-.797013-1.35411c.573362-.19112.914939-.69128.914939-1.31344 0-.85801-.601827-1.40698-1.55743-1.40698H56.80805c-.211453 0-.345644.13826-.345644.35378v3.94441c0 .21551.134191.35377.34971.35377zm.357843-2.40324v-1.63876h1.040998c.569295 0 .914939.31312.914939.81735 0 .5205-.325312.82141-.894607.82141zM62.663659 123.16187c1.345978 0 2.187721-.91087 2.187721-2.37477 0-1.45984-.841743-2.37478-2.187721-2.37478-1.350045 0-2.191788.91494-2.191788 2.37478 0 1.4639.841743 2.37477 2.191788 2.37477zm0-.64249c-.902741 0-1.46797-.67095-1.46797-1.73228 0-1.06133.569295-1.73229 1.46797-1.73229.898673 0 1.463903.67096 1.463903 1.73229s-.56523 1.73228-1.463903 1.73228z" style="font-weight:600;font-size:5.82083px;line-height:1.25;font-family:&quot;SF Pro Rounded&quot;;-inkscape-font-specification:&quot;SF Pro Rounded, Normal&quot;;font-variant-caps:all-small-caps;text-align:center;letter-spacing:0;text-anchor:middle;display:inline;fill:#000;fill-opacity:1;stroke:none;stroke-width:.346999"/><path d="M69.361009 123.18221c1.313447 0 2.167392-.67909 2.167392-1.76482 0-.82954-.483902-1.31751-1.707887-1.58589l-.650623-.14233c-.801081-.17485-1.114193-.49203-1.114193-.9556 0-.59776.56523-.9556 1.29718-.9556.634357 0 1.118258.26024 1.32158.85394.06506.18705.17892.28465.365974.28465.195188 0 .333443-.13013.333443-.32938 0-.0773-.0081-.13826-.02033-.18299-.211453-.79295-1.000334-1.28498-1.980335-1.28498-1.215853 0-2.069796.67909-2.069796 1.64689 0 .83361.508301 1.36631 1.683489 1.62249l.650622.14233c.813279.17892 1.138591.50423 1.138591.99626 0 .57743-.577428.99627-1.374442.99627-.740083 0-1.317512-.28465-1.496433-.89054-.05693-.19519-.170789-.28871-.353776-.28871-.207386 0-.337511.14639-.337511.37817 0 .0854.01626.17485.04067.25618.219586.70756 1.0044 1.20366 2.106392 1.20366z" style="font-weight:600;font-size:5.82083px;line-height:1.25;font-family:&quot;SF Pro Rounded&quot;;-inkscape-font-specification:&quot;SF Pro Rounded Semi-Bold&quot;;font-variant-caps:normal;text-align:center;letter-spacing:0;text-anchor:middle;display:inline;fill:#000;fill-opacity:1;stroke:none;stroke-width:.346999"/><path d="M74.309816 123.16187c1.345977 0 2.18772-.91087 2.18772-2.37477 0-1.45984-.841743-2.37478-2.18772-2.37478-1.350043 0-2.191789.91494-2.191789 2.37478 0 1.4639.841745 2.37477 2.191789 2.37477zm0-.64249c-.902741 0-1.46797-.67095-1.46797-1.73228 0-1.06133.569295-1.73229 1.46797-1.73229.898672 0 1.463902.67096 1.463902 1.73229s-.56523 1.73228-1.463902 1.73228zM77.632057 123.14154c.215521 0 .357844-.13826.357844-.35377v-1.61843h1.764815c.182989 0 .317181-.11793.317181-.30498 0-.19112-.134192-.30905-.317181-.30905h-1.764815v-1.43543h1.943737c.187054 0 .325312-.11793.325312-.31312 0-.19518-.138258-.31718-.325312-.31718h-2.305646c-.211453 0-.345644.13826-.345644.35378v3.94441c0 .21551.134191.35377.349709.35377zM82.467004 123.14154c.215519 0 .357843-.13826.357843-.35377v-3.66383h1.203654c.187054 0 .325312-.12606.325312-.31718s-.138258-.31718-.325312-.31718h-3.114859c-.19112 0-.325312.12607-.325312.31718 0 .19113.134192.31718.325312.31718h1.203654v3.66383c0 .21551.13419.35377.349708.35377zM86.277219 123.14154c.231783 0 .357842-.10165.426971-.34158l.935272-3.15145h.03254l.93527 3.15145c.06913.23992.195188.34158.422904.34158.211453 0 .345645-.1098.414772-.34158l1.142658-3.8712c.02033-.061.02846-.11387.02846-.16673 0-.19925-.14639-.32937-.361909-.32937-.178921 0-.284647.0894-.337511.28464l-.90274 3.34665h-.02439l-.919004-3.28158c-.06913-.24399-.195187-.34971-.414773-.34971-.219585 0-.34971.10979-.418838.35377l-.91494 3.27752h-.02439l-.90274-3.34665c-.05287-.19518-.166722-.28464-.353777-.28464-.211453 0-.345644.12606-.345644.32937 0 .0529.0081.10574.02846.16673l1.142658 3.8712c.06913.23179.203319.34158.410705.34158zM90.941373 123.14154c.199253 0 .300912-.0773.374108-.28871l.353777-1.00034h1.797347l.353776 1.00034c.07319.21145.174855.28871.374109.28871.199252 0 .329377-.12199.329377-.31311 0-.0651-.0122-.12199-.04067-.20332l-1.423239-3.83868c-.08946-.23991-.248049-.35377-.492034-.35377-.239916 0-.398506.11386-.4839.34971l-1.423238 3.84681c-.03254.0813-.04067.13825-.04067.20332 0 .19112.121995.30904.321245.30904zm.910872-1.87054.703487-2.0088h.02033l.703486 2.0088zM95.605529 123.14154c.215518 0 .357843-.13826.357843-.35377v-1.46391H97.0125l.89868 1.56963c.10978.19112.18705.24805.34157.24805.19925 0 .34971-.13826.34971-.32938 0-.0894-.0244-.16672-.0732-.24805l-.79702-1.35411c.57336-.19112.91494-.69128.91494-1.31344 0-.85801-.60183-1.40698-1.55743-1.40698h-1.488297c-.211453 0-.345644.13826-.345644.35378v3.94441c0 .21551.134191.35377.34971.35377zm.357843-2.40324v-1.63876h1.040998c.56929 0 .91494.31312.91494.81735 0 .5205-.32531.82141-.89461.82141zM99.78171 123.08461h2.35445c.18705 0 .32531-.11793.32531-.31311 0-.19519-.13826-.31718-.32531-.31718h-1.99253v-1.40697h1.88273c.18299 0 .31718-.11387.31718-.30091 0-.19113-.13419-.30498-.31718-.30498h-1.88273v-1.32158h1.99253c.18705 0 .32531-.11793.32531-.31312 0-.19518-.13826-.31718-.32531-.31718h-2.35444c-.21146 0-.34565.13826-.34565.35378v3.88748c0 .21552.13419.35377.34564.35377z" style="font-weight:600;font-size:5.82083px;line-height:1.25;font-family:&quot;SF Pro Rounded&quot;;-inkscape-font-specification:&quot;SF Pro Rounded, Normal&quot;;font-variant-caps:all-small-caps;text-align:center;letter-spacing:0;text-anchor:middle;display:inline;fill:#000;fill-opacity:1;stroke:none;stroke-width:.346999"/><path d="M106.96704 123.18221c1.31345 0 2.16739-.67909 2.16739-1.76482 0-.82954-.4839-1.31751-1.70788-1.58589l-.65063-.14233c-.80108-.17485-1.11419-.49203-1.11419-.9556 0-.59776.56523-.9556 1.29718-.9556.63436 0 1.11826.26024 1.32158.85394.0651.18705.17892.28465.36597.28465.19519 0 .33345-.13013.33345-.32938 0-.0773-.008-.13826-.0203-.18299-.21145-.79295-1.00033-1.28498-1.98033-1.28498-1.21586 0-2.0698.67909-2.0698 1.64689 0 .83361.5083 1.36631 1.68349 1.62249l.65062.14233c.81328.17892 1.13859.50423 1.13859.99626 0 .57743-.57743.99627-1.37444.99627-.74008 0-1.31751-.28465-1.49643-.89054-.0569-.19519-.17079-.28871-.35378-.28871-.20739 0-.33751.14639-.33751.37817 0 .0854.0163.17485.0407.25618.21958.70756 1.0044 1.20366 2.10639 1.20366z" style="font-weight:600;font-size:5.82083px;line-height:1.25;font-family:&quot;SF Pro Rounded&quot;;-inkscape-font-specification:&quot;SF Pro Rounded Semi-Bold&quot;;font-variant-caps:normal;text-align:center;letter-spacing:0;text-anchor:middle;display:inline;fill:#000;fill-opacity:1;stroke:none;stroke-width:.346999"/><path d="M111.52953 123.14154c.21552 0 .37411-.13826.37411-.35377V121.21l1.43951-2.23651c.0529-.0854.0732-.15046.0732-.23585 0-.18299-.13013-.30498-.32531-.30498-.14233 0-.23992.0569-.32125.18705l-1.20772 1.89087h-.0203l-1.21992-1.90307c-.0691-.1098-.13419-.17485-.31312-.17485-.18705 0-.32531.12606-.32531.30498 0 .0773.0203.15045.0732.23585l1.4395 2.23651v1.57777c0 .21551.11793.35377.33345.35377zM115.76265 123.16187c1.0776 0 1.76482-.54489 1.76482-1.4029 0-.67909-.40258-1.0532-1.36225-1.27685l-.51236-.122c-.60996-.14639-.85801-.33751-.85801-.65469 0-.40257.39444-.67908.9678-.67908.49203 0 .83361.20332 1.0166.60589.0651.14232.15452.20738.30091.20738.19926 0 .32125-.11386.32125-.30497 0-.0529-.008-.0976-.0203-.14639-.14639-.5815-.79701-.97594-1.61843-.97594-.99626 0-1.69162.55303-1.69162 1.34598 0 .64655.39851 1.03693 1.26059 1.24025l.60182.14232c.61403.14639.87021.35784.87021.70755 0 .40664-.4351.69536-1.04506.69536-.54083 0-.93121-.21959-1.1142-.63436-.0691-.15046-.15452-.21145-.30904-.21145-.20332 0-.32938.12606-.32938.32124 0 .0651.008.13013.0285.19926.17486.57742.84581.9434 1.72822.9434zM119.81278 123.14154c.21552 0 .35784-.13826.35784-.35377v-3.66383h1.20366c.18705 0 .32531-.12606.32531-.31718s-.13826-.31718-.32531-.31718h-3.11486c-.19112 0-.32531.12607-.32531.31718 0 .19113.13419.31718.32531.31718h1.20365v3.66383c0 .21551.13419.35377.34971.35377zM122.66739 123.08461h2.35444c.18706 0 .32531-.11793.32531-.31311 0-.19519-.13825-.31718-.32531-.31718h-1.99253v-1.40697h1.88274c.18299 0 .31718-.11387.31718-.30091 0-.19113-.13419-.30498-.31718-.30498h-1.88274v-1.32158h1.99253c.18706 0 .32531-.11793.32531-.31312 0-.19518-.13825-.31718-.32531-.31718h-2.35444c-.21145 0-.34564.13826-.34564.35378v3.88748c0 .21552.13419.35377.34564.35377zM126.44914 123.14154c.19112 0 .32531-.13012.32531-.33344v-3.08233h.0244l1.31344 3.05793c.0813.18299.19926.26838.37818.26838.18299 0 .30091-.0895.38224-.27651l1.30938-3.0498h.0244v3.08233c0 .20332.13419.33344.32125.33344.19112 0 .32531-.13012.32531-.33344v-3.89968c0-.28871-.17892-.47576-.45544-.47576-.23991 0-.39037.11792-.5083.39037l-1.38664 3.26125h-.0244l-1.38664-3.26125c-.11793-.27245-.26839-.39037-.5083-.39037-.27652 0-.45544.18705-.45544.47576v3.89968c0 .20332.13419.33344.32125.33344zM133.41081 123.16187c1.07759 0 1.76481-.54489 1.76481-1.4029 0-.67909-.40257-1.0532-1.36224-1.27685l-.51237-.122c-.60995-.14639-.858-.33751-.858-.65469 0-.40257.39444-.67908.9678-.67908.49203 0 .83361.20332 1.0166.60589.0651.14232.15452.20738.30091.20738.19925 0 .32124-.11386.32124-.30497 0-.0529-.008-.0976-.0203-.14639-.14639-.5815-.79702-.97594-1.61843-.97594-.99627 0-1.69162.55303-1.69162 1.34598 0 .64655.39851 1.03693 1.26058 1.24025l.60183.14232c.61403.14639.87021.35784.87021.70755 0 .40664-.4351.69536-1.04506.69536-.54084 0-.93121-.21959-1.1142-.63436-.0691-.15046-.15452-.21145-.30904-.21145-.20332 0-.32938.12606-.32938.32124 0 .0651.008.13013.0285.19926.17485.57742.84581.9434 1.72822.9434z" style="font-weight:600;font-size:5.82083px;line-height:1.25;font-family:&quot;SF Pro Rounded&quot;;-inkscape-font-specification:&quot;SF Pro Rounded, Normal&quot;;font-variant-caps:all-small-caps;text-align:center;letter-spacing:0;text-anchor:middle;display:inline;fill:#000;fill-opacity:1;stroke:none;stroke-width:.346999"/><path d="M41.561755 132.85411h1.338523c1.453737 0 2.30768-.90477 2.30768-2.44662 0-1.53845-.857332-2.44322-2.30768-2.44322h-1.338523c-.186377 0-.304981.12199-.304981.31514v4.25955c0 .19316.118598.31515.304981.31515zm.30498-.54896v-3.79192h.992878c1.111483 0 1.724831.67773 1.724831 1.90104 0 1.21314-.616737 1.89088-1.724831 1.89088z" style="font-weight:400;font-size:5.29167px;line-height:1.25;font-family:&quot;SF Pro Rounded&quot;;-inkscape-font-specification:&quot;SF Pro Rounded&quot;;text-align:center;letter-spacing:0;text-anchor:middle;display:inline;fill:#000;fill-opacity:1;stroke:none;stroke-width:.346999"/><path d="M46.173727 132.90155c.179599 0 .298202-.11521.298202-.29481v-1.21992h.874276l.748895 1.30802c.09149.15927.155879.20671.284648.20671.166044 0 .291425-.11521.291425-.27448 0-.0746-.02033-.13894-.061-.20671l-.664177-1.12843c.477802-.15926.762448-.57607.762448-1.09453 0-.71501-.501522-1.17248-1.297859-1.17248h-1.240252c-.17621 0-.288036.11521-.288036.29481v3.28701c0 .1796.111831.29481.291425.29481zm.298202-2.0027v-1.36563h.867498c.474414 0 .76245.26093.76245.68112 0 .43375-.271092.68451-.745507.68451zM49.85043 132.888c.216875 0 .386308-.16944.386308-.38631 0-.21688-.169433-.38631-.386308-.38631-.216877 0-.386308.16943-.386308.38631 0 .21687.169431.38631.386308.38631zM51.026296 131.13606c0 .1491.115214.26092.271093.26092h1.335134c.155878 0 .271093-.11183.271093-.26092 0-.15927-.111831-.2711-.271093-.2711h-1.335134c-.155879 0-.271093.11183-.271093.2711z" style="font-weight:600;font-size:5.82083px;line-height:1.25;font-family:&quot;SF Pro Rounded&quot;;-inkscape-font-specification:&quot;SF Pro Rounded, Normal&quot;;font-variant-caps:all-small-caps;text-align:center;letter-spacing:0;text-anchor:middle;display:inline;fill:#000;fill-opacity:1;stroke:none;stroke-width:.346999"/><path d="M53.977822 132.90155c.186377 0 .304981-.12199.304981-.31514v-4.35444c0-.19315-.118599-.31514-.304981-.31514-.186377 0-.304979.12199-.304979.31514v4.35444c0 .19315.118599.31514.304979.31514z" style="font-weight:400;font-size:5.29167px;line-height:1.25;font-family:&quot;SF Pro Rounded&quot;;-inkscape-font-specification:&quot;SF Pro Rounded&quot;;text-align:center;letter-spacing:0;text-anchor:middle;display:inline;fill:#000;fill-opacity:1;stroke:none;stroke-width:.346999"/><path d="M55.441726 132.90155c.172822 0 .288036-.12199.288036-.30498v-2.53472h.02372l1.904429 2.61266c.132158.1796.233818.22704.379532.22704.186377 0 .291425-.11183.291425-.32531v-3.29378c0-.18299-.115214-.30498-.288036-.30498-.172822 0-.288037.12199-.288037.30498v2.53811h-.02373l-1.917983-2.62961c-.111831-.15249-.210097-.21348-.349033-.21348-.18299 0-.30837.13215-.30837.32531v3.29378c0 .18299.115215.30498.288037.30498zM60.795817 132.91511c1.104705 0 1.684167-.64385 1.684167-1.66384v-.0712c0-.18638-.132158-.31176-.325312-.31176h-1.094539c-.128776 0-.247373.0949-.247373.24738 0 .15249.115215.24059.247373.24059h.837001v.0678c0 .55913-.48458.96238-1.070819.96238-.820056 0-1.24025-.58963-1.24025-1.47407 0-.90477.471025-1.41985 1.216531-1.41985.386307 0 .711619.16943 1.053875.64385.06778.0949.159266.15249.274481.15249.182989 0 .277871-.11522.277871-.26771 0-.0915-.03049-.18976-.115214-.31515-.301591-.44391-.809892-.74889-1.467294-.74889-1.165701 0-1.843433.776-1.843433 1.95865 0 1.20297.654011 1.99931 1.812935 1.99931zM63.635519 132.888c.216876 0 .386308-.16944.386308-.38631 0-.21688-.169432-.38631-.386308-.38631-.216875 0-.386308.16943-.386308.38631 0 .21687.169433.38631.386308.38631z" style="font-weight:600;font-size:5.82083px;line-height:1.25;font-family:&quot;SF Pro Rounded&quot;;-inkscape-font-specification:&quot;SF Pro Rounded, Normal&quot;;font-variant-caps:all-small-caps;text-align:center;letter-spacing:0;text-anchor:middle;display:inline;fill:#000;fill-opacity:1;stroke:none;stroke-width:.346999"/><path d="M67.46471 132.93544c.901385 0 1.436793-.54897 1.436793-1.47746v-3.22601c0-.19315-.118598-.31514-.304978-.31514-.186378 0-.30498.12199-.30498.31514v3.22262c0 .59641-.291426.91833-.830224.91833-.393084 0-.674344-.22704-.78617-.63707-.05083-.18977-.145712-.27448-.301591-.27448-.179598 0-.288036.11521-.288036.31176 0 .12537.02372.21348.061.32192.1796.51508.687899.84039 1.318191.84039z" style="font-weight:400;font-size:5.29167px;line-height:1.25;font-family:&quot;SF Pro Rounded&quot;;-inkscape-font-specification:&quot;SF Pro Rounded&quot;;text-align:center;letter-spacing:0;text-anchor:middle;display:inline;fill:#000;fill-opacity:1;stroke:none;stroke-width:.346999"/><path d="M70.816099 128.68944c.186376 0 .342255-.1491.342255-.33548 0-.18637-.155879-.33548-.342255-.33548s-.342255.14911-.342255.33548c0 .18638.155879.33548.342255.33548zm1.080984 0c.189767 0 .342257-.1491.342257-.33548 0-.18637-.15249-.33548-.342257-.33548-.186377 0-.338867.14911-.338867.33548 0 .18638.15249.33548.338867.33548zm-.542186 4.22906c.979324 0 1.579118-.58286 1.579118-1.41308v-2.23313c0-.1796-.118598-.29481-.298202-.29481-.179601 0-.291425.11521-.291425.29481v2.1823c0 .54219-.359198.92172-.98949.92172-.626903 0-.986102-.37953-.986102-.92172v-2.1823c0-.1796-.118598-.29481-.298202-.29481-.1796 0-.291426.11521-.291426.29481v2.23313c0 .83022.599795 1.41308 1.575729 1.41308zM74.014999 132.90155c.179599 0 .298203-.11521.298203-.29481v-1.21992h.874275l.748895 1.30802c.09149.15927.155879.20671.284648.20671.166044 0 .291425-.11521.291425-.27448 0-.0746-.02033-.13894-.061-.20671l-.664177-1.12843c.477802-.15926.762448-.57607.762448-1.09453 0-.71501-.501522-1.17248-1.297858-1.17248h-1.240253c-.176209 0-.288036.11521-.288036.29481v3.28701c0 .1796.111831.29481.291425.29481zm.298203-2.0027v-1.36563h.867497c.474414 0 .762451.26093.762451.68112 0 .43375-.271092.68451-.745506.68451zM78.877736 132.91511c1.104704 0 1.684166-.64385 1.684166-1.66384v-.0712c0-.18638-.132158-.31176-.325312-.31176h-1.094539c-.128775 0-.247372.0949-.247372.24738 0 .15249.115214.24059.247372.24059h.837001v.0678c0 .55913-.484579.96238-1.070819.96238-.820055 0-1.24025-.58963-1.24025-1.47407 0-.90477.471025-1.41985 1.216532-1.41985.386308 0 .71162.16943 1.053875.64385.06778.0949.159266.15249.274481.15249.182988 0 .277871-.11522.277871-.26771 0-.0915-.03049-.18976-.115215-.31515-.301591-.44391-.809891-.74889-1.467294-.74889-1.165701 0-1.843433.776-1.843433 1.95865 0 1.20297.654011 1.99931 1.812936 1.99931zM81.520896 132.85411h1.962037c.155879 0 .271092-.0983.271092-.26093 0-.16265-.115214-.26431-.271092-.26431h-1.660448v-1.17248h1.568955c.15249 0 .264314-.0949.264314-.25076 0-.15927-.111831-.25415-.264314-.25415h-1.568955v-1.10132h1.660448c.155879 0 .271092-.0983.271092-.26093 0-.16265-.115214-.26431-.271092-.26431h-1.962037c-.176213 0-.288037.11521-.288037.29481v3.23957c0 .1796.111831.29481.288037.29481zM84.692683 132.90155c.172822 0 .288037-.12199.288037-.30498v-2.53472h.02372l1.904431 2.61266c.132158.1796.233817.22704.379531.22704.186377 0 .291426-.11183.291426-.32531v-3.29378c0-.18299-.115215-.30498-.288037-.30498-.172822 0-.288038.12199-.288038.30498v2.53811h-.02372l-1.917984-2.62961c-.111831-.15249-.210097-.21348-.349034-.21348-.182986 0-.308369.13215-.308369.32531v3.29378c0 .18299.115215.30498.288037.30498z" style="font-weight:600;font-size:5.82083px;line-height:1.25;font-family:&quot;SF Pro Rounded&quot;;-inkscape-font-specification:&quot;SF Pro Rounded, Normal&quot;;font-variant-caps:all-small-caps;text-align:center;letter-spacing:0;text-anchor:middle;display:inline;fill:#000;fill-opacity:1;stroke:none;stroke-width:.346999"/><path d="M90.182321 132.85411h2.48389c.172823 0 .291427-.11183.291427-.27448 0-.16266-.118598-.27448-.291427-.27448H90.4873v-1.68078h2.056919c.169434 0 .288036-.11183.288036-.2711 0-.16265-.118598-.27109-.288036-.27109H90.4873v-1.56895h2.178911c.172823 0 .291427-.11183.291427-.27448 0-.16266-.118598-.27448-.291427-.27448h-2.48389c-.186377 0-.304982.12199-.304982.31514v4.25955c0 .19316.118598.31515.304982.31515z" style="font-weight:400;font-size:5.29167px;line-height:1.25;font-family:&quot;SF Pro Rounded&quot;;-inkscape-font-specification:&quot;SF Pro Rounded&quot;;text-align:center;letter-spacing:0;text-anchor:middle;display:inline;fill:#000;fill-opacity:1;stroke:none;stroke-width:.346999"/><path d="M93.926797 132.90155c.1796 0 .298202-.11521.298202-.29481v-1.44019h2.023034v1.44019c0 .1796.111831.29481.291427.29481.1796 0 .2982-.11521.2982-.29481v-3.33445c0-.1796-.1186-.29481-.2982-.29481-.179602 0-.291427.11521-.291427.29481v1.36563h-2.023034v-1.36563c0-.1796-.118598-.29481-.298202-.29481-.179601 0-.291427.11521-.291427.29481v3.33445c0 .1796.111831.29481.291427.29481zM97.92542 132.90155c.1796 0 .2982-.11521.2982-.29481v-1.21992h.87428l.7489 1.30802c.0915.15927.15588.20671.28464.20671.16605 0 .29143-.11521.29143-.27448 0-.0746-.0203-.13894-.061-.20671l-.66418-1.12843c.47781-.15926.76245-.57607.76245-1.09453 0-.71501-.50152-1.17248-1.29786-1.17248h-1.24025c-.17621 0-.28803.11521-.28803.29481v3.28701c0 .1796.11183.29481.29142.29481zm.2982-2.0027v-1.36563h.8675c.47441 0 .76245.26093.76245.68112 0 .43375-.27109.68451-.7455.68451zM101.40558 132.85411h1.96204c.15588 0 .27109-.0983.27109-.26093 0-.16265-.11521-.26431-.27109-.26431h-1.66045v-1.17248h1.56895c.15249 0 .26432-.0949.26432-.25076 0-.15927-.11183-.25415-.26432-.25415h-1.56895v-1.10132h1.66045c.15588 0 .27109-.0983.27109-.26093 0-.16265-.11521-.26431-.27109-.26431h-1.96204c-.17621 0-.28804.11521-.28804.29481v3.23957c0 .1796.11184.29481.28804.29481zM105.57364 132.90155c.1796 0 .2982-.11521.2982-.29481v-3.05319h1.00305c.15588 0 .27109-.10505.27109-.26432 0-.15926-.11521-.26431-.27109-.26431h-2.59572c-.15926 0-.27109.10505-.27109.26431 0 .15927.11183.26432.27109.26432h1.00305v3.05319c0 .1796.11183.29481.29142.29481z" style="font-weight:600;font-size:5.82083px;line-height:1.25;font-family:&quot;SF Pro Rounded&quot;;-inkscape-font-specification:&quot;SF Pro Rounded, Normal&quot;;font-variant-caps:all-small-caps;text-align:center;letter-spacing:0;text-anchor:middle;display:inline;fill:#000;fill-opacity:1;stroke:none;stroke-width:.346999"/></svg>