<svg width="970.14771" height="1134.9915" viewBox="0 0 256.68482 300.29976" xmlns="http://www.w3.org/2000/svg"><defs><path id="c" d="M1600.6648 5530.2114h158.57976v94.550331H1600.6648z"/><path id="b" d="M157-13h55v40h-55z"/><filter style="color-interpolation-filters:sRGB" id="a" x="-.05642297" y="-.03515585" width="1.1128459" height="1.0703117"><feGaussianBlur stdDeviation="1.1384116"/></filter></defs><text xml:space="preserve" transform="matrix(.26458 0 0 .26458 68.841889 -2150.4428)" style="font-size:36px;line-height:1.25;font-family:Lato;-inkscape-font-specification:Lato;text-align:center;letter-spacing:0;white-space:pre;shape-inside:url(#b)"><tspan x="157" y="60.48"><tspan dx="0 20.882812 20.039062 14.484375 18.84375">Ehret</tspan></tspan></text><g style="display:inline"><path style="display:inline;vector-effect:none;fill:#000;fill-opacity:.35;stroke-width:.828178;stroke-opacity:.968165;stop-color:#000" d="M201.44289 158.11942H458.1278v300.29983H201.44289Z" transform="translate(-201.44289 -158.11942)"/></g><g style="display:inline"><g style="display:inline;stroke-width:.95413"><path style="display:inline;fill:none;fill-opacity:1;stroke:#fff;stroke-width:2.27202;stroke-miterlimit:4;stroke-dasharray:none;stroke-opacity:1;stop-color:#000" d="M-132.42407 448.2864a13.08618 7.5675644 0 0 1-13.0861 7.56752 13.08618 7.5675644 0 0 1-13.0861-7.56752 13.08618 7.5675644 0 0 1 13.0861-7.56749 13.08618 7.5675644 0 0 1 13.0861 7.56749z" transform="matrix(1.04777 0 0 1.04838 361.262371 -383.461442)"/><path style="display:inline;fill:none;fill-opacity:1;stroke:#fff;stroke-width:2.77692;stroke-miterlimit:4;stroke-dasharray:none;stroke-opacity:1;stop-color:#000" d="M-130.24713 448.2864a22.072017 13.147164 0 0 1-22.0719 13.14707 22.072017 13.147164 0 0 1-22.0719-13.14707 22.072017 13.147164 0 0 1 22.0719-13.14704 22.072017 13.147164 0 0 1 22.0719 13.14704z" transform="matrix(1.04777 0 0 1.04838 361.262371 -383.461442)"/><path style="display:inline;fill:none;fill-opacity:1;stroke:#fff;stroke-width:3.2818;stroke-miterlimit:4;stroke-dasharray:none;stroke-opacity:1;stop-color:#000" d="M-127.49585 448.28639a37.060391 22.626378 0 0 1-37.0602 22.62622 37.060391 22.626378 0 0 1-37.0601-22.62622 37.060391 22.626378 0 0 1 37.0601-22.62616 37.060391 22.626378 0 0 1 37.0602 22.62616z" transform="matrix(1.04777 0 0 1.04838 361.262371 -383.461442)"/><path style="display:inline;fill:none;fill-opacity:1;stroke:#fff;stroke-width:3.78671;stroke-miterlimit:4;stroke-dasharray:none;stroke-opacity:1;stop-color:#000" d="M-124.06333 448.28638a61.7609 38.415188 0 0 1-61.7606 38.41491 61.7609 38.415188 0 0 1-61.7605-38.41491 61.7609 38.415188 0 0 1 61.7605-38.41483 61.7609 38.415188 0 0 1 61.7606 38.41483z" transform="matrix(1.04777 0 0 1.04838 361.262371 -383.461442)"/><path style="display:inline;fill:none;fill-opacity:1;stroke:#fff;stroke-width:4.2916;stroke-miterlimit:4;stroke-dasharray:none;stroke-opacity:1;stop-color:#000" d="M-120.1248 448.28634A102.17561 64.412905 0 0 1-222.3 512.69879a102.17561 64.412905 0 0 1-102.1749-64.41245A102.17561 64.412905 0 0 1-222.3 383.87404a102.17561 64.412905 0 0 1 102.1752 64.4123z" transform="matrix(1.04777 0 0 1.04838 361.262371 -383.461442)"/></g><g aria-label="Softwaresysteme" style="font-size:26.4583px;line-height:1.25;font-family:'PT Sans';-inkscape-font-specification:'PT Sans';text-align:center;letter-spacing:1.71979px;text-anchor:middle;display:inline;fill:#fff;fill-opacity:1;stroke-width:.264583"><path d="M-237.0225 234.30993q0-.84667-.635-1.37583-.60854-.52917-1.56104-.9525-.92604-.44979-2.03729-.89958-1.08479-.47625-2.03729-1.13771-.92604-.68792-1.56104-1.69333-.60854-1.00542-.60854-2.56646 0-1.34937.44979-2.32833.44979-1.00541 1.27-1.66687.84666-.66146 1.98437-.97896t2.54-.3175q1.61395 0 3.0427.29104 1.42875.26459 2.35479.79375l-1.13771 3.04271q-.58208-.37042-1.74625-.66146-1.16416-.3175-2.51353-.3175-1.27 0-1.95792.50271-.66146.50271-.66146 1.34937 0 .79375.60855 1.32292.63499.52916 1.56104.97895.95249.44979 2.03728.92604 1.11125.47625 2.03729 1.16417.9525.66146 1.56104 1.66687.635.97896.635 2.46062 0 1.48167-.50271 2.56646-.47624 1.05833-1.37583 1.7727-.87312.71438-2.14312 1.05834-1.24354.34395-2.75166.34395-1.98437 0-3.4925-.37041-1.50812-.37042-2.22249-.74083l1.16416-3.09563q.29104.15875.74083.34396.47625.18521 1.05833.34396.58209.15875 1.21709.26458.66145.10584 1.34937.10584 1.61396 0 2.46062-.52917.87313-.55562.87313-1.66687zM-230.0032 232.66951q0-3.3602 1.64041-5.15937 1.64042-1.82562 4.60375-1.82562 1.5875 0 2.75166.50271 1.16417.50271 1.93146 1.42875.76729.89958 1.1377 2.19604.39688 1.29645.39688 2.85749 0 3.36021-1.64042 5.18583-1.61395 1.79916-4.57728 1.79916-1.5875 0-2.75166-.5027-1.16417-.50271-1.95792-1.40229-.76729-.92604-1.16416-2.2225-.37042-1.29646-.37042-2.8575zm3.54541 0q0 .87313.15875 1.61396.15875.74083.47625 1.29646.3175.55562.82021.87312.52916.29104 1.24354.29104 1.34937 0 2.01083-.97896.66146-.97895.66146-3.09562 0-1.82562-.60854-2.93687-.60855-1.1377-2.06375-1.1377-1.27 0-1.98437.95249-.71438.9525-.71438 3.12208zM-214.96455 226.05494h1.82562v-.74083q0-2.51354 1.05833-3.62479 1.05834-1.13771 3.06917-1.13771 2.11666 0 3.51895.50271l-.66146 2.75166q-.60854-.21166-1.08479-.26458-.44979-.0794-.95249-.0794-.52917 0-.84667.15875-.29104.15875-.44979.50271-.13229.3175-.18521.82021-.0265.47625-.0265 1.11125h2.91041v2.91041h-2.91041v10.31874h-3.43958v-10.31874h-1.82562zM-205.13529 226.05494h1.82562v-2.48708l3.43958-.97896v3.46604h3.22792v2.91041h-3.22792v5.07999q0 1.37584.26459 1.98438.29104.58208 1.05833.58208.52916 0 .89958-.10583.39687-.10584.87312-.3175l.60854 2.64583q-.71437.34395-1.66687.58208-.9525.23812-1.93145.23812-1.82563 0-2.69875-.92604-.84667-.95249-.84667-3.09562v-6.66749h-1.82562zM-183.67678 226.05494l2.4077 6.77332.47625 2.19604h.10584l.37041-2.2225 1.69333-6.74686h3.14854l-4.07458 13.36144h-2.53999l-2.67229-7.40832-.34396-1.66688h-.13229l-.3175 1.69333-2.54 7.38187h-2.61937l-4.25978-13.36144h3.73062l1.93145 6.64103.3175 2.35479h.13229l.44979-2.38125 2.19604-6.61457zM-172.54569 226.82223q1.05833-.47625 2.51354-.74083 1.4552-.29104 3.0427-.29104 1.37583 0 2.30187.34395.92604.3175 1.45521.92604.55562.60854.76729 1.45521.23812.84667.23812 1.905 0 1.16416-.0794 2.35479-.0794 1.16416-.10583 2.30187 0 1.13771.0794 2.2225.0794 1.05833.39688 2.01083h-2.80458l-.55563-1.82563h-.13229q-.52917.82021-1.48166 1.42875-.92604.58208-2.40771.58208-.92604 0-1.66687-.26458-.74083-.29104-1.27-.79375-.52917-.52916-.82021-1.21708-.29104-.71437-.29104-1.5875 0-1.21708.52917-2.03729.55562-.84666 1.56104-1.34937 1.03187-.52917 2.43416-.71437 1.42875-.21167 3.175-.1323.1852-1.48166-.21167-2.11666-.39687-.66146-1.77271-.66146-1.03187 0-2.19604.21167-1.1377.21167-1.87853.55562zm4.36562 9.84249q1.03187 0 1.64041-.44979.60854-.47625.89958-1.00542v-1.71979q-.8202-.0794-1.58749-.0265-.74084.0529-1.32292.23813-.58208.18521-.92604.52916-.34396.34396-.34396.87313 0 .74083.42334 1.16416.44979.39688 1.21708.39688zM-150.31824 229.28285q-.8202-.29104-1.48166-.29104-.92604 0-1.56104.50271-.60854.47625-.82021 1.24354v8.54603h-3.43958v-13.22915h2.67229l.39687 1.74625h.10584q.44979-.97896 1.21708-1.50813.76729-.52916 1.79916-.52916.68792 0 1.56104.29104zM-136.01587 238.14638q-.79375.635-2.16958 1.08479-1.34937.42333-2.88396.42333-3.20145 0-4.68312-1.85208-1.48166-1.87854-1.48166-5.13291 0-3.49249 1.66687-5.23874 1.66688-1.74625 4.68312-1.74625 1.00542 0 1.95792.26459.9525.26458 1.69333.87312.74083.60854 1.19062 1.64041.44979 1.03188.44979 2.56646 0 .55562-.0794 1.19062-.0529.635-.18521 1.32292h-7.93749q.0794 1.66687.84666 2.51354.79375.84666 2.54.84666 1.08479 0 1.93146-.3175.87312-.34396 1.32291-.68791zm-4.92124-9.71019q-1.34938 0-2.01084.8202-.63499.79375-.76729 2.14312h4.92125q.10583-1.42874-.44979-2.19603-.52917-.76729-1.69333-.76729zM-125.96668 235.63284q0-.52916-.44979-.84666-.4498-.3175-1.11125-.58209-.66146-.26458-1.45521-.52916-.79375-.29104-1.45521-.76729-.66145-.50271-1.11124-1.24354-.4498-.76729-.4498-1.95792 0-1.95791 1.16417-2.98978 1.16417-1.03188 3.3602-1.03188 1.50813 0 2.72521.3175 1.21708.3175 1.905.71438l-.76729 2.48708q-.60855-.23813-1.53459-.50271-.92604-.26458-1.87853-.26458-1.53459 0-1.53459 1.19062 0 .47625.44979.76729.4498.29104 1.11125.55562.66146.23813 1.45521.52917.79375.29104 1.45521.76729.66145.44979 1.11124 1.19062.4498.74084.4498 1.905 0 2.01083-1.29646 3.175-1.27 1.1377-3.83645 1.1377-1.40229 0-2.64583-.37041-1.21709-.34396-1.98438-.82021l.9525-2.56645q.60854.34395 1.61396.68791 1.00541.3175 2.06375.3175.76729 0 1.21708-.29104.47625-.29104.47625-.97896zM-113.74625 233.48972l.47625 2.06375h.15875l.34396-2.09021 2.01083-7.40832h3.54541l-4.02166 11.93269q-.50271 1.48167-.97896 2.69875-.44979 1.24354-1.00542 2.14312-.55562.89958-1.24354 1.37583-.66145.50271-1.58749.50271-1.37583 0-2.19604-.44979l.635-2.75166q.39687.15875.79375.15875.60854 0 1.16416-.52917.58208-.50271.87313-1.85208l-5.52979-13.22915h4.1275zM-98.7043 235.63284q0-.52916-.449792-.84666-.449791-.3175-1.111248-.58209-.66146-.26458-1.45521-.52916-.79375-.29104-1.4552-.76729-.66146-.50271-1.11125-1.24354-.44979-.76729-.44979-1.95792 0-1.95791 1.16416-2.98978 1.16417-1.03188 3.36021-1.03188 1.50812 0 2.725201.3175 1.217082.3175 1.904998.71438l-.767291 2.48708q-.608541-.23813-1.534581-.50271-.926041-.26458-1.878539-.26458-1.534578 0-1.534578 1.19062 0 .47625.44979.76729t1.111246.55562q.661457.23813 1.455206.52917t1.455207.76729q.661457.44979 1.111248 1.19062.449792.74084.449792 1.905 0 2.01083-1.296457 3.175-1.269999 1.1377-3.836452 1.1377-1.40229 0-2.64583-.37041-1.21708-.34396-1.98437-.82021l.95249-2.56645q.60855.34395 1.61396.68791 1.00542.3175 2.06375.3175.767289 0 1.21708-.29104.47625-.29104.47625-.97896zM-92.675118 226.05494h1.825622v-2.48708l3.439579-.97896v3.46604h3.227913v2.91041h-3.227913v5.07999q0 1.37584.264583 1.98438.291042.58208 1.058332.58208.529166 0 .899582-.10583.396875-.10584.873124-.3175l.608541 2.64583q-.714374.34395-1.666873.58208-.952498.23812-1.931455.23812-1.825623 0-2.698747-.92604-.846666-.95249-.846666-3.09562v-6.66749h-1.825622zM-69.901132 238.14638q-.793749.635-2.169581 1.08479-1.349373.42333-2.883955.42333-3.201454 0-4.683119-1.85208-1.481664-1.87854-1.481664-5.13291 0-3.49249 1.666873-5.23874 1.666872-1.74625 4.683119-1.74625 1.005415 0 1.957914.26459.952499.26458 1.693331.87312.740832.60854 1.190623 1.64041.449792 1.03188.449792 2.56646 0 .55562-.07937 1.19062-.05292.635-.185208 1.32292h-7.93749q.07937 1.66687.846665 2.51354.793749.84666 2.539997.84666 1.08479 0 1.931456-.3175.873124-.34396 1.322915-.68791zm-4.921244-9.71019q-1.349373 0-2.010831.8202-.634999.79375-.76729 2.14312h4.921243q.105833-1.42874-.449791-2.19603-.529166-.76729-1.693331-.76729zM-57.81464 239.28409v-7.19666q0-1.82562-.343958-2.59291-.343958-.76729-1.428748-.76729-.899582 0-1.455207.5027-.555624.47625-.846665 1.24354v8.81062h-3.439579v-13.22915h2.672288l.396875 1.74625h.105833q.608541-.84667 1.534581-1.48167.952499-.635 2.434164-.635 1.269998 0 2.063747.52917.820207.50271 1.269998 1.71979.608541-1.03188 1.56104-1.64042.952499-.60854 2.301872-.60854 1.111249 0 1.878539.26459.793749.26458 1.269999.92604.502708.63499.740832 1.71979.238125 1.08479.238125 2.75166v7.93749h-3.439579v-7.43478q0-1.56104-.343958-2.32833-.3175-.79375-1.455206-.79375-.926041 0-1.481665.5027-.529166.50271-.793749 1.37584v8.67832zM-31.735025 238.14638q-.793749.635-2.169581 1.08479-1.349373.42333-2.883954.42333-3.201455 0-4.683119-1.85208-1.481665-1.87854-1.481665-5.13291 0-3.49249 1.666873-5.23874 1.666873-1.74625 4.683119-1.74625 1.005415 0 1.957914.26459.952499.26458 1.693331.87312.740833.60854 1.190624 1.64041.449791 1.03188.449791 2.56646 0 .55562-.07937 1.19062-.05292.635-.185208 1.32292h-7.93749q.07937 1.66687.846665 2.51354.793749.84666 2.539997.84666 1.08479 0 1.931456-.3175.873124-.34396 1.322915-.68791zm-4.921244-9.71019q-1.349373 0-2.010831.8202-.634999.79375-.76729 2.14312h4.921243q.105834-1.42874-.449791-2.19603-.529166-.76729-1.693331-.76729z" style="font-weight:700;-inkscape-font-specification:'PT Sans Bold';fill:#fff;fill-opacity:1" transform="translate(266.941318 -1.69574)"/></g><g aria-label="Jürgen Ehret" style="font-size:22.7542px;line-height:1.25;font-family:'PT Sans';-inkscape-font-specification:'PT Sans';text-align:center;letter-spacing:8.33438px;text-anchor:middle;display:inline;fill:#fff;fill-opacity:1;stroke-width:.264583"><path d="M-241.88876 264.12354h3.11732v11.65015q0 .91017-.20478 1.72932-.20479.81915-.68263 1.45627-.45508.61436-1.18322 1.00119-.72813.36406-1.77483.36406-.65987 0-1.43351-.13652-.77364-.13653-1.3425-.38682l.68263-2.54847q.59161.2958 1.3425.2958.95567 0 1.20597-.70538.27305-.70538.27305-1.86584zM-224.79437 268.67438v6.4622q0 1.388.31856 2.00237.34131.61436 1.29699.61436.8419 0 1.38801-.50059.56885-.5006.8419-1.22873v-7.34961h2.95805v7.91846q0 .93293.091 1.84309.091.88742.27305 1.61555h-2.22991l-.52334-1.68381h-.091q-.52335.86466-1.45627 1.43352-.93292.56885-2.20716.56885-.86466 0-1.54728-.22754-.68263-.22754-1.13771-.75089-.45509-.52335-.70538-1.41076-.22755-.88741-.22755-2.22991v-7.07656zm-2.13889-3.43588q0-.72814.43233-1.16047.45508-.43233 1.18321-.43233.72814 0 1.13771.43233.43233.43233.43233 1.16047 0 .68262-.43233 1.11495-.40957.43233-1.13771.43233-.72813 0-1.18321-.43233-.43233-.43233-.43233-1.11495zm4.98317 0q0-.72814.40957-1.16047.43233-.43233 1.16047-.43233.72813 0 1.16046.43233.45508.43233.45508 1.16047 0 .68262-.45508 1.11495-.43233.43233-1.16046.43233-.72814 0-1.16047-.43233-.40957-.43233-.40957-1.11495zM-200.80261 271.4504q-.70538-.2503-1.27424-.2503-.7964 0-1.3425.43233-.52334.40957-.70538 1.06945v7.3496h-2.95804v-11.3771h2.29817l.34132 1.50178h.091q.38682-.84191 1.0467-1.29699.65987-.45508 1.54728-.45508.59161 0 1.3425.25029zM-181.12384 280.05148q0 2.48021-1.3425 3.64068-1.3425 1.18321-3.75444 1.18321-1.6383 0-2.59398-.22754-.93292-.22754-1.41076-.47784l.61436-2.34368q.52335.20479 1.20597.40958.70538.20478 1.72932.20478 1.54729 0 2.09339-.68262.56886-.65987.56886-1.86585v-.72813h-.091q-.7964 1.06945-2.82152 1.06945-2.20716 0-3.29936-1.36526-1.06945-1.36525-1.06945-4.27778 0-3.04907 1.45627-4.61911t4.23228-1.57004q1.45627 0 2.59398.20479 1.16046.20479 1.8886.47784zm-5.00593-2.1844q.86466 0 1.31975-.38682.47784-.38682.72813-1.16047v-5.11969q-.70538-.29581-1.75207-.29581-1.13771 0-1.77483.86466-.63712.84191-.63712 2.70775 0 1.66106.5461 2.52572.54611.86466 1.57004.86466zM-161.13576 279.07305q-.68262.5461-1.86584.93292-1.16046.36407-2.48021.36407-2.75326 0-4.02749-1.59279-1.27424-1.61555-1.27424-4.41432 0-3.00355 1.43352-4.50533 1.43351-1.50178 4.02749-1.50178.86466 0 1.68381.22755.81915.22754 1.45627.75088.63712.52335 1.02394 1.41077.38682.88741.38682 2.20715 0 .47784-.0683 1.02394-.0455.5461-.15928 1.13771h-6.82626q.0683 1.43352.72813 2.16165.68263.72814 2.18441.72814.93292 0 1.66105-.27306.75089-.2958 1.13771-.5916zm-4.23228-8.35079q-1.16046 0-1.72932.70538-.5461.68263-.65987 1.84309h4.23228q.091-1.22873-.38682-1.8886-.45508-.65987-1.45627-.65987zM-143.3854 280.05148v-6.46219q0-1.38801-.40957-2.00237-.38683-.61436-1.3425-.61436-.84191 0-1.43352.50059-.56885.47784-.81915 1.20597v7.37236h-2.95804v-11.3771h2.34368l.34131 1.50178h.091q.52335-.72813 1.38801-1.27423.86465-.54611 2.22991-.54611.8419 0 1.50177.22755.65988.22754 1.11496.75088.45508.52335.68263 1.43352.22754.88741.22754 2.20716v7.07655zM-115.43447 264.12354h9.44299v2.77602h-6.32566v3.70893h5.75681v2.77601h-5.75681v3.89097h6.43943v2.77601h-9.55676zM-88.339599 280.05148v-6.46219q0-1.38801-.386821-2.00237-.386822-.61436-1.410761-.61436-.750888 0-1.388006.52334-.614363.5006-.819151 1.29699v7.25859h-2.958046v-15.92794h2.958046v5.82508h.09102q.5461-.72814 1.342497-1.16047.796397-.43233 2.025124-.43233.86466 0 1.524532.22755.659871.22754 1.092201.75088.455084.52335.659872 1.43352.227542.88741.227542 2.20716v7.07655zM-68.288598 271.4504q-.70538-.2503-1.274235-.2503-.796397 0-1.342498.43233-.523346.40957-.70538 1.06945v7.3496h-2.958046v-11.3771h2.298174l.341313 1.50178h.09102q.386821-.84191 1.046693-1.29699.659872-.45508 1.547286-.45508.591609 0 1.342498.25029zM-49.133169 279.07305q-.682626.5461-1.865844.93292-1.160464.36407-2.480208.36407-2.753258 0-4.027493-1.59279-1.274236-1.61555-1.274236-4.41432 0-3.00355 1.433515-4.50533 1.433515-1.50178 4.027493-1.50178.86466 0 1.683811.22755.819151.22754 1.456269.75088.637118.52335 1.023939 1.41077.386821.88741.386821 2.20715 0 .47784-.06826 1.02394-.04551.5461-.15928 1.13771h-6.82626q.06826 1.43352.728135 2.16165.682626.72814 2.184403.72814.932922 0 1.661057-.27306.750888-.2958 1.13771-.5916zm-4.232281-8.35079q-1.160464 0-1.729319.70538-.546101.68263-.659872 1.84309h4.232281q.09102-1.22873-.386821-1.8886-.455084-.65987-1.456269-.65987zM-39.528816 268.67438h1.57004v-2.13889l2.958046-.84191v2.9808h2.776013v2.50297h-2.776013v4.3688q0 1.18322.227542 1.70657.250296.50059.910168.50059.455084 0 .773643-.091.341313-.091.750889-.27305l.523346 2.27542q-.614363.29581-1.433514.50059-.819152.20479-1.661057.20479-1.57004 0-2.320928-.7964-.728135-.81915-.728135-2.66224v-5.73405h-1.57004z" style="font-weight:700;-inkscape-font-specification:'PT Sans Bold';fill:#fff;fill-opacity:1" transform="translate(266.941318 -1.69574)"/></g><g aria-label="Ingenieurbüro" style="font-weight:700;font-size:26.4583px;line-height:1.25;font-family:'PT Sans';-inkscape-font-specification:'PT Sans Bold';text-align:center;letter-spacing:4.7625px;text-anchor:middle;display:inline;fill:#fff;fill-opacity:1;stroke-width:.264583"><path d="M-245.72606 174.3673h3.62478v18.52081h-3.62478zM-225.77237 192.88811v-7.51416q0-1.61396-.47624-2.32833-.4498-.71437-1.56104-.71437-.97896 0-1.66688.58208-.66145.55562-.9525 1.40229v8.57249h-3.43957v-13.22915h2.7252l.39687 1.74625h.10584q.60854-.84667 1.61395-1.48167 1.00542-.635 2.59292-.635.97895 0 1.74625.26458.76729.26459 1.29645.87313.52917.60854.79375 1.66687.26458 1.03187.26458 2.56646v8.22853zM-203.49654 192.88811q0 2.88395-1.56104 4.23333-1.56104 1.37583-4.36562 1.37583-1.90499 0-3.01624-.26459-1.08479-.26458-1.64042-.55562l.71438-2.72521q.60854.23813 1.40229.47625.8202.23813 2.01083.23813 1.79916 0 2.43416-.79375.66146-.76729.66146-2.16958v-.84667h-.10584q-.92604 1.24354-3.28082 1.24354-2.56646 0-3.83646-1.58749-1.24354-1.5875-1.24354-4.97416 0-3.54542 1.69333-5.37104 1.69333-1.82562 4.92125-1.82562 1.69333 0 3.01624.23812 1.34938.23813 2.19604.55563zm-5.82082-2.54q1.00541 0 1.53458-.44979.55562-.44979.84666-1.34937v-5.95312q-.8202-.34396-2.03729-.34396-1.32291 0-2.06374 1.00542-.74084.97895-.74084 3.14853 0 1.93146.635 2.93688.635 1.00541 1.82563 1.00541zM-185.18326 191.7504q-.79374.635-2.16958 1.08479-1.34937.42333-2.88395.42333-3.20145 0-4.68312-1.85208-1.48166-1.87854-1.48166-5.13291 0-3.49249 1.66687-5.23874 1.66687-1.74625 4.68312-1.74625 1.00541 0 1.95791.26458.9525.26459 1.69333.87313.74084.60854 1.19063 1.64041.44979 1.03188.44979 2.56646 0 .55562-.0794 1.19062-.0529.635-.18521 1.32292h-7.93749q.0794 1.66687.84667 2.51353.79375.84667 2.54.84667 1.08479 0 1.93145-.3175.87313-.34396 1.32292-.68792zm-4.92124-9.7102q-1.34937 0-2.01083.82021-.635.79375-.76729 2.14312h4.92124q.10584-1.42874-.44979-2.19603-.52916-.7673-1.69333-.7673zM-169.47198 192.88811v-7.51416q0-1.61396-.47625-2.32833-.44979-.71437-1.56104-.71437-.97895 0-1.66687.58208-.66146.55562-.9525 1.40229v8.57249h-3.43958v-13.22915h2.72521l.39687 1.74625h.10583q.60855-.84667 1.61396-1.48167 1.00542-.635 2.59291-.635.97896 0 1.74625.26458.76729.26459 1.29646.87313.52916.60854.79375 1.66687.26458 1.03187.26458 2.56646v8.22853zM-158.07051 179.65896h3.43958v13.22915h-3.43958zm-.50271-3.73062q0-.76729.55562-1.29646.58209-.55562 1.5875-.55562 1.00542 0 1.61396.55562.635.52917.635 1.29646 0 .76729-.635 1.29645-.60854.50271-1.61396.50271-1.00541 0-1.5875-.50271-.55562-.52916-.55562-1.29645zM-135.91086 191.7504q-.79374.635-2.16958 1.08479-1.34937.42333-2.88395.42333-3.20145 0-4.68312-1.85208-1.48166-1.87854-1.48166-5.13291 0-3.49249 1.66687-5.23874 1.66687-1.74625 4.68312-1.74625 1.00541 0 1.95791.26458.9525.26459 1.69333.87313.74084.60854 1.19063 1.64041.44979 1.03188.44979 2.56646 0 .55562-.0794 1.19062-.0529.635-.18521 1.32292h-7.93749q.0794 1.66687.84667 2.51353.79375.84667 2.54.84667 1.08479 0 1.93145-.3175.87313-.34396 1.32292-.68792zm-4.92124-9.7102q-1.34937 0-2.01083.82021-.635.79375-.76729 2.14312h4.92124q.10584-1.42874-.44979-2.19603-.52916-.7673-1.69333-.7673zM-124.98853 179.65896v7.51415q0 1.61396.37042 2.32833.39687.71438 1.50812.71438.97896 0 1.61395-.58208.66146-.58209.97896-1.42875v-8.54603h3.43958v9.20749q0 1.08479.10583 2.14312.10584 1.03187.3175 1.87854h-2.59291l-.60854-1.95792h-.10583q-.60855 1.00542-1.69334 1.66688-1.08479.66145-2.56645.66145-1.00542 0-1.79916-.26458-.79375-.26458-1.32292-.87312-.52917-.60854-.82021-1.64042-.26458-1.03187-.26458-2.59291v-8.22853zM-102.01983 182.88687q-.82021-.29104-1.48167-.29104-.92604 0-1.56104.50271-.60854.47625-.8202 1.24354v8.54603h-3.43958v-13.22915h2.67229l.39687 1.74625h.10583q.44979-.97896 1.21708-1.50813.7673-.52916 1.79917-.52916.68791 0 1.56104.29104zM-95.258068 174.3673h3.439579v6.34999h.105833q.555624-.635 1.428748-1.00542.873124-.37041 1.931456-.37041 2.381247 0 3.624787 1.64041 1.269998 1.61396 1.269998 4.9477 0 3.57187-1.772706 5.42396-1.746247 1.85208-4.81541 1.85208-1.693331 0-3.095621-.29104-1.40229-.26459-2.116664-.60855zm5.900201 7.88457q-.952499 0-1.56104.50271-.582083.47625-.899582 1.40229v5.76791q.423332.21166.899582.29104.502708.0794 1.058332.0794 1.40229 0 2.116664-1.00541.740832-1.03188.740832-3.25437 0-3.78354-2.354788-3.78354zM-73.028967 179.65896v7.51415q0 1.61396.370416 2.32833.396875.71438 1.508123.71438.978957 0 1.613957-.58208.661457-.58209.978957-1.42875v-8.54603h3.439579v9.20749q0 1.08479.105833 2.14312.105833 1.03187.3175 1.87854h-2.592914l-.608541-1.95792h-.105833q-.608541 1.00542-1.693331 1.66688-1.08479.66145-2.566455.66145-1.005416 0-1.799165-.26458-.793749-.26458-1.322915-.87312-.529166-.60854-.820207-1.64042-.264583-1.03187-.264583-2.59291v-8.22853zm-2.48708-3.99521q0-.84666.502708-1.34937.529166-.50271 1.375831-.50271.846666 0 1.322915.50271.502708.50271.502708 1.34937 0 .79375-.502708 1.29646-.476249.50271-1.322915.50271-.846665 0-1.375831-.50271-.502708-.50271-.502708-1.29646zm5.794368 0q0-.84666.476249-1.34937.502708-.50271 1.349373-.50271.846666 0 1.349374.50271.529166.50271.529166 1.34937 0 .79375-.529166 1.29646-.502708.50271-1.349374.50271-.846665 0-1.349373-.50271-.476249-.50271-.476249-1.29646zM-50.060253 182.88687q-.820207-.29104-1.481665-.29104-.92604 0-1.561039.50271-.608541.47625-.820208 1.24354v8.54603h-3.439579v-13.22915h2.672289l.396874 1.74625h.105833q.449791-.97896 1.217082-1.50813.767291-.52916 1.799165-.52916.687915 0 1.561039.29104zM-43.933503 186.27353q0-3.3602 1.640414-5.15937 1.640415-1.82562 4.603744-1.82562 1.587498 0 2.751664.50271 1.164165.50271 1.931455 1.42875.767291.89958 1.137707 2.19604.396875 1.29645.396875 2.85749 0 3.36021-1.640415 5.18583-1.613956 1.79916-4.577286 1.79916-1.587498 0-2.751663-.5027-1.164165-.50271-1.957914-1.40229-.767291-.92604-1.164165-2.2225-.370416-1.29646-.370416-2.8575zm3.545412 0q0 .87313.15875 1.61396.158749.74083.476249 1.29646.3175.55562.820207.87312.529166.29104 1.24354.29104 1.349374 0 2.010831-.97896.661458-.97895.661458-3.09562 0-1.82562-.608541-2.93687-.608541-1.13771-2.063748-1.13771-1.269998 0-1.984372.9525-.714374.9525-.714374 3.12208z" style="fill:#fff;fill-opacity:1" transform="translate(266.941318 -1.69574)"/></g><g aria-label="für" style="font-weight:700;font-size:14.8167px;line-height:1.25;font-family:'PT Sans';-inkscape-font-specification:'PT Sans Bold';text-align:center;letter-spacing:8.33438px;text-anchor:middle;display:inline;fill:#fff;fill-opacity:1;stroke-width:.264583"><path d="M-427.18572 572.53879h1.02236v-.41486q0-1.40759.59267-2.02989.59266-.63712 1.71873-.63712 1.18534 0 1.97062.28152l-.37041 1.54093q-.34079-.11853-.60749-.14816-.25188-.0444-.5334-.0444-.29633 0-.47413.0889-.16299.0889-.25189.28151-.0741.1778-.10372.45932-.0148.2667-.0148.6223h1.62984v1.62984h-1.62984v5.77851h-1.92617v-5.77851h-1.02236zM-411.5717 572.53879v4.20795q0 .90382.20743 1.30387.22225.40005.84455.40005.54822 0 .90382-.32597.37042-.32597.54822-.8001v-4.7858h1.92617v5.15622q0 .60748.0593 1.20015.0593.57785.1778 1.05198h-1.45204l-.34078-1.09643h-.0593q-.34079.56303-.94827.93345-.60749.37042-1.43722.37042-.56304 0-1.00754-.14817-.4445-.14817-.74083-.48895-.29634-.34078-.45932-.91864-.14817-.57785-.14817-1.45203v-4.608zm-1.39277-2.23732q0-.47413.28151-.75565.29634-.28152.77047-.28152.47414 0 .74084.28152.28151.28152.28151.75565 0 .4445-.28151.72602-.2667.28152-.74084.28152-.47413 0-.77047-.28152-.28151-.28152-.28151-.72602zm3.24485 0q0-.47413.2667-.75565.28152-.28152.75566-.28152.47413 0 .75565.28152.29633.28152.29633.75565 0 .4445-.29633.72602-.28152.28152-.75565.28152-.47414 0-.75566-.28152-.2667-.28152-.2667-.72602zM-393.04181 574.34643q-.45932-.16298-.82974-.16298-.51858 0-.87419.28151-.34078.26671-.45931.69639v4.78579h-1.92617v-7.40835h1.49648l.22225.97791h.0593q.25188-.54822.68157-.84456.42968-.29633 1.00753-.29633.38524 0 .87419.16298z" style="fill:#fff;fill-opacity:1" transform="translate(538.33028 -366.960111)"/></g></g></svg>