<svg width="1485.351" height="422.33002" viewBox="0 0 392.99898 111.74146" xmlns="http://www.w3.org/2000/svg"><defs><path id="d" d="M83.976158 1224.1858h406.81784v278.05438H83.976158z"/><path id="c" d="M1600.6648 5530.2114h158.57976v94.550331H1600.6648z"/><path id="b" d="M157-13h55v40h-55z"/><filter style="color-interpolation-filters:sRGB" id="a" x="-.05642297" y="-.03515585" width="1.1128459" height="1.0703117"><feGaussianBlur stdDeviation="1.1384116"/></filter></defs><text xml:space="preserve" transform="matrix(.26458 0 0 .26458 58.519963 -2150.443)" style="font-size:36px;line-height:1.25;font-family:Lato;-inkscape-font-specification:Lato;text-align:center;letter-spacing:0;white-space:pre;shape-inside:url(#b)"><tspan x="157" y="60.48"><tspan dx="0 20.882812 20.039062 14.484375 18.84375">Ehret</tspan></tspan></text><g style="display:inline"><path style="display:inline;vector-effect:none;fill:#fff;fill-opacity:.5;stroke-width:.8158;stroke-opacity:.968165;stop-color:#000" d="M20.063686 0H413.0628v111.74148H20.063686Z" transform="translate(-20.063686)"/></g><g style="display:inline"><path d="M-171.26391 423.53667h-3.82058q-.0251 1.65893.60325 2.86543.62838 1.2065 1.68407 1.9857 1.08082.77919 2.46327 1.13109 1.40758.37703 2.89057.37703 1.83488 0 3.21733-.4273 1.40758-.4273 2.33759-1.18136.95515-.7792 1.43272-1.83489.47757-1.05569.47757-2.28732 0-1.50812-.65352-2.46327-.62838-.98028-1.50812-1.55839-.87974-.57812-1.78461-.82947-.87974-.27649-1.38245-.37703-1.68407-.4273-2.73976-.70379-1.03055-.27649-1.6338-.55298-.57811-.27649-.7792-.60325-.20108-.32676-.20108-.85461 0-.57811.25135-.95514.25136-.37703.62839-.62839.40216-.25135.87974-.35189.47757-.10054.95514-.10054.72893 0 1.33218.12567.62838.12568 1.10596.4273.47757.30163.75406.82947.30162.52785.35189 1.33218h3.82058q0-1.5584-.60325-2.63922-.57811-1.10596-1.58353-1.80975-1.00541-.70379-2.31245-1.00541-1.28191-.32676-2.68949-.32676-1.2065 0-2.413.32676t-2.16164 1.00541q-.95515.67866-1.5584 1.70921-.57811 1.00542-.57811 2.38786 0 1.23164.45244 2.11138.47757.8546 1.23163 1.43272.75406.57811 1.70921.95514.95514.3519 1.96056.60325.98028.27649 1.93542.50271.95515.22622 1.70921.52784.75406.30163 1.2065.75406.47757.45244.47757 1.18137 0 .67865-.35189 1.13109-.3519.4273-.87974.67866-.52784.25135-1.13109.35189-.60325.0754-1.1311.0754-.77919 0-1.50812-.17595-.72893-.20108-1.28191-.57811-.52784-.40217-.8546-1.03055-.32676-.62839-.32676-1.53326zM-154.33547 423.00882q0-.7792.15082-1.53326.15081-.75406.5027-1.33217.37704-.57812.98029-.93001.60324-.37703 1.50812-.37703.90487 0 1.50812.37703.62839.35189.98028.93001.37703.57811.52785 1.33217.15081.75406.15081 1.53326 0 .7792-.15081 1.53326-.15082.72893-.52785 1.33218-.35189.57811-.98028.93001-.60325.35189-1.50812.35189-.90488 0-1.50812-.35189-.60325-.3519-.98029-.93001-.35189-.60325-.5027-1.33218-.15082-.75406-.15082-1.53326zm-3.56922 0q0 1.5584.47757 2.81517.47757 1.25677 1.35731 2.16164.87974.87974 2.11137 1.35731 1.23164.47758 2.7649.47758 1.53326 0 2.76489-.47758 1.25677-.47757 2.13651-1.35731.87974-.90487 1.35731-2.16164.47758-1.25677.47758-2.81517 0-1.55839-.47758-2.81516-.47757-1.28191-1.35731-2.16165-.87974-.90487-2.13651-1.38244-1.23163-.50271-2.76489-.50271-1.53326 0-2.7649.50271-1.23163.47757-2.11137 1.38244-.87974.87974-1.35731 2.16165-.47757 1.25677-.47757 2.81516zM-140.82818 418.88662v10.60714h3.56922v-10.60714h2.46327v-2.38787h-2.46327v-.77919q0-.80434.30163-1.1311.32676-.35189 1.05568-.35189.67866 0 1.30705.0754v-2.66436q-.45244-.0251-.93001-.0503-.47758-.0503-.95515-.0503-2.18678 0-3.2676 1.10596-1.08082 1.10596-1.08082 2.8403v1.00542h-2.13651v2.38786zM-128.15901 416.49875v-3.89598h-3.56923v3.89598h-2.16164v2.38787h2.16164v7.66629q0 .98028.32676 1.58353.32676.60325.87974.93001.57811.32676 1.30704.42731.75406.12567 1.58353.12567.52784 0 1.08082-.0251.55298-.0251 1.00542-.10054v-2.76489q-.25136.0503-.52784.0754-.27649.0251-.57812.0251-.90487 0-1.2065-.30163-.30162-.30162-.30162-1.2065v-6.43466h2.61408v-2.38786zM-108.46253 429.49376l4.09707-12.99501h-3.66977l-2.38786 8.79739h-.0503l-2.21192-8.79739h-3.46868l-2.16165 8.82253h-.0503l-2.38786-8.82253h-3.77031l4.1222 12.99501h3.69491l2.21191-8.72199h.0503l2.31246 8.72199zM-102.46759 420.49528q.0754-1.25677.62838-2.08624.55298-.82946 1.40758-1.33217.85461-.50271 1.91029-.70379 1.08083-.22622 2.16165-.22622.98028 0 1.9857.15081 1.00541.12568 1.83488.52784.82947.40217 1.35731 1.1311.52784.70379.52784 1.88515v6.76142q0 .87974.10055 1.68408.10054.80433.35189 1.2065h-3.6195q-.10054-.30163-.17594-.60325-.0503-.32676-.0754-.65352-.8546.87973-2.01083 1.23163-1.15623.3519-2.36273.3519-.93001 0-1.73434-.22622-.80434-.22622-1.40758-.70379-.60325-.47758-.95515-1.2065-.32676-.72893-.32676-1.73435 0-1.10595.37703-1.80975.40217-.72892 1.00542-1.15622.62838-.42731 1.40758-.62839.80433-.22622 1.60867-.35189.80433-.12568 1.58353-.20109.77919-.0754 1.38244-.22622.60325-.15081.95515-.4273.35189-.30162.32676-.8546 0-.57811-.20109-.90488-.17594-.35189-.5027-.52784-.30163-.20108-.72893-.25135-.40217-.0754-.87974-.0754-1.05569 0-1.65894.45243-.60325.45244-.70379 1.50813zm8.24441 2.63922q-.22622.20108-.57812.32676-.32676.10054-.72892.17595-.37703.0754-.80434.12567-.4273.0503-.8546.12568-.40217.0754-.80433.20108-.37703.12568-.67866.3519-.27649.20108-.45244.52784-.17594.32676-.17594.82947 0 .47757.17594.80433.17595.32676.47758.52785.30162.17595.70379.25135.40216.0754.82947.0754 1.05568 0 1.6338-.35189.57811-.3519.8546-.82947.27649-.50271.32676-1.00542.0754-.50271.0754-.80433zM-87.35439 416.49875v12.99501h3.56922v-5.85655q0-.87974.17595-1.6338.17595-.75407.57811-1.30704.42731-.57812 1.10596-.90488.67866-.32676 1.65894-.32676.32676 0 .67865.0503.3519.0251.60325.0754v-3.31787q-.4273-.12568-.77919-.12568-.67866 0-1.30704.20108-.62839.20109-1.18137.57812-.55298.35189-.98028.87974-.4273.5027-.67865 1.10595h-.0503v-2.41299zM-68.78039 421.60124h-5.80627q.0251-.37703.15081-.8546.15081-.47758.47757-.90488.3519-.4273.90488-.70379.57811-.30162 1.43271-.30162 1.30704 0 1.93543.70379.65352.70379.90487 2.0611zm-5.80627 2.26219h9.3755q.10054-1.50813-.25135-2.89058-.3519-1.38244-1.15623-2.46326-.7792-1.08083-2.01083-1.70921-1.23164-.65352-2.89057-.65352-1.48299 0-2.71463.52784-1.2065.52784-2.08624 1.45786-.87973.90487-1.35731 2.16164-.47757 1.25677-.47757 2.71462 0 1.50813.45244 2.7649.47757 1.25677 1.33217 2.16164.85461.90487 2.08624 1.40758 1.23164.47758 2.7649.47758 2.21191 0 3.77031-1.00542 1.55839-1.00542 2.31245-3.34301h-3.14192q-.17595.60325-.95515 1.15623-.7792.52784-1.86002.52784-1.50812 0-2.31245-.77919-.80434-.7792-.87974-2.51354zM-59.81945 425.27101h-3.39328q.0503 1.30704.57812 2.18678.55297.8546 1.38244 1.38244.85461.52785 1.93543.75407 1.08082.22622 2.21191.22622 1.10596 0 2.16165-.22622 1.08082-.20109 1.91029-.72893.82947-.52784 1.33217-1.38245.52785-.87974.52785-2.16164 0-.90488-.3519-1.50813-.35189-.62838-.93001-1.03055-.57811-.4273-1.33217-.67865-.72893-.25136-1.50813-.4273-.75406-.17595-1.48299-.32676-.72892-.15082-1.30704-.32676-.55298-.20109-.90487-.50271-.3519-.30163-.3519-.7792 0-.40217.20109-.62838.20108-.25136.47757-.37704.30162-.12567.65352-.15081.35189-.0503.65352-.0503.95514 0 1.65894.37703.70379.3519.77919 1.38245h3.39328q-.10054-1.2065-.62838-1.9857-.50271-.80433-1.28191-1.2819-.7792-.47757-1.78461-.67866-.98028-.20108-2.03597-.20108-1.05569 0-2.0611.20108-1.00542.17595-1.80975.65352-.80433.45244-1.30704 1.25677-.47757.80434-.47757 2.06111 0 .8546.35189 1.45785.3519.57811.93001.98028.57812.37703 1.30704.62838.75406.22622 1.53326.40217 1.91029.40217 2.96598.80433 1.08082.40217 1.08082 1.2065 0 .47758-.22622.80434-.22622.30162-.57811.5027-.32676.17595-.75406.27649-.40217.0754-.7792.0754-.52784 0-1.03055-.12567-.47758-.12568-.85461-.37703-.37703-.27649-.62838-.67866-.22622-.4273-.22622-1.00542zM-42.14519 431.10242l5.42924-14.60367h-3.6949l-2.8403 8.89793h-.0503l-2.94084-8.89793h-3.79545l4.54951 12.19067q.15081.37703.15081.80434 0 .57811-.35189 1.05568-.32676.47758-1.03055.55298-.52785.0251-1.05569-.0251-.52785-.0503-1.03055-.10055v2.94085q.55298.0503 1.08082.0754.55298.0503 1.10596.0503 1.83488 0 2.86543-.67865 1.03055-.67866 1.60867-2.26219zM-32.20203 425.27101h-3.39328q.0503 1.30704.57812 2.18678.55298.8546 1.38245 1.38244.8546.52785 1.93542.75407 1.08082.22622 2.21192.22622 1.10595 0 2.16164-.22622 1.08082-.20109 1.91029-.72893.82947-.52784 1.33218-1.38245.52784-.87974.52784-2.16164 0-.90488-.35189-1.50813-.3519-.62838-.93001-1.03055-.57812-.4273-1.33218-.67865-.72893-.25136-1.50812-.4273-.75407-.17595-1.48299-.32676-.72893-.15082-1.30704-.32676-.55298-.20109-.90488-.50271-.35189-.30163-.35189-.7792 0-.40217.20108-.62838.20108-.25136.47757-.37704.30163-.12567.65352-.15081.3519-.0503.65352-.0503.95515 0 1.65894.37703.70379.3519.7792 1.38245h3.39328q-.10055-1.2065-.62839-1.9857-.50271-.80433-1.2819-1.2819-.7792-.47757-1.78462-.67866-.98028-.20108-2.03597-.20108-1.05568 0-2.0611.20108-1.00541.17595-1.80975.65352-.80433.45244-1.30704 1.25677-.47757.80434-.47757 2.06111 0 .8546.3519 1.45785.35189.57811.93001.98028.57811.37703 1.30704.62838.75406.22622 1.53326.40217 1.91029.40217 2.96597.80433 1.08082.40217 1.08082 1.2065 0 .47758-.22621.80434-.22622.30162-.57812.5027-.32676.17595-.75406.27649-.40217.0754-.7792.0754-.52784 0-1.03055-.12567-.47757-.12568-.8546-.37703-.37703-.27649-.62839-.67866-.22622-.4273-.22622-1.00542zM-16.41293 416.49875v-3.89598h-3.56923v3.89598h-2.16164v2.38787h2.16164v7.66629q0 .98028.32676 1.58353.32676.60325.87974.93001.57812.32676 1.30704.42731.75406.12567 1.58353.12567.52785 0 1.08082-.0251.55298-.0251 1.00542-.10054v-2.76489q-.25135.0503-.52784.0754-.27649.0251-.57812.0251-.90487 0-1.2065-.30163-.30162-.30162-.30162-1.2065v-6.43466h2.61408v-2.38786zM-2.82435 421.60124h-5.80628q.0251-.37703.15081-.8546.15081-.47758.47757-.90488.3519-.4273.90488-.70379.57811-.30162 1.43272-.30162 1.30704 0 1.93542.70379.65352.70379.90488 2.0611zm-5.80628 2.26219h9.3755q.10054-1.50813-.25135-2.89058-.3519-1.38244-1.15623-2.46326-.7792-1.08083-2.01083-1.70921-1.23164-.65352-2.89057-.65352-1.48299 0-2.71463.52784-1.2065.52784-2.08623 1.45786-.87974.90487-1.35732 2.16164-.47757 1.25677-.47757 2.71462 0 1.50813.45244 2.7649.47757 1.25677 1.33218 2.16164.8546.90487 2.08623 1.40758 1.23164.47758 2.7649.47758 2.21191 0 3.77031-1.00542 1.55839-1.00542 2.31245-3.34301h-3.14192q-.17595.60325-.95515 1.15623-.77919.52784-1.86002.52784-1.50812 0-2.31245-.77919-.80434-.7792-.87974-2.51354zM3.49146 416.49875v12.99501h3.56922v-7.54063q0-.95514.27649-1.53325.27649-.60325.65352-.90488.40217-.32676.80433-.4273.42731-.12568.67866-.12568.8546 0 1.28191.30163.45243.27649.62838.75406.20108.47757.22622 1.05569.0251.55297.0251 1.13109v7.28927h3.56922v-7.239q0-.60325.0754-1.18136.10054-.60325.35189-1.05569.27649-.47757.72893-.75406.47757-.30163 1.23164-.30163.75406 0 1.18136.25136.45244.25135.67865.67865.22622.4273.27649 1.00542.0503.57811.0503 1.23163v7.36468h3.56922v-8.69685q0-1.25677-.35189-2.13651-.3519-.90488-.98028-1.45786-.62839-.55297-1.50813-.80433-.87974-.25135-1.91029-.25135-1.35731 0-2.36273.65352-.98028.65352-1.55839 1.50812-.52784-1.2065-1.5584-1.68407-1.00541-.47757-2.23705-.47757-1.2819 0-2.28732.55298-.98028.55298-1.68407 1.55839h-.0503v-1.75948zM35.44615 421.60124h-5.80627q.0251-.37703.15081-.8546.15081-.47758.47757-.90488.3519-.4273.90488-.70379.57811-.30162 1.43271-.30162 1.30704 0 1.93543.70379.65352.70379.90487 2.0611zm-5.80627 2.26219h9.3755q.10054-1.50813-.25135-2.89058-.3519-1.38244-1.15623-2.46326-.7792-1.08083-2.01083-1.70921-1.23164-.65352-2.89057-.65352-1.48299 0-2.71463.52784-1.2065.52784-2.08624 1.45786-.87974.90487-1.35731 2.16164-.47757 1.25677-.47757 2.71462 0 1.50813.45244 2.7649.47757 1.25677 1.33217 2.16164.85461.90487 2.08624 1.40758 1.23164.47758 2.7649.47758 2.21191 0 3.77031-1.00542 1.55839-1.00542 2.31245-3.34301h-3.14192q-.17595.60325-.95515 1.15623-.7792.52784-1.86002.52784-1.50812 0-2.31245-.77919-.80434-.7792-.87974-2.51354z" style="font-weight:700;font-size:25.1354px;line-height:1.25;font-family:'Helvetica Neue';-inkscape-font-specification:'Helvetica Neue Bold';text-align:center;letter-spacing:.529167px;text-anchor:middle;fill:#000;stroke-width:.264583" transform="translate(340.32035 -365.66667)"/><path d="M-175.4094 383.16095v17.94667h3.94625v-17.94667zM-164.21949 388.11262v12.995h3.56922v-6.81169q0-1.9857.65352-2.8403.65352-.87974 2.11138-.87974 1.2819 0 1.78461.80433.50271.7792.50271 2.38787v7.33953h3.56922v-7.99305q0-1.2065-.22621-2.18678-.20109-1.00542-.72893-1.68408-.52784-.70379-1.45785-1.08082-.90488-.40216-2.3376-.40216-1.13109 0-2.21191.52784-1.08082.50271-1.75948 1.6338h-.0754v-1.80975zM-139.08376 398.04111q-.82947 0-1.38245-.3519-.55297-.3519-.90487-.90488-.32676-.55297-.47757-1.23163-.12568-.70379-.12568-1.40758 0-.72893.15081-1.38245.17595-.67866.52785-1.18136.37703-.52785.90487-.82947.55298-.30163 1.30704-.30163.87974 0 1.45785.32676.57812.32676.93001.87974.3519.55298.50271 1.28191.15081.70379.15081 1.50812 0 .70379-.20108 1.35731-.17595.62839-.55298 1.1311-.37703.50271-.95514.80433-.57812.30162-1.33218.30163zm6.43466 2.23705v-12.16554h-3.39328v1.73434h-.0503q-.65352-1.13109-1.6338-1.60866-.95514-.47757-2.23705-.47757-1.35731 0-2.413.52784-1.03055.52784-1.73434 1.43272-.70379.87974-1.08082 2.0611-.3519 1.15623-.3519 2.413 0 1.33217.30163 2.53867.32676 1.18137 1.00541 2.08624.67866.87974 1.73435 1.40759 1.05568.5027 2.51354.5027 1.18136 0 2.23705-.47757 1.08082-.50271 1.65893-1.53326h.0503v1.70921q.0251 1.38244-.67865 2.28732-.67866.90487-2.18678.90487-.95515 0-1.68407-.40216-.72893-.37703-.98028-1.38245h-3.5441q.0754 1.10596.60325 1.88516.55298.80433 1.35732 1.30704.82946.5027 1.80975.72892 1.00541.25136 1.96056.25136 2.23705 0 3.56922-.60325 1.33218-.60325 2.03597-1.48299.70379-.8546.90488-1.86002.22621-1.00542.22621-1.78461zM-116.87433 393.21511h-5.80628q.0251-.37703.15081-.85461.15081-.47757.47757-.90487.3519-.4273.90488-.70379.57811-.30163 1.43272-.30163 1.30704 0 1.93542.70379.65352.7038.90488 2.06111zm-5.80628 2.26218h9.3755q.10055-1.50812-.25135-2.89057-.3519-1.38244-1.15623-2.46327-.7792-1.08082-2.01083-1.7092-1.23164-.65352-2.89057-.65352-1.48299 0-2.71463.52784-1.20649.52784-2.08623 1.45785-.87974.90488-1.35732 2.16165-.47757 1.25677-.47757 2.71462 0 1.50812.45244 2.76489.47757 1.25678 1.33218 2.16165.8546.90487 2.08623 1.40758 1.23164.47757 2.7649.47757 2.21191 0 3.77031-1.00541 1.55839-1.00542 2.31245-3.34301h-3.14192q-.17595.60325-.95515 1.15623-.77919.52784-1.86002.52784-1.50812 0-2.31245-.7792-.80433-.77919-.87974-2.51354zM-107.03428 388.11262v12.995h3.56923v-6.81169q0-1.9857.65352-2.8403.65352-.87974 2.11138-.87974 1.2819 0 1.78461.80433.50271.7792.50271 2.38787v7.33953h3.56922v-7.99305q0-1.2065-.22621-2.18678-.20109-1.00542-.72893-1.68408-.52784-.70379-1.45785-1.08082-.90488-.40216-2.3376-.40216-1.13109 0-2.21191.52784-1.08082.50271-1.75948 1.6338h-.0754v-1.80975zM-84.28641 386.10179v-2.94084h-3.56922v2.94084zm-3.56922 2.01083v12.995h3.56922v-12.995zM-68.57487 393.21511h-5.80628q.0251-.37703.15082-.85461.15081-.47757.47757-.90487.35189-.4273.90487-.70379.57812-.30163 1.43272-.30163 1.30704 0 1.93543.70379.65352.7038.90487 2.06111zm-5.80628 2.26218h9.37551q.10054-1.50812-.25136-2.89057-.35189-1.38244-1.15622-2.46327-.7792-1.08082-2.01084-1.7092-1.23163-.65352-2.89057-.65352-1.48299 0-2.71462.52784-1.2065.52784-2.08624 1.45785-.87974.90488-1.35731 2.16165-.47757 1.25677-.47757 2.71462 0 1.50812.45243 2.76489.47758 1.25678 1.33218 2.16165.8546.90487 2.08624 1.40758 1.23163.47757 2.76489.47757 2.21192 0 3.77031-1.00541 1.5584-1.00542 2.31246-3.34301h-3.14193q-.17594.60325-.95514 1.15623-.7792.52784-1.86002.52784-1.50812 0-2.31246-.7792-.80433-.77919-.87974-2.51354zM-46.54414 401.10762v-12.995h-3.56923v6.8117q0 1.98569-.65352 2.86543-.65352.8546-2.11138.8546-1.2819 0-1.78461-.77919-.50271-.80434-.50271-2.413v-7.33954h-3.56922v7.99306q0 1.2065.20108 2.21191.22622.98028.75406 1.68408.52784.67865 1.43272 1.05568.93001.37703 2.36273.37703 1.13109 0 2.21191-.5027 1.08082-.50271 1.75948-1.63381h.0754v1.80975zM-39.6567 388.11262v12.995h3.56922v-5.85654q0-.87974.17595-1.63381.17595-.75406.57811-1.30704.42731-.57811 1.10596-.90487.67866-.32676 1.65894-.32676.32676 0 .67865.0503.3519.0251.60325.0754v-3.31787q-.4273-.12568-.77919-.12568-.67866 0-1.30704.20108-.62839.20109-1.18137.57812-.55298.35189-.98028.87974-.4273.5027-.67865 1.10595h-.0503v-2.413zM-16.207 394.62269q0 .80433-.17595 1.5584-.17595.75406-.55298 1.33217-.37703.57812-.95514.93001-.55298.32676-1.35732.32676-.77919 0-1.35731-.32676-.57811-.35189-.95514-.93001-.37703-.57811-.55298-1.33217-.17595-.75407-.17595-1.5584 0-.82947.17595-1.58353.17595-.75406.55298-1.33218.37703-.57811.95514-.90487.57812-.3519 1.35731-.3519.80434 0 1.35732.3519.57811.32676.95514.90487.37703.57812.55298 1.33218.17595.75406.17595 1.58353zm-9.52632-11.46174v17.94667h3.39328v-1.65893h.0503q.57812 1.08082 1.70921 1.53326 1.13109.45243 2.56381.45243.98028 0 1.93542-.40216.95515-.40217 1.70921-1.23164.7792-.82947 1.25677-2.11137.47757-1.30704.47757-3.09166 0-1.78461-.47757-3.06651-.47757-1.30704-1.25677-2.13651-.75406-.82947-1.70921-1.23164-.95514-.40216-1.93542-.40216-1.2065 0-2.33759.47757-1.10596.45244-1.75948 1.45785h-.0503v-6.5352zM-4.40364 383.16095v2.94084h3.39328v-2.94084zm5.17789 0v2.94084h3.39328v-2.94084zm5.20303 17.94667v-12.995H2.40805v6.8117q0 1.98569-.65352 2.86543-.65352.8546-2.11137.8546-1.28191 0-1.78462-.77919-.5027-.80434-.5027-2.413v-7.33954h-3.56923v7.99306q0 1.2065.20108 2.21191.22622.98028.75406 1.68408.52785.67865 1.43272 1.05568.93001.37703 2.36273.37703 1.13109 0 2.21192-.5027 1.08082-.50271 1.75947-1.63381h.0754v1.80975zM12.86472 388.11262v12.995h3.56923v-5.85654q0-.87974.17594-1.63381.17595-.75406.57812-1.30704.4273-.57811 1.10596-.90487.67865-.32676 1.65893-.32676.32676 0 .67866.0503.35189.0251.60325.0754v-3.31787q-.4273-.12568-.7792-.12568-.67866 0-1.30704.20108-.62839.20109-1.18136.57812-.55298.35189-.98029.87974-.4273.5027-.67865 1.10595h-.0503v-2.413zM29.48345 394.62269q0-.7792.15082-1.53326.15081-.75406.50271-1.33218.37703-.57811.98028-.93001.60325-.37703 1.50812-.37703t1.50812.37703q.62839.3519.98028.93001.37704.57812.52785 1.33218.15081.75406.15081 1.53326 0 .7792-.15081 1.53326-.15081.72893-.52785 1.33218-.35189.57811-.98028.93001-.60325.35189-1.50812.35189t-1.50812-.35189q-.60325-.3519-.98028-.93001-.3519-.60325-.50271-1.33218-.15082-.75406-.15082-1.53326zm-3.56922 0q0 1.5584.47757 2.81517.47757 1.25677 1.35731 2.16164.87974.87974 2.11138 1.35731 1.23163.47757 2.76489.47757 1.53326 0 2.76489-.47757 1.25677-.47757 2.13651-1.35731.87974-.90487 1.35731-2.16164.47758-1.25677.47758-2.81517 0-1.55839-.47758-2.81516-.47757-1.28191-1.35731-2.16165-.87974-.90487-2.13651-1.38245-1.23163-.5027-2.76489-.5027-1.53326 0-2.76489.5027-1.23164.47758-2.11138 1.38245-.87974.87974-1.35731 2.16165-.47757 1.25677-.47757 2.81516z" style="font-weight:700;font-size:25.1354px;line-height:1.25;font-family:'Helvetica Neue';-inkscape-font-specification:'Helvetica Neue Bold';text-align:center;letter-spacing:4.15396px;text-anchor:middle;fill:#000;stroke-width:.264583" transform="translate(340.32035 -365.66667)"/><path d="M-158.89086 454.37668v-7.61998h1.89653q.98213 0 1.64253.28786.67734.27094 1.08374.79587.40639.52493.57573 1.26999.18626.72814.18626 1.64253 0 .99907-.254 1.69333-.254.69427-.67733 1.13454-.42333.42333-.9652.60959-.54186.18627-1.11759.18627zm-2.65852-9.85518v12.09038h5.21545q1.38853 0 2.40453-.4572 1.03293-.47413 1.71026-1.28693.69427-.8128 1.03294-1.9304.33866-1.1176.33866-2.43839 0-1.50707-.42333-2.62467-.4064-1.11759-1.15146-1.86266-.72814-.74506-1.74414-1.1176-.99906-.37253-2.16746-.37253zM-148.21044 447.85736v8.75452h2.40453v-3.94546q0-.59267.11853-1.10067t.38947-.88053q.28786-.38946.74506-.6096.4572-.22013 1.1176-.22013.22013 0 .4572.0339.23706.0169.4064.0508v-2.2352q-.28787-.0847-.52494-.0847-.4572 0-.88053.13547-.42333.13547-.79586.38947-.37254.23706-.6604.59266-.28787.33867-.4572.74507h-.0339v-1.6256zM-142.04169 454.00415v2.60773h2.65853v-2.60773zM-136.42037 450.95615v2.06587h5.09692v-2.06587zM-128.21195 444.5215v12.09038h2.65852V444.5215ZM-122.41362 447.85736v8.75452h2.40452v-4.58893q0-1.33773.44027-1.91346.44027-.59267 1.4224-.59267.8636 0 1.20226.54187.33867.52493.33867 1.60866v4.94453h2.40453v-5.38479q0-.8128-.1524-1.4732-.13547-.67733-.49107-1.13453-.3556-.47413-.98213-.72813-.6096-.27094-1.5748-.27094-.762 0-1.49013.3556-.72813.33867-1.18533 1.10067h-.0508v-1.2192zM-107.22022 454.54601q-.5588 0-.93133-.23706-.37254-.23707-.6096-.6096-.22014-.37253-.32174-.82973-.0847-.47413-.0847-.94827 0-.49106.1016-.93133.11853-.4572.3556-.79586.254-.3556.6096-.5588.37253-.2032.88053-.2032.59266 0 .98213.22013.38946.22013.62653.59267.23707.37253.33867.86359.1016.47414.1016 1.016 0 .47413-.13547.9144-.11853.42333-.37253.762-.254.33866-.64347.54186-.38946.2032-.89746.2032zm4.33492 1.50707v-8.19572h-2.28599v1.1684h-.0339q-.44027-.762-1.10066-1.08373-.64347-.32174-1.50707-.32174-.9144 0-1.62559.3556-.69427.3556-1.1684.9652-.47414.59267-.72813 1.38853-.23707.77893-.23707 1.6256 0 .89746.2032 1.71026.22013.79587.67733 1.40547.4572.59266 1.1684.94826.7112.33867 1.69333.33867.79586 0 1.50706-.32174.72813-.33866 1.1176-1.03293h.0339v1.15147q.0169.93133-.4572 1.54093-.4572.6096-1.4732.6096-.64346 0-1.13453-.27094-.49107-.254-.6604-.93133h-2.38759q.0508.74507.40639 1.27.37254.54187.9144.88053.5588.33867 1.2192.49107.67733.16933 1.3208.16933 1.50706 0 2.40453-.4064.89746-.4064 1.37159-.99906.47414-.57574.6096-1.25307.1524-.67733.1524-1.20226zM-99.78941 454.00415v2.60773h2.65852v-2.60773zM-81.04954 452.80188v-8.28038h-2.65853v8.16185q0 .32173-.0339.67733-.0169.33867-.1524.64347-.11853.28786-.4064.47413-.28786.18627-.81279.18627-.47414 0-.77894-.1524-.28786-.1524-.45719-.4064-.16934-.27093-.23707-.64347-.0677-.37253-.0677-.8128v-.54186h-2.40453v1.04986q0 .99907.33866 1.71027.33867.69426.89747 1.15146.5588.44027 1.27.64347.71119.22013 1.47319.22013 1.35467 0 2.15053-.4064.79587-.42333 1.2192-1.03293.42333-.62653.54186-1.33773.11854-.7112.11854-1.30387zM-76.67837 444.5215v1.9812h2.28599v-1.9812zm3.48826 0v1.9812h2.28599v-1.9812zm3.50519 12.09038v-8.75452h-2.40453v4.58892q0 1.33774-.44026 1.9304-.44027.57573-1.4224.57573-.8636 0-1.20226-.52493-.33867-.54186-.33867-1.6256v-4.94452h-2.40453v5.38479q0 .8128.13547 1.49013.1524.6604.508 1.13453.3556.4572.9652.7112.62653.254 1.59173.254.76199 0 1.49013-.33867.72813-.33866 1.18533-1.10066h.0508v1.2192zM-66.7851 447.85736v8.75452h2.40453v-3.94546q0-.59267.11854-1.10067.11853-.508.38946-.88053.28787-.38946.74507-.6096.4572-.22013 1.11759-.22013.22014 0 .4572.0339.23707.0169.4064.0508v-2.2352q-.28786-.0847-.52493-.0847-.4572 0-.88053.13547-.42333.13547-.79587.38947-.37253.23706-.66039.59266-.28787.33867-.4572.74507h-.0339v-1.6256zM-55.53292 454.54601q-.5588 0-.93133-.23706-.37254-.23707-.6096-.6096-.22013-.37253-.32173-.82973-.0847-.47413-.0847-.94827 0-.49106.1016-.93133.11853-.4572.3556-.79586.254-.3556.6096-.5588.37253-.2032.88053-.2032.59266 0 .98213.22013t.62653.59267q.23707.37253.33867.86359.1016.47414.1016 1.016 0 .47413-.13547.9144-.11853.42333-.37253.762-.254.33866-.64347.54186-.38946.2032-.89746.2032zm4.33492 1.50707v-8.19572h-2.28599v1.1684h-.0339q-.44026-.762-1.10066-1.08373-.64347-.32174-1.50707-.32174-.91439 0-1.62559.3556-.69427.3556-1.1684.9652-.47413.59267-.72813 1.38853-.23707.77893-.23707 1.6256 0 .89746.2032 1.71026.22013.79587.67733 1.40547.4572.59266 1.1684.94826.7112.33867 1.69333.33867.79587 0 1.50706-.32174.72814-.33866 1.1176-1.03293h.0339v1.15147q.0169.93133-.4572 1.54093-.4572.6096-1.4732.6096-.64346 0-1.13453-.27094-.49106-.254-.6604-.93133h-2.38759q.0508.74507.4064 1.27.37253.54187.91439.88053.5588.33867 1.2192.49107.67733.16933 1.3208.16933 1.50706 0 2.40453-.4064.89746-.4064 1.3716-.99906.47413-.57574.60959-1.25307.1524-.67733.1524-1.20226zM-42.30536 451.29482h-3.91159q.0169-.254.10159-.57573.1016-.32173.32174-.6096.23706-.28787.6096-.47413.38946-.2032.96519-.2032.88054 0 1.30387.47413.44026.47413.6096 1.38853zm-3.91159 1.524h6.31612q.0677-1.016-.16934-1.94733-.23706-.93133-.77893-1.65947-.52493-.72813-1.35466-1.15146-.82973-.44027-1.94733-.44027-.99907 0-1.8288.3556-.8128.3556-1.40546.98214-.59267.60959-.9144 1.45626-.32173.84666-.32173 1.8288 0 1.01599.3048 1.86266.32173.84666.89746 1.45626.57573.6096 1.40546.94827.82974.32173 1.86267.32173 1.49013 0 2.53999-.67733 1.04987-.67733 1.55787-2.25213h-2.11667q-.11853.4064-.64346.77893-.52493.3556-1.25307.3556-1.01599 0-1.55786-.52493-.54187-.52493-.59266-1.69333zM-37.41641 447.85736v8.75452h2.40453v-4.58893q0-1.33773.44027-1.91346.44027-.59267 1.4224-.59267.86359 0 1.20226.54187.33867.52493.33867 1.60866v4.94453h2.40453v-5.38479q0-.8128-.1524-1.4732-.13547-.67733-.49107-1.13453-.3556-.47413-.98213-.72813-.6096-.27094-1.5748-.27094-.762 0-1.49013.3556-.72813.33867-1.18533 1.10067h-.0508v-1.2192zM-20.29525 444.5215v12.09038h9.17785v-2.2352h-6.51932v-2.96333h5.85892v-2.06586h-5.85892v-2.59079h6.38385v-2.2352zM-8.51074 444.5215v12.09038h2.40453v-4.58893q0-1.33773.44027-1.91346.44027-.59267 1.4224-.59267.86359 0 1.20226.54187.33867.52493.33867 1.60866v4.94453h2.40453v-5.38479q0-.8128-.1524-1.4732-.13547-.67733-.49107-1.13453-.3556-.47413-.98213-.72813-.6096-.27094-1.5748-.27094-.67733 0-1.38853.3556-.7112.33867-1.1684 1.10067h-.0508v-4.55506zM2.60174 447.85736v8.75452h2.40453v-3.94546q0-.59267.11853-1.10067t.38947-.88053q.28786-.38946.74506-.6096.4572-.22013 1.1176-.22013.22013 0 .4572.0339.23706.0169.4064.0508v-2.2352q-.28787-.0847-.52494-.0847-.45719 0-.88053.13547-.42333.13547-.79586.38947-.37254.23706-.6604.59266-.28787.33867-.4572.74507h-.0339v-1.6256zM15.81658 451.29482h-3.91159q.0169-.254.1016-.57573.1016-.32173.32173-.6096.23706-.28787.6096-.47413.38946-.2032.9652-.2032.88053 0 1.30386.47413.44026.47413.6096 1.38853zm-3.91159 1.524h6.31612q.0677-1.016-.16934-1.94733-.23706-.93133-.77893-1.65947-.52493-.72813-1.35466-1.15146-.82973-.44027-1.94733-.44027-.99907 0-1.8288.3556-.8128.3556-1.40546.98214-.59267.60959-.9144 1.45626-.32173.84666-.32173 1.8288 0 1.01599.3048 1.86266.32173.84666.89746 1.45626.57573.6096 1.40547.94827.82973.32173 1.86266.32173 1.49013 0 2.53999-.67733 1.04987-.67733 1.55787-2.25213h-2.11667q-.11853.4064-.64346.77893-.52493.3556-1.25307.3556-1.01599 0-1.55786-.52493-.54186-.52493-.59266-1.69333zM23.74058 447.85736v-2.62466h-2.40453v2.62466h-1.45626v1.60866h1.45626v5.16466q0 .6604.22014 1.0668.22013.4064.59266.62653.38947.22013.88053.28787.508.0847 1.0668.0847.3556 0 .72813-.0169.37254-.0169.67734-.0677v-1.86267q-.16934.0339-.3556.0508-.18627.0169-.38947.0169-.6096 0-.8128-.2032-.2032-.2032-.2032-.8128v-4.33493h1.76107v-1.60866z" style="font-weight:700;font-size:16.9333px;line-height:1.25;font-family:'Helvetica Neue';-inkscape-font-specification:'Helvetica Neue Bold';text-align:center;letter-spacing:1.05833px;text-anchor:middle;fill:#000;stroke-width:.264583" transform="translate(340.32035 -365.66667)"/><path style="display:inline;fill:none;fill-opacity:1;stroke:#000;stroke-width:1.75016;stroke-miterlimit:4;stroke-dasharray:none;stroke-opacity:1;stop-color:#000" d="M-201.57488 421.53739a8.2769418 4.7765886 0 0 1-8.27689 4.77656 8.2769418 4.7765886 0 0 1-8.27689-4.77655 8.2769418 4.7765886 0 0 1 8.2769-4.77654 8.2769418 4.7765886 0 0 1 8.27688 4.77653z" transform="translate(340.32035 -365.66667)"/><path style="display:inline;fill:none;fill-opacity:1;stroke:#000;stroke-width:2.13909;stroke-miterlimit:4;stroke-dasharray:none;stroke-opacity:1;stop-color:#000" d="M-200.29546 421.53741a13.960437 8.2983888 0 0 1-13.96037 8.29832 13.960437 8.2983888 0 0 1-13.96036-8.29833 13.960437 8.2983888 0 0 1 13.96036-8.29831 13.960437 8.2983888 0 0 1 13.96037 8.29832z" transform="translate(340.32035 -365.66667)"/><path style="display:inline;fill:none;fill-opacity:1;stroke:#000;stroke-width:2.528;stroke-miterlimit:4;stroke-dasharray:none;stroke-opacity:1;stop-color:#000" d="M-198.86513 421.5374a23.440507 14.281596 0 0 1-23.44038 14.28149 23.440507 14.281596 0 0 1-23.44033-14.28149 23.440507 14.281596 0 0 1 23.44033-14.28146 23.440507 14.281596 0 0 1 23.44038 14.28146z" transform="translate(340.32035 -365.66667)"/><path style="display:inline;fill:none;fill-opacity:1;stroke:#000;stroke-width:2.91694;stroke-miterlimit:4;stroke-dasharray:none;stroke-opacity:1;stop-color:#000" d="M-197.15133 421.53738a39.063452 24.247372 0 0 1-39.06327 24.2472 39.063452 24.247372 0 0 1-39.0632-24.2472 39.063452 24.247372 0 0 1 39.0632-24.24713 39.063452 24.247372 0 0 1 39.06327 24.24713z" transform="translate(340.32035 -365.66667)"/><path style="display:inline;fill:none;fill-opacity:1;stroke:#000;stroke-width:3.30587;stroke-miterlimit:4;stroke-dasharray:none;stroke-opacity:1;stop-color:#000" d="M-196.09994 421.53736a64.625548 40.656931 0 0 1-64.62528 40.65665 64.625548 40.656931 0 0 1-64.6251-40.65665 64.625548 40.656931 0 0 1 64.6251-40.65655 64.625548 40.656931 0 0 1 64.62528 40.65655z" transform="translate(340.32035 -365.66667)"/></g></svg>