<svg width="970.14795" height="1029.4709" viewBox="0 0 256.68492 272.38079" xmlns="http://www.w3.org/2000/svg"><defs><path id="c" d="M1600.6648 5530.2114h158.57976v94.550331H1600.6648z"/><path id="b" d="M157-13h55v40h-55z"/><filter style="color-interpolation-filters:sRGB" id="a" x="-.05642297" y="-.03515585" width="1.1128459" height="1.0703117"><feGaussianBlur stdDeviation="1.1384116"/></filter></defs><text xml:space="preserve" transform="matrix(.26458 0 0 .26458 -108.48833 -1931.862)" style="font-size:36px;line-height:1.25;font-family:Lato;-inkscape-font-specification:Lato;text-align:center;letter-spacing:0;white-space:pre;shape-inside:url(#b)"><tspan x="157" y="60.48"><tspan dx="0 20.882812 20.039062 14.484375 18.84375">Ehret</tspan></tspan></text><g style="display:inline"><path style="display:inline;vector-effect:none;fill:#000;fill-opacity:.35;stroke-width:.828178;stroke-opacity:.968165;stop-color:#000" d="M414.58597-153.0661h256.68491v272.38079H414.58597Z" transform="translate(-414.58597 153.0661)"/></g><g style="display:inline"><g style="display:inline;stroke-width:.95413"><path style="display:inline;fill:none;fill-opacity:1;stroke:#fff;stroke-width:2.27202;stroke-miterlimit:4;stroke-dasharray:none;stroke-opacity:1;stop-color:#000" d="M-132.42407 448.2864a13.08618 7.5675644 0 0 1-13.0861 7.56752 13.08618 7.5675644 0 0 1-13.0861-7.56752 13.08618 7.5675644 0 0 1 13.0861-7.56749 13.08618 7.5675644 0 0 1 13.0861 7.56749z" transform="matrix(1.04777 0 0 1.04838 361.26237 -386.10025)"/><path style="display:inline;fill:none;fill-opacity:1;stroke:#fff;stroke-width:2.77692;stroke-miterlimit:4;stroke-dasharray:none;stroke-opacity:1;stop-color:#000" d="M-130.24713 448.2864a22.072017 13.147164 0 0 1-22.0719 13.14707 22.072017 13.147164 0 0 1-22.0719-13.14707 22.072017 13.147164 0 0 1 22.0719-13.14704 22.072017 13.147164 0 0 1 22.0719 13.14704z" transform="matrix(1.04777 0 0 1.04838 361.26237 -386.10025)"/><path style="display:inline;fill:none;fill-opacity:1;stroke:#fff;stroke-width:3.2818;stroke-miterlimit:4;stroke-dasharray:none;stroke-opacity:1;stop-color:#000" d="M-127.49585 448.28639a37.060391 22.626378 0 0 1-37.0602 22.62622 37.060391 22.626378 0 0 1-37.0601-22.62622 37.060391 22.626378 0 0 1 37.0601-22.62616 37.060391 22.626378 0 0 1 37.0602 22.62616z" transform="matrix(1.04777 0 0 1.04838 361.26237 -386.10025)"/><path style="display:inline;fill:none;fill-opacity:1;stroke:#fff;stroke-width:3.78671;stroke-miterlimit:4;stroke-dasharray:none;stroke-opacity:1;stop-color:#000" d="M-124.06333 448.28638a61.7609 38.415188 0 0 1-61.7606 38.41491 61.7609 38.415188 0 0 1-61.7605-38.41491 61.7609 38.415188 0 0 1 61.7605-38.41483 61.7609 38.415188 0 0 1 61.7606 38.41483z" transform="matrix(1.04777 0 0 1.04838 361.26237 -386.10025)"/><path style="display:inline;fill:none;fill-opacity:1;stroke:#fff;stroke-width:4.2916;stroke-miterlimit:4;stroke-dasharray:none;stroke-opacity:1;stop-color:#000" d="M-120.1248 448.28634A102.17561 64.412905 0 0 1-222.3 512.69879a102.17561 64.412905 0 0 1-102.1749-64.41245A102.17561 64.412905 0 0 1-222.3 383.87404a102.17561 64.412905 0 0 1 102.1752 64.4123z" transform="matrix(1.04777 0 0 1.04838 361.26237 -386.10025)"/></g><g aria-label="Jürgen Ehret" style="font-size:22.7542px;line-height:1.25;font-family:'PT Sans';-inkscape-font-specification:'PT Sans';text-align:center;letter-spacing:8.33437px;text-anchor:middle;display:inline;stroke-width:.264583"><path d="M-148.25427 383.85209h3.11733v11.65015q0 .91017-.20479 1.72932-.20479.81915-.68262 1.45627-.45509.61436-1.18322 1.00118-.72814.36407-1.77483.36407-.65987 0-1.43351-.13653-.77365-.13652-1.3425-.38682l.68262-2.54847q.59161.29581 1.3425.29581.95568 0 1.20597-.70538.27305-.70538.27305-1.86585zM-131.15988 388.40293v6.46219q0 1.38801.31855 2.00237.34132.61437 1.29699.61437.84191 0 1.38801-.5006.56886-.50059.84191-1.22872v-7.34961h2.95804v7.91846q0 .93292.091 1.84309.091.88741.27305 1.61555h-2.22991l-.52335-1.68381h-.091q-.52334.86466-1.45627 1.43351-.93292.56886-2.20715.56886-.86466 0-1.54729-.22754-.68262-.22755-1.13771-.75089-.45508-.52335-.70538-1.41076-.22754-.88742-.22754-2.22991v-7.07656zm-2.1389-3.43588q0-.72814.43233-1.16047.45508-.43233 1.18322-.43233.72813 0 1.13771.43233.43233.43233.43233 1.16047 0 .68262-.43233 1.11495-.40958.43233-1.13771.43233-.72814 0-1.18322-.43233-.43233-.43233-.43233-1.11495zm4.98317 0q0-.72814.40958-1.16047.43233-.43233 1.16046-.43233t1.16046.43233q.45509.43233.45509 1.16047 0 .68262-.45509 1.11495-.43233.43233-1.16046.43233t-1.16046-.43233q-.40958-.43233-.40958-1.11495zM-107.16814 391.17894q-.70538-.25029-1.27423-.25029-.7964 0-1.3425.43233-.52335.40957-.70538 1.06944v7.34961h-2.95805v-11.3771h2.29818l.34131 1.50178h.091q.38682-.84191 1.04669-1.29699.65987-.45509 1.54729-.45509.59161 0 1.34249.2503zM-87.489377 399.78003q0 2.48021-1.342497 3.64067-1.342498 1.18322-3.754443 1.18322-1.638303 0-2.593979-.22754-.932922-.22754-1.410761-.47784l.614364-2.34368q.523346.20478 1.205972.40957.705381.20479 1.72932.20479 1.547285 0 2.093386-.68263.568855-.65987.568855-1.86584v-.72813h-.09102q-.796397 1.06944-2.821521 1.06944-2.207157 0-3.299359-1.36525-1.069447-1.36525-1.069447-4.27779 0-3.04906 1.456269-4.6191 1.456269-1.57004 4.232281-1.57004 1.456269 0 2.593979.20479 1.160464.20478 1.888598.47783zm-5.005924-2.1844q.86466 0 1.319744-.38683.477838-.38682.728134-1.16046v-5.11969q-.70538-.29581-1.752073-.29581-1.13771 0-1.774828.86466-.637117.84191-.637117 2.70775 0 1.66106.546101 2.52572.5461.86466 1.570039.86466zM-67.501298 398.8016q-.682626.5461-1.865845.93292-1.160464.36407-2.480207.36407-2.753259 0-4.027494-1.5928-1.274235-1.61554-1.274235-4.41431 0-3.00356 1.433515-4.50533 1.433514-1.50178 4.027493-1.50178.86466 0 1.683811.22754t1.456269.75089q.637117.52335 1.023939 1.41076.386821.88742.386821 2.20716 0 .47784-.06826 1.02394-.04551.5461-.159279 1.13771h-6.82626q.06826 1.43351.728134 2.16165.682626.72813 2.184404.72813.932922 0 1.661056-.27305.750889-.2958 1.13771-.59161zm-4.232281-8.35079q-1.160465 0-1.72932.70538-.5461.68262-.659871 1.84309h4.232281q.09102-1.22873-.386822-1.8886-.455084-.65987-1.456268-.65987zM-49.750956 399.78003v-6.46219q0-1.38801-.409576-2.00237-.386821-.61437-1.342498-.61437-.841905 0-1.433514.5006-.568855.47783-.819152 1.20597v7.37236h-2.958046v-11.3771h2.343683l.341313 1.50178h.09102q.523346-.72814 1.388006-1.27424.86466-.5461 2.229912-.5461.841905 0 1.501777.22754.659872.22754 1.114956.75089.455084.52335.682626 1.43352.227542.88741.227542 2.20715v7.07656zM-21.800051 383.85209h9.442993v2.77601h-6.325667v3.70894h5.756812v2.77601h-5.756812v3.89097h6.439438v2.77601h-9.556764zM5.2948046 399.78003v-6.46219q0-1.38801-.3868214-2.00237-.3868214-.61437-1.4107604-.61437-.7508886 0-1.3880062.52335-.6143634.50059-.8191512 1.29699v7.25859h-2.958046v-15.92794h2.958046v5.82507h.091017q.5461008-.72813 1.3424978-1.16046t2.0251238-.43233q.8646596 0 1.5245314.22754.6598718.22754 1.0922016.75089.455084.52335.6598718 1.43352.227542.88741.227542 2.20715v7.07656zM25.345806 391.17894q-.70538-.25029-1.274235-.25029-.796397 0-1.342498.43233-.523347.40957-.70538 1.06944v7.34961h-2.958046v-11.3771h2.298174l.341313 1.50178h.09102q.386821-.84191 1.046693-1.29699.659872-.45509 1.547286-.45509.591609 0 1.342497.2503zM44.50122 398.8016q-.682626.5461-1.865845.93292-1.160464.36407-2.480208.36407-2.753258 0-4.027493-1.5928-1.274235-1.61554-1.274235-4.41431 0-3.00356 1.433514-4.50533 1.433515-1.50178 4.027494-1.50178.864659 0 1.683811.22754.819151.22754 1.456268.75089.637118.52335 1.023939 1.41076.386822.88742.386822 2.20716 0 .47784-.06826 1.02394-.04551.5461-.159279 1.13771h-6.82626q.06826 1.43351.728134 2.16165.682626.72813 2.184403.72813.932923 0 1.661057-.27305.750889-.2958 1.13771-.59161zm-4.232282-8.35079q-1.160464 0-1.729319.70538-.546101.68262-.659872 1.84309h4.232282q.09102-1.22873-.386822-1.8886-.455084-.65987-1.456269-.65987zM54.105558 388.40293h1.570039v-2.1389l2.958046-.8419v2.9808h2.776013v2.50296h-2.776013v4.36881q0 1.18322.227542 1.70656.250297.5006.910168.5006.455084 0 .773643-.091.341313-.091.750889-.27305l.523346 2.27542q-.614363.2958-1.433514.50059-.819151.20479-1.661057.20479-1.57004 0-2.320928-.7964-.728135-.81915-.728135-2.66224v-5.73406h-1.570039z" style="font-weight:700;-inkscape-font-specification:'PT Sans Bold';fill:#fff" transform="translate(173.31205 -147.08609)"/></g><g aria-label="Engineering of" style="font-weight:700;font-size:22.4896px;line-height:1.25;font-family:'PT Sans';-inkscape-font-specification:'PT Sans Bold';text-align:center;letter-spacing:5.68854px;text-anchor:middle;display:inline;stroke-width:.264583"><path d="M-151.83434 319.72362h9.33318v2.74373h-6.2521v3.66581h5.68986v2.74373h-5.68986v3.84572h6.36455v2.74373h-9.44563zM-127.60347 335.46634v-6.38705q0-1.37186-.40482-1.97908-.38232-.60722-1.32688-.60722-.83212 0-1.41685.49477-.56224.47228-.80962 1.19195v7.28663h-2.92365v-11.2448h2.31643l.33734 1.48431h.09q.51726-.71966 1.37186-1.25941.85461-.53975 2.20399-.53975.83211 0 1.48431.22489.6522.2249 1.10199.74216t.67469 1.41684q.22489.8771.22489 2.18149v6.99427zM-107.02858 335.46634q0 2.45137-1.32688 3.59833-1.32689 1.16946-3.71079 1.16946-1.61925 0-2.56381-.22489-.92207-.2249-1.39436-.47228l.60722-2.31643q.51726.2024 1.19195.40481.69718.20241 1.70921.20241 1.52929 0 2.06904-.67469.56224-.6522.56224-1.84415v-.71967h-.09q-.78714 1.05702-2.78871 1.05702-2.1815 0-3.261-1.34938-1.05701-1.34938-1.05701-4.22804 0-3.01361 1.43934-4.56539 1.43933-1.55179 4.18306-1.55179 1.43934 0 2.56382.20241 1.14697.20241 1.86663.47228zm-4.94771-2.159q.85461 0 1.3044-.38233.47228-.38232.71967-1.14697v-5.06015q-.69718-.29237-1.7317-.29237-1.12448 0-1.75419.8546-.62971.83212-.62971 2.67627 0 1.64174.53975 2.49634.53975.85461 1.55178.85461zM-98.547814 324.22154h2.923647v11.2448h-2.923647zm-.427303-3.17103q0-.6522.472282-1.10199.494771-.47229 1.349376-.47229.854604 0 1.371865.47229.539751.44979.539751 1.10199 0 .65219-.539751 1.10199-.517261.4273-1.371865.4273-.854605 0-1.349376-.4273-.472282-.4498-.472282-1.10199zM-80.185678 335.46634v-6.38705q0-1.37186-.404813-1.97908-.382323-.60722-1.326886-.60722-.832115 0-1.416845.49477-.56224.47228-.809625 1.19195v7.28663h-2.923648v-11.2448h2.316429l.337344 1.48431h.08996q.517261-.71966 1.371866-1.25941.854604-.53975 2.20398-.53975.832115 0 1.484314.22489.652198.2249 1.10199.74216.449792.51726.674688 1.41684.224896.8771.224896 2.18149v6.99427zM-60.128044 334.49929q-.674688.53975-1.844147.92207-1.14697.35983-2.451367.35983-2.721241 0-3.980659-1.57427-1.259417-1.59676-1.259417-4.36298 0-2.96863 1.416844-4.45294 1.416845-1.48431 3.980659-1.48431.854605 0 1.664231.22489.809625.2249 1.439334.74216.629709.51726 1.012032 1.39435.382323.8771.382323 2.18149 0 .47229-.06747 1.01204-.04498.53975-.157428 1.12448h-6.746879q.06747 1.41684.719667 2.13651.674688.71967 2.159001.71967.922074 0 1.641741-.26988.742157-.29236 1.12448-.58473zm-4.183066-8.25369q-1.146969 0-1.709209.69718-.539751.67469-.652199 1.82166h4.183066q.08996-1.21444-.382323-1.86664-.449792-.6522-1.439335-.6522zM-43.15078 334.49929q-.674688.53975-1.844147.92207-1.14697.35983-2.451366.35983-2.721242 0-3.980659-1.57427-1.259418-1.59676-1.259418-4.36298 0-2.96863 1.416845-4.45294 1.416845-1.48431 3.980659-1.48431.854605 0 1.66423.22489.809626.2249 1.439335.74216.629708.51726 1.012032 1.39435.382323.8771.382323 2.18149 0 .47229-.06747 1.01204-.04498.53975-.157427 1.12448h-6.74688q.06747 1.41684.719667 2.13651.674688.71967 2.159002.71967.922073 0 1.64174-.26988.742157-.29236 1.12448-.58473zm-4.183065-8.25369q-1.14697 0-1.70921.69718-.53975.67469-.652198 1.82166h4.183065q.08996-1.21444-.382323-1.86664-.449792-.6522-1.439334-.6522zM-28.830451 326.96527q-.697177-.24738-1.259417-.24738-.787136 0-1.326887.4273-.517261.40481-.697177 1.05701v7.26414h-2.923648v-11.2448h2.271449l.337344 1.48431h.08996q.382323-.83211 1.034521-1.2819.652199-.4498 1.529293-.4498.58473 0 1.326886.24739zM-21.172658 324.22154h2.923648v11.2448h-2.923648zm-.427302-3.17103q0-.6522.472281-1.10199.494771-.47229 1.349376-.47229.854605 0 1.371866.47229.53975.44979.53975 1.10199 0 .65219-.53975 1.10199-.517261.4273-1.371866.4273-.854605 0-1.349376-.4273-.472281-.4498-.472281-1.10199zM-2.8105328 335.46634v-6.38705q0-1.37186-.4048127-1.97908-.3823232-.60722-1.3268864-.60722-.8321152 0-1.4168448.49477-.5622399.47228-.8096255 1.19195v7.28663h-2.9236479v-11.2448h2.3164287l.337344 1.48431h.089958q.5172608-.71966 1.3718655-1.25941.8546048-.53975 2.2039808-.53975.8321151 0 1.4843135.22489.6521984.2249 1.10199037.74216.44979198.51726.67468797 1.41684.224896.8771.224896 2.18149v6.99427zM17.764369 335.46634q0 2.45137-1.326886 3.59833-1.326887 1.16946-3.710784 1.16946-1.619251 0-2.563814-.22489-.922074-.2249-1.3943556-.47228l.6072192-2.31643q.5172608.2024 1.1919484.40481.697178.20241 1.70921.20241 1.529293 0 2.069043-.67469.56224-.6522.56224-1.84415v-.71967h-.08996q-.787136 1.05702-2.788711 1.05702-2.1814908 0-3.2609916-1.34938-1.0570111-1.34938-1.0570111-4.22804 0-3.01361 1.4393343-4.56539 1.4393344-1.55179 4.1830654-1.55179 1.439334 0 2.563814.20241 1.14697.20241 1.866637.47228zm-4.947712-2.159q.854605 0 1.304397-.38233.472282-.38232.719667-1.14697v-5.06015q-.697177-.29237-1.731699-.29237-1.12448 0-1.754189.8546-.629708.83212-.629708 2.67627 0 1.64174.53975 2.49634.53975.85461 1.551782.85461zM36.83429 329.84394q0-2.85618 1.394356-4.38547 1.394355-1.55178 3.91319-1.55178 1.349376 0 2.338918.4273.989543.4273 1.641741 1.21444.652198.76464.967053 1.86663.337344 1.10199.337344 2.42888 0 2.85618-1.394355 4.40796-1.371866 1.52929-3.890701 1.52929-1.349376 0-2.338918-.4273-.989543-.4273-1.664231-1.19195-.652198-.78713-.989542-1.88912-.314855-1.10199-.314855-2.42888zm3.013607 0q0 .74216.134937 1.37186.134938.62971.404813 1.102.269875.47228.697178.74215.449792.24739 1.057011.24739 1.146969 0 1.709209-.83212.56224-.83211.56224-2.63128 0-1.55178-.51726-2.49635-.517261-.96705-1.754189-.96705-1.079501 0-1.68672.80963-.607219.80962-.607219 2.65377zM53.843883 324.22154h1.551783v-.62971q0-2.13651.899584-3.08107.899584-.96706 2.608793-.96706 1.799168 0 2.991117.42731l-.56224 2.33891q-.517261-.17991-.922074-.22489-.382323-.0675-.809625-.0675-.449792 0-.719667.13494-.247386.13493-.382324.4273-.112448.26987-.157427.69718-.02249.40481-.02249.94456h2.473855v2.47386h-2.473855v8.77094h-2.923648v-8.77094h-1.551783z" style="fill:#fff" transform="translate(173.31205 -147.08609)"/></g><g aria-label="Software Systems" style="font-size:26.4583px;line-height:1.25;font-family:'PT Sans';-inkscape-font-specification:'PT Sans';text-align:center;letter-spacing:1.05833px;text-anchor:middle;display:inline;stroke-width:.264583"><path d="M-143.02714 363.56368q0-.84666-.63499-1.37583-.60855-.52917-1.56104-.9525-.92604-.44979-2.03729-.89958-1.08479-.47625-2.03729-1.13771-.92604-.68791-1.56104-1.69333-.60854-1.00541-.60854-2.56645 0-1.34938.44979-2.32833.44979-1.00542 1.27-1.66688.84666-.66145 1.98437-.97895t2.54-.3175q1.61395 0 3.0427.29104 1.42875.26458 2.35479.79375l-1.13771 3.0427q-.58208-.37042-1.74625-.66146-1.16416-.3175-2.51353-.3175-1.27 0-1.95792.50271-.66146.50271-.66146 1.34937 0 .79375.60854 1.32292.635.52917 1.56104.97896.9525.44979 2.03729.92604 1.11125.47625 2.03729 1.16416.9525.66146 1.56104 1.66688.635.97895.635 2.46062 0 1.48166-.50271 2.56645-.47625 1.05833-1.37583 1.77271-.87312.71437-2.14312 1.05833-1.24354.34396-2.75166.34396-1.98438 0-3.4925-.37042-1.50812-.37041-2.2225-.74083l1.16417-3.09562q.29104.15875.74083.34396.47625.1852 1.05833.34395.58209.15875 1.21709.26459.66145.10583 1.34937.10583 1.61395 0 2.46062-.52917.87312-.55562.87312-1.66687zM-136.66929 361.92327q0-3.36021 1.64041-5.15937 1.64042-1.82562 4.60375-1.82562 1.5875 0 2.75166.5027 1.16417.50271 1.93146 1.42875.76729.89958 1.1377 2.19604.39688 1.29646.39688 2.8575 0 3.3602-1.64042 5.18582-1.61395 1.79917-4.57728 1.79917-1.5875 0-2.75166-.50271-1.16417-.50271-1.95792-1.40229-.76729-.92604-1.16416-2.2225-.37042-1.29645-.37042-2.85749zm3.54541 0q0 .87312.15875 1.61395.15875.74084.47625 1.29646.3175.55562.82021.87312.52916.29105 1.24354.29105 1.34937 0 2.01083-.97896.66146-.97896.66146-3.09562 0-1.82563-.60854-2.93687-.60855-1.13771-2.06375-1.13771-1.27 0-1.98437.9525-.71438.9525-.71438 3.12208zM-122.2921 355.30869h1.82562v-.74083q0-2.51354 1.05833-3.62479 1.05834-1.1377 3.06917-1.1377 2.11666 0 3.51895.5027l-.66146 2.75167q-.60854-.21167-1.08479-.26459-.44979-.0794-.9525-.0794-.52916 0-.84666.15875-.29104.15875-.44979.50271-.13229.3175-.18521.8202-.0265.47625-.0265 1.11125h2.91041v2.91041h-2.91041v10.31874h-3.43958V358.2191h-1.82562zM-113.1243 355.30869h1.82562v-2.48708l3.43958-.97896v3.46604h3.22791v2.91041h-3.22791v5.08q0 1.37583.26458 1.98437.29104.58208 1.05833.58208.52917 0 .89959-.10583.39687-.10583.87312-.3175l.60854 2.64583q-.71437.34396-1.66687.58208-.9525.23813-1.93146.23813-1.82562 0-2.69874-.92604-.84667-.9525-.84667-3.09562v-6.6675h-1.82562zM-92.327251 355.30869l2.407705 6.77333.476249 2.19604h.105833l.370417-2.2225 1.693331-6.74687h3.148537l-4.074578 13.36144h-2.539996l-2.672289-7.40832-.343958-1.66687h-.132291l-.3175 1.69333-2.539996 7.38186h-2.619372l-4.259791-13.36144h3.730625l1.931456 6.64104.317499 2.35478h.132292l.449791-2.38124 2.196039-6.61458zM-81.85762 356.07598q1.058332-.47625 2.513539-.74083 1.455206-.29104 3.042704-.29104 1.375832 0 2.301872.34396.926041.3175 1.455207.92604.555624.60854.767291 1.4552.238124.84667.238124 1.905 0 1.16417-.07937 2.35479-.07937 1.16417-.105833 2.30187 0 1.13771.07937 2.2225.07937 1.05833.396875 2.01083h-2.80458l-.555625-1.82562h-.132291q-.529166.8202-1.481665 1.42875-.92604.58208-2.407705.58208-.926041 0-1.666873-.26458-.740832-.29105-1.269998-.79375-.529166-.52917-.820208-1.21709-.291041-.71437-.291041-1.58749 0-1.21709.529166-2.03729.555624-.84667 1.56104-1.34938 1.031873-.52916 2.434163-.71437 1.428748-.21167 3.174996-.13229.185208-1.48167-.211666-2.11667-.396875-.66145-1.772706-.66145-1.031874 0-2.196039.21166-1.137707.21167-1.878539.55563zm4.36562 9.84249q1.031873 0 1.640414-.44979.608541-.47625.899583-1.00542v-1.71979q-.820208-.0794-1.587498-.0265-.740833.0529-1.322915.23812-.582083.18521-.926041.52917-.343958.34395-.343958.87312 0 .74083.423333 1.16417.449791.39687 1.217082.39687zM-60.291634 358.5366q-.820207-.29104-1.481665-.29104-.92604 0-1.561039.50271-.608541.47625-.820208 1.24354v8.54603h-3.439579v-13.22915h2.672289l.396874 1.74625h.105833q.449791-.97896 1.217082-1.50812.767291-.52917 1.799165-.52917.687915 0 1.561039.29104zM-46.650728 367.40013q-.793749.635-2.16958 1.0848-1.349374.42333-2.883955.42333-3.201454 0-4.683119-1.85208-1.481665-1.87854-1.481665-5.13291 0-3.4925 1.666873-5.23875 1.666873-1.74624 4.683119-1.74624 1.005415 0 1.957914.26458t1.693331.87312q.740833.60854 1.190624 1.64042.449791 1.03187.449791 2.56645 0 .55563-.07937 1.19063-.05292.63499-.185208 1.32291h-7.93749q.07937 1.66687.846666 2.51354.793749.84666 2.539996.84666 1.084791 0 1.931456-.31749.873124-.34396 1.322915-.68792zm-4.921244-9.71019q-1.349373 0-2.01083.82021-.635.79375-.767291 2.14312h4.921244q.105833-1.42875-.449791-2.19604-.529166-.76729-1.693332-.76729zM-26.893819 363.56368q0-.84666-.635-1.37583-.608541-.52917-1.561039-.9525-.926041-.44979-2.037289-.89958-1.084791-.47625-2.03729-1.13771-.92604-.68791-1.561039-1.69333-.608541-1.00541-.608541-2.56645 0-1.34938.449791-2.32833.449791-1.00542 1.269998-1.66688.846666-.66145 1.984373-.97895 1.137707-.3175 2.539997-.3175 1.613956 0 3.042704.29104 1.428748.26458 2.354789.79375l-1.137707 3.0427q-.582083-.37042-1.746248-.66146-1.164165-.3175-2.513538-.3175-1.269999 0-1.957915.50271-.661457.50271-.661457 1.34937 0 .79375.608541 1.32292.634999.52917 1.56104.97896.952498.44979 2.037289.92604 1.111248.47625 2.037289 1.16416.952498.66146 1.561039 1.66688.635.97895.635 2.46062 0 1.48166-.502708 2.56645-.47625 1.05833-1.375832 1.77271-.873124.71437-2.143122 1.05833-1.24354.34396-2.751663.34396-1.984373 0-3.492496-.37042-1.508123-.37041-2.222497-.74083l1.164165-3.09562q.291042.15875.740833.34396.476249.1852 1.058332.34395.582082.15875 1.217081.26459.661458.10583 1.349374.10583 1.613956 0 2.460622-.52917.873124-.55562.873124-1.66687zM-15.085568 362.74347l.476249 2.06375h.15875l.343958-2.0902 2.010831-7.40833h3.5454117l-4.0216617 11.9327q-.502708 1.48166-.978957 2.69874-.449791 1.24354-1.005415 2.14312-.555625.89959-1.24354 1.37584-.661458.5027-1.587498.5027-1.375832 0-2.196039-.44979l.634999-2.75166q.396874.15875.793749.15875.608541 0 1.164165-.52917.582083-.5027.873124-1.85208l-5.529785-13.22915h4.127495zM-.70507087 364.8866q0-.52917-.44979113-.84667-.4497911-.3175-1.1112486-.58208-.6614574-.26458-1.4552064-.52917-.793749-.29104-1.4552065-.76729-.6614575-.50271-1.1112486-1.24354-.4497911-.76729-.4497911-1.95791 0-1.95792 1.1641652-2.98979t3.360204-1.03187q1.50812313 0 2.72520491.3175 1.21708179.31749 1.90499759.71437l-.7672907 2.48708q-.6085409-.23813-1.53458138-.50271-.92604049-.26458-1.87853932-.26458-1.5345813 0-1.5345813 1.19062 0 .47625.4497911.76729t1.1112485.55563q.6614575.23812 1.45520652.52916.79374899.29104 1.45520648.76729.6614575.4498 1.1112486 1.19063.4497911.74083.4497911 1.905 0 2.01083-1.2964567 3.17499-1.26999838 1.13771-3.8364534 1.13771-1.4022899 0-2.64583-.37042-1.2170818-.34396-1.9843725-.82021l.9524988-2.56645q.6085409.34396 1.6139563.68792 1.0054154.31749 2.0637474.31749.7672906 0 1.2170817-.29104.47624943-.29104.47624943-.97895zM4.662658 355.30869h1.8256227v-2.48708l3.4395789-.97896v3.46604h3.2279124v2.91041H9.9278596v5.08q0 1.37583.2645834 1.98437.291041.58208 1.058332.58208.529166 0 .899582-.10583.396874-.10583.873124-.3175l.608541 2.64583q-.714375.34396-1.666873.58208-.952499.23813-1.931456.23813-1.8256229 0-2.6987467-.92604-.8466656-.9525-.8466656-3.09562v-6.6675H4.662658ZM26.775176 367.40013q-.793749.635-2.169581 1.0848-1.349373.42333-2.883955.42333-3.201454 0-4.683119-1.85208-1.481665-1.87854-1.481665-5.13291 0-3.4925 1.666873-5.23875 1.666873-1.74624 4.683119-1.74624 1.005416 0 1.957915.26458.952498.26458 1.693331.87312.740832.60854 1.190623 1.64042.449791 1.03187.449791 2.56645 0 .55563-.07937 1.19063-.05292.63499-.185208 1.32291h-7.93749q.07937 1.66687.846666 2.51354.793749.84666 2.539997.84666 1.08479 0 1.931456-.31749.873124-.34396 1.322915-.68792zm-4.921244-9.71019q-1.349374 0-2.010831.82021-.634999.79375-.767291 2.14312h4.921244q.105833-1.42875-.449791-2.19604-.529166-.76729-1.693331-.76729zM38.200199 368.53784v-7.19666q0-1.82562-.343958-2.59291-.343958-.76729-1.428748-.76729-.899582 0-1.455206.50271-.555625.47625-.846666 1.24354v8.81061h-3.439579v-13.22915h2.672288l.396875 1.74625h.105833q.608541-.84667 1.534581-1.48167.952499-.63499 2.434164-.63499 1.269998 0 2.063747.52916.820208.50271 1.269999 1.71979.608541-1.03187 1.561039-1.64041.952499-.60854 2.301872-.60854 1.111249 0 1.87854.26458.793749.26458 1.269998.92604.502708.635.740833 1.71979.238124 1.08479.238124 2.75166v7.93749h-3.439579v-7.43478q0-1.56104-.343958-2.32833-.317499-.79375-1.455206-.79375-.926041 0-1.481665.50271-.529166.50271-.793749 1.37583v8.67832zM58.511909 364.8866q0-.52917-.449791-.84667t-1.111249-.58208q-.661457-.26458-1.455206-.52917-.793749-.29104-1.455207-.76729-.661457-.50271-1.111248-1.24354-.449791-.76729-.449791-1.95791 0-1.95792 1.164165-2.98979t3.360204-1.03187q1.508123 0 2.725205.3175 1.217082.31749 1.904997.71437l-.76729 2.48708q-.608541-.23813-1.534582-.50271-.92604-.26458-1.878539-.26458-1.534581 0-1.534581 1.19062 0 .47625.449791.76729t1.111248.55563q.661458.23812 1.455207.52916.793749.29104 1.455206.76729.661458.4498 1.111249 1.19063.449791.74083.449791 1.905 0 2.01083-1.296457 3.17499-1.269998 1.13771-3.836453 1.13771-1.40229 0-2.64583-.37042-1.217082-.34396-1.984373-.82021l.952499-2.56645q.608541.34396 1.613957.68792 1.005415.31749 2.063747.31749.767291 0 1.217082-.29104.476249-.29104.476249-.97895z" style="font-weight:700;-inkscape-font-specification:'PT Sans Bold';fill:#fff" transform="translate(173.31205 -150.2610891)"/></g></g></svg>