<svg width="1571.1824" height="432.32971" viewBox="0 0 415.70853 114.38721" xmlns="http://www.w3.org/2000/svg"><defs><path id="d" d="M83.976158 1224.1858h406.81784v278.05438H83.976158z"/><path id="c" d="M1600.6648 5530.2114h158.57976v94.550331H1600.6648z"/><path id="b" d="M157-13h55v40h-55z"/><filter style="color-interpolation-filters:sRGB" id="a" x="-.05642297" y="-.03515585" width="1.1128459" height="1.0703117"><feGaussianBlur stdDeviation="1.1384116"/></filter></defs><text xml:space="preserve" transform="matrix(.26458 0 0 .26458 78.583649 -2150.443)" style="font-size:36px;line-height:1.25;font-family:Lato;-inkscape-font-specification:Lato;text-align:center;letter-spacing:0;white-space:pre;shape-inside:url(#b)"><tspan x="157" y="60.48"><tspan dx="0 20.882812 20.039062 14.484375 18.84375">Ehret</tspan></tspan></text><g style="display:inline"><path style="display:inline;vector-effect:none;fill:#000;fill-opacity:.35;stroke-width:.828176;stroke-opacity:.968165;stop-color:#000" d="M0 0h415.70866v114.38724H0Z"/></g><g style="display:inline"><g aria-label="Softwaresysteme" style="font-size:25.1354px;line-height:1.25;font-family:'PT Sans';-inkscape-font-specification:'PT Sans';text-align:center;letter-spacing:.529167px;text-anchor:middle;display:inline;stroke-width:.264583"><path d="M85.109249 93.852946h-3.820581q-.02514 1.658936.603249 2.865435.628385 1.2065 1.684072 1.985697 1.080822.779197 2.463269 1.131093 1.407583.377029 2.890572.377029 1.834884 0 3.217331-.4273 1.407582-.427302 2.337592-1.181364.955145-.779197 1.432718-1.834884.477573-1.055687.477573-2.287321 0-1.508124-.653521-2.46327-.628385-.98028-1.508124-1.558394-.879739-.578115-1.784613-.829469-.879739-.276489-1.382447-.377031-1.684072-.427301-2.739759-.703791-1.030552-.276489-1.633801-.552979-.578114-.276489-.779198-.603249-.201083-.32676-.201083-.854604 0-.578114.251354-.955145t.628385-.628385q.402167-.251354.879739-.351896.477573-.100541.955146-.100541.728926 0 1.332176.125677.628385.125677 1.105957.427301.477573.301625.754062.829469.301625.527843.351896 1.332176h3.820581q0-1.558395-.60325-2.639217-.578114-1.105958-1.58353-1.809749t-2.312457-1.005416q-1.281905-.32676-2.689488-.32676-1.206499 0-2.412998.32676t-2.161645 1.005416q-.955145.678656-1.558394 1.709207-.578115 1.005416-.578115 2.387863 0 1.231635.452438 2.111374.477572.854604 1.231634 1.432718.754062.578114 1.709207.955145.955146.351896 1.960562.60325.98028.276489 1.935426.502708.955145.226218 1.709207.527843.754062.301625 1.206499.754062.477573.452437.477573 1.181364 0 .678656-.351896 1.131093-.351896.427302-.879739.678656-.527843.251354-1.131093.351895-.60325.07541-1.131093.07541-.779197 0-1.508124-.175948-.728927-.201083-1.281906-.578114-.527843-.402167-.854603-1.030552-.32676-.628385-.32676-1.533259zM102.03769 93.325102q0-.779197.15082-1.533259.15081-.754062.5027-1.332176.37704-.578115.98029-.93001.60324-.377031 1.50812-.377031.90487 0 1.50812.377031.62839.351895.98028.93001.37703.578114.52785 1.332176.15081.754062.15081 1.533259 0 .779198-.15081 1.53326-.15082.728926-.52785 1.332176-.35189.578114-.98028.93001-.60325.351895-1.50812.351895-.90488 0-1.50812-.351895-.60325-.351896-.98029-.93001-.35189-.60325-.5027-1.332176-.15082-.754062-.15082-1.53326zm-3.569223 0q0 1.558395.477573 2.815165.477572 1.25677 1.35731 2.161645.87974.879739 2.11137 1.357311 1.23164.477577 2.7649.477577 1.53326 0 2.76489-.477577 1.25677-.477572 2.13651-1.357311.87974-.904875 1.35731-2.161645.47758-1.25677.47758-2.815165t-.47758-2.815165q-.47757-1.281905-1.35731-2.161644-.87974-.904874-2.13651-1.382447-1.23163-.502708-2.76489-.502708-1.53326 0-2.7649.502708-1.23163.477573-2.11137 1.382447-.879738.879739-1.35731 2.161644-.477573 1.25677-.477573 2.815165zM115.54498 89.202897v10.607139h3.56922V89.202897h2.46327v-2.387863h-2.46327v-.779198q0-.804333.30163-1.131093.32676-.351896 1.05568-.351896.67866 0 1.30705.07541v-2.664353q-.45244-.02514-.93001-.05027-.47758-.05027-.95515-.05027-2.18678 0-3.2676 1.105957-1.08082 1.105958-1.08082 2.8403v1.005417h-2.13651v2.387863zM128.21415 86.815034v-3.895988h-3.56923v3.895988h-2.16164v2.387863h2.16164v7.666297q0 .98028.32676 1.58353.32676.60325.87974.93001.57811.32676 1.30704.427302.75406.125677 1.58353.125677.52784 0 1.08082-.02514.55298-.02514 1.00542-.100541v-2.764894q-.25136.05027-.52784.07541-.27649.02514-.57812.02514-.90487 0-1.2065-.301625-.30162-.301624-.30162-1.206499v-6.434662h2.61408v-2.387863zM147.91063 99.810036l4.09707-12.995002h-3.66977l-2.38786 8.79739h-.0503l-2.21192-8.79739h-3.46868l-2.16165 8.822525h-.0503l-2.38786-8.822525h-3.77031l4.1222 12.995002h3.69491l2.21191-8.721984h.0503l2.31246 8.721984zM153.90557 90.811562q.0754-1.25677.62838-2.086238.55298-.829468 1.40758-1.332176.85461-.502708 1.91029-.703791 1.08083-.226219 2.16165-.226219.98028 0 1.9857.150812 1.00541.125677 1.83488.527844.82947.402166 1.35731 1.131093.52784.703791.52784 1.885155v6.761423q0 .879739.10055 1.684071.10054.804333.35189 1.2065h-3.6195q-.10054-.301625-.17594-.60325-.0503-.32676-.0754-.65352-.8546.879739-2.01083 1.231634-1.15623.3519-2.36273.3519-.93001 0-1.73434-.226223-.80434-.226218-1.40758-.703791-.60325-.477573-.95515-1.206499-.32676-.728927-.32676-1.734343 0-1.105957.37703-1.809749.40217-.728926 1.00542-1.156228.62838-.427302 1.40758-.628385.80433-.226219 1.60867-.351896.80433-.125677 1.58353-.201083.77919-.07541 1.38244-.226219.60325-.150812.95515-.427301.35189-.301625.32676-.854604 0-.578114-.20109-.904874-.17594-.351896-.5027-.527844-.30163-.201083-.72893-.251354-.40217-.07541-.87974-.07541-1.05569 0-1.65894.452437-.60325.452437-.70379 1.508124zm8.24441 2.639217q-.22622.201084-.57812.326761-.32676.100541-.72892.175947-.37703.07541-.80434.125677-.4273.05027-.8546.125677-.40217.07541-.80433.201084-.37703.125677-.67866.351895-.27649.201083-.45244.527844-.17594.32676-.17594.829468 0 .477572.17594.804333.17595.32676.47758.527843.30162.175948.70379.251354.40216.07541.82947.07541 1.05568 0 1.6338-.351895.57811-.351896.8546-.829469.27649-.502708.32676-1.005416.0754-.502708.0754-.804332zM169.01877 86.815034v12.995002h3.56922v-5.856549q0-.879739.17595-1.633801t.57811-1.307041q.42731-.578114 1.10596-.904874.67866-.32676 1.65894-.32676.32676 0 .67865.05027.3519.02513.60325.07541v-3.317873q-.4273-.125677-.77919-.125677-.67866 0-1.30704.201083-.62839.201083-1.18137.578114-.55298.351896-.98028.879739-.4273.502708-.67865 1.105958h-.0503v-2.412998zM187.59277 91.91752h-5.80627q.0251-.377031.15081-.854604.15081-.477572.47757-.904874.3519-.427302.90488-.703791.57811-.301625 1.43271-.301625 1.30704 0 1.93543.703791.65352.703791.90487 2.061103zm-5.80627 2.262186h9.3755q.10054-1.508124-.25135-2.890571-.3519-1.382447-1.15623-2.463269-.7792-1.080823-2.01083-1.709208-1.23164-.65352-2.89057-.65352-1.48299 0-2.71463.527843-1.2065.527844-2.08624 1.457854-.87973.904874-1.35731 2.161644-.47757 1.25677-.47757 2.714623 0 1.508124.45244 2.764894.47757 1.25677 1.33217 2.161645.85461.904874 2.08624 1.407582 1.23164.477577 2.7649.477577 2.21191 0 3.77031-1.00542 1.55839-1.005416 2.31245-3.343008h-3.14192q-.17595.603249-.95515 1.156228-.7792.527843-1.86002.527843-1.50812 0-2.31245-.779197-.80434-.779197-.87974-2.51354zM196.55371 95.587288h-3.39328q.0503 1.307041.57812 2.18678.55297.854604 1.38244 1.382447.85461.527844 1.93543.754062 1.08082.226223 2.21191.226223 1.10596 0 2.16165-.226223 1.08082-.201083 1.91029-.728926.82947-.527844 1.33217-1.382447.52785-.879739.52785-2.161645 0-.904874-.3519-1.508124-.35189-.628385-.93001-1.030551-.57811-.427302-1.33217-.678656-.72893-.251354-1.50813-.427302-.75406-.175948-1.48299-.32676-.72892-.150813-1.30704-.32676-.55298-.201084-.90487-.502708-.3519-.301625-.3519-.779198 0-.402166.20109-.628385.20108-.251354.47757-.377031.30162-.125677.65352-.150812.35189-.05027.65352-.05027.95514 0 1.65894.377031.70379.351896.77919 1.382447h3.39328q-.10054-1.206499-.62838-1.985697-.50271-.804332-1.28191-1.281905-.7792-.477573-1.78461-.678656-.98028-.201083-2.03597-.201083-1.05569 0-2.0611.201083-1.00542.175948-1.80975.653521-.80433.452437-1.30704 1.25677-.47757.804332-.47757 2.061102 0 .854604.35189 1.457854.3519.578114.93001.98028.57812.377031 1.30704.628385.75406.226219 1.53326.402167 1.91029.402166 2.96598.804333 1.08082.402166 1.08082 1.206499 0 .477572-.22622.804333-.22622.301624-.57811.502708-.32676.175947-.75406.276489-.40217.07541-.7792.07541-.52784 0-1.03055-.125677-.47758-.125677-.85461-.377031-.37703-.276489-.62838-.678656-.22622-.427301-.22622-1.005416zM214.22797 101.4187l5.42924-14.603666h-3.6949l-2.8403 8.897931h-.0503l-2.94084-8.897931h-3.79545l4.54951 12.190669q.15081.377031.15081.804333 0 .578114-.35189 1.055684-.32676.47758-1.03055.55298-.52785.0251-1.05569-.0251-.52785-.0503-1.03055-.10055v2.94085q.55298.0503 1.08082.0754.55298.0503 1.10596.0503 1.83488 0 2.86543-.67865 1.03055-.67866 1.60867-2.26219zM224.17113 95.587288h-3.39328q.0503 1.307041.57812 2.18678.55298.854604 1.38245 1.382447.8546.527844 1.93542.754062 1.08082.226223 2.21192.226223 1.10595 0 2.16164-.226223 1.08082-.201083 1.91029-.728926.82947-.527844 1.33218-1.382447.52784-.879739.52784-2.161645 0-.904874-.35189-1.508124-.3519-.628385-.93001-1.030551-.57812-.427302-1.33218-.678656-.72893-.251354-1.50812-.427302-.75407-.175948-1.48299-.32676-.72893-.150813-1.30704-.32676-.55298-.201084-.90488-.502708-.35189-.301625-.35189-.779198 0-.402166.20108-.628385.20108-.251354.47757-.377031.30163-.125677.65352-.150812.3519-.05027.65352-.05027.95515 0 1.65894.377031.70379.351896.7792 1.382447h3.39328q-.10055-1.206499-.62839-1.985697-.50271-.804332-1.2819-1.281905-.7792-.477573-1.78462-.678656-.98028-.201083-2.03597-.201083-1.05568 0-2.0611.201083-1.00541.175948-1.80975.653521-.80433.452437-1.30704 1.25677-.47757.804332-.47757 2.061102 0 .854604.3519 1.457854.35189.578114.93001.98028.57811.377031 1.30704.628385.75406.226219 1.53326.402167 1.91029.402166 2.96597.804333 1.08082.402166 1.08082 1.206499 0 .477572-.22621.804333-.22622.301624-.57812.502708-.32676.175947-.75406.276489-.40217.07541-.7792.07541-.52784 0-1.03055-.125677-.47757-.125677-.8546-.377031-.37703-.276489-.62839-.678656-.22622-.427301-.22622-1.005416zM239.96023 86.815034v-3.895988H236.391v3.895988h-2.16164v2.387863h2.16164v7.666297q0 .98028.32676 1.58353.32676.60325.87974.93001.57812.32676 1.30704.427302.75406.125677 1.58353.125677.52785 0 1.08082-.02514.55298-.02514 1.00542-.100541v-2.764894q-.25135.05027-.52784.07541-.27649.02514-.57812.02514-.90487 0-1.2065-.301625-.30162-.301624-.30162-1.206499v-6.434662h2.61408v-2.387863zM253.54881 91.91752h-5.80628q.0251-.377031.15081-.854604.15081-.477572.47757-.904874.3519-.427302.90488-.703791.57811-.301625 1.43272-.301625 1.30704 0 1.93542.703791.65352.703791.90488 2.061103zm-5.80628 2.262186h9.3755q.10054-1.508124-.25135-2.890571-.3519-1.382447-1.15623-2.463269-.7792-1.080823-2.01083-1.709208-1.23164-.65352-2.89057-.65352-1.48299 0-2.71463.527843-1.2065.527844-2.08623 1.457854-.87974.904874-1.35732 2.161644-.47757 1.25677-.47757 2.714623 0 1.508124.45244 2.764894.47757 1.25677 1.33218 2.161645.8546.904874 2.08623 1.407582 1.23164.477577 2.7649.477577 2.21191 0 3.77031-1.00542 1.55839-1.005416 2.31245-3.343008h-3.14192q-.17595.603249-.95515 1.156228-.77919.527843-1.86002.527843-1.50812 0-2.31245-.779197-.80434-.779197-.87974-2.51354zM259.86462 86.815034v12.995002h3.56922v-7.540621q0-.955145.27649-1.533259.27649-.60325.65352-.904874.40217-.326761.80433-.427302.42731-.125677.67866-.125677.8546 0 1.28191.301625.45243.276489.62838.754062.20108.477572.22622 1.055686.0251.552979.0251 1.131093v7.289267h3.56922V92.57104q0-.603249.0754-1.181364.10054-.603249.35189-1.055686.27649-.477573.72893-.754062.47757-.301625 1.23164-.301625.75406 0 1.18136.251354.45244.251354.67865.678656.22622.427301.27649 1.005416.0503.578114.0503 1.231634v7.364673h3.56922v-8.696849q0-1.25677-.35189-2.136509-.3519-.904874-.98028-1.457853-.62839-.552979-1.50813-.804333-.87974-.251354-1.91029-.251354-1.35731 0-2.36273.65352-.98028.653521-1.55839 1.508124-.52784-1.206499-1.5584-1.684071-1.00541-.477573-2.23705-.477573-1.2819 0-2.28732.552979-.98028.552979-1.68407 1.558395h-.0503v-1.759478zM291.81931 91.91752h-5.80627q.0251-.377031.15081-.854604.15081-.477572.47757-.904874.3519-.427302.90488-.703791.57811-.301625 1.43271-.301625 1.30704 0 1.93543.703791.65352.703791.90487 2.061103zm-5.80627 2.262186h9.3755q.10054-1.508124-.25135-2.890571-.3519-1.382447-1.15623-2.463269-.7792-1.080823-2.01083-1.709208-1.23164-.65352-2.89057-.65352-1.48299 0-2.71463.527843-1.2065.527844-2.08624 1.457854-.87974.904874-1.35731 2.161644-.47757 1.25677-.47757 2.714623 0 1.508124.45244 2.764894.47757 1.25677 1.33217 2.161645.85461.904874 2.08624 1.407582 1.23164.477577 2.7649.477577 2.21191 0 3.77031-1.00542 1.55839-1.005416 2.31245-3.343008h-3.14192q-.17595.603249-.95515 1.156228-.7792.527843-1.86002.527843-1.50812 0-2.31245-.779197-.80434-.779197-.87974-2.51354z" style="font-weight:700;font-family:'Helvetica Neue';-inkscape-font-specification:'Helvetica Neue Bold';fill:#fff" transform="translate(105.82968 -35.70421)"/></g><g aria-label="Ingenieurbüro" style="font-weight:700;font-size:25.1354px;line-height:1.25;font-family:'PT Sans';-inkscape-font-specification:'PT Sans Bold';text-align:center;letter-spacing:4.15396px;text-anchor:middle;display:inline;stroke-width:.264583"><path d="M80.963756 52.999468v17.946676h3.946258V52.999468ZM92.153666 57.951142v12.995002h3.569226V64.13445q0-1.985696.653521-2.8403.65352-.879739 2.111374-.879739 1.281905 0 1.784613.804333.50271.779197.50271 2.387863v7.339537h3.56922v-7.993057q0-1.2065-.22621-2.18678-.20109-1.005416-.72893-1.684072-.52784-.703791-1.45785-1.080822-.90488-.402167-2.337596-.402167-1.131093 0-2.211915.527844-1.080822.502708-1.759478 1.633801h-.07541v-1.809749zM117.2894 67.879625q-.82947 0-1.38245-.351895-.55297-.351896-.90487-.904875-.32676-.552979-.47757-1.231634-.12568-.703792-.12568-1.407583 0-.728927.15081-1.382447.17595-.678656.52785-1.181364.37703-.527843.90487-.829468.55298-.301625 1.30704-.301625.87974 0 1.45785.32676.57812.326761.93001.879739.3519.552979.50271 1.281906.15081.703791.15081 1.508124 0 .703791-.20108 1.357312-.17595.628385-.55298 1.131093-.37703.502708-.95514.804332-.57812.301625-1.33218.301625zm6.43466 2.237051V57.951142h-3.39328v1.734343h-.0503q-.65352-1.131093-1.6338-1.608666-.95514-.477573-2.23705-.477573-1.35731 0-2.413.527844-1.03055.527843-1.73434 1.432718-.70379.879739-1.08082 2.061102-.3519 1.156229-.3519 2.412999 0 1.332176.30163 2.538675.32676 1.181364 1.00541 2.086239.67866.879739 1.73435 1.407582 1.05568.502708 2.51354.502708 1.18136 0 2.23705-.477573 1.08082-.502708 1.65893-1.533259h.0503v1.709207q.0251 1.382447-.67865 2.287322-.67866.904874-2.18678.904874-.95515 0-1.68407-.402166-.72893-.377031-.98028-1.382447h-3.5441q.0754 1.105957.60325 1.885155.55298.804333 1.35732 1.307041.82946.502708 1.80975.728926 1.00541.251354 1.96056.251354 2.23705 0 3.56922-.603249 1.33218-.60325 2.03597-1.482989.70379-.854604.90488-1.86002.22621-1.005416.22621-1.784613zM139.49883 63.053628h-5.80628q.0251-.377031.15081-.854603.15081-.477573.47757-.904875.3519-.427302.90488-.703791.57811-.301625 1.43272-.301625 1.30704 0 1.93542.703791.65352.703792.90488 2.061103zm-5.80628 2.262186h9.3755q.10055-1.508124-.25135-2.890571t-1.15623-2.463269q-.7792-1.080822-2.01083-1.709207-1.23164-.653521-2.89057-.653521-1.48299 0-2.71463.527844-1.20649.527843-2.08623 1.457853-.87974.904874-1.35732 2.161644-.47757 1.25677-.47757 2.714624 0 1.508124.45244 2.764894.47757 1.25677 1.33218 2.161644.8546.904875 2.08623 1.407583 1.23164.477572 2.7649.477572 2.21191 0 3.77031-1.005416 1.55839-1.005416 2.31245-3.343008h-3.14192q-.17595.60325-.95515 1.156228-.77919.527844-1.86002.527844-1.50812 0-2.31245-.779198-.80433-.779197-.87974-2.51354zM149.33888 57.951142v12.995002h3.56923V64.13445q0-1.985696.65352-2.8403.65352-.879739 2.11138-.879739 1.2819 0 1.78461.804333.50271.779197.50271 2.387863v7.339537h3.56922v-7.993057q0-1.2065-.22621-2.18678-.20109-1.005416-.72893-1.684072-.52784-.703791-1.45785-1.080822-.90488-.402167-2.3376-.402167-1.13109 0-2.21191.527844-1.08082.502708-1.75948 1.633801h-.0754v-1.809749zM172.08675 55.94031v-2.940842h-3.56922v2.940842zm-3.56922 2.010832v12.995002h3.56922V57.951142ZM187.79829 63.053628h-5.80628q.0251-.377031.15082-.854603.15081-.477573.47757-.904875.35189-.427302.90487-.703791.57812-.301625 1.43272-.301625 1.30704 0 1.93543.703791.65352.703792.90487 2.061103zm-5.80628 2.262186h9.37551q.10054-1.508124-.25136-2.890571-.35189-1.382447-1.15622-2.463269-.7792-1.080822-2.01084-1.709207-1.23163-.653521-2.89057-.653521-1.48299 0-2.71462.527844-1.2065.527843-2.08624 1.457853-.87974.904874-1.35731 2.161644-.47757 1.25677-.47757 2.714624 0 1.508124.45243 2.764894.47758 1.25677 1.33218 2.161644.8546.904875 2.08624 1.407583 1.23163.477572 2.76489.477572 2.21192 0 3.77031-1.005416 1.5584-1.005416 2.31246-3.343008h-3.14193q-.17594.60325-.95514 1.156228-.7792.527844-1.86002.527844-1.50812 0-2.31246-.779198-.80433-.779197-.87974-2.51354zM209.82902 70.946144V57.951142h-3.56923v6.811694q0 1.985696-.65352 2.865435-.65352.854604-2.11138.854604-1.2819 0-1.78461-.779198-.50271-.804332-.50271-2.412998v-7.339537h-3.56922v7.993057q0 1.2065.20108 2.211916.22622.98028.75406 1.684071.52784.678656 1.43272 1.055687.93001.377031 2.36273.377031 1.13109 0 2.21191-.502708 1.08082-.502708 1.75948-1.633801h.0754v1.809749zM216.71646 57.951142v12.995002h3.56922v-5.856548q0-.879739.17595-1.633801t.57811-1.307041q.42731-.578114 1.10596-.904875.67866-.32676 1.65894-.32676.32676 0 .67865.05027.3519.02513.60325.07541v-3.317873q-.4273-.125677-.77919-.125677-.67866 0-1.30704.201084-.62839.201083-1.18137.578114-.55298.351895-.98028.879739-.4273.502708-.67865 1.105957h-.0503v-2.412998zM240.16616 64.461211q0 .804333-.17595 1.558395t-.55298 1.332176q-.37703.578114-.95514.93001-.55298.32676-1.35732.32676-.77919 0-1.35731-.32676-.57811-.351896-.95514-.93001t-.55298-1.332176q-.17595-.754062-.17595-1.558395 0-.829469.17595-1.583531t.55298-1.332176q.37703-.578114.95514-.904874.57812-.351896 1.35731-.351896.80434 0 1.35732.351896.57811.32676.95514.904874t.55298 1.332176q.17595.754062.17595 1.583531zm-9.52632-11.461743v17.946676h3.39328v-1.658936h.0503q.57812 1.080822 1.70921 1.533259t2.56381.452437q.98028 0 1.93542-.402166.95515-.402167 1.70921-1.231635.7792-.829468 1.25677-2.111373.47757-1.307041.47757-3.091655 0-1.784613-.47757-3.066519-.47757-1.30704-1.25677-2.136509-.75406-.829468-1.70921-1.231634-.95514-.402167-1.93542-.402167-1.2065 0-2.33759.477573-1.10596.452437-1.75948 1.457853h-.0503v-6.535204zM251.96952 52.999468v2.940842h3.39328v-2.940842zm5.17789 0v2.940842h3.39328v-2.940842zm5.20303 17.946676V57.951142h-3.56923v6.811694q0 1.985696-.65352 2.865435-.65352.854604-2.11137.854604-1.28191 0-1.78462-.779198-.5027-.804332-.5027-2.412998v-7.339537h-3.56923v7.993057q0 1.2065.20108 2.211916.22622.98028.75406 1.684071.52785.678656 1.43272 1.055687.93001.377031 2.36273.377031 1.13109 0 2.21192-.502708 1.08082-.502708 1.75947-1.633801h.0754v1.809749zM269.23788 57.951142v12.995002h3.56923v-5.856548q0-.879739.17594-1.633801.17595-.754062.57812-1.307041.4273-.578114 1.10596-.904875.67865-.32676 1.65893-.32676.32676 0 .67866.05027.35189.02513.60325.07541v-3.317873q-.4273-.125677-.7792-.125677-.67866 0-1.30704.201084-.62839.201083-1.18136.578114-.55298.351895-.98029.879739-.4273.502708-.67865 1.105957h-.0503v-2.412998zM285.85661 64.461211q0-.779198.15082-1.53326.15081-.754062.50271-1.332176.37703-.578114.98028-.93001.60325-.377031 1.50812-.377031t1.50812.377031q.62839.351896.98028.93001.37704.578114.52785 1.332176.15081.754062.15081 1.53326 0 .779197-.15081 1.533259-.15081.728927-.52785 1.332176-.35189.578115-.98028.93001-.60325.351896-1.50812.351896t-1.50812-.351896q-.60325-.351895-.98028-.93001-.3519-.603249-.50271-1.332176-.15082-.754062-.15082-1.533259zm-3.56922 0q0 1.558395.47757 2.815165t1.35731 2.161644q.87974.879739 2.11138 1.357312 1.23163.477572 2.76489.477572 1.53326 0 2.76489-.477572 1.25677-.477573 2.13651-1.357312.87974-.904874 1.35731-2.161644.47758-1.25677.47758-2.815165t-.47758-2.815165q-.47757-1.281906-1.35731-2.161645-.87974-.904874-2.13651-1.382447-1.23163-.502708-2.76489-.502708-1.53326 0-2.76489.502708-1.23164.477573-2.11138 1.382447-.87974.879739-1.35731 2.161645-.47757 1.25677-.47757 2.815165z" style="font-family:'Helvetica Neue';-inkscape-font-specification:'Helvetica Neue Bold';fill:#fff" transform="translate(105.82968 -35.22645)"/></g><g style="display:inline;stroke-width:1.21915"><path style="display:inline;fill:none;fill-opacity:1;stroke:#fff;stroke-width:2.3515;stroke-miterlimit:4;stroke-dasharray:none;stroke-opacity:1;stop-color:#000" d="M-165.55737 439.72724a11.106197 6.4262649 0 0 1-11.10613 6.42623 11.106197 6.4262649 0 0 1-11.10613-6.42622 11.106197 6.4262649 0 0 1 11.10614-6.4262 11.106197 6.4262649 0 0 1 11.10612 6.42619z" transform="matrix(.82133 0 0 .81916 287.270455 -303.015544)"/><path style="display:inline;fill:none;fill-opacity:1;stroke:#fff;stroke-width:2.87406;stroke-miterlimit:4;stroke-dasharray:none;stroke-opacity:1;stop-color:#000" d="M-163.84062 439.72726a18.732446 11.164379 0 0 1-18.73236 11.16429 18.732446 11.164379 0 0 1-18.73234-11.1643 18.732446 11.164379 0 0 1 18.73235-11.16427 18.732446 11.164379 0 0 1 18.73235 11.16428z" transform="matrix(.82133 0 0 .81916 287.270455 -303.015544)"/><path style="display:inline;fill:none;fill-opacity:1;stroke:#fff;stroke-width:3.3966;stroke-miterlimit:4;stroke-dasharray:none;stroke-opacity:1;stop-color:#000" d="M-161.92136 439.72725a31.453028 19.213989 0 0 1-31.45287 19.21385 31.453028 19.213989 0 0 1-31.45278-19.21385 31.453028 19.213989 0 0 1 31.45278-19.21381 31.453028 19.213989 0 0 1 31.45287 19.21381z" transform="matrix(.82133 0 0 .81916 287.270455 -303.015544)"/><path style="display:inline;fill:none;fill-opacity:1;stroke:#fff;stroke-width:3.91918;stroke-miterlimit:4;stroke-dasharray:none;stroke-opacity:1;stop-color:#000" d="M-159.62176 439.72723a52.416267 32.621616 0 0 1-52.41601 32.62138 52.416267 32.621616 0 0 1-52.41593-32.62138 52.416267 32.621616 0 0 1 52.41594-32.6213 52.416267 32.621616 0 0 1 52.416 32.6213z" transform="matrix(.82133 0 0 .81916 287.270455 -303.015544)"/><path style="display:inline;fill:none;fill-opacity:1;stroke:#fff;stroke-width:4.44174;stroke-miterlimit:4;stroke-dasharray:none;stroke-opacity:1;stop-color:#000" d="M-156.89016 439.7272a86.716094 54.698496 0 0 1-86.71574 54.69811 86.716094 54.698496 0 0 1-86.71549-54.6981 86.716094 54.698496 0 0 1 86.71549-54.69799 86.716094 54.698496 0 0 1 86.71574 54.69798z" transform="matrix(.82133 0 0 .81916 287.270455 -303.015544)"/></g><g aria-label="Dr.-Ing. Jürgen Ehret" style="font-size:15.875px;line-height:1.25;font-family:'PT Sans';-inkscape-font-specification:'PT Sans';text-align:center;letter-spacing:1.05833px;text-anchor:middle;display:inline;stroke-width:.264583"><path d="M-160.60473 453.99132v-7.14375h1.778q.92075 0 1.53987.26988.635.254 1.016.74612.381.49213.53975 1.19063.17463.68262.17463 1.53987 0 .93663-.23813 1.5875-.23812.65088-.635 1.06363-.39687.39687-.90487.5715-.508.17462-1.04775.17462zm-2.49238-9.23925v11.33475h4.8895q1.30175 0 2.25425-.42862.96838-.4445 1.60338-1.2065.65087-.762.96837-1.80975t.3175-2.286q0-1.41288-.39687-2.46063-.381-1.04775-1.0795-1.74625-.68263-.6985-1.63513-1.04775-.93662-.34925-2.032-.34925zM-150.52568 447.87945v8.20737h2.25425v-3.69887q0-.55563.11112-1.03188.11113-.47625.36513-.8255.26987-.36512.6985-.5715.42862-.20637 1.04775-.20637.20637 0 .42862.0317.22225.0159.381.0476v-2.0955q-.26987-.0794-.49212-.0794-.42863 0-.8255.127-.39688.127-.74613.36512-.34925.22225-.61912.55563-.26988.3175-.42863.6985h-.0318v-1.524zM-144.67632 453.64207v2.44475h2.49238v-2.44475zM-139.34018 450.78457v1.93675h4.77837v-1.93675zM-131.57863 444.75207v11.33475h2.49237v-11.33475zM-126.07654 447.87945v8.20737h2.25425v-4.30212q0-1.25413.41275-1.79388.41275-.55562 1.3335-.55562.80962 0 1.12712.508.3175.49212.3175 1.50812v4.6355h2.25425v-5.04825q0-.762-.14287-1.38112-.127-.635-.46038-1.06363-.33337-.4445-.92075-.68262-.5715-.254-1.47637-.254-.71438 0-1.397.33337-.68263.3175-1.11125 1.03188h-.0476v-1.143zM-111.76656 454.15007q-.52387 0-.87312-.22225-.34925-.22225-.5715-.5715-.20638-.34925-.30163-.77787-.0794-.4445-.0794-.889 0-.46038.0952-.87313.11112-.42862.33337-.74612.23813-.33338.5715-.52388.34925-.1905.8255-.1905.55563 0 .92075.20638.36513.20637.58738.55562t.3175.80963q.0952.4445.0952.9525 0 .4445-.127.85725-.11113.39687-.34925.71437-.23813.3175-.60325.508-.36513.1905-.84138.1905zm4.064 1.41288v-7.6835h-2.14312v1.09537h-.0318q-.41275-.71437-1.03188-1.016-.60325-.30162-1.41287-.30162-.85725 0-1.524.33337-.65088.33338-1.09538.90488-.4445.55562-.68262 1.30175-.22225.73025-.22225 1.524 0 .84137.1905 1.60337.20637.74613.635 1.31763.42862.55562 1.09537.889.66675.3175 1.5875.3175.74613 0 1.41288-.30163.68262-.3175 1.04775-.96837h.0318v1.0795q.0159.87312-.42863 1.44462-.42862.5715-1.38112.5715-.60325 0-1.06363-.254-.46037-.23812-.61912-.87312h-2.23838q.0476.6985.381 1.19062.34925.508.85725.8255.52388.3175 1.143.46038.635.15875 1.23825.15875 1.41288 0 2.25425-.381.84138-.381 1.28588-.93663.4445-.53975.5715-1.17475.14287-.635.14287-1.12712zM-104.73402 453.64207v2.44475h2.49238v-2.44475zM-87.033069 452.51495v-7.76288h-2.492375v7.65175q0 .30163-.03175.635-.01588.3175-.142875.60325-.111125.26988-.381.4445-.269875.17463-.762.17463-.4445 0-.73025-.14288-.269875-.14287-.428625-.381-.15875-.254-.22225-.60325-.0635-.34925-.0635-.762v-.508h-2.25425v.98425q0 .93663.3175 1.60338.3175.65087.841375 1.0795.523875.41275 1.190625.60325.66675.20637 1.381125.20637 1.27 0 2.016125-.381.746125-.39687 1.143-.96837.396875-.58738.508-1.25413.111125-.66675.111125-1.22237zM-82.868947 444.75207v1.85738h2.143125v-1.85738zm3.27025 0v1.85738h2.143125v-1.85738zm3.286125 11.33475v-8.20737h-2.25425v4.30212q0 1.25413-.41275 1.80975-.41275.53975-1.3335.53975-.809625 0-1.127125-.49212-.3175-.508-.3175-1.524v-4.6355h-2.25425v5.04825q0 .762.127 1.397.142875.61912.47625 1.06362.333375.42863.904875.66675.587375.23813 1.49225.23813.714375 0 1.397-.3175t1.11125-1.03188h.04762v1.143zM-73.527831 447.87945v8.20737h2.25425v-3.69887q0-.55563.111125-1.03188.111125-.47625.365125-.8255.269875-.36512.6985-.5715.428625-.20637 1.04775-.20637.206375 0 .428625.0317.22225.0159.381.0476v-2.0955q-.269875-.0794-.492125-.0794-.428625 0-.8255.127-.396875.127-.746125.36512-.34925.22225-.619125.55563-.269875.3175-.428625.6985h-.03175v-1.524zM-62.912756 454.15007q-.523875 0-.873125-.22225-.34925-.22225-.5715-.5715-.206375-.34925-.301625-.77787-.07937-.4445-.07937-.889 0-.46038.09525-.87313.111125-.42862.333375-.74612.238125-.33338.5715-.52388.34925-.1905.8255-.1905.555625 0 .92075.20638.365125.20637.587375.55562t.3175.80963q.09525.4445.09525.9525 0 .4445-.127.85725-.111125.39687-.34925.71437-.238125.3175-.60325.508-.365125.1905-.841375.1905zm4.064 1.41288v-7.6835h-2.143125v1.09537h-.03175q-.41275-.71437-1.031875-1.016-.60325-.30162-1.412875-.30162-.85725 0-1.524.33337-.650875.33338-1.095375.90488-.4445.55562-.682625 1.30175-.22225.73025-.22225 1.524 0 .84137.1905 1.60337.206375.74613.635 1.31763.428625.55562 1.095375.889.66675.3175 1.5875.3175.746125 0 1.412875-.30163.682625-.3175 1.04775-.96837h.03175v1.0795q.01588.87312-.428625 1.44462-.428625.5715-1.381125.5715-.60325 0-1.063625-.254-.460375-.23812-.619125-.87312h-2.238375q.04763.6985.381 1.19062.34925.508.85725.8255.523875.3175 1.143.46038.635.15875 1.23825.15875 1.412875 0 2.25425-.381.841375-.381 1.285875-.93663.4445-.53975.5715-1.17475.142875-.635.142875-1.12712zM-50.445752 451.10207h-3.667125q.01587-.23812.09525-.53975.09525-.30162.301625-.5715.22225-.26987.5715-.4445.365125-.1905.904875-.1905.8255 0 1.222375.4445.41275.4445.5715 1.30175zm-3.667125 1.42875h5.921375q.0635-.9525-.15875-1.82562-.22225-.87313-.73025-1.55575-.492125-.68263-1.27-1.0795-.777875-.41275-1.825625-.41275-.936625 0-1.7145.33337-.762.33338-1.317625.92075-.555625.5715-.85725 1.36525-.301625.79375-.301625 1.7145 0 .9525.28575 1.74625.301625.79375.841375 1.36525.53975.5715 1.317625.889.777875.30163 1.74625.30163 1.397 0 2.38125-.635.98425-.635 1.4605-2.11138h-1.984375q-.111125.381-.60325.73025-.492125.33338-1.17475.33338-.9525 0-1.4605-.49213-.508-.49212-.555625-1.5875zM-45.796203 447.87945v8.20737h2.25425v-4.30212q0-1.25413.41275-1.79388.41275-.55562 1.3335-.55562.809625 0 1.127125.508.3175.49212.3175 1.50812v4.6355h2.25425v-5.04825q0-.762-.142875-1.38112-.127-.635-.460375-1.06363-.333375-.4445-.92075-.68262-.5715-.254-1.476375-.254-.714375 0-1.397.33337-.682625.3175-1.11125 1.03188h-.04763v-1.143zM-29.612796 444.75207v11.33475h8.60425v-2.0955h-6.111875v-2.77812h5.49275v-1.93675h-5.49275v-2.42888h5.984875v-2.0955zM-18.498656 444.75207v11.33475h2.25425v-4.30212q0-1.25413.41275-1.79388.41275-.55562 1.3335-.55562.809625 0 1.127125.508.3175.49212.3175 1.50812v4.6355h2.25425v-5.04825q0-.762-.142875-1.38112-.127-.635-.460375-1.06363-.333375-.4445-.92075-.68262-.5715-.254-1.476375-.254-.635 0-1.30175.33337-.66675.3175-1.095375 1.03188h-.04763v-4.27038zM-8.0145409 447.87945v8.20737h2.25425v-3.69887q0-.55563.111125-1.03188.111125-.47625.365125-.8255.269875-.36512.6985-.5715.428625-.20637 1.04775-.20637.206375 0 .428625.0317.22225.0159.381.0476v-2.0955q-.269875-.0794-.492125-.0794-.428625 0-.8255.127-.396875.127-.746125.36512-.34925.22225-.619125.55563-.269875.3175-.428625.6985h-.03175v-1.524zM4.4405469 451.10207H.77342188q.015875-.23812.09525-.53975.09525-.30162.30162502-.5715.22225-.26987.5715-.4445.365125-.1905.904875-.1905.8255 0 1.222375.4445.41275.4445.5715 1.30175zm-3.66712502 1.42875H6.6947969q.0635-.9525-.15875-1.82562-.22225-.87313-.73025-1.55575-.492125-.68263-1.27-1.0795-.777875-.41275-1.825625-.41275-.936625 0-1.71450002.33337-.762.33338-1.317625.92075-.555625.5715-.85724998 1.36525-.301625.79375-.301625 1.7145 0 .9525.28575 1.74625.30162498.79375.84137498 1.36525.53975.5715 1.317625.889.77787502.30163 1.74625002.30163 1.397 0 2.38125-.635.98425-.635 1.4605-2.11138h-1.984375q-.111125.381-.60325.73025-.492125.33338-1.17475.33338-.9525 0-1.4605-.49213-.50800002-.49212-.55562502-1.5875zM11.935443 447.87945v-2.46063H9.6811926v2.46063h-1.36525v1.50812h1.36525v4.84188q0 .61912.206375 1.00012.2063754.381.5556254.58738.365125.20637.8255.26987.47625.0794 1.000125.0794.333375 0 .682625-.0159.34925-.0159.635-.0635v-1.74625q-.15875.0317-.333375.0476-.174625.0159-.365125.0159-.5715 0-.762-.1905t-.1905-.762v-4.064h1.651v-1.50812z" style="font-weight:700;font-family:'Helvetica Neue';-inkscape-font-specification:'Helvetica Neue Bold';fill:#fff" transform="translate(368.9343051 -364.6083367)"/></g></g></svg>