<svg xmlns="http://www.w3.org/2000/svg" width="333.173" height="350.73651" viewBox="0 0 88.152024 92.799035"><defs><path id="G" d="M-42 1608h588v290H-42z"/><path id="b" d="M1600.6648 5530.2114h158.57976v94.550331H1600.6648z"/><path id="a" d="M157-13h55v40h-55z"/><path id="c" d="M157-13h55v40h-55z"/><path id="d" d="M1600.6648 5530.2114h158.57976v94.550331H1600.6648z"/><path id="e" d="M157-13h55v40h-55z"/><path id="f" d="M1600.6648 5530.2114h158.57976v94.550331H1600.6648z"/><path id="g" d="M157-13h55v40h-55z"/><path id="h" d="M1600.6648 5530.2114h158.57976v94.550331H1600.6648z"/><path id="i" d="M157-13h55v40h-55z"/><path id="j" d="M1600.6648 5530.2114h158.57976v94.550331H1600.6648z"/><path id="k" d="M157-13h55v40h-55z"/><path id="l" d="M1600.6648 5530.2114h158.57976v94.550331H1600.6648z"/><path id="m" d="M157-13h55v40h-55z"/><path id="n" d="M1600.6648 5530.2114h158.57976v94.550331H1600.6648z"/><path id="o" d="M157-13h55v40h-55z"/><path id="p" d="M1600.6648 5530.2114h158.57976v94.550331H1600.6648z"/><path id="q" d="M157-13h55v40h-55z"/><path id="r" d="M1600.6648 5530.2114h158.57976v94.550331H1600.6648z"/><path id="s" d="M157-13h55v40h-55z"/><path id="t" d="M1600.6648 5530.2114h158.57976v94.550331H1600.6648z"/><path id="u" d="M157-13h55v40h-55z"/><path id="v" d="M1600.6648 5530.2114h158.57976v94.550331H1600.6648z"/><path id="w" d="M157-13h55v40h-55z"/><path id="x" d="M1600.6648 5530.2114h158.57976v94.550331H1600.6648z"/><path id="y" d="M157-13h55v40h-55z"/><path id="z" d="M1600.6648 5530.2114h158.57976v94.550331H1600.6648z"/><path id="A" d="M157-13h55v40h-55z"/><path id="B" d="M1600.6648 5530.2114h158.57976v94.550331H1600.6648z"/><path id="C" d="M157-13h55v40h-55z"/><path id="D" d="M1600.6648 5530.2114h158.57976v94.550331H1600.6648z"/><path id="E" d="M157-13h55v40h-55z"/><path id="F" d="M1600.6648 5530.2114h158.57976v94.550331H1600.6648z"/><marker id="H" orient="auto" refX="0" refY="0" style="overflow:visible"><path d="m0 0 5-5-17.5 5L5 5Z" style="fill:context-stroke;fill-rule:evenodd;stroke:context-stroke;stroke-width:1pt" transform="matrix(-.8 0 0 -.8 -10 0)"/></marker><marker id="I" orient="auto" refX="0" refY="0" style="overflow:visible"><path d="m0 0 5-5-17.5 5L5 5Z" style="fill:context-stroke;fill-rule:evenodd;stroke:context-stroke;stroke-width:1pt" transform="matrix(-.8 0 0 -.8 -10 0)"/></marker></defs><g style="display:inline"><g transform="translate(-8.0248415 -5.7838867)"><ellipse cx="52.100853" cy="33.128242" rx="43.282249" ry="26.550606" style="font-variation-settings:normal;display:inline;fill:none;fill-opacity:1;stroke:#fff;stroke-width:1.5875;stroke-linecap:butt;stroke-linejoin:miter;stroke-miterlimit:4;stroke-dasharray:none;stroke-dashoffset:0;stroke-opacity:1;stop-color:#000"/><ellipse cx="67.526337" cy="33.128242" rx="26.510872" ry="16.17045" style="font-variation-settings:normal;display:inline;fill:none;fill-opacity:1;stroke:#fff;stroke-width:1.32292;stroke-linecap:butt;stroke-linejoin:miter;stroke-miterlimit:4;stroke-dasharray:none;stroke-dashoffset:0;stroke-opacity:1;stop-color:#000"/><ellipse cx="76.787163" cy="33.128242" rx="16.145391" ry="9.7550411" style="font-variation-settings:normal;display:inline;fill:none;fill-opacity:1;stroke:#fff;stroke-width:1.05833;stroke-linecap:butt;stroke-linejoin:miter;stroke-miterlimit:4;stroke-dasharray:none;stroke-dashoffset:0;stroke-opacity:1;stop-color:#000"/><ellipse cx="82.273178" cy="33.128242" rx="9.7389774" ry="5.7899771" style="font-variation-settings:normal;display:inline;fill:none;fill-opacity:1;stroke:#fff;stroke-width:.926042;stroke-linecap:butt;stroke-linejoin:miter;stroke-miterlimit:4;stroke-dasharray:none;stroke-dashoffset:0;stroke-opacity:1;stop-color:#000"/><ellipse cx="85.437393" cy="33.128242" rx="5.7796507" ry="3.3394673" style="font-variation-settings:normal;display:inline;fill:none;fill-opacity:1;stroke:#fff;stroke-width:.79375;stroke-linecap:butt;stroke-linejoin:miter;stroke-miterlimit:4;stroke-dasharray:none;stroke-dashoffset:0;stroke-opacity:1;stop-color:#000"/><ellipse cx="87.427002" cy="33.128242" rx="3.1086199" ry="1.7900585" style="font-variation-settings:normal;display:inline;fill:none;fill-opacity:1;stroke:#fff;stroke-width:.661458;stroke-linecap:butt;stroke-linejoin:miter;stroke-miterlimit:4;stroke-dasharray:none;stroke-dashoffset:0;stroke-opacity:1;stop-color:#000"/><ellipse cx="88.721611" cy="33.128242" rx="1.2934215" ry=".68038863" style="font-variation-settings:normal;display:inline;fill:none;fill-opacity:1;stroke:#fff;stroke-width:.555625;stroke-linecap:butt;stroke-linejoin:miter;stroke-miterlimit:4;stroke-dasharray:none;stroke-dashoffset:0;stroke-opacity:1;stop-color:#000"/></g><path d="M8.4335462 81.729578c.2515104 0 .4191843-.167724.4191843-.440193V66.733296c0-.272479-.1676739-.440123-.4191843-.440123s-.4087047.167644-.4087047.440123v14.556089c0 .272469.1571943.440193.4087047.440193zM11.954691 81.572369h4.736779c3.175319 0 5.103565-1.561465 5.103565-4.034611 0-2.190231-1.634818-3.573548-3.772655-3.804069v-.06257c1.80249-.345872 2.976205-1.739614 2.976205-3.542105 0-2.190241-1.781531-3.678304-4.411911-3.678304h-4.631983c-.25151 0-.408704.167633-.408704.440113v14.241741c0 .272479.157194.440113.408704.440113zm.419184-8.153108v-6.214408h4.087043c2.253115 0 3.699299 1.163291 3.699299 2.986731 0 1.991074-1.530021 3.227677-3.898411 3.227677zm0 7.398557v-6.654521h4.024167c2.87141 0 4.558625 1.268047 4.558625 3.353452 0 2.033102-1.613858 3.301069-4.338554 3.301069z" style="font-weight:200;font-size:19.05px;line-height:1.25;font-family:Lato;-inkscape-font-specification:&quot;SF Pro Rounded Ultra-Light&quot;;text-align:center;letter-spacing:0;text-anchor:middle;fill:#fff;stroke:none;stroke-width:.204507" transform="translate(-8.02484153 -8.4297201)"/><path d="M28.910683 81.823899c3.531624 0 5.774259-1.792066 5.774259-4.642437 0-2.200736-1.299471-3.468793-4.474789-4.139437l-1.645297-.345862c-1.959685-.419184-2.745656-1.152716-2.745656-2.253119 0-1.383317 1.30995-2.242614 3.081003-2.242614 1.509062 0 2.661818.597332 3.175318 1.991154.241031.544949.586858.806914 1.152756.806914.607816 0 1.03748-.398245 1.03748-1.006081 0-.220017-.03143-.398165-.08384-.54487-.586857-2.022597-2.640858-3.248695-5.250278-3.248695-3.217237 0-5.49131 1.781482-5.49131 4.369958 0 2.179726 1.372827 3.584063 4.390952 4.223263l1.655776.345862c2.022562.440123 2.819012 1.173725 2.819012 2.34737 0 1.351873-1.372827 2.336946-3.290594 2.336946-1.750092 0-3.12292-.66022-3.594502-2.074901-.230551-.565888-.576378-.806914-1.110838-.806914-.639255 0-1.058438.440113-1.058438 1.121262 0 .251541.05239.503001.125754.733612.586858 1.760543 2.598941 3.028589 5.533229 3.028589z" style="font-weight:500;font-size:19.05px;line-height:1.25;font-family:Lato;-inkscape-font-specification:&quot;SF Pro Rounded Medium&quot;;text-align:center;letter-spacing:0;text-anchor:middle;fill:#fff;stroke:none;stroke-width:.204507" transform="translate(-8.02484153 -8.4297201)"/><path d="M41.139577 81.754375c3.147872 0 5.127619-2.169302 5.127619-5.650918 0-3.481615-1.979747-5.658564-5.127619-5.658564-3.155456 0-5.127618 2.176949-5.127618 5.658564 0 3.481616 1.972162 5.650918 5.127618 5.650918zm0-1.49425c-2.078353 0-3.390599-1.608051-3.390599-4.156668 0-2.556262 1.312246-4.164314 3.390599-4.164314 2.078355 0 3.383015 1.608052 3.383015 4.164314 0 2.548617-1.30466 4.156668-3.383015 4.156668zM48.724809 81.693726c.523381 0 .849546-.333738.849546-.879846v-3.823h4.058101c.455114 0 .766109-.280665.766109-.720549 0-.432397-.310995-.713062-.766109-.713062h-4.058101v-3.458828h4.460118c.470285 0 .79645-.288231.79645-.735761 0-.447539-.318581-.73577-.79645-.73577h-5.309664c-.530966 0-.849546.333738-.849546.879846v9.307124c0 .546108.31858.879846.849546.879846zM59.753739 81.693726c.523382 0 .849547-.333738.849547-.879846v-8.715439h2.677587c.470286 0 .788865-.288231.788865-.735761 0-.447539-.318579-.73577-.788865-.73577h-7.061852c-.470285 0-.788865.288231-.788865.73577 0 .44753.31858.735761.788865.735761h2.685173v8.715439c0 .546108.318579.879846.849545.879846z" style="font-weight:500;font-size:20.1083px;line-height:1.25;font-family:Lato;-inkscape-font-specification:&quot;SF Pro Rounded Medium&quot;;text-align:center;letter-spacing:0;text-anchor:middle;fill:#fff;stroke:#fff;stroke-width:.396875;stroke-miterlimit:4;stroke-dasharray:none;stroke-opacity:1" transform="translate(-8.02484153 -8.4297201)"/><path d="M70.862218 81.823899c3.531624 0 5.774258-1.792066 5.774258-4.642437 0-2.200736-1.299471-3.468793-4.474789-4.139437l-1.645297-.345862c-1.959684-.419184-2.745655-1.152716-2.745655-2.253119 0-1.383317 1.30995-2.242614 3.081003-2.242614 1.509062 0 2.661818.597332 3.175317 1.991154.241032.544949.586859.806914 1.152757.806914.607816 0 1.03748-.398245 1.03748-1.006081 0-.220017-.03143-.398165-.08384-.54487-.586857-2.022597-2.640859-3.248695-5.250278-3.248695-3.217237 0-5.491311 1.781482-5.491311 4.369958 0 2.179726 1.372828 3.584063 4.390953 4.223263l1.655776.345862c2.022562.440123 2.819012 1.173725 2.819012 2.34737 0 1.351873-1.372827 2.336946-3.290594 2.336946-1.750093 0-3.12292-.66022-3.594503-2.074901-.230551-.565888-.576377-.806914-1.110838-.806914-.639254 0-1.058438.440113-1.058438 1.121262 0 .251541.05239.503001.125755.733612.586858 1.760543 2.598941 3.028589 5.533229 3.028589z" style="font-weight:500;font-size:27.7812px;line-height:1.25;font-family:Lato;-inkscape-font-specification:&quot;SF Pro Rounded Medium&quot;;text-align:center;letter-spacing:0;text-anchor:middle;fill:#fff;stroke:none;stroke-width:.204507" transform="translate(-8.02484153 -8.4297201)"/><path d="M82.249149 81.693726c.530966 0 .849547-.333738.849547-.879846v-3.724351l3.474037-5.256601c.128949-.197158.174461-.371678.174461-.561261 0-.439963-.364091-.766125-.834377-.766125-.33375 0-.546136.13651-.750938.477894L82.287076 75.4587h-.05309l-2.874806-4.475264c-.212387-.34896-.409603-.477894-.758524-.477894-.47787 0-.84196.326162-.84196.773701 0 .189663.04551.364103.174459.553685l3.466453 5.256601v3.724351c0 .546108.326164.879846.849545.879846zM91.798961 81.754375c2.556227 0 4.179466-1.297021 4.179466-3.360168 0-1.592909-.940573-2.510766-3.238901-2.996236l-1.190878-.250301c-1.418438-.303374-1.987332-.83434-1.987332-1.63076 0-1.001294.948152-1.623263 2.230058-1.623263 1.092278 0 1.926649.432317 2.298329 1.441177.174455.394457.424768.584039.834371.584039.439949 0 .750944-.288231.750944-.728115 0-.159308-.02279-.288241-.06065-.394466-.424777-1.463966-1.911484-2.351389-3.80021-2.351389-2.328666 0-3.974659 1.289456-3.974659 3.16302 0 1.577687.993664 2.594124 3.178212 3.056795l1.198472.250311c1.463948.318596 2.040422.849562 2.040422 1.699124 0 .978506-.993663 1.691479-2.381763 1.691479-1.266734 0-2.260397-.477894-2.60173-1.501816-.166877-.409599-.417189-.584119-.804041-.584119-.462696 0-.766107.318596-.766107.811631 0 .182087.03792.364103.09102.530967.424773 1.274313 1.881141 2.19209 4.005005 2.19209z" style="font-weight:500;font-size:20.1083px;line-height:1.25;font-family:Lato;-inkscape-font-specification:&quot;SF Pro Rounded Medium&quot;;text-align:center;letter-spacing:0;text-anchor:middle;fill:#fff;stroke:#fff;stroke-width:.396875;stroke-miterlimit:4;stroke-dasharray:none;stroke-opacity:1" transform="translate(-8.02484153 -8.4297201)"/><g aria-label="Ingenieurbüro Software Systems Dr.-Ing. Jürgen Ehret" style="font-size:6.35px;line-height:1.25;font-family:&quot;SF Pro Rounded&quot;;-inkscape-font-specification:&quot;SF Pro Rounded&quot;;text-align:center;letter-spacing:0;text-anchor:middle;display:inline;stroke-width:.264583"><path d="M-10.919787 131.16326c.21394 0 .347266-.13643.347266-.35967v-3.85403c0-.22324-.133326-.35967-.347266-.35967-.217041 0-.347266.13643-.347266.35967v3.85403c0 .22324.130225.35967.347266.35967zM-9.4873163 131.17256c.195337 0 .3348633-.13333.3348633-.35347v-1.6061c0-.5054.3038574-.84026.7751465-.84026.4650879 0 .6945312.26975.6945312.75964v1.68672c0 .22014.1395264.35347.3348633.35347.1984375 0 .3379639-.13333.3379639-.35347v-1.81694c0-.74724-.412378-1.20613-1.1317139-1.20613-.5022949 0-.8433593.22324-1.0200927.59531h-.015503v-.25735c0-.20773-.1333252-.34106-.3255615-.34106-.1953369 0-.3193603.13333-.3193603.33796v2.68821c0 .22014.1364257.35347.3348632.35347zM-4.9945673 132.34148c.9704834.009 1.5626953-.5116 1.5626953-1.31775v-2.88664c0-.21705-.142627-.34417-.3348633-.34417-.1922363 0-.3379639.12712-.3379639.34417v.26354h-.012402c-.1984375-.36896-.5581055-.60151-1.0200928-.60151-.8433593 0-1.3704589.63562-1.3704589 1.65571 0 1.00769.5333007 1.64952 1.354956 1.64952.4650879 0 .8495605-.23255 1.0324951-.58602h.015503v.5178c0 .45579-.3317627.76585-.8774658.75965-.3193603-.006-.5488037-.12713-.8154541-.40618-.089917-.0899-.1550293-.12402-.2573486-.12402-.1705322 0-.2852539.11162-.2852539.26665 0 .0775.018603.14572.062012.22014.2232422.35346.6914307.58291 1.2836419.58911zm.021704-1.78284c-.5146973 0-.8495606-.41858-.8495606-1.10071 0-.67902.3348633-1.1069.8495606-1.1069.523999 0 .8712646.44028.8712646 1.11001 0 .66972-.3472656 1.0976-.8712646 1.0976zM-1.3637809 131.17566c.60771483 0 1.08210447-.24495 1.2960449-.67283.02790527-.0651.04650879-.12712.04650879-.17983 0-.16743-.11782227-.27285-.27905273-.27285-.0961182 0-.16433106.0341-.23564453.11782-.24804687.33796-.47749023.46509-.84335933.46509-.5333008 0-.8681641-.37207-.8681641-.96739v-.0155h1.97197264c.20773926 0 .33176269-.12402.33176269-.34106 0-.88987-.59841307-1.51619-1.46657713-1.51619-.9239746 0-1.5130859.66973-1.5130859 1.70532 0 1.0542.576709 1.67742 1.5595947 1.67742zm-.8805664-1.99368c.034106-.50849.3689697-.84956.830957-.84956.46508791 0 .78444825.33797.79995118.84956zM.90584802 131.17256c.19533688 0 .33486328-.13333.33486328-.35347v-1.6061c0-.5054.3038574-.84026.7751465-.84026.4650879 0 .6945312.26975.6945312.75964v1.68672c0 .22014.1395264.35347.3348633.35347.1984375 0 .3379638-.13333.3379638-.35347v-1.81694c0-.74724-.4123779-1.20613-1.1317138-1.20613-.5022949 0-.8433594.22324-1.0200928.59531h-.015503v-.25735c0-.20773-.1333252-.34106-.32556151-.34106-.19533691 0-.31936035.13333-.31936035.33796v2.68821c0 .22014.13642578.35347.33486338.35347zM4.3878058 127.35884c.217041 0 .3906739-.17363.3906739-.38447 0-.21395-.1736329-.38138-.3906739-.38138-.2139404 0-.3875732.16743-.3875732.38138 0 .21084.1736328.38447.3875732.38447zm0 3.81372c.2015381 0 .3348633-.13953.3348633-.35347v-2.6696c0-.21704-.1333252-.35657-.3348633-.35657-.201538 0-.3348632.13953-.3348632.35657v2.6696c0 .21394.1333252.35347.3348632.35347zM6.821765 131.17566c.6077149 0 1.0821045-.24495 1.2960449-.67283.027905-.0651.046509-.12712.046509-.17983 0-.16743-.1178223-.27285-.2790527-.27285-.096118 0-.1643311.0341-.2356446.11782-.2480468.33796-.4774902.46509-.8433593.46509-.5333008 0-.8681641-.37207-.8681641-.96739v-.0155h1.9719727c.2077392 0 .3317627-.12402.3317627-.34106 0-.88987-.5984131-1.51619-1.4665772-1.51619-.9239746 0-1.5130859.66973-1.5130859 1.70532 0 1.0542.576709 1.67742 1.5595945 1.67742zm-.8805664-1.99368c.034107-.50849.3689697-.84956.830957-.84956.4650879 0 .7844483.33797.7999512.84956zM9.8851439 131.17256c.4991941 0 .8309571-.22014 1.0107911-.61082h.0155v.27285c0 .20464.130224.33797.322461.33797.192236 0 .31936-.13333.31936-.34107v-2.682c0-.22324-.136426-.35657-.334863-.35657-.195337 0-.334863.13333-.334863.35657v1.603c0 .5085-.291455.84336-.775147.84336-.4619872 0-.6976317-.26665-.6976317-.76274v-1.68362c0-.22324-.1395264-.35657-.3348633-.35657-.1984375 0-.3348633.13333-.3348633.35657v1.81384c0 .74724.4340821 1.20923 1.1441162 1.20923zM12.551649 131.17256c.198437 0 .334863-.13643.334863-.35347v-1.66501c0-.40618.186035-.71314.644922-.71624.139526 0 .238745-.0279.306958-.0868.06511-.0527.09922-.13023.09922-.23565 0-.10542-.02791-.18603-.08992-.23564-.05581-.0527-.145728-.0806-.26355-.0806-.325562 0-.626319.24495-.716236.61082h-.0155v-.27906c0-.20463-.130224-.33796-.316259-.33796-.189136 0-.319361.13333-.319361.33796v2.68821c0 .21704.133326.35347.334864.35347zM14.644544 131.17256c.195337 0 .331762-.12402.331762-.33486v-.27906h.0124c.201538.37827.573608.61082 1.047998.61082.830957 0 1.364258-.65113 1.364258-1.68672 0-1.0325-.536402-1.68362-1.358057-1.68362-.461987 0-.837158.22944-1.032495.60772h-.0155v-1.47278c0-.22014-.139526-.35347-.334863-.35347s-.334864.13333-.334864.35347v3.90364c0 .21084.127124.33486.319361.33486zm1.212329-.57051c-.505396 0-.865064-.44028-.865064-1.11931 0-.67283.359668-1.11931.865064-1.11931.527099 0 .855762.43408.855762 1.11931 0 .69143-.325562 1.11931-.855762 1.11931zM18.715613 127.36504c.204639 0 .36897-.16123.36897-.36277 0-.20154-.164331-.36277-.36897-.36277-.204638 0-.365869.16123-.365869.36277 0 .20154.161231.36277.365869.36277zm1.193726 0c.204639 0 .36897-.16123.36897-.36277 0-.20154-.164331-.36277-.36897-.36277-.204639 0-.365869.16123-.365869.36277 0 .20154.16123.36277.365869.36277zm-.858862 3.80752c.499194 0 .830957-.22014 1.010791-.61082h.0155v.27285c0 .20464.130224.33797.322461.33797.192236 0 .31936-.13333.31936-.34107v-2.682c0-.22324-.136426-.35657-.334863-.35657-.195337 0-.334864.13333-.334864.35657v1.603c0 .5085-.291455.84336-.775146.84336-.461987 0-.697632-.26665-.697632-.76274v-1.68362c0-.22324-.139526-.35657-.334863-.35657-.198438 0-.334863.13333-.334863.35657v1.81384c0 .74724.434082 1.20923 1.144116 1.20923zM21.716981 131.17256c.198438 0 .334864-.13643.334864-.35347v-1.66501c0-.40618.186035-.71314.644922-.71624.139526 0 .238745-.0279.306958-.0868.06511-.0527.09922-.13023.09922-.23565 0-.10542-.02791-.18603-.08992-.23564-.05581-.0527-.145727-.0806-.263549-.0806-.325562 0-.626319.24495-.716236.61082h-.0155v-.27906c0-.20463-.130224-.33796-.31626-.33796-.189135 0-.31936.13333-.31936.33796v2.68821c0 .21704.133325.35347.334863.35347zM24.730749 131.17566c.933277 0 1.547193-.64182 1.547193-1.69292 0-1.048-.617017-1.68982-1.547193-1.68982-.930175 0-1.547192.64182-1.547192 1.68982 0 1.0511.613916 1.69292 1.547192 1.69292zm0-.55191c-.523999 0-.865063-.41547-.865063-1.14101 0-.72244.341064-1.13792.865063-1.13792.523999 0 .865064.41548.865064 1.13792 0 .72554-.337964 1.14101-.865064 1.14101zM29.697889 131.18806c1.044897 0 1.708423-.5302 1.708423-1.37356 0-.65112-.384473-1.02629-1.323951-1.22473l-.486792-.10232c-.579809-.12402-.812353-.34106-.812353-.66662 0-.40928.387573-.66353.911572-.66353.446485 0 .787549.17673.939478.58911.07131.16123.173633.23875.341064.23875.179834 0 .306958-.11783.306958-.29766 0-.0651-.0093-.11782-.0248-.16123-.173633-.59841-.781348-.96118-1.553394-.96118-.95188 0-1.624707.5271-1.624707 1.29294 0 .64492.406177 1.0604 1.299145 1.24954l.489893.10232c.598413.13022.834058.34726.834058.69453 0 .39997-.406177.69143-.973584.69143-.517798 0-.923975-.19534-1.063501-.61392-.06821-.16743-.170533-.23874-.328662-.23874-.189136 0-.31316.13022-.31316.33176 0 .0744.0155.14883.03721.21704.173633.5209.768946.89607 1.63711.89607zM33.350378 131.17566c.933277 0 1.547193-.64182 1.547193-1.69292 0-1.048-.617017-1.68982-1.547193-1.68982-.930175 0-1.547192.64182-1.547192 1.68982 0 1.0511.613916 1.69292 1.547192 1.69292zm0-.55191c-.523999 0-.865063-.41547-.865063-1.14101 0-.72244.341064-1.13792.865063-1.13792.523999 0 .865064.41548.865064 1.13792 0 .72554-.337964 1.14101-.865064 1.14101zM35.95487 131.17256c.201539 0 .334864-.12713.334864-.35037v-2.44016h.430981c.15813 0 .266651-.093.266651-.26045 0-.16123-.108521-.26355-.266651-.26355h-.440283v-.29455c0-.29766.117822-.43098.399976-.43409.06821 0 .124023-.009.170532-.0217.10852-.031.16123-.0961.16123-.20464 0-.17983-.170532-.29455-.527099-.29455-.561206.003-.868164.29765-.868164.93017v.31936h-.232544c-.15813 0-.266651.10232-.266651.26355 0 .16743.108521.26045.266651.26045h.232544v2.44016c0 .22324.133325.35037.337963.35037zM37.663293 130.3323c0 .5395.279053.80925.827857.80925h.03411c.328662 0 .483692-.10232.483692-.30385 0-.15813-.09612-.23565-.288355-.25425l-.05271-.003c-.241846-.0186-.331763-.13643-.331763-.39688v-1.80144h.381373c.173632 0 .279052-.0992.279052-.26355 0-.16433-.10542-.26665-.279052-.26665h-.381377v-.48369c0-.21394-.133325-.35657-.334863-.35657-.204638 0-.337964.14263-.337964.35657v.48369h-.235644c-.173633 0-.279053.0992-.279053.26665 0 .16433.10542.26355.279053.26355h.235644zM40.481727 131.17256c.226342 0 .365869-.10852.427881-.33797l.604614-2.1642h.0155l.610815 2.1642c.06201.23875.192237.33797.42478.33797.220142 0 .356568-.10852.42168-.33797l.744141-2.56418c.0217-.0775.03101-.13332.03101-.18914 0-.17363-.127124-.28835-.322461-.28835-.167432 0-.26355.0899-.306958.27905l-.586011 2.34715h-.0155l-.623218-2.32234c-.04651-.19844-.176733-.30386-.378271-.30386-.204639 0-.337964.10542-.384473.30386l-.620117 2.32234h-.0124l-.586011-2.34715c-.04341-.18913-.142627-.27905-.310059-.27905-.195337 0-.325561.11472-.325561.28835 0 .0558.0093.11473.03411.18914l.744141 2.56418c.06821.23565.192236.33797.412378.33797zM45.120203 131.16946c.42478 0 .840258-.22945 1.029394-.59221h.0155v.27595c.0062.19844.133325.31936.31936.31936.189136 0 .322461-.12713.322461-.33797v-1.96887c0-.65422-.505395-1.0728-1.296045-1.0728-.58601 0-1.079004.23564-1.249536.60461-.04031.0744-.05891.14883-.05891.21705 0 .16743.120923.27905.288355.27905.117822 0 .204638-.0434.272851-.14263.186035-.29766.399976-.41238.722437-.41238.409277 0 .654223.21704.654223.57981v.25115l-.896069.0527c-.772046.0434-1.212329.39377-1.212329.96428 0 .58601.449585.98289 1.088306.98289zm.182934-.5302c-.356567 0-.595312-.18604-.595312-.47129 0-.27905.226342-.45579.626318-.48369l.806152-.0496v.25735c0 .42478-.368969.74724-.837158.74724zM47.786706 131.17256c.198438 0 .334864-.13643.334864-.35347v-1.66501c0-.40618.186035-.71314.644922-.71624.139526 0 .238745-.0279.306958-.0868.06511-.0527.09922-.13023.09922-.23565 0-.10542-.02791-.18603-.08992-.23564-.05581-.0527-.145727-.0806-.263549-.0806-.325562 0-.626319.24495-.716236.61082h-.0155v-.27906c0-.20463-.130224-.33796-.316259-.33796-.189136 0-.319361.13333-.319361.33796v2.68821c0 .21704.133325.35347.334863.35347zM50.812881 131.17566c.607714 0 1.082104-.24495 1.296044-.67283.02791-.0651.04651-.12712.04651-.17983 0-.16743-.117822-.27285-.279052-.27285-.09612 0-.164332.0341-.235645.11782-.248047.33796-.47749.46509-.843359.46509-.533301 0-.868164-.37207-.868164-.96739v-.0155h1.971972c.207739 0 .331763-.12402.331763-.34106 0-.88987-.598413-1.51619-1.466577-1.51619-.923975 0-1.513086.66973-1.513086 1.70532 0 1.0542.576709 1.67742 1.559595 1.67742zm-.880567-1.99368c.03411-.50849.36897-.84956.830957-.84956.465088 0 .784448.33797.799951.84956zM55.64359 131.18806c1.044898 0 1.708423-.5302 1.708423-1.37356 0-.65112-.384472-1.02629-1.32395-1.22473l-.486792-.10232c-.579809-.12402-.812353-.34106-.812353-.66662 0-.40928.387573-.66353.911572-.66353.446484 0 .787549.17673.939477.58911.07131.16123.173633.23875.341065.23875.179834 0 .306958-.11783.306958-.29766 0-.0651-.0093-.11782-.02481-.16123-.173633-.59841-.781348-.96118-1.553393-.96118-.95188 0-1.624707.5271-1.624707 1.29294 0 .64492.406176 1.0604 1.299145 1.24954l.489893.10232c.598413.13022.834057.34726.834057.69453 0 .39997-.406177.69143-.973584.69143-.517798 0-.923974-.19534-1.063501-.61392-.06821-.16743-.170532-.23874-.328662-.23874-.189136 0-.313159.13022-.313159.33176 0 .0744.0155.14883.03721.21704.173633.5209.768945.89607 1.637109.89607zM58.297695 132.32908c.604614 0 .911572-.26665 1.199927-1.0511l1.131714-2.99207c.0217-.0651.03411-.13332.03411-.18603 0-.17984-.133325-.30696-.325561-.30696-.170533 0-.26355.0744-.319361.25735l-.834057 2.45566h-.0093l-.830957-2.45566c-.05891-.18604-.155029-.25735-.322461-.25735-.195337 0-.341065.12712-.341065.31006 0 .0527.0124.12092.03721.18913l1.091407 2.85564-.06201.18914c-.120923.33486-.310059.43718-.496094.43718-.07751 0-.102319-.003-.173633-.003-.16123 0-.260449.093-.260449.23565 0 .20774.170532.32246.480591.32246zM62.30985 131.17566c.806153 0 1.348755-.40308 1.348755-1.00769 0-.48369-.26355-.72864-.948779-.88677l-.505396-.11782c-.344165-.0806-.502295-.22324-.502295-.42788 0-.25425.248047-.43098.607715-.43098.328662 0 .5271.13022.672827.37827.06511.10542.161231.14263.269751.14263.167432 0 .26045-.0992.26045-.24805 0-.031-.0062-.062-.0124-.0992-.09302-.38447-.576709-.68523-1.16582-.68523-.775147 0-1.286743.39067-1.286743.97979 0 .46508.310058.77514.942578.92397l.514697.12092c.350366.0837.47749.19844.47749.41238 0 .26975-.257348.43408-.63872.43408-.387574 0-.582911-.11782-.750342-.38137-.08372-.12402-.179834-.17673-.291455-.17673-.167432 0-.288355.0992-.288355.26665 0 .0434.0062.0899.02791.13952.155029.39998.626318.66353 1.268139.66353zM64.377943 130.3323c0 .5395.279052.80925.827856.80925h.03411c.328663 0 .483692-.10232.483692-.30385 0-.15813-.09612-.23565-.288355-.25425l-.05271-.003c-.241845-.0186-.331762-.13643-.331762-.39688v-1.80144h.381372c.173633 0 .279052-.0992.279052-.26355 0-.16433-.105419-.26665-.279052-.26665h-.381376v-.48369c0-.21394-.133325-.35657-.334864-.35657-.204638 0-.337963.14263-.337963.35657v.48369h-.235645c-.173633 0-.279053.0992-.279053.26665 0 .16433.10542.26355.279053.26355h.235645zM67.556045 131.17566c.607714 0 1.082104-.24495 1.296045-.67283.0279-.0651.04651-.12712.04651-.17983 0-.16743-.117822-.27285-.279052-.27285-.09612 0-.164331.0341-.235645.11782-.248047.33796-.47749.46509-.843359.46509-.533301 0-.868164-.37207-.868164-.96739v-.0155h1.971972c.20774 0 .331763-.12402.331763-.34106 0-.88987-.598413-1.51619-1.466577-1.51619-.923975 0-1.513086.66973-1.513086 1.70532 0 1.0542.576709 1.67742 1.559595 1.67742zm-.880567-1.99368c.03411-.50849.36897-.84956.830957-.84956.465088 0 .784449.33797.799951.84956zM69.825674 131.17256c.201538 0 .334863-.13953.334863-.35347v-1.72082c0-.41858.282153-.72864.679028-.72864.378272 0 .617017.23874.617017.61391v1.83555c0 .21394.127124.35347.328662.35347.201538 0 .328662-.13953.328662-.35347v-1.74253c0-.41238.275952-.70693.672827-.70693s.623218.24184.623218.66352v1.78594c0 .21394.133325.35347.334863.35347.201538 0 .337964-.13953.337964-.35347v-1.94717c0-.64802-.42168-1.0759-1.066602-1.0759-.465087 0-.84956.24185-1.016992.63872h-.0155c-.130224-.40618-.458886-.63872-.911572-.63872-.440283 0-.781348.24185-.927075.60461h-.0155v-.26665c0-.21394-.133325-.34106-.31936-.34106-.189136 0-.319361.13022-.319361.34106v2.68511c0 .21394.133325.35347.334864.35347zM75.927625 131.17566c.806152 0 1.348755-.40308 1.348755-1.00769 0-.48369-.26355-.72864-.948779-.88677l-.505396-.11782c-.344165-.0806-.502295-.22324-.502295-.42788 0-.25425.248047-.43098.607715-.43098.328662 0 .5271.13022.672827.37827.06511.10542.161231.14263.269751.14263.167432 0 .260449-.0992.260449-.24805 0-.031-.0062-.062-.0124-.0992-.09302-.38447-.576709-.68523-1.16582-.68523-.775147 0-1.286743.39067-1.286743.97979 0 .46508.310058.77514.942578.92397l.514697.12092c.350366.0837.47749.19844.47749.41238 0 .26975-.257348.43408-.63872.43408-.387574 0-.582911-.11782-.750342-.38137-.08372-.12402-.179834-.17673-.291455-.17673-.167432 0-.288355.0992-.288355.26665 0 .0434.0062.0899.02791.13952.155029.39998.626318.66353 1.268139.66353z" style="font-weight:500;-inkscape-font-specification:&quot;SF Pro Rounded Medium&quot;;fill:#fff" transform="translate(11.2172465 -46.6562057) scale(.99557946)"/><path d="M9.973497 139.05115h1.025778c1.111044 0 1.764751-.69247 1.764751-1.87069 0-1.17564-.656291-1.85777-1.764751-1.85777H9.973497c-.1808676 0-.2893882.11369-.2893882.29972v3.12901c0 .18604.1085206.29973.2893882.29973zm.289388-.50126v-2.72852h.682129c.788067 0 1.227316.48576 1.227316 1.36426 0 .88108-.436666 1.36426-1.227316 1.36426zM13.52367 139.10024c.165365 0 .279053-.11369.279053-.29456v-1.38751c0-.33848.155029-.59428.537435-.59686.116272 0 .198954-.0233.255799-.0724.05426-.0439.08268-.10852.08268-.19637 0-.0879-.02325-.15503-.07493-.19637-.04651-.0439-.12144-.0672-.219625-.0672-.271301 0-.521932.20412-.596863.50901h-.01292v-.23254c0-.17053-.108521-.28164-.26355-.28164-.157613 0-.266134.11111-.266134.28164v2.24017c0 .18087.111104.29456.279053.29456zM15.130808 139.07957c.188619 0 .338481-.14986.338481-.33848s-.149862-.33848-.338481-.33848c-.188619 0-.338481.14986-.338481.33848s.149862.33848.338481.33848zM16.358124 137.79024h1.237651c.15503 0 .271302-.0956.271302-.25321 0-.15503-.116272-.25063-.271302-.25063h-1.237651c-.155029 0-.268718.0956-.268718.25063 0 .15761.113689.25321.268718.25321zM18.758496 139.09249c.178284 0 .289388-.11369.289388-.29972v-3.2117c0-.18603-.111104-.29972-.289388-.29972-.180868 0-.289388.11369-.289388.29972v3.2117c0 .18603.10852.29972.289388.29972zM19.952222 139.10024c.162781 0 .279053-.1111.279053-.29456v-1.33842c0-.42116.253215-.70021.645956-.70021.387574 0 .578776.22479.578776.63303v1.4056c0 .18346.116272.29456.279053.29456.165365 0 .281637-.1111.281637-.29456v-1.51412c0-.6227-.343648-1.0051-.943095-1.0051-.41858 0-.7028.18603-.850078.49609h-.01292v-.21446c0-.17311-.111105-.28422-.271302-.28422-.162781 0-.266134.11111-.266134.28164v2.24017c0 .18346.113689.29456.279054.29456zM23.696181 140.07434c.808737.008 1.302247-.42633 1.302247-1.09812v-2.40554c0-.18087-.118856-.28681-.279053-.28681-.160197 0-.281636.10594-.281636.28681v.21962h-.01034c-.165364-.30747-.465088-.50126-.850078-.50126-.702799 0-1.142049.52968-1.142049 1.37976 0 .83974.444417 1.3746 1.12913 1.3746.387574 0 .707968-.19379.860413-.48835h.01292v.4315c0 .37982-.276469.63821-.731222.63304-.266134-.005-.457337-.10594-.679546-.33848-.07493-.0749-.129191-.10336-.214457-.10336-.14211 0-.237712.093-.237712.22221 0 .0646.0155.12144.05168.18345.186035.29456.576192.48576 1.069703.49093zm.01809-1.4857c-.428915 0-.707967-.34881-.707967-.91725 0-.56586.279052-.92243.707967-.92243.436666 0 .726054.3669.726054.92501s-.289388.91467-.726054.91467zM25.962195 139.07957c.188619 0 .338481-.14986.338481-.33848s-.149862-.33848-.338481-.33848c-.188619 0-.338481.14986-.338481.33848s.149862.33848.338481.33848zM28.685544 139.11316c.726054 0 1.160136-.42892 1.160136-1.16789v-2.3642c0-.18603-.111104-.29972-.289388-.29972-.180868 0-.289388.11369-.289388.29972v2.36162c0 .42374-.206706.6537-.586528.6537-.281637 0-.480591-.16019-.56069-.44958-.04651-.17053-.134358-.24546-.281636-.24546-.165365 0-.271302.10852-.271302.28422 0 .10335.02067.17828.05426.2713.152446.40566.555522.65629 1.064536.65629zM31.135009 135.92731c.170532 0 .307475-.13436.307475-.30231 0-.16795-.136943-.30231-.307475-.30231s-.304891.13436-.304891.30231c0 .16795.134359.30231.304891.30231zm.994772 0c.170532 0 .307475-.13436.307475-.30231 0-.16795-.136943-.30231-.307475-.30231-.170533 0-.304891.13436-.304891.30231 0 .16795.134358.30231.304891.30231zm-.715719 3.17293c.415995 0 .692464-.18345.842326-.50901h.01292v.22737c0 .17054.108521.28164.268718.28164s.266134-.1111.266134-.28422v-2.23501c0-.18603-.113689-.29714-.279053-.29714-.162781 0-.279053.11111-.279053.29714v1.33584c0 .42375-.24288.7028-.645956.7028-.38499 0-.58136-.22221-.58136-.63562v-1.40302c0-.18603-.116272-.29714-.279053-.29714-.165365 0-.279053.11111-.279053.29714v1.51154c0 .6227.361735 1.00769.953431 1.00769zM33.63615 139.10024c.165365 0 .279053-.11369.279053-.29456v-1.38751c0-.33848.155029-.59428.537435-.59686.116272 0 .198954-.0233.255799-.0724.05426-.0439.08268-.10852.08268-.19637 0-.0879-.02325-.15503-.07493-.19637-.04651-.0439-.12144-.0672-.219625-.0672-.271301 0-.521932.20412-.596863.50901h-.01292v-.23254c0-.17053-.108521-.28164-.26355-.28164-.157613 0-.266134.11111-.266134.28164v2.24017c0 .18087.111104.29456.279053.29456zM36.119204 140.07434c.808736.008 1.302246-.42633 1.302246-1.09812v-2.40554c0-.18087-.118855-.28681-.279052-.28681-.160197 0-.281637.10594-.281637.28681v.21962h-.01033c-.165365-.30747-.465089-.50126-.850078-.50126-.7028 0-1.14205.52968-1.14205 1.37976 0 .83974.444417 1.3746 1.129131 1.3746.387573 0 .707967-.19379.860413-.48835h.01292v.4315c0 .37982-.276469.63821-.731222.63304-.266134-.005-.457337-.10594-.679546-.33848-.07493-.0749-.129191-.10336-.214457-.10336-.14211 0-.237712.093-.237712.22221 0 .0646.0155.12144.05168.18345.186035.29456.576192.48576 1.069703.49093zm.01809-1.4857c-.428914 0-.707967-.34881-.707967-.91725 0-.56586.279053-.92243.707967-.92243.436666 0 .726055.3669.726055.92501s-.289389.91467-.726055.91467zM39.144861 139.10282c.50643 0 .901755-.20412 1.080038-.56069.02325-.0543.03876-.10593.03876-.14986 0-.13952-.09819-.22737-.232544-.22737-.0801 0-.136943.0284-.196371.0982-.206706.28164-.397909.38757-.7028.38757-.444417 0-.72347-.31005-.72347-.80615v-.0129h1.643311c.173116 0 .276469-.10335.276469-.28422 0-.74155-.498678-1.26349-1.222148-1.26349-.769979 0-1.260906.55811-1.260906 1.42111 0 .8785.480591 1.39784 1.299663 1.39784zm-.733805-1.66139c.02842-.42375.307474-.70797.692464-.70797.387574 0 .653707.28163.666627.70797zM41.036218 139.10024c.162781 0 .279053-.1111.279053-.29456v-1.33842c0-.42116.253215-.70021.645956-.70021.387573 0 .578776.22479.578776.63303v1.4056c0 .18346.116272.29456.279053.29456.165365 0 .281637-.1111.281637-.29456v-1.51412c0-.6227-.343649-1.0051-.943096-1.0051-.418579 0-.702799.18603-.850077.49609h-.01292v-.21446c0-.17311-.111104-.28422-.271301-.28422-.162781 0-.266134.11111-.266134.28164v2.24017c0 .18346.113688.29456.279053.29456zM45.072153 139.05115h1.850017c.160197 0 .268718-.0982.268718-.25063 0-.15245-.108521-.25063-.268718-.25063h-1.560629v-1.15756h1.475363c.155029 0 .258382-.0956.258382-.24029 0-.14728-.105937-.2403-.258382-.2403h-1.475363v-1.08779h1.560629c.160197 0 .268718-.0982.268718-.25063 0-.15244-.108521-.25063-.268718-.25063h-1.850017c-.180868 0-.289389.11369-.289389.29972v3.12901c0 .18604.108521.29973.289389.29973zM47.981537 139.10024c.162781 0 .279053-.1111.279053-.29456v-1.3255c0-.42891.253215-.71313.666626-.71313.392741 0 .59428.24029.59428.64079v1.39784c0 .18346.116272.29456.279053.29456.165364 0 .281636-.1111.281636-.29456v-1.50636c0-.61495-.356567-1.01286-.95343-1.01286-.413412 0-.710552.18345-.860414.50126h-.01292v-1.22473c0-.1757-.103353-.28939-.276469-.28939-.170532 0-.276469.11369-.276469.28939v3.24269c0 .18346.116272.29456.279053.29456zM50.896089 139.10024c.165365 0 .279053-.11369.279053-.29456v-1.38751c0-.33848.155029-.59428.537435-.59686.116272 0 .198955-.0233.255799-.0724.05426-.0439.08268-.10852.08268-.19637 0-.0879-.02325-.15503-.07493-.19637-.04651-.0439-.12144-.0672-.219625-.0672-.271301 0-.521932.20412-.596863.50901h-.01292v-.23254c0-.17053-.108521-.28164-.26355-.28164-.157613 0-.266134.11111-.266134.28164v2.24017c0 .18087.111105.29456.279053.29456zM53.417898 139.10282c.50643 0 .901755-.20412 1.080038-.56069.02325-.0543.03876-.10593.03876-.14986 0-.13952-.09819-.22737-.232544-.22737-.0801 0-.136943.0284-.196371.0982-.206706.28164-.397909.38757-.7028.38757-.444417 0-.72347-.31005-.72347-.80615v-.0129h1.643311c.173116 0 .276469-.10335.276469-.28422 0-.74155-.498678-1.26349-1.222148-1.26349-.769979 0-1.260906.55811-1.260906 1.42111 0 .8785.480591 1.39784 1.299663 1.39784zm-.733806-1.66139c.02842-.42375.307475-.70797.692465-.70797.387574 0 .653707.28163.666626.70797zM55.192987 138.40002c0 .44959.232544.67438.689881.67438h.02842c.273885 0 .403076-.0853.403076-.25321 0-.13178-.0801-.19637-.240295-.21188l-.04393-.003c-.201539-.0155-.276469-.11369-.276469-.33073v-1.5012h.31781c.144694 0 .232544-.0827.232544-.21963 0-.13694-.08785-.2222-.232544-.2222h-.31781v-.40308c0-.17828-.111105-.29714-.279053-.29714-.170533 0-.281637.11886-.281637.29714v.40308h-.196371c-.144694 0-.232544.0827-.232544.2222 0 .13695.08785.21963.232544.21963h.196371z" style="font-weight:500;font-size:5.29167px;-inkscape-font-specification:&quot;SF Pro Rounded Medium&quot;;fill:#fff" transform="translate(11.2172465 -46.6562057) scale(.99557946)"/></g></g></svg>