<svg width="882.73358" height="947.04651" viewBox="0 0 233.55653 250.57266" xmlns="http://www.w3.org/2000/svg"><defs><path id="c" d="M1600.6648 5530.2114h158.57976v94.550331H1600.6648z"/><path id="b" d="M157-13h55v40h-55z"/><path id="e" d="M1600.6648 5530.2114h158.57976v94.550331H1600.6648z"/><path id="d" d="M157-13h55v40h-55z"/><filter style="color-interpolation-filters:sRGB" id="a" x="-.05642297" y="-.03515585" width="1.1128459" height="1.0703117"><feGaussianBlur stdDeviation="1.1384116"/></filter></defs><text xml:space="preserve" transform="matrix(.26458 0 0 .26458 -119.50634 -1942.7517)" style="font-size:36px;line-height:1.25;font-family:Lato;-inkscape-font-specification:Lato;text-align:center;letter-spacing:0;white-space:pre;shape-inside:url(#b)"><tspan x="157" y="60.48"><tspan dx="0 20.882812 20.039062 14.484375 18.84375">Ehret</tspan></tspan></text><text xml:space="preserve" transform="matrix(.26458 0 0 .26458 426.53347 -2150.4431)" style="font-size:36px;line-height:1.25;font-family:Lato;-inkscape-font-specification:Lato;text-align:center;letter-spacing:0;white-space:pre;shape-inside:url(#d)"><tspan x="157" y="60.48"><tspan dx="0 20.882812 20.039062 14.484375 18.84375">Ehret</tspan></tspan></text><g style="display:inline"><path style="display:inline;vector-effect:none;fill:#000;fill-opacity:.35;stroke-width:.828176;stroke-opacity:.968165;stop-color:#000" d="M425.60398-142.17639h233.55654v250.57266H425.60398Z" transform="translate(-425.60398 142.17639)"/></g><g style="display:inline"><g style="display:inline;stroke-width:.95413"><path style="display:inline;fill:none;fill-opacity:1;stroke:#fff;stroke-width:2.27202;stroke-miterlimit:4;stroke-dasharray:none;stroke-opacity:1;stop-color:#000" d="M-132.42407 448.2864a13.08618 7.5675644 0 0 1-13.0861 7.56752 13.08618 7.5675644 0 0 1-13.0861-7.56752 13.08618 7.5675644 0 0 1 13.0861-7.56749 13.08618 7.5675644 0 0 1 13.0861 7.56749z" transform="matrix(.8487 0 0 .84919 305.44338 -309.79271)"/><path style="display:inline;fill:none;fill-opacity:1;stroke:#fff;stroke-width:2.77692;stroke-miterlimit:4;stroke-dasharray:none;stroke-opacity:1;stop-color:#000" d="M-130.24713 448.2864a22.072017 13.147164 0 0 1-22.0719 13.14707 22.072017 13.147164 0 0 1-22.0719-13.14707 22.072017 13.147164 0 0 1 22.0719-13.14704 22.072017 13.147164 0 0 1 22.0719 13.14704z" transform="matrix(.8487 0 0 .84919 305.44338 -309.79271)"/><path style="display:inline;fill:none;fill-opacity:1;stroke:#fff;stroke-width:3.2818;stroke-miterlimit:4;stroke-dasharray:none;stroke-opacity:1;stop-color:#000" d="M-127.49585 448.28639a37.060391 22.626378 0 0 1-37.0602 22.62622 37.060391 22.626378 0 0 1-37.0601-22.62622 37.060391 22.626378 0 0 1 37.0601-22.62616 37.060391 22.626378 0 0 1 37.0602 22.62616z" transform="matrix(.8487 0 0 .84919 305.44338 -309.79271)"/><path style="display:inline;fill:none;fill-opacity:1;stroke:#fff;stroke-width:3.78671;stroke-miterlimit:4;stroke-dasharray:none;stroke-opacity:1;stop-color:#000" d="M-124.06333 448.28638a61.7609 38.415188 0 0 1-61.7606 38.41491 61.7609 38.415188 0 0 1-61.7605-38.41491 61.7609 38.415188 0 0 1 61.7605-38.41483 61.7609 38.415188 0 0 1 61.7606 38.41483z" transform="matrix(.8487 0 0 .84919 305.44338 -309.79271)"/><path style="display:inline;fill:none;fill-opacity:1;stroke:#fff;stroke-width:4.2916;stroke-miterlimit:4;stroke-dasharray:none;stroke-opacity:1;stop-color:#000" d="M-120.1248 448.28634A102.17561 64.412905 0 0 1-222.3 512.69879a102.17561 64.412905 0 0 1-102.1749-64.41245A102.17561 64.412905 0 0 1-222.3 383.87404a102.17561 64.412905 0 0 1 102.1752 64.4123z" transform="matrix(.8487 0 0 .84919 305.44338 -309.79271)"/></g></g><g style="display:inline"><g aria-label="Software Systems" style="font-size:21.1667px;line-height:1.25;font-family:'PT Sans';-inkscape-font-specification:'PT Sans';text-align:center;letter-spacing:.47625px;text-anchor:middle;display:inline;stroke-width:.264583"><path d="M36.681466 206.87317h-3.217338q-.02117 1.397.508001 2.413.529167 1.01601 1.418169 1.67217.910168.65617 2.074336.95251 1.185335.3175 2.434171.3175 1.545169 0 2.709337-.35984 1.185336-.35983 1.968504-.99483.804334-.65617 1.206501-1.54517.402168-.889.402168-1.92617 0-1.27-.550334-2.07434-.529168-.8255-1.270002-1.31233-.740835-.48684-1.502836-.6985-.740835-.23284-1.164169-.31751-1.418169-.35983-2.30717-.59266-.867835-.23284-1.375836-.46567-.486834-.23283-.656167-.508-.169334-.27517-.169334-.71967 0-.48683.211667-.80433t.529168-.52917q.338667-.21167.740834-.29633.402167-.0847.804335-.0847.613834 0 1.121835.10583.529167.10584.931335.35984.402167.254.635001.6985.254.4445.296334 1.12183h3.217338q0-1.31233-.508001-2.2225-.486834-.93134-1.333502-1.524-.846668-.59267-1.947336-.84667-1.079502-.27517-2.264837-.27517-1.016002 0-2.032004.27517-1.016001.27517-1.820336.84667-.804334.5715-1.312335 1.43933-.486834.84667-.486834 2.01084 0 1.03717.381 1.778.402168.71967 1.037169 1.2065.635001.48684 1.439335.80434.804335.29633 1.651003.508.825501.23283 1.629836.42333.804334.1905 1.439335.4445t1.016002.635q.402167.381.402167.99484 0 .5715-.296333.9525-.296334.35983-.740835.5715-.444501.21167-.952502.29634-.508.0635-.952501.0635-.656168 0-1.270002-.14817-.613834-.16934-1.079502-.48684-.4445-.33866-.719668-.86783-.275167-.52917-.275167-1.29117zM50.967665 206.42867q0-.65617.127001-1.29117.127-.635.423334-1.12183.3175-.48684.825501-.78317.508001-.3175 1.270002-.3175t1.270002.3175q.529168.29633.825501.78317.317501.48683.444501 1.12183.127.635.127 1.29117 0 .65617-.127 1.29117-.127.61383-.444501 1.12183-.296333.48684-.825501.78317-.508001.29634-1.270002.29634t-1.270002-.29634q-.508001-.29633-.825501-.78317-.296334-.508-.423334-1.12183-.127001-.635-.127001-1.29117zm-3.005671 0q0 1.31234.402167 2.37067.402168 1.05834 1.143002 1.82034.740835.74083 1.778003 1.143 1.037168.40217 2.328337.40217 1.291169 0 2.328337-.40217 1.058335-.40217 1.79917-1.143.740834-.762 1.143001-1.82034.402168-1.05833.402168-2.37067t-.402168-2.37067q-.402167-1.0795-1.143001-1.82034-.740835-.762-1.79917-1.16416-1.037168-.42334-2.328337-.42334-1.291169 0-2.328337.42334-1.037168.40216-1.778003 1.16416-.740834.74084-1.143002 1.82034-.402167 1.05833-.402167 2.37067zM62.372879 202.95733v8.93235h3.005671v-8.93235h2.074337v-2.01084H65.37855v-.65616q0-.67734.254001-.9525.275167-.29634.889001-.29634.571501 0 1.100669.0635v-2.24367q-.381001-.0212-.783168-.0423-.402168-.0423-.804335-.0423-1.841503 0-2.751671.93134-.910168.93133-.910168 2.39184v.84666h-1.79917v2.01084zM73.072312 200.94649v-3.28083h-3.005671v3.28083h-1.820336v2.01084h1.820336v6.45585q0 .8255.275167 1.3335.275167.508.740835.78317.486834.27516 1.100668.35983.635001.10583 1.333502.10583.444501 0 .910168-.0212.465668-.0212.846668-.0847v-2.32834q-.211667.0423-.4445.0635-.232834.0212-.486835.0212-.762001 0-1.016001-.254-.254001-.254-.254001-1.016v-5.41868h2.201337v-2.01084zM89.689497 211.88968l3.450173-10.94319h-3.090339l-2.010836 7.40835h-.04233l-1.862669-7.40835h-2.921005l-1.820336 7.42952h-.04233l-2.010837-7.42952h-3.175005l3.471339 10.94319h3.111505l1.862669-7.34485h.04233l1.947336 7.34485zM94.768512 204.312q.0635-1.05833.529167-1.75684.465667-.6985 1.185335-1.12183.719668-.42334 1.60867-.59267.910168-.1905 1.820336-.1905.8255 0 1.67217.127.84667.10583 1.54517.4445.6985.33867 1.143.9525.4445.59267.4445 1.58751v5.69384q0 .74083.0847 1.41817.0847.67733.29633 1.016h-3.048q-.0847-.254-.14817-.508-.0423-.27517-.0635-.55034-.71967.74084-1.69334 1.03717-.973665.29634-1.989666.29634-.783168 0-1.460503-.1905-.677334-.1905-1.185335-.59267t-.804335-1.016q-.275167-.61384-.275167-1.46051 0-.93133.317501-1.524.338667-.61383.846668-.97367.529167-.35983 1.185335-.52916.677335-.1905 1.354669-.29634.677334-.10583 1.333502-.16933.656171-.0635 1.164171-.1905.508-.127.80433-.35984.29634-.254.27517-.71966 0-.48684-.16933-.762-.14817-.29634-.42334-.44451-.254-.16933-.61383-.21166-.33867-.0635-.740837-.0635-.889002 0-1.397002.381-.508001.381-.592668 1.27zm6.942678 2.2225q-.1905.16934-.48683.27517-.27517.0847-.61384.14817-.3175.0635-.677334.10583-.359833.0423-.719667.10583-.338668.0635-.677335.16934-.3175.10583-.571501.29633-.232833.16934-.381.4445-.148167.27517-.148167.6985 0 .40217.148167.67734t.402167.4445q.254.14817.592668.21167.338667.0635.698501.0635.889001 0 1.375831-.29634.48684-.29633.71967-.6985.23284-.42333.27517-.84667.0635-.42333.0635-.67733zM107.52608 200.94649v10.94319h3.00567v-4.93184q0-.74084.14817-1.37584.14816-.635.48683-1.10067.35983-.48683.93133-.762.57151-.27516 1.39701-.27516.27516 0 .5715.0423.29633.0212.508.0635v-2.79401q-.35984-.10583-.65617-.10583-.5715 0-1.10067.16933-.52917.16934-.99483.48684-.46567.29633-.8255.74083-.35984.42334-.5715.93134h-.0423v-2.03201zM123.19802 205.24334h-4.88951q.0212-.31751.127-.71967.127-.40217.40217-.762.29633-.35984.762-.59267.48684-.254 1.2065-.254 1.10067 0 1.62984.59267.55033.59266.762 1.73567zm-4.88951 1.905h7.89518q.0847-1.27-.21167-2.43417-.29633-1.16417-.97366-2.07434-.65617-.91017-1.69334-1.43933-1.03717-.55034-2.43417-.55034-1.24884 0-2.286.4445-1.01601.4445-1.75684 1.22767-.74083.762-1.143 1.82034-.40217 1.05833-.40217 2.286 0 1.27.381 2.32834.40217 1.05833 1.12184 1.82033.71966.762 1.75683 1.18534 1.03717.40217 2.32834.40217 1.86267 0 3.175-.84667 1.31234-.84667 1.94734-2.81517h-2.64584q-.14816.508-.80433.97367-.65617.4445-1.56634.4445-1.27 0-1.94733-.65617-.67734-.65617-.74084-2.11667zM137.37542 206.87317h-3.21734q-.0212 1.397.508 2.413.52917 1.01601 1.41817 1.67217.91017.65617 2.07434.95251 1.18533.3175 2.43417.3175 1.54517 0 2.70934-.35984 1.18533-.35983 1.9685-.99483.80433-.65617 1.2065-1.54517.40217-.889.40217-1.92617 0-1.27-.55033-2.07434-.52917-.8255-1.27001-1.31233-.74083-.48684-1.50283-.6985-.74084-.23284-1.16417-.31751-1.41817-.35983-2.30717-.59266-.86784-.23284-1.37584-.46567-.48683-.23283-.65616-.508-.16934-.27517-.16934-.71967 0-.48683.21167-.80433t.52917-.52917q.33866-.21167.74083-.29633.40217-.0847.80434-.0847.61383 0 1.12183.10583.52917.10584.93134.35984.40216.254.635.6985.254.4445.29633 1.12183h3.21734q0-1.31233-.508-2.2225-.48684-.93134-1.3335-1.524-.84667-.59267-1.94734-.84667-1.0795-.27517-2.26484-.27517-1.016 0-2.032.27517t-1.82034.84667q-.80433.5715-1.31233 1.43933-.48684.84667-.48684 2.01084 0 1.03717.381 1.778.40217.71967 1.03717 1.2065.635.48684 1.43934.80434.80433.29633 1.651.508.8255.23283 1.62984.42333.80433.1905 1.43933.4445t1.016.635q.40217.381.40217.99484 0 .5715-.29633.9525-.29634.35983-.74084.5715-.4445.21167-.9525.29634-.508.0635-.9525.0635-.65617 0-1.27-.14817-.61384-.16934-1.0795-.48684-.44451-.33866-.71967-.86783-.27517-.52917-.27517-1.29117zM154.39212 213.24435l4.57201-12.29786h-3.11151l-2.39183 7.49302h-.0423l-2.4765-7.49302h-3.19617l3.83117 10.26585q.127.31751.127.67734 0 .48683-.29633.889-.27517.40217-.86784.46567-.4445.0212-.889-.0212-.4445-.0423-.86783-.0847v2.47651q.46566.0423.91016.0635.46567.0423.93134.0423 1.54517 0 2.413-.5715.86784-.5715 1.35467-1.905zM162.79597 208.33367h-2.85751q.0423 1.10067.48684 1.84151.46566.71966 1.16416 1.16416.71967.44451 1.62984.63501.91017.1905 1.86267.1905.93133 0 1.82034-.1905.91016-.16934 1.60866-.61384.69851-.4445 1.12184-1.16417.4445-.74083.4445-1.82033 0-.762-.29633-1.27001-.29634-.52916-.78317-.86783-.48684-.35983-1.12184-.5715-.61383-.21167-1.27-.35983-.635-.14817-1.24883-.27517-.61384-.127-1.10067-.27517-.46567-.16933-.762-.42333-.29634-.254-.29634-.65617 0-.33867.16934-.52917.16933-.21167.40216-.3175.254-.10583.55034-.127.29633-.0423.55033-.0423.80434 0 1.397.3175.59267.29633.65617 1.16417h2.85751q-.0847-1.016-.52917-1.67217-.42333-.67734-1.0795-1.0795-.65617-.40217-1.50284-.57151-.8255-.16933-1.7145-.16933-.889 0-1.73567.16933-.84667.14817-1.524.55034-.67734.381-1.10067 1.05833-.40217.67734-.40217 1.73567 0 .71967.29634 1.22767.29633.48684.78316.8255.48684.3175 1.10067.52917.635.1905 1.29117.33867 1.60867.33867 2.49767.67733.91017.33867.91017 1.016 0 .40217-.1905.67734-.1905.254-.48684.42333-.27516.14817-.635.23284-.33866.0635-.65616.0635-.4445 0-.86784-.10584-.40217-.10583-.71967-.3175-.3175-.23283-.52916-.5715-.1905-.35983-.1905-.84667zM176.12271 200.94649v-3.28083h-3.00567v3.28083h-1.82034v2.01084h1.82034v6.45585q0 .8255.27517 1.3335.27516.508.74083.78317.48684.27516 1.10067.35983.635.10583 1.3335.10583.4445 0 .91017-.0212.46567-.0212.84667-.0847v-2.32834q-.21167.0423-.4445.0635-.23284.0212-.48684.0212-.762 0-1.016-.254t-.254-1.016v-5.41868h2.20134v-2.01084zM187.5964 205.24334h-4.88951q.0212-.31751.127-.71967.127-.40217.40217-.762.29633-.35984.762-.59267.48683-.254 1.2065-.254 1.10067 0 1.62984.59267.55033.59266.762 1.73567zm-4.88951 1.905h7.89518q.0847-1.27-.21167-2.43417-.29633-1.16417-.97367-2.07434-.65616-.91017-1.69333-1.43933-1.03717-.55034-2.43417-.55034-1.24884 0-2.28601.4445-1.016.4445-1.75683 1.22767-.74084.762-1.14301 1.82034-.40216 1.05833-.40216 2.286 0 1.27.381 2.32834.40217 1.05833 1.12183 1.82033.71967.762 1.75684 1.18534 1.03717.40217 2.32834.40217 1.86267 0 3.175-.84667 1.31234-.84667 1.94734-2.81517h-2.64584q-.14817.508-.80433.97367-.65617.4445-1.56634.4445-1.27 0-1.94734-.65617-.67733-.65617-.74083-2.11667zM192.94561 200.94649v10.94319h3.00567v-6.35001q0-.80434.23283-1.29117.23283-.508.55034-.762.33866-.27517.67733-.35983.35983-.10584.5715-.10584.71967 0 1.0795.254.381.23284.52917.635.16933.40217.1905.889.0212.46567.0212.95251v6.13834h3.00567v-6.09601q0-.508.0635-.99484.0847-.508.29633-.889.23284-.40216.61384-.635.40216-.254 1.03716-.254.63501 0 .99484.21167.381.21167.5715.5715t.23283.84667q.0423.48683.0423 1.03717v6.20184h3.00567V204.566q0-1.05833-.29633-1.79917-.29634-.762-.82551-1.22767-.52916-.46566-1.27-.67733-.74083-.21167-1.60867-.21167-1.143 0-1.98967.55034-.8255.55033-1.31233 1.27-.4445-1.016-1.31234-1.41817-.84667-.40217-1.88383-.40217-1.07951 0-1.92617.46567-.82551.46567-1.41817 1.31233h-.0423v-1.48167zM214.84786 208.33367h-2.8575q.0423 1.10067.48683 1.84151.46567.71966 1.16417 1.16416.71967.44451 1.62983.63501.91017.1905 1.86267.1905.93134 0 1.82034-.1905.91017-.16934 1.60867-.61384.6985-.4445 1.12184-1.16417.4445-.74083.4445-1.82033 0-.762-.29634-1.27001-.29633-.52916-.78317-.86783-.48683-.35983-1.12183-.5715-.61384-.21167-1.27-.35983-.635-.14817-1.24884-.27517-.61383-.127-1.10067-.27517-.46566-.16933-.762-.42333-.29633-.254-.29633-.65617 0-.33867.16933-.52917.16934-.21167.40217-.3175.254-.10583.55033-.127.29634-.0423.55034-.0423.80433 0 1.397.3175.59267.29633.65617 1.16417h2.8575q-.0847-1.016-.52917-1.67217-.42333-.67734-1.0795-1.0795-.65617-.40217-1.50283-.57151-.8255-.16933-1.71451-.16933-.889 0-1.73567.16933-.84666.14817-1.524.55034-.67733.381-1.10067 1.05833-.40216.67734-.40216 1.73567 0 .71967.29633 1.22767.29633.48684.78317.8255.48683.3175 1.10067.52917.635.1905 1.29117.33867 1.60866.33867 2.49767.67733.91016.33867.91016 1.016 0 .40217-.1905.67734-.1905.254-.48683.42333-.27517.14817-.635.23284-.33867.0635-.65617.0635-.4445 0-.86783-.10584-.40217-.10583-.71967-.3175-.3175-.23283-.52917-.5715-.1905-.35983-.1905-.84667z" style="font-weight:700;font-family:'Helvetica Neue';-inkscape-font-specification:'Helvetica Neue Bold';fill:#fff" transform="translate(-11.01801 -10.88971)"/></g><g aria-label="Engineering Office" style="font-weight:700;font-size:21.1667px;line-height:1.25;font-family:'PT Sans';-inkscape-font-specification:'PT Sans Bold';text-align:center;letter-spacing:.264583px;text-anchor:middle;display:inline;stroke-width:.264583"><path d="M33.425546 157.93838v15.11303h11.472351v-2.79401h-8.14918v-3.70417h7.323679v-2.58234h-7.323679v-3.2385h7.979847v-2.79401zM47.09791 162.10822v10.94319h3.005672v-5.73618q0-1.67217.550334-2.39184.550334-.74083 1.778003-.74083 1.079502 0 1.502836.67733.423334.65617.423334 2.01084v6.18068h3.005671v-6.73101q0-1.01601-.1905-1.84151-.169334-.84666-.613835-1.41817-.4445-.59266-1.227668-.91016-.762001-.33867-1.968503-.33867-.952502 0-1.86267.4445-.910168.42333-1.481669 1.37584h-.0635v-1.52401zM65.031396 170.46907q-.698501 0-1.164169-.29633-.465667-.29634-.762001-.76201-.275167-.46566-.402167-1.03716-.105834-.59267-.105834-1.18534 0-.61383.127-1.16417.148167-.5715.444501-.99483.317501-.4445.762001-.6985.465668-.254 1.100669-.254.740834 0 1.227668.27516.486835.27517.783168.74084.296334.46566.423334 1.0795.127001.59267.127001 1.27 0 .59267-.169334 1.143-.148167.52917-.465667.9525-.317501.42334-.804335.67734-.486834.254-1.121835.254zm5.418675 1.88384v-10.24469h-2.857504v1.46051h-.04233q-.550334-.95251-1.375835-1.35467-.804335-.40217-1.883837-.40217-1.143002 0-2.032003.4445-.867835.4445-1.460502 1.2065-.592668.74084-.910168 1.73567-.296334.97367-.296334 2.032 0 1.12184.254 2.13784.275167.99484.846668 1.75684.571501.74083 1.460503 1.18533.889001.42334 2.11667.42334.994834 0 1.883836-.40217.910168-.42333 1.397002-1.29117h.04233v1.43934q.02117 1.16416-.571501 1.92617-.571501.762-1.841503.762-.804335 0-1.418169-.33867-.613835-.3175-.825502-1.16417h-2.984504q.0635.93134.508001 1.5875.465667.67734 1.143001 1.10067.698501.42334 1.524003.61384.846668.21166 1.651002.21166 1.883837 0 3.005672-.508 1.121835-.508 1.714503-1.24883.592667-.71967.762001-1.56634.1905-.84667.1905-1.50283zM76.224941 160.41489v-2.47651H73.21927v2.47651zm-3.005671 1.69333v10.94319h3.005671v-10.94319zM78.856225 162.10822v10.94319h3.005672v-5.73618q0-1.67217.550334-2.39184.550334-.74083 1.778003-.74083 1.079502 0 1.502836.67733.423334.65617.423334 2.01084v6.18068h3.005671v-6.73101q0-1.01601-.1905-1.84151-.169334-.84666-.613835-1.41817-.4445-.59266-1.227668-.91016-.762001-.33867-1.968503-.33867-.952502 0-1.86267.4445-.910168.42333-1.481669 1.37584h-.0635v-1.52401zM99.054551 166.40506h-4.889508q.02117-.3175.127-.71966.127-.40217.402167-.76201.296334-.35983.762002-.59266.486834-.254 1.206502-.254 1.100668 0 1.629835.59266.550335.59267.762002 1.73567zm-4.889508 1.90501h7.895177q.0847-1.27001-.21166-2.43417-.29634-1.16417-.97367-2.07434-.65617-.91017-1.693339-1.43934-1.037168-.55033-2.434171-.55033-1.248835 0-2.286003.4445-1.016002.4445-1.756836 1.22767-.740835.762-1.143002 1.82033-.402168 1.05834-.402168 2.28601 0 1.27.381001 2.32834.402167 1.05833 1.121835 1.82033t1.756836 1.18534q1.037169.40216 2.328337.40216 1.86267 0 3.175005-.84666 1.312335-.84667 1.947335-2.81518h-2.645836q-.148167.50801-.804334.97367-.656168.4445-1.566336.4445-1.270002 0-1.947337-.65616-.677334-.65617-.740834-2.11667zM111.47345 166.40506h-4.88951q.0212-.3175.127-.71966.127-.40217.40217-.76201.29633-.35983.762-.59266.48683-.254 1.2065-.254 1.10067 0 1.62984.59266.55033.59267.762 1.73567zm-4.88951 1.90501h7.89518q.0847-1.27001-.21167-2.43417-.29633-1.16417-.97367-2.07434-.65617-.91017-1.69333-1.43934-1.03717-.55033-2.43417-.55033-1.24884 0-2.28601.4445-1.016.4445-1.75683 1.22767-.74084.762-1.14301 1.82033-.40216 1.05834-.40216 2.28601 0 1.27.381 2.32834.40217 1.05833 1.12183 1.82033.71967.762 1.75684 1.18534 1.03717.40216 2.32834.40216 1.86267 0 3.175-.84666 1.31234-.84667 1.94734-2.81518h-2.64584q-.14817.50801-.80433.97367-.65617.4445-1.56634.4445-1.27 0-1.94734-.65616-.67733-.65617-.74083-2.11667zM116.52633 162.10822v10.94319h3.00568v-4.93184q0-.74084.14816-1.37584.14817-.635.48684-1.10067.35983-.48683.93133-.762t1.397-.27517q.27517 0 .5715.0423.29634.0212.50801.0635v-2.79401q-.35984-.10583-.65617-.10583-.5715 0-1.10067.16933-.52917.16934-.99484.48684-.46566.29633-.8255.74083-.35983.42334-.5715.93134h-.0423v-2.03201zM128.10816 160.41489v-2.47651h-3.00567v2.47651zm-3.00567 1.69333v10.94319h3.00567v-10.94319zM130.73945 162.10822v10.94319h3.00567v-5.73618q0-1.67217.55033-2.39184.55034-.74083 1.778-.74083 1.07951 0 1.50284.67733.42333.65617.42333 2.01084v6.18068h3.00568v-6.73101q0-1.01601-.1905-1.84151-.16934-.84666-.61384-1.41817-.4445-.59266-1.22767-.91016-.762-.33867-1.9685-.33867-.9525 0-1.86267.4445-.91017.42333-1.48167 1.37584h-.0635v-1.52401zM148.67293 170.46907q-.6985 0-1.16417-.29633-.46567-.29634-.762-.76201-.27517-.46566-.40217-1.03716-.10583-.59267-.10583-1.18534 0-.61383.127-1.16417.14816-.5715.4445-.99483.3175-.4445.762-.6985.46567-.254 1.10067-.254.74083 0 1.22767.27516.48683.27517.78316.74084.29634.46566.42334 1.0795.127.59267.127 1.27 0 .59267-.16934 1.143-.14816.52917-.46566.9525-.3175.42334-.80434.67734-.48683.254-1.12183.254zm5.41867 1.88384v-10.24469h-2.8575v1.46051h-.0423q-.55033-.95251-1.37583-1.35467-.80434-.40217-1.88384-.40217-1.143 0-2.032.4445-.86784.4445-1.4605 1.2065-.59267.74084-.91017 1.73567-.29634.97367-.29634 2.032 0 1.12184.25401 2.13784.27516.99484.84666 1.75684.5715.74083 1.46051 1.18533.889.42334 2.11667.42334.99483 0 1.88383-.40217.91017-.42333 1.397-1.29117h.0423v1.43934q.0212 1.16416-.5715 1.92617-.5715.762-1.84151.762-.80433 0-1.41817-.33867-.61383-.3175-.8255-1.16417h-2.9845q.0635.93134.508 1.5875.46567.67734 1.143 1.10067.6985.42334 1.524.61384.84667.21166 1.65101.21166 1.88383 0 3.00567-.508 1.12183-.508 1.7145-1.24883.59267-.71967.762-1.56634.1905-.84667.1905-1.50283zM165.89568 165.55839q0-.99483.21167-1.92616.23283-.93134.71967-1.65101.48683-.74083 1.27-1.16417.78317-.4445 1.905-.4445 1.12184 0 1.905.4445.78317.42334 1.27001 1.16417.48683.71967.6985 1.65101.23283.93133.23283 1.92616 0 .95251-.23283 1.86267-.21167.88901-.6985 1.60867-.48684.71967-1.27001 1.16417-.78316.42334-1.905.42334-1.12183 0-1.905-.42334-.78317-.4445-1.27-1.16417-.48684-.71966-.71967-1.60867-.21167-.91016-.21167-1.86267zm-3.32317 0q0 1.65101.508 3.09034.508 1.41817 1.4605 2.47651.9525 1.05833 2.32834 1.67217 1.397.59266 3.13267.59266 1.75684 0 3.13267-.59266 1.37584-.61384 2.32834-1.67217.9525-1.05834 1.4605-2.47651.508-1.43933.508-3.09034 0-1.69333-.508-3.13267-.508-1.4605-1.4605-2.54-.9525-1.0795-2.32834-1.69334-1.37583-.61383-3.13267-.61383-1.73567 0-3.13267.61383-1.37584.61384-2.32834 1.69334-.9525 1.0795-1.4605 2.54-.508 1.43934-.508 3.13267zM186.69924 164.11906h-3.40784v8.93235h-3.00567v-8.93235h-1.79917v-2.01084h1.79917v-.84667q0-1.4605.91017-2.39183.91016-.93134 2.75167-.93134.40216 0 .80433.0423.40217.0212.78317.0423v2.24367q-.55033-.0635-1.10067-.0635-.61383 0-.889.29633-.254.27517-.254.95251v.65616h3.40784v-.84667q0-1.4605.91017-2.39183.91016-.93134 2.75167-.93134.40216 0 .80433.0423.40217.0212.78317.0423v2.24367q-.55033-.0635-1.10067-.0635-.61383 0-.889.29633-.254.27517-.254.95251v.65616h2.07434v2.01084h-2.07434v8.93235h-3.00567zm9.48268-3.70417h-3.00567v-2.47651h3.00567zm-3.00567 1.69333h3.00567v10.94319h-3.00567zM206.80827 165.96056h2.94217q-.0635-1.05833-.508-1.82033-.4445-.78317-1.16417-1.29117-.6985-.52917-1.60867-.78317-.889-.254-1.86267-.254-1.3335 0-2.37067.4445-1.03717.4445-1.75684 1.24883-.71967.78317-1.10067 1.88384-.35983 1.0795-.35983 2.34951 0 1.22766.40217 2.26483.40216 1.016 1.12183 1.75684.71967.74083 1.73567 1.16417 1.03717.40216 2.26484.40216 2.18017 0 3.57717-1.143 1.397-1.143 1.69334-3.32317h-2.89984q-.14817 1.016-.74084 1.62984-.5715.59266-1.651.59266-.6985 0-1.18533-.3175-.48684-.3175-.78317-.80433-.27517-.508-.40217-1.12184-.127-.61383-.127-1.2065 0-.61383.127-1.22767.127-.635.42334-1.143.3175-.52917.80433-.84667.48683-.33866 1.2065-.33866 1.92617 0 2.22251 1.88383zM219.14248 166.40506h-4.8895q.0212-.3175.127-.71966.127-.40217.40216-.76201.29634-.35983.762-.59266.48684-.254 1.20651-.254 1.10066 0 1.62983.59266.55034.59267.762 1.73567zm-4.8895 1.90501h7.89517q.0847-1.27001-.21166-2.43417-.29634-1.16417-.97367-2.07434-.65617-.91017-1.69334-1.43934-1.03716-.55033-2.43417-.55033-1.24883 0-2.286.4445-1.016.4445-1.75684 1.22767-.74083.762-1.143 1.82033-.40217 1.05834-.40217 2.28601 0 1.27.381 2.32834.40217 1.05833 1.12184 1.82033.71967.762 1.75684 1.18534 1.03716.40216 2.32833.40216 1.86267 0 3.17501-.84666 1.31233-.84667 1.94733-2.81518h-2.64583q-.14817.50801-.80434.97367-.65617.4445-1.56633.4445-1.27001 0-1.94734-.65616-.67733-.65617-.74083-2.11667z" style="font-family:'Helvetica Neue';-inkscape-font-specification:'Helvetica Neue Bold';fill:#fff" transform="translate(-11.01801 -10.88971)"/></g><g aria-label="for" style="font-weight:700;font-size:12.7px;line-height:1.25;font-family:'PT Sans';-inkscape-font-specification:'PT Sans Bold';text-align:center;letter-spacing:3.21469px;text-anchor:middle;display:inline;stroke-width:.264583"><path d="M117.20089 185.88982v5.3594h1.8034v-5.3594h1.2446v-1.2065h-1.2446v-.3937q0-.4064.1524-.5715.1651-.1778.5334-.1778.3429 0 .6604.0381v-1.3462q-.2286-.0127-.4699-.0254-.2413-.0254-.4826-.0254-1.1049 0-1.651.5588t-.5461 1.4351v.508h-1.0795v1.2065zM125.86368 187.97262q0-.3937.0762-.7747.0762-.381.254-.6731.1905-.2921.4953-.4699.3048-.1905.762-.1905t.762.1905q.3175.1778.4953.4699.1905.2921.2667.6731.0762.381.0762.7747 0 .3937-.0762.7747-.0762.3683-.2667.6731-.1778.2921-.4953.4699-.3048.1778-.762.1778t-.762-.1778q-.3048-.1778-.4953-.4699-.1778-.3048-.254-.6731-.0762-.381-.0762-.7747zm-1.8034 0q0 .7874.2413 1.4224.2413.635.6858 1.0922.4445.4445 1.0668.6858.6223.2413 1.397.2413t1.397-.2413q.635-.2413 1.0795-.6858.4445-.4572.6858-1.0922.2413-.635.2413-1.4224 0-.7874-.2413-1.4224-.2413-.6477-.6858-1.0922-.4445-.4572-1.0795-.6985-.6223-.254-1.397-.254t-1.397.254q-.6223.2413-1.0668.6985-.4445.4445-.6858 1.0922-.2413.635-.2413 1.4224zM135.24204 184.68332v6.5659h1.8034v-2.9591q0-.4445.0889-.8255t.2921-.6604q.2159-.2921.5588-.4572.3429-.1651.8382-.1651.1651 0 .3429.0254.1778.0127.3048.0381v-1.6764q-.2159-.0635-.3937-.0635-.3429 0-.6604.1016t-.5969.2921q-.2794.1778-.4953.4445-.2159.254-.3429.5588h-.0254v-1.2192z" style="font-family:'Helvetica Neue';-inkscape-font-specification:'Helvetica Neue Bold';fill:#fff" transform="translate(-11.01801 -10.88971)"/></g><g aria-label="Dr.-Ing. Jürgen Ehret" style="font-size:12.7px;line-height:1.25;font-family:'PT Sans';-inkscape-font-specification:'PT Sans';text-align:center;letter-spacing:3.21469px;text-anchor:middle;display:inline;stroke-width:.264583"><path d="M35.436476 239.35146v-5.715h1.4224q.7366 0 1.2319.2159.508.2032.8128.5969.3048.3937.4318.9525.1397.5461.1397 1.2319 0 .7493-.1905 1.27t-.508.8509q-.3175.3175-.7239.4572t-.8382.1397zm-1.9939-7.3914v9.0678h3.9116q1.0414 0 1.8034-.3429.7747-.3556 1.2827-.9652.5207-.6096.7747-1.4478t.254-1.8288q0-1.1303-.3175-1.9685-.3048-.8382-.8636-1.397-.5461-.5588-1.3081-.8382-.7493-.2794-1.6256-.2794zM45.867742 234.46196v6.5659h1.8034v-2.9591q0-.4445.0889-.8255t.2921-.6604q.2159-.2921.5588-.4572.3429-.1651.8382-.1651.1651 0 .3429.0254.1778.0127.3048.0381v-1.6764q-.2159-.0635-.3937-.0635-.3429 0-.6604.1016t-.5969.2921q-.2794.1778-.4953.4445-.2159.254-.3429.5588h-.0254v-1.2192zM52.915258 239.07206v1.9558h1.9939v-1.9558zM59.552196 236.78606v1.5494h3.8227v-1.5494zM68.129462 231.96006v9.0678h1.993899v-9.0678zM74.899159 234.46196v6.5659h1.8034v-3.4417q0-1.0033.3302-1.4351.3302-.4445 1.0668-.4445.6477 0 .9017.4064.254.3937.254 1.2065v3.7084h1.8034v-4.0386q0-.6096-.1143-1.1049-.1016-.508-.3683-.8509-.2667-.3556-.7366-.5461-.4572-.2032-1.1811-.2032-.5715 0-1.1176.2667-.5461.254-.889.8255h-.0381v-.9144zM88.715173 239.47846q-.4191 0-.6985-.1778-.2794-.1778-.4572-.4572-.1651-.2794-.2413-.6223-.0635-.3556-.0635-.7112 0-.3683.0762-.6985.0889-.3429.2667-.5969.1905-.2667.4572-.4191.2794-.1524.6604-.1524.4445 0 .7366.1651t.4699.4445q.1778.2794.254.6477.0762.3556.0762.762 0 .3556-.1016.6858-.0889.3175-.2794.5715-.1905.254-.4826.4064-.2921.1524-.6731.1524zm3.2512 1.1303v-6.1468h-1.7145v.8763h-.0254q-.3302-.5715-.8255-.8128-.4826-.2413-1.1303-.2413-.6858 0-1.2192.2667-.5207.2667-.8763.7239-.3556.4445-.5461 1.0414-.1778.5842-.1778 1.2192 0 .6731.1524 1.2827.1651.5969.508 1.0541.3429.4445.8763.7112.5334.254 1.27.254.5969 0 1.1303-.2413.5461-.254.8382-.7747h.0254v.8636q.0127.6985-.3429 1.1557-.3429.4572-1.1049.4572-.4826 0-.8509-.2032-.3683-.1905-.4953-.6985h-1.7907q.0381.5588.3048.9525.2794.4064.6858.6604.4191.254.9144.3683.508.127.9906.127 1.1303 0 1.8034-.3048.6731-.3048 1.0287-.7493.3556-.4318.4572-.9398.1143-.508.1143-.9017zM96.70923 239.07206v1.9558h1.9939v-1.9558zM115.60604 238.17036v-6.2103h-1.9939v6.1214q0 .2413-.0254.508-.0127.254-.1143.4826-.0889.2159-.3048.3556-.2159.1397-.6096.1397-.3556 0-.5842-.1143-.2159-.1143-.3429-.3048-.127-.2032-.1778-.4826-.0508-.2794-.0508-.6096v-.4064h-1.8034v.7874q0 .7493.254 1.2827.254.5207.6731.8636.4191.3302.9525.4826.5334.1651 1.1049.1651 1.016 0 1.6129-.3048.5969-.3175.9144-.7747.3175-.4699.4064-1.0033.0889-.5334.0889-.9779zM121.30537 231.96006v1.4859h1.7145v-1.4859zm2.6162 0v1.4859h1.7145v-1.4859zm2.6289 9.0678v-6.5659h-1.8034v3.4417q0 1.0033-.3302 1.4478-.3302.4318-1.0668.4318-.6477 0-.9017-.3937-.254-.4064-.254-1.2192v-3.7084h-1.8034v4.0386q0 .6096.1016 1.1176.1143.4953.381.8509.2667.3429.7239.5334.4699.1905 1.1938.1905.5715 0 1.1176-.254.5461-.254.889-.8255h.0381v.9144zM131.14628 234.46196v6.5659h1.8034v-2.9591q0-.4445.0889-.8255t.2921-.6604q.2159-.2921.5588-.4572.3429-.1651.8382-.1651.1651 0 .3429.0254.1778.0127.3048.0381v-1.6764q-.2159-.0635-.3937-.0635-.3429 0-.6604.1016t-.5969.2921q-.2794.1778-.4953.4445-.2159.254-.3429.5588h-.0254v-1.2192zM142.00638 239.47846q-.4191 0-.6985-.1778-.2794-.1778-.4572-.4572-.1651-.2794-.2413-.6223-.0635-.3556-.0635-.7112 0-.3683.0762-.6985.0889-.3429.2667-.5969.1905-.2667.4572-.4191.2794-.1524.6604-.1524.4445 0 .7366.1651t.4699.4445q.1778.2794.254.6477.0762.3556.0762.762 0 .3556-.1016.6858-.0889.3175-.2794.5715-.1905.254-.4826.4064-.2921.1524-.6731.1524zm3.2512 1.1303v-6.1468h-1.7145v.8763h-.0254q-.3302-.5715-.8255-.8128-.4826-.2413-1.1303-.2413-.6858 0-1.2192.2667-.5207.2667-.8763.7239-.3556.4445-.5461 1.0414-.1778.5842-.1778 1.2192 0 .6731.1524 1.2827.1651.5969.508 1.0541.3429.4445.8763.7112.5334.254 1.27.254.5969 0 1.1303-.2413.5461-.254.8382-.7747h.0254v.8636q.0127.6985-.3429 1.1557-.3429.4572-1.1049.4572-.4826 0-.8509-.2032-.3683-.1905-.4953-.6985h-1.7907q.0381.5588.3048.9525.2794.4064.6858.6604.4191.254.9144.3683.508.127.9906.127 1.1303 0 1.8034-.3048.6731-.3048 1.0287-.7493.3556-.4318.4572-.9398.1143-.508.1143-.9017zM154.348 237.04006h-2.9337q.0127-.1905.0762-.4318.0762-.2413.2413-.4572.1778-.2159.4572-.3556.2921-.1524.7239-.1524.6604 0 .9779.3556.3302.3556.4572 1.0414zm-2.9337 1.143h4.7371q.0508-.762-.127-1.4605-.1778-.6985-.5842-1.2446-.3937-.5461-1.016-.8636-.6223-.3302-1.4605-.3302-.7493 0-1.3716.2667-.6096.2667-1.0541.7366-.4445.4572-.6858 1.0922-.2413.635-.2413 1.3716 0 .762.2286 1.397.2413.635.6731 1.0922.4318.4572 1.0541.7112.6223.2413 1.397.2413 1.1176 0 1.905-.508.7874-.508 1.1684-1.6891h-1.5875q-.0889.3048-.4826.5842-.3937.2667-.9398.2667-.762 0-1.1684-.3937-.4064-.3937-.4445-1.27zM160.43566 234.46196v6.5659h1.8034v-3.4417q0-1.0033.3302-1.4351.3302-.4445 1.0668-.4445.6477 0 .9017.4064.254.3937.254 1.2065v3.7084h1.8034v-4.0386q0-.6096-.1143-1.1049-.1016-.508-.3683-.8509-.2667-.3556-.7366-.5461-.4572-.2032-1.1811-.2032-.5715 0-1.1176.2667-.5461.254-.889.8255h-.0381v-.9144zM178.11843 231.96006v9.0678h6.8834v-1.6764h-4.8895v-2.2225h4.3942v-1.5494h-4.3942v-1.9431h4.7879v-1.6764zM189.37778 231.96006v9.0678h1.8034v-3.4417q0-1.0033.3302-1.4351.3302-.4445 1.0668-.4445.6477 0 .9017.4064.254.3937.254 1.2065v3.7084h1.8034v-4.0386q0-.6096-.1143-1.1049-.1016-.508-.3683-.8509-.2667-.3556-.7366-.5461-.4572-.2032-1.1811-.2032-.508 0-1.0414.2667-.5334.254-.8763.8255h-.0381v-3.4163zM200.1331 234.46196v6.5659h1.8034v-2.9591q0-.4445.0889-.8255t.2921-.6604q.2159-.2921.5588-.4572.3429-.1651.8382-.1651.1651 0 .3429.0254.1778.0127.3048.0381v-1.6764q-.2159-.0635-.3937-.0635-.3429 0-.6604.1016t-.5969.2921q-.2794.1778-.4953.4445-.2159.254-.3429.5588h-.0254v-1.2192zM212.46519 237.04006h-2.9337q.0127-.1905.0762-.4318.0762-.2413.2413-.4572.1778-.2159.4572-.3556.2921-.1524.7239-.1524.6604 0 .9779.3556.3302.3556.4572 1.0414zm-2.9337 1.143h4.7371q.0508-.762-.127-1.4605-.1778-.6985-.5842-1.2446-.3937-.5461-1.016-.8636-.6223-.3302-1.4605-.3302-.7493 0-1.3716.2667-.6096.2667-1.0541.7366-.4445.4572-.6858 1.0922-.2413.635-.2413 1.3716 0 .762.2286 1.397.2413.635.6731 1.0922.4318.4572 1.0541.7112.6223.2413 1.397.2413 1.1176 0 1.905-.508.7874-.508 1.1684-1.6891h-1.5875q-.0889.3048-.4826.5842-.3937.2667-.9398.2667-.762 0-1.1684-.3937-.4064-.3937-.4445-1.27zM220.82914 234.46196v-1.9685h-1.8034v1.9685h-1.0922v1.2065h1.0922v3.8735q0 .4953.1651.8001t.4445.4699q.2921.1651.6604.2159.381.0635.8001.0635.2667 0 .5461-.0127.2794-.0127.508-.0508v-1.397q-.127.0254-.2667.0381-.1397.0127-.2921.0127-.4572 0-.6096-.1524-.1524-.1524-.1524-.6096v-3.2512h1.3208v-1.2065z" style="font-weight:700;font-family:'Helvetica Neue';-inkscape-font-specification:'Helvetica Neue Bold';fill:#fff" transform="translate(-11.01801 -10.88971)"/></g></g></svg>