<svg xmlns="http://www.w3.org/2000/svg" width="352.00003" height="349.28802" viewBox="0 0 93.13334 92.415798"><defs><path id="b" d="M1600.6648 5530.2114h158.57976v94.550331H1600.6648z"/><path id="a" d="M157-13h55v40h-55z"/><path id="c" d="M157-13h55v40h-55z"/><path id="d" d="M1600.6648 5530.2114h158.57976v94.550331H1600.6648z"/><path id="e" d="M157-13h55v40h-55z"/><path id="f" d="M1600.6648 5530.2114h158.57976v94.550331H1600.6648z"/><path id="g" d="M157-13h55v40h-55z"/><path id="h" d="M1600.6648 5530.2114h158.57976v94.550331H1600.6648z"/><path id="i" d="M157-13h55v40h-55z"/><path id="j" d="M1600.6648 5530.2114h158.57976v94.550331H1600.6648z"/><path id="k" d="M157-13h55v40h-55z"/><path id="l" d="M1600.6648 5530.2114h158.57976v94.550331H1600.6648z"/><path id="m" d="M157-13h55v40h-55z"/><path id="n" d="M1600.6648 5530.2114h158.57976v94.550331H1600.6648z"/><path id="o" d="M157-13h55v40h-55z"/><path id="p" d="M1600.6648 5530.2114h158.57976v94.550331H1600.6648z"/></defs><g style="display:inline;fill:none;stroke:#000;stroke-opacity:1" transform="translate(-5.5341825 -4.2386951)"><ellipse cx="52.100853" cy="33.128242" rx="45.728065" ry="28.050941" style="font-variation-settings:normal;display:inline;fill:none;fill-opacity:1;stroke:#000;stroke-width:1.67721;stroke-linecap:butt;stroke-linejoin:miter;stroke-miterlimit:4;stroke-dasharray:none;stroke-dashoffset:0;stroke-opacity:1;stop-color:#000"/><ellipse cx="68.39801" cy="33.128242" rx="28.008961" ry="17.084219" style="font-variation-settings:normal;display:inline;fill:none;fill-opacity:1;stroke:#000;stroke-width:1.39768;stroke-linecap:butt;stroke-linejoin:miter;stroke-miterlimit:4;stroke-dasharray:none;stroke-dashoffset:0;stroke-opacity:1;stop-color:#000"/><ellipse cx="78.182152" cy="33.128242" rx="17.057743" ry="10.306284" style="font-variation-settings:normal;display:inline;fill:none;fill-opacity:1;stroke:#000;stroke-width:1.11813;stroke-linecap:butt;stroke-linejoin:miter;stroke-miterlimit:4;stroke-dasharray:none;stroke-dashoffset:0;stroke-opacity:1;stop-color:#000"/><ellipse cx="83.978172" cy="33.128242" rx="10.289312" ry="6.1171598" style="font-variation-settings:normal;display:inline;fill:none;fill-opacity:1;stroke:#000;stroke-width:.978371;stroke-linecap:butt;stroke-linejoin:miter;stroke-miterlimit:4;stroke-dasharray:none;stroke-dashoffset:0;stroke-opacity:1;stop-color:#000"/><ellipse cx="87.32119" cy="33.128242" rx="6.1062503" ry="3.5281756" style="font-variation-settings:normal;display:inline;fill:none;fill-opacity:1;stroke:#000;stroke-width:.838604;stroke-linecap:butt;stroke-linejoin:miter;stroke-miterlimit:4;stroke-dasharray:none;stroke-dashoffset:0;stroke-opacity:1;stop-color:#000"/><ellipse cx="89.423233" cy="33.128242" rx="3.2842834" ry="1.891212" style="font-variation-settings:normal;display:inline;fill:none;fill-opacity:1;stroke:#000;stroke-width:.698836;stroke-linecap:butt;stroke-linejoin:miter;stroke-miterlimit:4;stroke-dasharray:none;stroke-dashoffset:0;stroke-opacity:1;stop-color:#000"/><ellipse cx="90.791" cy="33.128242" rx="1.3665109" ry=".71883637" style="font-variation-settings:normal;display:inline;fill:none;fill-opacity:1;stroke:#000;stroke-width:.587023;stroke-linecap:butt;stroke-linejoin:miter;stroke-miterlimit:4;stroke-dasharray:none;stroke-dashoffset:0;stroke-opacity:1;stop-color:#000"/></g><path d="M.3338365 84.948047c.1705323 0 .2790528-.111621.2790528-.288355v-3.984253c0-.176733-.1085205-.288354-.2790528-.288354-.1705322 0-.2790527.111621-.2790527.288354v3.984253c0 .176734.1085205.288355.2790527.288355z" style="font-weight:400;font-size:6.35px;line-height:1.25;font-family:&quot;SF Pro Rounded&quot;;-inkscape-font-specification:&quot;SF Pro Rounded&quot;;text-align:center;letter-spacing:0;text-anchor:middle;display:inline;fill:#000;fill-opacity:1;stroke:none;stroke-width:.264583"/><path d="M1.6732897 84.948047c.1581298 0 .2635498-.111621.2635498-.279053v-2.319238h.021704l1.7425292 2.390551c.1209229.164331.2139405.20774.3472657.20774.1705322 0 .2666503-.10232.2666503-.297657v-3.013769c0-.167432-.1054199-.279053-.2635498-.279053-.1581298 0-.2635498.111621-.2635498.279053v2.322339h-.021704l-1.7549316-2.406055c-.1023193-.139526-.1922363-.195337-.3193603-.195337-.1674317 0-.2821533.120923-.2821533.297656v3.01377c0 .167432.1054199.279053.2635498.279053zM6.5722155 84.960449c1.010791 0 1.540991-.589111 1.540991-1.522388v-.06511c0-.170532-.120923-.285254-.297657-.285254h-1.001489c-.117822 0-.226343.08682-.226343.226343 0 .139526.10542.220141.226343.220141h.765845v.06201c0 .511597-.443384.880567-.979785.880567-.750342 0-1.134815-.539502-1.134815-1.348755 0-.827857.430982-1.299146 1.113111-1.299146.353467 0 .651123.15503.964282.589112.06201.08682.145727.139526.251147.139526.167432 0 .254248-.10542.254248-.244946 0-.08372-.02791-.173633-.105419-.288355-.275953-.406177-.741041-.685229-1.342554-.685229-1.066602 0-1.686719.710034-1.686719 1.792138 0 1.100708.598413 1.829346 1.658814 1.829346zM8.9906725 84.904638h1.7952395c.142627 0 .248047-.08992.248047-.238745 0-.148828-.10542-.241845-.248047-.241845H9.2666245v-1.072803h1.4355715c.139527 0 .241846-.08682.241846-.229443 0-.145728-.10232-.232544-.241846-.232544H9.2666245v-1.007691h1.5192875c.142627 0 .248047-.08992.248047-.238745 0-.148828-.10542-.241846-.248047-.241846H8.9906725c-.16123 0-.26355.10542-.26355.269751v2.96416c0 .164332.10232.269751.26355.269751zM11.89282 84.948047c.15813 0 .26355-.111621.26355-.279053v-2.319238h.0217l1.742529 2.390551c.120923.164331.213941.20774.347266.20774.170533 0 .26665-.10232.26665-.297657v-3.013769c0-.167432-.10542-.279053-.263549-.279053-.15813 0-.26355.111621-.26355.279053v2.322339h-.0217l-1.754932-2.406055c-.102319-.139526-.192236-.195337-.31936-.195337-.167432 0-.282153.120923-.282153.297656v3.01377c0 .167432.105419.279053.263549.279053zM15.529808 84.948047c.164331 0 .272852-.10542.272852-.269751v-3.050977c0-.164331-.108521-.269751-.272852-.269751-.164331 0-.26665.10542-.26665.269751v3.050977c0 .164331.102319.269751.26665.269751zM16.791745 84.904638h1.795239c.142627 0 .248047-.08992.248047-.238745 0-.148828-.10542-.241845-.248047-.241845h-1.519286v-1.072803h1.43557c.139528 0 .241846-.08682.241846-.229443 0-.145728-.102319-.232544-.241846-.232544h-1.43557v-1.007691h1.519286c.142627 0 .248047-.08992.248047-.238745 0-.148828-.10542-.241846-.248047-.241846h-1.795239c-.161229 0-.263549.10542-.263549.269751v2.96416c0 .164332.10232.269751.263549.269751zM20.872118 84.96355c.896069 0 1.444873-.533301 1.444873-1.292945v-2.043286c0-.164331-.108521-.269751-.272852-.269751-.164331 0-.26665.10542-.26665.269751v1.996777c0 .496094-.328662.84336-.905371.84336-.573609 0-.902271-.347266-.902271-.84336v-1.996777c0-.164331-.10852-.269751-.272851-.269751s-.266651.10542-.266651.269751v2.043286c0 .759644.548804 1.292945 1.441773 1.292945zM23.306076 84.948047c.164331 0 .272852-.10542.272852-.269751v-1.116211h.799951l.685229 1.196826c.08372.145727.142627.189136.26045.189136.151928 0 .26665-.10542.26665-.251148 0-.06821-.0186-.127124-.05581-.189136l-.607714-1.032495c.437182-.145727.697631-.527099.697631-1.001489 0-.654224-.458886-1.072803-1.187524-1.072803h-1.134814c-.161231 0-.263549.10542-.263549.269751v3.007569c0 .164331.102319.269751.266648.269751zm.272852-1.832447v-1.249536h.79375c.434082 0 .697631.238745.697631.623218 0 .396875-.248045.626318-.682127.626318zM26.490378 84.904638h1.196826c.759645 0 1.218531-.37517 1.218531-.992187 0-.465088-.328662-.803052-.812354-.855762v-.0186c.356569-.05891.63252-.390674.63252-.762744 0-.530201-.415478-.874366-1.044898-.874366h-1.190625c-.16123 0-.26355.10542-.26355.269751v2.96416c0 .164332.10232.269751.26355.269751zm.275952-2.01538v-1.035596h.784449c.406176 0 .63872.179834.63872.499194 0 .344165-.269751.536402-.756543.536402zm0 1.562695v-1.141016h.778247c.530201 0 .806153.192237.806153.564307 0 .378271-.266651.576709-.768946.576709zM30.400217 81.094018c.170532 0 .313159-.136425.313159-.306958 0-.170532-.142627-.306958-.313159-.306958-.170532 0-.313159.136426-.313159.306958 0 .170533.142627.306958.313159.306958zm.989087 0c.173633 0 .313159-.136425.313159-.306958 0-.170532-.139526-.306958-.313159-.306958-.170532 0-.310059.136426-.310059.306958 0 .170533.139527.306958.310059.306958zm-.496094 3.869532c.89607 0 1.444873-.533301 1.444873-1.292945v-2.043286c0-.164331-.10852-.269751-.272851-.269751s-.266651.10542-.266651.269751v1.996777c0 .496094-.328662.84336-.905371.84336-.573608 0-.90227-.347266-.90227-.84336v-1.996777c0-.164331-.108521-.269751-.272852-.269751-.164331 0-.26665.10542-.26665.269751v2.043286c0 .759644.548804 1.292945 1.441772 1.292945zM33.327169 84.948047c.164332 0 .272852-.10542.272852-.269751v-1.116211h.799951l.68523 1.196826c.08371.145727.142627.189136.260449.189136.151929 0 .26665-.10542.26665-.251148 0-.06821-.0186-.127124-.05581-.189136l-.607715-1.032495c.437183-.145727.697632-.527099.697632-1.001489 0-.654224-.458887-1.072803-1.187525-1.072803h-1.134814c-.161231 0-.26355.10542-.26355.269751v3.007569c0 .164331.102319.269751.26665.269751zm.272852-1.832447v-1.249536h.79375c.434082 0 .697632.238745.697632.623218 0 .396875-.248047.626318-.682129.626318zM37.788916 84.96355c1.026294 0 1.668115-.694532 1.668115-1.810743 0-1.11311-.641821-1.810742-1.668115-1.810742-1.029396 0-1.671217.697632-1.671217 1.810742 0 1.116211.641821 1.810743 1.671217 1.810743zm0-.489893c-.688331 0-1.119313-.511597-1.119313-1.32085 0-.809253.434082-1.320849 1.119313-1.320849.685229 0 1.116211.511596 1.116211 1.320849 0 .809253-.430982 1.32085-1.116211 1.32085z" style="font-weight:600;font-size:5.82083px;line-height:1.25;font-family:&quot;SF Pro Rounded&quot;;-inkscape-font-specification:&quot;SF Pro Rounded, Normal&quot;;font-variant-caps:all-small-caps;text-align:center;letter-spacing:0;text-anchor:middle;display:inline;fill:#000;fill-opacity:1;stroke:none;stroke-width:.264583"/><path d="M42.895578 84.979052c1.00149 0 1.652614-.517797 1.652614-1.345654 0-.632519-.36897-1.00459-1.302246-1.209228l-.496094-.108521c-.610816-.133325-.849561-.375171-.849561-.728637 0-.455787.430982-.728638.989087-.728638.483691 0 .85266.198437 1.007691.651123.04961.142627.136425.217041.279052.217041.148829 0 .254247-.09922.254247-.251148 0-.05891-.0062-.105419-.0155-.139526-.161231-.604614-.762745-.979785-1.509986-.979785-.927075 0-1.578198.517798-1.578198 1.255737 0 .63562.387574 1.041797 1.283643 1.237134l.496093.10852c.620117.136426.868164.384473.868164.759644 0 .440283-.440283.759644-1.047998.759644-.564306 0-1.00459-.217041-1.141015-.679029-.04341-.148828-.130225-.220141-.269751-.220141-.15813 0-.257349.111621-.257349.288354 0 .06511.0124.133325.03101.195337.167432.539502.765845.917773 1.606103.917773z" style="font-weight:600;font-size:5.82083px;line-height:1.25;font-family:&quot;SF Pro Rounded&quot;;-inkscape-font-specification:&quot;SF Pro Rounded Semi-Bold&quot;;font-variant-caps:normal;text-align:center;letter-spacing:0;text-anchor:middle;display:inline;fill:#000;fill-opacity:1;stroke:none;stroke-width:.264583"/><path d="M46.668993 84.96355c1.026294 0 1.668115-.694532 1.668115-1.810743 0-1.11311-.641821-1.810742-1.668115-1.810742-1.029394 0-1.671217.697632-1.671217 1.810742 0 1.116211.641822 1.810743 1.671217 1.810743zm0-.489893c-.688331 0-1.119312-.511597-1.119312-1.32085 0-.809253.434082-1.320849 1.119312-1.320849.685229 0 1.116211.511596 1.116211 1.320849 0 .809253-.430982 1.32085-1.116211 1.32085zM49.202169 84.948047c.164332 0 .272852-.10542.272852-.269751v-1.234034h1.345654c.139527 0 .241847-.08992.241847-.232543 0-.145728-.10232-.235645-.241847-.235645h-1.345654v-1.094507h1.48208c.142627 0 .248047-.08992.248047-.238745 0-.148828-.10542-.241846-.248047-.241846h-1.758032c-.161231 0-.26355.10542-.26355.269751v3.007569c0 .164331.102319.269751.26665.269751zM52.888767 84.948047c.164331 0 .272852-.10542.272852-.269751v-2.793628h.917774c.142627 0 .248047-.09612.248047-.241846 0-.145727-.10542-.241846-.248047-.241846h-2.375049c-.145727 0-.248047.09612-.248047.241846 0 .145728.10232.241846.248047.241846h.917774v2.793628c0 .164331.102319.269751.266649.269751zM55.794018 84.948047c.176732 0 .272851-.07751.325561-.26045l.713135-2.402954h.02481l.713134 2.402954c.05271.182935.148829.26045.32246.26045.161231 0 .263551-.08372.31626-.26045l.871265-2.951757c.0155-.04651.0217-.08682.0217-.127124 0-.151929-.111621-.251148-.275952-.251148-.136426 0-.217041.06821-.257349.217041l-.68833 2.551782h-.0186l-.700732-2.502172c-.05271-.186036-.148828-.266651-.31626-.266651-.167431 0-.26665.08372-.31936.269751l-.697632 2.499072h-.0186l-.68833-2.551782c-.04031-.148828-.127124-.217041-.269751-.217041-.161231 0-.26355.09612-.26355.251148 0 .04031.0062.08062.0217.127124l.871265 2.951757c.05271.176734.155029.26045.313159.26045zM59.350388 84.948047c.151929 0 .229443-.05891.285254-.220142l.269751-.762744h1.370459l.269751.762744c.05581.161231.133325.220142.285254.220142.151928 0 .251147-.09302.251147-.238745 0-.04961-.0093-.09302-.03101-.15503l-1.085205-2.926953c-.06821-.182934-.189135-.269751-.375171-.269751-.182934 0-.303857.08682-.368969.266651l-1.085205 2.933154c-.02481.06201-.03101.10542-.03101.155029 0 .145728.09302.235645.244946.235645zm.694531-1.42627.536402-1.531689h.0155l.536401 1.531689zM62.90676 84.948047c.164331 0 .272852-.10542.272852-.269751v-1.116211h.79995l.685231 1.196826c.08371.145727.142626.189136.260448.189136.151928 0 .26665-.10542.26665-.251148 0-.06821-.0186-.127124-.05581-.189136l-.607715-1.032495c.437182-.145727.697632-.527099.697632-1.001489 0-.654224-.458888-1.072803-1.187525-1.072803H62.90366c-.161231 0-.26355.10542-.26355.269751v3.007569c0 .164331.102319.269751.26665.269751zm.272852-1.832447v-1.249536h.79375c.434082 0 .697632.238745.697632.623218 0 .396875-.248047.626318-.682129.626318zM66.09106 84.904638h1.795239c.142627 0 .248047-.08992.248047-.238745 0-.148828-.10542-.241845-.248047-.241845h-1.519286v-1.072803h1.43557c.139526 0 .241846-.08682.241846-.229443 0-.145728-.10232-.232544-.241846-.232544h-1.43557v-1.007691H67.8863c.142627 0 .248047-.08992.248047-.238745 0-.148828-.10542-.241846-.248047-.241846h-1.795239c-.161231 0-.26355.10542-.26355.269751v2.96416c0 .164332.102319.269751.263549.269751z" style="font-weight:600;font-size:5.82083px;line-height:1.25;font-family:&quot;SF Pro Rounded&quot;;-inkscape-font-specification:&quot;SF Pro Rounded, Normal&quot;;font-variant-caps:all-small-caps;text-align:center;letter-spacing:0;text-anchor:middle;display:inline;fill:#000;fill-opacity:1;stroke:none;stroke-width:.264583"/><path d="M71.5698 84.979052c1.00149 0 1.652613-.517797 1.652613-1.345654 0-.632519-.368971-1.00459-1.302246-1.209228l-.496094-.108521c-.610816-.133325-.849561-.375171-.849561-.728637 0-.455787.430982-.728638.989087-.728638.483692 0 .852661.198437 1.007691.651123.04961.142627.136425.217041.279051.217041.14883 0 .254249-.09922.254249-.251148 0-.05891-.0062-.105419-.0155-.139526-.161231-.604614-.762744-.979785-1.509985-.979785-.927076 0-1.578198.517798-1.578198 1.255737 0 .63562.387573 1.041797 1.283642 1.237134l.496094.10852c.620116.136426.868163.384473.868163.759644 0 .440283-.440283.759644-1.047998.759644-.564306 0-1.00459-.217041-1.141015-.679029-.04341-.148828-.130225-.220141-.269751-.220141-.15813 0-.257349.111621-.257349.288354 0 .06511.0124.133325.03101.195337.167432.539502.765845.917773 1.606103.917773z" style="font-weight:600;font-size:5.82083px;line-height:1.25;font-family:&quot;SF Pro Rounded&quot;;-inkscape-font-specification:&quot;SF Pro Rounded Semi-Bold&quot;;font-variant-caps:normal;text-align:center;letter-spacing:0;text-anchor:middle;display:inline;fill:#000;fill-opacity:1;stroke:none;stroke-width:.264583"/><path d="M75.048654 84.948047c.164332 0 .285254-.10542.285254-.269751v-1.203028l1.097607-1.705322c.04031-.06511.05581-.114722.05581-.179834 0-.139526-.09922-.232544-.248047-.232544-.108521 0-.182935.04341-.244946.142627l-.920874 1.441773h-.0155l-.930176-1.451075c-.05271-.08372-.10232-.133325-.238745-.133325-.142627 0-.248047.09612-.248047.232544 0 .05891.0155.114722.05581.179834l1.097608 1.705322v1.203028c0 .164331.08992.269751.254248.269751zM78.276363 84.96355c.821656 0 1.345654-.415479 1.345654-1.069703 0-.517797-.306957-.803051-1.038697-.973584l-.390674-.09302c-.465087-.111621-.654223-.257349-.654223-.499194 0-.306958.300757-.517798.737939-.517798.375171 0 .63562.155029.775147.461987.04961.108521.117822.15813.229443.15813.151929 0 .244946-.08682.244946-.232544 0-.04031-.0062-.07441-.0155-.111621-.111621-.443384-.607714-.744141-1.234033-.744141-.759643 0-1.289843.42168-1.289843 1.026294 0 .492993.303857.79065.961181.945679l.458887.10852c.468188.111621.663525.272852.663525.539502 0 .310059-.331761.530201-.79685.530201-.412378 0-.710034-.167432-.849561-.483692-.05271-.114722-.117822-.16123-.235643-.16123-.15503 0-.251148.09612-.251148.244946 0 .04961.0062.09922.0217.151929.133325.440283.644922.719336 1.31775.719336zM81.364547 84.948047c.164332 0 .272852-.10542.272852-.269751v-2.793628h.917773c.142628 0 .248047-.09612.248047-.241846 0-.145727-.105419-.241846-.248047-.241846h-2.375048c-.145728 0-.248047.09612-.248047.241846 0 .145728.102319.241846.248047.241846h.917773v2.793628c0 .164331.102319.269751.26665.269751zM83.541156 84.904638h1.795239c.142627 0 .248047-.08992.248047-.238745 0-.148828-.10542-.241845-.248047-.241845h-1.519286v-1.072803h1.43557c.139527 0 .241846-.08682.241846-.229443 0-.145728-.10232-.232544-.241846-.232544h-1.43557v-1.007691h1.519287c.142627 0 .248047-.08992.248047-.238745 0-.148828-.10542-.241846-.248047-.241846h-1.795239c-.161231 0-.26355.10542-.26355.269751v2.96416c0 .164332.102319.269751.263549.269751zM86.424706 84.948047c.145728 0 .248047-.09922.248047-.254248v-2.350245h.0186l1.001489 2.331641c.06201.139526.151929.204639.288354.204639.139527 0 .229444-.06821.291455-.21084l.998389-2.32544h.0186v2.350245c0 .155029.102319.254248.244946.254248.145727 0 .248047-.09922.248047-.254248v-2.973462c0-.220142-.136426-.362769-.347266-.362769-.182934 0-.297656.08992-.387573.297656l-1.0573 2.48667h-.0186l-1.0573-2.48667c-.08992-.207739-.204639-.297656-.387573-.297656-.21084 0-.347266.142627-.347266.362769v2.973462c0 .155029.102318.254248.244945.254248zM91.732905 84.96355c.821656 0 1.345655-.415479 1.345655-1.069703 0-.517797-.306958-.803051-1.038697-.973584l-.390674-.09302c-.465087-.111621-.654223-.257349-.654223-.499194 0-.306958.300757-.517798.737939-.517798.375171 0 .63562.155029.775147.461987.04961.108521.117822.15813.229443.15813.151929 0 .244946-.08682.244946-.232544 0-.04031-.0062-.07441-.0155-.111621-.111621-.443384-.607714-.744141-1.234033-.744141-.759643 0-1.289843.42168-1.289843 1.026294 0 .492993.303857.79065.961181.945679l.458887.10852c.468188.111621.663525.272852.663525.539502 0 .310059-.331762.530201-.79685.530201-.412378 0-.710035-.167432-.849561-.483692-.05271-.114722-.117822-.16123-.235643-.16123-.15503 0-.251148.09612-.251148.244946 0 .04961.0062.09922.0217.151929.133325.440283.644922.719336 1.31775.719336z" style="font-weight:600;font-size:5.82083px;line-height:1.25;font-family:&quot;SF Pro Rounded&quot;;-inkscape-font-specification:&quot;SF Pro Rounded, Normal&quot;;font-variant-caps:all-small-caps;text-align:center;letter-spacing:0;text-anchor:middle;display:inline;fill:#000;fill-opacity:1;stroke:none;stroke-width:.264583"/><path d="M21.698926 92.353782h1.02061c1.10846 0 1.759583-.689881 1.759583-1.86552 0-1.173056-.653707-1.862937-1.759583-1.862937h-1.02061c-.142111 0-.232545.09302-.232545.240296v3.247865c0 .147278.09043.240296.232545.240296zm.232544-.418579v-2.891299h.75706c.847494 0 1.315166.516765 1.315166 1.449525 0 .925009-.470256 1.441774-1.315166 1.441774z" style="font-weight:400;font-size:5.29167px;line-height:1.25;font-family:&quot;SF Pro Rounded&quot;;-inkscape-font-specification:&quot;SF Pro Rounded&quot;;text-align:center;letter-spacing:0;text-anchor:middle;display:inline;fill:#000;fill-opacity:1;stroke:none;stroke-width:.264583"/><path d="M25.215508 92.389955c.136943 0 .227376-.08785.227376-.224792v-.930177h.666627l.571025.997356c.06976.12144.118856.157613.217041.157613.126607 0 .222209-.08785.222209-.209289 0-.05684-.0155-.105937-.04651-.157613l-.506428-.860414c.364319-.121439.581359-.439249.581359-.834574 0-.545187-.382406-.894003-.989605-.894003h-.945679c-.134359 0-.219625.08785-.219625.224792v2.506309c0 .136942.08527.224792.222209.224792zm.227376-1.527039v-1.041281h.661459c.361736 0 .58136.198955.58136.519349 0 .330729-.206705.521932-.568441.521932zM28.018957 92.37962c.165365 0 .294556-.129191.294556-.294556 0-.165364-.129191-.294556-.294556-.294556-.165366 0-.294556.129192-.294556.294556 0 .165365.12919.294556.294556.294556zM28.915543 91.043784c0 .113688.08785.198954.206706.198954h1.018026c.118856 0 .206706-.08527.206706-.198954 0-.12144-.08527-.206706-.206706-.206706h-1.018026c-.118856 0-.206706.08527-.206706.206706z" style="font-weight:600;font-size:5.82083px;line-height:1.25;font-family:&quot;SF Pro Rounded&quot;;-inkscape-font-specification:&quot;SF Pro Rounded, Normal&quot;;font-variant-caps:all-small-caps;text-align:center;letter-spacing:0;text-anchor:middle;display:inline;fill:#000;fill-opacity:1;stroke:none;stroke-width:.264583"/><path d="M31.166052 92.389955c.142111 0 .232545-.09302.232545-.240295v-3.320213c0-.147278-.09043-.240295-.232545-.240295-.14211 0-.232543.09302-.232543.240295v3.320213c0 .147278.09043.240295.232543.240295z" style="font-weight:400;font-size:5.29167px;line-height:1.25;font-family:&quot;SF Pro Rounded&quot;;-inkscape-font-specification:&quot;SF Pro Rounded&quot;;text-align:center;letter-spacing:0;text-anchor:middle;display:inline;fill:#000;fill-opacity:1;stroke:none;stroke-width:.264583"/><path d="M32.282264 92.389955c.131775 0 .219625-.09302.219625-.232544v-1.932699h.01809l1.452108 1.992127c.100769.136943.178284.173116.289389.173116.142111 0 .222209-.08527.222209-.248047v-2.511476c0-.139526-.08785-.232544-.219625-.232544-.131775 0-.219625.09302-.219625.232544v1.935284h-.01809l-1.462443-2.005047c-.08527-.116272-.160197-.162781-.266134-.162781-.139528 0-.235129.100769-.235129.248047v2.511476c0 .139527.08785.232544.219625.232544zM36.364705 92.400291c.842326 0 1.28416-.490927 1.28416-1.268657v-.05426c0-.14211-.100769-.237711-.248047-.237711h-.834575c-.09819 0-.188619.07235-.188619.188619 0 .116272.08785.183451.188619.183451h.638205v.05168c0 .42633-.369487.733805-.816489.733805-.625284 0-.945678-.449585-.945678-1.123963 0-.689881.359152-1.082622.927593-1.082622.294555 0 .542602.129192.803569.490927.05168.07235.121439.116272.209289.116272.139527 0 .211874-.08785.211874-.204122 0-.06976-.02325-.144694-.08785-.240296-.22996-.338481-.617534-.571025-1.118797-.571025-.888835 0-1.405599.591696-1.405599 1.49345 0 .917257.498677 1.524456 1.382345 1.524456zM38.529949 92.37962c.165366 0 .294556-.129191.294556-.294556 0-.165364-.12919-.294556-.294556-.294556-.165365 0-.294556.129192-.294556.294556 0 .165365.129191.294556.294556.294556z" style="font-weight:600;font-size:5.82083px;line-height:1.25;font-family:&quot;SF Pro Rounded&quot;;-inkscape-font-specification:&quot;SF Pro Rounded, Normal&quot;;font-variant-caps:all-small-caps;text-align:center;letter-spacing:0;text-anchor:middle;display:inline;fill:#000;fill-opacity:1;stroke:none;stroke-width:.264583"/><path d="M41.449669 92.415794c.687297 0 1.09554-.41858 1.09554-1.126547v-2.4598c0-.147278-.09043-.240295-.232543-.240295-.142111 0-.232544.09302-.232544.240295v2.457216c0 .454753-.222209.700216-.633037.700216-.299723 0-.514181-.173116-.599447-.485759-.03876-.144694-.111104-.209289-.22996-.209289-.136942 0-.219625.08785-.219625.237711 0 .0956.01809.162781.04651.245464.136943.392741.524516.640788 1.005107.640788z" style="font-weight:400;font-size:5.29167px;line-height:1.25;font-family:&quot;SF Pro Rounded&quot;;-inkscape-font-specification:&quot;SF Pro Rounded&quot;;text-align:center;letter-spacing:0;text-anchor:middle;display:inline;fill:#000;fill-opacity:1;stroke:none;stroke-width:.264583"/><path d="M44.005069 89.178263c.14211 0 .260966-.113688.260966-.255798 0-.142111-.118856-.255799-.260966-.255799-.14211 0-.260966.113688-.260966.255799 0 .14211.118856.255798.260966.255798zm.82424 0c.144695 0 .260967-.113688.260967-.255798 0-.142111-.116272-.255799-.260967-.255799-.142111 0-.258383.113688-.258383.255799 0 .14211.116272.255798.258383.255798zm-.413412 3.224612c.746725 0 1.204062-.444418 1.204062-1.077455v-1.702739c0-.136943-.09043-.224793-.227376-.224793-.136944 0-.222209.08785-.222209.224793v1.663982c0 .413412-.273885.7028-.754476.7028-.478007 0-.751893-.289388-.751893-.7028v-1.663982c0-.136943-.09043-.224793-.227376-.224793-.136943 0-.222209.08785-.222209.224793v1.702739c0 .633037.457337 1.077455 1.201477 1.077455zM46.444198 92.389955c.136943 0 .227377-.08785.227377-.224792v-.930177h.666626l.571025.997356c.06976.12144.118856.157613.217041.157613.126607 0 .222209-.08785.222209-.209289 0-.05684-.0155-.105937-.04651-.157613l-.506428-.860414c.364319-.121439.581359-.439249.581359-.834574 0-.545187-.382406-.894003-.989604-.894003h-.94568c-.134358 0-.219625.08785-.219625.224792v2.506309c0 .136942.08527.224792.222209.224792zm.227377-1.527039v-1.041281h.661458c.361736 0 .581361.198955.581361.519349 0 .330729-.206705.521932-.568441.521932zM50.151986 92.400291c.842326 0 1.28416-.490927 1.28416-1.268657v-.05426c0-.14211-.100769-.237711-.248047-.237711h-.834575c-.09819 0-.188619.07235-.188619.188619 0 .116272.08785.183451.188619.183451h.638205v.05168c0 .42633-.369487.733805-.816489.733805-.625284 0-.945678-.449585-.945678-1.123963 0-.689881.359152-1.082622.927593-1.082622.294556 0 .542603.129192.803569.490927.05168.07235.121439.116272.209289.116272.139527 0 .211874-.08785.211874-.204122 0-.06976-.02325-.144694-.08785-.240296-.22996-.338481-.617534-.571025-1.118797-.571025-.888835 0-1.405599.591696-1.405599 1.49345 0 .917257.498677 1.524456 1.382345 1.524456zM52.167369 92.353782h1.496034c.118856 0 .206705-.07493.206705-.198954s-.08785-.201539-.206705-.201539h-1.266075v-.894002h1.196312c.116272 0 .201537-.07235.201537-.191203 0-.12144-.08527-.193787-.201537-.193787h-1.196312v-.839743h1.266075c.118856 0 .206705-.07493.206705-.198954s-.08785-.201538-.206705-.201538h-1.496034c-.13436 0-.219625.08785-.219625.224792v2.470135c0 .136943.08527.224793.219625.224793zM54.585825 92.389955c.131775 0 .219625-.09302.219625-.232544v-1.932699h.01809l1.452109 1.992127c.100769.136943.178283.173116.289389.173116.14211 0 .222209-.08527.222209-.248047v-2.511476c0-.139526-.08785-.232544-.219625-.232544-.131775 0-.219626.09302-.219626.232544v1.935284h-.01809l-1.462443-2.005047c-.08527-.116272-.160197-.162781-.266135-.162781-.139525 0-.235128.100769-.235128.248047v2.511476c0 .139527.08785.232544.219625.232544z" style="font-weight:600;font-size:5.82083px;line-height:1.25;font-family:&quot;SF Pro Rounded&quot;;-inkscape-font-specification:&quot;SF Pro Rounded, Normal&quot;;font-variant-caps:all-small-caps;text-align:center;letter-spacing:0;text-anchor:middle;display:inline;fill:#000;fill-opacity:1;stroke:none;stroke-width:.264583"/><path d="M58.771619 92.353782h1.893941c.131776 0 .22221-.08527.22221-.20929 0-.124023-.09043-.209289-.22221-.209289h-1.661398v-1.281577h1.56838c.129192 0 .219625-.08527.219625-.206706 0-.124023-.09043-.206705-.219625-.206705h-1.56838v-1.196311h1.661398c.131776 0 .22221-.08527.22221-.209289 0-.124024-.09043-.20929-.22221-.20929h-1.893941c-.142111 0-.232546.09302-.232546.240296v3.247865c0 .147278.09043.240296.232546.240296z" style="font-weight:400;font-size:5.29167px;line-height:1.25;font-family:&quot;SF Pro Rounded&quot;;-inkscape-font-specification:&quot;SF Pro Rounded&quot;;text-align:center;letter-spacing:0;text-anchor:middle;display:inline;fill:#000;fill-opacity:1;stroke:none;stroke-width:.264583"/><path d="M61.626744 92.389955c.136943 0 .227376-.08785.227376-.224792v-1.098125h1.542543v1.098125c0 .136942.08527.224792.222209.224792.136942 0 .227376-.08785.227376-.224792v-2.542482c0-.136943-.09043-.224793-.227376-.224793-.136943 0-.222209.08785-.222209.224793v1.041281H61.85412v-1.041281c0-.136943-.09043-.224793-.227376-.224793-.136944 0-.22221.08785-.22221.224793v2.542482c0 .136942.08527.224792.22221.224792zM64.675656 92.389955c.136943 0 .227376-.08785.227376-.224792v-.930177h.666627l.571025.997356c.06976.12144.118856.157613.217041.157613.126607 0 .222209-.08785.222209-.209289 0-.05684-.0155-.105937-.04651-.157613l-.50643-.860414c.36432-.121439.581361-.439249.581361-.834574 0-.545187-.382406-.894003-.989605-.894003h-.945679c-.134359 0-.219625.08785-.219625.224792v2.506309c0 .136942.08527.224792.22221.224792zm.227376-1.527039v-1.041281h.661459c.361734 0 .58136.198955.58136.519349 0 .330729-.206706.521932-.568441.521932zM67.329241 92.353782h1.496034c.118855 0 .206705-.07493.206705-.198954s-.08785-.201539-.206705-.201539h-1.266074v-.894002h1.19631c.116272 0 .201539-.07235.201539-.191203 0-.12144-.08527-.193787-.201539-.193787h-1.19631v-.839743h1.266074c.118855 0 .206705-.07493.206705-.198954s-.08785-.201538-.206705-.201538h-1.496034c-.134359 0-.219624.08785-.219624.224792v2.470135c0 .136943.08527.224793.219624.224793zM70.507346 92.389955c.136943 0 .227377-.08785.227377-.224792v-2.328025h.764812c.118856 0 .206706-.0801.206706-.201538 0-.12144-.08785-.201538-.206706-.201538h-1.979209c-.121439 0-.206705.0801-.206705.201538 0 .12144.08527.201538.206705.201538h.764812v2.328025c0 .136942.08527.224792.222208.224792z" style="font-weight:600;font-size:5.82083px;line-height:1.25;font-family:&quot;SF Pro Rounded&quot;;-inkscape-font-specification:&quot;SF Pro Rounded, Normal&quot;;font-variant-caps:all-small-caps;text-align:center;letter-spacing:0;text-anchor:middle;display:inline;fill:#000;fill-opacity:1;stroke:none;stroke-width:.264583"/><path d="M.6804206 75.724325c.2427844 0 .4046406-.161856.4046406-.424872V61.248306c0-.263016-.1618562-.424873-.4046406-.424873-.2427843 0-.3945246.161857-.3945246.424873v14.051147c0 .263016.1517403.424872.3945246.424872zM4.0794022 75.572585h4.5724383c3.0651545 0 4.9265015-1.507286 4.9265015-3.894666 0-2.114247-1.5781-3.449562-3.6417665-3.672114v-.06069c1.7399545-.333829 2.8729485-1.679259 2.8729485-3.419214 0-2.114246-1.719723-3.550721-4.2588435-3.550721H4.0794022c-.2427843 0-.3945249.161856-.3945249.424873v13.747665c0 .263017.1517406.424873.3945249.424873zm.4046403-7.87026v-5.998798h3.945246c2.1749445 0 3.5709545 1.122877 3.5709545 2.883064 0 1.922043-1.476938 3.115734-3.7631575 3.115734zm0 7.141907v-6.42367h3.88455c2.7717895 0 4.4004675 1.224038 4.4004675 3.237125 0 1.962507-1.557866 3.186545-4.1880305 3.186545z" style="font-weight:200;font-size:20.1083px;line-height:1.25;font-family:&quot;SF Pro Rounded&quot;;-inkscape-font-specification:&quot;SF Pro Rounded Ultra-Light&quot;;text-align:center;letter-spacing:0;text-anchor:middle;display:inline;fill:#000;fill-opacity:1;stroke:none;stroke-width:.2726"/><path d="M20.447116 75.815369c3.409097 0 5.573924-1.729838 5.573924-4.481395 0-2.124363-1.254385-3.348401-4.319539-3.995826l-1.588214-.333829c-1.891695-.40464-2.650396-1.112761-2.650396-2.174943 0-1.335314 1.264502-2.164828 2.974108-2.164828 1.456707 0 2.569469.576613 3.065153 1.922043.232669.526034.566497.778934 1.112762.778934.586729 0 1.001486-.384409 1.001486-.971137 0-.212437-.03034-.384409-.08093-.526034-.566496-1.95239-2.549235-3.135964-5.068123-3.135964-3.105617 0-5.300792 1.719723-5.300792 4.218379 0 2.104131 1.325197 3.459676 4.23861 4.076753l1.598331.333829c1.95239.424873 2.721208 1.132994 2.721208 2.265988 0 1.304966-1.325199 2.255872-3.176429 2.255872-1.689376 0-3.014573-.63731-3.469794-2.002972-.222553-.546265-.55638-.778933-1.072297-.778933-.617077 0-1.021717.424873-1.021717 1.082414 0 .242784.05058.485568.121392.70812.566497 1.699491 2.508771 2.923529 5.341256 2.923529z" style="font-weight:500;font-size:20.1083px;line-height:1.25;font-family:&quot;SF Pro Rounded&quot;;-inkscape-font-specification:&quot;SF Pro Rounded Medium&quot;;text-align:center;letter-spacing:0;text-anchor:middle;display:inline;fill:#000;fill-opacity:1;stroke:none;stroke-width:.2726"/><path d="M33.112369 75.764789c3.459678 0 5.63462-2.296335 5.63462-5.988681 0-3.692346-2.174942-5.998798-5.63462-5.998798-3.479909 0-5.644737 2.306452-5.644737 5.998798 0 3.692346 2.164828 5.988681 5.644737 5.988681zm0-1.881578c-2.094015 0-3.409098-1.588215-3.409098-4.107103 0-2.518888 1.325199-4.107103 3.409098-4.107103 2.073783 0 3.388866 1.588215 3.388866 4.107103 0 2.518888-1.315082 4.107103-3.388866 4.107103zM41.74133 75.724325c.667657 0 1.102646-.40464 1.102646-1.082413v-3.732811h4.147566c.566498 0 .950906-.323712.950906-.880093 0-.566497-.384408-.900325-.950906-.900325h-4.147566v-3.287705h4.582555c.586729 0 .981254-.343945.981254-.930674 0-.586729-.394525-.930673-.981254-.930673h-5.695316c-.657541 0-1.082415.40464-1.082415 1.082413v9.579868c0 .677773.424875 1.082413 1.09253 1.082413zM54.012059 75.724325c.667656 0 1.102646-.40464 1.102646-1.082413v-8.790818h2.761673c.566497 0 .971137-.374293.971137-.94079s-.40464-.930673-.971138-.930673h-7.708404c-.566497 0-.971137.364176-.971137.930673s.40464.94079.971137.94079h2.761672v8.790818c0 .677773.414757 1.082413 1.082414 1.082413z" style="font-weight:500;font-size:20.1083px;line-height:1.25;font-family:&quot;SF Pro Rounded&quot;;-inkscape-font-specification:&quot;SF Pro Rounded Medium&quot;;font-variant-caps:all-small-caps;text-align:center;letter-spacing:0;text-anchor:middle;display:inline;fill:#000;fill-opacity:1;stroke:none;stroke-width:.2726"/><path d="M65.524083 75.815369c3.409097 0 5.573924-1.729838 5.573924-4.481395 0-2.124363-1.254386-3.348401-4.319539-3.995826l-1.588214-.333829c-1.891696-.40464-2.650397-1.112761-2.650397-2.174943 0-1.335314 1.264503-2.164828 2.974109-2.164828 1.456707 0 2.569468.576613 3.065153 1.922043.232669.526034.566497.778934 1.112762.778934.586729 0 1.001485-.384409 1.001485-.971137 0-.212437-.03035-.384409-.08093-.526034-.566496-1.95239-2.549236-3.135964-5.068123-3.135964-3.105618 0-5.300793 1.719723-5.300793 4.218379 0 2.104131 1.325198 3.459676 4.238611 4.076753l1.59833.333829c1.952391.424873 2.721208 1.132994 2.721208 2.265988 0 1.304966-1.325198 2.255872-3.176428 2.255872-1.689376 0-3.014573-.63731-3.469794-2.002972-.222553-.546265-.556382-.778933-1.072298-.778933-.617077 0-1.021717.424873-1.021717 1.082414 0 .242784.05058.485568.121392.70812.566497 1.699491 2.508772 2.923529 5.341257 2.923529z" style="font-weight:500;font-size:20.1083px;line-height:1.25;font-family:&quot;SF Pro Rounded&quot;;-inkscape-font-specification:&quot;SF Pro Rounded Medium&quot;;text-align:center;letter-spacing:0;text-anchor:middle;display:inline;fill:#000;fill-opacity:1;stroke:none;stroke-width:.2726"/><path d="M77.329477 75.724325c.667658 0 1.132994-.414757 1.132994-1.082413v-3.540606l3.510257-5.644737c.141625-.242784.202321-.445104.202321-.698005 0-.566497-.394525-.940789-1.001485-.940789-.455221 0-.73847.182088-.981255.60696l-2.781904 4.552208h-.05058l-2.812253-4.57244c-.222549-.384408-.445102-.586728-.971135-.586728-.586727 0-1.011602.384408-1.011602.940789 0 .232669.06069.465336.212437.708121l3.490025 5.634621v3.540606c0 .667656.38441 1.082413 1.062183 1.082413zM88.204195 75.764789c2.832486 0 4.643252-1.406125 4.643252-3.621533 0-1.750072-1.031833-2.721209-3.429328-3.247241l-1.375779-.303482c-1.436474-.323712-2.033318-.7587-2.033318-1.497169 0-.910442.900325-1.537635 2.205291-1.537635 1.122878 0 1.901811.455221 2.397496 1.375779.232668.364176.485568.526032.900325.526032.576612 0 .94079-.343944.94079-.89021 0-.151739-.02023-.283248-.06069-.414756-.394524-1.426359-2.053551-2.377264-4.188031-2.377264-2.589699 0-4.410582 1.416243-4.410582 3.500142 0 1.679259 1.041949 2.721208 3.227009 3.196661l1.527518.343945c1.487055.333828 2.0839.789049 2.0839 1.59833 0 .910441-.99137 1.557866-2.417728 1.557866-1.264502 0-2.215408-.5058-2.700976-1.44659-.232669-.374293-.465338-.526032-.880094-.526032-.586729 0-.950906.364176-.950906.920557 0 .182088.02023.354061.08093.546265.455221 1.416242 2.174944 2.296335 4.440932 2.296335z" style="font-weight:500;font-size:20.1083px;line-height:1.25;font-family:&quot;SF Pro Rounded&quot;;-inkscape-font-specification:&quot;SF Pro Rounded Medium&quot;;font-variant-caps:all-small-caps;text-align:center;letter-spacing:0;text-anchor:middle;display:inline;fill:#000;fill-opacity:1;stroke:none;stroke-width:.2726"/></svg>