<svg width="1571.1824" height="432.32971" viewBox="0 0 415.70853 114.38721" xmlns="http://www.w3.org/2000/svg"><defs><path id="d" d="M83.976158 1224.1858h406.81784v278.05438H83.976158z"/><path id="c" d="M1600.6648 5530.2114h158.57976v94.550331H1600.6648z"/><path id="b" d="M157-13h55v40h-55z"/><filter style="color-interpolation-filters:sRGB" id="a" x="-.05642297" y="-.03515585" width="1.1128459" height="1.0703117"><feGaussianBlur stdDeviation="1.1384116"/></filter></defs><text xml:space="preserve" transform="matrix(.26458 0 0 .26458 178.13126 -2177.3974)" style="font-size:36px;line-height:1.25;font-family:Lato;-inkscape-font-specification:Lato;text-align:center;letter-spacing:0;white-space:pre;shape-inside:url(#b)"><tspan x="157" y="60.48"><tspan dx="0 20.882812 20.039062 14.484375 18.84375">Ehret</tspan></tspan></text><g style="display:inline"><path style="display:inline;vector-effect:none;fill:#000;fill-opacity:.35;stroke-width:.828176;stroke-opacity:.968165;stop-color:#000" d="M-117.71861 25.255502h415.70866V139.64274h-415.70866z" transform="translate(117.71861 -25.255502)"/></g><g style="display:inline"><g aria-label="Softwaresysteme" style="font-size:25.1354px;line-height:1.25;font-family:'PT Sans';-inkscape-font-specification:'PT Sans';text-align:center;letter-spacing:.529167px;text-anchor:middle;display:inline;stroke-width:.264583"><path d="M85.109249 93.852946h-3.820581q-.02514 1.658936.603249 2.865435.628385 1.2065 1.684072 1.985697 1.080822.779197 2.463269 1.131093 1.407583.377029 2.890572.377029 1.834884 0 3.217331-.4273 1.407582-.427302 2.337592-1.181364.955145-.779197 1.432718-1.834884.477573-1.055687.477573-2.287321 0-1.508124-.653521-2.46327-.628385-.98028-1.508124-1.558394-.879739-.578115-1.784613-.829469-.879739-.276489-1.382447-.377031-1.684072-.427301-2.739759-.703791-1.030552-.276489-1.633801-.552979-.578114-.276489-.779198-.603249-.201083-.32676-.201083-.854604 0-.578114.251354-.955145t.628385-.628385q.402167-.251354.879739-.351896.477573-.100541.955146-.100541.728926 0 1.332176.125677.628385.125677 1.105957.427301.477573.301625.754062.829469.301625.527843.351896 1.332176h3.820581q0-1.558395-.60325-2.639217-.578114-1.105958-1.58353-1.809749t-2.312457-1.005416q-1.281905-.32676-2.689488-.32676-1.206499 0-2.412998.32676t-2.161645 1.005416q-.955145.678656-1.558394 1.709207-.578115 1.005416-.578115 2.387863 0 1.231635.452438 2.111374.477572.854604 1.231634 1.432718.754062.578114 1.709207.955145.955146.351896 1.960562.60325.98028.276489 1.935426.502708.955145.226218 1.709207.527843.754062.301625 1.206499.754062.477573.452437.477573 1.181364 0 .678656-.351896 1.131093-.351896.427302-.879739.678656-.527843.251354-1.131093.351895-.60325.07541-1.131093.07541-.779197 0-1.508124-.175948-.728927-.201083-1.281906-.578114-.527843-.402167-.854603-1.030552-.32676-.628385-.32676-1.533259zM102.03769 93.325102q0-.779197.15082-1.533259.15081-.754062.5027-1.332176.37704-.578115.98029-.93001.60324-.377031 1.50812-.377031.90487 0 1.50812.377031.62839.351895.98028.93001.37703.578114.52785 1.332176.15081.754062.15081 1.533259 0 .779198-.15081 1.53326-.15082.728926-.52785 1.332176-.35189.578114-.98028.93001-.60325.351895-1.50812.351895-.90488 0-1.50812-.351895-.60325-.351896-.98029-.93001-.35189-.60325-.5027-1.332176-.15082-.754062-.15082-1.53326zm-3.569223 0q0 1.558395.477573 2.815165.477572 1.25677 1.35731 2.161645.87974.879739 2.11137 1.357311 1.23164.477577 2.7649.477577 1.53326 0 2.76489-.477577 1.25677-.477572 2.13651-1.357311.87974-.904875 1.35731-2.161645.47758-1.25677.47758-2.815165t-.47758-2.815165q-.47757-1.281905-1.35731-2.161644-.87974-.904874-2.13651-1.382447-1.23163-.502708-2.76489-.502708-1.53326 0-2.7649.502708-1.23163.477573-2.11137 1.382447-.879738.879739-1.35731 2.161644-.477573 1.25677-.477573 2.815165zM115.54498 89.202897v10.607139h3.56922V89.202897h2.46327v-2.387863h-2.46327v-.779198q0-.804333.30163-1.131093.32676-.351896 1.05568-.351896.67866 0 1.30705.07541v-2.664353q-.45244-.02514-.93001-.05027-.47758-.05027-.95515-.05027-2.18678 0-3.2676 1.105957-1.08082 1.105958-1.08082 2.8403v1.005417h-2.13651v2.387863zM128.21415 86.815034v-3.895988h-3.56923v3.895988h-2.16164v2.387863h2.16164v7.666297q0 .98028.32676 1.58353.32676.60325.87974.93001.57811.32676 1.30704.427302.75406.125677 1.58353.125677.52784 0 1.08082-.02514.55298-.02514 1.00542-.100541v-2.764894q-.25136.05027-.52784.07541-.27649.02514-.57812.02514-.90487 0-1.2065-.301625-.30162-.301624-.30162-1.206499v-6.434662h2.61408v-2.387863zM147.91063 99.810036l4.09707-12.995002h-3.66977l-2.38786 8.79739h-.0503l-2.21192-8.79739h-3.46868l-2.16165 8.822525h-.0503l-2.38786-8.822525h-3.77031l4.1222 12.995002h3.69491l2.21191-8.721984h.0503l2.31246 8.721984zM153.90557 90.811562q.0754-1.25677.62838-2.086238.55298-.829468 1.40758-1.332176.85461-.502708 1.91029-.703791 1.08083-.226219 2.16165-.226219.98028 0 1.9857.150812 1.00541.125677 1.83488.527844.82947.402166 1.35731 1.131093.52784.703791.52784 1.885155v6.761423q0 .879739.10055 1.684071.10054.804333.35189 1.2065h-3.6195q-.10054-.301625-.17594-.60325-.0503-.32676-.0754-.65352-.8546.879739-2.01083 1.231634-1.15623.3519-2.36273.3519-.93001 0-1.73434-.226223-.80434-.226218-1.40758-.703791-.60325-.477573-.95515-1.206499-.32676-.728927-.32676-1.734343 0-1.105957.37703-1.809749.40217-.728926 1.00542-1.156228.62838-.427302 1.40758-.628385.80433-.226219 1.60867-.351896.80433-.125677 1.58353-.201083.77919-.07541 1.38244-.226219.60325-.150812.95515-.427301.35189-.301625.32676-.854604 0-.578114-.20109-.904874-.17594-.351896-.5027-.527844-.30163-.201083-.72893-.251354-.40217-.07541-.87974-.07541-1.05569 0-1.65894.452437-.60325.452437-.70379 1.508124zm8.24441 2.639217q-.22622.201084-.57812.326761-.32676.100541-.72892.175947-.37703.07541-.80434.125677-.4273.05027-.8546.125677-.40217.07541-.80433.201084-.37703.125677-.67866.351895-.27649.201083-.45244.527844-.17594.32676-.17594.829468 0 .477572.17594.804333.17595.32676.47758.527843.30162.175948.70379.251354.40216.07541.82947.07541 1.05568 0 1.6338-.351895.57811-.351896.8546-.829469.27649-.502708.32676-1.005416.0754-.502708.0754-.804332zM169.01877 86.815034v12.995002h3.56922v-5.856549q0-.879739.17595-1.633801t.57811-1.307041q.42731-.578114 1.10596-.904874.67866-.32676 1.65894-.32676.32676 0 .67865.05027.3519.02513.60325.07541v-3.317873q-.4273-.125677-.77919-.125677-.67866 0-1.30704.201083-.62839.201083-1.18137.578114-.55298.351896-.98028.879739-.4273.502708-.67865 1.105958h-.0503v-2.412998zM187.59277 91.91752h-5.80627q.0251-.377031.15081-.854604.15081-.477572.47757-.904874.3519-.427302.90488-.703791.57811-.301625 1.43271-.301625 1.30704 0 1.93543.703791.65352.703791.90487 2.061103zm-5.80627 2.262186h9.3755q.10054-1.508124-.25135-2.890571-.3519-1.382447-1.15623-2.463269-.7792-1.080823-2.01083-1.709208-1.23164-.65352-2.89057-.65352-1.48299 0-2.71463.527843-1.2065.527844-2.08624 1.457854-.87973.904874-1.35731 2.161644-.47757 1.25677-.47757 2.714623 0 1.508124.45244 2.764894.47757 1.25677 1.33217 2.161645.85461.904874 2.08624 1.407582 1.23164.477577 2.7649.477577 2.21191 0 3.77031-1.00542 1.55839-1.005416 2.31245-3.343008h-3.14192q-.17595.603249-.95515 1.156228-.7792.527843-1.86002.527843-1.50812 0-2.31245-.779197-.80434-.779197-.87974-2.51354zM196.55371 95.587288h-3.39328q.0503 1.307041.57812 2.18678.55297.854604 1.38244 1.382447.85461.527844 1.93543.754062 1.08082.226223 2.21191.226223 1.10596 0 2.16165-.226223 1.08082-.201083 1.91029-.728926.82947-.527844 1.33217-1.382447.52785-.879739.52785-2.161645 0-.904874-.3519-1.508124-.35189-.628385-.93001-1.030551-.57811-.427302-1.33217-.678656-.72893-.251354-1.50813-.427302-.75406-.175948-1.48299-.32676-.72892-.150813-1.30704-.32676-.55298-.201084-.90487-.502708-.3519-.301625-.3519-.779198 0-.402166.20109-.628385.20108-.251354.47757-.377031.30162-.125677.65352-.150812.35189-.05027.65352-.05027.95514 0 1.65894.377031.70379.351896.77919 1.382447h3.39328q-.10054-1.206499-.62838-1.985697-.50271-.804332-1.28191-1.281905-.7792-.477573-1.78461-.678656-.98028-.201083-2.03597-.201083-1.05569 0-2.0611.201083-1.00542.175948-1.80975.653521-.80433.452437-1.30704 1.25677-.47757.804332-.47757 2.061102 0 .854604.35189 1.457854.3519.578114.93001.98028.57812.377031 1.30704.628385.75406.226219 1.53326.402167 1.91029.402166 2.96598.804333 1.08082.402166 1.08082 1.206499 0 .477572-.22622.804333-.22622.301624-.57811.502708-.32676.175947-.75406.276489-.40217.07541-.7792.07541-.52784 0-1.03055-.125677-.47758-.125677-.85461-.377031-.37703-.276489-.62838-.678656-.22622-.427301-.22622-1.005416zM214.22797 101.4187l5.42924-14.603666h-3.6949l-2.8403 8.897931h-.0503l-2.94084-8.897931h-3.79545l4.54951 12.190669q.15081.377031.15081.804333 0 .578114-.35189 1.055684-.32676.47758-1.03055.55298-.52785.0251-1.05569-.0251-.52785-.0503-1.03055-.10055v2.94085q.55298.0503 1.08082.0754.55298.0503 1.10596.0503 1.83488 0 2.86543-.67865 1.03055-.67866 1.60867-2.26219zM224.17113 95.587288h-3.39328q.0503 1.307041.57812 2.18678.55298.854604 1.38245 1.382447.8546.527844 1.93542.754062 1.08082.226223 2.21192.226223 1.10595 0 2.16164-.226223 1.08082-.201083 1.91029-.728926.82947-.527844 1.33218-1.382447.52784-.879739.52784-2.161645 0-.904874-.35189-1.508124-.3519-.628385-.93001-1.030551-.57812-.427302-1.33218-.678656-.72893-.251354-1.50812-.427302-.75407-.175948-1.48299-.32676-.72893-.150813-1.30704-.32676-.55298-.201084-.90488-.502708-.35189-.301625-.35189-.779198 0-.402166.20108-.628385.20108-.251354.47757-.377031.30163-.125677.65352-.150812.3519-.05027.65352-.05027.95515 0 1.65894.377031.70379.351896.7792 1.382447h3.39328q-.10055-1.206499-.62839-1.985697-.50271-.804332-1.2819-1.281905-.7792-.477573-1.78462-.678656-.98028-.201083-2.03597-.201083-1.05568 0-2.0611.201083-1.00541.175948-1.80975.653521-.80433.452437-1.30704 1.25677-.47757.804332-.47757 2.061102 0 .854604.3519 1.457854.35189.578114.93001.98028.57811.377031 1.30704.628385.75406.226219 1.53326.402167 1.91029.402166 2.96597.804333 1.08082.402166 1.08082 1.206499 0 .477572-.22621.804333-.22622.301624-.57812.502708-.32676.175947-.75406.276489-.40217.07541-.7792.07541-.52784 0-1.03055-.125677-.47757-.125677-.8546-.377031-.37703-.276489-.62839-.678656-.22622-.427301-.22622-1.005416zM239.96023 86.815034v-3.895988H236.391v3.895988h-2.16164v2.387863h2.16164v7.666297q0 .98028.32676 1.58353.32676.60325.87974.93001.57812.32676 1.30704.427302.75406.125677 1.58353.125677.52785 0 1.08082-.02514.55298-.02514 1.00542-.100541v-2.764894q-.25135.05027-.52784.07541-.27649.02514-.57812.02514-.90487 0-1.2065-.301625-.30162-.301624-.30162-1.206499v-6.434662h2.61408v-2.387863zM253.54881 91.91752h-5.80628q.0251-.377031.15081-.854604.15081-.477572.47757-.904874.3519-.427302.90488-.703791.57811-.301625 1.43272-.301625 1.30704 0 1.93542.703791.65352.703791.90488 2.061103zm-5.80628 2.262186h9.3755q.10054-1.508124-.25135-2.890571-.3519-1.382447-1.15623-2.463269-.7792-1.080823-2.01083-1.709208-1.23164-.65352-2.89057-.65352-1.48299 0-2.71463.527843-1.2065.527844-2.08623 1.457854-.87974.904874-1.35732 2.161644-.47757 1.25677-.47757 2.714623 0 1.508124.45244 2.764894.47757 1.25677 1.33218 2.161645.8546.904874 2.08623 1.407582 1.23164.477577 2.7649.477577 2.21191 0 3.77031-1.00542 1.55839-1.005416 2.31245-3.343008h-3.14192q-.17595.603249-.95515 1.156228-.77919.527843-1.86002.527843-1.50812 0-2.31245-.779197-.80434-.779197-.87974-2.51354zM259.86462 86.815034v12.995002h3.56922v-7.540621q0-.955145.27649-1.533259.27649-.60325.65352-.904874.40217-.326761.80433-.427302.42731-.125677.67866-.125677.8546 0 1.28191.301625.45243.276489.62838.754062.20108.477572.22622 1.055686.0251.552979.0251 1.131093v7.289267h3.56922V92.57104q0-.603249.0754-1.181364.10054-.603249.35189-1.055686.27649-.477573.72893-.754062.47757-.301625 1.23164-.301625.75406 0 1.18136.251354.45244.251354.67865.678656.22622.427301.27649 1.005416.0503.578114.0503 1.231634v7.364673h3.56922v-8.696849q0-1.25677-.35189-2.136509-.3519-.904874-.98028-1.457853-.62839-.552979-1.50813-.804333-.87974-.251354-1.91029-.251354-1.35731 0-2.36273.65352-.98028.653521-1.55839 1.508124-.52784-1.206499-1.5584-1.684071-1.00541-.477573-2.23705-.477573-1.2819 0-2.28732.552979-.98028.552979-1.68407 1.558395h-.0503v-1.759478zM291.81931 91.91752h-5.80627q.0251-.377031.15081-.854604.15081-.477572.47757-.904874.3519-.427302.90488-.703791.57811-.301625 1.43271-.301625 1.30704 0 1.93543.703791.65352.703791.90487 2.061103zm-5.80627 2.262186h9.3755q.10054-1.508124-.25135-2.890571-.3519-1.382447-1.15623-2.463269-.7792-1.080823-2.01083-1.709208-1.23164-.65352-2.89057-.65352-1.48299 0-2.71463.527843-1.2065.527844-2.08624 1.457854-.87974.904874-1.35731 2.161644-.47757 1.25677-.47757 2.714623 0 1.508124.45244 2.764894.47757 1.25677 1.33217 2.161645.85461.904874 2.08624 1.407582 1.23164.477577 2.7649.477577 2.21191 0 3.77031-1.00542 1.55839-1.005416 2.31245-3.343008h-3.14192q-.17595.603249-.95515 1.156228-.7792.527843-1.86002.527843-1.50812 0-2.31245-.779197-.80434-.779197-.87974-2.51354z" style="font-weight:700;font-family:'Helvetica Neue';-inkscape-font-specification:'Helvetica Neue Bold';fill:#fff" transform="translate(105.82968 -35.7042097)"/></g><g aria-label="Ingenieurbüro" style="font-weight:700;font-size:25.1354px;line-height:1.25;font-family:'PT Sans';-inkscape-font-specification:'PT Sans Bold';text-align:center;letter-spacing:4.15396px;text-anchor:middle;display:inline;stroke-width:.264583"><path d="M80.963756 52.999468v17.946676h3.946258V52.999468ZM92.153666 57.951142v12.995002h3.569226V64.13445q0-1.985696.653521-2.8403.65352-.879739 2.111374-.879739 1.281905 0 1.784613.804333.50271.779197.50271 2.387863v7.339537h3.56922v-7.993057q0-1.2065-.22621-2.18678-.20109-1.005416-.72893-1.684072-.52784-.703791-1.45785-1.080822-.90488-.402167-2.337596-.402167-1.131093 0-2.211915.527844-1.080822.502708-1.759478 1.633801h-.07541v-1.809749zM117.2894 67.879625q-.82947 0-1.38245-.351895-.55297-.351896-.90487-.904875-.32676-.552979-.47757-1.231634-.12568-.703792-.12568-1.407583 0-.728927.15081-1.382447.17595-.678656.52785-1.181364.37703-.527843.90487-.829468.55298-.301625 1.30704-.301625.87974 0 1.45785.32676.57812.326761.93001.879739.3519.552979.50271 1.281906.15081.703791.15081 1.508124 0 .703791-.20108 1.357312-.17595.628385-.55298 1.131093-.37703.502708-.95514.804332-.57812.301625-1.33218.301625zm6.43466 2.237051V57.951142h-3.39328v1.734343h-.0503q-.65352-1.131093-1.6338-1.608666-.95514-.477573-2.23705-.477573-1.35731 0-2.413.527844-1.03055.527843-1.73434 1.432718-.70379.879739-1.08082 2.061102-.3519 1.156229-.3519 2.412999 0 1.332176.30163 2.538675.32676 1.181364 1.00541 2.086239.67866.879739 1.73435 1.407582 1.05568.502708 2.51354.502708 1.18136 0 2.23705-.477573 1.08082-.502708 1.65893-1.533259h.0503v1.709207q.0251 1.382447-.67865 2.287322-.67866.904874-2.18678.904874-.95515 0-1.68407-.402166-.72893-.377031-.98028-1.382447h-3.5441q.0754 1.105957.60325 1.885155.55298.804333 1.35732 1.307041.82946.502708 1.80975.728926 1.00541.251354 1.96056.251354 2.23705 0 3.56922-.603249 1.33218-.60325 2.03597-1.482989.70379-.854604.90488-1.86002.22621-1.005416.22621-1.784613zM139.49883 63.053628h-5.80628q.0251-.377031.15081-.854603.15081-.477573.47757-.904875.3519-.427302.90488-.703791.57811-.301625 1.43272-.301625 1.30704 0 1.93542.703791.65352.703792.90488 2.061103zm-5.80628 2.262186h9.3755q.10055-1.508124-.25135-2.890571t-1.15623-2.463269q-.7792-1.080822-2.01083-1.709207-1.23164-.653521-2.89057-.653521-1.48299 0-2.71463.527844-1.20649.527843-2.08623 1.457853-.87974.904874-1.35732 2.161644-.47757 1.25677-.47757 2.714624 0 1.508124.45244 2.764894.47757 1.25677 1.33218 2.161644.8546.904875 2.08623 1.407583 1.23164.477572 2.7649.477572 2.21191 0 3.77031-1.005416 1.55839-1.005416 2.31245-3.343008h-3.14192q-.17595.60325-.95515 1.156228-.77919.527844-1.86002.527844-1.50812 0-2.31245-.779198-.80433-.779197-.87974-2.51354zM149.33888 57.951142v12.995002h3.56923V64.13445q0-1.985696.65352-2.8403.65352-.879739 2.11138-.879739 1.2819 0 1.78461.804333.50271.779197.50271 2.387863v7.339537h3.56922v-7.993057q0-1.2065-.22621-2.18678-.20109-1.005416-.72893-1.684072-.52784-.703791-1.45785-1.080822-.90488-.402167-2.3376-.402167-1.13109 0-2.21191.527844-1.08082.502708-1.75948 1.633801h-.0754v-1.809749zM172.08675 55.94031v-2.940842h-3.56922v2.940842zm-3.56922 2.010832v12.995002h3.56922V57.951142ZM187.79829 63.053628h-5.80628q.0251-.377031.15082-.854603.15081-.477573.47757-.904875.35189-.427302.90487-.703791.57812-.301625 1.43272-.301625 1.30704 0 1.93543.703791.65352.703792.90487 2.061103zm-5.80628 2.262186h9.37551q.10054-1.508124-.25136-2.890571-.35189-1.382447-1.15622-2.463269-.7792-1.080822-2.01084-1.709207-1.23163-.653521-2.89057-.653521-1.48299 0-2.71462.527844-1.2065.527843-2.08624 1.457853-.87974.904874-1.35731 2.161644-.47757 1.25677-.47757 2.714624 0 1.508124.45243 2.764894.47758 1.25677 1.33218 2.161644.8546.904875 2.08624 1.407583 1.23163.477572 2.76489.477572 2.21192 0 3.77031-1.005416 1.5584-1.005416 2.31246-3.343008h-3.14193q-.17594.60325-.95514 1.156228-.7792.527844-1.86002.527844-1.50812 0-2.31246-.779198-.80433-.779197-.87974-2.51354zM209.82902 70.946144V57.951142h-3.56923v6.811694q0 1.985696-.65352 2.865435-.65352.854604-2.11138.854604-1.2819 0-1.78461-.779198-.50271-.804332-.50271-2.412998v-7.339537h-3.56922v7.993057q0 1.2065.20108 2.211916.22622.98028.75406 1.684071.52784.678656 1.43272 1.055687.93001.377031 2.36273.377031 1.13109 0 2.21191-.502708 1.08082-.502708 1.75948-1.633801h.0754v1.809749zM216.71646 57.951142v12.995002h3.56922v-5.856548q0-.879739.17595-1.633801t.57811-1.307041q.42731-.578114 1.10596-.904875.67866-.32676 1.65894-.32676.32676 0 .67865.05027.3519.02513.60325.07541v-3.317873q-.4273-.125677-.77919-.125677-.67866 0-1.30704.201084-.62839.201083-1.18137.578114-.55298.351895-.98028.879739-.4273.502708-.67865 1.105957h-.0503v-2.412998zM240.16616 64.461211q0 .804333-.17595 1.558395t-.55298 1.332176q-.37703.578114-.95514.93001-.55298.32676-1.35732.32676-.77919 0-1.35731-.32676-.57811-.351896-.95514-.93001t-.55298-1.332176q-.17595-.754062-.17595-1.558395 0-.829469.17595-1.583531t.55298-1.332176q.37703-.578114.95514-.904874.57812-.351896 1.35731-.351896.80434 0 1.35732.351896.57811.32676.95514.904874t.55298 1.332176q.17595.754062.17595 1.583531zm-9.52632-11.461743v17.946676h3.39328v-1.658936h.0503q.57812 1.080822 1.70921 1.533259t2.56381.452437q.98028 0 1.93542-.402166.95515-.402167 1.70921-1.231635.7792-.829468 1.25677-2.111373.47757-1.307041.47757-3.091655 0-1.784613-.47757-3.066519-.47757-1.30704-1.25677-2.136509-.75406-.829468-1.70921-1.231634-.95514-.402167-1.93542-.402167-1.2065 0-2.33759.477573-1.10596.452437-1.75948 1.457853h-.0503v-6.535204zM251.96952 52.999468v2.940842h3.39328v-2.940842zm5.17789 0v2.940842h3.39328v-2.940842zm5.20303 17.946676V57.951142h-3.56923v6.811694q0 1.985696-.65352 2.865435-.65352.854604-2.11137.854604-1.28191 0-1.78462-.779198-.5027-.804332-.5027-2.412998v-7.339537h-3.56923v7.993057q0 1.2065.20108 2.211916.22622.98028.75406 1.684071.52785.678656 1.43272 1.055687.93001.377031 2.36273.377031 1.13109 0 2.21192-.502708 1.08082-.502708 1.75947-1.633801h.0754v1.809749zM269.23788 57.951142v12.995002h3.56923v-5.856548q0-.879739.17594-1.633801.17595-.754062.57812-1.307041.4273-.578114 1.10596-.904875.67865-.32676 1.65893-.32676.32676 0 .67866.05027.35189.02513.60325.07541v-3.317873q-.4273-.125677-.7792-.125677-.67866 0-1.30704.201084-.62839.201083-1.18136.578114-.55298.351895-.98029.879739-.4273.502708-.67865 1.105957h-.0503v-2.412998zM285.85661 64.461211q0-.779198.15082-1.53326.15081-.754062.50271-1.332176.37703-.578114.98028-.93001.60325-.377031 1.50812-.377031t1.50812.377031q.62839.351896.98028.93001.37704.578114.52785 1.332176.15081.754062.15081 1.53326 0 .779197-.15081 1.533259-.15081.728927-.52785 1.332176-.35189.578115-.98028.93001-.60325.351896-1.50812.351896t-1.50812-.351896q-.60325-.351895-.98028-.93001-.3519-.603249-.50271-1.332176-.15082-.754062-.15082-1.533259zm-3.56922 0q0 1.558395.47757 2.815165t1.35731 2.161644q.87974.879739 2.11138 1.357312 1.23163.477572 2.76489.477572 1.53326 0 2.76489-.477572 1.25677-.477573 2.13651-1.357312.87974-.904874 1.35731-2.161644.47758-1.25677.47758-2.815165t-.47758-2.815165q-.47757-1.281906-1.35731-2.161645-.87974-.904874-2.13651-1.382447-1.23163-.502708-2.76489-.502708-1.53326 0-2.76489.502708-1.23164.477573-2.11138 1.382447-.87974.879739-1.35731 2.161645-.47757 1.25677-.47757 2.815165z" style="font-family:'Helvetica Neue';-inkscape-font-specification:'Helvetica Neue Bold';fill:#fff" transform="translate(105.82968 -35.2264483)"/></g><g aria-label="Dr.-Ing. Jürgen Ehret" style="font-size:14.5521px;line-height:1.25;font-family:'PT Sans';-inkscape-font-specification:'PT Sans';text-align:center;letter-spacing:1.05833px;text-anchor:middle;display:inline;stroke-width:.264583"><path d="M108.73531 124.96546v-6.54845h1.62984q.84402 0 1.41155.24739.58209.23283.93134.68395.34925.45111.49477 1.09141.16007.62574.16007 1.41155 0 .85857-.21828 1.45521-.21828.59664-.58208.97499-.36381.3638-.82947.52388-.46567.16007-.96044.16007zm-2.28468-8.46932v10.3902h4.48205q1.19327 0 2.0664-.39291.88768-.40746 1.46976-1.10596.59664-.6985.88768-1.65894.29104-.96044.29104-2.0955 0-1.29514-.3638-2.25558-.34925-.96044-.98954-1.60073-.62574-.64029-1.49887-.96044-.85857-.32014-1.86267-.32014zM118.06265 119.3629v7.52344h2.0664v-3.39064q0-.50933.10186-.94589.10187-.43656.3347-.75671.24738-.3347.64029-.52387.39291-.18918.96044-.18918.18918 0 .39291.0291.20373.0146.34925.0437v-1.92088q-.24739-.0728-.45112-.0728-.3929 0-.75671.11642-.3638.11642-.68395.3347-.32014.20373-.56753.50932-.24738.29104-.3929.64029h-.0291v-1.397zM123.51276 124.64531v2.24103h2.28468v-2.24103zM128.49242 122.02594v1.77535h4.38018v-1.77535zM135.69538 116.49614v10.3902h2.28468v-10.3902zM140.82716 119.3629v7.52344h2.0664v-3.94362q0-1.14962.37835-1.64439.37836-.50932 1.22238-.50932.74216 0 1.0332.46566.29104.45112.29104 1.38245v4.24922h2.0664v-4.62757q0-.6985-.13097-1.26603-.11642-.58209-.42201-.97499-.3056-.40746-.84402-.62574-.52388-.23284-1.35335-.23284-.65484 0-1.28058.3056-.62574.29104-1.01865.94588h-.0437v-1.04775zM154.03285 125.11098q-.48022 0-.80036-.20373-.32015-.20373-.52388-.52387-.18917-.32015-.27649-.71306-.0728-.40746-.0728-.81491 0-.42202.0873-.80037.10187-.39291.3056-.68395.21828-.30559.52387-.48022.32015-.17462.75671-.17462.50933 0 .84403.18917.33469.18918.53842.50933.20373.32014.29105.74215.0873.40746.0873.87313 0 .40746-.11642.78581-.10186.36381-.32015.65485-.21828.29104-.55297.46567-.3347.17462-.77127.17462zm3.72534 1.29514v-7.04322h-1.96453v1.0041h-.0291q-.37835-.65485-.94588-.93134-.55298-.27649-1.29514-.27649-.78581 0-1.397.3056-.59664.30559-1.0041.82947-.40746.50932-.62574 1.19327-.20373.66939-.20373 1.397 0 .77126.17463 1.46976.18918.68395.58208 1.20783.39291.50932 1.0041.81491.61119.29105 1.45521.29105.68395 0 1.29514-.27649.62574-.29105.96043-.88768h.0291v.98954q.0146.80037-.39291 1.32424-.39291.52388-1.26603.52388-.55298 0-.97499-.23284-.42201-.21828-.56753-.80036h-2.05185q.0437.64029.34925 1.09141.32015.46566.78581.7567.48022.29105 1.04775.42202.58209.14552 1.13507.14552 1.29514 0 2.0664-.34925.77126-.34925 1.17872-.85858.40746-.49477.52387-1.07685.13097-.58209.13097-1.0332zM160.56755 124.64531v2.24103h2.28468v-2.24103zM176.96982 123.61211v-7.11597h-2.28468v7.01411q0 .27649-.0291.58208-.0146.29105-.13097.55298-.10187.24739-.34925.40746-.24739.16008-.6985.16008-.40746 0-.6694-.13097-.24739-.13097-.39291-.34925-.14552-.23284-.20373-.55298-.0582-.32015-.0582-.6985v-.46567h-2.0664v.90223q0 .85857.29104 1.46976.29104.59664.77126.98954.48022.37836 1.09141.55298.61119.18918 1.26603.18918 1.16417 0 1.84812-.34925.68395-.3638 1.04775-.88768.3638-.53843.46567-1.14961.10186-.61119.10186-1.12052zM180.87514 116.49614v1.70259h1.96453v-1.70259zm2.99773 0v1.70259h1.96453v-1.70259zm3.01228 10.3902v-7.52344h-2.0664v3.94362q0 1.14962-.37835 1.65894-.37836.49477-1.22238.49477-.74215 0-1.0332-.45111-.29104-.46567-.29104-1.39701v-4.24921h-2.0664v4.62757q0 .6985.11642 1.28058.13097.56754.43656.97499.3056.39291.82947.61119.53843.21828 1.3679.21828.65485 0 1.28059-.29104.62574-.29104 1.01864-.94588h.0437v1.04775zM189.52602 119.3629v7.52344h2.0664v-3.39064q0-.50933.10187-.94589.10186-.43656.33469-.75671.24739-.3347.6403-.52387.3929-.18918.96043-.18918.18918 0 .39291.0291.20373.0146.34925.0437v-1.92088q-.24738-.0728-.45111-.0728-.39291 0-.75671.11642t-.68395.3347q-.32015.20373-.56753.50932-.24739.29104-.39291.64029h-.0291v-1.397zM199.34472 125.11098q-.48022 0-.80037-.20373-.32014-.20373-.52387-.52387-.18918-.32015-.27649-.71306-.0728-.40746-.0728-.81491 0-.42202.0873-.80037.10186-.39291.30559-.68395.21828-.30559.52388-.48022.32014-.17462.75671-.17462.50932 0 .84402.18917.3347.18918.53843.50933.20373.32014.29104.74215.0873.40746.0873.87313 0 .40746-.11642.78581-.10186.36381-.32014.65485-.21828.29104-.55298.46567-.3347.17462-.77126.17462zm3.72533 1.29514v-7.04322h-1.96453v1.0041h-.0291q-.37836-.65485-.94589-.93134-.55298-.27649-1.29514-.27649-.78581 0-1.397.3056-.59663.30559-1.00409.82947-.40746.50932-.62574 1.19327-.20373.66939-.20373 1.397 0 .77126.17462 1.46976.18918.68395.58209 1.20783.3929.50932 1.00409.81491.61119.29105 1.45521.29105.68395 0 1.29514-.27649.62574-.29105.96044-.88768h.0291v.98954q.0145.80037-.39291 1.32424-.3929.52388-1.26603.52388-.55298 0-.97499-.23284-.42201-.21828-.56753-.80036h-2.05185q.0437.64029.34925 1.09141.32015.46566.78582.7567.48022.29105 1.04775.42202.58208.14552 1.13506.14552 1.29514 0 2.0664-.34925.77126-.34925 1.17872-.85858.40746-.49477.52388-1.07685.13096-.58209.13096-1.0332zM210.861 122.31698h-3.36153q.0145-.21828.0873-.49477.0873-.27649.27649-.52388.20373-.24738.52388-.40746.3347-.17462.82947-.17462.75671 0 1.12051.40746.37835.40745.52387 1.19327zm-3.36153 1.30969h5.42793q.0582-.87313-.14552-1.67349-.20373-.80037-.66939-1.42611-.45112-.62574-1.16417-.98954-.71306-.37836-1.67349-.37836-.85858 0-1.57163.3056-.6985.30559-1.20783.84402-.50932.52387-.78581 1.25148-.27649.7276-.27649 1.57163 0 .87312.26194 1.60073.27649.7276.77126 1.25148.49477.52387 1.20782.81491.71306.27649 1.60074.27649 1.28058 0 2.18281-.58208.90223-.58208 1.33879-1.93543h-1.81901q-.10186.34925-.55298.6694-.45111.30559-1.07685.30559-.87313 0-1.3388-.45111-.46566-.45112-.50932-1.45521zM215.21129 119.3629v7.52344h2.0664v-3.94362q0-1.14962.37836-1.64439.37835-.50932 1.22237-.50932.74216 0 1.0332.46566.29105.45112.29105 1.38245v4.24922h2.06639v-4.62757q0-.6985-.13097-1.26603-.11641-.58209-.42201-.97499-.30559-.40746-.84402-.62574-.52387-.23284-1.35334-.23284-.65485 0-1.28059.3056-.62574.29104-1.01865.94588h-.0437v-1.04775zM230.22248 116.49614v10.3902h7.88723v-1.92088h-5.60255v-2.54662h5.03502v-1.77535h-5.03502v-2.22648h5.48614v-1.92087zM240.49865 116.49614v10.3902h2.0664v-3.94362q0-1.14962.37835-1.64439.37836-.50932 1.22238-.50932.74215 0 1.0332.46566.29104.45112.29104 1.38245v4.24922h2.0664v-4.62757q0-.6985-.13097-1.26603-.11642-.58209-.42201-.97499-.3056-.40746-.84402-.62574-.52388-.23284-1.35335-.23284-.58208 0-1.19327.3056-.61119.29104-1.0041.94588h-.0436v-3.91451zM250.19729 119.3629v7.52344h2.0664v-3.39064q0-.50933.10186-.94589.10187-.43656.3347-.75671.24738-.3347.64029-.52387.39291-.18918.96044-.18918.18918 0 .39291.0291.20373.0146.34925.0437v-1.92088q-.24739-.0728-.45112-.0728-.39291 0-.75671.11642t-.68395.3347q-.32014.20373-.56753.50932-.24738.29104-.3929.64029h-.0291v-1.397zM261.70266 122.31698h-3.36154q.0145-.21828.0873-.49477.0873-.27649.27649-.52388.20373-.24738.52388-.40746.3347-.17462.82947-.17462.75671 0 1.12051.40746.37836.40745.52388 1.19327zm-3.36154 1.30969h5.42793q.0582-.87313-.14552-1.67349-.20373-.80037-.66939-1.42611-.45112-.62574-1.16417-.98954-.71305-.37836-1.67349-.37836-.85858 0-1.57163.3056-.6985.30559-1.20782.84402-.50933.52387-.78582 1.25148-.27649.7276-.27649 1.57163 0 .87312.26194 1.60073.27649.7276.77126 1.25148.49477.52387 1.20783.81491.71305.27649 1.60073.27649 1.28058 0 2.18281-.58208.90223-.58208 1.3388-1.93543h-1.81902q-.10186.34925-.55298.6694-.45111.30559-1.07685.30559-.87313 0-1.33879-.45111-.46567-.45112-.50933-1.45521zM268.66119 119.3629v-2.25557h-2.06639v2.25557h-1.25149v1.38245h1.25149v4.43839q0 .56753.18917.91678.18918.34925.50933.53843.33469.18918.75671.24739.43656.0728.91678.0728.30559 0 .62574-.0145.32014-.0146.58208-.0582v-1.60073q-.14552.0291-.30559.0436-.16008.0145-.3347.0145-.52388 0-.6985-.17462-.17463-.17463-.17463-.6985v-3.72534h1.51342v-1.38245z" style="font-weight:700;font-family:'Helvetica Neue';-inkscape-font-specification:'Helvetica Neue Bold';fill:#fff" transform="translate(105.82968 -34.168115)"/></g><g style="display:inline;stroke-width:1.21915"><path style="display:inline;fill:none;fill-opacity:1;stroke:#fff;stroke-width:2.3515;stroke-miterlimit:4;stroke-dasharray:none;stroke-opacity:1;stop-color:#000" d="M-165.55737 439.72724a11.106197 6.4262649 0 0 1-11.10613 6.42623 11.106197 6.4262649 0 0 1-11.10613-6.42622 11.106197 6.4262649 0 0 1 11.10614-6.4262 11.106197 6.4262649 0 0 1 11.10612 6.42619z" transform="matrix(.82133 0 0 .81916 287.27045 -303.015535)"/><path style="display:inline;fill:none;fill-opacity:1;stroke:#fff;stroke-width:2.87406;stroke-miterlimit:4;stroke-dasharray:none;stroke-opacity:1;stop-color:#000" d="M-163.84062 439.72726a18.732446 11.164379 0 0 1-18.73236 11.16429 18.732446 11.164379 0 0 1-18.73234-11.1643 18.732446 11.164379 0 0 1 18.73235-11.16427 18.732446 11.164379 0 0 1 18.73235 11.16428z" transform="matrix(.82133 0 0 .81916 287.27045 -303.015535)"/><path style="display:inline;fill:none;fill-opacity:1;stroke:#fff;stroke-width:3.3966;stroke-miterlimit:4;stroke-dasharray:none;stroke-opacity:1;stop-color:#000" d="M-161.92136 439.72725a31.453028 19.213989 0 0 1-31.45287 19.21385 31.453028 19.213989 0 0 1-31.45278-19.21385 31.453028 19.213989 0 0 1 31.45278-19.21381 31.453028 19.213989 0 0 1 31.45287 19.21381z" transform="matrix(.82133 0 0 .81916 287.27045 -303.015535)"/><path style="display:inline;fill:none;fill-opacity:1;stroke:#fff;stroke-width:3.91918;stroke-miterlimit:4;stroke-dasharray:none;stroke-opacity:1;stop-color:#000" d="M-159.62176 439.72723a52.416267 32.621616 0 0 1-52.41601 32.62138 52.416267 32.621616 0 0 1-52.41593-32.62138 52.416267 32.621616 0 0 1 52.41594-32.6213 52.416267 32.621616 0 0 1 52.416 32.6213z" transform="matrix(.82133 0 0 .81916 287.27045 -303.015535)"/><path style="display:inline;fill:none;fill-opacity:1;stroke:#fff;stroke-width:4.44174;stroke-miterlimit:4;stroke-dasharray:none;stroke-opacity:1;stop-color:#000" d="M-156.89016 439.7272a86.716094 54.698496 0 0 1-86.71574 54.69811 86.716094 54.698496 0 0 1-86.71549-54.6981 86.716094 54.698496 0 0 1 86.71549-54.69799 86.716094 54.698496 0 0 1 86.71574 54.69798z" transform="matrix(.82133 0 0 .81916 287.27045 -303.015535)"/></g></g></svg>