<svg width="1485.351" height="422.33002" viewBox="0 0 392.99898 111.74146" xmlns="http://www.w3.org/2000/svg"><defs><path id="d" d="M83.976158 1224.1858h406.81784v278.05438H83.976158z"/><path id="c" d="M1600.6648 5530.2114h158.57976v94.550331H1600.6648z"/><path id="b" d="M157-13h55v40h-55z"/><filter style="color-interpolation-filters:sRGB" id="a" x="-.05642297" y="-.03515585" width="1.1128459" height="1.0703117"><feGaussianBlur stdDeviation="1.1384116"/></filter></defs><text xml:space="preserve" transform="matrix(.26458 0 0 .26458 58.519963 -2150.443)" style="font-size:36px;line-height:1.25;font-family:Lato;-inkscape-font-specification:Lato;text-align:center;letter-spacing:0;white-space:pre;shape-inside:url(#b)"><tspan x="157" y="60.48"><tspan dx="0 20.882812 20.039062 14.484375 18.84375">Ehret</tspan></tspan></text><g style="display:inline"><path style="display:inline;vector-effect:none;fill:#000;fill-opacity:.35;stroke-width:.8158;stroke-opacity:.968165;stop-color:#000" d="M20.063686 0H413.0628v111.74148H20.063686Z" transform="translate(-20.063686)"/></g><g style="display:inline"><g aria-label="Softwaresysteme" style="font-size:25.1354px;line-height:1.25;font-family:'PT Sans';-inkscape-font-specification:'PT Sans';text-align:center;letter-spacing:.529167px;text-anchor:middle;display:inline;stroke-width:.264583"><path d="M85.109249 93.852946h-3.820581q-.02514 1.658936.603249 2.865435.628385 1.2065 1.684072 1.985697 1.080822.779197 2.463269 1.131093 1.407583.377029 2.890572.377029 1.834884 0 3.217331-.4273 1.407582-.427302 2.337592-1.181364.955145-.779197 1.432718-1.834884.477573-1.055687.477573-2.287321 0-1.508124-.653521-2.46327-.628385-.98028-1.508124-1.558394-.879739-.578115-1.784613-.829469-.879739-.276489-1.382447-.377031-1.684072-.427301-2.739759-.703791-1.030552-.276489-1.633801-.552979-.578114-.276489-.779198-.603249-.201083-.32676-.201083-.854604 0-.578114.251354-.955145t.628385-.628385q.402167-.251354.879739-.351896.477573-.100541.955146-.100541.728926 0 1.332176.125677.628385.125677 1.105957.427301.477573.301625.754062.829469.301625.527843.351896 1.332176h3.820581q0-1.558395-.60325-2.639217-.578114-1.105958-1.58353-1.809749t-2.312457-1.005416q-1.281905-.32676-2.689488-.32676-1.206499 0-2.412998.32676t-2.161645 1.005416q-.955145.678656-1.558394 1.709207-.578115 1.005416-.578115 2.387863 0 1.231635.452438 2.111374.477572.854604 1.231634 1.432718.754062.578114 1.709207.955145.955146.351896 1.960562.60325.98028.276489 1.935426.502708.955145.226218 1.709207.527843.754062.301625 1.206499.754062.477573.452437.477573 1.181364 0 .678656-.351896 1.131093-.351896.427302-.879739.678656-.527843.251354-1.131093.351895-.60325.07541-1.131093.07541-.779197 0-1.508124-.175948-.728927-.201083-1.281906-.578114-.527843-.402167-.854603-1.030552-.32676-.628385-.32676-1.533259zM102.03769 93.325102q0-.779197.15082-1.533259.15081-.754062.5027-1.332176.37704-.578115.98029-.93001.60324-.377031 1.50812-.377031.90487 0 1.50812.377031.62839.351895.98028.93001.37703.578114.52785 1.332176.15081.754062.15081 1.533259 0 .779198-.15081 1.53326-.15082.728926-.52785 1.332176-.35189.578114-.98028.93001-.60325.351895-1.50812.351895-.90488 0-1.50812-.351895-.60325-.351896-.98029-.93001-.35189-.60325-.5027-1.332176-.15082-.754062-.15082-1.53326zm-3.569223 0q0 1.558395.477573 2.815165.477572 1.25677 1.35731 2.161645.87974.879739 2.11137 1.357311 1.23164.477577 2.7649.477577 1.53326 0 2.76489-.477577 1.25677-.477572 2.13651-1.357311.87974-.904875 1.35731-2.161645.47758-1.25677.47758-2.815165t-.47758-2.815165q-.47757-1.281905-1.35731-2.161644-.87974-.904874-2.13651-1.382447-1.23163-.502708-2.76489-.502708-1.53326 0-2.7649.502708-1.23163.477573-2.11137 1.382447-.879738.879739-1.35731 2.161644-.477573 1.25677-.477573 2.815165zM115.54498 89.202897v10.607139h3.56922V89.202897h2.46327v-2.387863h-2.46327v-.779198q0-.804333.30163-1.131093.32676-.351896 1.05568-.351896.67866 0 1.30705.07541v-2.664353q-.45244-.02514-.93001-.05027-.47758-.05027-.95515-.05027-2.18678 0-3.2676 1.105957-1.08082 1.105958-1.08082 2.8403v1.005417h-2.13651v2.387863zM128.21415 86.815034v-3.895988h-3.56923v3.895988h-2.16164v2.387863h2.16164v7.666297q0 .98028.32676 1.58353.32676.60325.87974.93001.57811.32676 1.30704.427302.75406.125677 1.58353.125677.52784 0 1.08082-.02514.55298-.02514 1.00542-.100541v-2.764894q-.25136.05027-.52784.07541-.27649.02514-.57812.02514-.90487 0-1.2065-.301625-.30162-.301624-.30162-1.206499v-6.434662h2.61408v-2.387863zM147.91063 99.810036l4.09707-12.995002h-3.66977l-2.38786 8.79739h-.0503l-2.21192-8.79739h-3.46868l-2.16165 8.822525h-.0503l-2.38786-8.822525h-3.77031l4.1222 12.995002h3.69491l2.21191-8.721984h.0503l2.31246 8.721984zM153.90557 90.811562q.0754-1.25677.62838-2.086238.55298-.829468 1.40758-1.332176.85461-.502708 1.91029-.703791 1.08083-.226219 2.16165-.226219.98028 0 1.9857.150812 1.00541.125677 1.83488.527844.82947.402166 1.35731 1.131093.52784.703791.52784 1.885155v6.761423q0 .879739.10055 1.684071.10054.804333.35189 1.2065h-3.6195q-.10054-.301625-.17594-.60325-.0503-.32676-.0754-.65352-.8546.879739-2.01083 1.231634-1.15623.3519-2.36273.3519-.93001 0-1.73434-.226223-.80434-.226218-1.40758-.703791-.60325-.477573-.95515-1.206499-.32676-.728927-.32676-1.734343 0-1.105957.37703-1.809749.40217-.728926 1.00542-1.156228.62838-.427302 1.40758-.628385.80433-.226219 1.60867-.351896.80433-.125677 1.58353-.201083.77919-.07541 1.38244-.226219.60325-.150812.95515-.427301.35189-.301625.32676-.854604 0-.578114-.20109-.904874-.17594-.351896-.5027-.527844-.30163-.201083-.72893-.251354-.40217-.07541-.87974-.07541-1.05569 0-1.65894.452437-.60325.452437-.70379 1.508124zm8.24441 2.639217q-.22622.201084-.57812.326761-.32676.100541-.72892.175947-.37703.07541-.80434.125677-.4273.05027-.8546.125677-.40217.07541-.80433.201084-.37703.125677-.67866.351895-.27649.201083-.45244.527844-.17594.32676-.17594.829468 0 .477572.17594.804333.17595.32676.47758.527843.30162.175948.70379.251354.40216.07541.82947.07541 1.05568 0 1.6338-.351895.57811-.351896.8546-.829469.27649-.502708.32676-1.005416.0754-.502708.0754-.804332zM169.01877 86.815034v12.995002h3.56922v-5.856549q0-.879739.17595-1.633801t.57811-1.307041q.42731-.578114 1.10596-.904874.67866-.32676 1.65894-.32676.32676 0 .67865.05027.3519.02513.60325.07541v-3.317873q-.4273-.125677-.77919-.125677-.67866 0-1.30704.201083-.62839.201083-1.18137.578114-.55298.351896-.98028.879739-.4273.502708-.67865 1.105958h-.0503v-2.412998zM187.59277 91.91752h-5.80627q.0251-.377031.15081-.854604.15081-.477572.47757-.904874.3519-.427302.90488-.703791.57811-.301625 1.43271-.301625 1.30704 0 1.93543.703791.65352.703791.90487 2.061103zm-5.80627 2.262186h9.3755q.10054-1.508124-.25135-2.890571-.3519-1.382447-1.15623-2.463269-.7792-1.080823-2.01083-1.709208-1.23164-.65352-2.89057-.65352-1.48299 0-2.71463.527843-1.2065.527844-2.08624 1.457854-.87973.904874-1.35731 2.161644-.47757 1.25677-.47757 2.714623 0 1.508124.45244 2.764894.47757 1.25677 1.33217 2.161645.85461.904874 2.08624 1.407582 1.23164.477577 2.7649.477577 2.21191 0 3.77031-1.00542 1.55839-1.005416 2.31245-3.343008h-3.14192q-.17595.603249-.95515 1.156228-.7792.527843-1.86002.527843-1.50812 0-2.31245-.779197-.80434-.779197-.87974-2.51354zM196.55371 95.587288h-3.39328q.0503 1.307041.57812 2.18678.55297.854604 1.38244 1.382447.85461.527844 1.93543.754062 1.08082.226223 2.21191.226223 1.10596 0 2.16165-.226223 1.08082-.201083 1.91029-.728926.82947-.527844 1.33217-1.382447.52785-.879739.52785-2.161645 0-.904874-.3519-1.508124-.35189-.628385-.93001-1.030551-.57811-.427302-1.33217-.678656-.72893-.251354-1.50813-.427302-.75406-.175948-1.48299-.32676-.72892-.150813-1.30704-.32676-.55298-.201084-.90487-.502708-.3519-.301625-.3519-.779198 0-.402166.20109-.628385.20108-.251354.47757-.377031.30162-.125677.65352-.150812.35189-.05027.65352-.05027.95514 0 1.65894.377031.70379.351896.77919 1.382447h3.39328q-.10054-1.206499-.62838-1.985697-.50271-.804332-1.28191-1.281905-.7792-.477573-1.78461-.678656-.98028-.201083-2.03597-.201083-1.05569 0-2.0611.201083-1.00542.175948-1.80975.653521-.80433.452437-1.30704 1.25677-.47757.804332-.47757 2.061102 0 .854604.35189 1.457854.3519.578114.93001.98028.57812.377031 1.30704.628385.75406.226219 1.53326.402167 1.91029.402166 2.96598.804333 1.08082.402166 1.08082 1.206499 0 .477572-.22622.804333-.22622.301624-.57811.502708-.32676.175947-.75406.276489-.40217.07541-.7792.07541-.52784 0-1.03055-.125677-.47758-.125677-.85461-.377031-.37703-.276489-.62838-.678656-.22622-.427301-.22622-1.005416zM214.22797 101.4187l5.42924-14.603666h-3.6949l-2.8403 8.897931h-.0503l-2.94084-8.897931h-3.79545l4.54951 12.190669q.15081.377031.15081.804333 0 .578114-.35189 1.055684-.32676.47758-1.03055.55298-.52785.0251-1.05569-.0251-.52785-.0503-1.03055-.10055v2.94085q.55298.0503 1.08082.0754.55298.0503 1.10596.0503 1.83488 0 2.86543-.67865 1.03055-.67866 1.60867-2.26219zM224.17113 95.587288h-3.39328q.0503 1.307041.57812 2.18678.55298.854604 1.38245 1.382447.8546.527844 1.93542.754062 1.08082.226223 2.21192.226223 1.10595 0 2.16164-.226223 1.08082-.201083 1.91029-.728926.82947-.527844 1.33218-1.382447.52784-.879739.52784-2.161645 0-.904874-.35189-1.508124-.3519-.628385-.93001-1.030551-.57812-.427302-1.33218-.678656-.72893-.251354-1.50812-.427302-.75407-.175948-1.48299-.32676-.72893-.150813-1.30704-.32676-.55298-.201084-.90488-.502708-.35189-.301625-.35189-.779198 0-.402166.20108-.628385.20108-.251354.47757-.377031.30163-.125677.65352-.150812.3519-.05027.65352-.05027.95515 0 1.65894.377031.70379.351896.7792 1.382447h3.39328q-.10055-1.206499-.62839-1.985697-.50271-.804332-1.2819-1.281905-.7792-.477573-1.78462-.678656-.98028-.201083-2.03597-.201083-1.05568 0-2.0611.201083-1.00541.175948-1.80975.653521-.80433.452437-1.30704 1.25677-.47757.804332-.47757 2.061102 0 .854604.3519 1.457854.35189.578114.93001.98028.57811.377031 1.30704.628385.75406.226219 1.53326.402167 1.91029.402166 2.96597.804333 1.08082.402166 1.08082 1.206499 0 .477572-.22621.804333-.22622.301624-.57812.502708-.32676.175947-.75406.276489-.40217.07541-.7792.07541-.52784 0-1.03055-.125677-.47757-.125677-.8546-.377031-.37703-.276489-.62839-.678656-.22622-.427301-.22622-1.005416zM239.96023 86.815034v-3.895988H236.391v3.895988h-2.16164v2.387863h2.16164v7.666297q0 .98028.32676 1.58353.32676.60325.87974.93001.57812.32676 1.30704.427302.75406.125677 1.58353.125677.52785 0 1.08082-.02514.55298-.02514 1.00542-.100541v-2.764894q-.25135.05027-.52784.07541-.27649.02514-.57812.02514-.90487 0-1.2065-.301625-.30162-.301624-.30162-1.206499v-6.434662h2.61408v-2.387863zM253.54881 91.91752h-5.80628q.0251-.377031.15081-.854604.15081-.477572.47757-.904874.3519-.427302.90488-.703791.57811-.301625 1.43272-.301625 1.30704 0 1.93542.703791.65352.703791.90488 2.061103zm-5.80628 2.262186h9.3755q.10054-1.508124-.25135-2.890571-.3519-1.382447-1.15623-2.463269-.7792-1.080823-2.01083-1.709208-1.23164-.65352-2.89057-.65352-1.48299 0-2.71463.527843-1.2065.527844-2.08623 1.457854-.87974.904874-1.35732 2.161644-.47757 1.25677-.47757 2.714623 0 1.508124.45244 2.764894.47757 1.25677 1.33218 2.161645.8546.904874 2.08623 1.407582 1.23164.477577 2.7649.477577 2.21191 0 3.77031-1.00542 1.55839-1.005416 2.31245-3.343008h-3.14192q-.17595.603249-.95515 1.156228-.77919.527843-1.86002.527843-1.50812 0-2.31245-.779197-.80434-.779197-.87974-2.51354zM259.86462 86.815034v12.995002h3.56922v-7.540621q0-.955145.27649-1.533259.27649-.60325.65352-.904874.40217-.326761.80433-.427302.42731-.125677.67866-.125677.8546 0 1.28191.301625.45243.276489.62838.754062.20108.477572.22622 1.055686.0251.552979.0251 1.131093v7.289267h3.56922V92.57104q0-.603249.0754-1.181364.10054-.603249.35189-1.055686.27649-.477573.72893-.754062.47757-.301625 1.23164-.301625.75406 0 1.18136.251354.45244.251354.67865.678656.22622.427301.27649 1.005416.0503.578114.0503 1.231634v7.364673h3.56922v-8.696849q0-1.25677-.35189-2.136509-.3519-.904874-.98028-1.457853-.62839-.552979-1.50813-.804333-.87974-.251354-1.91029-.251354-1.35731 0-2.36273.65352-.98028.653521-1.55839 1.508124-.52784-1.206499-1.5584-1.684071-1.00541-.477573-2.23705-.477573-1.2819 0-2.28732.552979-.98028.552979-1.68407 1.558395h-.0503v-1.759478zM291.81931 91.91752h-5.80627q.0251-.377031.15081-.854604.15081-.477572.47757-.904874.3519-.427302.90488-.703791.57811-.301625 1.43271-.301625 1.30704 0 1.93543.703791.65352.703791.90487 2.061103zm-5.80627 2.262186h9.3755q.10054-1.508124-.25135-2.890571-.3519-1.382447-1.15623-2.463269-.7792-1.080823-2.01083-1.709208-1.23164-.65352-2.89057-.65352-1.48299 0-2.71463.527843-1.2065.527844-2.08624 1.457854-.87974.904874-1.35731 2.161644-.47757 1.25677-.47757 2.714623 0 1.508124.45244 2.764894.47757 1.25677 1.33217 2.161645.85461.904874 2.08624 1.407582 1.23164.477577 2.7649.477577 2.21191 0 3.77031-1.00542 1.55839-1.005416 2.31245-3.343008h-3.14192q-.17595.603249-.95515 1.156228-.7792.527843-1.86002.527843-1.50812 0-2.31245-.779197-.80434-.779197-.87974-2.51354z" style="font-weight:700;font-family:'Helvetica Neue';-inkscape-font-specification:'Helvetica Neue Bold';fill:#fff" transform="translate(83.9471937 -35.9829495)"/></g><g aria-label="Ingenieurbüro" style="font-weight:700;font-size:25.1354px;line-height:1.25;font-family:'PT Sans';-inkscape-font-specification:'PT Sans Bold';text-align:center;letter-spacing:4.15396px;text-anchor:middle;display:inline;stroke-width:.264583"><path d="M80.963756 52.999468v17.946676h3.946258V52.999468ZM92.153666 57.951142v12.995002h3.569226V64.13445q0-1.985696.653521-2.8403.65352-.879739 2.111374-.879739 1.281905 0 1.784613.804333.50271.779197.50271 2.387863v7.339537h3.56922v-7.993057q0-1.2065-.22621-2.18678-.20109-1.005416-.72893-1.684072-.52784-.703791-1.45785-1.080822-.90488-.402167-2.337596-.402167-1.131093 0-2.211915.527844-1.080822.502708-1.759478 1.633801h-.07541v-1.809749zM117.2894 67.879625q-.82947 0-1.38245-.351895-.55297-.351896-.90487-.904875-.32676-.552979-.47757-1.231634-.12568-.703792-.12568-1.407583 0-.728927.15081-1.382447.17595-.678656.52785-1.181364.37703-.527843.90487-.829468.55298-.301625 1.30704-.301625.87974 0 1.45785.32676.57812.326761.93001.879739.3519.552979.50271 1.281906.15081.703791.15081 1.508124 0 .703791-.20108 1.357312-.17595.628385-.55298 1.131093-.37703.502708-.95514.804332-.57812.301625-1.33218.301625zm6.43466 2.237051V57.951142h-3.39328v1.734343h-.0503q-.65352-1.131093-1.6338-1.608666-.95514-.477573-2.23705-.477573-1.35731 0-2.413.527844-1.03055.527843-1.73434 1.432718-.70379.879739-1.08082 2.061102-.3519 1.156229-.3519 2.412999 0 1.332176.30163 2.538675.32676 1.181364 1.00541 2.086239.67866.879739 1.73435 1.407582 1.05568.502708 2.51354.502708 1.18136 0 2.23705-.477573 1.08082-.502708 1.65893-1.533259h.0503v1.709207q.0251 1.382447-.67865 2.287322-.67866.904874-2.18678.904874-.95515 0-1.68407-.402166-.72893-.377031-.98028-1.382447h-3.5441q.0754 1.105957.60325 1.885155.55298.804333 1.35732 1.307041.82946.502708 1.80975.728926 1.00541.251354 1.96056.251354 2.23705 0 3.56922-.603249 1.33218-.60325 2.03597-1.482989.70379-.854604.90488-1.86002.22621-1.005416.22621-1.784613zM139.49883 63.053628h-5.80628q.0251-.377031.15081-.854603.15081-.477573.47757-.904875.3519-.427302.90488-.703791.57811-.301625 1.43272-.301625 1.30704 0 1.93542.703791.65352.703792.90488 2.061103zm-5.80628 2.262186h9.3755q.10055-1.508124-.25135-2.890571t-1.15623-2.463269q-.7792-1.080822-2.01083-1.709207-1.23164-.653521-2.89057-.653521-1.48299 0-2.71463.527844-1.20649.527843-2.08623 1.457853-.87974.904874-1.35732 2.161644-.47757 1.25677-.47757 2.714624 0 1.508124.45244 2.764894.47757 1.25677 1.33218 2.161644.8546.904875 2.08623 1.407583 1.23164.477572 2.7649.477572 2.21191 0 3.77031-1.005416 1.55839-1.005416 2.31245-3.343008h-3.14192q-.17595.60325-.95515 1.156228-.77919.527844-1.86002.527844-1.50812 0-2.31245-.779198-.80433-.779197-.87974-2.51354zM149.33888 57.951142v12.995002h3.56923V64.13445q0-1.985696.65352-2.8403.65352-.879739 2.11138-.879739 1.2819 0 1.78461.804333.50271.779197.50271 2.387863v7.339537h3.56922v-7.993057q0-1.2065-.22621-2.18678-.20109-1.005416-.72893-1.684072-.52784-.703791-1.45785-1.080822-.90488-.402167-2.3376-.402167-1.13109 0-2.21191.527844-1.08082.502708-1.75948 1.633801h-.0754v-1.809749zM172.08675 55.94031v-2.940842h-3.56922v2.940842zm-3.56922 2.010832v12.995002h3.56922V57.951142ZM187.79829 63.053628h-5.80628q.0251-.377031.15082-.854603.15081-.477573.47757-.904875.35189-.427302.90487-.703791.57812-.301625 1.43272-.301625 1.30704 0 1.93543.703791.65352.703792.90487 2.061103zm-5.80628 2.262186h9.37551q.10054-1.508124-.25136-2.890571-.35189-1.382447-1.15622-2.463269-.7792-1.080822-2.01084-1.709207-1.23163-.653521-2.89057-.653521-1.48299 0-2.71462.527844-1.2065.527843-2.08624 1.457853-.87974.904874-1.35731 2.161644-.47757 1.25677-.47757 2.714624 0 1.508124.45243 2.764894.47758 1.25677 1.33218 2.161644.8546.904875 2.08624 1.407583 1.23163.477572 2.76489.477572 2.21192 0 3.77031-1.005416 1.5584-1.005416 2.31246-3.343008h-3.14193q-.17594.60325-.95514 1.156228-.7792.527844-1.86002.527844-1.50812 0-2.31246-.779198-.80433-.779197-.87974-2.51354zM209.82902 70.946144V57.951142h-3.56923v6.811694q0 1.985696-.65352 2.865435-.65352.854604-2.11138.854604-1.2819 0-1.78461-.779198-.50271-.804332-.50271-2.412998v-7.339537h-3.56922v7.993057q0 1.2065.20108 2.211916.22622.98028.75406 1.684071.52784.678656 1.43272 1.055687.93001.377031 2.36273.377031 1.13109 0 2.21191-.502708 1.08082-.502708 1.75948-1.633801h.0754v1.809749zM216.71646 57.951142v12.995002h3.56922v-5.856548q0-.879739.17595-1.633801t.57811-1.307041q.42731-.578114 1.10596-.904875.67866-.32676 1.65894-.32676.32676 0 .67865.05027.3519.02513.60325.07541v-3.317873q-.4273-.125677-.77919-.125677-.67866 0-1.30704.201084-.62839.201083-1.18137.578114-.55298.351895-.98028.879739-.4273.502708-.67865 1.105957h-.0503v-2.412998zM240.16616 64.461211q0 .804333-.17595 1.558395t-.55298 1.332176q-.37703.578114-.95514.93001-.55298.32676-1.35732.32676-.77919 0-1.35731-.32676-.57811-.351896-.95514-.93001t-.55298-1.332176q-.17595-.754062-.17595-1.558395 0-.829469.17595-1.583531t.55298-1.332176q.37703-.578114.95514-.904874.57812-.351896 1.35731-.351896.80434 0 1.35732.351896.57811.32676.95514.904874t.55298 1.332176q.17595.754062.17595 1.583531zm-9.52632-11.461743v17.946676h3.39328v-1.658936h.0503q.57812 1.080822 1.70921 1.533259t2.56381.452437q.98028 0 1.93542-.402166.95515-.402167 1.70921-1.231635.7792-.829468 1.25677-2.111373.47757-1.307041.47757-3.091655 0-1.784613-.47757-3.066519-.47757-1.30704-1.25677-2.136509-.75406-.829468-1.70921-1.231634-.95514-.402167-1.93542-.402167-1.2065 0-2.33759.477573-1.10596.452437-1.75948 1.457853h-.0503v-6.535204zM251.96952 52.999468v2.940842h3.39328v-2.940842zm5.17789 0v2.940842h3.39328v-2.940842zm5.20303 17.946676V57.951142h-3.56923v6.811694q0 1.985696-.65352 2.865435-.65352.854604-2.11137.854604-1.28191 0-1.78462-.779198-.5027-.804332-.5027-2.412998v-7.339537h-3.56923v7.993057q0 1.2065.20108 2.211916.22622.98028.75406 1.684071.52785.678656 1.43272 1.055687.93001.377031 2.36273.377031 1.13109 0 2.21192-.502708 1.08082-.502708 1.75947-1.633801h.0754v1.809749zM269.23788 57.951142v12.995002h3.56923v-5.856548q0-.879739.17594-1.633801.17595-.754062.57812-1.307041.4273-.578114 1.10596-.904875.67865-.32676 1.65893-.32676.32676 0 .67866.05027.35189.02513.60325.07541v-3.317873q-.4273-.125677-.7792-.125677-.67866 0-1.30704.201084-.62839.201083-1.18136.578114-.55298.351895-.98029.879739-.4273.502708-.67865 1.105957h-.0503v-2.412998zM285.85661 64.461211q0-.779198.15082-1.53326.15081-.754062.50271-1.332176.37703-.578114.98028-.93001.60325-.377031 1.50812-.377031t1.50812.377031q.62839.351896.98028.93001.37704.578114.52785 1.332176.15081.754062.15081 1.53326 0 .779197-.15081 1.533259-.15081.728927-.52785 1.332176-.35189.578115-.98028.93001-.60325.351896-1.50812.351896t-1.50812-.351896q-.60325-.351895-.98028-.93001-.3519-.603249-.50271-1.332176-.15082-.754062-.15082-1.533259zm-3.56922 0q0 1.558395.47757 2.815165t1.35731 2.161644q.87974.879739 2.11138 1.357312 1.23163.477572 2.76489.477572 1.53326 0 2.76489-.477572 1.25677-.477573 2.13651-1.357312.87974-.904874 1.35731-2.161644.47758-1.25677.47758-2.815165t-.47758-2.815165q-.47757-1.281906-1.35731-2.161645-.87974-.904874-2.13651-1.382447-1.23163-.502708-2.76489-.502708-1.53326 0-2.76489.502708-1.23164.477573-2.11138 1.382447-.87974.879739-1.35731 2.161645-.47757 1.25677-.47757 2.815165z" style="font-family:'Helvetica Neue';-inkscape-font-specification:'Helvetica Neue Bold';fill:#fff" transform="translate(83.9471937 -35.5051895)"/></g><g aria-label="Dr.-Ing. Jürgen Ehret" style="font-size:16.9333px;line-height:1.25;font-family:'PT Sans';-inkscape-font-specification:'PT Sans';text-align:center;letter-spacing:1.05833px;text-anchor:middle;display:inline;stroke-width:.264583"><path d="M57.818524 443.81473v-7.61998h1.89653q.982131 0 1.64253.28786.677332.27094 1.083731.79587.406399.52493.575732 1.26999.186267.72814.186267 1.64253 0 .99907-.254 1.69333-.253999.69427-.677332 1.13454-.423332.42333-.965198.60959-.541866.18627-1.117598.18627zm-2.658528-9.85518v12.09038h5.215457q1.38853 0 2.404528-.4572 1.032931-.47413 1.710263-1.28693.694266-.8128 1.032932-1.9304.338666-1.1176.338666-2.43839 0-1.50707-.423333-2.62467-.406399-1.11759-1.151464-1.86266-.728132-.74506-1.74413-1.1176-.999065-.37253-2.167462-.37253zM68.498938 437.29541v8.75452h2.404529v-3.94546q0-.59267.118533-1.10067t.389466-.88053q.287866-.38946.745065-.6096.457199-.22013 1.117598-.22013.220132 0 .457199.0339.237066.0169.406399.0508v-2.2352q-.287866-.0847-.524932-.0847-.4572 0-.880532.13547-.423333.13547-.795865.38947-.372533.23706-.660399.59266-.287866.33867-.457199.74507h-.03387v-1.6256zM74.667694 443.4422v2.60773h2.658528v-2.60773zM80.28901 440.3942v2.06587h5.096923v-2.06587zM88.497425 433.95955v12.09038h2.658528v-12.09038zM94.295756 437.29541v8.75452h2.404528V441.461q0-1.33773.440266-1.91346.440266-.59267 1.422397-.59267.863599 0 1.202265.54187.338668.52493.338668 1.60866v4.94453h2.40453v-5.38479q0-.8128-.1524-1.4732-.13547-.67733-.49107-1.13453-.3556-.47413-.98213-.72813-.6096-.27094-1.574797-.27094-.761999 0-1.490131.3556-.728132.33867-1.185331 1.10067h-.0508v-1.2192zM109.48916 443.98406q-.5588 0-.93133-.23706-.37254-.23707-.6096-.6096-.22014-.37253-.32174-.82973-.0847-.47413-.0847-.94827 0-.49106.1016-.93133.11853-.4572.3556-.79586.254-.3556.6096-.5588.37253-.2032.88053-.2032.59266 0 .98213.22013.38946.22013.62653.59267.23707.37253.33867.86359.1016.47414.1016 1.016 0 .47413-.13547.9144-.11853.42333-.37253.762-.254.33866-.64347.54186-.38946.2032-.89746.2032zm4.33492 1.50707v-8.19572h-2.28599v1.1684h-.0339q-.44027-.762-1.10066-1.08373-.64347-.32174-1.50707-.32174-.9144 0-1.62559.3556-.69427.3556-1.1684.9652-.47414.59267-.72813 1.38853-.23707.77893-.23707 1.6256 0 .89746.2032 1.71026.22013.79587.67733 1.40547.4572.59266 1.1684.94826.7112.33867 1.69333.33867.79586 0 1.50706-.32174.72813-.33866 1.1176-1.03293h.0339v1.15147q.0169.93133-.4572 1.54093-.4572.6096-1.4732.6096-.64346 0-1.13453-.27094-.49107-.254-.6604-.93133h-2.38759q.0508.74507.40639 1.27.37254.54187.9144.88053.5588.33867 1.2192.49107.67733.16933 1.3208.16933 1.50706 0 2.40453-.4064.89746-.4064 1.37159-.99906.47414-.57574.6096-1.25307.1524-.67733.1524-1.20226zM116.91997 443.4422v2.60773h2.65852v-2.60773zM135.65984 442.23993v-8.28038h-2.65853v8.16185q0 .32173-.0339.67733-.0169.33867-.1524.64347-.11853.28786-.4064.47413-.28786.18627-.81279.18627-.47414 0-.77894-.1524-.28786-.1524-.45719-.4064-.16934-.27093-.23707-.64347-.0677-.37253-.0677-.8128v-.54186h-2.40453v1.04986q0 .99907.33866 1.71027.33867.69426.89747 1.15146.5588.44027 1.27.64347.71119.22013 1.47319.22013 1.35467 0 2.15053-.4064.79587-.42333 1.2192-1.03293.42333-.62653.54186-1.33773.11854-.7112.11854-1.30387zM140.03101 433.95955v1.9812h2.28599v-1.9812zm3.48826 0v1.9812h2.28599v-1.9812zm3.50519 12.09038v-8.75452h-2.40453v4.58892q0 1.33774-.44026 1.9304-.44027.57573-1.4224.57573-.8636 0-1.20226-.52493-.33867-.54186-.33867-1.6256v-4.94452h-2.40453v5.38479q0 .8128.13547 1.49013.1524.6604.508 1.13453.3556.4572.9652.7112.62653.254 1.59173.254.76199 0 1.49013-.33867.72813-.33866 1.18533-1.10066h.0508v1.2192zM149.92428 437.29541v8.75452h2.40453v-3.94546q0-.59267.11854-1.10067.11853-.508.38946-.88053.28787-.38946.74507-.6096.4572-.22013 1.11759-.22013.22014 0 .4572.0339.23707.0169.4064.0508v-2.2352q-.28786-.0847-.52493-.0847-.4572 0-.88053.13547-.42333.13547-.79587.38947-.37253.23706-.66039.59266-.28787.33867-.4572.74507h-.0339v-1.6256zM161.17646 443.98406q-.5588 0-.93133-.23706-.37254-.23707-.6096-.6096-.22013-.37253-.32173-.82973-.0847-.47413-.0847-.94827 0-.49106.1016-.93133.11853-.4572.3556-.79586.254-.3556.6096-.5588.37253-.2032.88053-.2032.59266 0 .98213.22013t.62653.59267q.23707.37253.33867.86359.1016.47414.1016 1.016 0 .47413-.13547.9144-.11853.42333-.37253.762-.254.33866-.64347.54186-.38946.2032-.89746.2032zm4.33492 1.50707v-8.19572h-2.28599v1.1684h-.0339q-.44026-.762-1.10066-1.08373-.64347-.32174-1.50707-.32174-.91439 0-1.62559.3556-.69427.3556-1.1684.9652-.47413.59267-.72813 1.38853-.23707.77893-.23707 1.6256 0 .89746.2032 1.71026.22013.79587.67733 1.40547.4572.59266 1.1684.94826.7112.33867 1.69333.33867.79587 0 1.50706-.32174.72814-.33866 1.1176-1.03293h.0339v1.15147q.0169.93133-.4572 1.54093-.4572.6096-1.4732.6096-.64346 0-1.13453-.27094-.49106-.254-.6604-.93133h-2.38759q.0508.74507.4064 1.27.37253.54187.91439.88053.5588.33867 1.2192.49107.67733.16933 1.3208.16933 1.50706 0 2.40453-.4064.89746-.4064 1.3716-.99906.47413-.57574.60959-1.25307.1524-.67733.1524-1.20226zM174.40402 440.73287h-3.91159q.0169-.254.10159-.57573.1016-.32173.32174-.6096.23706-.28787.6096-.47413.38946-.2032.96519-.2032.88054 0 1.30387.47413.44026.47413.6096 1.38853zm-3.91159 1.524h6.31612q.0677-1.016-.16934-1.94733-.23706-.93133-.77893-1.65947-.52493-.72813-1.35466-1.15146-.82973-.44027-1.94733-.44027-.99907 0-1.8288.3556-.8128.3556-1.40546.98214-.59267.60959-.9144 1.45626-.32173.84666-.32173 1.8288 0 1.01599.3048 1.86266.32173.84666.89746 1.45626.57573.6096 1.40546.94827.82974.32173 1.86267.32173 1.49013 0 2.53999-.67733 1.04987-.67733 1.55787-2.25213h-2.11667q-.11853.4064-.64346.77893-.52493.3556-1.25307.3556-1.01599 0-1.55786-.52493-.54187-.52493-.59266-1.69333zM179.29297 437.29541v8.75452h2.40453V441.461q0-1.33773.44027-1.91346.44027-.59267 1.4224-.59267.86359 0 1.20226.54187.33867.52493.33867 1.60866v4.94453h2.40453v-5.38479q0-.8128-.1524-1.4732-.13547-.67733-.49107-1.13453-.3556-.47413-.98213-.72813-.6096-.27094-1.5748-.27094-.762 0-1.49013.3556-.72813.33867-1.18533 1.10067h-.0508v-1.2192zM196.41413 433.95955v12.09038h9.17785v-2.2352h-6.51932v-2.96333h5.85892v-2.06586h-5.85892v-2.59079h6.38385v-2.2352zM208.19864 433.95955v12.09038h2.40453V441.461q0-1.33773.44027-1.91346.44027-.59267 1.4224-.59267.86359 0 1.20226.54187.33867.52493.33867 1.60866v4.94453h2.40453v-5.38479q0-.8128-.1524-1.4732-.13547-.67733-.49107-1.13453-.3556-.47413-.98213-.72813-.6096-.27094-1.5748-.27094-.67733 0-1.38853.3556-.7112.33867-1.1684 1.10067h-.0508v-4.55506zM219.31112 437.29541v8.75452h2.40453v-3.94546q0-.59267.11853-1.10067t.38947-.88053q.28786-.38946.74506-.6096.4572-.22013 1.1176-.22013.22013 0 .4572.0339.23706.0169.4064.0508v-2.2352q-.28787-.0847-.52494-.0847-.45719 0-.88053.13547-.42333.13547-.79586.38947-.37254.23706-.6604.59266-.28787.33867-.4572.74507h-.0339v-1.6256zM232.52596 440.73287h-3.91159q.0169-.254.1016-.57573.1016-.32173.32173-.6096.23706-.28787.6096-.47413.38946-.2032.9652-.2032.88053 0 1.30386.47413.44026.47413.6096 1.38853zm-3.91159 1.524h6.31612q.0677-1.016-.16934-1.94733-.23706-.93133-.77893-1.65947-.52493-.72813-1.35466-1.15146-.82973-.44027-1.94733-.44027-.99907 0-1.8288.3556-.8128.3556-1.40546.98214-.59267.60959-.9144 1.45626-.32173.84666-.32173 1.8288 0 1.01599.3048 1.86266.32173.84666.89746 1.45626.57573.6096 1.40547.94827.82973.32173 1.86266.32173 1.49013 0 2.53999-.67733 1.04987-.67733 1.55787-2.25213h-2.11667q-.11853.4064-.64346.77893-.52493.3556-1.25307.3556-1.01599 0-1.55786-.52493-.54186-.52493-.59266-1.69333zM240.44996 437.29541v-2.62466h-2.40453v2.62466h-1.45626v1.60866h1.45626v5.16466q0 .6604.22014 1.0668.22013.4064.59266.62653.38947.22013.88053.28787.508.0847 1.0668.0847.3556 0 .72813-.0169.37254-.0169.67734-.0677v-1.86267q-.16934.0339-.3556.0508-.18627.0169-.38947.0169-.6096 0-.8128-.2032-.2032-.2032-.2032-.8128v-4.33493h1.76107v-1.60866z" style="font-weight:700;font-family:'Helvetica Neue';-inkscape-font-specification:'Helvetica Neue Bold';fill:#fff" transform="translate(123.6109737 -355.1047185)"/></g><g><path style="display:inline;fill:none;fill-opacity:1;stroke:#fff;stroke-width:1.75016;stroke-miterlimit:4;stroke-dasharray:none;stroke-opacity:1;stop-color:#000" d="M-201.30959 546.82993a8.2769418 4.7765886 0 0 1-8.27689 4.77656 8.2769418 4.7765886 0 0 1-8.27689-4.77655 8.2769418 4.7765886 0 0 1 8.2769-4.77654 8.2769418 4.7765886 0 0 1 8.27688 4.77653z" transform="translate(340.05505536 -490.95921)"/><path style="display:inline;fill:none;fill-opacity:1;stroke:#fff;stroke-width:2.13909;stroke-miterlimit:4;stroke-dasharray:none;stroke-opacity:1;stop-color:#000" d="M-200.03017 546.82995a13.960437 8.2983888 0 0 1-13.96037 8.29832 13.960437 8.2983888 0 0 1-13.96036-8.29833 13.960437 8.2983888 0 0 1 13.96036-8.29831 13.960437 8.2983888 0 0 1 13.96037 8.29832z" transform="translate(340.05505536 -490.95921)"/><path style="display:inline;fill:none;fill-opacity:1;stroke:#fff;stroke-width:2.528;stroke-miterlimit:4;stroke-dasharray:none;stroke-opacity:1;stop-color:#000" d="M-198.59984 546.82994a23.440507 14.281596 0 0 1-23.44038 14.28149 23.440507 14.281596 0 0 1-23.44033-14.28149 23.440507 14.281596 0 0 1 23.44033-14.28146 23.440507 14.281596 0 0 1 23.44038 14.28146z" transform="translate(340.05505536 -490.95921)"/><path style="display:inline;fill:none;fill-opacity:1;stroke:#fff;stroke-width:2.91694;stroke-miterlimit:4;stroke-dasharray:none;stroke-opacity:1;stop-color:#000" d="M-196.88604 546.82992a39.063452 24.247372 0 0 1-39.06327 24.2472 39.063452 24.247372 0 0 1-39.0632-24.2472 39.063452 24.247372 0 0 1 39.0632-24.24713 39.063452 24.247372 0 0 1 39.06327 24.24713z" transform="translate(340.05505536 -490.95921)"/><path style="display:inline;fill:none;fill-opacity:1;stroke:#fff;stroke-width:3.30587;stroke-miterlimit:4;stroke-dasharray:none;stroke-opacity:1;stop-color:#000" d="M-195.83465 546.8299a64.625548 40.656931 0 0 1-64.62528 40.65665 64.625548 40.656931 0 0 1-64.6251-40.65665 64.625548 40.656931 0 0 1 64.6251-40.65655 64.625548 40.656931 0 0 1 64.62528 40.65655z" transform="translate(340.05505536 -490.95921)"/></g></g></svg>