<svg xmlns="http://www.w3.org/2000/svg" width="333.173" height="287.88257" viewBox="0 0 88.152024 76.168929"><defs><path id="G" d="M-42 1608h588v290H-42z"/><path id="b" d="M1600.6648 5530.2114h158.57976v94.550331H1600.6648z"/><path id="a" d="M157-13h55v40h-55z"/><path id="c" d="M157-13h55v40h-55z"/><path id="d" d="M1600.6648 5530.2114h158.57976v94.550331H1600.6648z"/><path id="e" d="M157-13h55v40h-55z"/><path id="f" d="M1600.6648 5530.2114h158.57976v94.550331H1600.6648z"/><path id="g" d="M157-13h55v40h-55z"/><path id="h" d="M1600.6648 5530.2114h158.57976v94.550331H1600.6648z"/><path id="i" d="M157-13h55v40h-55z"/><path id="j" d="M1600.6648 5530.2114h158.57976v94.550331H1600.6648z"/><path id="k" d="M157-13h55v40h-55z"/><path id="l" d="M1600.6648 5530.2114h158.57976v94.550331H1600.6648z"/><path id="m" d="M157-13h55v40h-55z"/><path id="n" d="M1600.6648 5530.2114h158.57976v94.550331H1600.6648z"/><path id="o" d="M157-13h55v40h-55z"/><path id="p" d="M1600.6648 5530.2114h158.57976v94.550331H1600.6648z"/><path id="q" d="M157-13h55v40h-55z"/><path id="r" d="M1600.6648 5530.2114h158.57976v94.550331H1600.6648z"/><path id="s" d="M157-13h55v40h-55z"/><path id="t" d="M1600.6648 5530.2114h158.57976v94.550331H1600.6648z"/><path id="u" d="M157-13h55v40h-55z"/><path id="v" d="M1600.6648 5530.2114h158.57976v94.550331H1600.6648z"/><path id="w" d="M157-13h55v40h-55z"/><path id="x" d="M1600.6648 5530.2114h158.57976v94.550331H1600.6648z"/><path id="y" d="M157-13h55v40h-55z"/><path id="z" d="M1600.6648 5530.2114h158.57976v94.550331H1600.6648z"/><path id="A" d="M157-13h55v40h-55z"/><path id="B" d="M1600.6648 5530.2114h158.57976v94.550331H1600.6648z"/><path id="C" d="M157-13h55v40h-55z"/><path id="D" d="M1600.6648 5530.2114h158.57976v94.550331H1600.6648z"/><path id="E" d="M157-13h55v40h-55z"/><path id="F" d="M1600.6648 5530.2114h158.57976v94.550331H1600.6648z"/><marker id="H" orient="auto" refX="0" refY="0" style="overflow:visible"><path d="m0 0 5-5-17.5 5L5 5Z" style="fill:context-stroke;fill-rule:evenodd;stroke:context-stroke;stroke-width:1pt" transform="matrix(-.8 0 0 -.8 -10 0)"/></marker><marker id="I" orient="auto" refX="0" refY="0" style="overflow:visible"><path d="m0 0 5-5-17.5 5L5 5Z" style="fill:context-stroke;fill-rule:evenodd;stroke:context-stroke;stroke-width:1pt" transform="matrix(-.8 0 0 -.8 -10 0)"/></marker></defs><g style="display:inline"><g transform="translate(-8.0248415 -5.7838867)"><ellipse cx="52.100853" cy="33.128242" rx="43.282249" ry="26.550606" style="font-variation-settings:normal;display:inline;fill:none;fill-opacity:1;stroke:#fff;stroke-width:1.5875;stroke-linecap:butt;stroke-linejoin:miter;stroke-miterlimit:4;stroke-dasharray:none;stroke-dashoffset:0;stroke-opacity:1;stop-color:#000"/><ellipse cx="67.526337" cy="33.128242" rx="26.510872" ry="16.17045" style="font-variation-settings:normal;display:inline;fill:none;fill-opacity:1;stroke:#fff;stroke-width:1.32292;stroke-linecap:butt;stroke-linejoin:miter;stroke-miterlimit:4;stroke-dasharray:none;stroke-dashoffset:0;stroke-opacity:1;stop-color:#000"/><ellipse cx="76.787163" cy="33.128242" rx="16.145391" ry="9.7550411" style="font-variation-settings:normal;display:inline;fill:none;fill-opacity:1;stroke:#fff;stroke-width:1.05833;stroke-linecap:butt;stroke-linejoin:miter;stroke-miterlimit:4;stroke-dasharray:none;stroke-dashoffset:0;stroke-opacity:1;stop-color:#000"/><ellipse cx="82.273178" cy="33.128242" rx="9.7389774" ry="5.7899771" style="font-variation-settings:normal;display:inline;fill:none;fill-opacity:1;stroke:#fff;stroke-width:.926042;stroke-linecap:butt;stroke-linejoin:miter;stroke-miterlimit:4;stroke-dasharray:none;stroke-dashoffset:0;stroke-opacity:1;stop-color:#000"/><ellipse cx="85.437393" cy="33.128242" rx="5.7796507" ry="3.3394673" style="font-variation-settings:normal;display:inline;fill:none;fill-opacity:1;stroke:#fff;stroke-width:.79375;stroke-linecap:butt;stroke-linejoin:miter;stroke-miterlimit:4;stroke-dasharray:none;stroke-dashoffset:0;stroke-opacity:1;stop-color:#000"/><ellipse cx="87.427002" cy="33.128242" rx="3.1086199" ry="1.7900585" style="font-variation-settings:normal;display:inline;fill:none;fill-opacity:1;stroke:#fff;stroke-width:.661458;stroke-linecap:butt;stroke-linejoin:miter;stroke-miterlimit:4;stroke-dasharray:none;stroke-dashoffset:0;stroke-opacity:1;stop-color:#000"/><ellipse cx="88.721611" cy="33.128242" rx="1.2934215" ry=".68038863" style="font-variation-settings:normal;display:inline;fill:none;fill-opacity:1;stroke:#fff;stroke-width:.555625;stroke-linecap:butt;stroke-linejoin:miter;stroke-miterlimit:4;stroke-dasharray:none;stroke-dashoffset:0;stroke-opacity:1;stop-color:#000"/></g><path d="M8.4335462 81.729578c.2515104 0 .4191843-.167724.4191843-.440193V66.733296c0-.272479-.1676739-.440123-.4191843-.440123s-.4087047.167644-.4087047.440123v14.556089c0 .272469.1571943.440193.4087047.440193zM11.954691 81.572369h4.736779c3.175319 0 5.103565-1.561465 5.103565-4.034611 0-2.190231-1.634818-3.573548-3.772655-3.804069v-.06257c1.80249-.345872 2.976205-1.739614 2.976205-3.542105 0-2.190241-1.781531-3.678304-4.411911-3.678304h-4.631983c-.25151 0-.408704.167633-.408704.440113v14.241741c0 .272479.157194.440113.408704.440113zm.419184-8.153108v-6.214408h4.087043c2.253115 0 3.699299 1.163291 3.699299 2.986731 0 1.991074-1.530021 3.227677-3.898411 3.227677zm0 7.398557v-6.654521h4.024167c2.87141 0 4.558625 1.268047 4.558625 3.353452 0 2.033102-1.613858 3.301069-4.338554 3.301069z" style="font-weight:200;font-size:19.05px;line-height:1.25;font-family:Lato;-inkscape-font-specification:&quot;SF Pro Rounded Ultra-Light&quot;;text-align:center;letter-spacing:0;text-anchor:middle;fill:#fff;stroke:none;stroke-width:.204507" transform="translate(-8.0248415 -5.7838867)"/><path d="M28.910683 81.823899c3.531624 0 5.774259-1.792066 5.774259-4.642437 0-2.200736-1.299471-3.468793-4.474789-4.139437l-1.645297-.345862c-1.959685-.419184-2.745656-1.152716-2.745656-2.253119 0-1.383317 1.30995-2.242614 3.081003-2.242614 1.509062 0 2.661818.597332 3.175318 1.991154.241031.544949.586858.806914 1.152756.806914.607816 0 1.03748-.398245 1.03748-1.006081 0-.220017-.03143-.398165-.08384-.54487-.586857-2.022597-2.640858-3.248695-5.250278-3.248695-3.217237 0-5.49131 1.781482-5.49131 4.369958 0 2.179726 1.372827 3.584063 4.390952 4.223263l1.655776.345862c2.022562.440123 2.819012 1.173725 2.819012 2.34737 0 1.351873-1.372827 2.336946-3.290594 2.336946-1.750092 0-3.12292-.66022-3.594502-2.074901-.230551-.565888-.576378-.806914-1.110838-.806914-.639255 0-1.058438.440113-1.058438 1.121262 0 .251541.05239.503001.125754.733612.586858 1.760543 2.598941 3.028589 5.533229 3.028589z" style="font-weight:500;font-size:19.05px;line-height:1.25;font-family:Lato;-inkscape-font-specification:&quot;SF Pro Rounded Medium&quot;;text-align:center;letter-spacing:0;text-anchor:middle;fill:#fff;stroke:none;stroke-width:.204507" transform="translate(-8.0248415 -5.7838867)"/><path d="M41.139577 81.754375c3.147872 0 5.127619-2.169302 5.127619-5.650918 0-3.481615-1.979747-5.658564-5.127619-5.658564-3.155456 0-5.127618 2.176949-5.127618 5.658564 0 3.481616 1.972162 5.650918 5.127618 5.650918zm0-1.49425c-2.078353 0-3.390599-1.608051-3.390599-4.156668 0-2.556262 1.312246-4.164314 3.390599-4.164314 2.078355 0 3.383015 1.608052 3.383015 4.164314 0 2.548617-1.30466 4.156668-3.383015 4.156668zM48.724809 81.693726c.523381 0 .849546-.333738.849546-.879846v-3.823h4.058101c.455114 0 .766109-.280665.766109-.720549 0-.432397-.310995-.713062-.766109-.713062h-4.058101v-3.458828h4.460118c.470285 0 .79645-.288231.79645-.735761 0-.447539-.318581-.73577-.79645-.73577h-5.309664c-.530966 0-.849546.333738-.849546.879846v9.307124c0 .546108.31858.879846.849546.879846zM59.753739 81.693726c.523382 0 .849547-.333738.849547-.879846v-8.715439h2.677587c.470286 0 .788865-.288231.788865-.735761 0-.447539-.318579-.73577-.788865-.73577h-7.061852c-.470285 0-.788865.288231-.788865.73577 0 .44753.31858.735761.788865.735761h2.685173v8.715439c0 .546108.318579.879846.849545.879846z" style="font-weight:500;font-size:20.1083px;line-height:1.25;font-family:Lato;-inkscape-font-specification:&quot;SF Pro Rounded Medium&quot;;text-align:center;letter-spacing:0;text-anchor:middle;fill:#fff;stroke:#fff;stroke-width:.396875;stroke-miterlimit:4;stroke-dasharray:none;stroke-opacity:1" transform="translate(-8.0248415 -5.7838867)"/><path d="M70.862218 81.823899c3.531624 0 5.774258-1.792066 5.774258-4.642437 0-2.200736-1.299471-3.468793-4.474789-4.139437l-1.645297-.345862c-1.959684-.419184-2.745655-1.152716-2.745655-2.253119 0-1.383317 1.30995-2.242614 3.081003-2.242614 1.509062 0 2.661818.597332 3.175317 1.991154.241032.544949.586859.806914 1.152757.806914.607816 0 1.03748-.398245 1.03748-1.006081 0-.220017-.03143-.398165-.08384-.54487-.586857-2.022597-2.640859-3.248695-5.250278-3.248695-3.217237 0-5.491311 1.781482-5.491311 4.369958 0 2.179726 1.372828 3.584063 4.390953 4.223263l1.655776.345862c2.022562.440123 2.819012 1.173725 2.819012 2.34737 0 1.351873-1.372827 2.336946-3.290594 2.336946-1.750093 0-3.12292-.66022-3.594503-2.074901-.230551-.565888-.576377-.806914-1.110838-.806914-.639254 0-1.058438.440113-1.058438 1.121262 0 .251541.05239.503001.125755.733612.586858 1.760543 2.598941 3.028589 5.533229 3.028589z" style="font-weight:500;font-size:27.7812px;line-height:1.25;font-family:Lato;-inkscape-font-specification:&quot;SF Pro Rounded Medium&quot;;text-align:center;letter-spacing:0;text-anchor:middle;fill:#fff;stroke:none;stroke-width:.204507" transform="translate(-8.0248415 -5.7838867)"/><path d="M82.249149 81.693726c.530966 0 .849547-.333738.849547-.879846v-3.724351l3.474037-5.256601c.128949-.197158.174461-.371678.174461-.561261 0-.439963-.364091-.766125-.834377-.766125-.33375 0-.546136.13651-.750938.477894L82.287076 75.4587h-.05309l-2.874806-4.475264c-.212387-.34896-.409603-.477894-.758524-.477894-.47787 0-.84196.326162-.84196.773701 0 .189663.04551.364103.174459.553685l3.466453 5.256601v3.724351c0 .546108.326164.879846.849545.879846zM91.798961 81.754375c2.556227 0 4.179466-1.297021 4.179466-3.360168 0-1.592909-.940573-2.510766-3.238901-2.996236l-1.190878-.250301c-1.418438-.303374-1.987332-.83434-1.987332-1.63076 0-1.001294.948152-1.623263 2.230058-1.623263 1.092278 0 1.926649.432317 2.298329 1.441177.174455.394457.424768.584039.834371.584039.439949 0 .750944-.288231.750944-.728115 0-.159308-.02279-.288241-.06065-.394466-.424777-1.463966-1.911484-2.351389-3.80021-2.351389-2.328666 0-3.974659 1.289456-3.974659 3.16302 0 1.577687.993664 2.594124 3.178212 3.056795l1.198472.250311c1.463948.318596 2.040422.849562 2.040422 1.699124 0 .978506-.993663 1.691479-2.381763 1.691479-1.266734 0-2.260397-.477894-2.60173-1.501816-.166877-.409599-.417189-.584119-.804041-.584119-.462696 0-.766107.318596-.766107.811631 0 .182087.03792.364103.09102.530967.424773 1.274313 1.881141 2.19209 4.005005 2.19209z" style="font-weight:500;font-size:20.1083px;line-height:1.25;font-family:Lato;-inkscape-font-specification:&quot;SF Pro Rounded Medium&quot;;text-align:center;letter-spacing:0;text-anchor:middle;fill:#fff;stroke:#fff;stroke-width:.396875;stroke-miterlimit:4;stroke-dasharray:none;stroke-opacity:1" transform="translate(-8.0248415 -5.7838867)"/></g></svg>