<svg xmlns="http://www.w3.org/2000/svg" width="333.17307" height="286.71762" viewBox="0 0 88.15204 75.860703"><defs><path id="G" d="M-42 1608h588v290H-42z"/><path id="b" d="M1600.6648 5530.2114h158.57976v94.550331H1600.6648z"/><path id="a" d="M157-13h55v40h-55z"/><path id="c" d="M157-13h55v40h-55z"/><path id="d" d="M1600.6648 5530.2114h158.57976v94.550331H1600.6648z"/><path id="e" d="M157-13h55v40h-55z"/><path id="f" d="M1600.6648 5530.2114h158.57976v94.550331H1600.6648z"/><path id="g" d="M157-13h55v40h-55z"/><path id="h" d="M1600.6648 5530.2114h158.57976v94.550331H1600.6648z"/><path id="i" d="M157-13h55v40h-55z"/><path id="j" d="M1600.6648 5530.2114h158.57976v94.550331H1600.6648z"/><path id="k" d="M157-13h55v40h-55z"/><path id="l" d="M1600.6648 5530.2114h158.57976v94.550331H1600.6648z"/><path id="m" d="M157-13h55v40h-55z"/><path id="n" d="M1600.6648 5530.2114h158.57976v94.550331H1600.6648z"/><path id="o" d="M157-13h55v40h-55z"/><path id="p" d="M1600.6648 5530.2114h158.57976v94.550331H1600.6648z"/><path id="q" d="M157-13h55v40h-55z"/><path id="r" d="M1600.6648 5530.2114h158.57976v94.550331H1600.6648z"/><path id="s" d="M157-13h55v40h-55z"/><path id="t" d="M1600.6648 5530.2114h158.57976v94.550331H1600.6648z"/><path id="u" d="M157-13h55v40h-55z"/><path id="v" d="M1600.6648 5530.2114h158.57976v94.550331H1600.6648z"/><path id="w" d="M157-13h55v40h-55z"/><path id="x" d="M1600.6648 5530.2114h158.57976v94.550331H1600.6648z"/><path id="y" d="M157-13h55v40h-55z"/><path id="z" d="M1600.6648 5530.2114h158.57976v94.550331H1600.6648z"/><path id="A" d="M157-13h55v40h-55z"/><path id="B" d="M1600.6648 5530.2114h158.57976v94.550331H1600.6648z"/><path id="C" d="M157-13h55v40h-55z"/><path id="D" d="M1600.6648 5530.2114h158.57976v94.550331H1600.6648z"/><path id="E" d="M157-13h55v40h-55z"/><path id="F" d="M1600.6648 5530.2114h158.57976v94.550331H1600.6648z"/></defs><g style="display:inline"><g transform="translate(-8.0248114 -5.7838867)"><ellipse cx="52.100853" cy="33.128242" rx="43.282249" ry="26.550606" style="font-variation-settings:normal;display:inline;fill:none;fill-opacity:1;stroke:#fff;stroke-width:1.5875;stroke-linecap:butt;stroke-linejoin:miter;stroke-miterlimit:4;stroke-dasharray:none;stroke-dashoffset:0;stroke-opacity:1;stop-color:#000"/><ellipse cx="67.526337" cy="33.128242" rx="26.510872" ry="16.17045" style="font-variation-settings:normal;display:inline;fill:none;fill-opacity:1;stroke:#fff;stroke-width:1.32292;stroke-linecap:butt;stroke-linejoin:miter;stroke-miterlimit:4;stroke-dasharray:none;stroke-dashoffset:0;stroke-opacity:1;stop-color:#000"/><ellipse cx="76.787163" cy="33.128242" rx="16.145391" ry="9.7550411" style="font-variation-settings:normal;display:inline;fill:none;fill-opacity:1;stroke:#fff;stroke-width:1.05833;stroke-linecap:butt;stroke-linejoin:miter;stroke-miterlimit:4;stroke-dasharray:none;stroke-dashoffset:0;stroke-opacity:1;stop-color:#000"/><ellipse cx="82.273178" cy="33.128242" rx="9.7389774" ry="5.7899771" style="font-variation-settings:normal;display:inline;fill:none;fill-opacity:1;stroke:#fff;stroke-width:.926042;stroke-linecap:butt;stroke-linejoin:miter;stroke-miterlimit:4;stroke-dasharray:none;stroke-dashoffset:0;stroke-opacity:1;stop-color:#000"/><ellipse cx="85.437393" cy="33.128242" rx="5.7796507" ry="3.3394673" style="font-variation-settings:normal;display:inline;fill:none;fill-opacity:1;stroke:#fff;stroke-width:.79375;stroke-linecap:butt;stroke-linejoin:miter;stroke-miterlimit:4;stroke-dasharray:none;stroke-dashoffset:0;stroke-opacity:1;stop-color:#000"/><ellipse cx="87.427002" cy="33.128242" rx="3.1086199" ry="1.7900585" style="font-variation-settings:normal;display:inline;fill:none;fill-opacity:1;stroke:#fff;stroke-width:.661458;stroke-linecap:butt;stroke-linejoin:miter;stroke-miterlimit:4;stroke-dasharray:none;stroke-dashoffset:0;stroke-opacity:1;stop-color:#000"/><ellipse cx="88.721611" cy="33.128242" rx="1.2934215" ry=".68038863" style="font-variation-settings:normal;display:inline;fill:none;fill-opacity:1;stroke:#fff;stroke-width:.555625;stroke-linecap:butt;stroke-linejoin:miter;stroke-miterlimit:4;stroke-dasharray:none;stroke-dashoffset:0;stroke-opacity:1;stop-color:#000"/></g><path d="M-9.397718 85.24228v19.83578h2.639214V85.24228Z" style="font-weight:400;font-size:27.7812px;line-height:1.25;font-family:&quot;Helvetica Neue&quot;;-inkscape-font-specification:&quot;Helvetica Neue&quot;;text-align:center;letter-spacing:.502708px;text-anchor:middle;display:inline;fill:#fff;fill-opacity:1;stroke:none;stroke-width:.264583" transform="translate(6.3665926 3.7997032) scale(.67745831)"/><path d="M.84968 93.77111v-6.30633h5.278428q.861217 0 1.61131.11112.777873.0833 1.361279.41672.583405.33337.916779.94456.333375.61119.333375 1.66687 0 1.58353-1.000124 2.38918-.972342.77788-3.222619.77788zm-2.639214-8.52883v19.83578H7.79498q1.472404 0 2.583652-.47228 1.139029-.50006 1.889121-1.27794.777874-.80565 1.166811-1.83356.388937-1.0279.388937-2.11137 0-1.83356-.972342-3.11149-.972342-1.27794-2.805902-1.66688v-.0556q1.416842-.55562 2.166934-1.69465.777874-1.16681.777874-2.75034 0-1.50018-.69453-2.52809-.666749-1.0279-1.639091-1.61131-.444499-.27781-1.083467-.41672-.611186-.1389-1.333498-.19447-.722311-.0833-1.472403-.0833-.722312-.0278-1.361279-.0278ZM.84968 102.85556V95.9936h6.028521q.833436 0 1.611309.16669.777874.13891 1.361279.52784.611186.36116.972342 1.00013.361156.63897.361156 1.61131 0 1.66687-1.000124 2.61143-.972342.94456-2.722557.94456z" style="font-size:27.7812px;line-height:1.25;font-family:&quot;Helvetica Neue&quot;;-inkscape-font-specification:&quot;Helvetica Neue, Normal&quot;;text-align:center;letter-spacing:.502708px;text-anchor:middle;display:inline;fill:#fff;fill-opacity:1;stroke:none;stroke-width:.264583" transform="translate(6.3665926 3.7997032) scale(.67745831)"/><path d="M20.481047 98.49391h-4.222743q-.02778 1.83356.666749 3.16706.69453 1.3335 1.861341 2.19471 1.194591.86122 2.722557 1.25016 1.555747.41672 3.194838.41672 2.028028 0 3.555994-.47228 1.555747-.47228 2.583652-1.30572 1.055685-.86122 1.583528-2.02803.527843-1.16681.527843-2.52809 0-1.66687-.722311-2.72256-.69453-1.08346-1.666872-1.72243-.972342-.63897-1.972466-.91678-.972342-.30559-1.527966-.41672-1.86134-.47228-3.028151-.77787-1.139029-.30559-1.805778-.61119-.638967-.30559-.861217-.66675-.222249-.36115-.222249-.94456 0-.63896.277812-1.05568t.69453-.69453q.444499-.27781.972342-.38894.527842-.11112 1.055685-.11112.805655 0 1.472404.1389.69453.13891 1.222373.47228.527843.33338.833436.91678.333374.58341.388937 1.47241h4.222742q0-1.72244-.666749-2.91703-.638967-1.22237-1.750215-2.00025-1.111248-.77787-2.555871-1.11124-1.416841-.36116-2.972588-.36116-1.333498 0-2.666996.36116-1.333497.36115-2.389183 1.11124-1.055685.7501-1.722434 1.88912-.638968 1.11125-.638968 2.63922 0 1.36128.500062 2.33362.527843.94456 1.361279 1.58353.833436.63897 1.889121 1.05568 1.055686.38894 2.166934.66675 1.083467.3056 2.139152.55563 1.055686.25003 1.889122.5834.833436.33338 1.333498.83344.527842.50006.527842 1.30571 0 .7501-.388936 1.25016-.388937.47228-.972342.75009-.583406.27781-1.250154.38894-.666749.0833-1.250154.0833-.861218 0-1.666873-.19447-.805654-.22225-1.416841-.63896-.583405-.4445-.944561-1.13903-.361155-.69453-.361155-1.69466z" style="font-weight:700;font-size:27.7812px;line-height:1.25;font-family:&quot;Helvetica Neue&quot;;-inkscape-font-specification:&quot;Helvetica Neue Bold&quot;;font-variation-settings:normal;text-align:center;letter-spacing:.502708px;text-anchor:middle;display:inline;vector-effect:none;fill:#fff;fill-opacity:1;stroke:none;stroke-width:.264583;stroke-linecap:butt;stroke-linejoin:miter;stroke-miterlimit:4;stroke-dasharray:none;stroke-dashoffset:0;stroke-opacity:1;-inkscape-stroke:none;stop-color:#000" transform="translate(6.3665926 3.7997032) scale(.67745831)"/><path d="M38.029754 97.95972q0-.94509.201083-1.82986.221192-.88476.683682-1.56844.462491-.70379 1.206498-1.10596.744007-.42227 1.809747-.42227t1.809747.42227q.744007.40217 1.206498 1.10596.462491.68368.663574 1.56844.221191.88477.221191 1.82986 0 .90487-.221191 1.76953-.201083.84455-.663574 1.52823t-1.206498 1.10596q-.744007.40216-1.809747.40216t-1.809747-.40216q-.744007-.42228-1.206498-1.10596-.46249-.68368-.683682-1.52823-.201083-.86466-.201083-1.76953zm-3.157003 0q0 1.56845.482599 2.93581.4826 1.34726 1.387473 2.35267.904874 1.00542 2.211913 1.58856 1.327148.56303 2.976028.56303 1.668989 0 2.976029-.56303 1.307039-.58314 2.211912-1.58856.904874-1.00541 1.387473-2.35267.482599-1.36736.482599-2.93581 0-1.60866-.482599-2.97603-.482599-1.38747-1.387473-2.413-.904873-1.02552-2.211912-1.60866-1.30704-.58314-2.976029-.58314-1.64888 0-2.976028.58314-1.307039.58314-2.211913 1.60866-.904873 1.02553-1.387473 2.413-.482599 1.36737-.482599 2.97603zM51.629875 90.72073v14.35733h3.157003v-5.93195h6.012382V96.6929h-6.012382v-3.31787h6.937364v-2.6543zM67.248999 93.37503v11.70303h3.157003V93.37503h4.303176v-2.6543H62.945823v2.6543z" style="font-weight:700;font-size:20.1083px;line-height:1.25;font-family:&quot;Helvetica Neue&quot;;-inkscape-font-specification:&quot;Helvetica Neue Bold&quot;;font-variation-settings:normal;text-align:center;letter-spacing:.502708px;text-anchor:middle;display:inline;vector-effect:none;fill:#fff;fill-opacity:1;stroke:#fff;stroke-width:.449792;stroke-linecap:butt;stroke-linejoin:miter;stroke-miterlimit:4;stroke-dasharray:none;stroke-dashoffset:0;stroke-opacity:1;-inkscape-stroke:none;stop-color:#000" transform="translate(6.3665926 3.7997032) scale(.67745831)"/><path d="M80.369385 98.49391h-4.222743q-.02778 1.83356.666749 3.16706.69453 1.3335 1.861341 2.19471 1.194591.86122 2.722557 1.25016 1.555748.41672 3.194838.41672 2.028028 0 3.555994-.47228 1.555747-.47228 2.583652-1.30572 1.055685-.86122 1.583528-2.02803.527843-1.16681.527843-2.52809 0-1.66687-.722311-2.72256-.69453-1.08346-1.666872-1.72243-.972342-.63897-1.972466-.91678-.972342-.30559-1.527966-.41672-1.86134-.47228-3.02815-.77787-1.13903-.30559-1.805778-.61119-.638968-.30559-.861218-.66675-.222249-.36115-.222249-.94456 0-.63896.277812-1.05568t.69453-.69453q.444499-.27781.972342-.38894.527843-.11112 1.055685-.11112.805655 0 1.472404.1389.69453.13891 1.222373.47228.527843.33338.833436.91678.333374.58341.388937 1.47241h4.222742q0-1.72244-.666749-2.91703-.638967-1.22237-1.750215-2.00025-1.111248-.77787-2.555871-1.11124-1.416841-.36116-2.972588-.36116-1.333498 0-2.666995.36116-1.333498.36115-2.389184 1.11124-1.055685.7501-1.722434 1.88912-.638968 1.11125-.638968 2.63922 0 1.36128.500062 2.33362.527843.94456 1.361279 1.58353.833436.63897 1.889121 1.05568 1.055686.38894 2.166934.66675 1.083467.3056 2.139152.55563 1.055686.25003 1.889122.5834.833436.33338 1.333498.83344.527842.50006.527842 1.30571 0 .7501-.388936 1.25016-.388937.47228-.972342.75009-.583406.27781-1.250154.38894-.666749.0833-1.250154.0833-.861218 0-1.666872-.19447-.805655-.22225-1.416842-.63896-.583405-.4445-.94456-1.13903-.361156-.69453-.361156-1.69466z" style="font-weight:700;font-size:27.7812px;line-height:1.25;font-family:&quot;Helvetica Neue&quot;;-inkscape-font-specification:&quot;Helvetica Neue Bold&quot;;font-variation-settings:normal;text-align:center;letter-spacing:.502708px;text-anchor:middle;display:inline;vector-effect:none;fill:#fff;fill-opacity:1;stroke:none;stroke-width:.264583;stroke-linecap:butt;stroke-linejoin:miter;stroke-miterlimit:4;stroke-dasharray:none;stroke-dashoffset:0;stroke-opacity:1;-inkscape-stroke:none;stop-color:#000" transform="translate(6.3665926 3.7997032) scale(.67745831)"/><path d="M99.104476 99.48795v5.59011h3.157004v-5.50968l5.3287-8.84765h-3.51895l-3.33798 5.67054-3.358087-5.67054h-3.539061z" style="font-weight:700;font-size:20.1083px;line-height:1.25;font-family:&quot;Helvetica Neue&quot;;-inkscape-font-specification:&quot;Helvetica Neue Bold&quot;;font-variation-settings:normal;text-align:center;letter-spacing:.502708px;text-anchor:middle;display:inline;vector-effect:none;fill:#fff;fill-opacity:1;stroke:#fff;stroke-width:.449792;stroke-linecap:butt;stroke-linejoin:miter;stroke-miterlimit:4;stroke-dasharray:none;stroke-dashoffset:0;stroke-opacity:1;-inkscape-stroke:none;stop-color:#000" transform="translate(6.3665926 3.7997032) scale(.67745831)"/><path d="M111.47045 100.31239h-3.05646q-.0201 1.32715.4826 2.29235.50271.96519 1.34726 1.58855.86466.62336 1.97061.90488 1.12607.30162 2.31246.30162 1.4679 0 2.57386-.34184 1.12606-.34184 1.87007-.94509.76412-.62336 1.14617-1.46791.38206-.84455.38206-1.82985 0-1.2065-.52281-1.97062-.50271-.78422-1.2065-1.24671-.70379-.46249-1.42769-.66357-.70379-.2212-1.10596-.30163-1.34725-.34184-2.1918-.56303-.82444-.22119-1.30704-.44238-.46249-.22119-.62336-.4826t-.16087-.68368q0-.4625.20109-.76412.20108-.30162.5027-.50271.32174-.20108.70379-.28151.38206-.0804.76412-.0804.58314 0 1.06574.10054.50271.10055.88477.34185.38205.2413.60324.66357.2413.42227.28152 1.06574h3.05646q0-1.24672-.4826-2.11137-.46249-.88477-1.26682-1.4478t-1.84996-.80433q-1.02553-.26141-2.15159-.26141-.9652 0-1.9304.26141t-1.72931.80433q-.76412.54292-1.24672 1.36736-.46249.80434-.46249 1.91029 0 .98531.36195 1.6891.38206.68368.98531 1.14617.60325.46249 1.36736.76412.76412.28151 1.56845.4826.78422.22119 1.54834.40216.76411.18098 1.36736.42228t.9652.60325q.38206.36195.38206.94509 0 .54292-.28152.90487-.28151.34184-.70379.54292-.42227.20109-.90487.28152-.4826.0603-.90487.0603-.62336 0-1.2065-.14076-.58314-.16087-1.02553-.46249-.42227-.32174-.68368-.82444-.26141-.50271-.26141-1.22661z" style="font-weight:700;font-size:20.1083px;line-height:1.25;font-family:&quot;Helvetica Neue&quot;;-inkscape-font-specification:&quot;Helvetica Neue Bold&quot;;font-variation-settings:normal;text-align:center;letter-spacing:.502708px;text-anchor:middle;display:inline;fill:#fff;fill-opacity:1;stroke:#fff;stroke-width:.449792;stroke-linecap:butt;stroke-linejoin:miter;stroke-miterlimit:4;stroke-dasharray:none;stroke-dashoffset:0;stroke-opacity:1;stop-color:#000" transform="translate(6.3665926 3.7997032) scale(.67745831)"/></g></svg>