<svg xmlns="http://www.w3.org/2000/svg" width="333.25809" height="287.96771" viewBox="0 0 88.174535 76.191462"><defs><path id="b" d="M1600.6648 5530.2114h158.57976v94.550331H1600.6648z"/><path id="a" d="M157-13h55v40h-55z"/><path id="c" d="M157-13h55v40h-55z"/><path id="d" d="M1600.6648 5530.2114h158.57976v94.550331H1600.6648z"/><path id="e" d="M157-13h55v40h-55z"/><path id="f" d="M1600.6648 5530.2114h158.57976v94.550331H1600.6648z"/><path id="g" d="M157-13h55v40h-55z"/><path id="h" d="M1600.6648 5530.2114h158.57976v94.550331H1600.6648z"/><path id="i" d="M157-13h55v40h-55z"/><path id="j" d="M1600.6648 5530.2114h158.57976v94.550331H1600.6648z"/><path id="k" d="M157-13h55v40h-55z"/><path id="l" d="M1600.6648 5530.2114h158.57976v94.550331H1600.6648z"/><path id="m" d="M157-13h55v40h-55z"/><path id="n" d="M1600.6648 5530.2114h158.57976v94.550331H1600.6648z"/><path id="o" d="M157-13h55v40h-55z"/><path id="p" d="M1600.6648 5530.2114h158.57976v94.550331H1600.6648z"/></defs><g style="display:inline" transform="translate(-7.5177811 -2.6825836)"><ellipse cx="51.593781" cy="30.026939" rx="43.282249" ry="26.550606" style="font-variation-settings:normal;display:inline;fill:none;fill-opacity:1;stroke:#000;stroke-width:1.5875;stroke-linecap:butt;stroke-linejoin:miter;stroke-miterlimit:4;stroke-dasharray:none;stroke-dashoffset:0;stroke-opacity:1;stop-color:#000"/><ellipse cx="67.019264" cy="30.026939" rx="26.510872" ry="16.17045" style="font-variation-settings:normal;display:inline;fill:none;fill-opacity:1;stroke:#000;stroke-width:1.32292;stroke-linecap:butt;stroke-linejoin:miter;stroke-miterlimit:4;stroke-dasharray:none;stroke-dashoffset:0;stroke-opacity:1;stop-color:#000"/><ellipse cx="76.28009" cy="30.026939" rx="16.145391" ry="9.7550411" style="font-variation-settings:normal;display:inline;fill:none;fill-opacity:1;stroke:#000;stroke-width:1.05833;stroke-linecap:butt;stroke-linejoin:miter;stroke-miterlimit:4;stroke-dasharray:none;stroke-dashoffset:0;stroke-opacity:1;stop-color:#000"/><ellipse cx="81.766106" cy="30.026939" rx="9.7389774" ry="5.7899771" style="font-variation-settings:normal;display:inline;fill:none;fill-opacity:1;stroke:#000;stroke-width:.926042;stroke-linecap:butt;stroke-linejoin:miter;stroke-miterlimit:4;stroke-dasharray:none;stroke-dashoffset:0;stroke-opacity:1;stop-color:#000"/><ellipse cx="84.930321" cy="30.026939" rx="5.7796507" ry="3.3394673" style="font-variation-settings:normal;display:inline;fill:none;fill-opacity:1;stroke:#000;stroke-width:.79375;stroke-linecap:butt;stroke-linejoin:miter;stroke-miterlimit:4;stroke-dasharray:none;stroke-dashoffset:0;stroke-opacity:1;stop-color:#000"/><ellipse cx="86.91993" cy="30.026939" rx="3.1086199" ry="1.7900585" style="font-variation-settings:normal;display:inline;fill:none;fill-opacity:1;stroke:#000;stroke-width:.661458;stroke-linecap:butt;stroke-linejoin:miter;stroke-miterlimit:4;stroke-dasharray:none;stroke-dashoffset:0;stroke-opacity:1;stop-color:#000"/><ellipse cx="88.214539" cy="30.026939" rx="1.2934215" ry=".68038863" style="font-variation-settings:normal;display:inline;fill:none;fill-opacity:1;stroke:#000;stroke-width:.555625;stroke-linecap:butt;stroke-linejoin:miter;stroke-miterlimit:4;stroke-dasharray:none;stroke-dashoffset:0;stroke-opacity:1;stop-color:#000"/><g style="stroke-width:1.00051"><path d="M7.9266829 78.654784c.2516392 0 .419399-.167806.419399-.440422V63.650773c0-.272616-.1677598-.440345-.419399-.440345-.2516393 0-.4089141.167729-.4089141.440345v14.563589c0 .272616.1572748.440422.4089141.440422zM11.449632 78.49749h4.739205c3.176946 0 5.10618-1.562267 5.10618-4.036681 0-2.191364-1.635655-3.575391-3.774589-3.806036v-.06261c1.803415-.346045 2.977731-1.740507 2.977731-3.543932 0-2.191363-1.782445-3.680201-4.414171-3.680201h-4.634356c-.251639 0-.408913.167728-.408913.440344v14.24908c0 .272616.157274.440344.408913.440344zm.419399-8.157304v-6.21761h4.089137c2.254269 0 3.701194 1.163893 3.701194 2.988265 0 1.992099-1.530806 3.229345-3.900409 3.229345zm0 7.402373v-6.657954h4.026227c2.872882 0 4.560961 1.268704 4.560961 3.35518 0 2.034147-1.614685 3.302774-4.340776 3.302774z" style="font-weight:200;font-size:19.05px;line-height:1.25;font-family:Lato;-inkscape-font-specification:&quot;SF Pro Rounded Ultra-Light&quot;;text-align:center;letter-spacing:0;text-anchor:middle;fill:#000;fill-opacity:1;stroke:none;stroke-width:.204612" transform="matrix(.99948798 0 0 .99948492 .02637761 .03653569)"/><path d="M28.41431 78.74916c3.533434 0 5.777217-1.79299 5.777217-4.644831 0-2.201876-1.300136-3.47058-4.477081-4.14157l-1.646141-.346045c-1.960688-.419398-2.747061-1.153305-2.747061-2.254281 0-1.384027 1.310621-2.243769 3.082581-2.243769 1.509835 0 2.663182.597637 3.176945 1.992177.241154.545232.587158.807336 1.153346.807336.608128 0 1.038012-.398451 1.038012-1.0066 0-.220134-.03145-.398374-.08388-.545155-.587158-2.023636-2.642211-3.25037-5.252968-3.25037-3.218885 0-5.494124 1.782401-5.494124 4.372215 0 2.180852 1.373531 3.585903 4.393202 4.225434l1.656625.346046c2.023598.440344 2.820456 1.174328 2.820456 2.348579 0 1.352569-1.373531 2.338145-3.29228 2.338145-1.750989 0-3.12452-.660555-3.596343-2.075963-.23067-.566179-.576674-.807337-1.111407-.807337-.639583 0-1.058981.440344-1.058981 1.121846 0 .251669.05242.503262.125819.733984.587158 1.761454 2.600272 3.030159 5.536063 3.030159z" style="font-weight:500;font-size:19.05px;line-height:1.25;font-family:Lato;-inkscape-font-specification:&quot;SF Pro Rounded Medium&quot;;text-align:center;letter-spacing:0;text-anchor:middle;fill:#000;fill-opacity:1;stroke:none;stroke-width:.204612" transform="matrix(.99948798 0 0 .99948492 .02637761 .03653569)"/><path d="M40.64947 78.679595c3.149485 0 5.130245-2.170417 5.130245-5.653827 0-3.483411-1.98076-5.66148-5.130245-5.66148-3.157074 0-5.130246 2.178069-5.130246 5.66148 0 3.48341 1.973172 5.653827 5.130246 5.653827zm0-1.495021c-2.079419 0-3.392337-1.608876-3.392337-4.158806 0-2.557583 1.312918-4.166459 3.392337-4.166459 2.079419 0 3.384748 1.608876 3.384748 4.166459 0 2.54993-1.305329 4.158806-3.384748 4.158806zM48.238588 78.618919c.523649 0 .849981-.33391.849981-.880302v-3.824973h4.06018c.455347 0 .766501-.280809.766501-.720921 0-.432615-.311154-.713424-.766501-.713424h-4.06018V69.01869h4.462402c.470526 0 .796859-.288385.796859-.736149 0-.447764-.318744-.736148-.796859-.736148h-5.312383c-.531239 0-.849982.33391-.849982.880301v9.311923c0 .546392.318743.880302.849982.880302zM59.273168 78.618919c.523649 0 .849982-.33391.849982-.880302V69.01869h2.678959c.470526 0 .789269-.288385.789269-.736149 0-.447764-.318743-.736148-.789269-.736148h-7.065471c-.470526 0-.789269.288384-.789269.736148 0 .447764.318743.736149.789269.736149h2.686549v8.719927c0 .546392.318743.880302.849981.880302z" style="font-weight:500;font-size:20.1083px;line-height:1.25;font-family:Lato;-inkscape-font-specification:&quot;SF Pro Rounded Medium&quot;;text-align:center;letter-spacing:0;text-anchor:middle;fill:#000;fill-opacity:1;stroke:#000;stroke-width:.397079;stroke-miterlimit:4;stroke-dasharray:none;stroke-opacity:1" transform="matrix(.99948798 0 0 .99948492 .02637761 .03653569)"/><path d="M70.387336 78.74916c3.533434 0 5.777218-1.79299 5.777218-4.644831 0-2.201876-1.300136-3.47058-4.477082-4.14157l-1.64614-.346045c-1.960688-.419398-2.747061-1.153305-2.747061-2.254281 0-1.384027 1.310621-2.243769 3.08258-2.243769 1.509836 0 2.663182.597637 3.176946 1.992177.241154.545232.587158.807336 1.153346.807336.608128 0 1.038012-.398451 1.038012-1.0066 0-.220134-.03145-.398374-.08388-.545155-.587158-2.023636-2.642212-3.25037-5.252969-3.25037-3.218885 0-5.494123 1.782401-5.494123 4.372215 0 2.180852 1.373531 3.585903 4.393202 4.225434l1.656625.346046c2.023598.440344 2.820456 1.174328 2.820456 2.348579 0 1.352569-1.373531 2.338145-3.29228 2.338145-1.75099 0-3.12452-.660555-3.596344-2.075963-.230669-.566179-.576673-.807337-1.111406-.807337-.639583 0-1.058982.440344-1.058982 1.121846 0 .251669.05242.503262.125819.733984.587159 1.761454 2.600272 3.030159 5.536063 3.030159z" style="font-weight:500;font-size:27.7812px;line-height:1.25;font-family:Lato;-inkscape-font-specification:&quot;SF Pro Rounded Medium&quot;;text-align:center;letter-spacing:0;text-anchor:middle;fill:#000;fill-opacity:1;stroke:none;stroke-width:.204612" transform="matrix(.99948798 0 0 .99948492 .02637761 .03653569)"/><path d="M81.780103 78.618919c.531238 0 .849981-.33391.849981-.880302v-3.726268l3.475817-5.259319c.129015-.197254.17455-.371862.17455-.561541 0-.44019-.364277-.766525-.834803-.766525-.333922 0-.546417.136578-.751323.478141l-2.876276 4.477566h-.05313l-2.876276-4.477566c-.212495-.349138-.409813-.478141-.758912-.478141-.478115 0-.842392.326335-.842392.7741 0 .189756.04553.364286.174549.553966l3.468228 5.259319v3.726268c0 .546392.326332.880302.849982.880302zM91.334805 78.679595c2.557534 0 4.181606-1.29769 4.181606-3.361904 0-1.593726-.941051-2.512057-3.240554-2.997773l-1.191492-.250432c-1.419166-.303534-1.98835-.834776-1.98835-1.6316 0-1.001809.948641-1.624103 2.231202-1.624103 1.092833 0 1.927636.432538 2.299503 1.44192.17455.394664.42499.584343.834803.584343.440169 0 .751323-.288384.751323-.728496 0-.15938-.02277-.288384-.06071-.394663-.424991-1.464722-1.912459-2.352599-3.80215-2.352599-2.32986 0-3.976698 1.290115-3.976698 3.16465 0 1.578499.994174 2.595457 3.179841 3.058371l1.199081.250432c1.4647.318761 2.041473.850003 2.041473 1.700006 0 .979006-.994175 1.692353-2.382983 1.692353-1.267384 0-2.261558-.478141-2.603069-1.502596-.16696-.409813-.417402-.584421-.804446-.584421-.462937 0-.766502.318761-.766502.812052 0 .182182.03794.364286.09107.531242.424991 1.274965 1.882102 2.193218 4.007055 2.193218z" style="font-weight:500;font-size:20.1083px;line-height:1.25;font-family:Lato;-inkscape-font-specification:&quot;SF Pro Rounded Medium&quot;;text-align:center;letter-spacing:0;text-anchor:middle;fill:#000;fill-opacity:1;stroke:#000;stroke-width:.397079;stroke-miterlimit:4;stroke-dasharray:none;stroke-opacity:1" transform="matrix(.99948798 0 0 .99948492 .02637761 .03653569)"/></g></g></svg>