<svg width="882.73358" height="947.04651" viewBox="0 0 233.55653 250.57266" xmlns="http://www.w3.org/2000/svg"><defs><path id="c" d="M1600.6648 5530.2114h158.57976v94.550331H1600.6648z"/><path id="b" d="M157-13h55v40h-55z"/><path id="e" d="M1600.6648 5530.2114h158.57976v94.550331H1600.6648z"/><path id="d" d="M157-13h55v40h-55z"/><filter style="color-interpolation-filters:sRGB" id="a" x="-.05642297" y="-.03515585" width="1.1128459" height="1.0703117"><feGaussianBlur stdDeviation="1.1384116"/></filter></defs><text xml:space="preserve" transform="matrix(.26458 0 0 .26458 -119.50634 -1942.7517)" style="font-size:36px;line-height:1.25;font-family:Lato;-inkscape-font-specification:Lato;text-align:center;letter-spacing:0;white-space:pre;shape-inside:url(#b)"><tspan x="157" y="60.48"><tspan dx="0 20.882812 20.039062 14.484375 18.84375">Ehret</tspan></tspan></text><text xml:space="preserve" transform="matrix(.26458 0 0 .26458 426.53347 -2150.4431)" style="font-size:36px;line-height:1.25;font-family:Lato;-inkscape-font-specification:Lato;text-align:center;letter-spacing:0;white-space:pre;shape-inside:url(#d)"><tspan x="157" y="60.48"><tspan dx="0 20.882812 20.039062 14.484375 18.84375">Ehret</tspan></tspan></text><g style="display:inline"><path style="display:inline;vector-effect:none;fill:#000;fill-opacity:.35;stroke-width:.828176;stroke-opacity:.968165;stop-color:#000" d="M425.60398-142.17639h233.55654v250.57266H425.60398Z" transform="translate(-425.60398 142.17639)"/></g><g style="display:inline"><g aria-label="Engineering office" style="font-weight:700;font-size:26.4583px;line-height:1.25;font-family:'PT Sans';-inkscape-font-specification:'PT Sans Bold';text-align:center;letter-spacing:1.07156px;text-anchor:middle;display:inline;stroke-width:.293981"><path d="M-155.72568 298.96988h10.9802v3.22791h-7.35541v4.31271h6.69395v3.22791h-6.69395v4.52437h7.4877v3.22791h-11.11249zM-132.83966 317.49069v-7.51415q0-1.61396-.47625-2.32834-.44979-.71437-1.56104-.71437-.97896 0-1.66688.58208-.66145.55563-.95249 1.40229v8.57249h-3.43958v-13.22915h2.7252l.39688 1.74625h.10583q.60854-.84667 1.61396-1.48166 1.00541-.635 2.59291-.635.97896 0 1.74625.26458t1.29645.87312q.52917.60854.79375 1.66688.26459 1.03187.26459 2.56645v8.22853zM-114.25478 317.49069q0 2.88396-1.56104 4.23333-1.56103 1.37583-4.36561 1.37583-1.905 0-3.01625-.26458-1.08479-.26458-1.64042-.55563l.71438-2.7252q.60854.23812 1.40229.47625.82021.23812 2.01083.23812 1.79916 0 2.43416-.79375.66146-.76729.66146-2.16958v-.84666h-.10583q-.92604 1.24354-3.28083 1.24354-2.56646 0-3.83646-1.5875-1.24354-1.5875-1.24354-4.97416 0-3.54541 1.69334-5.37103 1.69333-1.82563 4.92124-1.82563 1.69333 0 3.01625.23813 1.34937.23812 2.19603.55562zm-5.82082-2.53999q1.00541 0 1.53458-.4498.55562-.44979.84667-1.34937v-5.95312q-.82021-.34395-2.03729-.34395-1.32292 0-2.06375 1.00541-.74083.97896-.74083 3.14854 0 1.93145.635 2.93687t1.82562 1.00542zM-109.89825 304.26154h3.43958v13.22915h-3.43958zm-.50271-3.73062q0-.76729.55562-1.29645.58209-.55563 1.5875-.55563 1.00542 0 1.61396.55563.635.52916.635 1.29645 0 .76729-.635 1.29646-.60854.50271-1.61396.50271-1.00541 0-1.5875-.50271-.55562-.52917-.55562-1.29646zM-93.916616 317.49069v-7.51415q0-1.61396-.476249-2.32834-.449791-.71437-1.56104-.71437-.978957 0-1.666873.58208-.661457.55563-.952499 1.40229v8.57249h-3.439583v-13.22915h2.725209l.396875 1.74625h.105833q.608541-.84667 1.613956-1.48166 1.005416-.635 2.592914-.635.978957 0 1.746247.26458.767291.26458 1.296457.87312.529166.60854.793749 1.66688.264583 1.03187.264583 2.56645v8.22853zM-75.94027 316.35299q-.793749.63499-2.169581 1.08479-1.349373.42333-2.883954.42333-3.201455 0-4.683119-1.85208-1.481665-1.87854-1.481665-5.13291 0-3.4925 1.666873-5.23875 1.666872-1.74624 4.683119-1.74624 1.005415 0 1.957914.26458t1.693331.87312q.740832.60854 1.190623 1.64042.449792 1.03187.449792 2.56645 0 .55563-.07937 1.19063-.05292.635-.185208 1.32291h-7.93749q.07937 1.66687.846665 2.51354.793749.84667 2.539997.84667 1.08479 0 1.931456-.3175.873124-.34396 1.322915-.68792zm-4.921244-9.7102q-1.349373 0-2.010831.82021-.634999.79375-.76729 2.14312h4.921243q.105834-1.42875-.449791-2.19604-.529166-.76729-1.693331-.76729zM-61.587884 316.35299q-.793749.63499-2.16958 1.08479-1.349374.42333-2.883955.42333-3.201454 0-4.683119-1.85208-1.481665-1.87854-1.481665-5.13291 0-3.4925 1.666873-5.23875 1.666873-1.74624 4.683119-1.74624 1.005416 0 1.957914.26458.952499.26458 1.693331.87312.740833.60854 1.190624 1.64042.449791 1.03187.449791 2.56645 0 .55563-.07937 1.19063-.05292.635-.185208 1.32291h-7.93749q.07937 1.66687.846666 2.51354.793749.84667 2.539997.84667 1.08479 0 1.931455-.3175.873124-.34396 1.322915-.68792zm-4.921243-9.7102q-1.349374 0-2.010831.82021-.634999.79375-.767291 2.14312h4.921244q.105833-1.42875-.449791-2.19604-.529166-.76729-1.693331-.76729zM-50.361297 307.48945q-.820207-.29104-1.481665-.29104-.92604 0-1.56104.50271-.60854.47625-.820207 1.24354v8.54603h-3.439579v-13.22915h2.672288l.396875 1.74625h.105833q.449791-.97896 1.217082-1.50812.767291-.52917 1.799164-.52917.687916 0 1.56104.29104zM-46.972982 304.26154h3.439579v13.22915h-3.439579zm-.502708-3.73062q0-.76729.555625-1.29645.582082-.55563 1.587498-.55563 1.005415 0 1.613956.55563.634999.52916.634999 1.29645 0 .76729-.634999 1.29646-.608541.50271-1.613956.50271-1.005416 0-1.587498-.50271-.555625-.52917-.555625-1.29646zM-30.991338 317.49069v-7.51415q0-1.61396-.47625-2.32834-.449791-.71437-1.561039-.71437-.978957 0-1.666873.58208-.661458.55563-.952499 1.40229v8.57249h-3.439579v-13.22915h2.725205l.396875 1.74625h.105833q.608541-.84667 1.613956-1.48166 1.005415-.635 2.592913-.635.978957 0 1.746248.26458.767291.26458 1.296457.87312.529166.60854.793749 1.66688.264583 1.03187.264583 2.56645v8.22853zM-12.406452 317.49069q0 2.88396-1.561039 4.23333-1.56104 1.37583-4.36562 1.37583-1.904997 0-3.016246-.26458-1.08479-.26458-1.640414-.55563l.714374-2.7252q.608541.23812 1.40229.47625.820207.23812 2.01083.23812 1.799165 0 2.434164-.79375.661457-.76729.661457-2.16958v-.84666h-.105833q-.92604 1.24354-3.280829 1.24354-2.566455 0-3.836453-1.5875-1.243541-1.5875-1.243541-4.97416 0-3.54541 1.693332-5.37103 1.693331-1.82563 4.921243-1.82563 1.693332 0 3.016247.23813 1.349373.23812 2.196038.55562zm-5.820826-2.53999q1.005416 0 1.534582-.4498.555624-.44979.846665-1.34937v-5.95312q-.820207-.34395-2.037289-.34395-1.322915 0-2.063747 1.00541-.740832.97896-.740832 3.14854 0 1.93145.634999 2.93687t1.825622 1.00542zM-1.2129411 310.87612q0-3.36021 1.64041462-5.15937 1.64041458-1.82562 4.60374418-1.82562 1.5874979 0 2.7516631.5027 1.1641652.50271 1.9314559 1.42875.7672903.89958 1.1377073 2.19604.396874 1.29646.396874 2.8575 0 3.3602-1.6404145 5.18582-1.6139563 1.79917-4.5772858 1.79917-1.587498 0-2.7516632-.50271-1.1641652-.50271-1.95791418-1.40229-.76729069-.92604-1.16416519-2.2225-.37041623-1.29645-.37041623-2.85749zm3.5454122 0q0 .87312.1587498 1.61395.1587498.74084.4762494 1.29646.3174996.55562.8202073.87312.529166.29105 1.2435401.29105 1.3493732 0 2.0108307-.97896t.6614575-3.09562q0-1.82563-.6085409-2.93687-.6085409-1.13771-2.0637473-1.13771-1.2699984 0-1.9843725.9525-.7143741.9525-.7143741 3.12208zM13.17748 304.26154h1.825623v-.74083q0-2.51354 1.058332-3.62479 1.058332-1.1377 3.069162-1.1377 2.116664 0 3.518954.5027l-.661457 2.75167q-.608541-.21167-1.08479-.26459-.449792-.0794-.952499-.0794-.529166 0-.846666.15875-.291041.15875-.449791.50271-.132291.3175-.185208.8202-.02646.47625-.02646 1.11125h2.910413v2.91042H18.44268v10.31873h-3.439577v-10.3187H13.17748ZM35.4504 304.26154v13.22915h-3.439579v-10.31873h-3.995203v10.31873h-3.439579v-10.31873h-1.825622v-2.91042h1.825622v-.74083q0-2.51354 1.296457-3.65125 1.296457-1.16416 3.757078-1.16416 1.825623 0 3.227913.29104 1.428748.26458 2.301872.76729l-.899582 2.67229q-.687916-.37042-1.666873-.58208-.978957-.23813-2.169581-.23813-.76729 0-1.24354.18521-.476249.15875-.740832.50271-.264583.3175-.343958.82021-.07937.5027-.07937 1.1377zM50.07481 316.67048q-.793749.58209-1.931455.87313-1.111249.3175-2.301872.3175-1.587498 0-2.698747-.50271-1.08479-.50271-1.772706-1.40229-.687916-.92604-1.005415-2.2225-.291042-1.29645-.291042-2.85749 0-3.36021 1.508123-5.15937 1.508123-1.82562 4.392078-1.82562 1.455207 0 2.32833.23812.899583.23813 1.613957.60854l-.820208 2.80458q-.60854-.29104-1.217081-.44979-.582083-.15875-1.349374-.15875-1.428748 0-2.16958.9525-.740833.92604-.740833 2.98979 0 .84666.185208 1.56104.185209.71437.555625 1.24354.370416.52916.952499.84666.60854.29104 1.402289.29104.873124 0 1.481665-.21166.608541-.23813 1.08479-.55563zM63.370521 316.35299q-.793749.63499-2.169581 1.08479-1.349373.42333-2.883954.42333-3.201455 0-4.683119-1.85208-1.481665-1.87854-1.481665-5.13291 0-3.4925 1.666873-5.23875 1.666873-1.74624 4.683119-1.74624 1.005415 0 1.957914.26458t1.693331.87312q.740832.60854 1.190624 1.64042.449791 1.03187.449791 2.56645 0 .55563-.07938 1.19063-.05292.635-.185208 1.32291h-7.93749q.07938 1.66687.846665 2.51354.793749.84667 2.539997.84667 1.08479 0 1.931456-.3175.873124-.34396 1.322915-.68792zm-4.921244-9.7102q-1.349373 0-2.010831.82021-.634999.79375-.76729 2.14312h4.921243q.105834-1.42875-.449791-2.19604-.529166-.76729-1.693331-.76729z" style="fill:#fff;stroke-width:.293981" transform="matrix(.81 0 0 .81 154.0106582 -98.248898)"/></g><g aria-label="for" style="font-weight:700;font-size:14.8167px;line-height:1.25;font-family:'PT Sans';-inkscape-font-specification:'PT Sans Bold';text-align:center;letter-spacing:8.33437px;text-anchor:middle;display:inline;stroke-width:.293981"><path d="M-62.788899 330.07483h1.022352v-.41486q0-1.40759.592668-2.02989.592668-.63712 1.718738-.63712 1.185336 0 1.970621.28152l-.370418 1.54094q-.340784-.11854-.607485-.14817-.251883-.0445-.533401-.0445-.296334 0-.474134.0889-.162984.0889-.251884.28152-.07408.1778-.103717.45931-.01482.2667-.01482.6223h1.629837v1.62984h-1.629837v5.77851h-1.926171v-5.77851h-1.022352zM-49.469404 333.77901q0-1.88172.918635-2.88926.918636-1.02235 2.578106-1.02235.889002 0 1.540937.28152t1.081619.8001q.429684.50377.637118 1.22979.222251.72601.222251 1.6002 0 1.88172-.918636 2.90407-.903819 1.00754-2.563289 1.00754-.889002 0-1.540937-.28152t-1.096436-.78528q-.429684-.51859-.651934-1.24461-.207434-.72601-.207434-1.6002zm1.985438 0q0 .48895.0889.90382.0889.41487.2667.72602.177801.31115.459318.48895.296334.16298.696385.16298.755652 0 1.126069-.54822.370418-.54821.370418-1.73355 0-1.02235-.340784-1.64465-.340784-.63712-1.155703-.63712-.711202 0-1.111252.5334-.400051.5334-.400051 1.74837zM-28.731836 331.88247q-.459318-.16298-.829736-.16298-.518584 0-.874185.28152-.340784.2667-.459318.69638v4.78579h-1.926171v-7.40835h1.496487l.222251.97791h.05927q.251884-.54822.681569-.84455.429684-.29634 1.007535-.29634.385234 0 .874185.16298z" style="fill:#fff;stroke-width:.293981" transform="matrix(.81 0 0 .81 153.7421533 -97.683839)"/></g><path d="M-127.4338 365.07934q0-.6858-.51435-1.11442-.49292-.42863-1.26444-.77153-.75009-.36433-1.65021-.72866-.87868-.38576-1.6502-.92154-.75009-.55721-1.26444-1.3716-.49292-.81438-.49292-2.07883 0-1.09299.36433-1.88594.36433-.81439 1.0287-1.35018.6858-.53578 1.60734-.79295t2.0574-.25717q1.30731 0 2.46459.23574 1.15728.21431 1.90738.64294l-.92154 2.46459q-.47149-.30004-1.41446-.53579-.94298-.25717-2.03597-.25717-1.0287 0-1.58591.40719-.53578.4072-.53578 1.09299 0 .64294.49292 1.07157.51435.42863 1.26444.79296.77152.36433 1.6502.75009.90012.38576 1.65021.94297.77152.53578 1.26444 1.35016.51435.79296.51435 1.99311 0 1.20015-.40719 2.07883-.38577.85725-1.11443 1.43589-.70723.57864-1.73593.85725-1.00727.27861-2.22885.27861-1.60734 0-2.82891-.30004-1.22159-.30003-1.80023-.60007l.94297-2.50746q.23575.12859.60008.27861.38576.15001.85725.2786.47148.12859.98583.21432.53579.0857 1.09299.0857 1.30731 0 1.99311-.42863.70723-.45005.70723-1.35016zM-121.95176 363.75061q0-2.72177 1.32874-4.17909 1.32873-1.47876 3.72903-1.47876 1.28588 0 2.22885.40719.94297.4072 1.56448 1.15729.6215.72866.92154 1.77879.32147 1.05013.32147 2.31458 0 2.72176-1.32874 4.20051-1.3073 1.45733-3.7076 1.45733-1.28587 0-2.22884-.4072-.94298-.40719-1.58591-1.13585-.62151-.75009-.94298-1.80023-.30004-1.05012-.30004-2.31456zm2.87179 0q0 .70722.12859 1.3073t.38576 1.05013q.25718.45005.66436.70723.42863.23574 1.00727.23574 1.093 0 1.62877-.79295.53578-.79296.53578-2.50745 0-1.47876-.49291-2.37887-.49292-.92154-1.67164-.92154-1.0287 0-1.60734.77152-.57864.77153-.57864 2.52889zM-109.97405 358.3928h1.47876v-.60008q0-2.03596.85725-2.93608.85725-.92153 2.48602-.92153 1.7145 0 2.85035.40718l-.53577 2.22886q-.49292-.17146-.87868-.21432-.36433-.0643-.77153-.0643-.42863 0-.6858.12859-.23574.12859-.36433.4072-.10716.25717-.15002.66436-.0214.38576-.0214.90011h2.35744v2.35743h-2.35744v8.35818h-2.78606v-8.35818h-1.47876zM-102.21594 358.3928h1.47876v-2.01454l2.786061-.79296v2.8075h2.614607v2.35743h-2.614607v4.1148q0 1.11442.214309 1.60734.235743.47148.857248.47148.428627 0 .72866-.0857.321472-.0857.707235-.25717l.492917 2.14312q-.578648.27861-1.350173.47148-.771516.19289-1.564474.19289-1.478752 0-2.185983-.75009-.6858-.77153-.6858-2.50746v-5.40067h-1.47876zM-85.038138 358.3928l1.950241 5.48639.385762 1.7788h.08572l.300037-1.80023 1.371598-5.46496h2.550316l-3.300409 10.82276h-2.057397l-2.164554-6.00074-.278606-1.35016h-.107156l-.257175 1.3716-2.057396 5.9793h-2.121695l-3.450422-10.82276h3.021802l1.564475 5.37923.257177 1.90738h.107157l.364331-1.9288 1.778791-5.35781zM-76.22555 359.0143q.857249-.38576 2.035966-.60007 1.178717-.23574 2.46459-.23574 1.114424 0 1.864517.2786.750093.25718 1.178717.7501.450056.49291.621505 1.17871.192882.6858.192882 1.54305 0 .94298-.06429 1.90738-.06429.94297-.08572 1.86451 0 .92155.0643 1.80023.06429.85725.321468 1.62877h-2.271709l-.450056-1.47875h-.107156q-.428625.66436-1.200149 1.15729-.750093.47148-1.950241.47148-.750093 0-1.350167-.21432-.600075-.23574-1.028699-.64293-.428625-.42862-.664368-.98584-.235743-.57864-.235743-1.28587 0-.98584.428624-1.6502.450056-.6858 1.264442-1.093.835818-.42862 1.971673-.57864 1.157286-.17145 2.571747-.10715.150018-1.20016-.17145-1.71451-.321469-.53577-1.435892-.53577-.835818 0-1.778791.17144-.921543.17146-1.521618.45006zm3.536152 7.97242q.835817 0 1.328735-.36433.492918-.38576.728662-.81439v-1.39303q-.664368-.0643-1.285874-.0215-.600074.0428-1.071561.19288-.471486.15002-.750092.42863-.278606.2786-.278606.70722 0 .60008.342899.94298.364331.32147.985837.32147zM-58.424906 361.0074q-.664368-.23574-1.200149-.23574-.750092 0-1.264441.4072-.492919.38576-.664369 1.00726v6.92229h-2.786059V358.3928h2.164554l.321468 1.41446h.08572q.364331-.79296.985836-1.22158.621506-.42863 1.457323-.42863.557212 0 1.264443.23575zM-47.043582 368.18686q-.642937.51435-1.757361.87868-1.092992.34291-2.336004.34291-2.593177 0-3.793326-1.50019-1.200149-1.52161-1.200149-4.15765 0-2.82893 1.350168-4.24339 1.350167-1.41446 3.793326-1.41446.814387 0 1.585911.21431.771523.21431 1.371598.70723.600074.49292.964405 1.32874.364331.83582.364331 2.07883 0 .45006-.06429.96441-.04286.51434-.150019 1.07155h-6.429367q.06429 1.35017.6858 2.03597.642937.68579 2.057397.68579.87868 0 1.56448-.25717.70723-.2786 1.071561-.55721zm-3.986208-7.86525q-1.092992 0-1.628773.66437-.514349.64293-.621506 1.73593h3.986208q.08572-1.15729-.364331-1.7788-.428624-.6215-1.371598-.6215zM-30.376114 365.07934q0-.6858-.51435-1.11442-.492918-.42863-1.264442-.77153-.750092-.36433-1.650204-.72866-.87868-.38576-1.650204-.92154-.750093-.55721-1.264443-1.3716-.492917-.81438-.492917-2.07883 0-1.09299.364331-1.88594.36433-.81439 1.028698-1.35018.6858-.53578 1.607342-.79295.921542-.25717 2.057397-.25717 1.307305 0 2.464591.23574 1.157286.21431 1.907378.64294l-.921541 2.46459q-.471488-.30004-1.414461-.53579-.942974-.25717-2.035967-.25717-1.028698 0-1.58591.40719-.53578.4072-.53578 1.09299 0 .64294.492918 1.07157.514349.42863 1.264441.79296.771525.36433 1.650204.75009.900112.38576 1.650205.94297.771524.53578 1.264442 1.35016.514349.79296.514349 1.99311 0 1.20015-.407193 2.07883-.385762.85725-1.114423 1.43589-.707231.57864-1.735929.85725-1.007268.27861-2.228848.27861-1.607341 0-2.828921-.30004-1.22158-.30003-1.800223-.60007l.942974-2.50746q.235743.12859.600074.27861.385762.15001.857249.2786.471487.12859.985836.21432.535781.0857 1.092992.0857 1.307306 0 1.993104-.42863.707231-.45005.707231-1.35016zM-20.479235 364.41497l.385762 1.67164h.128588l.278605-1.69307 1.628773-6.00074h2.871784l-3.257546 9.66547q-.407193 1.20016-.792955 2.18599-.364331 1.00727-.814387 1.73593-.450055.72867-1.007267 1.11443-.535781.40719-1.285874.40719-1.114423 0-1.778791-.36433l.51435-2.22885q.321468.12859.642936.12859.492919 0 .942974-.42863.471486-.40719.70723-1.50018l-4.479125-10.71561h3.34327zM-8.4988427 366.1509q0-.42862-.3643308-.6858-.3643308-.25717-.9001113-.47148-.5357802-.21432-1.1787172-.42863-.642937-.23574-1.178717-.62151-.535781-.40719-.900112-1.00726-.364331-.62151-.364331-1.58591 0-1.58592.942974-2.42173.942974-.83582 2.7217656-.83582 1.2215797 0 2.2074159.25717.9858362.25718 1.543048.57865l-.6215054 2.01453q-.4929181-.19288-1.2430109-.40719t-1.5216168-.21431q-1.2430114 0-1.2430114.9644 0 .38576.364331.62151.364331.23574.9001116.45006.5357806.19287 1.1787172.42862.6429367.23574 1.1787173.6215.5357805.36433.9001113.96441.3643308.60007.3643308 1.54304 0 1.62878-1.0501299 2.57175-1.0286987.92155-3.1075273.92155-1.135855 0-2.143122-.30004-.985837-.27861-1.607342-.66437l.771524-2.07883q.492918.27861 1.307305.55721.814386.25717 1.671635.25717.6215055 0 .9858363-.23574.385762-.23574.385762-.79295zM-3.8187929 358.3928h1.4787544v-2.01454l2.7860587-.79296v2.8075h2.6146095v2.35743H.4460202v4.1148q0 1.11442.21431223 1.60734.23574402.47148.85724897.47148.4286244 0 .7286614-.0857.3214687-.0857.7072304-.25717l.4929182 2.14312q-.5786429.27861-1.3501671.47148-.7715234.19289-1.56447856.19289-1.47875479 0-2.18598504-.75009-.6857992-.77153-.6857992-2.50746v-5.40067h-1.4787544zM14.424536 368.18686q-.642937.51435-1.757361.87868-1.092992.34291-2.336003.34291-2.5931778 0-3.7933265-1.50019-1.2001478-1.52161-1.2001478-4.15765 0-2.82893 1.3501671-4.24339 1.3501663-1.41446 3.7933262-1.41446.814386 0 1.585911.21431.771524.21431 1.371598.70723.600074.49292.964404 1.32874.364331.83582.364331 2.07883 0 .45006-.06429.96441-.04286.51434-.150019 1.07155H8.1237599q.06429 1.35017.6857987 2.03597.6429367.68579 2.0573974.68579.87868 0 1.564479-.25717.707231-.2786 1.071562-.55721zm-3.986208-7.86525q-1.0929917 0-1.6287727.66437-.5143492.64293-.6215057 1.73593h3.9862074q.08573-1.15729-.36433-1.7788-.428625-.6215-1.371599-.6215zM24.010995 369.10841v-5.8293q0-1.47875-.278606-2.10025-.278606-.62151-1.157286-.62151-.728662 0-1.178718.4072-.450055.38576-.685799 1.00726v7.1366h-2.786059V358.3928h2.164554l.321468 1.41446h.08573q.492918-.6858 1.243011-1.20015.771524-.51435 1.971673-.51435 1.028698 0 1.671635.42862.664367.4072 1.028698 1.39303.492918-.83581 1.264443-1.32873.771524-.49292 1.864516-.49292.900112 0 1.521616.21431.642937.21431 1.0287.7501.407192.51435.600074 1.39303.192881.87868.192881 2.22884v6.42937h-2.786059v-6.02217q0-1.26445-.278606-1.88595-.257175-.64294-1.178717-.64294-.750093 0-1.200149.4072-.428624.40719-.642936 1.11442v7.02944zM40.795657 366.1509q0-.42862-.364331-.6858-.364331-.25717-.900112-.47148-.53578-.21432-1.178717-.42863-.642936-.23574-1.178717-.62151-.53578-.40719-.900111-1.00726-.364331-.62151-.364331-1.58591 0-1.58592.942974-2.42173.942973-.83582 2.721765-.83582 1.22158 0 2.207416.25717.985837.25718 1.543048.57865l-.621505 2.01453q-.492918-.19288-1.243012-.40719-.750092-.21431-1.521616-.21431-1.243011 0-1.243011.9644 0 .38576.364331.62151.364331.23574.900111.45006.535781.19287 1.178717.42862.642937.23574 1.178717.6215.535781.36433.900112.96441.364331.60007.364331 1.54304 0 1.62878-1.050131 2.57175-1.028698.92155-3.107526.92155-1.135855 0-2.143123-.30004-.985836-.27861-1.607342-.66437l.771524-2.07883q.492919.27861 1.307305.55721.814387.25717 1.671636.25717.621504 0 .985836-.23574.385762-.23574.385762-.79295z" style="font-weight:700;font-size:26.4583px;line-height:1.25;font-family:'PT Sans';-inkscape-font-specification:'PT Sans Bold';text-align:center;letter-spacing:1.46844px;text-anchor:middle;fill:#fff;stroke-width:.238125" transform="translate(162.29404 -172.125819)"/><g style="display:inline;stroke-width:.95413"><path style="display:inline;fill:none;fill-opacity:1;stroke:#fff;stroke-width:2.27202;stroke-miterlimit:4;stroke-dasharray:none;stroke-opacity:1;stop-color:#000" d="M-132.42407 448.2864a13.08618 7.5675644 0 0 1-13.0861 7.56752 13.08618 7.5675644 0 0 1-13.0861-7.56752 13.08618 7.5675644 0 0 1 13.0861-7.56749 13.08618 7.5675644 0 0 1 13.0861 7.56749z" transform="matrix(.8487 0 0 .84919 305.44339 -304.50092)"/><path style="display:inline;fill:none;fill-opacity:1;stroke:#fff;stroke-width:2.77692;stroke-miterlimit:4;stroke-dasharray:none;stroke-opacity:1;stop-color:#000" d="M-130.24713 448.2864a22.072017 13.147164 0 0 1-22.0719 13.14707 22.072017 13.147164 0 0 1-22.0719-13.14707 22.072017 13.147164 0 0 1 22.0719-13.14704 22.072017 13.147164 0 0 1 22.0719 13.14704z" transform="matrix(.8487 0 0 .84919 305.44339 -304.50092)"/><path style="display:inline;fill:none;fill-opacity:1;stroke:#fff;stroke-width:3.2818;stroke-miterlimit:4;stroke-dasharray:none;stroke-opacity:1;stop-color:#000" d="M-127.49585 448.28639a37.060391 22.626378 0 0 1-37.0602 22.62622 37.060391 22.626378 0 0 1-37.0601-22.62622 37.060391 22.626378 0 0 1 37.0601-22.62616 37.060391 22.626378 0 0 1 37.0602 22.62616z" transform="matrix(.8487 0 0 .84919 305.44339 -304.50092)"/><path style="display:inline;fill:none;fill-opacity:1;stroke:#fff;stroke-width:3.78671;stroke-miterlimit:4;stroke-dasharray:none;stroke-opacity:1;stop-color:#000" d="M-124.06333 448.28638a61.7609 38.415188 0 0 1-61.7606 38.41491 61.7609 38.415188 0 0 1-61.7605-38.41491 61.7609 38.415188 0 0 1 61.7605-38.41483 61.7609 38.415188 0 0 1 61.7606 38.41483z" transform="matrix(.8487 0 0 .84919 305.44339 -304.50092)"/><path style="display:inline;fill:none;fill-opacity:1;stroke:#fff;stroke-width:4.2916;stroke-miterlimit:4;stroke-dasharray:none;stroke-opacity:1;stop-color:#000" d="M-120.1248 448.28634A102.17561 64.412905 0 0 1-222.3 512.69879a102.17561 64.412905 0 0 1-102.1749-64.41245A102.17561 64.412905 0 0 1-222.3 383.87404a102.17561 64.412905 0 0 1 102.1752 64.4123z" transform="matrix(.8487 0 0 .84919 305.44339 -304.50092)"/></g><g aria-label="Dr.-Ing. Jürgen Ehret" style="font-size:15.3458px;line-height:1.25;font-family:'PT Sans';-inkscape-font-specification:'PT Sans';text-align:center;letter-spacing:2.39448px;text-anchor:middle;display:inline;stroke-width:.264583"><path d="M-366.71438 642.08503q.32226-.046.72125-.0767.41434-.0307.84402-.046.42968-.0154.82868-.0154.41433-.0153.73659-.0153 1.42716 0 2.43999.39899 1.01282.39899 1.642 1.12024.62917.72126.92074 1.71873.29158.99748.29158 2.19445 0 1.08955-.27623 2.10238-.27622 1.01282-.92075 1.79546-.64452.78263-1.70338 1.25835-1.04352.47572-2.59344.47572-.24553 0-.65987-.0153-.39899-.0154-.84402-.046-.42968-.0154-.82867-.046-.39899-.0154-.59849-.046zm3.29935 1.71873q-.33761 0-.69056.0153-.33761.0153-.50641.046v7.19718q.0614.0154.19949.0307.15346 0 .32226.0153.16881 0 .32226.0153h.23019q.89006 0 1.4732-.30691.59848-.32226.93609-.84402.35296-.52176.49107-1.19697.13811-.69056.13811-1.41182 0-.62918-.12277-1.25835-.12276-.64453-.46037-1.15094-.32226-.50641-.89006-.82867-.56779-.32226-1.4425-.32226zM-350.20968 647.02637q-.47572-.1688-.85936-.1688-.5371 0-.9054.29157-.35296.27623-.47572.72125v4.9567h-1.99496v-7.6729h1.54993l.23019 1.01282h.0614q.26088-.56779.70591-.87471.44502-.30692 1.04351-.30692.39899 0 .9054.16881zM-347.81496 651.81426q0-.5371.33761-.84401.33761-.32227.89006-.32227.58314 0 .92075.32227.3376.30691.3376.84401 0 .53711-.3376.85937-.33761.32226-.92075.32226-.55245 0-.89006-.32226-.33761-.32226-.33761-.85937zM-343.25816 647.53279h3.8518v1.76476h-3.8518zM-335.04186 642.08503h2.10237v10.74206h-2.10237zM-323.8365 652.82709v-4.35821q0-.93609-.27622-1.35043-.26088-.41434-.9054-.41434-.5678 0-.96679.33761-.38365.32226-.55245.81333v4.97204h-1.99495v-7.6729h1.58061l.23019 1.01282h.0614q.35296-.49107.9361-.85936.58314-.3683 1.50389-.3683.56779 0 1.01282.15345.44503.15346.75194.50642.30692.35295.46038.96678.15346.59849.15346 1.48854v4.77255zM-311.2843 652.82709q0 1.67269-.9054 2.45533-.9054.79798-2.53205.79798-1.1049 0-1.74943-.15346-.62917-.15346-.95144-.32226l.41434-1.58062q.35295.13811.81333.27622.47572.13812 1.16628.13812 1.04351 0 1.41181-.46038.38365-.44503.38365-1.25835v-.49107h-.0614q-.53711.72125-1.90288.72125-1.48855 0-2.22515-.92074-.72125-.92075-.72125-2.88501 0-2.05634.98213-3.1152.98213-1.05886 2.85432-1.05886.98213 0 1.74942.13811.78264.13811 1.2737.32226zm-3.37607-1.4732q.58314 0 .89006-.26088.32226-.26088.49106-.78263v-3.45281q-.47572-.19949-1.18163-.19949-.76729 0-1.19697.58314-.42968.56779-.42968 1.82615 0 1.12024.3683 1.70338t1.05886.58314zM-307.39888 651.81426q0-.5371.33761-.84401.33761-.32227.89006-.32227.58314 0 .92075.32227.3376.30691.3376.84401 0 .53711-.3376.85937-.33761.32226-.92075.32226-.55245 0-.89006-.32226-.33761-.32226-.33761-.85937zM-294.62027 642.08503h2.10238v7.85705q0 .61383-.13811 1.16628t-.46038.98213q-.30691.41434-.79798.67521-.49106.24554-1.19697.24554-.44503 0-.96679-.0921-.52175-.0921-.9054-.26088l.46038-1.71873q.39899.1995.9054.1995.64452 0 .81333-.47572.18414-.47572.18414-1.25836zM-286.31789 645.15419v4.3582q0 .9361.21484 1.35043.23019.41434.87471.41434.56779 0 .93609-.33761.38365-.3376.5678-.82867v-4.95669h1.99495v5.34034q0 .62917.0614 1.24301.0614.59848.18415 1.08955h-1.50389l-.35296-1.13559h-.0614q-.35295.58314-.98213.96678-.62918.38365-1.48854.38365-.58314 0-1.04352-.15346-.46037-.15346-.76729-.50641-.30691-.35295-.47572-.95144-.15346-.59849-.15346-1.50389v-4.77254zm-1.44251-2.31722q0-.49106.29157-.78263.30692-.29157.79798-.29157.49107 0 .76729.29157.29157.29157.29157.78263 0 .46038-.29157.75195-.27622.29157-.76729.29157-.49106 0-.79798-.29157-.29157-.29157-.29157-.75195zm3.36073 0q0-.49106.27623-.78263.29157-.29157.78263-.29157.49107 0 .78264.29157.30692.29157.30692.78263 0 .46038-.30692.75195-.29157.29157-.78264.29157-.49106 0-.78263-.29157-.27623-.29157-.27623-.75195zM-273.36383 647.02637q-.47572-.1688-.85936-.1688-.53711 0-.9054.29157-.35296.27623-.47572.72125v4.9567h-1.99496v-7.6729h1.54993l.23018 1.01282h.0614q.26088-.56779.7059-.87471.44503-.30692 1.04352-.30692.39899 0 .9054.16881zM-263.31851 652.82709q0 1.67269-.9054 2.45533-.9054.79798-2.53205.79798-1.1049 0-1.74943-.15346-.62917-.15346-.95144-.32226l.41434-1.58062q.35295.13811.81333.27622.47572.13812 1.16628.13812 1.04351 0 1.41181-.46038.38365-.44503.38365-1.25835v-.49107h-.0614q-.5371.72125-1.90287.72125-1.48855 0-2.22515-.92074-.72125-.92075-.72125-2.88501 0-2.05634.98213-3.1152.98213-1.05886 2.85432-1.05886.98213 0 1.74942.13811.78264.13811 1.2737.32226zm-3.37607-1.4732q.58314 0 .89006-.26088.32226-.26088.49106-.78263v-3.45281q-.47572-.19949-1.18163-.19949-.76729 0-1.19697.58314-.42968.56779-.42968 1.82615 0 1.12024.3683 1.70338t1.05886.58314zM-253.06458 652.16722q-.46037.3683-1.25835.62918-.78264.24553-1.6727.24553-1.85684 0-2.7162-1.07421-.85937-1.08955-.85937-2.97708 0-2.02565.96679-3.03847.96678-1.01282 2.7162-1.01282.58314 0 1.13559.15345.55245.15346.98213.50642.42969.35295.69057.95144.26087.59848.26087 1.48854 0 .32226-.046.69056-.0307.3683-.10742.76729h-4.60374q.046.96678.49106 1.45785.46038.49107 1.4732.49107.62918 0 1.12024-.18415.50641-.1995.76729-.399zm-2.85432-5.63191q-.78263 0-1.16628.47572-.3683.46037-.44503 1.24301h2.85432q.0614-.82867-.26088-1.2737-.30691-.44503-.98213-.44503zM-244.31981 652.82709v-4.35821q0-.93609-.27623-1.35043-.26088-.41434-.9054-.41434-.56779 0-.96678.33761-.38365.32226-.55245.81333v4.97204h-1.99496v-7.6729h1.58062l.23019 1.01282h.0614q.35295-.49107.93609-.85936.58314-.3683 1.50389-.3683.5678 0 1.01283.15345.44502.15346.75194.50642.30692.35295.46037.96678.15346.59849.15346 1.48854v4.77255zM-231.92198 642.08503h6.36851v1.87218h-4.26613v2.50137h3.88249v1.87219h-3.88249v2.62413h4.34286v1.87219h-6.44524zM-216.87512 652.82709v-4.35821q0-.93609-.26088-1.35043-.26088-.41434-.95144-.41434-.50641 0-.93609.35296-.41434.3376-.55245.87471v4.89531h-1.99495v-10.74206h1.99495v3.92852h.0614q.3683-.49106.90541-.78263.5371-.29157 1.36577-.29157.58314 0 1.02817.15345.44503.15346.7366.50642.30692.35295.44503.96678.15346.59849.15346 1.48854v4.77255zM-206.57875 647.02637q-.47572-.1688-.85936-.1688-.53711 0-.9054.29157-.35296.27623-.47572.72125v4.9567h-1.99496v-7.6729h1.54993l.23018 1.01282h.0614q.26088-.56779.7059-.87471.44503-.30692 1.04352-.30692.39899 0 .9054.16881zM-196.88638 652.16722q-.46037.3683-1.25835.62918-.78264.24553-1.6727.24553-1.85684 0-2.7162-1.07421-.85937-1.08955-.85937-2.97708 0-2.02565.96679-3.03847.96678-1.01282 2.7162-1.01282.58314 0 1.13559.15345.55245.15346.98213.50642.42969.35295.69057.95144.26087.59848.26087 1.48854 0 .32226-.046.69056-.0307.3683-.10742.76729h-4.60374q.046.96678.49106 1.45785.46038.49107 1.4732.49107.62918 0 1.12024-.18415.50641-.1995.76729-.399zm-2.85432-5.63191q-.78263 0-1.16628.47572-.3683.46037-.44503 1.24301h2.85432q.0614-.82867-.26088-1.2737-.30691-.44503-.98213-.44503zM-193.63541 645.15419h1.05886v-1.44251l1.99495-.56779v2.0103h1.87219v1.68804h-1.87219v2.94639q0 .79798.15346 1.15093.16881.33761.61383.33761.30692 0 .52176-.0614.23019-.0614.50641-.18415l.35296 1.53458q-.41434.19949-.96679.33761-.55245.13811-1.12024.13811-1.05886 0-1.56527-.5371-.49107-.55245-.49107-1.79546v-3.86714h-1.05886z" style="font-weight:700;-inkscape-font-specification:'PT Sans Bold';fill:#fff" transform="translate(394.35205 -427.35236)"/></g></g></svg>