<svg width="970.14771" height="1029.4707" viewBox="0 0 256.68482 272.38073" xmlns="http://www.w3.org/2000/svg"><defs><path id="c" d="M1600.6648 5530.2114h158.57976v94.550331H1600.6648z"/><path id="b" d="M157-13h55v40h-55z"/><filter style="color-interpolation-filters:sRGB" id="a" x="-.05642297" y="-.03515585" width="1.1128459" height="1.0703117"><feGaussianBlur stdDeviation="1.1384116"/></filter></defs><text xml:space="preserve" transform="matrix(.26458 0 0 .26458 68.841889 -2150.4427)" style="font-size:36px;line-height:1.25;font-family:Lato;-inkscape-font-specification:Lato;text-align:center;letter-spacing:0;white-space:pre;shape-inside:url(#b)"><tspan x="157" y="60.48"><tspan dx="0 20.882812 20.039062 14.484375 18.84375">Ehret</tspan></tspan></text><g style="display:inline"><path style="display:inline;vector-effect:none;fill:#000;fill-opacity:.35;stroke-width:.828178;stroke-opacity:.968165;stop-color:#000" d="M201.44289 158.11936H458.1278v272.38079H201.44289Z" transform="translate(-201.44289 -158.11936)"/></g><g style="display:inline"><g style="display:inline;stroke-width:.95413"><path style="display:inline;fill:none;fill-opacity:1;stroke:#fff;stroke-width:2.27202;stroke-miterlimit:4;stroke-dasharray:none;stroke-opacity:1;stop-color:#000" d="M-132.42407 448.2864a13.08618 7.5675644 0 0 1-13.0861 7.56752 13.08618 7.5675644 0 0 1-13.0861-7.56752 13.08618 7.5675644 0 0 1 13.0861-7.56749 13.08618 7.5675644 0 0 1 13.0861 7.56749z" transform="matrix(1.04777 0 0 1.04838 361.262373 -385.944875)"/><path style="display:inline;fill:none;fill-opacity:1;stroke:#fff;stroke-width:2.77692;stroke-miterlimit:4;stroke-dasharray:none;stroke-opacity:1;stop-color:#000" d="M-130.24713 448.2864a22.072017 13.147164 0 0 1-22.0719 13.14707 22.072017 13.147164 0 0 1-22.0719-13.14707 22.072017 13.147164 0 0 1 22.0719-13.14704 22.072017 13.147164 0 0 1 22.0719 13.14704z" transform="matrix(1.04777 0 0 1.04838 361.262373 -385.944875)"/><path style="display:inline;fill:none;fill-opacity:1;stroke:#fff;stroke-width:3.2818;stroke-miterlimit:4;stroke-dasharray:none;stroke-opacity:1;stop-color:#000" d="M-127.49585 448.28639a37.060391 22.626378 0 0 1-37.0602 22.62622 37.060391 22.626378 0 0 1-37.0601-22.62622 37.060391 22.626378 0 0 1 37.0601-22.62616 37.060391 22.626378 0 0 1 37.0602 22.62616z" transform="matrix(1.04777 0 0 1.04838 361.262373 -385.944875)"/><path style="display:inline;fill:none;fill-opacity:1;stroke:#fff;stroke-width:3.78671;stroke-miterlimit:4;stroke-dasharray:none;stroke-opacity:1;stop-color:#000" d="M-124.06333 448.28638a61.7609 38.415188 0 0 1-61.7606 38.41491 61.7609 38.415188 0 0 1-61.7605-38.41491 61.7609 38.415188 0 0 1 61.7605-38.41483 61.7609 38.415188 0 0 1 61.7606 38.41483z" transform="matrix(1.04777 0 0 1.04838 361.262373 -385.944875)"/><path style="display:inline;fill:none;fill-opacity:1;stroke:#fff;stroke-width:4.2916;stroke-miterlimit:4;stroke-dasharray:none;stroke-opacity:1;stop-color:#000" d="M-120.1248 448.28634A102.17561 64.412905 0 0 1-222.3 512.69879a102.17561 64.412905 0 0 1-102.1749-64.41245A102.17561 64.412905 0 0 1-222.3 383.87404a102.17561 64.412905 0 0 1 102.1752 64.4123z" transform="matrix(1.04777 0 0 1.04838 361.262373 -385.944875)"/></g><g aria-label="Jürgen Ehret" style="font-size:22.7542px;line-height:1.25;font-family:'PT Sans';-inkscape-font-specification:'PT Sans';text-align:center;letter-spacing:8.33437px;text-anchor:middle;display:inline;stroke-width:.264583"><path d="M-325.58449 602.43253h3.11733v11.65015q0 .91017-.20479 1.72932-.20479.81915-.68263 1.45627-.45508.61437-1.18322 1.00119-.72813.36406-1.77482.36406-.65987 0-1.43352-.13652-.77364-.13653-1.3425-.38682l.68263-2.54847q.59161.2958 1.3425.2958.95567 0 1.20597-.70538.27305-.70538.27305-1.86584zM-308.49011 606.98337v6.4622q0 1.388.31856 2.00237.34131.61436 1.29699.61436.84191 0 1.38801-.50059.56885-.5006.8419-1.22873v-7.34961h2.95805v7.91847q0 .93292.091 1.84309.091.88741.27305 1.61554h-2.22992l-.52334-1.68381h-.091q-.52335.86466-1.45627 1.43352-.93292.56885-2.20716.56885-.86466 0-1.54728-.22754-.68263-.22754-1.13771-.75089-.45509-.52334-.70538-1.41076-.22754-.88741-.22754-2.22991v-7.07656zm-2.13889-3.43588q0-.72813.43233-1.16046.45508-.43233 1.18322-.43233.72813 0 1.13771.43233.43233.43233.43233 1.16046 0 .68263-.43233 1.11496-.40958.43233-1.13771.43233-.72814 0-1.18322-.43233-.43233-.43233-.43233-1.11496zm4.98317 0q0-.72813.40957-1.16046.43233-.43233 1.16047-.43233.72813 0 1.16046.43233.45509.43233.45509 1.16046 0 .68263-.45509 1.11496-.43233.43233-1.16046.43233-.72814 0-1.16047-.43233-.40957-.43233-.40957-1.11496zM-284.49836 609.75939q-.70538-.2503-1.27424-.2503-.79639 0-1.34249.43233-.52335.40958-.70538 1.06945v7.3496h-2.95805v-11.3771h2.29818l.34131 1.50178h.091q.38683-.8419 1.0467-1.29699.65987-.45508 1.54728-.45508.59161 0 1.3425.25029zM-264.8196 618.36047q0 2.48021-1.3425 3.64068-1.3425 1.18321-3.75444 1.18321-1.6383 0-2.59398-.22754-.93292-.22754-1.41076-.47784l.61436-2.34368q.52335.20479 1.20598.40958.70538.20478 1.72932.20478 1.54728 0 2.09338-.68262.56886-.65987.56886-1.86585v-.72813h-.091q-.7964 1.06945-2.82152 1.06945-2.20716 0-3.29936-1.36525-1.06945-1.36526-1.06945-4.27779 0-3.04907 1.45627-4.61911t4.23228-1.57004q1.45627 0 2.59398.20479 1.16047.20479 1.8886.47784zm-5.00592-2.1844q.86466 0 1.31974-.38682.47784-.38682.72813-1.16047v-5.11969q-.70538-.2958-1.75207-.2958-1.13771 0-1.77483.86465-.63711.84191-.63711 2.70775 0 1.66106.5461 2.52572.5461.86466 1.57004.86466zM-244.83152 617.38204q-.68263.5461-1.86585.93293-1.16046.36406-2.4802.36406-2.75326 0-4.0275-1.59279-1.27423-1.61555-1.27423-4.41432 0-3.00355 1.43351-4.50533 1.43352-1.50178 4.0275-1.50178.86466 0 1.68381.22755.81915.22754 1.45627.75089.63711.52334 1.02393 1.41076.38683.88741.38683 2.20715 0 .47784-.0683 1.02394-.0455.5461-.15928 1.13771h-6.82626q.0683 1.43352.72814 2.16165.68262.72814 2.1844.72814.93292 0 1.66106-.27305.75089-.29581 1.13771-.59161zm-4.23228-8.35079q-1.16047 0-1.72932.70538-.5461.68263-.65987 1.84309h4.23228q.091-1.22872-.38682-1.8886-.45509-.65987-1.45627-.65987zM-227.08118 618.36047v-6.46219q0-1.38801-.40958-2.00237-.38682-.61436-1.34249-.61436-.84191 0-1.43352.50059-.56885.47784-.81915 1.20597v7.37236h-2.95804v-11.3771h2.34368l.34131 1.50178h.091q.52334-.72813 1.388-1.27423.86466-.54611 2.22992-.54611.8419 0 1.50177.22755.65987.22754 1.11496.75089.45508.52334.68262 1.43351.22755.88741.22755 2.20716v7.07655zM-199.13027 602.43253h9.44299v2.77602h-6.32567v3.70893h5.75681v2.77601h-5.75681v3.89097h6.43944v2.77601h-9.55676zM-172.03542 618.36047v-6.46219q0-1.38801-.38682-2.00237t-1.41076-.61436q-.75089 0-1.38801.52334-.61436.5006-.81915 1.29699v7.25859h-2.95804v-15.92794h2.95804v5.82508h.091q.5461-.72814 1.3425-1.16047.79639-.43233 2.02512-.43233.86466 0 1.52453.22755.65987.22754 1.0922.75089.45509.52334.65988 1.43351.22754.88741.22754 2.20716v7.07655zM-151.98442 609.75939q-.70538-.2503-1.27423-.2503-.7964 0-1.3425.43233-.52335.40958-.70538 1.06945v7.3496h-2.95805v-11.3771h2.29818l.34131 1.50178h.091q.38682-.8419 1.04669-1.29699.65987-.45508 1.54729-.45508.59161 0 1.34249.25029zM-132.829 617.38204q-.68263.5461-1.86585.93293-1.16046.36406-2.48021.36406-2.75325 0-4.02749-1.59279-1.27423-1.61555-1.27423-4.41432 0-3.00355 1.43351-4.50533 1.43351-1.50178 4.02749-1.50178.86466 0 1.68381.22755.81916.22754 1.45627.75089.63712.52334 1.02394 1.41076.38682.88741.38682 2.20715 0 .47784-.0683 1.02394-.0455.5461-.15928 1.13771h-6.82626q.0683 1.43352.72814 2.16165.68262.72814 2.1844.72814.93292 0 1.66106-.27305.75088-.29581 1.13771-.59161zm-4.23228-8.35079q-1.16047 0-1.72932.70538-.5461.68263-.65988 1.84309h4.23229q.091-1.22872-.38683-1.8886-.45508-.65987-1.45626-.65987zM-123.22467 606.98337h1.57004v-2.13889l2.95805-.84191v2.9808h2.77601v2.50297h-2.77601v4.3688q0 1.18322.22754 1.70657.2503.50059.91017.50059.45508 0 .77364-.091.34132-.091.75089-.27305l.52335 2.27542q-.61437.29581-1.43352.50059-.81915.20479-1.66105.20479-1.57004 0-2.32093-.79639-.72814-.81916-.72814-2.66225v-5.73405h-1.57004z" style="font-weight:700;-inkscape-font-specification:'PT Sans Bold';fill:#fff" transform="translate(350.64228 -365.66644)"/></g><g aria-label="Ingenieurbüro für" style="font-weight:700;font-size:22.4896px;line-height:1.25;font-family:'PT Sans';-inkscape-font-specification:'PT Sans Bold';text-align:center;letter-spacing:2.91042px;text-anchor:middle;display:inline;stroke-width:.264583"><path d="M-329.15733 538.30403h3.08108v15.74272h-3.08108zM-313.33436 554.04675v-6.38704q0-1.37187-.40482-1.97909-.38232-.60722-1.32688-.60722-.83212 0-1.41685.49477-.56224.47229-.80962 1.19195v7.28663h-2.92365v-11.2448h2.31643l.33734 1.48432h.09q.51726-.71967 1.37187-1.25942.8546-.53975 2.20398-.53975.83211 0 1.48431.22489.6522.2249 1.10199.74216t.67469 1.41685q.2249.87709.2249 2.18149v6.99426zM-295.53758 554.04675q0 2.45137-1.32689 3.59834-1.32689 1.16946-3.71078 1.16946-1.61926 0-2.56382-.2249-.92207-.22489-1.39435-.47228l.60722-2.31643q.51726.20241 1.19194.40481.69718.20241 1.70921.20241 1.5293 0 2.06905-.67469.56224-.6522.56224-1.84414v-.71967h-.09q-.78714 1.05701-2.78871 1.05701-2.18149 0-3.26099-1.34938-1.05702-1.34937-1.05702-4.22804 0-3.01361 1.43934-4.56539 1.43933-1.55178 4.18306-1.55178 1.43934 0 2.56382.2024 1.14697.20241 1.86664.47229zm-4.94772-2.159q.85461 0 1.3044-.38232.47228-.38232.71967-1.14697v-5.06016q-.69718-.29237-1.7317-.29237-1.12448 0-1.75419.85461-.62971.83211-.62971 2.67626 0 1.64174.53975 2.49635.53975.8546 1.55178.8546zM-281.10898 553.0797q-.67468.53975-1.84414.92207-1.14697.35984-2.45137.35984-2.72124 0-3.98066-1.57427-1.25942-1.59677-1.25942-4.36299 0-2.96862 1.41685-4.45294 1.41684-1.48431 3.98066-1.48431.8546 0 1.66423.22489.80962.2249 1.43933.74216t1.01203 1.39436q.38233.87709.38233 2.18149 0 .47228-.0675 1.01203-.045.53975-.15743 1.12448h-6.74688q.0675 1.41684.71967 2.13651.67469.71967 2.159.71967.92207 0 1.64174-.26988.74216-.29236 1.12448-.58473zm-4.18306-8.25368q-1.14697 0-1.70921.69717-.53975.67469-.6522 1.82166h4.18307q.0899-1.21444-.38233-1.86663-.44979-.6522-1.43933-.6522zM-268.89208 554.04675v-6.38704q0-1.37187-.40481-1.97909-.38232-.60722-1.32689-.60722-.83211 0-1.41684.49477-.56224.47229-.80963 1.19195v7.28663h-2.92364v-11.2448h2.31642l.33735 1.48432h.09q.51726-.71967 1.37186-1.25942.85461-.53975 2.20398-.53975.83212 0 1.48432.22489.6522.2249 1.10199.74216t.67469 1.41685q.22489.87709.22489 2.18149v6.99426zM-260.33852 542.80195h2.92365v11.2448h-2.92365zm-.4273-3.17103q0-.6522.47228-1.10199.49477-.47228 1.34937-.47228.85461 0 1.37187.47228.53975.44979.53975 1.10199t-.53975 1.10199q-.51726.4273-1.37187.4273-.8546 0-1.34937-.4273-.47228-.44979-.47228-1.10199zM-242.64049 553.0797q-.67469.53975-1.84415.92207-1.14697.35984-2.45136.35984-2.72124 0-3.98066-1.57427-1.25942-1.59677-1.25942-4.36299 0-2.96862 1.41685-4.45294 1.41684-1.48431 3.98065-1.48431.85461 0 1.66424.22489.80962.2249 1.43933.74216t1.01203 1.39436q.38232.87709.38232 2.18149 0 .47228-.0675 1.01203-.045.53975-.15743 1.12448h-6.74688q.0675 1.41684.71967 2.13651.67468.71967 2.159.71967.92207 0 1.64174-.26988.74216-.29236 1.12448-.58473zm-4.18306-8.25368q-1.14697 0-1.70921.69717-.53975.67469-.6522 1.82166h4.18306q.09-1.21444-.38232-1.86663-.44979-.6522-1.43933-.6522zM-234.49421 542.80195v6.38705q0 1.37187.31485 1.97908.33735.60722 1.28191.60722.83212 0 1.37187-.49477.56224-.49477.83211-1.21444v-7.26414h2.92365v7.82638q0 .92208.09 1.82166.09.8771.26987 1.59676h-2.20398l-.51726-1.66423h-.09q-.51726.85461-1.43933 1.41685-.92208.56224-2.18149.56224-.85461 0-1.5293-.2249-.67468-.22489-1.12448-.74216-.44979-.51726-.69717-1.39435-.2249-.87709-.2249-2.20398v-6.99427zM-216.10849 545.54568q-.69718-.24738-1.25942-.24738-.78713 0-1.32688.4273-.51726.40481-.69718 1.05701v7.26414h-2.92365v-11.2448h2.27145l.33734 1.48432h.09q.38233-.83212 1.03452-1.28191.6522-.44979 1.5293-.44979.58473 0 1.32688.24738zM-211.49869 538.30403h2.92364v5.39751h.09q.47228-.53975 1.21444-.85461.74216-.31485 1.64174-.31485 2.02407 0 3.08108 1.39435 1.0795 1.37187 1.0795 4.20556 0 3.03609-1.50681 4.61037-1.48431 1.57427-4.0931 1.57427-1.43934 0-2.63129-.24739-1.19195-.22489-1.79916-.51726zm5.01518 6.7019q-.80963 0-1.32689.42731-.49477.40481-.76465 1.19195v4.90273q.35984.17991.76465.24738.4273.0675.89958.0675 1.19195 0 1.79917-.8546.62971-.8771.62971-2.76622 0-3.21602-2.00157-3.21602zM-193.74163 542.80195v6.38705q0 1.37187.31485 1.97908.33735.60722 1.28191.60722.83211 0 1.37186-.49477.56224-.49477.83212-1.21444v-7.26414h2.92365v7.82638q0 .92208.09 1.82166.0899.8771.26987 1.59676h-2.20398l-.51726-1.66423h-.09q-.51726.85461-1.43933 1.41685-.92208.56224-2.18149.56224-.85461 0-1.5293-.2249-.67468-.22489-1.12448-.74216-.44979-.51726-.69717-1.39435-.2249-.87709-.2249-2.20398v-6.99427zm-2.11402-3.39593q0-.71966.4273-1.14697.44979-.4273 1.16946-.4273.71966 0 1.12448.4273.4273.42731.4273 1.14697 0 .67469-.4273 1.10199-.40482.42731-1.12448.42731-.71967 0-1.16946-.42731-.4273-.4273-.4273-1.10199zm4.92522 0q0-.71966.40481-1.14697.4273-.4273 1.14697-.4273t1.14697.4273q.44979.42731.44979 1.14697 0 .67469-.44979 1.10199-.4273.42731-1.14697.42731t-1.14697-.42731q-.40481-.4273-.40481-1.10199zM-175.3559 545.54568q-.69717-.24738-1.25941-.24738-.78714 0-1.32689.4273-.51726.40481-.69718 1.05701v7.26414h-2.92365v-11.2448h2.27145l.33735 1.48432h.09q.38232-.83212 1.03452-1.28191.6522-.44979 1.52929-.44979.58473 0 1.32689.24738zM-171.28587 548.42435q0-2.85618 1.39436-4.38547 1.39435-1.55178 3.91319-1.55178 1.34938 0 2.33892.4273.98954.4273 1.64174 1.21444.6522.76465.96705 1.86664.33735 1.10199.33735 2.42887 0 2.85618-1.39436 4.40796-1.37187 1.5293-3.8907 1.5293-1.34938 0-2.33892-.42731-.98954-.4273-1.66423-1.19194-.6522-.78714-.98954-1.88913-.31486-1.10199-.31486-2.42888zm3.01361 0q0 .74216.13494 1.37187.13494.62971.40481 1.10199.26988.47228.69718.74216.44979.24738 1.05701.24738 1.14697 0 1.70921-.83211.56224-.83212.56224-2.63129 0-1.55178-.51726-2.49634-.51726-.96706-1.75419-.96706-1.0795 0-1.68672.80963-.60722.80963-.60722 2.65377zM-148.17016 542.80195h1.55178v-.62971q0-2.13651.89958-3.08107.89959-.96705 2.6088-.96705 1.79916 0 2.99111.4273l-.56224 2.33892q-.51726-.17992-.92207-.2249-.38232-.0675-.80963-.0675-.44979 0-.71966.13494-.24739.13494-.38233.4273-.11244.26988-.15742.69718-.0225.40481-.0225.94456h2.47385v2.47386h-2.47385v8.77094h-2.92365v-8.77094h-1.55178zM-134.21034 542.80195v6.38705q0 1.37187.31486 1.97908.33734.60722 1.2819.60722.83212 0 1.37187-.49477.56224-.49477.83212-1.21444v-7.26414h2.92364v7.82638q0 .92208.09 1.82166.09.8771.26988 1.59676h-2.20398l-.51726-1.66423h-.09q-.51726.85461-1.43934 1.41685-.92207.56224-2.18149.56224-.8546 0-1.52929-.2249-.67469-.22489-1.12448-.74216-.44979-.51726-.69718-1.39435-.22489-.87709-.22489-2.20398v-6.99427zm-2.11402-3.39593q0-.71966.4273-1.14697.4498-.4273 1.16946-.4273.71967 0 1.12448.4273.4273.42731.4273 1.14697 0 .67469-.4273 1.10199-.40481.42731-1.12448.42731-.71966 0-1.16946-.42731-.4273-.4273-.4273-1.10199zm4.92522 0q0-.71966.40482-1.14697.4273-.4273 1.14697-.4273.71966 0 1.14697.4273.44979.42731.44979 1.14697 0 .67469-.44979 1.10199-.42731.42731-1.14697.42731-.71967 0-1.14697-.42731-.40482-.4273-.40482-1.10199zM-115.8246 545.54568q-.69718-.24738-1.25942-.24738-.78713 0-1.32688.4273-.51726.40481-.69718 1.05701v7.26414h-2.92365v-11.2448h2.27145l.33734 1.48432h.09q.38233-.83212 1.03452-1.28191.6522-.44979 1.5293-.44979.58473 0 1.32688.24738z" style="fill:#fff" transform="translate(350.64228 -365.66644)"/></g><g aria-label="Softwaresysteme" style="font-size:26.4583px;line-height:1.25;font-family:'PT Sans';-inkscape-font-specification:'PT Sans';text-align:center;letter-spacing:1.65365px;text-anchor:middle;display:inline;stroke-width:.264583"><path d="M-320.26047 582.14406q0-.84666-.635-1.37583-.60854-.52916-1.56104-.9525-.92604-.44979-2.03729-.89958-1.08479-.47625-2.03729-1.1377-.92604-.68792-1.56103-1.69334-.60855-1.00541-.60855-2.56645 0-1.34937.4498-2.32833.44979-1.00542 1.26999-1.66687.84667-.66146 1.98438-.97896 1.1377-.3175 2.53999-.3175 1.61396 0 3.04271.29104 1.42875.26458 2.35479.79375l-1.13771 3.0427q-.58208-.37041-1.74625-.66145-1.16416-.3175-2.51354-.3175-1.27 0-1.95791.5027-.66146.50271-.66146 1.34938 0 .79375.60854 1.32291.635.52917 1.56104.97896.9525.44979 2.03729.92604 1.11125.47625 2.03729 1.16417.9525.66145 1.56104 1.66687.635.97896.635 2.46062 0 1.48167-.50271 2.56646-.47625 1.05833-1.37583 1.7727-.87312.71438-2.14312 1.05833-1.24354.34396-2.75167.34396-1.98437 0-3.49249-.37041-1.50812-.37042-2.2225-.74084l1.16417-3.09562q.29104.15875.74083.34396.47625.18521 1.05833.34396.58208.15875 1.21708.26458.66146.10583 1.34938.10583 1.61395 0 2.46062-.52916.87312-.55563.87312-1.66688zM-313.3073 580.50365q0-3.3602 1.64041-5.15937 1.64042-1.82562 4.60375-1.82562 1.58749 0 2.75166.50271 1.16416.5027 1.93145 1.42874.7673.89959 1.13771 2.19604.39688 1.29646.39688 2.8575 0 3.3602-1.64042 5.18583-1.61395 1.79916-4.57728 1.79916-1.5875 0-2.75167-.50271-1.16416-.5027-1.95791-1.40229-.76729-.92604-1.16417-2.22249-.37041-1.29646-.37041-2.8575zm3.54541 0q0 .87312.15875 1.61396.15875.74083.47625 1.29645.3175.55563.82021.87313.52916.29104 1.24354.29104 1.34937 0 2.01083-.97896.66145-.97896.66145-3.09562 0-1.82562-.60854-2.93687-.60854-1.13771-2.06374-1.13771-1.27 0-1.98438.9525-.71437.9525-.71437 3.12208zM-298.33479 573.88908h1.82562v-.74084q0-2.51354 1.05833-3.62478 1.05833-1.13771 3.06916-1.13771 2.11667 0 3.51896.50271l-.66146 2.75166q-.60854-.21167-1.08479-.26458-.44979-.0794-.9525-.0794-.52916 0-.84666.15875-.29105.15875-.4498.50271-.13229.3175-.1852.82021-.0265.47625-.0265 1.11125h2.91041v2.91041h-2.91041v10.31874h-3.43958v-10.31874h-1.82562zM-288.57167 573.88908h1.82562V571.402l3.43958-.97896v3.46604h3.22791v2.91041h-3.22791v5.07999q0 1.37583.26458 1.98437.29104.58209 1.05833.58209.52917 0 .89958-.10584.39688-.10583.87313-.3175l.60854 2.64583q-.71437.34396-1.66687.58209-.9525.23812-1.93146.23812-1.82562 0-2.69875-.92604-.84666-.9525-.84666-3.09562v-6.66749h-1.82562zM-267.1793 573.88908l2.4077 6.77332.47625 2.19604h.10583l.37042-2.2225 1.69333-6.74686h3.14854l-4.07458 13.36144h-2.54l-2.67229-7.40833-.34395-1.66687h-.13229l-.3175 1.69333-2.54 7.38187h-2.61937l-4.25979-13.36144h3.73062l1.93146 6.64103.3175 2.35479h.13229l.44979-2.38125 2.19604-6.61457zM-256.11436 574.65637q1.05833-.47625 2.51354-.74084 1.45521-.29104 3.0427-.29104 1.37584 0 2.30188.34396.92604.3175 1.4552.92604.55563.60854.76729 1.45521.23813.84666.23813 1.90499 0 1.16417-.0794 2.35479-.0794 1.16417-.10583 2.30188 0 1.1377.0794 2.22249.0794 1.05833.39688 2.01083h-2.80458l-.55563-1.82562h-.13229q-.52916.82021-1.48166 1.42875-.92604.58208-2.40771.58208-.92604 0-1.66687-.26458-.74083-.29104-1.27-.79375-.52916-.52917-.82021-1.21708-.29104-.71438-.29104-1.5875 0-1.21708.52917-2.03729.55562-.84666 1.56104-1.34937 1.03187-.52917 2.43416-.71438 1.42875-.21166 3.175-.13229.18521-1.48166-.21167-2.11666-.39687-.66146-1.7727-.66146-1.03188 0-2.19604.21167-1.13771.21166-1.87854.55562zm4.36562 9.84248q1.03187 0 1.64041-.44979.60855-.47625.89959-1.00541v-1.71979q-.82021-.0794-1.5875-.0265-.74083.0529-1.32292.23812-.58208.18521-.92604.52917-.34395.34396-.34395.87312 0 .74084.42333 1.16417.44979.39687 1.21708.39687zM-233.95304 577.11699q-.82021-.29104-1.48167-.29104-.92604 0-1.56104.5027-.60854.47625-.82021 1.24354v8.54604h-3.43957v-13.22915h2.67228l.39688 1.74624h.10583q.44979-.97895 1.21708-1.50812.76729-.52917 1.79917-.52917.68791 0 1.56104.29105zM-219.71682 585.98052q-.79375.635-2.16958 1.08479-1.34937.42333-2.88395.42333-3.20146 0-4.68312-1.85208-1.48167-1.87854-1.48167-5.13291 0-3.4925 1.66688-5.23874 1.66687-1.74625 4.68312-1.74625 1.00541 0 1.95791.26458.9525.26459 1.69333.87313t1.19063 1.64041q.44979 1.03187.44979 2.56646 0 .55562-.0794 1.19062-.0529.635-.18521 1.32291h-7.93749q.0794 1.66688.84667 2.51354.79375.84667 2.54.84667 1.08479 0 1.93145-.3175.87313-.34396 1.32292-.68792zm-4.92124-9.7102q-1.34937 0-2.01083.82021-.635.79375-.76729 2.14312h4.92124q.10584-1.42875-.44979-2.19604-.52916-.76729-1.69333-.76729zM-209.73377 583.46698q0-.52917-.44979-.84667t-1.11125-.58208q-.66145-.26458-1.4552-.52916-.79375-.29105-1.45521-.7673-.66146-.5027-1.11125-1.24354-.44979-.76729-.44979-1.95791 0-1.95791 1.16417-2.98979 1.16416-1.03187 3.3602-1.03187 1.50812 0 2.7252.3175 1.21709.3175 1.905.71437l-.76729 2.48708q-.60854-.23812-1.53458-.5027-.92604-.26459-1.87854-.26459-1.53458 0-1.53458 1.19063 0 .47625.44979.76729t1.11125.55562q.66146.23813 1.45521.52917.79374.29104 1.4552.76729.66146.44979 1.11125 1.19062t.44979 1.905q0 2.01083-1.29646 3.17499-1.26999 1.13771-3.83645 1.13771-1.40229 0-2.64583-.37041-1.21708-.34396-1.98437-.82021l.9525-2.56646q.60854.34396 1.61395.68792 1.00542.3175 2.06375.3175.76729 0 1.21708-.29104.47625-.29104.47625-.97896zM-197.57948 581.32386l.47625 2.06374h.15875l.34396-2.0902 2.01083-7.40832h3.54541l-4.02166 11.93269q-.5027 1.48166-.97895 2.69874-.44979 1.24355-1.00542 2.14313-.55562.89958-1.24354 1.37583-.66146.50271-1.5875.50271-1.37583 0-2.19604-.44979l.635-2.75167q.39688.15875.79375.15875.60854 0 1.16417-.52916.58208-.50271.87312-1.85208l-5.52978-13.22915h4.12749zM-182.60366 583.46698q0-.52917-.44979-.84667t-1.11125-.58208q-.66145-.26458-1.4552-.52916-.79375-.29105-1.45521-.7673-.66146-.5027-1.11125-1.24354-.44979-.76729-.44979-1.95791 0-1.95791 1.16417-2.98979 1.16416-1.03187 3.3602-1.03187 1.50812 0 2.72521.3175 1.21708.3175 1.90499.71437l-.76729 2.48708q-.60854-.23812-1.53458-.5027-.92604-.26459-1.87854-.26459-1.53458 0-1.53458 1.19063 0 .47625.44979.76729t1.11125.55562q.66146.23813 1.45521.52917.79375.29104 1.4552.76729.66146.44979 1.11125 1.19062t.44979 1.905q0 2.01083-1.29645 3.17499-1.27 1.13771-3.83646 1.13771-1.40229 0-2.64583-.37041-1.21708-.34396-1.98437-.82021l.9525-2.56646q.60854.34396 1.61396.68792 1.00541.3175 2.06374.3175.76729 0 1.21708-.29104.47625-.29104.47625-.97896zM-176.64062 573.88908h1.82562V571.402l3.43958-.97896v3.46604h3.22791v2.91041h-3.22791v5.07999q0 1.37583.26458 1.98437.29105.58209 1.05834.58209.52916 0 .89958-.10584.39687-.10583.87312-.3175l.60854 2.64583q-.71437.34396-1.66687.58209-.9525.23812-1.93146.23812-1.82562 0-2.69874-.92604-.84667-.9525-.84667-3.09562v-6.66749h-1.82562zM-153.93277 585.98052q-.79375.635-2.16958 1.08479-1.34937.42333-2.88395.42333-3.20146 0-4.68312-1.85208-1.48167-1.87854-1.48167-5.13291 0-3.4925 1.66688-5.23874 1.66687-1.74625 4.68312-1.74625 1.00541 0 1.95791.26458.9525.26459 1.69333.87313t1.19063 1.64041q.44979 1.03187.44979 2.56646 0 .55562-.0794 1.19062-.0529.635-.18521 1.32291h-7.93749q.0794 1.66688.84667 2.51354.79375.84667 2.54.84667 1.08479 0 1.93145-.3175.87313-.34396 1.32292-.68792zm-4.92124-9.7102q-1.34937 0-2.01083.82021-.635.79375-.76729 2.14312h4.92124q.10584-1.42875-.44979-2.19604-.52916-.76729-1.69333-.76729zM-141.91244 587.11823v-7.19666q0-1.82563-.34395-2.59292-.34396-.76729-1.42875-.76729-.89958 0-1.45521.50271-.55562.47625-.84666 1.24354v8.81062h-3.43958v-13.22915h2.67228l.39688 1.74624h.10583q.60854-.84666 1.53458-1.48166.9525-.635 2.43417-.635 1.27 0 2.06374.52917.82021.5027 1.27 1.71978.60854-1.03187 1.56104-1.64041.9525-.60854 2.30187-.60854 1.11125 0 1.87854.26458.79375.26459 1.27.92604.50271.635.74084 1.71979.23812 1.08479.23812 2.75167v7.93749h-3.43958v-7.43479q0-1.56104-.34396-2.32833-.3175-.79375-1.4552-.79375-.92604 0-1.48167.50271-.52916.50271-.79375 1.37583v8.67833zM-115.89895 585.98052q-.79375.635-2.16958 1.08479-1.34938.42333-2.88396.42333-3.20145 0-4.68312-1.85208-1.48166-1.87854-1.48166-5.13291 0-3.4925 1.66687-5.23874 1.66687-1.74625 4.68312-1.74625 1.00542 0 1.95791.26458.9525.26459 1.69334.87313.74083.60854 1.19062 1.64041t.44979 2.56646q0 .55562-.0794 1.19062-.0529.635-.18521 1.32291h-7.93749q.0794 1.66688.84666 2.51354.79375.84667 2.54.84667 1.08479 0 1.93146-.3175.87312-.34396 1.32291-.68792zm-4.92125-9.7102q-1.34937 0-2.01083.82021-.635.79375-.76729 2.14312h4.92125q.10583-1.42875-.4498-2.19604-.52916-.76729-1.69333-.76729z" style="font-weight:700;-inkscape-font-specification:'PT Sans Bold';fill:#fff" transform="translate(350.64228 -368.8414401)"/></g></g></svg>