<svg width="1571.1827" height="432.32983" viewBox="0 0 415.70865 114.38724" xmlns="http://www.w3.org/2000/svg"><defs><path id="f" d="M-44.056217 1066.7898h1148.6085v506.64648h-1148.6085z"/><path id="c" d="M1600.6648 5530.2114h158.57976v94.550331H1600.6648z"/><path id="b" d="M157-13h55v40h-55z"/><path id="e" d="M1600.6648 5530.2114h158.57976v94.550331H1600.6648z"/><path id="d" d="M157-13h55v40h-55z"/><filter style="color-interpolation-filters:sRGB" id="a" x="-.05642297" y="-.03515585" width="1.1128459" height="1.0703117"><feGaussianBlur stdDeviation="1.1384116"/></filter></defs><text xml:space="preserve" transform="matrix(.26458 0 0 .26458 -119.50634 -1942.7517)" style="font-size:36px;line-height:1.25;font-family:Lato;-inkscape-font-specification:Lato;text-align:center;letter-spacing:0;white-space:pre;shape-inside:url(#b)"><tspan x="157" y="60.48"><tspan dx="0 20.882812 20.039062 14.484375 18.84375">Ehret</tspan></tspan></text><text xml:space="preserve" transform="matrix(.26458 0 0 .26458 426.53347 -2150.4431)" style="font-size:36px;line-height:1.25;font-family:Lato;-inkscape-font-specification:Lato;text-align:center;letter-spacing:0;white-space:pre;shape-inside:url(#d)"><tspan x="157" y="60.48"><tspan dx="0 20.882812 20.039062 14.484375 18.84375">Ehret</tspan></tspan></text><g style="display:inline"><path style="display:inline;vector-effect:none;fill:#000;fill-opacity:.35;stroke-width:.828176;stroke-opacity:.968165;stop-color:#000" d="M0-.000029h415.70866V114.38721H0Z" transform="translate(0 .000029)"/></g><g style="display:inline"><g style="display:inline;stroke-width:1.21915"><path style="display:inline;fill:none;fill-opacity:1;stroke:#fff;stroke-width:2.3515;stroke-miterlimit:4;stroke-dasharray:none;stroke-opacity:1;stop-color:#000" d="M-165.55737 439.72724a11.106197 6.4262649 0 0 1-11.10613 6.42623 11.106197 6.4262649 0 0 1-11.10613-6.42622 11.106197 6.4262649 0 0 1 11.10614-6.4262 11.106197 6.4262649 0 0 1 11.10612 6.42619z" transform="matrix(.82133 0 0 .81916 287.27046 -303.015541)"/><path style="display:inline;fill:none;fill-opacity:1;stroke:#fff;stroke-width:2.87406;stroke-miterlimit:4;stroke-dasharray:none;stroke-opacity:1;stop-color:#000" d="M-163.84062 439.72726a18.732446 11.164379 0 0 1-18.73236 11.16429 18.732446 11.164379 0 0 1-18.73234-11.1643 18.732446 11.164379 0 0 1 18.73235-11.16427 18.732446 11.164379 0 0 1 18.73235 11.16428z" transform="matrix(.82133 0 0 .81916 287.27046 -303.015541)"/><path style="display:inline;fill:none;fill-opacity:1;stroke:#fff;stroke-width:3.3966;stroke-miterlimit:4;stroke-dasharray:none;stroke-opacity:1;stop-color:#000" d="M-161.92136 439.72725a31.453028 19.213989 0 0 1-31.45287 19.21385 31.453028 19.213989 0 0 1-31.45278-19.21385 31.453028 19.213989 0 0 1 31.45278-19.21381 31.453028 19.213989 0 0 1 31.45287 19.21381z" transform="matrix(.82133 0 0 .81916 287.27046 -303.015541)"/><path style="display:inline;fill:none;fill-opacity:1;stroke:#fff;stroke-width:3.91918;stroke-miterlimit:4;stroke-dasharray:none;stroke-opacity:1;stop-color:#000" d="M-159.62176 439.72723a52.416267 32.621616 0 0 1-52.41601 32.62138 52.416267 32.621616 0 0 1-52.41593-32.62138 52.416267 32.621616 0 0 1 52.41594-32.6213 52.416267 32.621616 0 0 1 52.416 32.6213z" transform="matrix(.82133 0 0 .81916 287.27046 -303.015541)"/><path style="display:inline;fill:none;fill-opacity:1;stroke:#fff;stroke-width:4.44174;stroke-miterlimit:4;stroke-dasharray:none;stroke-opacity:1;stop-color:#000" d="M-156.89016 439.7272a86.716094 54.698496 0 0 1-86.71574 54.69811 86.716094 54.698496 0 0 1-86.71549-54.6981 86.716094 54.698496 0 0 1 86.71549-54.69799 86.716094 54.698496 0 0 1 86.71574 54.69798z" transform="matrix(.82133 0 0 .81916 287.27046 -303.015541)"/></g><g aria-label="Software Systems" style="font-size:25.1354px;line-height:1.25;font-family:'PT Sans';-inkscape-font-specification:'PT Sans';text-align:center;letter-spacing:0;text-anchor:middle;display:inline;stroke-width:.264583"><path d="M84.355641 92.316882h-3.82058q-.02514 1.658936.603249 2.865435.628385 1.206499 1.684072 1.985697 1.080822.779197 2.463269 1.131093 1.407583.377031 2.890571.377031 1.834885 0 3.217332-.427302 1.407582-.427302 2.337592-1.181364.955145-.779197 1.432718-1.834884.477572-1.055687.477572-2.287321 0-1.508124-.65352-2.46327-.628385-.98028-1.508124-1.558395-.879739-.578114-1.784614-.829468-.879739-.276489-1.382447-.377031-1.684071-.427302-2.739758-.703791-1.030552-.276489-1.633801-.552979-.578115-.276489-.779198-.603249-.201083-.326761-.201083-.854604 0-.578114.251354-.955145t.628385-.628385q.402167-.251354.879739-.351896.477573-.100542.955145-.100542.728927 0 1.332177.125677.628385.125677 1.105957.427302.477573.301625.754062.829469.301625.527843.351896 1.332176h3.820581q0-1.558395-.60325-2.639217-.578114-1.105958-1.58353-1.809749t-2.312457-1.005416q-1.281905-.32676-2.689488-.32676-1.206499 0-2.412998.32676-1.2065.32676-2.161645 1.005416-.955145.678656-1.558395 1.709207-.578114 1.005416-.578114 2.387863 0 1.231635.452437 2.111374.477573.854603 1.231635 1.432718.754062.578114 1.709207.955145.955145.351896 1.960562.60325.98028.276489 1.935425.502708.955146.226218 1.709208.527843.754062.301625 1.206499.754062.477572.452437.477572 1.181364 0 .678656-.351895 1.131093-.351896.427302-.879739.678656-.527844.251354-1.131093.351895-.60325.07541-1.131093.07541-.779198 0-1.508124-.175947-.728927-.201084-1.281906-.578115-.527843-.402166-.854603-1.030551-.326761-.628385-.326761-1.533259zM100.75492 91.789038q0-.779197.15081-1.533259.15081-.754062.50271-1.332177.37703-.578114.98028-.930009.60325-.377031 1.50812-.377031.90488 0 1.50813.377031.62838.351895.98028.930009.37703.578115.52784 1.332177.15082.754062.15082 1.533259 0 .779198-.15082 1.53326-.15081.728926-.52784 1.332176-.3519.578114-.98028.93001-.60325.351895-1.50813.351895-.90487 0-1.50812-.351895-.60325-.351896-.98028-.93001-.3519-.60325-.50271-1.332176-.15081-.754062-.15081-1.53326zm-3.569227 0q0 1.558395.477572 2.815165.477573 1.25677 1.357312 2.161645.879739.879739 2.111373 1.357311 1.23164.477573 2.76489.477573 1.53326 0 2.7649-.477573 1.25677-.477572 2.13651-1.357311.87974-.904875 1.35731-2.161645.47757-1.25677.47757-2.815165t-.47757-2.815165q-.47757-1.281905-1.35731-2.161644-.87974-.904875-2.13651-1.382447-1.23164-.502708-2.7649-.502708-1.53325 0-2.76489.502708-1.231634.477572-2.111373 1.382447-.879739.879739-1.357312 2.161644-.477572 1.25677-.477572 2.815165zM113.73303 87.666832v10.60714h3.56923v-10.60714h2.46327v-2.387863h-2.46327v-.779197q0-.804333.30163-1.131093.32676-.351896 1.05568-.351896.67866 0 1.30704.07541v-2.664352q-.45243-.02513-.93001-.05027-.47757-.05027-.95514-.05027-2.18678 0-3.2676 1.105958-1.08083 1.105958-1.08083 2.8403v1.005416h-2.1365v2.387863zM125.87304 85.278969v-3.895987h-3.56923v3.895987h-2.16164v2.387863h2.16164v7.666298q0 .98028.32676 1.58353.32676.60325.87974.93001.57811.32676 1.30704.427302.75406.125677 1.58353.125677.52785 0 1.08082-.02514.55298-.02513 1.00542-.100541v-2.764895q-.25135.05027-.52784.07541-.27649.02513-.57812.02513-.90487 0-1.2065-.301625-.30162-.301625-.30162-1.206499v-6.434663h2.61408v-2.387863zM145.04035 98.273972l4.09707-12.995003h-3.66976l-2.38787 8.797391h-.0503l-2.21191-8.797391h-3.46869l-2.16164 8.822526h-.0503l-2.38787-8.822526h-3.77031l4.12221 12.995003h3.6949l2.21192-8.721985h.0503l2.31246 8.721985zM150.50612 89.275498q.0754-1.25677.62839-2.086238.55298-.829468 1.40758-1.332176t1.91029-.703792q1.08082-.226218 2.16165-.226218.98028 0 1.98569.150812 1.00542.125677 1.83489.527844.82946.402166 1.35731 1.131093.52784.703791.52784 1.885155V95.3834q0 .879739.10054 1.684072t.3519 1.2065h-3.6195q-.10054-.301625-.17595-.60325-.0503-.32676-.0754-.65352-.85461.879739-2.01083 1.231634-1.15623.351896-2.36273.351896-.93001 0-1.73435-.226219-.80433-.226218-1.40758-.703791-.60325-.477573-.95514-1.206499-.32676-.728927-.32676-1.734343 0-1.105958.37703-1.809749.40216-.728926 1.00541-1.156228.62839-.427302 1.40759-.628385.80433-.226219 1.60866-.351896.80433-.125677 1.58353-.201083.7792-.07541 1.38245-.226219.60325-.150812.95514-.427301.3519-.301625.32676-.854604 0-.578114-.20108-.904875-.17595-.351895-.50271-.527843-.30162-.201083-.72892-.251354-.40217-.07541-.87974-.07541-1.05569 0-1.65894.452437-.60325.452437-.70379 1.508124zm8.24441 2.639217q-.22621.201083-.57811.32676-.32676.100542-.72893.175948-.37703.07541-.80433.125677-.4273.05027-.8546.125677-.40217.07541-.80434.201083-.37703.125677-.67865.351896-.27649.201083-.45244.527843-.17595.326761-.17595.829469 0 .477572.17595.804332.17595.326761.47757.527844.30163.175948.7038.251354.40216.07541.82946.07541 1.05569 0 1.6338-.351896.57812-.351895.85461-.829468.27649-.502708.32676-1.005416.0754-.502708.0754-.804333zM165.09016 85.278969v12.995003h3.56922v-5.856549q0-.879739.17595-1.633801t.57811-1.307041q.42731-.578114 1.10596-.904874.67866-.32676 1.65894-.32676.32676 0 .67865.05027.3519.02514.60325.07541v-3.317873q-.4273-.125677-.77919-.125677-.67866 0-1.30704.201083-.62839.201083-1.18137.578114-.55298.351896-.98028.879739-.4273.502708-.67865 1.105958h-.0503v-2.412999zM183.135 90.381456h-5.80628q.0251-.377031.15081-.854604.15081-.477573.47757-.904874.3519-.427302.90488-.703792.57811-.301624 1.43272-.301624 1.30704 0 1.93542.703791.65352.703791.90488 2.061103zm-5.80628 2.262186h9.3755q.10055-1.508124-.25135-2.890571t-1.15623-2.46327q-.7792-1.080822-2.01083-1.709207-1.23164-.65352-2.89057-.65352-1.48299 0-2.71463.527843-1.20649.527844-2.08623 1.457853-.87974.904875-1.35731 2.161645-.47758 1.25677-.47758 2.714623 0 1.508124.45244 2.764894.47757 1.25677 1.33218 2.161645.8546.904874 2.08623 1.407582 1.23164.477573 2.7649.477573 2.21191 0 3.77031-1.005416 1.55839-1.005416 2.31246-3.343009h-3.14193q-.17595.60325-.95515 1.156229-.77919.527843-1.86001.527843-1.50813 0-2.31246-.779197-.80433-.779198-.87974-2.51354zM198.83954 92.316882h-3.82059q-.0251 1.658936.60325 2.865435.62839 1.206499 1.68408 1.985697 1.08082.779197 2.46327 1.131093 1.40758.377031 2.89057.377031 1.83488 0 3.21733-.427302 1.40758-.427302 2.33759-1.181364.95515-.779197 1.43272-1.834884.47757-1.055687.47757-2.287321 0-1.508124-.65352-2.46327-.62838-.98028-1.50812-1.558395-.87974-.578114-1.78462-.829468-.87974-.276489-1.38244-.377031-1.68408-.427302-2.73976-.703791-1.03055-.276489-1.6338-.552979-.57812-.276489-.7792-.603249-.20108-.326761-.20108-.854604 0-.578114.25135-.955145t.62838-.628385q.40217-.251354.87974-.351896.47758-.100542.95515-.100542.72893 0 1.33217.125677.62839.125677 1.10596.427302.47758.301625.75406.829469.30163.527843.3519 1.332176h3.82058q0-1.558395-.60325-2.639217-.57811-1.105958-1.58353-1.809749-1.00541-.703791-2.31246-1.005416-1.2819-.32676-2.68948-.32676-1.2065 0-2.413.32676t-2.16165 1.005416q-.95514.678656-1.55839 1.709207-.57812 1.005416-.57812 2.387863 0 1.231635.45244 2.111374.47757.854603 1.23164 1.432718.75406.578114 1.7092.955145.95515.351896 1.96056.60325.98029.276489 1.93543.502708.95515.226218 1.70921.527843.75406.301625 1.2065.754062.47757.452437.47757 1.181364 0 .678656-.3519 1.131093-.35189.427302-.87973.678656-.52785.251354-1.1311.351895-.60325.07541-1.13109.07541-.7792 0-1.50812-.175947-.72893-.201084-1.28191-.578115-.52784-.402166-.8546-1.030551-.32676-.628385-.32676-1.533259zM218.48127 99.882637l5.42925-14.603668h-3.6949l-2.8403 8.897932h-.0503l-2.94084-8.897932h-3.79544l4.5495 12.19067q.15082.377031.15082.804333 0 .578114-.3519 1.055686-.32676.477573-1.03055.552979-.52784.02514-1.05569-.02514-.52784-.05027-1.03055-.100542v2.940835q.55298.0503 1.08082.0754.55298.0503 1.10596.0503 1.83489 0 2.86544-.67866 1.03055-.67865 1.60866-2.262178zM227.89528 94.051224H224.502q.0503 1.307041.57811 2.18678.55298.854604 1.38245 1.382447.85461.527844 1.93543.754062 1.08082.226219 2.21191.226219 1.10596 0 2.16165-.226219 1.08082-.201083 1.91029-.728926.82947-.527844 1.33217-1.382448.52785-.879739.52785-2.161644 0-.904874-.3519-1.508124-.35189-.628385-.93001-1.030551-.57811-.427302-1.33217-.678656-.72893-.251354-1.50813-.427302-.75406-.175948-1.48299-.32676-.72892-.150813-1.30704-.326761-.55298-.201083-.90487-.502708-.3519-.301624-.3519-.779197 0-.402166.20109-.628385.20108-.251354.47757-.377031.30162-.125677.65352-.150812.35189-.05027.65352-.05027.95514 0 1.65894.377031.70379.351895.77919 1.382447h3.39328q-.10054-1.206499-.62838-1.985697-.50271-.804333-1.28191-1.281905-.7792-.477573-1.78461-.678656-.98028-.201083-2.03597-.201083-1.05569 0-2.0611.201083-1.00542.175948-1.80975.65352-.80433.452438-1.30704 1.25677-.47757.804333-.47757 2.061103 0 .854604.35189 1.457854.3519.578114.93001.98028.57811.377031 1.30704.628385.75406.226219 1.53326.402167 1.91029.402166 2.96598.804332 1.08082.402167 1.08082 1.2065 0 .477572-.22622.804332-.22622.301625-.57811.502708-.32676.175948-.75406.27649-.40217.07541-.7792.07541-.52785 0-1.03055-.125677-.47758-.125677-.85461-.377031-.37703-.276489-.62838-.678656-.22622-.427302-.22622-1.005416zM243.15522 85.278969v-3.895987h-3.56923v3.895987h-2.16165v2.387863h2.16165v7.666298q0 .98028.32676 1.58353.32676.60325.87974.93001.57811.32676 1.30704.427302.75406.125677 1.58353.125677.52784 0 1.08082-.02514.55298-.02513 1.00542-.100541v-2.764895q-.25136.05027-.52785.07541-.27649.02513-.57811.02513-.90488 0-1.2065-.301625-.30162-.301625-.30162-1.206499v-6.434663h2.61408v-2.387863zM256.21462 90.381456h-5.80628q.0251-.377031.15081-.854604.15081-.477573.47757-.904874.3519-.427302.90488-.703792.57811-.301624 1.43272-.301624 1.30704 0 1.93542.703791.65352.703791.90488 2.061103zm-5.80628 2.262186h9.3755q.10055-1.508124-.25135-2.890571t-1.15623-2.46327q-.7792-1.080822-2.01083-1.709207-1.23163-.65352-2.89057-.65352-1.48299 0-2.71462.527843-1.2065.527844-2.08624 1.457853-.87974.904875-1.35731 2.161645-.47758 1.25677-.47758 2.714623 0 1.508124.45244 2.764894.47757 1.25677 1.33218 2.161645.8546.904874 2.08623 1.407582 1.23164.477573 2.7649.477573 2.21191 0 3.77031-1.005416 1.55839-1.005416 2.31246-3.343009h-3.14193q-.17595.60325-.95514 1.156229-.7792.527843-1.86002.527843-1.50813 0-2.31246-.779197-.80433-.779198-.87974-2.51354zM262.00127 85.278969v12.995003h3.56922v-7.540621q0-.955145.27649-1.533259.27649-.60325.65352-.904875.40217-.32676.80434-.427301.4273-.125677.67865-.125677.85461 0 1.28191.301624.45243.27649.62838.754062.20109.477573.22622 1.055687.0251.552979.0251 1.131093v7.289267h3.56922v-7.238996q0-.603249.0754-1.181364.10054-.603249.3519-1.055687.27648-.477572.72892-.754062.47757-.301624 1.23164-.301624.75406 0 1.18136.251354.45244.251354.67866.678655.22622.427302.27649 1.005416.0503.578115.0503 1.231635v7.364673h3.56922v-8.696849q0-1.25677-.35189-2.136509-.3519-.904875-.98028-1.457853-.62839-.552979-1.50813-.804333-.87974-.251354-1.91029-.251354-1.35731 0-2.36272.65352-.98029.653521-1.5584 1.508124-.52784-1.206499-1.55839-1.684072-1.00542-.477572-2.23706-.477572-1.2819 0-2.28732.552979-.98028.552978-1.68407 1.558394h-.0503v-1.759478zM287.44457 94.051224h-3.39328q.0503 1.307041.57811 2.18678.55298.854604 1.38245 1.382447.8546.527844 1.93542.754062 1.08083.226219 2.21192.226219 1.10596 0 2.16164-.226219 1.08083-.201083 1.91029-.728926.82947-.527844 1.33218-1.382448.52784-.879739.52784-2.161644 0-.904874-.35189-1.508124-.3519-.628385-.93001-1.030551-.57812-.427302-1.33218-.678656-.72893-.251354-1.50812-.427302-.75406-.175948-1.48299-.32676-.72893-.150813-1.30704-.326761-.55298-.201083-.90488-.502708-.35189-.301624-.35189-.779197 0-.402166.20108-.628385.20108-.251354.47757-.377031.30163-.125677.65352-.150812.3519-.05027.65352-.05027.95515 0 1.65894.377031.70379.351895.7792 1.382447h3.39328q-.10054-1.206499-.62839-1.985697-.50271-.804333-1.2819-1.281905-.7792-.477573-1.78462-.678656-.98028-.201083-2.03596-.201083-1.05569 0-2.06111.201083-1.00541.175948-1.80975.65352-.80433.452438-1.30704 1.25677-.47757.804333-.47757 2.061103 0 .854604.3519 1.457854.35189.578114.93001.98028.57811.377031 1.30704.628385.75406.226219 1.53326.402167 1.91029.402166 2.96597.804332 1.08083.402167 1.08083 1.2065 0 .477572-.22622.804332-.22622.301625-.57812.502708-.32676.175948-.75406.27649-.40216.07541-.7792.07541-.52784 0-1.03055-.125677-.47757-.125677-.8546-.377031-.37703-.276489-.62839-.678656-.22621-.427302-.22621-1.005416z" style="font-weight:700;font-family:'Helvetica Neue';-inkscape-font-specification:'Helvetica Neue Bold';fill:#fff" transform="translate(105.82968 -34.168114)"/></g><g aria-label="Engineering Office" style="font-weight:700;font-size:25.1354px;line-height:1.25;font-family:'PT Sans';-inkscape-font-specification:'PT Sans Bold';text-align:center;letter-spacing:0;text-anchor:middle;display:inline;stroke-width:.264583"><path d="M78.918271 51.62562v17.946676h13.623387v-3.317873h-9.677129v-4.398695h8.696848v-3.066519h-8.696848v-3.845716h9.476046V51.62562ZM94.839976 56.577294v12.995002h3.569227v-6.811693q0-1.985697.653521-2.840301.65352-.879739 2.111376-.879739 1.2819 0 1.78461.804333.50271.779197.50271 2.387863v7.339537h3.56923v-7.993057q0-1.2065-.22622-2.18678-.20109-1.005416-.72893-1.684072-.52784-.703791-1.45785-1.080822-.90488-.402167-2.33759-.402167-1.1311 0-2.21192.527844-1.080822.502708-1.759478 1.633801h-.07541v-1.809749zM115.82175 66.505777q-.82947 0-1.38244-.351895-.55298-.351896-.90488-.904875-.32676-.552979-.47757-1.231634-.12568-.703792-.12568-1.407583 0-.728926.15081-1.382447.17595-.678656.52785-1.181364.37703-.527843.90487-.829468.55298-.301625 1.30704-.301625.87974 0 1.45786.32676.57811.326761.93001.879739.35189.552979.5027 1.281906.15082.703791.15082 1.508124 0 .703791-.20109 1.357312-.17594.628385-.55298 1.131093-.37703.502708-.95514.804332-.57812.301625-1.33218.301625zm6.43467 2.237051V56.577294h-3.39328v1.734343h-.0503q-.65352-1.131093-1.63381-1.608666-.95514-.477573-2.23705-.477573-1.35731 0-2.41299.527844-1.03056.527843-1.73435 1.432718-.70379.879739-1.08082 2.061102-.3519 1.156229-.3519 2.412999 0 1.332176.30163 2.538675.32676 1.181364 1.00542 2.086239.67865.879739 1.73434 1.407582 1.05569.502708 2.51354.502708 1.18136 0 2.23705-.477572 1.08082-.502708 1.65894-1.53326h.0503v1.709207q.0251 1.382447-.67866 2.287322-.67866.904874-2.18678.904874-.95514 0-1.68407-.402166-.72893-.377031-.98028-1.382447h-3.54409q.0754 1.105957.60325 1.885155.55297.804333 1.35731 1.307041.82947.502708 1.80975.728926 1.00541.251354 1.96056.251354 2.23705 0 3.56922-.603249 1.33218-.60325 2.03597-1.482989.70379-.854604.90488-1.86002.22622-1.005416.22622-1.784613zM128.79987 54.566462V51.62562h-3.56923v2.940842zm-3.56923 2.010832v12.995002h3.56923V56.577294ZM131.61032 56.577294v12.995002h3.56922v-6.811693q0-1.985697.65352-2.840301.65352-.879739 2.11138-.879739 1.2819 0 1.78461.804333.50271.779197.50271 2.387863v7.339537h3.56923v-7.993057q0-1.2065-.22622-2.18678-.20109-1.005416-.72893-1.684072-.52784-.703791-1.45785-1.080822-.90488-.402167-2.33759-.402167-1.1311 0-2.21192.527844-1.08082.502708-1.75948 1.633801h-.0754v-1.809749zM155.28158 61.67978h-5.80627q.0251-.377031.15081-.854603.15081-.477573.47757-.904875.3519-.427302.90488-.703791.57811-.301625 1.43271-.301625 1.30704 0 1.93543.703791.65352.703792.90487 2.061103zm-5.80627 2.262186h9.3755q.10054-1.508124-.25135-2.890571-.3519-1.382447-1.15623-2.463269-.7792-1.080822-2.01083-1.709207-1.23164-.653521-2.89057-.653521-1.48299 0-2.71463.527844-1.2065.527843-2.08624 1.457853-.87973.904874-1.35731 2.161644-.47757 1.25677-.47757 2.714624 0 1.508124.45244 2.764894.47757 1.25677 1.33217 2.161644.85461.904875 2.08624 1.407583 1.23164.477572 2.7649.477572 2.21191 0 3.77031-1.005416 1.55839-1.005416 2.31245-3.343008h-3.14192q-.17595.60325-.95515 1.156228-.7792.527844-1.86002.527844-1.50812 0-2.31245-.779198-.80434-.779197-.87974-2.51354zM169.7148 61.67978h-5.80628q.0251-.377031.15081-.854603.15081-.477573.47757-.904875.3519-.427302.90488-.703791.57811-.301625 1.43272-.301625 1.30704 0 1.93542.703791.65352.703792.90488 2.061103zm-5.80628 2.262186h9.3755q.10055-1.508124-.25135-2.890571t-1.15623-2.463269q-.7792-1.080822-2.01083-1.709207-1.23164-.653521-2.89057-.653521-1.48299 0-2.71463.527844-1.20649.527843-2.08623 1.457853-.87974.904874-1.35732 2.161644-.47757 1.25677-.47757 2.714624 0 1.508124.45244 2.764894.47757 1.25677 1.33218 2.161644.8546.904875 2.08623 1.407583 1.23164.477572 2.7649.477572 2.21191 0 3.77031-1.005416 1.55839-1.005416 2.31245-3.343008h-3.14192q-.17595.60325-.95515 1.156228-.77919.527844-1.86001.527844-1.50813 0-2.31246-.779198-.80433-.779197-.87974-2.51354zM175.4009 56.577294v12.995002h3.56922v-5.856548q0-.879739.17595-1.633801t.57812-1.307041q.4273-.578114 1.10595-.904875.67866-.32676 1.65894-.32676.32676 0 .67866.05027.35189.02513.60325.07541v-3.317873q-.42731-.125677-.7792-.125677-.67866 0-1.30704.201084-.62839.201083-1.18137.578114-.55298.351895-.98028.879739-.4273.502708-.67865 1.105957h-.0503v-2.412998zM188.84009 54.566462V51.62562h-3.56923v2.940842zm-3.56923 2.010832v12.995002h3.56923V56.577294ZM191.65054 56.577294v12.995002h3.56923v-6.811693q0-1.985697.65352-2.840301.65352-.879739 2.11137-.879739 1.2819 0 1.78461.804333.50271.779197.50271 2.387863v7.339537h3.56923v-7.993057q0-1.2065-.22622-2.18678-.20108-1.005416-.72893-1.684072-.52784-.703791-1.45785-1.080822-.90487-.402167-2.33759-.402167-1.1311 0-2.21192.527844-1.08082.502708-1.75948 1.633801h-.0754v-1.809749zM212.63232 66.505777q-.82947 0-1.38245-.351895-.55298-.351896-.90487-.904875-.32676-.552979-.47758-1.231634-.12567-.703792-.12567-1.407583 0-.728926.15081-1.382447.17595-.678656.52784-1.181364.37703-.527843.90488-.829468.55298-.301625 1.30704-.301625.87974 0 1.45785.32676.57812.326761.93001.879739.3519.552979.50271 1.281906.15081.703791.15081 1.508124 0 .703791-.20108 1.357312-.17595.628385-.55298 1.131093-.37703.502708-.95515.804332-.57811.301625-1.33217.301625zm6.43466 2.237051V56.577294h-3.39328v1.734343h-.0503q-.65352-1.131093-1.6338-1.608666-.95514-.477573-2.23705-.477573-1.35731 0-2.413.527844-1.03055.527843-1.73434 1.432718-.70379.879739-1.08082 2.061102-.3519 1.156229-.3519 2.412999 0 1.332176.30163 2.538675.32676 1.181364 1.00541 2.086239.67866.879739 1.73434 1.407582 1.05569.502708 2.51354.502708 1.18137 0 2.23705-.477572 1.08083-.502708 1.65894-1.53326h.0503v1.709207q.0251 1.382447-.67865 2.287322-.67866.904874-2.18678.904874-.95515 0-1.68408-.402166-.72892-.377031-.98028-1.382447h-3.54409q.0754 1.105957.60325 1.885155.55298.804333 1.35731 1.307041.82947.502708 1.80975.728926 1.00542.251354 1.96056.251354 2.23705 0 3.56923-.603249 1.33218-.60325 2.03597-1.482989.70379-.854604.90487-1.86002.22622-1.005416.22622-1.784613zM232.45591 60.674364q0-1.181364.25135-2.287321.27649-1.105958.8546-1.960561.57812-.879739 1.50813-1.382448.93001-.527843 2.26218-.527843 1.33218 0 2.26219.527843.93001.502709 1.50812 1.382448.57812.854603.82947 1.960561.27649 1.105957.27649 2.287321 0 1.131093-.27649 2.211916-.25135 1.055686-.82947 1.91029-.57811.854604-1.50812 1.382447-.93001.502708-2.26219.502708-1.33217 0-2.26218-.502708-.93001-.527843-1.50813-1.382447-.57811-.854604-.8546-1.91029-.25135-1.080823-.25135-2.211916zm-3.94626 0q0 1.960562.60325 3.669769.60325 1.684072 1.73434 2.940842t2.76489 1.985696q1.65894.703792 3.72004.703792 2.08624 0 3.72004-.703792 1.6338-.728926 2.7649-1.985696 1.13109-1.25677 1.73434-2.940842.60325-1.709207.60325-3.669769 0-2.010832-.60325-3.720039-.60325-1.734343-1.73434-3.016248-1.1311-1.281906-2.7649-2.010832-1.6338-.728927-3.72004-.728927-2.0611 0-3.72004.728927-1.6338.728926-2.76489 2.010832-1.13109 1.281905-1.73434 3.016248-.60325 1.709207-.60325 3.720039zM256.84587 58.965157h-4.0468v10.607139h-3.56922V58.965157h-2.13651v-2.387863h2.13651v-1.005416q0-1.734343 1.08082-2.8403 1.08082-1.105958 3.2676-1.105958.47757 0 .95515.05027.47757.02513.93001.05027v2.664352q-.65353-.07541-1.30705-.07541-.72892 0-1.05568.351895-.30163.326761-.30163 1.131094v.779197h4.0468v-1.005416q0-1.734343 1.08082-2.8403 1.08083-1.105958 3.26761-1.105958.47757 0 .95514.05027.47757.02513.93001.05027v2.664352q-.65352-.07541-1.30704-.07541-.72893 0-1.05569.351895-.30162.326761-.30162 1.131094v.779197h2.46327v2.387863h-2.46327v10.607139h-3.56923zm11.26066-4.398695h-3.56923V51.62562h3.56923zm-3.56923 2.010832h3.56923v12.995002h-3.56923zM279.78271 61.151937h3.49383q-.0754-1.25677-.60325-2.161645-.52785-.930009-1.38245-1.533259-.82947-.628385-1.91029-.93001-1.05569-.301625-2.21192-.301625-1.58353 0-2.81516.527844-1.23164.527843-2.08624 1.482988-.8546.93001-1.30704 2.237051-.4273 1.281906-.4273 2.79003 0 1.457853.47757 2.689487.47757 1.2065 1.33218 2.086239.8546.879739 2.0611 1.382447 1.23163.477572 2.68949.477572 2.58894 0 4.24788-1.357311 1.65894-1.357312 2.01083-3.946258h-3.44355q-.17595 1.206499-.87974 1.935426-.67865.703791-1.96056.703791-.82947 0-1.40758-.377031t-.93001-.955145q-.32676-.60325-.47757-1.332177-.15082-.728926-.15082-1.432717 0-.728927.15082-1.457854.15081-.754062.5027-1.357311.37704-.628385.95515-1.005416.57811-.402167 1.43272-.402167 2.28732 0 2.63921 2.237051zM294.1154 61.67978h-5.80628q.0251-.377031.15082-.854603.15081-.477573.47757-.904875.35189-.427302.90487-.703791.57812-.301625 1.43272-.301625 1.30704 0 1.93543.703791.65352.703792.90487 2.061103zm-5.80628 2.262186h9.37551q.10054-1.508124-.25136-2.890571-.35189-1.382447-1.15622-2.463269-.7792-1.080822-2.01084-1.709207-1.23163-.653521-2.89057-.653521-1.48299 0-2.71462.527844-1.2065.527843-2.08624 1.457853-.87974.904874-1.35731 2.161644-.47757 1.25677-.47757 2.714624 0 1.508124.45243 2.764894.47758 1.25677 1.33218 2.161644.8546.904875 2.08624 1.407583 1.23163.477572 2.76489.477572 2.21192 0 3.77031-1.005416 1.5584-1.005416 2.31246-3.343008h-3.14193q-.17594.60325-.95514 1.156228-.7792.527844-1.86002.527844-1.50812 0-2.31246-.779198-.80433-.779197-.87974-2.51354z" style="font-family:'Helvetica Neue';-inkscape-font-specification:'Helvetica Neue Bold';fill:#fff" transform="translate(105.82968 -34.168114)"/></g><g aria-label="Dr.-Ing. Jürgen Ehret" style="font-size:15.875px;line-height:1.25;font-family:'PT Sans';-inkscape-font-specification:'PT Sans';text-align:center;letter-spacing:1.05833px;text-anchor:middle;display:inline;stroke-width:.264583"><path d="M-160.60473 453.99132v-7.14375h1.778q.92075 0 1.53987.26988.635.254 1.016.74612.381.49213.53975 1.19063.17463.68262.17463 1.53987 0 .93663-.23813 1.5875-.23812.65088-.635 1.06363-.39687.39687-.90487.5715-.508.17462-1.04775.17462zm-2.49238-9.23925v11.33475h4.8895q1.30175 0 2.25425-.42862.96838-.4445 1.60338-1.2065.65087-.762.96837-1.80975t.3175-2.286q0-1.41288-.39687-2.46063-.381-1.04775-1.0795-1.74625-.68263-.6985-1.63513-1.04775-.93662-.34925-2.032-.34925zM-150.52568 447.87945v8.20737h2.25425v-3.69887q0-.55563.11112-1.03188.11113-.47625.36513-.8255.26987-.36512.6985-.5715.42862-.20637 1.04775-.20637.20637 0 .42862.0317.22225.0159.381.0476v-2.0955q-.26987-.0794-.49212-.0794-.42863 0-.8255.127-.39688.127-.74613.36512-.34925.22225-.61912.55563-.26988.3175-.42863.6985h-.0318v-1.524zM-144.67632 453.64207v2.44475h2.49238v-2.44475zM-139.34018 450.78457v1.93675h4.77837v-1.93675zM-131.57863 444.75207v11.33475h2.49237v-11.33475zM-126.07654 447.87945v8.20737h2.25425v-4.30212q0-1.25413.41275-1.79388.41275-.55562 1.3335-.55562.80962 0 1.12712.508.3175.49212.3175 1.50812v4.6355h2.25425v-5.04825q0-.762-.14287-1.38112-.127-.635-.46038-1.06363-.33337-.4445-.92075-.68262-.5715-.254-1.47637-.254-.71438 0-1.397.33337-.68263.3175-1.11125 1.03188h-.0476v-1.143zM-111.76656 454.15007q-.52387 0-.87312-.22225-.34925-.22225-.5715-.5715-.20638-.34925-.30163-.77787-.0794-.4445-.0794-.889 0-.46038.0952-.87313.11112-.42862.33337-.74612.23813-.33338.5715-.52388.34925-.1905.8255-.1905.55563 0 .92075.20638.36513.20637.58738.55562t.3175.80963q.0952.4445.0952.9525 0 .4445-.127.85725-.11113.39687-.34925.71437-.23813.3175-.60325.508-.36513.1905-.84138.1905zm4.064 1.41288v-7.6835h-2.14312v1.09537h-.0318q-.41275-.71437-1.03188-1.016-.60325-.30162-1.41287-.30162-.85725 0-1.524.33337-.65088.33338-1.09538.90488-.4445.55562-.68262 1.30175-.22225.73025-.22225 1.524 0 .84137.1905 1.60337.20637.74613.635 1.31763.42862.55562 1.09537.889.66675.3175 1.5875.3175.74613 0 1.41288-.30163.68262-.3175 1.04775-.96837h.0318v1.0795q.0159.87312-.42863 1.44462-.42862.5715-1.38112.5715-.60325 0-1.06363-.254-.46037-.23812-.61912-.87312h-2.23838q.0476.6985.381 1.19062.34925.508.85725.8255.52388.3175 1.143.46038.635.15875 1.23825.15875 1.41288 0 2.25425-.381.84138-.381 1.28588-.93663.4445-.53975.5715-1.17475.14287-.635.14287-1.12712zM-104.73402 453.64207v2.44475h2.49238v-2.44475zM-87.033069 452.51495v-7.76288h-2.492375v7.65175q0 .30163-.03175.635-.01588.3175-.142875.60325-.111125.26988-.381.4445-.269875.17463-.762.17463-.4445 0-.73025-.14288-.269875-.14287-.428625-.381-.15875-.254-.22225-.60325-.0635-.34925-.0635-.762v-.508h-2.25425v.98425q0 .93663.3175 1.60338.3175.65087.841375 1.0795.523875.41275 1.190625.60325.66675.20637 1.381125.20637 1.27 0 2.016125-.381.746125-.39687 1.143-.96837.396875-.58738.508-1.25413.111125-.66675.111125-1.22237zM-82.868947 444.75207v1.85738h2.143125v-1.85738zm3.27025 0v1.85738h2.143125v-1.85738zm3.286125 11.33475v-8.20737h-2.25425v4.30212q0 1.25413-.41275 1.80975-.41275.53975-1.3335.53975-.809625 0-1.127125-.49212-.3175-.508-.3175-1.524v-4.6355h-2.25425v5.04825q0 .762.127 1.397.142875.61912.47625 1.06362.333375.42863.904875.66675.587375.23813 1.49225.23813.714375 0 1.397-.3175t1.11125-1.03188h.04762v1.143zM-73.527831 447.87945v8.20737h2.25425v-3.69887q0-.55563.111125-1.03188.111125-.47625.365125-.8255.269875-.36512.6985-.5715.428625-.20637 1.04775-.20637.206375 0 .428625.0317.22225.0159.381.0476v-2.0955q-.269875-.0794-.492125-.0794-.428625 0-.8255.127-.396875.127-.746125.36512-.34925.22225-.619125.55563-.269875.3175-.428625.6985h-.03175v-1.524zM-62.912756 454.15007q-.523875 0-.873125-.22225-.34925-.22225-.5715-.5715-.206375-.34925-.301625-.77787-.07937-.4445-.07937-.889 0-.46038.09525-.87313.111125-.42862.333375-.74612.238125-.33338.5715-.52388.34925-.1905.8255-.1905.555625 0 .92075.20638.365125.20637.587375.55562t.3175.80963q.09525.4445.09525.9525 0 .4445-.127.85725-.111125.39687-.34925.71437-.238125.3175-.60325.508-.365125.1905-.841375.1905zm4.064 1.41288v-7.6835h-2.143125v1.09537h-.03175q-.41275-.71437-1.031875-1.016-.60325-.30162-1.412875-.30162-.85725 0-1.524.33337-.650875.33338-1.095375.90488-.4445.55562-.682625 1.30175-.22225.73025-.22225 1.524 0 .84137.1905 1.60337.206375.74613.635 1.31763.428625.55562 1.095375.889.66675.3175 1.5875.3175.746125 0 1.412875-.30163.682625-.3175 1.04775-.96837h.03175v1.0795q.01588.87312-.428625 1.44462-.428625.5715-1.381125.5715-.60325 0-1.063625-.254-.460375-.23812-.619125-.87312h-2.238375q.04763.6985.381 1.19062.34925.508.85725.8255.523875.3175 1.143.46038.635.15875 1.23825.15875 1.412875 0 2.25425-.381.841375-.381 1.285875-.93663.4445-.53975.5715-1.17475.142875-.635.142875-1.12712zM-50.445752 451.10207h-3.667125q.01587-.23812.09525-.53975.09525-.30162.301625-.5715.22225-.26987.5715-.4445.365125-.1905.904875-.1905.8255 0 1.222375.4445.41275.4445.5715 1.30175zm-3.667125 1.42875h5.921375q.0635-.9525-.15875-1.82562-.22225-.87313-.73025-1.55575-.492125-.68263-1.27-1.0795-.777875-.41275-1.825625-.41275-.936625 0-1.7145.33337-.762.33338-1.317625.92075-.555625.5715-.85725 1.36525-.301625.79375-.301625 1.7145 0 .9525.28575 1.74625.301625.79375.841375 1.36525.53975.5715 1.317625.889.777875.30163 1.74625.30163 1.397 0 2.38125-.635.98425-.635 1.4605-2.11138h-1.984375q-.111125.381-.60325.73025-.492125.33338-1.17475.33338-.9525 0-1.4605-.49213-.508-.49212-.555625-1.5875zM-45.796203 447.87945v8.20737h2.25425v-4.30212q0-1.25413.41275-1.79388.41275-.55562 1.3335-.55562.809625 0 1.127125.508.3175.49212.3175 1.50812v4.6355h2.25425v-5.04825q0-.762-.142875-1.38112-.127-.635-.460375-1.06363-.333375-.4445-.92075-.68262-.5715-.254-1.476375-.254-.714375 0-1.397.33337-.682625.3175-1.11125 1.03188h-.04763v-1.143zM-29.612796 444.75207v11.33475h8.60425v-2.0955h-6.111875v-2.77812h5.49275v-1.93675h-5.49275v-2.42888h5.984875v-2.0955zM-18.498656 444.75207v11.33475h2.25425v-4.30212q0-1.25413.41275-1.79388.41275-.55562 1.3335-.55562.809625 0 1.127125.508.3175.49212.3175 1.50812v4.6355h2.25425v-5.04825q0-.762-.142875-1.38112-.127-.635-.460375-1.06363-.333375-.4445-.92075-.68262-.5715-.254-1.476375-.254-.635 0-1.30175.33337-.66675.3175-1.095375 1.03188h-.04763v-4.27038zM-8.0145409 447.87945v8.20737h2.25425v-3.69887q0-.55563.111125-1.03188.111125-.47625.365125-.8255.269875-.36512.6985-.5715.428625-.20637 1.04775-.20637.206375 0 .428625.0317.22225.0159.381.0476v-2.0955q-.269875-.0794-.492125-.0794-.428625 0-.8255.127-.396875.127-.746125.36512-.34925.22225-.619125.55563-.269875.3175-.428625.6985h-.03175v-1.524zM4.4405469 451.10207H.77342188q.015875-.23812.09525-.53975.09525-.30162.30162502-.5715.22225-.26987.5715-.4445.365125-.1905.904875-.1905.8255 0 1.222375.4445.41275.4445.5715 1.30175zm-3.66712502 1.42875H6.6947969q.0635-.9525-.15875-1.82562-.22225-.87313-.73025-1.55575-.492125-.68263-1.27-1.0795-.777875-.41275-1.825625-.41275-.936625 0-1.71450002.33337-.762.33338-1.317625.92075-.555625.5715-.85724998 1.36525-.301625.79375-.301625 1.7145 0 .9525.28575 1.74625.30162498.79375.84137498 1.36525.53975.5715 1.317625.889.77787502.30163 1.74625002.30163 1.397 0 2.38125-.635.98425-.635 1.4605-2.11138h-1.984375q-.111125.381-.60325.73025-.492125.33338-1.17475.33338-.9525 0-1.4605-.49213-.50800002-.49212-.55562502-1.5875zM11.935443 447.87945v-2.46063H9.6811926v2.46063h-1.36525v1.50812h1.36525v4.84188q0 .61912.206375 1.00012.2063754.381.5556254.58738.365125.20637.8255.26987.47625.0794 1.000125.0794.333375 0 .682625-.0159.34925-.0159.635-.0635v-1.74625q-.15875.0317-.333375.0476-.174625.0159-.365125.0159-.5715 0-.762-.1905t-.1905-.762v-4.064h1.651v-1.50812z" style="font-weight:700;font-family:'Helvetica Neue';-inkscape-font-specification:'Helvetica Neue Bold';fill:#fff" transform="translate(368.93426 -364.608361)"/></g></g></svg>