<svg width="1604.5695" height="461.16409" viewBox="0 0 424.54219 122.0163" xmlns="http://www.w3.org/2000/svg"><defs><path id="e" d="M3.0351963 655.60242h497.77219v261.02689H3.0351963z"/><path id="d" d="M83.976158 1224.1858h406.81784v278.05438H83.976158z"/><path id="c" d="M1600.6648 5530.2114h158.57976v94.550331H1600.6648z"/><path id="b" d="M157-13h55v40h-55z"/><filter style="color-interpolation-filters:sRGB" id="a" x="-.05642297" y="-.03515585" width="1.1128459" height="1.0703117"><feGaussianBlur stdDeviation="1.1384116"/></filter></defs><text xml:space="preserve" transform="matrix(.26458 0 0 .26458 178.13126 -2169.7683)" style="font-size:36px;line-height:1.25;font-family:Lato;-inkscape-font-specification:Lato;text-align:center;letter-spacing:0;white-space:pre;shape-inside:url(#b)"><tspan x="157" y="60.48"><tspan dx="0 20.882812 20.039062 14.484375 18.84375">Ehret</tspan></tspan></text><g style="display:inline"><path style="display:inline;vector-effect:none;fill:#000;fill-opacity:.35;stroke-width:.864388;stroke-opacity:.968165;stop-color:#000" d="M-117.71861 17.626409h424.54235V139.64274h-424.54235z" transform="translate(117.71861 -17.6264091)"/><g style="display:inline"><path style="display:inline;fill:none;fill-opacity:1;stroke:#fff;stroke-width:2.04665;stroke-miterlimit:4;stroke-dasharray:none;stroke-opacity:1;stop-color:#000" d="M43.070397 87.321834a9.6791188 5.5857791 0 0 1-9.67906 5.585748 9.6791188 5.5857791 0 0 1-9.679061-5.58574 9.6791188 5.5857791 0 0 1 9.67907-5.585723 9.6791188 5.5857791 0 0 1 9.679051 5.585715z" transform="translate(110.0513261 -26.31368589)"/><path style="display:inline;fill:none;fill-opacity:1;stroke:#fff;stroke-width:2.50147;stroke-miterlimit:4;stroke-dasharray:none;stroke-opacity:1;stop-color:#000" d="M44.566556 87.321851a16.325442 9.7041993 0 0 1-16.325367 9.704117 16.325442 9.7041993 0 0 1-16.325349-9.704126 16.325442 9.7041993 0 0 1 16.325357-9.704104 16.325442 9.7041993 0 0 1 16.325359 9.704113Z" transform="translate(110.0513261 -26.31368589)"/><path style="display:inline;fill:none;fill-opacity:1;stroke:#fff;stroke-width:2.95626;stroke-miterlimit:4;stroke-dasharray:none;stroke-opacity:1;stop-color:#000" d="M46.239202 87.321842a27.411507 16.701008 0 0 1-27.411369 16.700878A27.411507 16.701008 0 0 1-8.5834577 87.321842 27.411507 16.701008 0 0 1 18.827833 70.620991a27.411507 16.701008 0 0 1 27.411369 16.700851Z" transform="translate(110.0513261 -26.31368589)"/><path style="display:inline;fill:none;fill-opacity:1;stroke:#fff;stroke-width:3.41109;stroke-miterlimit:4;stroke-dasharray:none;stroke-opacity:1;stop-color:#000" d="M48.243318 87.321825A45.681098 28.355063 0 0 1 2.5624435 115.67669 45.681098 28.355063 0 0 1-43.118362 87.321825 45.681098 28.355063 0 0 1 2.5624522 58.967038 45.681098 28.355063 0 0 1 48.243318 87.321825Z" transform="translate(110.0513261 -26.31368589)"/><path style="display:inline;fill:none;fill-opacity:1;stroke:#fff;stroke-width:3.8659;stroke-miterlimit:4;stroke-dasharray:none;stroke-opacity:1;stop-color:#000" d="M50.623924 87.321799a75.573608 47.544526 0 0 1-75.5733 47.544181 75.573608 47.544526 0 0 1-75.573084-47.544173 75.573608 47.544526 0 0 1 75.573084-47.544086 75.573608 47.544526 0 0 1 75.5733 47.544078z" transform="translate(110.0513261 -26.31368589)"/></g><g aria-label="Softwaresysteme" style="font-size:31.75px;line-height:1.25;font-family:'PT Sans';-inkscape-font-specification:'PT Sans';text-align:center;letter-spacing:.264583px;text-anchor:middle;display:inline;stroke-width:.264583"><path d="M72.026152 92.457108h-2.159q-.09525 2.0955.53975 3.58775.66675 1.49225 1.87325 2.44475 1.2065.9525 2.921 1.42875 1.7145.444502 3.71475.444502 2.00025 0 3.429-.381002 1.42875-.34925 2.38125-.92075.98425-.60325 1.524-1.3335.5715-.73025.85725-1.42875.3175-.73025.381-1.36525.09525-.635.09525-1.016 0-1.397-.47625-2.38125-.4445-.98425-1.27-1.651-.79375-.6985-1.87325-1.143-1.04775-.47625-2.25425-.79375l-5.5245-1.36525q-.6985-.15875-1.3335-.41275-.60325-.254-1.0795-.66675-.47625-.41275-.762-.98425-.254-.60325-.254-1.397 0-1.27.47625-2.12725.47625-.85725 1.23825-1.36525.79375-.53975 1.80975-.762 1.04775-.254 2.159-.254 1.2065 0 2.286.34925 1.11125.3175 1.93675.98425.85725.635 1.36525 1.61925.53975.9525.60325 2.25425h2.159q0-1.74625-.6985-3.048-.66675-1.3335-1.80975-2.2225-1.143-.889-2.667-1.3335-1.524-.4445-3.20675-.4445-2.38125 0-3.90525.6985-1.524.66675-2.413 1.651-.85725.98425-1.17475 2.0955t-.3175 1.93675q0 1.3335.41275 2.25425.4445.92075 1.143 1.55575t1.61925 1.016q.9525.381 1.93675.635l5.04825 1.23825q.79375.1905 1.61925.508.8255.28575 1.49225.762.6985.47625 1.11125 1.17475.4445.6985.4445 1.651 0 1.23825-.60325 2.12725-.60325.85725-1.524 1.42875-.889.53975-1.93675.79375t-1.93675.254q-1.55575 0-2.921-.28575-1.36525-.3175-2.38125-1.016-.98425-.6985-1.55575-1.87325t-.53975-2.921zM97.845021 84.741858q1.42875 0 2.508249.60325 1.0795.60325 1.778 1.5875.73025.98425 1.0795 2.25425.381 1.23825.381 2.54t-.381 2.57175q-.34925 1.23825-1.0795 2.2225-.6985.98425-1.778 1.5875-1.079499.60325-2.508249.60325-1.42875 0-2.50825-.60325t-1.80975-1.5875q-.6985-.98425-1.0795-2.2225-.34925-1.27-.34925-2.57175 0-1.30175.34925-2.54.381-1.27 1.0795-2.25425.73025-.98425 1.80975-1.5875t2.50825-.60325zm0-1.68275q-1.87325 0-3.33375.6985-1.42875.6985-2.413 1.87325-.98425 1.17475-1.49225 2.76225-.508 1.55575-.508 3.33375 0 1.778.508 3.3655.508 1.55575 1.49225 2.7305.98425 1.17475 2.413 1.87325 1.4605.666752 3.33375.666752 1.87325 0 3.301999-.666752 1.4605-.6985 2.44475-1.87325.98425-1.17475 1.49225-2.7305.508-1.5875.508-3.3655t-.508-3.33375q-.508-1.5875-1.49225-2.76225-.98425-1.17475-2.44475-1.87325-1.428749-.6985-3.301999-.6985zM115.17969 85.218108v-1.68275h-3.2385v-1.42875q0-.66675.0317-1.23825.0318-.5715.22225-.98425.22225-.4445.66675-.6985.4445-.254 1.27-.254.34925 0 .6985.0635.34925.03175.762.09525v-1.7145q-.47625-.0635-.85725-.09525-.381-.03175-.8255-.03175-1.2065 0-2.00025.34925-.762.34925-1.2065.98425-.4445.635-.60325 1.524-.15875.889-.15875 1.93675v1.49225h-2.794v1.68275h2.794v14.70025h2.00025v-14.70025zM120.54859 83.535358v-4.92125h-2.00025v4.92125h-2.8575v1.68275h2.8575v11.20775q-.0318 2.0955.762 2.88925.79375.762002 2.794.762002.4445 0 .889-.0318t.889-.0318v-1.682752q-.85725.09525-1.7145.09525-1.0795-.0635-1.36525-.60325-.254-.5715-.254-1.55575v-11.049h3.33375v-1.68275zM125.41295 83.535358l5.2705 16.383h2.19075l4.0005-13.7795h.0635l4.03225 13.7795h2.19075l5.2705-16.383h-2.12725l-4.191 14.0335h-.0635l-4.0005-14.0335h-2.25425l-4.0005 14.0335h-.0635l-4.191-14.0335zM150.64047 88.551858h2.00025q.0635-2.00025 1.27-2.88925 1.2065-.92075 3.1115-.92075.889 0 1.651.15875.79375.127 1.36525.508.60325.381.92075 1.04775.34925.635.34925 1.651 0 .66675-.1905 1.0795-.15875.41275-.47625.66675-.3175.22225-.79375.3175-.47625.09525-1.11125.15875-1.61925.1905-3.20675.41275-1.55575.1905-2.82575.6985-1.23825.508-2.00025 1.49225-.762.9525-.762 2.667 0 1.23825.41275 2.159.4445.889 1.17475 1.49225.762.5715 1.74625.825502 1.016.28575 2.159.28575 1.2065 0 2.06375-.22225.889-.222252 1.55575-.635002.6985-.41275 1.23825-1.016.5715-.635 1.11125-1.42875h.0635q0 .635.0635 1.17475.0952.508.34925.889.254.381.6985.60325.47625.1905 1.23825.1905.41275 0 .66675-.03175.28575-.03175.635-.09525v-1.68275q-.28575.127-.635.127-1.17475 0-1.17475-1.2065v-8.6995q0-1.651-.53975-2.667-.53975-1.04775-1.397-1.61925-.85725-.5715-1.93675-.762-1.0795-.22225-2.159-.22225-1.42875 0-2.6035.3175t-2.06375.98425q-.85725.66675-1.36525 1.7145-.508 1.04775-.60325 2.4765zm10.668 2.413v2.6035q0 1.2065-.47625 2.159-.4445.9525-1.23825 1.61925-.762.66675-1.80975 1.016-1.04775.34925-2.19075.34925-.6985 0-1.36525-.22225-.66675-.22225-1.17475-.635-.508-.4445-.8255-1.016-.28575-.60325-.28575-1.36525 0-1.2065.6985-1.8415.73025-.66675 1.8415-1.016 1.11125-.34925 2.44475-.508 1.36525-.1905 2.63525-.41275.41275-.0635.9525-.22225t.73025-.508zM167.59068 83.535358v16.383h2.00025v-8.73125q0-1.30175.4445-2.38125.4445-1.11125 1.23825-1.905.8255-.79375 1.93675-1.2065 1.11125-.4445 2.4765-.381v-2.00025q-2.2225-.09525-3.84175.98425-1.5875 1.0795-2.3495 3.07975h-.0635v-3.84175zM189.02256 90.583858h-10.6045q.127-1.11125.508-2.159.41275-1.0795 1.0795-1.87325.66675-.8255 1.61925-1.30175.9525-.508 2.19075-.508 1.2065 0 2.159.508.9525.47625 1.61925 1.30175.66675.79375 1.016 1.8415.381 1.04775.41275 2.19075zm-10.6045 1.68275h12.60475q.0635-1.7145-.3175-3.3655-.381-1.68275-1.27-2.95275-.85725-1.30175-2.25425-2.0955-1.397-.79375-3.3655-.79375-1.93675 0-3.3655.762-1.397.73025-2.286 1.9685-.889 1.2065-1.3335 2.76225-.41275 1.55575-.41275 3.175 0 1.74625.41275 3.33375.4445 1.55575 1.3335 2.76225.889 1.17475 2.286 1.87325 1.42875.666752 3.3655.666752 3.1115 0 4.79425-1.524002 1.7145-1.524 2.3495-4.318h-2.00025q-.47625 1.905-1.7145 3.048-1.23825 1.143-3.429 1.143-1.42875 0-2.44475-.60325t-1.68275-1.524q-.66675-.92075-.98425-2.06375-.28575-1.17475-.28575-2.25425zM203.78947 88.329608h2.00025q-.0635-1.3335-.53975-2.31775-.47625-.98425-1.30175-1.651-.79375-.66675-1.87325-.98425-1.04775-.3175-2.286-.3175-1.0795 0-2.19075.254-1.0795.254-1.9685.79375t-1.4605 1.42875q-.53975.889-.53975 2.12725 0 1.04775.34925 1.778.34925.6985.9525 1.2065.635.47625 1.4605.8255.8255.3175 1.80975.5715l2.57175.5715q.66675.15875 1.30175.381.66675.22225 1.17475.5715.508.3175.79375.8255.3175.47625.3175 1.2065 0 .85725-.4445 1.4605-.41275.5715-1.0795.9525t-1.4605.53975q-.762.15875-1.49225.15875-2.00025 0-3.3655-1.016-1.3335-1.04775-1.4605-3.07975h-2.00025q.254 3.01625 2.032 4.3815 1.80975 1.365252 4.699 1.365252 1.143 0 2.31775-.254 1.17475-.254002 2.0955-.825502.9525-.60325 1.55575-1.524.60325-.9525.60325-2.286 0-1.0795-.41275-1.87325-.41275-.79375-1.0795-1.3335-.635-.53975-1.49225-.85725-.8255-.34925-1.68275-.47625l-2.667-.60325q-.508-.127-1.11125-.3175-.60325-.22225-1.11125-.53975-.508-.3175-.85725-.762-.3175-.47625-.3175-1.143 0-.79375.34925-1.3335t.92075-.85725q.5715-.34925 1.23825-.47625.6985-.15875 1.36525-.15875.85725 0 1.61925.22225.762.1905 1.3335.635.60325.4445.9525 1.143.34925.66675.381 1.5875zM207.65669 83.535358l6.5405 16.3195-.6985 1.841502q-.254.5715-.47625 1.04775-.22225.47625-.53975.79375-.3175.34925-.762.53975-.41275.1905-1.0795.1905-.34925 0-.6985-.0635-.3175-.0318-.66675-.0953v1.68275q.254.0953.5715.0953.34925.0318.9525.0635.9525 0 1.55575-.1905.635-.15875 1.0795-.5715.47625-.381.85725-1.0795.381-.66675.8255-1.7145l7.112-18.859502h-2.00025l-5.04825 13.97-5.3975-13.97zM234.2703 88.329608h2.00025q-.0635-1.3335-.53975-2.31775-.47625-.98425-1.30175-1.651-.79375-.66675-1.87325-.98425-1.04775-.3175-2.286-.3175-1.0795 0-2.19075.254-1.0795.254-1.9685.79375t-1.4605 1.42875q-.53975.889-.53975 2.12725 0 1.04775.34925 1.778.34925.6985.9525 1.2065.635.47625 1.4605.8255.8255.3175 1.80975.5715l2.57175.5715q.66675.15875 1.30175.381.66675.22225 1.17475.5715.508.3175.79375.8255.3175.47625.3175 1.2065 0 .85725-.4445 1.4605-.41275.5715-1.0795.9525t-1.4605.53975q-.762.15875-1.49225.15875-2.00025 0-3.3655-1.016-1.3335-1.04775-1.4605-3.07975h-2.00025q.254 3.01625 2.032 4.3815 1.80975 1.365252 4.699 1.365252 1.143 0 2.31775-.254 1.17475-.254002 2.0955-.825502.9525-.60325 1.55575-1.524.60325-.9525.60325-2.286 0-1.0795-.41275-1.87325-.41275-.79375-1.0795-1.3335-.635-.53975-1.49225-.85725-.8255-.34925-1.68275-.47625l-2.667-.60325q-.508-.127-1.11125-.3175-.60325-.22225-1.11125-.53975-.508-.3175-.85725-.762-.3175-.47625-.3175-1.143 0-.79375.34925-1.3335t.92075-.85725q.5715-.34925 1.23825-.47625.6985-.15875 1.36525-.15875.85725 0 1.61925.22225.762.1905 1.3335.635.60325.4445.9525 1.143.34925.66675.381 1.5875zM243.15402 83.535358v-4.92125h-2.00025v4.92125h-2.8575v1.68275h2.8575v11.20775q-.0318 2.0955.762 2.88925.79375.762002 2.794.762002.4445 0 .889-.0318t.889-.0318v-1.682752q-.85725.09525-1.7145.09525-1.0795-.0635-1.36525-.60325-.254-.5715-.254-1.55575v-11.049h3.33375v-1.68275zM261.44864 90.583858h-10.6045q.127-1.11125.508-2.159.41275-1.0795 1.0795-1.87325.66675-.8255 1.61925-1.30175.9525-.508 2.19075-.508 1.2065 0 2.159.508.9525.47625 1.61925 1.30175.66675.79375 1.016 1.8415.381 1.04775.41275 2.19075zm-10.6045 1.68275h12.60475q.0635-1.7145-.3175-3.3655-.381-1.68275-1.27-2.95275-.85725-1.30175-2.25425-2.0955-1.397-.79375-3.3655-.79375-1.93675 0-3.3655.762-1.397.73025-2.286 1.9685-.889 1.2065-1.3335 2.76225-.41275 1.55575-.41275 3.175 0 1.74625.41275 3.33375.4445 1.55575 1.3335 2.76225.889 1.17475 2.286 1.87325 1.42875.666752 3.3655.666752 3.1115 0 4.79425-1.524002 1.7145-1.524 2.3495-4.318h-2.00025q-.47625 1.905-1.7145 3.048-1.23825 1.143-3.429 1.143-1.42875 0-2.44475-.60325t-1.68275-1.524q-.66675-.92075-.98425-2.06375-.28575-1.17475-.28575-2.25425zM266.42908 83.535358v16.383h2.00025v-9.144q0-1.30175.28575-2.38125.28575-1.11125.85725-1.905.60325-.8255 1.524-1.27.9525-.47625 2.2225-.47625.9525 0 1.61925.3175.66675.3175 1.04775.889.41275.53975.5715 1.30175.1905.73025.1905 1.55575v11.1125h2.00025v-9.271q0-1.143.1905-2.19075.22225-1.0795.73025-1.905.508-.8255 1.36525-1.30175.85725-.508 2.159-.508 2.159 0 3.01625 1.0795.85725 1.04775.85725 3.07975v11.01725h2.00025v-11.1125q0-5.74675-5.42925-5.74675-1.61925 0-3.048.79375t-2.159 2.413q-.4445-1.61925-1.778-2.413-1.30175-.79375-2.921-.79375-2.00025 0-3.302.85725-1.27.85725-2.06375 2.38125h-.0953v-2.76225zM304.95192 90.583858h-10.6045q.127-1.11125.508-2.159.41275-1.0795 1.0795-1.87325.66675-.8255 1.61925-1.30175.9525-.508 2.19075-.508 1.2065 0 2.159.508.9525.47625 1.61925 1.30175.66675.79375 1.016 1.8415.381 1.04775.41275 2.19075zm-10.6045 1.68275h12.60475q.0635-1.7145-.3175-3.3655-.381-1.68275-1.27-2.95275-.85725-1.30175-2.25425-2.0955-1.397-.79375-3.3655-.79375-1.93675 0-3.3655.762-1.397.73025-2.286 1.9685-.889 1.2065-1.3335 2.76225-.41275 1.55575-.41275 3.175 0 1.74625.41275 3.33375.4445 1.55575 1.3335 2.76225.889 1.17475 2.286 1.87325 1.42875.666752 3.3655.666752 3.1115 0 4.79425-1.524002 1.7145-1.524 2.3495-4.318h-2.00025q-.47625 1.905-1.7145 3.048-1.23825 1.143-3.429 1.143-1.42875 0-2.44475-.60325t-1.68275-1.524q-.66675-.92075-.98425-2.06375-.28575-1.17475-.28575-2.25425z" style="font-weight:300;font-family:'Helvetica Neue';-inkscape-font-specification:'Helvetica Neue Light';fill:#fff" transform="translate(108.8531632 -28.7660662)"/></g><g aria-label="Dr.-Ing. Jürgen Ehret" style="font-size:23.8125px;line-height:1.25;font-family:'PT Sans';-inkscape-font-specification:'PT Sans';text-align:center;letter-spacing:.529167px;text-anchor:middle;display:inline;stroke-width:.264583"><path d="M70.029494 124.71315h7.0485q1.952625 0 3.381375.66675 1.42875.66675 2.333625 1.83356.904875 1.143 1.3335 2.69081.452437 1.54781.452437 3.30994 0 1.76212-.452437 3.30994-.428625 1.54781-1.3335 2.71462-.904875 1.143-2.333625 1.80975t-3.381375.66675h-7.0485zm2.976562 14.57325h2.928938q1.738312 0 2.833687-.45244 1.119188-.47625 1.738313-1.28588.642937-.83343.85725-1.92881.238125-1.11919.238125-2.40506 0-1.28588-.238125-2.38125-.214313-1.11919-.85725-1.92881-.619125-.83344-1.738313-1.28588-1.095375-.47625-2.833687-.47625h-2.928938zM87.385913 129.40421h2.547937v2.38125h.04762q.119063-.50006.452438-.97631.357187-.47625.833437-.85725.500063-.40482 1.095375-.64294.595313-.23813 1.214438-.23813.47625 0 .642937.0238l.381.0476v2.61938q-.28575-.0476-.595312-.0714-.28575-.0476-.5715-.0476-.690563 0-1.309688.28575-.595312.26194-1.04775.80963-.452437.52387-.714375 1.30969-.261937.78581-.261937 1.80975v5.85787h-2.714625zM94.2894 138.50058h3.309937v3.21469H94.2894ZM100.92572 133.9524h6.92944v2.57175h-6.92944zM111.35307 124.71315h2.97656v17.00212h-2.97656zM118.10549 129.40421h2.57175v1.80975l.0476.0476q.61913-1.02393 1.61925-1.59543 1.00013-.59532 2.21456-.59532 2.02407 0 3.19088 1.04775t1.16681 3.14325v8.45344h-2.71462v-7.73906q-.0476-1.45256-.61913-2.0955-.5715-.66675-1.78594-.66675-.69056 0-1.23825.26194-.54768.23812-.92868.69056-.381.42862-.59532 1.02394-.21431.59531-.21431 1.26206v7.26281h-2.71462zM143.69061 141.07233q0 2.78607-1.57162 4.14338-1.54781 1.38112-4.47675 1.38112-.92869 0-1.88119-.1905-.92869-.1905-1.7145-.64293-.762-.45244-1.28587-1.19063-.52388-.73819-.61913-1.80975h2.71463q.11906.5715.40481.92869t.66675.54769q.40481.21431.88106.26193.47625.0714 1.00013.0714 1.64306 0 2.40506-.80962.762-.80963.762-2.33363v-1.88119h-.0476q-.5715 1.02394-1.57162 1.59544-.97631.5715-2.11931.5715-1.47638 0-2.52413-.50006-1.02394-.52388-1.7145-1.40494-.66675-.90487-.97631-2.07169-.30956-1.16681-.30956-2.50031 0-1.23825.381-2.35744.381-1.11918 1.09537-1.95262.71438-.85725 1.73831-1.35731 1.04775-.50007 2.35744-.50007 1.16681 0 2.14313.50007.97631.47625 1.50018 1.524h.0476v-1.69069h2.71462zm-6.02456-1.50018q.90488 0 1.524-.35719.64294-.381 1.02394-.97631.40481-.61913.5715-1.38113.1905-.78581.1905-1.57162 0-.78582-.1905-1.524-.1905-.73819-.59531-1.30969-.381-.5715-1.02394-.90488-.61913-.33337-1.50019-.33337-.90487 0-1.524.381-.61912.381-1.00012 1.00012-.381.59532-.54769 1.38113-.16669.762-.16669 1.524t.1905 1.50019q.1905.71437.5715 1.28587.40481.5715 1.00013.92869.61912.35719 1.47637.35719zM147.19039 138.50058h3.30994v3.21469h-3.30994zM170.79172 136.2384q0 1.11918-.1905 2.16693-.1905 1.04775-.78581 1.88119-.5715.83344-1.69069 1.3335-1.09538.50006-2.92894.50006-1.35731 0-2.30981-.40481-.9525-.42862-1.57163-1.143-.61912-.73819-.90487-1.73831-.28575-1.00013-.28575-2.16694v-.90487h2.97656v.88106q0 1.45256.47625 2.26219.50006.78581 1.85738.78581.71437 0 1.16681-.21431.47625-.21432.73819-.61913.28575-.42862.381-1.04775.0952-.61912.0952-1.40494v-11.69193h2.97656zM185.37287 141.71527h-2.667v-1.7145h-.0476q-.50006.92869-1.50019 1.50019-.97631.54769-2.00025.54769-2.42887 0-3.52425-1.19063-1.07156-1.21444-1.07156-3.64331v-7.8105h2.71463v7.54856q0 1.61925.61912 2.286.61913.66675 1.73831.66675.85725 0 1.42875-.26194.5715-.26193.92869-.69056.35719-.45244.50006-1.07156.16669-.61913.16669-1.3335v-7.14375h2.71463zm-8.83444-14.33512v-2.57175h2.71462v2.57175zm6.81037-2.57175v2.57175h-2.71462v-2.57175zM188.76474 129.40421h2.54794v2.38125h.0476q.11906-.50006.45243-.97631.35719-.47625.83344-.85725.50006-.40482 1.09538-.64294.59531-.23813 1.21443-.23813.47625 0 .64294.0238l.381.0476v2.61938q-.28575-.0476-.59531-.0714-.28575-.0476-.5715-.0476-.69056 0-1.30969.28575-.59531.26194-1.04775.80963-.45244.52387-.71437 1.30969-.26194.78581-.26194 1.80975v5.85787h-2.71463zM209.04787 141.07233q0 2.78607-1.57163 4.14338-1.54781 1.38112-4.47675 1.38112-.92869 0-1.88119-.1905-.92868-.1905-1.7145-.64293-.762-.45244-1.28587-1.19063-.52388-.73819-.61913-1.80975h2.71463q.11906.5715.40481.92869t.66675.54769q.40481.21431.88106.26193.47625.0714 1.00013.0714 1.64306 0 2.40506-.80962.762-.80963.762-2.33363v-1.88119h-.0476q-.5715 1.02394-1.57163 1.59544-.97631.5715-2.11931.5715-1.47638 0-2.52413-.50006-1.02393-.52388-1.7145-1.40494-.66675-.90487-.97631-2.07169-.30956-1.16681-.30956-2.50031 0-1.23825.381-2.35744.381-1.11918 1.09537-1.95262.71438-.85725 1.73832-1.35731 1.04775-.50007 2.35743-.50007 1.16682 0 2.14313.50007.97631.47625 1.50019 1.524h.0476v-1.69069h2.71463zm-6.02457-1.50018q.90488 0 1.524-.35719.64294-.381 1.02394-.97631.40481-.61913.5715-1.38113.1905-.78581.1905-1.57162 0-.78582-.1905-1.524-.1905-.73819-.59531-1.30969-.381-.5715-1.02394-.90488-.61912-.33337-1.50019-.33337-.90487 0-1.524.381-.61912.381-1.00012 1.00012-.381.59532-.54769 1.38113-.16669.762-.16669 1.524t.1905 1.50019q.1905.71437.5715 1.28587.40482.5715 1.00013.92869.61912.35719 1.47637.35719zM220.78676 134.47627q-.0476-.64294-.28575-1.23825-.21431-.59531-.61912-1.02394-.381-.45243-.9525-.71437-.54769-.28575-1.23825-.28575-.71438 0-1.30969.26194-.5715.23812-1.00013.69056-.40481.42862-.66675 1.02394-.23812.59531-.26193 1.28587zm-6.33412 1.78594q0 .71437.1905 1.38112.21431.66675.61912 1.16682.40481.50006 1.02394.80962.61912.28575 1.47637.28575 1.19063 0 1.905-.50006.73819-.52388 1.09538-1.54781h2.57175q-.21431 1.00012-.73819 1.78593-.52387.78582-1.26206 1.3335-.73819.52388-1.66688.78582-.90487.28575-1.905.28575-1.45256 0-2.57175-.47625-1.11918-.47625-1.905-1.3335-.762-.85725-1.16681-2.04788-.381-1.19062-.381-2.61937 0-1.30969.40481-2.4765.42863-1.19063 1.19063-2.07169.78581-.90488 1.88119-1.42875 1.09537-.52388 2.4765-.52388 1.45256 0 2.59556.61913 1.16681.59531 1.92881 1.59544.762 1.00012 1.09538 2.30981.35718 1.28587.1905 2.667zM226.1175 129.40421h2.57175v1.80975l.0476.0476q.61912-1.02393 1.61925-1.59543 1.00012-.59532 2.21456-.59532 2.02406 0 3.19088 1.04775 1.16681 1.04775 1.16681 3.14325v8.45344h-2.71463v-7.73906q-.0476-1.45256-.61912-2.0955-.5715-.66675-1.78594-.66675-.69056 0-1.23825.26194-.54769.23812-.92869.69056-.381.42862-.59531 1.02394-.21431.59531-.21431 1.26206v7.26281h-2.71463zM247.83467 124.71315h12.23962v2.57175h-9.26306v4.45293h8.5725v2.42888h-8.5725v4.97681h9.42975v2.57175h-12.40631zM263.00517 124.71315h2.71462v6.31031h.0476q.50006-.83344 1.47637-1.38113 1.00013-.5715 2.21457-.5715 2.02406 0 3.19087 1.04775t1.16681 3.14325v8.45344h-2.71462v-7.73906q-.0476-1.45256-.61913-2.0955-.5715-.66675-1.78593-.66675-.69057 0-1.23825.26194-.54769.23812-.92869.69056-.381.42862-.59531 1.02394-.21432.59531-.21432 1.26206v7.26281h-2.71462zM277.20793 129.40421h2.54793v2.38125h.0476q.11906-.50006.45244-.97631.35718-.47625.83343-.85725.50007-.40482 1.09538-.64294.59531-.23813 1.21444-.23813.47625 0 .64293.0238l.381.0476v2.61938q-.28575-.0476-.59531-.0714-.28575-.0476-.5715-.0476-.69056 0-1.30969.28575-.59531.26194-1.04775.80963-.45243.52387-.71437 1.30969-.26194.78581-.26194 1.80975v5.85787h-2.71462zM294.11524 134.47627q-.0476-.64294-.28575-1.23825-.21432-.59531-.61913-1.02394-.381-.45243-.9525-.71437-.54769-.28575-1.23825-.28575-.71437 0-1.30969.26194-.5715.23812-1.00012.69056-.40481.42862-.66675 1.02394-.23813.59531-.26194 1.28587zm-6.33413 1.78594q0 .71437.1905 1.38112.21431.66675.61913 1.16682.40481.50006 1.02393.80962.61913.28575 1.47638.28575 1.19062 0 1.905-.50006.73819-.52388 1.09537-1.54781h2.57175q-.21431 1.00012-.73818 1.78593-.52388.78582-1.26207 1.3335-.73818.52388-1.66687.78582-.90488.28575-1.905.28575-1.45256 0-2.57175-.47625-1.11919-.47625-1.905-1.3335-.762-.85725-1.16681-2.04788-.381-1.19062-.381-2.61937 0-1.30969.40481-2.4765.42862-1.19063 1.19062-2.07169.78582-.90488 1.88119-1.42875 1.09538-.52388 2.4765-.52388 1.45256 0 2.59556.61913 1.16682.59531 1.92882 1.59544.762 1.00012 1.09537 2.30981.35719 1.28587.1905 2.667zM298.18951 129.40421h2.04787v-3.69094h2.71463v3.69094h2.45269v2.02406h-2.45269v6.57225q0 .42863.0238.73819.0476.30956.16669.52387.14287.21432.40481.33338.26194.0953.71438.0953h.5715q.28575-.0238.5715-.0953v2.0955q-.45244.0476-.88107.0952-.42862.0476-.88106.0476-1.07156 0-1.73831-.1905-.64294-.21431-1.02394-.59531-.35719-.40481-.50006-1.00012-.11906-.59532-.14288-1.35732v-7.26281h-2.04787z" style="font-weight:500;font-family:'Helvetica Neue';-inkscape-font-specification:'Helvetica Neue Medium';fill:#fff" transform="translate(108.8531632 -37.699085)"/></g><g aria-label="Ingenieurbüro" style="font-weight:700;font-size:31.75px;line-height:1.25;font-family:'PT Sans';-inkscape-font-specification:'PT Sans Bold';text-align:center;letter-spacing:4.15396px;text-anchor:middle;display:inline;stroke-width:.264583"><path d="M74.67672 36.577303v22.6695h2.159v-22.6695zM85.328516 42.863803v16.383h2.00025v-9.55675q.03175-1.2065.381-2.2225.381-1.04775 1.016-1.778.66675-.762 1.5875-1.17475.9525-.4445 2.159-.4445 1.2065 0 2.00025.381.8255.381 1.30175 1.04775.47625.66675.66675 1.5875.1905.889.1905 1.93675v10.2235h2.00025v-10.541q0-1.4605-.28575-2.63525-.28575-1.17475-.98425-1.9685-.6985-.8255-1.87325-1.27-1.143-.4445-2.8575-.4445-1.74625 0-3.20675.92075-1.4605.889-2.032 2.38125h-.0635v-2.82575zM120.41045 57.913303v-15.0495h-2.00025v2.82575h-.0635q-.28575-.66675-.8255-1.27-.508-.60325-1.17475-1.04775-.66675-.47625-1.49225-.73025-.79375-.254-1.7145-.254-1.778 0-3.175.66675-1.36525.635-2.31775 1.778-.92075 1.11125-1.42875 2.63525-.47625 1.49225-.47625 3.175 0 1.74625.41275 3.302.41275 1.524 1.30175 2.667.92075 1.143 2.31775 1.80975 1.397.635 3.3655.635 1.80975 0 3.14325-.92075 1.36525-.92075 2.06375-2.44475h.0635v2.2225q0 2.9845-1.23825 4.572t-4.03225 1.5875q-.8255 0-1.61925-.1905-.79375-.15875-1.4605-.53975-.635-.381-1.11125-1.016-.4445-.60325-.60325-1.524h-2.00025q.0952 1.30175.6985 2.2225.635.9525 1.55575 1.55575.9525.60325 2.12725.889 1.17475.28575 2.413.28575 2.00025 0 3.3655-.53975 1.397-.53975 2.25425-1.55575.85725-1.016 1.23825-2.4765.41275-1.4605.41275-3.27025zm-7.27075-.53975q-1.397 0-2.413-.53975-1.016-.5715-1.68275-1.4605-.66675-.92075-.98425-2.0955t-.3175-2.413q0-1.27.28575-2.4765.3175-1.23825.98425-2.19075.66675-.9525 1.68275-1.524 1.016-.60325 2.44475-.60325t2.413.60325q1.016.60325 1.651 1.5875t.92075 2.19075q.28575 1.2065.28575 2.413 0 1.23825-.34925 2.413-.3175 1.17475-.98425 2.0955-.66675.889-1.651 1.4605-.98425.53975-2.286.53975zM140.174 49.912303h-10.6045q.127-1.11125.508-2.159.41275-1.0795 1.0795-1.87325.66675-.8255 1.61925-1.30175.9525-.508 2.19075-.508 1.2065 0 2.159.508.9525.47625 1.61925 1.30175.66675.79375 1.016 1.8415.381 1.04775.41275 2.19075zm-10.6045 1.68275h12.60475q.0635-1.7145-.3175-3.3655-.381-1.68275-1.27-2.95275-.85725-1.30175-2.25425-2.0955-1.397-.79375-3.3655-.79375-1.93675 0-3.3655.762-1.397.73025-2.286 1.9685-.889 1.2065-1.3335 2.76225-.41275 1.55575-.41275 3.175 0 1.74625.41275 3.33375.4445 1.55575 1.3335 2.76225.889 1.17475 2.286 1.87325 1.42875.66675 3.3655.66675 3.1115 0 4.79425-1.524 1.7145-1.524 2.3495-4.318h-2.00025q-.47625 1.905-1.7145 3.048-1.23825 1.143-3.429 1.143-1.42875 0-2.44475-.60325t-1.68275-1.524q-.66675-.92075-.98425-2.06375-.28575-1.17475-.28575-2.25425zM149.01208 42.863803v16.383h2.00025v-9.55675q.0318-1.2065.381-2.2225.381-1.04775 1.016-1.778.66675-.762 1.5875-1.17475.9525-.4445 2.159-.4445 1.2065 0 2.00025.381.8255.381 1.30175 1.04775.47625.66675.66675 1.5875.1905.889.1905 1.93675v10.2235h2.00025v-10.541q0-1.4605-.28575-2.63525-.28575-1.17475-.98425-1.9685-.6985-.8255-1.87325-1.27-1.143-.4445-2.8575-.4445-1.74625 0-3.20675.92075-1.4605.889-2.032 2.38125h-.0635v-2.82575zM170.28276 36.577303v3.20675h2.00025v-3.20675zm0 6.2865v16.383h2.00025v-16.383zM192.07533 49.912303h-10.6045q.127-1.11125.508-2.159.41275-1.0795 1.0795-1.87325.66675-.8255 1.61925-1.30175.9525-.508 2.19075-.508 1.2065 0 2.159.508.9525.47625 1.61925 1.30175.66675.79375 1.016 1.8415.381 1.04775.41275 2.19075zm-10.6045 1.68275h12.60475q.0635-1.7145-.3175-3.3655-.381-1.68275-1.27-2.95275-.85725-1.30175-2.25425-2.0955-1.397-.79375-3.3655-.79375-1.93675 0-3.3655.762-1.397.73025-2.286 1.9685-.889 1.2065-1.3335 2.76225-.41275 1.55575-.41275 3.175 0 1.74625.41275 3.33375.4445 1.55575 1.3335 2.76225.889 1.17475 2.286 1.87325 1.42875.66675 3.3655.66675 3.1115 0 4.79425-1.524 1.7145-1.524 2.3495-4.318h-2.00025q-.47625 1.905-1.7145 3.048-1.23825 1.143-3.429 1.143-1.42875 0-2.44475-.60325t-1.68275-1.524q-.66675-.92075-.98425-2.06375-.28575-1.17475-.28575-2.25425zM214.21666 59.246803v-16.383h-2.00025v8.60425q0 1.23825-.28575 2.44475-.28575 1.17475-.889 2.0955-.60325.92075-1.524 1.49225-.92075.53975-2.2225.53975-2.38125 0-3.3655-1.143-.9525-1.143-1.016-3.3655v-10.668h-2.00025v10.63625q0 1.4605.3175 2.6035t.98425 1.93675q.6985.79375 1.778 1.2065 1.11125.4445 2.667.4445 1.8415 0 3.33375-.85725 1.524-.889 2.31775-2.54h.0635v2.95275zM222.15235 42.863803v16.383h2.00025v-8.73125q0-1.30175.4445-2.38125.4445-1.11125 1.23825-1.905.8255-.79375 1.93675-1.2065 1.11125-.4445 2.4765-.381v-2.00025q-2.2225-.09525-3.84175.98425-1.5875 1.0795-2.3495 3.07975h-.0635v-3.84175zM236.29018 36.577303v22.6695h1.8415v-3.1115h.0635q.6985 1.7145 2.25425 2.63525 1.5875.92075 3.58775.92075 1.87325 0 3.2385-.66675 1.397-.6985 2.31775-1.87325.92075-1.2065 1.36525-2.76225.4445-1.5875.4445-3.33375 0-1.74625-.4445-3.302-.4445-1.5875-1.36525-2.76225-.92075-1.2065-2.31775-1.905-1.36525-.6985-3.2385-.6985-.889 0-1.778.22225t-1.651.6985q-.762.4445-1.36525 1.11125-.5715.66675-.889 1.55575h-.0635v-9.398zm13.11275 14.478q0 1.27-.3175 2.54-.28575 1.23825-.9525 2.2225-.635.98425-1.651 1.61925-1.016.60325-2.44475.60325-1.5875 0-2.69875-.60325-1.0795-.635-1.778-1.61925-.66675-.98425-.98425-2.2225-.28575-1.27-.28575-2.54t.28575-2.50825q.3175-1.27.98425-2.25425.6985-.98425 1.778-1.5875 1.11125-.635 2.69875-.635 1.42875 0 2.44475.635 1.016.60325 1.651 1.5875.66675.98425.9525 2.25425.3175 1.23825.3175 2.50825zM261.40609 40.038053h2.159v-3.20675h-2.159zm5.61975 0h2.159v-3.20675h-2.159zm4.92125 19.20875v-16.383h-2.00025v8.60425q0 1.23825-.28575 2.44475-.28575 1.17475-.889 2.0955-.60325.92075-1.524 1.49225-.92075.53975-2.2225.53975-2.38125 0-3.3655-1.143-.9525-1.143-1.016-3.3655v-10.668h-2.00025v10.63625q0 1.4605.3175 2.6035t.98425 1.93675q.6985.79375 1.778 1.2065 1.11125.4445 2.667.4445 1.8415 0 3.33375-.85725 1.524-.889 2.31775-2.54h.0635v2.95275zM279.88277 42.863803v16.383h2.00025v-8.73125q0-1.30175.4445-2.38125.4445-1.11125 1.23825-1.905.8255-.79375 1.93675-1.2065 1.11125-.4445 2.4765-.381v-2.00025q-2.2225-.09525-3.84175.98425-1.5875 1.0795-2.3495 3.07975h-.0635v-3.84175zM300.34628 44.070303q1.42875 0 2.50825.60325t1.778 1.5875q.73025.98425 1.0795 2.25425.381 1.23825.381 2.54t-.381 2.57175q-.34925 1.23825-1.0795 2.2225-.6985.98425-1.778 1.5875t-2.50825.60325q-1.42875 0-2.50825-.60325t-1.80975-1.5875q-.6985-.98425-1.0795-2.2225-.34925-1.27-.34925-2.57175 0-1.30175.34925-2.54.381-1.27 1.0795-2.25425.73025-.98425 1.80975-1.5875t2.50825-.60325zm0-1.68275q-1.87325 0-3.33375.6985-1.42875.6985-2.413 1.87325-.98425 1.17475-1.49225 2.76225-.508 1.55575-.508 3.33375 0 1.778.508 3.3655.508 1.55575 1.49225 2.7305.98425 1.17475 2.413 1.87325 1.4605.66675 3.33375.66675 1.87325 0 3.302-.66675 1.4605-.6985 2.44475-1.87325.98425-1.17475 1.49225-2.7305.508-1.5875.508-3.3655t-.508-3.33375q-.508-1.5875-1.49225-2.76225-.98425-1.17475-2.44475-1.87325-1.42875-.6985-3.302-.6985z" style="font-weight:300;font-family:'Helvetica Neue';-inkscape-font-specification:'Helvetica Neue Light';fill:#fff" transform="translate(105.87614294 -23.9878827)"/></g></g></svg>