<svg width="94.827988" height="61.259052" viewBox="0 0 25.0899 16.208119" xmlns="http://www.w3.org/2000/svg"><path style="display:inline;fill:none;fill-opacity:1;stroke:#fff;stroke-width:.264583;stroke-miterlimit:4;stroke-dasharray:none;stroke-opacity:1;stop-color:#000" d="M28.63771 28.736602a1.5389348.88994557 0 0 1-1.538925.889939 1.5389348.88994557 0 0 1-1.538925-.889939 1.5389348.88994557 0 0 1 1.538925-.889937 1.5389348.88994557 0 0 1 1.538925.889937z" transform="translate(-6.2410143 -20.590326)"/><path style="display:inline;fill:none;fill-opacity:1;stroke:#fff;stroke-width:.396875;stroke-miterlimit:4;stroke-dasharray:none;stroke-opacity:1;stop-color:#000" d="M28.869954 28.727221a2.5956692 1.5461065 0 0 1-2.595655 1.546095 2.5956692 1.5461065 0 0 1-2.595656-1.546095 2.5956692 1.5461065 0 0 1 2.595656-1.546092 2.5956692 1.5461065 0 0 1 2.595655 1.546092z" transform="translate(-6.2410143 -20.590326)"/><path style="display:inline;fill:none;fill-opacity:1;stroke:#fff;stroke-width:.529167;stroke-miterlimit:4;stroke-dasharray:none;stroke-opacity:1;stop-color:#000" d="M29.2795 28.717837a4.358302 2.6608621 0 0 1-4.358279 2.660844 4.358302 2.6608621 0 0 1-4.358268-2.660844 4.358302 2.6608621 0 0 1 4.358268-2.660836 4.358302 2.6608621 0 0 1 4.358279 2.660836z" transform="translate(-6.2410143 -20.590326)"/><path style="display:inline;fill:none;fill-opacity:1;stroke:#fff;stroke-width:.846667;stroke-miterlimit:4;stroke-dasharray:none;stroke-opacity:1;stop-color:#000" d="M29.898676 28.708455a7.2630818 4.5176261 0 0 1-7.263047 4.517594 7.2630818 4.5176261 0 0 1-7.263035-4.517594 7.2630818 4.5176261 0 0 1 7.263035-4.517584 7.2630818 4.5176261 0 0 1 7.263047 4.517584z" transform="translate(-6.2410143 -20.590326)"/><path style="display:inline;fill:none;fill-opacity:1;stroke:#fff;stroke-width:8.99943;stroke-miterlimit:4;stroke-dasharray:none;stroke-opacity:1;stop-color:#000" d="M242.628 84.420868a102.17561 64.412905 0 0 1-102.1752 64.412452A102.17561 64.412905 0 0 1 38.2779 84.420868a102.17561 64.412905 0 0 1 102.1749-64.4123 102.17561 64.412905 0 0 1 102.1752 64.4123z" transform="translate(-3.9723143 -1.823841) scale(.1176)"/></svg>