<svg width="882.73358" height="947.04651" viewBox="0 0 233.55653 250.57266" xmlns="http://www.w3.org/2000/svg"><defs><path id="f" d="M-44.056216 1066.7898h1148.6085v506.64649h-1148.6085z"/><path id="c" d="M1600.6648 5530.2114h158.57976v94.550331H1600.6648z"/><path id="b" d="M157-13h55v40h-55z"/><path id="e" d="M1600.6648 5530.2114h158.57976v94.550331H1600.6648z"/><path id="d" d="M157-13h55v40h-55z"/><filter style="color-interpolation-filters:sRGB" id="a" x="-.05642297" y="-.03515585" width="1.1128459" height="1.0703117"><feGaussianBlur stdDeviation="1.1384116"/></filter></defs><text xml:space="preserve" transform="matrix(.26458 0 0 .26458 -119.50634 -1942.7517)" style="font-size:36px;line-height:1.25;font-family:Lato;-inkscape-font-specification:Lato;text-align:center;letter-spacing:0;white-space:pre;shape-inside:url(#b)"><tspan x="157" y="60.48"><tspan dx="0 20.882812 20.039062 14.484375 18.84375">Ehret</tspan></tspan></text><text xml:space="preserve" transform="matrix(.26458 0 0 .26458 426.53347 -2150.4431)" style="font-size:36px;line-height:1.25;font-family:Lato;-inkscape-font-specification:Lato;text-align:center;letter-spacing:0;white-space:pre;shape-inside:url(#d)"><tspan x="157" y="60.48"><tspan dx="0 20.882812 20.039062 14.484375 18.84375">Ehret</tspan></tspan></text><g style="display:inline"><path style="display:inline;vector-effect:none;fill:#000;fill-opacity:.35;stroke-width:.828176;stroke-opacity:.968165;stop-color:#000" d="M425.60398-142.17639h233.55654v250.57266H425.60398Z" transform="translate(-425.60398 142.17639)"/></g><g style="display:inline"><g aria-label="Software Systems" style="font-size:21.1667px;line-height:1.25;font-family:'PT Sans';-inkscape-font-specification:'PT Sans';text-align:center;letter-spacing:.47625px;text-anchor:middle;display:inline;stroke-width:.264583"><path d="M-136.63059 353.95926h-3.21734q-.0212 1.397.508 2.413.52917 1.01601 1.41817 1.67217.91017.65617 2.07434.95251 1.18534.3175 2.43417.3175 1.54517 0 2.70934-.35984 1.18533-.35983 1.9685-.99483.80434-.65617 1.2065-1.54517.40217-.889.40217-1.92617 0-1.27-.55033-2.07434-.52917-.8255-1.27001-1.31233-.74083-.48684-1.50283-.6985-.74084-.23284-1.16417-.31751-1.41817-.35983-2.30717-.59266-.86783-.23284-1.37584-.46567-.48683-.23283-.65616-.508-.16934-.27517-.16934-.71967 0-.48683.21167-.80433t.52917-.52917q.33867-.21167.74083-.29633.40217-.0847.80434-.0847.61383 0 1.12183.10583.52917.10584.93134.35984.40216.254.635.6985.254.4445.29633 1.12183h3.21734q0-1.31233-.508-2.2225-.48683-.93134-1.3335-1.524-.84667-.59267-1.94734-.84667-1.0795-.27517-2.26484-.27517-1.016 0-2.032.27517t-1.82034.84667q-.80433.5715-1.31233 1.43933-.48684.84667-.48684 2.01084 0 1.03717.38101 1.778.40216.71967 1.03716 1.2065.635.48684 1.43934.80434.80433.29633 1.651.508.8255.23283 1.62984.42333.80433.1905 1.43933.4445t1.01601.635q.40216.381.40216.99484 0 .5715-.29633.9525-.29633.35983-.74084.5715-.4445.21167-.9525.29634-.508.0635-.9525.0635-.65617 0-1.27-.14817-.61384-.16934-1.0795-.48684-.4445-.33866-.71967-.86783-.27517-.52917-.27517-1.29117zM-122.34439 353.51476q0-.65617.127-1.29117.127-.635.42334-1.12183.3175-.48684.8255-.78317.508-.3175 1.27-.3175t1.27.3175q.52917.29633.8255.78317.3175.48683.4445 1.12183.127.635.127 1.29117 0 .65617-.127 1.29117-.127.61383-.4445 1.12183-.29633.48684-.8255.78317-.508.29634-1.27.29634t-1.27-.29634q-.508-.29633-.8255-.78317-.29634-.508-.42334-1.12183-.127-.635-.127-1.29117zm-3.00567 0q0 1.31234.40217 2.37067.40216 1.05834 1.143 1.82034.74083.74083 1.778 1.143 1.03717.40217 2.32834.40217t2.32834-.40217q1.05833-.40217 1.79917-1.143.74083-.762 1.143-1.82034.40217-1.05833.40217-2.37067t-.40217-2.37067q-.40217-1.0795-1.143-1.82034-.74084-.762-1.79917-1.16416-1.03717-.42334-2.32834-.42334t-2.32834.42334q-1.03717.40216-1.778 1.16416-.74084.74084-1.143 1.82034-.40217 1.05833-.40217 2.37067zM-110.93917 350.04342v8.93235h3.00567v-8.93235h2.07433v-2.01084h-2.07433v-.65616q0-.67734.254-.9525.27516-.29634.889-.29634.5715 0 1.10067.0635v-2.24367q-.381-.0212-.78317-.0423-.40217-.0423-.80434-.0423-1.8415 0-2.75167.93134-.91016.93133-.91016 2.39184v.84666h-1.79917v2.01084zM-100.23974 348.03258v-3.28083h-3.00567v3.28083h-1.82034v2.01084h1.82034v6.45585q0 .8255.27516 1.3335.27517.508.74084.78317.48683.27516 1.10067.35983.635.10583 1.333499.10583.444501 0 .910169-.0212.465667-.0212.846668-.0847v-2.32834q-.211667.0423-.444501.0635-.232834.0212-.486834.0212-.762001 0-1.016002-.254-.253999-.254-.253999-1.016v-5.41868h2.201336v-2.01084zM-83.622556 358.97577l3.450172-10.94319h-3.090338l-2.010837 7.40835h-.04233l-1.86267-7.40835h-2.921005l-1.820336 7.42952h-.04233l-2.010837-7.42952h-3.175005l3.471339 10.94319h3.111505l1.86267-7.34485h.04233l1.947337 7.34485zM-78.543542 351.39809q.0635-1.05833.529167-1.75684.465668-.6985 1.185336-1.12183.719667-.42333 1.608669-.59267.910168-.1905 1.820336-.1905.825501 0 1.672169.127.846668.10583 1.54517.4445.698501.33867 1.143001.9525.444501.59267.444501 1.58751v5.69384q0 .74083.08467 1.41817.08467.67733.296334 1.016h-3.048005q-.08467-.254-.148167-.508-.04233-.27517-.0635-.55034-.719668.74084-1.693336 1.03717-.973668.29634-1.98967.29634-.783168 0-1.460502-.1905-.677335-.1905-1.185336-.59267-.508-.40217-.804334-1.016-.275167-.61384-.275167-1.46051 0-.93133.3175-1.524.338667-.61383.846668-.97367.529168-.35983 1.185335-.52916.677335-.1905 1.354669-.29634.677335-.10583 1.333502-.16933.656168-.0635 1.164169-.1905t.804335-.35984q.296333-.254.275167-.71966 0-.48684-.169334-.762-.148167-.29634-.423334-.44451-.254-.16933-.613834-.21166-.338668-.0635-.740835-.0635-.889001 0-1.397002.381t-.592668 1.27zm6.942678 2.2225q-.190501.16934-.486834.27517-.275168.0847-.613835.14817-.3175.0635-.677334.10583-.359834.0423-.719668.10583-.338667.0635-.677334.16934-.317501.10583-.571501.29633-.232834.16934-.381001.4445-.148167.27517-.148167.6985 0 .40217.148167.67734t.402167.4445q.254001.14817.592668.21167t.698501.0635q.889001 0 1.375836-.29634.486834-.29633.719667-.6985.232834-.42333.275168-.84667.0635-.42333.0635-.67733zM-65.785976 348.03258v10.94319h3.005671v-4.93184q0-.74084.148167-1.37584.148167-.635.486834-1.10067.359834-.48683.931335-.762.571501-.27516 1.397002-.27516.275167 0 .571501.0423.296334.0212.508001.0635v-2.79401q-.359834-.10583-.656168-.10583-.571501 0-1.100668.16933-.529168.16934-.994835.48684-.465667.29633-.825501.74083-.359834.42334-.571501.93134h-.04233v-2.03201zM-50.114033 352.32943h-4.889508q.02117-.31751.127-.71967.127-.40217.402167-.762.296334-.35984.762001-.59267.486835-.254 1.206502-.254 1.100669 0 1.629836.59267.550335.59266.762002 1.73567zm-4.889508 1.905h7.895179q.08467-1.27-.211667-2.43417-.296334-1.16417-.973668-2.07434-.656168-.91017-1.693336-1.43933-1.037169-.55034-2.434171-.55034-1.248835 0-2.286003.4445-1.016002.4445-1.756837 1.22767-.740834.762-1.143001 1.82034-.402168 1.05833-.402168 2.286 0 1.27.381001 2.32834.402167 1.05833 1.121835 1.82033t1.756836 1.18534q1.037168.40217 2.328337.40217 1.86267 0 3.175005-.84667 1.312336-.84667 1.947337-2.81517H-49.9447q-.148167.508-.804334.97367-.656168.4445-1.566336.4445-1.270002 0-1.947337-.65617-.677334-.65617-.740834-2.11667zM-35.936633 353.95926h-3.217338q-.02117 1.397.508 2.413.529168 1.01601 1.418169 1.67217.910168.65617 2.074337.95251 1.185335.3175 2.434171.3175 1.545169 0 2.709337-.35984 1.185335-.35983 1.968503-.99483.804335-.65617 1.206502-1.54517.402168-.889.402168-1.92617 0-1.27-.550335-2.07434-.529167-.8255-1.270002-1.31233-.740834-.48684-1.502835-.6985-.740835-.23284-1.164169-.31751-1.418169-.35983-2.30717-.59266-.867835-.23284-1.375836-.46567-.486834-.23283-.656167-.508-.169334-.27517-.169334-.71967 0-.48683.211667-.80433t.529167-.52917q.338668-.21167.740835-.29633.402167-.0847.804335-.0847.613834 0 1.121835.10583.529167.10584.931334.35984.402168.254.635001.6985.254001.4445.296334 1.12183h3.217339q0-1.31233-.508001-2.2225-.486834-.93134-1.333502-1.524-.846668-.59267-1.947337-.84667-1.079501-.27517-2.264837-.27517-1.016001 0-2.032003.27517-1.016001.27517-1.820336.84667t-1.312335 1.43933q-.486835.84667-.486835 2.01084 0 1.03717.381001 1.778.402167.71967 1.037168 1.2065.635001.48684 1.439336.80434.804335.29633 1.651003.508.825501.23283 1.629836.42333.804334.1905 1.439335.4445t1.016002.635q.402167.381.402167.99484 0 .5715-.296334.9525-.296333.35983-.740834.5715-.444501.21167-.952502.29634-.508001.0635-.952501.0635-.656168 0-1.270002-.14817-.613835-.16934-1.079502-.48684-.444501-.33866-.719668-.86783-.275167-.52917-.275167-1.29117zM-18.919931 360.33044l4.572007-12.29786h-3.111505l-2.391837 7.49302h-.04233l-2.476503-7.49302h-3.196172l3.831173 10.26585q.127.31751.127.67734 0 .48683-.296334.889-.275167.40217-.867835.46567-.4445.0212-.889001-.0212-.444501-.0423-.867835-.0847v2.47651q.465668.0423.910168.0635.465668.0423.931335.0423 1.545169 0 2.413004-.5715.867835-.5715 1.354669-1.905zM-10.516088 355.41976h-2.857505q.04233 1.10067.486835 1.84151.465667.71966 1.164168 1.16416.719668.44451 1.629836.63501.9101681.1905 1.8626696.1905.9313348 0 1.8203363-.1905.9101681-.16934 1.6086692-.61384.6985011-.4445 1.1218351-1.16417.4445007-.74083.4445007-1.82033 0-.762-.2963338-1.27001-.2963338-.52916-.7831679-.86783-.4868341-.35983-1.1218351-.5715-.6138343-.21167-1.270002-.35983-.6350011-.14817-1.2488354-.27517-.6138343-.127-1.1006684-.27517-.4656674-.16933-.7620012-.42333-.2963341-.254-.2963341-.65617 0-.33867.1693339-.52917.1693336-.21167.4021673-.3175.2540004-.10583.5503342-.127.2963338-.0423.5503342-.0423.8043346 0 1.3970022.3175.5926677.29633.6561678 1.16417h2.8575045q-.084667-1.016-.5291675-1.67217-.423334-.67734-1.0795017-1.0795-.6561677-.40217-1.5028357-.57151-.8255014-.16933-1.7145028-.16933-.8890014 0-1.7356694.16933-.846668.14817-1.524002.55034-.677335.381-1.100669 1.05833-.402167.67734-.402167 1.73567 0 .71967.296334 1.22767.296333.48684.783168.8255.486834.3175 1.100668.52917.635001.1905 1.2911687.33867 1.6086692.33867 2.4976706.67733.9101682.33867.9101682 1.016 0 .40217-.1905003.67734-.1905003.254-.4868342.42333-.2751671.14817-.635001.23284-.3386672.0635-.6561677.0635-.4445007 0-.8678347-.10584-.4021673-.10583-.7196678-.3175-.3175008-.23283-.5291678-.5715-.1905-.35983-.1905-.84667zM2.8106585 348.03258v-3.28083H-.19501293v3.28083H-2.0153492v2.01084h1.82033627v6.45585q0 .8255.27516711 1.3335.2751671.508.74083451.78317.48683411.27516 1.10066841.35983.635001.10583 1.3335021.10583.4445007 0 .9101681-.0212.4656675-.0212.8466681-.0847v-2.32834q-.211667.0423-.4445007.0635-.2328337.0212-.4868342.0212-.7620012 0-1.0160016-.254t-.2540004-1.016v-5.41868h2.2013369v-2.01084zM14.284343 352.32943H9.3948352q.021167-.31751.1270002-.71967.1270002-.40217.4021673-.762.2963343-.35984.7620013-.59267.486834-.254 1.206502-.254 1.100668 0 1.629836.59267.550334.59266.762001 1.73567zm-4.8895078 1.905h7.8951788q.08467-1.27-.211667-2.43417-.296333-1.16417-.973668-2.07434-.656167-.91017-1.693336-1.43933-1.037168-.55034-2.43417-.55034-1.248836 0-2.286004.4445-1.0160016.4445-1.7568361 1.22767-.7408345.762-1.1430018 1.82034-.4021673 1.05833-.4021673 2.286 0 1.27.3810006 2.32834.4021673 1.05833 1.1218351 1.82033t1.7568361 1.18534q1.0371684.40217 2.3283374.40217 1.862669 0 3.175005-.84667 1.312335-.84667 1.947336-2.81517h-2.645837q-.148167.508-.804335.97367-.656168.4445-1.566336.4445-1.270002 0-1.947336-.65617-.6773347-.65617-.7408348-2.11667zM19.633552 348.03258v10.94319h3.005672v-6.35001q0-.80434.232833-1.29117.232834-.508.550335-.762.338667-.27517.677334-.35983.359834-.10584.571501-.10584.719668 0 1.079502.254.381.23284.529167.635.169334.40217.190501.889.02117.46567.02117.95251v6.13834h3.005672v-6.09601q0-.508.0635-.99484.08467-.508.296334-.889.232833-.40216.613834-.635.402167-.254 1.037168-.254.635001 0 .994835.21167.381001.21167.571501.5715.1905.35983.232834.84667.04233.48683.04233 1.03717v6.20184h3.005672v-7.32368q0-1.05833-.296334-1.79917-.296334-.762-.825502-1.22767-.529167-.46566-1.270002-.67733-.740834-.21167-1.608669-.21167-1.143002 0-1.98967.55034-.825501.55033-1.312335 1.27-.444501-1.016-1.312335-1.41817-.846668-.40217-1.883837-.40217-1.079502 0-1.92617.46567-.825501.46567-1.418168 1.31233h-.04233v-1.48167zM41.535807 355.41976h-2.857504q.04233 1.10067.486834 1.84151.465667.71966 1.164168 1.16416.719668.44451 1.629836.63501.910168.1905 1.86267.1905.931335 0 1.820336-.1905.910168-.16934 1.608669-.61384.698501-.4445 1.121835-1.16417.444501-.74083.444501-1.82033 0-.762-.296334-1.27001-.296334-.52916-.783168-.86783-.486834-.35983-1.121835-.5715-.613834-.21167-1.270002-.35983-.635001-.14817-1.248835-.27517-.613834-.127-1.100669-.27517-.465667-.16933-.762001-.42333-.296334-.254-.296334-.65617 0-.33867.169334-.52917.169334-.21167.402167-.3175.254001-.10583.550335-.127.296333-.0423.550334-.0423.804334 0 1.397002.3175.592668.29633.656168 1.16417h2.857504q-.08467-1.016-.529167-1.67217-.423334-.67734-1.079502-1.0795-.656168-.40217-1.502836-.57151-.825501-.16933-1.714502-.16933-.889002 0-1.73567.16933-.846668.14817-1.524002.55034-.677335.381-1.100669 1.05833-.402167.67734-.402167 1.73567 0 .71967.296334 1.22767.296334.48684.783168.8255.486834.3175 1.100668.52917.635001.1905 1.291169.33867 1.608669.33867 2.49767.67733.910169.33867.910169 1.016 0 .40217-.190501.67734-.1905.254-.486834.42333-.275167.14817-.635001.23284-.338667.0635-.656168.0635-.4445 0-.867834-.10584-.402168-.10583-.719668-.3175-.317501-.23283-.529168-.5715-.1905-.35983-.1905-.84667z" style="font-weight:700;font-family:'Helvetica Neue';-inkscape-font-specification:'Helvetica Neue Bold';fill:#fff" transform="translate(162.29404 -157.9758)"/></g><g aria-label="Engineering Office" style="font-weight:700;font-size:21.1667px;line-height:1.25;font-family:'PT Sans';-inkscape-font-specification:'PT Sans Bold';text-align:center;letter-spacing:.264583px;text-anchor:middle;display:inline;stroke-width:.264583"><path d="M-139.8865 305.20439v15.11302h11.47235v-2.794h-8.14918v-3.70417h7.32368v-2.58234h-7.32368v-3.23851h7.97984v-2.794zM-126.21414 309.37423v10.94318h3.00567v-5.73617q0-1.67217.55034-2.39184.55033-.74083 1.778-.74083 1.0795 0 1.50283.67733.42334.65617.42334 2.01084v6.18067h3.00567v-6.73101q0-1.016-.1905-1.8415-.16933-.84667-.61383-1.41817-.44451-.59267-1.22767-.91017-.762-.33866-1.96851-.33866-.9525 0-1.86267.4445-.91016.42333-1.48166 1.37583h-.0635v-1.524zM-108.28065 317.73508q-.69851 0-1.16417-.29634-.46567-.29633-.762-.762-.27517-.46567-.40217-1.03717-.10583-.59267-.10583-1.18533 0-.61384.127-1.16417.14816-.5715.4445-.99484.3175-.4445.762-.6985.46566-.254 1.10067-.254.74083 0 1.22766.27517.48684.27517.78317.74083.29634.46567.42334 1.07951.127.59266.127 1.27 0 .59267-.16934 1.143-.14816.52917-.46566.9525-.3175.42334-.80434.67734-.48683.254-1.12183.254zm5.41867 1.88383v-10.24468h-2.8575v1.4605h-.0423q-.55033-.9525-1.37583-1.35467-.80434-.40216-1.88384-.40216-1.143 0-2.032.4445-.86784.4445-1.4605 1.2065-.59267.74083-.91017 1.73567-.29634.97367-.29634 2.032 0 1.12184.254 2.13784.27517.99483.84667 1.75683.5715.74084 1.4605 1.18534.88901.42333 2.11667.42333.99484 0 1.88384-.40216.91017-.42334 1.397-1.29117h.0423v1.43933q.0212 1.16417-.5715 1.92617-.57151.762-1.84151.762-.80433 0-1.41817-.33866-.61383-.3175-.8255-1.16417h-2.9845q.0635.93133.508 1.5875.46567.67733 1.143 1.10067.6985.42333 1.524.61383.84667.21167 1.65101.21167 1.88383 0 3.00567-.508 1.12183-.508 1.7145-1.24884.59267-.71966.762-1.56633.1905-.84667.1905-1.50284zM-97.087109 307.68089v-2.4765h-3.005671v2.4765zm-3.005671 1.69334v10.94318h3.005671v-10.94318zM-94.455824 309.37423v10.94318h3.005671v-5.73617q0-1.67217.550334-2.39184.550334-.74083 1.778003-.74083 1.079502 0 1.502836.67733.423334.65617.423334 2.01084v6.18067h3.005671v-6.73101q0-1.016-.1905-1.8415-.169334-.84667-.613834-1.41817-.444501-.59267-1.227669-.91017-.762001-.33866-1.968503-.33866-.952502 0-1.86267.4445-.910168.42333-1.481669 1.37583h-.0635v-1.524zM-74.257499 313.67107h-4.889508q.02117-.3175.127-.71967.127-.40217.402168-.762.296333-.35983.762001-.59267.486834-.254 1.206502-.254 1.100668 0 1.629836.59267.550334.59267.762001 1.73567zm-4.889508 1.905h7.895179q.08467-1.27-.211667-2.43417-.296334-1.16417-.973668-2.07433-.656168-.91017-1.693336-1.43934-1.037168-.55033-2.434171-.55033-1.248835 0-2.286003.4445-1.016002.4445-1.756836 1.22766-.740835.76201-1.143002 1.82034-.402167 1.05834-.402167 2.286 0 1.27001.381 2.32834.402167 1.05834 1.121835 1.82034t1.756836 1.18533q1.037169.40217 2.328337.40217 1.86267 0 3.175006-.84667 1.312335-.84667 1.947336-2.81517h-2.645838q-.148166.508-.804334.97367-.656168.4445-1.566336.4445-1.270002 0-1.947336-.65617-.677335-.65617-.740835-2.11667zM-61.838603 313.67107h-4.889508q.02117-.3175.127-.71967.127-.40217.402167-.762.296334-.35983.762001-.59267.486835-.254 1.206502-.254 1.100669 0 1.629836.59267.550335.59267.762002 1.73567zm-4.889508 1.905h7.895179q.08467-1.27-.211667-2.43417-.296334-1.16417-.973668-2.07433-.656168-.91017-1.693336-1.43934-1.037169-.55033-2.434171-.55033-1.248835 0-2.286003.4445-1.016002.4445-1.756837 1.22766-.740834.76201-1.143001 1.82034-.402168 1.05834-.402168 2.286 0 1.27001.381001 2.32834.402167 1.05834 1.121835 1.82034t1.756836 1.18533q1.037168.40217 2.328337.40217 1.86267 0 3.175005-.84667 1.312336-.84667 1.947337-2.81517h-2.645838q-.148167.508-.804334.97367-.656168.4445-1.566336.4445-1.270002 0-1.947337-.65617-.677334-.65617-.740834-2.11667zM-56.785716 309.37423v10.94318h3.005672v-4.93184q0-.74083.148167-1.37583.148167-.635.486834-1.10067.359834-.48684.931335-.762.571501-.27517 1.397002-.27517.275167 0 .571501.0423.296334.0212.508001.0635v-2.794q-.359834-.10583-.656168-.10583-.571501 0-1.100669.16933-.529167.16933-.994834.48683-.465668.29634-.825502.74084-.359834.42333-.571501.93133h-.04233v-2.032zM-45.203892 307.68089v-2.4765h-3.005671v2.4765zm-3.005671 1.69334v10.94318h3.005671v-10.94318zM-42.572604 309.37423v10.94318h3.005672v-5.73617q0-1.67217.550334-2.39184.550334-.74083 1.778003-.74083 1.079501 0 1.502835.67733.423334.65617.423334 2.01084v6.18067h3.005672v-6.73101q0-1.016-.1905-1.8415-.169334-.84667-.613835-1.41817-.4445-.59267-1.227668-.91017-.762002-.33866-1.968503-.33866-.952502 0-1.86267.4445-.910168.42333-1.481669 1.37583h-.0635v-1.524zM-24.639123 317.73508q-.698501 0-1.164169-.29634-.465667-.29633-.762001-.762-.275167-.46567-.402167-1.03717-.105834-.59267-.105834-1.18533 0-.61384.127001-1.16417.148166-.5715.4445-.99484.317501-.4445.762001-.6985.465668-.254 1.100669-.254.740834 0 1.227669.27517.486834.27517.783167.74083.296334.46567.423334 1.07951.127001.59266.127001 1.27 0 .59267-.169334 1.143-.148167.52917-.465667.9525-.317501.42334-.804335.67734-.486834.254-1.121835.254zm5.418675 1.88383v-10.24468h-2.857504v1.4605h-.04233q-.550334-.9525-1.375835-1.35467-.804335-.40216-1.883837-.40216-1.143001 0-2.032003.4445-.867835.4445-1.460502 1.2065-.592668.74083-.910168 1.73567-.296334.97367-.296334 2.032 0 1.12184.254 2.13784.275167.99483.846668 1.75683.571501.74084 1.460503 1.18534.889001.42333 2.11667.42333.994835 0 1.883836-.40216.910168-.42334 1.397002-1.29117h.04233v1.43933q.02117 1.16417-.571501 1.92617-.571501.762-1.841503.762-.804335 0-1.418169-.33866-.613834-.3175-.825501-1.16417h-2.984505q.0635.93133.508001 1.5875.465667.67733 1.143001 1.10067.698502.42333 1.524003.61383.846668.21167 1.651002.21167 1.883837 0 3.005672-.508 1.121835-.508 1.714503-1.24884.592667-.71966.762001-1.56633.1905-.84667.1905-1.50284zM-7.416369 312.8244q0-.99483.211667-1.92617.2328337-.93133.7196678-1.651.4868341-.74084 1.270002-1.16417.783168-.4445 1.9050031-.4445 1.1218351 0 1.905003.4445.78316792.42333 1.27000203 1.16417.4868341.71967.69850111 1.651.2328337.93134.2328337 1.92617 0 .9525-.2328337 1.86267-.21166701.889-.69850111 1.60867-.48683411.71967-1.27000203 1.16417-.7831679.42333-1.905003.42333t-1.9050031-.42333q-.7831679-.4445-1.270002-1.16417-.4868341-.71967-.7196678-1.60867-.211667-.91017-.211667-1.86267zm-3.323172 0q0 1.651.508001 3.09034.5080007 1.41817 1.4605022 2.4765.9525015 1.05834 2.328337 1.67217 1.3970022.59267 3.1326717.59267 1.7568361 0 3.13267163-.59267 1.37583547-.61383 2.32833707-1.67217.9525015-1.05833 1.4605023-2.4765.5080008-1.43934.5080008-3.09034 0-1.69333-.5080008-3.13267-.5080008-1.4605-1.4605023-2.54-.9525016-1.07951-2.32833707-1.69334-1.37583553-.61383-3.13267163-.61383-1.7356695 0-3.1326717.61383-1.3758355.61383-2.328337 1.69334-.9525015 1.0795-1.4605022 2.54-.508001 1.43934-.508001 3.13267zM13.387188 311.38507H9.9793492v8.93234H6.9736778v-8.93234H5.1745082v-2.01084h1.7991696v-.84667q0-1.4605.9101681-2.39184.9101681-.93133 2.7516711-.93133.402167 0 .804335.0423.402167.0212.783167.0423v2.24367q-.550334-.0635-1.100668-.0635-.613834 0-.889001.29633-.2540008.27517-.2540008.9525v.65617h3.4078388v-.84667q0-1.4605.910168-2.39184.910168-.93133 2.751671-.93133.402167 0 .804335.0423.402167.0212.783168.0423v2.24367q-.550335-.0635-1.100669-.0635-.613834 0-.889001.29633-.254001.27517-.254001.9525v.65617h2.074337v2.01084h-2.074337v8.93234h-3.005671zm9.482682-3.70418h-3.005672v-2.4765h3.005672zm-3.005672 1.69334h3.005672v10.94318h-3.005672zM33.496216 313.22657h2.942171q-.0635-1.05834-.508001-1.82034-.4445-.78317-1.164168-1.29117-.698501-.52916-1.608669-.78316-.889002-.254-1.86267-.254-1.333502 0-2.37067.4445-1.037169.4445-1.756836 1.24883-.719668.78317-1.100669 1.88384-.359834 1.0795-.359834 2.3495 0 1.22767.402167 2.26484.402168 1.016 1.121836 1.75683.719667.74084 1.735669 1.16417 1.037168.40217 2.264837.40217 2.18017 0 3.577172-1.143 1.397003-1.143 1.693336-3.32317h-2.899838q-.148166 1.016-.740834 1.62983-.571501.59267-1.651003.59267-.698501 0-1.185335-.3175t-.783168-.80433q-.275167-.50801-.402167-1.12184t-.127-1.2065q0-.61384.127-1.22767.127-.635.423334-1.143.3175-.52917.804334-.84667.486835-.33867 1.206502-.33867 1.92617 0 2.222504 1.88384zM45.830433 313.67107h-4.889507q.02117-.3175.127-.71967.127-.40217.402167-.762.296334-.35983.762001-.59267.486834-.254 1.206502-.254 1.100669 0 1.629836.59267.550334.59267.762001 1.73567zm-4.889507 1.905h7.895179q.08467-1.27-.211667-2.43417-.296334-1.16417-.973668-2.07433-.656168-.91017-1.693336-1.43934-1.037169-.55033-2.434171-.55033-1.248835 0-2.286004.4445-1.016001.4445-1.756836 1.22766-.740834.76201-1.143002 1.82034-.402167 1.05834-.402167 2.286 0 1.27001.381001 2.32834.402167 1.05834 1.121835 1.82034t1.756836 1.18533q1.037168.40217 2.328337.40217 1.86267 0 3.175005-.84667 1.312336-.84667 1.947337-2.81517h-2.645838q-.148167.508-.804335.97367-.656167.4445-1.566335.4445-1.270002 0-1.947337-.65617-.677334-.65617-.740834-2.11667z" style="font-family:'Helvetica Neue';-inkscape-font-specification:'Helvetica Neue Bold';fill:#fff" transform="translate(162.29404 -157.9758)"/></g><g aria-label="for" style="font-weight:700;font-size:12.7px;line-height:1.25;font-family:'PT Sans';-inkscape-font-specification:'PT Sans Bold';text-align:center;letter-spacing:1.05833px;text-anchor:middle;display:inline;stroke-width:.264583"><path d="M-53.954807 332.88596v5.3594h1.8034v-5.3594h1.2446v-1.2065h-1.2446v-.3937q0-.4064.1524-.5715.1651-.1778.5334-.1778.3429 0 .6604.0381v-1.3462q-.2286-.0127-.4699-.0254-.2413-.0254-.4826-.0254-1.1049 0-1.651.5588t-.5461 1.4351v.508h-1.0795v1.2065zM-47.448376 334.96876q0-.3937.0762-.7747.0762-.381.254-.6731.1905-.2921.4953-.4699.3048-.1905.762-.1905t.762.1905q.3175.1778.4953.4699.1905.2921.2667.6731.0762.381.0762.7747 0 .3937-.0762.7747-.0762.3683-.2667.6731-.1778.2921-.4953.4699-.3048.1778-.762.1778t-.762-.1778q-.3048-.1778-.4953-.4699-.1778-.3048-.254-.6731-.0762-.381-.0762-.7747zm-1.8034 0q0 .7874.2413 1.4224.2413.635.6858 1.0922.4445.4445 1.0668.6858.6223.2413 1.397.2413t1.397-.2413q.635-.2413 1.0795-.6858.4445-.4572.6858-1.0922.2413-.635.2413-1.4224 0-.7874-.2413-1.4224-.2413-.6477-.6858-1.0922-.4445-.4572-1.0795-.6985-.6223-.254-1.397-.254t-1.397.254q-.6223.2413-1.0668.6985-.4445.4445-.6858 1.0922-.2413.635-.2413 1.4224zM-40.226379 331.67946v6.5659h1.8034v-2.9591q0-.4445.0889-.8255t.2921-.6604q.2159-.2921.5588-.4572.3429-.1651.8382-.1651.1651 0 .3429.0254.1778.0127.3048.0381v-1.6764q-.2159-.0635-.3937-.0635-.3429 0-.6604.1016t-.5969.2921q-.2794.1778-.4953.4445-.2159.254-.3429.5588h-.0254v-1.2192z" style="font-family:'Helvetica Neue';-inkscape-font-specification:'Helvetica Neue Bold';fill:#fff" transform="translate(162.29404 -157.9758)"/></g><g aria-label="Dr.-Ing. Jürgen Ehret" style="font-size:12.7px;line-height:1.25;font-family:'PT Sans';-inkscape-font-specification:'PT Sans';text-align:center;letter-spacing:1.05833px;text-anchor:middle;display:inline;stroke-width:.264583"><path d="M-116.31198 383.26263v-5.715h1.4224q.7366 0 1.2319.2159.508.2032.8128.5969.3048.3937.4318.9525.1397.5461.1397 1.2319 0 .7493-.1905 1.27t-.508.8509q-.3175.3175-.7239.4572t-.8382.1397zm-1.9939-7.3914v9.0678h3.9116q1.0414 0 1.8034-.3429.7747-.3556 1.2827-.9652.5207-.6096.7747-1.4478t.254-1.8288q0-1.1303-.3175-1.9685-.3048-.8382-.8636-1.397-.5461-.5588-1.3081-.8382-.7493-.2794-1.6256-.2794zM-108.03707 378.37313v6.5659h1.8034v-2.9591q0-.4445.0889-.8255t.2921-.6604q.2159-.2921.5588-.4572.3429-.1651.8382-.1651.1651 0 .3429.0254.1778.0127.3048.0381v-1.6764q-.2159-.0635-.3937-.0635-.3429 0-.6604.1016t-.5969.2921q-.2794.1778-.4953.4445-.2159.254-.3429.5588h-.0254v-1.2192zM-103.14591 382.98323v1.9558h1.9939v-1.9558zM-98.665335 380.69723v1.5494h3.8227v-1.5494zM-92.24443 375.87123v9.0678h1.9939v-9.0678zM-87.631093 378.37313v6.5659h1.8034v-3.4417q0-1.0033.3302-1.4351.3302-.4445 1.0668-.4445.6477 0 .9017.4064.254.3937.254 1.2065v3.7084h1.8034v-4.0386q0-.6096-.1143-1.1049-.1016-.508-.3683-.8509-.2667-.3556-.7366-.5461-.4572-.2032-1.1811-.2032-.5715 0-1.1176.2667-.5461.254-.889.8255h-.0381v-.9144zM-75.971438 383.38963q-.4191 0-.6985-.1778-.2794-.1778-.4572-.4572-.1651-.2794-.2413-.6223-.0635-.3556-.0635-.7112 0-.3683.0762-.6985.0889-.3429.2667-.5969.1905-.2667.4572-.4191.2794-.1524.6604-.1524.4445 0 .7366.1651t.4699.4445q.1778.2794.254.6477.0762.3556.0762.762 0 .3556-.1016.6858-.0889.3175-.2794.5715-.1905.254-.4826.4064-.2921.1524-.6731.1524zm3.2512 1.1303v-6.1468h-1.7145v.8763h-.0254q-.3302-.5715-.8255-.8128-.4826-.2413-1.1303-.2413-.6858 0-1.2192.2667-.5207.2667-.8763.7239-.3556.4445-.5461 1.0414-.1778.5842-.1778 1.2192 0 .6731.1524 1.2827.1651.5969.508 1.0541.3429.4445.8763.7112.5334.254 1.27.254.5969 0 1.1303-.2413.5461-.254.8382-.7747h.0254v.8636q.0127.6985-.3429 1.1557-.3429.4572-1.1049.4572-.4826 0-.8509-.2032-.3683-.1905-.4953-.6985h-1.7907q.0381.5588.3048.9525.2794.4064.6858.6604.4191.254.9144.3683.508.127.9906.127 1.1303 0 1.8034-.3048.6731-.3048 1.0287-.7493.3556-.4318.4572-.9398.1143-.508.1143-.9017zM-70.133741 382.98323v1.9558h1.9939v-1.9558zM-55.549651 382.08153v-6.2103h-1.9939v6.1214q0 .2413-.0254.508-.0127.254-.1143.4826-.0889.2159-.3048.3556-.2159.1397-.6096.1397-.3556 0-.5842-.1143-.2159-.1143-.3429-.3048-.127-.2032-.1778-.4826-.0508-.2794-.0508-.6096v-.4064h-1.8034v.7874q0 .7493.254 1.2827.254.5207.6731.8636.4191.3302.9525.4826.5334.1651 1.1049.1651 1.016 0 1.6129-.3048.5969-.3175.9144-.7747.3175-.4699.4064-1.0033.0889-.5334.0889-.9779zM-52.006681 375.87123v1.4859h1.7145v-1.4859zm2.6162 0v1.4859h1.7145v-1.4859zm2.6289 9.0678v-6.5659h-1.8034v3.4417q0 1.0033-.3302 1.4478-.3302.4318-1.0668.4318-.6477 0-.9017-.3937-.254-.4064-.254-1.2192v-3.7084h-1.8034v4.0386q0 .6096.1016 1.1176.1143.4953.381.8509.2667.3429.7239.5334.4699.1905 1.1938.1905.5715 0 1.1176-.254.5461-.254.889-.8255h.0381v.9144zM-44.322127 378.37313v6.5659h1.8034v-2.9591q0-.4445.0889-.8255t.2921-.6604q.2159-.2921.5588-.4572.3429-.1651.8382-.1651.1651 0 .3429.0254.1778.0127.3048.0381v-1.6764q-.2159-.0635-.3937-.0635-.3429 0-.6604.1016t-.5969.2921q-.2794.1778-.4953.4445-.2159.254-.3429.5588h-.0254v-1.2192zM-35.618392 383.38963q-.419099 0-.698499-.1778t-.4572-.4572q-.1651-.2794-.2413-.6223-.0635-.3556-.0635-.7112 0-.3683.0762-.6985.0889-.3429.2667-.5969.1905-.2667.4572-.4191.2794-.1524.660399-.1524.4445 0 .7366.1651t.4699.4445q.1778.2794.254.6477.0762.3556.0762.762 0 .3556-.1016.6858-.0889.3175-.2794.5715-.1905.254-.4826.4064-.2921.1524-.6731.1524zm3.2512 1.1303v-6.1468h-1.7145v.8763h-.0254q-.3302-.5715-.8255-.8128-.4826-.2413-1.130299-.2413-.6858 0-1.2192.2667-.5207.2667-.8763.7239-.3556.4445-.5461 1.0414-.1778.5842-.1778 1.2192 0 .6731.1524 1.2827.1651.5969.508 1.0541.3429.4445.8763.7112.5334.254 1.27.254.596899 0 1.130299-.2413.5461-.254.8382-.7747h.0254v.8636q.0127.6985-.3429 1.1557-.3429.4572-1.1049.4572-.482599 0-.850899-.2032-.3683-.1905-.4953-.6985h-1.7907q.0381.5588.3048.9525.2794.4064.6858.6604.4191.254.9144.3683.508.127.9906.127 1.130299 0 1.803399-.3048t1.0287-.7493q.3556-.4318.4572-.9398.1143-.508.1143-.9017zM-25.433137 380.95123h-2.933699q.0127-.1905.0762-.4318.0762-.2413.241299-.4572.1778-.2159.4572-.3556.2921-.1524.7239-.1524.6604 0 .9779.3556.3302.3556.4572 1.0414zm-2.933699 1.143h4.737099q.0508-.762-.127-1.4605-.1778-.6985-.5842-1.2446-.3937-.5461-1.016-.8636-.6223-.3302-1.4605-.3302-.7493 0-1.3716.2667-.609599.2667-1.054099.7366-.4445.4572-.6858 1.0922-.2413.635-.2413 1.3716 0 .762.2286 1.397.2413.635.6731 1.0922.4318.4572 1.0541.7112.622299.2413 1.396999.2413 1.1176 0 1.905-.508.7874-.508 1.1684-1.6891h-1.5875q-.0889.3048-.4826.5842-.3937.2667-.9398.2667-.762 0-1.1684-.3937-.406399-.3937-.444499-1.27zM-21.501822 378.37313v6.5659h1.803399v-3.4417q0-1.0033.3302-1.4351.3302-.4445 1.0668-.4445.6477 0 .9017.4064.254.3937.254 1.2065v3.7084h1.8034v-4.0386q0-.6096-.1143-1.1049-.1016-.508-.3683-.8509-.2667-.3556-.7366-.5461-.4572-.2032-1.1811-.2032-.5715 0-1.1176.2667-.5461.254-.888999.8255h-.0381v-.9144zM-8.1317723 375.87123v9.0678h6.8833999v-1.6764h-4.8894999v-2.2225h4.3941999v-1.5494h-4.3941999v-1.9431h4.7878999v-1.6764zM.97121525 375.87123v9.0678H2.7746152v-3.4417q0-1.0033.3302-1.4351.3302-.4445 1.0668-.4445.6477 0 .9017.4064.254.3937.254 1.2065v3.7084h1.8034v-4.0386q0-.6096-.1143-1.1049-.1016-.508-.3683-.8509-.2667-.3556-.7366-.5461-.4572-.2032-1.1811-.2032-.508 0-1.0414.2667-.5334.254-.8763.8255h-.0381v-3.4163zM9.5701685 378.37313v6.5659h1.8033995v-2.9591q0-.4445.0889-.8255t.2921-.6604q.2159-.2921.5588-.4572.3429-.1651.8382-.1651.1651 0 .3429.0254.1778.0127.3048.0381v-1.6764q-.2159-.0635-.3937-.0635-.3429 0-.6604.1016t-.5969.2921q-.2794.1778-.4953.4445-.2159.254-.3429.5588h-.0254v-1.2192zM19.745902 380.95123h-2.933699q.0127-.1905.0762-.4318.0762-.2413.241299-.4572.1778-.2159.4572-.3556.2921-.1524.7239-.1524.6604 0 .9779.3556.3302.3556.4572 1.0414zm-2.933699 1.143h4.737099q.0508-.762-.127-1.4605-.1778-.6985-.5842-1.2446-.3937-.5461-1.016-.8636-.6223-.3302-1.4605-.3302-.7493 0-1.371599.2667-.6096.2667-1.0541.7366-.4445.4572-.6858 1.0922-.2413.635-.2413 1.3716 0 .762.2286 1.397.2413.635.6731 1.0922.4318.4572 1.0541.7112.622299.2413 1.396999.2413 1.1176 0 1.905-.508.7874-.508 1.1684-1.6891h-1.5875q-.0889.3048-.4826.5842-.3937.2667-.9398.2667-.762 0-1.1684-.3937-.406399-.3937-.444499-1.27zM25.953489 378.37313v-1.9685h-1.8034v1.9685h-1.0922v1.2065h1.0922v3.8735q0 .4953.1651.8001t.4445.4699q.2921.1651.6604.2159.381.0635.8001.0635.2667 0 .5461-.0127.2794-.0127.508-.0508v-1.397q-.127.0254-.2667.0381-.1397.0127-.2921.0127-.4572 0-.6096-.1524-.1524-.1524-.1524-.6096v-3.2512h1.3208v-1.2065z" style="font-weight:700;font-family:'Helvetica Neue';-inkscape-font-specification:'Helvetica Neue Bold';fill:#fff" transform="translate(162.29404 -157.9758)"/></g></g><g style="display:inline"><path style="display:inline;fill:none;fill-opacity:1;stroke:#fff;stroke-width:1.92881;stroke-miterlimit:4;stroke-dasharray:none;stroke-opacity:1;stop-color:#000" d="M-165.55737 439.72724a11.106197 6.4262649 0 0 1-11.10613 6.42623 11.106197 6.4262649 0 0 1-11.10613-6.42622 11.106197 6.4262649 0 0 1 11.10614-6.4262 11.106197 6.4262649 0 0 1 11.10612 6.42619z" transform="translate(360.38403 -365.66669)"/><path style="display:inline;fill:none;fill-opacity:1;stroke:#fff;stroke-width:2.35744;stroke-miterlimit:4;stroke-dasharray:none;stroke-opacity:1;stop-color:#000" d="M-163.84062 439.72726a18.732446 11.164379 0 0 1-18.73236 11.16429 18.732446 11.164379 0 0 1-18.73234-11.1643 18.732446 11.164379 0 0 1 18.73235-11.16427 18.732446 11.164379 0 0 1 18.73235 11.16428z" transform="translate(360.38403 -365.66669)"/><path style="display:inline;fill:none;fill-opacity:1;stroke:#fff;stroke-width:2.78605;stroke-miterlimit:4;stroke-dasharray:none;stroke-opacity:1;stop-color:#000" d="M-161.92136 439.72725a31.453028 19.213989 0 0 1-31.45287 19.21385 31.453028 19.213989 0 0 1-31.45278-19.21385 31.453028 19.213989 0 0 1 31.45278-19.21381 31.453028 19.213989 0 0 1 31.45287 19.21381z" transform="translate(360.38403 -365.66669)"/><path style="display:inline;fill:none;fill-opacity:1;stroke:#fff;stroke-width:3.21469;stroke-miterlimit:4;stroke-dasharray:none;stroke-opacity:1;stop-color:#000" d="M-159.62176 439.72723a52.416267 32.621616 0 0 1-52.41601 32.62138 52.416267 32.621616 0 0 1-52.41593-32.62138 52.416267 32.621616 0 0 1 52.41594-32.6213 52.416267 32.621616 0 0 1 52.416 32.6213z" transform="translate(360.38403 -365.66669)"/><path style="display:inline;fill:none;fill-opacity:1;stroke:#fff;stroke-width:3.64332;stroke-miterlimit:4;stroke-dasharray:none;stroke-opacity:1;stop-color:#000" d="M-156.89016 439.7272a86.716094 54.698496 0 0 1-86.71574 54.69811 86.716094 54.698496 0 0 1-86.71549-54.6981 86.716094 54.698496 0 0 1 86.71549-54.69799 86.716094 54.698496 0 0 1 86.71574 54.69798z" transform="translate(360.38403 -365.66669)"/></g></svg>