<svg width="1642.7881" height="484.22244" viewBox="0 0 434.65422 128.11715" xmlns="http://www.w3.org/2000/svg"><defs><path id="f" d="M-44.056217 1066.7898h1148.6085v506.64648h-1148.6085z"/><path id="c" d="M1600.6648 5530.2114h158.57976v94.550331H1600.6648z"/><path id="b" d="M157-13h55v40h-55z"/><path id="e" d="M1600.6648 5530.2114h158.57976v94.550331H1600.6648z"/><path id="d" d="M157-13h55v40h-55z"/><filter style="color-interpolation-filters:sRGB" id="a" x="-.05642297" y="-.03515585" width="1.1128459" height="1.0703117"><feGaussianBlur stdDeviation="1.1384116"/></filter></defs><text xml:space="preserve" transform="matrix(.26458 0 0 .26458 -119.50634 -1939.7013)" style="font-size:36px;line-height:1.25;font-family:Lato;-inkscape-font-specification:Lato;text-align:center;letter-spacing:0;white-space:pre;shape-inside:url(#b)"><tspan x="157" y="60.48"><tspan dx="0 20.882812 20.039062 14.484375 18.84375">Ehret</tspan></tspan></text><text xml:space="preserve" transform="matrix(.26458 0 0 .26458 426.53347 -2147.3927)" style="font-size:36px;line-height:1.25;font-family:Lato;-inkscape-font-specification:Lato;text-align:center;letter-spacing:0;white-space:pre;shape-inside:url(#d)"><tspan x="157" y="60.48"><tspan dx="0 20.882812 20.039062 14.484375 18.84375">Ehret</tspan></tspan></text><g style="display:inline"><path style="display:inline;vector-effect:none;fill:#000;fill-opacity:.35;stroke-width:.896221;stroke-opacity:.968165;stop-color:#000" d="M0-3.0504403h434.65422V125.06671H0Z" transform="translate(0 3.0504403)"/></g><g style="display:inline"><path d="M188.09066 10.997576v21.724948h15.15269v-1.764771H190.1597v-8.580442h12.10999v-1.764772H190.1597v-7.850192h12.93152v-1.764771zM205.81411 17.022141v15.700383h1.91691v-9.158556q.0304-1.15623.36512-2.129897.36513-1.004095.97367-1.703918.63897-.73025 1.52136-1.125803.91281-.425979 2.06904-.425979 1.15623 0 1.91691.365125.7911.365125 1.24751 1.004094.45641.63897.63897 1.521355.18256.851959.18256 1.856053v9.797526h1.91691V22.620727q0-1.399646-.27385-2.525449-.27384-1.125802-.94324-1.88648-.66939-.791104-1.7952-1.217084-1.09537-.425979-2.73843-.425979-1.67349 0-3.07314.882386-1.39965.851958-1.94734 2.282032h-.0608v-2.708012zM235.50635 31.444586V17.022141h-1.91691v2.708012h-.0609q-.27384-.638969-.79111-1.217084-.48683-.578115-1.1258-1.004094-.63897-.456407-1.43007-.699823-.76068-.243417-1.64306-.243417-1.70392 0-3.04271.638969-1.30837.608542-2.22118 1.703917-.88239 1.064949-1.36922 2.52545-.45641 1.430073-.45641 3.04271 0 1.67349.39555 3.164418.39556 1.460501 1.24751 2.555876.88239 1.095376 2.22118 1.734345 1.3388.608542 3.22528.608542 1.73434 0 3.01228-.882386 1.30836-.882386 1.97776-2.342887h.0609v2.129897q0 2.860148-1.18665 4.381503-1.18666 1.521355-3.86424 1.521355-.79111 0-1.55179-.182563-.76067-.152136-1.39964-.517261-.60855-.365125-1.06495-.973667-.42598-.578115-.57812-1.460501h-1.9169q.0913 1.247511.66939 2.129897.60854.912813 1.49093 1.490928.91281.578115 2.03862.851959 1.1258.273844 2.31246.273844 1.9169 0 3.22527-.517261 1.33879-.517261 2.16032-1.490928.82153-.973667 1.18666-2.373314.39555-1.399646.39555-3.133991zm-6.9678-.51726q-1.3388 0-2.31246-.517261-.97367-.547688-1.61264-1.399647-.63897-.882386-.94324-2.008188-.30427-1.125803-.30427-2.31246 0-1.217084.27384-2.373314.30427-1.186656.94324-2.099469.63897-.912813 1.61264-1.460501.97367-.578115 2.34289-.578115 1.36921 0 2.31245.578115.97367.578115 1.58221 1.521355.60855.94324.88239 2.09947.27384 1.156229.27384 2.312459 0 1.186657-.33469 2.31246-.30428 1.125802-.94324 2.008188-.63897.851959-1.58221 1.399647-.94324.517261-2.19075.517261zM239.26044 10.997576v3.073137h1.91691v-3.073137zm0 6.024565v15.700383h1.91691V17.022141ZM244.89815 17.022141v15.700383h1.91691v-9.158556q.0304-1.15623.36513-2.129897.36512-1.004095.97366-1.703918.63897-.73025 1.52136-1.125803.91281-.425979 2.06904-.425979 1.15623 0 1.91691.365125.7911.365125 1.24751 1.004094.45641.63897.63897 1.521355.18256.851959.18256 1.856053v9.797526h1.91691V22.620727q0-1.399646-.27384-2.525449-.27385-1.125802-.94324-1.88648-.6694-.791104-1.7952-1.217084-1.09538-.425979-2.73844-.425979-1.67349 0-3.07314.882386-1.39965.851958-1.94733 2.282032h-.0609v-2.708012zM272.61263 23.776957h-10.16265q.12171-1.064948.48684-2.069042.39555-1.034522 1.03452-1.795199.63897-.791105 1.55178-1.247511.91281-.486834 2.09947-.486834 1.15623 0 2.06904.486834.91282.456406 1.55179 1.247511.63896.760677.97366 1.764771.36513 1.004095.39555 2.09947zm-10.16265 1.612637h12.07956q.0609-1.643064-.30427-3.225273-.36512-1.612636-1.21708-2.82972-.82153-1.247511-2.16033-2.008189-1.33879-.760677-3.22527-.760677-1.85605 0-3.22527.73025-1.33879.699823-2.19075 1.88648-.85196 1.15623-1.27794 2.647158-.39555 1.490928-.39555 3.04271 0 1.67349.39555 3.194845.42598 1.490928 1.27794 2.647158.85196 1.125803 2.19075 1.795199 1.36922.638969 3.22527.638969 2.98186 0 4.59449-1.460501 1.64307-1.460501 2.25161-4.138085h-1.91691q-.45641 1.825626-1.64306 2.921001-1.18666 1.095376-3.28613 1.095376-1.36922 0-2.34289-.578115-.97366-.578115-1.61263-1.460501t-.94324-1.977761q-.27385-1.125803-.27385-2.160324zM288.47338 23.776957h-10.16266q.12171-1.064948.48684-2.069042.39555-1.034522 1.03452-1.795199.63897-.791105 1.55178-1.247511.91281-.486834 2.09947-.486834 1.15623 0 2.06904.486834.91282.456406 1.55179 1.247511.63897.760677.97366 1.764771.36513 1.004095.39556 2.09947zm-10.16266 1.612637h12.07956q.0609-1.643064-.30427-3.225273-.36512-1.612636-1.21708-2.82972-.82153-1.247511-2.16033-2.008189-1.33879-.760677-3.22527-.760677-1.85605 0-3.22527.73025-1.33879.699823-2.19075 1.88648-.85196 1.15623-1.27794 2.647158-.39555 1.490928-.39555 3.04271 0 1.67349.39555 3.194845.42598 1.490928 1.27794 2.647158.85196 1.125803 2.19075 1.795199 1.36922.638969 3.22527.638969 2.98186 0 4.59449-1.460501 1.64307-1.460501 2.25161-4.138085h-1.91691q-.45641 1.825626-1.64306 2.921001-1.18666 1.095376-3.28613 1.095376-1.36922 0-2.34289-.578115-.97366-.578115-1.61263-1.460501t-.94324-1.977761q-.27385-1.125803-.27385-2.160324zM293.04567 17.022141v15.700383h1.91691v-8.367452q0-1.247511.42598-2.282032.42598-1.064949 1.18665-1.825626.79111-.760678 1.85606-1.15623 1.06495-.425979 2.37331-.365125v-1.916907q-2.1299-.09128-3.68168.94324-1.52135 1.034521-2.2516 2.951428h-.0609v-3.681679zM302.69691 10.997576v3.073137h1.91691v-3.073137zm0 6.024565v15.700383h1.91691V17.022141ZM308.33462 17.022141v15.700383h1.91691v-9.158556q.0304-1.15623.36513-2.129897.36512-1.004095.97366-1.703918.63897-.73025 1.52136-1.125803.91281-.425979 2.06904-.425979 1.15623 0 1.91691.365125.7911.365125 1.24751 1.004094.45641.63897.63897 1.521355.18256.851959.18256 1.856053v9.797526h1.91691V22.620727q0-1.399646-.27384-2.525449-.27385-1.125802-.94324-1.88648-.6694-.791104-1.7952-1.217084-1.09538-.425979-2.73844-.425979-1.67349 0-3.07314.882386-1.39965.851958-1.94733 2.282032h-.0609v-2.708012zM338.02686 31.444586V17.022141h-1.91691v2.708012h-.0609q-.27385-.638969-.79111-1.217084-.48683-.578115-1.1258-1.004094-.63897-.456407-1.43007-.699823-.76068-.243417-1.64307-.243417-1.70391 0-3.04271.638969-1.30836.608542-2.22118 1.703917-.88238 1.064949-1.36921 2.52545-.45641 1.430073-.45641 3.04271 0 1.67349.39555 3.164418.39555 1.460501 1.24751 2.555876.88239 1.095376 2.22118 1.734345 1.33879.608542 3.22527.608542 1.73435 0 3.01229-.882386 1.30836-.882386 1.97776-2.342887h.0609v2.129897q0 2.860148-1.18666 4.381503-1.18665 1.521355-3.86424 1.521355-.7911 0-1.55178-.182563-.76068-.152136-1.39965-.517261-.60854-.365125-1.06494-.973667-.42598-.578115-.57812-1.460501h-1.91691q.0913 1.247511.6694 2.129897.60854.912813 1.49093 1.490928.91281.578115 2.03861.851959 1.12581.273844 2.31246.273844 1.91691 0 3.22528-.517261 1.33879-.517261 2.16032-1.490928.82153-.973667 1.18666-2.373314.39555-1.399646.39555-3.133991zm-6.96781-.51726q-1.33879 0-2.31246-.517261-.97366-.547688-1.61263-1.399647-.63897-.882386-.94324-2.008188-.30427-1.125803-.30427-2.31246 0-1.217084.27384-2.373314.30427-1.186656.94324-2.099469.63897-.912813 1.61264-1.460501.97366-.578115 2.34288-.578115t2.31246.578115q.97367.578115 1.58221 1.521355.60854.94324.88239 2.09947.27384 1.156229.27384 2.312459 0 1.186657-.3347 2.31246-.30427 1.125802-.94324 2.008188-.63897.851959-1.58221 1.399647-.94324.517261-2.19075.517261zM351.52015 21.86005q0-1.795199.45641-3.499116.48683-1.703918 1.4605-3.04271 1.00409-1.36922 2.55587-2.190751 1.55178-.821532 3.71211-.821532 2.16032 0 3.68168.821532 1.55178.821531 2.52545 2.190751 1.00409 1.338792 1.4605 3.04271.48683 1.703917.48683 3.499116 0 1.764772-.48683 3.499116-.45641 1.703918-1.4605 3.073137-.97367 1.338793-2.52545 2.160324-1.52136.821532-3.68168.821532-2.16033 0-3.71211-.821532-1.55178-.821531-2.55587-2.160324-.97367-1.369219-1.4605-3.073137-.45641-1.734344-.45641-3.499116zm-2.06904 0q0 2.251605.63897 4.290221.63896 2.038616 1.9169 3.590398 1.27794 1.551782 3.19485 2.495022 1.94733.912813 4.50321.912813t4.47278-.912813q1.91691-.94324 3.19485-2.495022 1.27794-1.551782 1.9169-3.590398.63897-2.038616.63897-4.290221 0-2.251605-.63897-4.290221-.63896-2.038616-1.9169-3.590398-1.27794-1.582209-3.19485-2.495022-1.9169-.94324-4.47278-.94324t-4.50321.94324q-1.91691.912813-3.19485 2.495022-1.27794 1.551782-1.9169 3.590398-.63897 2.038616-.63897 4.290221zM378.8733 18.634777v-1.612636h-3.10356v-1.369219q0-.638969.0304-1.186657.0304-.547688.21299-.94324.21299-.42598.63897-.669396.42598-.243417 1.21708-.243417.3347 0 .6694.06085.3347.03043.73025.09128v-1.643063q-.45641-.06085-.82153-.09128-.36513-.03043-.7911-.03043-1.15623 0-1.91691.334698-.73025.334698-1.15623.94324-.42598.608542-.57812 1.460501-.15213.851958-.15213 1.856053v1.430073h-2.67759v1.612636h2.67759v14.087747h1.91691v-14.08774zM388.68619 10.997576v3.073137h1.9169v-3.073137zm-6.87653 7.637201v14.087747h1.91691V18.634777h3.10356v-1.612636h-3.10356v-1.369219q0-.638969.0304-1.186657.0304-.547688.21298-.94324.21299-.42598.63897-.669396.42598-.243417 1.21709-.243417.3347 0 .66939.06085.3347.03043.73025.09128v-1.643063q-.4564-.06085-.82153-.09128-.36512-.03043-.7911-.03043-1.15623 0-1.91691.334698-.73025.334698-1.15623.94324-.42598.608542-.57811 1.460501-.15214.851958-.15214 1.856053v1.430073h-2.67758v1.612636zm6.87653-1.612636v15.700383h1.9169V17.022141ZM405.44658 21.951331h1.91691q-.3347-2.708012-2.09947-4.046804-1.73435-1.338792-4.2598-1.338792-1.79519 0-3.19484.669396-1.36922.669396-2.31246 1.795199-.94324 1.125802-1.43007 2.647157-.48684 1.490928-.48684 3.194846 0 1.703917.48684 3.225272.48683 1.490928 1.43007 2.616731t2.31246 1.795199q1.39965.638969 3.19484.638969 2.67759 0 4.38151-1.582209 1.70391-1.612637 2.09947-4.472784h-1.91691q-.0913.973667-.48683 1.795199-.39556.821532-1.0041 1.430074-.60854.578114-1.39964.912813-.79111.334698-1.6735.334698-1.36921 0-2.40374-.578115-1.03452-.578115-1.73434-1.521355-.6694-.94324-1.03452-2.129897-.3347-1.217084-.3347-2.464595t.3347-2.434168q.36512-1.217084 1.03452-2.160324.69982-.94324 1.73434-1.521355 1.03453-.578115 2.40374-.578115 1.91691 0 2.98186 1.004094 1.06495 1.004095 1.4605 2.768866zM421.52032 23.776957h-10.16265q.12171-1.064948.48683-2.069042.39555-1.034522 1.03452-1.795199.63897-.791105 1.55179-1.247511.91281-.486834 2.09946-.486834 1.15623 0 2.06905.486834.91281.456406 1.55178 1.247511.63897.760677.97367 1.764771.36512 1.004095.39555 2.09947zm-10.16265 1.612637h12.07956q.0609-1.643064-.30427-3.225273-.36513-1.612636-1.21709-2.82972-.82153-1.247511-2.16032-2.008189-1.33879-.760677-3.22528-.760677-1.85605 0-3.22527.73025-1.33879.699823-2.19075 1.88648-.85196 1.15623-1.27794 2.647158-.39555 1.490928-.39555 3.04271 0 1.67349.39555 3.194845.42598 1.490928 1.27794 2.647158.85196 1.125803 2.19075 1.795199 1.36922.638969 3.22527.638969 2.98186 0 4.5945-1.460501 1.64306-1.460501 2.2516-4.138085h-1.91691q-.4564 1.825626-1.64306 2.921001-1.18666 1.095376-3.28613 1.095376-1.36921 0-2.34288-.578115t-1.61264-1.460501q-.63897-.882386-.94324-1.977761-.27384-1.125803-.27384-2.160324z" style="font-weight:300;font-size:30.4271px;line-height:1.25;font-family:'Helvetica Neue';-inkscape-font-specification:'Helvetica Neue Light';text-align:center;letter-spacing:.0529167px;text-anchor:middle;fill:snow;stroke-width:.264583" transform="translate(-2.08211884 4.16496645)"/><g><path d="M190.17693 62.057813h-2.06904q-.0913 2.008189.51726 3.438262.63897 1.430074 1.7952 2.342887 1.15623.912813 2.79929 1.36922 1.64307.425979 3.55997.425979 1.91691 0 3.28613-.365125 1.36922-.334698 2.28203-.882386.94324-.578115 1.4605-1.277938.54769-.699824.82154-1.36922.30427-.699823.36512-1.308365.0913-.608542.0913-.973667 0-1.338793-.4564-2.282033-.42598-.94324-1.21709-1.582209-.76068-.669396-1.7952-1.095375-1.00409-.456407-2.16032-.760678l-5.29434-1.308365q-.66939-.152136-1.27793-.395552-.57812-.243417-1.03453-.638969-.4564-.395553-.73025-.943241-.24341-.578114-.24341-1.338792 0-1.217084.4564-2.038616.45641-.821531 1.18666-1.308365.76068-.517261 1.73434-.73025 1.0041-.243417 2.06905-.243417 1.15623 0 2.19075.334698 1.06495.304271 1.85605.94324.82153.608542 1.30837 1.551782.51726.912813.57811 2.160324h2.06904q0-1.67349-.66939-2.921001-.63897-1.277938-1.73435-2.129897-1.09537-.851959-2.55587-1.277938-1.4605-.42598-3.07314-.42598-2.28203 0-3.74253.669396-1.4605.638969-2.31246 1.58221-.82153.94324-1.12581 2.008188-.30427 1.064949-.30427 1.856053 0 1.277938.39556 2.160324.42598.882386 1.09537 1.490928.6694.608542 1.55178.973667.91282.365125 1.85606.608542l4.83791 1.186657q.76067.182563 1.55178.486834.7911.273844 1.43007.73025.6694.456407 1.06495 1.125803.42598.669396.42598 1.582209 0 1.186657-.57812 2.038616-.57811.821531-1.4605 1.369219-.85196.517261-1.85605.760678-1.00409.243416-1.85605.243416-1.49093 0-2.7993-.273844-1.30836-.304271-2.28203-.973667-.94324-.669396-1.49093-1.795199-.54768-1.125802-.51726-2.799293zM214.66647 54.664028q1.36922 0 2.40374.578115 1.03452.578115 1.70392 1.521355.69982.94324 1.03452 2.160324.36512 1.186657.36512 2.434168t-.36512 2.464595q-.3347 1.186657-1.03452 2.129897-.6694.94324-1.70392 1.521355t-2.40374.578115q-1.36922 0-2.40374-.578115-1.03452-.578115-1.73435-1.521355-.66939-.94324-1.03452-2.129897-.3347-1.217084-.3347-2.464595t.3347-2.434168q.36513-1.217084 1.03452-2.160324.69983-.94324 1.73435-1.521355t2.40374-.578115zm0-1.612636q-1.7952 0-3.19485.669396-1.36922.669396-2.31246 1.795199-.94324 1.125803-1.43007 2.647158-.48683 1.490927-.48683 3.194845t.48683 3.225272q.48683 1.490928 1.43007 2.616731t2.31246 1.795199q1.39965.638969 3.19485.638969 1.7952 0 3.16442-.638969 1.39964-.669396 2.34288-1.795199.94324-1.125803 1.43008-2.616731.48683-1.521354.48683-3.225272 0-1.703918-.48683-3.194845-.48684-1.521355-1.43008-2.647158-.94324-1.125803-2.34288-1.795199-1.36922-.669396-3.16442-.669396zM231.02531 55.120435v-1.612637h-3.10356v-1.369219q0-.638969.0304-1.186657.0304-.547688.21299-.94324.21299-.425979.63897-.669396.42597-.243417 1.21708-.243417.3347 0 .6694.06085.33469.03043.73025.09128v-1.643063q-.45641-.06085-.82154-.09128-.36512-.03043-.7911-.03043-1.15623 0-1.91691.334698-.73025.334698-1.15623.94324-.42598.608542-.57811 1.460501-.15214.851958-.15214 1.856053v1.430073h-2.67758v1.612637h2.67758v14.087747h1.91691v-14.08774zM235.91695 53.507798v-4.7162h-1.91691v4.7162h-2.73844v1.612637h2.73844v10.740766q-.0304 2.008188.73025 2.768866.76068.73025 2.67758.73025.42598 0 .85196-.03043t.85196-.03043v-1.612636q-.82153.09128-1.64306.09128-1.03452-.06085-1.30837-.578115-.24341-.547688-.24341-1.490928v-10.58863h3.19484v-1.612637zM240.32507 53.507798l5.0509 15.700384h2.09947l3.83382-13.205361h.0608l3.86424 13.205361h2.09947l5.0509-15.700384h-2.03862l-4.01637 13.448778h-.0609l-3.83381-13.448778h-2.16033l-3.83381 13.448778h-.0608l-4.01638-13.448778zM264.2479 58.31528h1.91691q.0608-1.916907 1.21708-2.768866 1.15623-.882386 2.98186-.882386.85196 0 1.58221.152136.76068.121708 1.30836.486833.57812.365125.88239 1.004094.3347.608542.3347 1.58221 0 .638969-.18257 1.034521-.15213.395552-.4564.638969-.30427.21299-.76068.304271-.45641.09128-1.06495.152136-1.55178.182562-3.07313.395552-1.49093.182562-2.70802.669396-1.18665.486834-1.9169 1.430074-.73025.912813-.73025 2.555876 0 1.186657.39555 2.069043.42598.851959 1.1258 1.430073.73025.547688 1.67349.791105.97367.273844 2.06904.273844 1.15623 0 1.97777-.21299.85195-.212989 1.49092-.608542.6694-.395552 1.18666-.973667.54769-.608542 1.06495-1.369219h.0608q0 .608542.0609 1.125802.0913.486834.3347.851959.24341.365125.66939.578115.45641.182563 1.18666.182563.39555 0 .63897-.03043.27384-.03043.60854-.09128v-1.612636q-.27384.121708-.60854.121708-1.12581 0-1.12581-1.156229V58.10229q0-1.582209-.51726-2.555876-.51726-1.004094-1.33879-1.551782-.82153-.547688-1.85605-.73025-1.03452-.21299-2.06904-.21299-1.36922 0-2.49503.304271-1.1258.304271-1.97776.94324-.82153.638969-1.30836 1.643063-.48684 1.004095-.57812 2.373314zm10.22351 2.31246v2.495022q0 1.156229-.45641 2.069042-.42598.912813-1.18666 1.551783-.73025.638969-1.73434.973667-1.00409.334698-2.09947.334698-.6694 0-1.30837-.21299-.63896-.21299-1.1258-.608542-.48683-.425979-.7911-.973667-.27385-.578115-.27385-1.308365 0-1.15623.6694-1.764772.69982-.638969 1.76477-.973667 1.06495-.334698 2.34289-.486834 1.30836-.182562 2.52545-.395552.39555-.06085.91281-.21299.51726-.152135.69982-.486833zM280.2383 53.507798v15.700384h1.9169v-8.367453q0-1.247511.42598-2.282032.42598-1.064949 1.18666-1.825626.7911-.760678 1.85605-1.15623 1.06495-.425979 2.37332-.365125v-1.916907q-2.1299-.09128-3.68168.94324-1.52136 1.034521-2.25161 2.951428h-.0609v-3.681679zM300.52364 60.262614h-10.16265q.12171-1.064948.48684-2.069042.39555-1.034522 1.03452-1.795199.63897-.791105 1.55178-1.247511.91281-.486834 2.09947-.486834 1.15623 0 2.06904.486834.91282.456406 1.55178 1.247511.63897.760677.97367 1.764772.36513 1.004094.39555 2.099469zm-10.16265 1.612637h12.07956q.0609-1.643064-.30427-3.225273-.36512-1.612636-1.21708-2.82972-.82154-1.247511-2.16033-2.008189-1.33879-.760677-3.22527-.760677-1.85605 0-3.22527.73025-1.3388.699824-2.19075 1.88648-.85196 1.15623-1.27794 2.647158-.39555 1.490928-.39555 3.04271 0 1.67349.39555 3.194845.42598 1.490928 1.27794 2.647158.85195 1.125803 2.19075 1.795199 1.36922.638969 3.22527.638969 2.98186 0 4.59449-1.460501 1.64307-1.460501 2.25161-4.138085h-1.91691q-.45641 1.825626-1.64306 2.921001-1.18666 1.095376-3.28613 1.095376-1.36922 0-2.34289-.578115-.97366-.578115-1.61263-1.460501t-.94324-1.977761q-.27385-1.125803-.27385-2.160324zM314.7973 62.057813h-2.06904q-.0913 2.008189.51726 3.438262.63897 1.430074 1.7952 2.342887 1.15623.912813 2.79929 1.36922 1.64307.425979 3.55997.425979 1.91691 0 3.28613-.365125 1.36922-.334698 2.28203-.882386.94324-.578115 1.4605-1.277938.54769-.699824.82153-1.36922.30428-.699823.36513-1.308365.0913-.608542.0913-.973667 0-1.338793-.45641-2.282033-.42597-.94324-1.21708-1.582209-.76068-.669396-1.7952-1.095375-1.00409-.456407-2.16032-.760678l-5.29432-1.308365q-.66939-.152136-1.27794-.395552-.57811-.243417-1.03452-.638969-.4564-.395553-.73025-.943241-.24341-.578114-.24341-1.338792 0-1.217084.4564-2.038616.45641-.821531 1.18666-1.308365.76068-.517261 1.73434-.73025 1.0041-.243417 2.06905-.243417 1.15623 0 2.19075.334698 1.06495.304271 1.85605.94324.82153.608542 1.30837 1.551782.51726.912813.57811 2.160324h2.06904q0-1.67349-.66939-2.921001-.63897-1.277938-1.73435-2.129897-1.09537-.851959-2.55587-1.277938-1.4605-.42598-3.07314-.42598-2.28203 0-3.74253.669396-1.4605.638969-2.31246 1.58221-.82153.94324-1.12581 2.008188-.30427 1.064949-.30427 1.856053 0 1.277938.39556 2.160324.42597.882386 1.09537 1.490928t1.55178.973667q.91282.365125 1.85606.608542l4.8379 1.186657q.76068.182563 1.55179.486834.7911.273844 1.43007.73025.6694.456407 1.06495 1.125803.42598.669396.42598 1.582209 0 1.186657-.57812 2.038616-.57811.821531-1.4605 1.369219-.85196.517261-1.85605.760678-1.00409.243416-1.85605.243416-1.49093 0-2.7993-.273844-1.30836-.304271-2.28203-.973667-.94324-.669396-1.49093-1.795199-.54768-1.125802-.51726-2.799293zM330.88895 53.507798l6.26798 15.639529-.66939 1.764772q-.24342.547688-.45641 1.004094-.21299.456407-.51726.760678-.30427.334698-.73025.517261-.39555.182562-1.03452.182562-.3347 0-.6694-.06085-.30427-.03043-.63897-.09128v1.612626q.24342.0913.54769.0913.3347.0304.91281.0609.91282 0 1.49093-.18255.60854-.15215 1.03452-.5477.45641-.36512.82154-1.034516.36512-.638969.7911-1.643064l6.81567-18.073697h-1.91691l-4.83791 13.387924-5.1726-13.387924zM356.14012 58.10229h1.91691q-.0609-1.277938-.51726-2.221178-.45641-.94324-1.24751-1.582209-.76068-.638969-1.7952-.94324-1.00409-.304271-2.19075-.304271-1.03452 0-2.09947.243417-1.03452.243416-1.88648.760677-.85196.517261-1.39965 1.36922-.51726.851958-.51726 2.038615 0 1.004095.3347 1.703918.3347.669396.91281 1.15623.60855.456406 1.39965.791104.7911.304271 1.73434.547688l2.4646.547688q.63897.152135 1.24751.365125.63897.21299 1.1258.547688.48684.304271.76068.791104.30427.456407.30427 1.15623 0 .821532-.42598 1.399647-.39555.547687-1.03452.912813-.63897.365125-1.39965.51726-.73025.152136-1.43007.152136-1.91691 0-3.22527-.973667-1.27794-1.004095-1.39965-2.951429h-1.91691q.24342 2.890574 1.94734 4.19894 1.73434 1.308365 4.50321 1.308365 1.09538 0 2.22118-.243417t2.00819-.791104q.91281-.578115 1.49092-1.460501.57812-.912813.57812-2.190751 0-1.034522-.39555-1.795199-.39556-.760678-1.03452-1.277938-.60855-.517261-1.43008-.821532-.7911-.334698-1.61263-.456407l-2.55588-.578114q-.48683-.121709-1.06495-.304271-.57811-.21299-1.06495-.517261-.48683-.304271-.82153-.73025-.30427-.456407-.30427-1.095376 0-.760678.3347-1.277938.3347-.517261.88238-.821532.54769-.334698 1.18666-.456406.6694-.152136 1.30837-.152136.82153 0 1.55178.21299.73025.182562 1.27794.608542.57811.425979.91281 1.095375.3347.638969.36512 1.521355zM364.40012 53.507798v-4.7162h-1.9169v4.7162h-2.73844v1.612637h2.73844v10.740766q-.0304 2.008188.73025 2.768866.76067.73025 2.67758.73025.42598 0 .85196-.03043t.85196-.03043v-1.612636q-.82153.09128-1.64306.09128-1.03453-.06085-1.30837-.578115-.24342-.547688-.24342-1.490928v-10.58863h3.19485v-1.612637zM381.67892 60.262614h-10.16265q.1217-1.064948.48683-2.069042.39555-1.034522 1.03452-1.795199.63897-.791105 1.55178-1.247511.91282-.486834 2.09947-.486834 1.15623 0 2.06905.486834.91281.456406 1.55178 1.247511.63897.760677.97367 1.764772.36512 1.004094.39555 2.099469zm-10.16265 1.612637h12.07955q.0609-1.643064-.30427-3.225273-.36512-1.612636-1.21708-2.82972-.82153-1.247511-2.16032-2.008189-1.3388-.760677-3.22528-.760677-1.85605 0-3.22527.73025-1.33879.699824-2.19075 1.88648-.85196 1.15623-1.27794 2.647158-.39555 1.490928-.39555 3.04271 0 1.67349.39555 3.194845.42598 1.490928 1.27794 2.647158.85196 1.125803 2.19075 1.795199 1.36922.638969 3.22527.638969 2.98186 0 4.5945-1.460501 1.64306-1.460501 2.2516-4.138085h-1.91691q-.4564 1.825626-1.64306 2.921001-1.18666 1.095376-3.28613 1.095376-1.36922 0-2.34288-.578115-.97367-.578115-1.61264-1.460501t-.94324-1.977761q-.27384-1.125803-.27384-2.160324zM386.19829 53.507798v15.700384h1.91691v-8.763005q0-1.247511.27385-2.282032.27384-1.064949.82153-1.825626.57811-.791105 1.4605-1.217084.91281-.456407 2.1299-.456407.91281 0 1.55178.304271.63897.304271 1.00409.851959.39555.517261.54769 1.247511.18256.699823.18256 1.490928v10.649485h1.91691v-8.884713q0-1.095376.18256-2.09947.21299-1.034522.69982-1.825626.48684-.791105 1.30837-1.247511.82153-.486834 2.06904-.486834 2.06905 0 2.89058 1.034522.82153 1.004094.82153 2.951428v10.558204h1.91691V58.558697q0-5.507305-5.20304-5.507305-1.55178 0-2.921.760677-1.36922.760678-2.06904 2.31246-.42598-1.551782-1.70392-2.31246-1.24751-.760677-2.79929-.760677-1.91691 0-3.16442.821532-1.21708.821531-1.97776 2.282032h-.0913v-2.647158zM420.97599 58.10229h1.9169q-.0609-1.277938-.51726-2.221178-.4564-.94324-1.24751-1.582209-.76068-.638969-1.7952-.94324-1.00409-.304271-2.19075-.304271-1.03452 0-2.09947.243417-1.03452.243416-1.88648.760677-.85196.517261-1.39965 1.36922-.51726.851958-.51726 2.038615 0 1.004095.3347 1.703918.3347.669396.91281 1.15623.60855.456406 1.39965.791104.79111.304271 1.73435.547688l2.46459.547688q.63897.152135 1.24751.365125.63897.21299 1.1258.547688.48684.304271.76068.791104.30427.456407.30427 1.15623 0 .821532-.42598 1.399647-.39555.547687-1.03452.912813-.63897.365125-1.39964.51726-.73025.152136-1.43008.152136-1.91691 0-3.22527-.973667-1.27794-1.004095-1.39965-2.951429h-1.9169q.24341 2.890574 1.94733 4.19894 1.73434 1.308365 4.50321 1.308365 1.09538 0 2.22118-.243417t2.00819-.791104q.91281-.578115 1.49093-1.460501.57811-.912813.57811-2.190751 0-1.034522-.39555-1.795199-.39555-.760678-1.03452-1.277938-.60855-.517261-1.43008-.821532-.7911-.334698-1.61263-.456407l-2.55588-.578114q-.48683-.121709-1.06495-.304271-.57811-.21299-1.06495-.517261-.48683-.304271-.82153-.73025-.30427-.456407-.30427-1.095376 0-.760678.3347-1.277938.3347-.517261.88238-.821532.54769-.334698 1.18666-.456406.6694-.152136 1.30837-.152136.82153 0 1.55178.21299.73025.182562 1.27794.608542.57811.425979.91281 1.095375.3347.638969.36513 1.521355z" style="font-weight:300;font-size:30.4271px;line-height:1.25;font-family:'Helvetica Neue';-inkscape-font-specification:'Helvetica Neue Light';text-align:center;letter-spacing:0;text-anchor:middle;fill:snow;stroke-width:.264583" transform="translate(-2.08743824 4.19179885)"/></g><g><path d="M188.11205 91.536546h6.42196q1.77905 0 3.0808.60748 1.30175.60749 2.12619 1.67058.82444 1.0414 1.21497 2.45163.41222 1.41022.41222 3.01571 0 1.605494-.41222 3.015724-.39053 1.41023-1.21497 2.47332-.82444 1.0414-2.12619 1.64888-1.30175.60748-3.0808.60748h-6.42196zm2.71198 13.277834h2.66858q1.58379 0 2.5818-.41222 1.0197-.43392 1.58379-1.17157.58579-.75936.78105-1.75736.21696-1.0197.21696-2.191284 0-1.17157-.21696-2.16958-.19526-1.0197-.78105-1.75736-.56409-.75935-1.58379-1.17157-.99801-.43392-2.5818-.43392h-2.66858zM204.87228 95.810616h2.32145v2.16958h.0434q.10847-.45561.41222-.88952.32543-.43392.75935-.78105.45561-.36883.99801-.58579.54239-.21696 1.10648-.21696.43392 0 .58579.0217.17357.0217.34713.0434v2.38654q-.26035-.0434-.54239-.0651-.26035-.0434-.5207-.0434-.62918 0-1.19327.26035-.5424.23865-.95462.73766-.41222.4773-.65087 1.193264-.23866.71597-.23866 1.64889v5.33716h-2.47332zM212.10873 104.09842h3.01572v2.92893h-3.01572zM219.10177 99.954516h6.31347v2.343154h-6.31347zM229.54885 91.536546h2.71197v15.490804h-2.71197zM236.64766 95.810616h2.34315v1.64888l.0434.0434q.56409-.93292 1.47532-1.45362.91122-.5424 2.0177-.5424 1.84415 0 2.90724.95462 1.0631.95461 1.0631 2.86384v7.702014h-2.47333v-7.051134q-.0434-1.32345-.56409-1.90923-.5207-.60749-1.62718-.60749-.62918 0-1.12818.23866-.49901.21696-.84614.62918-.34713.39052-.54239.93292-.19527.54239-.19527 1.149874v6.61722h-2.47332zM260.90514 106.44157q0 2.5384-1.43192 3.77507-1.41023 1.25835-4.07882 1.25835-.84613 0-1.71396-.17356-.84614-.17357-1.5621-.58579-.69427-.41222-1.17157-1.08479-.47731-.67257-.5641-1.64888h2.47333q.10848.5207.36882.84613.26035.32544.60749.49901.36883.19526.80274.23865.43392.0651.91123.0651 1.49701 0 2.19127-.73766.69427-.73766.69427-2.12619v-1.71397h-.0434q-.5207.93292-1.43193 1.45362-.88953.5207-1.93092.5207-1.34514 0-2.29976-.45561-.93292-.47731-1.5621-1.28005-.60748-.82444-.88952-1.88754-.28205-1.06309-.28205-2.27806 0-1.128184.34713-2.147884.34714-1.0197.99801-1.77906.65087-.78104 1.58379-1.23666.95462-.45561 2.14789-.45561 1.06309 0 1.95262.45561.88953.43392 1.36684 1.38854h.0434v-1.54041h2.47332zm-5.48904-1.36684q.82444 0 1.38853-.32544.58579-.34713.93292-.88952.36883-.5641.5207-1.25836.17357-.71596.17357-1.43192t-.17357-1.388534q-.17357-.67257-.54239-1.19327-.34714-.5207-.93292-.82444-.56409-.30375-1.36684-.30375-.82444 0-1.38853.34714-.56409.34713-.91122.91122-.34714.5424-.49901 1.25836-.15187.694264-.15187 1.388534 0 .69426.17357 1.36683.17356.65088.5207 1.17158.36883.5207.91122.84613.56409.32544 1.34514.32544zM265.04044 104.09842h3.01572v2.92893h-3.01572zM288.43709 102.03732q0 1.0197-.17357 1.97432-.17357.95461-.71596 1.71396-.5207.75936-1.5404 1.21497-.99801.45561-2.66859.45561-1.23666 0-2.10449-.36883-.86783-.39052-1.43192-1.0414-.56409-.67257-.82444-1.58379-.26035-.91122-.26035-1.97432v-.82444h2.71197v.80275q0 1.32344.43392 2.0611.45561.71596 1.69227.71596.65088 0 1.0631-.19526.43391-.19526.67257-.56409.26035-.39053.34713-.95462.0868-.56409.0868-1.28005V91.536546h2.71198zM302.66873 107.02735h-2.42993v-1.56209h-.0434q-.45561.84613-1.36684 1.36683-.88953.499-1.82244.499-2.21298 0-3.21098-1.08479-.97631-1.10648-.97631-3.31945v-7.116234h2.47332v6.877574q0 1.47532.56409 2.0828.56409.60748 1.58379.60748.78105 0 1.30175-.23865.5207-.23866.84614-.62918.32543-.41222.45561-.97631.15187-.56409.15187-1.21497v-6.508744h2.47332zm-8.04914-13.060874v-2.34315h2.47332v2.34315zm6.205-2.34315v2.34315h-2.47333v-2.34315zM306.70572 95.810616h2.32145v2.16958h.0434q.10848-.45561.41222-.88952.32544-.43392.75936-.78105.45561-.36883.998-.58579.5424-.21696 1.10649-.21696.43392 0 .58579.0217.17356.0217.34713.0434v2.38654q-.26035-.0434-.5424-.0651-.26034-.0434-.52069-.0434-.62918 0-1.19327.26035-.5424.23865-.95462.73766-.41222.4773-.65087 1.193264-.23866.71597-.23866 1.64889v5.33716h-2.47333zM326.13249 106.44157q0 2.5384-1.43192 3.77507-1.41023 1.25835-4.07881 1.25835-.84614 0-1.71397-.17356-.84614-.17357-1.5621-.58579-.69426-.41222-1.17157-1.08479-.47731-.67257-.56409-1.64888h2.47332q.10848.5207.36883.84613.26035.32544.60748.49901.36883.19526.80274.23865.43392.0651.91123.0651 1.49701 0 2.19127-.73766.69427-.73766.69427-2.12619v-1.71397h-.0434q-.5207.93292-1.43193 1.45362-.88952.5207-1.93092.5207-1.34514 0-2.29976-.45561-.93292-.47731-1.56209-1.28005-.60749-.82444-.88953-1.88754-.28205-1.06309-.28205-2.27806 0-1.128184.34714-2.147884.34713-1.0197.998-1.77906.65088-.78104 1.5838-1.23666.95461-.45561 2.14788-.45561 1.06309 0 1.95262.45561.88953.43392 1.36684 1.38854h.0434v-1.54041h2.47332zm-5.48904-1.36684q.82444 0 1.38853-.32544.58579-.34713.93292-.88952.36883-.5641.5207-1.25836.17357-.71596.17357-1.43192t-.17357-1.388534q-.17356-.67257-.54239-1.19327-.34714-.5207-.93292-.82444-.56409-.30375-1.36684-.30375-.82444 0-1.38853.34714-.56409.34713-.91122.91122-.34714.5424-.49901 1.25836-.15187.694264-.15187 1.388534 0 .69426.17357 1.36683.17357.65088.5207 1.17158.36883.5207.91122.84613.56409.32544 1.34514.32544zM337.77455 100.43183q-.0434-.585794-.26035-1.128184-.19527-.5424-.5641-.93292-.34713-.41222-.86783-.65088-.499-.26035-1.12818-.26035-.65087 0-1.19327.23866-.5207.21696-.91122.62918-.36883.39052-.60748.93292-.21696.54239-.23866 1.171574zm-5.77109 1.62718q0 .65088.17357 1.25836.19526.60748.56409 1.06309.36883.45562.93292.73766.56409.26035 1.34514.26035 1.08479 0 1.73566-.45561.67257-.47731.99801-1.41023h2.34315q-.19527.91123-.67257 1.62719-.47731.71596-1.14988 1.21496-.67257.47731-1.51871.71596-.82444.26035-1.73566.26035-1.32345 0-2.34315-.43391-1.0197-.43392-1.73566-1.21497-.69427-.78105-1.0631-1.86584-.34713-1.08479-.34713-2.38653 0-1.19327.36883-2.256374.39052-1.08479 1.08479-1.88753.71596-.82444 1.71397-1.30175.998-.47731 2.25636-.47731 1.32344 0 2.36484.56409 1.0631.5424 1.75736 1.45362.69427.91123.99801 2.10449.32544 1.171584.17357 2.429934zM343.57804 95.810616h2.34315v1.64888l.0434.0434q.56409-.93292 1.47532-1.45362.91122-.5424 2.01771-.5424 1.84414 0 2.90723.95462 1.0631.95461 1.0631 2.86384v7.702014h-2.47332v-7.051134q-.0434-1.32345-.56409-1.90923-.5207-.60749-1.62719-.60749-.62918 0-1.12818.23866-.499.21696-.84614.62918-.34713.39052-.54239.93292-.19526.54239-.19526 1.149874v6.61722h-2.47333zM365.25802 91.536546h11.15164v2.34315h-8.43967v4.05711h7.81049v2.212974h-7.81049v4.53443h8.59154v2.34314h-11.30351zM380.02662 91.536546h2.47332v5.74939h.0434q.45561-.75935 1.34513-1.25836.91123-.5207 2.01771-.5207 1.84415 0 2.90724.95462 1.0631.95461 1.0631 2.86384v7.702014h-2.47333v-7.051134q-.0434-1.32345-.56409-1.90923-.5207-.60749-1.62718-.60749-.62918 0-1.12818.23866-.49901.21696-.84614.62918-.34713.39052-.54239.93292-.19527.54239-.19527 1.149874v6.61722h-2.47332zM393.91351 95.810616h2.32145v2.16958h.0434q.10848-.45561.41222-.88952.32544-.43392.75935-.78105.45562-.36883.99801-.58579.5424-.21696 1.10649-.21696.43391 0 .58578.0217l.34714.0434v2.38654q-.26035-.0434-.5424-.0651-.26035-.0434-.5207-.0434-.62918 0-1.19327.26035-.54239.23865-.95461.73766-.41222.4773-.65088 1.193264-.23865.71597-.23865 1.64889v5.33716h-2.47332zM410.26455 100.43183q-.0434-.585794-.26035-1.128184-.19526-.5424-.56409-.93292-.34713-.41222-.86783-.65088-.49901-.26035-1.12818-.26035-.65088 0-1.19327.23866-.5207.21696-.91123.62918-.36882.39052-.60748.93292-.21696.54239-.23865 1.171574zm-5.77108 1.62718q0 .65088.17356 1.25836.19527.60748.56409 1.06309.36883.45562.93292.73766.5641.26035 1.34514.26035 1.08479 0 1.73567-.45561.67257-.47731.998-1.41023h2.34315q-.19526.91123-.67257 1.62719-.47731.71596-1.14988 1.21496-.67257.47731-1.5187.71596-.82444.26035-1.73567.26035-1.32344 0-2.34314-.43391-1.01971-.43392-1.73567-1.21497-.69426-.78105-1.06309-1.86584-.34713-1.08479-.34713-2.38653 0-1.19327.36882-2.256374.39053-1.08479 1.0848-1.88753.71596-.82444 1.71396-1.30175.99801-.47731 2.25637-.47731 1.32344 0 2.36484.56409 1.06309.5424 1.75736 1.45362.69426.91123.99801 2.10449.32543 1.171584.17356 2.429934zM414.92328 95.810616h1.86584v-3.36285h2.47332v3.36285h2.23467v1.84415h-2.23467v5.988044q0 .39052.0217.67257.0434.28204.15187.47731.13017.19526.36883.30374.23865.0868.65087.0868h.5207q.26035-.0217.5207-.0868v1.90923q-.41222.0434-.80275.0868-.39052.0434-.80274.0434-.97631 0-1.58379-.17356-.58579-.19527-.93292-.5424-.32544-.36883-.45561-.91122-.10848-.5424-.13018-1.23666v-6.617224h-1.86584z" style="font-weight:500;font-size:21.6958px;line-height:1.25;font-family:'Helvetica Neue';-inkscape-font-specification:'Helvetica Neue Medium';text-align:center;letter-spacing:1.42875px;text-anchor:middle;fill:snow;stroke-width:.264583" transform="translate(-2.10350884 1.93602485)"/></g><g style="display:inline;stroke-width:.979756"><path style="display:inline;fill:none;fill-opacity:1;stroke:snow;stroke-width:2.00522;stroke-miterlimit:4;stroke-dasharray:none;stroke-opacity:1;stop-color:#000" d="M156.73409 61.00806a9.6791188 5.5857791 0 0 1-9.67906 5.585748 9.6791188 5.5857791 0 0 1-9.67906-5.58574 9.6791188 5.5857791 0 0 1 9.67907-5.585723 9.6791188 5.5857791 0 0 1 9.67905 5.585715z" transform="matrix(.9801 0 0 .98039 2.26682586 4.26096515)"/><path style="display:inline;fill:none;fill-opacity:1;stroke:snow;stroke-width:2.45083;stroke-miterlimit:4;stroke-dasharray:none;stroke-opacity:1;stop-color:#000" d="M158.23025 61.008077a16.325442 9.7041993 0 0 1-16.32537 9.704117 16.325442 9.7041993 0 0 1-16.32535-9.704126 16.325442 9.7041993 0 0 1 16.32536-9.704104 16.325442 9.7041993 0 0 1 16.32536 9.704113z" transform="matrix(.9801 0 0 .98039 2.26682586 4.26096515)"/><path style="display:inline;fill:none;fill-opacity:1;stroke:snow;stroke-width:2.89641;stroke-miterlimit:4;stroke-dasharray:none;stroke-opacity:1;stop-color:#000" d="M159.90289 61.008068a27.411507 16.701008 0 0 1-27.41137 16.700878 27.411507 16.701008 0 0 1-27.41129-16.700878 27.411507 16.701008 0 0 1 27.41129-16.700851 27.411507 16.701008 0 0 1 27.41137 16.700851Z" transform="matrix(.9801 0 0 .98039 2.26682586 4.26096515)"/><path style="display:inline;fill:none;fill-opacity:1;stroke:snow;stroke-width:3.34204;stroke-miterlimit:4;stroke-dasharray:none;stroke-opacity:1;stop-color:#000" d="M161.90701 61.008051a45.681098 28.355063 0 0 1-45.68088 28.354865 45.681098 28.355063 0 0 1-45.680802-28.354865 45.681098 28.355063 0 0 1 45.680812-28.354787 45.681098 28.355063 0 0 1 45.68087 28.354787Z" transform="matrix(.9801 0 0 .98039 2.26682586 4.26096515)"/><path style="display:inline;fill:none;fill-opacity:1;stroke:snow;stroke-width:3.78764;stroke-miterlimit:4;stroke-dasharray:none;stroke-opacity:1;stop-color:#000" d="M164.28761 61.008025a75.573608 47.544526 0 0 1-75.573296 47.544185A75.573608 47.544526 0 0 1 13.14123 61.008033a75.573608 47.544526 0 0 1 75.573084-47.544086 75.573608 47.544526 0 0 1 75.573296 47.544078Z" transform="matrix(.9801 0 0 .98039 2.26682586 4.26096515)"/></g></g></svg>