<svg width="1642.7876" height="461.16409" viewBox="0 0 434.65408 122.01631" xmlns="http://www.w3.org/2000/svg"><defs><path id="d" d="M83.976158 1224.1858h406.81784v278.05438H83.976158z"/><path id="c" d="M1600.6648 5530.2114h158.57976v94.550331H1600.6648z"/><path id="b" d="M157-13h55v40h-55z"/><filter style="color-interpolation-filters:sRGB" id="a" x="-.05642297" y="-.03515585" width="1.1128459" height="1.0703117"><feGaussianBlur stdDeviation="1.1384116"/></filter></defs><text xml:space="preserve" transform="matrix(.26458 0 0 .26458 58.519963 -2150.443)" style="font-size:36px;line-height:1.25;font-family:Lato;-inkscape-font-specification:Lato;text-align:center;letter-spacing:0;white-space:pre;shape-inside:url(#b)"><tspan x="157" y="60.48"><tspan dx="0 20.882812 20.039062 14.484375 18.84375">Ehret</tspan></tspan></text><g style="display:inline"><path style="display:inline;vector-effect:none;fill:#000;fill-opacity:.35;stroke-width:.874622;stroke-opacity:.968165;stop-color:#000" d="M0 .000001h434.65422V122.01633H0Z"/></g><g style="display:inline"><g style="display:inline"><path style="display:inline;fill:none;fill-opacity:1;stroke:#fff;stroke-width:2.04665;stroke-miterlimit:4;stroke-dasharray:none;stroke-opacity:1;stop-color:#000" d="M43.070397 87.321834a9.6791188 5.5857791 0 0 1-9.67906 5.585748 9.6791188 5.5857791 0 0 1-9.679061-5.58574 9.6791188 5.5857791 0 0 1 9.67907-5.585723 9.6791188 5.5857791 0 0 1 9.679051 5.585715z" transform="translate(113.2031091 -26.31368489)"/><path style="display:inline;fill:none;fill-opacity:1;stroke:#fff;stroke-width:2.50147;stroke-miterlimit:4;stroke-dasharray:none;stroke-opacity:1;stop-color:#000" d="M44.566556 87.321851a16.325442 9.7041993 0 0 1-16.325367 9.704117 16.325442 9.7041993 0 0 1-16.325349-9.704126 16.325442 9.7041993 0 0 1 16.325357-9.704104 16.325442 9.7041993 0 0 1 16.325359 9.704113Z" transform="translate(113.2031091 -26.31368489)"/><path style="display:inline;fill:none;fill-opacity:1;stroke:#fff;stroke-width:2.95626;stroke-miterlimit:4;stroke-dasharray:none;stroke-opacity:1;stop-color:#000" d="M46.239202 87.321842a27.411507 16.701008 0 0 1-27.411369 16.700878A27.411507 16.701008 0 0 1-8.5834577 87.321842 27.411507 16.701008 0 0 1 18.827833 70.620991a27.411507 16.701008 0 0 1 27.411369 16.700851Z" transform="translate(113.2031091 -26.31368489)"/><path style="display:inline;fill:none;fill-opacity:1;stroke:#fff;stroke-width:3.41109;stroke-miterlimit:4;stroke-dasharray:none;stroke-opacity:1;stop-color:#000" d="M48.243318 87.321825A45.681098 28.355063 0 0 1 2.5624435 115.67669 45.681098 28.355063 0 0 1-43.118362 87.321825 45.681098 28.355063 0 0 1 2.5624522 58.967038 45.681098 28.355063 0 0 1 48.243318 87.321825Z" transform="translate(113.2031091 -26.31368489)"/><path style="display:inline;fill:none;fill-opacity:1;stroke:#fff;stroke-width:3.8659;stroke-miterlimit:4;stroke-dasharray:none;stroke-opacity:1;stop-color:#000" d="M50.623924 87.321799a75.573608 47.544526 0 0 1-75.5733 47.544181 75.573608 47.544526 0 0 1-75.573084-47.544173 75.573608 47.544526 0 0 1 75.573084-47.544086 75.573608 47.544526 0 0 1 75.5733 47.544078z" transform="translate(113.2031091 -26.31368489)"/></g><g aria-label="Ingenieurbüro" style="font-weight:300;font-size:30.4271px;line-height:1.25;font-family:'Helvetica Neue';-inkscape-font-specification:'Helvetica Neue Light';text-align:center;letter-spacing:4.94771px;text-anchor:middle;display:inline;fill:#fff;stroke-width:.264583"><path d="M188.587277 13.883349v21.72495h2.069043v-21.72495zM199.762083 19.907919v15.70038h1.916908v-9.15855q.03043-1.15623.365125-2.1299.365125-1.00409.973667-1.70392.638969-.73025 1.521355-1.1258.912813-.42598 2.069043-.42598 1.15623 0 1.916907.36513.791105.36512 1.247511 1.00409.4564066.63897.6389692 1.52135.1825626.85196.1825626 1.85606v9.79752h1.9169072v-10.10179q0-1.39965-.2738439-2.52545-.2738439-1.12581-.9432401-1.88648-.6693961-.79111-1.795199-1.21709-1.095375-.42598-2.738439-.42598-1.67349 0-3.073137.88239-1.399646.85196-1.947334 2.28203h-.06085v-2.70801zM234.349114 34.330369v-14.42245h-1.916907v2.70801h-.06086q-.273843-.63897-.791104-1.21708-.486834-.57812-1.125803-1.0041-.6389689-.4564-1.4300735-.69982-.7606774-.24342-1.6430633-.24342-1.7039176 0-3.0427099.63897-1.3083653.60854-2.2211783 1.70392-.8823859 1.06495-1.36921945 2.52545-.45640648 1.43007-.45640648 3.04271 0 1.67349.39555229 3.16442.39555224 1.4605 1.24751104 2.55587.8823859 1.09538 2.2211783 1.73435 1.3387923.60854 3.2252725.60854 1.7343446 0 3.0122828-.88239 1.308365-.88238 1.977761-2.34288h.06086v2.1299q0 2.86014-1.186657 4.3815-1.186657 1.52135-3.8642418 1.52135-.7911046 0-1.5517821-.18256-.7606775-.15214-1.3996465-.51726-.608542-.36513-1.0649485-.97367-.4259794-.57811-.5781149-1.4605h-1.91690725q.0912813 1.24751.66939615 2.1299.608542.91281 1.4909279 1.49093.912813.57811 2.0386156.85195 1.1258027.27385 2.3124596.27385 1.9169072 0 3.2252728-.51726 1.338792-.51726 2.160324-1.49093.821531-.97367 1.186657-2.37331.395552-1.39965.395552-3.13399zm-6.9678058-.51727q-1.3387924 0-2.3124596-.51726-.9736671-.54768-1.6126362-1.39964-.6389691-.88239-.9432401-2.00819-.304271-1.1258-.304271-2.31246 0-1.21708.2738439-2.37331.304271-1.18666.9432401-2.09947.6389691-.91282 1.6126362-1.46051.9736672-.57811 2.3428867-.57811 1.3692195 0 2.3124595.57811.9736673.57812 1.5822093 1.52136.608542.94324.882386 2.09947.273844 1.15623.273844 2.31246 0 1.18666-.334698 2.31246-.304271 1.1258-.943241 2.00819-.638969.85196-1.5822087 1.39964-.94324.51726-2.1907511.51726zM254.256023 26.662739h-10.162651q.121708-1.06495.486833-2.06905.395552-1.03452 1.034522-1.7952.638969-.7911 1.551782-1.24751.912813-.48683 2.099469-.48683 1.15623 0 2.069043.48683.912813.45641 1.551782 1.24751.638969.76068.973667 1.76478.365126 1.00409.395553 2.09947zm-10.162651 1.61263h12.079558q.06085-1.64306-.304271-3.22527-.365125-1.61264-1.217084-2.82972-.821532-1.24751-2.160324-2.00819-1.338792-.76068-3.225273-.76068-1.856053 0-3.225272.73025-1.338792.69983-2.190751 1.88648-.851959 1.15623-1.277938 2.64716-.395553 1.49093-.395553 3.04271 0 1.67349.395553 3.19485.425979 1.49093 1.277938 2.64715.851959 1.12581 2.190751 1.7952 1.369219.63897 3.225272.63897 2.981856 0 4.594492-1.4605 1.643064-1.4605 2.251606-4.13808h-1.916907q-.456407 1.82562-1.643064 2.921-1.186657 1.09537-3.286127 1.09537-1.369219 0-2.342886-.57811-.973667-.57812-1.612636-1.4605-.63897-.88239-.943241-1.97776-.273843-1.12581-.273843-2.16033zM263.692681 19.907919v15.70038h1.916907v-9.15855q.03043-1.15623.365125-2.1299.365125-1.00409.973667-1.70392.638969-.73025 1.521355-1.1258.912813-.42598 2.069043-.42598 1.15623 0 1.916907.36513.791105.36512 1.247511 1.00409.456407.63897.638969 1.52135.182563.85196.182563 1.85606v9.79752h1.916907v-10.10179q0-1.39965-.273844-2.52545-.273843-1.12581-.94324-1.88648-.669396-.79111-1.795199-1.21709-1.095375-.42598-2.738438-.42598-1.673491 0-3.073137.88239-1.399647.85196-1.947335 2.28203h-.06085v-2.70801zM285.043925 13.883349v3.07314h1.916907v-3.07314zm0 6.02457v15.70038h1.916907v-15.70038zM306.89532 26.662739h-10.162651q.121708-1.06495.486834-2.06905.395552-1.03452 1.034521-1.7952.638969-.7911 1.551782-1.24751.912813-.48683 2.09947-.48683 1.15623 0 2.069043.48683.912813.45641 1.551782 1.24751.638969.76068.973667 1.76478.365125 1.00409.395552 2.09947zm-10.162651 1.61263h12.079558q.06085-1.64306-.304271-3.22527-.365125-1.61264-1.217084-2.82972-.821531-1.24751-2.160324-2.00819-1.338792-.76068-3.225272-.76068-1.856053 0-3.225273.73025-1.338792.69983-2.190751 1.88648-.851959 1.15623-1.277938 2.64716-.395552 1.49093-.395552 3.04271 0 1.67349.395552 3.19485.425979 1.49093 1.277938 2.64715.851959 1.12581 2.190751 1.7952 1.36922.63897 3.225273.63897 2.981856 0 4.594492-1.4605 1.643063-1.4605 2.251605-4.13808h-1.916907q-.456406 1.82562-1.643063 2.921-1.186657 1.09537-3.286127 1.09537-1.36922 0-2.342887-.57811-.973667-.57812-1.612636-1.4605-.638969-.88239-.94324-1.97776-.273844-1.12581-.273844-2.16033zM329.08093 35.608299v-15.70038h-1.9169v8.24574q0 1.18666-.27385 2.34289-.27384 1.1258-.85196 2.00819-.57811.88239-1.4605 1.43007-.88238.51726-2.12989.51726-2.28204 0-3.225277-1.09537-.912813-1.09538-.973668-3.22527v-10.22351h-1.916907v10.19308q0 1.39965.304271 2.49502.304271 1.09538.94324 1.85605.669396.76068 1.703918 1.15623 1.064953.42598 2.555873.42598 1.76477 0 3.19485-.82153 1.4605-.85196 2.22118-2.43417h.0608v2.82972zM337.6528 19.907919v15.70038h1.9169v-8.36745q0-1.24751.42598-2.28203.42598-1.06495 1.18666-1.82563.7911-.76067 1.85605-1.15623 1.06495-.42598 2.37332-.36512v-1.91691q-2.1299-.0913-3.68168.94324-1.52136 1.03452-2.25161 2.95143h-.0609v-3.68168zM352.16841 13.883349v21.72495h1.76477v-2.98185h.0609q.6694 1.64306 2.16033 2.52545 1.52135.88238 3.43826.88238 1.7952 0 3.10356-.63897 1.33879-.66939 2.22118-1.7952.88239-1.15622 1.30836-2.64715.42598-1.52136.42598-3.19485 0-1.67349-.42598-3.16442-.42597-1.52135-1.30836-2.64715-.88239-1.15623-2.22118-1.82563-1.30836-.6694-3.10356-.6694-.85196 0-1.70392.21299t-1.58221.6694q-.73025.42598-1.30836 1.06495-.54769.63897-.85196 1.49093h-.0609v-9.00643zm12.56639 13.87476q0 1.21709-.30427 2.43417-.27385 1.18666-.91282 2.1299-.60854.94324-1.58221 1.55178-.97366.57811-2.34288.57811-1.52136 0-2.58631-.57811-1.03452-.60854-1.70391-1.55178-.63897-.94324-.94324-2.1299-.27385-1.21708-.27385-2.43417 0-1.21708.27385-2.40374.30427-1.21708.94324-2.16032.66939-.94324 1.70391-1.52136 1.06495-.60854 2.58631-.60854 1.36922 0 2.34288.60854.97367.57812 1.58221 1.52136.63897.94324.91282 2.16032.30427 1.18666.30427 2.40374zM377.20465 17.199909h2.06904v-3.07314h-2.06904zm5.38559 0h2.06904v-3.07314h-2.06904zm4.7162 18.40839v-15.70038h-1.9169v8.24574q0 1.18666-.27385 2.34289-.27384 1.1258-.85196 2.00819-.57811.88239-1.4605 1.43007-.88238.51726-2.1299.51726-2.28203 0-3.22527-1.09537-.91281-1.09538-.97366-3.22527v-10.22351h-1.91691v10.19308q0 1.39965.30427 2.49502.30427 1.09538.94324 1.85605.6694.76068 1.70392 1.15623 1.06494.42598 2.55587.42598 1.76477 0 3.19485-.82153 1.4605-.85196 2.22118-2.43417h.0609v2.82972zM395.8783 19.907919v15.70038h1.91691v-8.36745q0-1.24751.42598-2.28203.42598-1.06495 1.18666-1.82563.7911-.76067 1.85605-1.15623 1.06495-.42598 2.37332-.36512v-1.91691q-2.1299-.0913-3.68168.94324-1.52136 1.03452-2.25161 2.95143h-.0609v-3.68168zM416.45602 21.064149q1.36922 0 2.40374.57811 1.03453.57812 1.70392 1.52136.69982.94324 1.03452 2.16032.36513 1.18666.36513 2.43417t-.36513 2.4646q-.3347 1.18665-1.03452 2.12989-.66939.94324-1.70392 1.52136-1.03452.57811-2.40374.57811-1.36922 0-2.40374-.57811-1.03452-.57812-1.73434-1.52136-.6694-.94324-1.03452-2.12989-.3347-1.21709-.3347-2.4646t.3347-2.43417q.36512-1.21708 1.03452-2.16032.69982-.94324 1.73434-1.52136 1.03452-.57811 2.40374-.57811zm0-1.61264q-1.7952 0-3.19484.6694-1.36922.6694-2.31246 1.7952-.94324 1.1258-1.43008 2.64716-.48683 1.49092-.48683 3.19484t.48683 3.22527q.48684 1.49093 1.43008 2.61673.94324 1.12581 2.31246 1.7952 1.39964.63897 3.19484.63897 1.7952 0 3.16442-.63897 1.39965-.66939 2.34289-1.7952.94324-1.1258 1.43007-2.61673.48684-1.52135.48684-3.22527t-.48684-3.19484q-.48683-1.52136-1.43007-2.64716t-2.34289-1.7952q-1.36922-.6694-3.16442-.6694z"/></g><g aria-label="Softwaresysteme" style="font-weight:300;font-size:30.4271px;line-height:1.25;font-family:'Helvetica Neue';-inkscape-font-specification:'Helvetica Neue Light';text-align:center;letter-spacing:.833438px;text-anchor:middle;display:inline;fill:#fff;stroke-width:.264583"><path d="M190.641942 62.0579h-2.069043q-.09128 2.008189.517261 3.438262.638969 1.430074 1.795199 2.342887 1.15623.912813 2.799293 1.369219 1.643063.42598 3.559971.42598 1.916907 0 3.286126-.365125 1.36922-.334699 2.282033-.882386.94324-.578115 1.460501-1.277939.547687-.699823.821531-1.369219.304271-.699823.365125-1.308365.09128-.608542.09128-.973667 0-1.338793-.456407-2.282033-.425979-.94324-1.217084-1.582209-.760677-.669396-1.795199-1.095376-1.004094-.456406-2.160324-.760677l-5.294315-1.308365q-.669396-.152136-1.277938-.395553-.578115-.243416-1.034521-.638969-.456407-.395552-.730251-.94324-.243417-.578115-.243417-1.338792 0-1.217084.456407-2.038616.456406-.821531 1.186657-1.308365.760677-.517261 1.734344-.73025 1.004095-.243417 2.069043-.243417 1.15623 0 2.190751.334698 1.064949.304271 1.856053.94324.821532.608542 1.308366 1.551782.51726.912813.578115 2.160324h2.069042q0-1.67349-.669396-2.921001-.638969-1.277939-1.734345-2.129897-1.095375-.851959-2.555876-1.277939-1.460501-.425979-3.073137-.425979-2.282032 0-3.742533.669396-1.460501.638969-2.31246 1.582209-.821531.94324-1.125802 2.008189-.304271 1.064948-.304271 1.856053 0 1.277938.395552 2.160324.425979.882386 1.095376 1.490928.669396.608542 1.551782.973667.912813.365125 1.856053.608542l4.837908 1.186657q.760678.182562 1.551783.486833.791104.273844 1.430073.730251.669396.456406 1.064949 1.125803.425979.669396.425979 1.582209 0 1.186657-.578115 2.038615-.578115.821532-1.460501 1.36922-.851958.51726-1.856053.760677-1.004094.243417-1.856053.243417-1.490928 0-2.799293-.273844-1.308365-.304271-2.282032-.973667-.94324-.669396-1.490928-1.795199-.547688-1.125803-.517261-2.799293zM215.9649173 54.664115q1.3692194 0 2.4037408.578115 1.03452137.578115 1.70391755 1.521355.69982329.94324 1.03452135 2.160324.3651252 1.186657.3651252 2.434168t-.3651252 2.464595q-.33469806 1.186657-1.03452135 2.129897-.66939618.94324-1.70391755 1.521355-1.0345214.578115-2.4037408.578115-1.3692195 0-2.4037409-.578115-1.0345214-.578115-1.7343446-1.521355-.6693962-.94324-1.0345214-2.129897-.3346981-1.217084-.3346981-2.464595t.3346981-2.434168q.3651252-1.217084 1.0345214-2.160324.6998232-.94324 1.7343446-1.521355t2.4037409-.578115zm0-1.612636q-1.7951989 0-3.1948455.669396-1.3692194.669396-2.3124595 1.795199-.9432403 1.125802-1.4300733 2.647157-.486834 1.490928-.486834 3.194846 0 1.703917.486834 3.225272.486833 1.490928 1.4300733 2.616731.9432401 1.125802 2.3124595 1.795199 1.3996466.638969 3.1948455.638969 1.7951988 0 3.16441828-.638969 1.39964656-.669397 2.34288662-1.795199.9432401-1.125803 1.4300737-2.616731.4868336-1.521355.4868336-3.225272 0-1.703918-.4868336-3.194846-.4868336-1.521355-1.4300737-2.647157-.94324006-1.125803-2.34288662-1.795199-1.36921948-.669396-3.16441828-.669396zM233.1572 55.120521v-1.612636h-3.103565v-1.369219q0-.638969.03043-1.186657.03043-.547688.212989-.94324.21299-.42598.638969-.669396.42598-.243417 1.217084-.243417.334698 0 .669396.06085.334699.03043.730251.09128v-1.643063q-.456407-.06085-.821532-.09128-.365125-.03043-.791104-.03043-1.15623 0-1.916908.334699-.73025.334698-1.1562294.94324-.4259794.608542-.5781149 1.4605-.1521355.851959-.1521355 1.856053v1.430074h-2.6775867v1.612636h2.6775847v14.087747h1.9169068V55.120515zM238.882271 53.507885v-4.7162h-1.916907v4.7162h-2.738439v1.612636h2.738439v10.740766q-.03043 2.008189.73025 2.768866.760678.730251 2.677585.730251.425979 0 .851959-.03043.425979-.03043.851958-.03043v-1.612637q-.821531.09128-1.643063.09128-1.034521-.06085-1.308365-.578115-.243417-.547688-.243417-1.490928V55.120513h3.194845v-1.612636zM244.123834 53.507885l5.050898 15.700383h2.09947l3.833815-13.205361h.06085l3.864241 13.205361h2.09947l5.050899-15.700383h-2.038616l-4.016377 13.448778h-.06085l-3.833815-13.448778h-2.160324l-3.833814 13.448778h-.06086l-4.016377-13.448778zM268.880101 58.315367h1.916907q.06086-1.916907 1.217084-2.768866 1.15623-.882386 2.981856-.882386.851959 0 1.582209.152135.760678.121709 1.308365.486834.578115.365125.882386 1.004094.334698.608542.334698 1.582209 0 .63897-.182562 1.034522-.152136.395552-.456407.638969-.304271.21299-.760677.304271-.456407.09128-1.064949.152135-1.551782.182563-3.073137.395553-1.490928.182562-2.708011.669396-1.186657.486833-1.916908 1.430074-.73025.912812-.73025 2.555876 0 1.186657.395552 2.069043.42598.851958 1.125803 1.430073.73025.547688 1.67349.791105.973667.273844 2.069043.273844 1.15623 0 1.977761-.21299.851959-.21299 1.490928-.608542.669397-.395552 1.186657-.973667.547688-.608542 1.064949-1.36922h.06085q0 .608542.06085 1.125803.09128.486834.334698.851959.243417.365125.669396.578115.456407.182562 1.186657.182562.395553 0 .638969-.03043.273844-.03043.608542-.09128v-1.612636q-.273844.121708-.608542.121708-1.125802 0-1.125802-1.15623v-8.337025q0-1.582209-.517261-2.555876-.517261-1.004094-1.338792-1.551782-.821532-.547688-1.856053-.730251-1.034522-.212989-2.069043-.212989-1.36922 0-2.495022.304271-1.125803.304271-1.977762.94324-.821531.638969-1.308365 1.643063-.486834 1.004094-.578115 2.373314zm10.223505 2.312459v2.495022q0 1.15623-.456406 2.069043-.425979.912813-1.186657 1.551782-.73025.638969-1.734345.973667-1.004094.334699-2.099469.334699-.669397 0-1.308366-.21299-.638969-.21299-1.125802-.608542-.486834-.425979-.791105-.973667-.273844-.578115-.273844-1.308366 0-1.156229.669396-1.764771.699824-.638969 1.764772-.973667 1.064949-.334699 2.342887-.486834 1.308365-.182563 2.525449-.395552.395552-.06086.912813-.21299.517261-.152136.699823-.486834zM285.70393 53.507885v15.700383h1.916907v-8.367452q0-1.247511.425979-2.282032.42598-1.064949 1.186657-1.825626.791105-.760678 1.856053-1.15623 1.064949-.42598 2.373314-.365125v-1.916908q-2.129897-.09128-3.681679.943241-1.521355 1.034521-2.251606 2.951428h-.06085v-3.681679zM306.822713 60.262701h-10.162651q.121708-1.064948.486834-2.069043.395552-1.034521 1.034521-1.795198.638969-.791105 1.551782-1.247512.912813-.486833 2.09947-.486833 1.15623 0 2.069043.486833.912813.456407 1.551782 1.247512.638969.760677.973667 1.764771.365125 1.004095.395552 2.09947zm-10.162651 1.612636h12.079558q.06086-1.643063-.304271-3.225272-.365125-1.612636-1.217083-2.82972-.821532-1.247511-2.160325-2.008189-1.338792-.760677-3.225272-.760677-1.856053 0-3.225273.73025-1.338792.699823-2.190751 1.88648-.851958 1.15623-1.277938 2.647158-.395552 1.490928-.395552 3.04271 0 1.67349.395552 3.194845.42598 1.490928 1.277938 2.647158.851959 1.125802 2.190751 1.795199 1.36922.638969 3.225273.638969 2.981856 0 4.594492-1.460501 1.643063-1.460501 2.251605-4.138086h-1.916907q-.456406 1.825626-1.643063 2.921002-1.186657 1.095376-3.286127 1.095376-1.369219 0-2.342887-.578115-.973667-.578115-1.612636-1.460501t-.94324-1.977762q-.273844-1.125802-.273844-2.160324zM321.55423 58.102377h1.91691q-.0609-1.277938-.51726-2.221178-.45641-.94324-1.24752-1.582209-.76067-.638969-1.79519-.94324-1.004098-.304271-2.190755-.304271-1.034522 0-2.09947.243416-1.034521.243417-1.88648.760678-.851959.517261-1.399647 1.369219-.51726.851959-.51726 2.038616 0 1.004094.334698 1.703918.334698.669396.912813 1.156229.608542.456407 1.399646.791105.791105.304271 1.734345.547688l2.464595.547688q.638969.152135 1.247515.365125.63897.212989 1.1258.547687.48683.304271.76068.791105.30427.456407.30427 1.15623 0 .821532-.42598 1.399646-.39555.547688-1.03452.912813-.63897.365126-1.39965.517261-.730251.152136-1.430074.152136-1.916907 0-3.225272-.973668-1.277939-1.004094-1.399647-2.951428h-1.916907q.243417 2.890574 1.947334 4.198939 1.734345 1.308366 4.503211 1.308366 1.095375 0 2.221175-.243417 1.12581-.243417 2.00819-.791105.91281-.578115 1.49093-1.4605.57811-.912813.57811-2.190752 0-1.034521-.39555-1.795198-.39555-.760678-1.03452-1.277939-.60854-.51726-1.43007-.821531-.79111-.334698-1.612639-.456407l-2.555877-.578115q-.486833-.121708-1.064948-.304271-.578115-.212989-1.064949-.51726-.486833-.304271-.821531-.730251-.304271-.456406-.304271-1.095375 0-.760678.334698-1.277938.334698-.517261.882386-.821532.547688-.334698 1.186657-.456407.669396-.152135 1.308365-.152135.821532 0 1.551782.21299.73025.182562 1.277937.608542.57812.425979.91281 1.095375.3347.638969.36513 1.521355zM325.8402 53.507885l6.26798 15.639529-.6694 1.764772q-.24341.547688-.4564 1.004094-.21299.456407-.51726.760678-.30428.334698-.73025.51726-.39556.182563-1.03453.182563-.33469 0-.66939-.06085-.30427-.03043-.63897-.09128v1.612637q.24342.09128.54769.09128.33469.03043.91281.06085.91281 0 1.49093-.182562.60854-.152136 1.03452-.547688.45641-.365125.82153-1.034522.36513-.638969.79111-1.643063l6.81567-18.073697h-1.91691l-4.83791 13.387924-5.17261-13.387924zM351.92479 58.102377h1.91691q-.0609-1.277938-.51726-2.221178-.45641-.94324-1.24752-1.582209-.76067-.638969-1.79519-.94324-1.0041-.304271-2.19076-.304271-1.03452 0-2.09947.243416-1.03452.243417-1.88648.760678-.85195.517261-1.39964 1.369219-.51726.851959-.51726 2.038616 0 1.004094.3347 1.703918.33469.669396.91281 1.156229.60854.456407 1.39964.791105.79111.304271 1.73435.547688l2.46459.547688q.63897.152135 1.24752.365125.63896.212989 1.1258.547687.48683.304271.76068.791105.30427.456407.30427 1.15623 0 .821532-.42598 1.399646-.39555.547688-1.03452.912813-.63897.365126-1.39965.517261-.73025.152136-1.43007.152136-1.91691 0-3.22528-.973668-1.27793-1.004094-1.39964-2.951428h-1.91691q.24342 2.890574 1.94733 4.198939 1.73435 1.308366 4.50321 1.308366 1.09538 0 2.22118-.243417 1.12581-.243417 2.00819-.791105.91281-.578115 1.49093-1.4605.57811-.912813.57811-2.190752 0-1.034521-.39555-1.795198-.39555-.760678-1.03452-1.277939-.60854-.51726-1.43007-.821531-.79111-.334698-1.61264-.456407l-2.55588-.578115q-.48683-.121708-1.06494-.304271-.57812-.212989-1.06495-.51726-.48684-.304271-.82153-.730251-.30428-.456406-.30428-1.095375 0-.760678.3347-1.277938.3347-.517261.88239-.821532.54769-.334698 1.18666-.456407.66939-.152135 1.30836-.152135.82153 0 1.55178.21299.73025.182562 1.27794.608542.57812.425979.91281 1.095375.3347.638969.36513 1.521355zM361.01824 53.507885v-4.7162h-1.91691v4.7162h-2.73844v1.612636h2.73844v10.740766q-.0304 2.008189.73025 2.768866.76068.730251 2.67759.730251.42598 0 .85195-.03043.42598-.03043.85196-.03043v-1.612637q-.82153.09128-1.64306.09128-1.03452-.06085-1.30836-.578115-.24342-.547688-.24342-1.490928V55.120513h3.19484v-1.612636zM379.13047 60.262701h-10.16265q.12171-1.064948.48683-2.069043.39555-1.034521 1.03452-1.795198.63897-.791105 1.55178-1.247512.91282-.486833 2.09947-.486833 1.15623 0 2.06905.486833.91281.456407 1.55178 1.247512.63897.760677.97367 1.764771.36512 1.004095.39555 2.09947zm-10.16265 1.612636h12.07956q.0608-1.643063-.30428-3.225272-.36512-1.612636-1.21708-2.82972-.82153-1.247511-2.16032-2.008189-1.3388-.760677-3.22528-.760677-1.85605 0-3.22527.73025-1.33879.699823-2.19075 1.88648-.85196 1.15623-1.27794 2.647158-.39555 1.490928-.39555 3.04271 0 1.67349.39555 3.194845.42598 1.490928 1.27794 2.647158.85196 1.125802 2.19075 1.795199 1.36922.638969 3.22527.638969 2.98186 0 4.5945-1.460501 1.64306-1.460501 2.2516-4.138086h-1.91691q-.4564 1.825626-1.64306 2.921002-1.18666 1.095376-3.28613 1.095376-1.36922 0-2.34288-.578115-.97367-.578115-1.61264-1.460501t-.94324-1.977762q-.27384-1.125802-.27384-2.160324zM384.48328 53.507885v15.700383h1.91691v-8.763004q0-1.247511.27384-2.282033.27384-1.064948.82153-1.825626.57812-.791104 1.4605-1.217084.91282-.456406 2.1299-.456406.91281 0 1.55178.304271.63897.304271 1.0041.851959.39555.51726.54768 1.247511.18257.699823.18257 1.490928v10.649484h1.9169v-8.884713q0-1.095375.18257-2.099469.21299-1.034522.69982-1.825626.48683-.791105 1.30837-1.247512.82153-.486833 2.06904-.486833 2.06904 0 2.89057 1.034521.82153 1.004095.82153 2.951429v10.558203h1.91691V58.558784q0-5.507305-5.20303-5.507305-1.55178 0-2.921.760677-1.36922.760678-2.06905 2.31246-.42598-1.551782-1.70391-2.31246-1.24752-.760677-2.7993-.760677-1.9169 0-3.16442.821531-1.21708.821532-1.97776 2.282033h-.0913v-2.647158zM421.9809 60.262701h-10.16265q.12171-1.064948.48683-2.069043.39556-1.034521 1.03452-1.795198.63897-.791105 1.55179-1.247512.91281-.486833 2.09947-.486833 1.15623 0 2.06904.486833.91281.456407 1.55178 1.247512.63897.760677.97367 1.764771.36512 1.004095.39555 2.09947zm-10.16265 1.612636h12.07956q.0609-1.643063-.30427-3.225272-.36513-1.612636-1.21709-2.82972-.82153-1.247511-2.16032-2.008189-1.33879-.760677-3.22527-.760677-1.85606 0-3.22528.73025-1.33879.699823-2.19075 1.88648-.85196 1.15623-1.27793 2.647158-.39556 1.490928-.39556 3.04271 0 1.67349.39556 3.194845.42597 1.490928 1.27793 2.647158.85196 1.125802 2.19075 1.795199 1.36922.638969 3.22528.638969 2.98185 0 4.59449-1.460501 1.64306-1.460501 2.2516-4.138086h-1.9169q-.45641 1.825626-1.64307 2.921002-1.18665 1.095376-3.28612 1.095376-1.36922 0-2.34289-.578115t-1.61264-1.460501q-.63897-.882386-.94324-1.977762-.27384-1.125802-.27384-2.160324z"/></g><g aria-label="Dr.-Ing. Jürgen Ehret" style="font-weight:700;font-size:21.6958px;line-height:1.25;font-family:'PT Sans';-inkscape-font-specification:'PT Sans Bold';text-align:center;letter-spacing:1.42875px;text-anchor:middle;display:inline;stroke-width:.264583"><path d="M-31.29732-44.741633h6.421957q1.779055 0 3.080803.607482t2.126189 1.670577q.82444 1.041398 1.214965 2.451625.41222 1.410227.41222 3.015717 0 1.605489-.41222 3.015716-.390525 1.410227-1.214965 2.473321-.824441 1.041399-2.126189 1.648881-1.301748.607482-3.080803.607482h-6.421957zm2.711975 13.27783h2.668583q1.583794 0 2.5818-.41222 1.019703-.433917 1.583794-1.171574.585786-.759353.781049-1.75736.216958-1.019702.216958-2.191275 0-1.171574-.216958-2.169581-.195263-1.019702-.781049-1.757359-.564091-.759353-1.583794-1.171574-.998006-.433916-2.5818-.433916h-2.668583zM-14.537096-40.467561h2.32145v2.16958h.04339q.108479-.455611.41222-.889527.325437-.433916.759353-.781049.455612-.368829.998007-.585787.5423951-.216958 1.106486-.216958.433916 0 .5857866.0217.1735664.0217.3471328.04339v2.386538q-.2603496-.04339-.542395-.06509-.2603496-.04339-.5206993-.04339-.6291782 0-1.1932691.260349-.542395.238654-.954615.737658-.41222.477307-.650874 1.193269-.238654.715961-.238654 1.64888v5.337167h-2.473321zM-7.3006429-32.179765h3.0157163v2.928933h-3.0157163zM-.3076066-36.323663h6.313478v2.343147h-6.313478zM10.139478-44.741633h2.711975v15.490801h-2.711975zM17.238291-40.467561h2.343146v1.648881l.04339.04339q.56409-.93292 1.475314-1.453619.911224-.542395 2.01771-.542395 1.844143 0 2.907237.954615 1.063094.954616 1.063094 2.863846v7.702009h-2.473321v-7.051135q-.04339-1.323444-.564091-1.90923-.520699-.607483-1.627185-.607483-.629178 0-1.128182.238654-.499003.216958-.846136.629178-.347133.390525-.542395.93292-.195262.542395-.195262 1.149877v6.617219h-2.473321zM41.495766-29.836618q0 2.538408-1.431923 3.775069-1.410227 1.258357-4.07881 1.258357-.846137 0-1.713969-.173567-.846136-.173566-1.562097-.585786-.694266-.412221-1.171573-1.084791-.477308-.672569-.564091-1.64888h2.473321q.108479.520699.368829.846136.260349.325437.607482.499003.368829.195262.802745.238654.433916.06509.911223.06509 1.497011 0 2.191276-.737657.694266-.737657.694266-2.126188v-1.713968h-.04339q-.520699.932919-1.431923 1.453618-.889527.520699-1.930926.520699-1.34514 0-2.299755-.455611-.932919-.477308-1.562097-1.280053-.607483-.82444-.889528-1.887534-.282046-1.063095-.282046-2.278059 0-1.128182.347133-2.147885.347133-1.019702.998007-1.779055.650874-.781049 1.583793-1.236661.954616-.455612 2.147885-.455612 1.063094 0 1.952622.455612.889528.433916 1.366835 1.388531h.04339v-1.540402h2.473321zm-5.489037-1.366836q.82444 0 1.388531-.325437.585786-.347132.932919-.889528.368829-.56409.520699-1.258356.173567-.715961.173567-1.431923 0-.715961-.173567-1.388531-.173566-.67257-.542395-1.193269-.347132-.520699-.932919-.824441-.564091-.303741-1.366835-.303741-.824441 0-1.388532.347133-.564091.347133-.911223.911224-.347133.542395-.499004 1.258356-.15187.694266-.15187 1.388531 0 .694266.173566 1.366836.173566.650874.520699 1.171573.368829.520699.911224.846136.564091.325437 1.34514.325437zM45.63107-32.179765h3.015716v2.928933H45.63107ZM69.027716-34.240866q0 1.019703-.173567 1.974318-.173566.954615-.715961 1.713968-.5207.759353-1.540402 1.214965-.998007.455612-2.668584.455612-1.23666 0-2.104492-.368829-.867832-.390524-1.431923-1.041398-.564091-.67257-.824441-1.583793-.260349-.911224-.260349-1.974318v-.824441h2.711975v.802745q0 1.323444.433916 2.061101.455612.715961 1.692272.715961.650874 0 1.063095-.195262.433916-.195262.672569-.564091.26035-.390524.347133-.954615.08678-.564091.08678-1.280052v-10.652638h2.711976zM83.259357-29.250832h-2.429929v-1.562097h-.04339q-.455612.846136-1.366836 1.366835-.889527.499004-1.822447.499004-2.212971 0-3.210978-1.08479-.976311-1.106486-.976311-3.319458v-7.116223h2.473321v6.877569q0 1.475315.564091 2.082797.564091.607483 1.583793.607483.781049 0 1.301748-.238654.520699-.238654.846136-.629178.325438-.412221.455612-.976312.151871-.56409.151871-1.214964v-6.508741h2.473321zm-8.049142-13.060872v-2.343146h2.473321v2.343146zm6.204999-2.343146v2.343146h-2.473321v-2.343146zM87.29635-40.467561h2.321451v2.16958h.04339q.108479-.455611.41222-.889527.325437-.433916.759353-.781049.455612-.368829.998007-.585787.542395-.216958 1.106485-.216958.433916 0 .585787.0217.173566.0217.347133.04339v2.386538q-.26035-.04339-.542395-.06509-.26035-.04339-.520699-.04339-.629179 0-1.193269.260349-.542395.238654-.954616.737658-.41222.477307-.650874 1.193269-.238653.715961-.238653 1.64888v5.337167h-2.47332zM106.72312-29.836618q0 2.538408-1.43192 3.775069-1.41023 1.258357-4.07882 1.258357-.84613 0-1.713963-.173567-.846137-.173566-1.562098-.585786-.694266-.412221-1.171573-1.084791-.477308-.672569-.564091-1.64888h2.473321q.108479.520699.368829.846136.260349.325437.607482.499003.368833.195262.802743.238654.43392.06509.91123.06509 1.49701 0 2.19127-.737657.69427-.737657.69427-2.126188v-1.713968h-.0434q-.5207.932919-1.43193 1.453618-.88953.520699-1.93092.520699-1.345143 0-2.299759-.455611-.932919-.477308-1.562097-1.280053-.607483-.82444-.889528-1.887534-.282046-1.063095-.282046-2.278059 0-1.128182.347133-2.147885.347133-1.019702.998007-1.779055.650874-.781049 1.583794-1.236661.954615-.455612 2.147886-.455612 1.06309 0 1.95262.455612.88953.433916 1.36684 1.388531h.0434v-1.540402h2.47332zm-5.48904-1.366836q.82444 0 1.38853-.325437.58579-.347132.93292-.889528.36883-.56409.5207-1.258356.17357-.715961.17357-1.431923 0-.715961-.17357-1.388531t-.54239-1.193269q-.34714-.520699-.93292-.824441-.56409-.303741-1.36684-.303741-.82444 0-1.388531.347133-.56409.347133-.911223.911224-.347133.542395-.499004 1.258356-.15187.694266-.15187 1.388531 0 .694266.173566 1.366836.173567.650874.520699 1.171573.368829.520699.911224.846136.564089.325437 1.345139.325437zM118.36517-35.846355q-.0434-.585787-.26035-1.128182-.19526-.542395-.56409-.932919-.34713-.41222-.86783-.650874-.499-.26035-1.12818-.26035-.65087 0-1.19327.238654-.5207.216958-.91122.629178-.36883.390525-.60749.93292-.21695.542395-.23865 1.171573zm-5.77108 1.627185q0 .650874.17357 1.258356.19526.607483.56409 1.063095.36883.455612.93292.737657.56409.26035 1.34514.26035 1.08479 0 1.73566-.455612.67257-.477308.99801-1.410227h2.34314q-.19526.911223-.67257 1.627185-.4773.715961-1.14987 1.214965-.67257.477307-1.51871.715961-.82444.26035-1.73566.26035-1.32345 0-2.34315-.433916t-1.73566-1.214965q-.69427-.781049-1.0631-1.865839-.34713-1.08479-.34713-2.386538 0-1.193269.36883-2.256363.39052-1.084791 1.08479-1.887535.71596-.824441 1.71397-1.301748.998-.477308 2.25636-.477308 1.32344 0 2.36484.564091 1.0631.542395 1.75736 1.453619.69427.911223.99801 2.104492.32544 1.171574.17356 2.42993zM124.16867-40.467561h2.34315v1.648881l.0434.04339q.56409-.93292 1.47531-1.453619.91123-.542395 2.01771-.542395 1.84415 0 2.90724.954615 1.0631.954616 1.0631 2.863846v7.702009h-2.47333v-7.051135q-.0434-1.323444-.56409-1.90923-.5207-.607483-1.62718-.607483-.62918 0-1.12818.238654-.49901.216958-.84614.629178-.34713.390525-.54239.93292-.19527.542395-.19527 1.149877v6.617219h-2.47332zM145.84865-44.741633h11.15164v2.343146h-8.43967v4.057115h7.81049v2.212972h-7.81049v4.534422h8.59154v2.343146h-11.30351zM160.61725-44.741633h2.47332v5.749387h.0434q.45561-.759353 1.34514-1.258357.91123-.520699 2.01771-.520699 1.84415 0 2.90724.954615 1.06309.954616 1.06309 2.863846v7.702009h-2.47332v-7.051135q-.0434-1.323444-.56409-1.90923-.5207-.607483-1.62718-.607483-.62918 0-1.12819.238654-.499.216958-.84613.629178-.34713.390525-.5424.93292-.19526.542395-.19526 1.149877v6.617219h-2.47332zM174.50414-40.467561h2.32145v2.16958h.0434q.10848-.455611.41222-.889527.32544-.433916.75935-.781049.45561-.368829.99801-.585787.54239-.216958 1.10649-.216958.43391 0 .58578.0217.17357.0217.34713.04339v2.386538q-.26035-.04339-.54239-.06509-.26035-.04339-.5207-.04339-.62918 0-1.19327.260349-.54239.238654-.95461.737658-.41222.477307-.65088 1.193269-.23865.715961-.23865 1.64888v5.337167h-2.47332zM190.85518-35.846355q-.0434-.585787-.26035-1.128182-.19526-.542395-.56409-.932919-.34713-.41222-.86783-.650874-.49901-.26035-1.12819-.26035-.65087 0-1.19326.238654-.5207.216958-.91123.629178-.36883.390525-.60748.93292-.21696.542395-.23865 1.171573zm-5.77108 1.627185q0 .650874.17356 1.258356.19526.607483.56409 1.063095.36883.455612.93292.737657.56409.26035 1.34514.26035 1.08479 0 1.73567-.455612.67257-.477308.998-1.410227h2.34315q-.19526.911223-.67257 1.627185-.47731.715961-1.14988 1.214965-.67257.477307-1.5187.715961-.82444.26035-1.73567.26035-1.32344 0-2.34314-.433916-1.01971-.433916-1.73567-1.214965-.69426-.781049-1.06309-1.865839-.34714-1.08479-.34714-2.386538 0-1.193269.36883-2.256363.39053-1.084791 1.08479-1.887535.71596-.824441 1.71397-1.301748.99801-.477308 2.25636-.477308 1.32345 0 2.36485.564091 1.06309.542395 1.75736 1.453619.69426.911223.998 2.104492.32544 1.171574.17357 2.42993zM195.51391-40.467561h1.86584v-3.362849h2.47332v3.362849h2.23467v1.844143h-2.23467v5.988041q0 .390525.0217.67257.0434.282046.15187.477308.13017.195262.36883.303741.23865.08678.65087.08678h.5207q.26035-.02169.5207-.08678v1.909231q-.41222.04339-.80275.08678-.39052.04339-.80274.04339-.97631 0-1.5838-.173566-.58578-.195262-.93291-.542395-.32544-.368829-.45562-.911224-.10848-.542395-.13017-1.23666v-6.61722h-1.86584z" style="font-weight:500;font-family:'Helvetica Neue';-inkscape-font-specification:'Helvetica Neue Medium';fill:#fff" transform="translate(220.83854 132.735559)"/></g></g></svg>