<svg width="1642.7876" height="461.16409" viewBox="0 0 434.65408 122.01631" xmlns="http://www.w3.org/2000/svg"><defs><path id="d" d="M83.976158 1224.1858h406.81784v278.05438H83.976158z"/><path id="c" d="M1600.6648 5530.2114h158.57976v94.550331H1600.6648z"/><path id="b" d="M157-13h55v40h-55z"/><filter style="color-interpolation-filters:sRGB" id="a" x="-.05642297" y="-.03515585" width="1.1128459" height="1.0703117"><feGaussianBlur stdDeviation="1.1384116"/></filter></defs><text xml:space="preserve" transform="matrix(.26458 0 0 .26458 58.519963 -2150.443)" style="font-size:36px;line-height:1.25;font-family:Lato;-inkscape-font-specification:Lato;text-align:center;letter-spacing:0;white-space:pre;shape-inside:url(#b)"><tspan x="157" y="60.48"><tspan dx="0 20.882812 20.039062 14.484375 18.84375">Ehret</tspan></tspan></text><g style="display:inline"><path style="display:inline;vector-effect:none;fill:#000;fill-opacity:.35;stroke-width:.874622;stroke-opacity:.968165;stop-color:#000" d="M0 .000001h434.65422V122.01633H0Z"/></g><g style="display:inline"><path d="M188.58728 13.88335V35.6083h2.06904V13.88335ZM199.76208 19.90792V35.6083h1.91691v-9.15855q.0304-1.15623.36513-2.1299.36512-1.00409.97366-1.70392.63897-.73025 1.52136-1.1258.91281-.42598 2.06904-.42598 1.15623 0 1.91691.36513.7911.36512 1.24751 1.00409.45641.63897.63897 1.52135.18256.85196.18256 1.85606v9.79752h1.91691V25.50651q0-1.39965-.27385-2.52545-.27384-1.12581-.94324-1.88648-.66939-.79111-1.7952-1.21709-1.09537-.42598-2.73843-.42598-1.67349 0-3.07314.88239-1.39965.85196-1.94734 2.28203h-.0608v-2.70801zM234.34911 34.33037V19.90792h-1.9169v2.70801h-.0609q-.27385-.63897-.79111-1.21708-.48683-.57812-1.1258-1.0041-.63897-.4564-1.43007-.69982-.76068-.24342-1.64307-.24342-1.70391 0-3.04271.63897-1.30836.60854-2.22118 1.70392-.88238 1.06495-1.36921 2.52545-.45641 1.43007-.45641 3.04271 0 1.67349.39555 3.16442.39555 1.4605 1.24751 2.55587.88239 1.09538 2.22118 1.73435 1.33879.60854 3.22527.60854 1.73435 0 3.01229-.88239 1.30836-.88238 1.97776-2.34288h.0609v2.1299q0 2.86014-1.18666 4.3815-1.18666 1.52135-3.86424 1.52135-.79111 0-1.55178-.18256-.76068-.15214-1.39965-.51726-.60854-.36513-1.06495-.97367-.42598-.57811-.57811-1.4605h-1.91691q.0913 1.24751.6694 2.1299.60854.91281 1.49092 1.49093.91282.57811 2.03862.85195 1.1258.27385 2.31246.27385 1.91691 0 3.22527-.51726 1.33879-.51726 2.16032-1.49093.82154-.97367 1.18666-2.37331.39555-1.39965.39555-3.13399zm-6.9678-.51727q-1.33879 0-2.31246-.51726-.97367-.54768-1.61264-1.39964-.63897-.88239-.94324-2.00819-.30427-1.1258-.30427-2.31246 0-1.21708.27385-2.37331.30427-1.18666.94324-2.09947.63896-.91282 1.61263-1.46051.97367-.57811 2.34289-.57811t2.31246.57811q.97366.57812 1.58221 1.52136.60854.94324.88238 2.09947.27385 1.15623.27385 2.31246 0 1.18666-.3347 2.31246-.30427 1.1258-.94324 2.00819-.63897.85196-1.58221 1.39964-.94324.51726-2.19075.51726zM254.25602 26.66274h-10.16265q.12171-1.06495.48683-2.06905.39556-1.03452 1.03453-1.7952.63897-.7911 1.55178-1.24751.91281-.48683 2.09947-.48683 1.15623 0 2.06904.48683.91281.45641 1.55178 1.24751.63897.76068.97367 1.76478.36513 1.00409.39555 2.09947zm-10.16265 1.61263h12.07956q.0609-1.64306-.30427-3.22527-.36513-1.61264-1.21709-2.82972-.82153-1.24751-2.16032-2.00819t-3.22527-.76068q-1.85606 0-3.22527.73025-1.3388.69983-2.19076 1.88648-.85195 1.15623-1.27793 2.64716-.39556 1.49093-.39556 3.04271 0 1.67349.39556 3.19485.42598 1.49093 1.27793 2.64715.85196 1.12581 2.19076 1.7952 1.36921.63897 3.22527.63897 2.98185 0 4.59449-1.4605 1.64306-1.4605 2.25161-4.13808h-1.91691q-.45641 1.82562-1.64307 2.921-1.18665 1.09537-3.28612 1.09537-1.36922 0-2.34289-.57811-.97367-.57812-1.61263-1.4605-.63897-.88239-.94325-1.97776-.27384-1.12581-.27384-2.16033zM263.69268 19.90792V35.6083h1.91691v-9.15855q.0304-1.15623.36512-2.1299.36513-1.00409.97367-1.70392.63897-.73025 1.52136-1.1258.91281-.42598 2.06904-.42598 1.15623 0 1.91691.36513.7911.36512 1.24751 1.00409.4564.63897.63897 1.52135.18256.85196.18256 1.85606v9.79752h1.91691V25.50651q0-1.39965-.27385-2.52545-.27384-1.12581-.94324-1.88648-.66939-.79111-1.7952-1.21709-1.09537-.42598-2.73844-.42598-1.67349 0-3.07313.88239-1.39965.85196-1.94734 2.28203h-.0608v-2.70801zM285.04392 13.88335v3.07314h1.91691v-3.07314zm0 6.02457V35.6083h1.91691V19.90792ZM306.89532 26.66274h-10.16265q.12171-1.06495.48683-2.06905.39555-1.03452 1.03452-1.7952.63897-.7911 1.55179-1.24751.91281-.48683 2.09947-.48683 1.15623 0 2.06904.48683.91281.45641 1.55178 1.24751.63897.76068.97367 1.76478.36512 1.00409.39555 2.09947zm-10.16265 1.61263h12.07956q.0609-1.64306-.30427-3.22527-.36513-1.61264-1.21709-2.82972-.82153-1.24751-2.16032-2.00819t-3.22527-.76068q-1.85606 0-3.22528.73025-1.33879.69983-2.19075 1.88648-.85196 1.15623-1.27794 2.64716-.39555 1.49093-.39555 3.04271 0 1.67349.39555 3.19485.42598 1.49093 1.27794 2.64715.85196 1.12581 2.19075 1.7952 1.36922.63897 3.22528.63897 2.98185 0 4.59449-1.4605 1.64306-1.4605 2.2516-4.13808h-1.9169q-.45641 1.82562-1.64307 2.921-1.18665 1.09537-3.28612 1.09537-1.36922 0-2.34289-.57811-.97367-.57812-1.61264-1.4605-.63897-.88239-.94324-1.97776-.27384-1.12581-.27384-2.16033zM329.08093 35.6083V19.90792h-1.9169v8.24574q0 1.18666-.27385 2.34289-.27384 1.1258-.85196 2.00819-.57811.88239-1.4605 1.43007-.88238.51726-2.12989.51726-2.28204 0-3.22528-1.09537-.91281-1.09538-.97367-3.22527V19.90792h-1.9169V30.101q0 1.39965.30427 2.49502.30427 1.09538.94324 1.85605.6694.76068 1.70392 1.15623 1.06495.42598 2.55587.42598 1.76477 0 3.19485-.82153 1.4605-.85196 2.22118-2.43417h.0608v2.82972zM337.6528 19.90792V35.6083h1.9169v-8.36745q0-1.24751.42598-2.28203.42598-1.06495 1.18666-1.82563.7911-.76067 1.85605-1.15623 1.06495-.42598 2.37332-.36512v-1.91691q-2.1299-.0913-3.68168.94324-1.52136 1.03452-2.25161 2.95143h-.0609v-3.68168zM352.16841 13.88335V35.6083h1.76477v-2.98185h.0609q.6694 1.64306 2.16033 2.52545 1.52135.88238 3.43826.88238 1.7952 0 3.10356-.63897 1.33879-.66939 2.22118-1.7952.88239-1.15622 1.30836-2.64715.42598-1.52136.42598-3.19485 0-1.67349-.42598-3.16442-.42597-1.52135-1.30836-2.64715-.88239-1.15623-2.22118-1.82563-1.30836-.6694-3.10356-.6694-.85196 0-1.70392.21299t-1.58221.6694q-.73025.42598-1.30836 1.06495-.54769.63897-.85196 1.49093h-.0609v-9.00643zm12.56639 13.87476q0 1.21709-.30427 2.43417-.27385 1.18666-.91282 2.1299-.60854.94324-1.58221 1.55178-.97366.57811-2.34288.57811-1.52136 0-2.58631-.57811-1.03452-.60854-1.70391-1.55178-.63897-.94324-.94324-2.1299-.27385-1.21708-.27385-2.43417 0-1.21708.27385-2.40374.30427-1.21708.94324-2.16032.66939-.94324 1.70391-1.52136 1.06495-.60854 2.58631-.60854 1.36922 0 2.34288.60854.97367.57812 1.58221 1.52136.63897.94324.91282 2.16032.30427 1.18666.30427 2.40374zM377.20465 17.19991h2.06904v-3.07314h-2.06904zm5.38559 0h2.06904v-3.07314h-2.06904zm4.7162 18.40839V19.90792h-1.9169v8.24574q0 1.18666-.27385 2.34289-.27384 1.1258-.85196 2.00819-.57811.88239-1.4605 1.43007-.88238.51726-2.1299.51726-2.28203 0-3.22527-1.09537-.91281-1.09538-.97366-3.22527V19.90792h-1.91691V30.101q0 1.39965.30427 2.49502.30427 1.09538.94324 1.85605.6694.76068 1.70392 1.15623 1.06494.42598 2.55587.42598 1.76477 0 3.19485-.82153 1.4605-.85196 2.22118-2.43417h.0609v2.82972zM395.8783 19.90792V35.6083h1.91691v-8.36745q0-1.24751.42598-2.28203.42598-1.06495 1.18666-1.82563.7911-.76067 1.85605-1.15623 1.06495-.42598 2.37332-.36512v-1.91691q-2.1299-.0913-3.68168.94324-1.52136 1.03452-2.25161 2.95143h-.0609v-3.68168zM416.45602 21.06415q1.36922 0 2.40374.57811 1.03453.57812 1.70392 1.52136.69982.94324 1.03452 2.16032.36513 1.18666.36513 2.43417t-.36513 2.4646q-.3347 1.18665-1.03452 2.12989-.66939.94324-1.70392 1.52136-1.03452.57811-2.40374.57811-1.36922 0-2.40374-.57811-1.03452-.57812-1.73434-1.52136-.6694-.94324-1.03452-2.12989-.3347-1.21709-.3347-2.4646t.3347-2.43417q.36512-1.21708 1.03452-2.16032.69982-.94324 1.73434-1.52136 1.03452-.57811 2.40374-.57811zm0-1.61264q-1.7952 0-3.19484.6694-1.36922.6694-2.31246 1.7952-.94324 1.1258-1.43008 2.64716-.48683 1.49092-.48683 3.19484t.48683 3.22527q.48684 1.49093 1.43008 2.61673.94324 1.12581 2.31246 1.7952 1.39964.63897 3.19484.63897 1.7952 0 3.16442-.63897 1.39965-.66939 2.34289-1.7952.94324-1.1258 1.43007-2.61673.48684-1.52135.48684-3.22527t-.48684-3.19484q-.48683-1.52136-1.43007-2.64716t-2.34289-1.7952q-1.36922-.6694-3.16442-.6694z" style="font-weight:300;font-size:30.4271px;line-height:1.25;font-family:'Helvetica Neue';-inkscape-font-specification:'Helvetica Neue Light';text-align:center;letter-spacing:4.94771px;text-anchor:middle;fill:snow;fill-opacity:1;stroke:none;stroke-width:.529167;stroke-miterlimit:4;stroke-dasharray:none;stroke-opacity:1" transform="translate(-2.562481 -2.2195568)"/><g><path d="M190.64194 62.057901h-2.06904q-.0913 2.008189.51726 3.438262.63897 1.430074 1.7952 2.342887 1.15623.912813 2.79929 1.369219 1.64306.42598 3.55997.42598t3.28613-.365125q1.36922-.334699 2.28203-.882386.94324-.578115 1.4605-1.277939.54769-.699823.82153-1.369219.30428-.699823.36513-1.308365.0913-.608542.0913-.973667 0-1.338793-.45641-2.282033-.42598-.94324-1.21708-1.582209-.76068-.669396-1.7952-1.095376-1.00409-.456406-2.16033-.760677l-5.29431-1.308365q-.6694-.152136-1.27794-.395553-.57811-.243416-1.03452-.638969-.45641-.395552-.73025-.94324-.24342-.578115-.24342-1.338792 0-1.217084.45641-2.038616.45641-.821531 1.18666-1.308365.76067-.517261 1.73434-.73025 1.0041-.243417 2.06904-.243417 1.15623 0 2.19075.334698 1.06495.304271 1.85606.94324.82153.608542 1.30836 1.551782.51726.912813.57812 2.160324h2.06904q0-1.67349-.6694-2.921001-.63896-1.277939-1.73434-2.129897-1.09538-.851959-2.55588-1.277939-1.4605-.425979-3.07313-.425979-2.28204 0-3.74254.669396-1.4605.638969-2.31246 1.582209-.82153.94324-1.1258 2.008189-.30427 1.064948-.30427 1.856053 0 1.277938.39555 2.160324.42598.882386 1.09538 1.490928.66939.608542 1.55178.973667.91281.365125 1.85605.608542l4.83791 1.186657q.76068.182562 1.55178.486833.79111.273844 1.43008.730251.66939.456406 1.06495 1.125803.42598.669396.42598 1.582209 0 1.186657-.57812 2.038615-.57811.821532-1.4605 1.36922-.85196.51726-1.85605.760677-1.0041.243417-1.85606.243417-1.49092 0-2.79929-.273844-1.30836-.304271-2.28203-.973667-.94324-.669396-1.49093-1.795199-.54769-1.125803-.51726-2.799293zM215.96492 54.664116q1.36922 0 2.40374.578115 1.03452.578115 1.70392 1.521355.69982.94324 1.03452 2.160324.36512 1.186657.36512 2.434168t-.36512 2.464595q-.3347 1.186657-1.03452 2.129897-.6694.94324-1.70392 1.521355t-2.40374.578115q-1.36922 0-2.40374-.578115-1.03453-.578115-1.73435-1.521355-.66939-.94324-1.03452-2.129897-.3347-1.217084-.3347-2.464595t.3347-2.434168q.36513-1.217084 1.03452-2.160324.69982-.94324 1.73435-1.521355 1.03452-.578115 2.40374-.578115zm0-1.612636q-1.7952 0-3.19485.669396-1.36922.669396-2.31246 1.795199-.94324 1.125802-1.43007 2.647157-.48684 1.490928-.48684 3.194846 0 1.703917.48684 3.225272.48683 1.490928 1.43007 2.616731.94324 1.125802 2.31246 1.795199 1.39965.638969 3.19485.638969 1.7952 0 3.16442-.638969 1.39964-.669397 2.34288-1.795199.94324-1.125803 1.43008-2.616731.48683-1.521355.48683-3.225272 0-1.703918-.48683-3.194846-.48684-1.521355-1.43008-2.647157-.94324-1.125803-2.34288-1.795199-1.36922-.669396-3.16442-.669396zM233.1572 55.120522v-1.612636h-3.10357v-1.369219q0-.638969.0304-1.186657.0304-.547688.21299-.94324.21299-.42598.63897-.669396.42598-.243417 1.21709-.243417.33469 0 .66939.06085.3347.03043.73025.09128v-1.643063q-.4564-.06085-.82153-.09128-.36512-.03043-.7911-.03043-1.15623 0-1.91691.334699-.73025.334698-1.15623.94324-.42598.608542-.57811 1.4605-.15214.851959-.15214 1.856053v1.430074h-2.67759v1.612636h2.67759v14.087747h1.9169V55.120516ZM238.88227 53.507886v-4.7162h-1.91691v4.7162h-2.73844v1.612636h2.73844v10.740766q-.0304 2.008189.73025 2.768866.76068.730251 2.67759.730251.42598 0 .85196-.03043t.85196-.03043v-1.612637q-.82154.09128-1.64307.09128-1.03452-.06085-1.30836-.578115-.24342-.547688-.24342-1.490928V55.120514h3.19485v-1.612636zM244.12383 53.507886l5.0509 15.700383h2.09947l3.83382-13.205361h.0608l3.86424 13.205361h2.09947l5.0509-15.700383h-2.03862l-4.01638 13.448778h-.0609l-3.83381-13.448778h-2.16033l-3.83381 13.448778h-.0609l-4.01638-13.448778ZM268.8801 58.315368h1.91691q.0609-1.916907 1.21708-2.768866 1.15623-.882386 2.98186-.882386.85196 0 1.58221.152135.76068.121709 1.30836.486834.57812.365125.88239 1.004094.3347.608542.3347 1.582209 0 .63897-.18257 1.034522-.15213.395552-.4564.638969-.30427.21299-.76068.304271-.45641.09128-1.06495.152135-1.55178.182563-3.07314.395553-1.49092.182562-2.70801.669396-1.18665.486833-1.9169 1.430074-.73025.912812-.73025 2.555876 0 1.186657.39555 2.069043.42598.851958 1.1258 1.430073.73025.547688 1.67349.791105.97367.273844 2.06904.273844 1.15623 0 1.97776-.21299.85196-.21299 1.49093-.608542.6694-.395552 1.18666-.973667.54769-.608542 1.06495-1.36922h.0609q0 .608542.0609 1.125803.0913.486834.3347.851959.24341.365125.66939.578115.45641.182562 1.18666.182562.39555 0 .63897-.03043.27384-.03043.60854-.09128v-1.612636q-.27384.121708-.60854.121708-1.1258 0-1.1258-1.15623v-8.337025q0-1.582209-.51727-2.555876-.51726-1.004094-1.33879-1.551782-.82153-.547688-1.85605-.730251-1.03452-.212989-2.06904-.212989-1.36922 0-2.49503.304271-1.1258.304271-1.97776.94324-.82153.638969-1.30836 1.643063-.48684 1.004094-.57812 2.373314zm10.22351 2.312459v2.495022q0 1.15623-.45641 2.069043-.42598.912813-1.18666 1.551782-.73025.638969-1.73434.973667-1.0041.334699-2.09947.334699-.6694 0-1.30837-.21299t-1.1258-.608542q-.48683-.425979-.7911-.973667-.27385-.578115-.27385-1.308366 0-1.156229.6694-1.764771.69982-.638969 1.76477-.973667 1.06495-.334699 2.34289-.486834 1.30836-.182563 2.52545-.395552.39555-.06086.91281-.21299.51726-.152136.69982-.486834zM285.70393 53.507886v15.700383h1.91691v-8.367452q0-1.247511.42598-2.282032.42598-1.064949 1.18665-1.825626.79111-.760678 1.85606-1.15623 1.06494-.42598 2.37331-.365125v-1.916908q-2.1299-.09128-3.68168.943241-1.52135 1.034521-2.25161 2.951428h-.0608v-3.681679zM306.82271 60.262702h-10.16265q.12171-1.064948.48684-2.069043.39555-1.034521 1.03452-1.795198.63897-.791105 1.55178-1.247512.91281-.486833 2.09947-.486833 1.15623 0 2.06904.486833.91281.456407 1.55178 1.247512.63897.760677.97367 1.764771.36513 1.004095.39555 2.09947zm-10.16265 1.612636h12.07956q.0609-1.643063-.30427-3.225272-.36513-1.612636-1.21708-2.82972-.82154-1.247511-2.16033-2.008189-1.33879-.760677-3.22527-.760677-1.85605 0-3.22527.73025-1.3388.699823-2.19075 1.88648-.85196 1.15623-1.27794 2.647158-.39556 1.490928-.39556 3.04271 0 1.67349.39556 3.194845.42598 1.490928 1.27794 2.647158.85195 1.125802 2.19075 1.795199 1.36922.638969 3.22527.638969 2.98185 0 4.59449-1.460501 1.64306-1.460501 2.25161-4.138086h-1.91691q-.45641 1.825626-1.64306 2.921002-1.18666 1.095376-3.28613 1.095376-1.36922 0-2.34289-.578115-.97366-.578115-1.61263-1.460501t-.94324-1.977762q-.27385-1.125802-.27385-2.160324zM321.55423 58.102378h1.91691q-.0609-1.277938-.51726-2.221178-.45641-.94324-1.24752-1.582209-.76067-.638969-1.79519-.94324-1.0041-.304271-2.19076-.304271-1.03452 0-2.09947.243416-1.03452.243417-1.88648.760678-.85195.517261-1.39964 1.369219-.51726.851959-.51726 2.038616 0 1.004094.3347 1.703918.33469.669396.91281 1.156229.60854.456407 1.39964.791105.79111.304271 1.73435.547688l2.4646.547688q.63896.152135 1.24751.365125.63897.212989 1.1258.547687.48683.304271.76068.791105.30427.456407.30427 1.15623 0 .821532-.42598 1.399646-.39555.547688-1.03452.912813-.63897.365126-1.39965.517261-.73025.152136-1.43007.152136-1.91691 0-3.22528-.973668-1.27793-1.004094-1.39964-2.951428h-1.91691q.24342 2.890574 1.94733 4.198939 1.73435 1.308366 4.50321 1.308366 1.09538 0 2.22118-.243417 1.12581-.243417 2.00819-.791105.91281-.578115 1.49093-1.4605.57811-.912813.57811-2.190752 0-1.034521-.39555-1.795198-.39555-.760678-1.03452-1.277939-.60854-.51726-1.43007-.821531-.79111-.334698-1.61264-.456407l-2.55588-.578115q-.48683-.121708-1.06494-.304271-.57812-.212989-1.06495-.51726-.48684-.304271-.82153-.730251-.30428-.456406-.30428-1.095375 0-.760678.3347-1.277938.3347-.517261.88239-.821532.54769-.334698 1.18666-.456407.66939-.152135 1.30836-.152135.82153 0 1.55178.21299.73025.182562 1.27794.608542.57812.425979.91281 1.095375.3347.638969.36513 1.521355zM325.8402 53.507886l6.26798 15.639529-.6694 1.764772q-.24341.547688-.4564 1.004094-.21299.456407-.51726.760678-.30428.334698-.73025.51726-.39556.182563-1.03453.182563-.33469 0-.66939-.06085-.30427-.03043-.63897-.09128v1.612637q.24342.09128.54769.09128.33469.03043.91281.06085.91281 0 1.49093-.182562.60854-.152136 1.03452-.547688.45641-.365125.82153-1.034522.36513-.638969.79111-1.643063l6.81567-18.073697h-1.91691l-4.83791 13.387924-5.17261-13.387924zM351.92479 58.102378h1.91691q-.0609-1.277938-.51726-2.221178-.45641-.94324-1.24752-1.582209-.76067-.638969-1.79519-.94324-1.0041-.304271-2.19076-.304271-1.03452 0-2.09947.243416-1.03452.243417-1.88648.760678-.85195.517261-1.39964 1.369219-.51726.851959-.51726 2.038616 0 1.004094.3347 1.703918.33469.669396.91281 1.156229.60854.456407 1.39964.791105.79111.304271 1.73435.547688l2.46459.547688q.63897.152135 1.24752.365125.63896.212989 1.1258.547687.48683.304271.76068.791105.30427.456407.30427 1.15623 0 .821532-.42598 1.399646-.39555.547688-1.03452.912813-.63897.365126-1.39965.517261-.73025.152136-1.43007.152136-1.91691 0-3.22528-.973668-1.27793-1.004094-1.39964-2.951428h-1.91691q.24342 2.890574 1.94733 4.198939 1.73435 1.308366 4.50321 1.308366 1.09538 0 2.22118-.243417 1.12581-.243417 2.00819-.791105.91281-.578115 1.49093-1.4605.57811-.912813.57811-2.190752 0-1.034521-.39555-1.795198-.39555-.760678-1.03452-1.277939-.60854-.51726-1.43007-.821531-.79111-.334698-1.61264-.456407l-2.55588-.578115q-.48683-.121708-1.06494-.304271-.57812-.212989-1.06495-.51726-.48684-.304271-.82153-.730251-.30428-.456406-.30428-1.095375 0-.760678.3347-1.277938.3347-.517261.88239-.821532.54769-.334698 1.18666-.456407.66939-.152135 1.30836-.152135.82153 0 1.55178.21299.73025.182562 1.27794.608542.57812.425979.91281 1.095375.3347.638969.36513 1.521355zM361.01824 53.507886v-4.7162h-1.91691v4.7162h-2.73844v1.612636h2.73844v10.740766q-.0304 2.008189.73025 2.768866.76068.730251 2.67759.730251.42598 0 .85195-.03043.42598-.03043.85196-.03043v-1.612637q-.82153.09128-1.64306.09128-1.03452-.06085-1.30836-.578115-.24342-.547688-.24342-1.490928V55.120514h3.19484v-1.612636zM379.13047 60.262702h-10.16265q.12171-1.064948.48683-2.069043.39555-1.034521 1.03452-1.795198.63897-.791105 1.55178-1.247512.91282-.486833 2.09947-.486833 1.15623 0 2.06905.486833.91281.456407 1.55178 1.247512.63897.760677.97367 1.764771.36512 1.004095.39555 2.09947zm-10.16265 1.612636h12.07956q.0608-1.643063-.30428-3.225272-.36512-1.612636-1.21708-2.82972-.82153-1.247511-2.16032-2.008189-1.3388-.760677-3.22528-.760677-1.85605 0-3.22527.73025-1.33879.699823-2.19075 1.88648-.85196 1.15623-1.27794 2.647158-.39555 1.490928-.39555 3.04271 0 1.67349.39555 3.194845.42598 1.490928 1.27794 2.647158.85196 1.125802 2.19075 1.795199 1.36922.638969 3.22527.638969 2.98186 0 4.5945-1.460501 1.64306-1.460501 2.2516-4.138086h-1.91691q-.4564 1.825626-1.64306 2.921002-1.18666 1.095376-3.28613 1.095376-1.36922 0-2.34288-.578115-.97367-.578115-1.61264-1.460501t-.94324-1.977762q-.27384-1.125802-.27384-2.160324zM384.48328 53.507886v15.700383h1.91691v-8.763004q0-1.247511.27384-2.282033.27384-1.064948.82153-1.825626.57812-.791104 1.4605-1.217084.91282-.456406 2.1299-.456406.91281 0 1.55178.304271.63897.304271 1.0041.851959.39555.51726.54768 1.247511.18257.699823.18257 1.490928v10.649484h1.9169v-8.884713q0-1.095375.18257-2.099469.21299-1.034522.69982-1.825626.48683-.791105 1.30837-1.247512.82153-.486833 2.06904-.486833 2.06904 0 2.89057 1.034521.82153 1.004095.82153 2.951429v10.558203h1.91691V58.558785q0-5.507305-5.20303-5.507305-1.55178 0-2.921.760677-1.36922.760678-2.06905 2.31246-.42598-1.551782-1.70391-2.31246-1.24752-.760677-2.7993-.760677-1.9169 0-3.16442.821531-1.21708.821532-1.97776 2.282033h-.0913v-2.647158zM421.9809 60.262702h-10.16265q.12171-1.064948.48683-2.069043.39556-1.034521 1.03452-1.795198.63897-.791105 1.55179-1.247512.91281-.486833 2.09947-.486833 1.15623 0 2.06904.486833.91281.456407 1.55178 1.247512.63897.760677.97367 1.764771.36512 1.004095.39555 2.09947zm-10.16265 1.612636h12.07956q.0609-1.643063-.30427-3.225272-.36513-1.612636-1.21709-2.82972-.82153-1.247511-2.16032-2.008189-1.33879-.760677-3.22527-.760677-1.85606 0-3.22528.73025-1.33879.699823-2.19075 1.88648-.85196 1.15623-1.27793 2.647158-.39556 1.490928-.39556 3.04271 0 1.67349.39556 3.194845.42597 1.490928 1.27793 2.647158.85196 1.125802 2.19075 1.795199 1.36922.638969 3.22528.638969 2.98185 0 4.59449-1.460501 1.64306-1.460501 2.2516-4.138086h-1.9169q-.45641 1.825626-1.64307 2.921002-1.18665 1.095376-3.28612 1.095376-1.36922 0-2.34289-.578115t-1.61264-1.460501q-.63897-.882386-.94324-1.977762-.27384-1.125802-.27384-2.160324z" style="font-weight:300;font-size:30.4271px;line-height:1.25;font-family:'Helvetica Neue';-inkscape-font-specification:'Helvetica Neue Light';text-align:center;letter-spacing:.833438px;text-anchor:middle;fill:snow;fill-opacity:1;stroke:none;stroke-width:.264583;stroke-opacity:1" transform="translate(-2.5361905 1.1225329)"/></g><g><path d="M189.54122 87.993927h6.42196q1.77905 0 3.0808.607482t2.12619 1.670577q.82444 1.041398 1.21496 2.451625.41222 1.410227.41222 3.015717 0 1.605489-.41222 3.015716-.39052 1.410226-1.21496 2.473316-.82444 1.0414-2.12619 1.64889-1.30175.60748-3.0808.60748h-6.42196zm2.71197 13.277833h2.66859q1.58379 0 2.5818-.41222 1.0197-.43392 1.58379-1.171577.58579-.759353.78105-1.75736.21696-1.019702.21696-2.191275 0-1.171574-.21696-2.169581-.19526-1.019702-.78105-1.757359-.56409-.759353-1.58379-1.171574-.99801-.433916-2.5818-.433916h-2.66859zM206.30144 92.267999h2.32145v2.16958h.0434q.10848-.455611.41222-.889527.32544-.433916.75936-.781049.45561-.368829.998-.585787.5424-.216958 1.10649-.216958.43392 0 .58579.0217.17356.0217.34713.04339v2.386538q-.26035-.04339-.5424-.06509-.26035-.04339-.52069-.04339-.62918 0-1.19327.260349-.5424.238654-.95462.737658-.41222.477307-.65087 1.193269-.23866.715961-.23866 1.64888v5.337168h-2.47332zM213.5379 100.55579h3.01571v2.92894h-3.01571zM220.53093 96.411897h6.31348v2.343147h-6.31348zM230.97802 87.993927h2.71197v15.490803h-2.71197zM238.07683 92.267999h2.34315v1.648881l.0434.04339q.56409-.93292 1.47531-1.453619.91122-.542395 2.01771-.542395 1.84414 0 2.90724.954615 1.06309.954616 1.06309 2.863846v7.702013h-2.47332v-7.051139q-.0434-1.323444-.56409-1.90923-.5207-.607483-1.62719-.607483-.62917 0-1.12818.238654-.499.216958-.84613.629178-.34714.390525-.5424.93292t-.19526 1.149877v6.617223h-2.47332zM262.33431 102.89894q0 2.53841-1.43193 3.77507-1.41022 1.25836-4.07881 1.25836-.84613 0-1.71397-.17357-.84613-.17357-1.56209-.58579-.69427-.41222-1.17158-1.08479-.4773-.67257-.56409-1.64888h2.47332q.10848.5207.36883.84614.26035.32544.60748.499.36883.19526.80275.23866.43392.0651.91122.0651 1.49701 0 2.19128-.73766.69427-.73766.69427-2.12619v-1.71397h-.0434q-.52069.93292-1.43192 1.45362-.88952.5207-1.93092.5207-1.34514 0-2.29976-.45561-.93292-.47731-1.5621-1.28005-.60748-.82444-.88952-1.887537-.28205-1.063095-.28205-2.278059 0-1.128182.34713-2.147885.34714-1.019702.99801-1.779055.65087-.781049 1.58379-1.236661.95462-.455612 2.14789-.455612 1.06309 0 1.95262.455612.88953.433916 1.36683 1.388531h.0434v-1.540402h2.47332zm-5.48904-1.36683q.82444 0 1.38853-.32544.58579-.34713.93292-.88953.36883-.564089.5207-1.258355.17357-.715961.17357-1.431923 0-.715961-.17357-1.388531t-.5424-1.193269q-.34713-.520699-.93292-.824441-.56409-.303741-1.36683-.303741-.82444 0-1.38853.347133-.56409.347133-.91123.911224-.34713.542395-.499 1.258356-.15187.694266-.15187 1.388531 0 .694266.17357 1.366836.17356.650874.52069 1.17157.36883.5207.91123.84614.56409.32544 1.34514.32544zM266.46961 100.55579h3.01572v2.92894h-3.01572zM289.86626 98.494694q0 1.019703-.17357 1.974316-.17357.95462-.71596 1.71397-.5207.75935-1.5404 1.21496-.99801.45562-2.66859.45562-1.23666 0-2.10449-.36883-.86783-.39053-1.43192-1.0414-.56409-.67257-.82444-1.58379-.26035-.911227-.26035-1.974321v-.824441h2.71197v.802745q0 1.323447.43392 2.061097.45561.71596 1.69227.71596.65087 0 1.06309-.19526.43392-.19526.67257-.56409.26035-.39052.34714-.954613.0868-.564091.0868-1.280052V87.993927h2.71197zM304.0979 103.48473h-2.42993v-1.5621h-.0434q-.45561.84614-1.36684 1.36684-.88953.499-1.82245.499-2.21297 0-3.21097-1.08479-.97631-1.10649-.97631-3.319458v-7.116223h2.47332v6.877569q0 1.475312.56409 2.082792.56409.60749 1.58379.60749.78105 0 1.30175-.23866.5207-.23865.84613-.62917.32544-.41223.45562-.976316.15187-.56409.15187-1.214964v-6.508741h2.47332zm-8.04915-13.060874V88.08071h2.47333v2.343146zm6.205-2.343146v2.343146h-2.47332V88.08071ZM308.13489 92.267999h2.32145v2.16958h.0434q.10848-.455611.41222-.889527.32544-.433916.75935-.781049.45562-.368829.99801-.585787.5424-.216958 1.10649-.216958.43391 0 .58578.0217.17357.0217.34714.04339v2.386538q-.26035-.04339-.5424-.06509-.26035-.04339-.5207-.04339-.62918 0-1.19327.260349-.54239.238654-.95461.737658-.41222.477307-.65088 1.193269-.23865.715961-.23865 1.64888v5.337168h-2.47332zM327.56166 102.89894q0 2.53841-1.43192 3.77507-1.41023 1.25836-4.07882 1.25836-.84613 0-1.71396-.17357-.84614-.17357-1.5621-.58579-.69427-.41222-1.17157-1.08479-.47731-.67257-.5641-1.64888h2.47333q.10847.5207.36882.84614.26035.32544.60749.499.36883.19526.80274.23866.43392.0651.91123.0651 1.49701 0 2.19127-.73766.69427-.73766.69427-2.12619v-1.71397h-.0434q-.5207.93292-1.43193 1.45362-.88953.5207-1.93092.5207-1.34514 0-2.29976-.45561-.93292-.47731-1.5621-1.28005-.60748-.82444-.88952-1.887537-.28205-1.063095-.28205-2.278059 0-1.128182.34713-2.147885.34714-1.019702.99801-1.779055.65087-.781049 1.58379-1.236661.95462-.455612 2.14789-.455612 1.06309 0 1.95262.455612.88953.433916 1.36684 1.388531h.0434v-1.540402h2.47332zm-5.48904-1.36683q.82444 0 1.38853-.32544.58579-.34713.93292-.88953.36883-.564089.5207-1.258355.17357-.715961.17357-1.431923 0-.715961-.17357-1.388531t-.54239-1.193269q-.34714-.520699-.93292-.824441-.56409-.303741-1.36684-.303741-.82444 0-1.38853.347133-.56409.347133-.91122.911224-.34714.542395-.49901 1.258356-.15187.694266-.15187 1.388531 0 .694266.17357 1.366836.17356.650874.5207 1.17157.36883.5207.91122.84614.56409.32544 1.34514.32544zM339.20371 96.889205q-.0434-.585787-.26035-1.128182-.19526-.542395-.56409-.932919-.34713-.41222-.86783-.650874-.499-.26035-1.12818-.26035-.65087 0-1.19327.238654-.5207.216958-.91122.629178-.36883.390525-.60749.93292-.21695.542395-.23865 1.171573zm-5.77108 1.627185q0 .650874.17357 1.258356.19526.607484.56409 1.063094.36883.45561.93292.73766.56409.26035 1.34514.26035 1.08479 0 1.73566-.45561.67257-.47731.99801-1.410231h2.34314q-.19526.911221-.67257 1.627181-.4773.71596-1.14987 1.21497-.67257.47731-1.51871.71596-.82444.26035-1.73566.26035-1.32345 0-2.34315-.43392-1.0197-.43391-1.73566-1.21496-.69427-.78105-1.0631-1.86584-.34713-1.08479-.34713-2.386538 0-1.193269.36883-2.256363.39052-1.084791 1.08479-1.887535.71596-.824441 1.71397-1.301748.998-.477308 2.25636-.477308 1.32344 0 2.36484.564091 1.0631.542395 1.75736 1.453619.69427.911223.99801 2.104492.32544 1.171574.17356 2.42993zM345.00721 92.267999h2.34315v1.648881l.0434.04339q.56409-.93292 1.47531-1.453619.91123-.542395 2.01771-.542395 1.84415 0 2.90724.954615 1.0631.954616 1.0631 2.863846v7.702013h-2.47333v-7.051139q-.0434-1.323444-.56409-1.90923-.5207-.607483-1.62718-.607483-.62918 0-1.12818.238654-.49901.216958-.84614.629178-.34713.390525-.54239.93292-.19527.542395-.19527 1.149877v6.617223h-2.47332zM366.68719 87.993927h11.15164v2.343146h-8.43967v4.057115h7.81049v2.212972h-7.81049v4.53442h8.59154v2.34315h-11.30351zM381.45579 87.993927h2.47332v5.749387h.0434q.45561-.759353 1.34514-1.258357.91123-.520699 2.01771-.520699 1.84415 0 2.90724.954615 1.06309.954616 1.06309 2.863846v7.702011h-2.47332v-7.051137q-.0434-1.323444-.56409-1.90923-.5207-.607483-1.62718-.607483-.62918 0-1.12819.238654-.499.216958-.84613.629178-.34713.390525-.5424.93292-.19526.542395-.19526 1.149877v6.617221h-2.47332zM395.34268 92.267999h2.32145v2.16958h.0434q.10848-.455611.41222-.889527.32544-.433916.75935-.781049.45561-.368829.99801-.585787.54239-.216958 1.10649-.216958.43391 0 .58578.0217.17357.0217.34713.04339v2.386538q-.26035-.04339-.54239-.06509-.26035-.04339-.5207-.04339-.62918 0-1.19327.260349-.54239.238654-.95461.737658-.41222.477307-.65088 1.193269-.23865.715961-.23865 1.64888v5.337168h-2.47332zM411.69372 96.889205q-.0434-.585787-.26035-1.128182-.19526-.542395-.56409-.932919-.34713-.41222-.86783-.650874-.49901-.26035-1.12819-.26035-.65087 0-1.19326.238654-.5207.216958-.91123.629178-.36883.390525-.60748.93292-.21696.542395-.23865 1.171573zm-5.77108 1.627185q0 .650874.17356 1.258356.19526.607484.56409 1.063094.36883.45561.93292.73766.56409.26035 1.34514.26035 1.08479 0 1.73567-.45561.67257-.47731.998-1.410231h2.34315q-.19526.911221-.67257 1.627181t-1.14988 1.21497q-.67257.47731-1.5187.71596-.82444.26035-1.73567.26035-1.32344 0-2.34314-.43392-1.01971-.43391-1.73567-1.21496-.69426-.78105-1.06309-1.86584-.34714-1.08479-.34714-2.386538 0-1.193269.36883-2.256363.39053-1.084791 1.08479-1.887535.71596-.824441 1.71397-1.301748.99801-.477308 2.25636-.477308 1.32345 0 2.36485.564091 1.06309.542395 1.75736 1.453619.69426.911223.998 2.104492.32544 1.171574.17357 2.42993zM416.35245 92.267999h1.86584V88.90515h2.47332v3.362849h2.23467v1.844143h-2.23467v5.988038q0 .39053.0217.67257.0434.28205.15187.47731.13017.19526.36883.30374.23865.0868.65087.0868h.5207q.26035-.0217.5207-.0868v1.90923q-.41222.0434-.80275.0868-.39052.0434-.80274.0434-.97631 0-1.5838-.17356-.58578-.19527-.93291-.5424-.32544-.36883-.45562-.91122-.10848-.5424-.13017-1.23666v-6.617222h-1.86584z" style="font-weight:500;font-size:21.6958px;line-height:1.25;font-family:'Helvetica Neue';-inkscape-font-specification:'Helvetica Neue Medium';text-align:center;letter-spacing:1.42875px;text-anchor:middle;fill:snow;fill-opacity:1;stroke:none;stroke-width:.264583;stroke-opacity:1" transform="translate(-3.516421 2.4201677)"/></g><g style="display:inline;stroke-width:.979756"><path style="display:inline;fill:none;fill-opacity:1;stroke:snow;stroke-width:2.00522;stroke-miterlimit:4;stroke-dasharray:none;stroke-opacity:1;stop-color:#000" d="M156.73409 61.00806a9.6791188 5.5857791 0 0 1-9.67906 5.585748 9.6791188 5.5857791 0 0 1-9.67906-5.58574 9.6791188 5.5857791 0 0 1 9.67907-5.585723 9.6791188 5.5857791 0 0 1 9.67905 5.585715z" transform="matrix(.9801 0 0 .98039 2.2603176 1.1965249)"/><path style="display:inline;fill:none;fill-opacity:1;stroke:snow;stroke-width:2.45083;stroke-miterlimit:4;stroke-dasharray:none;stroke-opacity:1;stop-color:#000" d="M158.23025 61.008077a16.325442 9.7041993 0 0 1-16.32537 9.704117 16.325442 9.7041993 0 0 1-16.32535-9.704126 16.325442 9.7041993 0 0 1 16.32536-9.704104 16.325442 9.7041993 0 0 1 16.32536 9.704113z" transform="matrix(.9801 0 0 .98039 2.2603176 1.1965249)"/><path style="display:inline;fill:none;fill-opacity:1;stroke:snow;stroke-width:2.89641;stroke-miterlimit:4;stroke-dasharray:none;stroke-opacity:1;stop-color:#000" d="M159.90289 61.008068a27.411507 16.701008 0 0 1-27.41137 16.700878 27.411507 16.701008 0 0 1-27.41129-16.700878 27.411507 16.701008 0 0 1 27.41129-16.700851 27.411507 16.701008 0 0 1 27.41137 16.700851Z" transform="matrix(.9801 0 0 .98039 2.2603176 1.1965249)"/><path style="display:inline;fill:none;fill-opacity:1;stroke:snow;stroke-width:3.34204;stroke-miterlimit:4;stroke-dasharray:none;stroke-opacity:1;stop-color:#000" d="M161.90701 61.008051a45.681098 28.355063 0 0 1-45.68088 28.354865 45.681098 28.355063 0 0 1-45.680802-28.354865 45.681098 28.355063 0 0 1 45.680812-28.354787 45.681098 28.355063 0 0 1 45.68087 28.354787Z" transform="matrix(.9801 0 0 .98039 2.2603176 1.1965249)"/><path style="display:inline;fill:none;fill-opacity:1;stroke:snow;stroke-width:3.78764;stroke-miterlimit:4;stroke-dasharray:none;stroke-opacity:1;stop-color:#000" d="M164.28761 61.008025a75.573608 47.544526 0 0 1-75.573296 47.544185A75.573608 47.544526 0 0 1 13.14123 61.008033a75.573608 47.544526 0 0 1 75.573084-47.544086 75.573608 47.544526 0 0 1 75.573296 47.544078Z" transform="matrix(.9801 0 0 .98039 2.2603176 1.1965249)"/></g></g></svg>