<svg xmlns="http://www.w3.org/2000/svg" width="333.173" height="286.95496" viewBox="0 0 88.152024 75.923498"><defs><path id="G" d="M-42 1608h588v290H-42z"/><path id="b" d="M1600.6648 5530.2114h158.57976v94.550331H1600.6648z"/><path id="a" d="M157-13h55v40h-55z"/><path id="c" d="M157-13h55v40h-55z"/><path id="d" d="M1600.6648 5530.2114h158.57976v94.550331H1600.6648z"/><path id="e" d="M157-13h55v40h-55z"/><path id="f" d="M1600.6648 5530.2114h158.57976v94.550331H1600.6648z"/><path id="g" d="M157-13h55v40h-55z"/><path id="h" d="M1600.6648 5530.2114h158.57976v94.550331H1600.6648z"/><path id="i" d="M157-13h55v40h-55z"/><path id="j" d="M1600.6648 5530.2114h158.57976v94.550331H1600.6648z"/><path id="k" d="M157-13h55v40h-55z"/><path id="l" d="M1600.6648 5530.2114h158.57976v94.550331H1600.6648z"/><path id="m" d="M157-13h55v40h-55z"/><path id="n" d="M1600.6648 5530.2114h158.57976v94.550331H1600.6648z"/><path id="o" d="M157-13h55v40h-55z"/><path id="p" d="M1600.6648 5530.2114h158.57976v94.550331H1600.6648z"/><path id="q" d="M157-13h55v40h-55z"/><path id="r" d="M1600.6648 5530.2114h158.57976v94.550331H1600.6648z"/><path id="s" d="M157-13h55v40h-55z"/><path id="t" d="M1600.6648 5530.2114h158.57976v94.550331H1600.6648z"/><path id="u" d="M157-13h55v40h-55z"/><path id="v" d="M1600.6648 5530.2114h158.57976v94.550331H1600.6648z"/><path id="w" d="M157-13h55v40h-55z"/><path id="x" d="M1600.6648 5530.2114h158.57976v94.550331H1600.6648z"/><path id="y" d="M157-13h55v40h-55z"/><path id="z" d="M1600.6648 5530.2114h158.57976v94.550331H1600.6648z"/><path id="A" d="M157-13h55v40h-55z"/><path id="B" d="M1600.6648 5530.2114h158.57976v94.550331H1600.6648z"/><path id="C" d="M157-13h55v40h-55z"/><path id="D" d="M1600.6648 5530.2114h158.57976v94.550331H1600.6648z"/><path id="E" d="M157-13h55v40h-55z"/><path id="F" d="M1600.6648 5530.2114h158.57976v94.550331H1600.6648z"/><marker id="H" orient="auto" refX="0" refY="0" style="overflow:visible"><path d="m0 0 5-5-17.5 5L5 5Z" style="fill:context-stroke;fill-rule:evenodd;stroke:context-stroke;stroke-width:1pt" transform="matrix(-.8 0 0 -.8 -10 0)"/></marker><marker id="I" orient="auto" refX="0" refY="0" style="overflow:visible"><path d="m0 0 5-5-17.5 5L5 5Z" style="fill:context-stroke;fill-rule:evenodd;stroke:context-stroke;stroke-width:1pt" transform="matrix(-.8 0 0 -.8 -10 0)"/></marker></defs><g style="display:inline"><g transform="translate(-8.0248423 -5.7838867)"><ellipse cx="52.100853" cy="33.128242" rx="43.282249" ry="26.550606" style="font-variation-settings:normal;display:inline;fill:none;fill-opacity:1;stroke:#fff;stroke-width:1.5875;stroke-linecap:butt;stroke-linejoin:miter;stroke-miterlimit:4;stroke-dasharray:none;stroke-dashoffset:0;stroke-opacity:1;stop-color:#000"/><ellipse cx="67.526337" cy="33.128242" rx="26.510872" ry="16.17045" style="font-variation-settings:normal;display:inline;fill:none;fill-opacity:1;stroke:#fff;stroke-width:1.32292;stroke-linecap:butt;stroke-linejoin:miter;stroke-miterlimit:4;stroke-dasharray:none;stroke-dashoffset:0;stroke-opacity:1;stop-color:#000"/><ellipse cx="76.787163" cy="33.128242" rx="16.145391" ry="9.7550411" style="font-variation-settings:normal;display:inline;fill:none;fill-opacity:1;stroke:#fff;stroke-width:1.05833;stroke-linecap:butt;stroke-linejoin:miter;stroke-miterlimit:4;stroke-dasharray:none;stroke-dashoffset:0;stroke-opacity:1;stop-color:#000"/><ellipse cx="82.273178" cy="33.128242" rx="9.7389774" ry="5.7899771" style="font-variation-settings:normal;display:inline;fill:none;fill-opacity:1;stroke:#fff;stroke-width:.926042;stroke-linecap:butt;stroke-linejoin:miter;stroke-miterlimit:4;stroke-dasharray:none;stroke-dashoffset:0;stroke-opacity:1;stop-color:#000"/><ellipse cx="85.437393" cy="33.128242" rx="5.7796507" ry="3.3394673" style="font-variation-settings:normal;display:inline;fill:none;fill-opacity:1;stroke:#fff;stroke-width:.79375;stroke-linecap:butt;stroke-linejoin:miter;stroke-miterlimit:4;stroke-dasharray:none;stroke-dashoffset:0;stroke-opacity:1;stop-color:#000"/><ellipse cx="87.427002" cy="33.128242" rx="3.1086199" ry="1.7900585" style="font-variation-settings:normal;display:inline;fill:none;fill-opacity:1;stroke:#fff;stroke-width:.661458;stroke-linecap:butt;stroke-linejoin:miter;stroke-miterlimit:4;stroke-dasharray:none;stroke-dashoffset:0;stroke-opacity:1;stop-color:#000"/><ellipse cx="88.721611" cy="33.128242" rx="1.2934215" ry=".68038863" style="font-variation-settings:normal;display:inline;fill:none;fill-opacity:1;stroke:#fff;stroke-width:.555625;stroke-linecap:butt;stroke-linejoin:miter;stroke-miterlimit:4;stroke-dasharray:none;stroke-dashoffset:0;stroke-opacity:1;stop-color:#000"/></g><path d="M-138.88221 61.468206h1.22238v19.83578h-1.22238zM-134.16157 61.468206h7.94542q1.778 0 2.97259.4445 1.19459.4445 1.9169 1.16681.72231.72231 1.02791 1.66687.33337.91678.33337 1.86134 0 .80566-.27781 1.52797t-.80566 1.27793q-.50006.55563-1.22237.94457-.69453.36115-1.55575.47228l.0556.0556q.19447-.0278.91678.16669.72231.19446 1.50019.75009.80565.52784 1.41684 1.50018.63897.94456.63897 2.44475 0 1.36128-.50007 2.38918-.50006 1.02791-1.41684 1.75022-.88899.69453-2.16693 1.05568-1.27794.36116-2.83368.36116h-7.94543zm7.94542 9.00111q2.52809 0 3.77824-1.11125 1.25016-1.13903 1.25016-2.97259 0-1.08346-.41672-1.80577-.41672-.7501-1.11125-1.1946-.69453-.47228-1.61131-.66674-.889-.19447-1.88912-.19447h-6.72305v7.94542zm0 9.77898q2.66699 0 4.16718-1.11124 1.52797-1.13903 1.52797-3.38931 0-1.27794-.52785-2.08359-.52784-.83344-1.36128-1.30572-.80565-.47228-1.83355-.63897-1.00013-.19446-1.97247-.19446h-6.72305v8.72329z" style="font-weight:200;font-size:27.7812px;line-height:1.25;font-family:&quot;Helvetica Neue&quot;;-inkscape-font-specification:&quot;Helvetica Neue Ultra-Light&quot;;text-align:center;letter-spacing:0;text-anchor:middle;display:inline;fill:#fff;fill-opacity:1;stroke:none;stroke-width:.264583" transform="translate(101.6451577 16.0186483) scale(.73188033)"/><path d="M-104.74519 67.274476h2.50031q-.0556-1.63909-.63897-2.8059-.55562-1.19459-1.55575-1.97246-.97234-.77788-2.27806-1.13903-1.30571-.36116-2.83368-.36116-1.36128 0-2.66699.36116-1.27794.33337-2.30584 1.05568-1.00013.69453-1.61131 1.80578-.61119 1.08347-.61119 2.58365 0 1.36128.52785 2.27806.55562.889 1.44462 1.4724.91678.55563 2.0558.91678 1.13903.33338 2.30584.61119 1.1946.25003 2.33362.50006 1.13903.25003 2.02803.66675.91678.38894 1.44462 1.0279.55563.63897.55563 1.66688 0 1.08346-.4445 1.77799-.4445.69453-1.16681 1.11125-.72231.38894-1.63909.55563-.889.16668-1.778.16668-1.11125 0-2.16693-.27781-1.05569-.27781-1.86134-.86122-.77788-.5834-1.27794-1.4724-.47228-.91678-.47228-2.16693h-2.5003q0 1.80577.63897 3.13927.66674 1.30572 1.77799 2.16694 1.13903.83343 2.61143 1.25015 1.50019.41672 3.16706.41672 1.36128 0 2.72256-.33338 1.38906-.30559 2.5003-1.00012 1.11125-.72231 1.80578-1.83356.72231-1.13903.72231-2.72256 0-1.4724-.55562-2.44474-.52784-.97234-1.44462-1.61131-.889-.63897-2.02803-1.00013-1.13903-.38893-2.33362-.66674-1.16681-.27782-2.30584-.50007-1.13903-.25003-2.05581-.61118-.889-.36116-1.44462-.91678-.52785-.58341-.52785-1.50019 0-.97234.36116-1.61131.38894-.66674 1.00012-1.05568.63897-.38894 1.44463-.55563.80565-.16668 1.63909-.16668 2.05581 0 3.36152.97234 1.3335.94456 1.55575 3.08371z" style="font-weight:400;font-size:27.7812px;line-height:1.25;font-family:&quot;Helvetica Neue&quot;;-inkscape-font-specification:&quot;Helvetica Neue&quot;;text-align:center;letter-spacing:0;text-anchor:middle;display:inline;fill:#fff;fill-opacity:1;stroke:none;stroke-width:.264583" transform="translate(101.6451577 16.0186483) scale(.73188033)"/><path d="M-97.696994 74.125326q0-1.08585.28152-2.13148.28152-1.06574.88476-1.91029.60325-.84455 1.54834-1.34726.94509-.52281 2.25213-.52281 1.30704 0 2.25213.52281.94509.50271 1.54834 1.34726.60325.84455.88477 1.91029.28151 1.04563.28151 2.13148 0 1.08584-.28151 2.15158-.28152 1.04564-.88477 1.89018-.60325.84455-1.54834 1.36737-.94509.50271-2.25213.50271-1.30704 0-2.25213-.50271-.94509-.52282-1.54834-1.36737-.60324-.84454-.88476-1.89018-.28152-1.06574-.28152-2.15158zm-1.91029 0q0 1.4679.42228 2.83527.44238 1.34725 1.30704 2.39288.86466 1.04564 2.15159 1.66899 1.28693.60325 2.99613.60325 1.70921 0 2.99614-.60325 1.28693-.62335 2.15159-1.66899.86465-1.04563 1.28693-2.39288.44238-1.36737.44238-2.83527 0-1.46791-.44238-2.81517-.42228-1.36736-1.28693-2.41299-.86466-1.04563-2.15159-1.66899-1.28693-.62336-2.99614-.62336-1.7092 0-2.99613.62336t-2.15159 1.66899q-.86466 1.04563-1.30704 2.41299-.42228 1.34726-.42228 2.81517zM-83.525354 66.946656v14.35733h1.91029v-6.57542h6.59552v-1.60866h-6.59552v-4.56458h7.5205v-1.60867zM-68.721244 68.555326v12.74866h1.91028v-12.74866h4.78578v-1.60867h-11.48184v1.60867z" style="font-weight:400;font-size:20.1083px;line-height:1.25;font-family:&quot;Helvetica Neue&quot;;-inkscape-font-specification:&quot;Helvetica Neue&quot;;font-variation-settings:normal;text-align:center;letter-spacing:0;text-anchor:middle;display:inline;vector-effect:none;fill:#fff;fill-opacity:1;stroke:#fff;stroke-width:.449792;stroke-linecap:butt;stroke-linejoin:miter;stroke-miterlimit:4;stroke-dasharray:none;stroke-dashoffset:0;stroke-opacity:1;-inkscape-stroke:none;stop-color:#000" transform="translate(101.6451577 16.0186483) scale(.73188033)"/><path d="M-48.360104 67.274476h2.50031q-.0556-1.63909-.63897-2.8059-.55562-1.19459-1.55574-1.97246-.97235-.77788-2.27806-1.13903-1.30572-.36116-2.83369-.36116-1.36127 0-2.66699.36116-1.27794.33337-2.30584 1.05568-1.00012.69453-1.61131 1.80578-.61119 1.08347-.61119 2.58365 0 1.36128.52785 2.27806.55562.889 1.44462 1.4724.91678.55563 2.05581.91678 1.13903.33338 2.30584.61119 1.19459.25003 2.33362.50006 1.13903.25003 2.02803.66675.91678.38894 1.44462 1.0279.55562.63897.55562 1.66688 0 1.08346-.4445 1.77799-.4445.69453-1.16681 1.11125-.72231.38894-1.63909.55563-.889.16668-1.77799.16668-1.11125 0-2.16694-.27781-1.05568-.27781-1.86134-.86122-.77787-.5834-1.27793-1.4724-.47228-.91678-.47228-2.16693h-2.50031q0 1.80577.63897 3.13927.66674 1.30572 1.77799 2.16694 1.13903.83343 2.61143 1.25015 1.50019.41672 3.16706.41672 1.36128 0 2.72256-.33338 1.38906-.30559 2.50031-1.00012 1.11125-.72231 1.80578-1.83356.72231-1.13903.72231-2.72256 0-1.4724-.55563-2.44474-.52784-.97234-1.44462-1.61131-.889-.63897-2.02803-1.00013-1.13903-.38893-2.33362-.66674-1.16681-.27782-2.30584-.50007-1.13903-.25003-2.05581-.61118-.889-.36116-1.44462-.91678-.52784-.58341-.52784-1.50019 0-.97234.36115-1.61131.38894-.66674 1.00013-1.05568.63896-.38894 1.44462-.55563.80565-.16668 1.63909-.16668 2.05581 0 3.36153.97234 1.33349.94456 1.55574 3.08371z" style="font-weight:400;font-size:27.7812px;line-height:1.25;font-family:&quot;Helvetica Neue&quot;;-inkscape-font-specification:&quot;Helvetica Neue&quot;;text-align:center;letter-spacing:0;text-anchor:middle;display:inline;fill:#fff;fill-opacity:1;stroke:none;stroke-width:.264583" transform="translate(101.6451577 16.0186483) scale(.73188033)"/><path d="m-36.485914 75.432366 5.48957-8.48571h-2.1717l-4.20263 6.83682-4.30318-6.83682h-2.27223l5.54989 8.48571v5.87162h1.91028zM-21.074154 71.149296h1.80975q-.0402-1.18639-.46249-2.03094-.40217-.86466-1.12607-1.42769-.70379-.56303-1.64888-.82444-.94509-.26141-2.05104-.26141-.98531 0-1.9304.26141-.92498.2413-1.66899.76412-.7239.5027-1.16628 1.30703-.44238.78423-.44238 1.87008 0 .9853.38206 1.64888.40216.64346 1.04563 1.06574.66357.40216 1.48801.66357.82444.2413 1.66899.44238.86466.18098 1.6891.36195.82444.18098 1.4679.4826.66358.28152 1.04563.74401.40217.46249.40217 1.2065 0 .78422-.32173 1.28693-.32174.50271-.84455.80433-.52282.28152-1.18639.40217-.64347.12065-1.28693.12065-.80433 0-1.56845-.20109-.76411-.20108-1.34726-.62335-.56303-.42228-.92498-1.06574-.34184-.66358-.34184-1.56845h-1.80974q0 1.30704.46249 2.27224.4826.94509 1.28693 1.56844.82444.60325 1.89018.90488 1.08585.30162 2.29234.30162.98531 0 1.97062-.2413 1.00541-.22119 1.80974-.7239.80434-.52281 1.30704-1.32714.52282-.82444.52282-1.97062 0-1.06574-.40217-1.76953-.38205-.70379-1.04563-1.16628-.64346-.46249-1.4679-.7239-.82444-.28151-1.6891-.4826-.84455-.20108-1.66899-.36195-.82444-.18097-1.48801-.44238-.64347-.26141-1.04564-.66357-.38205-.42228-.38205-1.08585 0-.70379.2614-1.16628.28152-.4826.7239-.76412.46249-.28151 1.04563-.40216.58314-.12065 1.18639-.12065 1.48802 0 2.43311.70379.9652.68368 1.12606 2.23202z" style="font-weight:400;font-size:20.1083px;line-height:1.25;font-family:&quot;Helvetica Neue&quot;;-inkscape-font-specification:&quot;Helvetica Neue&quot;;font-variation-settings:normal;text-align:center;letter-spacing:0;text-anchor:middle;display:inline;vector-effect:none;fill:#fff;fill-opacity:1;stroke:#fff;stroke-width:.449792;stroke-linecap:butt;stroke-linejoin:miter;stroke-miterlimit:4;stroke-dasharray:none;stroke-dashoffset:0;stroke-opacity:1;-inkscape-stroke:none;stop-color:#000" transform="translate(101.6451577 16.0186483) scale(.73188033)"/></g></svg>