<svg xmlns="http://www.w3.org/2000/svg" width="333.17307" height="286.95496" viewBox="0 0 88.15204 75.923504"><defs><path id="b" d="M1600.6648 5530.2114h158.57976v94.550331H1600.6648z"/><path id="a" d="M157-13h55v40h-55z"/><path id="c" d="M157-13h55v40h-55z"/><path id="d" d="M1600.6648 5530.2114h158.57976v94.550331H1600.6648z"/><path id="e" d="M157-13h55v40h-55z"/><path id="f" d="M1600.6648 5530.2114h158.57976v94.550331H1600.6648z"/><path id="g" d="M157-13h55v40h-55z"/><path id="h" d="M1600.6648 5530.2114h158.57976v94.550331H1600.6648z"/><path id="i" d="M157-13h55v40h-55z"/><path id="j" d="M1600.6648 5530.2114h158.57976v94.550331H1600.6648z"/><path id="k" d="M157-13h55v40h-55z"/><path id="l" d="M1600.6648 5530.2114h158.57976v94.550331H1600.6648z"/><path id="m" d="M157-13h55v40h-55z"/><path id="n" d="M1600.6648 5530.2114h158.57976v94.550331H1600.6648z"/><path id="o" d="M157-13h55v40h-55z"/><path id="p" d="M1600.6648 5530.2114h158.57976v94.550331H1600.6648z"/></defs><g style="display:inline" transform="translate(-7.5177423 -2.6825836)"><ellipse cx="51.593781" cy="30.026939" rx="43.282249" ry="26.550606" style="font-variation-settings:normal;display:inline;fill:none;fill-opacity:1;stroke:#000;stroke-width:1.5875;stroke-linecap:butt;stroke-linejoin:miter;stroke-miterlimit:4;stroke-dasharray:none;stroke-dashoffset:0;stroke-opacity:1;stop-color:#000"/><ellipse cx="67.019264" cy="30.026939" rx="26.510872" ry="16.17045" style="font-variation-settings:normal;display:inline;fill:none;fill-opacity:1;stroke:#000;stroke-width:1.32292;stroke-linecap:butt;stroke-linejoin:miter;stroke-miterlimit:4;stroke-dasharray:none;stroke-dashoffset:0;stroke-opacity:1;stop-color:#000"/><ellipse cx="76.28009" cy="30.026939" rx="16.145391" ry="9.7550411" style="font-variation-settings:normal;display:inline;fill:none;fill-opacity:1;stroke:#000;stroke-width:1.05833;stroke-linecap:butt;stroke-linejoin:miter;stroke-miterlimit:4;stroke-dasharray:none;stroke-dashoffset:0;stroke-opacity:1;stop-color:#000"/><ellipse cx="81.766106" cy="30.026939" rx="9.7389774" ry="5.7899771" style="font-variation-settings:normal;display:inline;fill:none;fill-opacity:1;stroke:#000;stroke-width:.926042;stroke-linecap:butt;stroke-linejoin:miter;stroke-miterlimit:4;stroke-dasharray:none;stroke-dashoffset:0;stroke-opacity:1;stop-color:#000"/><ellipse cx="84.930321" cy="30.026939" rx="5.7796507" ry="3.3394673" style="font-variation-settings:normal;display:inline;fill:none;fill-opacity:1;stroke:#000;stroke-width:.79375;stroke-linecap:butt;stroke-linejoin:miter;stroke-miterlimit:4;stroke-dasharray:none;stroke-dashoffset:0;stroke-opacity:1;stop-color:#000"/><ellipse cx="86.91993" cy="30.026939" rx="3.1086199" ry="1.7900585" style="font-variation-settings:normal;display:inline;fill:none;fill-opacity:1;stroke:#000;stroke-width:.661458;stroke-linecap:butt;stroke-linejoin:miter;stroke-miterlimit:4;stroke-dasharray:none;stroke-dashoffset:0;stroke-opacity:1;stop-color:#000"/><ellipse cx="88.214539" cy="30.026939" rx="1.2934215" ry=".68038863" style="font-variation-settings:normal;display:inline;fill:none;fill-opacity:1;stroke:#000;stroke-width:.555625;stroke-linecap:butt;stroke-linejoin:miter;stroke-miterlimit:4;stroke-dasharray:none;stroke-dashoffset:0;stroke-opacity:1;stop-color:#000"/><path d="M7.5177423 63.688604h.8946359v14.517417h-.8946359ZM10.972686 63.688604h5.815096q1.301284 0 2.175581.325321.874297.325321 1.402941.853965.528645.528644.752307 1.219949.243987.670974.243987 1.362278 0 .589647-.203324 1.118292-.203323.528644-.589646.935292-.365984.406654-.894629.691312-.508313.264318-1.138623.345652l.04069.04069q.142329-.02035.670973.121997.528645.142321 1.09796.548976.589639.386316 1.036957 1.097952.46765.691305.46765 1.789265 0 .996294-.365992 1.748593-.365984.752308-1.036957 1.280952-.650634.508313-1.585934.772631-.935299.264326-2.073914.264326h-5.815104zm5.815096 6.587735q1.85026 0 2.76522-.813302.914968-.833633.914968-2.17558 0-.792963-.30499-1.321607-.304989-.548984-.813302-.874305-.508312-.345652-1.179286-.487974-.650641-.142328-1.38261-.142328h-4.920468v5.815096zm0 7.157043q1.951918 0 3.049878-.813294 1.118291-.833634 1.118291-2.48057 0-.935299-.386323-1.524938-.386316-.609979-.996294-.955631-.58964-.345652-1.34194-.46765-.731975-.142321-1.443612-.142321h-4.920468v6.384404z" style="font-weight:200;font-size:27.7812px;line-height:1.25;font-family:&quot;Helvetica Neue&quot;;-inkscape-font-specification:&quot;Helvetica Neue Ultra-Light&quot;;text-align:center;letter-spacing:0;text-anchor:middle;display:inline;fill:#000;fill-opacity:1;stroke:none;stroke-width:.193643"/><path d="M32.501956 67.938099h1.829927q-.04069-1.199618-.467649-2.053583-.406647-.874297-1.138623-1.443605-.711636-.569315-1.667267-.833634-.955624-.264326-2.073915-.264326-.996294 0-1.951917.264326-.9353.243987-1.687599.772632-.731976.508313-1.179286 1.321615-.447318.79297-.447318 1.890922 0 .996294.386323 1.667268.406647.650641 1.057289 1.07762.670973.406655 1.504599.670973.833634.243995 1.687599.447318.874304.182992 1.707931.365984.833633.182992 1.484275.487982.670973.284657 1.057289.752299.406655.46765.406655 1.219957 0 .792963-.325321 1.301276-.325321.508313-.853965.813302-.528645.284658-1.199618.406655-.650642.12199-1.301283.12199-.813302 0-1.585934-.203324-.772639-.203324-1.362278-.63031-.569315-.426979-.935299-1.077621-.345653-.670973-.345653-1.585933h-1.82992q0 1.321607.46765 2.29757.487973.955631 1.301275 1.585941.833634.609971 1.911255.91496 1.097959.304989 2.317909.304989.996294 0 1.992588-.243994 1.016625-.223656 1.82992-.731969.813302-.528644 1.321615-1.341946.528645-.833634.528645-1.992588 0-1.077621-.406648-1.789257-.386316-.711637-1.057289-1.179286-.650641-.46765-1.484275-.731976-.833634-.28465-1.707931-.487974-.853965-.203331-1.687599-.365991-.833633-.182992-1.504606-.447311-.650642-.264326-1.057289-.670973-.386323-.426986-.386323-1.09796 0-.711636.264325-1.179286.284658-.487974.731969-.772631.467649-.284658 1.057296-.406655.589639-.12199 1.199618-.12199 1.504606 0 2.46023.711637.975962.691305 1.138623 2.256907z" style="font-weight:400;font-size:27.7812px;line-height:1.25;font-family:&quot;Helvetica Neue&quot;;-inkscape-font-specification:&quot;Helvetica Neue&quot;;text-align:center;letter-spacing:0;text-anchor:middle;display:inline;fill:#000;fill-opacity:1;stroke:none;stroke-width:.193643"/><path d="M37.660392 72.952101q0-.794712.206039-1.559988.206039-.779994.647538-1.398104.441507-.618109 1.1332-.986033.691693-.382634 1.648289-.382634.956597 0 1.64829.382634.691693.367924 1.1332.986033.441506.61811.647545 1.398104.206032.765276.206032 1.559988 0 .794705-.206032 1.574699-.206039.765283-.647545 1.383386-.441507.618109-1.1332 1.000751-.691693.367923-1.64829.367923-.956596 0-1.648289-.367923-.691693-.382642-1.1332-1.000751-.441499-.618103-.647538-1.383386-.206039-.779994-.206039-1.574699Zm-1.398104 0q0 1.074327.309059 2.075078.323769.986026.956596 1.751302.632828.765284 1.574707 1.221501.941879.441507 2.192808.441507 1.250938 0 2.192816-.441507.941879-.456217 1.574707-1.221501.63282-.765276.941879-1.751302.323769-1.000751.323769-2.075078 0-1.074334-.323769-2.060367-.309059-1.000744-.941879-1.76602-.632828-.765276-1.574707-1.221501-.941878-.456225-2.192816-.456225-1.250929 0-2.192808.456225-.941879.456225-1.574707 1.221501-.632827.765276-.956596 1.76602-.309059.986033-.309059 2.060367zM48.032336 67.698174v10.507847h1.398104v-4.81242h4.827131v-1.177347H49.43044v-3.340726h5.504106v-1.177354zM58.867173 68.875528v9.330493h1.398097v-9.330493h3.502618v-1.177354h-8.403333v1.177354z" style="font-weight:400;font-size:20.1083px;line-height:1.25;font-family:&quot;Helvetica Neue&quot;;-inkscape-font-specification:&quot;Helvetica Neue&quot;;font-variation-settings:normal;text-align:center;letter-spacing:0;text-anchor:middle;display:inline;vector-effect:none;fill:#000;fill-opacity:1;stroke:#000;stroke-width:.329194;stroke-linecap:butt;stroke-linejoin:miter;stroke-miterlimit:4;stroke-dasharray:none;stroke-dashoffset:0;stroke-opacity:1;-inkscape-stroke:none;stop-color:#000"/><path d="M73.769091 67.938099h1.829928q-.04069-1.199618-.46765-2.053583-.406647-.874297-1.138615-1.443605-.711644-.569315-1.667268-.833634-.95563-.264326-2.073922-.264326-.996286 0-1.951917.264326-.935299.243987-1.687599.772632-.731968.508313-1.179286 1.321615-.447318.79297-.447318 1.890922 0 .996294.386323 1.667268.406647.650641 1.057289 1.07762.670973.406655 1.504607.670973.833634.243995 1.687599.447318.874297.182992 1.70793.365984.833634.182992 1.484276.487982.670973.284657 1.057289.752299.406647.46765.406647 1.219957 0 .792963-.325321 1.301276-.325321.508313-.853965.813302-.528645.284658-1.199618.406655-.650641.12199-1.301276.12199-.813302 0-1.585941-.203324-.772631-.203324-1.362278-.63031-.569307-.426979-.935291-1.077621-.345653-.670973-.345653-1.585933h-1.829928q0 1.321607.46765 2.29757.487974.955631 1.301276 1.585941.833633.609971 1.911254.91496 1.09796.304989 2.317909.304989.996294 0 1.992588-.243994 1.016626-.223656 1.829928-.731969.813302-.528644 1.321615-1.341946.528644-.833634.528644-1.992588 0-1.077621-.406654-1.789257-.386316-.711637-1.057289-1.179286-.650642-.46765-1.484276-.731976-.833633-.28465-1.70793-.487974-.853966-.203331-1.687599-.365991-.833634-.182992-1.504607-.447311-.650642-.264326-1.057289-.670973-.386316-.426986-.386316-1.09796 0-.711636.264319-1.179286.284657-.487974.731975-.772631.467642-.284658 1.057289-.406655.58964-.12199 1.199618-.12199 1.504607 0 2.460238.711637.975955.691305 1.138615 2.256907z" style="font-weight:400;font-size:27.7812px;line-height:1.25;font-family:&quot;Helvetica Neue&quot;;-inkscape-font-specification:&quot;Helvetica Neue&quot;;text-align:center;letter-spacing:0;text-anchor:middle;display:inline;fill:#000;fill-opacity:1;stroke:none;stroke-width:.193643"/><path d="m82.459577 73.908698 4.017709-6.210524h-1.589425l-3.075822 5.003734-3.149413-5.003734h-1.663l4.061855 6.210524v4.297323h1.398096zM93.739141 70.774003h1.324521q-.02942-.868295-.338488-1.486405-.29434-.632827-.824148-1.044898-.51509-.412071-1.206783-.603391-.691693-.191321-1.501116-.191321-.721129 0-1.412822.191321-.676974.176602-1.221501.559244-.529808.367916-.853577.956589-.323769.573963-.323769 1.368675 0 .721122.279622 1.206783.294333.470936.765276.779994.485654.294333 1.089045.485654.603392.176603 1.221501.323769.632828.132456 1.236219.264904.603392.132456 1.074327.353206.485662.206039.765276.544526.294341.338487.294341.883014 0 .573955-.235468.941878-.235475.367924-.61811.588674-.382641.206039-.868295.29434-.470943.0883-.941879.0883-.588673 0-1.147918-.147173-.559237-.147167-.986033-.456218-.41207-.309058-.676974-.779994-.250186-.485661-.250186-1.147918h-1.324513q0 .956597.338487 1.663008.353205.691693.941879 1.14791.603391.441507 1.383385.662264.794712.22075 1.677719.22075.721129 0 1.442258-.176603.73584-.161884 1.324513-.529808.588681-.382634.956597-.971308.382641-.603391.382641-1.442258 0-.779994-.29434-1.295084-.279615-.51509-.765276-.853577-.470936-.338488-1.074327-.529808-.603391-.206032-1.236219-.353206-.61811-.147166-1.221501-.264904-.603391-.132448-1.089045-.323769-.470943-.191321-.765284-.485654-.279615-.309058-.279615-.794712 0-.51509.191314-.853578.206039-.353205.529808-.559244.338488-.206032.765276-.294333.426789-.0883.868296-.0883 1.089052 0 1.780745.51509.706411.500372.824141 1.633571z" style="font-weight:400;font-size:20.1083px;line-height:1.25;font-family:&quot;Helvetica Neue&quot;;-inkscape-font-specification:&quot;Helvetica Neue&quot;;font-variation-settings:normal;text-align:center;letter-spacing:0;text-anchor:middle;display:inline;vector-effect:none;fill:#000;fill-opacity:1;stroke:#000;stroke-width:.329194;stroke-linecap:butt;stroke-linejoin:miter;stroke-miterlimit:4;stroke-dasharray:none;stroke-dashoffset:0;stroke-opacity:1;-inkscape-stroke:none;stop-color:#000"/></g></svg>