<svg width="970.14789" height="1134.9917" viewBox="0 0 256.6849 300.29982" xmlns="http://www.w3.org/2000/svg"><defs><path id="c" d="M1600.6648 5530.2114h158.57976v94.550331H1600.6648z"/><path id="b" d="M157-13h55v40h-55z"/><filter style="color-interpolation-filters:sRGB" id="a" x="-.05642297" y="-.03515585" width="1.1128459" height="1.0703117"><feGaussianBlur stdDeviation="1.1384116"/></filter></defs><text xml:space="preserve" transform="matrix(.26458 0 0 .26458 -108.48833 -1917.9025)" style="font-size:36px;line-height:1.25;font-family:Lato;-inkscape-font-specification:Lato;text-align:center;letter-spacing:0;white-space:pre;shape-inside:url(#b)"><tspan x="157" y="60.48"><tspan dx="0 20.882812 20.039062 14.484375 18.84375">Ehret</tspan></tspan></text><g style="display:inline"><path style="display:inline;vector-effect:none;fill:#000;fill-opacity:.35;stroke-width:.828178;stroke-opacity:.968165;stop-color:#000" d="M414.58597-167.02562h256.68491v300.29983H414.58597Z" transform="translate(-414.58597 167.02562)"/></g><g style="display:inline"><g style="display:inline;stroke-width:.95413"><path style="display:inline;fill:none;fill-opacity:1;stroke:#fff;stroke-width:2.27202;stroke-miterlimit:4;stroke-dasharray:none;stroke-opacity:1;stop-color:#000" d="M-132.42407 448.2864a13.08618 7.5675644 0 0 1-13.0861 7.56752 13.08618 7.5675644 0 0 1-13.0861-7.56752 13.08618 7.5675644 0 0 1 13.0861-7.56749 13.08618 7.5675644 0 0 1 13.0861 7.56749z" transform="matrix(1.04777 0 0 1.04838 361.26237 -383.66375)"/><path style="display:inline;fill:none;fill-opacity:1;stroke:#fff;stroke-width:2.77692;stroke-miterlimit:4;stroke-dasharray:none;stroke-opacity:1;stop-color:#000" d="M-130.24713 448.2864a22.072017 13.147164 0 0 1-22.0719 13.14707 22.072017 13.147164 0 0 1-22.0719-13.14707 22.072017 13.147164 0 0 1 22.0719-13.14704 22.072017 13.147164 0 0 1 22.0719 13.14704z" transform="matrix(1.04777 0 0 1.04838 361.26237 -383.66375)"/><path style="display:inline;fill:none;fill-opacity:1;stroke:#fff;stroke-width:3.2818;stroke-miterlimit:4;stroke-dasharray:none;stroke-opacity:1;stop-color:#000" d="M-127.49585 448.28639a37.060391 22.626378 0 0 1-37.0602 22.62622 37.060391 22.626378 0 0 1-37.0601-22.62622 37.060391 22.626378 0 0 1 37.0601-22.62616 37.060391 22.626378 0 0 1 37.0602 22.62616z" transform="matrix(1.04777 0 0 1.04838 361.26237 -383.66375)"/><path style="display:inline;fill:none;fill-opacity:1;stroke:#fff;stroke-width:3.78671;stroke-miterlimit:4;stroke-dasharray:none;stroke-opacity:1;stop-color:#000" d="M-124.06333 448.28638a61.7609 38.415188 0 0 1-61.7606 38.41491 61.7609 38.415188 0 0 1-61.7605-38.41491 61.7609 38.415188 0 0 1 61.7605-38.41483 61.7609 38.415188 0 0 1 61.7606 38.41483z" transform="matrix(1.04777 0 0 1.04838 361.26237 -383.66375)"/><path style="display:inline;fill:none;fill-opacity:1;stroke:#fff;stroke-width:4.2916;stroke-miterlimit:4;stroke-dasharray:none;stroke-opacity:1;stop-color:#000" d="M-120.1248 448.28634A102.17561 64.412905 0 0 1-222.3 512.69879a102.17561 64.412905 0 0 1-102.1749-64.41245A102.17561 64.412905 0 0 1-222.3 383.87404a102.17561 64.412905 0 0 1 102.1752 64.4123z" transform="matrix(1.04777 0 0 1.04838 361.26237 -383.66375)"/></g><g aria-label="Jürgen Ehret" style="font-size:22.7542px;line-height:1.25;font-family:'PT Sans';-inkscape-font-specification:'PT Sans';text-align:center;letter-spacing:8.33437px;text-anchor:middle;display:inline;stroke-width:.264583"><path d="M-150.3595 558.85477h3.11733v11.65016q0 .91016-.20479 1.72931-.20479.81916-.68263 1.45627-.45508.61437-1.18321 1.00119-.72814.36407-1.77483.36407-.65987 0-1.43352-.13653-.77364-.13653-1.34249-.38682l.68262-2.54847q.59161.2958 1.3425.2958.95568 0 1.20597-.70538.27305-.70538.27305-1.86584zM-133.26512 563.40561v6.4622q0 1.388.31856 2.00237.34132.61436 1.29699.61436.84191 0 1.38801-.50059.56885-.50059.8419-1.22873v-7.34961h2.95805v7.91847q0 .93292.091 1.84309.091.88741.27305 1.61554h-2.22992l-.52334-1.68381h-.091q-.52335.86466-1.45627 1.43352-.93292.56885-2.20715.56885-.86466 0-1.54729-.22754-.68263-.22754-1.13771-.75089-.45508-.52334-.70538-1.41076-.22754-.88741-.22754-2.22991v-7.07656zm-2.13889-3.43588q0-.72813.43233-1.16046.45508-.43233 1.18322-.43233.72813 0 1.13771.43233.43233.43233.43233 1.16046 0 .68263-.43233 1.11496-.40958.43233-1.13771.43233-.72814 0-1.18322-.43233-.43233-.43233-.43233-1.11496zm4.98317 0q0-.72813.40957-1.16046.43233-.43233 1.16047-.43233.72813 0 1.16046.43233.45509.43233.45509 1.16046 0 .68263-.45509 1.11496-.43233.43233-1.16046.43233-.72814 0-1.16047-.43233-.40957-.43233-.40957-1.11496zM-109.27337 566.18163q-.70538-.2503-1.27423-.2503-.7964 0-1.3425.43233-.52335.40958-.70538 1.06945v7.3496h-2.95805v-11.3771h2.29818l.34131 1.50178h.091q.38682-.8419 1.04669-1.29699.65987-.45508 1.54728-.45508.59161 0 1.3425.25029zM-89.594609 574.78271q0 2.48021-1.342498 3.64068-1.342497 1.18322-3.754443 1.18322-1.638302 0-2.593978-.22755-.932923-.22754-1.410761-.47783l.614364-2.34369q.523346.20479 1.205972.40958.70538.20479 1.729319.20479 1.547286 0 2.093387-.68263.568855-.65987.568855-1.86584v-.72814h-.09102q-.796397 1.06945-2.821521 1.06945-2.207157 0-3.299359-1.36525-1.069447-1.36526-1.069447-4.27779 0-3.04907 1.456269-4.61911 1.456268-1.57004 4.232281-1.57004 1.456269 0 2.593979.20479 1.160464.20479 1.888598.47784zm-5.005924-2.1844q.86466 0 1.319744-.38682.477838-.38682.728134-1.16046v-5.1197q-.70538-.2958-1.752073-.2958-1.13771 0-1.774828.86466-.637117.8419-.637117 2.70775 0 1.66105.5461 2.52571.546101.86466 1.57004.86466zM-69.60653 573.80428q-.682626.54611-1.865845.93293-1.160464.36406-2.480208.36406-2.753258 0-4.027493-1.59279-1.274235-1.61555-1.274235-4.41432 0-3.00355 1.433514-4.50533 1.433515-1.50177 4.027494-1.50177.864659 0 1.683811.22754.819151.22754 1.456268.75089.637118.52334 1.023939 1.41076.386822.88741.386822 2.20715 0 .47784-.06826 1.02394-.04551.5461-.159279 1.13771h-6.82626q.06826 1.43352.728134 2.16165.682626.72814 2.184403.72814.932923 0 1.661057-.27305.750889-.29581 1.13771-.59161zm-4.232282-8.35079q-1.160464 0-1.729319.70538-.546101.68263-.659872 1.84309h4.232282q.09102-1.22872-.386822-1.8886-.455084-.65987-1.456269-.65987zM-51.856189 574.78271v-6.46219q0-1.388-.409575-2.00237-.386822-.61436-1.342498-.61436-.841906 0-1.433515.50059-.568855.47784-.819151 1.20597v7.37236h-2.958046v-11.3771h2.343683l.341313 1.50178h.09102q.523347-.72813 1.388007-1.27423.864659-.5461 2.229911-.5461.841906 0 1.501777.22754.659872.22754 1.114956.75089.455084.52334.682626 1.43351.227542.88742.227542 2.20716v7.07655zM-23.905283 558.85477h9.442993v2.77602h-6.325667v3.70893h5.756812v2.77601h-5.756812v3.89097h6.439438v2.77601h-9.556764zM3.1895724 574.78271v-6.46219q0-1.388-.3868214-2.00237-.3868214-.61436-1.4107604-.61436-.7508886 0-1.3880062.52335-.6143634.50059-.8191512 1.29699v7.25858h-2.958046v-15.92794h2.958046v5.82508H-.72415q.5461008-.72813 1.3424978-1.16046t2.0251238-.43233q.8646596 0 1.5245314.22754.6598718.22754 1.0922016.75089.455084.52334.6598718 1.43351.227542.88742.227542 2.20716v7.07655zM23.240574 566.18163q-.70538-.2503-1.274235-.2503-.796397 0-1.342498.43233-.523347.40958-.70538 1.06945v7.3496h-2.958046v-11.3771h2.298174l.341313 1.50178h.09102q.386821-.8419 1.046693-1.29699.659872-.45508 1.547285-.45508.59161 0 1.342498.25029zM42.395987 573.80428q-.682626.54611-1.865844.93293-1.160464.36406-2.480208.36406-2.753258 0-4.027493-1.59279-1.274235-1.61555-1.274235-4.41432 0-3.00355 1.433514-4.50533 1.433515-1.50177 4.027494-1.50177.864659 0 1.68381.22754.819152.22754 1.456269.75089.637118.52334 1.023939 1.41076.386822.88741.386822 2.20715 0 .47784-.06826 1.02394-.04551.5461-.159279 1.13771h-6.82626q.06826 1.43352.728134 2.16165.682626.72814 2.184403.72814.932922 0 1.661057-.27305.750888-.29581 1.13771-.59161zm-4.232281-8.35079q-1.160464 0-1.729319.70538-.546101.68263-.659872 1.84309h4.232281q.09102-1.22872-.386821-1.8886-.455084-.65987-1.456269-.65987zM52.000325 563.40561h1.57004v-2.13889l2.958046-.84191v2.9808h2.776013v2.50297h-2.776013v4.3688q0 1.18322.227542 1.70657.250296.50059.910168.50059.455084 0 .773643-.091.341313-.091.750889-.27305l.523346 2.27542q-.614363.29581-1.433514.5006-.819152.20478-1.661057.20478-1.57004 0-2.320928-.79639-.728135-.81915-.728135-2.66224v-5.73406h-1.57004z" style="font-weight:700;-inkscape-font-specification:'PT Sans Bold';fill:#fff" transform="translate(176.0846332 -296.76162)"/></g><path d="M-152.55804 305.3312h10.9802v3.22791h-7.35541v4.31271h6.69395v3.22791h-6.69395v4.52437h7.4877v3.22791h-11.11249zM-129.94983 323.85201v-7.51416q0-1.61395-.47625-2.32833-.44979-.71437-1.56104-.71437-.97896 0-1.66687.58208-.66146.55563-.9525 1.40229v8.57249h-3.43958v-13.22915h2.7252l.39688 1.74625h.10583q.60854-.84667 1.61396-1.48167 1.00541-.635 2.59291-.635.97896 0 1.74625.26459.76729.26458 1.29645.87312.52917.60854.79375 1.66687.26459 1.03188.26459 2.56646v8.22853zM-111.64275 323.85201q0 2.88396-1.56104 4.23333-1.56104 1.37583-4.36562 1.37583-1.905 0-3.01625-.26458-1.08479-.26459-1.64041-.55563l.71437-2.7252q.60854.23812 1.40229.47625.82021.23812 2.01083.23812 1.79917 0 2.43416-.79375.66146-.76729.66146-2.16958v-.84666h-.10583q-.92604 1.24354-3.28083 1.24354-2.56646 0-3.83645-1.5875-1.24354-1.5875-1.24354-4.97416 0-3.54541 1.69333-5.37104 1.69333-1.82562 4.92124-1.82562 1.69333 0 3.01625.23813 1.34937.23812 2.19604.55562zm-5.82083-2.54q1.00542 0 1.53458-.44979.55563-.44979.84667-1.34937v-5.95312q-.82021-.34396-2.03729-.34396-1.32292 0-2.06375 1.00542-.74083.97896-.74083 3.14854 0 1.93145.635 2.93687.635 1.00541 1.82562 1.00541zM-107.56404 310.62286h3.43958v13.22915h-3.43958zm-.50271-3.73062q0-.76729.55562-1.29646.58209-.55562 1.5875-.55562 1.00542 0 1.61396.55562.635.52917.635 1.29646 0 .76729-.635 1.29646-.60854.5027-1.61396.5027-1.00541 0-1.5875-.5027-.55562-.52917-.55562-1.29646zM-91.860208 323.85201v-7.51416q0-1.61395-.476249-2.32833-.449791-.71437-1.56104-.71437-.978957 0-1.666873.58208-.661457.55563-.952499 1.40229v8.57249h-3.439578v-13.22915h2.7252l.396879 1.74625h.105833q.608541-.84667 1.613956-1.48167 1.005416-.635 2.592914-.635.978957 0 1.746247.26459.767291.26458 1.296457.87312.529166.60854.793749 1.66687.264583 1.03188.264583 2.56646v8.22853zM-74.161671 322.7143q-.793749.635-2.169581 1.08479-1.349373.42334-2.883955.42334-3.201454 0-4.683119-1.85208-1.481665-1.87854-1.481665-5.13291 0-3.4925 1.666873-5.23875 1.666873-1.74625 4.683119-1.74625 1.005416 0 1.957915.26459.952498.26458 1.693331.87312.740832.60854 1.190623 1.64042.449791 1.03187.449791 2.56645 0 .55563-.07938 1.19062-.05292.635-.185208 1.32292h-7.93749q.07938 1.66687.846666 2.51354.793749.84666 2.539997.84666 1.08479 0 1.931456-.3175.873124-.34395 1.322915-.68791zm-4.921244-9.71019q-1.349373 0-2.010831.8202-.634999.79375-.767291 2.14313h4.921244q.105833-1.42875-.449791-2.19604-.529166-.76729-1.693331-.76729zM-60.087094 322.7143q-.793749.635-2.169581 1.08479-1.349373.42334-2.883954.42334-3.201455 0-4.683119-1.85208-1.481665-1.87854-1.481665-5.13291 0-3.4925 1.666873-5.23875 1.666873-1.74625 4.683119-1.74625 1.005415 0 1.957914.26459.952499.26458 1.693331.87312.740832.60854 1.190624 1.64042.449791 1.03187.449791 2.56645 0 .55563-.07937 1.19062-.05292.635-.185208 1.32292h-7.93749q.07937 1.66687.846665 2.51354.793749.84666 2.539997.84666 1.08479 0 1.931456-.3175.873124-.34395 1.322915-.68791zm-4.921244-9.71019q-1.349373 0-2.010831.8202-.634999.79375-.76729 2.14313h4.921243q.105834-1.42875-.449791-2.19604-.529166-.76729-1.693331-.76729zM-49.138324 313.85077q-.820208-.29104-1.481665-.29104-.926041 0-1.56104.50271-.608541.47625-.820207 1.24354v8.54603h-3.439579v-13.22915h2.672288l.396875 1.74625h.105833q.449791-.97896 1.217082-1.50812.76729-.52917 1.799164-.52917.687916 0 1.56104.29104zM-46.027818 310.62286h3.439579v13.22915h-3.439579zm-.502708-3.73062q0-.76729.555624-1.29646.582083-.55562 1.587498-.55562 1.005416 0 1.613957.55562.634999.52917.634999 1.29646 0 .76729-.634999 1.29646-.608541.5027-1.613957.5027-1.005415 0-1.587498-.5027-.555624-.52917-.555624-1.29646zM-30.323984 323.85201v-7.51416q0-1.61395-.476249-2.32833-.449791-.71437-1.56104-.71437-.978957 0-1.666873.58208-.661457.55563-.952498 1.40229v8.57249h-3.439579v-13.22915h2.725205l.396874 1.74625h.105833q.608541-.84667 1.613957-1.48167 1.005415-.635 2.592913-.635.978957 0 1.746248.26459.76729.26458 1.296456.87312.529166.60854.793749 1.66687.264583 1.03188.264583 2.56646v8.22853zM-12.016914 323.85201q0 2.88396-1.56104 4.23333-1.561039 1.37583-4.365619 1.37583-1.904998 0-3.016246-.26458-1.08479-.26459-1.640415-.55563l.714374-2.7252q.608541.23812 1.40229.47625.820208.23812 2.010831.23812 1.799164 0 2.434164-.79375.661457-.76729.661457-2.16958v-.84666h-.105833q-.926041 1.24354-3.280829 1.24354-2.566455 0-3.836454-1.5875-1.24354-1.5875-1.24354-4.97416 0-3.54541 1.693331-5.37104 1.693332-1.82562 4.921244-1.82562 1.693331 0 3.016246.23813 1.349374.23812 2.196039.55562zm-5.820826-2.54q1.005416 0 1.534582-.44979.555624-.44979.846665-1.34937v-5.95312q-.820207-.34396-2.037289-.34396-1.322915 0-2.063747 1.00542-.740833.97896-.740833 3.14854 0 1.93145.635 2.93687.634999 1.00541 1.825622 1.00541zM-1.3790214 317.23744q0-3.36021 1.6404146-5.15937 1.6404146-1.82563 4.6037441-1.82563 1.587498 0 2.7516632.50271 1.1641652.50271 1.9314559 1.42875.7672906.89958 1.1377066 2.19604.396875 1.29646.396875 2.8575 0 3.3602-1.6404148 5.18582-1.6139563 1.79917-4.5772859 1.79917-1.5874979 0-2.7516631-.50271T.15556 322.31743q-.7672907-.92604-1.1641652-2.2225-.3704162-1.29645-.3704162-2.85749zm3.5454122 0q0 .87312.1587498 1.61395t.4762494 1.29646q.3174996.55562.8202073.87312.529166.29104 1.24354.29104 1.3493733 0 2.0108308-.97895.6614575-.97896.6614575-3.09562 0-1.82563-.6085409-2.93688-.6085409-1.1377-2.0637474-1.1377-1.2699983 0-1.9843724.9525-.7143741.9525-.7143741 3.12208zM12.733598 310.62286h1.825623v-.74083q0-2.51354 1.058332-3.62479 1.058332-1.13771 3.069162-1.13771 2.116664 0 3.518954.50271l-.661457 2.75167q-.608541-.21167-1.084791-.26459-.449791-.0794-.952498-.0794-.529166 0-.846666.15875-.291041.15875-.449791.5027-.132291.3175-.185208.82021-.02646.47625-.02646 1.11125h2.910413v2.91041h-2.910413v10.31874h-3.439577v-10.31871h-1.825623zM34.728717 310.62286v13.22915h-3.439579v-10.31874h-3.995203v10.31874h-3.439579v-10.31874h-1.825623v-2.91041h1.825623v-.74083q0-2.51354 1.296456-3.65125 1.296457-1.16416 3.757079-1.16416 1.825623 0 3.227913.29104 1.428748.26458 2.301872.76729l-.899583 2.67229q-.687915-.37042-1.666872-.58208-.978958-.23813-2.169581-.23813-.767291 0-1.24354.18521-.47625.15875-.740833.50271-.264583.3175-.343957.8202-.07937.50271-.07937 1.13771zM48.797493 323.0318q-.793749.58209-1.931455.87313-1.111249.3175-2.301873.3175-1.587498 0-2.698746-.50271-1.08479-.50271-1.772706-1.40229-.687916-.92604-1.005416-2.2225-.291041-1.29645-.291041-2.85749 0-3.36021 1.508123-5.15937 1.508123-1.82563 4.392078-1.82563 1.455206 0 2.32833.23813.899583.23812 1.613957.60854l-.820208 2.80458q-.608541-.29104-1.217081-.44979-.582083-.15875-1.349374-.15875-1.428748 0-2.16958.9525-.740833.92604-.740833 2.98979 0 .84666.185208 1.56104.185208.71437.555625 1.24354.370416.52916.952498.84666.608541.29104 1.40229.29104.873124 0 1.481665-.21166.608541-.23813 1.08479-.55563zM61.815402 322.7143q-.793749.635-2.16958 1.08479-1.349374.42334-2.883955.42334-3.201454 0-4.683119-1.85208-1.481665-1.87854-1.481665-5.13291 0-3.4925 1.666873-5.23875 1.666873-1.74625 4.683119-1.74625 1.005415 0 1.957914.26459.952499.26458 1.693331.87312.740833.60854 1.190624 1.64042.449791 1.03187.449791 2.56645 0 .55563-.07937 1.19062-.05292.635-.185208 1.32292h-7.93749q.07937 1.66687.846666 2.51354.793749.84666 2.539996.84666 1.084791 0 1.931456-.3175.873124-.34395 1.322915-.68791zm-4.921244-9.71019q-1.349373 0-2.01083.8202-.634999.79375-.767291 2.14313h4.921244q.105833-1.42875-.449791-2.19604-.529166-.76729-1.693332-.76729z" style="font-weight:700;font-size:26.4583px;line-height:1.25;font-family:'PT Sans';-inkscape-font-specification:'PT Sans Bold';text-align:center;letter-spacing:.79375px;text-anchor:middle;fill:#fff;fill-opacity:1;stroke-width:.264583" transform="translate(173.31205 -133.12657)"/><g aria-label="for" style="font-weight:700;font-size:14.8167px;line-height:1.25;font-family:'PT Sans';-inkscape-font-specification:'PT Sans Bold';text-align:center;letter-spacing:.79375px;text-anchor:middle;display:inline;stroke-width:.264583"><path d="M-56.688675 500.0712h1.022353v-.41486q0-1.40759.592668-2.02989.592668-.63712 1.718737-.63712 1.185336 0 1.970621.28152l-.370418 1.54093q-.340784-.11853-.607484-.14816-.251884-.0444-.533401-.0444-.296334 0-.474135.0889-.162984.0889-.251884.28151-.07408.1778-.103717.45932-.01482.2667-.01482.6223h1.629837v1.62984h-1.629837v5.77851h-1.926171v-5.77851h-1.022353zM-50.9098 503.77538q0-1.88172.918636-2.88926.918635-1.02235 2.578106-1.02235.889002 0 1.540936.28152.651935.28151 1.081619.8001.429685.50377.637119 1.22978.22225.72602.22225 1.60021 0 1.88172-.918635 2.90407-.903819 1.00754-2.563289 1.00754-.889002 0-1.540937-.28152t-1.096436-.78529q-.429684-.51858-.651935-1.2446-.207434-.72602-.207434-1.6002zm1.985438 0q0 .48895.0889.90382.0889.41486.266701.72602.1778.31115.459318.48895.296334.16298.696385.16298.755651 0 1.126069-.54822.370417-.54822.370417-1.73355 0-1.02235-.340784-1.64466-.340784-.63711-1.155702-.63711-.711202 0-1.111253.5334-.400051.5334-.400051 1.74837zM-37.712851 501.87884q-.459318-.16298-.829735-.16298-.518585 0-.874185.28151-.340784.2667-.459318.69639v4.78579h-1.926171v-7.40835h1.496487l.22225.97791h.05927q.251884-.54822.681568-.84456.429684-.29633 1.007536-.29633.385234 0 .874185.16298z" style="fill:#fff" transform="translate(176.0846332 -296.76162)"/></g><path d="M-142.35979 365.40611q0-.84667-.635-1.37583-.60854-.52917-1.56104-.9525-.92604-.44979-2.03729-.89958-1.08479-.47625-2.03728-1.13771-.92605-.68792-1.56104-1.69333-.60855-1.00542-.60855-2.56646 0-1.34937.4498-2.32833.44979-1.00541 1.26999-1.66687.84667-.66146 1.98438-.97896 1.1377-.3175 2.53999-.3175 1.61396 0 3.04271.29105 1.42875.26458 2.35479.79374l-1.13771 3.04271q-.58208-.37042-1.74625-.66146-1.16416-.3175-2.51354-.3175-1.27 0-1.95791.50271-.66146.50271-.66146 1.34937 0 .79375.60854 1.32292.635.52916 1.56104.97895.9525.4498 2.03729.92605 1.11125.47624 2.03729 1.16416.9525.66146 1.56104 1.66687.635.97896.635 2.46062 0 1.48167-.50271 2.56646-.47625 1.05833-1.37583 1.77271-.87312.71437-2.14312 1.05833-1.24354.34396-2.75167.34396-1.98437 0-3.49249-.37042-1.50812-.37042-2.2225-.74083l1.16417-3.09562q.29104.15875.74083.34395.47625.18521 1.05833.34396.58208.15875 1.21708.26459.66146.10583 1.34938.10583 1.61395 0 2.46062-.52917.87312-.55562.87312-1.66687zM-136.00194 363.76569q0-3.3602 1.64041-5.15936 1.64042-1.82563 4.60375-1.82563 1.58749 0 2.75166.50271 1.16416.50271 1.93146 1.42875.76729.89958 1.1377 2.19604.39688 1.29646.39688 2.85749 0 3.36021-1.64042 5.18583-1.61395 1.79917-4.57728 1.79917-1.5875 0-2.75167-.50271-1.16416-.50271-1.95791-1.40229-.76729-.92604-1.16417-2.2225-.37041-1.29646-.37041-2.8575zm3.54541 0q0 .87313.15875 1.61396.15875.74083.47625 1.29646.3175.55562.82021.87312.52916.29104 1.24354.29104 1.34937 0 2.01083-.97895.66145-.97896.66145-3.09563 0-1.82562-.60854-2.93687-.60854-1.1377-2.06374-1.1377-1.27 0-1.98438.9525-.71437.95249-.71437 3.12207zM-121.62475 357.15112h1.82562v-.74083q0-2.51354 1.05833-3.62479 1.05833-1.13771 3.06916-1.13771 2.11667 0 3.51896.50271l-.66146 2.75166q-.60854-.21166-1.08479-.26458-.44979-.0794-.9525-.0794-.52916 0-.84666.15875-.29104.15875-.44979.5027-.1323.3175-.18521.82021-.0265.47625-.0265 1.11125h2.91041v2.91041h-2.91041v10.31874h-3.43958V360.0615h-1.82562zM-112.45695 357.15112h1.82562v-2.48708l3.43958-.97896v3.46604h3.22791v2.91041h-3.22791v5.08q0 1.37583.26458 1.98437.29104.58208 1.05833.58208.52917 0 .89958-.10583.39688-.10583.87313-.3175l.60854 2.64583q-.71438.34396-1.66687.58208-.9525.23813-1.93146.23813-1.82562 0-2.69875-.92604-.84666-.9525-.84666-3.09563v-6.66749h-1.82562zM-91.659901 357.15112l2.407706 6.77332.476249 2.19604h.105833l.370416-2.22249 1.693332-6.74687h3.148537l-4.074578 13.36144h-2.539997l-2.672288-7.40832-.343958-1.66688h-.132291l-.3175 1.69334-2.539997 7.38186h-2.61937l-4.259793-13.36144h3.730623l1.93146 6.64103.317498 2.35479h.132292l.449791-2.38125 2.196039-6.61457zM-81.190269 357.91841q1.058332-.47625 2.513539-.74083 1.455206-.29104 3.042704-.29104 1.375832 0 2.301872.34395.926041.3175 1.455207.92605.555624.60854.76729 1.4552.238125.84667.238125 1.905 0 1.16416-.07937 2.35479-.07937 1.16416-.105833 2.30187 0 1.13771.07937 2.2225.07937 1.05833.396874 2.01083h-2.804579l-.555625-1.82562h-.132291q-.529166.8202-1.481665 1.42874-.926041.58209-2.407705.58209-.926041 0-1.666873-.26459-.740833-.29104-1.269999-.79375-.529166-.52916-.820207-1.21708-.291041-.71437-.291041-1.5875 0-1.21708.529166-2.03728.555624-.84667 1.561039-1.34938 1.031874-.52916 2.434164-.71437 1.428748-.21167 3.174996-.13229.185208-1.48167-.211666-2.11667-.396875-.66145-1.772706-.66145-1.031874 0-2.196039.21166-1.137707.21167-1.87854.55563zm4.36562 9.84249q1.031873 0 1.640414-.44979.608541-.47625.899582-1.00542v-1.71979q-.820207-.0794-1.587498-.0265-.740832.0529-1.322915.23813-.582082.18521-.92604.52916-.343958.34396-.343958.87313 0 .74083.423333 1.16416.449791.39688 1.217082.39688zM-59.624283 360.37903q-.820207-.29104-1.481665-.29104-.92604 0-1.56104.50271-.60854.47625-.820207 1.24354v8.54603h-3.439579v-13.22915h2.672288l.396875 1.74625h.105833q.449791-.97896 1.217082-1.50813.767291-.52916 1.799164-.52916.687916 0 1.56104.29104zM-45.983377 369.24256q-.793749.635-2.169581 1.08479-1.349373.42334-2.883954.42334-3.201455 0-4.683119-1.85208-1.481665-1.87854-1.481665-5.13292 0-3.49249 1.666873-5.23874 1.666873-1.74625 4.683119-1.74625 1.005415 0 1.957914.26459.952499.26458 1.693331.87312.740833.60854 1.190624 1.64042.449791 1.03187.449791 2.56645 0 .55562-.07937 1.19062-.05292.635-.185208 1.32292h-7.93749q.07937 1.66687.846665 2.51354.793749.84666 2.539997.84666 1.08479 0 1.931456-.3175.873124-.34395 1.322915-.68791zm-4.921244-9.71019q-1.349373 0-2.010831.8202-.634999.79375-.76729 2.14313h4.921243q.105834-1.42875-.449791-2.19604-.529166-.76729-1.693331-.76729zM-26.226469 365.40611q0-.84667-.634999-1.37583-.608541-.52917-1.56104-.9525-.92604-.44979-2.037289-.89958-1.08479-.47625-2.037289-1.13771-.92604-.68792-1.561039-1.69333-.608541-1.00542-.608541-2.56646 0-1.34937.449791-2.32833.449791-1.00541 1.269998-1.66687.846666-.66146 1.984373-.97896 1.137707-.3175 2.539996-.3175 1.613957 0 3.042705.29105 1.428748.26458 2.354789.79374l-1.137707 3.04271q-.582083-.37042-1.746248-.66146-1.164165-.3175-2.513539-.3175-1.269998 0-1.957914.50271-.661457.50271-.661457 1.34937 0 .79375.608541 1.32292.634999.52916 1.561039.97895.952499.4498 2.037289.92605 1.111249.47624 2.037289 1.16416.952499.66146 1.56104 1.66687.634999.97896.634999 2.46062 0 1.48167-.502707 2.56646-.47625 1.05833-1.375832 1.77271-.873124.71437-2.143122 1.05833-1.24354.34396-2.751663.34396-1.984373 0-3.492496-.37042t-2.222497-.74083l1.164165-3.09562q.291041.15875.740832.34395.47625.18521 1.058332.34396.582083.15875 1.217082.26459.661458.10583 1.349374.10583 1.613956 0 2.460621-.52917.873124-.55562.873124-1.66687zM-14.418218 364.5859l.47625 2.06375h.15875l.343958-2.09021 2.01083-7.40832h3.5454122l-4.0216612 11.93269q-.502708 1.48167-.978957 2.69875-.449791 1.24354-1.005416 2.14312-.555624.89958-1.24354 1.37583-.661457.50271-1.587498.50271-1.375831 0-2.196038-.44979l.634999-2.75166q.396874.15875.793749.15875.608541 0 1.164165-.52917.582082-.50271.873124-1.85208l-5.529785-13.22915h4.127495zM-.0377199 366.72902q0-.52916-.4497911-.84666t-1.1112486-.58208q-.6614575-.26459-1.4552065-.52917-.793749-.29104-1.4552065-.76729-.6614574-.50271-1.1112485-1.24354-.4497911-.76729-.4497911-1.95791 0-1.95792 1.1641652-2.98979 1.1641651-1.03188 3.360204-1.03188 1.5081231 0 2.7252049.3175t1.9049976.71438l-.7672907 2.48708q-.6085409-.23813-1.5345814-.50271-.9260405-.26458-1.8785393-.26458-1.5345814 0-1.5345814 1.19062 0 .47625.4497911.76729t1.1112486.55563q.6614575.23812 1.4552065.52916.793749.29104 1.4552065.76729.6614575.44979 1.1112486 1.19063.449791.74083.449791 1.90499 0 2.01083-1.2964566 3.175-1.2699984 1.13771-3.8364535 1.13771-1.4022899 0-2.64583-.37042-1.2170817-.34396-1.9843724-.82021l.9524988-2.56645q.6085409.34396 1.6139562.68791 1.0054154.3175 2.0637474.3175.7672907 0 1.2170818-.29104.4762494-.29104.4762494-.97896zM5.3300089 357.15112h1.8256227v-2.48708l3.4395794-.97896v3.46604h3.227912v2.91041h-3.227912v5.08q0 1.37583.264583 1.98437.291041.58208 1.058332.58208.529166 0 .899582-.10583.396874-.10583.873123-.3175l.608541 2.64583q-.714374.34396-1.666872.58208-.952499.23813-1.931456.23813-1.8256229 0-2.6987468-.92604-.8466656-.9525-.8466656-3.09563v-6.66749H5.3300089ZM27.442526 369.24256q-.793749.635-2.16958 1.08479-1.349374.42334-2.883955.42334-3.201454 0-4.683119-1.85208-1.481665-1.87854-1.481665-5.13292 0-3.49249 1.666873-5.23874 1.666873-1.74625 4.683119-1.74625 1.005416 0 1.957914.26459.952499.26458 1.693331.87312.740833.60854 1.190624 1.64042.449791 1.03187.449791 2.56645 0 .55562-.07937 1.19062-.05292.635-.185208 1.32292h-7.93749q.07937 1.66687.846666 2.51354.793749.84666 2.539997.84666 1.08479 0 1.931455-.3175.873124-.34395 1.322915-.68791zm-4.921243-9.71019q-1.349374 0-2.010831.8202-.634999.79375-.767291 2.14313h4.921244q.105833-1.42875-.449791-2.19604-.529166-.76729-1.693331-.76729zM38.86755 370.38027v-7.19666q0-1.82562-.343958-2.59291-.343958-.76729-1.428748-.76729-.899582 0-1.455207.50271-.555624.47625-.846665 1.24354v8.81061h-3.439579v-13.22915h2.672288l.396875 1.74625h.105833q.608541-.84667 1.534581-1.48167.952499-.635 2.434164-.635 1.269998 0 2.063747.52917.820207.50271 1.269998 1.71979.608541-1.03187 1.56104-1.64042.952499-.60854 2.301872-.60854 1.111249 0 1.878539.26459.793749.26458 1.269999.92604.502708.635.740832 1.71979.238125 1.08479.238125 2.75166v7.93749h-3.439579v-7.43478q0-1.56104-.343958-2.32833-.317499-.79375-1.455206-.79375-.926041 0-1.481665.50271-.529166.5027-.793749 1.37583v8.67832zM59.17926 366.72902q0-.52916-.449791-.84666t-1.111249-.58208q-.661457-.26459-1.455206-.52917-.793749-.29104-1.455207-.76729-.661457-.50271-1.111248-1.24354-.449791-.76729-.449791-1.95791 0-1.95792 1.164165-2.98979 1.164165-1.03188 3.360204-1.03188 1.508123 0 2.725205.3175 1.217081.3175 1.904997.71438l-.76729 2.48708q-.608541-.23813-1.534582-.50271-.92604-.26458-1.878539-.26458-1.534581 0-1.534581 1.19062 0 .47625.449791.76729t1.111248.55563q.661458.23812 1.455207.52916.793749.29104 1.455206.76729.661458.44979 1.111249 1.19063.449791.74083.449791 1.90499 0 2.01083-1.296457 3.175-1.269998 1.13771-3.836453 1.13771-1.40229 0-2.64583-.37042-1.217082-.34396-1.984373-.82021l.952499-2.56645q.608541.34396 1.613956.68791 1.005416.3175 2.063748.3175.76729 0 1.217081-.29104.47625-.29104.47625-.97896z" style="font-weight:700;font-size:26.4583px;line-height:1.25;font-family:'PT Sans';-inkscape-font-specification:'PT Sans Bold';text-align:center;letter-spacing:1.05833px;text-anchor:middle;fill:#fff;stroke-width:.264583" transform="translate(173.31205 -133.12657)"/></g></svg>