<svg width="1571.1827" height="432.32983" viewBox="0 0 415.70865 114.38724" xmlns="http://www.w3.org/2000/svg"><defs><path id="f" d="M-44.056217 1066.7898h1148.6085v506.64648h-1148.6085z"/><path id="c" d="M1600.6648 5530.2114h158.57976v94.550331H1600.6648z"/><path id="b" d="M157-13h55v40h-55z"/><path id="e" d="M1600.6648 5530.2114h158.57976v94.550331H1600.6648z"/><path id="d" d="M157-13h55v40h-55z"/><filter style="color-interpolation-filters:sRGB" id="a" x="-.05642297" y="-.03515585" width="1.1128459" height="1.0703117"><feGaussianBlur stdDeviation="1.1384116"/></filter></defs><text xml:space="preserve" transform="matrix(.26458 0 0 .26458 -119.50634 -1942.7517)" style="font-size:36px;line-height:1.25;font-family:Lato;-inkscape-font-specification:Lato;text-align:center;letter-spacing:0;white-space:pre;shape-inside:url(#b)"><tspan x="157" y="60.48"><tspan dx="0 20.882812 20.039062 14.484375 18.84375">Ehret</tspan></tspan></text><text xml:space="preserve" transform="matrix(.26458 0 0 .26458 426.53347 -2150.4431)" style="font-size:36px;line-height:1.25;font-family:Lato;-inkscape-font-specification:Lato;text-align:center;letter-spacing:0;white-space:pre;shape-inside:url(#d)"><tspan x="157" y="60.48"><tspan dx="0 20.882812 20.039062 14.484375 18.84375">Ehret</tspan></tspan></text><g style="display:inline"><path style="display:inline;vector-effect:none;fill:#000;fill-opacity:.35;stroke-width:.828176;stroke-opacity:.968165;stop-color:#000" d="M0-.000029h415.70866V114.38721H0Z" transform="translate(0 .000029)"/></g><g style="display:inline"><g aria-label="Dr.-Ing. Jürgen Ehret" style="font-size:14.5521px;line-height:1.25;font-family:'PT Sans';-inkscape-font-specification:'PT Sans';text-align:center;letter-spacing:1.05833px;text-anchor:middle;display:inline;stroke-width:.264583"><path d="M108.73531 124.96546v-6.54845h1.62984q.84402 0 1.41155.24739.58209.23283.93134.68395.34925.45111.49477 1.09141.16007.62574.16007 1.41155 0 .85857-.21828 1.45521-.21828.59664-.58208.97499-.36381.3638-.82947.52388-.46567.16007-.96044.16007zm-2.28468-8.46932v10.3902h4.48205q1.19327 0 2.0664-.39291.88768-.40746 1.46976-1.10596.59664-.6985.88768-1.65894.29104-.96044.29104-2.0955 0-1.29514-.3638-2.25558-.34925-.96044-.98954-1.60073-.62574-.64029-1.49887-.96044-.85857-.32014-1.86267-.32014zM118.06265 119.3629v7.52344h2.0664v-3.39064q0-.50933.10186-.94589.10187-.43656.3347-.75671.24738-.3347.64029-.52387.39291-.18918.96044-.18918.18918 0 .39291.0291.20373.0146.34925.0437v-1.92088q-.24739-.0728-.45112-.0728-.3929 0-.75671.11642-.3638.11642-.68395.3347-.32014.20373-.56753.50932-.24738.29104-.3929.64029h-.0291v-1.397zM123.51276 124.64531v2.24103h2.28468v-2.24103zM128.49242 122.02594v1.77535h4.38018v-1.77535zM135.69538 116.49614v10.3902h2.28468v-10.3902zM140.82716 119.3629v7.52344h2.0664v-3.94362q0-1.14962.37835-1.64439.37836-.50932 1.22238-.50932.74216 0 1.0332.46566.29104.45112.29104 1.38245v4.24922h2.0664v-4.62757q0-.6985-.13097-1.26603-.11642-.58209-.42201-.97499-.3056-.40746-.84402-.62574-.52388-.23284-1.35335-.23284-.65484 0-1.28058.3056-.62574.29104-1.01865.94588h-.0437v-1.04775zM154.03285 125.11098q-.48022 0-.80036-.20373-.32015-.20373-.52388-.52387-.18917-.32015-.27649-.71306-.0728-.40746-.0728-.81491 0-.42202.0873-.80037.10187-.39291.3056-.68395.21828-.30559.52387-.48022.32015-.17462.75671-.17462.50933 0 .84403.18917.33469.18918.53842.50933.20373.32014.29105.74215.0873.40746.0873.87313 0 .40746-.11642.78581-.10186.36381-.32015.65485-.21828.29104-.55297.46567-.3347.17462-.77127.17462zm3.72534 1.29514v-7.04322h-1.96453v1.0041h-.0291q-.37835-.65485-.94588-.93134-.55298-.27649-1.29514-.27649-.78581 0-1.397.3056-.59664.30559-1.0041.82947-.40746.50932-.62574 1.19327-.20373.66939-.20373 1.397 0 .77126.17463 1.46976.18918.68395.58208 1.20783.39291.50932 1.0041.81491.61119.29105 1.45521.29105.68395 0 1.29514-.27649.62574-.29105.96043-.88768h.0291v.98954q.0146.80037-.39291 1.32424-.39291.52388-1.26603.52388-.55298 0-.97499-.23284-.42201-.21828-.56753-.80036h-2.05185q.0437.64029.34925 1.09141.32015.46566.78581.7567.48022.29105 1.04775.42202.58209.14552 1.13507.14552 1.29514 0 2.0664-.34925.77126-.34925 1.17872-.85858.40746-.49477.52387-1.07685.13097-.58209.13097-1.0332zM160.56755 124.64531v2.24103h2.28468v-2.24103zM176.96982 123.61211v-7.11597h-2.28468v7.01411q0 .27649-.0291.58208-.0146.29105-.13097.55298-.10187.24739-.34925.40746-.24739.16008-.6985.16008-.40746 0-.6694-.13097-.24739-.13097-.39291-.34925-.14552-.23284-.20373-.55298-.0582-.32015-.0582-.6985v-.46567h-2.0664v.90223q0 .85857.29104 1.46976.29104.59664.77126.98954.48022.37836 1.09141.55298.61119.18918 1.26603.18918 1.16417 0 1.84812-.34925.68395-.3638 1.04775-.88768.3638-.53843.46567-1.14961.10186-.61119.10186-1.12052zM180.87514 116.49614v1.70259h1.96453v-1.70259zm2.99773 0v1.70259h1.96453v-1.70259zm3.01228 10.3902v-7.52344h-2.0664v3.94362q0 1.14962-.37835 1.65894-.37836.49477-1.22238.49477-.74215 0-1.0332-.45111-.29104-.46567-.29104-1.39701v-4.24921h-2.0664v4.62757q0 .6985.11642 1.28058.13097.56754.43656.97499.3056.39291.82947.61119.53843.21828 1.3679.21828.65485 0 1.28059-.29104.62574-.29104 1.01864-.94588h.0437v1.04775zM189.52602 119.3629v7.52344h2.0664v-3.39064q0-.50933.10187-.94589.10186-.43656.33469-.75671.24739-.3347.6403-.52387.3929-.18918.96043-.18918.18918 0 .39291.0291.20373.0146.34925.0437v-1.92088q-.24738-.0728-.45111-.0728-.39291 0-.75671.11642t-.68395.3347q-.32015.20373-.56753.50932-.24739.29104-.39291.64029h-.0291v-1.397zM199.34472 125.11098q-.48022 0-.80037-.20373-.32014-.20373-.52387-.52387-.18918-.32015-.27649-.71306-.0728-.40746-.0728-.81491 0-.42202.0873-.80037.10186-.39291.30559-.68395.21828-.30559.52388-.48022.32014-.17462.75671-.17462.50932 0 .84402.18917.3347.18918.53843.50933.20373.32014.29104.74215.0873.40746.0873.87313 0 .40746-.11642.78581-.10186.36381-.32014.65485-.21828.29104-.55298.46567-.3347.17462-.77126.17462zm3.72533 1.29514v-7.04322h-1.96453v1.0041h-.0291q-.37836-.65485-.94589-.93134-.55298-.27649-1.29514-.27649-.78581 0-1.397.3056-.59663.30559-1.00409.82947-.40746.50932-.62574 1.19327-.20373.66939-.20373 1.397 0 .77126.17462 1.46976.18918.68395.58209 1.20783.3929.50932 1.00409.81491.61119.29105 1.45521.29105.68395 0 1.29514-.27649.62574-.29105.96044-.88768h.0291v.98954q.0145.80037-.39291 1.32424-.3929.52388-1.26603.52388-.55298 0-.97499-.23284-.42201-.21828-.56753-.80036h-2.05185q.0437.64029.34925 1.09141.32015.46566.78582.7567.48022.29105 1.04775.42202.58208.14552 1.13506.14552 1.29514 0 2.0664-.34925.77126-.34925 1.17872-.85858.40746-.49477.52388-1.07685.13096-.58209.13096-1.0332zM210.861 122.31698h-3.36153q.0145-.21828.0873-.49477.0873-.27649.27649-.52388.20373-.24738.52388-.40746.3347-.17462.82947-.17462.75671 0 1.12051.40746.37835.40745.52387 1.19327zm-3.36153 1.30969h5.42793q.0582-.87313-.14552-1.67349-.20373-.80037-.66939-1.42611-.45112-.62574-1.16417-.98954-.71306-.37836-1.67349-.37836-.85858 0-1.57163.3056-.6985.30559-1.20783.84402-.50932.52387-.78581 1.25148-.27649.7276-.27649 1.57163 0 .87312.26194 1.60073.27649.7276.77126 1.25148.49477.52387 1.20782.81491.71306.27649 1.60074.27649 1.28058 0 2.18281-.58208.90223-.58208 1.33879-1.93543h-1.81901q-.10186.34925-.55298.6694-.45111.30559-1.07685.30559-.87313 0-1.3388-.45111-.46566-.45112-.50932-1.45521zM215.21129 119.3629v7.52344h2.0664v-3.94362q0-1.14962.37836-1.64439.37835-.50932 1.22237-.50932.74216 0 1.0332.46566.29105.45112.29105 1.38245v4.24922h2.06639v-4.62757q0-.6985-.13097-1.26603-.11641-.58209-.42201-.97499-.30559-.40746-.84402-.62574-.52387-.23284-1.35334-.23284-.65485 0-1.28059.3056-.62574.29104-1.01865.94588h-.0437v-1.04775zM230.22248 116.49614v10.3902h7.88723v-1.92088h-5.60255v-2.54662h5.03502v-1.77535h-5.03502v-2.22648h5.48614v-1.92087zM240.49865 116.49614v10.3902h2.0664v-3.94362q0-1.14962.37835-1.64439.37836-.50932 1.22238-.50932.74215 0 1.0332.46566.29104.45112.29104 1.38245v4.24922h2.0664v-4.62757q0-.6985-.13097-1.26603-.11642-.58209-.42201-.97499-.3056-.40746-.84402-.62574-.52388-.23284-1.35335-.23284-.58208 0-1.19327.3056-.61119.29104-1.0041.94588h-.0436v-3.91451zM250.19729 119.3629v7.52344h2.0664v-3.39064q0-.50933.10186-.94589.10187-.43656.3347-.75671.24738-.3347.64029-.52387.39291-.18918.96044-.18918.18918 0 .39291.0291.20373.0146.34925.0437v-1.92088q-.24739-.0728-.45112-.0728-.39291 0-.75671.11642t-.68395.3347q-.32014.20373-.56753.50932-.24738.29104-.3929.64029h-.0291v-1.397zM261.70266 122.31698h-3.36154q.0145-.21828.0873-.49477.0873-.27649.27649-.52388.20373-.24738.52388-.40746.3347-.17462.82947-.17462.75671 0 1.12051.40746.37836.40745.52388 1.19327zm-3.36154 1.30969h5.42793q.0582-.87313-.14552-1.67349-.20373-.80037-.66939-1.42611-.45112-.62574-1.16417-.98954-.71305-.37836-1.67349-.37836-.85858 0-1.57163.3056-.6985.30559-1.20782.84402-.50933.52387-.78582 1.25148-.27649.7276-.27649 1.57163 0 .87312.26194 1.60073.27649.7276.77126 1.25148.49477.52387 1.20783.81491.71305.27649 1.60073.27649 1.28058 0 2.18281-.58208.90223-.58208 1.3388-1.93543h-1.81902q-.10186.34925-.55298.6694-.45111.30559-1.07685.30559-.87313 0-1.33879-.45111-.46567-.45112-.50933-1.45521zM268.66119 119.3629v-2.25557h-2.06639v2.25557h-1.25149v1.38245h1.25149v4.43839q0 .56753.18917.91678.18918.34925.50933.53843.33469.18918.75671.24739.43656.0728.91678.0728.30559 0 .62574-.0145.32014-.0146.58208-.0582v-1.60073q-.14552.0291-.30559.0436-.16008.0145-.3347.0145-.52388 0-.6985-.17462-.17463-.17463-.17463-.6985v-3.72534h1.51342v-1.38245z" style="font-weight:700;font-family:'Helvetica Neue';-inkscape-font-specification:'Helvetica Neue Bold';fill:#fff" transform="translate(105.82968 -34.168114)"/></g><g style="display:inline;stroke-width:1.21915"><path style="display:inline;fill:none;fill-opacity:1;stroke:#fff;stroke-width:2.3515;stroke-miterlimit:4;stroke-dasharray:none;stroke-opacity:1;stop-color:#000" d="M-165.55737 439.72724a11.106197 6.4262649 0 0 1-11.10613 6.42623 11.106197 6.4262649 0 0 1-11.10613-6.42622 11.106197 6.4262649 0 0 1 11.10614-6.4262 11.106197 6.4262649 0 0 1 11.10612 6.42619z" transform="matrix(.82133 0 0 .81916 287.27046 -303.015541)"/><path style="display:inline;fill:none;fill-opacity:1;stroke:#fff;stroke-width:2.87406;stroke-miterlimit:4;stroke-dasharray:none;stroke-opacity:1;stop-color:#000" d="M-163.84062 439.72726a18.732446 11.164379 0 0 1-18.73236 11.16429 18.732446 11.164379 0 0 1-18.73234-11.1643 18.732446 11.164379 0 0 1 18.73235-11.16427 18.732446 11.164379 0 0 1 18.73235 11.16428z" transform="matrix(.82133 0 0 .81916 287.27046 -303.015541)"/><path style="display:inline;fill:none;fill-opacity:1;stroke:#fff;stroke-width:3.3966;stroke-miterlimit:4;stroke-dasharray:none;stroke-opacity:1;stop-color:#000" d="M-161.92136 439.72725a31.453028 19.213989 0 0 1-31.45287 19.21385 31.453028 19.213989 0 0 1-31.45278-19.21385 31.453028 19.213989 0 0 1 31.45278-19.21381 31.453028 19.213989 0 0 1 31.45287 19.21381z" transform="matrix(.82133 0 0 .81916 287.27046 -303.015541)"/><path style="display:inline;fill:none;fill-opacity:1;stroke:#fff;stroke-width:3.91918;stroke-miterlimit:4;stroke-dasharray:none;stroke-opacity:1;stop-color:#000" d="M-159.62176 439.72723a52.416267 32.621616 0 0 1-52.41601 32.62138 52.416267 32.621616 0 0 1-52.41593-32.62138 52.416267 32.621616 0 0 1 52.41594-32.6213 52.416267 32.621616 0 0 1 52.416 32.6213z" transform="matrix(.82133 0 0 .81916 287.27046 -303.015541)"/><path style="display:inline;fill:none;fill-opacity:1;stroke:#fff;stroke-width:4.44174;stroke-miterlimit:4;stroke-dasharray:none;stroke-opacity:1;stop-color:#000" d="M-156.89016 439.7272a86.716094 54.698496 0 0 1-86.71574 54.69811 86.716094 54.698496 0 0 1-86.71549-54.6981 86.716094 54.698496 0 0 1 86.71549-54.69799 86.716094 54.698496 0 0 1 86.71574 54.69798z" transform="matrix(.82133 0 0 .81916 287.27046 -303.015541)"/></g><g aria-label="Software Systems" style="font-size:25.1354px;line-height:1.25;font-family:'PT Sans';-inkscape-font-specification:'PT Sans';text-align:center;letter-spacing:0;text-anchor:middle;display:inline;stroke-width:.264583"><path d="M84.355641 92.316882h-3.82058q-.02514 1.658936.603249 2.865435.628385 1.206499 1.684072 1.985697 1.080822.779197 2.463269 1.131093 1.407583.377031 2.890571.377031 1.834885 0 3.217332-.427302 1.407582-.427302 2.337592-1.181364.955145-.779197 1.432718-1.834884.477572-1.055687.477572-2.287321 0-1.508124-.65352-2.46327-.628385-.98028-1.508124-1.558395-.879739-.578114-1.784614-.829468-.879739-.276489-1.382447-.377031-1.684071-.427302-2.739758-.703791-1.030552-.276489-1.633801-.552979-.578115-.276489-.779198-.603249-.201083-.326761-.201083-.854604 0-.578114.251354-.955145t.628385-.628385q.402167-.251354.879739-.351896.477573-.100542.955145-.100542.728927 0 1.332177.125677.628385.125677 1.105957.427302.477573.301625.754062.829469.301625.527843.351896 1.332176h3.820581q0-1.558395-.60325-2.639217-.578114-1.105958-1.58353-1.809749t-2.312457-1.005416q-1.281905-.32676-2.689488-.32676-1.206499 0-2.412998.32676-1.2065.32676-2.161645 1.005416-.955145.678656-1.558395 1.709207-.578114 1.005416-.578114 2.387863 0 1.231635.452437 2.111374.477573.854603 1.231635 1.432718.754062.578114 1.709207.955145.955145.351896 1.960562.60325.98028.276489 1.935425.502708.955146.226218 1.709208.527843.754062.301625 1.206499.754062.477572.452437.477572 1.181364 0 .678656-.351895 1.131093-.351896.427302-.879739.678656-.527844.251354-1.131093.351895-.60325.07541-1.131093.07541-.779198 0-1.508124-.175947-.728927-.201084-1.281906-.578115-.527843-.402166-.854603-1.030551-.326761-.628385-.326761-1.533259zM100.75492 91.789038q0-.779197.15081-1.533259.15081-.754062.50271-1.332177.37703-.578114.98028-.930009.60325-.377031 1.50812-.377031.90488 0 1.50813.377031.62838.351895.98028.930009.37703.578115.52784 1.332177.15082.754062.15082 1.533259 0 .779198-.15082 1.53326-.15081.728926-.52784 1.332176-.3519.578114-.98028.93001-.60325.351895-1.50813.351895-.90487 0-1.50812-.351895-.60325-.351896-.98028-.93001-.3519-.60325-.50271-1.332176-.15081-.754062-.15081-1.53326zm-3.569227 0q0 1.558395.477572 2.815165.477573 1.25677 1.357312 2.161645.879739.879739 2.111373 1.357311 1.23164.477573 2.76489.477573 1.53326 0 2.7649-.477573 1.25677-.477572 2.13651-1.357311.87974-.904875 1.35731-2.161645.47757-1.25677.47757-2.815165t-.47757-2.815165q-.47757-1.281905-1.35731-2.161644-.87974-.904875-2.13651-1.382447-1.23164-.502708-2.7649-.502708-1.53325 0-2.76489.502708-1.231634.477572-2.111373 1.382447-.879739.879739-1.357312 2.161644-.477572 1.25677-.477572 2.815165zM113.73303 87.666832v10.60714h3.56923v-10.60714h2.46327v-2.387863h-2.46327v-.779197q0-.804333.30163-1.131093.32676-.351896 1.05568-.351896.67866 0 1.30704.07541v-2.664352q-.45243-.02513-.93001-.05027-.47757-.05027-.95514-.05027-2.18678 0-3.2676 1.105958-1.08083 1.105958-1.08083 2.8403v1.005416h-2.1365v2.387863zM125.87304 85.278969v-3.895987h-3.56923v3.895987h-2.16164v2.387863h2.16164v7.666298q0 .98028.32676 1.58353.32676.60325.87974.93001.57811.32676 1.30704.427302.75406.125677 1.58353.125677.52785 0 1.08082-.02514.55298-.02513 1.00542-.100541v-2.764895q-.25135.05027-.52784.07541-.27649.02513-.57812.02513-.90487 0-1.2065-.301625-.30162-.301625-.30162-1.206499v-6.434663h2.61408v-2.387863zM145.04035 98.273972l4.09707-12.995003h-3.66976l-2.38787 8.797391h-.0503l-2.21191-8.797391h-3.46869l-2.16164 8.822526h-.0503l-2.38787-8.822526h-3.77031l4.12221 12.995003h3.6949l2.21192-8.721985h.0503l2.31246 8.721985zM150.50612 89.275498q.0754-1.25677.62839-2.086238.55298-.829468 1.40758-1.332176t1.91029-.703792q1.08082-.226218 2.16165-.226218.98028 0 1.98569.150812 1.00542.125677 1.83489.527844.82946.402166 1.35731 1.131093.52784.703791.52784 1.885155V95.3834q0 .879739.10054 1.684072t.3519 1.2065h-3.6195q-.10054-.301625-.17595-.60325-.0503-.32676-.0754-.65352-.85461.879739-2.01083 1.231634-1.15623.351896-2.36273.351896-.93001 0-1.73435-.226219-.80433-.226218-1.40758-.703791-.60325-.477573-.95514-1.206499-.32676-.728927-.32676-1.734343 0-1.105958.37703-1.809749.40216-.728926 1.00541-1.156228.62839-.427302 1.40759-.628385.80433-.226219 1.60866-.351896.80433-.125677 1.58353-.201083.7792-.07541 1.38245-.226219.60325-.150812.95514-.427301.3519-.301625.32676-.854604 0-.578114-.20108-.904875-.17595-.351895-.50271-.527843-.30162-.201083-.72892-.251354-.40217-.07541-.87974-.07541-1.05569 0-1.65894.452437-.60325.452437-.70379 1.508124zm8.24441 2.639217q-.22621.201083-.57811.32676-.32676.100542-.72893.175948-.37703.07541-.80433.125677-.4273.05027-.8546.125677-.40217.07541-.80434.201083-.37703.125677-.67865.351896-.27649.201083-.45244.527843-.17595.326761-.17595.829469 0 .477572.17595.804332.17595.326761.47757.527844.30163.175948.7038.251354.40216.07541.82946.07541 1.05569 0 1.6338-.351896.57812-.351895.85461-.829468.27649-.502708.32676-1.005416.0754-.502708.0754-.804333zM165.09016 85.278969v12.995003h3.56922v-5.856549q0-.879739.17595-1.633801t.57811-1.307041q.42731-.578114 1.10596-.904874.67866-.32676 1.65894-.32676.32676 0 .67865.05027.3519.02514.60325.07541v-3.317873q-.4273-.125677-.77919-.125677-.67866 0-1.30704.201083-.62839.201083-1.18137.578114-.55298.351896-.98028.879739-.4273.502708-.67865 1.105958h-.0503v-2.412999zM183.135 90.381456h-5.80628q.0251-.377031.15081-.854604.15081-.477573.47757-.904874.3519-.427302.90488-.703792.57811-.301624 1.43272-.301624 1.30704 0 1.93542.703791.65352.703791.90488 2.061103zm-5.80628 2.262186h9.3755q.10055-1.508124-.25135-2.890571t-1.15623-2.46327q-.7792-1.080822-2.01083-1.709207-1.23164-.65352-2.89057-.65352-1.48299 0-2.71463.527843-1.20649.527844-2.08623 1.457853-.87974.904875-1.35731 2.161645-.47758 1.25677-.47758 2.714623 0 1.508124.45244 2.764894.47757 1.25677 1.33218 2.161645.8546.904874 2.08623 1.407582 1.23164.477573 2.7649.477573 2.21191 0 3.77031-1.005416 1.55839-1.005416 2.31246-3.343009h-3.14193q-.17595.60325-.95515 1.156229-.77919.527843-1.86001.527843-1.50813 0-2.31246-.779197-.80433-.779198-.87974-2.51354zM198.83954 92.316882h-3.82059q-.0251 1.658936.60325 2.865435.62839 1.206499 1.68408 1.985697 1.08082.779197 2.46327 1.131093 1.40758.377031 2.89057.377031 1.83488 0 3.21733-.427302 1.40758-.427302 2.33759-1.181364.95515-.779197 1.43272-1.834884.47757-1.055687.47757-2.287321 0-1.508124-.65352-2.46327-.62838-.98028-1.50812-1.558395-.87974-.578114-1.78462-.829468-.87974-.276489-1.38244-.377031-1.68408-.427302-2.73976-.703791-1.03055-.276489-1.6338-.552979-.57812-.276489-.7792-.603249-.20108-.326761-.20108-.854604 0-.578114.25135-.955145t.62838-.628385q.40217-.251354.87974-.351896.47758-.100542.95515-.100542.72893 0 1.33217.125677.62839.125677 1.10596.427302.47758.301625.75406.829469.30163.527843.3519 1.332176h3.82058q0-1.558395-.60325-2.639217-.57811-1.105958-1.58353-1.809749-1.00541-.703791-2.31246-1.005416-1.2819-.32676-2.68948-.32676-1.2065 0-2.413.32676t-2.16165 1.005416q-.95514.678656-1.55839 1.709207-.57812 1.005416-.57812 2.387863 0 1.231635.45244 2.111374.47757.854603 1.23164 1.432718.75406.578114 1.7092.955145.95515.351896 1.96056.60325.98029.276489 1.93543.502708.95515.226218 1.70921.527843.75406.301625 1.2065.754062.47757.452437.47757 1.181364 0 .678656-.3519 1.131093-.35189.427302-.87973.678656-.52785.251354-1.1311.351895-.60325.07541-1.13109.07541-.7792 0-1.50812-.175947-.72893-.201084-1.28191-.578115-.52784-.402166-.8546-1.030551-.32676-.628385-.32676-1.533259zM218.48127 99.882637l5.42925-14.603668h-3.6949l-2.8403 8.897932h-.0503l-2.94084-8.897932h-3.79544l4.5495 12.19067q.15082.377031.15082.804333 0 .578114-.3519 1.055686-.32676.477573-1.03055.552979-.52784.02514-1.05569-.02514-.52784-.05027-1.03055-.100542v2.940835q.55298.0503 1.08082.0754.55298.0503 1.10596.0503 1.83489 0 2.86544-.67866 1.03055-.67865 1.60866-2.262178zM227.89528 94.051224H224.502q.0503 1.307041.57811 2.18678.55298.854604 1.38245 1.382447.85461.527844 1.93543.754062 1.08082.226219 2.21191.226219 1.10596 0 2.16165-.226219 1.08082-.201083 1.91029-.728926.82947-.527844 1.33217-1.382448.52785-.879739.52785-2.161644 0-.904874-.3519-1.508124-.35189-.628385-.93001-1.030551-.57811-.427302-1.33217-.678656-.72893-.251354-1.50813-.427302-.75406-.175948-1.48299-.32676-.72892-.150813-1.30704-.326761-.55298-.201083-.90487-.502708-.3519-.301624-.3519-.779197 0-.402166.20109-.628385.20108-.251354.47757-.377031.30162-.125677.65352-.150812.35189-.05027.65352-.05027.95514 0 1.65894.377031.70379.351895.77919 1.382447h3.39328q-.10054-1.206499-.62838-1.985697-.50271-.804333-1.28191-1.281905-.7792-.477573-1.78461-.678656-.98028-.201083-2.03597-.201083-1.05569 0-2.0611.201083-1.00542.175948-1.80975.65352-.80433.452438-1.30704 1.25677-.47757.804333-.47757 2.061103 0 .854604.35189 1.457854.3519.578114.93001.98028.57811.377031 1.30704.628385.75406.226219 1.53326.402167 1.91029.402166 2.96598.804332 1.08082.402167 1.08082 1.2065 0 .477572-.22622.804332-.22622.301625-.57811.502708-.32676.175948-.75406.27649-.40217.07541-.7792.07541-.52785 0-1.03055-.125677-.47758-.125677-.85461-.377031-.37703-.276489-.62838-.678656-.22622-.427302-.22622-1.005416zM243.15522 85.278969v-3.895987h-3.56923v3.895987h-2.16165v2.387863h2.16165v7.666298q0 .98028.32676 1.58353.32676.60325.87974.93001.57811.32676 1.30704.427302.75406.125677 1.58353.125677.52784 0 1.08082-.02514.55298-.02513 1.00542-.100541v-2.764895q-.25136.05027-.52785.07541-.27649.02513-.57811.02513-.90488 0-1.2065-.301625-.30162-.301625-.30162-1.206499v-6.434663h2.61408v-2.387863zM256.21462 90.381456h-5.80628q.0251-.377031.15081-.854604.15081-.477573.47757-.904874.3519-.427302.90488-.703792.57811-.301624 1.43272-.301624 1.30704 0 1.93542.703791.65352.703791.90488 2.061103zm-5.80628 2.262186h9.3755q.10055-1.508124-.25135-2.890571t-1.15623-2.46327q-.7792-1.080822-2.01083-1.709207-1.23163-.65352-2.89057-.65352-1.48299 0-2.71462.527843-1.2065.527844-2.08624 1.457853-.87974.904875-1.35731 2.161645-.47758 1.25677-.47758 2.714623 0 1.508124.45244 2.764894.47757 1.25677 1.33218 2.161645.8546.904874 2.08623 1.407582 1.23164.477573 2.7649.477573 2.21191 0 3.77031-1.005416 1.55839-1.005416 2.31246-3.343009h-3.14193q-.17595.60325-.95514 1.156229-.7792.527843-1.86002.527843-1.50813 0-2.31246-.779197-.80433-.779198-.87974-2.51354zM262.00127 85.278969v12.995003h3.56922v-7.540621q0-.955145.27649-1.533259.27649-.60325.65352-.904875.40217-.32676.80434-.427301.4273-.125677.67865-.125677.85461 0 1.28191.301624.45243.27649.62838.754062.20109.477573.22622 1.055687.0251.552979.0251 1.131093v7.289267h3.56922v-7.238996q0-.603249.0754-1.181364.10054-.603249.3519-1.055687.27648-.477572.72892-.754062.47757-.301624 1.23164-.301624.75406 0 1.18136.251354.45244.251354.67866.678655.22622.427302.27649 1.005416.0503.578115.0503 1.231635v7.364673h3.56922v-8.696849q0-1.25677-.35189-2.136509-.3519-.904875-.98028-1.457853-.62839-.552979-1.50813-.804333-.87974-.251354-1.91029-.251354-1.35731 0-2.36272.65352-.98029.653521-1.5584 1.508124-.52784-1.206499-1.55839-1.684072-1.00542-.477572-2.23706-.477572-1.2819 0-2.28732.552979-.98028.552978-1.68407 1.558394h-.0503v-1.759478zM287.44457 94.051224h-3.39328q.0503 1.307041.57811 2.18678.55298.854604 1.38245 1.382447.8546.527844 1.93542.754062 1.08083.226219 2.21192.226219 1.10596 0 2.16164-.226219 1.08083-.201083 1.91029-.728926.82947-.527844 1.33218-1.382448.52784-.879739.52784-2.161644 0-.904874-.35189-1.508124-.3519-.628385-.93001-1.030551-.57812-.427302-1.33218-.678656-.72893-.251354-1.50812-.427302-.75406-.175948-1.48299-.32676-.72893-.150813-1.30704-.326761-.55298-.201083-.90488-.502708-.35189-.301624-.35189-.779197 0-.402166.20108-.628385.20108-.251354.47757-.377031.30163-.125677.65352-.150812.3519-.05027.65352-.05027.95515 0 1.65894.377031.70379.351895.7792 1.382447h3.39328q-.10054-1.206499-.62839-1.985697-.50271-.804333-1.2819-1.281905-.7792-.477573-1.78462-.678656-.98028-.201083-2.03596-.201083-1.05569 0-2.06111.201083-1.00541.175948-1.80975.65352-.80433.452438-1.30704 1.25677-.47757.804333-.47757 2.061103 0 .854604.3519 1.457854.35189.578114.93001.98028.57811.377031 1.30704.628385.75406.226219 1.53326.402167 1.91029.402166 2.96597.804332 1.08083.402167 1.08083 1.2065 0 .477572-.22622.804332-.22622.301625-.57812.502708-.32676.175948-.75406.27649-.40216.07541-.7792.07541-.52784 0-1.03055-.125677-.47757-.125677-.8546-.377031-.37703-.276489-.62839-.678656-.22621-.427302-.22621-1.005416z" style="font-weight:700;font-family:'Helvetica Neue';-inkscape-font-specification:'Helvetica Neue Bold';fill:#fff" transform="translate(105.82968 -34.168114)"/></g><g aria-label="Engineering Office" style="font-weight:700;font-size:25.1354px;line-height:1.25;font-family:'PT Sans';-inkscape-font-specification:'PT Sans Bold';text-align:center;letter-spacing:0;text-anchor:middle;display:inline;stroke-width:.264583"><path d="M78.918271 51.62562v17.946676h13.623387v-3.317873h-9.677129v-4.398695h8.696848v-3.066519h-8.696848v-3.845716h9.476046V51.62562ZM94.839976 56.577294v12.995002h3.569227v-6.811693q0-1.985697.653521-2.840301.65352-.879739 2.111376-.879739 1.2819 0 1.78461.804333.50271.779197.50271 2.387863v7.339537h3.56923v-7.993057q0-1.2065-.22622-2.18678-.20109-1.005416-.72893-1.684072-.52784-.703791-1.45785-1.080822-.90488-.402167-2.33759-.402167-1.1311 0-2.21192.527844-1.080822.502708-1.759478 1.633801h-.07541v-1.809749zM115.82175 66.505777q-.82947 0-1.38244-.351895-.55298-.351896-.90488-.904875-.32676-.552979-.47757-1.231634-.12568-.703792-.12568-1.407583 0-.728926.15081-1.382447.17595-.678656.52785-1.181364.37703-.527843.90487-.829468.55298-.301625 1.30704-.301625.87974 0 1.45786.32676.57811.326761.93001.879739.35189.552979.5027 1.281906.15082.703791.15082 1.508124 0 .703791-.20109 1.357312-.17594.628385-.55298 1.131093-.37703.502708-.95514.804332-.57812.301625-1.33218.301625zm6.43467 2.237051V56.577294h-3.39328v1.734343h-.0503q-.65352-1.131093-1.63381-1.608666-.95514-.477573-2.23705-.477573-1.35731 0-2.41299.527844-1.03056.527843-1.73435 1.432718-.70379.879739-1.08082 2.061102-.3519 1.156229-.3519 2.412999 0 1.332176.30163 2.538675.32676 1.181364 1.00542 2.086239.67865.879739 1.73434 1.407582 1.05569.502708 2.51354.502708 1.18136 0 2.23705-.477572 1.08082-.502708 1.65894-1.53326h.0503v1.709207q.0251 1.382447-.67866 2.287322-.67866.904874-2.18678.904874-.95514 0-1.68407-.402166-.72893-.377031-.98028-1.382447h-3.54409q.0754 1.105957.60325 1.885155.55297.804333 1.35731 1.307041.82947.502708 1.80975.728926 1.00541.251354 1.96056.251354 2.23705 0 3.56922-.603249 1.33218-.60325 2.03597-1.482989.70379-.854604.90488-1.86002.22622-1.005416.22622-1.784613zM128.79987 54.566462V51.62562h-3.56923v2.940842zm-3.56923 2.010832v12.995002h3.56923V56.577294ZM131.61032 56.577294v12.995002h3.56922v-6.811693q0-1.985697.65352-2.840301.65352-.879739 2.11138-.879739 1.2819 0 1.78461.804333.50271.779197.50271 2.387863v7.339537h3.56923v-7.993057q0-1.2065-.22622-2.18678-.20109-1.005416-.72893-1.684072-.52784-.703791-1.45785-1.080822-.90488-.402167-2.33759-.402167-1.1311 0-2.21192.527844-1.08082.502708-1.75948 1.633801h-.0754v-1.809749zM155.28158 61.67978h-5.80627q.0251-.377031.15081-.854603.15081-.477573.47757-.904875.3519-.427302.90488-.703791.57811-.301625 1.43271-.301625 1.30704 0 1.93543.703791.65352.703792.90487 2.061103zm-5.80627 2.262186h9.3755q.10054-1.508124-.25135-2.890571-.3519-1.382447-1.15623-2.463269-.7792-1.080822-2.01083-1.709207-1.23164-.653521-2.89057-.653521-1.48299 0-2.71463.527844-1.2065.527843-2.08624 1.457853-.87973.904874-1.35731 2.161644-.47757 1.25677-.47757 2.714624 0 1.508124.45244 2.764894.47757 1.25677 1.33217 2.161644.85461.904875 2.08624 1.407583 1.23164.477572 2.7649.477572 2.21191 0 3.77031-1.005416 1.55839-1.005416 2.31245-3.343008h-3.14192q-.17595.60325-.95515 1.156228-.7792.527844-1.86002.527844-1.50812 0-2.31245-.779198-.80434-.779197-.87974-2.51354zM169.7148 61.67978h-5.80628q.0251-.377031.15081-.854603.15081-.477573.47757-.904875.3519-.427302.90488-.703791.57811-.301625 1.43272-.301625 1.30704 0 1.93542.703791.65352.703792.90488 2.061103zm-5.80628 2.262186h9.3755q.10055-1.508124-.25135-2.890571t-1.15623-2.463269q-.7792-1.080822-2.01083-1.709207-1.23164-.653521-2.89057-.653521-1.48299 0-2.71463.527844-1.20649.527843-2.08623 1.457853-.87974.904874-1.35732 2.161644-.47757 1.25677-.47757 2.714624 0 1.508124.45244 2.764894.47757 1.25677 1.33218 2.161644.8546.904875 2.08623 1.407583 1.23164.477572 2.7649.477572 2.21191 0 3.77031-1.005416 1.55839-1.005416 2.31245-3.343008h-3.14192q-.17595.60325-.95515 1.156228-.77919.527844-1.86001.527844-1.50813 0-2.31246-.779198-.80433-.779197-.87974-2.51354zM175.4009 56.577294v12.995002h3.56922v-5.856548q0-.879739.17595-1.633801t.57812-1.307041q.4273-.578114 1.10595-.904875.67866-.32676 1.65894-.32676.32676 0 .67866.05027.35189.02513.60325.07541v-3.317873q-.42731-.125677-.7792-.125677-.67866 0-1.30704.201084-.62839.201083-1.18137.578114-.55298.351895-.98028.879739-.4273.502708-.67865 1.105957h-.0503v-2.412998zM188.84009 54.566462V51.62562h-3.56923v2.940842zm-3.56923 2.010832v12.995002h3.56923V56.577294ZM191.65054 56.577294v12.995002h3.56923v-6.811693q0-1.985697.65352-2.840301.65352-.879739 2.11137-.879739 1.2819 0 1.78461.804333.50271.779197.50271 2.387863v7.339537h3.56923v-7.993057q0-1.2065-.22622-2.18678-.20108-1.005416-.72893-1.684072-.52784-.703791-1.45785-1.080822-.90487-.402167-2.33759-.402167-1.1311 0-2.21192.527844-1.08082.502708-1.75948 1.633801h-.0754v-1.809749zM212.63232 66.505777q-.82947 0-1.38245-.351895-.55298-.351896-.90487-.904875-.32676-.552979-.47758-1.231634-.12567-.703792-.12567-1.407583 0-.728926.15081-1.382447.17595-.678656.52784-1.181364.37703-.527843.90488-.829468.55298-.301625 1.30704-.301625.87974 0 1.45785.32676.57812.326761.93001.879739.3519.552979.50271 1.281906.15081.703791.15081 1.508124 0 .703791-.20108 1.357312-.17595.628385-.55298 1.131093-.37703.502708-.95515.804332-.57811.301625-1.33217.301625zm6.43466 2.237051V56.577294h-3.39328v1.734343h-.0503q-.65352-1.131093-1.6338-1.608666-.95514-.477573-2.23705-.477573-1.35731 0-2.413.527844-1.03055.527843-1.73434 1.432718-.70379.879739-1.08082 2.061102-.3519 1.156229-.3519 2.412999 0 1.332176.30163 2.538675.32676 1.181364 1.00541 2.086239.67866.879739 1.73434 1.407582 1.05569.502708 2.51354.502708 1.18137 0 2.23705-.477572 1.08083-.502708 1.65894-1.53326h.0503v1.709207q.0251 1.382447-.67865 2.287322-.67866.904874-2.18678.904874-.95515 0-1.68408-.402166-.72892-.377031-.98028-1.382447h-3.54409q.0754 1.105957.60325 1.885155.55298.804333 1.35731 1.307041.82947.502708 1.80975.728926 1.00542.251354 1.96056.251354 2.23705 0 3.56923-.603249 1.33218-.60325 2.03597-1.482989.70379-.854604.90487-1.86002.22622-1.005416.22622-1.784613zM232.45591 60.674364q0-1.181364.25135-2.287321.27649-1.105958.8546-1.960561.57812-.879739 1.50813-1.382448.93001-.527843 2.26218-.527843 1.33218 0 2.26219.527843.93001.502709 1.50812 1.382448.57812.854603.82947 1.960561.27649 1.105957.27649 2.287321 0 1.131093-.27649 2.211916-.25135 1.055686-.82947 1.91029-.57811.854604-1.50812 1.382447-.93001.502708-2.26219.502708-1.33217 0-2.26218-.502708-.93001-.527843-1.50813-1.382447-.57811-.854604-.8546-1.91029-.25135-1.080823-.25135-2.211916zm-3.94626 0q0 1.960562.60325 3.669769.60325 1.684072 1.73434 2.940842t2.76489 1.985696q1.65894.703792 3.72004.703792 2.08624 0 3.72004-.703792 1.6338-.728926 2.7649-1.985696 1.13109-1.25677 1.73434-2.940842.60325-1.709207.60325-3.669769 0-2.010832-.60325-3.720039-.60325-1.734343-1.73434-3.016248-1.1311-1.281906-2.7649-2.010832-1.6338-.728927-3.72004-.728927-2.0611 0-3.72004.728927-1.6338.728926-2.76489 2.010832-1.13109 1.281905-1.73434 3.016248-.60325 1.709207-.60325 3.720039zM256.84587 58.965157h-4.0468v10.607139h-3.56922V58.965157h-2.13651v-2.387863h2.13651v-1.005416q0-1.734343 1.08082-2.8403 1.08082-1.105958 3.2676-1.105958.47757 0 .95515.05027.47757.02513.93001.05027v2.664352q-.65353-.07541-1.30705-.07541-.72892 0-1.05568.351895-.30163.326761-.30163 1.131094v.779197h4.0468v-1.005416q0-1.734343 1.08082-2.8403 1.08083-1.105958 3.26761-1.105958.47757 0 .95514.05027.47757.02513.93001.05027v2.664352q-.65352-.07541-1.30704-.07541-.72893 0-1.05569.351895-.30162.326761-.30162 1.131094v.779197h2.46327v2.387863h-2.46327v10.607139h-3.56923zm11.26066-4.398695h-3.56923V51.62562h3.56923zm-3.56923 2.010832h3.56923v12.995002h-3.56923zM279.78271 61.151937h3.49383q-.0754-1.25677-.60325-2.161645-.52785-.930009-1.38245-1.533259-.82947-.628385-1.91029-.93001-1.05569-.301625-2.21192-.301625-1.58353 0-2.81516.527844-1.23164.527843-2.08624 1.482988-.8546.93001-1.30704 2.237051-.4273 1.281906-.4273 2.79003 0 1.457853.47757 2.689487.47757 1.2065 1.33218 2.086239.8546.879739 2.0611 1.382447 1.23163.477572 2.68949.477572 2.58894 0 4.24788-1.357311 1.65894-1.357312 2.01083-3.946258h-3.44355q-.17595 1.206499-.87974 1.935426-.67865.703791-1.96056.703791-.82947 0-1.40758-.377031t-.93001-.955145q-.32676-.60325-.47757-1.332177-.15082-.728926-.15082-1.432717 0-.728927.15082-1.457854.15081-.754062.5027-1.357311.37704-.628385.95515-1.005416.57811-.402167 1.43272-.402167 2.28732 0 2.63921 2.237051zM294.1154 61.67978h-5.80628q.0251-.377031.15082-.854603.15081-.477573.47757-.904875.35189-.427302.90487-.703791.57812-.301625 1.43272-.301625 1.30704 0 1.93543.703791.65352.703792.90487 2.061103zm-5.80628 2.262186h9.37551q.10054-1.508124-.25136-2.890571-.35189-1.382447-1.15622-2.463269-.7792-1.080822-2.01084-1.709207-1.23163-.653521-2.89057-.653521-1.48299 0-2.71462.527844-1.2065.527843-2.08624 1.457853-.87974.904874-1.35731 2.161644-.47757 1.25677-.47757 2.714624 0 1.508124.45243 2.764894.47758 1.25677 1.33218 2.161644.8546.904875 2.08624 1.407583 1.23163.477572 2.76489.477572 2.21192 0 3.77031-1.005416 1.5584-1.005416 2.31246-3.343008h-3.14193q-.17594.60325-.95514 1.156228-.7792.527844-1.86002.527844-1.50812 0-2.31246-.779198-.80433-.779197-.87974-2.51354z" style="font-family:'Helvetica Neue';-inkscape-font-specification:'Helvetica Neue Bold';fill:#fff" transform="translate(105.82968 -34.168114)"/></g></g></svg>