<svg width="164.34" height="16.524035" viewBox="0 0 43.481624 4.3719841" xmlns="http://www.w3.org/2000/svg"><defs><path id="a" d="M-57.243935-5.2039943h333.05563v81.529243h-333.05563z"/></defs><g style="display:inline"><path d="M76.266951 40.190394v-1.042987h-.32385v1.042987h-1.038224v.32385h1.038224v1.042988h.32385v-1.042988h1.038225v-.32385zM79.146403 40.409469h-1.133475l1.12395-1.652587h.0095zm.381 0V38.18062h-.32385l-1.538287 2.195512v.390525h1.481137v.790575h.381v-.790575h.4572v-.357188zM80.821092 40.742844h-.404813q.0381.43815.319088.652463.280987.214312.70485.214312.614362 0 .890587-.466725.280988-.471487.280988-1.347787 0-.481013-.09525-.790575-.09049-.314325-.24765-.4953-.157163-.180975-.366713-.252412-.20955-.0762-.447675-.0762-.242887 0-.447675.08096-.204787.08096-.352425.2286-.147637.142875-.2286.347663-.08096.200025-.08096.442912 0 .24765.06668.4572.07144.20955.204787.357187.138113.147638.338138.233363.200025.08096.4572.08096.24765 0 .4572-.123825.20955-.128587.32385-.3429l.0095.0095q-.01905.661988-.204788.985838-.185737.319087-.557212.319087-.242888 0-.4191-.13335-.176213-.13335-.200025-.381zm1.309687-1.433512q0 .147637-.04763.28575-.04762.13335-.138112.238125-.09049.100012-.219075.161925-.128588.05715-.28575.05715-.147638 0-.271463-.05715-.119062-.06191-.20955-.161925-.08572-.100013-.138112-.2286-.04762-.128588-.04762-.2667 0-.157163.03334-.300037.0381-.142875.1143-.252413.08096-.1143.204788-.180975.128587-.06667.309562-.06667.17145 0 .300038.06191.128587.06191.214312.17145.09049.104775.13335.242887.04763.138112.04763.295275zM86.57888 38.585432v-.347662h-2.185988v.381h1.77165q-.2667.280987-.500062.614362-.2286.333375-.404813.709612-.176212.371475-.290512.78105-.109538.404813-.138113.833438h.452438q.02381-.395288.13335-.814388.109537-.4191.280987-.814387.176213-.395288.40005-.74295.223838-.347662.481013-.600075zM88.777443 39.042632h.404813q-.0381-.4191-.28575-.638175-.24765-.223837-.66675-.223837-.36195 0-.600075.1524-.238125.1524-.381.404812-.142875.252413-.204788.581025-.05715.32385-.05715.671512 0 .2667.0381.55245.04286.28575.166688.523875.123825.238125.352425.390525.2286.1524.604837.1524.319088 0 .5334-.104775.219075-.109537.347663-.271462.13335-.166688.1905-.366713.05715-.200025.05715-.385762 0-.233363-.07144-.433388t-.204787-.347662q-.128588-.147638-.32385-.2286-.1905-.08573-.433388-.08573-.276225 0-.490537.104775-.20955.104775-.352425.338137l-.0095-.0095q.0048-.195262.0381-.4191.03334-.223837.119062-.414337.09049-.195262.24765-.319087.157163-.128588.414338-.128588.242887 0 .390525.138113.147637.138112.176212.366712zm-.6096.700087q.17145 0 .300038.06191.128587.06191.214312.166687.08572.100013.123825.242888.04286.138112.04286.295275 0 .147637-.04763.28575-.04286.13335-.128588.238125-.08572.104775-.214312.166687-.123825.05715-.290513.05715-.166687 0-.300037-.05715-.128588-.06191-.219075-.161925-.08572-.100012-.13335-.238125-.04763-.138112-.04763-.295275 0-.157162.04286-.295275.04763-.142875.138113-.242887.09049-.104775.219075-.161925.128587-.06191.300037-.06191zM91.152219 41.557232V38.18062h-.309562q-.03334.1905-.123825.314325-.09049.123825-.223838.195262-.128587.07144-.290512.100013-.161925.02381-.333375.02381v.32385h.8763v2.41935zM95.666996 38.594957v-.357187h-1.666875l-.314325 1.752599.347662.01905q.119063-.142875.271463-.2286.157162-.09049.357187-.09049.17145 0 .309563.05715.142875.05715.242887.161925.100013.100012.1524.242887.05715.138113.05715.3048 0 .200025-.05715.352425-.05715.147638-.157162.24765-.09525.100013-.2286.1524-.128588.04762-.271463.04762-.1524 0-.280987-.04286-.123825-.04762-.219075-.128588-.09049-.08572-.147638-.195262-.05239-.1143-.06191-.242888h-.404813q.0048.2286.09049.409575.08573.180975.233362.3048.147638.119063.338138.185738.195262.06191.414337.06191.295275 0 .51435-.09049.223838-.09525.371475-.252413.147638-.157162.219075-.357187.0762-.204788.0762-.4191 0-.290513-.08572-.504825-.08573-.219075-.233362-.36195-.147638-.147638-.347663-.219075-.200025-.07144-.423862-.07144-.17145 0-.347663.06191-.17145.05715-.280987.180975l-.0095-.0095.180975-.97155zM97.775072 41.557232V38.18062h-.309563q-.03334.1905-.123825.314325-.09049.123825-.223837.195262-.128588.07144-.290513.100013-.161925.02381-.333375.02381v.32385h.8763v2.41935zM100.34511 40.409469h-1.133475l1.123955-1.652587h.01zm.381 0V38.18062h-.32385l-1.538287 2.195512v.390525h1.481137v.790575h.381v-.790575h.4572v-.357188zM103.3533 39.042632h.40481q-.0381-.4191-.28575-.638175-.24765-.223837-.66675-.223837-.36195 0-.60007.1524-.23813.1524-.381.404812-.14288.252413-.20479.581025-.0571.32385-.0571.671512 0 .2667.0381.55245.0429.28575.16669.523875.12382.238125.35242.390525.2286.1524.60484.1524.31909 0 .5334-.104775.21907-.109537.34766-.271462.13335-.166688.1905-.366713.0571-.200025.0571-.385762 0-.233363-.0714-.433388t-.20478-.347662q-.12859-.147638-.32385-.2286-.1905-.08573-.43339-.08573-.27623 0-.49054.104775-.20955.104775-.35242.338137l-.01-.0095q.005-.195262.0381-.4191.0333-.223837.11906-.414337.0905-.195262.24765-.319087.15717-.128588.41434-.128588.24289 0 .39053.138113.14763.138112.17621.366712zm-.6096.700087q.17145 0 .30004.06191.12858.06191.21431.166687.0857.100013.12382.242888.0429.138112.0429.295275 0 .147637-.0476.28575-.0429.13335-.12859.238125-.0857.104775-.21431.166687-.12382.05715-.29051.05715t-.30004-.05715q-.12859-.06191-.21907-.161925-.0857-.100012-.13335-.238125-.0476-.138112-.0476-.295275 0-.157162.0429-.295275.0476-.142875.13812-.242887.0905-.104775.21907-.161925.12859-.06191.30004-.06191zM107.59185 38.594957v-.357187h-1.66688l-.31432 1.752599.34766.01905q.11906-.142875.27146-.2286.15717-.09049.35719-.09049.17145 0 .30956.05715.14288.05715.24289.161925.10001.100012.1524.242887.0572.138113.0572.3048 0 .200025-.0572.352425-.0571.147638-.15716.24765-.0952.100013-.2286.1524-.12859.04762-.27146.04762-.1524 0-.28099-.04286-.12383-.04762-.21908-.128588-.0905-.08572-.14763-.195262-.0524-.1143-.0619-.242888h-.40481q.005.2286.0905.409575.0857.180975.23336.3048.14764.119063.33814.185738.19526.06191.41434.06191.29527 0 .51435-.09049.22383-.09525.37147-.252413.14764-.157162.21908-.357187.0762-.204788.0762-.4191 0-.290513-.0857-.504825-.0857-.219075-.23336-.36195-.14764-.147638-.34766-.219075-.20003-.07144-.42387-.07144-.17145 0-.34766.06191-.17145.05715-.28099.180975l-.01-.0095.18097-.97155zM108.63312 39.895119v-.271462q.005-.1524.0238-.300038.0238-.1524.0619-.295274.0429-.142875.11906-.24765.081-.109538.20003-.176213.11906-.06667.29051-.06667t.29051.06667q.11906.06668.19526.176213.081.104775.11907.24765.0429.142874.0619.295274.0238.147638.0238.300038.005.147637.005.271462 0 .1905-.0143.428625-.01.233363-.0762.442913-.0619.204787-.20479.347662-.14288.142875-.40005.142875-.25718 0-.40005-.142875-.14288-.142875-.20955-.347662-.0619-.20955-.0762-.442913-.01-.238125-.01-.428625zm-.42862.0048q0 .185737.01.385762.01.200025.0476.390525.0381.1905.10954.36195.0714.166688.19526.295275.12382.128588.30956.204788.1905.07144.45244.07144.2667 0 .45244-.07144.18573-.0762.30956-.204788.12382-.128587.19526-.295275.0714-.17145.10954-.36195.0381-.1905.0476-.390525.01-.200025.01-.385762 0-.185738-.01-.385763-.01-.200025-.0476-.390524-.0381-.1905-.10954-.36195-.0714-.17145-.19526-.300038-.12383-.128587-.31433-.204787-.18573-.0762-.44767-.0762t-.45244.0762q-.18574.0762-.30956.204787-.12383.128588-.19526.300038-.0714.17145-.10954.36195-.0381.190499-.0476.390524-.01.200025-.01.385763zM113.07959 38.585432v-.347662h-2.18599v.381h1.77165q-.2667.280987-.50006.614362-.2286.333375-.40482.709612-.17621.371475-.29051.78105-.10954.404813-.13811.833438h.45244q.0238-.395288.13335-.814388.10953-.4191.28098-.814387.17622-.395288.40005-.74295.22384-.347662.48102-.600075zM113.93513 39.895119v-.271462q.005-.1524.0238-.300038.0238-.1524.0619-.295274.0429-.142875.11906-.24765.081-.109538.20003-.176213.11906-.06667.29051-.06667t.29051.06667q.11907.06668.19527.176213.081.104775.11906.24765.0429.142874.0619.295274.0238.147638.0238.300038.005.147637.005.271462 0 .1905-.0143.428625-.01.233363-.0762.442913-.0619.204787-.20479.347662-.14287.142875-.40005.142875-.25717 0-.40005-.142875-.14287-.142875-.20955-.347662-.0619-.20955-.0762-.442913-.01-.238125-.01-.428625zm-.42863.0048q0 .185737.01.385762.01.200025.0476.390525.0381.1905.10954.36195.0714.166688.19526.295275.12383.128588.30956.204788.1905.07144.45244.07144.2667 0 .45244-.07144.18574-.0762.30956-.204788.12383-.128587.19526-.295275.0714-.17145.10954-.36195.0381-.1905.0476-.390525.01-.200025.01-.385762 0-.185738-.01-.385763-.01-.200025-.0476-.390524-.0381-.1905-.10954-.36195-.0714-.17145-.19526-.300038-.12382-.128587-.31432-.204787-.18574-.0762-.44768-.0762-.26194 0-.45244.0762-.18573.0762-.30956.204787-.12382.128588-.19526.300038-.0714.17145-.10954.36195-.0381.190499-.0476.390524-.01.200025-.01.385763z" style="font-size:4.7625px;line-height:1.25;font-family:'Helvetica Neue';-inkscape-font-specification:'Helvetica Neue';text-align:center;letter-spacing:0;text-anchor:middle;fill:#0070c9;stroke-width:.264583" transform="translate(-74.904877 -38.18062)"/></g></svg>