<svg width="350" height="33.407997" viewBox="0 0 92.604166 8.8391992" xmlns="http://www.w3.org/2000/svg"><defs><path id="a" d="M-57.243935-5.2039943h333.05563v81.529243h-333.05563z"/></defs><g style="display:inline"><g aria-label="+49 (0)761 5146 5070" style="font-size:9.525px;line-height:1.25;font-family:'PT Sans';-inkscape-font-specification:'PT Sans';text-align:center;letter-spacing:0;text-anchor:middle;display:inline;fill:#0070c9;stroke-width:.264583"><path d="M67.637309 49.678637v-2.085975h-.6477v2.085975h-2.07645v.6477h2.07645v2.085975h.6477v-2.085975h2.07645v-.6477zM73.396213 50.116787h-2.26695l2.2479-3.305175h.01905zm.762 0v-4.4577h-.6477l-3.076575 4.391025v.78105h2.962275v1.58115h.762v-1.58115h.9144v-.714375zM76.74559 50.783537h-.809625q.0762.8763.638175 1.304925.561975.428625 1.4097.428625 1.228725 0 1.781175-.93345.561975-.942975.561975-2.695575 0-.962025-.1905-1.58115-.180975-.62865-.4953-.9906t-.733425-.504825q-.4191-.1524-.89535-.1524-.485775 0-.89535.161925-.409575.161925-.70485.4572-.295275.28575-.4572.695325-.161925.40005-.161925.885825 0 .4953.13335.9144.142875.4191.409575.714375.276225.295275.676275.466725.40005.161925.9144.161925.4953 0 .9144-.24765.4191-.257175.6477-.6858l.01905.01905q-.0381 1.323975-.409575 1.971675-.371475.638175-1.114425.638175-.485775 0-.8382-.2667-.352425-.2667-.40005-.762zm2.619375-2.867025q0 .295275-.09525.5715-.09525.2667-.276225.47625-.180975.200025-.43815.32385-.257175.1143-.5715.1143-.295275 0-.542925-.1143-.238125-.123825-.4191-.32385-.17145-.200025-.276225-.4572-.09525-.257175-.09525-.5334 0-.314325.06668-.600075.0762-.28575.2286-.504825.161925-.2286.409575-.36195.257175-.13335.619125-.13335.3429 0 .600075.123825.257175.123825.428625.3429.180975.20955.2667.485775.09525.276225.09525.59055zM85.35604 54.288736h.619125q-.676275-1.095374-.97155-2.171699-.28575-1.076325-.28575-2.276475 0-1.171575.28575-2.238375t.97155-2.15265h-.619125q-.742949.981075-1.123949 2.124075-.371475 1.143-.371475 2.26695 0 .62865.104775 1.20015t.295275 1.114425q.200025.542925.476249 1.0668.276225.5334.619125 1.066799zM87.144508 49.088087v-.542925q.0095-.3048.04762-.600075.04762-.3048.123825-.59055.08573-.28575.238125-.4953.161925-.219075.40005-.352425t.581025-.13335q.3429 0 .581025.13335.238125.13335.390525.352425.161925.20955.238125.4953.08572.28575.123825.59055.04763.295275.04763.600075.0095.295275.0095.542925 0 .381-.02858.85725-.01905.466725-.1524.885825-.123825.409575-.409575.695325-.28575.28575-.8001.28575-.51435 0-.8001-.28575-.28575-.28575-.4191-.695325-.123825-.4191-.1524-.885825-.01905-.47625-.01905-.85725zm-.85725.0095q0 .371475.01905.771525t.09525.78105q.0762.381.219075.7239.142875.333375.390525.59055.24765.257175.619125.409575.381.142875.904875.142875.5334 0 .904875-.142875.371475-.1524.619125-.409575.24765-.257175.390525-.59055.142875-.3429.219075-.7239.0762-.381.09525-.78105.01905-.40005.01905-.771525t-.01905-.771525q-.01905-.40005-.09525-.78105t-.219075-.7239q-.142875-.3429-.390525-.600075-.24765-.257175-.62865-.409575-.371475-.1524-.89535-.1524t-.904875.1524q-.371475.1524-.619125.409575-.24765.257175-.390525.600075-.142875.3429-.219075.7239-.0762.381-.09525.78105-.01905.40005-.01905.771525zM91.103485 54.288736h.6096q.74295-.981074 1.114425-2.114549.381-1.143.381-2.26695 0-.62865-.104775-1.20015t-.3048-1.114425q-.1905-.55245-.466725-1.076325-.276225-.5334-.619125-1.0668h-.6096q.66675 1.095375.9525 2.181225.295275 1.076325.295275 2.276475 0 1.16205-.28575 2.238375-.28575 1.0668-.962025 2.143124zM98.511703 46.468712v-.695325h-4.371975v.762h3.5433q-.5334.561975-1.000125 1.228725-.4572.66675-.809625 1.419225-.352425.74295-.581025 1.5621-.219075.809625-.276225 1.666875h.904875q.04763-.790575.2667-1.628775.219075-.8382.561975-1.628775.352425-.790575.8001-1.4859.447675-.695325.962025-1.20015zM102.90883 47.383112h.80963q-.0762-.8382-.5715-1.27635-.4953-.447675-1.3335-.447675-.7239 0-1.20015.3048-.47625.3048-.762005.809625-.28575.504825-.409575 1.16205-.1143.6477-.1143 1.343025 0 .5334.0762 1.1049.08572.5715.333375 1.04775.24765.47625.704855.78105.4572.3048 1.20967.3048.63818 0 1.0668-.20955.43815-.219075.69533-.542925.2667-.333375.381-.733425.1143-.40005.1143-.771525 0-.466725-.14288-.866775-.14287-.40005-.40957-.695325-.25718-.295275-.6477-.4572-.381-.17145-.86678-.17145-.55245 0-.98107.20955-.4191.20955-.70485.676275l-.019-.01905q.01-.390525.0762-.8382.0667-.447675.23812-.828675.18098-.390525.4953-.638175.31433-.257175.82868-.257175.48577 0 .78105.276225.29527.276225.35242.733425zm-1.2192 1.400175q.3429 0 .60008.123825.25717.123825.42862.333375.17145.200025.24765.485775.0857.276225.0857.59055 0 .295275-.0952.5715-.0857.2667-.25718.47625-.17145.20955-.42862.333375-.24765.1143-.58103.1143-.33337 0-.60007-.1143-.25718-.123825-.43815-.32385-.17145-.200025-.2667-.47625-.0952-.276225-.0952-.59055t.0857-.59055q.0952-.28575.27623-.485775.18097-.20955.43815-.32385.25717-.123825.60007-.123825zM107.65838 52.412312v-6.753225h-.61912q-.0667.381-.24765.62865-.18098.24765-.44768.390525-.25717.142875-.58102.200025-.32385.04762-.66675.04762v.6477h1.7526v4.8387zM116.68793 46.487762v-.714375h-3.33375l-.62865 3.5052.69533.0381q.23812-.28575.54292-.4572.31433-.180975.71438-.180975.3429 0 .61912.1143.28575.1143.48578.32385.20002.200025.3048.485775.1143.276225.1143.6096 0 .40005-.1143.70485-.1143.295275-.31433.4953-.1905.200025-.4572.3048-.25717.09525-.54292.09525-.3048 0-.56198-.08573-.24765-.09525-.43815-.257175-.18097-.17145-.29527-.390525-.10478-.2286-.12383-.485775h-.80962q.01.4572.18097.81915.17145.36195.46673.6096.29527.238125.67627.371475.39053.123825.82868.123825.59055 0 1.0287-.180975.44767-.1905.74295-.504825.29527-.314325.43815-.714375.1524-.409575.1524-.8382 0-.581025-.17145-1.00965-.17145-.43815-.46673-.7239-.29527-.295275-.69532-.43815-.40005-.142875-.84773-.142875-.3429 0-.69532.123825-.3429.1143-.56198.36195l-.019-.01905.36195-1.9431zM120.90408 52.412312v-6.753225h-.61912q-.0667.381-.24765.62865-.18098.24765-.44768.390525-.25717.142875-.58102.200025-.32385.04762-.66675.04762v.6477h1.7526v4.8387zM126.04416 50.116787h-2.26695l2.2479-3.305175h.0191zm.762 0v-4.4577h-.6477l-3.07657 4.391025v.78105h2.96227v1.58115h.762v-1.58115h.9144v-.714375zM132.06054 47.383112h.80962q-.0762-.8382-.5715-1.27635-.4953-.447675-1.3335-.447675-.7239 0-1.20015.3048-.47625.3048-.762.809625-.28575.504825-.40957 1.16205-.1143.6477-.1143 1.343025 0 .5334.0762 1.1049.0857.5715.33337 1.04775.24765.47625.70485.78105.4572.3048 1.20968.3048.63817 0 1.0668-.20955.43815-.219075.69532-.542925.2667-.333375.381-.733425.1143-.40005.1143-.771525 0-.466725-.14287-.866775-.14288-.40005-.40958-.695325-.25717-.295275-.6477-.4572-.381-.17145-.86677-.17145-.55245 0-.98108.20955-.4191.20955-.70485.676275l-.019-.01905q.01-.390525.0762-.8382.0667-.447675.23813-.828675.18097-.390525.4953-.638175.31432-.257175.82867-.257175.48578 0 .78105.276225.29528.276225.35243.733425zm-1.2192 1.400175q.3429 0 .60007.123825.25718.123825.42863.333375.17145.200025.24765.485775.0857.276225.0857.59055 0 .295275-.0952.5715-.0857.2667-.25717.47625-.17145.20955-.42863.333375-.24765.1143-.58102.1143-.33338 0-.60008-.1143-.25717-.123825-.43815-.32385-.17145-.200025-.2667-.47625-.0952-.276225-.0952-.59055t.0857-.59055q.0952-.28575.27622-.485775.18098-.20955.43815-.32385.25718-.123825.60008-.123825zM140.53764 46.487762v-.714375h-3.33375l-.62865 3.5052.69532.0381q.23813-.28575.54293-.4572.31432-.180975.71437-.180975.3429 0 .61913.1143.28575.1143.48577.32385.20003.200025.3048.485775.1143.276225.1143.6096 0 .40005-.1143.70485-.1143.295275-.31432.4953-.1905.200025-.4572.3048-.25718.09525-.54293.09525-.3048 0-.56197-.08573-.24765-.09525-.43815-.257175-.18098-.17145-.29528-.390525-.10477-.2286-.12382-.485775h-.80963q.01.4572.18098.81915.17145.36195.46672.6096.29528.238125.67628.371475.39052.123825.82867.123825.59055 0 1.0287-.180975.44768-.1905.74295-.504825.29528-.314325.43815-.714375.1524-.409575.1524-.8382 0-.581025-.17145-1.00965-.17145-.43815-.46672-.7239-.29528-.295275-.69533-.43815-.40005-.142875-.84772-.142875-.3429 0-.69533.123825-.3429.1143-.56197.36195l-.019-.01905.36195-1.9431zM142.62019 49.088087v-.542925q.01-.3048.0476-.600075.0476-.3048.12383-.59055.0857-.28575.23812-.4953.16193-.219075.40005-.352425.23813-.13335.58103-.13335.3429 0 .58102.13335.23813.13335.39053.352425.16192.20955.23812.4953.0857.28575.12383.59055.0476.295275.0476.600075.01.295275.01.542925 0 .381-.0286.85725-.019.466725-.1524.885825-.12382.409575-.40957.695325-.28575.28575-.8001.28575-.51435 0-.8001-.28575-.28575-.28575-.4191-.695325-.12383-.4191-.1524-.885825-.019-.47625-.019-.85725zm-.85725.0095q0 .371475.0191.771525.019.40005.0952.78105t.21907.7239q.14288.333375.39053.59055.24765.257175.61912.409575.381.142875.90488.142875.5334 0 .90487-.142875.37148-.1524.61913-.409575.24765-.257175.39052-.59055.14288-.3429.21908-.7239.0762-.381.0952-.78105.019-.40005.019-.771525t-.019-.771525q-.019-.40005-.0952-.78105t-.21908-.7239q-.14287-.3429-.39052-.600075-.24765-.257175-.62865-.409575-.37148-.1524-.89535-.1524-.52388 0-.90488.1524-.37147.1524-.61912.409575-.24765.257175-.39053.600075-.14287.3429-.21907.7239-.0762.381-.0952.78105-.0191.40005-.0191.771525zM151.51311 46.468712v-.695325h-4.37197v.762h3.5433q-.5334.561975-1.00013 1.228725-.4572.66675-.80962 1.419225-.35243.74295-.58103 1.5621-.21907.809625-.27622 1.666875h.90487q.0476-.790575.2667-1.628775.21908-.8382.56198-1.628775.35242-.790575.8001-1.4859.44767-.695325.96202-1.20015zM153.22419 49.088087v-.542925q.01-.3048.0476-.600075.0476-.3048.12382-.59055.0857-.28575.23813-.4953.16192-.219075.40005-.352425.23812-.13335.58102-.13335t.58103.13335q.23812.13335.39052.352425.16193.20955.23813.4953.0857.28575.12382.59055.0476.295275.0476.600075.01.295275.01.542925 0 .381-.0286.85725-.019.466725-.1524.885825-.12383.409575-.40958.695325-.28575.28575-.8001.28575-.51435 0-.8001-.28575-.28575-.28575-.4191-.695325-.12382-.4191-.1524-.885825-.019-.47625-.019-.85725zm-.85725.0095q0 .371475.019.771525.0191.40005.0953.78105.0762.381.21908.7239.14287.333375.39052.59055.24765.257175.61913.409575.381.142875.90487.142875.5334 0 .90488-.142875.37147-.1524.61912-.409575.24765-.257175.39053-.59055.14287-.3429.21907-.7239.0762-.381.0953-.78105.019-.40005.019-.771525t-.019-.771525q-.0191-.40005-.0953-.78105-.0762-.381-.21907-.7239-.14288-.3429-.39053-.600075-.24765-.257175-.62865-.409575-.37147-.1524-.89535-.1524-.52387 0-.90487.1524-.37148.1524-.61913.409575-.24765.257175-.39052.600075-.14288.3429-.21908.7239-.0762.381-.0953.78105-.019.40005-.019.771525z" style="font-family:'Helvetica Neue';-inkscape-font-specification:'Helvetica Neue'" transform="translate(-64.58586617 -45.449537)"/></g></g></svg>