<svg width="138.64372" height="16.524038" viewBox="0 0 36.682818 4.3719851" xmlns="http://www.w3.org/2000/svg"><defs><path id="a" d="M-57.243935-5.2039943h333.05563v81.529243h-333.05563z"/></defs><g style="display:inline"><path d="M85.649458 30.919366v-.271463q.0048-.1524.02381-.300037.02381-.1524.06191-.295275.04286-.142875.119062-.24765.08096-.109538.200025-.176213.119063-.06668.290513-.06668.17145 0 .290512.06668.119063.06668.195263.176213.08096.104775.119062.24765.04286.142875.06191.295275.02381.147637.02381.300037.0048.147638.0048.271463 0 .1905-.01429.428625-.0095.233362-.0762.442912-.06191.204788-.204787.347663-.142875.142875-.40005.142875-.257175 0-.40005-.142875-.142875-.142875-.20955-.347663-.06191-.20955-.0762-.442912-.0095-.238125-.0095-.428625zm-.428625.0048q0 .185738.0095.385763.0095.200025.04763.390525.0381.1905.109537.36195.07144.166687.195263.295275.123825.128587.309562.204787.1905.07144.452438.07144.2667 0 .452437-.07144.185738-.0762.309563-.204787.123825-.128588.195262-.295275.07144-.17145.109538-.36195.0381-.1905.04763-.390525.0095-.200025.0095-.385763 0-.185737-.0095-.385762-.0095-.200025-.04763-.390525-.0381-.1905-.109538-.36195-.07144-.17145-.195262-.300038-.123825-.128587-.314325-.204787-.185738-.0762-.447675-.0762-.261938 0-.452438.0762-.185737.0762-.309562.204787-.123825.128588-.195263.300038-.07144.17145-.109537.36195-.0381.1905-.04763.390525-.0095.200025-.0095.385762zM90.095921 29.609678v-.347662h-2.185987v.381h1.77165q-.2667.280987-.500063.614362-.2286.333375-.404812.709613-.176213.371475-.290513.78105-.109537.404812-.138112.833437h.452437q.02381-.395287.13335-.814387.109538-.4191.280988-.814388.176212-.395287.40005-.74295.223837-.347662.481012-.600075zM92.294485 30.066878h.404812q-.0381-.4191-.28575-.638175-.24765-.223837-.66675-.223837-.36195 0-.600075.1524-.238125.1524-.381.404812-.142875.252413-.204787.581025-.05715.32385-.05715.671513 0 .2667.0381.55245.04286.28575.166687.523875.123825.238125.352425.390525.2286.1524.604838.1524.319087 0 .5334-.104775.219074-.109538.347662-.271463.13335-.166687.1905-.366712.05715-.200025.05715-.385763 0-.233362-.07144-.433387t-.204787-.347663q-.128588-.147637-.32385-.2286-.1905-.08573-.433387-.08573-.276225 0-.490538.104775-.20955.104775-.352425.338138l-.0095-.0095q.0048-.195263.0381-.4191.03334-.223838.119063-.414338.09049-.195262.24765-.319087.157162-.128588.414337-.128588.242888 0 .390525.138113.147638.138112.176213.366712zm-.6096.700088q.17145 0 .300037.06191.128588.06191.214313.166688.08572.100012.123825.242887.04286.138113.04286.295275 0 .147638-.04762.28575-.04286.13335-.128587.238125-.08573.104775-.214313.166688-.123825.05715-.290512.05715-.166688 0-.300038-.05715-.128587-.06191-.219075-.161925-.08573-.100013-.13335-.238125-.04762-.138113-.04762-.295275 0-.157163.04286-.295275.04762-.142875.138112-.242888.09049-.104775.219075-.161925.128588-.06191.300038-.06191zM94.66926 32.581478v-3.376612h-.309562q-.03334.1905-.123825.314325-.09049.123825-.223837.195262-.128588.07144-.290513.100013-.161925.02381-.333375.02381v.32385h.8763v2.41935zM99.184036 29.619203v-.357187h-1.666875l-.314325 1.7526.347662.01905q.119063-.142875.271463-.2286.157162-.09049.357187-.09049.17145 0 .309563.05715.142875.05715.242887.161925.100013.100013.1524.242888.05715.138112.05715.3048 0 .200025-.05715.352425-.05715.147637-.157162.24765-.09525.100012-.2286.1524-.128588.04763-.271463.04763-.1524 0-.280987-.04286-.123825-.04762-.219075-.128587-.09049-.08573-.147638-.195263-.05239-.1143-.06191-.242887h-.404813q.0048.2286.09049.409575.08572.180975.233362.3048.147638.119062.338138.185737.195262.06191.414337.06191.295275 0 .51435-.09049.223838-.09525.371475-.252412.147638-.157163.219075-.357188.0762-.204787.0762-.4191 0-.290512-.08572-.504825-.08572-.219075-.233362-.36195-.147638-.147637-.347663-.219075-.200025-.07144-.423862-.07144-.17145 0-.347663.06191-.17145.05715-.280987.180975l-.0095-.0095.180975-.97155zM101.29211 32.581478v-3.376612h-.30956q-.0333.1905-.12383.314325-.0905.123825-.22383.195262-.12859.07144-.29052.100013-.16192.02381-.33337.02381v.32385h.8763v2.41935zM103.86215 31.433716h-1.13347l1.12395-1.652588h.01zm.381 0v-2.22885h-.32385l-1.53829 2.195512v.390525h1.48114v.790575h.381v-.790575h.4572v-.357187zM106.87034 30.066878h.40481q-.0381-.4191-.28575-.638175-.24765-.223837-.66675-.223837-.36195 0-.60007.1524-.23813.1524-.381.404812-.14288.252413-.20479.581025-.0572.32385-.0572.671513 0 .2667.0381.55245.0429.28575.16669.523875.12382.238125.35242.390525.2286.1524.60484.1524.31909 0 .5334-.104775.21907-.109538.34766-.271463.13335-.166687.1905-.366712.0572-.200025.0572-.385763 0-.233362-.0714-.433387t-.20478-.347663q-.12859-.147637-.32385-.2286-.1905-.08573-.43339-.08573-.27623 0-.49054.104775-.20955.104775-.35242.338138l-.01-.0095q.005-.195263.0381-.4191.0333-.223838.11906-.414338.0905-.195262.24765-.319087.15717-.128588.41434-.128588.24289 0 .39053.138113.14763.138112.17621.366712zm-.6096.700088q.17145 0 .30004.06191.12858.06191.21431.166688.0857.100012.12382.242887.0429.138113.0429.295275 0 .147638-.0476.28575-.0429.13335-.12859.238125-.0857.104775-.21431.166688-.12382.05715-.29051.05715t-.30004-.05715q-.12859-.06191-.21907-.161925-.0857-.100013-.13335-.238125-.0476-.138113-.0476-.295275 0-.157163.0429-.295275.0476-.142875.13812-.242888.0905-.104775.21907-.161925.12859-.06191.30004-.06191zM111.10889 29.619203v-.357187h-1.66688l-.31432 1.7526.34766.01905q.11906-.142875.27146-.2286.15717-.09049.35719-.09049.17145 0 .30956.05715.14288.05715.24289.161925.10001.100013.1524.242888.0571.138112.0571.3048 0 .200025-.0571.352425-.0572.147637-.15716.24765-.0953.100012-.2286.1524-.12859.04763-.27146.04763-.1524 0-.28099-.04286-.12383-.04762-.21908-.128587-.0905-.08573-.14763-.195263-.0524-.1143-.0619-.242887h-.40481q.005.2286.0905.409575.0857.180975.23336.3048.14764.119062.33814.185737.19526.06191.41434.06191.29527 0 .51435-.09049.22383-.09525.37147-.252412.14764-.157163.21908-.357188.0762-.204787.0762-.4191 0-.290512-.0857-.504825-.0857-.219075-.23336-.36195-.14764-.147637-.34766-.219075-.20003-.07144-.42387-.07144-.17145 0-.34766.06191-.17145.05715-.28099.180975l-.01-.0095.18097-.97155zM112.15017 30.919366v-.271463q.005-.1524.0238-.300037.0238-.1524.0619-.295275.0429-.142875.11906-.24765.081-.109538.20003-.176213.11906-.06668.29051-.06668t.29051.06668q.11907.06668.19527.176213.081.104775.11906.24765.0429.142875.0619.295275.0238.147637.0238.300037.005.147638.005.271463 0 .1905-.0143.428625-.01.233362-.0762.442912-.0619.204788-.20479.347663-.14287.142875-.40005.142875-.25717 0-.40005-.142875-.14287-.142875-.20955-.347663-.0619-.20955-.0762-.442912-.01-.238125-.01-.428625zm-.42863.0048q0 .185738.01.385763.01.200025.0476.390525.0381.1905.10954.36195.0714.166687.19526.295275.12383.128587.30956.204787.1905.07144.45244.07144.2667 0 .45244-.07144.18574-.0762.30956-.204787.12383-.128588.19526-.295275.0714-.17145.10954-.36195.0381-.1905.0476-.390525.01-.200025.01-.385763 0-.185737-.01-.385762-.01-.200025-.0476-.390525-.0381-.1905-.10954-.36195-.0714-.17145-.19526-.300038-.12382-.128587-.31432-.204787-.18574-.0762-.44768-.0762-.26194 0-.45244.0762-.18573.0762-.30956.204787-.12382.128588-.19526.300038-.0714.17145-.10954.36195-.0381.1905-.0476.390525-.01.200025-.01.385762zM116.59663 29.609678v-.347662h-2.18599v.381h1.77165q-.2667.280987-.50006.614362-.2286.333375-.40481.709613-.17622.371475-.29052.78105-.10953.404812-.13811.833437h.45244q.0238-.395287.13335-.814387.10954-.4191.28099-.814388.17621-.395287.40005-.74295.22383-.347662.48101-.600075zM117.45217 30.919366v-.271463q.005-.1524.0238-.300037.0238-.1524.0619-.295275.0429-.142875.11906-.24765.081-.109538.20003-.176213.11906-.06668.29051-.06668t.29051.06668q.11907.06668.19527.176213.081.104775.11906.24765.0429.142875.0619.295275.0238.147637.0238.300037.005.147638.005.271463 0 .1905-.0143.428625-.01.233362-.0762.442912-.0619.204788-.20479.347663-.14287.142875-.40005.142875-.25717 0-.40005-.142875-.14287-.142875-.20955-.347663-.0619-.20955-.0762-.442912-.01-.238125-.01-.428625zm-.42863.0048q0 .185738.01.385763.01.200025.0476.390525.0381.1905.10954.36195.0714.166687.19526.295275.12383.128587.30956.204787.1905.07144.45244.07144.2667 0 .45244-.07144.18574-.0762.30956-.204787.12383-.128588.19526-.295275.0714-.17145.10954-.36195.0381-.1905.0476-.390525.01-.200025.01-.385763 0-.185737-.01-.385762-.01-.200025-.0476-.390525-.0381-.1905-.10954-.36195-.0714-.17145-.19526-.300038-.12382-.128587-.31432-.204787-.18574-.0762-.44768-.0762-.26194 0-.45244.0762-.18573.0762-.30956.204787-.12382.128588-.19526.300038-.0714.17145-.10954.36195-.0381.1905-.0476.390525-.01.200025-.01.385762z" style="font-size:4.7625px;line-height:1.25;font-family:'Helvetica Neue';-inkscape-font-specification:'Helvetica Neue';text-align:center;letter-spacing:0;text-anchor:middle;fill:#0070c9;stroke-width:.264583" transform="translate(-85.220833 -29.204866)"/></g></svg>