<svg width="173.7664" height="16.703997" viewBox="0 0 45.975694 4.4195991" xmlns="http://www.w3.org/2000/svg"><defs><path id="a" d="M-57.243935-5.2039943h333.05563v81.529243h-333.05563z"/></defs><g style="display:inline"><g aria-label="+49 (0)761 5146 5070" style="font-size:4.7625px;line-height:1.25;font-family:'PT Sans';-inkscape-font-specification:'PT Sans';text-align:center;letter-spacing:0;text-anchor:middle;display:inline;fill:#0070c9;stroke-width:.264583"><path d="M71.688482 50.079043v-1.042987h-.32385v1.042987h-1.038225v.32385h1.038225v1.042988h.32385v-1.042988h1.038225v-.32385zM74.567934 50.298118h-1.133475l1.12395-1.652587h.0095zm.381 0v-2.228849h-.32385l-1.538288 2.195512v.390525h1.481138v.790575h.381v-.790575h.4572v-.357188zM76.242622 50.631493h-.404812q.0381.43815.319087.652463.280988.214312.70485.214312.614363 0 .890588-.466725.280987-.471487.280987-1.347787 0-.481013-.09525-.790575-.09049-.314325-.24765-.4953-.157162-.180975-.366712-.252412-.20955-.0762-.447675-.0762-.242888 0-.447675.08096-.204788.08096-.352425.2286-.147638.142875-.2286.347662-.08096.200025-.08096.442913 0 .24765.06667.4572.07144.20955.204788.357187.138112.147638.338137.233363.200025.08096.4572.08096.24765 0 .4572-.123825.20955-.128587.32385-.3429l.0095.0095q-.01905.661988-.204787.985838-.185738.319087-.557213.319087-.242887 0-.4191-.13335-.176212-.13335-.200025-.381zm1.309688-1.433512q0 .147637-.04763.28575-.04762.13335-.138113.238125-.09049.100012-.219075.161925-.128587.05715-.28575.05715-.147637 0-.271462-.05715-.119063-.06191-.20955-.161925-.08572-.100013-.138113-.2286-.04762-.128588-.04762-.2667 0-.157163.03334-.300038.0381-.142875.1143-.252412.08096-.1143.204787-.180975.128588-.06667.309563-.06667.17145 0 .300037.06191.128588.06191.214313.17145.09049.104774.13335.242887.04763.138112.04763.295275zM80.547848 52.384093h.309562q-.338137-.547687-.485775-1.08585-.142875-.538162-.142875-1.138237 0-.585788.142875-1.119188.142875-.533399.485775-1.076324h-.309562q-.371475.490537-.561975 1.062037-.185738.5715-.185738 1.133475 0 .314325.05239.600075t.147637.557212q.100013.271463.238125.5334.138113.2667.309563.5334zM81.442081 49.783768v-.271462q.0048-.1524.02381-.300038.02381-.1524.06191-.295275.04286-.142875.119063-.247649.08096-.109538.200025-.176213.119062-.06667.290512-.06667t.290513.06667q.119062.06668.195262.176213.08096.104774.119063.247649.04286.142875.06191.295275.02381.147638.02381.300038.0048.147637.0048.271462 0 .1905-.01429.428625-.0095.233363-.0762.442913-.06191.204787-.204788.347662-.142875.142875-.40005.142875-.257175 0-.40005-.142875-.142875-.142875-.20955-.347662-.06191-.20955-.0762-.442913-.0095-.238125-.0095-.428625zm-.428624.0048q0 .185737.0095.385762.0095.200025.04762.390525.0381.1905.109537.36195.07144.166688.195263.295275.123824.128588.309562.204788.1905.07144.452437.07144.2667 0 .452438-.07144.185737-.0762.309562-.204788.123825-.128587.195263-.295275.07144-.17145.109537-.36195.0381-.1905.04762-.390525.0095-.200025.0095-.385762 0-.185738-.0095-.385763-.0095-.200025-.04762-.390525-.0381-.1905-.109537-.361949-.07144-.17145-.195263-.300038-.123825-.128587-.314325-.204787-.185737-.0762-.447675-.0762-.261937 0-.452437.0762-.185738.0762-.309562.204787-.123825.128588-.195263.300038-.07144.171449-.109537.361949-.0381.1905-.04762.390525-.0095.200025-.0095.385763zM83.42157 52.384093h.3048q.371475-.490537.557212-1.057275.1905-.5715.1905-1.133475 0-.314325-.05239-.600075t-.1524-.557212q-.09525-.276225-.233363-.538162-.138112-.2667-.309562-.5334h-.3048q.333375.547687.47625 1.090612.147637.538162.147637 1.138237 0 .581025-.142875 1.119188-.142875.5334-.481012 1.071562zM87.125679 48.474081v-.347662h-2.185988v.381h1.77165q-.2667.280987-.500062.614362-.2286.333375-.404813.709612-.176212.371475-.290512.78105-.109538.404813-.138113.833438h.452438q.02381-.395288.13335-.814388.109537-.4191.280987-.814387.176213-.395288.40005-.74295.223838-.347663.481013-.600075zM89.324242 48.931281h.404813q-.0381-.4191-.28575-.638175-.24765-.223837-.66675-.223837-.36195 0-.600075.1524-.238125.1524-.381.404812-.142875.252412-.204788.581025-.05715.32385-.05715.671512 0 .2667.0381.55245.04286.28575.166688.523875.123825.238125.352425.390525.2286.1524.604837.1524.319088 0 .5334-.104775.219075-.109537.347663-.271462.13335-.166688.1905-.366713.05715-.200025.05715-.385762 0-.233363-.07144-.433388t-.204787-.347662q-.128588-.147638-.32385-.2286-.1905-.08573-.433388-.08573-.276225 0-.490537.104775-.20955.104775-.352425.338137l-.0095-.0095q.0048-.195262.0381-.4191.03334-.223837.119062-.414337.09049-.195262.24765-.319087.157163-.128588.414338-.128588.242887 0 .390525.138113.147637.138112.176212.366712zm-.6096.700087q.17145 0 .300038.06191.128587.06191.214312.166687.08572.100013.123825.242888.04286.138112.04286.295275 0 .147637-.04762.28575-.04286.13335-.128588.238125-.08572.104775-.214312.166687-.123825.05715-.290513.05715-.166687 0-.300037-.05715-.128588-.06191-.219075-.161925-.08573-.100012-.13335-.238125-.04762-.138112-.04762-.295275 0-.157162.04286-.295275.04762-.142875.138113-.242887.09049-.104775.219075-.161925.128587-.06191.300037-.06191zM91.699018 51.445881v-3.376612h-.309562q-.03334.1905-.123825.314325-.09049.123825-.223838.195262-.128587.07144-.290512.100013-.161925.02381-.333375.02381v.32385h.8763v2.41935zM96.213793 48.483606v-.357187h-1.666875l-.314325 1.752599.347662.01905q.119063-.142875.271463-.2286.157162-.09049.357187-.09049.17145 0 .309563.05715.142875.05715.242887.161925.100013.100012.1524.242887.05715.138113.05715.3048 0 .200025-.05715.352425-.05715.147638-.157162.24765-.09525.100013-.2286.1524-.128588.04762-.271463.04762-.1524 0-.280987-.04286-.123825-.04762-.219075-.128588-.09049-.08572-.147638-.195262-.05239-.1143-.06191-.242888h-.404813q.0048.2286.09049.409575.08573.180975.233362.3048.147638.119063.338138.185738.195262.06191.414337.06191.295275 0 .51435-.09049.223838-.09525.371475-.252413.147638-.157162.219075-.357187.0762-.204788.0762-.4191 0-.290513-.08572-.504825-.08572-.219075-.233362-.36195-.147638-.147638-.347663-.219075-.200025-.07144-.423862-.07144-.17145 0-.347663.06191-.17145.05715-.280987.180975l-.0095-.0095.180975-.97155zM98.321869 51.445881v-3.376612h-.309563q-.03334.1905-.123825.314325-.09049.123825-.223837.195262-.128588.07144-.290513.100013-.161925.02381-.333375.02381v.32385h.8763v2.41935zM100.89191 50.298118h-1.133478l1.123948-1.652587h.01zm.381 0v-2.228849h-.32385l-1.53829 2.195512v.390525h1.48114v.790575h.381v-.790575h.4572v-.357188zM103.9001 48.931281h.40481q-.0381-.4191-.28575-.638175-.24765-.223837-.66675-.223837-.36195 0-.60008.1524-.23812.1524-.381.404812-.14287.252412-.20478.581025-.0572.32385-.0572.671512 0 .2667.0381.55245.0429.28575.16668.523875.12383.238125.35243.390525.2286.1524.60484.1524.31908 0 .5334-.104775.21907-.109537.34766-.271462.13335-.166688.1905-.366713.0571-.200025.0571-.385762 0-.233363-.0714-.433388t-.20479-.347662q-.12858-.147638-.32385-.2286-.1905-.08573-.43338-.08573-.27623 0-.49054.104775-.20955.104775-.35243.338137l-.01-.0095q.005-.195262.0381-.4191.0333-.223837.11906-.414337.0905-.195262.24765-.319087.15716-.128588.41434-.128588.24289 0 .39052.138113.14764.138112.17622.366712zm-.6096.700087q.17145 0 .30003.06191.12859.06191.21432.166687.0857.100013.12382.242888.0429.138112.0429.295275 0 .147637-.0476.28575-.0429.13335-.12859.238125-.0857.104775-.21431.166687-.12383.05715-.29051.05715-.16669 0-.30004-.05715-.12859-.06191-.21908-.161925-.0857-.100012-.13335-.238125-.0476-.138112-.0476-.295275 0-.157162.0429-.295275.0476-.142875.13811-.242887.0905-.104775.21908-.161925.12859-.06191.30004-.06191zM108.13865 48.483606v-.357187h-1.66688l-.31432 1.752599.34766.01905q.11906-.142875.27146-.2286.15716-.09049.35719-.09049.17145 0 .30956.05715.14288.05715.24289.161925.10001.100012.1524.242887.0571.138113.0571.3048 0 .200025-.0571.352425-.0572.147638-.15716.24765-.0952.100013-.2286.1524-.12859.04762-.27147.04762-.1524 0-.28098-.04286-.12383-.04762-.21908-.128588-.0905-.08572-.14764-.195262-.0524-.1143-.0619-.242888h-.40481q.005.2286.0905.409575.0857.180975.23336.3048.14764.119063.33814.185738.19526.06191.41433.06191.29528 0 .51435-.09049.22384-.09525.37148-.252413.14764-.157162.21907-.357187.0762-.204788.0762-.4191 0-.290513-.0857-.504825-.0857-.219075-.23336-.36195-.14764-.147638-.34767-.219075-.20002-.07144-.42386-.07144-.17145 0-.34766.06191-.17145.05715-.28099.180975l-.01-.0095.18097-.97155zM109.17992 49.783768v-.271462q.005-.1524.0238-.300038.0238-.1524.0619-.295275.0429-.142875.11906-.247649.081-.109538.20002-.176213.11907-.06667.29052-.06667t.29051.06667q.11906.06668.19526.176213.081.104774.11906.247649.0429.142875.0619.295275.0238.147638.0238.300038.005.147637.005.271462 0 .1905-.0143.428625-.01.233363-.0762.442913-.0619.204787-.20478.347662-.14288.142875-.40005.142875-.25718 0-.40005-.142875-.14288-.142875-.20955-.347662-.0619-.20955-.0762-.442913-.01-.238125-.01-.428625zm-.42862.0048q0 .185737.01.385762.01.200025.0476.390525.0381.1905.10953.36195.0714.166688.19527.295275.12382.128588.30956.204788.1905.07144.45244.07144.2667 0 .45243-.07144.18574-.0762.30957-.204788.12382-.128587.19526-.295275.0714-.17145.10954-.36195.0381-.1905.0476-.390525.01-.200025.01-.385762 0-.185738-.01-.385763-.01-.200025-.0476-.390525-.0381-.1905-.10954-.361949-.0714-.17145-.19526-.300038-.12383-.128587-.31433-.204787-.18574-.0762-.44767-.0762-.26194 0-.45244.0762-.18574.0762-.30956.204787-.12383.128588-.19527.300038-.0714.171449-.10953.361949-.0381.1905-.0476.390525-.01.200025-.01.385763zM113.62638 48.474081v-.347662h-2.18598v.381h1.77165q-.2667.280987-.50007.614362-.2286.333375-.40481.709612-.17621.371475-.29051.78105-.10954.404813-.13811.833438h.45243q.0238-.395288.13335-.814388.10954-.4191.28099-.814387.17621-.395288.40005-.74295.22384-.347663.48101-.600075zM114.48192 49.783768v-.271462q.005-.1524.0238-.300038.0238-.1524.0619-.295275.0429-.142875.11906-.247649.081-.109538.20003-.176213.11906-.06667.29051-.06667t.29051.06667q.11906.06668.19526.176213.081.104774.11907.247649.0429.142875.0619.295275.0238.147638.0238.300038.005.147637.005.271462 0 .1905-.0143.428625-.01.233363-.0762.442913-.0619.204787-.20479.347662-.14288.142875-.40005.142875-.25718 0-.40005-.142875-.14288-.142875-.20955-.347662-.0619-.20955-.0762-.442913-.01-.238125-.01-.428625zm-.42862.0048q0 .185737.01.385762.01.200025.0476.390525.0381.1905.10954.36195.0714.166688.19526.295275.12382.128588.30956.204788.1905.07144.45244.07144.2667 0 .45244-.07144.18573-.0762.30956-.204788.12382-.128587.19526-.295275.0714-.17145.10954-.36195.0381-.1905.0476-.390525.01-.200025.01-.385762 0-.185738-.01-.385763-.01-.200025-.0476-.390525-.0381-.1905-.10954-.361949-.0714-.17145-.19526-.300038-.12383-.128587-.31433-.204787-.18573-.0762-.44767-.0762t-.45244.0762q-.18574.0762-.30956.204787-.12383.128588-.19526.300038-.0714.171449-.10954.361949-.0381.1905-.0476.390525-.01.200025-.01.385763z" style="font-family:'Helvetica Neue';-inkscape-font-specification:'Helvetica Neue'" transform="translate(-70.326407 -47.964494)"/></g></g></svg>