<svg width="219.66943" height="23" viewBox="0 0 58.12087 6.0854166" xmlns="http://www.w3.org/2000/svg"><defs><path id="a" d="M-57.243935-5.2039943h333.05563v81.529243h-333.05563z"/></defs><g style="display:inline"><g aria-label="+49 (0)761 5146 5070" style="font-size:5.82083px;line-height:1.25;font-family:'PT Sans';-inkscape-font-specification:'PT Sans';text-align:center;letter-spacing:0;text-anchor:middle;display:inline;stroke-width:.259753"><path d="M64.228633 36.041355v1.242747h1.184539v.392906h-1.184539v1.251478h-.42492v-1.251478h-1.178718v-.392906h1.178718v-1.242747zM68.338594 37.930214h.63156v.296862q0 .04657-.0291.07858-.02619.03202-.0844.03202H68.3386v1.097226h-.456935v-1.097226h-1.848114q-.05821 0-.101864-.03202-.04075-.03492-.05239-.0844l-.05239-.264847 2.028559-2.692134h.483129zm-.456935-1.720055q0-.07567.0029-.162984.0058-.08731.02037-.180445l-1.516326 2.063484h1.493043zM70.684843 37.723574q-.235743 0-.448204-.07858-.20955-.07858-.369622-.229923-.160073-.154252-.256117-.375443-.09313-.224102-.09313-.512233 0-.273579.101864-.512233.101865-.238654.285221-.41619.183356-.177535.436562-.279399.253206-.101865.55589-.101865.299772 0 .544247.09895.244475.09895.4191.27649.174625.177535.267758.42492.09604.247386.09604.547158 0 .180446-.03493.343429-.03202.160073-.09604.314325-.06403.154252-.154252.308504-.08731.151342-.200819.314325l-1.015734 1.466849q-.03784.0553-.107686.09022-.06985.03201-.160073.03201h-.477308l1.268941-1.661847q.06403-.0844.119327-.160072.0553-.07567.104775-.151342-.160073.128058-.360891.194998-.200819.06694-.424921.06694zm1.041929-1.219463q0-.194998-.06403-.352161-.06112-.160072-.171715-.270668-.110596-.110596-.264848-.168804-.151341-.06112-.334697-.06112-.192088 0-.352161.06403-.157162.06112-.270668.171715-.110596.110595-.171715.264847-.06112.154252-.06112.337608 0 .197909.0553.355071.05821.154252.162983.261937.107685.107686.259027.162984.154252.0553.343429.0553.20955 0 .369622-.06694.162984-.06985.273579-.183356.110596-.113506.168804-.261937.05821-.148432.05821-.308504zM74.430183 37.604247q0 .622829.160073 1.210733.160073.584993.462756 1.117599.01746.03202.02328.0553.0058.02328.0058.04657 0 .04075-.02037.06694-.02037.02619-.05239.04657l-.229923.1397q-.218281-.334698-.372533-.663575-.151342-.328877-.247385-.660664-.09313-.331787-.13679-.666485-.04366-.337608-.04366-.692679 0-.35216.04366-.689768.04366-.337608.13679-.666485.09604-.331787.247385-.660664.154252-.328877.372533-.666485l.229923.14261q.03202.02037.05239.04657.02037.02619.02037.06694 0 .04366-.0291.09895-.305593.529696-.465666 1.1176-.157163.587904-.157163 1.210732zM78.541326 37.351041q0 .547158-.119327.948796-.116416.398726-.320145.660664-.203729.261937-.483129.389995-.27649.128059-.593725.128059-.320146 0-.596635-.128059-.273579-.128058-.477308-.389995-.203729-.261938-.320146-.660664-.116416-.401638-.116416-.948796t.116416-.948795q.116417-.401637.320146-.663575.203729-.264847.477308-.392906.276489-.128058.596635-.128058.317235 0 .593725.128058.2794.128059.483129.392906.203729.261938.320145.663575.119327.401637.119327.948795zm-.538427 0q0-.477308-.08149-.800364-.07858-.325966-.215371-.523875-.133879-.197908-.311414-.28231-.177536-.08731-.369623-.08731-.192087 0-.369623.08731-.177535.0844-.311414.28231-.133879.197909-.215371.523875-.07858.323056-.07858.800364 0 .477308.07858.800364.08149.323056.215371.520965.133879.197908.311414.28522.177536.0844.369623.0844.192087 0 .369623-.0844.177535-.08731.311414-.28522.13679-.197909.215371-.520965.08149-.323056.08149-.800364zM79.583711 37.604247q0-.622828-.160073-1.210732-.157162-.587904-.462756-1.1176-.0291-.0553-.0291-.09895 0-.04075.02037-.06694.02037-.02619.05239-.04657l.229923-.14261q.218281.337608.369623.666485.154252.328877.247385.660664.09604.328877.1397.666485.04366.337608.04366.689768 0 .355071-.04366.692679-.04366.334698-.1397.666485-.09313.331787-.247385.660664-.151342.328877-.369623.663575l-.229923-.1397q-.03201-.02037-.05239-.04657-.02037-.02619-.02037-.06694 0-.02328.0058-.04657.0058-.02328.02328-.0553.302683-.532606.462756-1.117599.160073-.587904.160073-1.210733zM83.622092 35.264274v.232833q0 .09895-.02328.162983-.02037.06403-.04366.107686l-1.725876 3.483766q-.03784.07567-.104775.130969-.06694.05239-.180446.05239h-.369623l1.75207-3.44011q.03784-.07276.07567-.133879.04075-.06112.09022-.116417h-2.176991q-.04948 0-.09022-.03784-.03784-.04075-.03784-.09022v-.35216zM85.735508 36.879554q.250295 0 .474397.0844.224102.08149.392906.241565.168804.157162.267758.389995.09896.229923.09896.526785 0 .288131-.104775.535517-.104775.247385-.293952.430741-.186267.183356-.451115.288131-.264847.104775-.582083.104775-.314324 0-.570441-.09895-.253206-.101865-.433652-.285221-.180446-.186266-.2794-.448204-.09604-.264847-.09604-.590814 0-.273579.122237-.582083.122238-.308504.387085-.663574l1.056481-1.423193q.04075-.05239.113506-.08731.07276-.03784.165894-.03784h.459845l-1.446476 1.830651q.148431-.101865.328877-.157163.180446-.05821.389996-.05821zm-1.076854 1.268941q0 .200819.05821.366712.05821.165894.168804.285221.113507.119327.273579.186266.162984.06403.369623.06403.20955 0 .378354-.06694.168804-.06694.288131-.186266.122238-.119328.186267-.282311.06694-.162983.06694-.35507 0-.203729-.06403-.366713-.06403-.165893-.180446-.279399-.116416-.116417-.279399-.177536-.162984-.06112-.357981-.06112-.20955 0-.378354.07276-.168804.06985-.288132.192087-.116416.119327-.180445.2794-.06112.157162-.06112.328877zM88.055564 39.039082h.896408v-2.843475q0-.128059.0087-.259027l-.745066.63738q-.0291.02328-.05821.03493-.0291.0087-.0553.0087-.04366 0-.07858-.01746-.03493-.02037-.05239-.04657l-.162983-.224102 1.239837-1.073943h.42201v3.783539h.820737v.395816h-2.235199zM94.568709 35.491286q0 .110596-.06985.183356-.06985.06985-.235744.06985h-1.309687l-.192087 1.094316q.325966-.06985.602456-.06985.325966 0 .573351.09604.250296.09604.4191.264848.168804.168804.253206.398727.08731.229922.08731.500591 0 .331787-.116417.599545-.116416.267759-.320145.459846-.200819.189177-.474398.291041-.273579.101865-.590814.101865-.183356 0-.352161-.03784-.168804-.03493-.314324-.09604-.145521-.06112-.270669-.1397-.125148-.07858-.221191-.165894l.157162-.221191q.05239-.07567.1397-.07567.0553 0 .128058.04657.07567.04366.180446.09895.104775.0553.244475.101864.14261.04366.337608.04366.218281 0 .392906-.06985.174625-.06985.296862-.197909.125148-.130968.192088-.311414.06694-.180446.06694-.404548 0-.194998-.05821-.35216-.0553-.157162-.171715-.267758-.113506-.110596-.28522-.171715-.171715-.06112-.401638-.06112-.157162 0-.325966.02619-.168804.02619-.34925.0844l-.325966-.09604.337608-1.949978h1.976171zM95.93415 39.039082h.896408v-2.843475q0-.128059.0087-.259027l-.745066.63738q-.0291.02328-.05821.03493-.02911.0087-.0553.0087-.04366 0-.07858-.01746-.03493-.02037-.05239-.04657l-.162983-.224102 1.239837-1.073943h.42201v3.783539h.820737v.395816H95.93415ZM101.1035 37.930214h.63156v.296862q0 .04657-.0291.07858-.0262.03202-.0844.03202h-.51805v1.097226h-.45694v-1.097226h-1.848109q-.05821 0-.101865-.03202-.04075-.03492-.05239-.0844l-.05239-.264847 2.028554-2.692134h.48313zm-.45694-1.720055q0-.07567.003-.162984.006-.08731.0204-.180445l-1.516329 2.063484h1.493039zM103.7437 36.879554q.2503 0 .4744.0844.2241.08149.39291.241565.1688.157162.26775.389995.099.229923.099.526785 0 .288131-.10478.535517-.10477.247385-.29395.430741-.18627.183356-.45111.288131-.26485.104775-.58209.104775-.31432 0-.57044-.09895-.2532-.101865-.43365-.285221-.18045-.186266-.2794-.448204-.096-.264847-.096-.590814 0-.273579.12223-.582083.12224-.308504.38709-.663574l1.05648-1.423193q.0408-.05239.11351-.08731.0728-.03784.16589-.03784h.45985l-1.44648 1.830651q.14843-.101865.32888-.157163.18044-.05821.38999-.05821zm-1.07685 1.268941q0 .200819.0582.366712.0582.165894.1688.285221.11351.119327.27358.186266.16298.06403.36962.06403.20955 0 .37836-.06694.1688-.06694.28813-.186266.12223-.119328.18626-.282311.0669-.162983.0669-.35507 0-.203729-.064-.366713-.064-.165893-.18044-.279399-.11642-.116417-.2794-.177536-.16298-.06112-.35798-.06112-.20955 0-.37836.07276-.1688.06985-.28813.192087-.11641.119327-.18044.2794-.0611.157162-.0611.328877zM109.20037 35.491286q0 .110596-.0699.183356-.0699.06985-.23575.06985h-1.30968l-.19209 1.094316q.32596-.06985.60245-.06985.32597 0 .57336.09604.25029.09604.4191.264848.1688.168804.2532.398727.0873.229922.0873.500591 0 .331787-.11641.599545-.11642.267759-.32015.459846-.20082.189177-.4744.291041-.27357.101865-.59081.101865-.18336 0-.35216-.03784-.1688-.03493-.31432-.09604-.14553-.06112-.27067-.1397-.12515-.07858-.22119-.165894l.15716-.221191q.0524-.07567.1397-.07567.0553 0 .12806.04657.0757.04366.18044.09895.10478.0553.24448.101864.14261.04366.3376.04366.21829 0 .39291-.06985.17463-.06985.29686-.197909.12515-.130968.19209-.311414.0669-.180446.0669-.404548 0-.194998-.0582-.35216-.0553-.157162-.17171-.267758-.11351-.110596-.28522-.171715-.17172-.06112-.40164-.06112-.15716 0-.32597.02619-.1688.02619-.34925.0844l-.32596-.09604.3376-1.949978h1.97618zM112.93197 37.351041q0 .547158-.11933.948796-.11641.398726-.32014.660664-.20373.261937-.48313.389995-.27649.128059-.59373.128059-.32014 0-.59663-.128059-.27358-.128058-.47731-.389995-.20373-.261938-.32014-.660664-.11642-.401638-.11642-.948796t.11642-.948795q.11641-.401637.32014-.663575.20373-.264847.47731-.392906.27649-.128058.59663-.128058.31724 0 .59373.128058.2794.128059.48313.392906.20373.261938.32014.663575.11933.401637.11933.948795zm-.53843 0q0-.477308-.0815-.800364-.0786-.325966-.21537-.523875-.13388-.197908-.31141-.28231-.17754-.08731-.36963-.08731-.19208 0-.36962.08731-.17753.0844-.31141.28231-.13388.197909-.21537.523875-.0786.323056-.0786.800364 0 .477308.0786.800364.0815.323056.21537.520965.13388.197908.31141.28522.17754.0844.36962.0844.19209 0 .36963-.0844.17753-.08731.31141-.28522.13679-.197909.21537-.520965.0815-.323056.0815-.800364zM116.26194 35.264274v.232833q0 .09895-.0233.162983-.0204.06403-.0437.107686l-1.72587 3.483766q-.0378.07567-.10478.130969-.0669.05239-.18045.05239h-.36962l1.75207-3.44011q.0378-.07276.0757-.133879.0408-.06112.0902-.116417h-2.17699q-.0495 0-.0902-.03784-.0378-.04075-.0378-.09022v-.35216zM119.68504 37.351041q0 .547158-.11932.948796-.11642.398726-.32015.660664-.20373.261937-.48313.389995-.27649.128059-.59372.128059-.32015 0-.59664-.128059-.27358-.128058-.4773-.389995-.20373-.261938-.32015-.660664-.11642-.401638-.11642-.948796t.11642-.948795q.11642-.401637.32015-.663575.20372-.264847.4773-.392906.27649-.128058.59664-.128058.31723 0 .59372.128058.2794.128059.48313.392906.20373.261938.32015.663575.11932.401637.11932.948795zm-.53842 0q0-.477308-.0815-.800364-.0786-.325966-.21537-.523875-.13388-.197908-.31142-.28231-.17753-.08731-.36962-.08731t-.36962.08731q-.17754.0844-.31142.28231-.13388.197909-.21537.523875-.0786.323056-.0786.800364 0 .477308.0786.800364.0815.323056.21537.520965.13388.197908.31142.28522.17753.0844.36962.0844t.36962-.0844q.17754-.08731.31142-.28522.13679-.197909.21537-.520965.0815-.323056.0815-.800364z" style="font-family:Lato;-inkscape-font-specification:Lato;fill:#0070c9;stroke-width:.259753" transform="translate(-63.789281 -35.570072) scale(1.01859)"/></g></g></svg>