<svg width="215.51688" height="23" viewBox="0 0 57.022173 6.0854166" xmlns="http://www.w3.org/2000/svg"><defs><filter style="color-interpolation-filters:sRGB" id="a" x="-.0309588" y="-.36114087" width="1.0619176" height="1.7222817"><feGaussianBlur stdDeviation=".70612804"/></filter><path id="b" d="M-57.243935-5.2039943h333.05563v81.529243h-333.05563z"/></defs><g style="display:inline"><g style="stroke-width:.999132"><path d="M64.009632 23.85341v1.242747h1.184538v.392906h-1.184538v1.251479h-.424921v-1.251479h-1.178718v-.392906h1.178718V23.85341ZM68.119592 25.742269h.63156v.296863q0 .04657-.0291.07858-.02619.03202-.0844.03202h-.518054v1.097226h-.456935v-1.097226H65.81455q-.05821 0-.101865-.03202-.04075-.03492-.05239-.0844l-.05239-.264848 2.028559-2.692134h.483129zm-.456935-1.720055q0-.07567.0029-.162983.0058-.08731.02037-.180446l-1.516326 2.063484h1.493043zM70.465841 25.53563q-.235743 0-.448203-.07858-.20955-.07858-.369623-.229923-.160073-.154252-.256117-.375444-.09313-.224101-.09313-.512233 0-.273579.101865-.512233.101864-.238654.28522-.416189.183356-.177535.436563-.2794.253206-.101864.555889-.101864.299772 0 .544247.09895.244475.09895.4191.276489.174625.177536.267758.424921.09604.247385.09604.547158 0 .180446-.03492.343429-.03202.160073-.09604.314325-.06403.154252-.154252.308504-.08731.151341-.200818.314324l-1.015735 1.46685q-.03784.0553-.107685.09022-.06985.03201-.160073.03201h-.477308l1.268941-1.661847q.06403-.0844.119327-.160073.0553-.07567.104775-.151341-.160073.128058-.360892.194997-.200819.06694-.424921.06694zm1.041929-1.219464q0-.194998-.06403-.35216-.06112-.160073-.171715-.270669-.110595-.110595-.264847-.168804-.151342-.06112-.334698-.06112-.192087 0-.35216.06403-.157163.06112-.270669.171714-.110596.110596-.171714.264848-.06112.154252-.06112.337608 0 .197908.0553.355071.05821.154252.162983.261937.107685.107685.259027.162983.154252.0553.343429.0553.20955 0 .369623-.06694.162983-.06985.273579-.183357.110595-.113506.168804-.261937.05821-.148431.05821-.308504zM74.211182 25.416303q0 .622829.160072 1.210733.160073.584993.462756 1.117599.01746.03201.02328.0553.0058.02328.0058.04657 0 .04075-.02037.06694-.02037.02619-.05239.04657l-.229923.1397q-.218281-.334698-.372533-.663575-.151341-.328877-.247385-.660664-.09313-.331788-.136789-.666485-.04366-.337608-.04366-.692679 0-.35216.04366-.689768.04366-.337609.136789-.666485.09604-.331788.247385-.660665.154252-.328876.372533-.666485l.229923.142611q.03202.02037.05239.04657.02037.02619.02037.06694 0 .04366-.0291.09895-.305593.529696-.465666 1.117599-.157162.587904-.157162 1.210733zM78.322324 25.163097q0 .547158-.119327.948795-.116416.398727-.320145.660664-.203729.261938-.483129.389996-.27649.128058-.593725.128058-.320145 0-.596635-.128058-.273579-.128058-.477308-.389996-.203729-.261937-.320146-.660664-.116416-.401637-.116416-.948795t.116416-.948795q.116417-.401638.320146-.663575.203729-.264848.477308-.392906.27649-.128058.596635-.128058.317235 0 .593725.128058.2794.128058.483129.392906.203729.261937.320145.663575.119327.401637.119327.948795zm-.538426 0q0-.477308-.08149-.800364-.07858-.325967-.215371-.523875-.133879-.197908-.311414-.28231-.177535-.08731-.369623-.08731-.192087 0-.369622.08731-.177536.0844-.311415.28231-.133879.197908-.215371.523875-.07858.323056-.07858.800364 0 .477308.07858.800364.08149.323056.215371.520964.133879.197908.311415.285221.177535.0844.369622.0844.192088 0 .369623-.0844.177535-.08731.311414-.285221.13679-.197908.215371-.520964.08149-.323056.08149-.800364zM79.364709 25.416303q0-.622829-.160073-1.210733-.157162-.587903-.462756-1.117599-.0291-.0553-.0291-.09895 0-.04075.02037-.06694.02037-.02619.05239-.04657l.229919-.142611q.218281.337609.369623.666485.154252.328877.247385.660665.09604.328876.1397.666485.04366.337608.04366.689768 0 .355071-.04366.692679-.04366.334697-.1397.666485-.09313.331787-.247385.660664-.151342.328877-.369623.663575l-.229923-.1397q-.03201-.02037-.05239-.04657-.02037-.02619-.02037-.06694 0-.02328.0058-.04657.0058-.02328.02328-.0553.302683-.532606.462756-1.117599.160073-.587904.160073-1.210733zM81.08349 26.851138h.896408v-2.843476q0-.128058.0087-.259027l-.745066.637381q-.02911.02328-.05821.03492-.0291.0087-.0553.0087-.04366 0-.07858-.01746-.03493-.02037-.05239-.04657l-.162983-.224102 1.239836-1.073943h.42201v3.78354h.820737v.395816H81.08349ZM86.471122 23.303342q0 .110595-.06985.183356-.06985.06985-.235744.06985h-1.309686l-.192088 1.094316q.325967-.06985.602456-.06985.325967 0 .573352.09604.250296.09604.4191.264847.168804.168804.253206.398727.08731.229923.08731.500592 0 .331787-.116416.599545-.116417.267758-.320146.459846-.200819.189177-.474398.291041-.273579.101865-.590814.101865-.183356 0-.35216-.03784-.168804-.03493-.314325-.09604-.145521-.06112-.270669-.1397-.125147-.07858-.221191-.165894l.157162-.221192q.05239-.07567.1397-.07567.0553 0 .128058.04657.07567.04366.180446.09895.104775.0553.244475.101865.14261.04366.337608.04366.218281 0 .392906-.06985.174625-.06985.296863-.197908.125147-.130969.192087-.311414.06694-.180446.06694-.404548 0-.194998-.05821-.35216-.0553-.157163-.171714-.267759-.113506-.110595-.285221-.171714-.171714-.06112-.401637-.06112-.157163 0-.325967.02619t-.349249.0844l-.325967-.09604.337608-1.949978h1.976172zM90.156163 23.076329v.232834q0 .09895-.02328.162983-.02037.06403-.04366.107685l-1.725876 3.483767q-.03784.07567-.104775.130968-.06694.05239-.180446.05239h-.369623l1.75207-3.44011q.03784-.07276.07567-.13388.04075-.06112.09022-.116416h-2.176991q-.04948 0-.09022-.03784-.03784-.04075-.03784-.09022v-.352161zM94.658212 23.076329v.232834q0 .09895-.02328.162983-.02037.06403-.04366.107685l-1.725876 3.483767q-.03784.07567-.104775.130968-.06694.05239-.180446.05239h-.369622l1.75207-3.44011q.03784-.07276.07567-.13388.04075-.06112.09022-.116416h-2.17699q-.04948 0-.09022-.03784-.03784-.04075-.03784-.09022v-.352161zM98.034749 23.076329v.232834q0 .09895-.02328.162983-.02037.06403-.04366.107685l-1.725876 3.483767q-.03784.07567-.104775.130968-.06694.05239-.180445.05239h-.369623l1.75207-3.44011q.03783-.07276.07567-.13388.04074-.06112.09022-.116416h-2.176991q-.04948 0-.09022-.03784-.03784-.04075-.03784-.09022v-.352161zM100.14816 24.69161q.2503 0 .4744.0844.2241.08149.39291.241564.1688.157163.26775.389996.099.229923.099.526785 0 .288131-.10478.535516-.10477.247385-.29395.430742-.18627.183356-.45111.288131-.26485.104775-.582086.104775-.314325 0-.570441-.09896-.253206-.101864-.433652-.28522-.180446-.186267-.2794-.448204-.09604-.264848-.09604-.590814 0-.273579.122237-.582083t.387085-.663575l1.056477-1.423193q.0407-.05239.11351-.08731.0728-.03784.16589-.03784h.45985l-1.446477 1.830651q.148431-.101864.328877-.157162.180446-.05821.38999-.05821zm-1.076851 1.268941q0 .200818.05821.366712.05821.165893.168804.285221.113506.119327.273579.186266.162984.06403.369623.06403.209545 0 .378355-.06694.1688-.06694.28813-.186267.12224-.119327.18626-.28231.0669-.162983.0669-.355071 0-.203729-.064-.366712-.064-.165894-.18044-.2794-.11642-.116416-.2794-.177535-.16298-.06112-.35798-.06112-.209549 0-.378354.07276-.168804.06985-.288131.192088-.116416.119327-.180445.2794-.06112.157162-.06112.328877zM103.31806 27.293521q-.31141 0-.57044-.08149-.25903-.0844-.44529-.238654-.18627-.154252-.28814-.372533-.10186-.221192-.10186-.494771 0-.401637.20955-.660664.20955-.261937.59955-.372533-.32888-.122237-.49769-.363802-.16589-.244475-.16589-.582083 0-.229923.0902-.430741.0902-.200819.25612-.34925.16589-.148431.39582-.232833.23283-.0844.51805-.0844.28231 0 .51514.0844.23284.0844.39873.232833.16589.148431.25612.34925.0902.200818.0902.430741 0 .337608-.1688.582083-.16881.241565-.49477.363802.38999.110596.59954.372533.20955.259027.20955.660664 0 .273579-.10477.494771-.10187.218281-.28814.372533-.18335.154252-.44238.238654-.25903.08149-.57044.08149zm0-.413279q.20373 0 .3638-.0553.16299-.05821.27358-.160073.11351-.104775.17172-.247385.0611-.145521.0611-.320146 0-.215371-.0728-.366712-.0699-.154252-.19208-.250296-.11933-.09604-.27649-.1397-.15717-.04657-.32888-.04657t-.32888.04657q-.15716.04366-.2794.1397-.11932.09604-.19208.250296-.0699.151341-.0699.366712 0 .174625.0582.320146.0611.14261.17172.247385.11351.101865.27358.160073.16298.0553.36671.0553zm0-2.002366q.20373 0 .34634-.06112.14552-.06403.23574-.165893.0902-.104775.13097-.238654.0408-.133879.0408-.27649 0-.14552-.0495-.273579-.0466-.128058-.14261-.224102-.0931-.09604-.23574-.151341-.1397-.0553-.32597-.0553t-.32888.0553q-.1397.0553-.23574.151341-.0931.09604-.14261.224102-.0466.128059-.0466.273579 0 .142611.0407.27649.0407.133879.13097.238654.0902.101864.23283.165893.14552.06112.34925.06112zM107.82011 27.293521q-.31142 0-.57044-.08149-.25903-.0844-.4453-.238654-.18626-.154252-.28813-.372533-.10186-.221192-.10186-.494771 0-.401637.20955-.660664.20955-.261937.59954-.372533-.32887-.122237-.49768-.363802-.16589-.244475-.16589-.582083 0-.229923.0902-.430741.0902-.200819.25612-.34925.16589-.148431.39581-.232833.23284-.0844.51806-.0844.28231 0 .51514.0844.23284.0844.39873.232833.16589.148431.25612.34925.0902.200818.0902.430741 0 .337608-.16881.582083-.1688.241565-.49477.363802.39.110596.59955.372533.20955.259027.20955.660664 0 .273579-.10478.494771-.10186.218281-.28813.372533-.18335.154252-.44238.238654-.25903.08149-.57044.08149zm0-.413279q.20373 0 .3638-.0553.16298-.05821.27358-.160073.11351-.104775.17171-.247385.0611-.145521.0611-.320146 0-.215371-.0728-.366712-.0699-.154252-.19208-.250296-.11933-.09604-.27649-.1397-.15717-.04657-.32888-.04657-.17172 0-.32888.04657-.15716.04366-.2794.1397-.11932.09604-.19209.250296-.0699.151341-.0699.366712 0 .174625.0582.320146.0611.14261.17172.247385.1135.101865.27358.160073.16298.0553.36671.0553zm0-2.002366q.20373 0 .34634-.06112.14552-.06403.23574-.165893.0902-.104775.13097-.238654.0408-.133879.0408-.27649 0-.14552-.0495-.273579-.0466-.128058-.14261-.224102-.0931-.09604-.23574-.151341-.1397-.0553-.32597-.0553t-.32888.0553q-.1397.0553-.23574.151341-.0931.09604-.14261.224102-.0466.128059-.0466.273579 0 .142611.0408.27649.0407.133879.13097.238654.0902.101864.23283.165893.14552.06112.34925.06112zM112.3579 23.303342q0 .110595-.0699.183356-.0699.06985-.23575.06985h-1.30968l-.19209 1.094316q.32597-.06985.60246-.06985.32596 0 .57335.09604.25029.09604.4191.264847.1688.168804.2532.398727.0873.229923.0873.500592 0 .331787-.11642.599545t-.32015.459846q-.20081.189177-.47439.291041-.27358.101865-.59082.101865-.18335 0-.35216-.03784-.1688-.03493-.31432-.09604-.14552-.06112-.27067-.1397-.12515-.07858-.22119-.165894l.15716-.221192q.0524-.07567.1397-.07567.0553 0 .12806.04657.0757.04366.18044.09895.10478.0553.24448.101865.14261.04366.33761.04366.21828 0 .3929-.06985.17463-.06985.29686-.197908.12515-.130969.19209-.311414.0669-.180446.0669-.404548 0-.194998-.0582-.35216-.0553-.157163-.17171-.267759-.11351-.110595-.28522-.171714-.17172-.06112-.40164-.06112-.15716 0-.32597.02619-.1688.02619-.34925.0844l-.32596-.09604.33761-1.949978h1.97617zM116.08951 25.163097q0 .547158-.11933.948795-.11642.398727-.32015.660664-.20373.261938-.48313.389996-.27649.128058-.59372.128058-.32015 0-.59664-.128058-.27357-.128058-.4773-.389996-.20373-.261937-.32015-.660664-.11642-.401637-.11642-.948795t.11642-.948795q.11642-.401638.32015-.663575.20373-.264848.4773-.392906.27649-.128058.59664-.128058.31723 0 .59372.128058.2794.128058.48313.392906.20373.261937.32015.663575.11933.401637.11933.948795zm-.53843 0q0-.477308-.0815-.800364-.0786-.325967-.21537-.523875-.13388-.197908-.31142-.28231-.17753-.08731-.36962-.08731t-.36962.08731q-.17754.0844-.31142.28231-.13388.197908-.21537.523875-.0786.323056-.0786.800364 0 .477308.0786.800364.0815.323056.21537.520964.13388.197908.31142.285221.17753.0844.36962.0844t.36962-.0844q.17754-.08731.31142-.285221.13679-.197908.21537-.520964.0815-.323056.0815-.800364zM118.06904 23.029763q.26485 0 .48895.07567.22411.07567.38418.21537.16298.1397.2532.337608.0902.197909.0902.439473 0 .197908-.0524.355071-.0495.154252-.14552.273579-.0931.116416-.22701.197908-.13388.08149-.29978.130969.40746.107685.61119.360891.20664.253206.20664.63447 0 .288132-.1106.518054-.10768.229923-.29686.392906-.18917.160073-.44238.247386-.2503.0844-.53843.0844-.33178 0-.56753-.08149-.23574-.0844-.39872-.229923-.16299-.145521-.26776-.343429-.10478-.200818-.17754-.433652l.22119-.09313q.0611-.02619.12224-.02619.0582 0 .10187.02619.0466.02328.0698.07567.006.01164.0117.02619.006.01164.0116.02619.0407.0844.099.192088.0582.104775.15716.197908.099.09313.24448.157162.14843.06403.36671.06403.21828 0 .38127-.06985.16589-.07276.27358-.186267.11059-.113506.16589-.253206.0553-.1397.0553-.276489 0-.168805-.0466-.308504-.0437-.1397-.16298-.241565-.11642-.101864-.32597-.160073-.20664-.05821-.53261-.05821v-.375444q.26485-.0029.45112-.05821.18918-.0553.3085-.151341.11933-.09604.17172-.229923.0553-.133879.0553-.296863 0-.180445-.0582-.314324-.0553-.133879-.15426-.221192-.099-.08731-.23574-.130969-.13388-.04366-.29104-.04366-.15716 0-.29104.04657-.13388.04657-.23866.130969-.10186.08149-.17171.197908-.0699.113506-.10478.247385-.0233.0844-.0699.122237-.0466.03784-.11932.03784h-.032q-.0145-.0029-.0349-.0058l-.27067-.04657q.0408-.28522.15716-.503501.11642-.221192.29395-.369623.18045-.148431.41037-.224102.23284-.07858.50059-.07858z" style="font-size:5.82083px;line-height:1.25;font-family:Lato;-inkscape-font-specification:'Lato, Normal';font-variation-settings:normal;text-align:center;letter-spacing:0;text-anchor:middle;opacity:1;vector-effect:none;fill:#0070c9;fill-opacity:1;stroke-width:.26477;stroke-linecap:butt;stroke-linejoin:miter;stroke-miterlimit:4;stroke-dasharray:none;stroke-dashoffset:0;stroke-opacity:1;-inkscape-stroke:none;stop-color:#000;stop-opacity:1" transform="matrix(1.00087 0 0 1.00087 -62.4601867 -22.75264112)"/></g></g></svg>