<svg width="624.64093mm" height="593.18573mm" viewBox="0 0 624.64094 593.18574" xmlns="http://www.w3.org/2000/svg"><defs><filter style="color-interpolation-filters:sRGB" id="a" x="-.03856695" y="-.0315475" width="1.0918428" height="1.0657106"><feGaussianBlur stdDeviation=".31277718"/></filter><filter style="color-interpolation-filters:sRGB" id="b" x="-.03376634" y="-.02762063" width="1.0822415" height="1.0578569"><feFlood flood-opacity=".501961" flood-color="#000" result="flood"/><feComposite in="flood" in2="SourceGraphic" operator="in" result="composite1"/><feGaussianBlur in="composite1" stdDeviation="2.2" result="blur"/><feOffset dx="2.3" dy=".5" result="offset"/><feComposite in="SourceGraphic" in2="offset" result="composite2"/></filter></defs><g style="display:inline"><path style="display:inline;fill:#010cff;fill-opacity:1;stroke:#000;stroke-width:2.50627;stroke-linecap:round;stroke-miterlimit:4;stroke-dasharray:none" d="m-482.18845 205.19098 33.63244-47.88955 42.2232 9.03854-32.81776 48.57795zM-495.96223-17.490402l29.53727-36.625451 36.50964 6.176864-28.93162 37.064175zM-403.58073 55.466909l29.04806-40.465648 39.39778 7.112812-28.3314 40.986026zM-452.01204-115.34732l26.7846-32.30021 34.53823 5.09847-26.2396 32.65583z" transform="translate(532.014893 346.792578)"/><path style="display:inline;fill:#ff0201;fill-opacity:1;stroke:#000;stroke-width:2.50627;stroke-linecap:round;stroke-miterlimit:4;stroke-dasharray:none" d="m-296.0602-87.941192 24.33055-34.032198 36.93825 5.47585-23.69292 34.421381z" transform="translate(532.014893 346.792578)"/><path style="display:inline;fill:#010cff;fill-opacity:1;stroke:#000;stroke-width:2.50627;stroke-linecap:round;stroke-miterlimit:4;stroke-dasharray:none" d="m-173.22265-223.12296 19.87509-28.53112 34.71005 4.11179-19.30501 28.82006zM-308.85012-279.86677l21.29009-25.82716 31.81817 3.51775-20.81894 26.07029zM-48.72895-22.385389l20.25348-37.907926 41.50297 6.364098-19.42592 38.378156zM-84.92065-107.38386l19.86512-33.834 38.78088 5.36577-19.14569 34.21951zM-197.4239 116.62639l25.53108-44.294232 43.44367 8.024755-24.63572 44.905237zM-161.5418-10.561885l22.82414-38.09157 40.5014 6.441863-22.04448 38.5645924z" transform="translate(532.014893 346.792578)"/><g aria-label="0 1 0 1 0 0 0 1 1 1" style="font-size:6.35px;line-height:1.25;font-family:Lato;-inkscape-font-specification:'Lato, Normal';text-align:center;letter-spacing:0;text-anchor:middle;display:inline;stroke-width:.264583"><path d="M456.60367114 142.42418796c-.58640223 1.16704213-1.25613624 2.15505851-2.01089089 2.96689939-.74187874.80457369-1.53033593 1.44867395-2.36345025 1.93082925-.83311433.4821553-1.69787803.80874857-2.59429111.97977983-.88864255.17208504-1.7654953.2017802-2.63063574.08862592-.87210528-.11586299-1.61909332-.35816983-2.23808217-.72912784-.61229518-.36985782-1.05982255-.86902587-1.3407383-1.49943527-.28183766-.62944385-.37198572-1.38935837-.27083157-2.28204143.10314512-.90017542.44420786-1.93327706 1.02202604-3.10619846.57781818-1.1729214 1.24061827-2.16989708 1.98655643-2.98899594.74647268-.82236226 1.53960911-1.47731113 2.3790219-1.96714447.84363497-.49695896 1.70992477-.83380203 2.5992568-1.00823133.89786952-.17526022 1.78691651-.20339792 2.66583167-.08574538.8722215.11655234 1.6190624.36442044 2.24052273.74360429.6286885.37702065 1.07946214.88901023 1.3521272 1.53481982.27665481.63730525.35685549 1.40898983.24344526 2.31261664-.10575592.90399123-.4526988 1.94081815-1.039868 3.10974498zm-2.2058254-.29330044c.51034879-1.01979913.82772212-1.89101868.95119809-2.61269311.13531374-.72866542.12089715-1.32890023-.04083268-1.80566917-.15464878-.4733709-.43016167-.83367417-.8265387-1.08090983-.39307674-.25339574-.8540419-.4140608-1.38143906-.48622414-.52700975-.0698655-1.0815988-.04596036-1.66260498.07860896-.57809329.1161114-1.15695211.36279621-1.73657647.74005444-.57870244.37629266-1.15322747.8996104-1.7235751 1.56995324-.55904436.66661525-1.09141287 1.51076363-1.59802743 2.5334107-.50477073 1.02071596-.82041644 1.88931505-.94654976 2.60809511-.11798321.7156513-.09880208 1.31197747.05822505 1.78015384.15741452.47047422.43254003.82847965.824842 1.07727969.39598962.24493781.85579262.39870933 1.3796105.46894386.52462358.06857963 1.07286762.04564235 1.64669216-.0700536.57712481-.12185602 1.15275302-.36840158 1.72780654-.74060223.58290153-.3706873 1.1534368-.8855007 1.71256648-1.54517599.5669002-.6586215 1.10469963-1.49629179 1.61520336-2.51517177zM462.60419297 148.95456732l3.64521083.4798391 4.63554896-9.06174684c.13944033-.27310912.29356949-.54916594.46058237-.82600955l-4.08873488 1.63764638c-.10502949.03970832-.2035359.06663692-.29548051.08101558-.08864433.00821859-.16895268.00797694-.24096378-.00095471-.11875054-.01594372-.2164829-.04876379-.2922364-.09919596-.07341387-.05585649-.11921647-.11521768-.13840719-.1775776l-.3010529-.80776146 6.83353075-2.7734333 1.72582626.2320555-6.19511357 12.0742309 3.33015932.43833296-.64499402 1.2505768-9.07267138-1.1918476zM493.22358628 147.2850136c-.61222406 1.15542515-1.3019694 2.1341201-2.07015794 2.9370504-.75619581.79685845-1.5524701 1.43319475-2.39058921 1.9113996-.83715846.47746906-1.70138764.80079893-2.59364819.97072538-.88441253.1714398-1.75172839.19979806-2.60467459.08820124-.86075547-.11288039-1.59220244-.35307966-2.19618474-.7186667-.59536732-.36595838-1.02369688-.86063048-1.28587185-1.48282096-.26140802-.62407518-.33077778-1.37655297-.2063042-2.25959428.12665825-.88938475.49196233-1.9138102 1.0949516-3.07254058.60375622-1.16061506 1.28568447-2.14707398 2.04578474-2.95937673.76102218-.8132683 1.56374206-1.4628439 2.4073152-1.94730166.84775658-.49181317 1.71370555-.8242439 2.59873009-.99848754.89279507-.17318985 1.77314961-.20141577 2.6409474-.08536712.8590666.11573065 1.59121088.36006605 2.1955109.73397176.61199309.37449992 1.04445208.88079822 1.2972995 1.5184353.25603147.63078766.31526015 1.39388658.17856923 2.28810142-.1290366.89457928-.49960883 1.91992617-1.11167794 3.07627047zm-2.1757039-.28834953c.53270755-1.0094216.87009222-1.87131973 1.01207653-2.58615395.15301638-.72017029.1556826-1.31558653.00715422-1.7848236-.1399134-.46960841-.4028834-.82628616-.78794935-1.070769-.38272634-.24990716-.8338447-.41007084-1.35423828-.4792957-.51947165-.07019043-1.06928834-.04371354-1.64752877.07795911-.57494015.11551258-1.15414763.36012933-1.73766116.73362046-.58255289.37275536-1.16546828.89134277-1.74782426 1.55479666-.57128517.6583476-1.1204344 1.4930353-1.649369 2.50553464-.52716824 1.01010866-.86270908 1.87007567-1.00658377 2.58013082-.13618164.71064936-.13262688 1.297928.0097811 1.76303125.1432524.46367811.4059125.81851758.7870971 1.06571373.38536804.23984074.83651733.39375381 1.3524872.462475.51693051.0679854 1.06075084.04454444 1.63149972-.07009311.57404916-.12079763 1.1501035-.36481555 1.72908493-.73301933.58767389-.36811555 1.1656776-.87723306 1.73581625-1.52951342.57886983-.65196235 1.13425567-1.48182687 1.66615753-2.48959356zM498.98540575 153.74421001l3.5941639.4730127 4.82935606-8.96733489c.14625022-.27131956.30534543-.5436557.47820753-.81797398l-4.09017604 1.62266395c-.1041463.03851298-.20265273.06544157-.29359794.07931425-.08852811.00890794-.16779832.0083901-.23869382-.0003582-.11667427-.01649612-.21309732-.0479839-.2866196-.09804934-.07114391-.05525996-.1147153-.11425442-.1325967-.17528204l-.27581216-.79959127 6.83587073-2.74668543 1.70139903.22871078-6.45372704 11.94928293 3.28357484.43224003-.67108702 1.23735134-8.94618904-1.1750799zM529.32891833 152.07890991c-.63600836 1.143026-1.34480438 2.11166374-2.1263106 2.90637281-.76951347.78863722-1.57533247 1.41983003-2.4165738 1.89238309-.8412026.47278284-1.70581916.79381486-2.59292778.96213051-.87933809.16936944-1.73892215.1985517-2.57971285.08828256-.84859997-.1115527-1.56646591-.34840265-2.15363657-.71077961-.5794776-.36178275-.99053064-.85048736-1.23319789-1.4663436-.24186154-.61751117-.29037553-1.36209266-.14369812-2.2356756.1489008-.87969658.53767927-1.89356114 1.16545223-3.04039834.62853992-1.1487219 1.3304795-2.12585937 2.10397492-2.92948133.77441733-.80458751 1.58587622-1.4473647 2.43349349-1.92713623.8518782-.48666737 1.71821456-.81680025 2.59816465-.98897352.8886038-.17231483 1.7602659-.20062898 2.61494752-.08517224.84779428.11320762 1.5654356.35515925 2.15376843.72442976.59602588.36986472 1.01020897.8707015 1.24347117 1.5015448.23644627.62399386.2747417 1.3787369.11584696 2.26349337-.15127917.8848911-.5462477 1.90064267-1.18306176 3.04532357zm-2.14473797-.28482374c.55398946-.99899767.91123051-1.8524935 1.06987932-2.55855639.17052532-.71282409.18939118-1.30222642.05567566-1.76724144-.12602246-.4644208-.37644957-.81747301-.7521645-1.0579613-.37149276-.2476139-.81360876-.40585108-1.32630927-.47448173-.51273925-.06886043-1.05713284-.04238585-1.63233635.07799862-.57282514.11518996-1.15245875.35727908-1.7389008.72626735-.58644207.36898827-1.17770908.88307512-1.77199595 1.54009964-.58229415.65095268-1.14899106 1.4780644-1.69832438 2.47894445-.54845015.99968472-.9038861 1.85101966-1.06526975 2.5537286-.15372931.70307338-.16629672 1.28479768-.03685776 1.74374776.1284783.45968585.37863423.81112957.75046781 1.05433116.3741732.23777728.81635886.38999363 1.32559632.45738482.50923746.0673912 1.04859535.04321676 1.61630731-.07013261.57101223-.11950945 1.1474927-.36099974 1.73028584-.725896.59152432-.36457825 1.176919-.86845942 1.75898854-1.51431042.58980132-.645027 1.1617742-1.46657975 1.71495796-2.46392251zM547.19239928 154.45068329c-.64693985 1.13609064-1.36520311 2.10004446-2.15379037 2.89135548-.77563389.7845034-1.58534206 1.41192911-2.42904705 1.88273673-.84366625.4710374-1.70751585.79018472-2.59254821.95794797-.87630116.16808125-1.73249965.1980434-2.5677123.0886911-.84206126-.11137164-1.55315606-.34666181-2.13240122-.70706585-.57251276-.35907406-.97448596-.84539259-1.20695775-1.4586794-.232588-.61397616-.27071285-1.35483928-.1134526-2.22355492.1604443-.87556507.55999931-1.88341342 1.19962568-3.02428082.64139272-1.14325808 1.35187762-2.11474608 2.13249283-2.9147402.78153713-.80095968 1.5968852-1.43996978 2.44696612-1.91799586.85341994-.48395637 1.71906682-.811745 2.59782382-.9845612.88560562-.17079686 1.75296022-.19892534 2.60202506-.08461522.84125557.11302656 1.55208701.35318863 2.13249434.72048621.58802292.36743223.99312616.86588294 1.21707609 1.49296145.22717272.62045886.255079 1.37148354.08464076 2.25210848-.16190074.87979403-.56764581 1.88952938-1.2172352 3.02920605zm-2.12931311-.28340553c.56461104-.9939006.93128059-1.8429423 1.09912546-2.54592975.1788382-.70855331.20482385-1.2943278.07803443-1.75686392-.11909636-.46194189-.36375172-.81292834-.7338886-1.05249979-.36683662-.24573152-.80445143-.40300544-1.31380511-.47108599-.50839302-.06881632-1.05059414-.04220478-1.6247595.07790349-.57078763.11440777-1.15061493.35534796-1.7394819.72282057-.58786759.36696663-1.18286882.87820553-1.78216048 1.5312796-.58914277.64893333-1.1631919 1.4710385-1.72310807 2.46705127-.55911047.99435786-.92393618 1.84146844-1.09451588 2.54110195-.16200346.6990324-.1817294 1.27689907-.06009972 1.73456558.12251285.45647117.3668583.80561935.73311383 1.0479041.3695558.23612467.8063571.3885731 1.3131309.45421886.50589063.0668411 1.04209538.04326548 1.60780855-.06907192.5699741-.11923324 1.14753144-.36076995 1.73182757-.723185.59294985-.3625566 1.18296194-.86478517 1.76999752-1.5069155.59480611-.64107653 1.17501439-1.45881809 1.738781-2.45129355zM564.93251229 156.80486033c-.6596377 1.13154597-1.38644628 2.08985031-2.18115394 2.8770275-.78271494.78110535-1.59715673 1.40618911-2.44240346 1.87428572-.84520799.4683264-1.70925129.7863248-2.59120798.95302966-.87514682.1684944-1.72615464.19707554-2.55575049.08886986-.8364832-.1104548-1.5408456-.344415-2.11216527-.7028461-.56458727-.35710114-.95848002-.8405276-1.18167827-1.45027941-.22331447-.61044117-.2510889-1.3478157-.08328455-2.21189384.17194906-.87166334.58316379-1.87469081 1.23464356-3.00958841.65228548-1.13655252 1.37223761-2.1033566 2.15997262-2.89972288.787735-.79636628 1.60785543-1.43280463 2.4594781-1.90811972.85592233-.48198114 1.7217629-.80862083 2.5965998-.97895352.88349062-.17047425 1.74745965-.19938261 2.5909077-.0862191.83563876.11187993 1.53877715.35144778 2.11122025.71654266.58013616.36568909.97708147.86078817 1.19079721 1.48506744.21789919.61692386.23545506 1.36445996.05443397 2.24021761-.17248359.87492675-.58988837 1.87984122-1.25040925 3.01258253zm-2.11573209-.2800562c.57519389-.9890333.95129193-1.83362086 1.12733346-2.5330269.18711235-.70451232.22113971-1.28762454.1012764-1.74768174-.112209-.45969276-.35109262-.80861346-.71565145-1.04726807-.36125856-.24481468-.79533285-.40038958-1.30037904-.4686558-.5059681-.06730066-1.04505482-.04151773-1.61814332.07854412-.56878883.1133958-1.14880982.35318706-1.73910232.71863803-.59121442.36641652-1.18895048.87430149-1.79416885 1.52439066-.59414755.64498288-1.1764321 1.46327684-1.7469311 2.45442232-.56969332.98949057-.94394752 1.832147-1.12184071 2.52700377-.17112205.69641653-.1988897 1.27162092-.08322546 1.72607275.1156255.45422204.3541992.80130446.71487667 1.04267237.36401648.23543763.79723851.38595726 1.29978231.45224825.50250506.0660612 1.03651732.04234864 1.60115362-.06994234.56889723-.11918683 1.14576509-.35837927 1.73240866-.71973822.59437537-.36053496 1.1880442-.86037515 1.78100649-1.49952057.60065534-.63855121 1.18821584-1.45128623 1.76160464-2.43815863zM570.23677562 163.12361275l3.49449496.46087558 5.2006544-8.78521426c.15702676-.26530334.3268985-.53162327.51045967-.8003849l-4.0899827 1.59164069c-.10426253.03782362-.20176955.06424623-.29167663.0778427-.0874125.0090913-.16548963.0092164-.23330946-.00059028-.11424936-.01498047-.20636491-.04665391-.27630793-.09479055-.06664273-.0542967-.10667358-.11159214-.12013128-.17211608l-.22844508-.78242226 6.83812576-2.69470533 1.65469833.2219285-6.94710001 11.7057653 3.19367522.4201447-.7229631 1.2127387-8.6999955-1.14310423zM587.74186648 165.4284364l3.47106713.45702488 5.28959372-8.740211c.15949041-.2635579.33267025-.5295575.51869507-.7965737l-4.09010674 1.58447094c-.10426252.03782363-.20180828.06401645-.29167662.07784271-.08645185.00835553-.1644515.0089402-.23219385-.00040692-.1131725-.01502688-.20421118-.04674674-.27307731-.0949298-.0654884-.05388355-.10440363-.11099562-.11766764-.17037063l-.21690157-.77829074 6.83902457-2.68293989 1.64354222.22009483-7.06655603 11.64703287 3.17151796.41739652-.734894 1.20630931-8.6401399-1.13550025zM605.12709119 167.71713298l3.44675612.4543695 5.37733994-8.69585066c.16279851-.26323759.338442-.52749176.52689175-.7929923l-4.09023078 1.5773012c-.10426253.03782363-.20088637.0630509-.29071597.07710694-.08641311.00858532-.1634521.0084342-.23107824-.00022355-.11213436-.01530309-.20301809-.0461038-.27076861-.0941035-.06437278-.05370018-.1021724-.11062888-.11435954-.17005031l-.20539682-.77438901 6.83900147-2.67020889 1.6314642.21922672-7.18289765 11.58747185 3.14939943.4148781-.74678614 1.20010972-8.58124496-1.1271605z"/></g><path style="font-variation-settings:normal;display:inline;fill:none;fill-opacity:1;stroke:#000;stroke-width:2.14081;stroke-linecap:butt;stroke-linejoin:miter;stroke-miterlimit:4;stroke-dasharray:none;stroke-dashoffset:0;stroke-opacity:1;stop-color:#000" d="m-202.82743-163.33937-27.09429 12.37701-5.32909-16.90992" transform="translate(532.014893 346.792578)"/><path style="font-variation-settings:normal;display:inline;fill:none;fill-opacity:1;stroke:#000;stroke-width:1.76723;stroke-linecap:butt;stroke-linejoin:miter;stroke-miterlimit:4;stroke-dasharray:none;stroke-dashoffset:0;stroke-opacity:1;stop-color:#000" d="m-81.28455-159.43401-8.87918-16.81175m0 0 17.789088-8.38465" transform="translate(532.014893 346.792578)"/><path style="fill:none;stroke:#000;stroke-width:2.08857;stroke-linecap:butt;stroke-linejoin:miter;stroke-miterlimit:4;stroke-dasharray:none;stroke-opacity:1" d="m-531.17869 151.11254 371.99387-497.27959" transform="translate(532.014893 346.792578)"/><path style="fill:none;stroke:#000;stroke-width:2.22933;stroke-linecap:butt;stroke-linejoin:miter;stroke-miterlimit:4;stroke-dasharray:none;stroke-opacity:1" d="m-531.17869-233.0213 623.661521 80.80259" transform="translate(532.014893 346.792578)"/><path style="fill:none;stroke:#000;stroke-width:2.08857;stroke-linecap:butt;stroke-linejoin:miter;stroke-miterlimit:4;stroke-dasharray:none;stroke-opacity:1" d="m-403.87167 245.82622 372.77584-576.69187M-442.92487-30.740248l42.53626 7.344037M-408.19279-145.26106l54.18533-65.81323M-252.18287-119.76616l50.42816-71.51118M-387.95582 33.100208l-48.21905-8.765021M-421.42894 189.26915l47.18851 10.54308M-127.7622-233.6302l31.41276 3.77738M-265.47443-289.83881l59.07208 6.80723" transform="translate(532.014893 346.792578)"/><path style="fill:none;stroke:#000;stroke-width:2.18101;stroke-linecap:butt;stroke-linejoin:miter;stroke-miterlimit:4;stroke-dasharray:none;stroke-opacity:1" d="m-45.17628-139.06572 17.14878-29.28374" transform="translate(532.014893 346.792578)"/><path style="fill:none;stroke:#000;stroke-width:2.08857;stroke-linecap:butt;stroke-linejoin:miter;stroke-miterlimit:4;stroke-dasharray:none;stroke-opacity:1" d="m-149.896-30.521908-67.45556-12.122701M-6.6370321-57.478467 45.81246-158.53667M-183.49784 91.782075l-108.17462-19.945794" transform="translate(532.014893 346.792578)"/></g></svg>