<svg width="700" height="120" viewBox="0 0 185.20826 31.749992" xmlns="http://www.w3.org/2000/svg"><g style="display:inline"><g aria-label="EXPERTISE" style="font-size:38.1px;line-height:1.25;font-family:'PT Sans';-inkscape-font-specification:'PT Sans';text-align:center;letter-spacing:0;text-anchor:middle;display:inline;fill:#fff;stroke-width:.264583"><path d="M-59.528128-57.080686h18.287999v1.4478h-16.611599v10.8966h15.620999v1.4478h-15.620999v11.963399h16.802099v1.4478h-18.478499z" style="font-weight:200;font-family:'Helvetica Neue';-inkscape-font-specification:'Helvetica Neue Ultra-Light'" transform="translate(62.4886557 59.3539865)"/><path d="M-40.533494-57.080686h1.9431l8.6106 11.9634 8.8011-11.9634h1.905l-9.6012 13.2207 10.134599 13.982699h-2.019299l-9.2202-12.725399-9.2583 12.725399h-1.9812l10.2108-13.982699zM-16.963286-57.080686h11.5823996q1.143 0 2.5145999.2667 1.4097.2667 2.59079991 1.1049 1.21919995.8001 2.01929989 2.3241.8001 1.4859.8001 3.9243 0 3.5814-2.20979992 5.5245-2.20979988 1.9431-6.32459978 1.9431h-9.2963996v12.115799h-1.6764zm1.6764 13.6398h9.5630996q1.8288 0 3.0860999-.5334 1.2953999-.5715 2.05739992-1.4478.76199997-.8763 1.10489995-1.9431.34289999-1.0668.34289999-2.1336 0-.762-.22859999-1.7907-.22859999-1.0668-.91439996-2.0193-.68579998-.9906-1.94309991-1.6383-1.2192-.6858-3.2765999-.6858h-9.7916996zM5.5841765-57.080686H23.872176v1.4478H7.2605765v10.8966H22.881576v1.4478H7.2605765v11.963399H24.062676v1.4478H5.5841765ZM26.941011-57.080686H38.29481q1.7907 0 3.3528.381 1.5621.3429 2.7432 1.1811 1.1811.8001 1.8288 2.1336.6858 1.3335.6858 3.3147 0 2.7432-1.5621 4.6482-1.524 1.8669-4.2672 2.3241v.0762q1.8669.2286 2.9337.9906 1.1049.762 1.6383 1.8669.5334 1.104899.6858 2.438399.1524 1.3335.1524 2.667v1.5621q0 .762.0762 1.4478.0762.6477.2286 1.2192.1905.5715.4953.9525h-1.8669q-.5334-.9525-.6096-2.2098-.0381-1.2954-.0381-2.667 0-1.3716-.1143-2.7051-.1143-1.3716-.7239-2.4384-.6096-1.066799-1.9431-1.714499-1.2954-.6477-3.6957-.6477h-9.677399v12.382499h-1.6764zm11.353799 13.3731q1.4859 0 2.7432-.3429 1.2954-.381 2.2098-1.143.9144-.762 1.4478-1.9431t.5334-2.8194q0-1.524-.5715-2.5908-.5715-1.1049-1.524-1.7907t-2.2098-.9906q-1.2573-.3048-2.6289-.3048h-9.677399v11.9253zM48.024012-55.632886v-1.4478h20.840699v1.4478h-9.6012v25.755599h-1.6764v-25.755599zM70.770883-57.080686h1.6764v27.203399h-1.6764zM94.999512-49.308286q-.0762-1.7526-.762-3.048-.6477-1.2954-1.7907-2.1717-1.143-.8763-2.7432-1.2954-1.5621-.4572-3.429-.4572-1.143 0-2.4765.2667-1.2954.2667-2.4384.9525-1.104899.6477-1.828799 1.7907-.7239 1.1049-.7239 2.7813 0 1.6383.8001 2.667.800099 1.0287 2.095499 1.6764 1.2954.6096 2.9718.9906t3.3909.7239q1.7526.3429 3.3909.8382 1.6764.4572 2.9718 1.2954 1.3335.8001 2.1336 2.1336.8001 1.295399.8001 3.276599 0 2.1336-.9144 3.5814t-2.3241 2.3622q-1.3716.9144-3.0861 1.2954-1.6764.4191-3.2385.4191-2.4003 0-4.4958-.5334-2.0955-.4953-3.657599-1.6383-1.5621-1.1811-2.4765-3.0099-.8763-1.8288-.8382-4.4577h1.6764q-.1143 2.2479.6477 3.81.762 1.524 2.095499 2.5146 1.3716.9906 3.2004 1.4478 1.8288.4191 3.8481.4191 1.2192 0 2.5908-.3048 1.4097-.3048 2.5527-1.0287 1.1811-.7239 1.9431-1.905.8001-1.1811.8001-2.9718 0-1.7145-.8001-2.7813-.8001-1.104899-2.1336-1.752599-1.2954-.6858-2.9718-1.0668-1.6383-.4191-3.3909-.762-1.7145-.3429-3.3909-.8001-1.6764-.4572-2.971799-1.2192-1.2954-.8001-2.0955-2.0193-.8001-1.2573-.8001-3.2004t.8001-3.3147q.8382-1.4097 2.1336-2.2479 1.333499-.8763 2.971799-1.2573 1.6383-.4191 3.2385-.4191 2.1336 0 3.9624.4953 1.8669.4572 3.2385 1.4859 1.4097.9906 2.2479 2.5908.8382 1.6002.9525 3.8481zM101.28065-57.080686h18.288v1.4478h-16.6116v10.8966h15.621v1.4478h-15.621v11.963399h16.8021v1.4478h-18.4785z" style="font-weight:200;font-family:'Helvetica Neue';-inkscape-font-specification:'Helvetica Neue Ultra-Light'" transform="translate(62.4886557 59.3539865)"/></g></g></svg>