<svg width="700" height="107.71199" viewBox="0 0 185.20828 28.49879" xmlns="http://www.w3.org/2000/svg"><g style="display:inline"><g aria-label="CONTACT" style="font-size:38.1px;line-height:1.25;font-family:'PT Sans';-inkscape-font-specification:'PT Sans';text-align:center;letter-spacing:0;text-anchor:middle;display:inline;fill:#fff;stroke-width:.264583"><path d="M-111.31388 90.427369q0-2.9718.8763-5.5626.8763-2.6289 2.5146-4.5339 1.6764-1.9431 4.0767-3.048 2.4384-1.1049 5.486399-1.1049 2.4003 0 4.1529.6477 1.7526.6096 2.9337 1.5621 1.219199.9144 1.981199 2.0193.762 1.1049 1.143 2.0955.4191.9525.5715 1.6764.1524.6858.1524.762h-1.6764q-.2667-1.7145-1.1049-3.048-.838199-1.3716-2.095499-2.3241-1.2573-.9525-2.8194-1.4478-1.524-.4953-3.2385-.4953-2.666999 0-4.762499 1.0287t-3.5433 2.7813q-1.4478 1.7145-2.2098 4.0386-.762 2.3241-.762 4.953 0 2.628899.762 4.952999t2.2098 4.0767q1.4478 1.714502 3.5433 2.743202 2.0955 1.0287 4.762499 1.0287 1.9812 0 3.6957-.8001 1.7526-.8382 3.048-2.1717 1.295399-1.371602 2.057399-3.124202.8001-1.7907.9144-3.6957h1.6764q-.2286 2.4384-1.2192 4.4958-.9525 2.0574-2.4765 3.581402-1.485899 1.4859-3.467099 2.3241-1.9812.8382-4.2291.8382-3.047999 0-5.486399-1.1049-2.4003-1.1049-4.0767-3.0099-1.6383-1.943102-2.5146-4.533902-.8763-2.6289-.8763-5.600699zM-58.845421 90.427369q0 2.971799-.8763 5.600699-.8763 2.5908-2.5527 4.533902-1.6383 1.905-4.0386 3.0099-2.4003 1.1049-5.4483 1.1049-3.047999 0-5.486399-1.1049-2.4003-1.1049-4.0767-3.0099-1.6383-1.943102-2.5146-4.533902-.8763-2.6289-.8763-5.600699 0-2.9718.8763-5.5626.8763-2.6289 2.5146-4.5339 1.6764-1.9431 4.0767-3.048 2.4384-1.1049 5.486399-1.1049 3.048 0 5.4483 1.1049 2.4003 1.1049 4.0386 3.048 1.6764 1.905 2.5527 4.5339.8763 2.5908.8763 5.5626zm-24.193499 0q0 2.628899.762 4.952999t2.2098 4.0767q1.4478 1.714502 3.5433 2.743202 2.0955 1.0287 4.762499 1.0287 2.667 0 4.7244-1.0287 2.0955-1.0287 3.5433-2.743202 1.4478-1.7526 2.2098-4.0767.762-2.3241.762-4.952999 0-2.6289-.762-4.953-.762-2.3241-2.2098-4.0386-1.4478-1.7526-3.5433-2.7813-2.0574-1.0287-4.7244-1.0287-2.666999 0-4.762499 1.0287t-3.5433 2.7813q-1.4478 1.7145-2.2098 4.0386-.762 2.3241-.762 4.953zM-55.293192 76.825669h2.0955l17.1831 24.955501h.0762V76.825669h1.6764v27.203401h-1.9812l-17.2974-25.146001h-.0762v25.146001h-1.6764zM-32.405213 78.273469v-1.4478h20.840699v1.4478h-9.6012v25.755601h-1.6764V78.273469ZM-4.5743446 76.825669h1.8288L7.9986549 104.02907H6.207955l-3.4289999-8.724902H-10.251244l-3.4671 8.724902h-1.7907zm6.8198998 17.030699-5.8292998-15.392399h-.0762l-6.0578998 15.392399zM8.2242434 90.427369q0-2.9718.8763-5.5626.8762999-2.6289 2.5145996-4.5339 1.6764-1.9431 4.0767-3.048 2.4384-1.1049 5.4864-1.1049 2.4003 0 4.1529.6477 1.7526.6096 2.9337 1.5621 1.2192.9144 1.9812 2.0193.761999 1.1049 1.142999 2.0955.4191.9525.5715 1.6764.1524.6858.1524.762h-1.676399q-.2667-1.7145-1.1049-3.048-.8382-1.3716-2.0955-2.3241-1.2573-.9525-2.8194-1.4478-1.524-.4953-3.2385-.4953-2.667 0-4.7625 1.0287-2.0955 1.0287-3.5433 2.7813-1.4478 1.7145-2.2098 4.0386-.7619997 2.3241-.7619997 4.953 0 2.628899.7619997 4.952999.762 2.3241 2.2098 4.0767 1.4478 1.714502 3.5433 2.743202 2.0955 1.0287 4.7625 1.0287 1.9812 0 3.6957-.8001 1.7526-.8382 3.048-2.1717 1.2954-1.371602 2.0574-3.124202.8001-1.7907.914399-3.6957h1.6764q-.2286 2.4384-1.2192 4.4958-.952499 2.0574-2.476499 3.581402-1.4859 1.4859-3.4671 2.3241-1.9812.8382-4.2291.8382-3.048 0-5.4864-1.1049-2.4003-1.1049-4.0767-3.0099-1.6382997-1.943102-2.5145996-4.533902-.8763-2.6289-.8763-5.600699zM32.175513 78.273469v-1.4478h20.840699v1.4478h-9.601199v25.755601h-1.6764V78.273469Z" style="font-weight:200;font-family:'Helvetica Neue';-inkscape-font-specification:'Helvetica Neue Ultra-Light'" transform="translate(121.753001 -76.177969)"/></g></g></svg>