<svg width="179.804mm" height="28.498798mm" viewBox="0 0 179.80394 28.498791" xmlns="http://www.w3.org/2000/svg"><g style="display:inline"><g style="fill:none;fill-opacity:1"><text xml:space="preserve" style="font-size:5.64444px;line-height:1.25;font-family:Lato;-inkscape-font-specification:'Lato, Normal';letter-spacing:0;display:inline;fill:none;fill-opacity:1;stroke-width:.264583" x="118.29476" y="280.90973" transform="matrix(.26458 0 0 .26458 190.479379 153.94663)"><tspan style="font-style:normal;font-variant:normal;font-weight:700;font-stretch:normal;font-size:5.64444px;font-family:Lato;-inkscape-font-specification:'Lato Bold';text-align:center;text-anchor:middle;fill:none;fill-opacity:1;stroke-width:.264583" x="118.29476" y="280.90973"><tspan style="font-style:normal;font-variant:normal;font-weight:700;font-stretch:normal;font-size:4.93889px;font-family:Lato;-inkscape-font-specification:'Lato Bold';text-align:start;text-anchor:start;fill:none;fill-opacity:1">SOFTWARESYSTEME</tspan> </tspan></text><text xml:space="preserve" style="font-size:4.23333px;line-height:1.25;font-family:Lato;-inkscape-font-specification:'Lato, Normal';letter-spacing:0;display:inline;fill:none;fill-opacity:1;stroke-width:.264583" x="111.48794" y="273.86356" transform="matrix(.26458 0 0 .26458 190.479379 153.94663)"><tspan style="font-style:normal;font-variant:normal;font-weight:400;font-stretch:normal;font-size:4.23333px;font-family:Lato;-inkscape-font-specification:Lato;text-align:start;text-anchor:start;fill:none;fill-opacity:1;stroke-width:.264583" x="111.48794" y="273.86356">INGENIEURBÜRO</tspan></text><g style="fill:none;fill-opacity:1"><g aria-label="//" style="font-size:22.5778px;line-height:1.25;font-family:Lato;-inkscape-font-specification:'Lato, Normal';letter-spacing:0;fill:none;fill-opacity:1;stroke-width:.264583"><path d="M87.38547 33.581134q-.135466.3048-.361244.530578-.214489.225778-.474134.372534-.259645.158045-.541867.237067-.270934.07902-.51929.07902h-1.444979l7.69903-16.459217q.259645-.564445.756356-.857956.496712-.293511 1.095024-.293511h1.422401zM94.044158 33.581134q-.135467.3048-.361245.530578-.214489.225778-.474134.372534-.259645.158045-.541867.237067-.270934.07902-.51929.07902h-1.444979l7.69903-16.459217q.259645-.564445.756356-.857956.496712-.293511 1.095021-.293511h1.4224z" style="font-style:italic;font-weight:900;-inkscape-font-specification:'Lato Heavy Italic';fill:none;fill-opacity:1" transform="matrix(.26458 0 0 .26458 199.44027743 215.3471401)"/></g><text xml:space="preserve" style="font-size:22.5778px;line-height:1.25;font-family:Lato;-inkscape-font-specification:'Lato, Normal';letter-spacing:0;fill:none;fill-opacity:1;stroke-width:.264583" x="56.741013" y="240.07968" transform="matrix(.26458 0 0 .26458 212.39251223 160.85592812)"><tspan style="font-style:italic;font-variant:normal;font-weight:900;font-stretch:normal;font-size:22.5778px;font-family:Lato;-inkscape-font-specification:'Lato Heavy Italic';fill:none;fill-opacity:1;stroke-width:.264583" x="56.741013" y="240.07968">JE</tspan></text></g></g><g aria-label="PROJECTS" style="font-size:38.1px;line-height:1.25;font-family:'PT Sans';-inkscape-font-specification:'PT Sans';text-align:center;letter-spacing:0;text-anchor:middle;display:inline;fill:#fff;stroke-width:.264583"><path d="M-89.751499 39.515H-78.1691q1.143 0 2.5146.2667 1.4097.2667 2.5908 1.1049 1.2192.8001 2.0193 2.3241.8001 1.4859.8001 3.9243 0 3.5814-2.2098 5.5245-2.2098 1.9431-6.3246 1.9431h-9.296399v12.115799h-1.6764zm1.6764 13.6398H-78.512q1.8288 0 3.0861-.5334 1.2954-.5715 2.0574-1.4478.762-.8763 1.1049-1.9431.3429-1.0668.3429-2.1336 0-.762-.2286-1.7907-.2286-1.0668-.9144-2.0193-.6858-.9906-1.9431-1.6383-1.2192-.6858-3.2766-.6858h-9.791699zM-67.204039 39.515h11.3538q1.7907 0 3.3528.381 1.5621.3429 2.7432 1.1811 1.1811.8001 1.8288 2.1336.6858 1.3335.6858 3.3147 0 2.7432-1.5621 4.6482-1.524 1.8669-4.2672 2.3241v.0762q1.8669.2286 2.9337.9906 1.1049.762 1.6383 1.866899.5334 1.1049.6858 2.4384.1524 1.3335.1524 2.667v1.5621q0 .762.0762 1.4478.0762.6477.2286 1.2192.1905.5715.4953.9525h-1.8669q-.5334-.9525-.6096-2.2098-.0381-1.2954-.0381-2.667 0-1.3716-.1143-2.7051-.1143-1.3716-.7239-2.4384-.6096-1.0668-1.9431-1.714499-1.2954-.6477-3.6957-.6477h-9.6774v12.382499h-1.6764zm11.3538 13.3731q1.4859 0 2.7432-.3429 1.2954-.381 2.2098-1.143.9144-.762 1.4478-1.9431t.5334-2.8194q0-1.524-.5715-2.5908-.5715-1.1049-1.524-1.7907t-2.2098-.9906q-1.2573-.3048-2.6289-.3048h-9.6774v11.9253zM-18.517598 53.1167q0 2.971799-.8763 5.600699-.8763 2.5908-2.5527 4.5339-1.6383 1.905-4.038599 3.0099-2.4003 1.1049-5.4483 1.1049-3.048 0-5.4864-1.1049-2.4003-1.1049-4.0767-3.0099-1.6383-1.9431-2.5146-4.5339-.8763-2.6289-.8763-5.600699 0-2.9718.8763-5.5626.8763-2.6289 2.5146-4.5339 1.6764-1.9431 4.0767-3.048 2.4384-1.1049 5.4864-1.1049 3.048 0 5.4483 1.1049 2.400299 1.1049 4.038599 3.048 1.6764 1.905 2.5527 4.5339.8763 2.5908.8763 5.5626zm-24.193499 0q0 2.628899.762 4.952999t2.2098 4.0767q1.4478 1.7145 3.5433 2.7432t4.7625 1.0287q2.667 0 4.7244-1.0287 2.0955-1.0287 3.543299-2.7432 1.4478-1.7526 2.2098-4.0767.762-2.3241.762-4.952999 0-2.6289-.762-4.953-.762-2.3241-2.2098-4.0386-1.447799-1.7526-3.543299-2.7813-2.0574-1.0287-4.7244-1.0287-2.667 0-4.7625 1.0287-2.0955 1.0287-3.5433 2.7813-1.4478 1.7145-2.2098 4.0386-.762 2.3241-.762 4.953zM-9.0979665 65.918299q2.3240999 0 3.5432999-.762 1.2572999-.762 1.7906999-1.9431.5334-1.1811.5715-2.6289.0762-1.4859.0762-2.8956V39.515h1.6763999v18.745199q0 .8001-.0381 1.7907 0 .9906-.2286 2.0193-.1905.9906-.6477 1.9431-.4191.9525-1.2572999 1.7145-.8382.7239-2.1335999 1.1811-1.2573.4572-3.1622999.4572-2.7431995 0-4.3052995-.8763-1.5621-.8763-2.3241-2.2479-.7239-1.3716-.9144-3.0099-.1524-1.6383-.1524-3.1623h1.6764q-.1143 1.524.0381 2.9337t.762 2.5146q.6096 1.0668 1.7907 1.7526 1.2192.6477 3.2384995.6477zM3.3404885 39.515H21.628488v1.4478H5.0168885v10.8966H20.637888v1.4478H5.0168885v11.963399H21.818988v1.4478H3.3404885ZM23.668623 53.1167q0-2.9718.8763-5.5626.8763-2.6289 2.5146-4.5339 1.6764-1.9431 4.0767-3.048 2.4384-1.1049 5.486399-1.1049 2.4003 0 4.1529.6477 1.7526.6096 2.9337 1.5621 1.2192.9144 1.9812 2.0193.762 1.1049 1.143 2.0955.4191.9525.5715 1.6764.1524.6858.1524.762h-1.6764q-.2667-1.7145-1.1049-3.048-.8382-1.3716-2.0955-2.3241-1.2573-.9525-2.8194-1.4478-1.524-.4953-3.2385-.4953-2.666999 0-4.762499 1.0287t-3.5433 2.7813q-1.4478 1.7145-2.2098 4.0386-.762 2.3241-.762 4.953 0 2.628899.762 4.952999t2.2098 4.0767q1.4478 1.7145 3.5433 2.7432t4.762499 1.0287q1.9812 0 3.6957-.8001 1.7526-.8382 3.048-2.1717 1.2954-1.3716 2.0574-3.1242.8001-1.7907.9144-3.6957h1.6764q-.2286 2.4384-1.2192 4.4958-.9525 2.0574-2.4765 3.5814-1.4859 1.4859-3.4671 2.3241-1.9812.8382-4.2291.8382-3.047999 0-5.486399-1.1049-2.4003-1.1049-4.0767-3.0099-1.6383-1.9431-2.5146-4.5339-.8763-2.6289-.8763-5.600699zM47.64903 40.9628V39.515h20.840699v1.4478h-9.6012v25.755599h-1.6764V40.9628ZM87.690295 47.2874q-.0762-1.7526-.762-3.048-.6477-1.2954-1.7907-2.1717-1.143-.8763-2.7432-1.2954-1.5621-.4572-3.429-.4572-1.143 0-2.4765.2667-1.295399.2667-2.438399.9525-1.1049.6477-1.8288 1.7907-.7239 1.1049-.7239 2.7813 0 1.6383.8001 2.667.8001 1.0287 2.0955 1.6764 1.2954.6096 2.971799.9906 1.6764.381 3.3909.7239 1.7526.3429 3.3909.8382 1.6764.4572 2.9718 1.2954 1.3335.8001 2.1336 2.133599.8001 1.2954.8001 3.2766 0 2.1336-.9144 3.5814t-2.3241 2.3622q-1.3716.9144-3.0861 1.2954-1.6764.4191-3.2385.4191-2.4003 0-4.4958-.5334-2.095499-.4953-3.657599-1.6383-1.5621-1.1811-2.4765-3.0099-.8763-1.8288-.8382-4.4577h1.6764q-.1143 2.2479.6477 3.81.762 1.524 2.0955 2.5146 1.3716.9906 3.200399 1.4478 1.8288.4191 3.8481.4191 1.2192 0 2.5908-.3048 1.4097-.3048 2.5527-1.0287 1.1811-.7239 1.9431-1.905.8001-1.1811.8001-2.9718 0-1.7145-.8001-2.7813-.8001-1.1049-2.1336-1.752599-1.2954-.6858-2.9718-1.0668-1.6383-.4191-3.3909-.762-1.7145-.3429-3.390899-.8001-1.6764-.4572-2.9718-1.2192-1.2954-.8001-2.0955-2.0193-.8001-1.2573-.8001-3.2004t.8001-3.3147q.8382-1.4097 2.1336-2.2479 1.3335-.8763 2.9718-1.2573 1.638299-.4191 3.238499-.4191 2.1336 0 3.9624.4953 1.8669.4572 3.2385 1.4859 1.4097.9906 2.2479 2.5908.8382 1.6002.9525 3.8481z" style="font-weight:200;font-family:'Helvetica Neue';-inkscape-font-specification:'Helvetica Neue Ultra-Light'" transform="translate(89.751499 -38.8673)"/></g></g></svg>