<svg width="176.38513mm" height="28.498798mm" viewBox="0 0 176.38507 28.49879" xmlns="http://www.w3.org/2000/svg"><g style="display:inline"><g aria-label="PROJEKTE" style="font-size:38.1px;line-height:1.25;font-family:'PT Sans';-inkscape-font-specification:'PT Sans';text-align:center;letter-spacing:0;text-anchor:middle;display:inline;fill:#fff;stroke-width:.264583"><path d="M-65.449187-57.080684h11.582399q1.143 0 2.5146.2667 1.4097.2667 2.5908 1.1049 1.2192.8001 2.0193 2.3241.8001 1.4859.8001 3.9243 0 3.5814-2.2098 5.5245-2.2098 1.943099-6.3246 1.943099h-9.296399v12.1158h-1.6764zm1.6764 13.6398h9.563099q1.8288 0 3.0861-.5334 1.2954-.5715 2.0574-1.4478.762-.8763 1.1049-1.9431.3429-1.0668.3429-2.1336 0-.762-.2286-1.7907-.2286-1.0668-.9144-2.0193-.6858-.9906-1.9431-1.6383-1.2192-.6858-3.2766-.6858h-9.791699zM-42.901727-57.080684h11.3538q1.7907 0 3.3528.381 1.5621.3429 2.7432 1.1811 1.1811.8001 1.8288 2.1336.6858 1.3335.6858 3.3147 0 2.7432-1.5621 4.6482-1.524 1.8669-4.2672 2.3241v.0762q1.8669.2286 2.9337.990599 1.1049.762 1.6383 1.8669.5334 1.1049.6858 2.4384.1524 1.3335.1524 2.667v1.5621q0 .762.0762 1.4478.0762.6477.2286 1.2192.1905.5715.495299.9525h-1.866899q-.5334-.9525-.6096-2.2098-.0381-1.2954-.0381-2.667 0-1.3716-.1143-2.7051-.1143-1.3716-.7239-2.4384-.6096-1.0668-1.9431-1.7145-1.2954-.6477-3.6957-.6477h-9.6774v12.3825h-1.6764zm11.3538 13.3731q1.4859 0 2.7432-.3429 1.2954-.381 2.2098-1.143.9144-.762 1.4478-1.9431t.5334-2.8194q0-1.524-.5715-2.5908-.5715-1.1049-1.524-1.7907t-2.2098-.9906q-1.2573-.3048-2.6289-.3048h-9.6774v11.9253zM5.7847141-43.478984q0 2.971799-.8762999 5.600699-.8763 2.5908-2.5526999 4.5339-1.63829997 1.905-4.0385999 3.0099-2.4002999 1.1049-5.4482998 1.1049-3.0479996 0-5.4863996-1.1049-2.4003-1.1049-4.0767-3.0099-1.6383-1.9431-2.5146-4.5339-.8763-2.6289-.8763-5.600699 0-2.9718.8763-5.5626.8763-2.6289 2.5146-4.5339 1.6764-1.9431 4.0767-3.048 2.4384-1.1049 5.4863996-1.1049 3.0479999 0 5.4482998 1.1049 2.40029993 1.1049 4.0385999 3.048 1.6763999 1.905 2.5526999 4.5339.8762999 2.5908.8762999 5.5626zm-24.1934991 0q0 2.628899.762 4.952999t2.2098 4.0767q1.4478 1.7145 3.5433 2.7432 2.0954998 1.0287 4.7624996 1.0287 2.6669999 0 4.7243999-1.0287 2.09549987-1.0287 3.5432998-2.7432 1.4478-1.7526 2.2097999-4.0767.762-2.3241.762-4.952999 0-2.6289-.762-4.953-.7619999-2.3241-2.2097999-4.0386-1.44779993-1.7526-3.5432998-2.7813-2.0574-1.0287-4.7243999-1.0287-2.6669998 0-4.7624996 1.0287-2.0955 1.0287-3.5433 2.7813-1.4478 1.7145-2.2098 4.0386-.762 2.3241-.762 4.953zM15.204345-30.677385q2.3241 0 3.5433-.762 1.2573-.762 1.7907-1.9431.5334-1.1811.5715-2.6289.0762-1.4859.0762-2.8956v-18.173699h1.6764v18.745199q0 .8001-.0381 1.7907 0 .9906-.2286 2.0193-.1905.9906-.6477 1.9431-.4191.9525-1.2573 1.7145-.8382.7239-2.1336 1.1811-1.2573.4572-3.1623.4572-2.7432 0-4.3053-.8763-1.5620994-.8763-2.3240994-2.2479-.7239-1.3716-.9144-3.0099-.1524-1.6383-.1524-3.1623h1.6764q-.1143 1.524.0381 2.9337t.7620004 2.5146q.6096 1.0668 1.790699 1.7526 1.2192.6477 3.2385.6477zM27.6428-57.080684h18.288v1.4478H29.3192v10.8966h15.621v1.4478h-15.621v11.963399h16.8021v1.4478H27.6428ZM48.999635-57.080684h1.6764v15.659099l17.106899-15.659099h2.1717l-12.4206 11.3157 13.1826 15.887699h-2.0955l-12.3063-14.744699-5.638799 5.143499v9.6012h-1.6764z" style="font-weight:200;font-family:'Helvetica Neue';-inkscape-font-specification:'Helvetica Neue Ultra-Light'" transform="translate(65.449187 57.728384)"/><path d="M69.695085-55.632884v-1.4478h20.840699v1.4478h-9.601199v25.755599h-1.6764v-25.755599zM92.457444-57.080684h18.287996v1.4478H94.133844v10.8966h15.620996v1.4478H94.133844v11.963399h16.802096v1.4478H92.457444Z" style="font-weight:200;font-family:'Helvetica Neue';-inkscape-font-specification:'Helvetica Neue Ultra-Light'" transform="translate(65.449187 57.728384)"/></g></g></svg>