<svg width="199.72734mm" height="104.184" viewBox="0 0 199.72727 27.565342" xmlns="http://www.w3.org/2000/svg"><g style="display:inline"><g style="fill:none;fill-opacity:1"><text xml:space="preserve" style="font-size:5.64444px;line-height:1.25;font-family:Lato;-inkscape-font-specification:'Lato, Normal';letter-spacing:0;display:inline;fill:none;fill-opacity:1;stroke-width:.264583" x="118.29476" y="280.90973" transform="matrix(.26458 0 0 .26458 185.270252 194.4046767)"><tspan style="font-style:normal;font-variant:normal;font-weight:700;font-stretch:normal;font-size:5.64444px;font-family:Lato;-inkscape-font-specification:'Lato Bold';text-align:center;text-anchor:middle;fill:none;fill-opacity:1;stroke-width:.264583" x="118.29476" y="280.90973"><tspan style="font-style:normal;font-variant:normal;font-weight:700;font-stretch:normal;font-size:4.93889px;font-family:Lato;-inkscape-font-specification:'Lato Bold';text-align:start;text-anchor:start;fill:none;fill-opacity:1">SOFTWARESYSTEME</tspan> </tspan></text><text xml:space="preserve" style="font-size:4.23333px;line-height:1.25;font-family:Lato;-inkscape-font-specification:'Lato, Normal';letter-spacing:0;display:inline;fill:none;fill-opacity:1;stroke-width:.264583" x="111.48794" y="273.86356" transform="matrix(.26458 0 0 .26458 185.270252 194.4046767)"><tspan style="font-style:normal;font-variant:normal;font-weight:400;font-stretch:normal;font-size:4.23333px;font-family:Lato;-inkscape-font-specification:Lato;text-align:start;text-anchor:start;fill:none;fill-opacity:1;stroke-width:.264583" x="111.48794" y="273.86356">INGENIEURBÜRO</tspan></text><g style="fill:none;fill-opacity:1"><g aria-label="//" style="font-size:22.5778px;line-height:1.25;font-family:Lato;-inkscape-font-specification:'Lato, Normal';letter-spacing:0;fill:none;fill-opacity:1;stroke-width:.264583"><path d="M87.38547 33.581134q-.135466.3048-.361244.530578-.214489.225778-.474134.372534-.259645.158045-.541867.237067-.270934.07902-.51929.07902h-1.444979l7.69903-16.459217q.259645-.564445.756356-.857956.496712-.293511 1.095024-.293511h1.422401zM94.044158 33.581134q-.135467.3048-.361245.530578-.214489.225778-.474134.372534-.259645.158045-.541867.237067-.270934.07902-.51929.07902h-1.444979l7.69903-16.459217q.259645-.564445.756356-.857956.496712-.293511 1.095021-.293511h1.4224z" style="font-style:italic;font-weight:900;-inkscape-font-specification:'Lato Heavy Italic';fill:none;fill-opacity:1" transform="matrix(.26458 0 0 .26458 194.23115043 255.8051868)"/></g><text xml:space="preserve" style="font-size:22.5778px;line-height:1.25;font-family:Lato;-inkscape-font-specification:'Lato, Normal';letter-spacing:0;fill:none;fill-opacity:1;stroke-width:.264583" x="56.741013" y="240.07968" transform="matrix(.26458 0 0 .26458 207.18338523 201.31397482)"><tspan style="font-style:italic;font-variant:normal;font-weight:900;font-stretch:normal;font-size:22.5778px;font-family:Lato;-inkscape-font-specification:'Lato Heavy Italic';fill:none;fill-opacity:1;stroke-width:.264583" x="56.741013" y="240.07968">JE</tspan></text></g></g><g aria-label="PORTFOLIO" style="font-size:33.8667px;line-height:1.25;font-family:Lato;-inkscape-font-specification:'Lato, Normal';text-align:center;letter-spacing:2.64583px;text-anchor:middle;fill:#fff;stroke-width:.264583"><g aria-label="PROJECTS" style="font-size:38.1px;-inkscape-font-specification:Lato;letter-spacing:0;stroke-width:.0700042"><path d="M-72.574244 14.173315v10.8585h-1.9431V-1.9239343h6.95325q4.74345 0 7.14375 2.07644987 2.41935 2.07644993 2.41935 5.92454973 0 1.77165-.66675 3.2575499-.6477 1.4858998-1.88595 2.5717498-1.23825 1.0668-3.0099 1.6764-1.77165.59055-4.0005.59055zm0-1.5621h5.01015q1.7907 0 3.2004-.4953 1.4097-.4953 2.38125-1.3716.9906-.8762998 1.50495-2.0573998.5334-1.2001499.5334-2.6098499 0-3.1051498-1.92405-4.7815498-1.905-1.67639991-5.69595-1.67639991h-5.01015zM-49.952371 12.839815v12.192h-1.9431V-1.9239343h6.87705q4.66725 0 6.9723 1.80974988 2.30505 1.79069992 2.30505 5.27684982 0 1.5430499-.5334 2.8193999-.5334 1.2763499-1.54305 2.2478997-.9906.9525-2.4003 1.58115-1.4097.6096-3.18135.8001.4572.28575.81915.762l9.27735 11.6586h-1.69545q-.3048 0-.5334-.1143-.20955-.1143-.4191-.381l-8.62965-10.9347q-.32385-.4191-.70485-.59055-.36195-.17145-1.143-.17145zm0-1.4478h4.6863q1.7907 0 3.2004-.4191 1.42875-.43815 2.4003-1.2382498.9906-.8001 1.50495-1.9240499.51435-1.12395.51435-2.5336499 0-2.8765499-1.88595-4.2671999-1.88595-1.39064991-5.4864-1.39064991h-4.93395zM-5.2086857 11.544415q0 3.1242-.93345 5.6769-.9334499 2.53365-2.6288999 4.3434-1.6954494 1.7907-4.0576494 2.7813-2.3622.97155-5.23875.97155-2.83845 0-5.20065-.97155-2.3622-.9906-4.05765-2.7813-1.69545-1.80975-2.64795-4.3434-.93345-2.5527-.93345-5.6769 0-3.1051498.93345-5.6387997.9525-2.5526999 2.64795-4.3433998 1.69545-1.80974991 4.05765-2.8003499 2.3622-.9905999 5.20065-.9905999 2.87655 0 5.23875.9905999 2.3622.97154999 4.0576494 2.7812999 1.69545 1.8097499 2.6288999 4.3624498.93345 2.5336499.93345 5.6387997zm-2.0192999 0q0-2.8193998-.78105-5.0672997-.78105-2.2478999-2.2098004-3.8099998-1.409699-1.5621-3.409949-2.38124993-2.00025-.83819997-4.43865-.83819997-2.4003 0-4.40055.83819997-1.9812.81914993-3.429 2.38124993-1.42875 1.5620999-2.22885 3.8099998-.78105 2.2478999-.78105 5.0672997 0 2.83845.78105 5.08635.8001 2.22885 2.22885 3.79095 1.4478 1.5621 3.429 2.38125 2.00025.81915 4.40055.81915 2.4384 0 4.43865-.81915t3.409949-2.38125q1.4287504-1.5621 2.2098004-3.79095.78105-2.2479.78105-5.08635zM10.40755 16.040215q0 2.26695-.5714999 4.0005-.55245 1.73355-1.6001999 2.91465-1.0287 1.1811-2.5336499 1.7907-1.4859.59055-3.3527999.59055-.8572499 0-1.73354991-.13335-.87629997-.13335-1.80974989-.4191.0381-.2667.05715-.5334.0381-.2667.05715-.5334.0381-.17145.13334995-.3048.1143-.13335.38099999-.13335.17144999 0 .40004998.0762.24764999.05715.57149998.13335.34289998.0762.762.1524.4381499.05715 1.0096499.05715 1.4478 0 2.6098499-.4572 1.16205-.4572 1.9811999-1.39065.81915-.9525 1.23825-2.38125.43815-1.4478.43815-3.3909V-1.9239343H10.40755ZM34.529611-1.9239343v1.61924989h-14.19225V10.591915h11.811v1.58115h-11.811v11.2395h14.19225v1.61925h-16.1544V-1.9239343ZM60.506073 20.497915q.1905 0 .32385.13335l.762.81915q-.8382.89535-1.8288 1.61925-.9906.70485-2.1717 1.2192-1.16205.4953-2.57175.762-1.39065.28575-3.06705.28575-2.800349 0-5.143499-.97155-2.3241-.9906-4.0005-2.7813-1.65735-1.80975-2.5908-4.36245-.93345-2.5527-.93345-5.6769 0-3.0670498.9525-5.6006997.97155-2.5336499 2.7051-4.3433998 1.7526-1.82879991 4.17195-2.8193999 2.4384-1.0096499 5.372099-1.0096499 1.46685 0 2.68605.2286 1.2192.2095499 2.26695.6286499 1.0668.40005002 2.00025 1.00964999.93345.60959998 1.8288 1.40969991l-.59055.85725q-.1524.2286-.47625.2286-.17145 0-.43815-.1905-.2667-.20955-.6858-.4953-.40005-.3048-.9906-.64769995-.5715-.36194999-1.3716-.64769998-.8001-.30479999-1.84785-.49529998-1.04775-.20954999-2.38125-.20954999-2.457449 0-4.514849.85724997-2.0574.83819993-3.5433 2.41934993-1.4859 1.5620999-2.3241 3.8099998-.81915 2.2288499-.81915 5.0101497 0 2.8575.81915 5.1054.81915 2.2479 2.26695 3.81 1.4478 1.54305 3.40995 2.38125 1.9812.81915 4.286249.81915 1.4478 0 2.57175-.1905 1.143-.1905 2.0955-.5715.9525-.381 1.77165-.93345.81915-.55245 1.61925-1.2954.09525-.0762.17145-.1143.09525-.05715.20955-.05715zM85.313936-1.9239343v1.65734989h-9.46785V25.031815h-1.9431V-.26658441h-9.524999V-1.9239343ZM102.99174 1.3526655q-.17145.32385-.4953.32385-.24765 0-.6477-.3429-.381-.36194996-1.04775-.78104994-.66675-.43814999-1.676402-.80009997-.9906-.36194999-2.45745-.36194999t-2.5908.41909999q-1.1049.41909998-1.8669 1.14299995-.74295.72389996-1.143 1.67639996-.381.9524999-.381 2.0002499 0 1.3715999.5715 2.2669499.59055.89535 1.54305 1.5239999.9525.62865 2.15265 1.0668 1.2192.4191 2.49555.8381998 1.27635.4191 2.4765.93345 1.219202.4953 2.171702 1.2573.9525.762 1.524 1.88595.59055 1.1049.59055 2.76225 0 1.69545-.59055 3.2004-.5715 1.4859-1.6764 2.5908-1.1049 1.1049-2.705102 1.7526-1.6002.62865-3.6576.62865-2.667 0-4.59105-.93345-1.92405-.9525-3.37185-2.5908l.5334-.8382q.2286-.28575.5334-.28575.17145 0 .43815.2286t.6477.5715q.381.32385.9144.7239.5334.381 1.23825.7239.70485.32385 1.61925.55245.9144.2286 2.07645.2286 1.6002 0 2.8575-.47625 1.2573-.4953 2.114552-1.3335.8763-.8382 1.3335-1.9812.4572-1.16205.4572-2.4765 0-1.42875-.59055-2.34315-.5715-.93345-1.524-1.54305-.952502-.62865-2.171702-1.04775-1.20015-.4191-2.4765-.81915-1.27635-.40005-2.49555-.89535-1.20015-.4953-2.15265-1.2572998-.9525-.78105-1.54305-1.9240499-.5715-1.16205-.5715-2.8955999 0-1.35255.51435-2.6098499.51435-1.25729996 1.50495-2.20979992.9906-.97154998 2.4384-1.54304998 1.46685-.5905499 3.33375-.5905499 2.0955 0 3.752852.6667499 1.6764.66675001 3.048 2.03834996z" style="font-weight:300;-inkscape-font-specification:'Lato Light'" transform="translate(86.4563351 2.22873438)"/></g></g></g></svg>