<svg width="157.47325mm" height="28.498798mm" viewBox="0 0 157.4732 28.49879" xmlns="http://www.w3.org/2000/svg"><g style="display:inline"><g aria-label="KONTAKT" style="font-size:38.1px;line-height:1.25;font-family:'PT Sans';-inkscape-font-specification:'PT Sans';text-align:center;letter-spacing:0;text-anchor:middle;display:inline;fill:#fff;stroke-width:.264583"><path d="M-81.930508 17.541627h1.6764v15.659099l17.1069-15.659099h2.171699l-12.420599 11.315699 13.182599 15.8877h-2.0955l-12.306299-14.7447-5.6388 5.1435v9.6012h-1.6764z" style="font-weight:200;font-family:'Helvetica Neue';-inkscape-font-specification:'Helvetica Neue Ultra-Light'" transform="translate(81.930508 -16.893927)"/><path d="M-34.817445 31.143326q0 2.9718-.876299 5.6007-.8763 2.5908-2.5527 4.5339-1.6383 1.905-4.0386 3.0099-2.4003 1.1049-5.4483 1.1049-3.048 0-5.4864-1.1049-2.4003-1.1049-4.0767-3.0099-1.6383-1.9431-2.5146-4.5339-.876299-2.6289-.876299-5.6007t.876299-5.5626q.8763-2.628899 2.5146-4.533899 1.6764-1.9431 4.0767-3.048 2.4384-1.1049 5.4864-1.1049 3.048 0 5.4483 1.1049 2.4003 1.1049 4.0386 3.048 1.6764 1.905 2.5527 4.533899.876299 2.5908.876299 5.5626zm-24.193499 0q0 2.6289.762 4.953.762 2.3241 2.2098 4.0767 1.4478 1.7145 3.5433 2.7432t4.7625 1.0287q2.667 0 4.7244-1.0287 2.0955-1.0287 3.5433-2.7432 1.4478-1.7526 2.2098-4.0767.762-2.3241.762-4.953 0-2.6289-.762-4.953-.762-2.3241-2.2098-4.038599-1.4478-1.7526-3.5433-2.7813-2.0574-1.0287-4.7244-1.0287-2.667 0-4.7625 1.0287-2.0955 1.0287-3.5433 2.7813-1.4478 1.714499-2.2098 4.038599-.762 2.3241-.762 4.953zM-31.254532 17.541627h2.0955l17.183099 24.955499h.0762V17.541627h1.6764v27.203399h-1.9812l-17.297399-25.145999h-.0762v25.145999h-1.6764zM-8.3665575 18.989427v-1.4478H12.474142v1.4478H2.8729421v25.755599h-1.6764V18.989427ZM19.464319 17.541627h1.8288l10.744199 27.203399h-1.7907l-3.428999-8.7249h-13.0302l-3.4671 8.7249H8.5296193Zm6.8199 17.030699-5.8293-15.392399h-.0762l-6.0579 15.392399zM34.006596 17.541627h1.676399v15.659099l17.1069-15.659099h2.1717l-12.4206 11.315699 13.1826 15.8877h-2.0955l-12.3063-14.7447-5.6388 5.1435v9.6012h-1.676399z" style="font-weight:200;font-family:'Helvetica Neue';-inkscape-font-specification:'Helvetica Neue Ultra-Light'" transform="translate(81.930508 -16.893927)"/><path d="M54.702046 18.989427v-1.4478h20.840699v1.4478h-9.601199v25.755599h-1.6764V18.989427Z" style="font-weight:200;font-family:'Helvetica Neue';-inkscape-font-specification:'Helvetica Neue Ultra-Light'" transform="translate(81.930508 -16.893927)"/></g></g></svg>