<svg width="200.69472mm" height="104.184" viewBox="0 0 200.69465 27.565342" xmlns="http://www.w3.org/2000/svg"><g style="display:inline"><g style="fill:none;fill-opacity:1"><text xml:space="preserve" style="font-size:5.64444px;line-height:1.25;font-family:Lato;-inkscape-font-specification:'Lato, Normal';letter-spacing:0;display:inline;fill:none;fill-opacity:1;stroke-width:.264583" x="118.29476" y="280.90973" transform="matrix(.26458 0 0 .26458 183.539584 250.613531)"><tspan style="font-style:normal;font-variant:normal;font-weight:700;font-stretch:normal;font-size:5.64444px;font-family:Lato;-inkscape-font-specification:'Lato Bold';text-align:center;text-anchor:middle;fill:none;fill-opacity:1;stroke-width:.264583" x="118.29476" y="280.90973"><tspan style="font-style:normal;font-variant:normal;font-weight:700;font-stretch:normal;font-size:4.93889px;font-family:Lato;-inkscape-font-specification:'Lato Bold';text-align:start;text-anchor:start;fill:none;fill-opacity:1">SOFTWARESYSTEME</tspan> </tspan></text><text xml:space="preserve" style="font-size:4.23333px;line-height:1.25;font-family:Lato;-inkscape-font-specification:'Lato, Normal';letter-spacing:0;display:inline;fill:none;fill-opacity:1;stroke-width:.264583" x="111.48794" y="273.86356" transform="matrix(.26458 0 0 .26458 183.539584 250.613531)"><tspan style="font-style:normal;font-variant:normal;font-weight:400;font-stretch:normal;font-size:4.23333px;font-family:Lato;-inkscape-font-specification:Lato;text-align:start;text-anchor:start;fill:none;fill-opacity:1;stroke-width:.264583" x="111.48794" y="273.86356">INGENIEURBÜRO</tspan></text><g style="fill:none;fill-opacity:1"><g aria-label="//" style="font-size:22.5778px;line-height:1.25;font-family:Lato;-inkscape-font-specification:'Lato, Normal';letter-spacing:0;fill:none;fill-opacity:1;stroke-width:.264583"><path d="M87.38547 33.581134q-.135466.3048-.361244.530578-.214489.225778-.474134.372534-.259645.158045-.541867.237067-.270934.07902-.51929.07902h-1.444979l7.69903-16.459217q.259645-.564445.756356-.857956.496712-.293511 1.095024-.293511h1.422401zM94.044158 33.581134q-.135467.3048-.361245.530578-.214489.225778-.474134.372534-.259645.158045-.541867.237067-.270934.07902-.51929.07902h-1.444979l7.69903-16.459217q.259645-.564445.756356-.857956.496712-.293511 1.095021-.293511h1.4224z" style="font-style:italic;font-weight:900;-inkscape-font-specification:'Lato Heavy Italic';fill:none;fill-opacity:1" transform="matrix(.26458 0 0 .26458 192.50048243 312.0140411)"/></g><text xml:space="preserve" style="font-size:22.5778px;line-height:1.25;font-family:Lato;-inkscape-font-specification:'Lato, Normal';letter-spacing:0;fill:none;fill-opacity:1;stroke-width:.264583" x="56.741013" y="240.07968" transform="matrix(.26458 0 0 .26458 205.45271723 257.52282912)"><tspan style="font-style:italic;font-variant:normal;font-weight:900;font-stretch:normal;font-size:22.5778px;font-family:Lato;-inkscape-font-specification:'Lato Heavy Italic';fill:none;fill-opacity:1;stroke-width:.264583" x="56.741013" y="240.07968">JE</tspan></text></g></g><g aria-label="PORTFOLIO" style="font-size:33.8667px;line-height:1.25;font-family:Lato;-inkscape-font-specification:'Lato, Normal';text-align:center;letter-spacing:2.64583px;text-anchor:middle;fill:#fff;stroke-width:.264583"><g aria-label="PROJEKTE" style="font-size:38.1px;-inkscape-font-specification:Lato;letter-spacing:0;display:inline;stroke-width:.0700042"><path d="M-70.843576-42.03554v10.8585h-1.9431v-26.955749h6.95325q4.74345 0 7.14375 2.07645 2.41935 2.07645 2.41935 5.92455 0 1.77165-.66675 3.25755-.6477 1.485899-1.88595 2.571749-1.23825 1.0668-3.0099 1.6764-1.77165.59055-4.0005.59055zm0-1.5621h5.01015q1.7907 0 3.2004-.4953 1.4097-.4953 2.38125-1.3716.9906-.876299 1.50495-2.057399.5334-1.20015.5334-2.60985 0-3.10515-1.92405-4.78155-1.905-1.6764-5.69595-1.6764h-5.01015zM-48.221703-43.36904v12.192h-1.9431v-26.955749h6.87705q4.66725 0 6.9723 1.80975 2.30505 1.7907 2.30505 5.27685 0 1.54305-.5334 2.8194-.5334 1.27635-1.54305 2.247899-.9906.9525-2.4003 1.58115-1.4097.6096-3.18135.8001.4572.28575.81915.762l9.277349 11.6586h-1.69545q-.3048 0-.533399-.1143-.20955-.1143-.4191-.381l-8.62965-10.9347q-.32385-.4191-.70485-.59055-.36195-.17145-1.143-.17145zm0-1.4478h4.6863q1.7907 0 3.2004-.4191 1.42875-.43815 2.4003-1.238249.9906-.8001 1.50495-1.92405t.51435-2.53365q0-2.87655-1.88595-4.2672t-5.4864-1.39065h-4.93395zM-3.4780178-44.66444q0 3.1242-.93345 5.6769-.9334499 2.53365-2.6288999 4.3434-1.6954499 1.7907-4.0576503 2.7813-2.362199.97155-5.238749.97155-2.83845 0-5.20065-.97155-2.3622-.9906-4.05765-2.7813-1.69545-1.80975-2.64795-4.3434-.93345-2.5527-.93345-5.6769 0-3.105149.93345-5.638799.9525-2.5527 2.64795-4.3434 1.69545-1.80975 4.05765-2.80035 2.3622-.9906 5.20065-.9906 2.87655 0 5.238749.9906 2.3622004.97155 4.0576503 2.7813 1.69545 1.80975 2.6288999 4.36245.93345 2.53365.93345 5.638799zm-2.0192999 0q0-2.819399-.78105-5.067299t-2.2097999-3.81q-1.4097-1.5621-3.4099494-2.38125-2.00025-.8382-4.43865-.8382-2.4003 0-4.40055.8382-1.9812.81915-3.429 2.38125-1.42875 1.5621-2.22885 3.81-.78105 2.2479-.78105 5.067299 0 2.83845.78105 5.08635.8001 2.22885 2.22885 3.79095 1.4478 1.5621 3.429 2.38125 2.00025.81915 4.40055.81915 2.4384 0 4.43865-.81915 2.0002494-.81915 3.4099494-2.38125 1.4287499-1.5621 2.2097999-3.79095.78105-2.2479.78105-5.08635zM12.138218-40.16864q0 2.26695-.5715 4.0005-.55245 1.73355-1.6001999 2.91465-1.0287 1.1811-2.5336499 1.7907-1.4859.59055-3.3527999.59055-.85725 0-1.7335499-.13335-.8763-.13335-1.80974994-.4191.0381-.2667.05715-.5334.0381-.2667.05715-.5334.0381-.17145.13335-.3048.11429999-.13335.38099995-.13335.17145 0 .40005.0762.24765.05715.5715.13335.3429.0762.762.1524.4381499.05715 1.0096499.05715 1.4478 0 2.6098499-.4572 1.16205-.4572 1.9811999-1.39065.81915-.9525 1.23825-2.38125.4381499-1.4478.4381499-3.3909v-18.002249h1.96215zM36.260279-58.132789v1.61925h-14.19225v10.896599h11.811v1.58115h-11.811v11.2395h14.19225v1.61925h-16.1544v-26.955749zM45.167942-45.69314h1.6002q.36195 0 .62865-.01905.2667-.0381.47625-.1143.2286-.09525.4191-.2286.1905-.133349.40005-.342899l10.877549-11.18235q.3048-.3048.55245-.4191.2667-.13335.6477-.13335h1.58115l-11.7729 12.096749q-.36195.381-.647699.59055-.2667.20955-.6096.3429.40005.1143.70485.36195.323849.2286.647699.6096l12.4206 12.954h-1.58115q-.4953 0-.70485-.13335-.20955-.1524-.43815-.381l-11.410949-11.6586q-.20955-.20955-.381-.36195-.17145-.1524-.40005-.24765-.20955-.1143-.51435-.1524-.3048-.05715-.762-.05715h-1.73355v12.9921h-1.9431v-26.993849h1.9431zM85.407488-58.132789v1.65735h-9.46785v25.298399h-1.943099v-25.298399h-9.525v-1.65735zM106.20951-58.132789v1.61925H92.017256v10.896599h11.811004v1.58115H92.017256v11.2395h14.192254v1.61925H90.055106v-26.955749z" style="font-weight:300;-inkscape-font-specification:'Lato Light'" transform="translate(84.7256671 58.43758868)"/></g></g></g></svg>