<?xml version="1.0" encoding="UTF-8" standalone="no"?>
<svg
   xmlns:dc="http://purl.org/dc/elements/1.1/"
   xmlns:cc="http://creativecommons.org/ns#"
   xmlns:rdf="http://www.w3.org/1999/02/22-rdf-syntax-ns#"
   xmlns:svg="http://www.w3.org/2000/svg"
   xmlns="http://www.w3.org/2000/svg"
   id="svg78"
   version="1.1"
   viewBox="0 0 120 120"
   height="120mm"
   width="120mm">
  <defs
     id="defs72" />
  <metadata
     id="metadata75">
    <rdf:RDF>
      <cc:Work
         rdf:about="">
        <dc:format>image/svg+xml</dc:format>
        <dc:type
           rdf:resource="http://purl.org/dc/dcmitype/StillImage" />
        <dc:title></dc:title>
      </cc:Work>
    </rdf:RDF>
  </metadata>
  <rect
     ry="3.672466"
     rx="3.7748015"
     y="13.528272"
     x="47.533138"
     height="40.844975"
     width="24.933723"
     id="rect96"
     style="fill-opacity:1;stroke:#000000;stroke-width:0.249244;stroke-linecap:round;paint-order:stroke fill markers" />
  <path
     d="m 11.913262,78.355313 c 14.750191,0.01309 17.710246,0.01969 30.755054,0.02128 1.790334,2.18e-4 11.615481,14.340141 17.414217,14.21177 6.410778,-0.141921 14.395553,-14.288922 16.34292,-14.28912 15.674265,-0.0016 16.515324,-0.0527 30.468977,-0.06467 2.59759,0.06037 3.81598,1.164554 3.81067,3.822665 l -0.0453,22.696662 c -0.003,1.61609 -1.1678,2.91712 -2.61838,2.91712 H 11.913262 c -1.450581,0 -2.6183782,-1.30103 -2.6183782,-2.91712 V 81.272443 c 0,-1.61609 1.1677972,-2.91713 2.6183782,-2.91713 z"
     style="fill-opacity:1;stroke:#000000;stroke-width:0.276372;stroke-linecap:round;paint-order:stroke fill markers"
     id="rect98" />
  <path
     d="M 54.618374,77.866464 41.627405,66.485825 29.995931,55.057311 c -1.83268,-2.014456 -1.056952,-5.856469 2.556752,-5.869874 l 27.733525,0.07106 h 27.024981 c 3.553841,0.01624 4.898182,3.517193 2.2803,6.002471 L 77.186593,66.485828 65.409948,77.866465 c -4.96511,4.467935 -5.622611,4.473407 -10.791574,-1e-6 z"
     style="fill-opacity:1;fill-rule:evenodd;stroke-width:0.357505"
     id="path1024" />
</svg>
