<?xml version="1.0" encoding="UTF-8" standalone="no"?>
<svg
   xmlns:dc="http://purl.org/dc/elements/1.1/"
   xmlns:cc="http://creativecommons.org/ns#"
   xmlns:rdf="http://www.w3.org/1999/02/22-rdf-syntax-ns#"
   xmlns:svg="http://www.w3.org/2000/svg"
   xmlns="http://www.w3.org/2000/svg"
   xmlns:sodipodi="http://sodipodi.sourceforge.net/DTD/sodipodi-0.dtd"
   xmlns:inkscape="http://www.inkscape.org/namespaces/inkscape"
   width="76.881393mm"
   height="5.2155199mm"
   viewBox="0 0 76.881393 5.2155199"
   version="1.1"
   id="svg8"
   inkscape:version="1.0beta1 (32d4812, 2019-09-19)"
   sodipodi:docname="drawing.svg">
  <defs
     id="defs2">
    <rect
       id="rect132"
       height="29.897917"
       width="172.77292"
       y="127.58821"
       x="11.363302" />
    <rect
       x="10.42298"
       y="104.2298"
       width="173.98358"
       height="17.238007"
       id="rect50" />
  </defs>
  <sodipodi:namedview
     id="base"
     pagecolor="#ffffff"
     bordercolor="#666666"
     borderopacity="1.0"
     inkscape:pageopacity="0.0"
     inkscape:pageshadow="2"
     inkscape:zoom="1"
     inkscape:cx="151.80803"
     inkscape:cy="160.18953"
     inkscape:document-units="mm"
     inkscape:current-layer="layer1"
     inkscape:document-rotation="0"
     showgrid="false"
     fit-margin-top="0"
     fit-margin-left="0"
     fit-margin-right="0"
     fit-margin-bottom="0"
     inkscape:window-width="1600"
     inkscape:window-height="1209"
     inkscape:window-x="359"
     inkscape:window-y="23"
     inkscape:window-maximized="0" />
  <metadata
     id="metadata5">
    <rdf:RDF>
      <cc:Work
         rdf:about="">
        <dc:format>image/svg+xml</dc:format>
        <dc:type
           rdf:resource="http://purl.org/dc/dcmitype/StillImage" />
        <dc:title></dc:title>
      </cc:Work>
    </rdf:RDF>
  </metadata>
  <g
     inkscape:label="Layer 1"
     inkscape:groupmode="layer"
     id="layer1"
     transform="translate(-54.805761,-109.28181)">
    <text
       style="font-style:normal;font-weight:normal;font-size:10.5833px;line-height:1.25;font-family:sans-serif;shape-inside:url(#rect132);fill:#000000;fill-opacity:1;stroke:none"
       id="text130"
       xml:space="preserve" />
    <g
       transform="translate(31.749999,-23.01875)"
       style="font-style:normal;font-variant:normal;font-weight:normal;font-stretch:normal;font-size:5.64444px;line-height:1.25;font-family:'PT Sans';-inkscape-font-specification:'PT Sans Normal';font-variant-ligatures:normal;font-variant-caps:normal;font-variant-numeric:normal;font-variant-east-asian:normal;stroke-width:0.264583"
       id="text138"
       aria-label="">
      <path
         inkscape:connector-curvature="0"
         id="path140"
         style="font-style:normal;font-variant:normal;font-weight:normal;font-stretch:normal;font-size:5.64444px;font-family:'PT Sans';-inkscape-font-specification:'PT Sans Normal';font-variant-ligatures:normal;font-variant-caps:normal;font-variant-numeric:normal;font-variant-east-asian:normal;stroke-width:0.264583"
         d="m 23.529902,133.49724 h 0.451556 v 2.97462 q 0,0.52493 -0.180623,0.78458 -0.180622,0.25964 -0.575733,0.25964 -0.04516,0 -0.08467,-0.006 -0.03951,0 -0.08467,-0.006 v -0.38382 q 0.158044,0 0.248355,-0.0508 0.09596,-0.0452 0.146756,-0.14676 0.0508,-0.1016 0.06209,-0.25964 0.01693,-0.1524 0.01693,-0.36125 z m -0.09596,-0.85796 q 0,-0.12982 0.08467,-0.22013 0.09031,-0.096 0.225778,-0.096 0.135467,0 0.231422,0.096 0.09596,0.0903 0.09596,0.22013 0,0.12982 -0.09596,0.21449 -0.09596,0.0847 -0.231422,0.0847 -0.135467,0 -0.225778,-0.0847 -0.08467,-0.0847 -0.08467,-0.21449 z" />
      <path
         inkscape:connector-curvature="0"
         id="path142"
         style="font-style:normal;font-variant:normal;font-weight:normal;font-stretch:normal;font-size:5.64444px;font-family:'PT Sans';-inkscape-font-specification:'PT Sans Normal';font-variant-ligatures:normal;font-variant-caps:normal;font-variant-numeric:normal;font-variant-east-asian:normal;stroke-width:0.264583"
         d="m 25.356321,133.49724 v 1.60866 q 0,0.22014 0.02258,0.38947 0.02822,0.16369 0.09031,0.27658 0.06209,0.10724 0.169333,0.16369 0.107244,0.0564 0.270933,0.0564 0.1524,0 0.270934,-0.0452 0.118533,-0.0508 0.208844,-0.13546 0.09596,-0.0847 0.163689,-0.19191 0.07338,-0.11289 0.118533,-0.23707 v -1.88524 h 0.451556 v 2.02071 q 0,0.2032 0.01129,0.42333 0.01693,0.21449 0.0508,0.37818 h -0.310445 l -0.112889,-0.44591 h -0.02822 q -0.129822,0.22013 -0.349955,0.36689 -0.220134,0.14675 -0.5588,0.14675 -0.225778,0 -0.400756,-0.0564 -0.169333,-0.0508 -0.287867,-0.18627 -0.112889,-0.13547 -0.174977,-0.36124 -0.05645,-0.23143 -0.05645,-0.58138 v -1.70462 z" />
      <path
         inkscape:connector-curvature="0"
         id="path144"
         style="font-style:normal;font-variant:normal;font-weight:normal;font-stretch:normal;font-size:5.64444px;font-family:'PT Sans';-inkscape-font-specification:'PT Sans Normal';font-variant-ligatures:normal;font-variant-caps:normal;font-variant-numeric:normal;font-variant-east-asian:normal;stroke-width:0.264583"
         d="m 30.052851,136.09368 q -0.169333,0.13547 -0.428978,0.21449 -0.254,0.079 -0.541866,0.079 -0.321734,0 -0.5588,-0.1016 -0.237067,-0.10724 -0.389467,-0.29915 -0.1524,-0.19756 -0.225778,-0.46849 -0.07338,-0.27094 -0.07338,-0.6096 0,-0.72249 0.321733,-1.10067 0.321733,-0.37818 0.920044,-0.37818 0.191911,0 0.383823,0.0452 0.191911,0.0395 0.344311,0.15804 0.1524,0.11854 0.248355,0.33867 0.09596,0.21449 0.09596,0.57009 0,0.18626 -0.03387,0.41204 h -1.811867 q 0,0.24836 0.0508,0.44027 0.0508,0.19191 0.158045,0.32738 0.107244,0.12982 0.276578,0.2032 0.174977,0.0677 0.423333,0.0677 0.191911,0 0.383822,-0.0677 0.191911,-0.0677 0.287867,-0.15805 z m -0.970844,-2.26907 q -0.333022,0 -0.536222,0.17498 -0.197556,0.17498 -0.237067,0.59831 h 1.399822 q 0,-0.42898 -0.163689,-0.59831 -0.163689,-0.17498 -0.462844,-0.17498 z" />
      <path
         inkscape:connector-curvature="0"
         id="path146"
         style="font-style:normal;font-variant:normal;font-weight:normal;font-stretch:normal;font-size:5.64444px;font-family:'PT Sans';-inkscape-font-specification:'PT Sans Normal';font-variant-ligatures:normal;font-variant-caps:normal;font-variant-numeric:normal;font-variant-east-asian:normal;stroke-width:0.264583"
         d="m 32.191038,133.93186 q -0.169334,-0.0565 -0.321734,-0.0565 -0.242711,0 -0.383822,0.13547 -0.141111,0.12982 -0.174978,0.33302 v 1.97556 h -0.451555 v -2.82222 h 0.316089 l 0.08467,0.34431 h 0.02258 q 0.107244,-0.19191 0.254,-0.29351 0.1524,-0.10725 0.383822,-0.10725 0.163689,0 0.366889,0.0565 z" />
      <path
         inkscape:connector-curvature="0"
         id="path148"
         style="font-style:normal;font-variant:normal;font-weight:normal;font-stretch:normal;font-size:5.64444px;font-family:'PT Sans';-inkscape-font-specification:'PT Sans Normal';font-variant-ligatures:normal;font-variant-caps:normal;font-variant-numeric:normal;font-variant-east-asian:normal;stroke-width:0.264583"
         d="m 34.939,136.44928 q 0,0.54751 -0.293511,0.80716 -0.287866,0.25964 -0.857955,0.25964 -0.338667,0 -0.547511,-0.0452 -0.2032,-0.0395 -0.349956,-0.10724 l 0.118533,-0.38382 q 0.129823,0.0508 0.287867,0.0959 0.158045,0.0452 0.412045,0.0452 0.237066,0 0.383822,-0.0452 0.1524,-0.0395 0.242711,-0.14111 0.09031,-0.0959 0.124178,-0.254 0.03387,-0.1524 0.03387,-0.36689 v -0.27093 h -0.02258 q -0.112889,0.16369 -0.287867,0.254 -0.174978,0.0847 -0.4572,0.0847 -0.570089,0 -0.841022,-0.3556 -0.265289,-0.3556 -0.265289,-1.10631 0,-0.72249 0.344311,-1.09503 0.344311,-0.37817 1.016,-0.37817 0.321733,0 0.547511,0.0508 0.231422,0.0508 0.412044,0.11853 z m -1.134533,-0.46284 q 0.287867,0 0.451556,-0.14112 0.163689,-0.14675 0.231422,-0.45155 v -1.44498 q -0.225778,-0.10724 -0.575733,-0.10724 -0.383823,0 -0.603956,0.25964 -0.220133,0.25965 -0.220133,0.8128 0,0.23707 0.03951,0.43462 0.03951,0.19756 0.124178,0.33867 0.08467,0.14111 0.220133,0.22013 0.135467,0.079 0.333022,0.079 z" />
      <path
         inkscape:connector-curvature="0"
         id="path150"
         style="font-style:normal;font-variant:normal;font-weight:normal;font-stretch:normal;font-size:5.64444px;font-family:'PT Sans';-inkscape-font-specification:'PT Sans Normal';font-variant-ligatures:normal;font-variant-caps:normal;font-variant-numeric:normal;font-variant-east-asian:normal;stroke-width:0.264583"
         d="m 37.869083,136.09368 q -0.169333,0.13547 -0.428977,0.21449 -0.254,0.079 -0.541867,0.079 -0.321733,0 -0.5588,-0.1016 -0.237067,-0.10724 -0.389467,-0.29915 -0.1524,-0.19756 -0.225777,-0.46849 -0.07338,-0.27094 -0.07338,-0.6096 0,-0.72249 0.321733,-1.10067 0.321733,-0.37818 0.920045,-0.37818 0.191911,0 0.383822,0.0452 0.191911,0.0395 0.344311,0.15804 0.1524,0.11854 0.248355,0.33867 0.09596,0.21449 0.09596,0.57009 0,0.18626 -0.03387,0.41204 h -1.811866 q 0,0.24836 0.0508,0.44027 0.0508,0.19191 0.158044,0.32738 0.107245,0.12982 0.276578,0.2032 0.174978,0.0677 0.423333,0.0677 0.191911,0 0.383822,-0.0677 0.191912,-0.0677 0.287867,-0.15805 z m -0.970844,-2.26907 q -0.333022,0 -0.536222,0.17498 -0.197556,0.17498 -0.237067,0.59831 h 1.399822 q 0,-0.42898 -0.163689,-0.59831 -0.163688,-0.17498 -0.462844,-0.17498 z" />
      <path
         inkscape:connector-curvature="0"
         id="path152"
         style="font-style:normal;font-variant:normal;font-weight:normal;font-stretch:normal;font-size:5.64444px;font-family:'PT Sans';-inkscape-font-specification:'PT Sans Normal';font-variant-ligatures:normal;font-variant-caps:normal;font-variant-numeric:normal;font-variant-east-asian:normal;stroke-width:0.264583"
         d="m 40.487048,136.31946 v -1.60867 q 0,-0.44027 -0.129823,-0.6604 -0.124177,-0.22578 -0.462844,-0.22578 -0.299156,0 -0.496711,0.16369 -0.191911,0.15805 -0.270934,0.40076 v 1.9304 h -0.451555 v -2.82222 h 0.316089 l 0.08467,0.34431 h 0.02258 q 0.135467,-0.18063 0.361245,-0.29351 0.231422,-0.11854 0.547511,-0.11854 0.231422,0 0.4064,0.0565 0.174978,0.0508 0.287866,0.18626 0.118534,0.13547 0.174978,0.36689 0.06209,0.22578 0.06209,0.57574 v 1.70462 z" />
      <path
         inkscape:connector-curvature="0"
         id="path154"
         style="font-style:normal;font-variant:normal;font-weight:normal;font-stretch:normal;font-size:5.64444px;font-family:'PT Sans';-inkscape-font-specification:'PT Sans Normal';font-variant-ligatures:normal;font-variant-caps:normal;font-variant-numeric:normal;font-variant-east-asian:normal;stroke-width:0.264583"
         d="m 41.327364,137.08146 h 2.302933 v 0.39511 h -2.302933 z" />
      <path
         inkscape:connector-curvature="0"
         id="path156"
         style="font-style:normal;font-variant:normal;font-weight:normal;font-stretch:normal;font-size:5.64444px;font-family:'PT Sans';-inkscape-font-specification:'PT Sans Normal';font-variant-ligatures:normal;font-variant-caps:normal;font-variant-numeric:normal;font-variant-east-asian:normal;stroke-width:0.264583"
         d="m 46.126289,136.09368 q -0.169333,0.13547 -0.428977,0.21449 -0.254,0.079 -0.541867,0.079 -0.321733,0 -0.5588,-0.1016 -0.237067,-0.10724 -0.389467,-0.29915 -0.1524,-0.19756 -0.225778,-0.46849 -0.07338,-0.27094 -0.07338,-0.6096 0,-0.72249 0.321733,-1.10067 0.321733,-0.37818 0.920044,-0.37818 0.191912,0 0.383823,0.0452 0.191911,0.0395 0.344311,0.15804 0.1524,0.11854 0.248355,0.33867 0.09596,0.21449 0.09596,0.57009 0,0.18626 -0.03387,0.41204 H 44.37651 q 0,0.24836 0.0508,0.44027 0.0508,0.19191 0.158044,0.32738 0.107244,0.12982 0.276578,0.2032 0.174978,0.0677 0.423333,0.0677 0.191911,0 0.383822,-0.0677 0.191911,-0.0677 0.287867,-0.15805 z m -0.970844,-2.26907 q -0.333022,0 -0.536222,0.17498 -0.197556,0.17498 -0.237067,0.59831 h 1.399822 q 0,-0.42898 -0.163689,-0.59831 -0.163689,-0.17498 -0.462844,-0.17498 z" />
      <path
         inkscape:connector-curvature="0"
         id="path158"
         style="font-style:normal;font-variant:normal;font-weight:normal;font-stretch:normal;font-size:5.64444px;font-family:'PT Sans';-inkscape-font-specification:'PT Sans Normal';font-variant-ligatures:normal;font-variant-caps:normal;font-variant-numeric:normal;font-variant-east-asian:normal;stroke-width:0.264583"
         d="m 48.744252,136.31946 v -1.60867 q 0,-0.22013 -0.02822,-0.38382 -0.02258,-0.16933 -0.09031,-0.27658 -0.06773,-0.11289 -0.186266,-0.16933 -0.112889,-0.0564 -0.299156,-0.0564 -0.265289,0 -0.479778,0.17498 -0.214489,0.16933 -0.276578,0.44027 v 1.8796 h -0.451555 v -3.95111 h 0.451555 v 1.44497 h 0.02258 q 0.146756,-0.17497 0.349956,-0.27657 0.208844,-0.10725 0.513644,-0.10725 0.237067,0 0.412045,0.0565 0.174977,0.0508 0.287866,0.18626 0.118534,0.13547 0.169334,0.36689 0.05644,0.22578 0.05644,0.57574 v 1.70462 z" />
      <path
         inkscape:connector-curvature="0"
         id="path160"
         style="font-style:normal;font-variant:normal;font-weight:normal;font-stretch:normal;font-size:5.64444px;font-family:'PT Sans';-inkscape-font-specification:'PT Sans Normal';font-variant-ligatures:normal;font-variant-caps:normal;font-variant-numeric:normal;font-variant-east-asian:normal;stroke-width:0.264583"
         d="m 51.351281,133.93186 q -0.169333,-0.0565 -0.321733,-0.0565 -0.242711,0 -0.383823,0.13547 -0.141111,0.12982 -0.174977,0.33302 v 1.97556 h -0.451556 v -2.82222 h 0.316089 l 0.08467,0.34431 h 0.02258 q 0.107245,-0.19191 0.254,-0.29351 0.1524,-0.10725 0.383823,-0.10725 0.163689,0 0.366889,0.0565 z" />
      <path
         inkscape:connector-curvature="0"
         id="path162"
         style="font-style:normal;font-variant:normal;font-weight:normal;font-stretch:normal;font-size:5.64444px;font-family:'PT Sans';-inkscape-font-specification:'PT Sans Normal';font-variant-ligatures:normal;font-variant-caps:normal;font-variant-numeric:normal;font-variant-east-asian:normal;stroke-width:0.264583"
         d="m 53.997643,136.09368 q -0.169334,0.13547 -0.428978,0.21449 -0.254,0.079 -0.541867,0.079 -0.321733,0 -0.5588,-0.1016 -0.237067,-0.10724 -0.389467,-0.29915 -0.1524,-0.19756 -0.225777,-0.46849 -0.07338,-0.27094 -0.07338,-0.6096 0,-0.72249 0.321733,-1.10067 0.321734,-0.37818 0.920045,-0.37818 0.191911,0 0.383822,0.0452 0.191911,0.0395 0.344311,0.15804 0.1524,0.11854 0.248356,0.33867 0.09596,0.21449 0.09596,0.57009 0,0.18626 -0.03387,0.41204 h -1.811866 q 0,0.24836 0.0508,0.44027 0.0508,0.19191 0.158044,0.32738 0.107245,0.12982 0.276578,0.2032 0.174978,0.0677 0.423333,0.0677 0.191911,0 0.383823,-0.0677 0.191911,-0.0677 0.287866,-0.15805 z m -0.970845,-2.26907 q -0.333022,0 -0.536222,0.17498 -0.197556,0.17498 -0.237067,0.59831 h 1.399822 q 0,-0.42898 -0.163688,-0.59831 -0.163689,-0.17498 -0.462845,-0.17498 z" />
      <path
         inkscape:connector-curvature="0"
         id="path164"
         style="font-style:normal;font-variant:normal;font-weight:normal;font-stretch:normal;font-size:5.64444px;font-family:'PT Sans';-inkscape-font-specification:'PT Sans Normal';font-variant-ligatures:normal;font-variant-caps:normal;font-variant-numeric:normal;font-variant-east-asian:normal;stroke-width:0.264583"
         d="m 54.431207,133.49724 h 0.440266 v -0.5588 l 0.451556,-0.12983 v 0.68863 h 0.767644 v 0.39511 h -0.767644 v 1.56351 q 0,0.29351 0.07338,0.41769 0.07338,0.11853 0.248355,0.11853 0.146756,0 0.248356,-0.0282 0.1016,-0.0339 0.225778,-0.0847 l 0.1016,0.34431 q -0.1524,0.0734 -0.333023,0.11854 -0.180622,0.0452 -0.389466,0.0452 -0.344311,0 -0.485423,-0.19191 -0.141111,-0.19756 -0.141111,-0.65476 v -1.64817 h -0.440266 z" />
      <path
         inkscape:connector-curvature="0"
         id="path166"
         style="font-style:normal;font-variant:normal;font-weight:normal;font-stretch:normal;font-size:5.64444px;font-family:'PT Sans';-inkscape-font-specification:'PT Sans Normal';font-variant-ligatures:normal;font-variant-caps:normal;font-variant-numeric:normal;font-variant-east-asian:normal;stroke-width:0.264583"
         d="m 58.80477,133.26581 q 0,0.29916 -0.112889,0.61525 -0.107244,0.31044 -0.287867,0.62653 -0.174977,0.31609 -0.395111,0.62089 -0.220133,0.29916 -0.440266,0.57009 l -0.276578,0.24271 v 0.0226 l 0.361244,-0.0621 h 1.230489 v 0.41769 h -2.246489 v -0.16369 q 0.124178,-0.12982 0.299156,-0.32173 0.174978,-0.19192 0.361244,-0.42334 0.191911,-0.23706 0.372534,-0.49671 0.186266,-0.26529 0.333022,-0.53622 0.1524,-0.27093 0.242711,-0.53622 0.09031,-0.26529 0.09031,-0.50236 0,-0.27658 -0.158044,-0.4572 -0.158045,-0.18627 -0.479778,-0.18627 -0.214489,0 -0.417689,0.0903 -0.2032,0.0847 -0.349956,0.19755 l -0.186266,-0.32173 q 0.197555,-0.16934 0.468489,-0.26529 0.270933,-0.096 0.581377,-0.096 0.242712,0 0.428978,0.0734 0.186267,0.0677 0.316089,0.19756 0.129822,0.12982 0.197556,0.31044 0.06773,0.17498 0.06773,0.38382 z" />
      <path
         inkscape:connector-curvature="0"
         id="path168"
         style="font-style:normal;font-variant:normal;font-weight:normal;font-stretch:normal;font-size:5.64444px;font-family:'PT Sans';-inkscape-font-specification:'PT Sans Normal';font-variant-ligatures:normal;font-variant-caps:normal;font-variant-numeric:normal;font-variant-east-asian:normal;stroke-width:0.264583"
         d="m 59.605838,134.3439 q 0,-1.016 0.327378,-1.52964 0.333022,-0.51365 0.9652,-0.51365 0.682977,0 0.987777,0.508 0.310445,0.50236 0.310445,1.53529 0,1.016 -0.333022,1.52965 -0.327378,0.51364 -0.9652,0.51364 -0.671689,0 -0.982134,-0.53622 -0.310444,-0.53622 -0.310444,-1.50707 z m 0.468489,0 q 0,0.36689 0.04516,0.67169 0.0508,0.29916 0.1524,0.51929 0.1016,0.21449 0.254,0.33867 0.158045,0.11853 0.372534,0.11853 0.428977,0 0.626533,-0.39511 0.2032,-0.40076 0.2032,-1.25307 0,-0.36124 -0.04516,-0.66604 -0.03951,-0.3048 -0.141111,-0.52494 -0.09596,-0.22013 -0.254,-0.33866 -0.158044,-0.11854 -0.389466,-0.11854 -0.423334,0 -0.626534,0.40076 -0.197555,0.40076 -0.197555,1.24742 z" />
      <path
         inkscape:connector-curvature="0"
         id="path170"
         style="font-style:normal;font-variant:normal;font-weight:normal;font-stretch:normal;font-size:5.64444px;font-family:'PT Sans';-inkscape-font-specification:'PT Sans Normal';font-variant-ligatures:normal;font-variant-caps:normal;font-variant-numeric:normal;font-variant-east-asian:normal;stroke-width:0.264583"
         d="m 62.681621,134.3439 q 0,-1.016 0.327377,-1.52964 0.333023,-0.51365 0.9652,-0.51365 0.682978,0 0.987778,0.508 0.310445,0.50236 0.310445,1.53529 0,1.016 -0.333023,1.52965 -0.327377,0.51364 -0.9652,0.51364 -0.671688,0 -0.982133,-0.53622 -0.310444,-0.53622 -0.310444,-1.50707 z m 0.468489,0 q 0,0.36689 0.04516,0.67169 0.0508,0.29916 0.1524,0.51929 0.1016,0.21449 0.254,0.33867 0.158045,0.11853 0.372533,0.11853 0.428978,0 0.626534,-0.39511 0.2032,-0.40076 0.2032,-1.25307 0,-0.36124 -0.04516,-0.66604 -0.03951,-0.3048 -0.141111,-0.52494 -0.09596,-0.22013 -0.254,-0.33866 -0.158044,-0.11854 -0.389467,-0.11854 -0.423333,0 -0.626533,0.40076 -0.197555,0.40076 -0.197556,1.24742 z" />
      <path
         inkscape:connector-curvature="0"
         id="path172"
         style="font-style:normal;font-variant:normal;font-weight:normal;font-stretch:normal;font-size:5.64444px;font-family:'PT Sans';-inkscape-font-specification:'PT Sans Normal';font-variant-ligatures:normal;font-variant-caps:normal;font-variant-numeric:normal;font-variant-east-asian:normal;stroke-width:0.264583"
         d="m 65.757403,134.3439 q 0,-1.016 0.327378,-1.52964 0.333022,-0.51365 0.9652,-0.51365 0.682978,0 0.987778,0.508 0.310444,0.50236 0.310444,1.53529 0,1.016 -0.333022,1.52965 -0.327378,0.51364 -0.9652,0.51364 -0.671689,0 -0.982133,-0.53622 -0.310445,-0.53622 -0.310445,-1.50707 z m 0.468489,0 q 0,0.36689 0.04516,0.67169 0.0508,0.29916 0.1524,0.51929 0.1016,0.21449 0.254,0.33867 0.158044,0.11853 0.372533,0.11853 0.428978,0 0.626534,-0.39511 0.2032,-0.40076 0.2032,-1.25307 0,-0.36124 -0.04516,-0.66604 -0.03951,-0.3048 -0.141111,-0.52494 -0.09596,-0.22013 -0.254,-0.33866 -0.158045,-0.11854 -0.389467,-0.11854 -0.423333,0 -0.626533,0.40076 -0.197556,0.40076 -0.197556,1.24742 z" />
      <path
         inkscape:connector-curvature="0"
         id="path174"
         style="font-style:normal;font-variant:normal;font-weight:normal;font-stretch:normal;font-size:5.64444px;font-family:'PT Sans';-inkscape-font-specification:'PT Sans Normal';font-variant-ligatures:normal;font-variant-caps:normal;font-variant-numeric:normal;font-variant-east-asian:normal;stroke-width:0.264583"
         d="m 72.581094,133.54804 h 0.191911 l -0.287867,1.61995 q -0.02822,0.14676 -0.04516,0.26529 -0.01129,0.11289 -0.01129,0.2032 0,0.14111 0.04516,0.20884 0.0508,0.0621 0.169333,0.0621 0.191912,0 0.378178,-0.1016 0.191911,-0.1016 0.338667,-0.28786 0.146755,-0.18627 0.237067,-0.44591 0.09596,-0.26529 0.09596,-0.59267 0,-0.43462 -0.146755,-0.76765 -0.146756,-0.33302 -0.412045,-0.5588 -0.265289,-0.23142 -0.632178,-0.34995 -0.366889,-0.11853 -0.807155,-0.11853 -0.4572,0 -0.8636,0.16933 -0.400756,0.16933 -0.699911,0.46849 -0.293512,0.29915 -0.468489,0.71684 -0.169334,0.41769 -0.169334,0.90876 0,0.50235 0.1524,0.89746 0.158045,0.39512 0.445911,0.66605 0.287867,0.27093 0.688623,0.41204 0.400755,0.14111 0.891822,0.14111 0.163689,0 0.372533,-0.0395 0.208845,-0.0339 0.378178,-0.11853 l 0.112889,0.36124 q -0.254,0.10725 -0.468489,0.14112 -0.214489,0.0395 -0.462844,0.0395 -0.524934,0 -0.987778,-0.15805 -0.4572,-0.15804 -0.801511,-0.46849 -0.338667,-0.31044 -0.536223,-0.76764 -0.197555,-0.46285 -0.197555,-1.0668 0,-0.61525 0.208844,-1.11196 0.214489,-0.49671 0.575734,-0.84666 0.361244,-0.34996 0.841022,-0.53623 0.479778,-0.19191 1.016,-0.19191 0.508,0 0.942622,0.1524 0.434622,0.14676 0.750711,0.42898 0.321734,0.27658 0.502356,0.68298 0.186267,0.40075 0.186267,0.9144 0,0.36124 -0.124178,0.69427 -0.124178,0.32737 -0.338667,0.57573 -0.208844,0.24835 -0.491067,0.40075 -0.282222,0.14676 -0.598311,0.14676 -0.237066,0 -0.378177,-0.1016 -0.141112,-0.1016 -0.141112,-0.37818 0,-0.0508 0.0056,-0.10724 0.0056,-0.0621 0.01693,-0.12982 h -0.02258 q -0.07902,0.12982 -0.186266,0.25964 -0.107245,0.12418 -0.242711,0.22578 -0.129823,0.1016 -0.282223,0.16933 -0.146755,0.0621 -0.310444,0.0621 -0.135467,0 -0.259645,-0.0564 -0.124177,-0.0621 -0.214488,-0.17498 -0.09031,-0.11289 -0.146756,-0.26529 -0.0508,-0.15805 -0.0508,-0.3556 0,-0.36125 0.118533,-0.7112 0.118534,-0.34996 0.316089,-0.62089 0.2032,-0.27093 0.468489,-0.43462 0.270934,-0.16934 0.570089,-0.16934 0.208845,0 0.333022,0.0621 0.124178,0.0621 0.242711,0.1524 z m -0.321734,0.55315 q -0.09596,-0.11289 -0.191911,-0.1524 -0.09595,-0.0452 -0.242711,-0.0452 -0.220133,0 -0.412044,0.13546 -0.191912,0.12982 -0.333023,0.34431 -0.135466,0.20885 -0.220133,0.47414 -0.07902,0.25964 -0.07902,0.51364 0,0.22013 0.09031,0.37818 0.09031,0.1524 0.327378,0.1524 0.112889,0 0.231422,-0.0734 0.124178,-0.0734 0.242711,-0.19755 0.118533,-0.12983 0.225778,-0.28787 0.107244,-0.15805 0.191911,-0.32173 z" />
      <path
         inkscape:connector-curvature="0"
         id="path176"
         style="font-style:normal;font-variant:normal;font-weight:normal;font-stretch:normal;font-size:5.64444px;font-family:'PT Sans';-inkscape-font-specification:'PT Sans Normal';font-variant-ligatures:normal;font-variant-caps:normal;font-variant-numeric:normal;font-variant-east-asian:normal;stroke-width:0.264583"
         d="m 75.863074,135.32604 0.158045,0.54186 h 0.02822 l 0.124178,-0.54751 0.547511,-1.82315 h 0.4572 l -0.835378,2.53435 q -0.09596,0.27658 -0.191911,0.53622 -0.09031,0.25965 -0.2032,0.46285 -0.112889,0.2032 -0.254,0.32173 -0.141111,0.12418 -0.327378,0.12418 -0.2032,0 -0.333022,-0.0565 l 0.07902,-0.38946 q 0.07338,0.0282 0.141111,0.0282 0.158045,0 0.3048,-0.16933 0.146756,-0.16369 0.242711,-0.57009 l -1.134533,-2.82222 h 0.519289 z" />
      <path
         inkscape:connector-curvature="0"
         id="path178"
         style="font-style:normal;font-variant:normal;font-weight:normal;font-stretch:normal;font-size:5.64444px;font-family:'PT Sans';-inkscape-font-specification:'PT Sans Normal';font-variant-ligatures:normal;font-variant-caps:normal;font-variant-numeric:normal;font-variant-east-asian:normal;stroke-width:0.264583"
         d="m 77.622993,133.70608 q 0.214489,-0.12982 0.496711,-0.19191 0.287867,-0.0621 0.598311,-0.0621 0.293511,0 0.468489,0.079 0.180622,0.079 0.270933,0.20885 0.09596,0.12417 0.124178,0.27657 0.03387,0.1524 0.03387,0.3048 0,0.33867 -0.01693,0.6604 -0.01693,0.32174 -0.01693,0.6096 0,0.20885 0.01693,0.39512 0.01693,0.18626 0.06209,0.34431 h -0.333022 l -0.118533,-0.39511 h -0.02822 q -0.0508,0.079 -0.129823,0.15804 -0.07338,0.0734 -0.180622,0.13547 -0.107244,0.0564 -0.248355,0.0959 -0.141112,0.0395 -0.321734,0.0395 -0.180622,0 -0.338666,-0.0564 -0.1524,-0.0564 -0.265289,-0.15805 -0.112889,-0.10724 -0.180623,-0.254 -0.06209,-0.14675 -0.06209,-0.33302 0,-0.24835 0.1016,-0.41204 0.1016,-0.16934 0.282222,-0.26529 0.186266,-0.1016 0.440266,-0.14111 0.259645,-0.0452 0.570089,-0.0452 0.07902,0 0.1524,0 0.07902,0 0.158045,0.0113 0.01693,-0.16933 0.01693,-0.3048 0,-0.31044 -0.124178,-0.43462 -0.124177,-0.12418 -0.451555,-0.12418 -0.09596,0 -0.208845,0.0169 -0.107244,0.0113 -0.225777,0.0395 -0.112889,0.0226 -0.220134,0.0621 -0.1016,0.0339 -0.180622,0.079 z m 0.801511,2.26342 q 0.158044,0 0.282222,-0.0395 0.124178,-0.0452 0.214489,-0.10724 0.09031,-0.0677 0.146756,-0.14676 0.06209,-0.079 0.09031,-0.1524 v -0.46849 q -0.07902,-0.006 -0.163689,-0.006 -0.07902,-0.006 -0.158045,-0.006 -0.174977,0 -0.344311,0.0226 -0.163689,0.0169 -0.293511,0.0734 -0.124178,0.0508 -0.2032,0.14675 -0.07338,0.0903 -0.07338,0.23143 0,0.19755 0.141112,0.32737 0.141111,0.12418 0.361244,0.12418 z" />
      <path
         inkscape:connector-curvature="0"
         id="path180"
         style="font-style:normal;font-variant:normal;font-weight:normal;font-stretch:normal;font-size:5.64444px;font-family:'PT Sans';-inkscape-font-specification:'PT Sans Normal';font-variant-ligatures:normal;font-variant-caps:normal;font-variant-numeric:normal;font-variant-east-asian:normal;stroke-width:0.264583"
         d="m 82.28019,136.31946 v -1.60867 q 0,-0.22013 -0.02822,-0.38382 -0.02258,-0.16933 -0.09031,-0.27658 -0.06773,-0.11289 -0.186267,-0.16933 -0.112889,-0.0564 -0.299156,-0.0564 -0.265289,0 -0.479777,0.17498 -0.214489,0.16933 -0.276578,0.44027 v 1.8796 h -0.451556 v -3.95111 h 0.451556 v 1.44497 h 0.02258 q 0.146755,-0.17497 0.349955,-0.27657 0.208845,-0.10725 0.513645,-0.10725 0.237066,0 0.412044,0.0565 0.174978,0.0508 0.287867,0.18626 0.118533,0.13547 0.169333,0.36689 0.05644,0.22578 0.05644,0.57574 v 1.70462 z" />
      <path
         inkscape:connector-curvature="0"
         id="path182"
         style="font-style:normal;font-variant:normal;font-weight:normal;font-stretch:normal;font-size:5.64444px;font-family:'PT Sans';-inkscape-font-specification:'PT Sans Normal';font-variant-ligatures:normal;font-variant-caps:normal;font-variant-numeric:normal;font-variant-east-asian:normal;stroke-width:0.264583"
         d="m 83.397086,134.90835 q 0,-0.71685 0.316089,-1.09503 0.321733,-0.38382 0.920044,-0.38382 0.316089,0 0.547511,0.10725 0.237067,0.1016 0.389467,0.29915 0.1524,0.19191 0.225778,0.46849 0.07338,0.27093 0.07338,0.60396 0,0.71684 -0.321734,1.10066 -0.316089,0.37818 -0.9144,0.37818 -0.316089,0 -0.553155,-0.1016 -0.231422,-0.10724 -0.383822,-0.29915 -0.1524,-0.19756 -0.225778,-0.46849 -0.07338,-0.27658 -0.07338,-0.6096 z m 0.468489,0 q 0,0.21449 0.03951,0.41204 0.04516,0.19756 0.135467,0.34431 0.09031,0.14676 0.237066,0.23707 0.146756,0.0903 0.3556,0.0903 0.767645,0.006 0.767645,-1.08373 0,-0.22014 -0.04516,-0.41769 -0.03951,-0.19756 -0.129822,-0.34431 -0.09031,-0.14676 -0.237067,-0.23143 -0.146755,-0.0903 -0.3556,-0.0903 -0.767644,-0.006 -0.767644,1.08374 z" />
      <path
         inkscape:connector-curvature="0"
         id="path184"
         style="font-style:normal;font-variant:normal;font-weight:normal;font-stretch:normal;font-size:5.64444px;font-family:'PT Sans';-inkscape-font-specification:'PT Sans Normal';font-variant-ligatures:normal;font-variant-caps:normal;font-variant-numeric:normal;font-variant-east-asian:normal;stroke-width:0.264583"
         d="m 86.417746,134.90835 q 0,-0.71685 0.316089,-1.09503 0.321734,-0.38382 0.920045,-0.38382 0.316089,0 0.547511,0.10725 0.237066,0.1016 0.389466,0.29915 0.1524,0.19191 0.225778,0.46849 0.07338,0.27093 0.07338,0.60396 0,0.71684 -0.321733,1.10066 -0.316089,0.37818 -0.9144,0.37818 -0.316089,0 -0.553156,-0.1016 -0.231422,-0.10724 -0.383822,-0.29915 -0.1524,-0.19756 -0.225778,-0.46849 -0.07338,-0.27658 -0.07338,-0.6096 z m 0.468489,0 q 0,0.21449 0.03951,0.41204 0.04516,0.19756 0.135467,0.34431 0.09031,0.14676 0.237067,0.23707 0.146755,0.0903 0.3556,0.0903 0.767644,0.006 0.767644,-1.08373 0,-0.22014 -0.04516,-0.41769 -0.03951,-0.19756 -0.129823,-0.34431 -0.09031,-0.14676 -0.237066,-0.23143 -0.146756,-0.0903 -0.3556,-0.0903 -0.767645,-0.006 -0.767645,1.08374 z" />
      <path
         inkscape:connector-curvature="0"
         id="path186"
         style="font-style:normal;font-variant:normal;font-weight:normal;font-stretch:normal;font-size:5.64444px;font-family:'PT Sans';-inkscape-font-specification:'PT Sans Normal';font-variant-ligatures:normal;font-variant-caps:normal;font-variant-numeric:normal;font-variant-east-asian:normal;stroke-width:0.264583"
         d="m 89.37226,136.05981 q 0,-0.1524 0.08467,-0.23706 0.09031,-0.0903 0.237066,-0.0903 0.1524,0 0.242711,0.0903 0.09031,0.0847 0.09031,0.23706 0,0.14676 -0.09031,0.23707 -0.09031,0.0903 -0.242711,0.0903 -0.146755,0 -0.237066,-0.0903 -0.08467,-0.0903 -0.08467,-0.23707 z" />
      <path
         inkscape:connector-curvature="0"
         id="path188"
         style="font-style:normal;font-variant:normal;font-weight:normal;font-stretch:normal;font-size:5.64444px;font-family:'PT Sans';-inkscape-font-specification:'PT Sans Normal';font-variant-ligatures:normal;font-variant-caps:normal;font-variant-numeric:normal;font-variant-east-asian:normal;stroke-width:0.264583"
         d="m 92.667729,136.13319 q -0.169333,0.12418 -0.400755,0.18627 -0.231422,0.0677 -0.485422,0.0677 -0.327378,0 -0.553156,-0.1016 -0.225778,-0.10724 -0.372533,-0.29915 -0.141111,-0.19756 -0.208845,-0.46849 -0.06209,-0.27658 -0.06209,-0.6096 0,-0.71685 0.316089,-1.09503 0.316089,-0.38382 0.908756,-0.38382 0.270933,0 0.4572,0.0452 0.191911,0.0395 0.344311,0.11853 l -0.129822,0.38947 q -0.129823,-0.0734 -0.287867,-0.11289 -0.158044,-0.0452 -0.338667,-0.0452 -0.801511,0 -0.801511,1.08374 0,0.21449 0.03951,0.41204 0.04516,0.19191 0.141111,0.34431 0.1016,0.14676 0.259645,0.23707 0.163689,0.0903 0.400755,0.0903 0.2032,0 0.361245,-0.0621 0.163689,-0.0621 0.265289,-0.14111 z" />
      <path
         inkscape:connector-curvature="0"
         id="path190"
         style="font-style:normal;font-variant:normal;font-weight:normal;font-stretch:normal;font-size:5.64444px;font-family:'PT Sans';-inkscape-font-specification:'PT Sans Normal';font-variant-ligatures:normal;font-variant-caps:normal;font-variant-numeric:normal;font-variant-east-asian:normal;stroke-width:0.264583"
         d="m 92.999251,134.90835 q 0,-0.71685 0.316089,-1.09503 0.321733,-0.38382 0.920045,-0.38382 0.316088,0 0.547511,0.10725 0.237066,0.1016 0.389466,0.29915 0.1524,0.19191 0.225778,0.46849 0.07338,0.27093 0.07338,0.60396 0,0.71684 -0.321733,1.10066 -0.316089,0.37818 -0.9144,0.37818 -0.316089,0 -0.553156,-0.1016 -0.231422,-0.10724 -0.383822,-0.29915 -0.1524,-0.19756 -0.225778,-0.46849 -0.07338,-0.27658 -0.07338,-0.6096 z m 0.468489,0 q 0,0.21449 0.03951,0.41204 0.04516,0.19756 0.135467,0.34431 0.09031,0.14676 0.237067,0.23707 0.146755,0.0903 0.3556,0.0903 0.767644,0.006 0.767644,-1.08373 0,-0.22014 -0.04516,-0.41769 -0.03951,-0.19756 -0.129822,-0.34431 -0.09031,-0.14676 -0.237066,-0.23143 -0.146756,-0.0903 -0.3556,-0.0903 -0.767645,-0.006 -0.767645,1.08374 z" />
      <path
         inkscape:connector-curvature="0"
         id="path192"
         style="font-style:normal;font-variant:normal;font-weight:normal;font-stretch:normal;font-size:5.64444px;font-family:'PT Sans';-inkscape-font-specification:'PT Sans Normal';font-variant-ligatures:normal;font-variant-caps:normal;font-variant-numeric:normal;font-variant-east-asian:normal;stroke-width:0.264583"
         d="m 97.831778,136.31946 v -1.59738 q 0,-0.22578 -0.02258,-0.38947 -0.01693,-0.16933 -0.07338,-0.28222 -0.05644,-0.11289 -0.163689,-0.16933 -0.1016,-0.0564 -0.270934,-0.0564 -0.259644,0 -0.434622,0.15805 -0.169333,0.15804 -0.237066,0.39511 v 1.94169 h -0.451556 v -2.82222 h 0.316089 l 0.08467,0.34431 h 0.02258 q 0.1524,-0.18063 0.349956,-0.29351 0.2032,-0.11854 0.524933,-0.11854 0.270934,0 0.440267,0.10725 0.174978,0.1016 0.270933,0.36124 0.129822,-0.22013 0.3556,-0.34431 0.231422,-0.12418 0.519289,-0.12418 0.237067,0 0.400756,0.0565 0.163689,0.0508 0.270933,0.18626 0.107244,0.13547 0.1524,0.36689 0.0508,0.23142 0.0508,0.58702 v 1.69334 H 99.4856 v -1.69898 q 0,-0.2032 -0.02258,-0.34996 -0.01693,-0.1524 -0.07902,-0.24835 -0.05644,-0.1016 -0.163688,-0.14676 -0.1016,-0.0508 -0.270934,-0.0508 -0.282222,0 -0.440266,0.15805 -0.158045,0.15804 -0.225778,0.45155 v 1.88525 z" />
    </g>
  </g>
</svg>
